<?xml version="1.0" encoding="UTF-8" standalone="no"?>
<!DOCTYPE svg PUBLIC "-//W3C//DTD SVG 1.1//EN"
 "http://www.w3.org/Graphics/SVG/1.1/DTD/svg11.dtd">
<!-- Generated by graphviz version 2.38.0 (20140413.2041)
 -->
<!-- Title: test_init Pages: 1 -->
<!--zoomable 686 -->
<svg id="main" version="1.1" xmlns="http://www.w3.org/2000/svg" xmlns:xlink="http://www.w3.org/1999/xlink" xml:space="preserve" onload="init(evt)">
<style type="text/css"><![CDATA[
.edge:hover path { stroke: red; }
.edge:hover polygon { stroke: red; fill: red; }
]]></style>
<script type="text/javascript"><![CDATA[
var edges = document.getElementsByTagName('g');
if (edges && edges.length) {
  for (var i=0;i<edges.length;i++) {
    if (edges[i].id.substr(0,4)=='edge') {
      edges[i].setAttribute('class','edge');
    }
  }
}
]]></script>
        <defs>
                <circle id="rim" cx="0" cy="0" r="7"/>
                <circle id="rim2" cx="0" cy="0" r="3.5"/>
                <g id="zoomPlus">
                        <use xlink:href="#rim" fill="#404040">
                                <set attributeName="fill" to="#808080" begin="zoomplus.mouseover" end="zoomplus.mouseout"/>
                        </use>
                        <path d="M-4,0h8M0,-4v8" fill="none" stroke="white" stroke-width="1.5" pointer-events="none"/>
                </g>
                <g id="zoomMin">
                        <use xlink:href="#rim" fill="#404040">
                                <set attributeName="fill" to="#808080" begin="zoomminus.mouseover" end="zoomminus.mouseout"/>
                        </use>
                        <path d="M-4,0h8" fill="none" stroke="white" stroke-width="1.5" pointer-events="none"/>
                </g>
                <g id="dirArrow">
                        <path fill="none" stroke="white" stroke-width="1.5" d="M0,-3.0v7 M-2.5,-0.5L0,-3.0L2.5,-0.5"/>
                </g>
               <g id="resetDef">
                       <use xlink:href="#rim2" fill="#404040">
                               <set attributeName="fill" to="#808080" begin="reset.mouseover" end="reset.mouseout"/>
                       </use>
               </g>
        </defs>

<script type="text/javascript">
var viewWidth = 878;
var viewHeight = 686;
var sectionId = 'dynsection-0';
</script>
<script xlink:href="../../svgpan.js"/>
<svg id="graph" class="graph">
<g id="viewport">
<title>test_init</title>
<polygon fill="white" stroke="none" points="-4,4 -4,-682 874,-682 874,4 -4,4"/>
<!-- Node1 -->
<g id="node1" class="node"><title>Node1</title>
<g id="a_node1"><a xlink:title=" ">
<polygon fill="#bfbfbf" stroke="black" points="0,-259.5 0,-278.5 51,-278.5 51,-259.5 0,-259.5"/>
<text text-anchor="middle" x="25.5" y="-266.5" font-family="Helvetica,sans-Serif" font-size="10.00">test_init</text>
</a>
</g>
</g>
<!-- Node2 -->
<g id="node2" class="node"><title>Node2</title>
<g id="a_node2"><a xlink:href="../../d8/d79/namespace_nx_ps2.html#a92e27e9047a637ac8565b862fc9e73a6" target="_top" xlink:title=" ">
<polygon fill="white" stroke="black" points="87,-259.5 87,-278.5 204,-278.5 204,-259.5 87,-259.5"/>
<text text-anchor="middle" x="145.5" y="-266.5" font-family="Helvetica,sans-Serif" font-size="10.00">NxPs2::InitialiseEngine</text>
</a>
</g>
</g>
<!-- Node1&#45;&gt;Node2 -->
<g id="edge1" class="edge"><title>Node1&#45;&gt;Node2</title>
<path fill="none" stroke="midnightblue" d="M51.2367,-269C58.7983,-269 67.5091,-269 76.5055,-269"/>
<polygon fill="midnightblue" stroke="midnightblue" points="76.7383,-272.5 86.7382,-269 76.7382,-265.5 76.7383,-272.5"/>
</g>
<!-- Node3 -->
<g id="node3" class="node"><title>Node3</title>
<g id="a_node3"><a xlink:href="../../d8/d79/namespace_nx_ps2.html#a4c8f41c1fc3f8ffe5b6fe98c0752bfce" target="_top" xlink:title=" ">
<polygon fill="white" stroke="black" points="244.5,-449.5 244.5,-468.5 390.5,-468.5 390.5,-449.5 244.5,-449.5"/>
<text text-anchor="middle" x="317.5" y="-456.5" font-family="Helvetica,sans-Serif" font-size="10.00">NxPs2::BuildDmaSubroutines</text>
</a>
</g>
</g>
<!-- Node2&#45;&gt;Node3 -->
<g id="edge2" class="edge"><title>Node2&#45;&gt;Node3</title>
<path fill="none" stroke="midnightblue" d="M148.803,-278.536C156.353,-307.672 183.198,-396.194 240,-440 242.337,-441.802 244.822,-443.435 247.415,-444.915"/>
<polygon fill="midnightblue" stroke="midnightblue" points="246.062,-448.149 256.585,-449.381 249.127,-441.856 246.062,-448.149"/>
</g>
<!-- Node20 -->
<g id="node20" class="node"><title>Node20</title>
<g id="a_node20"><a xlink:href="../../db/dc4/namespace_mem.html#a88e90ad3b4ee9f2223fb36dd14da36b2" target="_top" xlink:title=" ">
<polygon fill="white" stroke="black" points="282,-411.5 282,-430.5 353,-430.5 353,-411.5 282,-411.5"/>
<text text-anchor="middle" x="317.5" y="-418.5" font-family="Helvetica,sans-Serif" font-size="10.00">Mem::Calloc</text>
</a>
</g>
</g>
<!-- Node2&#45;&gt;Node20 -->
<g id="edge27" class="edge"><title>Node2&#45;&gt;Node20</title>
<path fill="none" stroke="midnightblue" d="M150.471,-278.838C161.025,-303.682 192.269,-369.293 240,-402 249.421,-408.455 260.829,-412.721 271.928,-415.539"/>
<polygon fill="midnightblue" stroke="midnightblue" points="271.45,-419.017 281.968,-417.741 272.949,-412.18 271.45,-419.017"/>
</g>
<!-- Node21 -->
<g id="node21" class="node"><title>Node21</title>
<g id="a_node21"><a xlink:href="../../d0/d31/namespace_config.html#a709cc81780d49900157e3476b63aa25d" target="_top" xlink:title=" ">
<polygon fill="white" stroke="black" points="255.5,-373.5 255.5,-392.5 379.5,-392.5 379.5,-373.5 255.5,-373.5"/>
<text text-anchor="middle" x="317.5" y="-380.5" font-family="Helvetica,sans-Serif" font-size="10.00">Config::GotExtraMemory</text>
</a>
</g>
</g>
<!-- Node2&#45;&gt;Node21 -->
<g id="edge28" class="edge"><title>Node2&#45;&gt;Node21</title>
<path fill="none" stroke="midnightblue" d="M153.008,-278.506C166.724,-297.778 200.602,-341.526 240,-364 243.917,-366.234 248.093,-368.208 252.397,-369.952"/>
<polygon fill="midnightblue" stroke="midnightblue" points="251.377,-373.305 261.971,-373.413 253.757,-366.722 251.377,-373.305"/>
</g>
<!-- Node22 -->
<g id="node22" class="node"><title>Node22</title>
<g id="a_node22"><a xlink:href="../../db/dc4/namespace_mem.html#a10246603d03405159c82320b96e3efbf" target="_top" xlink:title=" ">
<polygon fill="white" stroke="black" points="281,-335.5 281,-354.5 354,-354.5 354,-335.5 281,-335.5"/>
<text text-anchor="middle" x="317.5" y="-342.5" font-family="Helvetica,sans-Serif" font-size="10.00">Mem::Malloc</text>
</a>
</g>
</g>
<!-- Node2&#45;&gt;Node22 -->
<g id="edge29" class="edge"><title>Node2&#45;&gt;Node22</title>
<path fill="none" stroke="midnightblue" d="M159.437,-278.659C176.879,-291.254 209.298,-313.184 240,-326 249.762,-330.075 260.603,-333.421 270.981,-336.107"/>
<polygon fill="midnightblue" stroke="midnightblue" points="270.196,-339.518 280.74,-338.483 271.852,-332.717 270.196,-339.518"/>
</g>
<!-- Node23 -->
<g id="node23" class="node"><title>Node23</title>
<g id="a_node23"><a xlink:href="../../d2/d0a/class_mem_1_1_manager.html#a7c4cba14870f002aee0243e16114f443" target="_top" xlink:title=" ">
<polygon fill="white" stroke="black" points="248,-297.5 248,-316.5 387,-316.5 387,-297.5 248,-297.5"/>
<text text-anchor="middle" x="317.5" y="-304.5" font-family="Helvetica,sans-Serif" font-size="10.00">Mem::Manager::PopContext</text>
</a>
</g>
</g>
<!-- Node2&#45;&gt;Node23 -->
<g id="edge30" class="edge"><title>Node2&#45;&gt;Node23</title>
<path fill="none" stroke="midnightblue" d="M189.398,-278.589C212.034,-283.649 239.998,-289.9 263.929,-295.249"/>
<polygon fill="midnightblue" stroke="midnightblue" points="263.388,-298.714 273.91,-297.48 264.915,-291.883 263.388,-298.714"/>
</g>
<!-- Node24 -->
<g id="node24" class="node"><title>Node24</title>
<g id="a_node24"><a xlink:href="../../d2/d0a/class_mem_1_1_manager.html#aaf8e36abc36eecabe46bf2582035192a" target="_top" xlink:title=" ">
<polygon fill="white" stroke="black" points="245.5,-259.5 245.5,-278.5 389.5,-278.5 389.5,-259.5 245.5,-259.5"/>
<text text-anchor="middle" x="317.5" y="-266.5" font-family="Helvetica,sans-Serif" font-size="10.00">Mem::Manager::PushContext</text>
</a>
</g>
</g>
<!-- Node2&#45;&gt;Node24 -->
<g id="edge31" class="edge"><title>Node2&#45;&gt;Node24</title>
<path fill="none" stroke="midnightblue" d="M204.054,-269C214.128,-269 224.777,-269 235.347,-269"/>
<polygon fill="midnightblue" stroke="midnightblue" points="235.436,-272.5 245.436,-269 235.436,-265.5 235.436,-272.5"/>
</g>
<!-- Node25 -->
<g id="node25" class="node"><title>Node25</title>
<g id="a_node25"><a xlink:href="../../d6/da9/class_nx_ps2_1_1_c_geom_node.html#a04c2e2f13b34720337d099185263ec73" target="_top" xlink:title=" ">
<polygon fill="white" stroke="black" points="240,-221.5 240,-240.5 395,-240.5 395,-221.5 240,-221.5"/>
<text text-anchor="middle" x="317.5" y="-228.5" font-family="Helvetica,sans-Serif" font-size="10.00">NxPs2::CGeomNode::SetActive</text>
</a>
</g>
</g>
<!-- Node2&#45;&gt;Node25 -->
<g id="edge32" class="edge"><title>Node2&#45;&gt;Node25</title>
<path fill="none" stroke="midnightblue" d="M189.398,-259.411C212.034,-254.351 239.998,-248.1 263.929,-242.751"/>
<polygon fill="midnightblue" stroke="midnightblue" points="264.915,-246.117 273.91,-240.52 263.388,-239.286 264.915,-246.117"/>
</g>
<!-- Node26 -->
<g id="node26" class="node"><title>Node26</title>
<g id="a_node26"><a xlink:href="../../d8/d79/namespace_nx_ps2.html#adadbe61418bfadc6b7010deb0ad835fb" target="_top" xlink:title=" ">
<polygon fill="white" stroke="black" points="262.5,-183.5 262.5,-202.5 372.5,-202.5 372.5,-183.5 262.5,-183.5"/>
<text text-anchor="middle" x="317.5" y="-190.5" font-family="Helvetica,sans-Serif" font-size="10.00">NxPs2::SetupPCRTC</text>
</a>
</g>
</g>
<!-- Node2&#45;&gt;Node26 -->
<g id="edge33" class="edge"><title>Node2&#45;&gt;Node26</title>
<path fill="none" stroke="midnightblue" d="M159.437,-259.341C176.879,-246.746 209.298,-224.816 240,-212 245.884,-209.544 252.161,-207.352 258.492,-205.41"/>
<polygon fill="midnightblue" stroke="midnightblue" points="259.787,-208.68 268.437,-202.562 257.859,-201.951 259.787,-208.68"/>
</g>
<!-- Node28 -->
<g id="node28" class="node"><title>Node28</title>
<g id="a_node28"><a xlink:href="../../d2/d0a/class_mem_1_1_manager.html#a3aefd91781b7f41d35e6df6a32d379d0" target="_top" xlink:title=" ">
<polygon fill="white" stroke="black" points="256,-145.5 256,-164.5 379,-164.5 379,-145.5 256,-145.5"/>
<text text-anchor="middle" x="317.5" y="-152.5" font-family="Helvetica,sans-Serif" font-size="10.00">Mem::Manager::sHandle</text>
</a>
</g>
</g>
<!-- Node2&#45;&gt;Node28 -->
<g id="edge35" class="edge"><title>Node2&#45;&gt;Node28</title>
<path fill="none" stroke="midnightblue" d="M153.008,-259.494C166.724,-240.222 200.602,-196.474 240,-174 243.917,-171.766 248.093,-169.792 252.397,-168.048"/>
<polygon fill="midnightblue" stroke="midnightblue" points="253.757,-171.278 261.971,-164.587 251.377,-164.695 253.757,-171.278"/>
</g>
<!-- Node29 -->
<g id="node29" class="node"><title>Node29</title>
<g id="a_node29"><a xlink:href="../../dc/d3d/class_nx_ps2_1_1_c_system_resources.html#ac9202750b53cad879606373cfb1b4409" target="_top" xlink:title=" ">
<polygon fill="white" stroke="black" points="248,-96 248,-126 387,-126 387,-96 248,-96"/>
<text text-anchor="start" x="256" y="-114" font-family="Helvetica,sans-Serif" font-size="10.00">NxPs2::CSystemResources</text>
<text text-anchor="middle" x="317.5" y="-103" font-family="Helvetica,sans-Serif" font-size="10.00">::sInitResources</text>
</a>
</g>
</g>
<!-- Node2&#45;&gt;Node29 -->
<g id="edge36" class="edge"><title>Node2&#45;&gt;Node29</title>
<path fill="none" stroke="midnightblue" d="M150.616,-259.365C161.51,-234.998 193.484,-170.413 240,-136 242.503,-134.148 245.149,-132.43 247.896,-130.835"/>
<polygon fill="midnightblue" stroke="midnightblue" points="249.678,-133.854 256.953,-126.152 246.463,-127.636 249.678,-133.854"/>
</g>
<!-- Node30 -->
<g id="node30" class="node"><title>Node30</title>
<g id="a_node30"><a xlink:href="../../d8/d79/namespace_nx_ps2.html#a12ee38956f003dd999be224b419c17dd" target="_top" xlink:title=" ">
<polygon fill="white" stroke="black" points="261,-57.5 261,-76.5 374,-76.5 374,-57.5 261,-57.5"/>
<text text-anchor="middle" x="317.5" y="-64.5" font-family="Helvetica,sans-Serif" font-size="10.00">NxPs2::StartInterrupts</text>
</a>
</g>
</g>
<!-- Node2&#45;&gt;Node30 -->
<g id="edge37" class="edge"><title>Node2&#45;&gt;Node30</title>
<path fill="none" stroke="midnightblue" d="M148.49,-259.244C155.277,-228.558 180.479,-133.247 240,-86 243.532,-83.1963 247.422,-80.7996 251.52,-78.7515"/>
<polygon fill="midnightblue" stroke="midnightblue" points="252.943,-81.9497 260.764,-74.8023 250.193,-75.5125 252.943,-81.9497"/>
</g>
<!-- Node4 -->
<g id="node4" class="node"><title>Node4</title>
<g id="a_node4"><a xlink:href="../../d5/db1/class_nx_ps2_1_1vif.html#a1b38a3c5756a168c9eaea2a944558445" target="_top" xlink:title=" ">
<polygon fill="white" stroke="black" points="431,-316.5 431,-335.5 556,-335.5 556,-316.5 431,-316.5"/>
<text text-anchor="middle" x="493.5" y="-323.5" font-family="Helvetica,sans-Serif" font-size="10.00">NxPs2::vif::BeginDIRECT</text>
</a>
</g>
</g>
<!-- Node3&#45;&gt;Node4 -->
<g id="edge3" class="edge"><title>Node3&#45;&gt;Node4</title>
<path fill="none" stroke="midnightblue" d="M380.488,-449.366C385.755,-446.891 390.702,-443.816 395,-440 428.766,-410.024 398.089,-375.913 431,-345 432.688,-343.415 434.505,-341.962 436.42,-340.63"/>
<polygon fill="midnightblue" stroke="midnightblue" points="438.395,-343.532 445.341,-335.532 434.922,-337.454 438.395,-343.532"/>
</g>
<!-- Node8 -->
<g id="node8" class="node"><title>Node8</title>
<g id="a_node8"><a xlink:href="../../d7/d08/class_nx_ps2_1_1dma.html#aa3f2d81b8231967d4d0e34e4f27b9424" target="_top" xlink:title=" ">
<polygon fill="white" stroke="black" points="434,-468.5 434,-487.5 553,-487.5 553,-468.5 434,-468.5"/>
<text text-anchor="middle" x="493.5" y="-475.5" font-family="Helvetica,sans-Serif" font-size="10.00">NxPs2::dma::BeginSub</text>
</a>
</g>
</g>
<!-- Node3&#45;&gt;Node8 -->
<g id="edge7" class="edge"><title>Node3&#45;&gt;Node8</title>
<path fill="none" stroke="midnightblue" d="M390.528,-466.865C401.439,-468.057 412.674,-469.283 423.519,-470.468"/>
<polygon fill="midnightblue" stroke="midnightblue" points="423.452,-473.981 433.773,-471.587 424.212,-467.022 423.452,-473.981"/>
</g>
<!-- Node9 -->
<g id="node9" class="node"><title>Node9</title>
<g id="a_node9"><a xlink:href="../../d7/d08/class_nx_ps2_1_1dma.html#ab88e645a325d1540404881a55321aba0" target="_top" xlink:title=" ">
<polygon fill="white" stroke="black" points="599.5,-658.5 599.5,-677.5 716.5,-677.5 716.5,-658.5 599.5,-658.5"/>
<text text-anchor="middle" x="658" y="-665.5" font-family="Helvetica,sans-Serif" font-size="10.00">NxPs2::dma::BeginTag</text>
</a>
</g>
</g>
<!-- Node3&#45;&gt;Node9 -->
<g id="edge9" class="edge"><title>Node3&#45;&gt;Node9</title>
<path fill="none" stroke="midnightblue" d="M321.229,-468.509C330.599,-499.256 364.602,-596.449 431,-639 477.699,-668.926 541.038,-674.771 588.782,-673.935"/>
<polygon fill="midnightblue" stroke="midnightblue" points="589.128,-677.427 599.027,-673.65 588.933,-670.43 589.128,-677.427"/>
</g>
<!-- Node10 -->
<g id="node10" class="node"><title>Node10</title>
<g id="a_node10"><a xlink:href="../../d5/df5/class_nx_ps2_1_1gif.html#a2dcaece8f882923ea38009563a6d414f" target="_top" xlink:title=" ">
<polygon fill="white" stroke="black" points="601.5,-620.5 601.5,-639.5 714.5,-639.5 714.5,-620.5 601.5,-620.5"/>
<text text-anchor="middle" x="658" y="-627.5" font-family="Helvetica,sans-Serif" font-size="10.00">NxPs2::gif::BeginTag2</text>
</a>
</g>
</g>
<!-- Node3&#45;&gt;Node10 -->
<g id="edge11" class="edge"><title>Node3&#45;&gt;Node10</title>
<path fill="none" stroke="midnightblue" d="M322.259,-468.707C333.659,-496.649 370.788,-577.418 431,-611 479.696,-638.159 543.672,-641.085 591.123,-638.278"/>
<polygon fill="midnightblue" stroke="midnightblue" points="591.554,-641.756 601.288,-637.574 591.071,-634.773 591.554,-641.756"/>
</g>
<!-- Node11 -->
<g id="node11" class="node"><title>Node11</title>
<g id="a_node11"><a xlink:href="../../d5/db1/class_nx_ps2_1_1vif.html#ac7f15632e25f14a3eecd9e40f02947f3" target="_top" xlink:title=" ">
<polygon fill="white" stroke="black" points="434.5,-430.5 434.5,-449.5 552.5,-449.5 552.5,-430.5 434.5,-430.5"/>
<text text-anchor="middle" x="493.5" y="-437.5" font-family="Helvetica,sans-Serif" font-size="10.00">NxPs2::vif::EndDIRECT</text>
</a>
</g>
</g>
<!-- Node3&#45;&gt;Node11 -->
<g id="edge13" class="edge"><title>Node3&#45;&gt;Node11</title>
<path fill="none" stroke="midnightblue" d="M390.528,-451.135C401.695,-449.915 413.201,-448.659 424.28,-447.449"/>
<polygon fill="midnightblue" stroke="midnightblue" points="424.752,-450.919 434.313,-446.354 423.992,-443.96 424.752,-450.919"/>
</g>
<!-- Node12 -->
<g id="node12" class="node"><title>Node12</title>
<g id="a_node12"><a xlink:href="../../d7/d08/class_nx_ps2_1_1dma.html#a26a3b4ad72e0eaec7bb5456efa485adc" target="_top" xlink:title=" ">
<polygon fill="white" stroke="black" points="438,-392.5 438,-411.5 549,-411.5 549,-392.5 438,-392.5"/>
<text text-anchor="middle" x="493.5" y="-399.5" font-family="Helvetica,sans-Serif" font-size="10.00">NxPs2::dma::EndSub</text>
</a>
</g>
</g>
<!-- Node3&#45;&gt;Node12 -->
<g id="edge15" class="edge"><title>Node3&#45;&gt;Node12</title>
<path fill="none" stroke="midnightblue" d="M364.768,-449.424C374.874,-446.805 385.411,-443.659 395,-440 411.903,-433.55 414.285,-427.922 431,-421 436.424,-418.754 442.211,-416.63 447.985,-414.672"/>
<polygon fill="midnightblue" stroke="midnightblue" points="449.191,-417.96 457.621,-411.541 447.029,-411.302 449.191,-417.96"/>
</g>
<!-- Node13 -->
<g id="node13" class="node"><title>Node13</title>
<g id="a_node13"><a xlink:href="../../d7/d08/class_nx_ps2_1_1dma.html#a8a3ead69905280b699ad2b6ed545edde" target="_top" xlink:title=" ">
<polygon fill="white" stroke="black" points="438.5,-354.5 438.5,-373.5 548.5,-373.5 548.5,-354.5 438.5,-354.5"/>
<text text-anchor="middle" x="493.5" y="-361.5" font-family="Helvetica,sans-Serif" font-size="10.00">NxPs2::dma::EndTag</text>
</a>
</g>
</g>
<!-- Node3&#45;&gt;Node13 -->
<g id="edge17" class="edge"><title>Node3&#45;&gt;Node13</title>
<path fill="none" stroke="midnightblue" d="M377.394,-449.37C383.657,-446.917 389.675,-443.846 395,-440 419.291,-422.458 407.212,-401.218 431,-383 433.45,-381.124 436.086,-379.432 438.841,-377.905"/>
<polygon fill="midnightblue" stroke="midnightblue" points="440.427,-381.027 447.956,-373.573 437.422,-374.704 440.427,-381.027"/>
</g>
<!-- Node14 -->
<g id="node14" class="node"><title>Node14</title>
<g id="a_node14"><a xlink:href="../../d5/df5/class_nx_ps2_1_1gif.html#afac6f1550acb702cf101c770c8dbed43" target="_top" xlink:title=" ">
<polygon fill="white" stroke="black" points="440.5,-582.5 440.5,-601.5 546.5,-601.5 546.5,-582.5 440.5,-582.5"/>
<text text-anchor="middle" x="493.5" y="-589.5" font-family="Helvetica,sans-Serif" font-size="10.00">NxPs2::gif::EndTag2</text>
</a>
</g>
</g>
<!-- Node3&#45;&gt;Node14 -->
<g id="edge19" class="edge"><title>Node3&#45;&gt;Node14</title>
<path fill="none" stroke="midnightblue" d="M325.232,-468.507C341.121,-490.255 383.231,-543.986 431,-573 434.447,-575.094 438.145,-576.975 441.954,-578.662"/>
<polygon fill="midnightblue" stroke="midnightblue" points="440.986,-582.043 451.573,-582.465 443.56,-575.533 440.986,-582.043"/>
</g>
<!-- Node15 -->
<g id="node15" class="node"><title>Node15</title>
<g id="a_node15"><a xlink:href="../../d5/db1/class_nx_ps2_1_1vif.html#a3e743ffe8ab27ae6d3829e20f443efd4" target="_top" xlink:title=" ">
<polygon fill="white" stroke="black" points="444.5,-278.5 444.5,-297.5 542.5,-297.5 542.5,-278.5 444.5,-278.5"/>
<text text-anchor="middle" x="493.5" y="-285.5" font-family="Helvetica,sans-Serif" font-size="10.00">NxPs2::vif::FLUSH</text>
</a>
</g>
</g>
<!-- Node3&#45;&gt;Node15 -->
<g id="edge20" class="edge"><title>Node3&#45;&gt;Node15</title>
<path fill="none" stroke="midnightblue" d="M381.628,-449.426C386.533,-446.927 391.089,-443.83 395,-440 438.752,-397.153 388.469,-351.059 431,-307 432.426,-305.523 433.964,-304.159 435.591,-302.902"/>
<polygon fill="midnightblue" stroke="midnightblue" points="437.713,-305.704 444.356,-297.451 434.016,-299.76 437.713,-305.704"/>
</g>
<!-- Node16 -->
<g id="node16" class="node"><title>Node16</title>
<g id="a_node16"><a xlink:href="../../d5/db1/class_nx_ps2_1_1vif.html#a82a4f99355961a982fa2158d29413bc6" target="_top" xlink:title=" ">
<polygon fill="white" stroke="black" points="441.5,-240.5 441.5,-259.5 545.5,-259.5 545.5,-240.5 441.5,-240.5"/>
<text text-anchor="middle" x="493.5" y="-247.5" font-family="Helvetica,sans-Serif" font-size="10.00">NxPs2::vif::FLUSHA</text>
</a>
</g>
</g>
<!-- Node3&#45;&gt;Node16 -->
<g id="edge22" class="edge"><title>Node3&#45;&gt;Node16</title>
<path fill="none" stroke="midnightblue" d="M382.227,-449.468C386.943,-446.953 391.295,-443.841 395,-440 448.922,-384.104 378.669,-326.389 431,-269 432.217,-267.666 433.524,-266.425 434.907,-265.269"/>
<polygon fill="midnightblue" stroke="midnightblue" points="437.131,-267.995 443.534,-259.554 433.265,-262.159 437.131,-267.995"/>
</g>
<!-- Node17 -->
<g id="node17" class="node"><title>Node17</title>
<g id="a_node17"><a xlink:href="../../d3/d7c/class_nx_ps2_1_1gs.html#a2d8af80b4b37d48e71929723126de024" target="_top" xlink:title=" ">
<polygon fill="white" stroke="black" points="448,-544.5 448,-563.5 539,-563.5 539,-544.5 448,-544.5"/>
<text text-anchor="middle" x="493.5" y="-551.5" font-family="Helvetica,sans-Serif" font-size="10.00">NxPs2::gs::Reg2</text>
</a>
</g>
</g>
<!-- Node3&#45;&gt;Node17 -->
<g id="edge24" class="edge"><title>Node3&#45;&gt;Node17</title>
<path fill="none" stroke="midnightblue" d="M330.266,-468.69C349.991,-484.519 391.464,-516.054 431,-535 435.667,-537.237 440.658,-539.286 445.704,-541.142"/>
<polygon fill="midnightblue" stroke="midnightblue" points="444.807,-544.535 455.402,-544.473 447.081,-537.915 444.807,-544.535"/>
</g>
<!-- Node19 -->
<g id="node19" class="node"><title>Node19</title>
<g id="a_node19"><a xlink:href="../../d5/db1/class_nx_ps2_1_1vif.html#ac3a3550292355719bd00189b3d557ae6" target="_top" xlink:title=" ">
<polygon fill="white" stroke="black" points="435,-506.5 435,-525.5 552,-525.5 552,-506.5 435,-506.5"/>
<text text-anchor="middle" x="493.5" y="-513.5" font-family="Helvetica,sans-Serif" font-size="10.00">NxPs2::vif::StoreV4_32</text>
</a>
</g>
</g>
<!-- Node3&#45;&gt;Node19 -->
<g id="edge26" class="edge"><title>Node3&#45;&gt;Node19</title>
<path fill="none" stroke="midnightblue" d="M346.173,-468.572C368.904,-476.38 401.969,-487.614 431,-497 437.573,-499.125 444.557,-501.331 451.37,-503.456"/>
<polygon fill="midnightblue" stroke="midnightblue" points="450.576,-506.874 461.164,-506.492 452.648,-500.188 450.576,-506.874"/>
</g>
<!-- Node5 -->
<g id="node5" class="node"><title>Node5</title>
<g id="a_node5"><a xlink:href="../../d7/d08/class_nx_ps2_1_1dma.html#a653037c8952a7c2de7222a73374f1948" target="_top" xlink:title=" ">
<polygon fill="white" stroke="black" points="609,-392.5 609,-411.5 707,-411.5 707,-392.5 609,-392.5"/>
<text text-anchor="middle" x="658" y="-399.5" font-family="Helvetica,sans-Serif" font-size="10.00">NxPs2::dma::Align</text>
</a>
</g>
</g>
<!-- Node4&#45;&gt;Node5 -->
<g id="edge4" class="edge"><title>Node4&#45;&gt;Node5</title>
<path fill="none" stroke="midnightblue" d="M530.094,-335.578C538.704,-338.282 547.789,-341.463 556,-345 583.777,-356.965 613.73,-374.513 633.742,-386.973"/>
<polygon fill="midnightblue" stroke="midnightblue" points="632.129,-390.093 642.454,-392.468 635.863,-384.173 632.129,-390.093"/>
</g>
<!-- Node6 -->
<g id="node6" class="node"><title>Node6</title>
<g id="a_node6"><a xlink:href="../../d5/db1/class_nx_ps2_1_1vif.html#a033b234f6385fdc0b4fc469f6fbf847d" target="_top" xlink:title=" ">
<polygon fill="white" stroke="black" points="613.5,-297.5 613.5,-316.5 702.5,-316.5 702.5,-297.5 613.5,-297.5"/>
<text text-anchor="middle" x="658" y="-304.5" font-family="Helvetica,sans-Serif" font-size="10.00">NxPs2::vif::Code</text>
</a>
</g>
</g>
<!-- Node4&#45;&gt;Node6 -->
<g id="edge5" class="edge"><title>Node4&#45;&gt;Node6</title>
<path fill="none" stroke="midnightblue" d="M556.398,-318.763C571.847,-316.956 588.288,-315.034 603.304,-313.278"/>
<polygon fill="midnightblue" stroke="midnightblue" points="603.917,-316.731 613.443,-312.093 603.104,-309.778 603.917,-316.731"/>
</g>
<!-- Node7 -->
<g id="node7" class="node"><title>Node7</title>
<g id="a_node7"><a xlink:href="../../d7/d08/class_nx_ps2_1_1dma.html#a29e81437fd90a1395b4ced35c2619854" target="_top" xlink:title=" ">
<polygon fill="white" stroke="black" points="760,-620.5 760,-639.5 870,-639.5 870,-620.5 760,-620.5"/>
<text text-anchor="middle" x="815" y="-627.5" font-family="Helvetica,sans-Serif" font-size="10.00">NxPs2::dma::Store32</text>
</a>
</g>
</g>
<!-- Node6&#45;&gt;Node7 -->
<g id="edge6" class="edge"><title>Node6&#45;&gt;Node7</title>
<path fill="none" stroke="midnightblue" d="M669.562,-316.896C683.648,-330.585 708.592,-356.612 724,-383 769.727,-461.316 798.69,-566.865 809.365,-610.189"/>
<polygon fill="midnightblue" stroke="midnightblue" points="805.991,-611.127 811.736,-620.029 812.796,-609.487 805.991,-611.127"/>
</g>
<!-- Node8&#45;&gt;Node5 -->
<g id="edge8" class="edge"><title>Node8&#45;&gt;Node5</title>
<path fill="none" stroke="midnightblue" d="M530.094,-468.422C538.704,-465.718 547.789,-462.537 556,-459 583.777,-447.035 613.73,-429.487 633.742,-417.027"/>
<polygon fill="midnightblue" stroke="midnightblue" points="635.863,-419.827 642.454,-411.532 632.129,-413.907 635.863,-419.827"/>
</g>
<!-- Node9&#45;&gt;Node7 -->
<g id="edge10" class="edge"><title>Node9&#45;&gt;Node7</title>
<path fill="none" stroke="midnightblue" d="M698.113,-658.411C718.475,-653.419 743.566,-647.268 765.189,-641.967"/>
<polygon fill="midnightblue" stroke="midnightblue" points="766.289,-645.301 775.168,-639.52 764.622,-638.502 766.289,-645.301"/>
</g>
<!-- Node10&#45;&gt;Node7 -->
<g id="edge12" class="edge"><title>Node10&#45;&gt;Node7</title>
<path fill="none" stroke="midnightblue" d="M714.521,-630C725.942,-630 738.058,-630 749.759,-630"/>
<polygon fill="midnightblue" stroke="midnightblue" points="749.906,-633.5 759.906,-630 749.906,-626.5 749.906,-633.5"/>
</g>
<!-- Node11&#45;&gt;Node5 -->
<g id="edge14" class="edge"><title>Node11&#45;&gt;Node5</title>
<path fill="none" stroke="midnightblue" d="M535.506,-430.411C557.046,-425.374 583.635,-419.156 606.441,-413.823"/>
<polygon fill="midnightblue" stroke="midnightblue" points="607.349,-417.205 616.289,-411.52 605.755,-410.389 607.349,-417.205"/>
</g>
<!-- Node12&#45;&gt;Node5 -->
<g id="edge16" class="edge"><title>Node12&#45;&gt;Node5</title>
<path fill="none" stroke="midnightblue" d="M549.062,-402C564.946,-402 582.36,-402 598.477,-402"/>
<polygon fill="midnightblue" stroke="midnightblue" points="598.851,-405.5 608.851,-402 598.851,-398.5 598.851,-405.5"/>
</g>
<!-- Node13&#45;&gt;Node5 -->
<g id="edge18" class="edge"><title>Node13&#45;&gt;Node5</title>
<path fill="none" stroke="midnightblue" d="M535.506,-373.589C557.046,-378.626 583.635,-384.844 606.441,-390.177"/>
<polygon fill="midnightblue" stroke="midnightblue" points="605.755,-393.611 616.289,-392.48 607.349,-386.795 605.755,-393.611"/>
</g>
<!-- Node15&#45;&gt;Node6 -->
<g id="edge21" class="edge"><title>Node15&#45;&gt;Node6</title>
<path fill="none" stroke="midnightblue" d="M542.815,-293.649C561.856,-295.875 583.802,-298.441 603.334,-300.725"/>
<polygon fill="midnightblue" stroke="midnightblue" points="602.961,-304.205 613.3,-301.89 603.774,-297.253 602.961,-304.205"/>
</g>
<!-- Node16&#45;&gt;Node6 -->
<g id="edge23" class="edge"><title>Node16&#45;&gt;Node6</title>
<path fill="none" stroke="midnightblue" d="M526.856,-259.596C536.29,-262.502 546.59,-265.78 556,-269 578.594,-276.733 603.727,-286.186 623.27,-293.729"/>
<polygon fill="midnightblue" stroke="midnightblue" points="622.069,-297.017 632.658,-297.371 624.601,-290.491 622.069,-297.017"/>
</g>
<!-- Node18 -->
<g id="node18" class="node"><title>Node18</title>
<g id="a_node18"><a xlink:href="../../d7/d08/class_nx_ps2_1_1dma.html#ad2ac4ac89bcd665eb7e34921664cad7e" target="_top" xlink:title=" ">
<polygon fill="white" stroke="black" points="603,-544.5 603,-563.5 713,-563.5 713,-544.5 603,-544.5"/>
<text text-anchor="middle" x="658" y="-551.5" font-family="Helvetica,sans-Serif" font-size="10.00">NxPs2::dma::Store64</text>
</a>
</g>
</g>
<!-- Node17&#45;&gt;Node18 -->
<g id="edge25" class="edge"><title>Node17&#45;&gt;Node18</title>
<path fill="none" stroke="midnightblue" d="M539.334,-554C555.747,-554 574.66,-554 592.455,-554"/>
<polygon fill="midnightblue" stroke="midnightblue" points="592.776,-557.5 602.776,-554 592.776,-550.5 592.776,-557.5"/>
</g>
<!-- Node27 -->
<g id="node27" class="node"><title>Node27</title>
<g id="a_node27"><a xlink:href="../../d0/d31/namespace_config.html#ac5d72116ad1031e37a5816af1055534d" target="_top" xlink:title=" ">
<polygon fill="white" stroke="black" points="456,-183.5 456,-202.5 531,-202.5 531,-183.5 456,-183.5"/>
<text text-anchor="middle" x="493.5" y="-190.5" font-family="Helvetica,sans-Serif" font-size="10.00">Config::NTSC</text>
</a>
</g>
</g>
<!-- Node26&#45;&gt;Node27 -->
<g id="edge34" class="edge"><title>Node26&#45;&gt;Node27</title>
<path fill="none" stroke="midnightblue" d="M372.601,-193C396.046,-193 423.229,-193 445.779,-193"/>
<polygon fill="midnightblue" stroke="midnightblue" points="445.784,-196.5 455.783,-193 445.783,-189.5 445.784,-196.5"/>
</g>
<!-- Node31 -->
<g id="node31" class="node"><title>Node31</title>
<g id="a_node31"><a xlink:href="../../d8/d79/namespace_nx_ps2.html#a3e3b5ab02fa14911cc69cd9c8d1f08d7" target="_top" xlink:title=" ">
<polygon fill="white" stroke="black" points="445,-76.5 445,-95.5 542,-95.5 542,-76.5 445,-76.5"/>
<text text-anchor="middle" x="493.5" y="-83.5" font-family="Helvetica,sans-Serif" font-size="10.00">NxPs2::GifHandler</text>
</a>
</g>
</g>
<!-- Node30&#45;&gt;Node31 -->
<g id="edge38" class="edge"><title>Node30&#45;&gt;Node31</title>
<path fill="none" stroke="midnightblue" d="M374.033,-73.064C393.428,-75.1818 415.234,-77.563 434.802,-79.6996"/>
<polygon fill="midnightblue" stroke="midnightblue" points="434.485,-83.1857 444.805,-80.792 435.244,-76.2271 434.485,-83.1857"/>
</g>
<!-- Node34 -->
<g id="node34" class="node"><title>Node34</title>
<g id="a_node34"><a xlink:href="../../d8/d79/namespace_nx_ps2.html#aefa0f37061cd69ff1ba9545c5205bc3d" target="_top" xlink:title=" ">
<polygon fill="white" stroke="black" points="444.5,-38.5 444.5,-57.5 542.5,-57.5 542.5,-38.5 444.5,-38.5"/>
<text text-anchor="middle" x="493.5" y="-45.5" font-family="Helvetica,sans-Serif" font-size="10.00">NxPs2::GsHandler</text>
</a>
</g>
</g>
<!-- Node30&#45;&gt;Node34 -->
<g id="edge41" class="edge"><title>Node30&#45;&gt;Node34</title>
<path fill="none" stroke="midnightblue" d="M374.033,-60.936C393.259,-58.8367 414.854,-56.4786 434.289,-54.3564"/>
<polygon fill="midnightblue" stroke="midnightblue" points="434.67,-57.8357 444.231,-53.2708 433.91,-50.877 434.67,-57.8357"/>
</g>
<!-- Node35 -->
<g id="node35" class="node"><title>Node35</title>
<g id="a_node35"><a xlink:href="../../df/d92/standard_8cpp.html#a5fc8fd1788f18ada61dfda9f171c5a1a" target="_top" xlink:title=" ">
<polygon fill="white" stroke="black" points="474.5,-114.5 474.5,-133.5 512.5,-133.5 512.5,-114.5 474.5,-114.5"/>
<text text-anchor="middle" x="493.5" y="-121.5" font-family="Helvetica,sans-Serif" font-size="10.00">printf</text>
</a>
</g>
</g>
<!-- Node30&#45;&gt;Node35 -->
<g id="edge44" class="edge"><title>Node30&#45;&gt;Node35</title>
<path fill="none" stroke="midnightblue" d="M364.768,-76.5757C374.874,-79.1951 385.411,-82.3409 395,-86 411.903,-92.4499 414.285,-98.0777 431,-105 441.797,-109.472 454.036,-113.46 464.737,-116.615"/>
<polygon fill="midnightblue" stroke="midnightblue" points="463.852,-120.002 474.428,-119.372 465.767,-113.269 463.852,-120.002"/>
</g>
<!-- Node36 -->
<g id="node36" class="node"><title>Node36</title>
<g id="a_node36"><a xlink:href="../../d8/d79/namespace_nx_ps2.html#afef4d993db0af18b35e54706ddf69461" target="_top" xlink:title=" ">
<polygon fill="white" stroke="black" points="443,-0.5 443,-19.5 544,-19.5 544,-0.5 443,-0.5"/>
<text text-anchor="middle" x="493.5" y="-7.5" font-family="Helvetica,sans-Serif" font-size="10.00">NxPs2::Vif1Handler</text>
</a>
</g>
</g>
<!-- Node30&#45;&gt;Node36 -->
<g id="edge45" class="edge"><title>Node30&#45;&gt;Node36</title>
<path fill="none" stroke="midnightblue" d="M346.173,-57.4283C368.904,-49.6199 401.969,-38.3858 431,-29 437.573,-26.8751 444.557,-24.6686 451.37,-22.5438"/>
<polygon fill="midnightblue" stroke="midnightblue" points="452.648,-25.8121 461.164,-19.5083 450.576,-19.1259 452.648,-25.8121"/>
</g>
<!-- Node32 -->
<g id="node32" class="node"><title>Node32</title>
<g id="a_node32"><a xlink:href="../../da/d21/class_sys_1_1_profiler.html#a6251971d921454ca6bbeab5d685a8d97" target="_top" xlink:title=" ">
<polygon fill="white" stroke="black" points="594.5,-76.5 594.5,-95.5 721.5,-95.5 721.5,-76.5 594.5,-76.5"/>
<text text-anchor="middle" x="658" y="-83.5" font-family="Helvetica,sans-Serif" font-size="10.00">Sys::Profiler::PopContext</text>
</a>
</g>
</g>
<!-- Node31&#45;&gt;Node32 -->
<g id="edge39" class="edge"><title>Node31&#45;&gt;Node32</title>
<path fill="none" stroke="midnightblue" d="M542.376,-86C555.485,-86 569.996,-86 584.162,-86"/>
<polygon fill="midnightblue" stroke="midnightblue" points="584.391,-89.5001 594.391,-86 584.391,-82.5001 584.391,-89.5001"/>
</g>
<!-- Node33 -->
<g id="node33" class="node"><title>Node33</title>
<g id="a_node33"><a xlink:href="../../da/d21/class_sys_1_1_profiler.html#a465bd1eebac4ba1e45cdb2bce604d67a" target="_top" xlink:title=" ">
<polygon fill="white" stroke="black" points="592,-38.5 592,-57.5 724,-57.5 724,-38.5 592,-38.5"/>
<text text-anchor="middle" x="658" y="-45.5" font-family="Helvetica,sans-Serif" font-size="10.00">Sys::Profiler::PushContext</text>
</a>
</g>
</g>
<!-- Node31&#45;&gt;Node33 -->
<g id="edge40" class="edge"><title>Node31&#45;&gt;Node33</title>
<path fill="none" stroke="midnightblue" d="M535.506,-76.411C557.046,-71.3739 583.635,-65.1562 606.441,-59.8229"/>
<polygon fill="midnightblue" stroke="midnightblue" points="607.349,-63.2052 616.289,-57.5201 605.755,-56.3891 607.349,-63.2052"/>
</g>
<!-- Node34&#45;&gt;Node32 -->
<g id="edge42" class="edge"><title>Node34&#45;&gt;Node32</title>
<path fill="none" stroke="midnightblue" d="M535.506,-57.589C557.046,-62.6261 583.635,-68.8438 606.441,-74.1771"/>
<polygon fill="midnightblue" stroke="midnightblue" points="605.755,-77.6109 616.289,-76.4799 607.349,-70.7948 605.755,-77.6109"/>
</g>
<!-- Node34&#45;&gt;Node33 -->
<g id="edge43" class="edge"><title>Node34&#45;&gt;Node33</title>
<path fill="none" stroke="midnightblue" d="M542.815,-48C555.042,-48 568.466,-48 581.68,-48"/>
<polygon fill="midnightblue" stroke="midnightblue" points="581.721,-51.5001 591.721,-48 581.721,-44.5001 581.721,-51.5001"/>
</g>
<!-- Node36&#45;&gt;Node33 -->
<g id="edge46" class="edge"><title>Node36&#45;&gt;Node33</title>
<path fill="none" stroke="midnightblue" d="M535.506,-19.589C557.046,-24.6261 583.635,-30.8438 606.441,-36.1771"/>
<polygon fill="midnightblue" stroke="midnightblue" points="605.755,-39.6109 616.289,-38.4799 607.349,-32.7948 605.755,-39.6109"/>
</g>
</g>
</svg>
        <g id="navigator" transform="translate(0 0)" fill="#404254">
                <rect fill="#f2f5e9" fill-opacity="0.5" stroke="#606060" stroke-width=".5" x="0" y="0" width="60" height="60"/>
                <use id="zoomplus" xlink:href="#zoomPlus" x="17" y="9" onmousedown="handleZoom(evt,'in')"/>
                <use id="zoomminus" xlink:href="#zoomMin" x="42" y="9" onmousedown="handleZoom(evt,'out')"/>
                <use id="reset" xlink:href="#resetDef" x="30" y="36" onmousedown="handleReset()"/>
                <g id="arrowUp" xlink:href="#dirArrow" transform="translate(30 24)" onmousedown="handlePan(0,-1)">
                  <use xlink:href="#rim" fill="#404040">
                        <set attributeName="fill" to="#808080" begin="arrowUp.mouseover" end="arrowUp.mouseout"/>
                  </use>
                  <path fill="none" stroke="white" stroke-width="1.5" d="M0,-3.0v7 M-2.5,-0.5L0,-3.0L2.5,-0.5"/>
                </g>
                <g id="arrowRight" xlink:href="#dirArrow" transform="rotate(90) translate(36 -43)" onmousedown="handlePan(1,0)">
                  <use xlink:href="#rim" fill="#404040">
                        <set attributeName="fill" to="#808080" begin="arrowRight.mouseover" end="arrowRight.mouseout"/>
                  </use>
                  <path fill="none" stroke="white" stroke-width="1.5" d="M0,-3.0v7 M-2.5,-0.5L0,-3.0L2.5,-0.5"/>
                </g>
                <g id="arrowDown" xlink:href="#dirArrow" transform="rotate(180) translate(-30 -48)" onmousedown="handlePan(0,1)">
                  <use xlink:href="#rim" fill="#404040">
                        <set attributeName="fill" to="#808080" begin="arrowDown.mouseover" end="arrowDown.mouseout"/>
                  </use>
                  <path fill="none" stroke="white" stroke-width="1.5" d="M0,-3.0v7 M-2.5,-0.5L0,-3.0L2.5,-0.5"/>
                </g>
                <g id="arrowLeft" xlink:href="#dirArrow" transform="rotate(270) translate(-36 17)" onmousedown="handlePan(-1,0)">
                  <use xlink:href="#rim" fill="#404040">
                        <set attributeName="fill" to="#808080" begin="arrowLeft.mouseover" end="arrowLeft.mouseout"/>
                  </use>
                  <path fill="none" stroke="white" stroke-width="1.5" d="M0,-3.0v7 M-2.5,-0.5L0,-3.0L2.5,-0.5"/>
                </g>
        </g>
        <svg viewBox="0 0 15 15" width="100%" height="30px" preserveAspectRatio="xMaxYMin meet">
         <g id="arrow_out" transform="scale(0.3 0.3)">
          <a xlink:href="_main_8cpp_a500f3e6675ddc2ae311f22f90e919653_cgraph_org.svg" target="_base">
           <rect id="button" ry="5" rx="5" y="6" x="6" height="38" width="38"
                fill="#f2f5e9" fill-opacity="0.5" stroke="#606060" stroke-width="1.0"/>
           <path id="arrow"
             d="M 11.500037,31.436501 C 11.940474,20.09759 22.043105,11.32322 32.158766,21.979434 L 37.068811,17.246167 C 37.068811,17.246167 37.088388,32 37.088388,32 L 22.160133,31.978069 C 22.160133,31.978069 26.997745,27.140456 26.997745,27.140456 C 18.528582,18.264221 13.291696,25.230495 11.500037,31.436501 z"
             style="fill:#404040;"/>
          </a>
         </g>
        </svg>
</svg>
