<?xml version="1.0" encoding="UTF-8" standalone="no"?>
<!DOCTYPE svg PUBLIC "-//W3C//DTD SVG 1.1//EN"
 "http://www.w3.org/Graphics/SVG/1.1/DTD/svg11.dtd">
<!-- Generated by graphviz version 2.38.0 (20140413.2041)
 -->
<!-- Title: Nx::CNgcTexture::SetEngineTexture Pages: 1 -->
<svg width="736pt" height="235pt"
 viewBox="0.00 0.00 736.00 235.00" xmlns="http://www.w3.org/2000/svg" xmlns:xlink="http://www.w3.org/1999/xlink">
<g id="graph0" class="graph" transform="scale(1 1) rotate(0) translate(4 231)">
<title>Nx::CNgcTexture::SetEngineTexture</title>
<polygon fill="white" stroke="none" points="-4,4 -4,-231 732,-231 732,4 -4,4"/>
<!-- Node1 -->
<g id="node1" class="node"><title>Node1</title>
<g id="a_node1"><a xlink:title=" ">
<polygon fill="#bfbfbf" stroke="black" points="586,-74.5 586,-104.5 728,-104.5 728,-74.5 586,-74.5"/>
<text text-anchor="start" x="594" y="-92.5" font-family="Helvetica,sans-Serif" font-size="10.00">Nx::CNgcTexture::SetEngine</text>
<text text-anchor="middle" x="657" y="-81.5" font-family="Helvetica,sans-Serif" font-size="10.00">Texture</text>
</a>
</g>
</g>
<!-- Node2 -->
<g id="node2" class="node"><title>Node2</title>
<g id="a_node2"><a xlink:href="../../d1/d06/namespace_nx.html#a2ad0efe6891352cc0e37099ad1f39efa" target="_top" xlink:title=" ">
<polygon fill="white" stroke="black" points="417.5,-153 417.5,-172 521.5,-172 521.5,-153 417.5,-153"/>
<text text-anchor="middle" x="469.5" y="-160" font-family="Helvetica,sans-Serif" font-size="10.00">Nx::LoadTextureFile</text>
</a>
</g>
</g>
<!-- Node1&#45;&gt;Node2 -->
<g id="edge1" class="edge"><title>Node1&#45;&gt;Node2</title>
<path fill="none" stroke="midnightblue" d="M608.141,-108.334C571.823,-122.626 523.404,-141.681 494.733,-152.964"/>
<polygon fill="midnightblue" stroke="midnightblue" points="609.541,-111.545 617.564,-104.626 606.977,-105.031 609.541,-111.545"/>
</g>
<!-- Node7 -->
<g id="node7" class="node"><title>Node7</title>
<g id="a_node7"><a xlink:href="../../d1/d06/namespace_nx.html#a4420a4e0ab65fc1908e2d34f6a42f5d9" target="_top" xlink:title=" ">
<polygon fill="white" stroke="black" points="389,-80 389,-99 550,-99 550,-80 389,-80"/>
<text text-anchor="middle" x="469.5" y="-87" font-family="Helvetica,sans-Serif" font-size="10.00">Nx::LoadTextureFileFromMemory</text>
</a>
</g>
</g>
<!-- Node1&#45;&gt;Node7 -->
<g id="edge6" class="edge"><title>Node1&#45;&gt;Node7</title>
<path fill="none" stroke="midnightblue" d="M575.619,-89.5C567.142,-89.5 558.524,-89.5 550.056,-89.5"/>
<polygon fill="midnightblue" stroke="midnightblue" points="575.87,-93.0001 585.87,-89.5 575.87,-86.0001 575.87,-93.0001"/>
</g>
<!-- Node11 -->
<g id="node11" class="node"><title>Node11</title>
<g id="a_node11"><a xlink:href="../../d9/d8c/class_nx_1_1_c_engine.html#a54be58c8634ed5b0f4cf68a88fa75bc2" target="_top" xlink:title=" ">
<polygon fill="white" stroke="black" points="414,-8 414,-49 525,-49 525,-8 414,-8"/>
<text text-anchor="start" x="422" y="-37" font-family="Helvetica,sans-Serif" font-size="10.00">Nx::CEngine::s_plat</text>
<text text-anchor="start" x="422" y="-26" font-family="Helvetica,sans-Serif" font-size="10.00">_create_render_target</text>
<text text-anchor="middle" x="469.5" y="-15" font-family="Helvetica,sans-Serif" font-size="10.00">_texture</text>
</a>
</g>
</g>
<!-- Node1&#45;&gt;Node11 -->
<g id="edge10" class="edge"><title>Node1&#45;&gt;Node11</title>
<path fill="none" stroke="midnightblue" d="M600.525,-71.2575C576.653,-63.4074 548.829,-54.2576 525.059,-46.4412"/>
<polygon fill="midnightblue" stroke="midnightblue" points="599.553,-74.6223 610.146,-74.4213 601.74,-67.9726 599.553,-74.6223"/>
</g>
<!-- Node3 -->
<g id="node3" class="node"><title>Node3</title>
<g id="a_node3"><a xlink:href="../../da/d35/class_nx_1_1_c_ngc_tex_dict.html#a793d979d478715b21d0a06870d6f9d91" target="_top" xlink:title=" ">
<polygon fill="white" stroke="black" points="200,-196.5 200,-226.5 351,-226.5 351,-196.5 200,-196.5"/>
<text text-anchor="start" x="208" y="-214.5" font-family="Helvetica,sans-Serif" font-size="10.00">Nx::CNgcTexDict::LoadTexture</text>
<text text-anchor="middle" x="275.5" y="-203.5" font-family="Helvetica,sans-Serif" font-size="10.00">Dictionary</text>
</a>
</g>
</g>
<!-- Node2&#45;&gt;Node3 -->
<g id="edge2" class="edge"><title>Node2&#45;&gt;Node3</title>
<path fill="none" stroke="midnightblue" d="M421.081,-174.602C395.195,-181.208 362.911,-189.447 335.42,-196.463"/>
<polygon fill="midnightblue" stroke="midnightblue" points="422.201,-177.928 431.025,-172.064 420.47,-171.146 422.201,-177.928"/>
</g>
<!-- Node5 -->
<g id="node5" class="node"><title>Node5</title>
<g id="a_node5"><a xlink:href="../../d8/dbb/class_nx_1_1_c_xbox_tex_dict.html#aa226450bdc74e51beac3e70c55a86637" target="_top" xlink:title=" ">
<polygon fill="white" stroke="black" points="198,-147.5 198,-177.5 353,-177.5 353,-147.5 198,-147.5"/>
<text text-anchor="start" x="206" y="-165.5" font-family="Helvetica,sans-Serif" font-size="10.00">Nx::CXboxTexDict::LoadTexture</text>
<text text-anchor="middle" x="275.5" y="-154.5" font-family="Helvetica,sans-Serif" font-size="10.00">Dictionary</text>
</a>
</g>
</g>
<!-- Node2&#45;&gt;Node5 -->
<g id="edge4" class="edge"><title>Node2&#45;&gt;Node5</title>
<path fill="none" stroke="midnightblue" d="M406.898,-162.5C389.807,-162.5 371.04,-162.5 353.2,-162.5"/>
<polygon fill="midnightblue" stroke="midnightblue" points="407.3,-166 417.3,-162.5 407.3,-159 407.3,-166"/>
</g>
<!-- Node4 -->
<g id="node4" class="node"><title>Node4</title>
<g id="a_node4"><a xlink:href="../../da/d35/class_nx_1_1_c_ngc_tex_dict.html#a42d8412c11a56f982f1246daf842a48c" target="_top" xlink:title=" ">
<polygon fill="white" stroke="black" points="3.5,-202 3.5,-221 158.5,-221 158.5,-202 3.5,-202"/>
<text text-anchor="middle" x="81" y="-209" font-family="Helvetica,sans-Serif" font-size="10.00">Nx::CNgcTexDict::CNgcTexDict</text>
</a>
</g>
</g>
<!-- Node3&#45;&gt;Node4 -->
<g id="edge3" class="edge"><title>Node3&#45;&gt;Node4</title>
<path fill="none" stroke="midnightblue" d="M189.559,-211.5C179.242,-211.5 168.75,-211.5 158.565,-211.5"/>
<polygon fill="midnightblue" stroke="midnightblue" points="189.799,-215 199.799,-211.5 189.799,-208 189.799,-215"/>
</g>
<!-- Node6 -->
<g id="node6" class="node"><title>Node6</title>
<g id="a_node6"><a xlink:href="../../d8/dbb/class_nx_1_1_c_xbox_tex_dict.html#afdce1794ef26d0f6c59c2242d08eb5c9" target="_top" xlink:title=" ">
<polygon fill="white" stroke="black" points="0,-153 0,-172 162,-172 162,-153 0,-153"/>
<text text-anchor="middle" x="81" y="-160" font-family="Helvetica,sans-Serif" font-size="10.00">Nx::CXboxTexDict::CXboxTexDict</text>
</a>
</g>
</g>
<!-- Node5&#45;&gt;Node6 -->
<g id="edge5" class="edge"><title>Node5&#45;&gt;Node6</title>
<path fill="none" stroke="midnightblue" d="M187.598,-162.5C179.127,-162.5 170.557,-162.5 162.156,-162.5"/>
<polygon fill="midnightblue" stroke="midnightblue" points="187.866,-166 197.866,-162.5 187.866,-159 187.866,-166"/>
</g>
<!-- Node8 -->
<g id="node8" class="node"><title>Node8</title>
<g id="a_node8"><a xlink:href="../../da/d35/class_nx_1_1_c_ngc_tex_dict.html#ae491798197a50abb4d938628af7c612e" target="_top" xlink:title=" ">
<polygon fill="white" stroke="black" points="200,-98.5 200,-128.5 351,-128.5 351,-98.5 200,-98.5"/>
<text text-anchor="start" x="208" y="-116.5" font-family="Helvetica,sans-Serif" font-size="10.00">Nx::CNgcTexDict::LoadTexture</text>
<text text-anchor="middle" x="275.5" y="-105.5" font-family="Helvetica,sans-Serif" font-size="10.00">DictionaryFromMemory</text>
</a>
</g>
</g>
<!-- Node7&#45;&gt;Node8 -->
<g id="edge7" class="edge"><title>Node7&#45;&gt;Node8</title>
<path fill="none" stroke="midnightblue" d="M382.126,-100.297C371.844,-101.582 361.414,-102.886 351.313,-104.148"/>
<polygon fill="midnightblue" stroke="midnightblue" points="382.852,-103.733 392.341,-99.0199 381.984,-96.7874 382.852,-103.733"/>
</g>
<!-- Node10 -->
<g id="node10" class="node"><title>Node10</title>
<g id="a_node10"><a xlink:href="../../d8/dbb/class_nx_1_1_c_xbox_tex_dict.html#a80d37d45994fa003c1a2e69dc2803986" target="_top" xlink:title=" ">
<polygon fill="white" stroke="black" points="198,-49.5 198,-79.5 353,-79.5 353,-49.5 198,-49.5"/>
<text text-anchor="start" x="206" y="-67.5" font-family="Helvetica,sans-Serif" font-size="10.00">Nx::CXboxTexDict::LoadTexture</text>
<text text-anchor="middle" x="275.5" y="-56.5" font-family="Helvetica,sans-Serif" font-size="10.00">DictionaryFromMemory</text>
</a>
</g>
</g>
<!-- Node7&#45;&gt;Node10 -->
<g id="edge9" class="edge"><title>Node7&#45;&gt;Node10</title>
<path fill="none" stroke="midnightblue" d="M385.256,-78.6609C374.625,-77.2767 363.782,-75.8649 353.261,-74.4949"/>
<polygon fill="midnightblue" stroke="midnightblue" points="384.997,-82.1567 395.365,-79.9773 385.901,-75.2153 384.997,-82.1567"/>
</g>
<!-- Node9 -->
<g id="node9" class="node"><title>Node9</title>
<g id="a_node9"><a xlink:href="../../d2/dac/class_nx_1_1_c_tex_dict_manager.html#a861fa1454841592db059eaa0ea551e16" target="_top" xlink:title=" ">
<polygon fill="white" stroke="black" points="25,-93 25,-134 137,-134 137,-93 25,-93"/>
<text text-anchor="start" x="33" y="-122" font-family="Helvetica,sans-Serif" font-size="10.00">Nx::CTexDictManager</text>
<text text-anchor="start" x="33" y="-111" font-family="Helvetica,sans-Serif" font-size="10.00">::s_plat_load_texture</text>
<text text-anchor="middle" x="81" y="-100" font-family="Helvetica,sans-Serif" font-size="10.00">_dictionary</text>
</a>
</g>
</g>
<!-- Node8&#45;&gt;Node9 -->
<g id="edge8" class="edge"><title>Node8&#45;&gt;Node9</title>
<path fill="none" stroke="midnightblue" d="M189.456,-113.5C171.757,-113.5 153.545,-113.5 137.259,-113.5"/>
<polygon fill="midnightblue" stroke="midnightblue" points="189.799,-117 199.799,-113.5 189.799,-110 189.799,-117"/>
</g>
<!-- Node12 -->
<g id="node12" class="node"><title>Node12</title>
<g id="a_node12"><a xlink:href="../../d9/d8c/class_nx_1_1_c_engine.html#af7303153205e4fab8c4e09da3c368af7" target="_top" xlink:title=" ">
<polygon fill="white" stroke="black" points="204.5,-0.5 204.5,-30.5 346.5,-30.5 346.5,-0.5 204.5,-0.5"/>
<text text-anchor="start" x="212.5" y="-18.5" font-family="Helvetica,sans-Serif" font-size="10.00">Nx::CEngine::sCreateRender</text>
<text text-anchor="middle" x="275.5" y="-7.5" font-family="Helvetica,sans-Serif" font-size="10.00">TargetTexture</text>
</a>
</g>
</g>
<!-- Node11&#45;&gt;Node12 -->
<g id="edge11" class="edge"><title>Node11&#45;&gt;Node12</title>
<path fill="none" stroke="midnightblue" d="M403.953,-24.1296C385.521,-22.8816 365.349,-21.5158 346.602,-20.2465"/>
<polygon fill="midnightblue" stroke="midnightblue" points="403.78,-27.6259 413.994,-24.8095 404.253,-20.6419 403.78,-27.6259"/>
</g>
</g>
</svg>
