<?xml version="1.0" encoding="UTF-8" standalone="no"?>
<!DOCTYPE svg PUBLIC "-//W3C//DTD SVG 1.1//EN"
 "http://www.w3.org/Graphics/SVG/1.1/DTD/svg11.dtd">
<!-- Generated by graphviz version 2.38.0 (20140413.2041)
 -->
<!-- Title: GameNet::BuddyMan::SetStatusAndLocation Pages: 1 -->
<svg width="483pt" height="130pt"
 viewBox="0.00 0.00 483.00 130.00" xmlns="http://www.w3.org/2000/svg" xmlns:xlink="http://www.w3.org/1999/xlink">
<g id="graph0" class="graph" transform="scale(1 1) rotate(0) translate(4 126)">
<title>GameNet::BuddyMan::SetStatusAndLocation</title>
<polygon fill="white" stroke="none" points="-4,4 -4,-126 479,-126 479,4 -4,4"/>
<!-- Node1 -->
<g id="node1" class="node"><title>Node1</title>
<g id="a_node1"><a xlink:title=" ">
<polygon fill="#bfbfbf" stroke="black" points="359,-44.5 359,-74.5 475,-74.5 475,-44.5 359,-44.5"/>
<text text-anchor="start" x="367" y="-62.5" font-family="Helvetica,sans-Serif" font-size="10.00">GameNet::BuddyMan::</text>
<text text-anchor="middle" x="417" y="-51.5" font-family="Helvetica,sans-Serif" font-size="10.00">SetStatusAndLocation</text>
</a>
</g>
</g>
<!-- Node2 -->
<g id="node2" class="node"><title>Node2</title>
<g id="a_node2"><a xlink:href="../../d2/d8e/class_game_net_1_1_manager.html#a666689ccc0e4e5b55a1cfa2f2da87c8c" target="_top" xlink:title=" ">
<polygon fill="white" stroke="black" points="177.5,-89.5 177.5,-119.5 314.5,-119.5 314.5,-89.5 177.5,-89.5"/>
<text text-anchor="start" x="185.5" y="-107.5" font-family="Helvetica,sans-Serif" font-size="10.00">GameNet::Manager::Cancel</text>
<text text-anchor="middle" x="246" y="-96.5" font-family="Helvetica,sans-Serif" font-size="10.00">JoinServer</text>
</a>
</g>
</g>
<!-- Node1&#45;&gt;Node2 -->
<g id="edge1" class="edge"><title>Node1&#45;&gt;Node2</title>
<path fill="none" stroke="midnightblue" d="M349.429,-77.226C334.266,-81.2634 318.296,-85.5159 303.595,-89.4303"/>
<polygon fill="midnightblue" stroke="midnightblue" points="350.493,-80.5648 359.255,-74.6095 348.691,-73.8005 350.493,-80.5648"/>
</g>
<!-- Node4 -->
<g id="node4" class="node"><title>Node4</title>
<g id="a_node4"><a xlink:href="../../d2/d8e/class_game_net_1_1_manager.html#a5a0bdea52335ff141bd7657011260401" target="_top" xlink:title=" ">
<polygon fill="white" stroke="black" points="169,-50 169,-69 323,-69 323,-50 169,-50"/>
<text text-anchor="middle" x="246" y="-57" font-family="Helvetica,sans-Serif" font-size="10.00">GameNet::Manager::PostGame</text>
</a>
</g>
</g>
<!-- Node1&#45;&gt;Node4 -->
<g id="edge3" class="edge"><title>Node1&#45;&gt;Node4</title>
<path fill="none" stroke="midnightblue" d="M348.654,-59.5C340.233,-59.5 331.575,-59.5 323.034,-59.5"/>
<polygon fill="midnightblue" stroke="midnightblue" points="348.784,-63.0001 358.784,-59.5 348.784,-56.0001 348.784,-63.0001"/>
</g>
<!-- Node6 -->
<g id="node6" class="node"><title>Node6</title>
<g id="a_node6"><a xlink:href="../../d2/da2/class_game_net_1_1_buddy_man.html#ae36e7b9f5b9f2db8e2976ec6ea2115c4" target="_top" xlink:title=" ">
<polygon fill="white" stroke="black" points="188,-0.5 188,-30.5 304,-30.5 304,-0.5 188,-0.5"/>
<text text-anchor="start" x="196" y="-18.5" font-family="Helvetica,sans-Serif" font-size="10.00">GameNet::BuddyMan::</text>
<text text-anchor="middle" x="246" y="-7.5" font-family="Helvetica,sans-Serif" font-size="10.00">ScriptHasBuddies</text>
</a>
</g>
</g>
<!-- Node1&#45;&gt;Node6 -->
<g id="edge5" class="edge"><title>Node1&#45;&gt;Node6</title>
<path fill="none" stroke="midnightblue" d="M348.71,-41.9806C333.955,-38.1392 318.469,-34.1074 304.157,-30.3811"/>
<polygon fill="midnightblue" stroke="midnightblue" points="348.225,-45.4711 358.784,-44.6036 349.989,-38.6969 348.225,-45.4711"/>
</g>
<!-- Node3 -->
<g id="node3" class="node"><title>Node3</title>
<g id="a_node3"><a xlink:href="../../d2/d8e/class_game_net_1_1_manager.html#a87095c85d93f67d0426774b00dfef190" target="_top" xlink:title=" ">
<polygon fill="white" stroke="black" points="0,-91.5 0,-121.5 133,-121.5 133,-91.5 0,-91.5"/>
<text text-anchor="start" x="8" y="-109.5" font-family="Helvetica,sans-Serif" font-size="10.00">GameNet::Manager::Script</text>
<text text-anchor="middle" x="66.5" y="-98.5" font-family="Helvetica,sans-Serif" font-size="10.00">CancelJoinServer</text>
</a>
</g>
</g>
<!-- Node2&#45;&gt;Node3 -->
<g id="edge2" class="edge"><title>Node2&#45;&gt;Node3</title>
<path fill="none" stroke="midnightblue" d="M167.083,-105.378C155.765,-105.505 144.209,-105.636 133.165,-105.76"/>
<polygon fill="midnightblue" stroke="midnightblue" points="167.429,-108.874 177.389,-105.262 167.35,-101.875 167.429,-108.874"/>
</g>
<!-- Node5 -->
<g id="node5" class="node"><title>Node5</title>
<g id="a_node5"><a xlink:href="../../d2/d8e/class_game_net_1_1_manager.html#a33daefbea07d4a2a69848c2a5375476e" target="_top" xlink:title=" ">
<polygon fill="white" stroke="black" points="0,-42.5 0,-72.5 133,-72.5 133,-42.5 0,-42.5"/>
<text text-anchor="start" x="8" y="-60.5" font-family="Helvetica,sans-Serif" font-size="10.00">GameNet::Manager::Script</text>
<text text-anchor="middle" x="66.5" y="-49.5" font-family="Helvetica,sans-Serif" font-size="10.00">PostGame</text>
</a>
</g>
</g>
<!-- Node4&#45;&gt;Node5 -->
<g id="edge4" class="edge"><title>Node4&#45;&gt;Node5</title>
<path fill="none" stroke="midnightblue" d="M158.814,-58.5289C150.149,-58.4313 141.451,-58.3333 133.051,-58.2386"/>
<polygon fill="midnightblue" stroke="midnightblue" points="158.913,-62.0301 168.952,-58.6431 158.992,-55.0306 158.913,-62.0301"/>
</g>
</g>
</svg>
