<?xml version="1.0" encoding="UTF-8" standalone="no"?>
<!DOCTYPE svg PUBLIC "-//W3C//DTD SVG 1.1//EN"
 "http://www.w3.org/Graphics/SVG/1.1/DTD/svg11.dtd">
<!-- Generated by graphviz version 2.38.0 (20140413.2041)
 -->
<!-- Title: Obj::CSkaterPhysicsControlComponent::suspend_physics Pages: 1 -->
<!--zoomable 360 -->
<svg id="main" version="1.1" xmlns="http://www.w3.org/2000/svg" xmlns:xlink="http://www.w3.org/1999/xlink" xml:space="preserve" onload="init(evt)">
<style type="text/css"><![CDATA[
.edge:hover path { stroke: red; }
.edge:hover polygon { stroke: red; fill: red; }
]]></style>
<script type="text/javascript"><![CDATA[
var edges = document.getElementsByTagName('g');
if (edges && edges.length) {
  for (var i=0;i<edges.length;i++) {
    if (edges[i].id.substr(0,4)=='edge') {
      edges[i].setAttribute('class','edge');
    }
  }
}
]]></script>
        <defs>
                <circle id="rim" cx="0" cy="0" r="7"/>
                <circle id="rim2" cx="0" cy="0" r="3.5"/>
                <g id="zoomPlus">
                        <use xlink:href="#rim" fill="#404040">
                                <set attributeName="fill" to="#808080" begin="zoomplus.mouseover" end="zoomplus.mouseout"/>
                        </use>
                        <path d="M-4,0h8M0,-4v8" fill="none" stroke="white" stroke-width="1.5" pointer-events="none"/>
                </g>
                <g id="zoomMin">
                        <use xlink:href="#rim" fill="#404040">
                                <set attributeName="fill" to="#808080" begin="zoomminus.mouseover" end="zoomminus.mouseout"/>
                        </use>
                        <path d="M-4,0h8" fill="none" stroke="white" stroke-width="1.5" pointer-events="none"/>
                </g>
                <g id="dirArrow">
                        <path fill="none" stroke="white" stroke-width="1.5" d="M0,-3.0v7 M-2.5,-0.5L0,-3.0L2.5,-0.5"/>
                </g>
               <g id="resetDef">
                       <use xlink:href="#rim2" fill="#404040">
                               <set attributeName="fill" to="#808080" begin="reset.mouseover" end="reset.mouseout"/>
                       </use>
               </g>
        </defs>

<script type="text/javascript">
var viewWidth = 839;
var viewHeight = 360;
var sectionId = 'dynsection-28';
</script>
<script xlink:href="../../svgpan.js"/>
<svg id="graph" class="graph">
<g id="viewport">
<title>Obj::CSkaterPhysicsControlComponent::suspend_physics</title>
<polygon fill="white" stroke="none" points="-4,4 -4,-355.613 835,-355.613 835,4 -4,4"/>
<!-- Node1 -->
<g id="node1" class="node"><title>Node1</title>
<g id="a_node1"><a xlink:title=" ">
<polygon fill="#bfbfbf" stroke="black" points="683,-175.5 683,-205.5 831,-205.5 831,-175.5 683,-175.5"/>
<text text-anchor="start" x="691" y="-193.5" font-family="Helvetica,sans-Serif" font-size="10.00">Obj::CSkaterPhysicsControl</text>
<text text-anchor="middle" x="757" y="-182.5" font-family="Helvetica,sans-Serif" font-size="10.00">Component::suspend_physics</text>
</a>
</g>
</g>
<!-- Node2 -->
<g id="node2" class="node"><title>Node2</title>
<g id="a_node2"><a xlink:href="../../d4/deb/class_obj_1_1_c_skater_physics_control_component.html#a464204726957c78800bcfd2798040994" target="_top" xlink:title=" ">
<polygon fill="white" stroke="black" points="304,-175.5 304,-205.5 465,-205.5 465,-175.5 304,-175.5"/>
<text text-anchor="start" x="312" y="-193.5" font-family="Helvetica,sans-Serif" font-size="10.00">Obj::CSkaterPhysicsControl</text>
<text text-anchor="middle" x="384.5" y="-182.5" font-family="Helvetica,sans-Serif" font-size="10.00">Component::CallMemberFunction</text>
</a>
</g>
</g>
<!-- Node1&#45;&gt;Node2 -->
<g id="edge1" class="edge"><title>Node1&#45;&gt;Node2</title>
<path fill="none" stroke="midnightblue" d="M745.429,-215.075C729.574,-248.389 696.157,-306.473 647,-330.5 588.702,-358.995 559.695,-358.168 501,-330.5 445.137,-304.167 407.11,-236.091 392.354,-205.627"/>
<polygon fill="midnightblue" stroke="midnightblue" points="748.789,-216.145 749.783,-205.597 742.428,-213.223 748.789,-216.145"/>
</g>
<!-- Node7 -->
<g id="node7" class="node"><title>Node7</title>
<g id="a_node7"><a xlink:href="../../d4/deb/class_obj_1_1_c_skater_physics_control_component.html#af48e859c1cfca61596241161171ab528" target="_top" xlink:title=" ">
<polygon fill="white" stroke="black" points="501,-290.5 501,-320.5 647,-320.5 647,-290.5 501,-290.5"/>
<text text-anchor="start" x="509" y="-308.5" font-family="Helvetica,sans-Serif" font-size="10.00">Obj::CSkaterPhysicsControl</text>
<text text-anchor="middle" x="574" y="-297.5" font-family="Helvetica,sans-Serif" font-size="10.00">Component::SuspendPhysics</text>
</a>
</g>
</g>
<!-- Node1&#45;&gt;Node7 -->
<g id="edge6" class="edge"><title>Node1&#45;&gt;Node7</title>
<path fill="none" stroke="midnightblue" d="M734.042,-212.699C713.196,-232.731 680.194,-261.836 647,-280.5 640.426,-284.196 633.209,-287.486 625.963,-290.367"/>
<polygon fill="midnightblue" stroke="midnightblue" points="736.7,-214.997 741.412,-205.507 731.81,-209.987 736.7,-214.997"/>
</g>
<!-- Node8 -->
<g id="node8" class="node"><title>Node8</title>
<g id="a_node8"><a xlink:href="../../d4/deb/class_obj_1_1_c_skater_physics_control_component.html#a6786ee711d56fd9cac6e095b620ff714" target="_top" xlink:title=" ">
<polygon fill="white" stroke="black" points="504.5,-230 504.5,-271 643.5,-271 643.5,-230 504.5,-230"/>
<text text-anchor="start" x="512.5" y="-259" font-family="Helvetica,sans-Serif" font-size="10.00">Obj::CSkaterPhysicsControl</text>
<text text-anchor="start" x="512.5" y="-248" font-family="Helvetica,sans-Serif" font-size="10.00">Component::switch_riding</text>
<text text-anchor="middle" x="574" y="-237" font-family="Helvetica,sans-Serif" font-size="10.00">_to_walking</text>
</a>
</g>
</g>
<!-- Node1&#45;&gt;Node8 -->
<g id="edge7" class="edge"><title>Node1&#45;&gt;Node8</title>
<path fill="none" stroke="midnightblue" d="M700.696,-208.833C680.584,-215.5 657.726,-223.077 637.068,-229.925"/>
<polygon fill="midnightblue" stroke="midnightblue" points="701.935,-212.109 710.326,-205.641 699.733,-205.465 701.935,-212.109"/>
</g>
<!-- Node9 -->
<g id="node9" class="node"><title>Node9</title>
<g id="a_node9"><a xlink:href="../../d4/deb/class_obj_1_1_c_skater_physics_control_component.html#a67723ee1bded2a24900e1bf64632928a" target="_top" xlink:title=" ">
<polygon fill="white" stroke="black" points="504.5,-170 504.5,-211 643.5,-211 643.5,-170 504.5,-170"/>
<text text-anchor="start" x="512.5" y="-199" font-family="Helvetica,sans-Serif" font-size="10.00">Obj::CSkaterPhysicsControl</text>
<text text-anchor="start" x="512.5" y="-188" font-family="Helvetica,sans-Serif" font-size="10.00">Component::switch_skating</text>
<text text-anchor="middle" x="574" y="-177" font-family="Helvetica,sans-Serif" font-size="10.00">_to_walking</text>
</a>
</g>
</g>
<!-- Node1&#45;&gt;Node9 -->
<g id="edge9" class="edge"><title>Node1&#45;&gt;Node9</title>
<path fill="none" stroke="midnightblue" d="M672.806,-190.5C663.06,-190.5 653.2,-190.5 643.682,-190.5"/>
<polygon fill="midnightblue" stroke="midnightblue" points="672.902,-194 682.902,-190.5 672.902,-187 672.902,-194"/>
</g>
<!-- Node10 -->
<g id="node10" class="node"><title>Node10</title>
<g id="a_node10"><a xlink:href="../../d4/deb/class_obj_1_1_c_skater_physics_control_component.html#ac3fdf63d4185f8f0985f66a77c429e92" target="_top" xlink:title=" ">
<polygon fill="white" stroke="black" points="504.5,-110 504.5,-151 643.5,-151 643.5,-110 504.5,-110"/>
<text text-anchor="start" x="512.5" y="-139" font-family="Helvetica,sans-Serif" font-size="10.00">Obj::CSkaterPhysicsControl</text>
<text text-anchor="start" x="512.5" y="-128" font-family="Helvetica,sans-Serif" font-size="10.00">Component::switch_walking</text>
<text text-anchor="middle" x="574" y="-117" font-family="Helvetica,sans-Serif" font-size="10.00">_to_riding</text>
</a>
</g>
</g>
<!-- Node1&#45;&gt;Node10 -->
<g id="edge11" class="edge"><title>Node1&#45;&gt;Node10</title>
<path fill="none" stroke="midnightblue" d="M700.696,-172.167C680.584,-165.5 657.726,-157.923 637.068,-151.075"/>
<polygon fill="midnightblue" stroke="midnightblue" points="699.733,-175.535 710.326,-175.359 701.935,-168.891 699.733,-175.535"/>
</g>
<!-- Node11 -->
<g id="node11" class="node"><title>Node11</title>
<g id="a_node11"><a xlink:href="../../d4/deb/class_obj_1_1_c_skater_physics_control_component.html#a44609b986e63e8ea74b0717d229b122e" target="_top" xlink:title=" ">
<polygon fill="white" stroke="black" points="504.5,-50 504.5,-91 643.5,-91 643.5,-50 504.5,-50"/>
<text text-anchor="start" x="512.5" y="-79" font-family="Helvetica,sans-Serif" font-size="10.00">Obj::CSkaterPhysicsControl</text>
<text text-anchor="start" x="512.5" y="-68" font-family="Helvetica,sans-Serif" font-size="10.00">Component::switch_walking</text>
<text text-anchor="middle" x="574" y="-57" font-family="Helvetica,sans-Serif" font-size="10.00">_to_skating</text>
</a>
</g>
</g>
<!-- Node1&#45;&gt;Node11 -->
<g id="edge13" class="edge"><title>Node1&#45;&gt;Node11</title>
<path fill="none" stroke="midnightblue" d="M733.41,-168.426C712.36,-148.725 679.427,-120.048 647,-100.5 641.433,-97.1442 635.423,-93.9921 629.331,-91.0854"/>
<polygon fill="midnightblue" stroke="midnightblue" points="731.205,-171.158 740.87,-175.499 736.022,-166.079 731.205,-171.158"/>
</g>
<!-- Node12 -->
<g id="node12" class="node"><title>Node12</title>
<g id="a_node12"><a xlink:href="../../d4/deb/class_obj_1_1_c_skater_physics_control_component.html#a9d0417fee08dc051d28f8cce5a54aee7" target="_top" xlink:title=" ">
<polygon fill="white" stroke="black" points="504.5,-0.5 504.5,-30.5 643.5,-30.5 643.5,-0.5 504.5,-0.5"/>
<text text-anchor="start" x="512.5" y="-18.5" font-family="Helvetica,sans-Serif" font-size="10.00">Obj::CSkaterPhysicsControl</text>
<text text-anchor="middle" x="574" y="-7.5" font-family="Helvetica,sans-Serif" font-size="10.00">Component::Update</text>
</a>
</g>
</g>
<!-- Node1&#45;&gt;Node12 -->
<g id="edge15" class="edge"><title>Node1&#45;&gt;Node12</title>
<path fill="none" stroke="midnightblue" d="M744.477,-166.43C727.537,-133.478 692.884,-74.5415 647,-40.5 641.793,-36.6368 635.941,-33.3366 629.883,-30.5254"/>
<polygon fill="midnightblue" stroke="midnightblue" points="741.356,-168.013 748.97,-175.379 747.612,-164.872 741.356,-168.013"/>
</g>
<!-- Node3 -->
<g id="node3" class="node"><title>Node3</title>
<g id="a_node3"><a xlink:href="../../dd/d52/class_obj_1_1_c_walk_component.html#a0ac69c034862c775af90cd21b01d2182" target="_top" xlink:title=" ">
<polygon fill="white" stroke="black" points="152,-200.5 152,-230.5 268,-230.5 268,-200.5 152,-200.5"/>
<text text-anchor="start" x="160" y="-218.5" font-family="Helvetica,sans-Serif" font-size="10.00">Obj::CWalkComponent</text>
<text text-anchor="middle" x="210" y="-207.5" font-family="Helvetica,sans-Serif" font-size="10.00">::go_on_ground_state</text>
</a>
</g>
</g>
<!-- Node2&#45;&gt;Node3 -->
<g id="edge2" class="edge"><title>Node2&#45;&gt;Node3</title>
<path fill="none" stroke="midnightblue" d="M293.665,-203.52C285.02,-204.772 276.423,-206.018 268.223,-207.207"/>
<polygon fill="midnightblue" stroke="midnightblue" points="294.42,-206.947 303.814,-202.049 293.416,-200.019 294.42,-206.947"/>
</g>
<!-- Node5 -->
<g id="node5" class="node"><title>Node5</title>
<g id="a_node5"><a xlink:href="../../d5/d58/class_obj_1_1_c_rider_component.html#a27a1ea808a1b1a8bc9dee48df31d020e" target="_top" xlink:title=" ">
<polygon fill="white" stroke="black" points="152,-151.5 152,-181.5 268,-181.5 268,-151.5 152,-151.5"/>
<text text-anchor="start" x="160" y="-169.5" font-family="Helvetica,sans-Serif" font-size="10.00">Obj::CRiderComponent</text>
<text text-anchor="middle" x="210" y="-158.5" font-family="Helvetica,sans-Serif" font-size="10.00">::go_on_horse_state</text>
</a>
</g>
</g>
<!-- Node2&#45;&gt;Node5 -->
<g id="edge4" class="edge"><title>Node2&#45;&gt;Node5</title>
<path fill="none" stroke="midnightblue" d="M293.665,-178.001C285.02,-176.798 276.423,-175.602 268.223,-174.461"/>
<polygon fill="midnightblue" stroke="midnightblue" points="293.427,-181.502 303.814,-179.413 294.392,-174.569 293.427,-181.502"/>
</g>
<!-- Node4 -->
<g id="node4" class="node"><title>Node4</title>
<g id="a_node4"><a xlink:href="../../dd/d52/class_obj_1_1_c_walk_component.html#a93a603eb6f32522550b740ce8d56900d" target="_top" xlink:title=" ">
<polygon fill="white" stroke="black" points="0,-200.5 0,-230.5 116,-230.5 116,-200.5 0,-200.5"/>
<text text-anchor="start" x="8" y="-218.5" font-family="Helvetica,sans-Serif" font-size="10.00">Obj::CWalkComponent</text>
<text text-anchor="middle" x="58" y="-207.5" font-family="Helvetica,sans-Serif" font-size="10.00">::Update</text>
</a>
</g>
</g>
<!-- Node3&#45;&gt;Node4 -->
<g id="edge3" class="edge"><title>Node3&#45;&gt;Node4</title>
<path fill="none" stroke="midnightblue" d="M141.689,-215.5C133.272,-215.5 124.723,-215.5 116.475,-215.5"/>
<polygon fill="midnightblue" stroke="midnightblue" points="141.864,-219 151.864,-215.5 141.863,-212 141.864,-219"/>
</g>
<!-- Node6 -->
<g id="node6" class="node"><title>Node6</title>
<g id="a_node6"><a xlink:href="../../d5/d58/class_obj_1_1_c_rider_component.html#a541e39cf0541919fede6f6048d9ee72d" target="_top" xlink:title=" ">
<polygon fill="white" stroke="black" points="0,-151.5 0,-181.5 116,-181.5 116,-151.5 0,-151.5"/>
<text text-anchor="start" x="8" y="-169.5" font-family="Helvetica,sans-Serif" font-size="10.00">Obj::CRiderComponent</text>
<text text-anchor="middle" x="58" y="-158.5" font-family="Helvetica,sans-Serif" font-size="10.00">::Update</text>
</a>
</g>
</g>
<!-- Node5&#45;&gt;Node6 -->
<g id="edge5" class="edge"><title>Node5&#45;&gt;Node6</title>
<path fill="none" stroke="midnightblue" d="M141.689,-166.5C133.272,-166.5 124.723,-166.5 116.475,-166.5"/>
<polygon fill="midnightblue" stroke="midnightblue" points="141.864,-170 151.864,-166.5 141.863,-163 141.864,-170"/>
</g>
<!-- Node8&#45;&gt;Node2 -->
<g id="edge8" class="edge"><title>Node8&#45;&gt;Node2</title>
<path fill="none" stroke="midnightblue" d="M498.922,-226.795C476.547,-219.635 452.606,-211.974 432.514,-205.544"/>
<polygon fill="midnightblue" stroke="midnightblue" points="498.144,-230.221 508.735,-229.935 500.278,-223.554 498.144,-230.221"/>
</g>
<!-- Node9&#45;&gt;Node2 -->
<g id="edge10" class="edge"><title>Node9&#45;&gt;Node2</title>
<path fill="none" stroke="midnightblue" d="M493.964,-190.5C484.395,-190.5 474.615,-190.5 465.038,-190.5"/>
<polygon fill="midnightblue" stroke="midnightblue" points="494.247,-194 504.247,-190.5 494.247,-187 494.247,-194"/>
</g>
<!-- Node10&#45;&gt;Node2 -->
<g id="edge12" class="edge"><title>Node10&#45;&gt;Node2</title>
<path fill="none" stroke="midnightblue" d="M498.922,-154.205C476.547,-161.365 452.606,-169.026 432.514,-175.456"/>
<polygon fill="midnightblue" stroke="midnightblue" points="500.278,-157.446 508.735,-151.065 498.144,-150.779 500.278,-157.446"/>
</g>
<!-- Node11&#45;&gt;Node2 -->
<g id="edge14" class="edge"><title>Node11&#45;&gt;Node2</title>
<path fill="none" stroke="midnightblue" d="M510.167,-95.4776C507.028,-97.0986 503.955,-98.7752 501,-100.5 463.019,-122.67 423.625,-155.977 402.073,-175.244"/>
<polygon fill="midnightblue" stroke="midnightblue" points="511.715,-98.6164 519.144,-91.0622 508.626,-92.335 511.715,-98.6164"/>
</g>
</g>
</svg>
        <g id="navigator" transform="translate(0 0)" fill="#404254">
                <rect fill="#f2f5e9" fill-opacity="0.5" stroke="#606060" stroke-width=".5" x="0" y="0" width="60" height="60"/>
                <use id="zoomplus" xlink:href="#zoomPlus" x="17" y="9" onmousedown="handleZoom(evt,'in')"/>
                <use id="zoomminus" xlink:href="#zoomMin" x="42" y="9" onmousedown="handleZoom(evt,'out')"/>
                <use id="reset" xlink:href="#resetDef" x="30" y="36" onmousedown="handleReset()"/>
                <g id="arrowUp" xlink:href="#dirArrow" transform="translate(30 24)" onmousedown="handlePan(0,-1)">
                  <use xlink:href="#rim" fill="#404040">
                        <set attributeName="fill" to="#808080" begin="arrowUp.mouseover" end="arrowUp.mouseout"/>
                  </use>
                  <path fill="none" stroke="white" stroke-width="1.5" d="M0,-3.0v7 M-2.5,-0.5L0,-3.0L2.5,-0.5"/>
                </g>
                <g id="arrowRight" xlink:href="#dirArrow" transform="rotate(90) translate(36 -43)" onmousedown="handlePan(1,0)">
                  <use xlink:href="#rim" fill="#404040">
                        <set attributeName="fill" to="#808080" begin="arrowRight.mouseover" end="arrowRight.mouseout"/>
                  </use>
                  <path fill="none" stroke="white" stroke-width="1.5" d="M0,-3.0v7 M-2.5,-0.5L0,-3.0L2.5,-0.5"/>
                </g>
                <g id="arrowDown" xlink:href="#dirArrow" transform="rotate(180) translate(-30 -48)" onmousedown="handlePan(0,1)">
                  <use xlink:href="#rim" fill="#404040">
                        <set attributeName="fill" to="#808080" begin="arrowDown.mouseover" end="arrowDown.mouseout"/>
                  </use>
                  <path fill="none" stroke="white" stroke-width="1.5" d="M0,-3.0v7 M-2.5,-0.5L0,-3.0L2.5,-0.5"/>
                </g>
                <g id="arrowLeft" xlink:href="#dirArrow" transform="rotate(270) translate(-36 17)" onmousedown="handlePan(-1,0)">
                  <use xlink:href="#rim" fill="#404040">
                        <set attributeName="fill" to="#808080" begin="arrowLeft.mouseover" end="arrowLeft.mouseout"/>
                  </use>
                  <path fill="none" stroke="white" stroke-width="1.5" d="M0,-3.0v7 M-2.5,-0.5L0,-3.0L2.5,-0.5"/>
                </g>
        </g>
        <svg viewBox="0 0 15 15" width="100%" height="30px" preserveAspectRatio="xMaxYMin meet">
         <g id="arrow_out" transform="scale(0.3 0.3)">
          <a xlink:href="class_obj_1_1_c_skater_physics_control_component_a3a912f4a33e9376c64023d3687cf0e5b_icgraph_org.svg" target="_base">
           <rect id="button" ry="5" rx="5" y="6" x="6" height="38" width="38"
                fill="#f2f5e9" fill-opacity="0.5" stroke="#606060" stroke-width="1.0"/>
           <path id="arrow"
             d="M 11.500037,31.436501 C 11.940474,20.09759 22.043105,11.32322 32.158766,21.979434 L 37.068811,17.246167 C 37.068811,17.246167 37.088388,32 37.088388,32 L 22.160133,31.978069 C 22.160133,31.978069 26.997745,27.140456 26.997745,27.140456 C 18.528582,18.264221 13.291696,25.230495 11.500037,31.436501 z"
             style="fill:#404040;"/>
          </a>
         </g>
        </svg>
</svg>
