<?xml version="1.0" encoding="UTF-8" standalone="no"?>
<!DOCTYPE svg PUBLIC "-//W3C//DTD SVG 1.1//EN"
 "http://www.w3.org/Graphics/SVG/1.1/DTD/svg11.dtd">
<!-- Generated by graphviz version 2.38.0 (20140413.2041)
 -->
<!-- Title: Obj::CSkaterPhysicsControlComponent::IsBoardMissing Pages: 1 -->
<svg width="322pt" height="137pt"
 viewBox="0.00 0.00 322.00 137.00" xmlns="http://www.w3.org/2000/svg" xmlns:xlink="http://www.w3.org/1999/xlink">
<g id="graph0" class="graph" transform="scale(1 1) rotate(0) translate(4 133)">
<title>Obj::CSkaterPhysicsControlComponent::IsBoardMissing</title>
<polygon fill="white" stroke="none" points="-4,4 -4,-133 318,-133 318,4 -4,4"/>
<!-- Node1 -->
<g id="node1" class="node"><title>Node1</title>
<g id="a_node1"><a xlink:title=" ">
<polygon fill="#bfbfbf" stroke="black" points="175,-49.5 175,-79.5 314,-79.5 314,-49.5 175,-49.5"/>
<text text-anchor="start" x="183" y="-67.5" font-family="Helvetica,sans-Serif" font-size="10.00">Obj::CSkaterPhysicsControl</text>
<text text-anchor="middle" x="244.5" y="-56.5" font-family="Helvetica,sans-Serif" font-size="10.00">Component::IsBoardMissing</text>
</a>
</g>
</g>
<!-- Node2 -->
<g id="node2" class="node"><title>Node2</title>
<g id="a_node2"><a xlink:href="../../dd/d52/class_obj_1_1_c_walk_component.html#a55c2dabb27d59ade146c21b48f266342" target="_top" xlink:title=" ">
<polygon fill="white" stroke="black" points="5.5,-98.5 5.5,-128.5 133.5,-128.5 133.5,-98.5 5.5,-98.5"/>
<text text-anchor="start" x="13.5" y="-116.5" font-family="Helvetica,sans-Serif" font-size="10.00">Obj::CWalkComponent</text>
<text text-anchor="middle" x="69.5" y="-105.5" font-family="Helvetica,sans-Serif" font-size="10.00">::maybe_in_air_acid_drop</text>
</a>
</g>
</g>
<!-- Node1&#45;&gt;Node2 -->
<g id="edge1" class="edge"><title>Node1&#45;&gt;Node2</title>
<path fill="none" stroke="midnightblue" d="M180.323,-82.3941C161.715,-87.6644 141.552,-93.3755 123.641,-98.4484"/>
<polygon fill="midnightblue" stroke="midnightblue" points="181.515,-85.6942 190.183,-79.6014 179.607,-78.9591 181.515,-85.6942"/>
</g>
<!-- Node3 -->
<g id="node3" class="node"><title>Node3</title>
<g id="a_node3"><a xlink:href="../../dd/d52/class_obj_1_1_c_walk_component.html#a9485029034b302ccc4351011008cf778" target="_top" xlink:title=" ">
<polygon fill="white" stroke="black" points="0,-49.5 0,-79.5 139,-79.5 139,-49.5 0,-49.5"/>
<text text-anchor="start" x="8" y="-67.5" font-family="Helvetica,sans-Serif" font-size="10.00">Obj::CWalkComponent</text>
<text text-anchor="middle" x="69.5" y="-56.5" font-family="Helvetica,sans-Serif" font-size="10.00">::maybe_jump_to_acid_drop</text>
</a>
</g>
</g>
<!-- Node1&#45;&gt;Node3 -->
<g id="edge2" class="edge"><title>Node1&#45;&gt;Node3</title>
<path fill="none" stroke="midnightblue" d="M164.406,-64.5C155.969,-64.5 147.437,-64.5 139.134,-64.5"/>
<polygon fill="midnightblue" stroke="midnightblue" points="164.629,-68.0001 174.629,-64.5 164.629,-61.0001 164.629,-68.0001"/>
</g>
<!-- Node4 -->
<g id="node4" class="node"><title>Node4</title>
<g id="a_node4"><a xlink:href="../../dd/d52/class_obj_1_1_c_walk_component.html#a393b6dcb2e2cb2204723f0af115d2c3a" target="_top" xlink:title=" ">
<polygon fill="white" stroke="black" points="11.5,-0.5 11.5,-30.5 127.5,-30.5 127.5,-0.5 11.5,-0.5"/>
<text text-anchor="start" x="19.5" y="-18.5" font-family="Helvetica,sans-Serif" font-size="10.00">Obj::CWalkComponent</text>
<text text-anchor="middle" x="69.5" y="-7.5" font-family="Helvetica,sans-Serif" font-size="10.00">::update_anim_speeds</text>
</a>
</g>
</g>
<!-- Node1&#45;&gt;Node4 -->
<g id="edge3" class="edge"><title>Node1&#45;&gt;Node4</title>
<path fill="none" stroke="midnightblue" d="M180.323,-46.6059C161.715,-41.3356 141.552,-35.6245 123.641,-30.5516"/>
<polygon fill="midnightblue" stroke="midnightblue" points="179.607,-50.0409 190.183,-49.3986 181.515,-43.3058 179.607,-50.0409"/>
</g>
</g>
</svg>
