<?xml version="1.0" encoding="UTF-8" standalone="no"?>
<!DOCTYPE svg PUBLIC "-//W3C//DTD SVG 1.1//EN"
 "http://www.w3.org/Graphics/SVG/1.1/DTD/svg11.dtd">
<!-- Generated by graphviz version 2.38.0 (20140413.2041)
 -->
<!-- Title: Script::CArray::GetLocalString Pages: 1 -->
<svg width="438pt" height="53pt"
 viewBox="0.00 0.00 438.00 52.50" xmlns="http://www.w3.org/2000/svg" xmlns:xlink="http://www.w3.org/1999/xlink">
<g id="graph0" class="graph" transform="scale(1 1) rotate(0) translate(4 48.5)">
<title>Script::CArray::GetLocalString</title>
<polygon fill="white" stroke="none" points="-4,4 -4,-48.5 434,-48.5 434,4 -4,4"/>
<!-- Node1 -->
<g id="node1" class="node"><title>Node1</title>
<g id="a_node1"><a xlink:title=" ">
<polygon fill="#bfbfbf" stroke="black" points="0,-14 0,-44 123,-44 123,-14 0,-14"/>
<text text-anchor="start" x="8" y="-32" font-family="Helvetica,sans-Serif" font-size="10.00">Script::CArray::GetLocal</text>
<text text-anchor="middle" x="61.5" y="-21" font-family="Helvetica,sans-Serif" font-size="10.00">String</text>
</a>
</g>
</g>
<!-- Node2 -->
<g id="node2" class="node"><title>Node2</title>
<g id="a_node2"><a xlink:href="../../d0/d0b/class_script_1_1_c_array.html#a6ec5b498cb8edcd7220dc7ce5d719046" target="_top" xlink:title=" ">
<polygon fill="white" stroke="black" points="159,-19.5 159,-38.5 284,-38.5 284,-19.5 159,-19.5"/>
<text text-anchor="middle" x="221.5" y="-26.5" font-family="Helvetica,sans-Serif" font-size="10.00">Script::CArray::GetString</text>
</a>
</g>
</g>
<!-- Node1&#45;&gt;Node2 -->
<g id="edge1" class="edge"><title>Node1&#45;&gt;Node2</title>
<path fill="none" stroke="midnightblue" d="M123.135,-22.4148C131.579,-22.2607 140.32,-22.2147 148.941,-22.2767"/>
<polygon fill="midnightblue" stroke="midnightblue" points="148.94,-25.7768 158.982,-22.3991 149.025,-18.7774 148.94,-25.7768"/>
</g>
<!-- Node3 -->
<g id="node3" class="node"><title>Node3</title>
<g id="a_node3"><a xlink:href="../../d1/d54/namespace_script.html#af32f99ba26ca0f255240413a4e23a754" target="_top" xlink:title=" ">
<polygon fill="white" stroke="black" points="320,-0.5 320,-19.5 430,-19.5 430,-0.5 320,-0.5"/>
<text text-anchor="middle" x="375" y="-7.5" font-family="Helvetica,sans-Serif" font-size="10.00">Script::GetTypeName</text>
</a>
</g>
</g>
<!-- Node1&#45;&gt;Node3 -->
<g id="edge4" class="edge"><title>Node1&#45;&gt;Node3</title>
<path fill="none" stroke="midnightblue" d="M123.235,-15.1799C135.038,-13.0232 147.359,-11.1351 159,-10 209.558,-5.07015 267.121,-5.38172 309.954,-6.75521"/>
<polygon fill="midnightblue" stroke="midnightblue" points="309.845,-10.2534 319.961,-7.10386 310.089,-3.25767 309.845,-10.2534"/>
</g>
<!-- Node2&#45;&gt;Node1 -->
<g id="edge2" class="edge"><title>Node2&#45;&gt;Node1</title>
<path fill="none" stroke="midnightblue" d="M158.982,-35.6009C150.518,-35.7475 141.771,-35.786 133.159,-35.7164"/>
<polygon fill="midnightblue" stroke="midnightblue" points="133.18,-32.2165 123.135,-35.5852 133.088,-39.2159 133.18,-32.2165"/>
</g>
<!-- Node2&#45;&gt;Node3 -->
<g id="edge3" class="edge"><title>Node2&#45;&gt;Node3</title>
<path fill="none" stroke="midnightblue" d="M284.121,-21.272C292.508,-20.2202 301.134,-19.1383 309.568,-18.0805"/>
<polygon fill="midnightblue" stroke="midnightblue" points="310.246,-21.523 319.733,-16.8058 309.375,-14.5774 310.246,-21.523"/>
</g>
</g>
</svg>
