<?xml version="1.0" encoding="UTF-8" standalone="no"?>
<!DOCTYPE svg PUBLIC "-//W3C//DTD SVG 1.1//EN"
 "http://www.w3.org/Graphics/SVG/1.1/DTD/svg11.dtd">
<!-- Generated by graphviz version 2.38.0 (20140413.2041)
 -->
<!-- Title: Obj::s_get_level_checksum Pages: 1 -->
<svg width="1006pt" height="104pt"
 viewBox="0.00 0.00 1006.00 104.00" xmlns="http://www.w3.org/2000/svg" xmlns:xlink="http://www.w3.org/1999/xlink">
<g id="graph0" class="graph" transform="scale(1 1) rotate(0) translate(4 100)">
<title>Obj::s_get_level_checksum</title>
<polygon fill="white" stroke="none" points="-4,4 -4,-100 1002,-100 1002,4 -4,4"/>
<!-- Node1 -->
<g id="node1" class="node"><title>Node1</title>
<g id="a_node1"><a xlink:title=" ">
<polygon fill="#bfbfbf" stroke="black" points="0,-19.5 0,-38.5 136,-38.5 136,-19.5 0,-19.5"/>
<text text-anchor="middle" x="68" y="-26.5" font-family="Helvetica,sans-Serif" font-size="10.00">Obj::s_get_level_checksum</text>
</a>
</g>
</g>
<!-- Node2 -->
<g id="node2" class="node"><title>Node2</title>
<g id="a_node2"><a xlink:href="../../d2/df7/class_script_1_1_c_struct.html#aa39e6fe5fdf1d6c48136ae26a7ad511e" target="_top" xlink:title=" ">
<polygon fill="white" stroke="black" points="172,-38.5 172,-57.5 321,-57.5 321,-38.5 172,-38.5"/>
<text text-anchor="middle" x="246.5" y="-45.5" font-family="Helvetica,sans-Serif" font-size="10.00">Script::CStruct::GetChecksum</text>
</a>
</g>
</g>
<!-- Node1&#45;&gt;Node2 -->
<g id="edge1" class="edge"><title>Node1&#45;&gt;Node2</title>
<path fill="none" stroke="midnightblue" d="M136.231,-36.2373C144.633,-37.1418 153.305,-38.0754 161.918,-39.0025"/>
<polygon fill="midnightblue" stroke="midnightblue" points="161.665,-42.4954 171.982,-40.0859 162.414,-35.5356 161.665,-42.4954"/>
</g>
<!-- Node10 -->
<g id="node10" class="node"><title>Node10</title>
<g id="a_node10"><a xlink:href="../../d2/d10/namespace_obj.html#a842067a620006b2d23ccda9ed2799845" target="_top" xlink:title=" ">
<polygon fill="white" stroke="black" points="195,-0.5 195,-19.5 298,-19.5 298,-0.5 195,-0.5"/>
<text text-anchor="middle" x="246.5" y="-7.5" font-family="Helvetica,sans-Serif" font-size="10.00">Obj::s_convert_level</text>
</a>
</g>
</g>
<!-- Node1&#45;&gt;Node10 -->
<g id="edge11" class="edge"><title>Node1&#45;&gt;Node10</title>
<path fill="none" stroke="midnightblue" d="M136.231,-21.7627C152.213,-20.0422 169.173,-18.2165 184.842,-16.5297"/>
<polygon fill="midnightblue" stroke="midnightblue" points="185.362,-19.9941 194.93,-15.4438 184.612,-13.0343 185.362,-19.9941"/>
</g>
<!-- Node2&#45;&gt;Node2 -->
<g id="edge6" class="edge"><title>Node2&#45;&gt;Node2</title>
<path fill="none" stroke="midnightblue" d="M221.223,-57.7571C208.926,-66.5653 217.352,-76 246.5,-76 266.084,-76 276.314,-71.741 277.189,-66.2746"/>
<polygon fill="midnightblue" stroke="midnightblue" points="280.094,-64.3207 271.777,-57.7571 274.186,-68.0745 280.094,-64.3207"/>
</g>
<!-- Node3 -->
<g id="node3" class="node"><title>Node3</title>
<g id="a_node3"><a xlink:href="../../d1/d54/namespace_script.html#ae80ed69ea4edcbcbbbd4985a6efdcd6e" target="_top" xlink:title=" ">
<polygon fill="white" stroke="black" points="500,-57.5 500,-76.5 639,-76.5 639,-57.5 500,-57.5"/>
<text text-anchor="middle" x="569.5" y="-64.5" font-family="Helvetica,sans-Serif" font-size="10.00">Script::FindChecksumName</text>
</a>
</g>
</g>
<!-- Node2&#45;&gt;Node3 -->
<g id="edge2" class="edge"><title>Node2&#45;&gt;Node3</title>
<path fill="none" stroke="midnightblue" d="M292.025,-57.5121C311.82,-61.2775 335.47,-65.1459 357,-67 400.75,-70.7675 449.78,-71.0151 489.609,-70.2091"/>
<polygon fill="midnightblue" stroke="midnightblue" points="489.874,-73.7041 499.791,-69.9764 489.714,-66.7059 489.874,-73.7041"/>
</g>
<!-- Node7 -->
<g id="node7" class="node"><title>Node7</title>
<g id="a_node7"><a xlink:href="../../d1/d54/namespace_script.html#a0d003ee93577e31adb6597bce0002009" target="_top" xlink:title=" ">
<polygon fill="white" stroke="black" points="357,-38.5 357,-57.5 464,-57.5 464,-38.5 357,-38.5"/>
<text text-anchor="middle" x="410.5" y="-45.5" font-family="Helvetica,sans-Serif" font-size="10.00">Script::PrintContents</text>
</a>
</g>
</g>
<!-- Node2&#45;&gt;Node7 -->
<g id="edge7" class="edge"><title>Node2&#45;&gt;Node7</title>
<path fill="none" stroke="midnightblue" d="M321.389,-48C329.721,-48 338.154,-48 346.332,-48"/>
<polygon fill="midnightblue" stroke="midnightblue" points="346.527,-51.5001 356.527,-48 346.527,-44.5001 346.527,-51.5001"/>
</g>
<!-- Node8 -->
<g id="node8" class="node"><title>Node8</title>
<g id="a_node8"><a xlink:href="../../d1/d54/namespace_script.html#a43181580ea5d38e4bf1aa19ccd5e9e85" target="_top" xlink:title=" ">
<polygon fill="white" stroke="black" points="369.5,-0.5 369.5,-19.5 451.5,-19.5 451.5,-0.5 369.5,-0.5"/>
<text text-anchor="middle" x="410.5" y="-7.5" font-family="Helvetica,sans-Serif" font-size="10.00">Script::Resolve</text>
</a>
</g>
</g>
<!-- Node2&#45;&gt;Node8 -->
<g id="edge8" class="edge"><title>Node2&#45;&gt;Node8</title>
<path fill="none" stroke="midnightblue" d="M288.379,-38.411C310.017,-33.3356 336.764,-27.0616 359.615,-21.7014"/>
<polygon fill="midnightblue" stroke="midnightblue" points="360.538,-25.08 369.475,-19.3887 358.939,-18.2649 360.538,-25.08"/>
</g>
<!-- Node4 -->
<g id="node4" class="node"><title>Node4</title>
<g id="a_node4"><a xlink:href="../../d1/d54/namespace_script.html#a5cc52c4ff5ea5bb27681d819212dfdca" target="_top" xlink:title=" ">
<polygon fill="white" stroke="black" points="675,-76.5 675,-95.5 838,-95.5 838,-76.5 675,-76.5"/>
<text text-anchor="middle" x="756.5" y="-83.5" font-family="Helvetica,sans-Serif" font-size="10.00">Script::FindChecksumNameNULL</text>
</a>
</g>
</g>
<!-- Node3&#45;&gt;Node4 -->
<g id="edge3" class="edge"><title>Node3&#45;&gt;Node4</title>
<path fill="none" stroke="midnightblue" d="M639.124,-74.0479C647.476,-74.9056 656.107,-75.792 664.717,-76.6764"/>
<polygon fill="midnightblue" stroke="midnightblue" points="664.493,-80.1717 674.798,-77.7117 665.208,-73.2083 664.493,-80.1717"/>
</g>
<!-- Node6 -->
<g id="node6" class="node"><title>Node6</title>
<g id="a_node6"><a xlink:href="../../da/d37/namespace_dbg.html#ab406a8cc16de5046c7d9fd09c9de5e22" target="_top" xlink:title=" ">
<polygon fill="white" stroke="black" points="723.5,-38.5 723.5,-57.5 789.5,-57.5 789.5,-38.5 723.5,-38.5"/>
<text text-anchor="middle" x="756.5" y="-45.5" font-family="Helvetica,sans-Serif" font-size="10.00">Dbg::sprintf</text>
</a>
</g>
</g>
<!-- Node3&#45;&gt;Node6 -->
<g id="edge5" class="edge"><title>Node3&#45;&gt;Node6</title>
<path fill="none" stroke="midnightblue" d="M639.124,-59.9521C663.98,-57.3993 691.305,-54.593 713.228,-52.3414"/>
<polygon fill="midnightblue" stroke="midnightblue" points="713.616,-55.8201 723.206,-51.3167 712.901,-48.8567 713.616,-55.8201"/>
</g>
<!-- Node5 -->
<g id="node5" class="node"><title>Node5</title>
<g id="a_node5"><a xlink:href="../../d0/d31/namespace_config.html#a709cc81780d49900157e3476b63aa25d" target="_top" xlink:title=" ">
<polygon fill="white" stroke="black" points="874,-76.5 874,-95.5 998,-95.5 998,-76.5 874,-76.5"/>
<text text-anchor="middle" x="936" y="-83.5" font-family="Helvetica,sans-Serif" font-size="10.00">Config::GotExtraMemory</text>
</a>
</g>
</g>
<!-- Node4&#45;&gt;Node5 -->
<g id="edge4" class="edge"><title>Node4&#45;&gt;Node5</title>
<path fill="none" stroke="midnightblue" d="M838.2,-86C846.729,-86 855.358,-86 863.768,-86"/>
<polygon fill="midnightblue" stroke="midnightblue" points="863.898,-89.5001 873.898,-86 863.898,-82.5001 863.898,-89.5001"/>
</g>
<!-- Node8&#45;&gt;Node3 -->
<g id="edge9" class="edge"><title>Node8&#45;&gt;Node3</title>
<path fill="none" stroke="midnightblue" d="M437.942,-19.5604C446.28,-22.5777 455.526,-25.9258 464,-29 486.925,-37.3166 512.672,-46.6787 532.872,-54.0292"/>
<polygon fill="midnightblue" stroke="midnightblue" points="531.713,-57.3318 542.307,-57.4627 534.107,-50.7538 531.713,-57.3318"/>
</g>
<!-- Node9 -->
<g id="node9" class="node"><title>Node9</title>
<g id="a_node9"><a xlink:href="../../d1/d54/namespace_script.html#af293a36c230b10de7d8151c2990b233b" target="_top" xlink:title=" ">
<polygon fill="white" stroke="black" points="512.5,-0.5 512.5,-19.5 626.5,-19.5 626.5,-0.5 512.5,-0.5"/>
<text text-anchor="middle" x="569.5" y="-7.5" font-family="Helvetica,sans-Serif" font-size="10.00">Script::LookUpSymbol</text>
</a>
</g>
</g>
<!-- Node8&#45;&gt;Node9 -->
<g id="edge10" class="edge"><title>Node8&#45;&gt;Node9</title>
<path fill="none" stroke="midnightblue" d="M451.524,-10C466.941,-10 484.988,-10 502.229,-10"/>
<polygon fill="midnightblue" stroke="midnightblue" points="502.26,-13.5001 512.26,-10 502.26,-6.5001 502.26,-13.5001"/>
</g>
</g>
</svg>
