<?xml version="1.0" encoding="UTF-8" standalone="no"?>
<!DOCTYPE svg PUBLIC "-//W3C//DTD SVG 1.1//EN"
 "http://www.w3.org/Graphics/SVG/1.1/DTD/svg11.dtd">
<!-- Generated by graphviz version 2.38.0 (20140413.2041)
 -->
<!-- Title: Obj::ScriptGiveAllGaps Pages: 1 -->
<svg width="1145pt" height="264pt"
 viewBox="0.00 0.00 1145.00 264.00" xmlns="http://www.w3.org/2000/svg" xmlns:xlink="http://www.w3.org/1999/xlink">
<g id="graph0" class="graph" transform="scale(1 1) rotate(0) translate(4 260)">
<title>Obj::ScriptGiveAllGaps</title>
<polygon fill="white" stroke="none" points="-4,4 -4,-260 1141,-260 1141,4 -4,4"/>
<!-- Node1 -->
<g id="node1" class="node"><title>Node1</title>
<g id="a_node1"><a xlink:title=" ">
<polygon fill="#bfbfbf" stroke="black" points="0,-129.5 0,-148.5 116,-148.5 116,-129.5 0,-129.5"/>
<text text-anchor="middle" x="58" y="-136.5" font-family="Helvetica,sans-Serif" font-size="10.00">Obj::ScriptGiveAllGaps</text>
</a>
</g>
</g>
<!-- Node2 -->
<g id="node2" class="node"><title>Node2</title>
<g id="a_node2"><a xlink:href="../../da/d03/class_obj_1_1_c_gap_checklist.html#ab0d87757848319c6f43564892cb607af" target="_top" xlink:title=" ">
<polygon fill="white" stroke="black" points="166.5,-212 166.5,-242 269.5,-242 269.5,-212 166.5,-212"/>
<text text-anchor="start" x="174.5" y="-230" font-family="Helvetica,sans-Serif" font-size="10.00">Obj::CGapChecklist</text>
<text text-anchor="middle" x="218" y="-219" font-family="Helvetica,sans-Serif" font-size="10.00">::AwardAllGaps</text>
</a>
</g>
</g>
<!-- Node1&#45;&gt;Node2 -->
<g id="edge1" class="edge"><title>Node1&#45;&gt;Node2</title>
<path fill="none" stroke="midnightblue" d="M71.0703,-148.506C88.2881,-161.75 121.23,-185.93 152,-202 155.965,-204.071 160.142,-206.065 164.387,-207.962"/>
<polygon fill="midnightblue" stroke="midnightblue" points="163.159,-211.244 173.731,-211.951 165.908,-204.806 163.159,-211.244"/>
</g>
<!-- Node5 -->
<g id="node5" class="node"><title>Node5</title>
<g id="a_node5"><a xlink:href="../../d6/df1/class_mdl_1_1_skate.html#ad58a243ad6a6e6e5e64176290c715097" target="_top" xlink:title=" ">
<polygon fill="white" stroke="black" points="161,-173.5 161,-192.5 275,-192.5 275,-173.5 161,-173.5"/>
<text text-anchor="middle" x="218" y="-180.5" font-family="Helvetica,sans-Serif" font-size="10.00">Mdl::Skate::GetCareer</text>
</a>
</g>
</g>
<!-- Node1&#45;&gt;Node5 -->
<g id="edge4" class="edge"><title>Node1&#45;&gt;Node5</title>
<path fill="none" stroke="midnightblue" d="M93.2836,-148.547C116.68,-155.063 147.878,-163.751 173.091,-170.772"/>
<polygon fill="midnightblue" stroke="midnightblue" points="172.211,-174.16 182.783,-173.471 174.089,-167.417 172.211,-174.16"/>
</g>
<!-- Node6 -->
<g id="node6" class="node"><title>Node6</title>
<g id="a_node6"><a xlink:href="../../d4/df3/class_obj_1_1_c_skater_career.html#a1f946e6faad637ef1c71a65b864f0be3" target="_top" xlink:title=" ">
<polygon fill="white" stroke="black" points="167.5,-124 167.5,-154 268.5,-154 268.5,-124 167.5,-124"/>
<text text-anchor="start" x="175.5" y="-142" font-family="Helvetica,sans-Serif" font-size="10.00">Obj::CSkaterCareer</text>
<text text-anchor="middle" x="218" y="-131" font-family="Helvetica,sans-Serif" font-size="10.00">::GetGapChecklist</text>
</a>
</g>
</g>
<!-- Node1&#45;&gt;Node6 -->
<g id="edge5" class="edge"><title>Node1&#45;&gt;Node6</title>
<path fill="none" stroke="midnightblue" d="M116.042,-139C129.425,-139 143.721,-139 157.221,-139"/>
<polygon fill="midnightblue" stroke="midnightblue" points="157.36,-142.5 167.36,-139 157.36,-135.5 157.36,-142.5"/>
</g>
<!-- Node7 -->
<g id="node7" class="node"><title>Node7</title>
<g id="a_node7"><a xlink:href="../../d2/df7/class_script_1_1_c_struct.html#a1e85eee5e600de8358db26f6c777e42d" target="_top" xlink:title=" ">
<polygon fill="white" stroke="black" points="152,-85.5 152,-104.5 284,-104.5 284,-85.5 152,-85.5"/>
<text text-anchor="middle" x="218" y="-92.5" font-family="Helvetica,sans-Serif" font-size="10.00">Script::CStruct::GetInteger</text>
</a>
</g>
</g>
<!-- Node1&#45;&gt;Node7 -->
<g id="edge6" class="edge"><title>Node1&#45;&gt;Node7</title>
<path fill="none" stroke="midnightblue" d="M93.2836,-129.453C116.68,-122.937 147.878,-114.249 173.091,-107.228"/>
<polygon fill="midnightblue" stroke="midnightblue" points="174.089,-110.583 182.783,-104.529 172.211,-103.84 174.089,-110.583"/>
</g>
<!-- Node17 -->
<g id="node17" class="node"><title>Node17</title>
<g id="a_node17"><a xlink:href="../../d4/df3/class_obj_1_1_c_skater_career.html#a1b41e09f787ad002084dc45dbb864138" target="_top" xlink:title=" ">
<polygon fill="white" stroke="black" points="167.5,-36 167.5,-66 268.5,-66 268.5,-36 167.5,-36"/>
<text text-anchor="start" x="175.5" y="-54" font-family="Helvetica,sans-Serif" font-size="10.00">Obj::CSkaterCareer</text>
<text text-anchor="middle" x="218" y="-43" font-family="Helvetica,sans-Serif" font-size="10.00">::GetLevel</text>
</a>
</g>
</g>
<!-- Node1&#45;&gt;Node17 -->
<g id="edge19" class="edge"><title>Node1&#45;&gt;Node17</title>
<path fill="none" stroke="midnightblue" d="M71.0703,-129.494C88.2881,-116.25 121.23,-92.0695 152,-76 155.965,-73.9291 160.142,-71.9346 164.387,-70.0376"/>
<polygon fill="midnightblue" stroke="midnightblue" points="165.908,-73.194 173.731,-66.0489 163.159,-66.756 165.908,-73.194"/>
</g>
<!-- Node3 -->
<g id="node3" class="node"><title>Node3</title>
<g id="a_node3"><a xlink:href="../../db/dd6/class_obj_1_1_c_gap_check.html#a0c7414559fb98b81ce7d3b87991ffc4b" target="_top" xlink:title=" ">
<polygon fill="white" stroke="black" points="332.5,-236.5 332.5,-255.5 444.5,-255.5 444.5,-236.5 332.5,-236.5"/>
<text text-anchor="middle" x="388.5" y="-243.5" font-family="Helvetica,sans-Serif" font-size="10.00">Obj::CGapCheck::Got</text>
</a>
</g>
</g>
<!-- Node2&#45;&gt;Node3 -->
<g id="edge2" class="edge"><title>Node2&#45;&gt;Node3</title>
<path fill="none" stroke="midnightblue" d="M269.556,-232.701C286.087,-234.565 304.69,-236.662 322.151,-238.631"/>
<polygon fill="midnightblue" stroke="midnightblue" points="321.947,-242.13 332.276,-239.773 322.731,-235.174 321.947,-242.13"/>
</g>
<!-- Node4 -->
<g id="node4" class="node"><title>Node4</title>
<g id="a_node4"><a xlink:href="../../db/dd6/class_obj_1_1_c_gap_check.html#a34aff822d1425ee3dddc128e703a8ad0" target="_top" xlink:title=" ">
<polygon fill="white" stroke="black" points="320,-198.5 320,-217.5 457,-217.5 457,-198.5 320,-198.5"/>
<text text-anchor="middle" x="388.5" y="-205.5" font-family="Helvetica,sans-Serif" font-size="10.00">Obj::CGapCheck::SetCount</text>
</a>
</g>
</g>
<!-- Node2&#45;&gt;Node4 -->
<g id="edge3" class="edge"><title>Node2&#45;&gt;Node4</title>
<path fill="none" stroke="midnightblue" d="M269.556,-221.299C282.147,-219.88 295.941,-218.324 309.516,-216.793"/>
<polygon fill="midnightblue" stroke="midnightblue" points="310.286,-220.229 319.831,-215.63 309.502,-213.273 310.286,-220.229"/>
</g>
<!-- Node8 -->
<g id="node8" class="node"><title>Node8</title>
<g id="a_node8"><a xlink:href="../../d1/d54/namespace_script.html#ae80ed69ea4edcbcbbbd4985a6efdcd6e" target="_top" xlink:title=" ">
<polygon fill="white" stroke="black" points="639,-76.5 639,-95.5 778,-95.5 778,-76.5 639,-76.5"/>
<text text-anchor="middle" x="708.5" y="-83.5" font-family="Helvetica,sans-Serif" font-size="10.00">Script::FindChecksumName</text>
</a>
</g>
</g>
<!-- Node7&#45;&gt;Node8 -->
<g id="edge7" class="edge"><title>Node7&#45;&gt;Node8</title>
<path fill="none" stroke="midnightblue" d="M260.033,-104.511C278.284,-108.276 300.103,-112.145 320,-114 433.763,-124.607 566.637,-108.917 643.52,-97.0875"/>
<polygon fill="midnightblue" stroke="midnightblue" points="644.192,-100.525 653.53,-95.5201 643.109,-93.6092 644.192,-100.525"/>
</g>
<!-- Node12 -->
<g id="node12" class="node"><title>Node12</title>
<g id="a_node12"><a xlink:href="../../d1/d54/namespace_script.html#a0d003ee93577e31adb6597bce0002009" target="_top" xlink:title=" ">
<polygon fill="white" stroke="black" points="335,-85.5 335,-104.5 442,-104.5 442,-85.5 335,-85.5"/>
<text text-anchor="middle" x="388.5" y="-92.5" font-family="Helvetica,sans-Serif" font-size="10.00">Script::PrintContents</text>
</a>
</g>
</g>
<!-- Node7&#45;&gt;Node12 -->
<g id="edge11" class="edge"><title>Node7&#45;&gt;Node12</title>
<path fill="none" stroke="midnightblue" d="M284.146,-95C297.373,-95 311.263,-95 324.416,-95"/>
<polygon fill="midnightblue" stroke="midnightblue" points="324.78,-98.5001 334.78,-95 324.78,-91.5001 324.78,-98.5001"/>
</g>
<!-- Node13 -->
<g id="node13" class="node"><title>Node13</title>
<g id="a_node13"><a xlink:href="../../d2/df7/class_script_1_1_c_struct.html#a1e05f0a66cff4a700fb67fdc117d2d7f" target="_top" xlink:title=" ">
<polygon fill="white" stroke="black" points="322.5,-29.5 322.5,-48.5 454.5,-48.5 454.5,-29.5 322.5,-29.5"/>
<text text-anchor="middle" x="388.5" y="-36.5" font-family="Helvetica,sans-Serif" font-size="10.00">Script::CStruct::search_for</text>
</a>
</g>
</g>
<!-- Node7&#45;&gt;Node13 -->
<g id="edge12" class="edge"><title>Node7&#45;&gt;Node13</title>
<path fill="none" stroke="midnightblue" d="M253.188,-85.4167C263.159,-82.5112 274.047,-79.2305 284,-76 306.98,-68.541 332.545,-59.4099 352.518,-52.085"/>
<polygon fill="midnightblue" stroke="midnightblue" points="353.951,-55.2871 362.123,-48.5439 351.53,-48.7193 353.951,-55.2871"/>
</g>
<!-- Node9 -->
<g id="node9" class="node"><title>Node9</title>
<g id="a_node9"><a xlink:href="../../d1/d54/namespace_script.html#a5cc52c4ff5ea5bb27681d819212dfdca" target="_top" xlink:title=" ">
<polygon fill="white" stroke="black" points="814,-95.5 814,-114.5 977,-114.5 977,-95.5 814,-95.5"/>
<text text-anchor="middle" x="895.5" y="-102.5" font-family="Helvetica,sans-Serif" font-size="10.00">Script::FindChecksumNameNULL</text>
</a>
</g>
</g>
<!-- Node8&#45;&gt;Node9 -->
<g id="edge8" class="edge"><title>Node8&#45;&gt;Node9</title>
<path fill="none" stroke="midnightblue" d="M778.124,-93.0479C786.476,-93.9056 795.107,-94.792 803.717,-95.6764"/>
<polygon fill="midnightblue" stroke="midnightblue" points="803.493,-99.1717 813.798,-96.7117 804.208,-92.2083 803.493,-99.1717"/>
</g>
<!-- Node11 -->
<g id="node11" class="node"><title>Node11</title>
<g id="a_node11"><a xlink:href="../../da/d37/namespace_dbg.html#ab406a8cc16de5046c7d9fd09c9de5e22" target="_top" xlink:title=" ">
<polygon fill="white" stroke="black" points="862.5,-57.5 862.5,-76.5 928.5,-76.5 928.5,-57.5 862.5,-57.5"/>
<text text-anchor="middle" x="895.5" y="-64.5" font-family="Helvetica,sans-Serif" font-size="10.00">Dbg::sprintf</text>
</a>
</g>
</g>
<!-- Node8&#45;&gt;Node11 -->
<g id="edge10" class="edge"><title>Node8&#45;&gt;Node11</title>
<path fill="none" stroke="midnightblue" d="M778.124,-78.9521C802.98,-76.3993 830.305,-73.593 852.228,-71.3414"/>
<polygon fill="midnightblue" stroke="midnightblue" points="852.616,-74.8201 862.206,-70.3167 851.901,-67.8567 852.616,-74.8201"/>
</g>
<!-- Node10 -->
<g id="node10" class="node"><title>Node10</title>
<g id="a_node10"><a xlink:href="../../d0/d31/namespace_config.html#a709cc81780d49900157e3476b63aa25d" target="_top" xlink:title=" ">
<polygon fill="white" stroke="black" points="1013,-95.5 1013,-114.5 1137,-114.5 1137,-95.5 1013,-95.5"/>
<text text-anchor="middle" x="1075" y="-102.5" font-family="Helvetica,sans-Serif" font-size="10.00">Config::GotExtraMemory</text>
</a>
</g>
</g>
<!-- Node9&#45;&gt;Node10 -->
<g id="edge9" class="edge"><title>Node9&#45;&gt;Node10</title>
<path fill="none" stroke="midnightblue" d="M977.2,-105C985.729,-105 994.358,-105 1002.77,-105"/>
<polygon fill="midnightblue" stroke="midnightblue" points="1002.9,-108.5 1012.9,-105 1002.9,-101.5 1002.9,-108.5"/>
</g>
<!-- Node13&#45;&gt;Node8 -->
<g id="edge13" class="edge"><title>Node13&#45;&gt;Node8</title>
<path fill="none" stroke="midnightblue" d="M419.526,-48.6268C440.017,-54.8233 467.893,-62.5278 493,-67 537.619,-74.9478 588.08,-79.6289 628.844,-82.355"/>
<polygon fill="midnightblue" stroke="midnightblue" points="628.786,-85.8584 638.99,-83.0067 629.235,-78.8728 628.786,-85.8584"/>
</g>
<!-- Node13&#45;&gt;Node13 -->
<g id="edge18" class="edge"><title>Node13&#45;&gt;Node13</title>
<path fill="none" stroke="midnightblue" d="M364.148,-48.7571C352.301,-57.5653 360.418,-67 388.5,-67 406.929,-67 416.76,-62.9368 417.992,-57.6539"/>
<polygon fill="midnightblue" stroke="midnightblue" points="420.886,-55.665 412.852,-48.7571 414.824,-59.1668 420.886,-55.665"/>
</g>
<!-- Node14 -->
<g id="node14" class="node"><title>Node14</title>
<g id="a_node14"><a xlink:href="../../d1/d54/namespace_script.html#af32f99ba26ca0f255240413a4e23a754" target="_top" xlink:title=" ">
<polygon fill="white" stroke="black" points="493,-38.5 493,-57.5 603,-57.5 603,-38.5 493,-38.5"/>
<text text-anchor="middle" x="548" y="-45.5" font-family="Helvetica,sans-Serif" font-size="10.00">Script::GetTypeName</text>
</a>
</g>
</g>
<!-- Node13&#45;&gt;Node14 -->
<g id="edge14" class="edge"><title>Node13&#45;&gt;Node14</title>
<path fill="none" stroke="midnightblue" d="M454.926,-42.7386C464.014,-43.258 473.346,-43.7912 482.419,-44.3097"/>
<polygon fill="midnightblue" stroke="midnightblue" points="482.342,-47.8109 492.525,-44.8872 482.741,-40.8223 482.342,-47.8109"/>
</g>
<!-- Node15 -->
<g id="node15" class="node"><title>Node15</title>
<g id="a_node15"><a xlink:href="../../d1/d54/namespace_script.html#a43181580ea5d38e4bf1aa19ccd5e9e85" target="_top" xlink:title=" ">
<polygon fill="white" stroke="black" points="507,-0.5 507,-19.5 589,-19.5 589,-0.5 507,-0.5"/>
<text text-anchor="middle" x="548" y="-7.5" font-family="Helvetica,sans-Serif" font-size="10.00">Script::Resolve</text>
</a>
</g>
</g>
<!-- Node13&#45;&gt;Node15 -->
<g id="edge15" class="edge"><title>Node13&#45;&gt;Node15</title>
<path fill="none" stroke="midnightblue" d="M441.508,-29.4239C459.26,-26.1554 479.069,-22.508 496.685,-19.2644"/>
<polygon fill="midnightblue" stroke="midnightblue" points="497.57,-22.6602 506.771,-17.4072 496.303,-15.776 497.57,-22.6602"/>
</g>
<!-- Node15&#45;&gt;Node8 -->
<g id="edge16" class="edge"><title>Node15&#45;&gt;Node8</title>
<path fill="none" stroke="midnightblue" d="M578.764,-19.5083C586.737,-22.3156 595.283,-25.5644 603,-29 631.324,-41.609 662.339,-59.015 683.164,-71.2654"/>
<polygon fill="midnightblue" stroke="midnightblue" points="681.583,-74.3976 691.968,-76.4954 685.158,-68.3792 681.583,-74.3976"/>
</g>
<!-- Node16 -->
<g id="node16" class="node"><title>Node16</title>
<g id="a_node16"><a xlink:href="../../d1/d54/namespace_script.html#af293a36c230b10de7d8151c2990b233b" target="_top" xlink:title=" ">
<polygon fill="white" stroke="black" points="651.5,-0.5 651.5,-19.5 765.5,-19.5 765.5,-0.5 651.5,-0.5"/>
<text text-anchor="middle" x="708.5" y="-7.5" font-family="Helvetica,sans-Serif" font-size="10.00">Script::LookUpSymbol</text>
</a>
</g>
</g>
<!-- Node15&#45;&gt;Node16 -->
<g id="edge17" class="edge"><title>Node15&#45;&gt;Node16</title>
<path fill="none" stroke="midnightblue" d="M589.406,-10C605.124,-10 623.549,-10 641.11,-10"/>
<polygon fill="midnightblue" stroke="midnightblue" points="641.322,-13.5001 651.322,-10 641.322,-6.5001 641.322,-13.5001"/>
</g>
</g>
</svg>
