<?xml version="1.0" encoding="UTF-8" standalone="no"?>
<!DOCTYPE svg PUBLIC "-//W3C//DTD SVG 1.1//EN"
 "http://www.w3.org/Graphics/SVG/1.1/DTD/svg11.dtd">
<!-- Generated by graphviz version 2.38.0 (20140413.2041)
 -->
<!-- Title: Dbg::error Pages: 1 -->
<svg width="2095pt" height="629pt"
 viewBox="0.00 0.00 2095.00 628.50" xmlns="http://www.w3.org/2000/svg" xmlns:xlink="http://www.w3.org/1999/xlink">
<g id="graph0" class="graph" transform="scale(1 1) rotate(0) translate(4 624.5)">
<title>Dbg::error</title>
<polygon fill="white" stroke="none" points="-4,4 -4,-624.5 2091,-624.5 2091,4 -4,4"/>
<!-- Node1 -->
<g id="node1" class="node"><title>Node1</title>
<g id="a_node1"><a xlink:title=" ">
<polygon fill="#bfbfbf" stroke="black" points="2028,-152.5 2028,-171.5 2087,-171.5 2087,-152.5 2028,-152.5"/>
<text text-anchor="middle" x="2057.5" y="-159.5" font-family="Helvetica,sans-Serif" font-size="10.00">Dbg::error</text>
</a>
</g>
</g>
<!-- Node2 -->
<g id="node2" class="node"><title>Node2</title>
<g id="a_node2"><a xlink:href="../../d6/d34/_debug_8cpp.html#a6ecbd149acc12441d9993fd624d42caa" target="_top" xlink:title=" ">
<polygon fill="white" stroke="black" points="1861.5,-304.5 1861.5,-323.5 1958.5,-323.5 1958.5,-304.5 1861.5,-304.5"/>
<text text-anchor="middle" x="1910" y="-311.5" font-family="Helvetica,sans-Serif" font-size="10.00">Dbg_DefineProject</text>
</a>
</g>
</g>
<!-- Node1&#45;&gt;Node2 -->
<g id="edge1" class="edge"><title>Node1&#45;&gt;Node2</title>
<path fill="none" stroke="midnightblue" d="M2051.92,-181.508C2044.32,-209.613 2026.39,-261.265 1992,-290 1982.55,-297.899 1970.57,-303.199 1958.76,-306.754"/>
<polygon fill="midnightblue" stroke="midnightblue" points="2055.35,-182.223 2054.42,-171.669 2048.57,-180.501 2055.35,-182.223"/>
</g>
<!-- Node3 -->
<g id="node3" class="node"><title>Node3</title>
<g id="a_node3"><a xlink:href="../../dd/d46/p__dvd_8h.html#ae6f7ca6cd23e5143185f3152d2470135" target="_top" xlink:title=" ">
<polygon fill="white" stroke="black" points="1678.5,-266.5 1678.5,-285.5 1770.5,-285.5 1770.5,-266.5 1678.5,-266.5"/>
<text text-anchor="middle" x="1724.5" y="-273.5" font-family="Helvetica,sans-Serif" font-size="10.00">DVDCheckAsync</text>
</a>
</g>
</g>
<!-- Node1&#45;&gt;Node3 -->
<g id="edge2" class="edge"><title>Node1&#45;&gt;Node3</title>
<path fill="none" stroke="midnightblue" d="M2049.51,-181.205C2040.19,-203.71 2021.38,-240.073 1992,-257 1923.07,-296.717 1826.89,-291.747 1770.91,-284.138"/>
<polygon fill="midnightblue" stroke="midnightblue" points="2052.85,-182.276 2053.22,-171.688 2046.32,-179.729 2052.85,-182.276"/>
</g>
<!-- Node35 -->
<g id="node35" class="node"><title>Node35</title>
<g id="a_node35"><a xlink:href="../../dd/d46/p__dvd_8h.html#a5631ef8041fb98b594a160bf813168d8" target="_top" xlink:title=" ">
<polygon fill="white" stroke="black" points="1867.5,-228.5 1867.5,-247.5 1952.5,-247.5 1952.5,-228.5 1867.5,-228.5"/>
<text text-anchor="middle" x="1910" y="-235.5" font-family="Helvetica,sans-Serif" font-size="10.00">DVDWaitAsync</text>
</a>
</g>
</g>
<!-- Node1&#45;&gt;Node35 -->
<g id="edge41" class="edge"><title>Node1&#45;&gt;Node35</title>
<path fill="none" stroke="midnightblue" d="M2041.34,-179.41C2029.23,-192.231 2011.17,-209.093 1992,-219 1979.94,-225.235 1965.81,-229.452 1952.77,-232.294"/>
<polygon fill="midnightblue" stroke="midnightblue" points="2044.23,-181.429 2048.39,-171.682 2039.06,-176.712 2044.23,-181.429"/>
</g>
<!-- Node43 -->
<g id="node43" class="node"><title>Node43</title>
<g id="a_node43"><a xlink:href="../../d6/d06/class_mc_1_1_manager.html#a3067609ca87a4814e8adb7dcb676e48d" target="_top" xlink:title=" ">
<polygon fill="white" stroke="black" points="1846,-190.5 1846,-209.5 1974,-209.5 1974,-190.5 1846,-190.5"/>
<text text-anchor="middle" x="1910" y="-197.5" font-family="Helvetica,sans-Serif" font-size="10.00">Mc::Manager::GetCardEx</text>
</a>
</g>
</g>
<!-- Node1&#45;&gt;Node43 -->
<g id="edge53" class="edge"><title>Node1&#45;&gt;Node43</title>
<path fill="none" stroke="midnightblue" d="M2017.97,-173.733C2009.45,-176.222 2000.44,-178.77 1992,-181 1979.57,-184.285 1965.99,-187.583 1953.57,-190.487"/>
<polygon fill="midnightblue" stroke="midnightblue" points="2019.1,-177.049 2027.7,-170.859 2017.12,-170.336 2019.1,-177.049"/>
</g>
<!-- Node44 -->
<g id="node44" class="node"><title>Node44</title>
<g id="a_node44"><a xlink:href="../../d2/dcc/class_mc_1_1_card.html#adece45d88591467674770aae4dd61da4" target="_top" xlink:title=" ">
<polygon fill="white" stroke="black" points="1862.5,-152.5 1862.5,-171.5 1957.5,-171.5 1957.5,-152.5 1862.5,-152.5"/>
<text text-anchor="middle" x="1910" y="-159.5" font-family="Helvetica,sans-Serif" font-size="10.00">Mc::Card::GetSlot</text>
</a>
</g>
</g>
<!-- Node1&#45;&gt;Node44 -->
<g id="edge54" class="edge"><title>Node1&#45;&gt;Node44</title>
<path fill="none" stroke="midnightblue" d="M2017.66,-162C1999.24,-162 1977.07,-162 1957.73,-162"/>
<polygon fill="midnightblue" stroke="midnightblue" points="2017.75,-165.5 2027.75,-162 2017.75,-158.5 2017.75,-165.5"/>
</g>
<!-- Node47 -->
<g id="node47" class="node"><title>Node47</title>
<g id="a_node47"><a xlink:href="../../df/db8/dnas_8cpp.html#a311dcdd149f832241148c99aa3f4910c" target="_top" xlink:title=" ">
<polygon fill="white" stroke="black" points="1872,-114.5 1872,-133.5 1948,-133.5 1948,-114.5 1872,-114.5"/>
<text text-anchor="middle" x="1910" y="-121.5" font-family="Helvetica,sans-Serif" font-size="10.00">netstart_dnas</text>
</a>
</g>
</g>
<!-- Node1&#45;&gt;Node47 -->
<g id="edge57" class="edge"><title>Node1&#45;&gt;Node47</title>
<path fill="none" stroke="midnightblue" d="M2017.97,-150.267C2009.45,-147.778 2000.44,-145.23 1992,-143 1977.76,-139.235 1962,-135.454 1948.21,-132.267"/>
<polygon fill="midnightblue" stroke="midnightblue" points="2017.12,-153.664 2027.7,-153.141 2019.1,-146.951 2017.12,-153.664"/>
</g>
<!-- Node49 -->
<g id="node49" class="node"><title>Node49</title>
<g id="a_node49"><a xlink:href="../../d8/dbb/namespace_flx.html#a919b3c35ed7f4d899df5645b0756ae66" target="_top" xlink:title=" ">
<polygon fill="white" stroke="black" points="1849,-76.5 1849,-95.5 1971,-95.5 1971,-76.5 1849,-76.5"/>
<text text-anchor="middle" x="1910" y="-83.5" font-family="Helvetica,sans-Serif" font-size="10.00">Flx::PMovies_PlayMovie</text>
</a>
</g>
</g>
<!-- Node1&#45;&gt;Node49 -->
<g id="edge59" class="edge"><title>Node1&#45;&gt;Node49</title>
<path fill="none" stroke="midnightblue" d="M2041.34,-144.59C2029.23,-131.769 2011.17,-114.907 1992,-105 1984.56,-101.153 1976.33,-98.0741 1968.05,-95.6124"/>
<polygon fill="midnightblue" stroke="midnightblue" points="2039.06,-147.288 2048.39,-152.318 2044.23,-142.571 2039.06,-147.288"/>
</g>
<!-- Node50 -->
<g id="node50" class="node"><title>Node50</title>
<g id="a_node50"><a xlink:href="../../d2/d8e/class_game_net_1_1_manager.html#a8b463a336ad1c5cad2908178ddc117cd" target="_top" xlink:title=" ">
<polygon fill="white" stroke="black" points="1829.5,-38.5 1829.5,-57.5 1990.5,-57.5 1990.5,-38.5 1829.5,-38.5"/>
<text text-anchor="middle" x="1910" y="-45.5" font-family="Helvetica,sans-Serif" font-size="10.00">GameNet::Manager::SpawnClient</text>
</a>
</g>
</g>
<!-- Node1&#45;&gt;Node50 -->
<g id="edge60" class="edge"><title>Node1&#45;&gt;Node50</title>
<path fill="none" stroke="midnightblue" d="M2048.87,-143.234C2039.02,-121.461 2019.79,-86.112 1992,-67 1986.41,-63.1535 1980.14,-60.079 1973.63,-57.6226"/>
<polygon fill="midnightblue" stroke="midnightblue" points="2045.66,-144.641 2052.84,-152.439 2052.09,-141.87 2045.66,-144.641"/>
</g>
<!-- Node51 -->
<g id="node51" class="node"><title>Node51</title>
<g id="a_node51"><a xlink:href="../../d2/d8e/class_game_net_1_1_manager.html#a03a3ea96c2751e1cbbeaef1c47e2661f" target="_top" xlink:title=" ">
<polygon fill="white" stroke="black" points="1828,-0.5 1828,-19.5 1992,-19.5 1992,-0.5 1828,-0.5"/>
<text text-anchor="middle" x="1910" y="-7.5" font-family="Helvetica,sans-Serif" font-size="10.00">GameNet::Manager::SpawnServer</text>
</a>
</g>
</g>
<!-- Node1&#45;&gt;Node51 -->
<g id="edge61" class="edge"><title>Node1&#45;&gt;Node51</title>
<path fill="none" stroke="midnightblue" d="M2052.56,-142.292C2045.64,-112.958 2028.42,-58.1441 1992,-29 1987.15,-25.1196 1981.64,-22.0067 1975.84,-19.513"/>
<polygon fill="midnightblue" stroke="midnightblue" points="2049.17,-143.162 2054.73,-152.181 2056.01,-141.663 2049.17,-143.162"/>
</g>
<!-- Node4 -->
<g id="node4" class="node"><title>Node4</title>
<g id="a_node4"><a xlink:href="../../de/d3e/namespace_pcm.html#a8488310aee3f720c9b123abd9c270402" target="_top" xlink:title=" ">
<polygon fill="white" stroke="black" points="1474,-369.5 1474,-388.5 1599,-388.5 1599,-369.5 1474,-369.5"/>
<text text-anchor="middle" x="1536.5" y="-376.5" font-family="Helvetica,sans-Serif" font-size="10.00">Pcm::PCMAudio_Update</text>
</a>
</g>
</g>
<!-- Node3&#45;&gt;Node4 -->
<g id="edge3" class="edge"><title>Node3&#45;&gt;Node4</title>
<path fill="none" stroke="midnightblue" d="M1697.27,-290.527C1658.68,-311.896 1587.66,-351.226 1554.89,-369.368"/>
<polygon fill="midnightblue" stroke="midnightblue" points="1699.28,-293.412 1706.33,-285.505 1695.89,-287.288 1699.28,-293.412"/>
</g>
<!-- Node5 -->
<g id="node5" class="node"><title>Node5</title>
<g id="a_node5"><a xlink:href="../../da/d63/namespace_nx_ngc.html#a253d74fc19d3a41519642cbeee6f96f6" target="_top" xlink:title=" ">
<polygon fill="white" stroke="black" points="1291,-542.5 1291,-561.5 1416,-561.5 1416,-542.5 1291,-542.5"/>
<text text-anchor="middle" x="1353.5" y="-549.5" font-family="Helvetica,sans-Serif" font-size="10.00">NxNgc::do_audio_update</text>
</a>
</g>
</g>
<!-- Node4&#45;&gt;Node5 -->
<g id="edge4" class="edge"><title>Node4&#45;&gt;Node5</title>
<path fill="none" stroke="midnightblue" d="M1517.92,-395.803C1480.56,-431.508 1394.28,-513.979 1364.68,-542.269"/>
<polygon fill="midnightblue" stroke="midnightblue" points="1520.7,-397.987 1525.51,-388.548 1515.86,-392.927 1520.7,-397.987"/>
</g>
<!-- Node9 -->
<g id="node9" class="node"><title>Node9</title>
<g id="a_node9"><a xlink:href="../../d1/d06/namespace_nx.html#a3f259ea8efce4da7e2c65cdcc583e037" target="_top" xlink:title=" ">
<polygon fill="white" stroke="black" points="1299.5,-428.5 1299.5,-447.5 1407.5,-447.5 1407.5,-428.5 1299.5,-428.5"/>
<text text-anchor="middle" x="1353.5" y="-435.5" font-family="Helvetica,sans-Serif" font-size="10.00">Nx::do_audio_update</text>
</a>
</g>
</g>
<!-- Node4&#45;&gt;Node9 -->
<g id="edge8" class="edge"><title>Node4&#45;&gt;Node9</title>
<path fill="none" stroke="midnightblue" d="M1496.43,-391.734C1462.55,-402.778 1414.28,-418.515 1383.67,-428.491"/>
<polygon fill="midnightblue" stroke="midnightblue" points="1497.59,-395.038 1506.02,-388.611 1495.42,-388.382 1497.59,-395.038"/>
</g>
<!-- Node18 -->
<g id="node18" class="node"><title>Node18</title>
<g id="a_node18"><a xlink:href="../../de/d3e/namespace_pcm.html#af405ca6aedfbd64805e40505bd0004ab" target="_top" xlink:title=" ">
<polygon fill="white" stroke="black" points="1316.5,-311.5 1316.5,-330.5 1390.5,-330.5 1390.5,-311.5 1316.5,-311.5"/>
<text text-anchor="middle" x="1353.5" y="-318.5" font-family="Helvetica,sans-Serif" font-size="10.00">Pcm::Update</text>
</a>
</g>
</g>
<!-- Node4&#45;&gt;Node18 -->
<g id="edge23" class="edge"><title>Node4&#45;&gt;Node18</title>
<path fill="none" stroke="midnightblue" d="M1495.67,-366.237C1462.11,-355.484 1414.84,-340.336 1384.43,-330.592"/>
<polygon fill="midnightblue" stroke="midnightblue" points="1495.02,-369.704 1505.61,-369.422 1497.16,-363.038 1495.02,-369.704"/>
</g>
<!-- Node6 -->
<g id="node6" class="node"><title>Node6</title>
<g id="a_node6"><a xlink:href="../../da/d63/namespace_nx_ngc.html#a7377a034ee1b279a116a22780e81cba9" target="_top" xlink:title=" ">
<polygon fill="white" stroke="black" points="1129,-595.5 1129,-614.5 1228,-614.5 1228,-595.5 1129,-595.5"/>
<text text-anchor="middle" x="1178.5" y="-602.5" font-family="Helvetica,sans-Serif" font-size="10.00">NxNgc::hide_mesh</text>
</a>
</g>
</g>
<!-- Node5&#45;&gt;Node6 -->
<g id="edge5" class="edge"><title>Node5&#45;&gt;Node6</title>
<path fill="none" stroke="midnightblue" d="M1317.57,-565.026C1299.1,-571.7 1275.96,-579.721 1255,-586 1243.86,-589.335 1231.69,-592.574 1220.43,-595.405"/>
<polygon fill="midnightblue" stroke="midnightblue" points="1318.85,-568.288 1327.04,-561.576 1316.45,-561.711 1318.85,-568.288"/>
</g>
<!-- Node7 -->
<g id="node7" class="node"><title>Node7</title>
<g id="a_node7"><a xlink:href="../../d7/df2/struct_nx_ngc_1_1s_scene.html#aef277fe95ac12d8bbaf3a4c36045e6a5" target="_top" xlink:title=" ">
<polygon fill="white" stroke="black" points="930,-595.5 930,-614.5 1065,-614.5 1065,-595.5 930,-595.5"/>
<text text-anchor="middle" x="997.5" y="-602.5" font-family="Helvetica,sans-Serif" font-size="10.00">NxNgc::sScene::HidePolys</text>
</a>
</g>
</g>
<!-- Node6&#45;&gt;Node7 -->
<g id="edge6" class="edge"><title>Node6&#45;&gt;Node7</title>
<path fill="none" stroke="midnightblue" d="M1118.23,-605C1101.22,-605 1082.56,-605 1065.14,-605"/>
<polygon fill="midnightblue" stroke="midnightblue" points="1118.59,-608.5 1128.59,-605 1118.59,-601.5 1118.59,-608.5"/>
</g>
<!-- Node8 -->
<g id="node8" class="node"><title>Node8</title>
<g id="a_node8"><a xlink:href="../../de/dc7/class_nx_1_1_c_ngc_geom.html#a057ff249f27275f1a91ce3132340928b" target="_top" xlink:title=" ">
<polygon fill="white" stroke="black" points="763.5,-590 763.5,-620 870.5,-620 870.5,-590 763.5,-590"/>
<text text-anchor="start" x="771.5" y="-608" font-family="Helvetica,sans-Serif" font-size="10.00">Nx::CNgcGeom::plat</text>
<text text-anchor="middle" x="817" y="-597" font-family="Helvetica,sans-Serif" font-size="10.00">_hide_polys</text>
</a>
</g>
</g>
<!-- Node7&#45;&gt;Node8 -->
<g id="edge7" class="edge"><title>Node7&#45;&gt;Node8</title>
<path fill="none" stroke="midnightblue" d="M919.605,-605C903.112,-605 886.046,-605 870.717,-605"/>
<polygon fill="midnightblue" stroke="midnightblue" points="919.779,-608.5 929.779,-605 919.779,-601.5 919.779,-608.5"/>
</g>
<!-- Node10 -->
<g id="node10" class="node"><title>Node10</title>
<g id="a_node10"><a xlink:href="../../de/dc7/class_nx_1_1_c_ngc_geom.html#a501b43f26595047755b77ddd402d7300" target="_top" xlink:title=" ">
<polygon fill="white" stroke="black" points="1120,-497 1120,-527 1237,-527 1237,-497 1120,-497"/>
<text text-anchor="start" x="1128" y="-515" font-family="Helvetica,sans-Serif" font-size="10.00">Nx::CNgcGeom::plat</text>
<text text-anchor="middle" x="1178.5" y="-504" font-family="Helvetica,sans-Serif" font-size="10.00">_get_num_render_verts</text>
</a>
</g>
</g>
<!-- Node9&#45;&gt;Node10 -->
<g id="edge9" class="edge"><title>Node9&#45;&gt;Node10</title>
<path fill="none" stroke="midnightblue" d="M1327.19,-452.453C1307.83,-463.146 1280.24,-477.6 1255,-488 1247.37,-491.144 1239.17,-494.132 1231.08,-496.865"/>
<polygon fill="midnightblue" stroke="midnightblue" points="1328.97,-455.47 1335.99,-447.54 1325.55,-449.358 1328.97,-455.47"/>
</g>
<!-- Node14 -->
<g id="node14" class="node"><title>Node14</title>
<g id="a_node14"><a xlink:href="../../de/dc7/class_nx_1_1_c_ngc_geom.html#a6a86400de3b2d0b1d6f782935dacaf9f" target="_top" xlink:title=" ">
<polygon fill="white" stroke="black" points="1125,-448 1125,-478 1232,-478 1232,-448 1125,-448"/>
<text text-anchor="start" x="1133" y="-466" font-family="Helvetica,sans-Serif" font-size="10.00">Nx::CNgcGeom::plat</text>
<text text-anchor="middle" x="1178.5" y="-455" font-family="Helvetica,sans-Serif" font-size="10.00">_get_render_colors</text>
</a>
</g>
</g>
<!-- Node9&#45;&gt;Node14 -->
<g id="edge13" class="edge"><title>Node9&#45;&gt;Node14</title>
<path fill="none" stroke="midnightblue" d="M1289.23,-447.143C1270.44,-449.858 1250.07,-452.801 1232.05,-455.407"/>
<polygon fill="midnightblue" stroke="midnightblue" points="1289.79,-450.599 1299.18,-445.705 1288.78,-443.671 1289.79,-450.599"/>
</g>
<!-- Node15 -->
<g id="node15" class="node"><title>Node15</title>
<g id="a_node15"><a xlink:href="../../de/dc7/class_nx_1_1_c_ngc_geom.html#a81b62b52115b11f92730f6dc10bfd886" target="_top" xlink:title=" ">
<polygon fill="white" stroke="black" points="1125,-350 1125,-380 1232,-380 1232,-350 1125,-350"/>
<text text-anchor="start" x="1133" y="-368" font-family="Helvetica,sans-Serif" font-size="10.00">Nx::CNgcGeom::plat</text>
<text text-anchor="middle" x="1178.5" y="-357" font-family="Helvetica,sans-Serif" font-size="10.00">_get_render_verts</text>
</a>
</g>
</g>
<!-- Node9&#45;&gt;Node15 -->
<g id="edge14" class="edge"><title>Node9&#45;&gt;Node15</title>
<path fill="none" stroke="midnightblue" d="M1325.77,-423.594C1306.43,-413.483 1279.5,-400.03 1255,-390 1246.44,-386.495 1237.19,-383.112 1228.19,-380.027"/>
<polygon fill="midnightblue" stroke="midnightblue" points="1324.39,-426.827 1334.87,-428.401 1327.66,-420.637 1324.39,-426.827"/>
</g>
<!-- Node16 -->
<g id="node16" class="node"><title>Node16</title>
<g id="a_node16"><a xlink:href="../../de/dc7/class_nx_1_1_c_ngc_geom.html#a2d968043e64af6d07c42c0ee1e06c942" target="_top" xlink:title=" ">
<polygon fill="white" stroke="black" points="1125,-399 1125,-429 1232,-429 1232,-399 1125,-399"/>
<text text-anchor="start" x="1133" y="-417" font-family="Helvetica,sans-Serif" font-size="10.00">Nx::CNgcGeom::plat</text>
<text text-anchor="middle" x="1178.5" y="-406" font-family="Helvetica,sans-Serif" font-size="10.00">_set_render_colors</text>
</a>
</g>
</g>
<!-- Node9&#45;&gt;Node16 -->
<g id="edge18" class="edge"><title>Node9&#45;&gt;Node16</title>
<path fill="none" stroke="midnightblue" d="M1289.23,-429.222C1270.44,-426.616 1250.07,-423.791 1232.05,-421.29"/>
<polygon fill="midnightblue" stroke="midnightblue" points="1288.8,-432.696 1299.18,-430.603 1289.76,-425.762 1288.8,-432.696"/>
</g>
<!-- Node17 -->
<g id="node17" class="node"><title>Node17</title>
<g id="a_node17"><a xlink:href="../../de/dc7/class_nx_1_1_c_ngc_geom.html#aeb147ead8994129c101051928526b7bd" target="_top" xlink:title=" ">
<polygon fill="white" stroke="black" points="1125,-546 1125,-576 1232,-576 1232,-546 1125,-546"/>
<text text-anchor="start" x="1133" y="-564" font-family="Helvetica,sans-Serif" font-size="10.00">Nx::CNgcGeom::plat</text>
<text text-anchor="middle" x="1178.5" y="-553" font-family="Helvetica,sans-Serif" font-size="10.00">_set_render_verts</text>
</a>
</g>
</g>
<!-- Node9&#45;&gt;Node17 -->
<g id="edge19" class="edge"><title>Node9&#45;&gt;Node17</title>
<path fill="none" stroke="midnightblue" d="M1339.4,-455.87C1322.32,-477.953 1290.42,-515.265 1255,-537 1247.97,-541.316 1240.08,-544.928 1232.13,-547.927"/>
<polygon fill="midnightblue" stroke="midnightblue" points="1342.34,-457.777 1345.58,-447.69 1336.76,-453.555 1342.34,-457.777"/>
</g>
<!-- Node11 -->
<g id="node11" class="node"><title>Node11</title>
<g id="a_node11"><a xlink:href="../../de/dc7/class_nx_1_1_c_ngc_geom.html#a35cae1ad9bed8916c1328ee08c2fbd54" target="_top" xlink:title=" ">
<polygon fill="white" stroke="black" points="944,-546 944,-576 1051,-576 1051,-546 944,-546"/>
<text text-anchor="start" x="952" y="-564" font-family="Helvetica,sans-Serif" font-size="10.00">Nx::CNgcGeom::plat</text>
<text text-anchor="middle" x="997.5" y="-553" font-family="Helvetica,sans-Serif" font-size="10.00">_rotate_y</text>
</a>
</g>
</g>
<!-- Node10&#45;&gt;Node11 -->
<g id="edge10" class="edge"><title>Node10&#45;&gt;Node11</title>
<path fill="none" stroke="midnightblue" d="M1112.57,-529.774C1092.34,-535.311 1070.3,-541.344 1051.04,-546.619"/>
<polygon fill="midnightblue" stroke="midnightblue" points="1113.61,-533.118 1122.33,-527.101 1111.76,-526.366 1113.61,-533.118"/>
</g>
<!-- Node12 -->
<g id="node12" class="node"><title>Node12</title>
<g id="a_node12"><a xlink:href="../../de/dc7/class_nx_1_1_c_ngc_geom.html#a5184d28913c9d4a89c381b559d99dac8" target="_top" xlink:title=" ">
<polygon fill="white" stroke="black" points="944,-497 944,-527 1051,-527 1051,-497 944,-497"/>
<text text-anchor="start" x="952" y="-515" font-family="Helvetica,sans-Serif" font-size="10.00">Nx::CNgcGeom::plat</text>
<text text-anchor="middle" x="997.5" y="-504" font-family="Helvetica,sans-Serif" font-size="10.00">_set_scale</text>
</a>
</g>
</g>
<!-- Node10&#45;&gt;Node12 -->
<g id="edge11" class="edge"><title>Node10&#45;&gt;Node12</title>
<path fill="none" stroke="midnightblue" d="M1109.87,-512C1090.44,-512 1069.55,-512 1051.16,-512"/>
<polygon fill="midnightblue" stroke="midnightblue" points="1109.88,-515.5 1119.88,-512 1109.88,-508.5 1109.88,-515.5"/>
</g>
<!-- Node13 -->
<g id="node13" class="node"><title>Node13</title>
<g id="a_node13"><a xlink:href="../../de/dc7/class_nx_1_1_c_ngc_geom.html#adc11b6f35c9e5c01e220c8211103c337" target="_top" xlink:title=" ">
<polygon fill="white" stroke="black" points="944,-448 944,-478 1051,-478 1051,-448 944,-448"/>
<text text-anchor="start" x="952" y="-466" font-family="Helvetica,sans-Serif" font-size="10.00">Nx::CNgcGeom::plat</text>
<text text-anchor="middle" x="997.5" y="-455" font-family="Helvetica,sans-Serif" font-size="10.00">_set_world_position</text>
</a>
</g>
</g>
<!-- Node10&#45;&gt;Node13 -->
<g id="edge12" class="edge"><title>Node10&#45;&gt;Node13</title>
<path fill="none" stroke="midnightblue" d="M1112.57,-494.226C1092.34,-488.689 1070.3,-482.656 1051.04,-477.381"/>
<polygon fill="midnightblue" stroke="midnightblue" points="1111.76,-497.634 1122.33,-496.899 1113.61,-490.882 1111.76,-497.634"/>
</g>
<!-- Node15&#45;&gt;Node11 -->
<g id="edge15" class="edge"><title>Node15&#45;&gt;Node11</title>
<path fill="none" stroke="midnightblue" d="M1115.41,-379.428C1110.44,-382.331 1105.86,-385.816 1102,-390 1056.37,-439.417 1111.09,-487.087 1066,-537 1061.83,-541.615 1056.72,-545.342 1051.18,-548.353"/>
<polygon fill="midnightblue" stroke="midnightblue" points="1117.29,-382.399 1124.68,-374.808 1114.17,-376.133 1117.29,-382.399"/>
</g>
<!-- Node15&#45;&gt;Node12 -->
<g id="edge16" class="edge"><title>Node15&#45;&gt;Node12</title>
<path fill="none" stroke="midnightblue" d="M1115.66,-380.026C1110.68,-382.805 1106.03,-386.098 1102,-390 1068.66,-422.277 1098.98,-455.361 1066,-488 1061.67,-492.287 1056.52,-495.812 1051.03,-498.71"/>
<polygon fill="midnightblue" stroke="midnightblue" points="1117.42,-383.062 1124.9,-375.558 1114.37,-376.76 1117.42,-383.062"/>
</g>
<!-- Node15&#45;&gt;Node13 -->
<g id="edge17" class="edge"><title>Node15&#45;&gt;Node13</title>
<path fill="none" stroke="midnightblue" d="M1115.58,-382.197C1110.82,-384.501 1106.23,-387.092 1102,-390 1081.18,-404.317 1086.18,-418.801 1066,-434 1058.77,-439.447 1050.35,-444.104 1041.97,-447.989"/>
<polygon fill="midnightblue" stroke="midnightblue" points="1117.15,-385.333 1124.9,-378.111 1114.33,-378.923 1117.15,-385.333"/>
</g>
<!-- Node17&#45;&gt;Node11 -->
<g id="edge20" class="edge"><title>Node17&#45;&gt;Node11</title>
<path fill="none" stroke="midnightblue" d="M1114.76,-561C1093.99,-561 1071.1,-561 1051.17,-561"/>
<polygon fill="midnightblue" stroke="midnightblue" points="1114.76,-564.5 1124.76,-561 1114.76,-557.5 1114.76,-564.5"/>
</g>
<!-- Node17&#45;&gt;Node12 -->
<g id="edge21" class="edge"><title>Node17&#45;&gt;Node12</title>
<path fill="none" stroke="midnightblue" d="M1115.04,-543.903C1094.2,-538.197 1071.19,-531.9 1051.17,-526.418"/>
<polygon fill="midnightblue" stroke="midnightblue" points="1114.19,-547.299 1124.76,-546.563 1116.04,-540.547 1114.19,-547.299"/>
</g>
<!-- Node17&#45;&gt;Node13 -->
<g id="edge22" class="edge"><title>Node17&#45;&gt;Node13</title>
<path fill="none" stroke="midnightblue" d="M1115.42,-544.905C1110.69,-542.602 1106.15,-539.981 1102,-537 1080.04,-521.244 1087.58,-504.267 1066,-488 1060.91,-484.164 1055.17,-480.864 1049.24,-478.038"/>
<polygon fill="midnightblue" stroke="midnightblue" points="1114.12,-548.156 1124.68,-548.953 1116.92,-541.742 1114.12,-548.156"/>
</g>
<!-- Node19 -->
<g id="node19" class="node"><title>Node19</title>
<g id="a_node19"><a xlink:href="../../d0/d5c/class_ed_1_1_c_park_manager.html#a897030eed0d8e64a5af4d363405f77be" target="_top" xlink:title=" ">
<polygon fill="white" stroke="black" points="1102,-262 1102,-292 1255,-292 1255,-262 1102,-262"/>
<text text-anchor="start" x="1110" y="-280" font-family="Helvetica,sans-Serif" font-size="10.00">Ed::CParkManager::generate</text>
<text text-anchor="middle" x="1178.5" y="-269" font-family="Helvetica,sans-Serif" font-size="10.00">_floor_pieces_from_height_map</text>
</a>
</g>
</g>
<!-- Node18&#45;&gt;Node19 -->
<g id="edge24" class="edge"><title>Node18&#45;&gt;Node19</title>
<path fill="none" stroke="midnightblue" d="M1306.36,-309.266C1285.54,-303.969 1260.69,-297.65 1238.53,-292.013"/>
<polygon fill="midnightblue" stroke="midnightblue" points="1305.68,-312.703 1316.23,-311.776 1307.4,-305.919 1305.68,-312.703"/>
</g>
<!-- Node34 -->
<g id="node34" class="node"><title>Node34</title>
<g id="a_node34"><a xlink:href="../../dc/dd3/class_mdl_1_1_front_end.html#a2909c78542c4a9a518d5025f2ed312de" target="_top" xlink:title=" ">
<polygon fill="white" stroke="black" points="1122,-311.5 1122,-330.5 1235,-330.5 1235,-311.5 1122,-311.5"/>
<text text-anchor="middle" x="1178.5" y="-318.5" font-family="Helvetica,sans-Serif" font-size="10.00">Mdl::FrontEnd::update</text>
</a>
</g>
</g>
<!-- Node18&#45;&gt;Node34 -->
<g id="edge40" class="edge"><title>Node18&#45;&gt;Node34</title>
<path fill="none" stroke="midnightblue" d="M1306.21,-321C1284.35,-321 1258.08,-321 1235.14,-321"/>
<polygon fill="midnightblue" stroke="midnightblue" points="1306.23,-324.5 1316.23,-321 1306.23,-317.5 1306.23,-324.5"/>
</g>
<!-- Node20 -->
<g id="node20" class="node"><title>Node20</title>
<g id="a_node20"><a xlink:href="../../d0/d5c/class_ed_1_1_c_park_manager.html#ae25f8da3eb72427f1321dc50d4d90e15" target="_top" xlink:title=" ">
<polygon fill="white" stroke="black" points="929,-394 929,-424 1066,-424 1066,-394 929,-394"/>
<text text-anchor="start" x="937" y="-412" font-family="Helvetica,sans-Serif" font-size="10.00">Ed::CParkManager::Rebuild</text>
<text text-anchor="middle" x="997.5" y="-401" font-family="Helvetica,sans-Serif" font-size="10.00">Floor</text>
</a>
</g>
</g>
<!-- Node19&#45;&gt;Node20 -->
<g id="edge25" class="edge"><title>Node19&#45;&gt;Node20</title>
<path fill="none" stroke="midnightblue" d="M1112.47,-296.192C1108.84,-297.978 1105.32,-299.911 1102,-302 1061.95,-327.159 1026.27,-371.026 1009.18,-393.998"/>
<polygon fill="midnightblue" stroke="midnightblue" points="1113.98,-299.349 1121.66,-292.049 1111.11,-292.967 1113.98,-299.349"/>
</g>
<!-- Node26 -->
<g id="node26" class="node"><title>Node26</title>
<g id="a_node26"><a xlink:href="../../d0/d5c/class_ed_1_1_c_park_manager.html#a99f4c81a0f4c7285d6667c7480d732ba" target="_top" xlink:title=" ">
<polygon fill="white" stroke="black" points="929,-262 929,-292 1066,-292 1066,-262 929,-262"/>
<text text-anchor="start" x="937" y="-280" font-family="Helvetica,sans-Serif" font-size="10.00">Ed::CParkManager::Rebuild</text>
<text text-anchor="middle" x="997.5" y="-269" font-family="Helvetica,sans-Serif" font-size="10.00">WholePark</text>
</a>
</g>
</g>
<!-- Node19&#45;&gt;Node26 -->
<g id="edge31" class="edge"><title>Node19&#45;&gt;Node26</title>
<path fill="none" stroke="midnightblue" d="M1091.8,-277C1083.22,-277 1074.58,-277 1066.21,-277"/>
<polygon fill="midnightblue" stroke="midnightblue" points="1091.85,-280.5 1101.85,-277 1091.85,-273.5 1091.85,-280.5"/>
</g>
<!-- Node21 -->
<g id="node21" class="node"><title>Node21</title>
<g id="a_node21"><a xlink:href="../../d0/d5c/class_ed_1_1_c_park_manager.html#af3606842ce6881d602a97a4b940f4db3" target="_top" xlink:title=" ">
<polygon fill="white" stroke="black" points="748,-492 748,-522 886,-522 886,-492 748,-492"/>
<text text-anchor="start" x="756" y="-510" font-family="Helvetica,sans-Serif" font-size="10.00">Ed::CParkManager::Change</text>
<text text-anchor="middle" x="817" y="-499" font-family="Helvetica,sans-Serif" font-size="10.00">FloorHeight</text>
</a>
</g>
</g>
<!-- Node20&#45;&gt;Node21 -->
<g id="edge26" class="edge"><title>Node20&#45;&gt;Node21</title>
<path fill="none" stroke="midnightblue" d="M945.349,-428.607C939.602,-431.707 934.018,-435.172 929,-439 908.911,-454.324 913.891,-468.788 893,-483 888.026,-486.384 882.547,-489.313 876.882,-491.844"/>
<polygon fill="midnightblue" stroke="midnightblue" points="947.087,-431.65 954.454,-424.036 943.947,-425.394 947.087,-431.65"/>
</g>
<!-- Node22 -->
<g id="node22" class="node"><title>Node22</title>
<g id="a_node22"><a xlink:href="../../d0/d5c/class_ed_1_1_c_park_manager.html#ade3a39b0d9543b7a036317bc25214e51" target="_top" xlink:title=" ">
<polygon fill="white" stroke="black" points="747.5,-443 747.5,-473 886.5,-473 886.5,-443 747.5,-443"/>
<text text-anchor="start" x="755.5" y="-461" font-family="Helvetica,sans-Serif" font-size="10.00">Ed::CParkManager::Destroy</text>
<text text-anchor="middle" x="817" y="-450" font-family="Helvetica,sans-Serif" font-size="10.00">MetasInArea</text>
</a>
</g>
</g>
<!-- Node20&#45;&gt;Node22 -->
<g id="edge27" class="edge"><title>Node20&#45;&gt;Node22</title>
<path fill="none" stroke="midnightblue" d="M931.58,-426.821C912.307,-432.112 891.396,-437.852 872.831,-442.948"/>
<polygon fill="midnightblue" stroke="midnightblue" points="932.771,-430.124 941.488,-424.101 930.918,-423.374 932.771,-430.124"/>
</g>
<!-- Node23 -->
<g id="node23" class="node"><title>Node23</title>
<g id="a_node23"><a xlink:href="../../d0/d5c/class_ed_1_1_c_park_manager.html#a2c07eca44d2c7c8cbf9983734f760677" target="_top" xlink:title=" ">
<polygon fill="white" stroke="black" points="741,-394 741,-424 893,-424 893,-394 741,-394"/>
<text text-anchor="start" x="749" y="-412" font-family="Helvetica,sans-Serif" font-size="10.00">Ed::CParkManager::ResetFloor</text>
<text text-anchor="middle" x="817" y="-401" font-family="Helvetica,sans-Serif" font-size="10.00">Heights</text>
</a>
</g>
</g>
<!-- Node20&#45;&gt;Node23 -->
<g id="edge28" class="edge"><title>Node20&#45;&gt;Node23</title>
<path fill="none" stroke="midnightblue" d="M918.561,-409C910.125,-409 901.551,-409 893.149,-409"/>
<polygon fill="midnightblue" stroke="midnightblue" points="918.762,-412.5 928.762,-409 918.762,-405.5 918.762,-412.5"/>
</g>
<!-- Node24 -->
<g id="node24" class="node"><title>Node24</title>
<g id="a_node24"><a xlink:href="../../d2/d84/namespace_ed.html#a18e01a46dde64d90411ab5c2e68344ad" target="_top" xlink:title=" ">
<polygon fill="white" stroke="black" points="774.5,-355.5 774.5,-374.5 859.5,-374.5 859.5,-355.5 774.5,-355.5"/>
<text text-anchor="middle" x="817" y="-362.5" font-family="Helvetica,sans-Serif" font-size="10.00">Ed::ResizePark</text>
</a>
</g>
</g>
<!-- Node20&#45;&gt;Node24 -->
<g id="edge29" class="edge"><title>Node20&#45;&gt;Node24</title>
<path fill="none" stroke="midnightblue" d="M925.611,-391.526C902.072,-385.724 876.753,-379.482 856.59,-374.512"/>
<polygon fill="midnightblue" stroke="midnightblue" points="925.023,-394.986 935.57,-393.981 926.698,-388.189 925.023,-394.986"/>
</g>
<!-- Node25 -->
<g id="node25" class="node"><title>Node25</title>
<g id="a_node25"><a xlink:href="../../d2/d84/namespace_ed.html#ab4c4bf774b1e68db92ab0e79d634bf57" target="_top" xlink:title=" ">
<polygon fill="white" stroke="black" points="575,-355.5 575,-374.5 685,-374.5 685,-355.5 575,-355.5"/>
<text text-anchor="middle" x="630" y="-362.5" font-family="Helvetica,sans-Serif" font-size="10.00">Ed::ScriptResizePark</text>
</a>
</g>
</g>
<!-- Node24&#45;&gt;Node25 -->
<g id="edge30" class="edge"><title>Node24&#45;&gt;Node25</title>
<path fill="none" stroke="midnightblue" d="M764.224,-365C739.533,-365 710.005,-365 685.03,-365"/>
<polygon fill="midnightblue" stroke="midnightblue" points="764.482,-368.5 774.482,-365 764.482,-361.5 764.482,-368.5"/>
</g>
<!-- Node27 -->
<g id="node27" class="node"><title>Node27</title>
<g id="a_node27"><a xlink:href="../../d8/d13/class_ed_1_1_c_park_editor.html#a960413265bc65b3f6ca5d6288ae4c8bd" target="_top" xlink:title=" ">
<polygon fill="white" stroke="black" points="179,-254.5 179,-273.5 325,-273.5 325,-254.5 179,-254.5"/>
<text text-anchor="middle" x="252" y="-261.5" font-family="Helvetica,sans-Serif" font-size="10.00">Ed::CParkEditor::AccessDisk</text>
</a>
</g>
</g>
<!-- Node26&#45;&gt;Node27 -->
<g id="edge32" class="edge"><title>Node26&#45;&gt;Node27</title>
<path fill="none" stroke="midnightblue" d="M918.719,-261.158C910.072,-259.863 901.369,-258.762 893,-258 687.729,-239.315 443.903,-250.859 325.176,-258.634"/>
<polygon fill="midnightblue" stroke="midnightblue" points="918.397,-264.65 928.821,-262.757 919.492,-257.736 918.397,-264.65"/>
</g>
<!-- Node30 -->
<g id="node30" class="node"><title>Node30</title>
<g id="a_node30"><a xlink:href="../../d0/d5c/class_ed_1_1_c_park_manager.html#a129890ee1132f04f2c98e6777431e2a4" target="_top" xlink:title=" ">
<polygon fill="white" stroke="black" points="747,-267.5 747,-286.5 887,-286.5 887,-267.5 747,-267.5"/>
<text text-anchor="middle" x="817" y="-274.5" font-family="Helvetica,sans-Serif" font-size="10.00">Ed::CParkManager::Initialize</text>
</a>
</g>
</g>
<!-- Node26&#45;&gt;Node30 -->
<g id="edge35" class="edge"><title>Node26&#45;&gt;Node30</title>
<path fill="none" stroke="midnightblue" d="M918.443,-277C908.033,-277 897.417,-277 887.173,-277"/>
<polygon fill="midnightblue" stroke="midnightblue" points="918.762,-280.5 928.762,-277 918.762,-273.5 918.762,-280.5"/>
</g>
<!-- Node31 -->
<g id="node31" class="node"><title>Node31</title>
<g id="a_node31"><a xlink:href="../../d8/d13/class_ed_1_1_c_park_editor.html#a7d21742d7c45dad9428d67cbcdeccd02" target="_top" xlink:title=" ">
<polygon fill="white" stroke="black" points="742.5,-306 742.5,-336 891.5,-336 891.5,-306 742.5,-306"/>
<text text-anchor="start" x="750.5" y="-324" font-family="Helvetica,sans-Serif" font-size="10.00">Ed::CParkEditor::PostMemory</text>
<text text-anchor="middle" x="817" y="-313" font-family="Helvetica,sans-Serif" font-size="10.00">CardLoad</text>
</a>
</g>
</g>
<!-- Node26&#45;&gt;Node31 -->
<g id="edge36" class="edge"><title>Node26&#45;&gt;Node31</title>
<path fill="none" stroke="midnightblue" d="M925.565,-294.485C910.141,-298.287 893.956,-302.277 878.959,-305.974"/>
<polygon fill="midnightblue" stroke="midnightblue" points="926.698,-297.811 935.57,-292.019 925.023,-291.014 926.698,-297.811"/>
</g>
<!-- Node28 -->
<g id="node28" class="node"><title>Node28</title>
<g id="a_node28"><a xlink:href="../../d2/d84/namespace_ed.html#ad60f3a0d186b2da60f26277074f39c2d" target="_top" xlink:title=" ">
<polygon fill="white" stroke="black" points="0,-273.5 0,-292.5 143,-292.5 143,-273.5 0,-273.5"/>
<text text-anchor="middle" x="71.5" y="-280.5" font-family="Helvetica,sans-Serif" font-size="10.00">Ed::ScriptLoadParkFromDisk</text>
</a>
</g>
</g>
<!-- Node27&#45;&gt;Node28 -->
<g id="edge33" class="edge"><title>Node27&#45;&gt;Node28</title>
<path fill="none" stroke="midnightblue" d="M168.872,-272.742C160.269,-273.658 151.577,-274.583 143.118,-275.483"/>
<polygon fill="midnightblue" stroke="midnightblue" points="169.338,-276.212 178.912,-271.673 168.597,-269.251 169.338,-276.212"/>
</g>
<!-- Node29 -->
<g id="node29" class="node"><title>Node29</title>
<g id="a_node29"><a xlink:href="../../d2/d84/namespace_ed.html#a16094dc8a2ec4512d21b7a524c913812" target="_top" xlink:title=" ">
<polygon fill="white" stroke="black" points="6,-235.5 6,-254.5 137,-254.5 137,-235.5 6,-235.5"/>
<text text-anchor="middle" x="71.5" y="-242.5" font-family="Helvetica,sans-Serif" font-size="10.00">Ed::ScriptSaveParkToDisk</text>
</a>
</g>
</g>
<!-- Node27&#45;&gt;Node29 -->
<g id="edge34" class="edge"><title>Node27&#45;&gt;Node29</title>
<path fill="none" stroke="midnightblue" d="M168.778,-255.248C158.145,-254.116 147.378,-252.97 137.086,-251.875"/>
<polygon fill="midnightblue" stroke="midnightblue" points="168.597,-258.749 178.912,-256.327 169.338,-251.788 168.597,-258.749"/>
</g>
<!-- Node32 -->
<g id="node32" class="node"><title>Node32</title>
<g id="a_node32"><a xlink:href="../../d0/d5c/class_ed_1_1_c_park_manager.html#af06ffb35bd29d3823932e27fe231c7ea" target="_top" xlink:title=" ">
<polygon fill="white" stroke="black" points="555,-287 555,-317 705,-317 705,-287 555,-287"/>
<text text-anchor="start" x="563" y="-305" font-family="Helvetica,sans-Serif" font-size="10.00">Ed::CParkManager::ReadFrom</text>
<text text-anchor="middle" x="630" y="-294" font-family="Helvetica,sans-Serif" font-size="10.00">Structure</text>
</a>
</g>
</g>
<!-- Node31&#45;&gt;Node32 -->
<g id="edge37" class="edge"><title>Node31&#45;&gt;Node32</title>
<path fill="none" stroke="midnightblue" d="M732.266,-312.4C723.275,-311.477 714.172,-310.542 705.302,-309.631"/>
<polygon fill="midnightblue" stroke="midnightblue" points="732.046,-315.896 742.352,-313.436 732.761,-308.933 732.046,-315.896"/>
</g>
<!-- Node33 -->
<g id="node33" class="node"><title>Node33</title>
<g id="a_node33"><a xlink:href="../../d0/d5c/class_ed_1_1_c_park_manager.html#aab29f1a394b0f9b7aeb1a4bd2a969efd" target="_top" xlink:title=" ">
<polygon fill="white" stroke="black" points="361,-279.5 361,-298.5 519,-298.5 519,-279.5 361,-279.5"/>
<text text-anchor="middle" x="440" y="-286.5" font-family="Helvetica,sans-Serif" font-size="10.00">Ed::CParkManager::AccessDisk</text>
</a>
</g>
</g>
<!-- Node32&#45;&gt;Node33 -->
<g id="edge38" class="edge"><title>Node32&#45;&gt;Node33</title>
<path fill="none" stroke="midnightblue" d="M544.719,-296.172C536.259,-295.587 527.693,-294.995 519.299,-294.414"/>
<polygon fill="midnightblue" stroke="midnightblue" points="544.75,-299.682 554.967,-296.881 545.233,-292.699 544.75,-299.682"/>
</g>
<!-- Node33&#45;&gt;Node27 -->
<g id="edge39" class="edge"><title>Node33&#45;&gt;Node27</title>
<path fill="none" stroke="midnightblue" d="M358.213,-278.141C346.81,-276.609 335.159,-275.043 323.96,-273.538"/>
<polygon fill="midnightblue" stroke="midnightblue" points="357.774,-281.614 368.151,-279.477 358.706,-274.676 357.774,-281.614"/>
</g>
<!-- Node35&#45;&gt;Node3 -->
<g id="edge52" class="edge"><title>Node35&#45;&gt;Node3</title>
<path fill="none" stroke="midnightblue" d="M1857.21,-248.725C1829.9,-254.38 1796.73,-261.25 1770.5,-266.68"/>
<polygon fill="midnightblue" stroke="midnightblue" points="1858.28,-252.078 1867.36,-246.623 1856.86,-245.223 1858.28,-252.078"/>
</g>
<!-- Node36 -->
<g id="node36" class="node"><title>Node36</title>
<g id="a_node36"><a xlink:href="../../de/d1e/p__dvd_8cpp.html#af915797811ad0d00496596d2fa55708c" target="_top" xlink:title=" ">
<polygon fill="white" stroke="black" points="1685.5,-219.5 1685.5,-238.5 1763.5,-238.5 1763.5,-219.5 1685.5,-219.5"/>
<text text-anchor="middle" x="1724.5" y="-226.5" font-family="Helvetica,sans-Serif" font-size="10.00">dvd_read_safe</text>
</a>
</g>
</g>
<!-- Node35&#45;&gt;Node36 -->
<g id="edge42" class="edge"><title>Node35&#45;&gt;Node36</title>
<path fill="none" stroke="midnightblue" d="M1857.15,-235.457C1827.37,-233.996 1790.63,-232.194 1763.54,-230.866"/>
<polygon fill="midnightblue" stroke="midnightblue" points="1857.2,-238.964 1867.36,-235.958 1857.54,-231.972 1857.2,-238.964"/>
</g>
<!-- Node37 -->
<g id="node37" class="node"><title>Node37</title>
<g id="a_node37"><a xlink:href="../../de/d1e/p__dvd_8cpp.html#ad747fd8ccd45f0a07b9c17a1e400e6e0" target="_top" xlink:title=" ">
<polygon fill="white" stroke="black" points="1477,-210.5 1477,-229.5 1596,-229.5 1596,-210.5 1477,-210.5"/>
<text text-anchor="middle" x="1536.5" y="-217.5" font-family="Helvetica,sans-Serif" font-size="10.00">dvd_file_read_anywhere</text>
</a>
</g>
</g>
<!-- Node36&#45;&gt;Node37 -->
<g id="edge43" class="edge"><title>Node36&#45;&gt;Node37</title>
<path fill="none" stroke="midnightblue" d="M1675.38,-226.672C1651.16,-225.5 1621.59,-224.069 1596.06,-222.833"/>
<polygon fill="midnightblue" stroke="midnightblue" points="1675.25,-230.17 1685.41,-227.157 1675.59,-223.178 1675.25,-230.17"/>
</g>
<!-- Node38 -->
<g id="node38" class="node"><title>Node38</title>
<g id="a_node38"><a xlink:href="../../de/d1e/p__dvd_8cpp.html#a5588e22b628da0d382b2f568c0d37937" target="_top" xlink:title=" ">
<polygon fill="white" stroke="black" points="1306.5,-172.5 1306.5,-191.5 1400.5,-191.5 1400.5,-172.5 1306.5,-172.5"/>
<text text-anchor="middle" x="1353.5" y="-179.5" font-family="Helvetica,sans-Serif" font-size="10.00">dvd_file_fill_cache</text>
</a>
</g>
</g>
<!-- Node37&#45;&gt;Node38 -->
<g id="edge44" class="edge"><title>Node37&#45;&gt;Node38</title>
<path fill="none" stroke="midnightblue" d="M1479.86,-208.319C1454.19,-202.93 1424.11,-196.614 1399.85,-191.52"/>
<polygon fill="midnightblue" stroke="midnightblue" points="1479.32,-211.782 1489.83,-210.411 1480.76,-204.931 1479.32,-211.782"/>
</g>
<!-- Node39 -->
<g id="node39" class="node"><title>Node39</title>
<g id="a_node39"><a xlink:href="../../de/d1e/p__dvd_8cpp.html#a2d0cba811e59739915f30ca17445dfb9" target="_top" xlink:title=" ">
<polygon fill="white" stroke="black" points="1142.5,-172.5 1142.5,-191.5 1214.5,-191.5 1214.5,-172.5 1142.5,-172.5"/>
<text text-anchor="middle" x="1178.5" y="-179.5" font-family="Helvetica,sans-Serif" font-size="10.00">dvd_file_read</text>
</a>
</g>
</g>
<!-- Node37&#45;&gt;Node39 -->
<g id="edge51" class="edge"><title>Node37&#45;&gt;Node39</title>
<path fill="none" stroke="midnightblue" d="M1466.38,-216.315C1417.32,-213.288 1349.97,-208.301 1291,-201 1265.28,-197.815 1236.44,-192.864 1214.53,-188.813"/>
<polygon fill="midnightblue" stroke="midnightblue" points="1466.37,-219.821 1476.56,-216.931 1466.79,-212.833 1466.37,-219.821"/>
</g>
<!-- Node38&#45;&gt;Node39 -->
<g id="edge45" class="edge"><title>Node38&#45;&gt;Node39</title>
<path fill="none" stroke="midnightblue" d="M1296.11,-182C1269.31,-182 1238.11,-182 1214.73,-182"/>
<polygon fill="midnightblue" stroke="midnightblue" points="1296.14,-185.5 1306.14,-182 1296.14,-178.5 1296.14,-185.5"/>
</g>
<!-- Node40 -->
<g id="node40" class="node"><title>Node40</title>
<g id="a_node40"><a xlink:href="../../de/d1e/p__dvd_8cpp.html#adccca3cc52084b81293785dd7701205a" target="_top" xlink:title=" ">
<polygon fill="white" stroke="black" points="944,-172.5 944,-191.5 1051,-191.5 1051,-172.5 944,-172.5"/>
<text text-anchor="middle" x="997.5" y="-179.5" font-family="Helvetica,sans-Serif" font-size="10.00">dvd_file_getcharacter</text>
</a>
</g>
</g>
<!-- Node39&#45;&gt;Node40 -->
<g id="edge46" class="edge"><title>Node39&#45;&gt;Node40</title>
<path fill="none" stroke="midnightblue" d="M1131.97,-182C1107.32,-182 1076.76,-182 1051.1,-182"/>
<polygon fill="midnightblue" stroke="midnightblue" points="1132.14,-185.5 1142.14,-182 1132.14,-178.5 1132.14,-185.5"/>
</g>
<!-- Node42 -->
<g id="node42" class="node"><title>Node42</title>
<g id="a_node42"><a xlink:href="../../dd/d46/p__dvd_8h.html#a3f7e754a2f99a517f16bc88a00e329d1" target="_top" xlink:title=" ">
<polygon fill="white" stroke="black" points="587,-153.5 587,-172.5 673,-172.5 673,-153.5 587,-153.5"/>
<text text-anchor="middle" x="630" y="-160.5" font-family="Helvetica,sans-Serif" font-size="10.00">DVDFileAccess</text>
</a>
</g>
</g>
<!-- Node39&#45;&gt;Node42 -->
<g id="edge50" class="edge"><title>Node39&#45;&gt;Node42</title>
<path fill="none" stroke="midnightblue" d="M1132.42,-172.538C1112.21,-168.756 1088.01,-164.862 1066,-163 922.269,-150.841 750.866,-156.826 673.092,-160.648"/>
<polygon fill="midnightblue" stroke="midnightblue" points="1131.81,-175.985 1142.29,-174.434 1133.13,-169.11 1131.81,-175.985"/>
</g>
<!-- Node41 -->
<g id="node41" class="node"><title>Node41</title>
<g id="a_node41"><a xlink:href="../../de/d1e/p__dvd_8cpp.html#a7843ac1c76a3a92251438fb42a65669c" target="_top" xlink:title=" ">
<polygon fill="white" stroke="black" points="781,-191.5 781,-210.5 853,-210.5 853,-191.5 781,-191.5"/>
<text text-anchor="middle" x="817" y="-198.5" font-family="Helvetica,sans-Serif" font-size="10.00">dvd_file_gets</text>
</a>
</g>
</g>
<!-- Node40&#45;&gt;Node41 -->
<g id="edge47" class="edge"><title>Node40&#45;&gt;Node41</title>
<path fill="none" stroke="midnightblue" d="M933.727,-188.682C906.64,-191.565 875.975,-194.829 853.02,-197.272"/>
<polygon fill="midnightblue" stroke="midnightblue" points="934.336,-192.137 943.91,-187.598 933.595,-185.176 934.336,-192.137"/>
</g>
<!-- Node40&#45;&gt;Node42 -->
<g id="edge49" class="edge"><title>Node40&#45;&gt;Node42</title>
<path fill="none" stroke="midnightblue" d="M933.562,-178.728C859.1,-174.857 737.19,-168.52 673.217,-165.195"/>
<polygon fill="midnightblue" stroke="midnightblue" points="933.575,-182.234 943.744,-179.258 933.939,-175.243 933.575,-182.234"/>
</g>
<!-- Node41&#45;&gt;Node42 -->
<g id="edge48" class="edge"><title>Node41&#45;&gt;Node42</title>
<path fill="none" stroke="midnightblue" d="M770.651,-191.685C740.92,-185.578 702.318,-177.649 673.236,-171.676"/>
<polygon fill="midnightblue" stroke="midnightblue" points="770.268,-195.179 780.767,-193.763 771.676,-188.322 770.268,-195.179"/>
</g>
<!-- Node45 -->
<g id="node45" class="node"><title>Node45</title>
<g id="a_node45"><a xlink:href="../../db/d54/namespace_c_funcs.html#ac969d614da41cd43769bfdfbe3b61e14" target="_top" xlink:title=" ">
<polygon fill="white" stroke="black" points="1657,-155.5 1657,-174.5 1792,-174.5 1792,-155.5 1657,-155.5"/>
<text text-anchor="middle" x="1724.5" y="-162.5" font-family="Helvetica,sans-Serif" font-size="10.00">CFuncs::s_insert_ngc_icon</text>
</a>
</g>
</g>
<!-- Node44&#45;&gt;Node45 -->
<g id="edge55" class="edge"><title>Node44&#45;&gt;Node45</title>
<path fill="none" stroke="midnightblue" d="M1851.98,-162.932C1833.07,-163.241 1811.85,-163.588 1792.27,-163.908"/>
<polygon fill="midnightblue" stroke="midnightblue" points="1852.28,-166.428 1862.22,-162.765 1852.16,-159.429 1852.28,-166.428"/>
</g>
<!-- Node46 -->
<g id="node46" class="node"><title>Node46</title>
<g id="a_node46"><a xlink:href="../../db/d54/namespace_c_funcs.html#a08e80d83b5e7ea1b07626638932a8377" target="_top" xlink:title=" ">
<polygon fill="white" stroke="black" points="1452,-155.5 1452,-174.5 1621,-174.5 1621,-155.5 1452,-155.5"/>
<text text-anchor="middle" x="1536.5" y="-162.5" font-family="Helvetica,sans-Serif" font-size="10.00">CFuncs::ScriptSaveToMemoryCard</text>
</a>
</g>
</g>
<!-- Node45&#45;&gt;Node46 -->
<g id="edge56" class="edge"><title>Node45&#45;&gt;Node46</title>
<path fill="none" stroke="midnightblue" d="M1646.71,-165C1638.29,-165 1629.68,-165 1621.18,-165"/>
<polygon fill="midnightblue" stroke="midnightblue" points="1646.88,-168.5 1656.88,-165 1646.88,-161.5 1646.88,-168.5"/>
</g>
<!-- Node48 -->
<g id="node48" class="node"><title>Node48</title>
<g id="a_node48"><a xlink:href="../../d2/d8e/class_game_net_1_1_manager.html#a9f5fc555427945820099e67bd1fd1ea9" target="_top" xlink:title=" ">
<polygon fill="white" stroke="black" points="1658,-106 1658,-136 1791,-136 1791,-106 1658,-106"/>
<text text-anchor="start" x="1666" y="-124" font-family="Helvetica,sans-Serif" font-size="10.00">GameNet::Manager::Script</text>
<text text-anchor="middle" x="1724.5" y="-113" font-family="Helvetica,sans-Serif" font-size="10.00">AuthenticateClient</text>
</a>
</g>
</g>
<!-- Node47&#45;&gt;Node48 -->
<g id="edge58" class="edge"><title>Node47&#45;&gt;Node48</title>
<path fill="none" stroke="midnightblue" d="M1861.7,-123.227C1840.23,-122.876 1814.47,-122.455 1791.17,-122.074"/>
<polygon fill="midnightblue" stroke="midnightblue" points="1861.81,-126.729 1871.87,-123.393 1861.92,-119.73 1861.81,-126.729"/>
</g>
</g>
</svg>
