<?xml version="1.0" encoding="UTF-8" standalone="no"?>
<!DOCTYPE svg PUBLIC "-//W3C//DTD SVG 1.1//EN"
 "http://www.w3.org/Graphics/SVG/1.1/DTD/svg11.dtd">
<!-- Generated by graphviz version 2.38.0 (20140413.2041)
 -->
<!-- Title: Prefs::Preferences::GetPreferenceString Pages: 1 -->
<svg width="283pt" height="88pt"
 viewBox="0.00 0.00 283.00 88.00" xmlns="http://www.w3.org/2000/svg" xmlns:xlink="http://www.w3.org/1999/xlink">
<g id="graph0" class="graph" transform="scale(1 1) rotate(0) translate(4 84)">
<title>Prefs::Preferences::GetPreferenceString</title>
<polygon fill="white" stroke="none" points="-4,4 -4,-84 279,-84 279,4 -4,4"/>
<!-- Node1 -->
<g id="node1" class="node"><title>Node1</title>
<g id="a_node1"><a xlink:title=" ">
<polygon fill="#bfbfbf" stroke="black" points="165,-24.5 165,-54.5 275,-54.5 275,-24.5 165,-24.5"/>
<text text-anchor="start" x="173" y="-42.5" font-family="Helvetica,sans-Serif" font-size="10.00">Prefs::Preferences</text>
<text text-anchor="middle" x="220" y="-31.5" font-family="Helvetica,sans-Serif" font-size="10.00">::GetPreferenceString</text>
</a>
</g>
</g>
<!-- Node2 -->
<g id="node2" class="node"><title>Node2</title>
<g id="a_node2"><a xlink:href="../../d7/d5d/class_game_net_1_1_lobby_man.html#aeadca11abc42a596fedf7d7e349aef61" target="_top" xlink:title=" ">
<polygon fill="white" stroke="black" points="0,-49.5 0,-79.5 129,-79.5 129,-49.5 0,-49.5"/>
<text text-anchor="start" x="8" y="-67.5" font-family="Helvetica,sans-Serif" font-size="10.00">GameNet::LobbyMan::</text>
<text text-anchor="middle" x="64.5" y="-56.5" font-family="Helvetica,sans-Serif" font-size="10.00">fill_prospective_buddy_list</text>
</a>
</g>
</g>
<!-- Node1&#45;&gt;Node2 -->
<g id="edge1" class="edge"><title>Node1&#45;&gt;Node2</title>
<path fill="none" stroke="midnightblue" d="M154.97,-49.9283C146.42,-51.3208 137.653,-52.7487 129.11,-54.1401"/>
<polygon fill="midnightblue" stroke="midnightblue" points="155.574,-53.3761 164.882,-48.3141 154.449,-46.4671 155.574,-53.3761"/>
</g>
<!-- Node3 -->
<g id="node3" class="node"><title>Node3</title>
<g id="a_node3"><a xlink:href="../../db/d54/namespace_c_funcs.html#ad04005d280decef34a36609abdfb8326" target="_top" xlink:title=" ">
<polygon fill="white" stroke="black" points="1.5,-0.5 1.5,-30.5 127.5,-30.5 127.5,-0.5 1.5,-0.5"/>
<text text-anchor="start" x="9.5" y="-18.5" font-family="Helvetica,sans-Serif" font-size="10.00">CFuncs::ScriptApplySplit</text>
<text text-anchor="middle" x="64.5" y="-7.5" font-family="Helvetica,sans-Serif" font-size="10.00">ScreenOptions</text>
</a>
</g>
</g>
<!-- Node1&#45;&gt;Node3 -->
<g id="edge2" class="edge"><title>Node1&#45;&gt;Node3</title>
<path fill="none" stroke="midnightblue" d="M154.812,-29.4641C145.779,-28.0518 136.507,-26.6021 127.516,-25.1963"/>
<polygon fill="midnightblue" stroke="midnightblue" points="154.461,-32.9517 164.882,-31.0385 155.542,-26.0357 154.461,-32.9517"/>
</g>
</g>
</svg>
