<?xml version="1.0" encoding="UTF-8" standalone="no"?>
<!DOCTYPE svg PUBLIC "-//W3C//DTD SVG 1.1//EN"
 "http://www.w3.org/Graphics/SVG/1.1/DTD/svg11.dtd">
<!-- Generated by graphviz version 2.38.0 (20140413.2041)
 -->
<!-- Title: Sfx::CWaveFile Pages: 1 -->
<svg width="190pt" height="128pt"
 viewBox="0.00 0.00 190.00 128.00" xmlns="http://www.w3.org/2000/svg" xmlns:xlink="http://www.w3.org/1999/xlink">
<g id="graph0" class="graph" transform="scale(1 1) rotate(0) translate(4 124)">
<title>Sfx::CWaveFile</title>
<polygon fill="white" stroke="none" points="-4,4 -4,-124 186,-124 186,4 -4,4"/>
<!-- Node1 -->
<g id="node1" class="node"><title>Node1</title>
<g id="a_node1"><a xlink:title=" ">
<polygon fill="#bfbfbf" stroke="black" points="1,-0.5 1,-19.5 84,-19.5 84,-0.5 1,-0.5"/>
<text text-anchor="middle" x="42.5" y="-7.5" font-family="Helvetica,sans-Serif" font-size="10.00">Sfx::CWaveFile</text>
</a>
</g>
</g>
<!-- Node2 -->
<g id="node2" class="node"><title>Node2</title>
<g id="a_node2"><a xlink:href="../../db/d00/class_sfx_1_1_c_riff_chunk.html" target="_top" xlink:title=" ">
<polygon fill="white" stroke="black" points="0,-100.5 0,-119.5 85,-119.5 85,-100.5 0,-100.5"/>
<text text-anchor="middle" x="42.5" y="-107.5" font-family="Helvetica,sans-Serif" font-size="10.00">Sfx::CRiffChunk</text>
</a>
</g>
</g>
<!-- Node2&#45;&gt;Node1 -->
<g id="edge1" class="edge"><title>Node2&#45;&gt;Node1</title>
<path fill="none" stroke="#9a32cd" stroke-dasharray="5,2" d="M42.5,-90.2203C42.5,-68.9514 42.5,-35.2197 42.5,-19.5374"/>
<polygon fill="#9a32cd" stroke="#9a32cd" points="39.0001,-90.3031 42.5,-100.303 46.0001,-90.3032 39.0001,-90.3031"/>
<text text-anchor="middle" x="81.5" y="-74" font-family="Helvetica,sans-Serif" font-size="10.00"> m_RiffChunk</text>
<text text-anchor="middle" x="81.5" y="-63" font-family="Helvetica,sans-Serif" font-size="10.00">m_DataChunk</text>
<text text-anchor="middle" x="81.5" y="-52" font-family="Helvetica,sans-Serif" font-size="10.00">m_FormatChunk</text>
<text text-anchor="middle" x="81.5" y="-41" font-family="Helvetica,sans-Serif" font-size="10.00">m_SamplerChunk</text>
</g>
<!-- Node2&#45;&gt;Node2 -->
<g id="edge2" class="edge"><title>Node2&#45;&gt;Node2</title>
<path fill="none" stroke="#9a32cd" stroke-dasharray="5,2" d="M95.3179,-117.408C100.038,-115.857 103,-113.387 103,-110 103,-104.58 95.4172,-101.51 85.1834,-100.79"/>
<polygon fill="#9a32cd" stroke="#9a32cd" points="94.4166,-114.014 85.1834,-119.21 95.6416,-120.906 94.4166,-114.014"/>
<text text-anchor="middle" x="142.5" y="-107.5" font-family="Helvetica,sans-Serif" font-size="10.00"> m_pParentChunk</text>
</g>
</g>
</svg>
