<?xml version="1.0" encoding="UTF-8" standalone="no"?>
<!DOCTYPE svg PUBLIC "-//W3C//DTD SVG 1.1//EN"
 "http://www.w3.org/Graphics/SVG/1.1/DTD/svg11.dtd">
<!-- Generated by graphviz version 2.38.0 (20140413.2041)
 -->
<!-- Title: Obj::CCompositeObject::InitFromStructure Pages: 1 -->
<svg width="1321pt" height="428pt"
 viewBox="0.00 0.00 1321.00 428.00" xmlns="http://www.w3.org/2000/svg" xmlns:xlink="http://www.w3.org/1999/xlink">
<g id="graph0" class="graph" transform="scale(1 1) rotate(0) translate(4 424)">
<title>Obj::CCompositeObject::InitFromStructure</title>
<polygon fill="white" stroke="none" points="-4,4 -4,-424 1317,-424 1317,4 -4,4"/>
<!-- Node1 -->
<g id="node1" class="node"><title>Node1</title>
<g id="a_node1"><a xlink:title=" ">
<polygon fill="#bfbfbf" stroke="black" points="0,-235 0,-265 119,-265 119,-235 0,-235"/>
<text text-anchor="start" x="8" y="-253" font-family="Helvetica,sans-Serif" font-size="10.00">Obj::CCompositeObject</text>
<text text-anchor="middle" x="59.5" y="-242" font-family="Helvetica,sans-Serif" font-size="10.00">::InitFromStructure</text>
</a>
</g>
</g>
<!-- Node2 -->
<g id="node2" class="node"><title>Node2</title>
<g id="a_node2"><a xlink:href="../../d1/d54/namespace_script.html#ae80ed69ea4edcbcbbbd4985a6efdcd6e" target="_top" xlink:title=" ">
<polygon fill="white" stroke="black" points="815,-240.5 815,-259.5 954,-259.5 954,-240.5 815,-240.5"/>
<text text-anchor="middle" x="884.5" y="-247.5" font-family="Helvetica,sans-Serif" font-size="10.00">Script::FindChecksumName</text>
</a>
</g>
</g>
<!-- Node1&#45;&gt;Node2 -->
<g id="edge1" class="edge"><title>Node1&#45;&gt;Node2</title>
<path fill="none" stroke="midnightblue" d="M76.1089,-265.086C120.876,-306.692 255.128,-420 389.5,-420 389.5,-420 389.5,-420 568,-420 667.676,-420 705.024,-410.804 779,-344 806.441,-319.219 786.647,-292.732 815,-269 817.029,-267.302 819.198,-265.755 821.47,-264.346"/>
<polygon fill="midnightblue" stroke="midnightblue" points="823.406,-267.284 830.664,-259.565 820.177,-261.073 823.406,-267.284"/>
</g>
<!-- Node6 -->
<g id="node6" class="node"><title>Node6</title>
<g id="a_node6"><a xlink:href="../../d2/df7/class_script_1_1_c_struct.html#aa39e6fe5fdf1d6c48136ae26a7ad511e" target="_top" xlink:title=" ">
<polygon fill="white" stroke="black" points="316,-296.5 316,-315.5 465,-315.5 465,-296.5 316,-296.5"/>
<text text-anchor="middle" x="390.5" y="-303.5" font-family="Helvetica,sans-Serif" font-size="10.00">Script::CStruct::GetChecksum</text>
</a>
</g>
</g>
<!-- Node1&#45;&gt;Node6 -->
<g id="edge5" class="edge"><title>Node1&#45;&gt;Node6</title>
<path fill="none" stroke="midnightblue" d="M119.155,-262.19C131.004,-264.541 143.387,-266.917 155,-269 208.196,-278.54 268.422,-288.015 314.519,-294.988"/>
<polygon fill="midnightblue" stroke="midnightblue" points="314.019,-298.452 324.429,-296.481 315.062,-291.53 314.019,-298.452"/>
</g>
<!-- Node10 -->
<g id="node10" class="node"><title>Node10</title>
<g id="a_node10"><a xlink:href="../../df/dde/class_obj_1_1_c_object.html#ad39f6409df17fb6ee459d1071258c645" target="_top" xlink:title=" ">
<polygon fill="white" stroke="black" points="165.5,-240.5 165.5,-259.5 269.5,-259.5 269.5,-240.5 165.5,-240.5"/>
<text text-anchor="middle" x="217.5" y="-247.5" font-family="Helvetica,sans-Serif" font-size="10.00">Obj::CObject::GetID</text>
</a>
</g>
</g>
<!-- Node1&#45;&gt;Node10 -->
<g id="edge12" class="edge"><title>Node1&#45;&gt;Node10</title>
<path fill="none" stroke="midnightblue" d="M119.032,-250C130.801,-250 143.202,-250 155.066,-250"/>
<polygon fill="midnightblue" stroke="midnightblue" points="155.325,-253.5 165.325,-250 155.325,-246.5 155.325,-253.5"/>
</g>
<!-- Node11 -->
<g id="node11" class="node"><title>Node11</title>
<g id="a_node11"><a xlink:href="../../de/dd2/namespace_skate_script.html#a5638e95247d626e24d46bfc5c7d7d068" target="_top" xlink:title=" ">
<polygon fill="white" stroke="black" points="155,-174.5 155,-193.5 280,-193.5 280,-174.5 155,-174.5"/>
<text text-anchor="middle" x="217.5" y="-181.5" font-family="Helvetica,sans-Serif" font-size="10.00">SkateScript::GetPosition</text>
</a>
</g>
</g>
<!-- Node1&#45;&gt;Node11 -->
<g id="edge13" class="edge"><title>Node1&#45;&gt;Node11</title>
<path fill="none" stroke="midnightblue" d="M96.2896,-234.858C122.931,-223.587 158.973,-208.338 184.627,-197.485"/>
<polygon fill="midnightblue" stroke="midnightblue" points="186.063,-200.678 193.909,-193.558 183.335,-194.231 186.063,-200.678"/>
</g>
<!-- Node18 -->
<g id="node18" class="node"><title>Node18</title>
<g id="a_node18"><a xlink:href="../../d0/d7e/class_obj_1_1_c_base_component.html#a2c708b557a93245c0c39931a03bac6c5" target="_top" xlink:title=" ">
<polygon fill="white" stroke="black" points="158.5,-39 158.5,-69 276.5,-69 276.5,-39 158.5,-39"/>
<text text-anchor="start" x="166.5" y="-57" font-family="Helvetica,sans-Serif" font-size="10.00">Obj::CBaseComponent</text>
<text text-anchor="middle" x="217.5" y="-46" font-family="Helvetica,sans-Serif" font-size="10.00">::RefreshFromStructure</text>
</a>
</g>
</g>
<!-- Node1&#45;&gt;Node18 -->
<g id="edge27" class="edge"><title>Node1&#45;&gt;Node18</title>
<path fill="none" stroke="midnightblue" d="M72.482,-234.946C99.5917,-200.885 165.783,-117.721 198.117,-77.096"/>
<polygon fill="midnightblue" stroke="midnightblue" points="200.988,-79.1095 204.477,-69.1056 195.511,-74.7503 200.988,-79.1095"/>
</g>
<!-- Node3 -->
<g id="node3" class="node"><title>Node3</title>
<g id="a_node3"><a xlink:href="../../d1/d54/namespace_script.html#a5cc52c4ff5ea5bb27681d819212dfdca" target="_top" xlink:title=" ">
<polygon fill="white" stroke="black" points="990,-259.5 990,-278.5 1153,-278.5 1153,-259.5 990,-259.5"/>
<text text-anchor="middle" x="1071.5" y="-266.5" font-family="Helvetica,sans-Serif" font-size="10.00">Script::FindChecksumNameNULL</text>
</a>
</g>
</g>
<!-- Node2&#45;&gt;Node3 -->
<g id="edge2" class="edge"><title>Node2&#45;&gt;Node3</title>
<path fill="none" stroke="midnightblue" d="M954.124,-257.048C962.476,-257.906 971.107,-258.792 979.717,-259.676"/>
<polygon fill="midnightblue" stroke="midnightblue" points="979.493,-263.172 989.798,-260.712 980.208,-256.208 979.493,-263.172"/>
</g>
<!-- Node5 -->
<g id="node5" class="node"><title>Node5</title>
<g id="a_node5"><a xlink:href="../../da/d37/namespace_dbg.html#ab406a8cc16de5046c7d9fd09c9de5e22" target="_top" xlink:title=" ">
<polygon fill="white" stroke="black" points="1038.5,-221.5 1038.5,-240.5 1104.5,-240.5 1104.5,-221.5 1038.5,-221.5"/>
<text text-anchor="middle" x="1071.5" y="-228.5" font-family="Helvetica,sans-Serif" font-size="10.00">Dbg::sprintf</text>
</a>
</g>
</g>
<!-- Node2&#45;&gt;Node5 -->
<g id="edge4" class="edge"><title>Node2&#45;&gt;Node5</title>
<path fill="none" stroke="midnightblue" d="M954.124,-242.952C978.98,-240.399 1006.31,-237.593 1028.23,-235.341"/>
<polygon fill="midnightblue" stroke="midnightblue" points="1028.62,-238.82 1038.21,-234.317 1027.9,-231.857 1028.62,-238.82"/>
</g>
<!-- Node4 -->
<g id="node4" class="node"><title>Node4</title>
<g id="a_node4"><a xlink:href="../../d0/d31/namespace_config.html#a709cc81780d49900157e3476b63aa25d" target="_top" xlink:title=" ">
<polygon fill="white" stroke="black" points="1189,-259.5 1189,-278.5 1313,-278.5 1313,-259.5 1189,-259.5"/>
<text text-anchor="middle" x="1251" y="-266.5" font-family="Helvetica,sans-Serif" font-size="10.00">Config::GotExtraMemory</text>
</a>
</g>
</g>
<!-- Node3&#45;&gt;Node4 -->
<g id="edge3" class="edge"><title>Node3&#45;&gt;Node4</title>
<path fill="none" stroke="midnightblue" d="M1153.2,-269C1161.73,-269 1170.36,-269 1178.77,-269"/>
<polygon fill="midnightblue" stroke="midnightblue" points="1178.9,-272.5 1188.9,-269 1178.9,-265.5 1178.9,-272.5"/>
</g>
<!-- Node6&#45;&gt;Node2 -->
<g id="edge6" class="edge"><title>Node6&#45;&gt;Node2</title>
<path fill="none" stroke="midnightblue" d="M412.781,-315.51C434.466,-324.641 469.319,-337.792 501,-343 623.937,-363.209 671.322,-369.669 779,-307 799.107,-295.298 795.064,-280.991 815,-269 818.629,-266.817 822.515,-264.879 826.526,-263.157"/>
<polygon fill="midnightblue" stroke="midnightblue" points="827.95,-266.36 836.044,-259.524 825.453,-259.82 827.95,-266.36"/>
</g>
<!-- Node6&#45;&gt;Node6 -->
<g id="edge7" class="edge"><title>Node6&#45;&gt;Node6</title>
<path fill="none" stroke="midnightblue" d="M363.99,-315.757C351.093,-324.565 359.93,-334 390.5,-334 411.039,-334 421.768,-329.741 422.686,-324.275"/>
<polygon fill="midnightblue" stroke="midnightblue" points="425.468,-322.138 417.01,-315.757 419.643,-326.02 425.468,-322.138"/>
</g>
<!-- Node7 -->
<g id="node7" class="node"><title>Node7</title>
<g id="a_node7"><a xlink:href="../../d1/d54/namespace_script.html#a0d003ee93577e31adb6597bce0002009" target="_top" xlink:title=" ">
<polygon fill="white" stroke="black" points="513.5,-296.5 513.5,-315.5 620.5,-315.5 620.5,-296.5 513.5,-296.5"/>
<text text-anchor="middle" x="567" y="-303.5" font-family="Helvetica,sans-Serif" font-size="10.00">Script::PrintContents</text>
</a>
</g>
</g>
<!-- Node6&#45;&gt;Node7 -->
<g id="edge8" class="edge"><title>Node6&#45;&gt;Node7</title>
<path fill="none" stroke="midnightblue" d="M465.251,-306C477.895,-306 490.928,-306 503.25,-306"/>
<polygon fill="midnightblue" stroke="midnightblue" points="503.41,-309.5 513.41,-306 503.41,-302.5 503.41,-309.5"/>
</g>
<!-- Node8 -->
<g id="node8" class="node"><title>Node8</title>
<g id="a_node8"><a xlink:href="../../d1/d54/namespace_script.html#a43181580ea5d38e4bf1aa19ccd5e9e85" target="_top" xlink:title=" ">
<polygon fill="white" stroke="black" points="683,-278.5 683,-297.5 765,-297.5 765,-278.5 683,-278.5"/>
<text text-anchor="middle" x="724" y="-285.5" font-family="Helvetica,sans-Serif" font-size="10.00">Script::Resolve</text>
</a>
</g>
</g>
<!-- Node6&#45;&gt;Node8 -->
<g id="edge9" class="edge"><title>Node6&#45;&gt;Node8</title>
<path fill="none" stroke="midnightblue" d="M430.358,-315.502C478.395,-325.777 562.446,-338.937 633,-325 655.235,-320.608 678.882,-310.658 696.354,-302.182"/>
<polygon fill="midnightblue" stroke="midnightblue" points="698,-305.272 705.378,-297.669 694.869,-299.011 698,-305.272"/>
</g>
<!-- Node8&#45;&gt;Node2 -->
<g id="edge10" class="edge"><title>Node8&#45;&gt;Node2</title>
<path fill="none" stroke="midnightblue" d="M764.996,-278.411C785.912,-273.396 811.708,-267.212 833.886,-261.895"/>
<polygon fill="midnightblue" stroke="midnightblue" points="834.883,-265.255 843.791,-259.52 833.251,-258.448 834.883,-265.255"/>
</g>
<!-- Node9 -->
<g id="node9" class="node"><title>Node9</title>
<g id="a_node9"><a xlink:href="../../d1/d54/namespace_script.html#af293a36c230b10de7d8151c2990b233b" target="_top" xlink:title=" ">
<polygon fill="white" stroke="black" points="827.5,-278.5 827.5,-297.5 941.5,-297.5 941.5,-278.5 827.5,-278.5"/>
<text text-anchor="middle" x="884.5" y="-285.5" font-family="Helvetica,sans-Serif" font-size="10.00">Script::LookUpSymbol</text>
</a>
</g>
</g>
<!-- Node8&#45;&gt;Node9 -->
<g id="edge11" class="edge"><title>Node8&#45;&gt;Node9</title>
<path fill="none" stroke="midnightblue" d="M765.406,-288C781.124,-288 799.549,-288 817.11,-288"/>
<polygon fill="midnightblue" stroke="midnightblue" points="817.322,-291.5 827.322,-288 817.322,-284.5 817.322,-291.5"/>
</g>
<!-- Node11&#45;&gt;Node2 -->
<g id="edge15" class="edge"><title>Node11&#45;&gt;Node2</title>
<path fill="none" stroke="midnightblue" d="M246.691,-174.39C265.953,-168.345 292.203,-161.118 316,-158 420.969,-144.244 771.087,-172.216 779,-175 814.022,-187.321 847.628,-215.27 866.887,-233.352"/>
<polygon fill="midnightblue" stroke="midnightblue" points="864.596,-236.004 874.225,-240.423 869.453,-230.964 864.596,-236.004"/>
</g>
<!-- Node11&#45;&gt;Node6 -->
<g id="edge16" class="edge"><title>Node11&#45;&gt;Node6</title>
<path fill="none" stroke="midnightblue" d="M231.918,-193.573C261.387,-214.597 331.981,-264.963 367.826,-290.537"/>
<polygon fill="midnightblue" stroke="midnightblue" points="365.971,-293.513 376.144,-296.471 370.036,-287.814 365.971,-293.513"/>
</g>
<!-- Node12 -->
<g id="node12" class="node"><title>Node12</title>
<g id="a_node12"><a xlink:href="../../df/de2/_messages_8h.html#a701d7b9cdd94e5f87bc47f4e770492e6" target="_top" xlink:title=" ">
<polygon fill="white" stroke="black" points="351,-167.5 351,-186.5 430,-186.5 430,-167.5 351,-167.5"/>
<text text-anchor="middle" x="390.5" y="-174.5" font-family="Helvetica,sans-Serif" font-size="10.00">Dbg_Message</text>
</a>
</g>
</g>
<!-- Node11&#45;&gt;Node12 -->
<g id="edge14" class="edge"><title>Node11&#45;&gt;Node12</title>
<path fill="none" stroke="midnightblue" d="M280.235,-181.473C300.172,-180.657 321.982,-179.764 340.837,-178.992"/>
<polygon fill="midnightblue" stroke="midnightblue" points="341.129,-182.483 350.978,-178.577 340.843,-175.489 341.129,-182.483"/>
</g>
<!-- Node13 -->
<g id="node13" class="node"><title>Node13</title>
<g id="a_node13"><a xlink:href="../../d2/df7/class_script_1_1_c_struct.html#a40dfb370c37d6da857f33157b2b3bfc7" target="_top" xlink:title=" ">
<polygon fill="white" stroke="black" points="325,-205.5 325,-224.5 456,-224.5 456,-205.5 325,-205.5"/>
<text text-anchor="middle" x="390.5" y="-212.5" font-family="Helvetica,sans-Serif" font-size="10.00">Script::CStruct::GetVector</text>
</a>
</g>
</g>
<!-- Node11&#45;&gt;Node13 -->
<g id="edge17" class="edge"><title>Node11&#45;&gt;Node13</title>
<path fill="none" stroke="midnightblue" d="M271.201,-193.554C288.837,-196.751 308.668,-200.346 326.98,-203.666"/>
<polygon fill="midnightblue" stroke="midnightblue" points="326.509,-207.138 336.973,-205.478 327.758,-200.25 326.509,-207.138"/>
</g>
<!-- Node17 -->
<g id="node17" class="node"><title>Node17</title>
<g id="a_node17"><a xlink:href="../../d6/d68/vector_8h.html#a97b62c44fa0ff9823c90a7588a9627c0" target="_top" xlink:title=" ">
<polygon fill="white" stroke="black" points="368,-88.5 368,-107.5 413,-107.5 413,-88.5 368,-88.5"/>
<text text-anchor="middle" x="390.5" y="-95.5" font-family="Helvetica,sans-Serif" font-size="10.00">Vector</text>
</a>
</g>
</g>
<!-- Node11&#45;&gt;Node17 -->
<g id="edge26" class="edge"><title>Node11&#45;&gt;Node17</title>
<path fill="none" stroke="midnightblue" d="M231.146,-174.485C249.186,-161.262 283.71,-137.241 316,-122 329.349,-115.699 344.792,-110.383 358.067,-106.368"/>
<polygon fill="midnightblue" stroke="midnightblue" points="359.102,-109.712 367.725,-103.557 357.146,-102.991 359.102,-109.712"/>
</g>
<!-- Node13&#45;&gt;Node2 -->
<g id="edge18" class="edge"><title>Node13&#45;&gt;Node2</title>
<path fill="none" stroke="midnightblue" d="M429.088,-205.442C499.158,-189.244 653.963,-161.116 779,-193 810.258,-200.971 842.249,-220.413 862.458,-234.374"/>
<polygon fill="midnightblue" stroke="midnightblue" points="860.688,-237.41 870.869,-240.342 864.738,-231.701 860.688,-237.41"/>
</g>
<!-- Node13&#45;&gt;Node7 -->
<g id="edge19" class="edge"><title>Node13&#45;&gt;Node7</title>
<path fill="none" stroke="midnightblue" d="M403.595,-224.714C423.057,-239.924 463,-269.434 501,-287 506.002,-289.313 511.352,-291.415 516.754,-293.307"/>
<polygon fill="midnightblue" stroke="midnightblue" points="515.879,-296.703 526.471,-296.486 518.055,-290.05 515.879,-296.703"/>
</g>
<!-- Node14 -->
<g id="node14" class="node"><title>Node14</title>
<g id="a_node14"><a xlink:href="../../d2/df7/class_script_1_1_c_struct.html#a1e05f0a66cff4a700fb67fdc117d2d7f" target="_top" xlink:title=" ">
<polygon fill="white" stroke="black" points="501,-202.5 501,-221.5 633,-221.5 633,-202.5 501,-202.5"/>
<text text-anchor="middle" x="567" y="-209.5" font-family="Helvetica,sans-Serif" font-size="10.00">Script::CStruct::search_for</text>
</a>
</g>
</g>
<!-- Node13&#45;&gt;Node14 -->
<g id="edge20" class="edge"><title>Node13&#45;&gt;Node14</title>
<path fill="none" stroke="midnightblue" d="M456.477,-213.883C467.606,-213.692 479.252,-213.491 490.624,-213.296"/>
<polygon fill="midnightblue" stroke="midnightblue" points="491.03,-216.789 500.968,-213.118 490.91,-209.791 491.03,-216.789"/>
</g>
<!-- Node16 -->
<g id="node16" class="node"><title>Node16</title>
<g id="a_node16"><a xlink:href="../../d1/d08/class_mth_1_1_vector.html#aeb3fc85704c5e3811b7dd4bebff78b3f" target="_top" xlink:title=" ">
<polygon fill="white" stroke="black" points="522.5,-258.5 522.5,-277.5 611.5,-277.5 611.5,-258.5 522.5,-258.5"/>
<text text-anchor="middle" x="567" y="-265.5" font-family="Helvetica,sans-Serif" font-size="10.00">Mth::Vector::Set</text>
</a>
</g>
</g>
<!-- Node13&#45;&gt;Node16 -->
<g id="edge25" class="edge"><title>Node13&#45;&gt;Node16</title>
<path fill="none" stroke="midnightblue" d="M421.669,-224.516C443.638,-231.409 474.127,-240.901 501,-249 508.201,-251.17 515.862,-253.442 523.303,-255.63"/>
<polygon fill="midnightblue" stroke="midnightblue" points="522.321,-258.989 532.901,-258.441 524.288,-252.271 522.321,-258.989"/>
</g>
<!-- Node14&#45;&gt;Node2 -->
<g id="edge21" class="edge"><title>Node14&#45;&gt;Node2</title>
<path fill="none" stroke="midnightblue" d="M613.347,-221.506C630.696,-224.886 650.707,-228.475 669,-231 713.725,-237.173 763.987,-241.75 804.61,-244.863"/>
<polygon fill="midnightblue" stroke="midnightblue" points="804.486,-248.364 814.72,-245.623 805.011,-241.383 804.486,-248.364"/>
</g>
<!-- Node14&#45;&gt;Node8 -->
<g id="edge23" class="edge"><title>Node14&#45;&gt;Node8</title>
<path fill="none" stroke="midnightblue" d="M585.725,-221.516C605.773,-232.188 639.475,-249.853 669,-264 676.124,-267.414 683.848,-270.945 691.166,-274.214"/>
<polygon fill="midnightblue" stroke="midnightblue" points="690.239,-277.631 700.8,-278.475 693.07,-271.229 690.239,-277.631"/>
</g>
<!-- Node14&#45;&gt;Node14 -->
<g id="edge24" class="edge"><title>Node14&#45;&gt;Node14</title>
<path fill="none" stroke="midnightblue" d="M542.956,-221.757C531.259,-230.565 539.273,-240 567,-240 585.196,-240 594.902,-235.937 596.119,-230.654"/>
<polygon fill="midnightblue" stroke="midnightblue" points="599.039,-228.709 591.044,-221.757 592.959,-232.177 599.039,-228.709"/>
</g>
<!-- Node15 -->
<g id="node15" class="node"><title>Node15</title>
<g id="a_node15"><a xlink:href="../../d1/d54/namespace_script.html#af32f99ba26ca0f255240413a4e23a754" target="_top" xlink:title=" ">
<polygon fill="white" stroke="black" points="669,-202.5 669,-221.5 779,-221.5 779,-202.5 669,-202.5"/>
<text text-anchor="middle" x="724" y="-209.5" font-family="Helvetica,sans-Serif" font-size="10.00">Script::GetTypeName</text>
</a>
</g>
</g>
<!-- Node14&#45;&gt;Node15 -->
<g id="edge22" class="edge"><title>Node14&#45;&gt;Node15</title>
<path fill="none" stroke="midnightblue" d="M633.285,-212C641.637,-212 650.184,-212 658.523,-212"/>
<polygon fill="midnightblue" stroke="midnightblue" points="658.566,-215.5 668.566,-212 658.566,-208.5 658.566,-215.5"/>
</g>
<!-- Node19 -->
<g id="node19" class="node"><title>Node19</title>
<g id="a_node19"><a xlink:href="../../d0/d7e/class_obj_1_1_c_base_component.html#aeebbda34fbc57d6fd4d1ef97d8f2672d" target="_top" xlink:title=" ">
<polygon fill="white" stroke="black" points="332.5,-39 332.5,-69 448.5,-69 448.5,-39 332.5,-39"/>
<text text-anchor="start" x="340.5" y="-57" font-family="Helvetica,sans-Serif" font-size="10.00">Obj::CBaseComponent</text>
<text text-anchor="middle" x="390.5" y="-46" font-family="Helvetica,sans-Serif" font-size="10.00">::InitFromStructure</text>
</a>
</g>
</g>
<!-- Node18&#45;&gt;Node19 -->
<g id="edge28" class="edge"><title>Node18&#45;&gt;Node19</title>
<path fill="none" stroke="midnightblue" d="M276.87,-54C291.413,-54 307.125,-54 322.065,-54"/>
<polygon fill="midnightblue" stroke="midnightblue" points="322.261,-57.5001 332.261,-54 322.261,-50.5001 322.261,-57.5001"/>
</g>
<!-- Node20 -->
<g id="node20" class="node"><title>Node20</title>
<g id="a_node20"><a xlink:href="../../df/d92/standard_8cpp.html#a5fc8fd1788f18ada61dfda9f171c5a1a" target="_top" xlink:title=" ">
<polygon fill="white" stroke="black" points="371.5,-0.5 371.5,-19.5 409.5,-19.5 409.5,-0.5 371.5,-0.5"/>
<text text-anchor="middle" x="390.5" y="-7.5" font-family="Helvetica,sans-Serif" font-size="10.00">printf</text>
</a>
</g>
</g>
<!-- Node18&#45;&gt;Node20 -->
<g id="edge29" class="edge"><title>Node18&#45;&gt;Node20</title>
<path fill="none" stroke="midnightblue" d="M276.87,-38.9808C305.565,-31.5973 338.808,-23.0436 361.702,-17.1528"/>
<polygon fill="midnightblue" stroke="midnightblue" points="362.627,-20.5289 371.439,-14.6473 360.882,-13.7497 362.627,-20.5289"/>
</g>
</g>
</svg>
