<?xml version="1.0" encoding="UTF-8" standalone="no"?>
<!DOCTYPE svg PUBLIC "-//W3C//DTD SVG 1.1//EN"
 "http://www.w3.org/Graphics/SVG/1.1/DTD/svg11.dtd">
<!-- Generated by graphviz version 2.38.0 (20140413.2041)
 -->
<!-- Title: Obj::CCompositeObject::CreateComponentFromStructure Pages: 1 -->
<!--zoomable 475 -->
<svg id="main" version="1.1" xmlns="http://www.w3.org/2000/svg" xmlns:xlink="http://www.w3.org/1999/xlink" xml:space="preserve" onload="init(evt)">
<style type="text/css"><![CDATA[
.edge:hover path { stroke: red; }
.edge:hover polygon { stroke: red; fill: red; }
]]></style>
<script type="text/javascript"><![CDATA[
var edges = document.getElementsByTagName('g');
if (edges && edges.length) {
  for (var i=0;i<edges.length;i++) {
    if (edges[i].id.substr(0,4)=='edge') {
      edges[i].setAttribute('class','edge');
    }
  }
}
]]></script>
        <defs>
                <circle id="rim" cx="0" cy="0" r="7"/>
                <circle id="rim2" cx="0" cy="0" r="3.5"/>
                <g id="zoomPlus">
                        <use xlink:href="#rim" fill="#404040">
                                <set attributeName="fill" to="#808080" begin="zoomplus.mouseover" end="zoomplus.mouseout"/>
                        </use>
                        <path d="M-4,0h8M0,-4v8" fill="none" stroke="white" stroke-width="1.5" pointer-events="none"/>
                </g>
                <g id="zoomMin">
                        <use xlink:href="#rim" fill="#404040">
                                <set attributeName="fill" to="#808080" begin="zoomminus.mouseover" end="zoomminus.mouseout"/>
                        </use>
                        <path d="M-4,0h8" fill="none" stroke="white" stroke-width="1.5" pointer-events="none"/>
                </g>
                <g id="dirArrow">
                        <path fill="none" stroke="white" stroke-width="1.5" d="M0,-3.0v7 M-2.5,-0.5L0,-3.0L2.5,-0.5"/>
                </g>
               <g id="resetDef">
                       <use xlink:href="#rim2" fill="#404040">
                               <set attributeName="fill" to="#808080" begin="reset.mouseover" end="reset.mouseout"/>
                       </use>
               </g>
        </defs>

<script type="text/javascript">
var viewWidth = 914;
var viewHeight = 475;
var sectionId = 'dynsection-26';
</script>
<script xlink:href="../../svgpan.js"/>
<svg id="graph" class="graph">
<g id="viewport">
<title>Obj::CCompositeObject::CreateComponentFromStructure</title>
<polygon fill="white" stroke="none" points="-4,4 -4,-471 910,-471 910,4 -4,4"/>
<!-- Node1 -->
<g id="node1" class="node"><title>Node1</title>
<g id="a_node1"><a xlink:title=" ">
<polygon fill="#bfbfbf" stroke="black" points="743,-240.5 743,-270.5 906,-270.5 906,-240.5 743,-240.5"/>
<text text-anchor="start" x="751" y="-258.5" font-family="Helvetica,sans-Serif" font-size="10.00">Obj::CCompositeObject</text>
<text text-anchor="middle" x="824.5" y="-247.5" font-family="Helvetica,sans-Serif" font-size="10.00">::CreateComponentFromStructure</text>
</a>
</g>
</g>
<!-- Node2 -->
<g id="node2" class="node"><title>Node2</title>
<g id="a_node2"><a xlink:href="../../dd/d7b/class_obj_1_1_c_composite_object.html#abdda76d2430386ad7af08f3a033dac99" target="_top" xlink:title=" ">
<polygon fill="white" stroke="black" points="588,-240.5 588,-270.5 707,-270.5 707,-240.5 588,-240.5"/>
<text text-anchor="start" x="596" y="-258.5" font-family="Helvetica,sans-Serif" font-size="10.00">Obj::CCompositeObject</text>
<text text-anchor="middle" x="647.5" y="-247.5" font-family="Helvetica,sans-Serif" font-size="10.00">::GetComponent</text>
</a>
</g>
</g>
<!-- Node1&#45;&gt;Node2 -->
<g id="edge1" class="edge"><title>Node1&#45;&gt;Node2</title>
<path fill="none" stroke="midnightblue" d="M732.751,-255.5C724.093,-255.5 715.477,-255.5 707.243,-255.5"/>
<polygon fill="midnightblue" stroke="midnightblue" points="732.915,-259 742.915,-255.5 732.915,-252 732.915,-259"/>
</g>
<!-- Node3 -->
<g id="node3" class="node"><title>Node3</title>
<g id="a_node3"><a xlink:href="../../d5/d00/class_obj_1_1_c_car_physics_component.html#ae75bd58ae2025eba96a2592e76e62b46" target="_top" xlink:title=" ">
<polygon fill="white" stroke="black" points="400,-436.5 400,-466.5 544,-466.5 544,-436.5 400,-436.5"/>
<text text-anchor="start" x="408" y="-454.5" font-family="Helvetica,sans-Serif" font-size="10.00">Obj::CCarPhysicsComponent</text>
<text text-anchor="middle" x="472" y="-443.5" font-family="Helvetica,sans-Serif" font-size="10.00">::init_car_skeleton</text>
</a>
</g>
</g>
<!-- Node2&#45;&gt;Node3 -->
<g id="edge2" class="edge"><title>Node2&#45;&gt;Node3</title>
<path fill="none" stroke="midnightblue" d="M639.516,-280.293C627.708,-317.702 600.246,-388.352 552,-427.5 547.77,-430.932 543.056,-433.874 538.093,-436.396"/>
<polygon fill="midnightblue" stroke="midnightblue" points="642.879,-281.263 642.436,-270.678 636.181,-279.229 642.879,-281.263"/>
</g>
<!-- Node4 -->
<g id="node4" class="node"><title>Node4</title>
<g id="a_node4"><a xlink:href="../../d2/d81/class_obj_1_1_c_vehicle_camera_component.html#ae2ea7176f03f3e39fc2d876571b7fe38" target="_top" xlink:title=" ">
<polygon fill="white" stroke="black" points="392,-387.5 392,-417.5 552,-417.5 552,-387.5 392,-387.5"/>
<text text-anchor="start" x="400" y="-405.5" font-family="Helvetica,sans-Serif" font-size="10.00">Obj::CVehicleCameraComponent</text>
<text text-anchor="middle" x="472" y="-394.5" font-family="Helvetica,sans-Serif" font-size="10.00">::InitFromStructure</text>
</a>
</g>
</g>
<!-- Node2&#45;&gt;Node4 -->
<g id="edge3" class="edge"><title>Node2&#45;&gt;Node4</title>
<path fill="none" stroke="midnightblue" d="M633.913,-279.899C618.334,-307.738 589.24,-352.731 552,-378.5 547.049,-381.926 541.597,-384.873 535.94,-387.408"/>
<polygon fill="midnightblue" stroke="midnightblue" points="637.145,-281.284 638.851,-270.827 630.996,-277.937 637.145,-281.284"/>
</g>
<!-- Node7 -->
<g id="node7" class="node"><title>Node7</title>
<g id="a_node7"><a xlink:href="../../df/dc1/class_obj_1_1_c_horse_camera_component.html#a340799c7a848ed463e03d69c1d4db2d2" target="_top" xlink:title=" ">
<polygon fill="white" stroke="black" points="395.5,-338.5 395.5,-368.5 548.5,-368.5 548.5,-338.5 395.5,-338.5"/>
<text text-anchor="start" x="403.5" y="-356.5" font-family="Helvetica,sans-Serif" font-size="10.00">Obj::CHorseCameraComponent</text>
<text text-anchor="middle" x="472" y="-345.5" font-family="Helvetica,sans-Serif" font-size="10.00">::InitFromStructure</text>
</a>
</g>
</g>
<!-- Node2&#45;&gt;Node7 -->
<g id="edge6" class="edge"><title>Node2&#45;&gt;Node7</title>
<path fill="none" stroke="midnightblue" d="M623.332,-277.664C605.176,-293.984 578.612,-315.658 552,-329.5 545.514,-332.873 538.478,-335.855 531.367,-338.468"/>
<polygon fill="midnightblue" stroke="midnightblue" points="626.044,-279.926 631.052,-270.589 621.314,-274.765 626.044,-279.926"/>
</g>
<!-- Node10 -->
<g id="node10" class="node"><title>Node10</title>
<g id="a_node10"><a xlink:href="../../d6/db5/class_obj_1_1_c_horse_component.html#af613aa46b1893ca41c3fcf935b1ef60e" target="_top" xlink:title=" ">
<polygon fill="white" stroke="black" points="412.5,-289.5 412.5,-319.5 531.5,-319.5 531.5,-289.5 412.5,-289.5"/>
<text text-anchor="start" x="420.5" y="-307.5" font-family="Helvetica,sans-Serif" font-size="10.00">Obj::CHorseComponent</text>
<text text-anchor="middle" x="472" y="-296.5" font-family="Helvetica,sans-Serif" font-size="10.00">::InitFromStructure</text>
</a>
</g>
</g>
<!-- Node2&#45;&gt;Node10 -->
<g id="edge9" class="edge"><title>Node2&#45;&gt;Node10</title>
<path fill="none" stroke="midnightblue" d="M583.398,-273.321C564.665,-278.612 544.34,-284.352 526.295,-289.448"/>
<polygon fill="midnightblue" stroke="midnightblue" points="584.356,-276.688 593.029,-270.601 582.454,-269.951 584.356,-276.688"/>
</g>
<!-- Node13 -->
<g id="node13" class="node"><title>Node13</title>
<g id="a_node13"><a xlink:href="../../d3/d33/class_obj_1_1_c_vehicle_component.html#a32234f61ad8d77c725cb8b95adf56fbd" target="_top" xlink:title=" ">
<polygon fill="white" stroke="black" points="409,-240.5 409,-270.5 535,-270.5 535,-240.5 409,-240.5"/>
<text text-anchor="start" x="417" y="-258.5" font-family="Helvetica,sans-Serif" font-size="10.00">Obj::CVehicleComponent</text>
<text text-anchor="middle" x="472" y="-247.5" font-family="Helvetica,sans-Serif" font-size="10.00">::InitFromStructure</text>
</a>
</g>
</g>
<!-- Node2&#45;&gt;Node13 -->
<g id="edge12" class="edge"><title>Node2&#45;&gt;Node13</title>
<path fill="none" stroke="midnightblue" d="M577.693,-255.5C563.678,-255.5 549.01,-255.5 535.239,-255.5"/>
<polygon fill="midnightblue" stroke="midnightblue" points="577.761,-259 587.761,-255.5 577.761,-252 577.761,-259"/>
</g>
<!-- Node14 -->
<g id="node14" class="node"><title>Node14</title>
<g id="a_node14"><a xlink:href="../../dd/d7b/class_obj_1_1_c_composite_object.html#a0f17a37ea32bdea7a918436da2182afe" target="_top" xlink:title=" ">
<polygon fill="white" stroke="black" points="412.5,-191.5 412.5,-221.5 531.5,-221.5 531.5,-191.5 412.5,-191.5"/>
<text text-anchor="start" x="420.5" y="-209.5" font-family="Helvetica,sans-Serif" font-size="10.00">Obj::CCompositeObject</text>
<text text-anchor="middle" x="472" y="-198.5" font-family="Helvetica,sans-Serif" font-size="10.00">::LoadComponent</text>
</a>
</g>
</g>
<!-- Node2&#45;&gt;Node14 -->
<g id="edge13" class="edge"><title>Node2&#45;&gt;Node14</title>
<path fill="none" stroke="midnightblue" d="M583.398,-237.679C564.665,-232.388 544.34,-226.648 526.295,-221.552"/>
<polygon fill="midnightblue" stroke="midnightblue" points="582.454,-241.049 593.029,-240.399 584.356,-234.312 582.454,-241.049"/>
</g>
<!-- Node15 -->
<g id="node15" class="node"><title>Node15</title>
<g id="a_node15"><a xlink:href="../../d5/d5b/class_obj_1_1_c_lock_obj_component.html#ac30fbcc1fe6b332e2ca1fa89acd53c5f" target="_top" xlink:title=" ">
<polygon fill="white" stroke="black" points="407,-142.5 407,-172.5 537,-172.5 537,-142.5 407,-142.5"/>
<text text-anchor="start" x="415" y="-160.5" font-family="Helvetica,sans-Serif" font-size="10.00">Obj::CLockObjComponent</text>
<text text-anchor="middle" x="472" y="-149.5" font-family="Helvetica,sans-Serif" font-size="10.00">::LockToObject</text>
</a>
</g>
</g>
<!-- Node2&#45;&gt;Node15 -->
<g id="edge14" class="edge"><title>Node2&#45;&gt;Node15</title>
<path fill="none" stroke="midnightblue" d="M623.332,-233.336C605.176,-217.016 578.612,-195.342 552,-181.5 545.514,-178.127 538.478,-175.145 531.367,-172.532"/>
<polygon fill="midnightblue" stroke="midnightblue" points="621.314,-236.235 631.052,-240.411 626.044,-231.074 621.314,-236.235"/>
</g>
<!-- Node16 -->
<g id="node16" class="node"><title>Node16</title>
<g id="a_node16"><a xlink:href="../../da/d37/namespace_dbg.html#accadf4ea785a68ddafd7f344f408747d" target="_top" xlink:title=" ">
<polygon fill="white" stroke="black" points="400.5,-104 400.5,-123 543.5,-123 543.5,-104 400.5,-104"/>
<text text-anchor="middle" x="472" y="-111" font-family="Helvetica,sans-Serif" font-size="10.00">Dbg::s_change_render_mode</text>
</a>
</g>
</g>
<!-- Node2&#45;&gt;Node16 -->
<g id="edge15" class="edge"><title>Node2&#45;&gt;Node16</title>
<path fill="none" stroke="midnightblue" d="M634.419,-231.158C619.15,-202.984 590.185,-157.292 552,-132.5 545.966,-128.582 539.201,-125.472 532.235,-123.002"/>
<polygon fill="midnightblue" stroke="midnightblue" points="631.49,-233.108 639.241,-240.33 637.685,-229.85 631.49,-233.108"/>
</g>
<!-- Node20 -->
<g id="node20" class="node"><title>Node20</title>
<g id="a_node20"><a xlink:href="../../d9/d87/class_dbg_1_1_c_script_debugger.html#abe540eabb39f9dc966413af926ddf5d1" target="_top" xlink:title=" ">
<polygon fill="white" stroke="black" points="413,-44 413,-85 531,-85 531,-44 413,-44"/>
<text text-anchor="start" x="421" y="-73" font-family="Helvetica,sans-Serif" font-size="10.00">Dbg::CScriptDebugger</text>
<text text-anchor="start" x="421" y="-62" font-family="Helvetica,sans-Serif" font-size="10.00">::setup_default_camera</text>
<text text-anchor="middle" x="472" y="-51" font-family="Helvetica,sans-Serif" font-size="10.00">_viewing_position</text>
</a>
</g>
</g>
<!-- Node2&#45;&gt;Node20 -->
<g id="edge19" class="edge"><title>Node2&#45;&gt;Node20</title>
<path fill="none" stroke="midnightblue" d="M638.089,-230.903C624.957,-195.951 596.392,-132.003 552,-94.5 545.836,-89.2927 538.674,-84.9382 531.228,-81.3104"/>
<polygon fill="midnightblue" stroke="midnightblue" points="634.819,-232.152 641.527,-240.353 641.397,-229.759 634.819,-232.152"/>
</g>
<!-- Node5 -->
<g id="node5" class="node"><title>Node5</title>
<g id="a_node5"><a xlink:href="../../d2/d81/class_obj_1_1_c_vehicle_camera_component.html#a9b6a548c30514f44a63962062c656dac" target="_top" xlink:title=" ">
<polygon fill="white" stroke="black" points="196,-387.5 196,-417.5 356,-417.5 356,-387.5 196,-387.5"/>
<text text-anchor="start" x="204" y="-405.5" font-family="Helvetica,sans-Serif" font-size="10.00">Obj::CVehicleCameraComponent</text>
<text text-anchor="middle" x="276" y="-394.5" font-family="Helvetica,sans-Serif" font-size="10.00">::RefreshFromStructure</text>
</a>
</g>
</g>
<!-- Node4&#45;&gt;Node5 -->
<g id="edge4" class="edge"><title>Node4&#45;&gt;Node5</title>
<path fill="none" stroke="midnightblue" d="M381.564,-402.5C373.116,-402.5 364.592,-402.5 356.248,-402.5"/>
<polygon fill="midnightblue" stroke="midnightblue" points="381.813,-406 391.813,-402.5 381.813,-399 381.813,-406"/>
</g>
<!-- Node6 -->
<g id="node6" class="node"><title>Node6</title>
<g id="a_node6"><a xlink:href="../../d2/d81/class_obj_1_1_c_vehicle_camera_component.html#a02dcb120f7d86d6f171d84f62921fe45" target="_top" xlink:title=" ">
<polygon fill="white" stroke="black" points="0,-387.5 0,-417.5 160,-417.5 160,-387.5 0,-387.5"/>
<text text-anchor="start" x="8" y="-405.5" font-family="Helvetica,sans-Serif" font-size="10.00">Obj::CVehicleCameraComponent</text>
<text text-anchor="middle" x="80" y="-394.5" font-family="Helvetica,sans-Serif" font-size="10.00">::CallMemberFunction</text>
</a>
</g>
</g>
<!-- Node5&#45;&gt;Node6 -->
<g id="edge5" class="edge"><title>Node5&#45;&gt;Node6</title>
<path fill="none" stroke="midnightblue" d="M185.564,-402.5C177.116,-402.5 168.592,-402.5 160.248,-402.5"/>
<polygon fill="midnightblue" stroke="midnightblue" points="185.813,-406 195.813,-402.5 185.813,-399 185.813,-406"/>
</g>
<!-- Node8 -->
<g id="node8" class="node"><title>Node8</title>
<g id="a_node8"><a xlink:href="../../df/dc1/class_obj_1_1_c_horse_camera_component.html#aaee53eda3b7aed173118e87c0f89ea5d" target="_top" xlink:title=" ">
<polygon fill="white" stroke="black" points="199.5,-338.5 199.5,-368.5 352.5,-368.5 352.5,-338.5 199.5,-338.5"/>
<text text-anchor="start" x="207.5" y="-356.5" font-family="Helvetica,sans-Serif" font-size="10.00">Obj::CHorseCameraComponent</text>
<text text-anchor="middle" x="276" y="-345.5" font-family="Helvetica,sans-Serif" font-size="10.00">::RefreshFromStructure</text>
</a>
</g>
</g>
<!-- Node7&#45;&gt;Node8 -->
<g id="edge7" class="edge"><title>Node7&#45;&gt;Node8</title>
<path fill="none" stroke="midnightblue" d="M385.142,-353.5C374.324,-353.5 363.319,-353.5 352.674,-353.5"/>
<polygon fill="midnightblue" stroke="midnightblue" points="385.439,-357 395.439,-353.5 385.439,-350 385.439,-357"/>
</g>
<!-- Node9 -->
<g id="node9" class="node"><title>Node9</title>
<g id="a_node9"><a xlink:href="../../df/dc1/class_obj_1_1_c_horse_camera_component.html#a8974b587c36158cf7b066b450b9de0e0" target="_top" xlink:title=" ">
<polygon fill="white" stroke="black" points="3.5,-338.5 3.5,-368.5 156.5,-368.5 156.5,-338.5 3.5,-338.5"/>
<text text-anchor="start" x="11.5" y="-356.5" font-family="Helvetica,sans-Serif" font-size="10.00">Obj::CHorseCameraComponent</text>
<text text-anchor="middle" x="80" y="-345.5" font-family="Helvetica,sans-Serif" font-size="10.00">::CallMemberFunction</text>
</a>
</g>
</g>
<!-- Node8&#45;&gt;Node9 -->
<g id="edge8" class="edge"><title>Node8&#45;&gt;Node9</title>
<path fill="none" stroke="midnightblue" d="M189.142,-353.5C178.324,-353.5 167.319,-353.5 156.674,-353.5"/>
<polygon fill="midnightblue" stroke="midnightblue" points="189.439,-357 199.439,-353.5 189.439,-350 189.439,-357"/>
</g>
<!-- Node11 -->
<g id="node11" class="node"><title>Node11</title>
<g id="a_node11"><a xlink:href="../../d6/db5/class_obj_1_1_c_horse_component.html#a8b5f4642490919591aa63c2d3d7715e0" target="_top" xlink:title=" ">
<polygon fill="white" stroke="black" points="216.5,-289.5 216.5,-319.5 335.5,-319.5 335.5,-289.5 216.5,-289.5"/>
<text text-anchor="start" x="224.5" y="-307.5" font-family="Helvetica,sans-Serif" font-size="10.00">Obj::CHorseComponent</text>
<text text-anchor="middle" x="276" y="-296.5" font-family="Helvetica,sans-Serif" font-size="10.00">::RefreshFromStructure</text>
</a>
</g>
</g>
<!-- Node10&#45;&gt;Node11 -->
<g id="edge10" class="edge"><title>Node10&#45;&gt;Node11</title>
<path fill="none" stroke="midnightblue" d="M402.101,-304.5C380.335,-304.5 356.503,-304.5 335.533,-304.5"/>
<polygon fill="midnightblue" stroke="midnightblue" points="402.267,-308 412.267,-304.5 402.267,-301 402.267,-308"/>
</g>
<!-- Node12 -->
<g id="node12" class="node"><title>Node12</title>
<g id="a_node12"><a xlink:href="../../d6/db5/class_obj_1_1_c_horse_component.html#a1af9c3079e3758756137ca3d89199f5f" target="_top" xlink:title=" ">
<polygon fill="white" stroke="black" points="20.5,-289.5 20.5,-319.5 139.5,-319.5 139.5,-289.5 20.5,-289.5"/>
<text text-anchor="start" x="28.5" y="-307.5" font-family="Helvetica,sans-Serif" font-size="10.00">Obj::CHorseComponent</text>
<text text-anchor="middle" x="80" y="-296.5" font-family="Helvetica,sans-Serif" font-size="10.00">::CallMemberFunction</text>
</a>
</g>
</g>
<!-- Node11&#45;&gt;Node12 -->
<g id="edge11" class="edge"><title>Node11&#45;&gt;Node12</title>
<path fill="none" stroke="midnightblue" d="M206.101,-304.5C184.335,-304.5 160.503,-304.5 139.533,-304.5"/>
<polygon fill="midnightblue" stroke="midnightblue" points="206.267,-308 216.267,-304.5 206.267,-301 206.267,-308"/>
</g>
<!-- Node17 -->
<g id="node17" class="node"><title>Node17</title>
<g id="a_node17"><a xlink:href="../../d9/d87/class_dbg_1_1_c_script_debugger.html#a108c1daab453890eea6b1721a4715cd2" target="_top" xlink:title=" ">
<polygon fill="white" stroke="black" points="210,-147.5 210,-177.5 342,-177.5 342,-147.5 210,-147.5"/>
<text text-anchor="start" x="218" y="-165.5" font-family="Helvetica,sans-Serif" font-size="10.00">Dbg::CScriptDebugger</text>
<text text-anchor="middle" x="276" y="-154.5" font-family="Helvetica,sans-Serif" font-size="10.00">::switch_off_mouse_cursor</text>
</a>
</g>
</g>
<!-- Node16&#45;&gt;Node17 -->
<g id="edge16" class="edge"><title>Node16&#45;&gt;Node17</title>
<path fill="none" stroke="midnightblue" d="M420.933,-125.388C411.322,-127.714 401.343,-130.158 392,-132.5 372.986,-137.266 352.248,-142.626 333.683,-147.483"/>
<polygon fill="midnightblue" stroke="midnightblue" points="421.872,-128.762 430.774,-123.017 420.233,-121.957 421.872,-128.762"/>
</g>
<!-- Node19 -->
<g id="node19" class="node"><title>Node19</title>
<g id="a_node19"><a xlink:href="../../d9/d87/class_dbg_1_1_c_script_debugger.html#ab9f70780dce3addef252cf0d391f7609" target="_top" xlink:title=" ">
<polygon fill="white" stroke="black" points="216.5,-98.5 216.5,-128.5 335.5,-128.5 335.5,-98.5 216.5,-98.5"/>
<text text-anchor="start" x="224.5" y="-116.5" font-family="Helvetica,sans-Serif" font-size="10.00">Dbg::CScriptDebugger</text>
<text text-anchor="middle" x="276" y="-105.5" font-family="Helvetica,sans-Serif" font-size="10.00">::update_mouse_cursor</text>
</a>
</g>
</g>
<!-- Node16&#45;&gt;Node19 -->
<g id="edge18" class="edge"><title>Node16&#45;&gt;Node19</title>
<path fill="none" stroke="midnightblue" d="M390.342,-113.5C372.037,-113.5 352.932,-113.5 335.737,-113.5"/>
<polygon fill="midnightblue" stroke="midnightblue" points="390.413,-117 400.413,-113.5 390.413,-110 390.413,-117"/>
</g>
<!-- Node18 -->
<g id="node18" class="node"><title>Node18</title>
<g id="a_node18"><a xlink:href="../../d9/d87/class_dbg_1_1_c_script_debugger.html#a2b6b93ad492d8b82011ed712ce683a76" target="_top" xlink:title=" ">
<polygon fill="white" stroke="black" points="23.5,-147.5 23.5,-177.5 136.5,-177.5 136.5,-147.5 23.5,-147.5"/>
<text text-anchor="start" x="31.5" y="-165.5" font-family="Helvetica,sans-Serif" font-size="10.00">Dbg::CScriptDebugger</text>
<text text-anchor="middle" x="80" y="-154.5" font-family="Helvetica,sans-Serif" font-size="10.00">::stop_debugging</text>
</a>
</g>
</g>
<!-- Node17&#45;&gt;Node18 -->
<g id="edge17" class="edge"><title>Node17&#45;&gt;Node18</title>
<path fill="none" stroke="midnightblue" d="M199.678,-162.5C178.664,-162.5 156.219,-162.5 136.568,-162.5"/>
<polygon fill="midnightblue" stroke="midnightblue" points="199.861,-166 209.861,-162.5 199.861,-159 199.861,-166"/>
</g>
<!-- Node21 -->
<g id="node21" class="node"><title>Node21</title>
<g id="a_node21"><a xlink:href="../../d9/d87/class_dbg_1_1_c_script_debugger.html#ac340088be3743ae3ec9e58d6346869f7" target="_top" xlink:title=" ">
<polygon fill="white" stroke="black" points="219.5,-49.5 219.5,-79.5 332.5,-79.5 332.5,-49.5 219.5,-49.5"/>
<text text-anchor="start" x="227.5" y="-67.5" font-family="Helvetica,sans-Serif" font-size="10.00">Dbg::CScriptDebugger</text>
<text text-anchor="middle" x="276" y="-56.5" font-family="Helvetica,sans-Serif" font-size="10.00">::CScriptDebugger</text>
</a>
</g>
</g>
<!-- Node20&#45;&gt;Node21 -->
<g id="edge20" class="edge"><title>Node20&#45;&gt;Node21</title>
<path fill="none" stroke="midnightblue" d="M402.759,-64.5C379.763,-64.5 354.395,-64.5 332.503,-64.5"/>
<polygon fill="midnightblue" stroke="midnightblue" points="402.794,-68.0001 412.794,-64.5 402.794,-61.0001 402.794,-68.0001"/>
</g>
<!-- Node22 -->
<g id="node22" class="node"><title>Node22</title>
<g id="a_node22"><a xlink:href="../../d9/d87/class_dbg_1_1_c_script_debugger.html#a946edb71dfd55958d13f94cdd4c90c4d" target="_top" xlink:title=" ">
<polygon fill="white" stroke="black" points="219.5,-0.5 219.5,-30.5 332.5,-30.5 332.5,-0.5 219.5,-0.5"/>
<text text-anchor="start" x="227.5" y="-18.5" font-family="Helvetica,sans-Serif" font-size="10.00">Dbg::CScriptDebugger</text>
<text text-anchor="middle" x="276" y="-7.5" font-family="Helvetica,sans-Serif" font-size="10.00">::view_object</text>
</a>
</g>
</g>
<!-- Node20&#45;&gt;Node22 -->
<g id="edge21" class="edge"><title>Node20&#45;&gt;Node22</title>
<path fill="none" stroke="midnightblue" d="M403.068,-47.342C379.99,-41.513 354.494,-35.0731 332.503,-29.5189"/>
<polygon fill="midnightblue" stroke="midnightblue" points="402.241,-50.7429 412.794,-49.7984 403.955,-43.956 402.241,-50.7429"/>
</g>
<!-- Node23 -->
<g id="node23" class="node"><title>Node23</title>
<g id="a_node23"><a xlink:href="../../d9/d87/class_dbg_1_1_c_script_debugger.html#a17e5e068b0af8d31486d4ccd293eb06c" target="_top" xlink:title=" ">
<polygon fill="white" stroke="black" points="23.5,-0.5 23.5,-30.5 136.5,-30.5 136.5,-0.5 23.5,-0.5"/>
<text text-anchor="start" x="31.5" y="-18.5" font-family="Helvetica,sans-Serif" font-size="10.00">Dbg::CScriptDebugger</text>
<text text-anchor="middle" x="80" y="-7.5" font-family="Helvetica,sans-Serif" font-size="10.00">::left_button_down</text>
</a>
</g>
</g>
<!-- Node22&#45;&gt;Node23 -->
<g id="edge22" class="edge"><title>Node22&#45;&gt;Node23</title>
<path fill="none" stroke="midnightblue" d="M209.14,-15.5C185.558,-15.5 159.229,-15.5 136.601,-15.5"/>
<polygon fill="midnightblue" stroke="midnightblue" points="209.407,-19.0001 219.407,-15.5 209.407,-12.0001 209.407,-19.0001"/>
</g>
</g>
</svg>
        <g id="navigator" transform="translate(0 0)" fill="#404254">
                <rect fill="#f2f5e9" fill-opacity="0.5" stroke="#606060" stroke-width=".5" x="0" y="0" width="60" height="60"/>
                <use id="zoomplus" xlink:href="#zoomPlus" x="17" y="9" onmousedown="handleZoom(evt,'in')"/>
                <use id="zoomminus" xlink:href="#zoomMin" x="42" y="9" onmousedown="handleZoom(evt,'out')"/>
                <use id="reset" xlink:href="#resetDef" x="30" y="36" onmousedown="handleReset()"/>
                <g id="arrowUp" xlink:href="#dirArrow" transform="translate(30 24)" onmousedown="handlePan(0,-1)">
                  <use xlink:href="#rim" fill="#404040">
                        <set attributeName="fill" to="#808080" begin="arrowUp.mouseover" end="arrowUp.mouseout"/>
                  </use>
                  <path fill="none" stroke="white" stroke-width="1.5" d="M0,-3.0v7 M-2.5,-0.5L0,-3.0L2.5,-0.5"/>
                </g>
                <g id="arrowRight" xlink:href="#dirArrow" transform="rotate(90) translate(36 -43)" onmousedown="handlePan(1,0)">
                  <use xlink:href="#rim" fill="#404040">
                        <set attributeName="fill" to="#808080" begin="arrowRight.mouseover" end="arrowRight.mouseout"/>
                  </use>
                  <path fill="none" stroke="white" stroke-width="1.5" d="M0,-3.0v7 M-2.5,-0.5L0,-3.0L2.5,-0.5"/>
                </g>
                <g id="arrowDown" xlink:href="#dirArrow" transform="rotate(180) translate(-30 -48)" onmousedown="handlePan(0,1)">
                  <use xlink:href="#rim" fill="#404040">
                        <set attributeName="fill" to="#808080" begin="arrowDown.mouseover" end="arrowDown.mouseout"/>
                  </use>
                  <path fill="none" stroke="white" stroke-width="1.5" d="M0,-3.0v7 M-2.5,-0.5L0,-3.0L2.5,-0.5"/>
                </g>
                <g id="arrowLeft" xlink:href="#dirArrow" transform="rotate(270) translate(-36 17)" onmousedown="handlePan(-1,0)">
                  <use xlink:href="#rim" fill="#404040">
                        <set attributeName="fill" to="#808080" begin="arrowLeft.mouseover" end="arrowLeft.mouseout"/>
                  </use>
                  <path fill="none" stroke="white" stroke-width="1.5" d="M0,-3.0v7 M-2.5,-0.5L0,-3.0L2.5,-0.5"/>
                </g>
        </g>
        <svg viewBox="0 0 15 15" width="100%" height="30px" preserveAspectRatio="xMaxYMin meet">
         <g id="arrow_out" transform="scale(0.3 0.3)">
          <a xlink:href="class_obj_1_1_c_composite_object_a829eb7a89b2fb9ad64b95d810192211a_icgraph_org.svg" target="_base">
           <rect id="button" ry="5" rx="5" y="6" x="6" height="38" width="38"
                fill="#f2f5e9" fill-opacity="0.5" stroke="#606060" stroke-width="1.0"/>
           <path id="arrow"
             d="M 11.500037,31.436501 C 11.940474,20.09759 22.043105,11.32322 32.158766,21.979434 L 37.068811,17.246167 C 37.068811,17.246167 37.088388,32 37.088388,32 L 22.160133,31.978069 C 22.160133,31.978069 26.997745,27.140456 26.997745,27.140456 C 18.528582,18.264221 13.291696,25.230495 11.500037,31.436501 z"
             style="fill:#404040;"/>
          </a>
         </g>
        </svg>
</svg>
