<?xml version="1.0" encoding="UTF-8" standalone="no"?>
<!DOCTYPE svg PUBLIC "-//W3C//DTD SVG 1.1//EN"
 "http://www.w3.org/Graphics/SVG/1.1/DTD/svg11.dtd">
<!-- Generated by graphviz version 2.38.0 (20140413.2041)
 -->
<!-- Title: Nx::CFaceTexMassager::sAdjustTextureColors Pages: 1 -->
<svg width="498pt" height="102pt"
 viewBox="0.00 0.00 498.00 101.50" xmlns="http://www.w3.org/2000/svg" xmlns:xlink="http://www.w3.org/1999/xlink">
<g id="graph0" class="graph" transform="scale(1 1) rotate(0) translate(4 97.5)">
<title>Nx::CFaceTexMassager::sAdjustTextureColors</title>
<polygon fill="white" stroke="none" points="-4,4 -4,-97.5 494,-97.5 494,4 -4,4"/>
<!-- Node1 -->
<g id="node1" class="node"><title>Node1</title>
<g id="a_node1"><a xlink:title=" ">
<polygon fill="#bfbfbf" stroke="black" points="368,-38 368,-68 490,-68 490,-38 368,-38"/>
<text text-anchor="start" x="376" y="-56" font-family="Helvetica,sans-Serif" font-size="10.00">Nx::CFaceTexMassager</text>
<text text-anchor="middle" x="429" y="-45" font-family="Helvetica,sans-Serif" font-size="10.00">::sAdjustTextureColors</text>
</a>
</g>
</g>
<!-- Node2 -->
<g id="node2" class="node"><title>Node2</title>
<g id="a_node2"><a xlink:href="../../d1/d06/namespace_nx.html#a4faee499ae655c2c120c120f675b3447" target="_top" xlink:title=" ">
<polygon fill="white" stroke="black" points="190,-63 190,-93 332,-93 332,-63 190,-63"/>
<text text-anchor="start" x="198" y="-81" font-family="Helvetica,sans-Serif" font-size="10.00">Nx::ScriptAdjustFaceTexture</text>
<text text-anchor="middle" x="261" y="-70" font-family="Helvetica,sans-Serif" font-size="10.00">Colors</text>
</a>
</g>
</g>
<!-- Node1&#45;&gt;Node2 -->
<g id="edge1" class="edge"><title>Node1&#45;&gt;Node2</title>
<path fill="none" stroke="midnightblue" d="M357.499,-63.6176C349.127,-64.8784 340.582,-66.1653 332.215,-67.4255"/>
<polygon fill="midnightblue" stroke="midnightblue" points="358.233,-67.0466 367.601,-62.0963 357.191,-60.1246 358.233,-67.0466"/>
</g>
<!-- Node3 -->
<g id="node3" class="node"><title>Node3</title>
<g id="a_node3"><a xlink:href="../../d4/d5a/class_nx_1_1_c_face_tex_massager.html#a47a1f387f069594c45fb0e8c93868061" target="_top" xlink:title=" ">
<polygon fill="white" stroke="black" points="200,-14 200,-44 322,-44 322,-14 200,-14"/>
<text text-anchor="start" x="208" y="-32" font-family="Helvetica,sans-Serif" font-size="10.00">Nx::CFaceTexMassager</text>
<text text-anchor="middle" x="261" y="-21" font-family="Helvetica,sans-Serif" font-size="10.00">::sMassageTexture</text>
</a>
</g>
</g>
<!-- Node1&#45;&gt;Node3 -->
<g id="edge2" class="edge"><title>Node1&#45;&gt;Node3</title>
<path fill="none" stroke="midnightblue" d="M357.383,-42.7903C345.629,-41.091 333.537,-39.3426 322.076,-37.6858"/>
<polygon fill="midnightblue" stroke="midnightblue" points="357.203,-46.3006 367.601,-44.2676 358.204,-39.3726 357.203,-46.3006"/>
</g>
<!-- Node4 -->
<g id="node4" class="node"><title>Node4</title>
<g id="a_node4"><a xlink:href="../../d0/dea/class_nx_1_1_c_model.html#ae466409e518cc7ac161762b0dbc52ca3" target="_top" xlink:title=" ">
<polygon fill="white" stroke="black" points="1,-38.5 1,-57.5 153,-57.5 153,-38.5 1,-38.5"/>
<text text-anchor="middle" x="77" y="-45.5" font-family="Helvetica,sans-Serif" font-size="10.00">Nx::CModel::ApplyFaceTexture</text>
</a>
</g>
</g>
<!-- Node3&#45;&gt;Node4 -->
<g id="edge3" class="edge"><title>Node3&#45;&gt;Node4</title>
<path fill="none" stroke="midnightblue" d="M189.597,-36.3498C177.699,-37.5918 165.307,-38.8856 153.291,-40.14"/>
<polygon fill="midnightblue" stroke="midnightblue" points="190.319,-39.7934 199.902,-35.274 189.593,-32.8313 190.319,-39.7934"/>
</g>
<!-- Node5 -->
<g id="node5" class="node"><title>Node5</title>
<g id="a_node5"><a xlink:href="../../d1/d06/namespace_nx.html#a2ac6a34d5a5f8dc93d2c09aa28e111c4" target="_top" xlink:title=" ">
<polygon fill="white" stroke="black" points="0,-0.5 0,-19.5 154,-19.5 154,-0.5 0,-0.5"/>
<text text-anchor="middle" x="77" y="-7.5" font-family="Helvetica,sans-Serif" font-size="10.00">Nx::ScriptMassageFaceTexture</text>
</a>
</g>
</g>
<!-- Node3&#45;&gt;Node5 -->
<g id="edge4" class="edge"><title>Node3&#45;&gt;Node5</title>
<path fill="none" stroke="midnightblue" d="M189.814,-21.6729C178.171,-20.4574 166.047,-19.1918 154.263,-17.9615"/>
<polygon fill="midnightblue" stroke="midnightblue" points="189.593,-25.1687 199.902,-22.726 190.319,-18.2065 189.593,-25.1687"/>
</g>
</g>
</svg>
