<?xml version="1.0" encoding="UTF-8" standalone="no"?>
<!DOCTYPE svg PUBLIC "-//W3C//DTD SVG 1.1//EN"
 "http://www.w3.org/Graphics/SVG/1.1/DTD/svg11.dtd">
<!-- Generated by graphviz version 2.38.0 (20140413.2041)
 -->
<!-- Title: Nx::CXboxSector::plat_set_shatter Pages: 1 -->
<svg width="695pt" height="521pt"
 viewBox="0.00 0.00 695.00 521.32" xmlns="http://www.w3.org/2000/svg" xmlns:xlink="http://www.w3.org/1999/xlink">
<g id="graph0" class="graph" transform="scale(1 1) rotate(0) translate(4 517.317)">
<title>Nx::CXboxSector::plat_set_shatter</title>
<polygon fill="white" stroke="none" points="-4,4 -4,-517.317 691,-517.317 691,4 -4,4"/>
<!-- Node1 -->
<g id="node1" class="node"><title>Node1</title>
<g id="a_node1"><a xlink:title=" ">
<polygon fill="#bfbfbf" stroke="black" points="0,-384.121 0,-414.121 113,-414.121 113,-384.121 0,-384.121"/>
<text text-anchor="start" x="8" y="-402.121" font-family="Helvetica,sans-Serif" font-size="10.00">Nx::CXboxSector::plat</text>
<text text-anchor="middle" x="56.5" y="-391.121" font-family="Helvetica,sans-Serif" font-size="10.00">_set_shatter</text>
</a>
</g>
</g>
<!-- Node2 -->
<g id="node2" class="node"><title>Node2</title>
<g id="a_node2"><a xlink:href="../../d1/d06/namespace_nx.html#ab41ee1ecb5ff78e70bf949ffabcd31b3" target="_top" xlink:title=" ">
<polygon fill="white" stroke="black" points="149,-389.621 149,-408.621 215,-408.621 215,-389.621 149,-389.621"/>
<text text-anchor="middle" x="182" y="-396.621" font-family="Helvetica,sans-Serif" font-size="10.00">Nx::Shatter</text>
</a>
</g>
</g>
<!-- Node1&#45;&gt;Node2 -->
<g id="edge1" class="edge"><title>Node1&#45;&gt;Node2</title>
<path fill="none" stroke="midnightblue" d="M113.108,-399.121C121.751,-399.121 130.557,-399.121 138.838,-399.121"/>
<polygon fill="midnightblue" stroke="midnightblue" points="138.995,-402.621 148.995,-399.121 138.995,-395.621 138.995,-402.621"/>
</g>
<!-- Node3 -->
<g id="node3" class="node"><title>Node3</title>
<g id="a_node3"><a xlink:href="../../d5/dff/struct_nx_1_1s_tri_subdivide_stack.html#a069f809dd233e8a7d17f30c93c0041da" target="_top" xlink:title=" ">
<polygon fill="white" stroke="black" points="558.5,-447.121 558.5,-477.121 675.5,-477.121 675.5,-447.121 558.5,-447.121"/>
<text text-anchor="start" x="566.5" y="-465.121" font-family="Helvetica,sans-Serif" font-size="10.00">Nx::sTriSubdivideStack</text>
<text text-anchor="middle" x="617" y="-454.121" font-family="Helvetica,sans-Serif" font-size="10.00">::IsEmpty</text>
</a>
</g>
</g>
<!-- Node2&#45;&gt;Node3 -->
<g id="edge2" class="edge"><title>Node2&#45;&gt;Node3</title>
<path fill="none" stroke="midnightblue" d="M195.402,-408.866C224.406,-430.96 299.773,-484.391 373,-503.121 432.42,-518.319 450.726,-514.471 511,-503.121 533.539,-498.876 557.448,-489.925 576.748,-481.466"/>
<polygon fill="midnightblue" stroke="midnightblue" points="578.43,-484.547 586.107,-477.246 575.552,-478.166 578.43,-484.547"/>
</g>
<!-- Node4 -->
<g id="node4" class="node"><title>Node4</title>
<g id="a_node4"><a xlink:href="../../d1/d06/namespace_nx.html#a5e2a5cf88365eaac101aaced554c95f4" target="_top" xlink:title=" ">
<polygon fill="white" stroke="black" points="251,-244.621 251,-263.621 337,-263.621 337,-244.621 251,-244.621"/>
<text text-anchor="middle" x="294" y="-251.621" font-family="Helvetica,sans-Serif" font-size="10.00">Nx::plat_shatter</text>
</a>
</g>
</g>
<!-- Node2&#45;&gt;Node4 -->
<g id="edge3" class="edge"><title>Node2&#45;&gt;Node4</title>
<path fill="none" stroke="midnightblue" d="M190.217,-389.607C208.315,-365.752 255.854,-303.086 279.394,-272.056"/>
<polygon fill="midnightblue" stroke="midnightblue" points="282.356,-273.942 285.612,-263.86 276.779,-269.711 282.356,-273.942"/>
</g>
<!-- Node5 -->
<g id="node5" class="node"><title>Node5</title>
<g id="a_node5"><a xlink:href="../../d5/da4/class_nx_1_1_c_ngc_scene.html#aa5f47c07e889152b428639515cb2c98c" target="_top" xlink:title=" ">
<polygon fill="white" stroke="black" points="373,-261.121 373,-291.121 511,-291.121 511,-261.121 373,-261.121"/>
<text text-anchor="start" x="381" y="-279.121" font-family="Helvetica,sans-Serif" font-size="10.00">Nx::CNgcScene::GetEngine</text>
<text text-anchor="middle" x="442" y="-268.121" font-family="Helvetica,sans-Serif" font-size="10.00">Scene</text>
</a>
</g>
</g>
<!-- Node4&#45;&gt;Node5 -->
<g id="edge4" class="edge"><title>Node4&#45;&gt;Node5</title>
<path fill="none" stroke="midnightblue" d="M337.229,-260.484C345.306,-261.701 353.998,-263.011 362.792,-264.336"/>
<polygon fill="midnightblue" stroke="midnightblue" points="362.326,-267.805 372.736,-265.834 363.369,-260.883 362.326,-267.805"/>
</g>
<!-- Node6 -->
<g id="node6" class="node"><title>Node6</title>
<g id="a_node6"><a xlink:href="../../d1/d08/class_mth_1_1_vector.html#aa5879c6e3b01b313acdc899265a46247" target="_top" xlink:title=" ">
<polygon fill="white" stroke="black" points="394.5,-222.621 394.5,-241.621 489.5,-241.621 489.5,-222.621 394.5,-222.621"/>
<text text-anchor="middle" x="442" y="-229.621" font-family="Helvetica,sans-Serif" font-size="10.00">Mth::Vector::GetX</text>
</a>
</g>
</g>
<!-- Node4&#45;&gt;Node6 -->
<g id="edge5" class="edge"><title>Node4&#45;&gt;Node6</title>
<path fill="none" stroke="midnightblue" d="M337.229,-247.758C351.875,-245.551 368.544,-243.039 384.171,-240.684"/>
<polygon fill="midnightblue" stroke="midnightblue" points="384.892,-244.115 394.259,-239.164 383.849,-237.193 384.892,-244.115"/>
</g>
<!-- Node7 -->
<g id="node7" class="node"><title>Node7</title>
<g id="a_node7"><a xlink:href="../../d1/d08/class_mth_1_1_vector.html#a180cc532ba059d5717b486ae74170b13" target="_top" xlink:title=" ">
<polygon fill="white" stroke="black" points="394,-184.621 394,-203.621 490,-203.621 490,-184.621 394,-184.621"/>
<text text-anchor="middle" x="442" y="-191.621" font-family="Helvetica,sans-Serif" font-size="10.00">Mth::Vector::GetY</text>
</a>
</g>
</g>
<!-- Node4&#45;&gt;Node7 -->
<g id="edge6" class="edge"><title>Node4&#45;&gt;Node7</title>
<path fill="none" stroke="midnightblue" d="M310.664,-244.62C326.09,-235.572 350.537,-222.046 373,-213.121 378.906,-210.774 385.208,-208.599 391.505,-206.622"/>
<polygon fill="midnightblue" stroke="midnightblue" points="392.758,-209.9 401.336,-203.681 390.753,-203.193 392.758,-209.9"/>
</g>
<!-- Node8 -->
<g id="node8" class="node"><title>Node8</title>
<g id="a_node8"><a xlink:href="../../d1/d08/class_mth_1_1_vector.html#a09bf1a16a342e3424a5768a7f754d5ed" target="_top" xlink:title=" ">
<polygon fill="white" stroke="black" points="394.5,-146.621 394.5,-165.621 489.5,-165.621 489.5,-146.621 394.5,-146.621"/>
<text text-anchor="middle" x="442" y="-153.621" font-family="Helvetica,sans-Serif" font-size="10.00">Mth::Vector::GetZ</text>
</a>
</g>
</g>
<!-- Node4&#45;&gt;Node8 -->
<g id="edge7" class="edge"><title>Node4&#45;&gt;Node8</title>
<path fill="none" stroke="midnightblue" d="M301.781,-244.517C314.054,-227.855 341.609,-193.603 373,-175.121 376.684,-172.952 380.626,-171.021 384.688,-169.304"/>
<polygon fill="midnightblue" stroke="midnightblue" points="386.194,-172.477 394.317,-165.674 383.725,-165.927 386.194,-172.477"/>
</g>
<!-- Node9 -->
<g id="node9" class="node"><title>Node9</title>
<g id="a_node9"><a xlink:href="../../d1/d08/class_mth_1_1_vector.html#a88ad2190dc8bba653fc442dfed7c033a" target="_top" xlink:title=" ">
<polygon fill="white" stroke="black" points="390.5,-108.621 390.5,-127.621 493.5,-127.621 493.5,-108.621 390.5,-108.621"/>
<text text-anchor="middle" x="442" y="-115.621" font-family="Helvetica,sans-Serif" font-size="10.00">Mth::Vector::Length</text>
</a>
</g>
</g>
<!-- Node4&#45;&gt;Node9 -->
<g id="edge8" class="edge"><title>Node4&#45;&gt;Node9</title>
<path fill="none" stroke="midnightblue" d="M298.62,-244.565C307.596,-222.184 333.085,-166.079 373,-137.121 375.679,-135.177 378.549,-133.432 381.54,-131.866"/>
<polygon fill="midnightblue" stroke="midnightblue" points="383.135,-134.986 390.808,-127.681 380.254,-128.607 383.135,-134.986"/>
</g>
<!-- Node10 -->
<g id="node10" class="node"><title>Node10</title>
<g id="a_node10"><a xlink:href="../../d1/d08/class_mth_1_1_vector.html#ab77f5f45e45ad0f1ce8b7d7232a70cb1" target="_top" xlink:title=" ">
<polygon fill="white" stroke="black" points="558,-348.621 558,-367.621 676,-367.621 676,-348.621 558,-348.621"/>
<text text-anchor="middle" x="617" y="-355.621" font-family="Helvetica,sans-Serif" font-size="10.00">Mth::Vector::LengthSqr</text>
</a>
</g>
</g>
<!-- Node4&#45;&gt;Node10 -->
<g id="edge9" class="edge"><title>Node4&#45;&gt;Node10</title>
<path fill="none" stroke="midnightblue" d="M300.362,-263.669C311.285,-282.067 338.067,-322.109 373,-339.121 427.457,-365.64 496.986,-368.444 547.707,-365.761"/>
<polygon fill="midnightblue" stroke="midnightblue" points="548.145,-369.241 557.912,-365.135 547.716,-362.254 548.145,-369.241"/>
</g>
<!-- Node11 -->
<g id="node11" class="node"><title>Node11</title>
<g id="a_node11"><a xlink:href="../../d6/d68/vector_8h.html#aa8dd23593ab99fb4653d114770928441" target="_top" xlink:title=" ">
<polygon fill="white" stroke="black" points="412,-70.6208 412,-89.6208 472,-89.6208 472,-70.6208 412,-70.6208"/>
<text text-anchor="middle" x="442" y="-77.6208" font-family="Helvetica,sans-Serif" font-size="10.00">Normalize</text>
</a>
</g>
</g>
<!-- Node4&#45;&gt;Node11 -->
<g id="edge10" class="edge"><title>Node4&#45;&gt;Node11</title>
<path fill="none" stroke="midnightblue" d="M297.006,-244.411C303.16,-217.121 324.382,-139.126 373,-99.1208 381.164,-92.4033 391.545,-88.0555 401.724,-85.2432"/>
<polygon fill="midnightblue" stroke="midnightblue" points="402.798,-88.5868 411.744,-82.9118 401.211,-81.7689 402.798,-88.5868"/>
</g>
<!-- Node12 -->
<g id="node12" class="node"><title>Node12</title>
<g id="a_node12"><a xlink:href="../../d1/d08/class_mth_1_1_vector.html#ac68fbfe676c95bf1ada686076c00675a" target="_top" xlink:title=" ">
<polygon fill="white" stroke="black" points="383.5,-32.6208 383.5,-51.6208 500.5,-51.6208 500.5,-32.6208 383.5,-32.6208"/>
<text text-anchor="middle" x="442" y="-39.6208" font-family="Helvetica,sans-Serif" font-size="10.00">Mth::Vector::Normalize</text>
</a>
</g>
</g>
<!-- Node4&#45;&gt;Node12 -->
<g id="edge11" class="edge"><title>Node4&#45;&gt;Node12</title>
<path fill="none" stroke="midnightblue" d="M295.954,-244.404C299.577,-212.903 315.348,-112.673 373,-61.1208 374.745,-59.5608 376.607,-58.1277 378.561,-56.8114"/>
<polygon fill="midnightblue" stroke="midnightblue" points="380.594,-59.6848 387.622,-51.7561 377.184,-53.5718 380.594,-59.6848"/>
</g>
<!-- Node13 -->
<g id="node13" class="node"><title>Node13</title>
<g id="a_node13"><a xlink:href="../../d5/dff/struct_nx_1_1s_tri_subdivide_stack.html#a0e07d1659df8d858cc0e2baea8d80e48" target="_top" xlink:title=" ">
<polygon fill="white" stroke="black" points="558.5,-125.121 558.5,-155.121 675.5,-155.121 675.5,-125.121 558.5,-125.121"/>
<text text-anchor="start" x="566.5" y="-143.121" font-family="Helvetica,sans-Serif" font-size="10.00">Nx::sTriSubdivideStack</text>
<text text-anchor="middle" x="617" y="-132.121" font-family="Helvetica,sans-Serif" font-size="10.00">::Push</text>
</a>
</g>
</g>
<!-- Node4&#45;&gt;Node13 -->
<g id="edge12" class="edge"><title>Node4&#45;&gt;Node13</title>
<path fill="none" stroke="midnightblue" d="M294.698,-244.427C294.149,-207.798 297.693,-77.177 373,-23.1208 422.826,12.6445 454.99,1.87165 511,-23.1208 553.546,-42.1055 586.039,-87.7941 602.968,-116.133"/>
<polygon fill="midnightblue" stroke="midnightblue" points="600.068,-118.11 608.104,-125.014 606.128,-114.605 600.068,-118.11"/>
</g>
<!-- Node14 -->
<g id="node14" class="node"><title>Node14</title>
<g id="a_node14"><a xlink:href="../../d1/d08/class_mth_1_1_vector.html#a2d396f2bad86a77dc913a0afbcfc4da4" target="_top" xlink:title=" ">
<polygon fill="white" stroke="black" points="391,-474.621 391,-493.621 493,-493.621 493,-474.621 391,-474.621"/>
<text text-anchor="middle" x="442" y="-481.621" font-family="Helvetica,sans-Serif" font-size="10.00">Mth::Vector::Rotate</text>
</a>
</g>
</g>
<!-- Node4&#45;&gt;Node14 -->
<g id="edge13" class="edge"><title>Node4&#45;&gt;Node14</title>
<path fill="none" stroke="midnightblue" d="M295.574,-263.778C298.085,-297.042 310.966,-407.954 373,-465.121 375.649,-467.562 378.586,-469.693 381.711,-471.554"/>
<polygon fill="midnightblue" stroke="midnightblue" points="380.411,-474.815 390.926,-476.11 383.514,-468.541 380.411,-474.815"/>
</g>
<!-- Node15 -->
<g id="node15" class="node"><title>Node15</title>
<g id="a_node15"><a xlink:href="../../d1/d08/class_mth_1_1_vector.html#aeb3fc85704c5e3811b7dd4bebff78b3f" target="_top" xlink:title=" ">
<polygon fill="white" stroke="black" points="397.5,-436.621 397.5,-455.621 486.5,-455.621 486.5,-436.621 397.5,-436.621"/>
<text text-anchor="middle" x="442" y="-443.621" font-family="Helvetica,sans-Serif" font-size="10.00">Mth::Vector::Set</text>
</a>
</g>
</g>
<!-- Node4&#45;&gt;Node15 -->
<g id="edge14" class="edge"><title>Node4&#45;&gt;Node15</title>
<path fill="none" stroke="midnightblue" d="M296.426,-263.662C301.298,-292.832 320.024,-381.601 373,-427.121 377.3,-430.816 382.266,-433.795 387.516,-436.198"/>
<polygon fill="midnightblue" stroke="midnightblue" points="386.603,-439.597 397.193,-439.929 389.122,-433.066 386.603,-439.597"/>
</g>
<!-- Node16 -->
<g id="node16" class="node"><title>Node16</title>
<g id="a_node16"><a xlink:href="../../d5/dff/struct_nx_1_1s_tri_subdivide_stack.html#a9fcc3daafab02e93acfc7208fab31400" target="_top" xlink:title=" ">
<polygon fill="white" stroke="black" points="383.5,-387.121 383.5,-417.121 500.5,-417.121 500.5,-387.121 383.5,-387.121"/>
<text text-anchor="start" x="391.5" y="-405.121" font-family="Helvetica,sans-Serif" font-size="10.00">Nx::sTriSubdivideStack</text>
<text text-anchor="middle" x="442" y="-394.121" font-family="Helvetica,sans-Serif" font-size="10.00">::SetBlockSize</text>
</a>
</g>
</g>
<!-- Node4&#45;&gt;Node16 -->
<g id="edge15" class="edge"><title>Node4&#45;&gt;Node16</title>
<path fill="none" stroke="midnightblue" d="M299.031,-263.711C308.709,-285.696 335.282,-340.281 373,-372.121 377.485,-375.907 382.522,-379.294 387.775,-382.306"/>
<polygon fill="midnightblue" stroke="midnightblue" points="386.277,-385.472 396.758,-387.022 389.531,-379.275 386.277,-385.472"/>
</g>
<!-- Node17 -->
<g id="node17" class="node"><title>Node17</title>
<g id="a_node17"><a xlink:href="../../d1/d06/namespace_nx.html#a1e0c9b720e84f122f79eb108b1246615" target="_top" xlink:title=" ">
<polygon fill="white" stroke="black" points="383.5,-310.621 383.5,-329.621 500.5,-329.621 500.5,-310.621 383.5,-310.621"/>
<text text-anchor="middle" x="442" y="-317.621" font-family="Helvetica,sans-Serif" font-size="10.00">Nx::subdivide_tri_stack</text>
</a>
</g>
</g>
<!-- Node4&#45;&gt;Node17 -->
<g id="edge16" class="edge"><title>Node4&#45;&gt;Node17</title>
<path fill="none" stroke="midnightblue" d="M308.481,-263.797C323.569,-274.248 349.048,-290.785 373,-301.121 378.407,-303.454 384.18,-305.581 389.991,-307.497"/>
<polygon fill="midnightblue" stroke="midnightblue" points="389.16,-310.903 399.748,-310.52 391.232,-304.217 389.16,-310.903"/>
</g>
<!-- Node17&#45;&gt;Node3 -->
<g id="edge17" class="edge"><title>Node17&#45;&gt;Node3</title>
<path fill="none" stroke="midnightblue" d="M454.62,-329.658C482.018,-352.147 551.227,-408.955 589.512,-440.379"/>
<polygon fill="midnightblue" stroke="midnightblue" points="587.686,-443.409 597.636,-447.048 592.127,-437.998 587.686,-443.409"/>
</g>
<!-- Node17&#45;&gt;Node10 -->
<g id="edge18" class="edge"><title>Node17&#45;&gt;Node10</title>
<path fill="none" stroke="midnightblue" d="M486.655,-329.71C509.793,-334.792 538.402,-341.076 562.827,-346.441"/>
<polygon fill="midnightblue" stroke="midnightblue" points="562.141,-349.874 572.659,-348.601 563.642,-343.037 562.141,-349.874"/>
</g>
<!-- Node17&#45;&gt;Node13 -->
<g id="edge20" class="edge"><title>Node17&#45;&gt;Node13</title>
<path fill="none" stroke="midnightblue" d="M493.229,-310.611C499.55,-308.143 505.662,-305.035 511,-301.121 559.497,-265.561 591.748,-200.283 606.592,-164.749"/>
<polygon fill="midnightblue" stroke="midnightblue" points="609.969,-165.735 610.478,-155.152 603.481,-163.107 609.969,-165.735"/>
</g>
<!-- Node18 -->
<g id="node18" class="node"><title>Node18</title>
<g id="a_node18"><a xlink:href="../../d5/dff/struct_nx_1_1s_tri_subdivide_stack.html#a6a5dd06efdd0f4cd85a4073e8d5c28b5" target="_top" xlink:title=" ">
<polygon fill="white" stroke="black" points="547,-310.621 547,-329.621 687,-329.621 687,-310.621 547,-310.621"/>
<text text-anchor="middle" x="617" y="-317.621" font-family="Helvetica,sans-Serif" font-size="10.00">Nx::sTriSubdivideStack::Pop</text>
</a>
</g>
</g>
<!-- Node17&#45;&gt;Node18 -->
<g id="edge19" class="edge"><title>Node17&#45;&gt;Node18</title>
<path fill="none" stroke="midnightblue" d="M500.606,-320.121C512.202,-320.121 524.58,-320.121 536.764,-320.121"/>
<polygon fill="midnightblue" stroke="midnightblue" points="536.932,-323.621 546.932,-320.121 536.932,-316.621 536.932,-323.621"/>
</g>
</g>
</svg>
