<?xml version="1.0" encoding="UTF-8" standalone="no"?>
<!DOCTYPE svg PUBLIC "-//W3C//DTD SVG 1.1//EN"
 "http://www.w3.org/Graphics/SVG/1.1/DTD/svg11.dtd">
<!-- Generated by graphviz version 2.38.0 (20140413.2041)
 -->
<!-- Title: NxPs2::CImmediateMode::sGetTextureBlend Pages: 1 -->
<!--zoomable 764 -->
<svg id="main" version="1.1" xmlns="http://www.w3.org/2000/svg" xmlns:xlink="http://www.w3.org/1999/xlink" xml:space="preserve" onload="init(evt)">
<style type="text/css"><![CDATA[
.edge:hover path { stroke: red; }
.edge:hover polygon { stroke: red; fill: red; }
]]></style>
<script type="text/javascript"><![CDATA[
var edges = document.getElementsByTagName('g');
if (edges && edges.length) {
  for (var i=0;i<edges.length;i++) {
    if (edges[i].id.substr(0,4)=='edge') {
      edges[i].setAttribute('class','edge');
    }
  }
}
]]></script>
        <defs>
                <circle id="rim" cx="0" cy="0" r="7"/>
                <circle id="rim2" cx="0" cy="0" r="3.5"/>
                <g id="zoomPlus">
                        <use xlink:href="#rim" fill="#404040">
                                <set attributeName="fill" to="#808080" begin="zoomplus.mouseover" end="zoomplus.mouseout"/>
                        </use>
                        <path d="M-4,0h8M0,-4v8" fill="none" stroke="white" stroke-width="1.5" pointer-events="none"/>
                </g>
                <g id="zoomMin">
                        <use xlink:href="#rim" fill="#404040">
                                <set attributeName="fill" to="#808080" begin="zoomminus.mouseover" end="zoomminus.mouseout"/>
                        </use>
                        <path d="M-4,0h8" fill="none" stroke="white" stroke-width="1.5" pointer-events="none"/>
                </g>
                <g id="dirArrow">
                        <path fill="none" stroke="white" stroke-width="1.5" d="M0,-3.0v7 M-2.5,-0.5L0,-3.0L2.5,-0.5"/>
                </g>
               <g id="resetDef">
                       <use xlink:href="#rim2" fill="#404040">
                               <set attributeName="fill" to="#808080" begin="reset.mouseover" end="reset.mouseout"/>
                       </use>
               </g>
        </defs>

<script type="text/javascript">
var viewWidth = 339;
var viewHeight = 764;
var sectionId = 'dynsection-21';
</script>
<script xlink:href="../../svgpan.js"/>
<svg id="graph" class="graph">
<g id="viewport">
<title>NxPs2::CImmediateMode::sGetTextureBlend</title>
<polygon fill="white" stroke="none" points="-4,4 -4,-760 335,-760 335,4 -4,4"/>
<!-- Node1 -->
<g id="node1" class="node"><title>Node1</title>
<g id="a_node1"><a xlink:title=" ">
<polygon fill="#bfbfbf" stroke="black" points="203,-357.5 203,-387.5 331,-387.5 331,-357.5 203,-357.5"/>
<text text-anchor="start" x="211" y="-375.5" font-family="Helvetica,sans-Serif" font-size="10.00">NxPs2::CImmediateMode</text>
<text text-anchor="middle" x="267" y="-364.5" font-family="Helvetica,sans-Serif" font-size="10.00">::sGetTextureBlend</text>
</a>
</g>
</g>
<!-- Node2 -->
<g id="node2" class="node"><title>Node2</title>
<g id="a_node2"><a xlink:href="../../d0/d24/class_nx_1_1_c_ps2_particle_flat.html#a814482b3d1bbfab7f7f1cfa7178aec75" target="_top" xlink:title=" ">
<polygon fill="white" stroke="black" points="29.5,-725.5 29.5,-755.5 137.5,-755.5 137.5,-725.5 29.5,-725.5"/>
<text text-anchor="start" x="37.5" y="-743.5" font-family="Helvetica,sans-Serif" font-size="10.00">Nx::CPs2ParticleFlat</text>
<text text-anchor="middle" x="83.5" y="-732.5" font-family="Helvetica,sans-Serif" font-size="10.00">::CPs2ParticleFlat</text>
</a>
</g>
</g>
<!-- Node1&#45;&gt;Node2 -->
<g id="edge1" class="edge"><title>Node1&#45;&gt;Node2</title>
<path fill="none" stroke="midnightblue" d="M266.486,-397.981C266.255,-461.201 256.621,-626.621 167,-716.5 158.995,-724.528 148.472,-729.904 137.632,-733.496"/>
<polygon fill="midnightblue" stroke="midnightblue" points="269.985,-397.722 266.442,-387.737 262.985,-397.752 269.985,-397.722"/>
</g>
<!-- Node3 -->
<g id="node3" class="node"><title>Node3</title>
<g id="a_node3"><a xlink:href="../../d1/dcc/class_nx_1_1_c_ps2_particle_glow.html#a75550da588c198d947b108c04b98f015" target="_top" xlink:title=" ">
<polygon fill="white" stroke="black" points="27,-676.5 27,-706.5 140,-706.5 140,-676.5 27,-676.5"/>
<text text-anchor="start" x="35" y="-694.5" font-family="Helvetica,sans-Serif" font-size="10.00">Nx::CPs2ParticleGlow</text>
<text text-anchor="middle" x="83.5" y="-683.5" font-family="Helvetica,sans-Serif" font-size="10.00">::CPs2ParticleGlow</text>
</a>
</g>
</g>
<!-- Node1&#45;&gt;Node3 -->
<g id="edge2" class="edge"><title>Node1&#45;&gt;Node3</title>
<path fill="none" stroke="midnightblue" d="M265.057,-397.798C261.548,-454.493 244.998,-592.612 167,-667.5 159.576,-674.628 150.16,-679.658 140.366,-683.201"/>
<polygon fill="midnightblue" stroke="midnightblue" points="268.564,-397.759 265.599,-387.587 261.574,-397.388 268.564,-397.759"/>
</g>
<!-- Node4 -->
<g id="node4" class="node"><title>Node4</title>
<g id="a_node4"><a xlink:href="../../d2/deb/class_nx_1_1_c_ps2_particle_glow_ribbon_trail.html#a568d6c0e0e7d7ac20e3adaf82f69df5c" target="_top" xlink:title=" ">
<polygon fill="white" stroke="black" points="0,-627.5 0,-657.5 167,-657.5 167,-627.5 0,-627.5"/>
<text text-anchor="start" x="8" y="-645.5" font-family="Helvetica,sans-Serif" font-size="10.00">Nx::CPs2ParticleGlowRibbon</text>
<text text-anchor="middle" x="83.5" y="-634.5" font-family="Helvetica,sans-Serif" font-size="10.00">Trail::CPs2ParticleGlowRibbonTrail</text>
</a>
</g>
</g>
<!-- Node1&#45;&gt;Node4 -->
<g id="edge3" class="edge"><title>Node1&#45;&gt;Node4</title>
<path fill="none" stroke="midnightblue" d="M263.077,-398.017C255.998,-447.85 233.32,-558.472 167,-618.5 163.24,-621.903 159.023,-624.826 154.538,-627.336"/>
<polygon fill="midnightblue" stroke="midnightblue" points="266.587,-398.174 264.428,-387.802 259.647,-397.257 266.587,-398.174"/>
</g>
<!-- Node5 -->
<g id="node5" class="node"><title>Node5</title>
<g id="a_node5"><a xlink:href="../../d7/d63/class_nx_1_1_c_ps2_particle_line.html#aea7e326710eabd55b3840ecc833b6e74" target="_top" xlink:title=" ">
<polygon fill="white" stroke="black" points="28.5,-578.5 28.5,-608.5 138.5,-608.5 138.5,-578.5 28.5,-578.5"/>
<text text-anchor="start" x="36.5" y="-596.5" font-family="Helvetica,sans-Serif" font-size="10.00">Nx::CPs2ParticleLine</text>
<text text-anchor="middle" x="83.5" y="-585.5" font-family="Helvetica,sans-Serif" font-size="10.00">::CPs2ParticleLine</text>
</a>
</g>
</g>
<!-- Node1&#45;&gt;Node5 -->
<g id="edge4" class="edge"><title>Node1&#45;&gt;Node5</title>
<path fill="none" stroke="midnightblue" d="M260.327,-397.603C249.542,-439.517 222.077,-523.661 167,-569.5 158.86,-576.275 148.889,-581.138 138.729,-584.629"/>
<polygon fill="midnightblue" stroke="midnightblue" points="263.78,-398.217 262.771,-387.671 256.983,-396.544 263.78,-398.217"/>
</g>
<!-- Node6 -->
<g id="node6" class="node"><title>Node6</title>
<g id="a_node6"><a xlink:href="../../da/dc9/class_nx_1_1_c_ps2_particle_new_flat.html#a0f6f34738d942e0132d38f60d5f8fa21" target="_top" xlink:title=" ">
<polygon fill="white" stroke="black" points="20,-529.5 20,-559.5 147,-559.5 147,-529.5 20,-529.5"/>
<text text-anchor="start" x="28" y="-547.5" font-family="Helvetica,sans-Serif" font-size="10.00">Nx::CPs2ParticleNewFlat</text>
<text text-anchor="middle" x="83.5" y="-536.5" font-family="Helvetica,sans-Serif" font-size="10.00">::CPs2ParticleNewFlat</text>
</a>
</g>
</g>
<!-- Node1&#45;&gt;Node6 -->
<g id="edge5" class="edge"><title>Node1&#45;&gt;Node6</title>
<path fill="none" stroke="midnightblue" d="M256.077,-397.004C241.473,-429.981 211.072,-488.22 167,-520.5 160.983,-524.907 154.169,-528.508 147.1,-531.45"/>
<polygon fill="midnightblue" stroke="midnightblue" points="259.369,-398.207 260.099,-387.638 252.937,-395.445 259.369,-398.207"/>
</g>
<!-- Node7 -->
<g id="node7" class="node"><title>Node7</title>
<g id="a_node7"><a xlink:href="../../d5/dcc/class_nx_1_1_c_ps2_particle_ribbon.html#a01e01e61ff59f330d208868aebe5e7ce" target="_top" xlink:title=" ">
<polygon fill="white" stroke="black" points="22.5,-480.5 22.5,-510.5 144.5,-510.5 144.5,-480.5 22.5,-480.5"/>
<text text-anchor="start" x="30.5" y="-498.5" font-family="Helvetica,sans-Serif" font-size="10.00">Nx::CPs2ParticleRibbon</text>
<text text-anchor="middle" x="83.5" y="-487.5" font-family="Helvetica,sans-Serif" font-size="10.00">::CPs2ParticleRibbon</text>
</a>
</g>
</g>
<!-- Node1&#45;&gt;Node7 -->
<g id="edge6" class="edge"><title>Node1&#45;&gt;Node7</title>
<path fill="none" stroke="midnightblue" d="M248.664,-395.635C230.628,-418.14 200.39,-451.745 167,-471.5 160.067,-475.602 152.389,-479.041 144.587,-481.914"/>
<polygon fill="midnightblue" stroke="midnightblue" points="251.545,-397.634 254.961,-387.605 246.036,-393.314 251.545,-397.634"/>
</g>
<!-- Node8 -->
<g id="node8" class="node"><title>Node8</title>
<g id="a_node8"><a xlink:href="../../d7/d11/class_nx_1_1_c_ps2_particle_ribbon_trail.html#abc1fa68bab9932917ab504db939edbbb" target="_top" xlink:title=" ">
<polygon fill="white" stroke="black" points="13.5,-431.5 13.5,-461.5 153.5,-461.5 153.5,-431.5 13.5,-431.5"/>
<text text-anchor="start" x="21.5" y="-449.5" font-family="Helvetica,sans-Serif" font-size="10.00">Nx::CPs2ParticleRibbonTrail</text>
<text text-anchor="middle" x="83.5" y="-438.5" font-family="Helvetica,sans-Serif" font-size="10.00">::CPs2ParticleRibbonTrail</text>
</a>
</g>
</g>
<!-- Node1&#45;&gt;Node8 -->
<g id="edge7" class="edge"><title>Node1&#45;&gt;Node8</title>
<path fill="none" stroke="midnightblue" d="M230.353,-392.515C211.833,-402.393 188.608,-413.985 167,-422.5 158.812,-425.727 150.016,-428.741 141.327,-431.469"/>
<polygon fill="midnightblue" stroke="midnightblue" points="232.172,-395.511 239.307,-387.678 228.845,-389.352 232.172,-395.511"/>
</g>
<!-- Node9 -->
<g id="node9" class="node"><title>Node9</title>
<g id="a_node9"><a xlink:href="../../dc/d0c/class_nx_1_1_c_ps2_particle_shaded.html#af580ea1b812c154c05996f45b86abf0f" target="_top" xlink:title=" ">
<polygon fill="white" stroke="black" points="21,-382.5 21,-412.5 146,-412.5 146,-382.5 21,-382.5"/>
<text text-anchor="start" x="29" y="-400.5" font-family="Helvetica,sans-Serif" font-size="10.00">Nx::CPs2ParticleShaded</text>
<text text-anchor="middle" x="83.5" y="-389.5" font-family="Helvetica,sans-Serif" font-size="10.00">::CPs2ParticleShaded</text>
</a>
</g>
</g>
<!-- Node1&#45;&gt;Node9 -->
<g id="edge8" class="edge"><title>Node1&#45;&gt;Node9</title>
<path fill="none" stroke="midnightblue" d="M192.763,-382.588C177.344,-384.712 161.223,-386.932 146.275,-388.991"/>
<polygon fill="midnightblue" stroke="midnightblue" points="193.346,-386.041 202.775,-381.209 192.391,-379.106 193.346,-386.041"/>
</g>
<!-- Node10 -->
<g id="node10" class="node"><title>Node10</title>
<g id="a_node10"><a xlink:href="../../d0/d68/class_nx_1_1_c_ps2_particle_smooth.html#a4287e764f9b2cbe4d8ea574da5a31711" target="_top" xlink:title=" ">
<polygon fill="white" stroke="black" points="21,-333.5 21,-363.5 146,-363.5 146,-333.5 21,-333.5"/>
<text text-anchor="start" x="29" y="-351.5" font-family="Helvetica,sans-Serif" font-size="10.00">Nx::CPs2ParticleSmooth</text>
<text text-anchor="middle" x="83.5" y="-340.5" font-family="Helvetica,sans-Serif" font-size="10.00">::CPs2ParticleSmooth</text>
</a>
</g>
</g>
<!-- Node1&#45;&gt;Node10 -->
<g id="edge9" class="edge"><title>Node1&#45;&gt;Node10</title>
<path fill="none" stroke="midnightblue" d="M192.763,-362.816C177.344,-360.777 161.223,-358.645 146.275,-356.669"/>
<polygon fill="midnightblue" stroke="midnightblue" points="192.402,-366.298 202.775,-364.14 193.32,-359.359 192.402,-366.298"/>
</g>
<!-- Node11 -->
<g id="node11" class="node"><title>Node11</title>
<g id="a_node11"><a xlink:href="../../d6/d80/class_nx_1_1_c_ps2_particle_smooth_ribbon.html#ae1b816d7f0f51ec5b0ce639c0bdc3793" target="_top" xlink:title=" ">
<polygon fill="white" stroke="black" points="6,-284.5 6,-314.5 161,-314.5 161,-284.5 6,-284.5"/>
<text text-anchor="start" x="14" y="-302.5" font-family="Helvetica,sans-Serif" font-size="10.00">Nx::CPs2ParticleSmoothRibbon</text>
<text text-anchor="middle" x="83.5" y="-291.5" font-family="Helvetica,sans-Serif" font-size="10.00">::CPs2ParticleSmoothRibbon</text>
</a>
</g>
</g>
<!-- Node1&#45;&gt;Node11 -->
<g id="edge10" class="edge"><title>Node1&#45;&gt;Node11</title>
<path fill="none" stroke="midnightblue" d="M229.036,-352.864C210.686,-343.56 188.001,-332.714 167,-324.5 157.94,-320.956 148.163,-317.601 138.616,-314.566"/>
<polygon fill="midnightblue" stroke="midnightblue" points="227.441,-355.979 237.936,-357.427 230.634,-349.75 227.441,-355.979"/>
</g>
<!-- Node12 -->
<g id="node12" class="node"><title>Node12</title>
<g id="a_node12"><a xlink:href="../../d0/d2a/class_nx_1_1_c_ps2_particle_smooth_star.html#abe7086820691106ea4fb3e518a7af9e8" target="_top" xlink:title=" ">
<polygon fill="white" stroke="black" points="12,-235.5 12,-265.5 155,-265.5 155,-235.5 12,-235.5"/>
<text text-anchor="start" x="20" y="-253.5" font-family="Helvetica,sans-Serif" font-size="10.00">Nx::CPs2ParticleSmoothStar</text>
<text text-anchor="middle" x="83.5" y="-242.5" font-family="Helvetica,sans-Serif" font-size="10.00">::CPs2ParticleSmoothStar</text>
</a>
</g>
</g>
<!-- Node1&#45;&gt;Node12 -->
<g id="edge11" class="edge"><title>Node1&#45;&gt;Node12</title>
<path fill="none" stroke="midnightblue" d="M248.214,-349.557C230.031,-327.579 199.862,-294.963 167,-275.5 160.561,-271.687 153.491,-268.409 146.281,-265.604"/>
<polygon fill="midnightblue" stroke="midnightblue" points="245.562,-351.843 254.577,-357.41 251.001,-347.437 245.562,-351.843"/>
</g>
<!-- Node13 -->
<g id="node13" class="node"><title>Node13</title>
<g id="a_node13"><a xlink:href="../../d2/dfb/class_nx_1_1_c_ps2_particle_star.html#a6e4aeba0a319f2bc1b9852d192cc0630" target="_top" xlink:title=" ">
<polygon fill="white" stroke="black" points="28.5,-186.5 28.5,-216.5 138.5,-216.5 138.5,-186.5 28.5,-186.5"/>
<text text-anchor="start" x="36.5" y="-204.5" font-family="Helvetica,sans-Serif" font-size="10.00">Nx::CPs2ParticleStar</text>
<text text-anchor="middle" x="83.5" y="-193.5" font-family="Helvetica,sans-Serif" font-size="10.00">::CPs2ParticleStar</text>
</a>
</g>
</g>
<!-- Node1&#45;&gt;Node13 -->
<g id="edge12" class="edge"><title>Node1&#45;&gt;Node13</title>
<path fill="none" stroke="midnightblue" d="M255.708,-347.895C240.857,-315.358 210.36,-258.42 167,-226.5 158.563,-220.289 148.572,-215.606 138.507,-212.079"/>
<polygon fill="midnightblue" stroke="midnightblue" points="252.56,-349.431 259.811,-357.155 258.96,-346.595 252.56,-349.431"/>
</g>
<!-- Node14 -->
<g id="node14" class="node"><title>Node14</title>
<g id="a_node14"><a xlink:href="../../d2/dc7/class_nx_1_1_c_ps2_weather.html#a61d6657d0a6c4bdd36132dcb5af7b23d" target="_top" xlink:title=" ">
<polygon fill="white" stroke="black" points="2.5,-148 2.5,-167 164.5,-167 164.5,-148 2.5,-148"/>
<text text-anchor="middle" x="83.5" y="-155" font-family="Helvetica,sans-Serif" font-size="10.00">Nx::CPs2Weather::CPs2Weather</text>
</a>
</g>
</g>
<!-- Node1&#45;&gt;Node14 -->
<g id="edge13" class="edge"><title>Node1&#45;&gt;Node14</title>
<path fill="none" stroke="midnightblue" d="M260.469,-347.377C249.897,-305.481 222.737,-221.605 167,-177.5 161.568,-173.202 155.35,-169.808 148.817,-167.13"/>
<polygon fill="midnightblue" stroke="midnightblue" points="257.117,-348.407 262.861,-357.31 263.923,-346.768 257.117,-348.407"/>
</g>
<!-- Node15 -->
<g id="node15" class="node"><title>Node15</title>
<g id="a_node15"><a xlink:href="../../d2/dc7/class_nx_1_1_c_ps2_weather.html#a8d2e3887ca26122d3fadbdc4861e056c" target="_top" xlink:title=" ">
<polygon fill="white" stroke="black" points="25,-98.5 25,-128.5 142,-128.5 142,-98.5 25,-98.5"/>
<text text-anchor="start" x="33" y="-116.5" font-family="Helvetica,sans-Serif" font-size="10.00">Nx::CPs2Weather::plat</text>
<text text-anchor="middle" x="83.5" y="-105.5" font-family="Helvetica,sans-Serif" font-size="10.00">_set_rain_blend_mode</text>
</a>
</g>
</g>
<!-- Node1&#45;&gt;Node15 -->
<g id="edge14" class="edge"><title>Node1&#45;&gt;Node15</title>
<path fill="none" stroke="midnightblue" d="M262.462,-347.28C254.419,-299.484 230.294,-195.416 167,-138.5 159.878,-132.095 151.16,-127.331 142.091,-123.786"/>
<polygon fill="midnightblue" stroke="midnightblue" points="259.039,-348.046 264.059,-357.376 265.953,-346.952 259.039,-348.046"/>
</g>
<!-- Node16 -->
<g id="node16" class="node"><title>Node16</title>
<g id="a_node16"><a xlink:href="../../d2/dc7/class_nx_1_1_c_ps2_weather.html#a50a751cf2c3a58aa2a7538aeab733ae7" target="_top" xlink:title=" ">
<polygon fill="white" stroke="black" points="23,-49.5 23,-79.5 144,-79.5 144,-49.5 23,-49.5"/>
<text text-anchor="start" x="31" y="-67.5" font-family="Helvetica,sans-Serif" font-size="10.00">Nx::CPs2Weather::plat</text>
<text text-anchor="middle" x="83.5" y="-56.5" font-family="Helvetica,sans-Serif" font-size="10.00">_set_snow_blend_mode</text>
</a>
</g>
</g>
<!-- Node1&#45;&gt;Node16 -->
<g id="edge15" class="edge"><title>Node1&#45;&gt;Node16</title>
<path fill="none" stroke="midnightblue" d="M264.57,-347.156C260.084,-292.167 241.702,-161.108 167,-89.5 160.518,-83.2861 152.542,-78.6116 144.129,-75.0964"/>
<polygon fill="midnightblue" stroke="midnightblue" points="261.098,-347.673 265.313,-357.393 268.079,-347.166 261.098,-347.673"/>
</g>
<!-- Node17 -->
<g id="node17" class="node"><title>Node17</title>
<g id="a_node17"><a xlink:href="../../d2/dc7/class_nx_1_1_c_ps2_weather.html#a76fd80269717235b29d4520624d732bc" target="_top" xlink:title=" ">
<polygon fill="white" stroke="black" points="20,-0.5 20,-30.5 147,-30.5 147,-0.5 20,-0.5"/>
<text text-anchor="start" x="28" y="-18.5" font-family="Helvetica,sans-Serif" font-size="10.00">Nx::CPs2Weather::plat</text>
<text text-anchor="middle" x="83.5" y="-7.5" font-family="Helvetica,sans-Serif" font-size="10.00">_set_splash_blend_mode</text>
</a>
</g>
</g>
<!-- Node1&#45;&gt;Node17 -->
<g id="edge16" class="edge"><title>Node1&#45;&gt;Node17</title>
<path fill="none" stroke="midnightblue" d="M266.11,-347.141C264.96,-285.625 253.291,-127.174 167,-40.5 161.404,-34.8788 154.588,-30.5135 147.299,-27.1252"/>
<polygon fill="midnightblue" stroke="midnightblue" points="262.613,-347.497 266.218,-357.46 269.613,-347.424 262.613,-347.497"/>
</g>
</g>
</svg>
        <g id="navigator" transform="translate(0 0)" fill="#404254">
                <rect fill="#f2f5e9" fill-opacity="0.5" stroke="#606060" stroke-width=".5" x="0" y="0" width="60" height="60"/>
                <use id="zoomplus" xlink:href="#zoomPlus" x="17" y="9" onmousedown="handleZoom(evt,'in')"/>
                <use id="zoomminus" xlink:href="#zoomMin" x="42" y="9" onmousedown="handleZoom(evt,'out')"/>
                <use id="reset" xlink:href="#resetDef" x="30" y="36" onmousedown="handleReset()"/>
                <g id="arrowUp" xlink:href="#dirArrow" transform="translate(30 24)" onmousedown="handlePan(0,-1)">
                  <use xlink:href="#rim" fill="#404040">
                        <set attributeName="fill" to="#808080" begin="arrowUp.mouseover" end="arrowUp.mouseout"/>
                  </use>
                  <path fill="none" stroke="white" stroke-width="1.5" d="M0,-3.0v7 M-2.5,-0.5L0,-3.0L2.5,-0.5"/>
                </g>
                <g id="arrowRight" xlink:href="#dirArrow" transform="rotate(90) translate(36 -43)" onmousedown="handlePan(1,0)">
                  <use xlink:href="#rim" fill="#404040">
                        <set attributeName="fill" to="#808080" begin="arrowRight.mouseover" end="arrowRight.mouseout"/>
                  </use>
                  <path fill="none" stroke="white" stroke-width="1.5" d="M0,-3.0v7 M-2.5,-0.5L0,-3.0L2.5,-0.5"/>
                </g>
                <g id="arrowDown" xlink:href="#dirArrow" transform="rotate(180) translate(-30 -48)" onmousedown="handlePan(0,1)">
                  <use xlink:href="#rim" fill="#404040">
                        <set attributeName="fill" to="#808080" begin="arrowDown.mouseover" end="arrowDown.mouseout"/>
                  </use>
                  <path fill="none" stroke="white" stroke-width="1.5" d="M0,-3.0v7 M-2.5,-0.5L0,-3.0L2.5,-0.5"/>
                </g>
                <g id="arrowLeft" xlink:href="#dirArrow" transform="rotate(270) translate(-36 17)" onmousedown="handlePan(-1,0)">
                  <use xlink:href="#rim" fill="#404040">
                        <set attributeName="fill" to="#808080" begin="arrowLeft.mouseover" end="arrowLeft.mouseout"/>
                  </use>
                  <path fill="none" stroke="white" stroke-width="1.5" d="M0,-3.0v7 M-2.5,-0.5L0,-3.0L2.5,-0.5"/>
                </g>
        </g>
        <svg viewBox="0 0 15 15" width="100%" height="30px" preserveAspectRatio="xMaxYMin meet">
         <g id="arrow_out" transform="scale(0.3 0.3)">
          <a xlink:href="class_nx_ps2_1_1_c_immediate_mode_ac1a44eb9f99935febd9818b2172dbfad_icgraph_org.svg" target="_base">
           <rect id="button" ry="5" rx="5" y="6" x="6" height="38" width="38"
                fill="#f2f5e9" fill-opacity="0.5" stroke="#606060" stroke-width="1.0"/>
           <path id="arrow"
             d="M 11.500037,31.436501 C 11.940474,20.09759 22.043105,11.32322 32.158766,21.979434 L 37.068811,17.246167 C 37.068811,17.246167 37.088388,32 37.088388,32 L 22.160133,31.978069 C 22.160133,31.978069 26.997745,27.140456 26.997745,27.140456 C 18.528582,18.264221 13.291696,25.230495 11.500037,31.436501 z"
             style="fill:#404040;"/>
          </a>
         </g>
        </svg>
</svg>
