<?xml version="1.0" encoding="UTF-8" standalone="no"?>
<!DOCTYPE svg PUBLIC "-//W3C//DTD SVG 1.1//EN"
 "http://www.w3.org/Graphics/SVG/1.1/DTD/svg11.dtd">
<!-- Generated by graphviz version 2.38.0 (20140413.2041)
 -->
<!-- Title: Obj::CMotionComponent::LookAt_Init Pages: 1 -->
<!--zoomable 346 -->
<svg id="main" version="1.1" xmlns="http://www.w3.org/2000/svg" xmlns:xlink="http://www.w3.org/1999/xlink" xml:space="preserve" onload="init(evt)">
<style type="text/css"><![CDATA[
.edge:hover path { stroke: red; }
.edge:hover polygon { stroke: red; fill: red; }
]]></style>
<script type="text/javascript"><![CDATA[
var edges = document.getElementsByTagName('g');
if (edges && edges.length) {
  for (var i=0;i<edges.length;i++) {
    if (edges[i].id.substr(0,4)=='edge') {
      edges[i].setAttribute('class','edge');
    }
  }
}
]]></script>
        <defs>
                <circle id="rim" cx="0" cy="0" r="7"/>
                <circle id="rim2" cx="0" cy="0" r="3.5"/>
                <g id="zoomPlus">
                        <use xlink:href="#rim" fill="#404040">
                                <set attributeName="fill" to="#808080" begin="zoomplus.mouseover" end="zoomplus.mouseout"/>
                        </use>
                        <path d="M-4,0h8M0,-4v8" fill="none" stroke="white" stroke-width="1.5" pointer-events="none"/>
                </g>
                <g id="zoomMin">
                        <use xlink:href="#rim" fill="#404040">
                                <set attributeName="fill" to="#808080" begin="zoomminus.mouseover" end="zoomminus.mouseout"/>
                        </use>
                        <path d="M-4,0h8" fill="none" stroke="white" stroke-width="1.5" pointer-events="none"/>
                </g>
                <g id="dirArrow">
                        <path fill="none" stroke="white" stroke-width="1.5" d="M0,-3.0v7 M-2.5,-0.5L0,-3.0L2.5,-0.5"/>
                </g>
               <g id="resetDef">
                       <use xlink:href="#rim2" fill="#404040">
                               <set attributeName="fill" to="#808080" begin="reset.mouseover" end="reset.mouseout"/>
                       </use>
               </g>
        </defs>

<script type="text/javascript">
var viewWidth = 1158;
var viewHeight = 346;
var sectionId = 'dynsection-32';
</script>
<script xlink:href="../../svgpan.js"/>
<svg id="graph" class="graph">
<g id="viewport">
<title>Obj::CMotionComponent::LookAt_Init</title>
<polygon fill="white" stroke="none" points="-4,4 -4,-341.775 1154,-341.775 1154,4 -4,4"/>
<!-- Node1 -->
<g id="node1" class="node"><title>Node1</title>
<g id="a_node1"><a xlink:title=" ">
<polygon fill="#bfbfbf" stroke="black" points="0,-110.5 0,-140.5 123,-140.5 123,-110.5 0,-110.5"/>
<text text-anchor="start" x="8" y="-128.5" font-family="Helvetica,sans-Serif" font-size="10.00">Obj::CMotionComponent</text>
<text text-anchor="middle" x="61.5" y="-117.5" font-family="Helvetica,sans-Serif" font-size="10.00">::LookAt_Init</text>
</a>
</g>
</g>
<!-- Node2 -->
<g id="node2" class="node"><title>Node2</title>
<g id="a_node2"><a xlink:href="../../d2/df7/class_script_1_1_c_struct.html#acae6f1a5a02d406ab56292ec3fcfaefd" target="_top" xlink:title=" ">
<polygon fill="white" stroke="black" points="168,-192 168,-211 293,-211 293,-192 168,-192"/>
<text text-anchor="middle" x="230.5" y="-199" font-family="Helvetica,sans-Serif" font-size="10.00">Script::CStruct::GetFloat</text>
</a>
</g>
</g>
<!-- Node1&#45;&gt;Node2 -->
<g id="edge1" class="edge"><title>Node1&#45;&gt;Node2</title>
<path fill="none" stroke="midnightblue" d="M95.4938,-140.515C125.555,-154.196 169.607,-174.243 198.897,-187.573"/>
<polygon fill="midnightblue" stroke="midnightblue" points="197.671,-190.86 208.222,-191.817 200.57,-184.489 197.671,-190.86"/>
</g>
<!-- Node12 -->
<g id="node12" class="node"><title>Node12</title>
<g id="a_node12"><a xlink:href="../../d2/df7/class_script_1_1_c_struct.html#a1e85eee5e600de8358db26f6c777e42d" target="_top" xlink:title=" ">
<polygon fill="white" stroke="black" points="164.5,-238 164.5,-257 296.5,-257 296.5,-238 164.5,-238"/>
<text text-anchor="middle" x="230.5" y="-245" font-family="Helvetica,sans-Serif" font-size="10.00">Script::CStruct::GetInteger</text>
</a>
</g>
</g>
<!-- Node1&#45;&gt;Node12 -->
<g id="edge14" class="edge"><title>Node1&#45;&gt;Node12</title>
<path fill="none" stroke="midnightblue" d="M74.3994,-140.625C91.2699,-161.191 124.004,-197.987 159,-220.5 167.515,-225.978 177.311,-230.608 186.839,-234.404"/>
<polygon fill="midnightblue" stroke="midnightblue" points="185.628,-237.688 196.22,-237.922 188.086,-231.133 185.628,-237.688"/>
</g>
<!-- Node13 -->
<g id="node13" class="node"><title>Node13</title>
<g id="a_node13"><a xlink:href="../../d0/d7e/class_obj_1_1_c_base_component.html#a952f40d99323d28b3ca2f55567edfa85" target="_top" xlink:title=" ">
<polygon fill="white" stroke="black" points="346,-126.5 346,-156.5 462,-156.5 462,-126.5 346,-126.5"/>
<text text-anchor="start" x="354" y="-144.5" font-family="Helvetica,sans-Serif" font-size="10.00">Obj::CBaseComponent</text>
<text text-anchor="middle" x="404" y="-133.5" font-family="Helvetica,sans-Serif" font-size="10.00">::GetObject</text>
</a>
</g>
</g>
<!-- Node1&#45;&gt;Node13 -->
<g id="edge18" class="edge"><title>Node1&#45;&gt;Node13</title>
<path fill="none" stroke="midnightblue" d="M123.375,-128.36C183.08,-131.166 273.909,-135.434 335.726,-138.339"/>
<polygon fill="midnightblue" stroke="midnightblue" points="335.616,-141.837 345.77,-138.811 335.945,-134.845 335.616,-141.837"/>
</g>
<!-- Node14 -->
<g id="node14" class="node"><title>Node14</title>
<g id="a_node14"><a xlink:href="../../dd/df4/matrix_8h.html#ad393a55b0cd17b6dea798c49863e8de4" target="_top" xlink:title=" ">
<polygon fill="white" stroke="black" points="205.5,-50 205.5,-69 255.5,-69 255.5,-50 205.5,-50"/>
<text text-anchor="middle" x="230.5" y="-57" font-family="Helvetica,sans-Serif" font-size="10.00">GetPos</text>
</a>
</g>
</g>
<!-- Node1&#45;&gt;Node14 -->
<g id="edge19" class="edge"><title>Node1&#45;&gt;Node14</title>
<path fill="none" stroke="midnightblue" d="M89.7566,-110.496C108.756,-100.47 134.916,-87.5168 159,-78.5 170.661,-74.1342 183.753,-70.3214 195.46,-67.28"/>
<polygon fill="midnightblue" stroke="midnightblue" points="196.471,-70.6351 205.322,-64.8114 194.771,-63.8446 196.471,-70.6351"/>
</g>
<!-- Node15 -->
<g id="node15" class="node"><title>Node15</title>
<g id="a_node15"><a xlink:href="../../d2/d98/class_obj_1_1_c_motion_component.html#a62779d0738a087856969fbe40f021725" target="_top" xlink:title=" ">
<polygon fill="white" stroke="black" points="159,-0.5 159,-30.5 302,-30.5 302,-0.5 159,-0.5"/>
<text text-anchor="start" x="167" y="-18.5" font-family="Helvetica,sans-Serif" font-size="10.00">Obj::CMotionComponent</text>
<text text-anchor="middle" x="230.5" y="-7.5" font-family="Helvetica,sans-Serif" font-size="10.00">::SetCorrectRotationDirection</text>
</a>
</g>
</g>
<!-- Node1&#45;&gt;Node15 -->
<g id="edge20" class="edge"><title>Node1&#45;&gt;Node15</title>
<path fill="none" stroke="midnightblue" d="M76.1585,-110.337C93.7138,-91.6415 125.896,-59.9607 159,-40.5 162.589,-38.3899 166.386,-36.4162 170.281,-34.5778"/>
<polygon fill="midnightblue" stroke="midnightblue" points="171.746,-37.7569 179.497,-30.5334 168.933,-31.3469 171.746,-37.7569"/>
</g>
<!-- Node17 -->
<g id="node17" class="node"><title>Node17</title>
<g id="a_node17"><a xlink:href="../../d2/d98/class_obj_1_1_c_motion_component.html#ab690d473a8bf466ffbd6973bac77bbe7" target="_top" xlink:title=" ">
<polygon fill="white" stroke="black" points="169,-88.5 169,-118.5 292,-118.5 292,-88.5 169,-88.5"/>
<text text-anchor="start" x="177" y="-106.5" font-family="Helvetica,sans-Serif" font-size="10.00">Obj::CMotionComponent</text>
<text text-anchor="middle" x="230.5" y="-95.5" font-family="Helvetica,sans-Serif" font-size="10.00">::SetUpLookAtPos</text>
</a>
</g>
</g>
<!-- Node1&#45;&gt;Node17 -->
<g id="edge22" class="edge"><title>Node1&#45;&gt;Node17</title>
<path fill="none" stroke="midnightblue" d="M123.263,-117.495C134.732,-115.984 146.82,-114.392 158.569,-112.844"/>
<polygon fill="midnightblue" stroke="midnightblue" points="159.325,-116.275 168.782,-111.499 158.41,-109.335 159.325,-116.275"/>
</g>
<!-- Node3 -->
<g id="node3" class="node"><title>Node3</title>
<g id="a_node3"><a xlink:href="../../d1/d54/namespace_script.html#ae80ed69ea4edcbcbbbd4985a6efdcd6e" target="_top" xlink:title=" ">
<polygon fill="white" stroke="black" points="652,-233 652,-252 791,-252 791,-233 652,-233"/>
<text text-anchor="middle" x="721.5" y="-240" font-family="Helvetica,sans-Serif" font-size="10.00">Script::FindChecksumName</text>
</a>
</g>
</g>
<!-- Node2&#45;&gt;Node3 -->
<g id="edge2" class="edge"><title>Node2&#45;&gt;Node3</title>
<path fill="none" stroke="midnightblue" d="M293.38,-199.944C341.589,-199.295 410.156,-199.608 470,-204.5 535.829,-209.881 610.616,-222.023 661.204,-231.143"/>
<polygon fill="midnightblue" stroke="midnightblue" points="660.839,-234.634 671.304,-232.982 662.093,-227.748 660.839,-234.634"/>
</g>
<!-- Node7 -->
<g id="node7" class="node"><title>Node7</title>
<g id="a_node7"><a xlink:href="../../d1/d54/namespace_script.html#a0d003ee93577e31adb6597bce0002009" target="_top" xlink:title=" ">
<polygon fill="white" stroke="black" points="350.5,-214 350.5,-233 457.5,-233 457.5,-214 350.5,-214"/>
<text text-anchor="middle" x="404" y="-221" font-family="Helvetica,sans-Serif" font-size="10.00">Script::PrintContents</text>
</a>
</g>
</g>
<!-- Node2&#45;&gt;Node7 -->
<g id="edge6" class="edge"><title>Node2&#45;&gt;Node7</title>
<path fill="none" stroke="midnightblue" d="M293.415,-209.443C308.539,-211.383 324.737,-213.46 339.914,-215.407"/>
<polygon fill="midnightblue" stroke="midnightblue" points="339.869,-218.93 350.233,-216.731 340.759,-211.987 339.869,-218.93"/>
</g>
<!-- Node8 -->
<g id="node8" class="node"><title>Node8</title>
<g id="a_node8"><a xlink:href="../../d2/df7/class_script_1_1_c_struct.html#a1e05f0a66cff4a700fb67fdc117d2d7f" target="_top" xlink:title=" ">
<polygon fill="white" stroke="black" points="338,-252 338,-271 470,-271 470,-252 338,-252"/>
<text text-anchor="middle" x="404" y="-259" font-family="Helvetica,sans-Serif" font-size="10.00">Script::CStruct::search_for</text>
</a>
</g>
</g>
<!-- Node2&#45;&gt;Node8 -->
<g id="edge7" class="edge"><title>Node2&#45;&gt;Node8</title>
<path fill="none" stroke="midnightblue" d="M256.636,-211.091C270.098,-216.236 286.96,-222.696 302,-228.5 318.016,-234.681 321.746,-236.975 338,-242.5 344.582,-244.737 351.59,-246.954 358.477,-249.041"/>
<polygon fill="midnightblue" stroke="midnightblue" points="357.835,-252.502 368.418,-251.993 359.828,-245.791 357.835,-252.502"/>
</g>
<!-- Node4 -->
<g id="node4" class="node"><title>Node4</title>
<g id="a_node4"><a xlink:href="../../d1/d54/namespace_script.html#a5cc52c4ff5ea5bb27681d819212dfdca" target="_top" xlink:title=" ">
<polygon fill="white" stroke="black" points="827,-252 827,-271 990,-271 990,-252 827,-252"/>
<text text-anchor="middle" x="908.5" y="-259" font-family="Helvetica,sans-Serif" font-size="10.00">Script::FindChecksumNameNULL</text>
</a>
</g>
</g>
<!-- Node3&#45;&gt;Node4 -->
<g id="edge3" class="edge"><title>Node3&#45;&gt;Node4</title>
<path fill="none" stroke="midnightblue" d="M791.124,-249.548C799.476,-250.406 808.107,-251.292 816.717,-252.176"/>
<polygon fill="midnightblue" stroke="midnightblue" points="816.493,-255.672 826.798,-253.212 817.208,-248.708 816.493,-255.672"/>
</g>
<!-- Node6 -->
<g id="node6" class="node"><title>Node6</title>
<g id="a_node6"><a xlink:href="../../da/d37/namespace_dbg.html#ab406a8cc16de5046c7d9fd09c9de5e22" target="_top" xlink:title=" ">
<polygon fill="white" stroke="black" points="875.5,-214 875.5,-233 941.5,-233 941.5,-214 875.5,-214"/>
<text text-anchor="middle" x="908.5" y="-221" font-family="Helvetica,sans-Serif" font-size="10.00">Dbg::sprintf</text>
</a>
</g>
</g>
<!-- Node3&#45;&gt;Node6 -->
<g id="edge5" class="edge"><title>Node3&#45;&gt;Node6</title>
<path fill="none" stroke="midnightblue" d="M791.124,-235.452C815.98,-232.899 843.305,-230.093 865.228,-227.841"/>
<polygon fill="midnightblue" stroke="midnightblue" points="865.616,-231.32 875.206,-226.817 864.901,-224.357 865.616,-231.32"/>
</g>
<!-- Node5 -->
<g id="node5" class="node"><title>Node5</title>
<g id="a_node5"><a xlink:href="../../d0/d31/namespace_config.html#a709cc81780d49900157e3476b63aa25d" target="_top" xlink:title=" ">
<polygon fill="white" stroke="black" points="1026,-252 1026,-271 1150,-271 1150,-252 1026,-252"/>
<text text-anchor="middle" x="1088" y="-259" font-family="Helvetica,sans-Serif" font-size="10.00">Config::GotExtraMemory</text>
</a>
</g>
</g>
<!-- Node4&#45;&gt;Node5 -->
<g id="edge4" class="edge"><title>Node4&#45;&gt;Node5</title>
<path fill="none" stroke="midnightblue" d="M990.2,-261.5C998.729,-261.5 1007.36,-261.5 1015.77,-261.5"/>
<polygon fill="midnightblue" stroke="midnightblue" points="1015.9,-265 1025.9,-261.5 1015.9,-258 1015.9,-265"/>
</g>
<!-- Node8&#45;&gt;Node3 -->
<g id="edge8" class="edge"><title>Node8&#45;&gt;Node3</title>
<path fill="none" stroke="midnightblue" d="M446.033,-251.989C464.284,-248.224 486.103,-244.355 506,-242.5 550.778,-238.325 601.044,-238.089 641.655,-239.005"/>
<polygon fill="midnightblue" stroke="midnightblue" points="641.677,-242.506 651.762,-239.261 641.854,-235.508 641.677,-242.506"/>
</g>
<!-- Node8&#45;&gt;Node8 -->
<g id="edge13" class="edge"><title>Node8&#45;&gt;Node8</title>
<path fill="none" stroke="midnightblue" d="M379.956,-271.257C368.259,-280.065 376.273,-289.5 404,-289.5 422.196,-289.5 431.902,-285.437 433.119,-280.154"/>
<polygon fill="midnightblue" stroke="midnightblue" points="436.039,-278.209 428.044,-271.257 429.959,-281.677 436.039,-278.209"/>
</g>
<!-- Node9 -->
<g id="node9" class="node"><title>Node9</title>
<g id="a_node9"><a xlink:href="../../d1/d54/namespace_script.html#af32f99ba26ca0f255240413a4e23a754" target="_top" xlink:title=" ">
<polygon fill="white" stroke="black" points="506,-252 506,-271 616,-271 616,-252 506,-252"/>
<text text-anchor="middle" x="561" y="-259" font-family="Helvetica,sans-Serif" font-size="10.00">Script::GetTypeName</text>
</a>
</g>
</g>
<!-- Node8&#45;&gt;Node9 -->
<g id="edge9" class="edge"><title>Node8&#45;&gt;Node9</title>
<path fill="none" stroke="midnightblue" d="M470.285,-261.5C478.637,-261.5 487.184,-261.5 495.523,-261.5"/>
<polygon fill="midnightblue" stroke="midnightblue" points="495.566,-265 505.566,-261.5 495.566,-258 495.566,-265"/>
</g>
<!-- Node10 -->
<g id="node10" class="node"><title>Node10</title>
<g id="a_node10"><a xlink:href="../../d1/d54/namespace_script.html#a43181580ea5d38e4bf1aa19ccd5e9e85" target="_top" xlink:title=" ">
<polygon fill="white" stroke="black" points="520,-290 520,-309 602,-309 602,-290 520,-290"/>
<text text-anchor="middle" x="561" y="-297" font-family="Helvetica,sans-Serif" font-size="10.00">Script::Resolve</text>
</a>
</g>
</g>
<!-- Node8&#45;&gt;Node10 -->
<g id="edge10" class="edge"><title>Node8&#45;&gt;Node10</title>
<path fill="none" stroke="midnightblue" d="M444.113,-271.089C464.475,-276.081 489.566,-282.232 511.189,-287.533"/>
<polygon fill="midnightblue" stroke="midnightblue" points="510.622,-290.998 521.168,-289.98 512.289,-284.199 510.622,-290.998"/>
</g>
<!-- Node10&#45;&gt;Node3 -->
<g id="edge11" class="edge"><title>Node10&#45;&gt;Node3</title>
<path fill="none" stroke="midnightblue" d="M589.214,-289.987C597.791,-286.972 607.297,-283.613 616,-280.5 638.962,-272.286 664.709,-262.925 684.901,-255.55"/>
<polygon fill="midnightblue" stroke="midnightblue" points="686.14,-258.823 694.33,-252.102 683.736,-252.249 686.14,-258.823"/>
</g>
<!-- Node11 -->
<g id="node11" class="node"><title>Node11</title>
<g id="a_node11"><a xlink:href="../../d1/d54/namespace_script.html#af293a36c230b10de7d8151c2990b233b" target="_top" xlink:title=" ">
<polygon fill="white" stroke="black" points="664.5,-290 664.5,-309 778.5,-309 778.5,-290 664.5,-290"/>
<text text-anchor="middle" x="721.5" y="-297" font-family="Helvetica,sans-Serif" font-size="10.00">Script::LookUpSymbol</text>
</a>
</g>
</g>
<!-- Node10&#45;&gt;Node11 -->
<g id="edge12" class="edge"><title>Node10&#45;&gt;Node11</title>
<path fill="none" stroke="midnightblue" d="M602.406,-299.5C618.124,-299.5 636.549,-299.5 654.11,-299.5"/>
<polygon fill="midnightblue" stroke="midnightblue" points="654.322,-303 664.322,-299.5 654.322,-296 654.322,-303"/>
</g>
<!-- Node12&#45;&gt;Node3 -->
<g id="edge15" class="edge"><title>Node12&#45;&gt;Node3</title>
<path fill="none" stroke="midnightblue" d="M247.992,-257.028C302.691,-287.307 482.242,-376.034 616,-318.5 637.371,-309.308 633.613,-294.754 652,-280.5 663.734,-271.404 677.918,-263.155 690.328,-256.685"/>
<polygon fill="midnightblue" stroke="midnightblue" points="692.055,-259.734 699.402,-252.1 688.898,-253.486 692.055,-259.734"/>
</g>
<!-- Node12&#45;&gt;Node7 -->
<g id="edge16" class="edge"><title>Node12&#45;&gt;Node7</title>
<path fill="none" stroke="midnightblue" d="M296.826,-238.358C311.07,-236.365 326.113,-234.26 340.254,-232.281"/>
<polygon fill="midnightblue" stroke="midnightblue" points="340.949,-235.718 350.367,-230.866 339.978,-228.785 340.949,-235.718"/>
</g>
<!-- Node12&#45;&gt;Node8 -->
<g id="edge17" class="edge"><title>Node12&#45;&gt;Node8</title>
<path fill="none" stroke="midnightblue" d="M296.826,-252.833C306.907,-253.656 317.388,-254.511 327.667,-255.35"/>
<polygon fill="midnightblue" stroke="midnightblue" points="327.604,-258.857 337.856,-256.182 328.174,-251.88 327.604,-258.857"/>
</g>
<!-- Node16 -->
<g id="node16" class="node"><title>Node16</title>
<g id="a_node16"><a xlink:href="../../d5/db9/namespace_mth.html#a9d5105123d4f824fcab0a8e5b748774a" target="_top" xlink:title=" ">
<polygon fill="white" stroke="black" points="376,-6 376,-25 432,-25 432,-6 376,-6"/>
<text text-anchor="middle" x="404" y="-13" font-family="Helvetica,sans-Serif" font-size="10.00">Mth::Abs</text>
</a>
</g>
</g>
<!-- Node15&#45;&gt;Node16 -->
<g id="edge21" class="edge"><title>Node15&#45;&gt;Node16</title>
<path fill="none" stroke="midnightblue" d="M302.246,-15.5C323.943,-15.5 346.964,-15.5 365.515,-15.5"/>
<polygon fill="midnightblue" stroke="midnightblue" points="365.6,-19.0001 375.6,-15.5 365.6,-12.0001 365.6,-19.0001"/>
</g>
<!-- Node17&#45;&gt;Node13 -->
<g id="edge25" class="edge"><title>Node17&#45;&gt;Node13</title>
<path fill="none" stroke="midnightblue" d="M292.447,-117.004C306.606,-120.142 321.752,-123.498 336.15,-126.688"/>
<polygon fill="midnightblue" stroke="midnightblue" points="335.456,-130.119 345.977,-128.865 336.971,-123.285 335.456,-130.119"/>
</g>
<!-- Node18 -->
<g id="node18" class="node"><title>Node18</title>
<g id="a_node18"><a xlink:href="../../df/db1/math_8h.html#a0bc70d364c7f180aece2381faae7eafc" target="_top" xlink:title=" ">
<polygon fill="white" stroke="black" points="386.5,-88 386.5,-107 421.5,-107 421.5,-88 386.5,-88"/>
<text text-anchor="middle" x="404" y="-95" font-family="Helvetica,sans-Serif" font-size="10.00">fabs</text>
</a>
</g>
</g>
<!-- Node17&#45;&gt;Node18 -->
<g id="edge23" class="edge"><title>Node17&#45;&gt;Node18</title>
<path fill="none" stroke="midnightblue" d="M292.447,-101.368C321.075,-100.366 353.738,-99.2235 376.094,-98.4413"/>
<polygon fill="midnightblue" stroke="midnightblue" points="376.306,-101.936 386.177,-98.0885 376.061,-94.9404 376.306,-101.936"/>
</g>
<!-- Node19 -->
<g id="node19" class="node"><title>Node19</title>
<g id="a_node19"><a xlink:href="../../d5/db9/namespace_mth.html#ab20a7a389d2a6388ef6825d61b3b2322" target="_top" xlink:title=" ">
<polygon fill="white" stroke="black" points="364,-50 364,-69 444,-69 444,-50 364,-50"/>
<text text-anchor="middle" x="404" y="-57" font-family="Helvetica,sans-Serif" font-size="10.00">Mth::GetAngle</text>
</a>
</g>
</g>
<!-- Node17&#45;&gt;Node19 -->
<g id="edge24" class="edge"><title>Node17&#45;&gt;Node19</title>
<path fill="none" stroke="midnightblue" d="M290.041,-88.4808C311.639,-82.9396 335.806,-76.7393 356.227,-71.5001"/>
<polygon fill="midnightblue" stroke="midnightblue" points="357.107,-74.8878 365.923,-69.0124 355.367,-68.1074 357.107,-74.8878"/>
</g>
</g>
</svg>
        <g id="navigator" transform="translate(0 0)" fill="#404254">
                <rect fill="#f2f5e9" fill-opacity="0.5" stroke="#606060" stroke-width=".5" x="0" y="0" width="60" height="60"/>
                <use id="zoomplus" xlink:href="#zoomPlus" x="17" y="9" onmousedown="handleZoom(evt,'in')"/>
                <use id="zoomminus" xlink:href="#zoomMin" x="42" y="9" onmousedown="handleZoom(evt,'out')"/>
                <use id="reset" xlink:href="#resetDef" x="30" y="36" onmousedown="handleReset()"/>
                <g id="arrowUp" xlink:href="#dirArrow" transform="translate(30 24)" onmousedown="handlePan(0,-1)">
                  <use xlink:href="#rim" fill="#404040">
                        <set attributeName="fill" to="#808080" begin="arrowUp.mouseover" end="arrowUp.mouseout"/>
                  </use>
                  <path fill="none" stroke="white" stroke-width="1.5" d="M0,-3.0v7 M-2.5,-0.5L0,-3.0L2.5,-0.5"/>
                </g>
                <g id="arrowRight" xlink:href="#dirArrow" transform="rotate(90) translate(36 -43)" onmousedown="handlePan(1,0)">
                  <use xlink:href="#rim" fill="#404040">
                        <set attributeName="fill" to="#808080" begin="arrowRight.mouseover" end="arrowRight.mouseout"/>
                  </use>
                  <path fill="none" stroke="white" stroke-width="1.5" d="M0,-3.0v7 M-2.5,-0.5L0,-3.0L2.5,-0.5"/>
                </g>
                <g id="arrowDown" xlink:href="#dirArrow" transform="rotate(180) translate(-30 -48)" onmousedown="handlePan(0,1)">
                  <use xlink:href="#rim" fill="#404040">
                        <set attributeName="fill" to="#808080" begin="arrowDown.mouseover" end="arrowDown.mouseout"/>
                  </use>
                  <path fill="none" stroke="white" stroke-width="1.5" d="M0,-3.0v7 M-2.5,-0.5L0,-3.0L2.5,-0.5"/>
                </g>
                <g id="arrowLeft" xlink:href="#dirArrow" transform="rotate(270) translate(-36 17)" onmousedown="handlePan(-1,0)">
                  <use xlink:href="#rim" fill="#404040">
                        <set attributeName="fill" to="#808080" begin="arrowLeft.mouseover" end="arrowLeft.mouseout"/>
                  </use>
                  <path fill="none" stroke="white" stroke-width="1.5" d="M0,-3.0v7 M-2.5,-0.5L0,-3.0L2.5,-0.5"/>
                </g>
        </g>
        <svg viewBox="0 0 15 15" width="100%" height="30px" preserveAspectRatio="xMaxYMin meet">
         <g id="arrow_out" transform="scale(0.3 0.3)">
          <a xlink:href="class_obj_1_1_c_motion_component_a7a475a4b8fe05f0826c07987a128cb3c_cgraph_org.svg" target="_base">
           <rect id="button" ry="5" rx="5" y="6" x="6" height="38" width="38"
                fill="#f2f5e9" fill-opacity="0.5" stroke="#606060" stroke-width="1.0"/>
           <path id="arrow"
             d="M 11.500037,31.436501 C 11.940474,20.09759 22.043105,11.32322 32.158766,21.979434 L 37.068811,17.246167 C 37.068811,17.246167 37.088388,32 37.088388,32 L 22.160133,31.978069 C 22.160133,31.978069 26.997745,27.140456 26.997745,27.140456 C 18.528582,18.264221 13.291696,25.230495 11.500037,31.436501 z"
             style="fill:#404040;"/>
          </a>
         </g>
        </svg>
</svg>
