<?xml version="1.0" encoding="UTF-8" standalone="no"?>
<!DOCTYPE svg PUBLIC "-//W3C//DTD SVG 1.1//EN"
 "http://www.w3.org/Graphics/SVG/1.1/DTD/svg11.dtd">
<!-- Generated by graphviz version 2.38.0 (20140413.2041)
 -->
<!-- Title: Obj::CMotionComponent::QuatRot Pages: 1 -->
<svg width="436pt" height="142pt"
 viewBox="0.00 0.00 436.00 142.00" xmlns="http://www.w3.org/2000/svg" xmlns:xlink="http://www.w3.org/1999/xlink">
<g id="graph0" class="graph" transform="scale(1 1) rotate(0) translate(4 138)">
<title>Obj::CMotionComponent::QuatRot</title>
<polygon fill="white" stroke="none" points="-4,4 -4,-138 432,-138 432,4 -4,4"/>
<!-- Node1 -->
<g id="node1" class="node"><title>Node1</title>
<g id="a_node1"><a xlink:title=" ">
<polygon fill="#bfbfbf" stroke="black" points="0,-27 0,-57 123,-57 123,-27 0,-27"/>
<text text-anchor="start" x="8" y="-45" font-family="Helvetica,sans-Serif" font-size="10.00">Obj::CMotionComponent</text>
<text text-anchor="middle" x="61.5" y="-34" font-family="Helvetica,sans-Serif" font-size="10.00">::QuatRot</text>
</a>
</g>
</g>
<!-- Node2 -->
<g id="node2" class="node"><title>Node2</title>
<g id="a_node2"><a xlink:href="../../d7/d2a/class_mth_1_1_slerp_interpolator.html#a3c719458232ccc1f336ef075a094a03f" target="_top" xlink:title=" ">
<polygon fill="white" stroke="black" points="162,-52 162,-82 272,-82 272,-52 162,-52"/>
<text text-anchor="start" x="170" y="-70" font-family="Helvetica,sans-Serif" font-size="10.00">Mth::SlerpInterpolator</text>
<text text-anchor="middle" x="217" y="-59" font-family="Helvetica,sans-Serif" font-size="10.00">::getMatrix</text>
</a>
</g>
</g>
<!-- Node1&#45;&gt;Node2 -->
<g id="edge1" class="edge"><title>Node1&#45;&gt;Node2</title>
<path fill="none" stroke="midnightblue" d="M123.167,-51.8807C132.522,-53.4042 142.209,-54.982 151.641,-56.5181"/>
<polygon fill="midnightblue" stroke="midnightblue" points="151.314,-60.0109 161.747,-58.1639 152.439,-53.1019 151.314,-60.0109"/>
</g>
<!-- Node7 -->
<g id="node7" class="node"><title>Node7</title>
<g id="a_node7"><a xlink:href="../../d0/d7e/class_obj_1_1_c_base_component.html#a952f40d99323d28b3ca2f55567edfa85" target="_top" xlink:title=" ">
<polygon fill="white" stroke="black" points="159,-3 159,-33 275,-33 275,-3 159,-3"/>
<text text-anchor="start" x="167" y="-21" font-family="Helvetica,sans-Serif" font-size="10.00">Obj::CBaseComponent</text>
<text text-anchor="middle" x="217" y="-10" font-family="Helvetica,sans-Serif" font-size="10.00">::GetObject</text>
</a>
</g>
</g>
<!-- Node1&#45;&gt;Node7 -->
<g id="edge6" class="edge"><title>Node1&#45;&gt;Node7</title>
<path fill="none" stroke="midnightblue" d="M123.167,-32.5146C131.6,-31.1961 140.303,-29.8353 148.846,-28.4997"/>
<polygon fill="midnightblue" stroke="midnightblue" points="149.435,-31.9502 158.774,-26.9474 148.353,-25.0342 149.435,-31.9502"/>
</g>
<!-- Node3 -->
<g id="node3" class="node"><title>Node3</title>
<g id="a_node3"><a xlink:href="../../d9/d37/class_mth_1_1_matrix.html#a06a07c27b6ed6a037b5dfaaeb5ba6cb2" target="_top" xlink:title=" ">
<polygon fill="white" stroke="black" points="323,-114.5 323,-133.5 416,-133.5 416,-114.5 323,-114.5"/>
<text text-anchor="middle" x="369.5" y="-121.5" font-family="Helvetica,sans-Serif" font-size="10.00">Mth::Matrix::Ident</text>
</a>
</g>
</g>
<!-- Node2&#45;&gt;Node3 -->
<g id="edge2" class="edge"><title>Node2&#45;&gt;Node3</title>
<path fill="none" stroke="midnightblue" d="M253.106,-82.0105C270.424,-89.2445 291.692,-97.8748 311,-105 316.624,-107.075 322.595,-109.169 328.479,-111.169"/>
<polygon fill="midnightblue" stroke="midnightblue" points="327.63,-114.576 338.224,-114.428 329.85,-107.937 327.63,-114.576"/>
</g>
<!-- Node4 -->
<g id="node4" class="node"><title>Node4</title>
<g id="a_node4"><a xlink:href="../../d1/d08/class_mth_1_1_vector.html#ac68fbfe676c95bf1ada686076c00675a" target="_top" xlink:title=" ">
<polygon fill="white" stroke="black" points="311,-76.5 311,-95.5 428,-95.5 428,-76.5 311,-76.5"/>
<text text-anchor="middle" x="369.5" y="-83.5" font-family="Helvetica,sans-Serif" font-size="10.00">Mth::Vector::Normalize</text>
</a>
</g>
</g>
<!-- Node2&#45;&gt;Node4 -->
<g id="edge3" class="edge"><title>Node2&#45;&gt;Node4</title>
<path fill="none" stroke="midnightblue" d="M272.334,-73.8594C281.547,-75.0225 291.214,-76.243 300.721,-77.4432"/>
<polygon fill="midnightblue" stroke="midnightblue" points="300.585,-80.9537 310.945,-78.7339 301.462,-74.0089 300.585,-80.9537"/>
</g>
<!-- Node5 -->
<g id="node5" class="node"><title>Node5</title>
<g id="a_node5"><a xlink:href="../../d9/d37/class_mth_1_1_matrix.html#a2e63a42cd1760aa0aa6744cd2bd5a5aa" target="_top" xlink:title=" ">
<polygon fill="white" stroke="black" points="321,-38.5 321,-57.5 418,-57.5 418,-38.5 321,-38.5"/>
<text text-anchor="middle" x="369.5" y="-45.5" font-family="Helvetica,sans-Serif" font-size="10.00">Mth::Matrix::Scale</text>
</a>
</g>
</g>
<!-- Node2&#45;&gt;Node5 -->
<g id="edge4" class="edge"><title>Node2&#45;&gt;Node5</title>
<path fill="none" stroke="midnightblue" d="M272.334,-60.1406C284.824,-58.5637 298.149,-56.8815 310.777,-55.2873"/>
<polygon fill="midnightblue" stroke="midnightblue" points="311.243,-58.7563 320.726,-54.0313 310.366,-51.8115 311.243,-58.7563"/>
</g>
<!-- Node6 -->
<g id="node6" class="node"><title>Node6</title>
<g id="a_node6"><a xlink:href="../../d1/d08/class_mth_1_1_vector.html#a616824c24fa4d62c4dddb82628517bab" target="_top" xlink:title=" ">
<polygon fill="white" stroke="black" points="320.5,-0.5 320.5,-19.5 418.5,-19.5 418.5,-0.5 320.5,-0.5"/>
<text text-anchor="middle" x="369.5" y="-7.5" font-family="Helvetica,sans-Serif" font-size="10.00">Mth::Vector::Scale</text>
</a>
</g>
</g>
<!-- Node2&#45;&gt;Node6 -->
<g id="edge5" class="edge"><title>Node2&#45;&gt;Node6</title>
<path fill="none" stroke="midnightblue" d="M253.106,-51.9895C270.424,-44.7555 291.692,-36.1252 311,-29 316.624,-26.9247 322.595,-24.8314 328.479,-22.831"/>
<polygon fill="midnightblue" stroke="midnightblue" points="329.85,-26.063 338.224,-19.5718 327.63,-19.4244 329.85,-26.063"/>
</g>
</g>
</svg>
