<?xml version="1.0" encoding="UTF-8" standalone="no"?>
<!DOCTYPE svg PUBLIC "-//W3C//DTD SVG 1.1//EN"
 "http://www.w3.org/Graphics/SVG/1.1/DTD/svg11.dtd">
<!-- Generated by graphviz version 2.38.0 (20140413.2041)
 -->
<!-- Title: NxPs2::CInstance::SetTransform Pages: 1 -->
<svg width="348pt" height="78pt"
 viewBox="0.00 0.00 348.00 77.50" xmlns="http://www.w3.org/2000/svg" xmlns:xlink="http://www.w3.org/1999/xlink">
<g id="graph0" class="graph" transform="scale(1 1) rotate(0) translate(4 73.5)">
<title>NxPs2::CInstance::SetTransform</title>
<polygon fill="white" stroke="none" points="-4,4 -4,-73.5 344,-73.5 344,4 -4,4"/>
<!-- Node1 -->
<g id="node1" class="node"><title>Node1</title>
<g id="a_node1"><a xlink:title=" ">
<polygon fill="#bfbfbf" stroke="black" points="181,-28 181,-47 340,-47 340,-28 181,-28"/>
<text text-anchor="middle" x="260.5" y="-35" font-family="Helvetica,sans-Serif" font-size="10.00">NxPs2::CInstance::SetTransform</text>
</a>
</g>
</g>
<!-- Node2 -->
<g id="node2" class="node"><title>Node2</title>
<g id="a_node2"><a xlink:href="../../dd/da6/class_nx_ps2_1_1_c_instance.html#a05c9b4ae45119340b2f89c78204f38dd" target="_top" xlink:title=" ">
<polygon fill="white" stroke="black" points="0,-50 0,-69 145,-69 145,-50 0,-50"/>
<text text-anchor="middle" x="72.5" y="-57" font-family="Helvetica,sans-Serif" font-size="10.00">NxPs2::CInstance::CInstance</text>
</a>
</g>
</g>
<!-- Node1&#45;&gt;Node2 -->
<g id="edge1" class="edge"><title>Node1&#45;&gt;Node2</title>
<path fill="none" stroke="midnightblue" d="M170.792,-47.9924C162.156,-49.0138 153.47,-50.0411 145.034,-51.039"/>
<polygon fill="midnightblue" stroke="midnightblue" points="171.369,-51.4486 180.889,-46.7981 170.547,-44.497 171.369,-51.4486"/>
</g>
<!-- Node3 -->
<g id="node3" class="node"><title>Node3</title>
<g id="a_node3"><a xlink:href="../../de/d72/class_nx_1_1_c_ps2_geom.html#af8cfb7a9daa7bf5e6d521597b19df6e5" target="_top" xlink:title=" ">
<polygon fill="white" stroke="black" points="19,-0.5 19,-30.5 126,-30.5 126,-0.5 19,-0.5"/>
<text text-anchor="start" x="27" y="-18.5" font-family="Helvetica,sans-Serif" font-size="10.00">Nx::CPs2Geom::plat</text>
<text text-anchor="middle" x="72.5" y="-7.5" font-family="Helvetica,sans-Serif" font-size="10.00">_render</text>
</a>
</g>
</g>
<!-- Node1&#45;&gt;Node3 -->
<g id="edge2" class="edge"><title>Node1&#45;&gt;Node3</title>
<path fill="none" stroke="midnightblue" d="M170.89,-27.0193C155.614,-25.2124 140.179,-23.3868 126.24,-21.738"/>
<polygon fill="midnightblue" stroke="midnightblue" points="170.547,-30.503 180.889,-28.2019 171.369,-23.5514 170.547,-30.503"/>
</g>
</g>
</svg>
