<?xml version="1.0" encoding="UTF-8" standalone="no"?>
<!DOCTYPE svg PUBLIC "-//W3C//DTD SVG 1.1//EN"
 "http://www.w3.org/Graphics/SVG/1.1/DTD/svg11.dtd">
<!-- Generated by graphviz version 2.38.0 (20140413.2041)
 -->
<!-- Title: Nx::CPs2Geom::plat_clone Pages: 1 -->
<svg width="444pt" height="165pt"
 viewBox="0.00 0.00 444.00 164.50" xmlns="http://www.w3.org/2000/svg" xmlns:xlink="http://www.w3.org/1999/xlink">
<g id="graph0" class="graph" transform="scale(1 1) rotate(0) translate(4 160.5)">
<title>Nx::CPs2Geom::plat_clone</title>
<polygon fill="white" stroke="none" points="-4,4 -4,-160.5 440,-160.5 440,4 -4,4"/>
<!-- Node1 -->
<g id="node1" class="node"><title>Node1</title>
<g id="a_node1"><a xlink:title=" ">
<polygon fill="#bfbfbf" stroke="black" points="0,-71.5 0,-101.5 107,-101.5 107,-71.5 0,-71.5"/>
<text text-anchor="start" x="8" y="-89.5" font-family="Helvetica,sans-Serif" font-size="10.00">Nx::CPs2Geom::plat</text>
<text text-anchor="middle" x="53.5" y="-78.5" font-family="Helvetica,sans-Serif" font-size="10.00">_clone</text>
</a>
</g>
</g>
<!-- Node2 -->
<g id="node2" class="node"><title>Node2</title>
<g id="a_node2"><a xlink:href="../../de/d72/class_nx_1_1_c_ps2_geom.html#a485b75d9a86e639f8b845b083f0046ef" target="_top" xlink:title=" ">
<polygon fill="white" stroke="black" points="154.5,-137 154.5,-156 295.5,-156 295.5,-137 154.5,-137"/>
<text text-anchor="middle" x="225" y="-144" font-family="Helvetica,sans-Serif" font-size="10.00">Nx::CPs2Geom::CPs2Geom</text>
</a>
</g>
</g>
<!-- Node1&#45;&gt;Node2 -->
<g id="edge1" class="edge"><title>Node1&#45;&gt;Node2</title>
<path fill="none" stroke="midnightblue" d="M82.9848,-101.501C100.039,-110.023 122.35,-120.378 143,-127.5 150.393,-130.05 158.282,-132.371 166.126,-134.446"/>
<polygon fill="midnightblue" stroke="midnightblue" points="165.444,-137.884 175.997,-136.942 167.16,-131.097 165.444,-137.884"/>
</g>
<!-- Node4 -->
<g id="node4" class="node"><title>Node4</title>
<g id="a_node4"><a xlink:href="../../d6/da9/class_nx_ps2_1_1_c_geom_node.html#ad63f8584c6a3cd44c58ea91a5811ad91" target="_top" xlink:title=" ">
<polygon fill="white" stroke="black" points="143,-99 143,-118 307,-118 307,-99 143,-99"/>
<text text-anchor="middle" x="225" y="-106" font-family="Helvetica,sans-Serif" font-size="10.00">NxPs2::CGeomNode::CreateCopy</text>
</a>
</g>
</g>
<!-- Node1&#45;&gt;Node4 -->
<g id="edge3" class="edge"><title>Node1&#45;&gt;Node4</title>
<path fill="none" stroke="midnightblue" d="M107.202,-93.3403C117.875,-94.7257 129.344,-96.2142 140.775,-97.698"/>
<polygon fill="midnightblue" stroke="midnightblue" points="140.423,-101.182 150.791,-98.9979 141.324,-94.2398 140.423,-101.182"/>
</g>
<!-- Node5 -->
<g id="node5" class="node"><title>Node5</title>
<g id="a_node5"><a xlink:href="../../d6/da9/class_nx_ps2_1_1_c_geom_node.html#ab44f9076da2d5791ce54304c40e87df7" target="_top" xlink:title=" ">
<polygon fill="white" stroke="black" points="154,-49.5 154,-79.5 296,-79.5 296,-49.5 154,-49.5"/>
<text text-anchor="start" x="162" y="-67.5" font-family="Helvetica,sans-Serif" font-size="10.00">NxPs2::CGeomNode::Create</text>
<text text-anchor="middle" x="225" y="-56.5" font-family="Helvetica,sans-Serif" font-size="10.00">Instance</text>
</a>
</g>
</g>
<!-- Node1&#45;&gt;Node5 -->
<g id="edge4" class="edge"><title>Node1&#45;&gt;Node5</title>
<path fill="none" stroke="midnightblue" d="M107.202,-79.6597C118.857,-78.1468 131.462,-76.5109 143.93,-74.8925"/>
<polygon fill="midnightblue" stroke="midnightblue" points="144.414,-78.3592 153.88,-73.6011 143.513,-71.4174 144.414,-78.3592"/>
</g>
<!-- Node6 -->
<g id="node6" class="node"><title>Node6</title>
<g id="a_node6"><a xlink:href="../../dd/dd8/class_nx_1_1_c_ps2_scene.html#a2bce388b346a4b67d2a1f7e89b86cfb2" target="_top" xlink:title=" ">
<polygon fill="white" stroke="black" points="156,-0.5 156,-30.5 294,-30.5 294,-0.5 156,-0.5"/>
<text text-anchor="start" x="164" y="-18.5" font-family="Helvetica,sans-Serif" font-size="10.00">Nx::CPs2Scene::GetEngine</text>
<text text-anchor="middle" x="225" y="-7.5" font-family="Helvetica,sans-Serif" font-size="10.00">CloneScene</text>
</a>
</g>
</g>
<!-- Node1&#45;&gt;Node6 -->
<g id="edge5" class="edge"><title>Node1&#45;&gt;Node6</title>
<path fill="none" stroke="midnightblue" d="M80.629,-71.332C97.9445,-61.6805 121.373,-49.3736 143,-40.5 148.719,-38.1537 154.741,-35.9043 160.814,-33.7833"/>
<polygon fill="midnightblue" stroke="midnightblue" points="162.006,-37.075 170.361,-30.5604 159.767,-30.4426 162.006,-37.075"/>
</g>
<!-- Node3 -->
<g id="node3" class="node"><title>Node3</title>
<g id="a_node3"><a xlink:href="../../d9/d37/class_mth_1_1_matrix.html#a06a07c27b6ed6a037b5dfaaeb5ba6cb2" target="_top" xlink:title=" ">
<polygon fill="white" stroke="black" points="343,-137 343,-156 436,-156 436,-137 343,-137"/>
<text text-anchor="middle" x="389.5" y="-144" font-family="Helvetica,sans-Serif" font-size="10.00">Mth::Matrix::Ident</text>
</a>
</g>
</g>
<!-- Node2&#45;&gt;Node3 -->
<g id="edge2" class="edge"><title>Node2&#45;&gt;Node3</title>
<path fill="none" stroke="midnightblue" d="M295.858,-146.5C308.1,-146.5 320.694,-146.5 332.498,-146.5"/>
<polygon fill="midnightblue" stroke="midnightblue" points="332.64,-150 342.64,-146.5 332.64,-143 332.64,-150"/>
</g>
</g>
</svg>
