<?xml version="1.0" encoding="UTF-8" standalone="no"?>
<!DOCTYPE svg PUBLIC "-//W3C//DTD SVG 1.1//EN"
 "http://www.w3.org/Graphics/SVG/1.1/DTD/svg11.dtd">
<!-- Generated by graphviz version 2.38.0 (20140413.2041)
 -->
<!-- Title: Nx::CPs2Geom::plat_get_material_color Pages: 1 -->
<svg width="480pt" height="61pt"
 viewBox="0.00 0.00 480.00 61.00" xmlns="http://www.w3.org/2000/svg" xmlns:xlink="http://www.w3.org/1999/xlink">
<g id="graph0" class="graph" transform="scale(1 1) rotate(0) translate(4 57)">
<title>Nx::CPs2Geom::plat_get_material_color</title>
<polygon fill="white" stroke="none" points="-4,4 -4,-57 476,-57 476,4 -4,4"/>
<!-- Node1 -->
<g id="node1" class="node"><title>Node1</title>
<g id="a_node1"><a xlink:title=" ">
<polygon fill="#bfbfbf" stroke="black" points="0,-0.5 0,-30.5 107,-30.5 107,-0.5 0,-0.5"/>
<text text-anchor="start" x="8" y="-18.5" font-family="Helvetica,sans-Serif" font-size="10.00">Nx::CPs2Geom::plat</text>
<text text-anchor="middle" x="53.5" y="-7.5" font-family="Helvetica,sans-Serif" font-size="10.00">_get_material_color</text>
</a>
</g>
</g>
<!-- Node2 -->
<g id="node2" class="node"><title>Node2</title>
<g id="a_node2"><a xlink:href="../../dd/da6/class_nx_ps2_1_1_c_instance.html#a41096d8a8c685d1502eae2cf40bc1bbf" target="_top" xlink:title=" ">
<polygon fill="white" stroke="black" points="143,-22.5 143,-52.5 295,-52.5 295,-22.5 143,-22.5"/>
<text text-anchor="start" x="151" y="-40.5" font-family="Helvetica,sans-Serif" font-size="10.00">NxPs2::CInstance::GetMaterial</text>
<text text-anchor="middle" x="219" y="-29.5" font-family="Helvetica,sans-Serif" font-size="10.00">Color</text>
</a>
</g>
</g>
<!-- Node1&#45;&gt;Node2 -->
<g id="edge1" class="edge"><title>Node1&#45;&gt;Node2</title>
<path fill="none" stroke="midnightblue" d="M107.132,-22.582C115.407,-23.6955 124.14,-24.8705 132.924,-26.0524"/>
<polygon fill="midnightblue" stroke="midnightblue" points="132.464,-29.522 142.841,-27.3869 133.397,-22.5845 132.464,-29.522"/>
</g>
<!-- Node3 -->
<g id="node3" class="node"><title>Node3</title>
<g id="a_node3"><a xlink:href="../../dd/da6/class_nx_ps2_1_1_c_instance.html#a13770d4582c75ea62e3ac770b3f5e9b0" target="_top" xlink:title=" ">
<polygon fill="white" stroke="black" points="331,-0.5 331,-30.5 472,-30.5 472,-0.5 331,-0.5"/>
<text text-anchor="start" x="339" y="-18.5" font-family="Helvetica,sans-Serif" font-size="10.00">NxPs2::CInstance::HasColor</text>
<text text-anchor="middle" x="401.5" y="-7.5" font-family="Helvetica,sans-Serif" font-size="10.00">PerMaterial</text>
</a>
</g>
</g>
<!-- Node1&#45;&gt;Node3 -->
<g id="edge3" class="edge"><title>Node1&#45;&gt;Node3</title>
<path fill="none" stroke="midnightblue" d="M107.378,-14.1097C119.106,-13.8558 131.474,-13.6302 143,-13.5 210.551,-12.7368 227.447,-12.8597 295,-13.5 303.361,-13.5792 312.093,-13.6938 320.8,-13.8286"/>
<polygon fill="midnightblue" stroke="midnightblue" points="320.929,-17.331 330.985,-13.9951 321.043,-10.332 320.929,-17.331"/>
</g>
<!-- Node2&#45;&gt;Node3 -->
<g id="edge2" class="edge"><title>Node2&#45;&gt;Node3</title>
<path fill="none" stroke="midnightblue" d="M295.241,-28.3293C303.723,-27.2955 312.388,-26.2394 320.923,-25.1992"/>
<polygon fill="midnightblue" stroke="midnightblue" points="321.361,-28.6717 330.864,-23.9875 320.514,-21.7231 321.361,-28.6717"/>
</g>
</g>
</svg>
