<?xml version="1.0" encoding="UTF-8" standalone="no"?>
<!DOCTYPE svg PUBLIC "-//W3C//DTD SVG 1.1//EN"
 "http://www.w3.org/Graphics/SVG/1.1/DTD/svg11.dtd">
<!-- Generated by graphviz version 2.38.0 (20140413.2041)
 -->
<!-- Title: Nx::CPs2Geom::plat_get_color Pages: 1 -->
<svg width="482pt" height="110pt"
 viewBox="0.00 0.00 482.00 109.50" xmlns="http://www.w3.org/2000/svg" xmlns:xlink="http://www.w3.org/1999/xlink">
<g id="graph0" class="graph" transform="scale(1 1) rotate(0) translate(4 105.5)">
<title>Nx::CPs2Geom::plat_get_color</title>
<polygon fill="white" stroke="none" points="-4,4 -4,-105.5 478,-105.5 478,4 -4,4"/>
<!-- Node1 -->
<g id="node1" class="node"><title>Node1</title>
<g id="a_node1"><a xlink:title=" ">
<polygon fill="#bfbfbf" stroke="black" points="0,-33 0,-63 107,-63 107,-33 0,-33"/>
<text text-anchor="start" x="8" y="-51" font-family="Helvetica,sans-Serif" font-size="10.00">Nx::CPs2Geom::plat</text>
<text text-anchor="middle" x="53.5" y="-40" font-family="Helvetica,sans-Serif" font-size="10.00">_get_color</text>
</a>
</g>
</g>
<!-- Node2 -->
<g id="node2" class="node"><title>Node2</title>
<g id="a_node2"><a xlink:href="../../dd/da6/class_nx_ps2_1_1_c_instance.html#a73cee7523c0cbba587ff91293518eca9" target="_top" xlink:title=" ">
<polygon fill="white" stroke="black" points="150,-76.5 150,-95.5 290,-95.5 290,-76.5 150,-76.5"/>
<text text-anchor="middle" x="220" y="-83.5" font-family="Helvetica,sans-Serif" font-size="10.00">NxPs2::CInstance::GetColor</text>
</a>
</g>
</g>
<!-- Node1&#45;&gt;Node2 -->
<g id="edge1" class="edge"><title>Node1&#45;&gt;Node2</title>
<path fill="none" stroke="midnightblue" d="M107.001,-60.1279C126.458,-64.6226 148.482,-69.7102 167.82,-74.1773"/>
<polygon fill="midnightblue" stroke="midnightblue" points="167.129,-77.6096 177.66,-76.4503 168.704,-70.7892 167.129,-77.6096"/>
</g>
<!-- Node4 -->
<g id="node4" class="node"><title>Node4</title>
<g id="a_node4"><a xlink:href="../../d6/da9/class_nx_ps2_1_1_c_geom_node.html#a2319f4b4508a39a749108acca4e69294" target="_top" xlink:title=" ">
<polygon fill="white" stroke="black" points="144,-38.5 144,-57.5 296,-57.5 296,-38.5 144,-38.5"/>
<text text-anchor="middle" x="220" y="-45.5" font-family="Helvetica,sans-Serif" font-size="10.00">NxPs2::CGeomNode::GetColor</text>
</a>
</g>
</g>
<!-- Node1&#45;&gt;Node4 -->
<g id="edge3" class="edge"><title>Node1&#45;&gt;Node4</title>
<path fill="none" stroke="midnightblue" d="M107.001,-48C115.541,-48 124.575,-48 133.659,-48"/>
<polygon fill="midnightblue" stroke="midnightblue" points="133.914,-51.5001 143.914,-48 133.913,-44.5001 133.914,-51.5001"/>
</g>
<!-- Node5 -->
<g id="node5" class="node"><title>Node5</title>
<g id="a_node5"><a xlink:href="../../d6/da9/class_nx_ps2_1_1_c_geom_node.html#a30face1db43b73c190288e95dc31cbfe" target="_top" xlink:title=" ">
<polygon fill="white" stroke="black" points="143,-0.5 143,-19.5 297,-19.5 297,-0.5 143,-0.5"/>
<text text-anchor="middle" x="220" y="-7.5" font-family="Helvetica,sans-Serif" font-size="10.00">NxPs2::CGeomNode::IsColored</text>
</a>
</g>
</g>
<!-- Node1&#45;&gt;Node5 -->
<g id="edge4" class="edge"><title>Node1&#45;&gt;Node5</title>
<path fill="none" stroke="midnightblue" d="M107.001,-35.8721C126.458,-31.3774 148.482,-26.2898 167.82,-21.8227"/>
<polygon fill="midnightblue" stroke="midnightblue" points="168.704,-25.2108 177.66,-19.5497 167.129,-18.3904 168.704,-25.2108"/>
</g>
<!-- Node3 -->
<g id="node3" class="node"><title>Node3</title>
<g id="a_node3"><a xlink:href="../../dd/da6/class_nx_ps2_1_1_c_instance.html#a13770d4582c75ea62e3ac770b3f5e9b0" target="_top" xlink:title=" ">
<polygon fill="white" stroke="black" points="333,-71 333,-101 474,-101 474,-71 333,-71"/>
<text text-anchor="start" x="341" y="-89" font-family="Helvetica,sans-Serif" font-size="10.00">NxPs2::CInstance::HasColor</text>
<text text-anchor="middle" x="403.5" y="-78" font-family="Helvetica,sans-Serif" font-size="10.00">PerMaterial</text>
</a>
</g>
</g>
<!-- Node2&#45;&gt;Node3 -->
<g id="edge2" class="edge"><title>Node2&#45;&gt;Node3</title>
<path fill="none" stroke="midnightblue" d="M290.135,-86C300.764,-86 311.812,-86 322.65,-86"/>
<polygon fill="midnightblue" stroke="midnightblue" points="322.956,-89.5001 332.956,-86 322.956,-82.5001 322.956,-89.5001"/>
</g>
</g>
</svg>
