<?xml version="1.0" encoding="UTF-8" standalone="no"?>
<!DOCTYPE svg PUBLIC "-//W3C//DTD SVG 1.1//EN"
 "http://www.w3.org/Graphics/SVG/1.1/DTD/svg11.dtd">
<!-- Generated by graphviz version 2.38.0 (20140413.2041)
 -->
<!-- Title: Nx::CPs2Geom::plat_clear_color Pages: 1 -->
<svg width="642pt" height="232pt"
 viewBox="0.00 0.00 642.00 231.88" xmlns="http://www.w3.org/2000/svg" xmlns:xlink="http://www.w3.org/1999/xlink">
<g id="graph0" class="graph" transform="scale(1 1) rotate(0) translate(4 227.884)">
<title>Nx::CPs2Geom::plat_clear_color</title>
<polygon fill="white" stroke="none" points="-4,4 -4,-227.884 638,-227.884 638,4 -4,4"/>
<!-- Node1 -->
<g id="node1" class="node"><title>Node1</title>
<g id="a_node1"><a xlink:title=" ">
<polygon fill="#bfbfbf" stroke="black" points="0,-18.884 0,-48.884 107,-48.884 107,-18.884 0,-18.884"/>
<text text-anchor="start" x="8" y="-36.884" font-family="Helvetica,sans-Serif" font-size="10.00">Nx::CPs2Geom::plat</text>
<text text-anchor="middle" x="53.5" y="-25.884" font-family="Helvetica,sans-Serif" font-size="10.00">_clear_color</text>
</a>
</g>
</g>
<!-- Node2 -->
<g id="node2" class="node"><title>Node2</title>
<g id="a_node2"><a xlink:href="../../de/d72/class_nx_1_1_c_ps2_geom.html#a212947bd62e879cc9ede0eb6634aca86" target="_top" xlink:title=" ">
<polygon fill="white" stroke="black" points="143,-78.884 143,-108.884 250,-108.884 250,-78.884 143,-78.884"/>
<text text-anchor="start" x="151" y="-96.884" font-family="Helvetica,sans-Serif" font-size="10.00">Nx::CPs2Geom::plat</text>
<text text-anchor="middle" x="196.5" y="-85.884" font-family="Helvetica,sans-Serif" font-size="10.00">_set_color</text>
</a>
</g>
</g>
<!-- Node1&#45;&gt;Node2 -->
<g id="edge1" class="edge"><title>Node1&#45;&gt;Node2</title>
<path fill="none" stroke="midnightblue" d="M90.0803,-49.0245C108.449,-56.841 131.049,-66.458 150.606,-74.7803"/>
<polygon fill="midnightblue" stroke="midnightblue" points="149.359,-78.0532 159.931,-78.7483 152.1,-71.6121 149.359,-78.0532"/>
</g>
<!-- Node7 -->
<g id="node7" class="node"><title>Node7</title>
<g id="a_node7"><a xlink:href="../../d6/da9/class_nx_ps2_1_1_c_geom_node.html#adfa64cb1387443b7d39e4e2af9d6cf35" target="_top" xlink:title=" ">
<polygon fill="white" stroke="black" points="473,-2.38396 473,-21.384 634,-21.384 634,-2.38396 473,-2.38396"/>
<text text-anchor="middle" x="553.5" y="-9.38396" font-family="Helvetica,sans-Serif" font-size="10.00">NxPs2::CGeomNode::SetColored</text>
</a>
</g>
</g>
<!-- Node1&#45;&gt;Node7 -->
<g id="edge11" class="edge"><title>Node1&#45;&gt;Node7</title>
<path fill="none" stroke="midnightblue" d="M107.167,-24.7966C153.958,-17.2103 224.299,-6.9968 286,-2.88396 352.963,1.57957 369.94,-0.275174 437,-2.88396 445.306,-3.20708 453.94,-3.66043 462.581,-4.19355"/>
<polygon fill="midnightblue" stroke="midnightblue" points="462.501,-7.69566 472.707,-4.853 462.956,-0.710456 462.501,-7.69566"/>
</g>
<!-- Node3 -->
<g id="node3" class="node"><title>Node3</title>
<g id="a_node3"><a xlink:href="../../dd/da6/class_nx_ps2_1_1_c_instance.html#a210b673c8736d5d8de400835f7f4a6aa" target="_top" xlink:title=" ">
<polygon fill="white" stroke="black" points="289,-204.384 289,-223.384 434,-223.384 434,-204.384 289,-204.384"/>
<text text-anchor="middle" x="361.5" y="-211.384" font-family="Helvetica,sans-Serif" font-size="10.00">NxPs2::CInstance::GetScene</text>
</a>
</g>
</g>
<!-- Node2&#45;&gt;Node3 -->
<g id="edge2" class="edge"><title>Node2&#45;&gt;Node3</title>
<path fill="none" stroke="midnightblue" d="M207.673,-109.136C222.498,-130.227 252.004,-168.15 286,-189.884 292.837,-194.255 300.538,-197.893 308.329,-200.902"/>
<polygon fill="midnightblue" stroke="midnightblue" points="307.228,-204.225 317.823,-204.267 309.567,-197.627 307.228,-204.225"/>
</g>
<!-- Node4 -->
<g id="node4" class="node"><title>Node4</title>
<g id="a_node4"><a xlink:href="../../dd/da6/class_nx_ps2_1_1_c_instance.html#a13770d4582c75ea62e3ac770b3f5e9b0" target="_top" xlink:title=" ">
<polygon fill="white" stroke="black" points="483,-122.884 483,-152.884 624,-152.884 624,-122.884 483,-122.884"/>
<text text-anchor="start" x="491" y="-140.884" font-family="Helvetica,sans-Serif" font-size="10.00">NxPs2::CInstance::HasColor</text>
<text text-anchor="middle" x="553.5" y="-129.884" font-family="Helvetica,sans-Serif" font-size="10.00">PerMaterial</text>
</a>
</g>
</g>
<!-- Node2&#45;&gt;Node4 -->
<g id="edge3" class="edge"><title>Node2&#45;&gt;Node4</title>
<path fill="none" stroke="midnightblue" d="M212.459,-109.081C228.845,-124.544 256.717,-147.526 286,-156.884 353.383,-178.418 435.062,-167.552 490.089,-155.247"/>
<polygon fill="midnightblue" stroke="midnightblue" points="491.093,-158.607 500.045,-152.94 489.513,-151.788 491.093,-158.607"/>
</g>
<!-- Node5 -->
<g id="node5" class="node"><title>Node5</title>
<g id="a_node5"><a xlink:href="../../dd/da6/class_nx_ps2_1_1_c_instance.html#a632448faec5fddd61de27b55c47e0af2" target="_top" xlink:title=" ">
<polygon fill="white" stroke="black" points="292,-128.384 292,-147.384 431,-147.384 431,-128.384 292,-128.384"/>
<text text-anchor="middle" x="361.5" y="-135.384" font-family="Helvetica,sans-Serif" font-size="10.00">NxPs2::CInstance::SetColor</text>
</a>
</g>
</g>
<!-- Node2&#45;&gt;Node5 -->
<g id="edge4" class="edge"><title>Node2&#45;&gt;Node5</title>
<path fill="none" stroke="midnightblue" d="M249.851,-108.912C261.721,-112.252 274.282,-115.735 286,-118.884 294.523,-121.174 303.613,-123.549 312.408,-125.811"/>
<polygon fill="midnightblue" stroke="midnightblue" points="311.612,-129.22 322.168,-128.308 313.347,-122.439 311.612,-129.22"/>
</g>
<!-- Node6 -->
<g id="node6" class="node"><title>Node6</title>
<g id="a_node6"><a xlink:href="../../d6/da9/class_nx_ps2_1_1_c_geom_node.html#a05bc2f9c6730b6351e0850be91f6daa4" target="_top" xlink:title=" ">
<polygon fill="white" stroke="black" points="286,-40.384 286,-59.384 437,-59.384 437,-40.384 286,-40.384"/>
<text text-anchor="middle" x="361.5" y="-47.384" font-family="Helvetica,sans-Serif" font-size="10.00">NxPs2::CGeomNode::SetColor</text>
</a>
</g>
</g>
<!-- Node2&#45;&gt;Node6 -->
<g id="edge6" class="edge"><title>Node2&#45;&gt;Node6</title>
<path fill="none" stroke="midnightblue" d="M250.375,-79.5213C262.104,-76.3421 274.473,-72.9943 286,-69.884 295.404,-67.3465 305.479,-64.6364 315.083,-62.0567"/>
<polygon fill="midnightblue" stroke="midnightblue" points="316.123,-65.4014 324.874,-59.4282 314.308,-58.6408 316.123,-65.4014"/>
</g>
<!-- Node2&#45;&gt;Node7 -->
<g id="edge8" class="edge"><title>Node2&#45;&gt;Node7</title>
<path fill="none" stroke="midnightblue" d="M212.903,-78.818C229.444,-63.6988 257.246,-41.2143 286,-30.884 342.491,-10.5884 409.97,-5.95667 462.891,-6.33876"/>
<polygon fill="midnightblue" stroke="midnightblue" points="462.89,-9.83895 472.936,-6.47226 462.983,-2.83956 462.89,-9.83895"/>
</g>
<!-- Node8 -->
<g id="node8" class="node"><title>Node8</title>
<g id="a_node8"><a xlink:href="../../dd/da6/class_nx_ps2_1_1_c_instance.html#abbcbd6d8e396f8dacbb7ae254dddc628" target="_top" xlink:title=" ">
<polygon fill="white" stroke="black" points="286,-78.884 286,-108.884 437,-108.884 437,-78.884 286,-78.884"/>
<text text-anchor="start" x="294" y="-96.884" font-family="Helvetica,sans-Serif" font-size="10.00">NxPs2::CInstance::SetMaterial</text>
<text text-anchor="middle" x="361.5" y="-85.884" font-family="Helvetica,sans-Serif" font-size="10.00">ColorByIndex</text>
</a>
</g>
</g>
<!-- Node2&#45;&gt;Node8 -->
<g id="edge9" class="edge"><title>Node2&#45;&gt;Node8</title>
<path fill="none" stroke="midnightblue" d="M250.421,-93.884C258.573,-93.884 267.161,-93.884 275.797,-93.884"/>
<polygon fill="midnightblue" stroke="midnightblue" points="275.934,-97.3841 285.934,-93.884 275.934,-90.3841 275.934,-97.3841"/>
</g>
<!-- Node5&#45;&gt;Node4 -->
<g id="edge5" class="edge"><title>Node5&#45;&gt;Node4</title>
<path fill="none" stroke="midnightblue" d="M431.094,-137.884C444.478,-137.884 458.62,-137.884 472.34,-137.884"/>
<polygon fill="midnightblue" stroke="midnightblue" points="472.729,-141.384 482.729,-137.884 472.729,-134.384 472.729,-141.384"/>
</g>
<!-- Node6&#45;&gt;Node7 -->
<g id="edge7" class="edge"><title>Node6&#45;&gt;Node7</title>
<path fill="none" stroke="midnightblue" d="M410.445,-40.295C436.082,-35.1675 467.836,-28.8167 494.816,-23.4208"/>
<polygon fill="midnightblue" stroke="midnightblue" points="495.78,-26.7973 504.9,-21.404 494.408,-19.9332 495.78,-26.7973"/>
</g>
<!-- Node8&#45;&gt;Node4 -->
<g id="edge10" class="edge"><title>Node8&#45;&gt;Node4</title>
<path fill="none" stroke="midnightblue" d="M427.356,-108.903C443.47,-112.635 460.874,-116.665 477.433,-120.5"/>
<polygon fill="midnightblue" stroke="midnightblue" points="477.082,-124.011 487.614,-122.858 478.662,-117.192 477.082,-124.011"/>
</g>
</g>
</svg>
