<?xml version="1.0" encoding="UTF-8" standalone="no"?>
<!DOCTYPE svg PUBLIC "-//W3C//DTD SVG 1.1//EN"
 "http://www.w3.org/Graphics/SVG/1.1/DTD/svg11.dtd">
<!-- Generated by graphviz version 2.38.0 (20140413.2041)
 -->
<!-- Title: Obj::CAnimationComponent::get_blend_channel Pages: 1 -->
<svg width="491pt" height="88pt"
 viewBox="0.00 0.00 491.00 88.00" xmlns="http://www.w3.org/2000/svg" xmlns:xlink="http://www.w3.org/1999/xlink">
<g id="graph0" class="graph" transform="scale(1 1) rotate(0) translate(4 84)">
<title>Obj::CAnimationComponent::get_blend_channel</title>
<polygon fill="white" stroke="none" points="-4,4 -4,-84 487,-84 487,4 -4,4"/>
<!-- Node1 -->
<g id="node1" class="node"><title>Node1</title>
<g id="a_node1"><a xlink:title=" ">
<polygon fill="#bfbfbf" stroke="black" points="346,-24.5 346,-54.5 483,-54.5 483,-24.5 346,-24.5"/>
<text text-anchor="start" x="354" y="-42.5" font-family="Helvetica,sans-Serif" font-size="10.00">Obj::CAnimationComponent</text>
<text text-anchor="middle" x="414.5" y="-31.5" font-family="Helvetica,sans-Serif" font-size="10.00">::get_blend_channel</text>
</a>
</g>
</g>
<!-- Node2 -->
<g id="node2" class="node"><title>Node2</title>
<g id="a_node2"><a xlink:href="../../d3/d4f/class_obj_1_1_c_animation_component.html#ac28dfb5540a80f3b3e3fc69a28369add" target="_top" xlink:title=" ">
<polygon fill="white" stroke="black" points="173,-24.5 173,-54.5 310,-54.5 310,-24.5 173,-24.5"/>
<text text-anchor="start" x="181" y="-42.5" font-family="Helvetica,sans-Serif" font-size="10.00">Obj::CAnimationComponent</text>
<text text-anchor="middle" x="241.5" y="-31.5" font-family="Helvetica,sans-Serif" font-size="10.00">::update_skeleton</text>
</a>
</g>
</g>
<!-- Node1&#45;&gt;Node2 -->
<g id="edge1" class="edge"><title>Node1&#45;&gt;Node2</title>
<path fill="none" stroke="midnightblue" d="M335.9,-39.5C327.308,-39.5 318.609,-39.5 310.153,-39.5"/>
<polygon fill="midnightblue" stroke="midnightblue" points="335.916,-43.0001 345.916,-39.5 335.916,-36.0001 335.916,-43.0001"/>
</g>
<!-- Node3 -->
<g id="node3" class="node"><title>Node3</title>
<g id="a_node3"><a xlink:href="../../d3/d4f/class_obj_1_1_c_animation_component.html#a2e48f9fb7177c89bac9f3e92f3d27d39" target="_top" xlink:title=" ">
<polygon fill="white" stroke="black" points="0,-49.5 0,-79.5 137,-79.5 137,-49.5 0,-49.5"/>
<text text-anchor="start" x="8" y="-67.5" font-family="Helvetica,sans-Serif" font-size="10.00">Obj::CAnimationComponent</text>
<text text-anchor="middle" x="68.5" y="-56.5" font-family="Helvetica,sans-Serif" font-size="10.00">::Update</text>
</a>
</g>
</g>
<!-- Node2&#45;&gt;Node3 -->
<g id="edge2" class="edge"><title>Node2&#45;&gt;Node3</title>
<path fill="none" stroke="midnightblue" d="M162.9,-50.845C154.308,-52.1012 145.609,-53.373 137.153,-54.6092"/>
<polygon fill="midnightblue" stroke="midnightblue" points="163.528,-54.2905 172.916,-49.3807 162.515,-47.3642 163.528,-54.2905"/>
</g>
<!-- Node4 -->
<g id="node4" class="node"><title>Node4</title>
<g id="a_node4"><a xlink:href="../../d3/d4f/class_obj_1_1_c_animation_component.html#ae082a1d91dbf5ccce7cbb22a57dcf02c" target="_top" xlink:title=" ">
<polygon fill="white" stroke="black" points="0,-0.5 0,-30.5 137,-30.5 137,-0.5 0,-0.5"/>
<text text-anchor="start" x="8" y="-18.5" font-family="Helvetica,sans-Serif" font-size="10.00">Obj::CAnimationComponent</text>
<text text-anchor="middle" x="68.5" y="-7.5" font-family="Helvetica,sans-Serif" font-size="10.00">::UpdateSkeleton</text>
</a>
</g>
</g>
<!-- Node2&#45;&gt;Node4 -->
<g id="edge3" class="edge"><title>Node2&#45;&gt;Node4</title>
<path fill="none" stroke="midnightblue" d="M162.9,-28.6088C154.308,-27.4029 145.609,-26.1819 137.153,-24.9951"/>
<polygon fill="midnightblue" stroke="midnightblue" points="162.527,-32.0906 172.916,-30.0146 163.5,-25.1586 162.527,-32.0906"/>
</g>
</g>
</svg>
