<?xml version="1.0" encoding="UTF-8" standalone="no"?>
<!DOCTYPE svg PUBLIC "-//W3C//DTD SVG 1.1//EN"
 "http://www.w3.org/Graphics/SVG/1.1/DTD/svg11.dtd">
<!-- Generated by graphviz version 2.38.0 (20140413.2041)
 -->
<!-- Title: Obj::CAnimationComponent::SetWobbleDetails Pages: 1 -->
<svg width="571pt" height="100pt"
 viewBox="0.00 0.00 571.00 99.50" xmlns="http://www.w3.org/2000/svg" xmlns:xlink="http://www.w3.org/1999/xlink">
<g id="graph0" class="graph" transform="scale(1 1) rotate(0) translate(4 95.5)">
<title>Obj::CAnimationComponent::SetWobbleDetails</title>
<polygon fill="white" stroke="none" points="-4,4 -4,-95.5 567,-95.5 567,4 -4,4"/>
<!-- Node1 -->
<g id="node1" class="node"><title>Node1</title>
<g id="a_node1"><a xlink:title=" ">
<polygon fill="#bfbfbf" stroke="black" points="426,-33 426,-63 563,-63 563,-33 426,-33"/>
<text text-anchor="start" x="434" y="-51" font-family="Helvetica,sans-Serif" font-size="10.00">Obj::CAnimationComponent</text>
<text text-anchor="middle" x="494.5" y="-40" font-family="Helvetica,sans-Serif" font-size="10.00">::SetWobbleDetails</text>
</a>
</g>
</g>
<!-- Node2 -->
<g id="node2" class="node"><title>Node2</title>
<g id="a_node2"><a xlink:href="../../d2/d71/class_obj_1_1_c_skater_non_local_net_logic_component.html#a8add763d331c13350d63a659c3edde08" target="_top" xlink:title=" ">
<polygon fill="white" stroke="black" points="197,-61 197,-91 390,-91 390,-61 197,-61"/>
<text text-anchor="start" x="205" y="-79" font-family="Helvetica,sans-Serif" font-size="10.00">Obj::CSkaterNonLocalNetLogic</text>
<text text-anchor="middle" x="293.5" y="-68" font-family="Helvetica,sans-Serif" font-size="10.00">Component::do_client_animation_update</text>
</a>
</g>
</g>
<!-- Node1&#45;&gt;Node2 -->
<g id="edge1" class="edge"><title>Node1&#45;&gt;Node2</title>
<path fill="none" stroke="midnightblue" d="M415.742,-58.9409C407.352,-60.1213 398.746,-61.3322 390.178,-62.5377"/>
<polygon fill="midnightblue" stroke="midnightblue" points="416.435,-62.3778 425.85,-57.5186 415.46,-55.4461 416.435,-62.3778"/>
</g>
<!-- Node4 -->
<g id="node4" class="node"><title>Node4</title>
<g id="a_node4"><a xlink:href="../../d4/d75/class_obj_1_1_c_skater_balance_trick_component.html#a9d3d4848564edb9c895ac82750852c29" target="_top" xlink:title=" ">
<polygon fill="white" stroke="black" points="229,-0.5 229,-41.5 358,-41.5 358,-0.5 229,-0.5"/>
<text text-anchor="start" x="237" y="-29.5" font-family="Helvetica,sans-Serif" font-size="10.00">Obj::CSkaterBalanceTrick</text>
<text text-anchor="start" x="237" y="-18.5" font-family="Helvetica,sans-Serif" font-size="10.00">Component::set_wobble</text>
<text text-anchor="middle" x="293.5" y="-7.5" font-family="Helvetica,sans-Serif" font-size="10.00">_params</text>
</a>
</g>
</g>
<!-- Node1&#45;&gt;Node4 -->
<g id="edge3" class="edge"><title>Node1&#45;&gt;Node4</title>
<path fill="none" stroke="midnightblue" d="M415.717,-37.4466C396.692,-34.8652 376.553,-32.1328 358.27,-29.6522"/>
<polygon fill="midnightblue" stroke="midnightblue" points="415.47,-40.945 425.85,-38.8214 416.411,-34.0086 415.47,-40.945"/>
</g>
<!-- Node3 -->
<g id="node3" class="node"><title>Node3</title>
<g id="a_node3"><a xlink:href="../../d2/d71/class_obj_1_1_c_skater_non_local_net_logic_component.html#a7c0d00c9d29cf76c90925be41288bf6e" target="_top" xlink:title=" ">
<polygon fill="white" stroke="black" points="4.5,-61 4.5,-91 156.5,-91 156.5,-61 4.5,-61"/>
<text text-anchor="start" x="12.5" y="-79" font-family="Helvetica,sans-Serif" font-size="10.00">Obj::CSkaterNonLocalNetLogic</text>
<text text-anchor="middle" x="80.5" y="-68" font-family="Helvetica,sans-Serif" font-size="10.00">Component::Update</text>
</a>
</g>
</g>
<!-- Node2&#45;&gt;Node3 -->
<g id="edge2" class="edge"><title>Node2&#45;&gt;Node3</title>
<path fill="none" stroke="midnightblue" d="M186.71,-76C176.53,-76 166.353,-76 156.559,-76"/>
<polygon fill="midnightblue" stroke="midnightblue" points="186.878,-79.5001 196.878,-76 186.878,-72.5001 186.878,-79.5001"/>
</g>
<!-- Node5 -->
<g id="node5" class="node"><title>Node5</title>
<g id="a_node5"><a xlink:href="../../d4/d75/class_obj_1_1_c_skater_balance_trick_component.html#a772b30ff9edb579d4fcd8141726bf210" target="_top" xlink:title=" ">
<polygon fill="white" stroke="black" points="0,-6 0,-36 161,-36 161,-6 0,-6"/>
<text text-anchor="start" x="8" y="-24" font-family="Helvetica,sans-Serif" font-size="10.00">Obj::CSkaterBalanceTrick</text>
<text text-anchor="middle" x="80.5" y="-13" font-family="Helvetica,sans-Serif" font-size="10.00">Component::CallMemberFunction</text>
</a>
</g>
</g>
<!-- Node4&#45;&gt;Node5 -->
<g id="edge4" class="edge"><title>Node4&#45;&gt;Node5</title>
<path fill="none" stroke="midnightblue" d="M218.713,-21C200.063,-21 179.955,-21 161.035,-21"/>
<polygon fill="midnightblue" stroke="midnightblue" points="218.907,-24.5001 228.907,-21 218.907,-17.5001 218.907,-24.5001"/>
</g>
</g>
</svg>
