<?xml version="1.0" encoding="UTF-8" standalone="no"?>
<!DOCTYPE svg PUBLIC "-//W3C//DTD SVG 1.1//EN"
 "http://www.w3.org/Graphics/SVG/1.1/DTD/svg11.dtd">
<!-- Generated by graphviz version 2.38.0 (20140413.2041)
 -->
<!-- Title: Obj::CEditedRailPoint::SetColor Pages: 1 -->
<svg width="633pt" height="39pt"
 viewBox="0.00 0.00 633.00 39.00" xmlns="http://www.w3.org/2000/svg" xmlns:xlink="http://www.w3.org/1999/xlink">
<g id="graph0" class="graph" transform="scale(1 1) rotate(0) translate(4 35)">
<title>Obj::CEditedRailPoint::SetColor</title>
<polygon fill="white" stroke="none" points="-4,4 -4,-35 629,-35 629,4 -4,4"/>
<!-- Node1 -->
<g id="node1" class="node"><title>Node1</title>
<g id="a_node1"><a xlink:title=" ">
<polygon fill="#bfbfbf" stroke="black" points="0,-0.5 0,-30.5 111,-30.5 111,-0.5 0,-0.5"/>
<text text-anchor="start" x="8" y="-18.5" font-family="Helvetica,sans-Serif" font-size="10.00">Obj::CEditedRailPoint</text>
<text text-anchor="middle" x="55.5" y="-7.5" font-family="Helvetica,sans-Serif" font-size="10.00">::SetColor</text>
</a>
</g>
</g>
<!-- Node2 -->
<g id="node2" class="node"><title>Node2</title>
<g id="a_node2"><a xlink:href="../../d3/d55/class_nx_1_1_c_sector.html#ac8121ab46bf4dcee47f6943e2fdbae59" target="_top" xlink:title=" ">
<polygon fill="white" stroke="black" points="147,-6 147,-25 260,-25 260,-6 147,-6"/>
<text text-anchor="middle" x="203.5" y="-13" font-family="Helvetica,sans-Serif" font-size="10.00">Nx::CSector::SetColor</text>
</a>
</g>
</g>
<!-- Node1&#45;&gt;Node2 -->
<g id="edge1" class="edge"><title>Node1&#45;&gt;Node2</title>
<path fill="none" stroke="midnightblue" d="M111.28,-15.5C119.564,-15.5 128.182,-15.5 136.669,-15.5"/>
<polygon fill="midnightblue" stroke="midnightblue" points="136.926,-19.0001 146.926,-15.5 136.926,-12.0001 136.926,-19.0001"/>
</g>
<!-- Node3 -->
<g id="node3" class="node"><title>Node3</title>
<g id="a_node3"><a xlink:href="../../d8/dd6/class_nx_1_1_c_geom.html#ad50c6fe37a740ae7ec127d45a10b4a83" target="_top" xlink:title=" ">
<polygon fill="white" stroke="black" points="296,-6 296,-25 407,-25 407,-6 296,-6"/>
<text text-anchor="middle" x="351.5" y="-13" font-family="Helvetica,sans-Serif" font-size="10.00">Nx::CGeom::SetColor</text>
</a>
</g>
</g>
<!-- Node2&#45;&gt;Node3 -->
<g id="edge2" class="edge"><title>Node2&#45;&gt;Node3</title>
<path fill="none" stroke="midnightblue" d="M260.113,-15.5C268.363,-15.5 276.927,-15.5 285.351,-15.5"/>
<polygon fill="midnightblue" stroke="midnightblue" points="285.525,-19.0001 295.525,-15.5 285.525,-12.0001 285.525,-19.0001"/>
</g>
<!-- Node4 -->
<g id="node4" class="node"><title>Node4</title>
<g id="a_node4"><a xlink:href="../../d8/dd6/class_nx_1_1_c_geom.html#a5a00bace5f2a4919f6eb2ddb30e69f38" target="_top" xlink:title=" ">
<polygon fill="white" stroke="black" points="443,-0.5 443,-30.5 551,-30.5 551,-0.5 443,-0.5"/>
<text text-anchor="start" x="451" y="-18.5" font-family="Helvetica,sans-Serif" font-size="10.00">Nx::CGeom::plat_set</text>
<text text-anchor="middle" x="497" y="-7.5" font-family="Helvetica,sans-Serif" font-size="10.00">_color</text>
</a>
</g>
</g>
<!-- Node3&#45;&gt;Node4 -->
<g id="edge3" class="edge"><title>Node3&#45;&gt;Node4</title>
<path fill="none" stroke="midnightblue" d="M407.161,-15.5C415.494,-15.5 424.155,-15.5 432.656,-15.5"/>
<polygon fill="midnightblue" stroke="midnightblue" points="432.913,-19.0001 442.913,-15.5 432.913,-12.0001 432.913,-19.0001"/>
</g>
<!-- Node5 -->
<g id="node5" class="node"><title>Node5</title>
<g id="a_node5"><a xlink:href="../../df/d92/standard_8cpp.html#a5fc8fd1788f18ada61dfda9f171c5a1a" target="_top" xlink:title=" ">
<polygon fill="white" stroke="black" points="587,-6 587,-25 625,-25 625,-6 587,-6"/>
<text text-anchor="middle" x="606" y="-13" font-family="Helvetica,sans-Serif" font-size="10.00">printf</text>
</a>
</g>
</g>
<!-- Node4&#45;&gt;Node5 -->
<g id="edge4" class="edge"><title>Node4&#45;&gt;Node5</title>
<path fill="none" stroke="midnightblue" d="M551.187,-15.5C559.985,-15.5 568.795,-15.5 576.664,-15.5"/>
<polygon fill="midnightblue" stroke="midnightblue" points="576.722,-19.0001 586.722,-15.5 576.722,-12.0001 576.722,-19.0001"/>
</g>
</g>
</svg>
