<?xml version="1.0" encoding="UTF-8" standalone="no"?>
<!DOCTYPE svg PUBLIC "-//W3C//DTD SVG 1.1//EN"
 "http://www.w3.org/Graphics/SVG/1.1/DTD/svg11.dtd">
<!-- Generated by graphviz version 2.38.0 (20140413.2041)
 -->
<!-- Title: Gfx::CBonedAnimFrameData::plat_read_stream Pages: 1 -->
<!--zoomable 291 -->
<svg id="main" version="1.1" xmlns="http://www.w3.org/2000/svg" xmlns:xlink="http://www.w3.org/1999/xlink" xml:space="preserve" onload="init(evt)">
<style type="text/css"><![CDATA[
.edge:hover path { stroke: red; }
.edge:hover polygon { stroke: red; fill: red; }
]]></style>
<script type="text/javascript"><![CDATA[
var edges = document.getElementsByTagName('g');
if (edges && edges.length) {
  for (var i=0;i<edges.length;i++) {
    if (edges[i].id.substr(0,4)=='edge') {
      edges[i].setAttribute('class','edge');
    }
  }
}
]]></script>
        <defs>
                <circle id="rim" cx="0" cy="0" r="7"/>
                <circle id="rim2" cx="0" cy="0" r="3.5"/>
                <g id="zoomPlus">
                        <use xlink:href="#rim" fill="#404040">
                                <set attributeName="fill" to="#808080" begin="zoomplus.mouseover" end="zoomplus.mouseout"/>
                        </use>
                        <path d="M-4,0h8M0,-4v8" fill="none" stroke="white" stroke-width="1.5" pointer-events="none"/>
                </g>
                <g id="zoomMin">
                        <use xlink:href="#rim" fill="#404040">
                                <set attributeName="fill" to="#808080" begin="zoomminus.mouseover" end="zoomminus.mouseout"/>
                        </use>
                        <path d="M-4,0h8" fill="none" stroke="white" stroke-width="1.5" pointer-events="none"/>
                </g>
                <g id="dirArrow">
                        <path fill="none" stroke="white" stroke-width="1.5" d="M0,-3.0v7 M-2.5,-0.5L0,-3.0L2.5,-0.5"/>
                </g>
               <g id="resetDef">
                       <use xlink:href="#rim2" fill="#404040">
                               <set attributeName="fill" to="#808080" begin="reset.mouseover" end="reset.mouseout"/>
                       </use>
               </g>
        </defs>

<script type="text/javascript">
var viewWidth = 640;
var viewHeight = 291;
var sectionId = 'dynsection-25';
</script>
<script xlink:href="../../svgpan.js"/>
<svg id="graph" class="graph">
<g id="viewport">
<title>Gfx::CBonedAnimFrameData::plat_read_stream</title>
<polygon fill="white" stroke="none" points="-4,4 -4,-287 636,-287 636,4 -4,4"/>
<!-- Node1 -->
<g id="node1" class="node"><title>Node1</title>
<g id="a_node1"><a xlink:title=" ">
<polygon fill="#bfbfbf" stroke="black" points="0,-121 0,-151 143,-151 143,-121 0,-121"/>
<text text-anchor="start" x="8" y="-139" font-family="Helvetica,sans-Serif" font-size="10.00">Gfx::CBonedAnimFrameData</text>
<text text-anchor="middle" x="71.5" y="-128" font-family="Helvetica,sans-Serif" font-size="10.00">::plat_read_stream</text>
</a>
</g>
</g>
<!-- Node2 -->
<g id="node2" class="node"><title>Node2</title>
<g id="a_node2"><a xlink:href="../../df/de2/_messages_8h.html#a701d7b9cdd94e5f87bc47f4e770492e6" target="_top" xlink:title=" ">
<polygon fill="white" stroke="black" points="211,-263.5 211,-282.5 290,-282.5 290,-263.5 211,-263.5"/>
<text text-anchor="middle" x="250.5" y="-270.5" font-family="Helvetica,sans-Serif" font-size="10.00">Dbg_Message</text>
</a>
</g>
</g>
<!-- Node1&#45;&gt;Node2 -->
<g id="edge1" class="edge"><title>Node1&#45;&gt;Node2</title>
<path fill="none" stroke="midnightblue" d="M81.9514,-151.218C98.4563,-176.499 135.003,-227.031 179,-254 185.763,-258.146 193.432,-261.4 201.161,-263.951"/>
<polygon fill="midnightblue" stroke="midnightblue" points="200.337,-267.357 210.918,-266.82 202.311,-260.641 200.337,-267.357"/>
</g>
<!-- Node3 -->
<g id="node3" class="node"><title>Node3</title>
<g id="a_node3"><a xlink:href="../../d3/dd9/class_gfx_1_1_c_boned_anim_frame_data.html#acdc02dd27c1c3c34d3c554ddfa215fcb" target="_top" xlink:title=" ">
<polygon fill="white" stroke="black" points="179,-214 179,-244 322,-244 322,-214 179,-214"/>
<text text-anchor="start" x="187" y="-232" font-family="Helvetica,sans-Serif" font-size="10.00">Gfx::CBonedAnimFrameData</text>
<text text-anchor="middle" x="250.5" y="-221" font-family="Helvetica,sans-Serif" font-size="10.00">::get_num_qkeys</text>
</a>
</g>
</g>
<!-- Node1&#45;&gt;Node3 -->
<g id="edge2" class="edge"><title>Node1&#45;&gt;Node3</title>
<path fill="none" stroke="midnightblue" d="M92.4282,-151.06C113.189,-166.223 147.084,-189.524 179,-205 182.73,-206.809 186.632,-208.541 190.603,-210.187"/>
<polygon fill="midnightblue" stroke="midnightblue" points="189.363,-213.46 199.95,-213.869 191.928,-206.947 189.363,-213.46"/>
</g>
<!-- Node4 -->
<g id="node4" class="node"><title>Node4</title>
<g id="a_node4"><a xlink:href="../../d3/dd9/class_gfx_1_1_c_boned_anim_frame_data.html#ae0e24b82802fa57c729527fb571e69cc" target="_top" xlink:title=" ">
<polygon fill="white" stroke="black" points="179,-165 179,-195 322,-195 322,-165 179,-165"/>
<text text-anchor="start" x="187" y="-183" font-family="Helvetica,sans-Serif" font-size="10.00">Gfx::CBonedAnimFrameData</text>
<text text-anchor="middle" x="250.5" y="-172" font-family="Helvetica,sans-Serif" font-size="10.00">::get_num_tkeys</text>
</a>
</g>
</g>
<!-- Node1&#45;&gt;Node4 -->
<g id="edge3" class="edge"><title>Node1&#45;&gt;Node4</title>
<path fill="none" stroke="midnightblue" d="M132.918,-151.019C147.788,-154.716 163.837,-158.705 179.132,-162.507"/>
<polygon fill="midnightblue" stroke="midnightblue" points="178.505,-165.958 189.054,-164.974 180.193,-159.165 178.505,-165.958"/>
</g>
<!-- Node5 -->
<g id="node5" class="node"><title>Node5</title>
<g id="a_node5"><a xlink:href="../../d3/dd9/class_gfx_1_1_c_boned_anim_frame_data.html#a8cb2db1e01a4f2c85ed4e507f7a6e785" target="_top" xlink:title=" ">
<polygon fill="white" stroke="black" points="358,-111 358,-141 501,-141 501,-111 358,-111"/>
<text text-anchor="start" x="366" y="-129" font-family="Helvetica,sans-Serif" font-size="10.00">Gfx::CBonedAnimFrameData</text>
<text text-anchor="middle" x="429.5" y="-118" font-family="Helvetica,sans-Serif" font-size="10.00">::is_hires</text>
</a>
</g>
</g>
<!-- Node1&#45;&gt;Node5 -->
<g id="edge4" class="edge"><title>Node1&#45;&gt;Node5</title>
<path fill="none" stroke="midnightblue" d="M143.26,-134.012C202.229,-132.356 286.232,-129.996 347.807,-128.267"/>
<polygon fill="midnightblue" stroke="midnightblue" points="347.976,-131.763 357.874,-127.984 347.78,-124.766 347.976,-131.763"/>
</g>
<!-- Node6 -->
<g id="node6" class="node"><title>Node6</title>
<g id="a_node6"><a xlink:href="../../db/dc4/namespace_mem.html#a10246603d03405159c82320b96e3efbf" target="_top" xlink:title=" ">
<polygon fill="white" stroke="black" points="214,-88.5 214,-107.5 287,-107.5 287,-88.5 214,-88.5"/>
<text text-anchor="middle" x="250.5" y="-95.5" font-family="Helvetica,sans-Serif" font-size="10.00">Mem::Malloc</text>
</a>
</g>
</g>
<!-- Node1&#45;&gt;Node6 -->
<g id="edge5" class="edge"><title>Node1&#45;&gt;Node6</title>
<path fill="none" stroke="midnightblue" d="M142.455,-120.981C163.001,-116.57 184.943,-111.86 203.579,-107.859"/>
<polygon fill="midnightblue" stroke="midnightblue" points="204.519,-111.237 213.561,-105.716 203.05,-104.393 204.519,-111.237"/>
</g>
<!-- Node7 -->
<g id="node7" class="node"><title>Node7</title>
<g id="a_node7"><a xlink:href="../../d3/dd9/class_gfx_1_1_c_boned_anim_frame_data.html#af08b8fa16f855c3aaba57fd03db069d1" target="_top" xlink:title=" ">
<polygon fill="white" stroke="black" points="179,-39 179,-69 322,-69 322,-39 179,-39"/>
<text text-anchor="start" x="187" y="-57" font-family="Helvetica,sans-Serif" font-size="10.00">Gfx::CBonedAnimFrameData</text>
<text text-anchor="middle" x="250.5" y="-46" font-family="Helvetica,sans-Serif" font-size="10.00">::plat_dma_to_aram</text>
</a>
</g>
</g>
<!-- Node1&#45;&gt;Node7 -->
<g id="edge6" class="edge"><title>Node1&#45;&gt;Node7</title>
<path fill="none" stroke="midnightblue" d="M98.2132,-120.824C119.451,-108.636 150.611,-91.5451 179,-79 183.974,-76.802 189.207,-74.6541 194.482,-72.5988"/>
<polygon fill="midnightblue" stroke="midnightblue" points="195.858,-75.8202 203.973,-69.0084 193.381,-69.273 195.858,-75.8202"/>
</g>
<!-- Node12 -->
<g id="node12" class="node"><title>Node12</title>
<g id="a_node12"><a xlink:href="../../de/d47/namespace_gfx.html#a14f94f28d5649fb89ced0cc9875f053e" target="_top" xlink:title=" ">
<polygon fill="white" stroke="black" points="183.5,-0.5 183.5,-19.5 317.5,-19.5 317.5,-0.5 183.5,-0.5"/>
<text text-anchor="middle" x="250.5" y="-7.5" font-family="Helvetica,sans-Serif" font-size="10.00">Gfx::ReadCustomAnimKey</text>
</a>
</g>
</g>
<!-- Node1&#45;&gt;Node12 -->
<g id="edge12" class="edge"><title>Node1&#45;&gt;Node12</title>
<path fill="none" stroke="midnightblue" d="M83.4193,-120.73C100.915,-97.3992 137.508,-53.0606 179,-29 182.867,-26.7575 187.007,-24.7722 191.27,-23.016"/>
<polygon fill="midnightblue" stroke="midnightblue" points="192.571,-26.2669 200.745,-19.5259 190.151,-19.6984 192.571,-26.2669"/>
</g>
<!-- Node7&#45;&gt;Node5 -->
<g id="edge9" class="edge"><title>Node7&#45;&gt;Node5</title>
<path fill="none" stroke="midnightblue" d="M295.69,-69.0989C304.453,-72.2533 313.552,-75.6434 322,-79 343.629,-87.5934 367.349,-97.9659 386.902,-106.778"/>
<polygon fill="midnightblue" stroke="midnightblue" points="385.586,-110.024 396.139,-110.964 388.475,-103.648 385.586,-110.024"/>
</g>
<!-- Node8 -->
<g id="node8" class="node"><title>Node8</title>
<g id="a_node8"><a xlink:href="../../d2/d0b/namespace_ns_a_r_a_m.html#a92200ab04303bffa479e4a478f7e7bed" target="_top" xlink:title=" ">
<polygon fill="white" stroke="black" points="388,-53.5 388,-72.5 471,-72.5 471,-53.5 388,-53.5"/>
<text text-anchor="middle" x="429.5" y="-60.5" font-family="Helvetica,sans-Serif" font-size="10.00">NsARAM::alloc</text>
</a>
</g>
</g>
<!-- Node7&#45;&gt;Node8 -->
<g id="edge7" class="edge"><title>Node7&#45;&gt;Node8</title>
<path fill="none" stroke="midnightblue" d="M322.218,-57.5958C340.718,-58.5365 360.3,-59.5322 377.546,-60.4091"/>
<polygon fill="midnightblue" stroke="midnightblue" points="377.787,-63.9258 387.952,-60.9382 378.142,-56.9348 377.787,-63.9258"/>
</g>
<!-- Node10 -->
<g id="node10" class="node"><title>Node10</title>
<g id="a_node10"><a xlink:href="../../d1/d2e/namespace_ns_d_m_a.html#abe57e36832a7e825408ccd76f296c2a1" target="_top" xlink:title=" ">
<polygon fill="white" stroke="black" points="383,-15.5 383,-34.5 476,-34.5 476,-15.5 383,-15.5"/>
<text text-anchor="middle" x="429.5" y="-22.5" font-family="Helvetica,sans-Serif" font-size="10.00">NsDMA::toARAM</text>
</a>
</g>
</g>
<!-- Node7&#45;&gt;Node10 -->
<g id="edge10" class="edge"><title>Node7&#45;&gt;Node10</title>
<path fill="none" stroke="midnightblue" d="M322.218,-42.4134C338.964,-39.6698 356.596,-36.7809 372.579,-34.1621"/>
<polygon fill="midnightblue" stroke="midnightblue" points="373.517,-37.5553 382.819,-32.4844 372.385,-30.6474 373.517,-37.5553"/>
</g>
<!-- Node9 -->
<g id="node9" class="node"><title>Node9</title>
<g id="a_node9"><a xlink:href="../../d2/d0b/namespace_ns_a_r_a_m.html#ae463046b947332de1069279e52afd774" target="_top" xlink:title=" ">
<polygon fill="white" stroke="black" points="537,-53.5 537,-72.5 632,-72.5 632,-53.5 537,-53.5"/>
<text text-anchor="middle" x="584.5" y="-60.5" font-family="Helvetica,sans-Serif" font-size="10.00">NsARAM::unused</text>
</a>
</g>
</g>
<!-- Node8&#45;&gt;Node9 -->
<g id="edge8" class="edge"><title>Node8&#45;&gt;Node9</title>
<path fill="none" stroke="midnightblue" d="M471.1,-63C488.13,-63 508.231,-63 526.691,-63"/>
<polygon fill="midnightblue" stroke="midnightblue" points="526.747,-66.5001 536.747,-63 526.747,-59.5001 526.747,-66.5001"/>
</g>
<!-- Node11 -->
<g id="node11" class="node"><title>Node11</title>
<g id="a_node11"><a xlink:href="../../d2/d58/p__dma_8cpp.html#a82d6c0fd8f4d386ca9d4310cc831ac05" target="_top" xlink:title=" ">
<polygon fill="white" stroke="black" points="550.5,-15.5 550.5,-34.5 618.5,-34.5 618.5,-15.5 550.5,-15.5"/>
<text text-anchor="middle" x="584.5" y="-22.5" font-family="Helvetica,sans-Serif" font-size="10.00">arqCallback</text>
</a>
</g>
</g>
<!-- Node10&#45;&gt;Node11 -->
<g id="edge11" class="edge"><title>Node10&#45;&gt;Node11</title>
<path fill="none" stroke="midnightblue" d="M476.405,-25C496.643,-25 520.302,-25 540.227,-25"/>
<polygon fill="midnightblue" stroke="midnightblue" points="540.269,-28.5001 550.269,-25 540.269,-21.5001 540.269,-28.5001"/>
</g>
</g>
</svg>
        <g id="navigator" transform="translate(0 0)" fill="#404254">
                <rect fill="#f2f5e9" fill-opacity="0.5" stroke="#606060" stroke-width=".5" x="0" y="0" width="60" height="60"/>
                <use id="zoomplus" xlink:href="#zoomPlus" x="17" y="9" onmousedown="handleZoom(evt,'in')"/>
                <use id="zoomminus" xlink:href="#zoomMin" x="42" y="9" onmousedown="handleZoom(evt,'out')"/>
                <use id="reset" xlink:href="#resetDef" x="30" y="36" onmousedown="handleReset()"/>
                <g id="arrowUp" xlink:href="#dirArrow" transform="translate(30 24)" onmousedown="handlePan(0,-1)">
                  <use xlink:href="#rim" fill="#404040">
                        <set attributeName="fill" to="#808080" begin="arrowUp.mouseover" end="arrowUp.mouseout"/>
                  </use>
                  <path fill="none" stroke="white" stroke-width="1.5" d="M0,-3.0v7 M-2.5,-0.5L0,-3.0L2.5,-0.5"/>
                </g>
                <g id="arrowRight" xlink:href="#dirArrow" transform="rotate(90) translate(36 -43)" onmousedown="handlePan(1,0)">
                  <use xlink:href="#rim" fill="#404040">
                        <set attributeName="fill" to="#808080" begin="arrowRight.mouseover" end="arrowRight.mouseout"/>
                  </use>
                  <path fill="none" stroke="white" stroke-width="1.5" d="M0,-3.0v7 M-2.5,-0.5L0,-3.0L2.5,-0.5"/>
                </g>
                <g id="arrowDown" xlink:href="#dirArrow" transform="rotate(180) translate(-30 -48)" onmousedown="handlePan(0,1)">
                  <use xlink:href="#rim" fill="#404040">
                        <set attributeName="fill" to="#808080" begin="arrowDown.mouseover" end="arrowDown.mouseout"/>
                  </use>
                  <path fill="none" stroke="white" stroke-width="1.5" d="M0,-3.0v7 M-2.5,-0.5L0,-3.0L2.5,-0.5"/>
                </g>
                <g id="arrowLeft" xlink:href="#dirArrow" transform="rotate(270) translate(-36 17)" onmousedown="handlePan(-1,0)">
                  <use xlink:href="#rim" fill="#404040">
                        <set attributeName="fill" to="#808080" begin="arrowLeft.mouseover" end="arrowLeft.mouseout"/>
                  </use>
                  <path fill="none" stroke="white" stroke-width="1.5" d="M0,-3.0v7 M-2.5,-0.5L0,-3.0L2.5,-0.5"/>
                </g>
        </g>
        <svg viewBox="0 0 15 15" width="100%" height="30px" preserveAspectRatio="xMaxYMin meet">
         <g id="arrow_out" transform="scale(0.3 0.3)">
          <a xlink:href="class_gfx_1_1_c_boned_anim_frame_data_a9db7877208b07a0a1c7794dde6641038_cgraph_org.svg" target="_base">
           <rect id="button" ry="5" rx="5" y="6" x="6" height="38" width="38"
                fill="#f2f5e9" fill-opacity="0.5" stroke="#606060" stroke-width="1.0"/>
           <path id="arrow"
             d="M 11.500037,31.436501 C 11.940474,20.09759 22.043105,11.32322 32.158766,21.979434 L 37.068811,17.246167 C 37.068811,17.246167 37.088388,32 37.088388,32 L 22.160133,31.978069 C 22.160133,31.978069 26.997745,27.140456 26.997745,27.140456 C 18.528582,18.264221 13.291696,25.230495 11.500037,31.436501 z"
             style="fill:#404040;"/>
          </a>
         </g>
        </svg>
</svg>
