<?xml version="1.0" encoding="UTF-8" standalone="no"?>
<!DOCTYPE svg PUBLIC "-//W3C//DTD SVG 1.1//EN"
 "http://www.w3.org/Graphics/SVG/1.1/DTD/svg11.dtd">
<!-- Generated by graphviz version 2.38.0 (20140413.2041)
 -->
<!-- Title: Gfx::CBonedAnimFrameData::is_hires Pages: 1 -->
<!--zoomable 245 -->
<svg id="main" version="1.1" xmlns="http://www.w3.org/2000/svg" xmlns:xlink="http://www.w3.org/1999/xlink" xml:space="preserve" onload="init(evt)">
<style type="text/css"><![CDATA[
.edge:hover path { stroke: red; }
.edge:hover polygon { stroke: red; fill: red; }
]]></style>
<script type="text/javascript"><![CDATA[
var edges = document.getElementsByTagName('g');
if (edges && edges.length) {
  for (var i=0;i<edges.length;i++) {
    if (edges[i].id.substr(0,4)=='edge') {
      edges[i].setAttribute('class','edge');
    }
  }
}
]]></script>
        <defs>
                <circle id="rim" cx="0" cy="0" r="7"/>
                <circle id="rim2" cx="0" cy="0" r="3.5"/>
                <g id="zoomPlus">
                        <use xlink:href="#rim" fill="#404040">
                                <set attributeName="fill" to="#808080" begin="zoomplus.mouseover" end="zoomplus.mouseout"/>
                        </use>
                        <path d="M-4,0h8M0,-4v8" fill="none" stroke="white" stroke-width="1.5" pointer-events="none"/>
                </g>
                <g id="zoomMin">
                        <use xlink:href="#rim" fill="#404040">
                                <set attributeName="fill" to="#808080" begin="zoomminus.mouseover" end="zoomminus.mouseout"/>
                        </use>
                        <path d="M-4,0h8" fill="none" stroke="white" stroke-width="1.5" pointer-events="none"/>
                </g>
                <g id="dirArrow">
                        <path fill="none" stroke="white" stroke-width="1.5" d="M0,-3.0v7 M-2.5,-0.5L0,-3.0L2.5,-0.5"/>
                </g>
               <g id="resetDef">
                       <use xlink:href="#rim2" fill="#404040">
                               <set attributeName="fill" to="#808080" begin="reset.mouseover" end="reset.mouseout"/>
                       </use>
               </g>
        </defs>

<script type="text/javascript">
var viewWidth = 1238;
var viewHeight = 245;
var sectionId = 'dynsection-23';
</script>
<script xlink:href="../../svgpan.js"/>
<svg id="graph" class="graph">
<g id="viewport">
<title>Gfx::CBonedAnimFrameData::is_hires</title>
<polygon fill="white" stroke="none" points="-4,4 -4,-240.595 1234,-240.595 1234,4 -4,4"/>
<!-- Node1 -->
<g id="node1" class="node"><title>Node1</title>
<g id="a_node1"><a xlink:title=" ">
<polygon fill="#bfbfbf" stroke="black" points="1087,-96.0946 1087,-126.095 1230,-126.095 1230,-96.0946 1087,-96.0946"/>
<text text-anchor="start" x="1095" y="-114.095" font-family="Helvetica,sans-Serif" font-size="10.00">Gfx::CBonedAnimFrameData</text>
<text text-anchor="middle" x="1158.5" y="-103.095" font-family="Helvetica,sans-Serif" font-size="10.00">::is_hires</text>
</a>
</g>
</g>
<!-- Node2 -->
<g id="node2" class="node"><title>Node2</title>
<g id="a_node2"><a xlink:href="../../d3/dd9/class_gfx_1_1_c_boned_anim_frame_data.html#aae711a01b6b2d3aec4f3726919244746" target="_top" xlink:title=" ">
<polygon fill="white" stroke="black" points="875,-206.095 875,-236.095 1051,-236.095 1051,-206.095 875,-206.095"/>
<text text-anchor="start" x="883" y="-224.095" font-family="Helvetica,sans-Serif" font-size="10.00">Gfx::CBonedAnimFrameData</text>
<text text-anchor="middle" x="963" y="-213.095" font-family="Helvetica,sans-Serif" font-size="10.00">::GetCompressedInterpolatedFrames</text>
</a>
</g>
</g>
<!-- Node1&#45;&gt;Node2 -->
<g id="edge1" class="edge"><title>Node1&#45;&gt;Node2</title>
<path fill="none" stroke="midnightblue" d="M1133.27,-132.801C1112.6,-150.421 1081.47,-174.914 1051,-191.095 1040.13,-196.864 1027.93,-201.877 1016.19,-206.067"/>
<polygon fill="midnightblue" stroke="midnightblue" points="1135.65,-135.371 1140.92,-126.182 1131.07,-130.077 1135.65,-135.371"/>
</g>
<!-- Node3 -->
<g id="node3" class="node"><title>Node3</title>
<g id="a_node3"><a xlink:href="../../d3/dd9/class_gfx_1_1_c_boned_anim_frame_data.html#ae87ffcbf35deb58c96faf1cb4dc1bc0c" target="_top" xlink:title=" ">
<polygon fill="white" stroke="black" points="689.5,-184.095 689.5,-214.095 832.5,-214.095 832.5,-184.095 689.5,-184.095"/>
<text text-anchor="start" x="697.5" y="-202.095" font-family="Helvetica,sans-Serif" font-size="10.00">Gfx::CBonedAnimFrameData</text>
<text text-anchor="middle" x="761" y="-191.095" font-family="Helvetica,sans-Serif" font-size="10.00">::GetInterpolatedFrames</text>
</a>
</g>
</g>
<!-- Node1&#45;&gt;Node3 -->
<g id="edge4" class="edge"><title>Node1&#45;&gt;Node3</title>
<path fill="none" stroke="midnightblue" d="M1119.86,-130.745C1099.89,-140.38 1074.65,-151.337 1051,-158.095 978.154,-178.905 891.83,-189.392 832.613,-194.516"/>
<polygon fill="midnightblue" stroke="midnightblue" points="1121.49,-133.842 1128.92,-126.288 1118.4,-127.56 1121.49,-133.842"/>
</g>
<!-- Node4 -->
<g id="node4" class="node"><title>Node4</title>
<g id="a_node4"><a xlink:href="../../d3/dd9/class_gfx_1_1_c_boned_anim_frame_data.html#ac26ffd3f14b59896e11f6d349dc17f5f" target="_top" xlink:title=" ">
<polygon fill="white" stroke="black" points="885.5,-118.095 885.5,-148.095 1040.5,-148.095 1040.5,-118.095 885.5,-118.095"/>
<text text-anchor="start" x="893.5" y="-136.095" font-family="Helvetica,sans-Serif" font-size="10.00">Gfx::CBonedAnimFrameData</text>
<text text-anchor="middle" x="963" y="-125.095" font-family="Helvetica,sans-Serif" font-size="10.00">::GetInterpolatedCameraFrames</text>
</a>
</g>
</g>
<!-- Node1&#45;&gt;Node4 -->
<g id="edge3" class="edge"><title>Node1&#45;&gt;Node4</title>
<path fill="none" stroke="midnightblue" d="M1076.86,-120.263C1064.89,-121.624 1052.57,-123.024 1040.69,-124.376"/>
<polygon fill="midnightblue" stroke="midnightblue" points="1077.28,-123.738 1086.82,-119.131 1076.49,-116.783 1077.28,-123.738"/>
</g>
<!-- Node5 -->
<g id="node5" class="node"><title>Node5</title>
<g id="a_node5"><a xlink:href="../../d3/dd9/class_gfx_1_1_c_boned_anim_frame_data.html#af08b8fa16f855c3aaba57fd03db069d1" target="_top" xlink:title=" ">
<polygon fill="white" stroke="black" points="891.5,-30.0946 891.5,-60.0946 1034.5,-60.0946 1034.5,-30.0946 891.5,-30.0946"/>
<text text-anchor="start" x="899.5" y="-48.0946" font-family="Helvetica,sans-Serif" font-size="10.00">Gfx::CBonedAnimFrameData</text>
<text text-anchor="middle" x="963" y="-37.0946" font-family="Helvetica,sans-Serif" font-size="10.00">::plat_dma_to_aram</text>
</a>
</g>
</g>
<!-- Node1&#45;&gt;Node5 -->
<g id="edge5" class="edge"><title>Node1&#45;&gt;Node5</title>
<path fill="none" stroke="midnightblue" d="M1103.61,-92.7122C1073.53,-82.4547 1036.54,-69.8358 1008.19,-60.1659"/>
<polygon fill="midnightblue" stroke="midnightblue" points="1102.51,-96.0372 1113.11,-95.9529 1104.77,-89.412 1102.51,-96.0372"/>
</g>
<!-- Node6 -->
<g id="node6" class="node"><title>Node6</title>
<g id="a_node6"><a xlink:href="../../d3/dd9/class_gfx_1_1_c_boned_anim_frame_data.html#aa0cf94802626acf246b3d4dabf3ce3f7" target="_top" xlink:title=" ">
<polygon fill="white" stroke="black" points="683,-54.0946 683,-84.0946 839,-84.0946 839,-54.0946 683,-54.0946"/>
<text text-anchor="start" x="691" y="-72.0946" font-family="Helvetica,sans-Serif" font-size="10.00">Gfx::CBonedAnimFrameData</text>
<text text-anchor="middle" x="761" y="-61.0946" font-family="Helvetica,sans-Serif" font-size="10.00">::plat_read_compressed_stream</text>
</a>
</g>
</g>
<!-- Node1&#45;&gt;Node6 -->
<g id="edge13" class="edge"><title>Node1&#45;&gt;Node6</title>
<path fill="none" stroke="midnightblue" d="M1076.76,-102.521C1007.26,-95.1403 907.645,-84.5614 839.193,-77.2922"/>
<polygon fill="midnightblue" stroke="midnightblue" points="1076.48,-106.01 1086.79,-103.586 1077.22,-99.0493 1076.48,-106.01"/>
</g>
<!-- Node11 -->
<g id="node11" class="node"><title>Node11</title>
<g id="a_node11"><a xlink:href="../../d3/dd9/class_gfx_1_1_c_boned_anim_frame_data.html#a9db7877208b07a0a1c7794dde6641038" target="_top" xlink:title=" ">
<polygon fill="white" stroke="black" points="689.5,-5.09462 689.5,-35.0946 832.5,-35.0946 832.5,-5.09462 689.5,-5.09462"/>
<text text-anchor="start" x="697.5" y="-23.0946" font-family="Helvetica,sans-Serif" font-size="10.00">Gfx::CBonedAnimFrameData</text>
<text text-anchor="middle" x="761" y="-12.0946" font-family="Helvetica,sans-Serif" font-size="10.00">::plat_read_stream</text>
</a>
</g>
</g>
<!-- Node1&#45;&gt;Node11 -->
<g id="edge14" class="edge"><title>Node1&#45;&gt;Node11</title>
<path fill="none" stroke="midnightblue" d="M1139.32,-88.1154C1120.11,-65.8713 1087.58,-33.593 1051,-20.0946 980.159,6.04889 892.729,1.45335 832.698,-6.77444"/>
<polygon fill="midnightblue" stroke="midnightblue" points="1136.66,-90.3967 1145.77,-95.8032 1142.02,-85.8947 1136.66,-90.3967"/>
</g>
<!-- Node2&#45;&gt;Node3 -->
<g id="edge2" class="edge"><title>Node2&#45;&gt;Node3</title>
<path fill="none" stroke="midnightblue" d="M864.898,-210.413C854.023,-209.217 843.101,-208.016 832.649,-206.866"/>
<polygon fill="midnightblue" stroke="midnightblue" points="864.536,-213.895 874.859,-211.509 865.302,-206.937 864.536,-213.895"/>
</g>
<!-- Node5&#45;&gt;Node6 -->
<g id="edge6" class="edge"><title>Node5&#45;&gt;Node6</title>
<path fill="none" stroke="midnightblue" d="M881.411,-54.7653C867.422,-56.444 852.906,-58.1859 839.016,-59.8527"/>
<polygon fill="midnightblue" stroke="midnightblue" points="881.976,-58.2227 891.487,-53.5561 881.142,-51.2726 881.976,-58.2227"/>
</g>
<!-- Node5&#45;&gt;Node11 -->
<g id="edge11" class="edge"><title>Node5&#45;&gt;Node11</title>
<path fill="none" stroke="midnightblue" d="M881.505,-35.0328C865.3,-33.0072 848.384,-30.8927 832.55,-28.9134"/>
<polygon fill="midnightblue" stroke="midnightblue" points="881.131,-38.5131 891.487,-36.2806 881.999,-31.5671 881.131,-38.5131"/>
</g>
<!-- Node7 -->
<g id="node7" class="node"><title>Node7</title>
<g id="a_node7"><a xlink:href="../../d3/dd9/class_gfx_1_1_c_boned_anim_frame_data.html#a5518b72cf639177de12f82e1fad8f360" target="_top" xlink:title=" ">
<polygon fill="white" stroke="black" points="504,-29.0946 504,-59.0946 647,-59.0946 647,-29.0946 504,-29.0946"/>
<text text-anchor="start" x="512" y="-47.0946" font-family="Helvetica,sans-Serif" font-size="10.00">Gfx::CBonedAnimFrameData</text>
<text text-anchor="middle" x="575.5" y="-36.0946" font-family="Helvetica,sans-Serif" font-size="10.00">::PostLoad</text>
</a>
</g>
</g>
<!-- Node6&#45;&gt;Node7 -->
<g id="edge7" class="edge"><title>Node6&#45;&gt;Node7</title>
<path fill="none" stroke="midnightblue" d="M672.902,-57.2284C664.282,-56.0541 655.608,-54.8723 647.184,-53.7246"/>
<polygon fill="midnightblue" stroke="midnightblue" points="672.596,-60.719 682.977,-58.601 673.541,-53.7831 672.596,-60.719"/>
</g>
<!-- Node8 -->
<g id="node8" class="node"><title>Node8</title>
<g id="a_node8"><a xlink:href="../../d3/dd9/class_gfx_1_1_c_boned_anim_frame_data.html#ad9308d6e459125b4c42aeea201f3798b" target="_top" xlink:title=" ">
<polygon fill="white" stroke="black" points="325,-29.0946 325,-59.0946 468,-59.0946 468,-29.0946 325,-29.0946"/>
<text text-anchor="start" x="333" y="-47.0946" font-family="Helvetica,sans-Serif" font-size="10.00">Gfx::CBonedAnimFrameData</text>
<text text-anchor="middle" x="396.5" y="-36.0946" font-family="Helvetica,sans-Serif" font-size="10.00">::Load</text>
</a>
</g>
</g>
<!-- Node7&#45;&gt;Node8 -->
<g id="edge8" class="edge"><title>Node7&#45;&gt;Node8</title>
<path fill="none" stroke="midnightblue" d="M493.506,-44.0946C485.027,-44.0946 476.456,-44.0946 468.106,-44.0946"/>
<polygon fill="midnightblue" stroke="midnightblue" points="493.782,-47.5947 503.782,-44.0946 493.782,-40.5947 493.782,-47.5947"/>
</g>
<!-- Node9 -->
<g id="node9" class="node"><title>Node9</title>
<g id="a_node9"><a xlink:href="../../d2/d7b/class_ass_1_1_c_anim_asset.html#a0df5e5e8cf34d45c1de41c9db31ccc4b" target="_top" xlink:title=" ">
<polygon fill="white" stroke="black" points="167,-34.5946 167,-53.5946 289,-53.5946 289,-34.5946 167,-34.5946"/>
<text text-anchor="middle" x="228" y="-41.5946" font-family="Helvetica,sans-Serif" font-size="10.00">Ass::CAnimAsset::Load</text>
</a>
</g>
</g>
<!-- Node8&#45;&gt;Node9 -->
<g id="edge9" class="edge"><title>Node8&#45;&gt;Node9</title>
<path fill="none" stroke="midnightblue" d="M314.807,-44.0946C306.185,-44.0946 297.527,-44.0946 289.202,-44.0946"/>
<polygon fill="midnightblue" stroke="midnightblue" points="314.889,-47.5947 324.889,-44.0946 314.889,-40.5947 314.889,-47.5947"/>
</g>
<!-- Node10 -->
<g id="node10" class="node"><title>Node10</title>
<g id="a_node10"><a xlink:href="../../d2/d7b/class_ass_1_1_c_anim_asset.html#a9345fab864ab0104b7d6d94e6fff9aa5" target="_top" xlink:title=" ">
<polygon fill="white" stroke="black" points="0,-34.5946 0,-53.5946 131,-53.5946 131,-34.5946 0,-34.5946"/>
<text text-anchor="middle" x="65.5" y="-41.5946" font-family="Helvetica,sans-Serif" font-size="10.00">Ass::CAnimAsset::Reload</text>
</a>
</g>
</g>
<!-- Node9&#45;&gt;Node10 -->
<g id="edge10" class="edge"><title>Node9&#45;&gt;Node10</title>
<path fill="none" stroke="midnightblue" d="M156.549,-44.0946C148.081,-44.0946 139.466,-44.0946 131.087,-44.0946"/>
<polygon fill="midnightblue" stroke="midnightblue" points="156.779,-47.5947 166.779,-44.0946 156.779,-40.5947 156.779,-47.5947"/>
</g>
<!-- Node11&#45;&gt;Node7 -->
<g id="edge12" class="edge"><title>Node11&#45;&gt;Node7</title>
<path fill="none" stroke="midnightblue" d="M679.167,-30.6667C668.498,-32.0622 657.628,-33.4839 647.147,-34.8547"/>
<polygon fill="midnightblue" stroke="midnightblue" points="679.855,-34.1067 689.317,-29.3393 678.947,-27.1658 679.855,-34.1067"/>
</g>
</g>
</svg>
        <g id="navigator" transform="translate(0 0)" fill="#404254">
                <rect fill="#f2f5e9" fill-opacity="0.5" stroke="#606060" stroke-width=".5" x="0" y="0" width="60" height="60"/>
                <use id="zoomplus" xlink:href="#zoomPlus" x="17" y="9" onmousedown="handleZoom(evt,'in')"/>
                <use id="zoomminus" xlink:href="#zoomMin" x="42" y="9" onmousedown="handleZoom(evt,'out')"/>
                <use id="reset" xlink:href="#resetDef" x="30" y="36" onmousedown="handleReset()"/>
                <g id="arrowUp" xlink:href="#dirArrow" transform="translate(30 24)" onmousedown="handlePan(0,-1)">
                  <use xlink:href="#rim" fill="#404040">
                        <set attributeName="fill" to="#808080" begin="arrowUp.mouseover" end="arrowUp.mouseout"/>
                  </use>
                  <path fill="none" stroke="white" stroke-width="1.5" d="M0,-3.0v7 M-2.5,-0.5L0,-3.0L2.5,-0.5"/>
                </g>
                <g id="arrowRight" xlink:href="#dirArrow" transform="rotate(90) translate(36 -43)" onmousedown="handlePan(1,0)">
                  <use xlink:href="#rim" fill="#404040">
                        <set attributeName="fill" to="#808080" begin="arrowRight.mouseover" end="arrowRight.mouseout"/>
                  </use>
                  <path fill="none" stroke="white" stroke-width="1.5" d="M0,-3.0v7 M-2.5,-0.5L0,-3.0L2.5,-0.5"/>
                </g>
                <g id="arrowDown" xlink:href="#dirArrow" transform="rotate(180) translate(-30 -48)" onmousedown="handlePan(0,1)">
                  <use xlink:href="#rim" fill="#404040">
                        <set attributeName="fill" to="#808080" begin="arrowDown.mouseover" end="arrowDown.mouseout"/>
                  </use>
                  <path fill="none" stroke="white" stroke-width="1.5" d="M0,-3.0v7 M-2.5,-0.5L0,-3.0L2.5,-0.5"/>
                </g>
                <g id="arrowLeft" xlink:href="#dirArrow" transform="rotate(270) translate(-36 17)" onmousedown="handlePan(-1,0)">
                  <use xlink:href="#rim" fill="#404040">
                        <set attributeName="fill" to="#808080" begin="arrowLeft.mouseover" end="arrowLeft.mouseout"/>
                  </use>
                  <path fill="none" stroke="white" stroke-width="1.5" d="M0,-3.0v7 M-2.5,-0.5L0,-3.0L2.5,-0.5"/>
                </g>
        </g>
        <svg viewBox="0 0 15 15" width="100%" height="30px" preserveAspectRatio="xMaxYMin meet">
         <g id="arrow_out" transform="scale(0.3 0.3)">
          <a xlink:href="class_gfx_1_1_c_boned_anim_frame_data_a8cb2db1e01a4f2c85ed4e507f7a6e785_icgraph_org.svg" target="_base">
           <rect id="button" ry="5" rx="5" y="6" x="6" height="38" width="38"
                fill="#f2f5e9" fill-opacity="0.5" stroke="#606060" stroke-width="1.0"/>
           <path id="arrow"
             d="M 11.500037,31.436501 C 11.940474,20.09759 22.043105,11.32322 32.158766,21.979434 L 37.068811,17.246167 C 37.068811,17.246167 37.088388,32 37.088388,32 L 22.160133,31.978069 C 22.160133,31.978069 26.997745,27.140456 26.997745,27.140456 C 18.528582,18.264221 13.291696,25.230495 11.500037,31.436501 z"
             style="fill:#404040;"/>
          </a>
         </g>
        </svg>
</svg>
