<?xml version="1.0" encoding="UTF-8" standalone="no"?>
<!DOCTYPE svg PUBLIC "-//W3C//DTD SVG 1.1//EN"
 "http://www.w3.org/Graphics/SVG/1.1/DTD/svg11.dtd">
<!-- Generated by graphviz version 2.38.0 (20140413.2041)
 -->
<!-- Title: Gfx::CBonedAnimFrameData::plat_read_compressed_stream Pages: 1 -->
<svg width="653pt" height="192pt"
 viewBox="0.00 0.00 653.00 192.00" xmlns="http://www.w3.org/2000/svg" xmlns:xlink="http://www.w3.org/1999/xlink">
<g id="graph0" class="graph" transform="scale(1 1) rotate(0) translate(4 188)">
<title>Gfx::CBonedAnimFrameData::plat_read_compressed_stream</title>
<polygon fill="white" stroke="none" points="-4,4 -4,-188 649,-188 649,4 -4,4"/>
<!-- Node1 -->
<g id="node1" class="node"><title>Node1</title>
<g id="a_node1"><a xlink:title=" ">
<polygon fill="#bfbfbf" stroke="black" points="0,-83 0,-113 156,-113 156,-83 0,-83"/>
<text text-anchor="start" x="8" y="-101" font-family="Helvetica,sans-Serif" font-size="10.00">Gfx::CBonedAnimFrameData</text>
<text text-anchor="middle" x="78" y="-90" font-family="Helvetica,sans-Serif" font-size="10.00">::plat_read_compressed_stream</text>
</a>
</g>
</g>
<!-- Node2 -->
<g id="node2" class="node"><title>Node2</title>
<g id="a_node2"><a xlink:href="../../df/de2/_messages_8h.html#a701d7b9cdd94e5f87bc47f4e770492e6" target="_top" xlink:title=" ">
<polygon fill="white" stroke="black" points="224,-164.5 224,-183.5 303,-183.5 303,-164.5 224,-164.5"/>
<text text-anchor="middle" x="263.5" y="-171.5" font-family="Helvetica,sans-Serif" font-size="10.00">Dbg_Message</text>
</a>
</g>
</g>
<!-- Node1&#45;&gt;Node2 -->
<g id="edge1" class="edge"><title>Node1&#45;&gt;Node2</title>
<path fill="none" stroke="midnightblue" d="M109.801,-113.22C132.312,-124.085 163.719,-138.714 192,-150 201.727,-153.882 212.356,-157.71 222.344,-161.129"/>
<polygon fill="midnightblue" stroke="midnightblue" points="221.465,-164.527 232.059,-164.4 223.699,-157.892 221.465,-164.527"/>
</g>
<!-- Node3 -->
<g id="node3" class="node"><title>Node3</title>
<g id="a_node3"><a xlink:href="../../d3/dd9/class_gfx_1_1_c_boned_anim_frame_data.html#a8cb2db1e01a4f2c85ed4e507f7a6e785" target="_top" xlink:title=" ">
<polygon fill="white" stroke="black" points="371,-111 371,-141 514,-141 514,-111 371,-111"/>
<text text-anchor="start" x="379" y="-129" font-family="Helvetica,sans-Serif" font-size="10.00">Gfx::CBonedAnimFrameData</text>
<text text-anchor="middle" x="442.5" y="-118" font-family="Helvetica,sans-Serif" font-size="10.00">::is_hires</text>
</a>
</g>
</g>
<!-- Node1&#45;&gt;Node3 -->
<g id="edge2" class="edge"><title>Node1&#45;&gt;Node3</title>
<path fill="none" stroke="midnightblue" d="M156.016,-112.329C168.026,-114.164 180.323,-115.813 192,-117 248.16,-122.71 311.753,-124.939 360.68,-125.752"/>
<polygon fill="midnightblue" stroke="midnightblue" points="360.839,-129.255 370.89,-125.905 360.944,-122.255 360.839,-129.255"/>
</g>
<!-- Node4 -->
<g id="node4" class="node"><title>Node4</title>
<g id="a_node4"><a xlink:href="../../db/dc4/namespace_mem.html#a10246603d03405159c82320b96e3efbf" target="_top" xlink:title=" ">
<polygon fill="white" stroke="black" points="227,-88.5 227,-107.5 300,-107.5 300,-88.5 227,-88.5"/>
<text text-anchor="middle" x="263.5" y="-95.5" font-family="Helvetica,sans-Serif" font-size="10.00">Mem::Malloc</text>
</a>
</g>
</g>
<!-- Node1&#45;&gt;Node4 -->
<g id="edge3" class="edge"><title>Node1&#45;&gt;Node4</title>
<path fill="none" stroke="midnightblue" d="M156.023,-98C176.616,-98 198.225,-98 216.554,-98"/>
<polygon fill="midnightblue" stroke="midnightblue" points="216.652,-101.5 226.652,-98 216.652,-94.5001 216.652,-101.5"/>
</g>
<!-- Node5 -->
<g id="node5" class="node"><title>Node5</title>
<g id="a_node5"><a xlink:href="../../d3/dd9/class_gfx_1_1_c_boned_anim_frame_data.html#af08b8fa16f855c3aaba57fd03db069d1" target="_top" xlink:title=" ">
<polygon fill="white" stroke="black" points="192,-39 192,-69 335,-69 335,-39 192,-39"/>
<text text-anchor="start" x="200" y="-57" font-family="Helvetica,sans-Serif" font-size="10.00">Gfx::CBonedAnimFrameData</text>
<text text-anchor="middle" x="263.5" y="-46" font-family="Helvetica,sans-Serif" font-size="10.00">::plat_dma_to_aram</text>
</a>
</g>
</g>
<!-- Node1&#45;&gt;Node5 -->
<g id="edge4" class="edge"><title>Node1&#45;&gt;Node5</title>
<path fill="none" stroke="midnightblue" d="M141.637,-82.9808C157.199,-79.2492 174.009,-75.2186 190.001,-71.384"/>
<polygon fill="midnightblue" stroke="midnightblue" points="190.926,-74.7615 199.834,-69.0262 189.293,-67.9545 190.926,-74.7615"/>
</g>
<!-- Node10 -->
<g id="node10" class="node"><title>Node10</title>
<g id="a_node10"><a xlink:href="../../de/d47/namespace_gfx.html#a14f94f28d5649fb89ced0cc9875f053e" target="_top" xlink:title=" ">
<polygon fill="white" stroke="black" points="196.5,-0.5 196.5,-19.5 330.5,-19.5 330.5,-0.5 196.5,-0.5"/>
<text text-anchor="middle" x="263.5" y="-7.5" font-family="Helvetica,sans-Serif" font-size="10.00">Gfx::ReadCustomAnimKey</text>
</a>
</g>
</g>
<!-- Node1&#45;&gt;Node10 -->
<g id="edge10" class="edge"><title>Node1&#45;&gt;Node10</title>
<path fill="none" stroke="midnightblue" d="M99.6786,-82.8675C121.623,-67.4243 157.785,-43.697 192,-29 197.522,-26.6282 203.416,-24.4833 209.355,-22.5626"/>
<polygon fill="midnightblue" stroke="midnightblue" points="210.779,-25.7886 219.336,-19.5413 208.75,-19.0888 210.779,-25.7886"/>
</g>
<!-- Node5&#45;&gt;Node3 -->
<g id="edge7" class="edge"><title>Node5&#45;&gt;Node3</title>
<path fill="none" stroke="midnightblue" d="M308.69,-69.0989C317.453,-72.2533 326.552,-75.6434 335,-79 356.629,-87.5934 380.349,-97.9659 399.902,-106.778"/>
<polygon fill="midnightblue" stroke="midnightblue" points="398.586,-110.024 409.139,-110.964 401.475,-103.648 398.586,-110.024"/>
</g>
<!-- Node6 -->
<g id="node6" class="node"><title>Node6</title>
<g id="a_node6"><a xlink:href="../../d2/d0b/namespace_ns_a_r_a_m.html#a92200ab04303bffa479e4a478f7e7bed" target="_top" xlink:title=" ">
<polygon fill="white" stroke="black" points="401,-53.5 401,-72.5 484,-72.5 484,-53.5 401,-53.5"/>
<text text-anchor="middle" x="442.5" y="-60.5" font-family="Helvetica,sans-Serif" font-size="10.00">NsARAM::alloc</text>
</a>
</g>
</g>
<!-- Node5&#45;&gt;Node6 -->
<g id="edge5" class="edge"><title>Node5&#45;&gt;Node6</title>
<path fill="none" stroke="midnightblue" d="M335.218,-57.5958C353.718,-58.5365 373.3,-59.5322 390.546,-60.4091"/>
<polygon fill="midnightblue" stroke="midnightblue" points="390.787,-63.9258 400.952,-60.9382 391.142,-56.9348 390.787,-63.9258"/>
</g>
<!-- Node8 -->
<g id="node8" class="node"><title>Node8</title>
<g id="a_node8"><a xlink:href="../../d1/d2e/namespace_ns_d_m_a.html#abe57e36832a7e825408ccd76f296c2a1" target="_top" xlink:title=" ">
<polygon fill="white" stroke="black" points="396,-15.5 396,-34.5 489,-34.5 489,-15.5 396,-15.5"/>
<text text-anchor="middle" x="442.5" y="-22.5" font-family="Helvetica,sans-Serif" font-size="10.00">NsDMA::toARAM</text>
</a>
</g>
</g>
<!-- Node5&#45;&gt;Node8 -->
<g id="edge8" class="edge"><title>Node5&#45;&gt;Node8</title>
<path fill="none" stroke="midnightblue" d="M335.218,-42.4134C351.964,-39.6698 369.596,-36.7809 385.579,-34.1621"/>
<polygon fill="midnightblue" stroke="midnightblue" points="386.517,-37.5553 395.819,-32.4844 385.385,-30.6474 386.517,-37.5553"/>
</g>
<!-- Node7 -->
<g id="node7" class="node"><title>Node7</title>
<g id="a_node7"><a xlink:href="../../d2/d0b/namespace_ns_a_r_a_m.html#ae463046b947332de1069279e52afd774" target="_top" xlink:title=" ">
<polygon fill="white" stroke="black" points="550,-53.5 550,-72.5 645,-72.5 645,-53.5 550,-53.5"/>
<text text-anchor="middle" x="597.5" y="-60.5" font-family="Helvetica,sans-Serif" font-size="10.00">NsARAM::unused</text>
</a>
</g>
</g>
<!-- Node6&#45;&gt;Node7 -->
<g id="edge6" class="edge"><title>Node6&#45;&gt;Node7</title>
<path fill="none" stroke="midnightblue" d="M484.1,-63C501.13,-63 521.231,-63 539.691,-63"/>
<polygon fill="midnightblue" stroke="midnightblue" points="539.747,-66.5001 549.747,-63 539.747,-59.5001 539.747,-66.5001"/>
</g>
<!-- Node9 -->
<g id="node9" class="node"><title>Node9</title>
<g id="a_node9"><a xlink:href="../../d2/d58/p__dma_8cpp.html#a82d6c0fd8f4d386ca9d4310cc831ac05" target="_top" xlink:title=" ">
<polygon fill="white" stroke="black" points="563.5,-15.5 563.5,-34.5 631.5,-34.5 631.5,-15.5 563.5,-15.5"/>
<text text-anchor="middle" x="597.5" y="-22.5" font-family="Helvetica,sans-Serif" font-size="10.00">arqCallback</text>
</a>
</g>
</g>
<!-- Node8&#45;&gt;Node9 -->
<g id="edge9" class="edge"><title>Node8&#45;&gt;Node9</title>
<path fill="none" stroke="midnightblue" d="M489.405,-25C509.643,-25 533.302,-25 553.227,-25"/>
<polygon fill="midnightblue" stroke="midnightblue" points="553.269,-28.5001 563.269,-25 553.269,-21.5001 553.269,-28.5001"/>
</g>
</g>
</svg>
