<?xml version="1.0" encoding="UTF-8" standalone="no"?>
<!DOCTYPE svg PUBLIC "-//W3C//DTD SVG 1.1//EN"
 "http://www.w3.org/Graphics/SVG/1.1/DTD/svg11.dtd">
<!-- Generated by graphviz version 2.38.0 (20140413.2041)
 -->
<!-- Title: Sfx::CRiffChunk::Open Pages: 1 -->
<svg width="425pt" height="28pt"
 viewBox="0.00 0.00 425.00 28.00" xmlns="http://www.w3.org/2000/svg" xmlns:xlink="http://www.w3.org/1999/xlink">
<g id="graph0" class="graph" transform="scale(1 1) rotate(0) translate(4 24)">
<title>Sfx::CRiffChunk::Open</title>
<polygon fill="white" stroke="none" points="-4,4 -4,-24 421,-24 421,4 -4,4"/>
<!-- Node1 -->
<g id="node1" class="node"><title>Node1</title>
<g id="a_node1"><a xlink:title=" ">
<polygon fill="#bfbfbf" stroke="black" points="303,-0.5 303,-19.5 417,-19.5 417,-0.5 303,-0.5"/>
<text text-anchor="middle" x="360" y="-7.5" font-family="Helvetica,sans-Serif" font-size="10.00">Sfx::CRiffChunk::Open</text>
</a>
</g>
</g>
<!-- Node2 -->
<g id="node2" class="node"><title>Node2</title>
<g id="a_node2"><a xlink:href="../../d5/ddf/class_sfx_1_1_c_wave_file.html#a2fd1a00e905a18e79a1c6cdd310144f7" target="_top" xlink:title=" ">
<polygon fill="white" stroke="black" points="154,-0.5 154,-19.5 267,-19.5 267,-0.5 154,-0.5"/>
<text text-anchor="middle" x="210.5" y="-7.5" font-family="Helvetica,sans-Serif" font-size="10.00">Sfx::CWaveFile::Open</text>
</a>
</g>
</g>
<!-- Node1&#45;&gt;Node2 -->
<g id="edge1" class="edge"><title>Node1&#45;&gt;Node2</title>
<path fill="none" stroke="midnightblue" d="M292.803,-10C284.196,-10 275.449,-10 267.04,-10"/>
<polygon fill="midnightblue" stroke="midnightblue" points="292.816,-13.5001 302.816,-10 292.816,-6.5001 292.816,-13.5001"/>
</g>
<!-- Node3 -->
<g id="node3" class="node"><title>Node3</title>
<g id="a_node3"><a xlink:href="../../d5/d98/class_sfx_1_1_c_x_b_sound.html#a6287d035ecdc5de544fafb6b7904eb59" target="_top" xlink:title=" ">
<polygon fill="white" stroke="black" points="0,-0.5 0,-19.5 118,-19.5 118,-0.5 0,-0.5"/>
<text text-anchor="middle" x="59" y="-7.5" font-family="Helvetica,sans-Serif" font-size="10.00">Sfx::CXBSound::Create</text>
</a>
</g>
</g>
<!-- Node2&#45;&gt;Node3 -->
<g id="edge2" class="edge"><title>Node2&#45;&gt;Node3</title>
<path fill="none" stroke="midnightblue" d="M143.617,-10C135.156,-10 126.542,-10 118.215,-10"/>
<polygon fill="midnightblue" stroke="midnightblue" points="143.832,-13.5001 153.832,-10 143.832,-6.5001 143.832,-13.5001"/>
</g>
</g>
</svg>
