<?xml version="1.0" encoding="UTF-8" standalone="no"?>
<!DOCTYPE svg PUBLIC "-//W3C//DTD SVG 1.1//EN"
 "http://www.w3.org/Graphics/SVG/1.1/DTD/svg11.dtd">
<!-- Generated by graphviz version 2.38.0 (20140413.2041)
 -->
<!-- Title: Front::CScreenElement::get_window Pages: 1 -->
<svg width="276pt" height="88pt"
 viewBox="0.00 0.00 276.00 88.00" xmlns="http://www.w3.org/2000/svg" xmlns:xlink="http://www.w3.org/1999/xlink">
<g id="graph0" class="graph" transform="scale(1 1) rotate(0) translate(4 84)">
<title>Front::CScreenElement::get_window</title>
<polygon fill="white" stroke="none" points="-4,4 -4,-84 272,-84 272,4 -4,4"/>
<!-- Node1 -->
<g id="node1" class="node"><title>Node1</title>
<g id="a_node1"><a xlink:title=" ">
<polygon fill="#bfbfbf" stroke="black" points="149,-24.5 149,-54.5 268,-54.5 268,-24.5 149,-24.5"/>
<text text-anchor="start" x="157" y="-42.5" font-family="Helvetica,sans-Serif" font-size="10.00">Front::CScreenElement</text>
<text text-anchor="middle" x="208.5" y="-31.5" font-family="Helvetica,sans-Serif" font-size="10.00">::get_window</text>
</a>
</g>
</g>
<!-- Node2 -->
<g id="node2" class="node"><title>Node2</title>
<g id="a_node2"><a xlink:href="../../d6/d53/class_front_1_1_c_sprite_element.html#a256a1674b794318c5b838835e2c71ed1" target="_top" xlink:title=" ">
<polygon fill="white" stroke="black" points="0,-49.5 0,-79.5 113,-79.5 113,-49.5 0,-49.5"/>
<text text-anchor="start" x="8" y="-67.5" font-family="Helvetica,sans-Serif" font-size="10.00">Front::CSpriteElement</text>
<text text-anchor="middle" x="56.5" y="-56.5" font-family="Helvetica,sans-Serif" font-size="10.00">::update</text>
</a>
</g>
</g>
<!-- Node1&#45;&gt;Node2 -->
<g id="edge1" class="edge"><title>Node1&#45;&gt;Node2</title>
<path fill="none" stroke="midnightblue" d="M138.71,-50.965C130.18,-52.3866 121.543,-53.8262 113.243,-55.2095"/>
<polygon fill="midnightblue" stroke="midnightblue" points="139.358,-54.4054 148.647,-49.3089 138.207,-47.5006 139.358,-54.4054"/>
</g>
<!-- Node3 -->
<g id="node3" class="node"><title>Node3</title>
<g id="a_node3"><a xlink:href="../../d6/d9a/class_front_1_1_c_text_element.html#a8067c1f1225f4e4ab745085f6415d65f" target="_top" xlink:title=" ">
<polygon fill="white" stroke="black" points="3,-0.5 3,-30.5 110,-30.5 110,-0.5 3,-0.5"/>
<text text-anchor="start" x="11" y="-18.5" font-family="Helvetica,sans-Serif" font-size="10.00">Front::CTextElement</text>
<text text-anchor="middle" x="56.5" y="-7.5" font-family="Helvetica,sans-Serif" font-size="10.00">::update</text>
</a>
</g>
</g>
<!-- Node1&#45;&gt;Node3 -->
<g id="edge2" class="edge"><title>Node1&#45;&gt;Node3</title>
<path fill="none" stroke="midnightblue" d="M138.769,-28.503C129.217,-26.9747 119.529,-25.4247 110.33,-23.9528"/>
<polygon fill="midnightblue" stroke="midnightblue" points="138.219,-31.9595 148.647,-30.0834 139.325,-25.0474 138.219,-31.9595"/>
</g>
</g>
</svg>
