<?xml version="1.0" encoding="UTF-8" standalone="no"?>
<!DOCTYPE svg PUBLIC "-//W3C//DTD SVG 1.1//EN"
 "http://www.w3.org/Graphics/SVG/1.1/DTD/svg11.dtd">
<!-- Generated by graphviz version 2.38.0 (20140413.2041)
 -->
<!-- Title: Front::CScreenElement::SetMorph Pages: 1 -->
<svg width="1376pt" height="1016pt"
 viewBox="0.00 0.00 1376.00 1016.15" xmlns="http://www.w3.org/2000/svg" xmlns:xlink="http://www.w3.org/1999/xlink">
<g id="graph0" class="graph" transform="scale(1 1) rotate(0) translate(4 1012.15)">
<title>Front::CScreenElement::SetMorph</title>
<polygon fill="white" stroke="none" points="-4,4 -4,-1012.15 1372,-1012.15 1372,4 -4,4"/>
<!-- Node1 -->
<g id="node1" class="node"><title>Node1</title>
<g id="a_node1"><a xlink:title=" ">
<polygon fill="#bfbfbf" stroke="black" points="0,-649.5 0,-679.5 119,-679.5 119,-649.5 0,-649.5"/>
<text text-anchor="start" x="8" y="-667.5" font-family="Helvetica,sans-Serif" font-size="10.00">Front::CScreenElement</text>
<text text-anchor="middle" x="59.5" y="-656.5" font-family="Helvetica,sans-Serif" font-size="10.00">::SetMorph</text>
</a>
</g>
</g>
<!-- Node2 -->
<g id="node2" class="node"><title>Node2</title>
<g id="a_node2"><a xlink:href="../../d2/df7/class_script_1_1_c_struct.html#aa27bdd009eb62b22c75dac7b9398a902" target="_top" xlink:title=" ">
<polygon fill="white" stroke="black" points="530,-899 530,-918 674,-918 674,-899 530,-899"/>
<text text-anchor="middle" x="602" y="-906" font-family="Helvetica,sans-Serif" font-size="10.00">Script::CStruct::ContainsFlag</text>
</a>
</g>
</g>
<!-- Node1&#45;&gt;Node2 -->
<g id="edge1" class="edge"><title>Node1&#45;&gt;Node2</title>
<path fill="none" stroke="midnightblue" d="M65.6284,-679.922C77.0079,-712.086 107.203,-787.096 155,-832.5 210.769,-885.478 235.114,-891.924 310,-909.5 379.51,-925.814 460.958,-923.811 519.981,-918.743"/>
<polygon fill="midnightblue" stroke="midnightblue" points="520.349,-922.224 529.992,-917.836 519.717,-915.253 520.349,-922.224"/>
</g>
<!-- Node9 -->
<g id="node9" class="node"><title>Node9</title>
<g id="a_node9"><a xlink:href="../../d2/df7/class_script_1_1_c_struct.html#aa39e6fe5fdf1d6c48136ae26a7ad511e" target="_top" xlink:title=" ">
<polygon fill="white" stroke="black" points="320.5,-965 320.5,-984 469.5,-984 469.5,-965 320.5,-965"/>
<text text-anchor="middle" x="395" y="-972" font-family="Helvetica,sans-Serif" font-size="10.00">Script::CStruct::GetChecksum</text>
</a>
</g>
</g>
<!-- Node1&#45;&gt;Node9 -->
<g id="edge10" class="edge"><title>Node1&#45;&gt;Node9</title>
<path fill="none" stroke="midnightblue" d="M60.247,-679.755C60.352,-728.388 67.8986,-880.657 155,-950.5 205.021,-990.61 281.166,-991.198 334.013,-985.269"/>
<polygon fill="midnightblue" stroke="midnightblue" points="334.761,-988.703 344.258,-984.006 333.904,-981.756 334.761,-988.703"/>
</g>
<!-- Node11 -->
<g id="node11" class="node"><title>Node11</title>
<g id="a_node11"><a xlink:href="../../d2/df7/class_script_1_1_c_struct.html#acae6f1a5a02d406ab56292ec3fcfaefd" target="_top" xlink:title=" ">
<polygon fill="white" stroke="black" points="332.5,-851 332.5,-870 457.5,-870 457.5,-851 332.5,-851"/>
<text text-anchor="middle" x="395" y="-858" font-family="Helvetica,sans-Serif" font-size="10.00">Script::CStruct::GetFloat</text>
</a>
</g>
</g>
<!-- Node1&#45;&gt;Node11 -->
<g id="edge15" class="edge"><title>Node1&#45;&gt;Node11</title>
<path fill="none" stroke="midnightblue" d="M67.5906,-679.552C80.9289,-706.257 112.301,-761.984 155,-792.5 204.438,-827.833 271.83,-844.87 322.45,-853.049"/>
<polygon fill="midnightblue" stroke="midnightblue" points="321.925,-856.509 332.341,-854.569 322.989,-849.59 321.925,-856.509"/>
</g>
<!-- Node14 -->
<g id="node14" class="node"><title>Node14</title>
<g id="a_node14"><a xlink:href="../../d2/df7/class_script_1_1_c_struct.html#a72c2f2084bde06653913a8f1ea930f54" target="_top" xlink:title=" ">
<polygon fill="white" stroke="black" points="335,-699 335,-718 455,-718 455,-699 335,-699"/>
<text text-anchor="middle" x="395" y="-706" font-family="Helvetica,sans-Serif" font-size="10.00">Script::CStruct::GetPair</text>
</a>
</g>
</g>
<!-- Node1&#45;&gt;Node14 -->
<g id="edge23" class="edge"><title>Node1&#45;&gt;Node14</title>
<path fill="none" stroke="midnightblue" d="M113.152,-679.51C126.696,-682.918 141.311,-686.205 155,-688.5 211.622,-697.992 276.583,-703.061 324.474,-705.718"/>
<polygon fill="midnightblue" stroke="midnightblue" points="324.558,-709.227 334.73,-706.265 324.931,-702.237 324.558,-709.227"/>
</g>
<!-- Node15 -->
<g id="node15" class="node"><title>Node15</title>
<g id="a_node15"><a xlink:href="../../d7/df0/class_front_1_1_c_screen_element.html#ab1bb2308c14ab67bc7f5625d5dc427ed" target="_top" xlink:title=" ">
<polygon fill="white" stroke="black" points="155,-649.5 155,-679.5 274,-679.5 274,-649.5 155,-649.5"/>
<text text-anchor="start" x="163" y="-667.5" font-family="Helvetica,sans-Serif" font-size="10.00">Front::CScreenElement</text>
<text text-anchor="middle" x="214.5" y="-656.5" font-family="Helvetica,sans-Serif" font-size="10.00">::resolve_pos</text>
</a>
</g>
</g>
<!-- Node1&#45;&gt;Node15 -->
<g id="edge27" class="edge"><title>Node1&#45;&gt;Node15</title>
<path fill="none" stroke="midnightblue" d="M119.216,-664.5C127.544,-664.5 136.169,-664.5 144.667,-664.5"/>
<polygon fill="midnightblue" stroke="midnightblue" points="144.941,-668 154.941,-664.5 144.941,-661 144.941,-668"/>
</g>
<!-- Node19 -->
<g id="node19" class="node"><title>Node19</title>
<g id="a_node19"><a xlink:href="../../d7/df0/class_front_1_1_c_screen_element.html#ae253c8bee88d68634604888622053853" target="_top" xlink:title=" ">
<polygon fill="white" stroke="black" points="155,-753.5 155,-783.5 274,-783.5 274,-753.5 155,-753.5"/>
<text text-anchor="start" x="163" y="-771.5" font-family="Helvetica,sans-Serif" font-size="10.00">Front::CScreenElement</text>
<text text-anchor="middle" x="214.5" y="-760.5" font-family="Helvetica,sans-Serif" font-size="10.00">::resolve_rgba</text>
</a>
</g>
</g>
<!-- Node1&#45;&gt;Node19 -->
<g id="edge36" class="edge"><title>Node1&#45;&gt;Node19</title>
<path fill="none" stroke="midnightblue" d="M82.7475,-679.622C109.149,-697.569 153.313,-727.588 182.916,-747.711"/>
<polygon fill="midnightblue" stroke="midnightblue" points="180.988,-750.632 191.226,-753.359 184.923,-744.843 180.988,-750.632"/>
</g>
<!-- Node23 -->
<g id="node23" class="node"><title>Node23</title>
<g id="a_node23"><a xlink:href="../../d7/df0/class_front_1_1_c_screen_element.html#a1777c4ffcc6acca8ce58fba6ba95d27d" target="_top" xlink:title=" ">
<polygon fill="white" stroke="black" points="155,-279.5 155,-309.5 274,-309.5 274,-279.5 155,-279.5"/>
<text text-anchor="start" x="163" y="-297.5" font-family="Helvetica,sans-Serif" font-size="10.00">Front::CScreenElement</text>
<text text-anchor="middle" x="214.5" y="-286.5" font-family="Helvetica,sans-Serif" font-size="10.00">::SetAlpha</text>
</a>
</g>
</g>
<!-- Node1&#45;&gt;Node23 -->
<g id="edge44" class="edge"><title>Node1&#45;&gt;Node23</title>
<path fill="none" stroke="midnightblue" d="M60.1747,-649.178C59.8811,-596.31 65.9025,-419.26 155,-318.5 155.859,-317.529 156.763,-316.596 157.707,-315.7"/>
<polygon fill="midnightblue" stroke="midnightblue" points="159.879,-318.444 165.61,-309.533 155.573,-312.926 159.879,-318.444"/>
</g>
<!-- Node24 -->
<g id="node24" class="node"><title>Node24</title>
<g id="a_node24"><a xlink:href="../../d7/df0/class_front_1_1_c_screen_element.html#a5be362f0911afdd1dde8bf8b0f905106" target="_top" xlink:title=" ">
<polygon fill="white" stroke="black" points="155,-164.5 155,-194.5 274,-194.5 274,-164.5 155,-164.5"/>
<text text-anchor="start" x="163" y="-182.5" font-family="Helvetica,sans-Serif" font-size="10.00">Front::CScreenElement</text>
<text text-anchor="middle" x="214.5" y="-171.5" font-family="Helvetica,sans-Serif" font-size="10.00">::SetAnimTime</text>
</a>
</g>
</g>
<!-- Node1&#45;&gt;Node24 -->
<g id="edge45" class="edge"><title>Node1&#45;&gt;Node24</title>
<path fill="none" stroke="midnightblue" d="M62.2531,-649.209C68.8244,-595.296 94.7657,-409.772 155,-269.5 165.394,-245.294 182.147,-220.379 195.066,-202.918"/>
<polygon fill="midnightblue" stroke="midnightblue" points="198.183,-204.598 201.419,-194.51 192.598,-200.379 198.183,-204.598"/>
</g>
<!-- Node26 -->
<g id="node26" class="node"><title>Node26</title>
<g id="a_node26"><a xlink:href="../../d7/df0/class_front_1_1_c_screen_element.html#a1dd8e5b816bdf363ac8e0ef09fae7297" target="_top" xlink:title=" ">
<polygon fill="white" stroke="black" points="155,-503.5 155,-533.5 274,-533.5 274,-503.5 155,-503.5"/>
<text text-anchor="start" x="163" y="-521.5" font-family="Helvetica,sans-Serif" font-size="10.00">Front::CScreenElement</text>
<text text-anchor="middle" x="214.5" y="-510.5" font-family="Helvetica,sans-Serif" font-size="10.00">::SetPos</text>
</a>
</g>
</g>
<!-- Node1&#45;&gt;Node26 -->
<g id="edge47" class="edge"><title>Node1&#45;&gt;Node26</title>
<path fill="none" stroke="midnightblue" d="M76.2974,-649.425C103.325,-623.634 158.567,-570.919 190.088,-540.841"/>
<polygon fill="midnightblue" stroke="midnightblue" points="192.741,-543.147 197.559,-533.711 187.908,-538.083 192.741,-543.147"/>
</g>
<!-- Node32 -->
<g id="node32" class="node"><title>Node32</title>
<g id="a_node32"><a xlink:href="../../d7/df0/class_front_1_1_c_screen_element.html#ae8f41878c47e19240eb2e62298f1a331" target="_top" xlink:title=" ">
<polygon fill="white" stroke="black" points="155,-49.5 155,-79.5 274,-79.5 274,-49.5 155,-49.5"/>
<text text-anchor="start" x="163" y="-67.5" font-family="Helvetica,sans-Serif" font-size="10.00">Front::CScreenElement</text>
<text text-anchor="middle" x="214.5" y="-56.5" font-family="Helvetica,sans-Serif" font-size="10.00">::SetRGBA</text>
</a>
</g>
</g>
<!-- Node1&#45;&gt;Node32 -->
<g id="edge57" class="edge"><title>Node1&#45;&gt;Node32</title>
<path fill="none" stroke="midnightblue" d="M61.1573,-649.302C64.3239,-586.231 81.0547,-339.745 155,-154.5 164.707,-130.181 181.382,-105.446 194.451,-88.0764"/>
<polygon fill="midnightblue" stroke="midnightblue" points="197.569,-89.7637 200.901,-79.7062 192.024,-85.4911 197.569,-89.7637"/>
</g>
<!-- Node35 -->
<g id="node35" class="node"><title>Node35</title>
<g id="a_node35"><a xlink:href="../../d7/df0/class_front_1_1_c_screen_element.html#a079f4e33e1a910f469afe52490788936" target="_top" xlink:title=" ">
<polygon fill="white" stroke="black" points="155,-328.5 155,-358.5 274,-358.5 274,-328.5 155,-328.5"/>
<text text-anchor="start" x="163" y="-346.5" font-family="Helvetica,sans-Serif" font-size="10.00">Front::CScreenElement</text>
<text text-anchor="middle" x="214.5" y="-335.5" font-family="Helvetica,sans-Serif" font-size="10.00">::SetScale</text>
</a>
</g>
</g>
<!-- Node1&#45;&gt;Node35 -->
<g id="edge60" class="edge"><title>Node1&#45;&gt;Node35</title>
<path fill="none" stroke="midnightblue" d="M67.6743,-649.448C92.0688,-598.267 171.96,-430.653 201.969,-367.692"/>
<polygon fill="midnightblue" stroke="midnightblue" points="205.198,-369.052 206.341,-358.519 198.879,-366.04 205.198,-369.052"/>
</g>
<!-- Node2&#45;&gt;Node2 -->
<g id="edge2" class="edge"><title>Node2&#45;&gt;Node2</title>
<path fill="none" stroke="midnightblue" d="M574.873,-918.257C561.677,-927.065 570.719,-936.5 602,-936.5 623.506,-936.5 634.5,-932.041 634.983,-926.391"/>
<polygon fill="midnightblue" stroke="midnightblue" points="637.81,-924.327 629.127,-918.257 632.129,-928.417 637.81,-924.327"/>
</g>
<!-- Node3 -->
<g id="node3" class="node"><title>Node3</title>
<g id="a_node3"><a xlink:href="../../d1/d54/namespace_script.html#ae80ed69ea4edcbcbbbd4985a6efdcd6e" target="_top" xlink:title=" ">
<polygon fill="white" stroke="black" points="870,-823 870,-842 1009,-842 1009,-823 870,-823"/>
<text text-anchor="middle" x="939.5" y="-830" font-family="Helvetica,sans-Serif" font-size="10.00">Script::FindChecksumName</text>
</a>
</g>
</g>
<!-- Node2&#45;&gt;Node3 -->
<g id="edge3" class="edge"><title>Node2&#45;&gt;Node3</title>
<path fill="none" stroke="midnightblue" d="M674.001,-907.657C720.347,-905.524 781.728,-899.68 834,-884.5 863.364,-875.973 894.417,-859.432 914.967,-847.287"/>
<polygon fill="midnightblue" stroke="midnightblue" points="916.873,-850.225 923.626,-842.061 913.256,-844.232 916.873,-850.225"/>
</g>
<!-- Node7 -->
<g id="node7" class="node"><title>Node7</title>
<g id="a_node7"><a xlink:href="../../d1/d54/namespace_script.html#a43181580ea5d38e4bf1aa19ccd5e9e85" target="_top" xlink:title=" ">
<polygon fill="white" stroke="black" points="738,-937 738,-956 820,-956 820,-937 738,-937"/>
<text text-anchor="middle" x="779" y="-944" font-family="Helvetica,sans-Serif" font-size="10.00">Script::Resolve</text>
</a>
</g>
</g>
<!-- Node2&#45;&gt;Node7 -->
<g id="edge7" class="edge"><title>Node2&#45;&gt;Node7</title>
<path fill="none" stroke="midnightblue" d="M647.16,-918.089C671.742,-923.427 702.429,-930.09 727.905,-935.622"/>
<polygon fill="midnightblue" stroke="midnightblue" points="727.234,-939.058 737.749,-937.76 728.719,-932.217 727.234,-939.058"/>
</g>
<!-- Node4 -->
<g id="node4" class="node"><title>Node4</title>
<g id="a_node4"><a xlink:href="../../d1/d54/namespace_script.html#a5cc52c4ff5ea5bb27681d819212dfdca" target="_top" xlink:title=" ">
<polygon fill="white" stroke="black" points="1045,-842 1045,-861 1208,-861 1208,-842 1045,-842"/>
<text text-anchor="middle" x="1126.5" y="-849" font-family="Helvetica,sans-Serif" font-size="10.00">Script::FindChecksumNameNULL</text>
</a>
</g>
</g>
<!-- Node3&#45;&gt;Node4 -->
<g id="edge4" class="edge"><title>Node3&#45;&gt;Node4</title>
<path fill="none" stroke="midnightblue" d="M1009.12,-839.548C1017.48,-840.406 1026.11,-841.292 1034.72,-842.176"/>
<polygon fill="midnightblue" stroke="midnightblue" points="1034.49,-845.672 1044.8,-843.212 1035.21,-838.708 1034.49,-845.672"/>
</g>
<!-- Node6 -->
<g id="node6" class="node"><title>Node6</title>
<g id="a_node6"><a xlink:href="../../da/d37/namespace_dbg.html#ab406a8cc16de5046c7d9fd09c9de5e22" target="_top" xlink:title=" ">
<polygon fill="white" stroke="black" points="1093.5,-804 1093.5,-823 1159.5,-823 1159.5,-804 1093.5,-804"/>
<text text-anchor="middle" x="1126.5" y="-811" font-family="Helvetica,sans-Serif" font-size="10.00">Dbg::sprintf</text>
</a>
</g>
</g>
<!-- Node3&#45;&gt;Node6 -->
<g id="edge6" class="edge"><title>Node3&#45;&gt;Node6</title>
<path fill="none" stroke="midnightblue" d="M1009.12,-825.452C1033.98,-822.899 1061.31,-820.093 1083.23,-817.841"/>
<polygon fill="midnightblue" stroke="midnightblue" points="1083.62,-821.32 1093.21,-816.817 1082.9,-814.357 1083.62,-821.32"/>
</g>
<!-- Node5 -->
<g id="node5" class="node"><title>Node5</title>
<g id="a_node5"><a xlink:href="../../d0/d31/namespace_config.html#a709cc81780d49900157e3476b63aa25d" target="_top" xlink:title=" ">
<polygon fill="white" stroke="black" points="1244,-842 1244,-861 1368,-861 1368,-842 1244,-842"/>
<text text-anchor="middle" x="1306" y="-849" font-family="Helvetica,sans-Serif" font-size="10.00">Config::GotExtraMemory</text>
</a>
</g>
</g>
<!-- Node4&#45;&gt;Node5 -->
<g id="edge5" class="edge"><title>Node4&#45;&gt;Node5</title>
<path fill="none" stroke="midnightblue" d="M1208.2,-851.5C1216.73,-851.5 1225.36,-851.5 1233.77,-851.5"/>
<polygon fill="midnightblue" stroke="midnightblue" points="1233.9,-855 1243.9,-851.5 1233.9,-848 1233.9,-855"/>
</g>
<!-- Node7&#45;&gt;Node3 -->
<g id="edge8" class="edge"><title>Node7&#45;&gt;Node3</title>
<path fill="none" stroke="midnightblue" d="M805.516,-936.973C814.791,-933.047 825.16,-928.099 834,-922.5 867.956,-900.993 902.314,-868.992 921.946,-849.508"/>
<polygon fill="midnightblue" stroke="midnightblue" points="924.615,-851.787 929.182,-842.227 919.65,-846.853 924.615,-851.787"/>
</g>
<!-- Node8 -->
<g id="node8" class="node"><title>Node8</title>
<g id="a_node8"><a xlink:href="../../d1/d54/namespace_script.html#af293a36c230b10de7d8151c2990b233b" target="_top" xlink:title=" ">
<polygon fill="white" stroke="black" points="882.5,-937 882.5,-956 996.5,-956 996.5,-937 882.5,-937"/>
<text text-anchor="middle" x="939.5" y="-944" font-family="Helvetica,sans-Serif" font-size="10.00">Script::LookUpSymbol</text>
</a>
</g>
</g>
<!-- Node7&#45;&gt;Node8 -->
<g id="edge9" class="edge"><title>Node7&#45;&gt;Node8</title>
<path fill="none" stroke="midnightblue" d="M820.406,-946.5C836.124,-946.5 854.549,-946.5 872.11,-946.5"/>
<polygon fill="midnightblue" stroke="midnightblue" points="872.322,-950 882.322,-946.5 872.322,-943 872.322,-950"/>
</g>
<!-- Node9&#45;&gt;Node3 -->
<g id="edge11" class="edge"><title>Node9&#45;&gt;Node3</title>
<path fill="none" stroke="midnightblue" d="M432.689,-984.028C511.452,-1002.38 700.409,-1035.01 834,-965.5 846.674,-958.905 900.468,-885.477 925.54,-850.639"/>
<polygon fill="midnightblue" stroke="midnightblue" points="928.538,-852.465 931.524,-842.3 922.85,-848.384 928.538,-852.465"/>
</g>
<!-- Node9&#45;&gt;Node7 -->
<g id="edge14" class="edge"><title>Node9&#45;&gt;Node7</title>
<path fill="none" stroke="midnightblue" d="M469.653,-969.101C545.592,-963.535 661.937,-955.007 727.864,-950.175"/>
<polygon fill="midnightblue" stroke="midnightblue" points="728.281,-953.654 737.999,-949.432 727.769,-946.673 728.281,-953.654"/>
</g>
<!-- Node9&#45;&gt;Node9 -->
<g id="edge12" class="edge"><title>Node9&#45;&gt;Node9</title>
<path fill="none" stroke="midnightblue" d="M367.257,-984.257C353.76,-993.065 363.008,-1002.5 395,-1002.5 416.995,-1002.5 428.239,-998.041 428.733,-992.391"/>
<polygon fill="midnightblue" stroke="midnightblue" points="431.491,-990.234 422.743,-984.257 425.854,-994.385 431.491,-990.234"/>
</g>
<!-- Node10 -->
<g id="node10" class="node"><title>Node10</title>
<g id="a_node10"><a xlink:href="../../d1/d54/namespace_script.html#a0d003ee93577e31adb6597bce0002009" target="_top" xlink:title=" ">
<polygon fill="white" stroke="black" points="548.5,-823 548.5,-842 655.5,-842 655.5,-823 548.5,-823"/>
<text text-anchor="middle" x="602" y="-830" font-family="Helvetica,sans-Serif" font-size="10.00">Script::PrintContents</text>
</a>
</g>
</g>
<!-- Node9&#45;&gt;Node10 -->
<g id="edge13" class="edge"><title>Node9&#45;&gt;Node10</title>
<path fill="none" stroke="midnightblue" d="M409.24,-964.955C431.271,-949.109 476.902,-916.45 516,-889.5 536.737,-875.206 560.57,-859.266 577.713,-847.885"/>
<polygon fill="midnightblue" stroke="midnightblue" points="580.084,-850.512 586.486,-842.07 576.217,-844.677 580.084,-850.512"/>
</g>
<!-- Node11&#45;&gt;Node3 -->
<g id="edge16" class="edge"><title>Node11&#45;&gt;Node3</title>
<path fill="none" stroke="midnightblue" d="M457.557,-859.405C516.675,-858.163 608.485,-855.739 688,-851.5 745.655,-848.427 810.666,-843.451 860.009,-839.363"/>
<polygon fill="midnightblue" stroke="midnightblue" points="860.302,-842.85 869.976,-838.531 859.72,-835.875 860.302,-842.85"/>
</g>
<!-- Node11&#45;&gt;Node10 -->
<g id="edge17" class="edge"><title>Node11&#45;&gt;Node10</title>
<path fill="none" stroke="midnightblue" d="M457.507,-852.099C483.015,-848.615 512.579,-844.577 538.22,-841.075"/>
<polygon fill="midnightblue" stroke="midnightblue" points="538.771,-844.532 548.205,-839.711 537.824,-837.597 538.771,-844.532"/>
</g>
<!-- Node12 -->
<g id="node12" class="node"><title>Node12</title>
<g id="a_node12"><a xlink:href="../../d2/df7/class_script_1_1_c_struct.html#a1e05f0a66cff4a700fb67fdc117d2d7f" target="_top" xlink:title=" ">
<polygon fill="white" stroke="black" points="536,-729 536,-748 668,-748 668,-729 536,-729"/>
<text text-anchor="middle" x="602" y="-736" font-family="Helvetica,sans-Serif" font-size="10.00">Script::CStruct::search_for</text>
</a>
</g>
</g>
<!-- Node11&#45;&gt;Node12 -->
<g id="edge18" class="edge"><title>Node11&#45;&gt;Node12</title>
<path fill="none" stroke="midnightblue" d="M455.1,-850.946C463.691,-848.477 472.244,-845.38 480,-841.5 491.664,-835.665 552.119,-782.249 582.919,-754.73"/>
<polygon fill="midnightblue" stroke="midnightblue" points="585.293,-757.302 590.41,-748.025 580.624,-752.087 585.293,-757.302"/>
</g>
<!-- Node12&#45;&gt;Node3 -->
<g id="edge19" class="edge"><title>Node12&#45;&gt;Node3</title>
<path fill="none" stroke="midnightblue" d="M668.196,-745.373C715.15,-751.516 779.555,-762.41 834,-780.5 862.684,-790.031 893.417,-806.108 914.075,-817.868"/>
<polygon fill="midnightblue" stroke="midnightblue" points="912.406,-820.946 922.814,-822.928 915.914,-814.888 912.406,-820.946"/>
</g>
<!-- Node12&#45;&gt;Node7 -->
<g id="edge21" class="edge"><title>Node12&#45;&gt;Node7</title>
<path fill="none" stroke="midnightblue" d="M615.716,-748.046C633.168,-761.503 664.995,-787.343 688,-813.5 721.125,-851.164 752.14,-901.575 767.652,-928.216"/>
<polygon fill="midnightblue" stroke="midnightblue" points="764.62,-929.965 772.641,-936.888 770.688,-926.475 764.62,-929.965"/>
</g>
<!-- Node12&#45;&gt;Node12 -->
<g id="edge22" class="edge"><title>Node12&#45;&gt;Node12</title>
<path fill="none" stroke="midnightblue" d="M574.873,-748.257C561.677,-757.065 570.719,-766.5 602,-766.5 623.506,-766.5 634.5,-762.041 634.983,-756.391"/>
<polygon fill="midnightblue" stroke="midnightblue" points="637.81,-754.327 629.127,-748.257 632.129,-758.417 637.81,-754.327"/>
</g>
<!-- Node13 -->
<g id="node13" class="node"><title>Node13</title>
<g id="a_node13"><a xlink:href="../../d1/d54/namespace_script.html#af32f99ba26ca0f255240413a4e23a754" target="_top" xlink:title=" ">
<polygon fill="white" stroke="black" points="724,-695 724,-714 834,-714 834,-695 724,-695"/>
<text text-anchor="middle" x="779" y="-702" font-family="Helvetica,sans-Serif" font-size="10.00">Script::GetTypeName</text>
</a>
</g>
</g>
<!-- Node12&#45;&gt;Node13 -->
<g id="edge20" class="edge"><title>Node12&#45;&gt;Node13</title>
<path fill="none" stroke="midnightblue" d="M652.213,-728.939C672.897,-724.92 697.136,-720.211 718.786,-716.004"/>
<polygon fill="midnightblue" stroke="midnightblue" points="719.705,-719.391 728.854,-714.048 718.37,-712.52 719.705,-719.391"/>
</g>
<!-- Node14&#45;&gt;Node3 -->
<g id="edge24" class="edge"><title>Node14&#45;&gt;Node3</title>
<path fill="none" stroke="midnightblue" d="M438.153,-698.96C472.32,-691.235 514.985,-681.613 516,-681.5 656.48,-665.891 709.294,-618.968 834,-685.5 886.35,-713.429 918.456,-780.553 931.605,-813.546"/>
<polygon fill="midnightblue" stroke="midnightblue" points="928.367,-814.876 935.21,-822.965 934.905,-812.375 928.367,-814.876"/>
</g>
<!-- Node14&#45;&gt;Node10 -->
<g id="edge25" class="edge"><title>Node14&#45;&gt;Node10</title>
<path fill="none" stroke="midnightblue" d="M411.746,-718.024C447.296,-739.528 533.989,-791.967 576.576,-817.727"/>
<polygon fill="midnightblue" stroke="midnightblue" points="574.833,-820.762 585.201,-822.943 578.456,-814.773 574.833,-820.762"/>
</g>
<!-- Node14&#45;&gt;Node12 -->
<g id="edge26" class="edge"><title>Node14&#45;&gt;Node12</title>
<path fill="none" stroke="midnightblue" d="M455.019,-717.137C477.069,-720.364 502.414,-724.073 525.732,-727.485"/>
<polygon fill="midnightblue" stroke="midnightblue" points="525.532,-730.993 535.933,-728.978 526.545,-724.067 525.532,-730.993"/>
</g>
<!-- Node15&#45;&gt;Node2 -->
<g id="edge28" class="edge"><title>Node15&#45;&gt;Node2</title>
<path fill="none" stroke="midnightblue" d="M229.519,-679.683C242.772,-694.8 262.318,-719.197 274,-743.5 301.089,-799.854 262.407,-838.949 310,-879.5 340.589,-905.563 444.622,-910.482 519.57,-910.44"/>
<polygon fill="midnightblue" stroke="midnightblue" points="519.955,-913.939 529.942,-910.403 519.93,-906.939 519.955,-913.939"/>
</g>
<!-- Node15&#45;&gt;Node14 -->
<g id="edge29" class="edge"><title>Node15&#45;&gt;Node14</title>
<path fill="none" stroke="midnightblue" d="M270.88,-679.51C283.703,-682.885 297.309,-686.387 310,-689.5 319.802,-691.904 330.275,-694.362 340.383,-696.677"/>
<polygon fill="midnightblue" stroke="midnightblue" points="339.805,-700.135 350.332,-698.937 341.356,-693.309 339.805,-700.135"/>
</g>
<!-- Node16 -->
<g id="node16" class="node"><title>Node16</title>
<g id="a_node16"><a xlink:href="../../db/d5a/struct_front_1_1_c_screen_element_1_1_concat_props.html#a5405979f8cfdfcecd83da845aa8bbba4" target="_top" xlink:title=" ">
<polygon fill="white" stroke="black" points="525,-497.5 525,-527.5 679,-527.5 679,-497.5 525,-497.5"/>
<text text-anchor="start" x="533" y="-515.5" font-family="Helvetica,sans-Serif" font-size="10.00">Front::CScreenElement</text>
<text text-anchor="middle" x="602" y="-504.5" font-family="Helvetica,sans-Serif" font-size="10.00">::ConcatProps::GetScreenPosX</text>
</a>
</g>
</g>
<!-- Node15&#45;&gt;Node16 -->
<g id="edge30" class="edge"><title>Node15&#45;&gt;Node16</title>
<path fill="none" stroke="midnightblue" d="M238.103,-649.368C256.825,-637.265 284.411,-620.409 310,-608.5 383.329,-574.372 472.197,-546.921 532.283,-530.253"/>
<polygon fill="midnightblue" stroke="midnightblue" points="533.328,-533.595 542.043,-527.57 531.473,-526.846 533.328,-533.595"/>
</g>
<!-- Node17 -->
<g id="node17" class="node"><title>Node17</title>
<g id="a_node17"><a xlink:href="../../db/d5a/struct_front_1_1_c_screen_element_1_1_concat_props.html#aa0470ec7df7b7c7ea3ba37171721be52" target="_top" xlink:title=" ">
<polygon fill="white" stroke="black" points="524.5,-546.5 524.5,-576.5 679.5,-576.5 679.5,-546.5 524.5,-546.5"/>
<text text-anchor="start" x="532.5" y="-564.5" font-family="Helvetica,sans-Serif" font-size="10.00">Front::CScreenElement</text>
<text text-anchor="middle" x="602" y="-553.5" font-family="Helvetica,sans-Serif" font-size="10.00">::ConcatProps::GetScreenPosY</text>
</a>
</g>
</g>
<!-- Node15&#45;&gt;Node17 -->
<g id="edge31" class="edge"><title>Node15&#45;&gt;Node17</title>
<path fill="none" stroke="midnightblue" d="M274.229,-654.883C328.284,-645.369 410.387,-629.24 480,-608.5 506.079,-600.73 534.477,-589.833 557.203,-580.488"/>
<polygon fill="midnightblue" stroke="midnightblue" points="558.683,-583.663 566.573,-576.592 555.995,-577.2 558.683,-583.663"/>
</g>
<!-- Node18 -->
<g id="node18" class="node"><title>Node18</title>
<g id="a_node18"><a xlink:href="../../d2/df7/class_script_1_1_c_struct.html#a7d6929b5a907965b7a7ef86dc9b90123" target="_top" xlink:title=" ">
<polygon fill="white" stroke="black" points="323.5,-661 323.5,-680 466.5,-680 466.5,-661 323.5,-661"/>
<text text-anchor="middle" x="395" y="-668" font-family="Helvetica,sans-Serif" font-size="10.00">Script::CStruct::GetStructure</text>
</a>
</g>
</g>
<!-- Node15&#45;&gt;Node18 -->
<g id="edge32" class="edge"><title>Node15&#45;&gt;Node18</title>
<path fill="none" stroke="midnightblue" d="M274.442,-666.481C286.782,-666.896 299.999,-667.34 312.982,-667.777"/>
<polygon fill="midnightblue" stroke="midnightblue" points="313.21,-671.286 323.322,-668.124 313.445,-664.29 313.21,-671.286"/>
</g>
<!-- Node18&#45;&gt;Node3 -->
<g id="edge33" class="edge"><title>Node18&#45;&gt;Node3</title>
<path fill="none" stroke="midnightblue" d="M437.677,-660.989C460.645,-656.221 489.744,-650.951 516,-648.5 656.722,-635.366 711.935,-576.258 834,-647.5 896.61,-684.042 924.676,-773.503 934.338,-813.1"/>
<polygon fill="midnightblue" stroke="midnightblue" points="930.931,-813.902 936.588,-822.86 937.752,-812.33 930.931,-813.902"/>
</g>
<!-- Node18&#45;&gt;Node10 -->
<g id="edge34" class="edge"><title>Node18&#45;&gt;Node10</title>
<path fill="none" stroke="midnightblue" d="M464.706,-680.04C470.22,-682.547 475.42,-685.654 480,-689.5 511.735,-716.143 489.68,-743.497 516,-775.5 530.897,-793.613 553.028,-808.201 570.974,-818.084"/>
<polygon fill="midnightblue" stroke="midnightblue" points="569.441,-821.232 579.917,-822.816 572.715,-815.045 569.441,-821.232"/>
</g>
<!-- Node18&#45;&gt;Node12 -->
<g id="edge35" class="edge"><title>Node18&#45;&gt;Node12</title>
<path fill="none" stroke="midnightblue" d="M455.064,-680.127C463.66,-682.586 472.224,-685.661 480,-689.5 498.675,-698.72 497.313,-710.304 516,-719.5 520.918,-721.92 526.148,-724.036 531.502,-725.885"/>
<polygon fill="midnightblue" stroke="midnightblue" points="530.645,-729.284 541.234,-728.934 532.737,-722.604 530.645,-729.284"/>
</g>
<!-- Node20 -->
<g id="node20" class="node"><title>Node20</title>
<g id="a_node20"><a xlink:href="../../d2/df7/class_script_1_1_c_struct.html#af0638a7b3a0ea5a15b3f4ee0536869c9" target="_top" xlink:title=" ">
<polygon fill="white" stroke="black" points="332,-775 332,-794 458,-794 458,-775 332,-775"/>
<text text-anchor="middle" x="395" y="-782" font-family="Helvetica,sans-Serif" font-size="10.00">Script::CStruct::GetArray</text>
</a>
</g>
</g>
<!-- Node19&#45;&gt;Node20 -->
<g id="edge37" class="edge"><title>Node19&#45;&gt;Node20</title>
<path fill="none" stroke="midnightblue" d="M274.442,-773.783C289.52,-775.135 305.907,-776.604 321.576,-778.008"/>
<polygon fill="midnightblue" stroke="midnightblue" points="321.476,-781.513 331.749,-778.92 322.101,-774.541 321.476,-781.513"/>
</g>
<!-- Node21 -->
<g id="node21" class="node"><title>Node21</title>
<g id="a_node21"><a xlink:href="../../d0/d0b/class_script_1_1_c_array.html#a401ddc0041f9b5af8ad78c2343d4157a" target="_top" xlink:title=" ">
<polygon fill="white" stroke="black" points="537.5,-691 537.5,-710 666.5,-710 666.5,-691 537.5,-691"/>
<text text-anchor="middle" x="602" y="-698" font-family="Helvetica,sans-Serif" font-size="10.00">Script::CArray::GetInteger</text>
</a>
</g>
</g>
<!-- Node19&#45;&gt;Node21 -->
<g id="edge41" class="edge"><title>Node19&#45;&gt;Node21</title>
<path fill="none" stroke="midnightblue" d="M274.258,-760.522C327.984,-752.959 409.567,-740.802 480,-727.5 480.916,-727.327 516.337,-719.421 548.615,-712.209"/>
<polygon fill="midnightblue" stroke="midnightblue" points="549.494,-715.599 558.49,-710.002 547.968,-708.767 549.494,-715.599"/>
</g>
<!-- Node22 -->
<g id="node22" class="node"><title>Node22</title>
<g id="a_node22"><a xlink:href="../../d0/d0b/class_script_1_1_c_array.html#a71c761bdce14193b10bf3c88372ba5a0" target="_top" xlink:title=" ">
<polygon fill="white" stroke="black" points="335.5,-813 335.5,-832 454.5,-832 454.5,-813 335.5,-813"/>
<text text-anchor="middle" x="395" y="-820" font-family="Helvetica,sans-Serif" font-size="10.00">Script::CArray::GetSize</text>
</a>
</g>
</g>
<!-- Node19&#45;&gt;Node22 -->
<g id="edge43" class="edge"><title>Node19&#45;&gt;Node22</title>
<path fill="none" stroke="midnightblue" d="M252.823,-783.62C270.049,-790.263 290.88,-797.824 310,-803.5 318.54,-806.035 327.654,-808.419 336.613,-810.586"/>
<polygon fill="midnightblue" stroke="midnightblue" points="336.088,-814.057 346.623,-812.935 337.688,-807.243 336.088,-814.057"/>
</g>
<!-- Node20&#45;&gt;Node3 -->
<g id="edge38" class="edge"><title>Node20&#45;&gt;Node3</title>
<path fill="none" stroke="midnightblue" d="M458.232,-790.006C557.316,-798.773 750.816,-815.894 859.521,-825.512"/>
<polygon fill="midnightblue" stroke="midnightblue" points="859.501,-829.024 869.771,-826.419 860.118,-822.051 859.501,-829.024"/>
</g>
<!-- Node20&#45;&gt;Node10 -->
<g id="edge39" class="edge"><title>Node20&#45;&gt;Node10</title>
<path fill="none" stroke="midnightblue" d="M438.757,-794.06C451.986,-797.048 466.603,-800.38 480,-803.5 503.718,-809.024 530.011,-815.307 552.013,-820.609"/>
<polygon fill="midnightblue" stroke="midnightblue" points="551.253,-824.026 561.795,-822.969 552.895,-817.221 551.253,-824.026"/>
</g>
<!-- Node20&#45;&gt;Node12 -->
<g id="edge40" class="edge"><title>Node20&#45;&gt;Node12</title>
<path fill="none" stroke="midnightblue" d="M438.476,-774.969C470.498,-767.783 514.588,-757.89 548.767,-750.22"/>
<polygon fill="midnightblue" stroke="midnightblue" points="549.587,-753.624 558.578,-748.019 548.055,-746.793 549.587,-753.624"/>
</g>
<!-- Node21&#45;&gt;Node13 -->
<g id="edge42" class="edge"><title>Node21&#45;&gt;Node13</title>
<path fill="none" stroke="midnightblue" d="M666.674,-701.955C681.92,-702.304 698.21,-702.676 713.493,-703.026"/>
<polygon fill="midnightblue" stroke="midnightblue" points="713.81,-706.534 723.887,-703.263 713.97,-699.535 713.81,-706.534"/>
</g>
<!-- Node25 -->
<g id="node25" class="node"><title>Node25</title>
<g id="a_node25"><a xlink:href="../../d1/d0d/namespace_tmr.html#a73fa70536cd356e6914161cb7737fd65" target="_top" xlink:title=" ">
<polygon fill="white" stroke="black" points="357,-99 357,-118 433,-118 433,-99 357,-99"/>
<text text-anchor="middle" x="395" y="-106" font-family="Helvetica,sans-Serif" font-size="10.00">Tmr::GetTime</text>
</a>
</g>
</g>
<!-- Node24&#45;&gt;Node25 -->
<g id="edge46" class="edge"><title>Node24&#45;&gt;Node25</title>
<path fill="none" stroke="midnightblue" d="M238.691,-164.322C257.297,-152.751 284.439,-137.201 310,-127.5 321.685,-123.065 334.696,-119.5 346.92,-116.711"/>
<polygon fill="midnightblue" stroke="midnightblue" points="347.919,-120.076 356.958,-114.548 346.445,-113.233 347.919,-120.076"/>
</g>
<!-- Node26&#45;&gt;Node16 -->
<g id="edge54" class="edge"><title>Node26&#45;&gt;Node16</title>
<path fill="none" stroke="midnightblue" d="M274.049,-517.589C338.121,-516.592 441.468,-514.983 514.805,-513.842"/>
<polygon fill="midnightblue" stroke="midnightblue" points="515.003,-517.339 524.947,-513.684 514.894,-510.34 515.003,-517.339"/>
</g>
<!-- Node26&#45;&gt;Node17 -->
<g id="edge55" class="edge"><title>Node26&#45;&gt;Node17</title>
<path fill="none" stroke="midnightblue" d="M274.205,-526.141C286.05,-527.631 298.419,-529.148 310,-530.5 378.552,-538.503 456.291,-546.742 514.163,-552.712"/>
<polygon fill="midnightblue" stroke="midnightblue" points="514.061,-556.22 524.367,-553.763 514.778,-549.257 514.061,-556.22"/>
</g>
<!-- Node27 -->
<g id="node27" class="node"><title>Node27</title>
<g id="a_node27"><a xlink:href="../../d7/df0/class_front_1_1_c_screen_element.html#a0b67a3b8e5f71de02586eb60919865e9" target="_top" xlink:title=" ">
<polygon fill="white" stroke="black" points="335.5,-410.5 335.5,-440.5 454.5,-440.5 454.5,-410.5 335.5,-410.5"/>
<text text-anchor="start" x="343.5" y="-428.5" font-family="Helvetica,sans-Serif" font-size="10.00">Front::CScreenElement</text>
<text text-anchor="middle" x="395" y="-417.5" font-family="Helvetica,sans-Serif" font-size="10.00">::compute_ul_pos</text>
</a>
</g>
</g>
<!-- Node26&#45;&gt;Node27 -->
<g id="edge48" class="edge"><title>Node26&#45;&gt;Node27</title>
<path fill="none" stroke="midnightblue" d="M232.407,-503.266C250.443,-487.741 280.432,-463.947 310,-449.5 314.94,-447.086 320.165,-444.875 325.496,-442.857"/>
<polygon fill="midnightblue" stroke="midnightblue" points="326.908,-446.07 335.166,-439.432 324.571,-439.472 326.908,-446.07"/>
</g>
<!-- Node31 -->
<g id="node31" class="node"><title>Node31</title>
<g id="a_node31"><a xlink:href="../../db/d5a/struct_front_1_1_c_screen_element_1_1_concat_props.html#ab8308374ea63e16747e4f2f4679cdb9a" target="_top" xlink:title=" ">
<polygon fill="white" stroke="black" points="321,-459.5 321,-489.5 469,-489.5 469,-459.5 321,-459.5"/>
<text text-anchor="start" x="329" y="-477.5" font-family="Helvetica,sans-Serif" font-size="10.00">Front::CScreenElement</text>
<text text-anchor="middle" x="395" y="-466.5" font-family="Helvetica,sans-Serif" font-size="10.00">::ConcatProps::SetScreenPos</text>
</a>
</g>
</g>
<!-- Node26&#45;&gt;Node31 -->
<g id="edge56" class="edge"><title>Node26&#45;&gt;Node31</title>
<path fill="none" stroke="midnightblue" d="M274.442,-503.971C290,-500.136 306.952,-495.957 323.07,-491.984"/>
<polygon fill="midnightblue" stroke="midnightblue" points="324.107,-495.333 332.979,-489.542 322.432,-488.537 324.107,-495.333"/>
</g>
<!-- Node27&#45;&gt;Node16 -->
<g id="edge51" class="edge"><title>Node27&#45;&gt;Node16</title>
<path fill="none" stroke="midnightblue" d="M454.353,-440.519C463.047,-443.231 471.828,-446.244 480,-449.5 510.3,-461.573 543.018,-478.889 566.782,-492.313"/>
<polygon fill="midnightblue" stroke="midnightblue" points="565.327,-495.512 575.746,-497.431 568.798,-489.433 565.327,-495.512"/>
</g>
<!-- Node27&#45;&gt;Node17 -->
<g id="edge52" class="edge"><title>Node27&#45;&gt;Node17</title>
<path fill="none" stroke="midnightblue" d="M454.651,-434.846C463.884,-438.308 472.756,-443.039 480,-449.5 511.228,-477.355 484.88,-508.524 516,-536.5 517.766,-538.088 519.628,-539.575 521.568,-540.967"/>
<polygon fill="midnightblue" stroke="midnightblue" points="520.171,-544.218 530.519,-546.49 523.847,-538.26 520.171,-544.218"/>
</g>
<!-- Node28 -->
<g id="node28" class="node"><title>Node28</title>
<g id="a_node28"><a xlink:href="../../db/d5a/struct_front_1_1_c_screen_element_1_1_concat_props.html#a65cee8d76c3db67e0bf18ae54ba577cd" target="_top" xlink:title=" ">
<polygon fill="white" stroke="black" points="536.5,-377.5 536.5,-407.5 667.5,-407.5 667.5,-377.5 536.5,-377.5"/>
<text text-anchor="start" x="544.5" y="-395.5" font-family="Helvetica,sans-Serif" font-size="10.00">Front::CScreenElement</text>
<text text-anchor="middle" x="602" y="-384.5" font-family="Helvetica,sans-Serif" font-size="10.00">::ConcatProps::GetScaleX</text>
</a>
</g>
</g>
<!-- Node27&#45;&gt;Node28 -->
<g id="edge49" class="edge"><title>Node27&#45;&gt;Node28</title>
<path fill="none" stroke="midnightblue" d="M454.745,-416.044C477.106,-412.444 502.888,-408.294 526.518,-404.49"/>
<polygon fill="midnightblue" stroke="midnightblue" points="527.181,-407.928 536.497,-402.883 526.068,-401.017 527.181,-407.928"/>
</g>
<!-- Node29 -->
<g id="node29" class="node"><title>Node29</title>
<g id="a_node29"><a xlink:href="../../db/d5a/struct_front_1_1_c_screen_element_1_1_concat_props.html#ad6dab8a3605b2d1a04ba2f2f957f9a3f" target="_top" xlink:title=" ">
<polygon fill="white" stroke="black" points="536,-328.5 536,-358.5 668,-358.5 668,-328.5 536,-328.5"/>
<text text-anchor="start" x="544" y="-346.5" font-family="Helvetica,sans-Serif" font-size="10.00">Front::CScreenElement</text>
<text text-anchor="middle" x="602" y="-335.5" font-family="Helvetica,sans-Serif" font-size="10.00">::ConcatProps::GetScaleY</text>
</a>
</g>
</g>
<!-- Node27&#45;&gt;Node29 -->
<g id="edge50" class="edge"><title>Node27&#45;&gt;Node29</title>
<path fill="none" stroke="midnightblue" d="M423.516,-410.489C447.453,-397.849 483.333,-379.897 516,-367.5 521.419,-365.444 527.09,-363.471 532.822,-361.603"/>
<polygon fill="midnightblue" stroke="midnightblue" points="534.002,-364.901 542.49,-358.561 531.901,-358.224 534.002,-364.901"/>
</g>
<!-- Node30 -->
<g id="node30" class="node"><title>Node30</title>
<g id="a_node30"><a xlink:href="../../db/d5a/struct_front_1_1_c_screen_element_1_1_concat_props.html#ae8aedbc930ae6481becd98baf0554cc9" target="_top" xlink:title=" ">
<polygon fill="white" stroke="black" points="516,-426.5 516,-456.5 688,-456.5 688,-426.5 516,-426.5"/>
<text text-anchor="start" x="524" y="-444.5" font-family="Helvetica,sans-Serif" font-size="10.00">Front::CScreenElement</text>
<text text-anchor="middle" x="602" y="-433.5" font-family="Helvetica,sans-Serif" font-size="10.00">::ConcatProps::SetScreenUpperLeft</text>
</a>
</g>
</g>
<!-- Node27&#45;&gt;Node30 -->
<g id="edge53" class="edge"><title>Node27&#45;&gt;Node30</title>
<path fill="none" stroke="midnightblue" d="M454.745,-430.085C470.668,-431.328 488.326,-432.706 505.706,-434.062"/>
<polygon fill="midnightblue" stroke="midnightblue" points="505.65,-437.569 515.892,-434.857 506.195,-430.59 505.65,-437.569"/>
</g>
<!-- Node33 -->
<g id="node33" class="node"><title>Node33</title>
<g id="a_node33"><a xlink:href="../../db/d5a/struct_front_1_1_c_screen_element_1_1_concat_props.html#a923b86873e515d57fe5bf8bbd6e1a2b5" target="_top" xlink:title=" ">
<polygon fill="white" stroke="black" points="331,-49.5 331,-79.5 459,-79.5 459,-49.5 331,-49.5"/>
<text text-anchor="start" x="339" y="-67.5" font-family="Helvetica,sans-Serif" font-size="10.00">Front::CScreenElement</text>
<text text-anchor="middle" x="395" y="-56.5" font-family="Helvetica,sans-Serif" font-size="10.00">::ConcatProps::GetRGBA</text>
</a>
</g>
</g>
<!-- Node32&#45;&gt;Node33 -->
<g id="edge58" class="edge"><title>Node32&#45;&gt;Node33</title>
<path fill="none" stroke="midnightblue" d="M274.442,-64.5C289.27,-64.5 305.364,-64.5 320.797,-64.5"/>
<polygon fill="midnightblue" stroke="midnightblue" points="320.822,-68.0001 330.822,-64.5 320.822,-61.0001 320.822,-68.0001"/>
</g>
<!-- Node34 -->
<g id="node34" class="node"><title>Node34</title>
<g id="a_node34"><a xlink:href="../../db/d5a/struct_front_1_1_c_screen_element_1_1_concat_props.html#aa4183ae864a7587ba7bf6584c77ddeed" target="_top" xlink:title=" ">
<polygon fill="white" stroke="black" points="331,-0.5 331,-30.5 459,-30.5 459,-0.5 331,-0.5"/>
<text text-anchor="start" x="339" y="-18.5" font-family="Helvetica,sans-Serif" font-size="10.00">Front::CScreenElement</text>
<text text-anchor="middle" x="395" y="-7.5" font-family="Helvetica,sans-Serif" font-size="10.00">::ConcatProps::SetRGBA</text>
</a>
</g>
</g>
<!-- Node32&#45;&gt;Node34 -->
<g id="edge59" class="edge"><title>Node32&#45;&gt;Node34</title>
<path fill="none" stroke="midnightblue" d="M270.512,-49.3986C289.093,-44.2981 310.006,-38.5571 329.268,-33.2695"/>
<polygon fill="midnightblue" stroke="midnightblue" points="330.453,-36.574 339.169,-30.5516 328.599,-29.8237 330.453,-36.574"/>
</g>
<!-- Node35&#45;&gt;Node27 -->
<g id="edge61" class="edge"><title>Node35&#45;&gt;Node27</title>
<path fill="none" stroke="midnightblue" d="M240.21,-358.525C258.957,-369.57 285.582,-384.507 310,-395.5 319.002,-399.553 328.729,-403.447 338.263,-407.011"/>
<polygon fill="midnightblue" stroke="midnightblue" points="337.104,-410.314 347.698,-410.459 339.506,-403.739 337.104,-410.314"/>
</g>
<!-- Node35&#45;&gt;Node28 -->
<g id="edge64" class="edge"><title>Node35&#45;&gt;Node28</title>
<path fill="none" stroke="midnightblue" d="M274.192,-352.45C286.038,-354.185 298.411,-355.945 310,-357.5 383.538,-367.368 467.713,-377.35 526.549,-384.114"/>
<polygon fill="midnightblue" stroke="midnightblue" points="526.165,-387.593 536.499,-385.255 526.963,-380.638 526.165,-387.593"/>
</g>
<!-- Node35&#45;&gt;Node29 -->
<g id="edge65" class="edge"><title>Node35&#45;&gt;Node29</title>
<path fill="none" stroke="midnightblue" d="M274.049,-343.5C341.34,-343.5 451.951,-343.5 525.622,-343.5"/>
<polygon fill="midnightblue" stroke="midnightblue" points="525.764,-347 535.764,-343.5 525.764,-340 525.764,-347"/>
</g>
<!-- Node36 -->
<g id="node36" class="node"><title>Node36</title>
<g id="a_node36"><a xlink:href="../../db/d5a/struct_front_1_1_c_screen_element_1_1_concat_props.html#ab5ebb833753a36f973d79492ac5999e6" target="_top" xlink:title=" ">
<polygon fill="white" stroke="black" points="310.5,-284.5 310.5,-314.5 479.5,-314.5 479.5,-284.5 310.5,-284.5"/>
<text text-anchor="start" x="318.5" y="-302.5" font-family="Helvetica,sans-Serif" font-size="10.00">Front::CScreenElement</text>
<text text-anchor="middle" x="395" y="-291.5" font-family="Helvetica,sans-Serif" font-size="10.00">::ConcatProps::GetAbsoluteScaleX</text>
</a>
</g>
</g>
<!-- Node35&#45;&gt;Node36 -->
<g id="edge62" class="edge"><title>Node35&#45;&gt;Node36</title>
<path fill="none" stroke="midnightblue" d="M274.442,-328.971C290,-325.136 306.952,-320.957 323.07,-316.984"/>
<polygon fill="midnightblue" stroke="midnightblue" points="324.107,-320.333 332.979,-314.542 322.432,-313.537 324.107,-320.333"/>
</g>
<!-- Node37 -->
<g id="node37" class="node"><title>Node37</title>
<g id="a_node37"><a xlink:href="../../db/d5a/struct_front_1_1_c_screen_element_1_1_concat_props.html#aabd16d3a9298ff61aec2258e744f6e66" target="_top" xlink:title=" ">
<polygon fill="white" stroke="black" points="310,-235.5 310,-265.5 480,-265.5 480,-235.5 310,-235.5"/>
<text text-anchor="start" x="318" y="-253.5" font-family="Helvetica,sans-Serif" font-size="10.00">Front::CScreenElement</text>
<text text-anchor="middle" x="395" y="-242.5" font-family="Helvetica,sans-Serif" font-size="10.00">::ConcatProps::GetAbsoluteScaleY</text>
</a>
</g>
</g>
<!-- Node35&#45;&gt;Node37 -->
<g id="edge63" class="edge"><title>Node35&#45;&gt;Node37</title>
<path fill="none" stroke="midnightblue" d="M257.773,-328.369C263.475,-325.502 269.056,-322.216 274,-318.5 294.199,-303.32 288.888,-288.382 310,-274.5 312.436,-272.898 314.979,-271.402 317.6,-270.004"/>
<polygon fill="midnightblue" stroke="midnightblue" points="319.256,-273.092 326.768,-265.621 316.236,-266.777 319.256,-273.092"/>
</g>
<!-- Node38 -->
<g id="node38" class="node"><title>Node38</title>
<g id="a_node38"><a xlink:href="../../db/d5a/struct_front_1_1_c_screen_element_1_1_concat_props.html#aa42f287914ce4004008ef2787a4baf78" target="_top" xlink:title=" ">
<polygon fill="white" stroke="black" points="313.5,-186.5 313.5,-216.5 476.5,-216.5 476.5,-186.5 313.5,-186.5"/>
<text text-anchor="start" x="321.5" y="-204.5" font-family="Helvetica,sans-Serif" font-size="10.00">Front::CScreenElement</text>
<text text-anchor="middle" x="395" y="-193.5" font-family="Helvetica,sans-Serif" font-size="10.00">::ConcatProps::SetAbsoluteScale</text>
</a>
</g>
</g>
<!-- Node35&#45;&gt;Node38 -->
<g id="edge66" class="edge"><title>Node35&#45;&gt;Node38</title>
<path fill="none" stroke="midnightblue" d="M261.306,-328.358C265.958,-325.575 270.317,-322.313 274,-318.5 304.795,-286.623 277.266,-255.382 310,-225.5 311.155,-224.445 312.354,-223.437 313.59,-222.473"/>
<polygon fill="midnightblue" stroke="midnightblue" points="315.849,-225.173 322.242,-216.725 311.976,-219.343 315.849,-225.173"/>
</g>
<!-- Node39 -->
<g id="node39" class="node"><title>Node39</title>
<g id="a_node39"><a xlink:href="../../db/d5a/struct_front_1_1_c_screen_element_1_1_concat_props.html#a8367fcec36d870e67ca6516f4faa60fd" target="_top" xlink:title=" ">
<polygon fill="white" stroke="black" points="332.5,-137.5 332.5,-167.5 457.5,-167.5 457.5,-137.5 332.5,-137.5"/>
<text text-anchor="start" x="340.5" y="-155.5" font-family="Helvetica,sans-Serif" font-size="10.00">Front::CScreenElement</text>
<text text-anchor="middle" x="395" y="-144.5" font-family="Helvetica,sans-Serif" font-size="10.00">::ConcatProps::SetScale</text>
</a>
</g>
</g>
<!-- Node35&#45;&gt;Node39 -->
<g id="edge67" class="edge"><title>Node35&#45;&gt;Node39</title>
<path fill="none" stroke="midnightblue" d="M262.345,-328.425C266.693,-325.641 270.697,-322.361 274,-318.5 316.321,-269.024 264.658,-223.224 310,-176.5 313.895,-172.486 318.411,-169.131 323.287,-166.328"/>
<polygon fill="midnightblue" stroke="midnightblue" points="324.965,-169.403 332.4,-161.855 321.881,-163.119 324.965,-169.403"/>
</g>
</g>
</svg>
