<?xml version="1.0" encoding="UTF-8" standalone="no"?>
<!DOCTYPE svg PUBLIC "-//W3C//DTD SVG 1.1//EN"
 "http://www.w3.org/Graphics/SVG/1.1/DTD/svg11.dtd">
<!-- Generated by graphviz version 2.38.0 (20140413.2041)
 -->
<!-- Title: Front::CScreenElement::debug_verify_integrity Pages: 1 -->
<svg width="853pt" height="116pt"
 viewBox="0.00 0.00 853.00 116.00" xmlns="http://www.w3.org/2000/svg" xmlns:xlink="http://www.w3.org/1999/xlink">
<g id="graph0" class="graph" transform="scale(1 1) rotate(0) translate(4 112)">
<title>Front::CScreenElement::debug_verify_integrity</title>
<polygon fill="white" stroke="none" points="-4,4 -4,-112 849,-112 849,4 -4,4"/>
<!-- Node1 -->
<g id="node1" class="node"><title>Node1</title>
<g id="a_node1"><a xlink:title=" ">
<polygon fill="#bfbfbf" stroke="black" points="0,-39 0,-69 119,-69 119,-39 0,-39"/>
<text text-anchor="start" x="8" y="-57" font-family="Helvetica,sans-Serif" font-size="10.00">Front::CScreenElement</text>
<text text-anchor="middle" x="59.5" y="-46" font-family="Helvetica,sans-Serif" font-size="10.00">::debug_verify_integrity</text>
</a>
</g>
</g>
<!-- Node2 -->
<g id="node2" class="node"><title>Node2</title>
<g id="a_node2"><a xlink:href="../../de/dd8/class_obj_1_1_c_smt_ptr.html#abfded371e4740217057f76240804b0eb" target="_top" xlink:title=" ">
<polygon fill="white" stroke="black" points="176.5,-88.5 176.5,-107.5 289.5,-107.5 289.5,-88.5 176.5,-88.5"/>
<text text-anchor="middle" x="233" y="-95.5" font-family="Helvetica,sans-Serif" font-size="10.00">Obj::CSmtPtr::Convert</text>
</a>
</g>
</g>
<!-- Node1&#45;&gt;Node2 -->
<g id="edge1" class="edge"><title>Node1&#45;&gt;Node2</title>
<path fill="none" stroke="midnightblue" d="M116.676,-69.0264C129.275,-72.3506 142.586,-75.8267 155,-79 164.013,-81.304 173.632,-83.7152 182.909,-86.0167"/>
<polygon fill="midnightblue" stroke="midnightblue" points="182.249,-89.4588 192.796,-88.4606 183.928,-82.6633 182.249,-89.4588"/>
</g>
<!-- Node3 -->
<g id="node3" class="node"><title>Node3</title>
<g id="a_node3"><a xlink:href="../../d8/d59/class_front_1_1_c_screen_element_manager.html#a013a0ac21bd3c4120a5bc4d4a9fff021" target="_top" xlink:title=" ">
<polygon fill="white" stroke="black" points="155,-39 155,-69 311,-69 311,-39 155,-39"/>
<text text-anchor="start" x="163" y="-57" font-family="Helvetica,sans-Serif" font-size="10.00">Front::CScreenElementManager</text>
<text text-anchor="middle" x="233" y="-46" font-family="Helvetica,sans-Serif" font-size="10.00">::GetElement</text>
</a>
</g>
</g>
<!-- Node1&#45;&gt;Node3 -->
<g id="edge2" class="edge"><title>Node1&#45;&gt;Node3</title>
<path fill="none" stroke="midnightblue" d="M119.041,-54C127.34,-54 136.019,-54 144.719,-54"/>
<polygon fill="midnightblue" stroke="midnightblue" points="144.921,-57.5001 154.921,-54 144.921,-50.5001 144.921,-57.5001"/>
</g>
<!-- Node9 -->
<g id="node9" class="node"><title>Node9</title>
<g id="a_node9"><a xlink:href="../../db/dc4/namespace_mem.html#a2209f7fa580addbd14c51bd4dee55d66" target="_top" xlink:title=" ">
<polygon fill="white" stroke="black" points="200,-0.5 200,-19.5 266,-19.5 266,-0.5 200,-0.5"/>
<text text-anchor="middle" x="233" y="-7.5" font-family="Helvetica,sans-Serif" font-size="10.00">Mem::Valid</text>
</a>
</g>
</g>
<!-- Node1&#45;&gt;Node9 -->
<g id="edge8" class="edge"><title>Node1&#45;&gt;Node9</title>
<path fill="none" stroke="midnightblue" d="M119.041,-38.9808C142.329,-33.0061 168.603,-26.265 189.948,-20.7888"/>
<polygon fill="midnightblue" stroke="midnightblue" points="190.871,-24.1656 199.687,-18.2902 189.131,-17.3852 190.871,-24.1656"/>
</g>
<!-- Node4 -->
<g id="node4" class="node"><title>Node4</title>
<g id="a_node4"><a xlink:href="../../d1/d54/namespace_script.html#ae80ed69ea4edcbcbbbd4985a6efdcd6e" target="_top" xlink:title=" ">
<polygon fill="white" stroke="black" points="347,-63.5 347,-82.5 486,-82.5 486,-63.5 347,-63.5"/>
<text text-anchor="middle" x="416.5" y="-70.5" font-family="Helvetica,sans-Serif" font-size="10.00">Script::FindChecksumName</text>
</a>
</g>
</g>
<!-- Node3&#45;&gt;Node4 -->
<g id="edge3" class="edge"><title>Node3&#45;&gt;Node4</title>
<path fill="none" stroke="midnightblue" d="M311.236,-62.0853C319.673,-62.9685 328.269,-63.8684 336.724,-64.7535"/>
<polygon fill="midnightblue" stroke="midnightblue" points="336.638,-68.2635 346.948,-65.8237 337.367,-61.3015 336.638,-68.2635"/>
</g>
<!-- Node8 -->
<g id="node8" class="node"><title>Node8</title>
<g id="a_node8"><a xlink:href="../../df/d80/class_obj_1_1_c_tracker.html#a65bb0b283516578974818642ff22944a" target="_top" xlink:title=" ">
<polygon fill="white" stroke="black" points="353,-25.5 353,-44.5 480,-44.5 480,-25.5 353,-25.5"/>
<text text-anchor="middle" x="416.5" y="-32.5" font-family="Helvetica,sans-Serif" font-size="10.00">Obj::CTracker::GetObject</text>
</a>
</g>
</g>
<!-- Node3&#45;&gt;Node8 -->
<g id="edge7" class="edge"><title>Node3&#45;&gt;Node8</title>
<path fill="none" stroke="midnightblue" d="M311.236,-45.9147C321.656,-44.8239 332.319,-43.7076 342.66,-42.6252"/>
<polygon fill="midnightblue" stroke="midnightblue" points="343.29,-46.0784 352.871,-41.5562 342.561,-39.1164 343.29,-46.0784"/>
</g>
<!-- Node5 -->
<g id="node5" class="node"><title>Node5</title>
<g id="a_node5"><a xlink:href="../../d1/d54/namespace_script.html#a5cc52c4ff5ea5bb27681d819212dfdca" target="_top" xlink:title=" ">
<polygon fill="white" stroke="black" points="522,-82.5 522,-101.5 685,-101.5 685,-82.5 522,-82.5"/>
<text text-anchor="middle" x="603.5" y="-89.5" font-family="Helvetica,sans-Serif" font-size="10.00">Script::FindChecksumNameNULL</text>
</a>
</g>
</g>
<!-- Node4&#45;&gt;Node5 -->
<g id="edge4" class="edge"><title>Node4&#45;&gt;Node5</title>
<path fill="none" stroke="midnightblue" d="M486.124,-80.0479C494.476,-80.9056 503.107,-81.792 511.717,-82.6764"/>
<polygon fill="midnightblue" stroke="midnightblue" points="511.493,-86.1717 521.798,-83.7117 512.208,-79.2083 511.493,-86.1717"/>
</g>
<!-- Node7 -->
<g id="node7" class="node"><title>Node7</title>
<g id="a_node7"><a xlink:href="../../da/d37/namespace_dbg.html#ab406a8cc16de5046c7d9fd09c9de5e22" target="_top" xlink:title=" ">
<polygon fill="white" stroke="black" points="570.5,-44.5 570.5,-63.5 636.5,-63.5 636.5,-44.5 570.5,-44.5"/>
<text text-anchor="middle" x="603.5" y="-51.5" font-family="Helvetica,sans-Serif" font-size="10.00">Dbg::sprintf</text>
</a>
</g>
</g>
<!-- Node4&#45;&gt;Node7 -->
<g id="edge6" class="edge"><title>Node4&#45;&gt;Node7</title>
<path fill="none" stroke="midnightblue" d="M486.124,-65.9521C510.98,-63.3993 538.305,-60.593 560.228,-58.3414"/>
<polygon fill="midnightblue" stroke="midnightblue" points="560.616,-61.8201 570.206,-57.3167 559.901,-54.8567 560.616,-61.8201"/>
</g>
<!-- Node6 -->
<g id="node6" class="node"><title>Node6</title>
<g id="a_node6"><a xlink:href="../../d0/d31/namespace_config.html#a709cc81780d49900157e3476b63aa25d" target="_top" xlink:title=" ">
<polygon fill="white" stroke="black" points="721,-82.5 721,-101.5 845,-101.5 845,-82.5 721,-82.5"/>
<text text-anchor="middle" x="783" y="-89.5" font-family="Helvetica,sans-Serif" font-size="10.00">Config::GotExtraMemory</text>
</a>
</g>
</g>
<!-- Node5&#45;&gt;Node6 -->
<g id="edge5" class="edge"><title>Node5&#45;&gt;Node6</title>
<path fill="none" stroke="midnightblue" d="M685.2,-92C693.729,-92 702.358,-92 710.768,-92"/>
<polygon fill="midnightblue" stroke="midnightblue" points="710.898,-95.5001 720.898,-92 710.898,-88.5001 710.898,-95.5001"/>
</g>
</g>
</svg>
