<?xml version="1.0" encoding="UTF-8" standalone="no"?>
<!DOCTYPE svg PUBLIC "-//W3C//DTD SVG 1.1//EN"
 "http://www.w3.org/Graphics/SVG/1.1/DTD/svg11.dtd">
<!-- Generated by graphviz version 2.38.0 (20140413.2041)
 -->
<!-- Title: Obj::CHorseComponent::GetPos Pages: 1 -->
<!--zoomable 144 -->
<svg id="main" version="1.1" xmlns="http://www.w3.org/2000/svg" xmlns:xlink="http://www.w3.org/1999/xlink" xml:space="preserve" onload="init(evt)">
<style type="text/css"><![CDATA[
.edge:hover path { stroke: red; }
.edge:hover polygon { stroke: red; fill: red; }
]]></style>
<script type="text/javascript"><![CDATA[
var edges = document.getElementsByTagName('g');
if (edges && edges.length) {
  for (var i=0;i<edges.length;i++) {
    if (edges[i].id.substr(0,4)=='edge') {
      edges[i].setAttribute('class','edge');
    }
  }
}
]]></script>
        <defs>
                <circle id="rim" cx="0" cy="0" r="7"/>
                <circle id="rim2" cx="0" cy="0" r="3.5"/>
                <g id="zoomPlus">
                        <use xlink:href="#rim" fill="#404040">
                                <set attributeName="fill" to="#808080" begin="zoomplus.mouseover" end="zoomplus.mouseout"/>
                        </use>
                        <path d="M-4,0h8M0,-4v8" fill="none" stroke="white" stroke-width="1.5" pointer-events="none"/>
                </g>
                <g id="zoomMin">
                        <use xlink:href="#rim" fill="#404040">
                                <set attributeName="fill" to="#808080" begin="zoomminus.mouseover" end="zoomminus.mouseout"/>
                        </use>
                        <path d="M-4,0h8" fill="none" stroke="white" stroke-width="1.5" pointer-events="none"/>
                </g>
                <g id="dirArrow">
                        <path fill="none" stroke="white" stroke-width="1.5" d="M0,-3.0v7 M-2.5,-0.5L0,-3.0L2.5,-0.5"/>
                </g>
               <g id="resetDef">
                       <use xlink:href="#rim2" fill="#404040">
                               <set attributeName="fill" to="#808080" begin="reset.mouseover" end="reset.mouseout"/>
                       </use>
               </g>
        </defs>

<script type="text/javascript">
var viewWidth = 747;
var viewHeight = 144;
var sectionId = 'dynsection-18';
</script>
<script xlink:href="../../svgpan.js"/>
<svg id="graph" class="graph">
<g id="viewport">
<title>Obj::CHorseComponent::GetPos</title>
<polygon fill="white" stroke="none" points="-4,4 -4,-139.5 743,-139.5 743,4 -4,4"/>
<!-- Node1 -->
<g id="node1" class="node"><title>Node1</title>
<g id="a_node1"><a xlink:title=" ">
<polygon fill="#bfbfbf" stroke="black" points="620,-44.5 620,-74.5 739,-74.5 739,-44.5 620,-44.5"/>
<text text-anchor="start" x="628" y="-62.5" font-family="Helvetica,sans-Serif" font-size="10.00">Obj::CHorseComponent</text>
<text text-anchor="middle" x="679.5" y="-51.5" font-family="Helvetica,sans-Serif" font-size="10.00">::GetPos</text>
</a>
</g>
</g>
<!-- Node2 -->
<g id="node2" class="node"><title>Node2</title>
<g id="a_node2"><a xlink:href="../../d6/db5/class_obj_1_1_c_horse_component.html#a85dafed941e2aabbb56616f7d8c27457" target="_top" xlink:title=" ">
<polygon fill="white" stroke="black" points="465,-94 465,-135 584,-135 584,-94 465,-94"/>
<text text-anchor="start" x="473" y="-123" font-family="Helvetica,sans-Serif" font-size="10.00">Obj::CHorseComponent</text>
<text text-anchor="start" x="473" y="-112" font-family="Helvetica,sans-Serif" font-size="10.00">::do_node_based_path</text>
<text text-anchor="middle" x="524.5" y="-101" font-family="Helvetica,sans-Serif" font-size="10.00">_following</text>
</a>
</g>
</g>
<!-- Node1&#45;&gt;Node2 -->
<g id="edge1" class="edge"><title>Node1&#45;&gt;Node2</title>
<path fill="none" stroke="midnightblue" d="M627.071,-77.9875C612.832,-83.106 597.291,-88.6927 582.744,-93.9223"/>
<polygon fill="midnightblue" stroke="midnightblue" points="628.466,-81.2056 636.692,-74.529 626.098,-74.6182 628.466,-81.2056"/>
</g>
<!-- Node6 -->
<g id="node6" class="node"><title>Node6</title>
<g id="a_node6"><a xlink:href="../../d5/d58/class_obj_1_1_c_rider_component.html#a27a1ea808a1b1a8bc9dee48df31d020e" target="_top" xlink:title=" ">
<polygon fill="white" stroke="black" points="466.5,-44.5 466.5,-74.5 582.5,-74.5 582.5,-44.5 466.5,-44.5"/>
<text text-anchor="start" x="474.5" y="-62.5" font-family="Helvetica,sans-Serif" font-size="10.00">Obj::CRiderComponent</text>
<text text-anchor="middle" x="524.5" y="-51.5" font-family="Helvetica,sans-Serif" font-size="10.00">::go_on_horse_state</text>
</a>
</g>
</g>
<!-- Node1&#45;&gt;Node6 -->
<g id="edge5" class="edge"><title>Node1&#45;&gt;Node6</title>
<path fill="none" stroke="midnightblue" d="M609.644,-59.5C600.584,-59.5 591.38,-59.5 582.546,-59.5"/>
<polygon fill="midnightblue" stroke="midnightblue" points="609.784,-63.0001 619.784,-59.5 609.784,-56.0001 609.784,-63.0001"/>
</g>
<!-- Node8 -->
<g id="node8" class="node"><title>Node8</title>
<g id="a_node8"><a xlink:href="../../d6/db5/class_obj_1_1_c_horse_component.html#a88cee941aabec65a2afb8c0febbba98e" target="_top" xlink:title=" ">
<polygon fill="white" stroke="black" points="310,-0.5 310,-30.5 429,-30.5 429,-0.5 310,-0.5"/>
<text text-anchor="start" x="318" y="-18.5" font-family="Helvetica,sans-Serif" font-size="10.00">Obj::CHorseComponent</text>
<text text-anchor="middle" x="369.5" y="-7.5" font-family="Helvetica,sans-Serif" font-size="10.00">::setup_collision_cache</text>
</a>
</g>
</g>
<!-- Node1&#45;&gt;Node8 -->
<g id="edge7" class="edge"><title>Node1&#45;&gt;Node8</title>
<path fill="none" stroke="midnightblue" d="M618.098,-41.8925C606.839,-39.0756 595.118,-36.4508 584,-34.5 532.137,-25.4 472.379,-20.555 429.299,-18.0414"/>
<polygon fill="midnightblue" stroke="midnightblue" points="617.289,-45.2985 627.846,-44.4053 619.036,-38.52 617.289,-45.2985"/>
</g>
<!-- Node3 -->
<g id="node3" class="node"><title>Node3</title>
<g id="a_node3"><a xlink:href="../../d6/db5/class_obj_1_1_c_horse_component.html#a296fc3862b9f780a6d584ae4cf357c39" target="_top" xlink:title=" ">
<polygon fill="white" stroke="black" points="310,-98.5 310,-128.5 429,-128.5 429,-98.5 310,-98.5"/>
<text text-anchor="start" x="318" y="-116.5" font-family="Helvetica,sans-Serif" font-size="10.00">Obj::CHorseComponent</text>
<text text-anchor="middle" x="369.5" y="-105.5" font-family="Helvetica,sans-Serif" font-size="10.00">::do_path_following</text>
</a>
</g>
</g>
<!-- Node2&#45;&gt;Node3 -->
<g id="edge2" class="edge"><title>Node2&#45;&gt;Node3</title>
<path fill="none" stroke="midnightblue" d="M454.507,-114.049C446.007,-113.994 437.383,-113.937 429.059,-113.883"/>
<polygon fill="midnightblue" stroke="midnightblue" points="454.761,-117.551 464.784,-114.116 454.807,-110.551 454.761,-117.551"/>
</g>
<!-- Node4 -->
<g id="node4" class="node"><title>Node4</title>
<g id="a_node4"><a xlink:href="../../d6/db5/class_obj_1_1_c_horse_component.html#acb4ca5507c65a1b5b968552d62cb6490" target="_top" xlink:title=" ">
<polygon fill="white" stroke="black" points="155,-49.5 155,-79.5 274,-79.5 274,-49.5 155,-49.5"/>
<text text-anchor="start" x="163" y="-67.5" font-family="Helvetica,sans-Serif" font-size="10.00">Obj::CHorseComponent</text>
<text text-anchor="middle" x="214.5" y="-56.5" font-family="Helvetica,sans-Serif" font-size="10.00">::go_on_ground_state</text>
</a>
</g>
</g>
<!-- Node3&#45;&gt;Node4 -->
<g id="edge3" class="edge"><title>Node3&#45;&gt;Node4</title>
<path fill="none" stroke="midnightblue" d="M311.487,-95.2409C295.35,-90.0727 277.973,-84.5076 262.498,-79.5516"/>
<polygon fill="midnightblue" stroke="midnightblue" points="310.755,-98.6817 321.347,-98.3986 312.891,-92.0152 310.755,-98.6817"/>
</g>
<!-- Node5 -->
<g id="node5" class="node"><title>Node5</title>
<g id="a_node5"><a xlink:href="../../d6/db5/class_obj_1_1_c_horse_component.html#a8b02ae16feb2fafb4a25635c856801c6" target="_top" xlink:title=" ">
<polygon fill="white" stroke="black" points="0,-24.5 0,-54.5 119,-54.5 119,-24.5 0,-24.5"/>
<text text-anchor="start" x="8" y="-42.5" font-family="Helvetica,sans-Serif" font-size="10.00">Obj::CHorseComponent</text>
<text text-anchor="middle" x="59.5" y="-31.5" font-family="Helvetica,sans-Serif" font-size="10.00">::Update</text>
</a>
</g>
</g>
<!-- Node4&#45;&gt;Node5 -->
<g id="edge4" class="edge"><title>Node4&#45;&gt;Node5</title>
<path fill="none" stroke="midnightblue" d="M144.787,-53.2724C136.197,-51.8688 127.475,-50.4435 119.059,-49.0685"/>
<polygon fill="midnightblue" stroke="midnightblue" points="144.35,-56.7474 154.784,-54.9058 145.479,-49.839 144.35,-56.7474"/>
</g>
<!-- Node7 -->
<g id="node7" class="node"><title>Node7</title>
<g id="a_node7"><a xlink:href="../../d5/d58/class_obj_1_1_c_rider_component.html#a541e39cf0541919fede6f6048d9ee72d" target="_top" xlink:title=" ">
<polygon fill="white" stroke="black" points="311.5,-49.5 311.5,-79.5 427.5,-79.5 427.5,-49.5 311.5,-49.5"/>
<text text-anchor="start" x="319.5" y="-67.5" font-family="Helvetica,sans-Serif" font-size="10.00">Obj::CRiderComponent</text>
<text text-anchor="middle" x="369.5" y="-56.5" font-family="Helvetica,sans-Serif" font-size="10.00">::Update</text>
</a>
</g>
</g>
<!-- Node6&#45;&gt;Node7 -->
<g id="edge6" class="edge"><title>Node6&#45;&gt;Node7</title>
<path fill="none" stroke="midnightblue" d="M455.965,-61.707C446.54,-62.015 436.93,-62.3291 427.72,-62.6301"/>
<polygon fill="midnightblue" stroke="midnightblue" points="456.213,-65.2009 466.093,-61.376 455.984,-58.2046 456.213,-65.2009"/>
</g>
<!-- Node8&#45;&gt;Node4 -->
<g id="edge10" class="edge"><title>Node8&#45;&gt;Node4</title>
<path fill="none" stroke="midnightblue" d="M311.487,-33.7591C295.35,-38.9273 277.973,-44.4924 262.498,-49.4484"/>
<polygon fill="midnightblue" stroke="midnightblue" points="312.891,-36.9848 321.347,-30.6014 310.755,-30.3183 312.891,-36.9848"/>
</g>
<!-- Node9 -->
<g id="node9" class="node"><title>Node9</title>
<g id="a_node9"><a xlink:href="../../d6/db5/class_obj_1_1_c_horse_component.html#a19d622352d277c36ae1b44ac1690f430" target="_top" xlink:title=" ">
<polygon fill="white" stroke="black" points="155,-0.5 155,-30.5 274,-30.5 274,-0.5 155,-0.5"/>
<text text-anchor="start" x="163" y="-18.5" font-family="Helvetica,sans-Serif" font-size="10.00">Obj::CHorseComponent</text>
<text text-anchor="middle" x="214.5" y="-7.5" font-family="Helvetica,sans-Serif" font-size="10.00">::go_in_air_state</text>
</a>
</g>
</g>
<!-- Node8&#45;&gt;Node9 -->
<g id="edge8" class="edge"><title>Node8&#45;&gt;Node9</title>
<path fill="none" stroke="midnightblue" d="M299.507,-15.5C291.007,-15.5 282.383,-15.5 274.059,-15.5"/>
<polygon fill="midnightblue" stroke="midnightblue" points="299.784,-19.0001 309.784,-15.5 299.784,-12.0001 299.784,-19.0001"/>
</g>
<!-- Node9&#45;&gt;Node5 -->
<g id="edge9" class="edge"><title>Node9&#45;&gt;Node5</title>
<path fill="none" stroke="midnightblue" d="M144.787,-26.2785C136.197,-27.626 127.475,-28.9942 119.059,-30.3143"/>
<polygon fill="midnightblue" stroke="midnightblue" points="145.447,-29.7179 154.784,-24.7104 144.362,-22.8024 145.447,-29.7179"/>
</g>
</g>
</svg>
        <g id="navigator" transform="translate(0 0)" fill="#404254">
                <rect fill="#f2f5e9" fill-opacity="0.5" stroke="#606060" stroke-width=".5" x="0" y="0" width="60" height="60"/>
                <use id="zoomplus" xlink:href="#zoomPlus" x="17" y="9" onmousedown="handleZoom(evt,'in')"/>
                <use id="zoomminus" xlink:href="#zoomMin" x="42" y="9" onmousedown="handleZoom(evt,'out')"/>
                <use id="reset" xlink:href="#resetDef" x="30" y="36" onmousedown="handleReset()"/>
                <g id="arrowUp" xlink:href="#dirArrow" transform="translate(30 24)" onmousedown="handlePan(0,-1)">
                  <use xlink:href="#rim" fill="#404040">
                        <set attributeName="fill" to="#808080" begin="arrowUp.mouseover" end="arrowUp.mouseout"/>
                  </use>
                  <path fill="none" stroke="white" stroke-width="1.5" d="M0,-3.0v7 M-2.5,-0.5L0,-3.0L2.5,-0.5"/>
                </g>
                <g id="arrowRight" xlink:href="#dirArrow" transform="rotate(90) translate(36 -43)" onmousedown="handlePan(1,0)">
                  <use xlink:href="#rim" fill="#404040">
                        <set attributeName="fill" to="#808080" begin="arrowRight.mouseover" end="arrowRight.mouseout"/>
                  </use>
                  <path fill="none" stroke="white" stroke-width="1.5" d="M0,-3.0v7 M-2.5,-0.5L0,-3.0L2.5,-0.5"/>
                </g>
                <g id="arrowDown" xlink:href="#dirArrow" transform="rotate(180) translate(-30 -48)" onmousedown="handlePan(0,1)">
                  <use xlink:href="#rim" fill="#404040">
                        <set attributeName="fill" to="#808080" begin="arrowDown.mouseover" end="arrowDown.mouseout"/>
                  </use>
                  <path fill="none" stroke="white" stroke-width="1.5" d="M0,-3.0v7 M-2.5,-0.5L0,-3.0L2.5,-0.5"/>
                </g>
                <g id="arrowLeft" xlink:href="#dirArrow" transform="rotate(270) translate(-36 17)" onmousedown="handlePan(-1,0)">
                  <use xlink:href="#rim" fill="#404040">
                        <set attributeName="fill" to="#808080" begin="arrowLeft.mouseover" end="arrowLeft.mouseout"/>
                  </use>
                  <path fill="none" stroke="white" stroke-width="1.5" d="M0,-3.0v7 M-2.5,-0.5L0,-3.0L2.5,-0.5"/>
                </g>
        </g>
        <svg viewBox="0 0 15 15" width="100%" height="30px" preserveAspectRatio="xMaxYMin meet">
         <g id="arrow_out" transform="scale(0.3 0.3)">
          <a xlink:href="class_obj_1_1_c_horse_component_a4d094b15f7d8dc8eb796a91781ed1851_icgraph_org.svg" target="_base">
           <rect id="button" ry="5" rx="5" y="6" x="6" height="38" width="38"
                fill="#f2f5e9" fill-opacity="0.5" stroke="#606060" stroke-width="1.0"/>
           <path id="arrow"
             d="M 11.500037,31.436501 C 11.940474,20.09759 22.043105,11.32322 32.158766,21.979434 L 37.068811,17.246167 C 37.068811,17.246167 37.088388,32 37.088388,32 L 22.160133,31.978069 C 22.160133,31.978069 26.997745,27.140456 26.997745,27.140456 C 18.528582,18.264221 13.291696,25.230495 11.500037,31.436501 z"
             style="fill:#404040;"/>
          </a>
         </g>
        </svg>
</svg>
