<?xml version="1.0" encoding="UTF-8" standalone="no"?>
<!DOCTYPE svg PUBLIC "-//W3C//DTD SVG 1.1//EN"
 "http://www.w3.org/Graphics/SVG/1.1/DTD/svg11.dtd">
<!-- Generated by graphviz version 2.38.0 (20140413.2041)
 -->
<!-- Title: Obj::CHorseComponent::set_state Pages: 1 -->
<!--zoomable 186 -->
<svg id="main" version="1.1" xmlns="http://www.w3.org/2000/svg" xmlns:xlink="http://www.w3.org/1999/xlink" xml:space="preserve" onload="init(evt)">
<style type="text/css"><![CDATA[
.edge:hover path { stroke: red; }
.edge:hover polygon { stroke: red; fill: red; }
]]></style>
<script type="text/javascript"><![CDATA[
var edges = document.getElementsByTagName('g');
if (edges && edges.length) {
  for (var i=0;i<edges.length;i++) {
    if (edges[i].id.substr(0,4)=='edge') {
      edges[i].setAttribute('class','edge');
    }
  }
}
]]></script>
        <defs>
                <circle id="rim" cx="0" cy="0" r="7"/>
                <circle id="rim2" cx="0" cy="0" r="3.5"/>
                <g id="zoomPlus">
                        <use xlink:href="#rim" fill="#404040">
                                <set attributeName="fill" to="#808080" begin="zoomplus.mouseover" end="zoomplus.mouseout"/>
                        </use>
                        <path d="M-4,0h8M0,-4v8" fill="none" stroke="white" stroke-width="1.5" pointer-events="none"/>
                </g>
                <g id="zoomMin">
                        <use xlink:href="#rim" fill="#404040">
                                <set attributeName="fill" to="#808080" begin="zoomminus.mouseover" end="zoomminus.mouseout"/>
                        </use>
                        <path d="M-4,0h8" fill="none" stroke="white" stroke-width="1.5" pointer-events="none"/>
                </g>
                <g id="dirArrow">
                        <path fill="none" stroke="white" stroke-width="1.5" d="M0,-3.0v7 M-2.5,-0.5L0,-3.0L2.5,-0.5"/>
                </g>
               <g id="resetDef">
                       <use xlink:href="#rim2" fill="#404040">
                               <set attributeName="fill" to="#808080" begin="reset.mouseover" end="reset.mouseout"/>
                       </use>
               </g>
        </defs>

<script type="text/javascript">
var viewWidth = 592;
var viewHeight = 186;
var sectionId = 'dynsection-69';
</script>
<script xlink:href="../../svgpan.js"/>
<svg id="graph" class="graph">
<g id="viewport">
<title>Obj::CHorseComponent::set_state</title>
<polygon fill="white" stroke="none" points="-4,4 -4,-182 588,-182 588,4 -4,4"/>
<!-- Node1 -->
<g id="node1" class="node"><title>Node1</title>
<g id="a_node1"><a xlink:title=" ">
<polygon fill="#bfbfbf" stroke="black" points="465,-73.5 465,-103.5 584,-103.5 584,-73.5 465,-73.5"/>
<text text-anchor="start" x="473" y="-91.5" font-family="Helvetica,sans-Serif" font-size="10.00">Obj::CHorseComponent</text>
<text text-anchor="middle" x="524.5" y="-80.5" font-family="Helvetica,sans-Serif" font-size="10.00">::set_state</text>
</a>
</g>
</g>
<!-- Node2 -->
<g id="node2" class="node"><title>Node2</title>
<g id="a_node2"><a xlink:href="../../d6/db5/class_obj_1_1_c_horse_component.html#a72cbc04a4cdedc5488591e4324d75893" target="_top" xlink:title=" ">
<polygon fill="white" stroke="black" points="310,-147.5 310,-177.5 429,-177.5 429,-147.5 310,-147.5"/>
<text text-anchor="start" x="318" y="-165.5" font-family="Helvetica,sans-Serif" font-size="10.00">Obj::CHorseComponent</text>
<text text-anchor="middle" x="369.5" y="-154.5" font-family="Helvetica,sans-Serif" font-size="10.00">::check_for_landing</text>
</a>
</g>
</g>
<!-- Node1&#45;&gt;Node2 -->
<g id="edge1" class="edge"><title>Node1&#45;&gt;Node2</title>
<path fill="none" stroke="midnightblue" d="M486.454,-108.522C469.149,-117.664 448.177,-128.446 429,-137.5 421.909,-140.848 414.251,-144.262 406.887,-147.448"/>
<polygon fill="midnightblue" stroke="midnightblue" points="488.467,-111.415 495.656,-103.633 485.182,-105.234 488.467,-111.415"/>
</g>
<!-- Node5 -->
<g id="node5" class="node"><title>Node5</title>
<g id="a_node5"><a xlink:href="../../d6/db5/class_obj_1_1_c_horse_component.html#aa58f7b399f7916c8163144517735396f" target="_top" xlink:title=" ">
<polygon fill="white" stroke="black" points="310,-98.5 310,-128.5 429,-128.5 429,-98.5 310,-98.5"/>
<text text-anchor="start" x="318" y="-116.5" font-family="Helvetica,sans-Serif" font-size="10.00">Obj::CHorseComponent</text>
<text text-anchor="middle" x="369.5" y="-105.5" font-family="Helvetica,sans-Serif" font-size="10.00">::jump</text>
</a>
</g>
</g>
<!-- Node1&#45;&gt;Node5 -->
<g id="edge4" class="edge"><title>Node1&#45;&gt;Node5</title>
<path fill="none" stroke="midnightblue" d="M454.787,-99.7276C446.197,-101.131 437.475,-102.556 429.059,-103.932"/>
<polygon fill="midnightblue" stroke="midnightblue" points="455.479,-103.161 464.784,-98.0942 454.35,-96.2526 455.479,-103.161"/>
</g>
<!-- Node7 -->
<g id="node7" class="node"><title>Node7</title>
<g id="a_node7"><a xlink:href="../../d6/db5/class_obj_1_1_c_horse_component.html#a234b7c94fe4c16fc0f7c48e5315336a3" target="_top" xlink:title=" ">
<polygon fill="white" stroke="black" points="310,-49.5 310,-79.5 429,-79.5 429,-49.5 310,-49.5"/>
<text text-anchor="start" x="318" y="-67.5" font-family="Helvetica,sans-Serif" font-size="10.00">Obj::CHorseComponent</text>
<text text-anchor="middle" x="369.5" y="-56.5" font-family="Helvetica,sans-Serif" font-size="10.00">::respond_to_ground</text>
</a>
</g>
</g>
<!-- Node1&#45;&gt;Node7 -->
<g id="edge6" class="edge"><title>Node1&#45;&gt;Node7</title>
<path fill="none" stroke="midnightblue" d="M454.787,-77.7215C446.197,-76.374 437.475,-75.0058 429.059,-73.6857"/>
<polygon fill="midnightblue" stroke="midnightblue" points="454.362,-81.1976 464.784,-79.2896 455.447,-74.2821 454.362,-81.1976"/>
</g>
<!-- Node9 -->
<g id="node9" class="node"><title>Node9</title>
<g id="a_node9"><a xlink:href="../../d6/db5/class_obj_1_1_c_horse_component.html#a85bd320ee1e00de0354957925b6ec854" target="_top" xlink:title=" ">
<polygon fill="white" stroke="black" points="155,-0.5 155,-30.5 274,-30.5 274,-0.5 155,-0.5"/>
<text text-anchor="start" x="163" y="-18.5" font-family="Helvetica,sans-Serif" font-size="10.00">Obj::CHorseComponent</text>
<text text-anchor="middle" x="214.5" y="-7.5" font-family="Helvetica,sans-Serif" font-size="10.00">::uber_frig</text>
</a>
</g>
</g>
<!-- Node1&#45;&gt;Node9 -->
<g id="edge9" class="edge"><title>Node1&#45;&gt;Node9</title>
<path fill="none" stroke="midnightblue" d="M491.664,-68.2504C473.903,-57.9324 450.983,-46.1835 429,-39.5 378.147,-24.0392 317.755,-18.3542 274.2,-16.3524"/>
<polygon fill="midnightblue" stroke="midnightblue" points="490.067,-71.3727 500.45,-73.4811 493.648,-65.358 490.067,-71.3727"/>
</g>
<!-- Node3 -->
<g id="node3" class="node"><title>Node3</title>
<g id="a_node3"><a xlink:href="../../d6/db5/class_obj_1_1_c_horse_component.html#a19d622352d277c36ae1b44ac1690f430" target="_top" xlink:title=" ">
<polygon fill="white" stroke="black" points="155,-147.5 155,-177.5 274,-177.5 274,-147.5 155,-147.5"/>
<text text-anchor="start" x="163" y="-165.5" font-family="Helvetica,sans-Serif" font-size="10.00">Obj::CHorseComponent</text>
<text text-anchor="middle" x="214.5" y="-154.5" font-family="Helvetica,sans-Serif" font-size="10.00">::go_in_air_state</text>
</a>
</g>
</g>
<!-- Node2&#45;&gt;Node3 -->
<g id="edge2" class="edge"><title>Node2&#45;&gt;Node3</title>
<path fill="none" stroke="midnightblue" d="M299.507,-162.5C291.007,-162.5 282.383,-162.5 274.059,-162.5"/>
<polygon fill="midnightblue" stroke="midnightblue" points="299.784,-166 309.784,-162.5 299.784,-159 299.784,-166"/>
</g>
<!-- Node4 -->
<g id="node4" class="node"><title>Node4</title>
<g id="a_node4"><a xlink:href="../../d6/db5/class_obj_1_1_c_horse_component.html#a8b02ae16feb2fafb4a25635c856801c6" target="_top" xlink:title=" ">
<polygon fill="white" stroke="black" points="0,-49.5 0,-79.5 119,-79.5 119,-49.5 0,-49.5"/>
<text text-anchor="start" x="8" y="-67.5" font-family="Helvetica,sans-Serif" font-size="10.00">Obj::CHorseComponent</text>
<text text-anchor="middle" x="59.5" y="-56.5" font-family="Helvetica,sans-Serif" font-size="10.00">::Update</text>
</a>
</g>
</g>
<!-- Node3&#45;&gt;Node4 -->
<g id="edge3" class="edge"><title>Node3&#45;&gt;Node4</title>
<path fill="none" stroke="midnightblue" d="M165.128,-142.994C161.649,-141.238 158.239,-139.401 155,-137.5 125.858,-120.394 95.515,-95.4763 77.3151,-79.6297"/>
<polygon fill="midnightblue" stroke="midnightblue" points="163.896,-146.285 174.428,-147.445 166.918,-139.971 163.896,-146.285"/>
</g>
<!-- Node6 -->
<g id="node6" class="node"><title>Node6</title>
<g id="a_node6"><a xlink:href="../../d6/db5/class_obj_1_1_c_horse_component.html#a1af9c3079e3758756137ca3d89199f5f" target="_top" xlink:title=" ">
<polygon fill="white" stroke="black" points="155,-98.5 155,-128.5 274,-128.5 274,-98.5 155,-98.5"/>
<text text-anchor="start" x="163" y="-116.5" font-family="Helvetica,sans-Serif" font-size="10.00">Obj::CHorseComponent</text>
<text text-anchor="middle" x="214.5" y="-105.5" font-family="Helvetica,sans-Serif" font-size="10.00">::CallMemberFunction</text>
</a>
</g>
</g>
<!-- Node5&#45;&gt;Node6 -->
<g id="edge5" class="edge"><title>Node5&#45;&gt;Node6</title>
<path fill="none" stroke="midnightblue" d="M299.507,-113.5C291.007,-113.5 282.383,-113.5 274.059,-113.5"/>
<polygon fill="midnightblue" stroke="midnightblue" points="299.784,-117 309.784,-113.5 299.784,-110 299.784,-117"/>
</g>
<!-- Node8 -->
<g id="node8" class="node"><title>Node8</title>
<g id="a_node8"><a xlink:href="../../d6/db5/class_obj_1_1_c_horse_component.html#acb4ca5507c65a1b5b968552d62cb6490" target="_top" xlink:title=" ">
<polygon fill="white" stroke="black" points="155,-49.5 155,-79.5 274,-79.5 274,-49.5 155,-49.5"/>
<text text-anchor="start" x="163" y="-67.5" font-family="Helvetica,sans-Serif" font-size="10.00">Obj::CHorseComponent</text>
<text text-anchor="middle" x="214.5" y="-56.5" font-family="Helvetica,sans-Serif" font-size="10.00">::go_on_ground_state</text>
</a>
</g>
</g>
<!-- Node7&#45;&gt;Node8 -->
<g id="edge7" class="edge"><title>Node7&#45;&gt;Node8</title>
<path fill="none" stroke="midnightblue" d="M299.507,-64.5C291.007,-64.5 282.383,-64.5 274.059,-64.5"/>
<polygon fill="midnightblue" stroke="midnightblue" points="299.784,-68.0001 309.784,-64.5 299.784,-61.0001 299.784,-68.0001"/>
</g>
<!-- Node8&#45;&gt;Node4 -->
<g id="edge8" class="edge"><title>Node8&#45;&gt;Node4</title>
<path fill="none" stroke="midnightblue" d="M144.507,-64.5C136.007,-64.5 127.383,-64.5 119.059,-64.5"/>
<polygon fill="midnightblue" stroke="midnightblue" points="144.784,-68.0001 154.784,-64.5 144.784,-61.0001 144.784,-68.0001"/>
</g>
<!-- Node9&#45;&gt;Node4 -->
<g id="edge10" class="edge"><title>Node9&#45;&gt;Node4</title>
<path fill="none" stroke="midnightblue" d="M156.487,-33.7591C140.35,-38.9273 122.973,-44.4924 107.498,-49.4484"/>
<polygon fill="midnightblue" stroke="midnightblue" points="157.891,-36.9848 166.347,-30.6014 155.755,-30.3183 157.891,-36.9848"/>
</g>
</g>
</svg>
        <g id="navigator" transform="translate(0 0)" fill="#404254">
                <rect fill="#f2f5e9" fill-opacity="0.5" stroke="#606060" stroke-width=".5" x="0" y="0" width="60" height="60"/>
                <use id="zoomplus" xlink:href="#zoomPlus" x="17" y="9" onmousedown="handleZoom(evt,'in')"/>
                <use id="zoomminus" xlink:href="#zoomMin" x="42" y="9" onmousedown="handleZoom(evt,'out')"/>
                <use id="reset" xlink:href="#resetDef" x="30" y="36" onmousedown="handleReset()"/>
                <g id="arrowUp" xlink:href="#dirArrow" transform="translate(30 24)" onmousedown="handlePan(0,-1)">
                  <use xlink:href="#rim" fill="#404040">
                        <set attributeName="fill" to="#808080" begin="arrowUp.mouseover" end="arrowUp.mouseout"/>
                  </use>
                  <path fill="none" stroke="white" stroke-width="1.5" d="M0,-3.0v7 M-2.5,-0.5L0,-3.0L2.5,-0.5"/>
                </g>
                <g id="arrowRight" xlink:href="#dirArrow" transform="rotate(90) translate(36 -43)" onmousedown="handlePan(1,0)">
                  <use xlink:href="#rim" fill="#404040">
                        <set attributeName="fill" to="#808080" begin="arrowRight.mouseover" end="arrowRight.mouseout"/>
                  </use>
                  <path fill="none" stroke="white" stroke-width="1.5" d="M0,-3.0v7 M-2.5,-0.5L0,-3.0L2.5,-0.5"/>
                </g>
                <g id="arrowDown" xlink:href="#dirArrow" transform="rotate(180) translate(-30 -48)" onmousedown="handlePan(0,1)">
                  <use xlink:href="#rim" fill="#404040">
                        <set attributeName="fill" to="#808080" begin="arrowDown.mouseover" end="arrowDown.mouseout"/>
                  </use>
                  <path fill="none" stroke="white" stroke-width="1.5" d="M0,-3.0v7 M-2.5,-0.5L0,-3.0L2.5,-0.5"/>
                </g>
                <g id="arrowLeft" xlink:href="#dirArrow" transform="rotate(270) translate(-36 17)" onmousedown="handlePan(-1,0)">
                  <use xlink:href="#rim" fill="#404040">
                        <set attributeName="fill" to="#808080" begin="arrowLeft.mouseover" end="arrowLeft.mouseout"/>
                  </use>
                  <path fill="none" stroke="white" stroke-width="1.5" d="M0,-3.0v7 M-2.5,-0.5L0,-3.0L2.5,-0.5"/>
                </g>
        </g>
        <svg viewBox="0 0 15 15" width="100%" height="30px" preserveAspectRatio="xMaxYMin meet">
         <g id="arrow_out" transform="scale(0.3 0.3)">
          <a xlink:href="class_obj_1_1_c_horse_component_a15f0fa105388082f285ceba337dc1c6e_icgraph_org.svg" target="_base">
           <rect id="button" ry="5" rx="5" y="6" x="6" height="38" width="38"
                fill="#f2f5e9" fill-opacity="0.5" stroke="#606060" stroke-width="1.0"/>
           <path id="arrow"
             d="M 11.500037,31.436501 C 11.940474,20.09759 22.043105,11.32322 32.158766,21.979434 L 37.068811,17.246167 C 37.068811,17.246167 37.088388,32 37.088388,32 L 22.160133,31.978069 C 22.160133,31.978069 26.997745,27.140456 26.997745,27.140456 C 18.528582,18.264221 13.291696,25.230495 11.500037,31.436501 z"
             style="fill:#404040;"/>
          </a>
         </g>
        </svg>
</svg>
