<?xml version="1.0" encoding="UTF-8" standalone="no"?>
<!DOCTYPE svg PUBLIC "-//W3C//DTD SVG 1.1//EN"
 "http://www.w3.org/Graphics/SVG/1.1/DTD/svg11.dtd">
<!-- Generated by graphviz version 2.38.0 (20140413.2041)
 -->
<!-- Title: NxPs2::SSprite Pages: 1 -->
<svg width="469pt" height="175pt"
 viewBox="0.00 0.00 469.00 175.00" xmlns="http://www.w3.org/2000/svg" xmlns:xlink="http://www.w3.org/1999/xlink">
<g id="graph0" class="graph" transform="scale(1 1) rotate(0) translate(4 171)">
<title>NxPs2::SSprite</title>
<polygon fill="white" stroke="none" points="-4,4 -4,-171 465,-171 465,4 -4,4"/>
<!-- Node1 -->
<g id="node1" class="node"><title>Node1</title>
<g id="a_node1"><a xlink:title=" ">
<polygon fill="#bfbfbf" stroke="black" points="145,-0.5 145,-19.5 229,-19.5 229,-0.5 145,-0.5"/>
<text text-anchor="middle" x="187" y="-7.5" font-family="Helvetica,sans-Serif" font-size="10.00">NxPs2::SSprite</text>
</a>
</g>
</g>
<!-- Node2 -->
<g id="node2" class="node"><title>Node2</title>
<g id="a_node2"><a xlink:href="../../dd/d1f/struct_nx_ps2_1_1_s_draw2_d.html" target="_top" xlink:title=" ">
<polygon fill="white" stroke="black" points="17,-74 17,-93 109,-93 109,-74 17,-74"/>
<text text-anchor="middle" x="63" y="-81" font-family="Helvetica,sans-Serif" font-size="10.00">NxPs2::SDraw2D</text>
</a>
</g>
</g>
<!-- Node2&#45;&gt;Node1 -->
<g id="edge1" class="edge"><title>Node2&#45;&gt;Node1</title>
<path fill="none" stroke="midnightblue" d="M87.1277,-68.5876C112.304,-54.0707 150.986,-31.7662 172.058,-19.6157"/>
<polygon fill="midnightblue" stroke="midnightblue" points="85.1195,-65.7054 78.2048,-73.7327 88.6162,-71.7695 85.1195,-65.7054"/>
</g>
<!-- Node2&#45;&gt;Node2 -->
<g id="edge3" class="edge"><title>Node2&#45;&gt;Node2</title>
<path fill="none" stroke="#9a32cd" stroke-dasharray="5,2" d="M119.274,-89.3245C124.034,-88.0782 127,-86.1367 127,-83.5 127,-79.2813 119.406,-76.8423 109.024,-76.1831"/>
<polygon fill="#9a32cd" stroke="#9a32cd" points="118.416,-85.9125 109.024,-90.8169 119.424,-92.8395 118.416,-85.9125"/>
<text text-anchor="middle" x="180.5" y="-92" font-family="Helvetica,sans-Serif" font-size="10.00"> sp_2D_sorted_draw_list</text>
<text text-anchor="middle" x="180.5" y="-81" font-family="Helvetica,sans-Serif" font-size="10.00">mp_next</text>
<text text-anchor="middle" x="180.5" y="-70" font-family="Helvetica,sans-Serif" font-size="10.00">sp_2D_zbuffer_draw_list</text>
</g>
<!-- Node3 -->
<g id="node3" class="node"><title>Node3</title>
<g id="a_node3"><a xlink:href="../../d0/de8/struct_nx_ps2_1_1_s_scissor_window.html" target="_top" xlink:title=" ">
<polygon fill="white" stroke="black" points="0,-147.5 0,-166.5 126,-166.5 126,-147.5 0,-147.5"/>
<text text-anchor="middle" x="63" y="-154.5" font-family="Helvetica,sans-Serif" font-size="10.00">NxPs2::SScissorWindow</text>
</a>
</g>
</g>
<!-- Node3&#45;&gt;Node2 -->
<g id="edge2" class="edge"><title>Node3&#45;&gt;Node2</title>
<path fill="none" stroke="#9a32cd" stroke-dasharray="5,2" d="M63,-137.094C63,-122.933 63,-104.202 63,-93.339"/>
<polygon fill="#9a32cd" stroke="#9a32cd" points="59.5001,-137.233 63,-147.233 66.5001,-137.233 59.5001,-137.233"/>
<text text-anchor="middle" x="108.5" y="-121" font-family="Helvetica,sans-Serif" font-size="10.00"> mp_scissor_window</text>
</g>
<!-- Node4 -->
<g id="node4" class="node"><title>Node4</title>
<g id="a_node4"><a xlink:href="../../d8/d5f/struct_nx_ps2_1_1_s_single_texture.html" target="_top" xlink:title=" ">
<polygon fill="white" stroke="black" points="252,-74 252,-93 370,-93 370,-74 252,-74"/>
<text text-anchor="middle" x="311" y="-81" font-family="Helvetica,sans-Serif" font-size="10.00">NxPs2::SSingleTexture</text>
</a>
</g>
</g>
<!-- Node4&#45;&gt;Node1 -->
<g id="edge4" class="edge"><title>Node4&#45;&gt;Node1</title>
<path fill="none" stroke="#9a32cd" stroke-dasharray="5,2" d="M286.872,-68.5876C261.696,-54.0707 223.014,-31.7662 201.942,-19.6157"/>
<polygon fill="#9a32cd" stroke="#9a32cd" points="285.384,-71.7695 295.795,-73.7327 288.88,-65.7054 285.384,-71.7695"/>
<text text-anchor="middle" x="278" y="-41" font-family="Helvetica,sans-Serif" font-size="10.00"> mp_texture</text>
</g>
<!-- Node4&#45;&gt;Node4 -->
<g id="edge5" class="edge"><title>Node4&#45;&gt;Node4</title>
<path fill="none" stroke="#9a32cd" stroke-dasharray="5,2" d="M380.027,-89.0145C384.975,-87.7655 388,-85.9274 388,-83.5 388,-79.7109 380.63,-77.3576 370.079,-76.4399"/>
<polygon fill="#9a32cd" stroke="#9a32cd" points="379.423,-85.5663 370.079,-90.5601 380.498,-92.4833 379.423,-85.5663"/>
<text text-anchor="middle" x="424.5" y="-86.5" font-family="Helvetica,sans-Serif" font-size="10.00"> sp_stexture_list</text>
<text text-anchor="middle" x="424.5" y="-75.5" font-family="Helvetica,sans-Serif" font-size="10.00">mp_next</text>
</g>
</g>
</svg>
