<?xml version="1.0" encoding="UTF-8" standalone="no"?>
<!DOCTYPE svg PUBLIC "-//W3C//DTD SVG 1.1//EN"
 "http://www.w3.org/Graphics/SVG/1.1/DTD/svg11.dtd">
<!-- Generated by graphviz version 2.38.0 (20140413.2041)
 -->
<!-- Title: Ed::CParkGenerator::FindNearestRailPoint Pages: 1 -->
<svg width="277pt" height="180pt"
 viewBox="0.00 0.00 277.00 180.00" xmlns="http://www.w3.org/2000/svg" xmlns:xlink="http://www.w3.org/1999/xlink">
<g id="graph0" class="graph" transform="scale(1 1) rotate(0) translate(4 176)">
<title>Ed::CParkGenerator::FindNearestRailPoint</title>
<polygon fill="white" stroke="none" points="-4,4 -4,-176 273,-176 273,4 -4,4"/>
<!-- Node1 -->
<g id="node1" class="node"><title>Node1</title>
<g id="a_node1"><a xlink:title=" ">
<polygon fill="#bfbfbf" stroke="black" points="0,-71 0,-101 114,-101 114,-71 0,-71"/>
<text text-anchor="start" x="8" y="-89" font-family="Helvetica,sans-Serif" font-size="10.00">Ed::CParkGenerator</text>
<text text-anchor="middle" x="57" y="-78" font-family="Helvetica,sans-Serif" font-size="10.00">::FindNearestRailPoint</text>
</a>
</g>
</g>
<!-- Node2 -->
<g id="node2" class="node"><title>Node2</title>
<g id="a_node2"><a xlink:href="../../d5/dd3/class_ed_1_1_rail_string.html#a7dcd073a81ed400002b27be750860eaf" target="_top" xlink:title=" ">
<polygon fill="white" stroke="black" points="152.5,-152.5 152.5,-171.5 266.5,-171.5 266.5,-152.5 152.5,-152.5"/>
<text text-anchor="middle" x="209.5" y="-159.5" font-family="Helvetica,sans-Serif" font-size="10.00">Ed::RailString::GetList</text>
</a>
</g>
</g>
<!-- Node1&#45;&gt;Node2 -->
<g id="edge1" class="edge"><title>Node1&#45;&gt;Node2</title>
<path fill="none" stroke="midnightblue" d="M79.1073,-101.124C97.2418,-113.608 124.433,-131.139 150,-143 154.663,-145.163 159.641,-147.185 164.651,-149.042"/>
<polygon fill="midnightblue" stroke="midnightblue" points="163.655,-152.401 174.249,-152.403 165.968,-145.794 163.655,-152.401"/>
</g>
<!-- Node3 -->
<g id="node3" class="node"><title>Node3</title>
<g id="a_node3"><a xlink:href="../../d6/dbf/class_ed_1_1_rail_set.html#aa7d5248abbd74bdab088049abf7cf20d" target="_top" xlink:title=" ">
<polygon fill="white" stroke="black" points="157.5,-114.5 157.5,-133.5 261.5,-133.5 261.5,-114.5 157.5,-114.5"/>
<text text-anchor="middle" x="209.5" y="-121.5" font-family="Helvetica,sans-Serif" font-size="10.00">Ed::RailSet::GetList</text>
</a>
</g>
</g>
<!-- Node1&#45;&gt;Node3 -->
<g id="edge2" class="edge"><title>Node1&#45;&gt;Node3</title>
<path fill="none" stroke="midnightblue" d="M114.041,-100.15C129.387,-104.025 145.875,-108.188 160.712,-111.934"/>
<polygon fill="midnightblue" stroke="midnightblue" points="160.134,-115.398 170.686,-114.452 161.848,-108.611 160.134,-115.398"/>
</g>
<!-- Node4 -->
<g id="node4" class="node"><title>Node4</title>
<g id="a_node4"><a xlink:href="../../d5/dec/class_ed_1_1_rail_point.html#af8f9dcb27f8743fbb4c4cc0abe2c9603" target="_top" xlink:title=" ">
<polygon fill="white" stroke="black" points="151.5,-76.5 151.5,-95.5 267.5,-95.5 267.5,-76.5 151.5,-76.5"/>
<text text-anchor="middle" x="209.5" y="-83.5" font-family="Helvetica,sans-Serif" font-size="10.00">Ed::RailPoint::GetNext</text>
</a>
</g>
</g>
<!-- Node1&#45;&gt;Node4 -->
<g id="edge3" class="edge"><title>Node1&#45;&gt;Node4</title>
<path fill="none" stroke="midnightblue" d="M114.041,-86C122.906,-86 132.152,-86 141.242,-86"/>
<polygon fill="midnightblue" stroke="midnightblue" points="141.408,-89.5001 151.408,-86 141.408,-82.5001 141.408,-89.5001"/>
</g>
<!-- Node5 -->
<g id="node5" class="node"><title>Node5</title>
<g id="a_node5"><a xlink:href="../../d5/dd3/class_ed_1_1_rail_string.html#af43a771c6898ab95bbfb25ce84b8df69" target="_top" xlink:title=" ">
<polygon fill="white" stroke="black" points="150,-38.5 150,-57.5 269,-57.5 269,-38.5 150,-38.5"/>
<text text-anchor="middle" x="209.5" y="-45.5" font-family="Helvetica,sans-Serif" font-size="10.00">Ed::RailString::GetNext</text>
</a>
</g>
</g>
<!-- Node1&#45;&gt;Node5 -->
<g id="edge4" class="edge"><title>Node1&#45;&gt;Node5</title>
<path fill="none" stroke="midnightblue" d="M114.041,-71.8502C129.387,-67.9755 145.875,-63.8123 160.712,-60.066"/>
<polygon fill="midnightblue" stroke="midnightblue" points="161.848,-63.3893 170.686,-57.5476 160.134,-56.6023 161.848,-63.3893"/>
</g>
<!-- Node6 -->
<g id="node6" class="node"><title>Node6</title>
<g id="a_node6"><a xlink:href="../../d1/d08/class_mth_1_1_vector.html#ab77f5f45e45ad0f1ce8b7d7232a70cb1" target="_top" xlink:title=" ">
<polygon fill="white" stroke="black" points="150.5,-0.5 150.5,-19.5 268.5,-19.5 268.5,-0.5 150.5,-0.5"/>
<text text-anchor="middle" x="209.5" y="-7.5" font-family="Helvetica,sans-Serif" font-size="10.00">Mth::Vector::LengthSqr</text>
</a>
</g>
</g>
<!-- Node1&#45;&gt;Node6 -->
<g id="edge5" class="edge"><title>Node1&#45;&gt;Node6</title>
<path fill="none" stroke="midnightblue" d="M79.1073,-70.8758C97.2418,-58.3915 124.433,-40.8607 150,-29 154.663,-26.8366 159.641,-24.815 164.651,-22.9584"/>
<polygon fill="midnightblue" stroke="midnightblue" points="165.968,-26.2057 174.249,-19.5973 163.655,-19.599 165.968,-26.2057"/>
</g>
</g>
</svg>
