<?xml version="1.0" encoding="UTF-8" standalone="no"?>
<!DOCTYPE svg PUBLIC "-//W3C//DTD SVG 1.1//EN"
 "http://www.w3.org/Graphics/SVG/1.1/DTD/svg11.dtd">
<!-- Generated by graphviz version 2.38.0 (20140413.2041)
 -->
<!-- Title: NxPs2::CGeomNode::SetColored Pages: 1 -->
<svg width="646pt" height="201pt"
 viewBox="0.00 0.00 646.00 201.35" xmlns="http://www.w3.org/2000/svg" xmlns:xlink="http://www.w3.org/1999/xlink">
<g id="graph0" class="graph" transform="scale(1 1) rotate(0) translate(4 197.352)">
<title>NxPs2::CGeomNode::SetColored</title>
<polygon fill="white" stroke="none" points="-4,4 -4,-197.352 642,-197.352 642,4 -4,4"/>
<!-- Node1 -->
<g id="node1" class="node"><title>Node1</title>
<g id="a_node1"><a xlink:title=" ">
<polygon fill="#bfbfbf" stroke="black" points="477,-90 477,-109 638,-109 638,-90 477,-90"/>
<text text-anchor="middle" x="557.5" y="-97" font-family="Helvetica,sans-Serif" font-size="10.00">NxPs2::CGeomNode::SetColored</text>
</a>
</g>
</g>
<!-- Node2 -->
<g id="node2" class="node"><title>Node2</title>
<g id="a_node2"><a xlink:href="../../d6/da8/class_nx_1_1_c_ps2_sector.html#a9f3aeaf4425cf4a7046f1c14ccc5eb12" target="_top" xlink:title=" ">
<polygon fill="white" stroke="black" points="0,-159.5 0,-189.5 109,-189.5 109,-159.5 0,-159.5"/>
<text text-anchor="start" x="8" y="-177.5" font-family="Helvetica,sans-Serif" font-size="10.00">Nx::CPs2Sector::plat</text>
<text text-anchor="middle" x="54.5" y="-166.5" font-family="Helvetica,sans-Serif" font-size="10.00">_clear_color</text>
</a>
</g>
</g>
<!-- Node1&#45;&gt;Node2 -->
<g id="edge1" class="edge"><title>Node1&#45;&gt;Node2</title>
<path fill="none" stroke="midnightblue" d="M532.456,-114.326C509.716,-127.669 474.219,-146.778 441,-157.5 315.163,-198.118 276.886,-197.028 145,-187.5 133.411,-186.663 121.044,-185.223 109.316,-183.6"/>
<polygon fill="midnightblue" stroke="midnightblue" points="534.294,-117.305 541.089,-109.176 530.708,-111.293 534.294,-117.305"/>
</g>
<!-- Node3 -->
<g id="node3" class="node"><title>Node3</title>
<g id="a_node3"><a xlink:href="../../de/d72/class_nx_1_1_c_ps2_geom.html#ae6936fb53f32279817d6e96208567872" target="_top" xlink:title=" ">
<polygon fill="white" stroke="black" points="1,-91.5 1,-121.5 108,-121.5 108,-91.5 1,-91.5"/>
<text text-anchor="start" x="9" y="-109.5" font-family="Helvetica,sans-Serif" font-size="10.00">Nx::CPs2Geom::plat</text>
<text text-anchor="middle" x="54.5" y="-98.5" font-family="Helvetica,sans-Serif" font-size="10.00">_clear_color</text>
</a>
</g>
</g>
<!-- Node1&#45;&gt;Node3 -->
<g id="edge2" class="edge"><title>Node1&#45;&gt;Node3</title>
<path fill="none" stroke="midnightblue" d="M466.63,-100.756C362.251,-102.214 193.52,-104.572 108.323,-105.762"/>
<polygon fill="midnightblue" stroke="midnightblue" points="466.888,-104.253 476.838,-100.613 466.79,-97.2532 466.888,-104.253"/>
</g>
<!-- Node4 -->
<g id="node4" class="node"><title>Node4</title>
<g id="a_node4"><a xlink:href="../../d6/da8/class_nx_1_1_c_ps2_sector.html#a40b4ff03862a7e9f5ddb171e45be09a8" target="_top" xlink:title=" ">
<polygon fill="white" stroke="black" points="145,-147.5 145,-177.5 254,-177.5 254,-147.5 145,-147.5"/>
<text text-anchor="start" x="153" y="-165.5" font-family="Helvetica,sans-Serif" font-size="10.00">Nx::CPs2Sector::plat</text>
<text text-anchor="middle" x="199.5" y="-154.5" font-family="Helvetica,sans-Serif" font-size="10.00">_set_color</text>
</a>
</g>
</g>
<!-- Node1&#45;&gt;Node4 -->
<g id="edge3" class="edge"><title>Node1&#45;&gt;Node4</title>
<path fill="none" stroke="midnightblue" d="M518.092,-112.084C495.794,-118.983 467.048,-127.187 441,-132.5 377.508,-145.45 303.374,-153.676 254.377,-158.175"/>
<polygon fill="midnightblue" stroke="midnightblue" points="519.358,-115.355 527.851,-109.021 517.261,-108.676 519.358,-115.355"/>
</g>
<!-- Node5 -->
<g id="node5" class="node"><title>Node5</title>
<g id="a_node5"><a xlink:href="../../de/d72/class_nx_1_1_c_ps2_geom.html#a212947bd62e879cc9ede0eb6634aca86" target="_top" xlink:title=" ">
<polygon fill="white" stroke="black" points="146,-59.5 146,-89.5 253,-89.5 253,-59.5 146,-59.5"/>
<text text-anchor="start" x="154" y="-77.5" font-family="Helvetica,sans-Serif" font-size="10.00">Nx::CPs2Geom::plat</text>
<text text-anchor="middle" x="199.5" y="-66.5" font-family="Helvetica,sans-Serif" font-size="10.00">_set_color</text>
</a>
</g>
</g>
<!-- Node1&#45;&gt;Node5 -->
<g id="edge5" class="edge"><title>Node1&#45;&gt;Node5</title>
<path fill="none" stroke="midnightblue" d="M466.414,-93.1737C399.03,-88.4417 309.2,-82.1334 253.114,-78.1948"/>
<polygon fill="midnightblue" stroke="midnightblue" points="466.386,-96.6803 476.607,-93.8895 466.876,-89.6975 466.386,-96.6803"/>
</g>
<!-- Node6 -->
<g id="node6" class="node"><title>Node6</title>
<g id="a_node6"><a xlink:href="../../dd/dd8/class_nx_1_1_c_ps2_scene.html#a48c59159f04e5b0baa058c1b473d256f" target="_top" xlink:title=" ">
<polygon fill="white" stroke="black" points="145.5,-0.5 145.5,-30.5 253.5,-30.5 253.5,-0.5 145.5,-0.5"/>
<text text-anchor="start" x="153.5" y="-18.5" font-family="Helvetica,sans-Serif" font-size="10.00">Nx::CPs2Scene::plat</text>
<text text-anchor="middle" x="199.5" y="-7.5" font-family="Helvetica,sans-Serif" font-size="10.00">_set_majority_color</text>
</a>
</g>
</g>
<!-- Node1&#45;&gt;Node6 -->
<g id="edge7" class="edge"><title>Node1&#45;&gt;Node6</title>
<path fill="none" stroke="midnightblue" d="M538.799,-83.2639C517.442,-64.8378 479.574,-35.7552 441,-23.5 379.087,-3.83002 303.653,-5.1043 253.968,-9.1363"/>
<polygon fill="midnightblue" stroke="midnightblue" points="536.582,-85.9761 546.394,-89.9741 541.217,-80.7302 536.582,-85.9761"/>
</g>
<!-- Node7 -->
<g id="node7" class="node"><title>Node7</title>
<g id="a_node7"><a xlink:href="../../d6/da9/class_nx_ps2_1_1_c_geom_node.html#a05bc2f9c6730b6351e0850be91f6daa4" target="_top" xlink:title=" ">
<polygon fill="white" stroke="black" points="290,-33 290,-52 441,-52 441,-33 290,-33"/>
<text text-anchor="middle" x="365.5" y="-40" font-family="Helvetica,sans-Serif" font-size="10.00">NxPs2::CGeomNode::SetColor</text>
</a>
</g>
</g>
<!-- Node1&#45;&gt;Node7 -->
<g id="edge8" class="edge"><title>Node1&#45;&gt;Node7</title>
<path fill="none" stroke="midnightblue" d="M514.766,-86.9799C479.713,-76.464 430.365,-61.6595 398.405,-52.0716"/>
<polygon fill="midnightblue" stroke="midnightblue" points="514.114,-90.4383 524.698,-89.9595 516.126,-83.7335 514.114,-90.4383"/>
</g>
<!-- Node4&#45;&gt;Node2 -->
<g id="edge4" class="edge"><title>Node4&#45;&gt;Node2</title>
<path fill="none" stroke="midnightblue" d="M134.676,-167.856C126.255,-168.563 117.69,-169.281 109.455,-169.972"/>
<polygon fill="midnightblue" stroke="midnightblue" points="135.173,-171.327 144.845,-167.002 134.588,-164.351 135.173,-171.327"/>
</g>
<!-- Node5&#45;&gt;Node3 -->
<g id="edge6" class="edge"><title>Node5&#45;&gt;Node3</title>
<path fill="none" stroke="midnightblue" d="M135.758,-88.5402C126.535,-90.604 117.115,-92.7119 108.124,-94.7239"/>
<polygon fill="midnightblue" stroke="midnightblue" points="136.664,-91.9241 145.658,-86.3247 135.135,-85.093 136.664,-91.9241"/>
</g>
<!-- Node7&#45;&gt;Node4 -->
<g id="edge9" class="edge"><title>Node7&#45;&gt;Node4</title>
<path fill="none" stroke="midnightblue" d="M343.186,-58.0955C311.469,-81.3034 252.24,-124.642 221,-147.5"/>
<polygon fill="midnightblue" stroke="midnightblue" points="345.353,-60.847 351.356,-52.1173 341.219,-55.1978 345.353,-60.847"/>
</g>
<!-- Node7&#45;&gt;Node5 -->
<g id="edge10" class="edge"><title>Node7&#45;&gt;Node5</title>
<path fill="none" stroke="midnightblue" d="M305.802,-53.9533C288.589,-57.312 269.881,-60.9622 253.075,-64.2414"/>
<polygon fill="midnightblue" stroke="midnightblue" points="306.594,-57.3648 315.739,-52.0144 305.253,-50.4944 306.594,-57.3648"/>
</g>
<!-- Node7&#45;&gt;Node6 -->
<g id="edge11" class="edge"><title>Node7&#45;&gt;Node6</title>
<path fill="none" stroke="midnightblue" d="M296.422,-31.292C282.158,-28.9437 267.315,-26.5001 253.689,-24.2567"/>
<polygon fill="midnightblue" stroke="midnightblue" points="296.244,-34.8098 306.68,-32.9808 297.381,-27.9027 296.244,-34.8098"/>
</g>
</g>
</svg>
