<?xml version="1.0" encoding="UTF-8" standalone="no"?>
<!DOCTYPE svg PUBLIC "-//W3C//DTD SVG 1.1//EN"
 "http://www.w3.org/Graphics/SVG/1.1/DTD/svg11.dtd">
<!-- Generated by graphviz version 2.38.0 (20140413.2041)
 -->
<!-- Title: NxPs2::CGeomNode::GetNumPolys Pages: 1 -->
<svg width="337pt" height="88pt"
 viewBox="0.00 0.00 337.00 88.00" xmlns="http://www.w3.org/2000/svg" xmlns:xlink="http://www.w3.org/1999/xlink">
<g id="graph0" class="graph" transform="scale(1 1) rotate(0) translate(4 84)">
<title>NxPs2::CGeomNode::GetNumPolys</title>
<polygon fill="white" stroke="none" points="-4,4 -4,-84 333,-84 333,4 -4,4"/>
<!-- Node1 -->
<g id="node1" class="node"><title>Node1</title>
<g id="a_node1"><a xlink:title=" ">
<polygon fill="#bfbfbf" stroke="black" points="180,-24.5 180,-54.5 329,-54.5 329,-24.5 180,-24.5"/>
<text text-anchor="start" x="188" y="-42.5" font-family="Helvetica,sans-Serif" font-size="10.00">NxPs2::CGeomNode::GetNum</text>
<text text-anchor="middle" x="254.5" y="-31.5" font-family="Helvetica,sans-Serif" font-size="10.00">Polys</text>
</a>
</g>
</g>
<!-- Node2 -->
<g id="node2" class="node"><title>Node2</title>
<g id="a_node2"><a xlink:href="../../de/d72/class_nx_1_1_c_ps2_geom.html#a9598e768428808bdbf817bee02bf09d9" target="_top" xlink:title=" ">
<polygon fill="white" stroke="black" points="12,-49.5 12,-79.5 132,-79.5 132,-49.5 12,-49.5"/>
<text text-anchor="start" x="20" y="-67.5" font-family="Helvetica,sans-Serif" font-size="10.00">Nx::CPs2Geom::plat</text>
<text text-anchor="middle" x="72" y="-56.5" font-family="Helvetica,sans-Serif" font-size="10.00">_get_num_render_polys</text>
</a>
</g>
</g>
<!-- Node1&#45;&gt;Node2 -->
<g id="edge1" class="edge"><title>Node1&#45;&gt;Node2</title>
<path fill="none" stroke="midnightblue" d="M169.693,-51.1076C156.991,-52.8668 144.119,-54.6498 132.088,-56.316"/>
<polygon fill="midnightblue" stroke="midnightblue" points="170.398,-54.5434 179.823,-49.7045 169.438,-47.6096 170.398,-54.5434"/>
</g>
<!-- Node3 -->
<g id="node3" class="node"><title>Node3</title>
<g id="a_node3"><a xlink:href="../../d6/da9/class_nx_ps2_1_1_c_geom_node.html#a3b8921c63d8f0f0209dd9051728434e0" target="_top" xlink:title=" ">
<polygon fill="white" stroke="black" points="0,-0.5 0,-30.5 144,-30.5 144,-0.5 0,-0.5"/>
<text text-anchor="start" x="8" y="-18.5" font-family="Helvetica,sans-Serif" font-size="10.00">NxPs2::CGeomNode::Render</text>
<text text-anchor="middle" x="72" y="-7.5" font-family="Helvetica,sans-Serif" font-size="10.00">WireframeRecurse</text>
</a>
</g>
</g>
<!-- Node1&#45;&gt;Node3 -->
<g id="edge2" class="edge"><title>Node1&#45;&gt;Node3</title>
<path fill="none" stroke="midnightblue" d="M169.797,-28.3705C161.209,-27.2286 152.542,-26.0762 144.108,-24.9548"/>
<polygon fill="midnightblue" stroke="midnightblue" points="169.449,-31.855 179.823,-29.7037 170.372,-24.9161 169.449,-31.855"/>
</g>
</g>
</svg>
