<?xml version="1.0" encoding="UTF-8" standalone="no"?>
<!DOCTYPE svg PUBLIC "-//W3C//DTD SVG 1.1//EN"
 "http://www.w3.org/Graphics/SVG/1.1/DTD/svg11.dtd">
<!-- Generated by graphviz version 2.38.0 (20140413.2041)
 -->
<!-- Title: Gfx::CSkeleton Pages: 1 -->
<svg width="418pt" height="173pt"
 viewBox="0.00 0.00 418.00 173.00" xmlns="http://www.w3.org/2000/svg" xmlns:xlink="http://www.w3.org/1999/xlink">
<g id="graph0" class="graph" transform="scale(1 1) rotate(0) translate(4 169)">
<title>Gfx::CSkeleton</title>
<polygon fill="white" stroke="none" points="-4,4 -4,-169 414,-169 414,4 -4,4"/>
<!-- Node1 -->
<g id="node1" class="node"><title>Node1</title>
<g id="a_node1"><a xlink:title=" ">
<polygon fill="#bfbfbf" stroke="black" points="146.5,-0.5 146.5,-19.5 229.5,-19.5 229.5,-0.5 146.5,-0.5"/>
<text text-anchor="middle" x="188" y="-7.5" font-family="Helvetica,sans-Serif" font-size="10.00">Gfx::CSkeleton</text>
</a>
</g>
</g>
<!-- Node2 -->
<g id="node2" class="node"><title>Node2</title>
<g id="a_node2"><a xlink:href="../../d9/d37/class_mth_1_1_matrix.html" target="_top" xlink:title=" ">
<polygon fill="white" stroke="black" points="155,-145.5 155,-164.5 221,-164.5 221,-145.5 155,-145.5"/>
<text text-anchor="middle" x="188" y="-152.5" font-family="Helvetica,sans-Serif" font-size="10.00">Mth::Matrix</text>
</a>
</g>
</g>
<!-- Node2&#45;&gt;Node1 -->
<g id="edge1" class="edge"><title>Node2&#45;&gt;Node1</title>
<path fill="none" stroke="#9a32cd" stroke-dasharray="5,2" d="M188,-135.097C188,-103.772 188,-42.309 188,-19.6532"/>
<polygon fill="#9a32cd" stroke="#9a32cd" points="184.5,-135.483 188,-145.483 191.5,-135.483 184.5,-135.483"/>
<text text-anchor="middle" x="218" y="-74.5" font-family="Helvetica,sans-Serif" font-size="10.00"> mp_matrices</text>
</g>
<!-- Node3 -->
<g id="node3" class="node"><title>Node3</title>
<g id="a_node3"><a xlink:href="../../dd/d6e/class_gfx_1_1_c_skeleton_data.html" target="_top" xlink:title=" ">
<polygon fill="white" stroke="black" points="266.5,-67.5 266.5,-86.5 369.5,-86.5 369.5,-67.5 266.5,-67.5"/>
<text text-anchor="middle" x="318" y="-74.5" font-family="Helvetica,sans-Serif" font-size="10.00">Gfx::CSkeletonData</text>
</a>
</g>
</g>
<!-- Node2&#45;&gt;Node3 -->
<g id="edge4" class="edge"><title>Node2&#45;&gt;Node3</title>
<path fill="none" stroke="#9a32cd" stroke-dasharray="5,2" d="M195.047,-135.842C199.987,-125.381 207.579,-112.8 218,-105 231.964,-94.5471 249.703,-88.1391 266.352,-84.2115"/>
<polygon fill="#9a32cd" stroke="#9a32cd" points="191.699,-134.769 190.985,-145.34 198.136,-137.521 191.699,-134.769"/>
<text text-anchor="middle" x="289.5" y="-113.5" font-family="Helvetica,sans-Serif" font-size="10.00"> mp_inverseNeutralPoseMatrices</text>
</g>
<!-- Node5 -->
<g id="node5" class="node"><title>Node5</title>
<g id="a_node5"><a xlink:href="../../da/d45/class_gfx_1_1_c_bone.html" target="_top" xlink:title=" ">
<polygon fill="white" stroke="black" points="63.5,-67.5 63.5,-86.5 130.5,-86.5 130.5,-67.5 63.5,-67.5"/>
<text text-anchor="middle" x="97" y="-74.5" font-family="Helvetica,sans-Serif" font-size="10.00">Gfx::CBone</text>
</a>
</g>
</g>
<!-- Node2&#45;&gt;Node5 -->
<g id="edge6" class="edge"><title>Node2&#45;&gt;Node5</title>
<path fill="none" stroke="#9a32cd" stroke-dasharray="5,2" d="M144.717,-151.717C127.392,-148.43 108.974,-141.44 98,-127 89.1446,-115.348 91.7372,-97.2341 94.3921,-86.6013"/>
<polygon fill="#9a32cd" stroke="#9a32cd" points="144.312,-155.196 154.727,-153.254 145.374,-148.277 144.312,-155.196"/>
<text text-anchor="middle" x="136" y="-119" font-family="Helvetica,sans-Serif" font-size="10.00"> mp_parentMatrix</text>
<text text-anchor="middle" x="136" y="-108" font-family="Helvetica,sans-Serif" font-size="10.00">mp_flippedMatrix</text>
</g>
<!-- Node3&#45;&gt;Node1 -->
<g id="edge2" class="edge"><title>Node3&#45;&gt;Node1</title>
<path fill="none" stroke="#9a32cd" stroke-dasharray="5,2" d="M291.548,-62.7739C265.8,-49.8999 227.417,-30.7086 205.334,-19.6672"/>
<polygon fill="#9a32cd" stroke="#9a32cd" points="290.227,-66.0268 300.737,-67.3685 293.358,-59.7658 290.227,-66.0268"/>
<text text-anchor="middle" x="299.5" y="-41" font-family="Helvetica,sans-Serif" font-size="10.00"> mp_skeletonData</text>
</g>
<!-- Node4 -->
<g id="node4" class="node"><title>Node4</title>
<g id="a_node4"><a xlink:href="../../d3/dee/class_spt_1_1_class.html" target="_top" xlink:title=" ">
<polygon fill="white" stroke="black" points="348,-145.5 348,-164.5 410,-164.5 410,-145.5 348,-145.5"/>
<text text-anchor="middle" x="379" y="-152.5" font-family="Helvetica,sans-Serif" font-size="10.00">Spt::Class</text>
</a>
</g>
</g>
<!-- Node4&#45;&gt;Node3 -->
<g id="edge3" class="edge"><title>Node4&#45;&gt;Node3</title>
<path fill="none" stroke="midnightblue" d="M377.042,-135.129C375.228,-125.315 371.733,-113.607 365,-105 358.738,-96.9951 349.395,-90.939 340.684,-86.612"/>
<polygon fill="midnightblue" stroke="midnightblue" points="373.592,-135.726 378.459,-145.137 380.523,-134.745 373.592,-135.726"/>
</g>
<!-- Node5&#45;&gt;Node1 -->
<g id="edge5" class="edge"><title>Node5&#45;&gt;Node1</title>
<path fill="none" stroke="#9a32cd" stroke-dasharray="5,2" d="M107.041,-58.4829C111.773,-51.4035 117.936,-43.6 125,-38 135.164,-29.9421 148.094,-23.8511 159.592,-19.513"/>
<polygon fill="#9a32cd" stroke="#9a32cd" points="103.803,-57.0658 101.525,-67.4129 109.758,-60.7447 103.803,-57.0658"/>
<text text-anchor="middle" x="149.5" y="-41" font-family="Helvetica,sans-Serif" font-size="10.00"> mp_bones</text>
</g>
<!-- Node6 -->
<g id="node6" class="node"><title>Node6</title>
<g id="a_node6"><a xlink:href="../../d1/d08/class_mth_1_1_vector.html" target="_top" xlink:title=" ">
<polygon fill="white" stroke="black" points="0,-145.5 0,-164.5 68,-164.5 68,-145.5 0,-145.5"/>
<text text-anchor="middle" x="34" y="-152.5" font-family="Helvetica,sans-Serif" font-size="10.00">Mth::Vector</text>
</a>
</g>
</g>
<!-- Node6&#45;&gt;Node5 -->
<g id="edge7" class="edge"><title>Node6&#45;&gt;Node5</title>
<path fill="none" stroke="#9a32cd" stroke-dasharray="5,2" d="M29.8266,-135.228C28.713,-125.444 29.1508,-113.731 35,-105 41.5342,-95.2461 52.424,-88.9926 63.2696,-84.9931"/>
<polygon fill="#9a32cd" stroke="#9a32cd" points="26.3958,-135.931 31.5371,-145.194 33.2949,-134.746 26.3958,-135.931"/>
<text text-anchor="middle" x="55" y="-113.5" font-family="Helvetica,sans-Serif" font-size="10.00"> m_scale</text>
</g>
</g>
</svg>
