<?xml version="1.0" encoding="UTF-8" standalone="no"?>
<!DOCTYPE svg PUBLIC "-//W3C//DTD SVG 1.1//EN"
 "http://www.w3.org/Graphics/SVG/1.1/DTD/svg11.dtd">
<!-- Generated by graphviz version 2.38.0 (20140413.2041)
 -->
<!-- Title: Game::CGoalPed::ProIsCurrentSkater Pages: 1 -->
<!--zoomable 422 -->
<svg id="main" version="1.1" xmlns="http://www.w3.org/2000/svg" xmlns:xlink="http://www.w3.org/1999/xlink" xml:space="preserve" onload="init(evt)">
<style type="text/css"><![CDATA[
.edge:hover path { stroke: red; }
.edge:hover polygon { stroke: red; fill: red; }
]]></style>
<script type="text/javascript"><![CDATA[
var edges = document.getElementsByTagName('g');
if (edges && edges.length) {
  for (var i=0;i<edges.length;i++) {
    if (edges[i].id.substr(0,4)=='edge') {
      edges[i].setAttribute('class','edge');
    }
  }
}
]]></script>
        <defs>
                <circle id="rim" cx="0" cy="0" r="7"/>
                <circle id="rim2" cx="0" cy="0" r="3.5"/>
                <g id="zoomPlus">
                        <use xlink:href="#rim" fill="#404040">
                                <set attributeName="fill" to="#808080" begin="zoomplus.mouseover" end="zoomplus.mouseout"/>
                        </use>
                        <path d="M-4,0h8M0,-4v8" fill="none" stroke="white" stroke-width="1.5" pointer-events="none"/>
                </g>
                <g id="zoomMin">
                        <use xlink:href="#rim" fill="#404040">
                                <set attributeName="fill" to="#808080" begin="zoomminus.mouseover" end="zoomminus.mouseout"/>
                        </use>
                        <path d="M-4,0h8" fill="none" stroke="white" stroke-width="1.5" pointer-events="none"/>
                </g>
                <g id="dirArrow">
                        <path fill="none" stroke="white" stroke-width="1.5" d="M0,-3.0v7 M-2.5,-0.5L0,-3.0L2.5,-0.5"/>
                </g>
               <g id="resetDef">
                       <use xlink:href="#rim2" fill="#404040">
                               <set attributeName="fill" to="#808080" begin="reset.mouseover" end="reset.mouseout"/>
                       </use>
               </g>
        </defs>

<script type="text/javascript">
var viewWidth = 1261;
var viewHeight = 422;
var sectionId = 'dynsection-32';
</script>
<script xlink:href="../../svgpan.js"/>
<svg id="graph" class="graph">
<g id="viewport">
<title>Game::CGoalPed::ProIsCurrentSkater</title>
<polygon fill="white" stroke="none" points="-4,4 -4,-417.5 1257,-417.5 1257,4 -4,4"/>
<!-- Node1 -->
<g id="node1" class="node"><title>Node1</title>
<g id="a_node1"><a xlink:title=" ">
<polygon fill="#bfbfbf" stroke="black" points="0,-161.5 0,-191.5 153,-191.5 153,-161.5 0,-161.5"/>
<text text-anchor="start" x="8" y="-179.5" font-family="Helvetica,sans-Serif" font-size="10.00">Game::CGoalPed::ProIsCurrent</text>
<text text-anchor="middle" x="76.5" y="-168.5" font-family="Helvetica,sans-Serif" font-size="10.00">Skater</text>
</a>
</g>
</g>
<!-- Node2 -->
<g id="node2" class="node"><title>Node2</title>
<g id="a_node2"><a xlink:href="../../d1/d54/namespace_script.html#aa331360f088c15972ac441ecb8b40cd9" target="_top" xlink:title=" ">
<polygon fill="white" stroke="black" points="219.5,-365 219.5,-384 327.5,-384 327.5,-365 219.5,-365"/>
<text text-anchor="middle" x="273.5" y="-372" font-family="Helvetica,sans-Serif" font-size="10.00">Script::GenerateCRC</text>
</a>
</g>
</g>
<!-- Node1&#45;&gt;Node2 -->
<g id="edge1" class="edge"><title>Node1&#45;&gt;Node2</title>
<path fill="none" stroke="midnightblue" d="M83.4088,-191.518C97.0345,-224.258 133.78,-302.561 189,-345.5 197.719,-352.28 208.134,-357.539 218.604,-361.598"/>
<polygon fill="midnightblue" stroke="midnightblue" points="217.592,-364.952 228.187,-364.996 219.932,-358.355 217.592,-364.952"/>
</g>
<!-- Node4 -->
<g id="node4" class="node"><title>Node4</title>
<g id="a_node4"><a xlink:href="../../d2/df7/class_script_1_1_c_struct.html#aa39e6fe5fdf1d6c48136ae26a7ad511e" target="_top" xlink:title=" ">
<polygon fill="white" stroke="black" points="199,-299 199,-318 348,-318 348,-299 199,-299"/>
<text text-anchor="middle" x="273.5" y="-306" font-family="Helvetica,sans-Serif" font-size="10.00">Script::CStruct::GetChecksum</text>
</a>
</g>
</g>
<!-- Node1&#45;&gt;Node4 -->
<g id="edge3" class="edge"><title>Node1&#45;&gt;Node4</title>
<path fill="none" stroke="midnightblue" d="M99.6795,-191.69C122.157,-207.067 157.949,-231.505 189,-252.5 209.375,-266.276 232.617,-281.852 249.398,-293.074"/>
<polygon fill="midnightblue" stroke="midnightblue" points="247.738,-296.174 257.997,-298.821 251.627,-290.354 247.738,-296.174"/>
</g>
<!-- Node12 -->
<g id="node12" class="node"><title>Node12</title>
<g id="a_node12"><a xlink:href="../../d0/dc4/class_obj_1_1_c_player_profile_manager.html#a1baa532a6025c90259264eb2f040ba44" target="_top" xlink:title=" ">
<polygon fill="white" stroke="black" points="205,-98.5 205,-128.5 342,-128.5 342,-98.5 205,-98.5"/>
<text text-anchor="start" x="213" y="-116.5" font-family="Helvetica,sans-Serif" font-size="10.00">Obj::CPlayerProfileManager</text>
<text text-anchor="middle" x="273.5" y="-105.5" font-family="Helvetica,sans-Serif" font-size="10.00">::GetCurrentProfile</text>
</a>
</g>
</g>
<!-- Node1&#45;&gt;Node12 -->
<g id="edge13" class="edge"><title>Node1&#45;&gt;Node12</title>
<path fill="none" stroke="midnightblue" d="M120.529,-161.415C141.178,-154.283 166.308,-145.761 189,-138.5 196.296,-136.165 203.972,-133.776 211.592,-131.446"/>
<polygon fill="midnightblue" stroke="midnightblue" points="212.63,-134.789 221.182,-128.534 210.596,-128.091 212.63,-134.789"/>
</g>
<!-- Node13 -->
<g id="node13" class="node"><title>Node13</title>
<g id="a_node13"><a xlink:href="../../d4/d07/class_game_1_1_c_goal_ped.html#ac91a9054b8c6f2807e287c1732b3c3be" target="_top" xlink:title=" ">
<polygon fill="white" stroke="black" points="189,-148 189,-167 358,-167 358,-148 189,-148"/>
<text text-anchor="middle" x="273.5" y="-155" font-family="Helvetica,sans-Serif" font-size="10.00">Game::CGoalPed::GetGoalParams</text>
</a>
</g>
</g>
<!-- Node1&#45;&gt;Node13 -->
<g id="edge14" class="edge"><title>Node1&#45;&gt;Node13</title>
<path fill="none" stroke="midnightblue" d="M153.171,-169.127C161.558,-168.31 170.173,-167.47 178.749,-166.635"/>
<polygon fill="midnightblue" stroke="midnightblue" points="179.168,-170.111 188.782,-165.657 178.49,-163.143 179.168,-170.111"/>
</g>
<!-- Node19 -->
<g id="node19" class="node"><title>Node19</title>
<g id="a_node19"><a xlink:href="../../d6/df1/class_mdl_1_1_skate.html#abd3751bbfaaa547030a9bf632ed656cd" target="_top" xlink:title=" ">
<polygon fill="white" stroke="black" points="203.5,-49.5 203.5,-79.5 343.5,-79.5 343.5,-49.5 203.5,-49.5"/>
<text text-anchor="start" x="211.5" y="-67.5" font-family="Helvetica,sans-Serif" font-size="10.00">Mdl::Skate::GetPlayerProfile</text>
<text text-anchor="middle" x="273.5" y="-56.5" font-family="Helvetica,sans-Serif" font-size="10.00">Manager</text>
</a>
</g>
</g>
<!-- Node1&#45;&gt;Node19 -->
<g id="edge21" class="edge"><title>Node1&#45;&gt;Node19</title>
<path fill="none" stroke="midnightblue" d="M92.7399,-161.226C113.032,-141.701 150.822,-108.086 189,-88.5 192.699,-86.6023 196.569,-84.8351 200.531,-83.1922"/>
<polygon fill="midnightblue" stroke="midnightblue" points="201.831,-86.4422 209.905,-79.5815 199.315,-79.91 201.831,-86.4422"/>
</g>
<!-- Node20 -->
<g id="node20" class="node"><title>Node20</title>
<g id="a_node20"><a xlink:href="../../d5/d28/class_obj_1_1_c_skater_profile.html#a7d7efac02ad07b1d4dca8c709a146089" target="_top" xlink:title=" ">
<polygon fill="white" stroke="black" points="204,-0.5 204,-30.5 343,-30.5 343,-0.5 204,-0.5"/>
<text text-anchor="start" x="212" y="-18.5" font-family="Helvetica,sans-Serif" font-size="10.00">Obj::CSkaterProfile</text>
<text text-anchor="middle" x="273.5" y="-7.5" font-family="Helvetica,sans-Serif" font-size="10.00">::GetSkaterNameChecksum</text>
</a>
</g>
</g>
<!-- Node1&#45;&gt;Node20 -->
<g id="edge22" class="edge"><title>Node1&#45;&gt;Node20</title>
<path fill="none" stroke="midnightblue" d="M85.7103,-161.179C101.717,-132.789 139.871,-71.9528 189,-39.5 191.419,-37.9022 193.945,-36.4091 196.549,-35.0139"/>
<polygon fill="midnightblue" stroke="midnightblue" points="198.16,-38.123 205.658,-30.6378 195.129,-31.8133 198.16,-38.123"/>
</g>
<!-- Node21 -->
<g id="node21" class="node"><title>Node21</title>
<g id="a_node21"><a xlink:href="../../d2/df7/class_script_1_1_c_struct.html#a42a803452add452cf735c191a1816b14" target="_top" xlink:title=" ">
<polygon fill="white" stroke="black" points="209.5,-224 209.5,-243 337.5,-243 337.5,-224 209.5,-224"/>
<text text-anchor="middle" x="273.5" y="-231" font-family="Helvetica,sans-Serif" font-size="10.00">Script::CStruct::GetString</text>
</a>
</g>
</g>
<!-- Node1&#45;&gt;Node21 -->
<g id="edge23" class="edge"><title>Node1&#45;&gt;Node21</title>
<path fill="none" stroke="midnightblue" d="M127.985,-191.533C147.09,-197.198 169.039,-203.677 189,-209.5 202.154,-213.337 216.487,-217.473 229.506,-221.213"/>
<polygon fill="midnightblue" stroke="midnightblue" points="228.587,-224.59 239.164,-223.984 230.517,-217.861 228.587,-224.59"/>
</g>
<!-- Node24 -->
<g id="node24" class="node"><title>Node24</title>
<g id="a_node24"><a xlink:href="../../d1/d54/namespace_script.html#aaf10cce8c51e44ea46f7789b3db96bc0" target="_top" xlink:title=" ">
<polygon fill="white" stroke="black" points="415,-186 415,-205 519,-205 519,-186 415,-186"/>
<text text-anchor="middle" x="467" y="-193" font-family="Helvetica,sans-Serif" font-size="10.00">Script::GetStructure</text>
</a>
</g>
</g>
<!-- Node1&#45;&gt;Node24 -->
<g id="edge31" class="edge"><title>Node1&#45;&gt;Node24</title>
<path fill="none" stroke="midnightblue" d="M153.329,-180.208C226.738,-183.799 336.633,-189.173 404.688,-192.501"/>
<polygon fill="midnightblue" stroke="midnightblue" points="404.668,-196.005 414.827,-192.997 405.01,-189.013 404.668,-196.005"/>
</g>
<!-- Node3 -->
<g id="node3" class="node"><title>Node3</title>
<g id="a_node3"><a xlink:href="../../d3/d9b/namespace_crc.html#aed1b5ad21f682b39b09782ec29f5c5cc" target="_top" xlink:title=" ">
<polygon fill="white" stroke="black" points="394,-394 394,-413 540,-413 540,-394 394,-394"/>
<text text-anchor="middle" x="467" y="-401" font-family="Helvetica,sans-Serif" font-size="10.00">Crc::GenerateCRCFromString</text>
</a>
</g>
</g>
<!-- Node2&#45;&gt;Node3 -->
<g id="edge2" class="edge"><title>Node2&#45;&gt;Node3</title>
<path fill="none" stroke="midnightblue" d="M327.589,-382.54C347.752,-385.593 371.086,-389.127 392.784,-392.413"/>
<polygon fill="midnightblue" stroke="midnightblue" points="392.54,-395.915 402.951,-393.952 393.588,-388.994 392.54,-395.915"/>
</g>
<!-- Node4&#45;&gt;Node4 -->
<g id="edge8" class="edge"><title>Node4&#45;&gt;Node4</title>
<path fill="none" stroke="midnightblue" d="M243.907,-318.257C229.511,-327.065 239.375,-336.5 273.5,-336.5 297.494,-336.5 309.494,-331.836 309.5,-326.004"/>
<polygon fill="midnightblue" stroke="midnightblue" points="312.163,-323.732 303.093,-318.257 306.769,-328.194 312.163,-323.732"/>
</g>
<!-- Node5 -->
<g id="node5" class="node"><title>Node5</title>
<g id="a_node5"><a xlink:href="../../d1/d54/namespace_script.html#ae80ed69ea4edcbcbbbd4985a6efdcd6e" target="_top" xlink:title=" ">
<polygon fill="white" stroke="black" points="755,-224 755,-243 894,-243 894,-224 755,-224"/>
<text text-anchor="middle" x="824.5" y="-231" font-family="Helvetica,sans-Serif" font-size="10.00">Script::FindChecksumName</text>
</a>
</g>
</g>
<!-- Node4&#45;&gt;Node5 -->
<g id="edge4" class="edge"><title>Node4&#45;&gt;Node5</title>
<path fill="none" stroke="midnightblue" d="M303.075,-318.015C376.002,-340.606 573.528,-391.072 719,-328.5 740.371,-319.308 738.029,-306.413 755,-290.5 770.515,-275.953 789.119,-260.593 803.022,-249.488"/>
<polygon fill="midnightblue" stroke="midnightblue" points="805.335,-252.121 811.001,-243.168 800.988,-246.633 805.335,-252.121"/>
</g>
<!-- Node9 -->
<g id="node9" class="node"><title>Node9</title>
<g id="a_node9"><a xlink:href="../../d1/d54/namespace_script.html#a0d003ee93577e31adb6597bce0002009" target="_top" xlink:title=" ">
<polygon fill="white" stroke="black" points="413.5,-280 413.5,-299 520.5,-299 520.5,-280 413.5,-280"/>
<text text-anchor="middle" x="467" y="-287" font-family="Helvetica,sans-Serif" font-size="10.00">Script::PrintContents</text>
</a>
</g>
</g>
<!-- Node4&#45;&gt;Node9 -->
<g id="edge9" class="edge"><title>Node4&#45;&gt;Node9</title>
<path fill="none" stroke="midnightblue" d="M348.265,-301.181C366.409,-299.381 385.666,-297.47 403.236,-295.727"/>
<polygon fill="midnightblue" stroke="midnightblue" points="403.758,-299.193 413.364,-294.722 403.067,-292.227 403.758,-299.193"/>
</g>
<!-- Node10 -->
<g id="node10" class="node"><title>Node10</title>
<g id="a_node10"><a xlink:href="../../d1/d54/namespace_script.html#a43181580ea5d38e4bf1aa19ccd5e9e85" target="_top" xlink:title=" ">
<polygon fill="white" stroke="black" points="606.5,-300 606.5,-319 688.5,-319 688.5,-300 606.5,-300"/>
<text text-anchor="middle" x="647.5" y="-307" font-family="Helvetica,sans-Serif" font-size="10.00">Script::Resolve</text>
</a>
</g>
</g>
<!-- Node4&#45;&gt;Node10 -->
<g id="edge10" class="edge"><title>Node4&#45;&gt;Node10</title>
<path fill="none" stroke="midnightblue" d="M348.44,-308.699C421.801,-308.896 532.241,-309.193 596.067,-309.364"/>
<polygon fill="midnightblue" stroke="midnightblue" points="596.269,-312.865 606.278,-309.392 596.288,-305.865 596.269,-312.865"/>
</g>
<!-- Node6 -->
<g id="node6" class="node"><title>Node6</title>
<g id="a_node6"><a xlink:href="../../d1/d54/namespace_script.html#a5cc52c4ff5ea5bb27681d819212dfdca" target="_top" xlink:title=" ">
<polygon fill="white" stroke="black" points="930,-243 930,-262 1093,-262 1093,-243 930,-243"/>
<text text-anchor="middle" x="1011.5" y="-250" font-family="Helvetica,sans-Serif" font-size="10.00">Script::FindChecksumNameNULL</text>
</a>
</g>
</g>
<!-- Node5&#45;&gt;Node6 -->
<g id="edge5" class="edge"><title>Node5&#45;&gt;Node6</title>
<path fill="none" stroke="midnightblue" d="M894.124,-240.548C902.476,-241.406 911.107,-242.292 919.717,-243.176"/>
<polygon fill="midnightblue" stroke="midnightblue" points="919.493,-246.672 929.798,-244.212 920.208,-239.708 919.493,-246.672"/>
</g>
<!-- Node8 -->
<g id="node8" class="node"><title>Node8</title>
<g id="a_node8"><a xlink:href="../../da/d37/namespace_dbg.html#ab406a8cc16de5046c7d9fd09c9de5e22" target="_top" xlink:title=" ">
<polygon fill="white" stroke="black" points="978.5,-205 978.5,-224 1044.5,-224 1044.5,-205 978.5,-205"/>
<text text-anchor="middle" x="1011.5" y="-212" font-family="Helvetica,sans-Serif" font-size="10.00">Dbg::sprintf</text>
</a>
</g>
</g>
<!-- Node5&#45;&gt;Node8 -->
<g id="edge7" class="edge"><title>Node5&#45;&gt;Node8</title>
<path fill="none" stroke="midnightblue" d="M894.124,-226.452C918.98,-223.899 946.305,-221.093 968.228,-218.841"/>
<polygon fill="midnightblue" stroke="midnightblue" points="968.616,-222.32 978.206,-217.817 967.901,-215.357 968.616,-222.32"/>
</g>
<!-- Node7 -->
<g id="node7" class="node"><title>Node7</title>
<g id="a_node7"><a xlink:href="../../d0/d31/namespace_config.html#a709cc81780d49900157e3476b63aa25d" target="_top" xlink:title=" ">
<polygon fill="white" stroke="black" points="1129,-243 1129,-262 1253,-262 1253,-243 1129,-243"/>
<text text-anchor="middle" x="1191" y="-250" font-family="Helvetica,sans-Serif" font-size="10.00">Config::GotExtraMemory</text>
</a>
</g>
</g>
<!-- Node6&#45;&gt;Node7 -->
<g id="edge6" class="edge"><title>Node6&#45;&gt;Node7</title>
<path fill="none" stroke="midnightblue" d="M1093.2,-252.5C1101.73,-252.5 1110.36,-252.5 1118.77,-252.5"/>
<polygon fill="midnightblue" stroke="midnightblue" points="1118.9,-256 1128.9,-252.5 1118.9,-249 1118.9,-256"/>
</g>
<!-- Node10&#45;&gt;Node5 -->
<g id="edge11" class="edge"><title>Node10&#45;&gt;Node5</title>
<path fill="none" stroke="midnightblue" d="M679.37,-299.983C691.819,-295.889 706.23,-290.823 719,-285.5 746.25,-274.141 776.329,-258.87 797.191,-247.818"/>
<polygon fill="midnightblue" stroke="midnightblue" points="798.914,-250.866 806.084,-243.066 795.615,-244.692 798.914,-250.866"/>
</g>
<!-- Node11 -->
<g id="node11" class="node"><title>Node11</title>
<g id="a_node11"><a xlink:href="../../d1/d54/namespace_script.html#af293a36c230b10de7d8151c2990b233b" target="_top" xlink:title=" ">
<polygon fill="white" stroke="black" points="767.5,-300 767.5,-319 881.5,-319 881.5,-300 767.5,-300"/>
<text text-anchor="middle" x="824.5" y="-307" font-family="Helvetica,sans-Serif" font-size="10.00">Script::LookUpSymbol</text>
</a>
</g>
</g>
<!-- Node10&#45;&gt;Node11 -->
<g id="edge12" class="edge"><title>Node10&#45;&gt;Node11</title>
<path fill="none" stroke="midnightblue" d="M688.649,-309.5C708.954,-309.5 734.128,-309.5 757.207,-309.5"/>
<polygon fill="midnightblue" stroke="midnightblue" points="757.293,-313 767.293,-309.5 757.293,-306 757.293,-313"/>
</g>
<!-- Node14 -->
<g id="node14" class="node"><title>Node14</title>
<g id="a_node14"><a xlink:href="../../d2/d97/namespace_game.html#ae5106e88e5082c716b56a2111a888616" target="_top" xlink:title=" ">
<polygon fill="white" stroke="black" points="406,-110 406,-129 528,-129 528,-110 406,-110"/>
<text text-anchor="middle" x="467" y="-117" font-family="Helvetica,sans-Serif" font-size="10.00">Game::GetGoalManager</text>
</a>
</g>
</g>
<!-- Node13&#45;&gt;Node14 -->
<g id="edge15" class="edge"><title>Node13&#45;&gt;Node14</title>
<path fill="none" stroke="midnightblue" d="M322.824,-147.911C348.663,-142.784 380.668,-136.433 407.861,-131.037"/>
<polygon fill="midnightblue" stroke="midnightblue" points="408.896,-134.4 418.024,-129.02 407.534,-127.533 408.896,-134.4"/>
</g>
<!-- Node16 -->
<g id="node16" class="node"><title>Node16</title>
<g id="a_node16"><a xlink:href="../../d9/dda/class_game_1_1_c_goal_manager.html#af50bf87da9f5a1590437d3dd11d9ac22" target="_top" xlink:title=" ">
<polygon fill="white" stroke="black" points="410.5,-60.5 410.5,-90.5 523.5,-90.5 523.5,-60.5 410.5,-60.5"/>
<text text-anchor="start" x="418.5" y="-78.5" font-family="Helvetica,sans-Serif" font-size="10.00">Game::CGoalManager</text>
<text text-anchor="middle" x="467" y="-67.5" font-family="Helvetica,sans-Serif" font-size="10.00">::GetGoalParams</text>
</a>
</g>
</g>
<!-- Node13&#45;&gt;Node16 -->
<g id="edge17" class="edge"><title>Node13&#45;&gt;Node16</title>
<path fill="none" stroke="midnightblue" d="M335.832,-147.967C343.564,-145.503 351.154,-142.402 358,-138.5 378.212,-126.979 374.455,-113.119 394,-100.5 397.13,-98.4791 400.442,-96.6004 403.859,-94.857"/>
<polygon fill="midnightblue" stroke="midnightblue" points="405.509,-97.9497 413.094,-90.5533 402.552,-91.6049 405.509,-97.9497"/>
</g>
<!-- Node15 -->
<g id="node15" class="node"><title>Node15</title>
<g id="a_node15"><a xlink:href="../../d6/df1/class_mdl_1_1_skate.html#adcda740605d63a59544a0d8e8f9ee78b" target="_top" xlink:title=" ">
<polygon fill="white" stroke="black" points="576,-110 576,-129 719,-129 719,-110 576,-110"/>
<text text-anchor="middle" x="647.5" y="-117" font-family="Helvetica,sans-Serif" font-size="10.00">Mdl::Skate::GetGoalManager</text>
</a>
</g>
</g>
<!-- Node14&#45;&gt;Node15 -->
<g id="edge16" class="edge"><title>Node14&#45;&gt;Node15</title>
<path fill="none" stroke="midnightblue" d="M528.432,-119.5C540.483,-119.5 553.319,-119.5 565.922,-119.5"/>
<polygon fill="midnightblue" stroke="midnightblue" points="565.96,-123 575.96,-119.5 565.96,-116 565.96,-123"/>
</g>
<!-- Node17 -->
<g id="node17" class="node"><title>Node17</title>
<g id="a_node17"><a xlink:href="../../d9/dda/class_game_1_1_c_goal_manager.html#ad38cfcd14218068547a93faa1d2c5d6f" target="_top" xlink:title=" ">
<polygon fill="white" stroke="black" points="591,-22.5 591,-52.5 704,-52.5 704,-22.5 591,-22.5"/>
<text text-anchor="start" x="599" y="-40.5" font-family="Helvetica,sans-Serif" font-size="10.00">Game::CGoalManager</text>
<text text-anchor="middle" x="647.5" y="-29.5" font-family="Helvetica,sans-Serif" font-size="10.00">::GetGoal</text>
</a>
</g>
</g>
<!-- Node16&#45;&gt;Node17 -->
<g id="edge18" class="edge"><title>Node16&#45;&gt;Node17</title>
<path fill="none" stroke="midnightblue" d="M523.5,-63.6849C541.631,-59.8251 561.941,-55.5013 580.752,-51.4968"/>
<polygon fill="midnightblue" stroke="midnightblue" points="581.675,-54.8788 590.727,-49.3732 580.217,-48.0322 581.675,-54.8788"/>
</g>
<!-- Node18 -->
<g id="node18" class="node"><title>Node18</title>
<g id="a_node18"><a xlink:href="../../d1/d04/class_game_1_1_c_goal.html#a59ad3a42c062c19334b5e78766737c40" target="_top" xlink:title=" ">
<polygon fill="white" stroke="black" points="582,-72 582,-91 713,-91 713,-72 582,-72"/>
<text text-anchor="middle" x="647.5" y="-79" font-family="Helvetica,sans-Serif" font-size="10.00">Game::CGoal::GetParams</text>
</a>
</g>
</g>
<!-- Node16&#45;&gt;Node18 -->
<g id="edge20" class="edge"><title>Node16&#45;&gt;Node18</title>
<path fill="none" stroke="midnightblue" d="M523.5,-77.3655C538.84,-77.8812 555.74,-78.4493 571.972,-78.9949"/>
<polygon fill="midnightblue" stroke="midnightblue" points="571.861,-82.493 581.973,-79.331 572.096,-75.4969 571.861,-82.493"/>
</g>
<!-- Node17&#45;&gt;Node5 -->
<g id="edge19" class="edge"><title>Node17&#45;&gt;Node5</title>
<path fill="none" stroke="midnightblue" d="M703.265,-52.593C708.884,-55.3791 714.26,-58.6549 719,-62.5 770.668,-104.411 803.453,-179.118 816.737,-214.243"/>
<polygon fill="midnightblue" stroke="midnightblue" points="813.509,-215.606 820.233,-223.793 820.082,-213.2 813.509,-215.606"/>
</g>
<!-- Node21&#45;&gt;Node5 -->
<g id="edge24" class="edge"><title>Node21&#45;&gt;Node5</title>
<path fill="none" stroke="midnightblue" d="M289.173,-223.826C310.961,-210.102 353.646,-185.631 394,-176.5 535.149,-144.56 577.955,-164.102 719,-196.5 743.986,-202.239 771.262,-212.023 791.681,-220.089"/>
<polygon fill="midnightblue" stroke="midnightblue" points="790.53,-223.399 801.114,-223.885 793.143,-216.905 790.53,-223.399"/>
</g>
<!-- Node21&#45;&gt;Node9 -->
<g id="edge25" class="edge"><title>Node21&#45;&gt;Node9</title>
<path fill="none" stroke="midnightblue" d="M304.353,-243.127C328.463,-250.809 363.31,-261.704 394,-270.5 401.952,-272.779 410.426,-275.106 418.666,-277.314"/>
<polygon fill="midnightblue" stroke="midnightblue" points="417.985,-280.755 428.548,-279.938 419.781,-273.989 417.985,-280.755"/>
</g>
<!-- Node22 -->
<g id="node22" class="node"><title>Node22</title>
<g id="a_node22"><a xlink:href="../../d2/df7/class_script_1_1_c_struct.html#a1e05f0a66cff4a700fb67fdc117d2d7f" target="_top" xlink:title=" ">
<polygon fill="white" stroke="black" points="401,-224 401,-243 533,-243 533,-224 401,-224"/>
<text text-anchor="middle" x="467" y="-231" font-family="Helvetica,sans-Serif" font-size="10.00">Script::CStruct::search_for</text>
</a>
</g>
</g>
<!-- Node21&#45;&gt;Node22 -->
<g id="edge26" class="edge"><title>Node21&#45;&gt;Node22</title>
<path fill="none" stroke="midnightblue" d="M337.735,-233.5C354.674,-233.5 373.154,-233.5 390.677,-233.5"/>
<polygon fill="midnightblue" stroke="midnightblue" points="390.864,-237 400.864,-233.5 390.864,-230 390.864,-237"/>
</g>
<!-- Node22&#45;&gt;Node5 -->
<g id="edge27" class="edge"><title>Node22&#45;&gt;Node5</title>
<path fill="none" stroke="midnightblue" d="M511.909,-243.012C531.431,-246.777 554.758,-250.646 576,-252.5 639.315,-258.027 655.701,-258.208 719,-252.5 736.034,-250.964 754.442,-248.047 770.993,-244.951"/>
<polygon fill="midnightblue" stroke="midnightblue" points="771.875,-248.346 781.029,-243.011 770.546,-241.473 771.875,-248.346"/>
</g>
<!-- Node22&#45;&gt;Node10 -->
<g id="edge29" class="edge"><title>Node22&#45;&gt;Node10</title>
<path fill="none" stroke="midnightblue" d="M486.041,-243.015C507.243,-254.002 543.643,-272.259 576,-285.5 585.603,-289.43 596.113,-293.254 606.018,-296.653"/>
<polygon fill="midnightblue" stroke="midnightblue" points="605.071,-300.027 615.665,-299.898 607.303,-293.392 605.071,-300.027"/>
</g>
<!-- Node22&#45;&gt;Node22 -->
<g id="edge30" class="edge"><title>Node22&#45;&gt;Node22</title>
<path fill="none" stroke="midnightblue" d="M439.257,-243.257C425.76,-252.065 435.008,-261.5 467,-261.5 488.995,-261.5 500.239,-257.041 500.733,-251.391"/>
<polygon fill="midnightblue" stroke="midnightblue" points="503.491,-249.234 494.743,-243.257 497.854,-253.385 503.491,-249.234"/>
</g>
<!-- Node23 -->
<g id="node23" class="node"><title>Node23</title>
<g id="a_node23"><a xlink:href="../../d1/d54/namespace_script.html#af32f99ba26ca0f255240413a4e23a754" target="_top" xlink:title=" ">
<polygon fill="white" stroke="black" points="592.5,-224 592.5,-243 702.5,-243 702.5,-224 592.5,-224"/>
<text text-anchor="middle" x="647.5" y="-231" font-family="Helvetica,sans-Serif" font-size="10.00">Script::GetTypeName</text>
</a>
</g>
</g>
<!-- Node22&#45;&gt;Node23 -->
<g id="edge28" class="edge"><title>Node22&#45;&gt;Node23</title>
<path fill="none" stroke="midnightblue" d="M533.2,-233.5C549.131,-233.5 566.167,-233.5 582.062,-233.5"/>
<polygon fill="midnightblue" stroke="midnightblue" points="582.319,-237 592.319,-233.5 582.319,-230 582.319,-237"/>
</g>
<!-- Node24&#45;&gt;Node5 -->
<g id="edge32" class="edge"><title>Node24&#45;&gt;Node5</title>
<path fill="none" stroke="midnightblue" d="M519.116,-197.805C569.947,-200.464 650.081,-205.651 719,-214.5 734.678,-216.513 751.574,-219.308 767.114,-222.136"/>
<polygon fill="midnightblue" stroke="midnightblue" points="766.633,-225.607 777.104,-223.992 767.911,-218.725 766.633,-225.607"/>
</g>
<!-- Node24&#45;&gt;Node10 -->
<g id="edge34" class="edge"><title>Node24&#45;&gt;Node10</title>
<path fill="none" stroke="midnightblue" d="M518.634,-205.027C526.078,-207.504 533.439,-210.61 540,-214.5 560.011,-226.365 558.917,-236.707 576,-252.5 591.888,-267.188 611.042,-282.538 625.373,-293.603"/>
<polygon fill="midnightblue" stroke="midnightblue" points="623.53,-296.6 633.6,-299.895 627.783,-291.04 623.53,-296.6"/>
</g>
<!-- Node24&#45;&gt;Node23 -->
<g id="edge33" class="edge"><title>Node24&#45;&gt;Node23</title>
<path fill="none" stroke="midnightblue" d="M513.043,-205.089C537.023,-210.194 566.698,-216.511 591.972,-221.892"/>
<polygon fill="midnightblue" stroke="midnightblue" points="591.271,-225.321 601.781,-223.98 592.729,-218.474 591.271,-225.321"/>
</g>
</g>
</svg>
        <g id="navigator" transform="translate(0 0)" fill="#404254">
                <rect fill="#f2f5e9" fill-opacity="0.5" stroke="#606060" stroke-width=".5" x="0" y="0" width="60" height="60"/>
                <use id="zoomplus" xlink:href="#zoomPlus" x="17" y="9" onmousedown="handleZoom(evt,'in')"/>
                <use id="zoomminus" xlink:href="#zoomMin" x="42" y="9" onmousedown="handleZoom(evt,'out')"/>
                <use id="reset" xlink:href="#resetDef" x="30" y="36" onmousedown="handleReset()"/>
                <g id="arrowUp" xlink:href="#dirArrow" transform="translate(30 24)" onmousedown="handlePan(0,-1)">
                  <use xlink:href="#rim" fill="#404040">
                        <set attributeName="fill" to="#808080" begin="arrowUp.mouseover" end="arrowUp.mouseout"/>
                  </use>
                  <path fill="none" stroke="white" stroke-width="1.5" d="M0,-3.0v7 M-2.5,-0.5L0,-3.0L2.5,-0.5"/>
                </g>
                <g id="arrowRight" xlink:href="#dirArrow" transform="rotate(90) translate(36 -43)" onmousedown="handlePan(1,0)">
                  <use xlink:href="#rim" fill="#404040">
                        <set attributeName="fill" to="#808080" begin="arrowRight.mouseover" end="arrowRight.mouseout"/>
                  </use>
                  <path fill="none" stroke="white" stroke-width="1.5" d="M0,-3.0v7 M-2.5,-0.5L0,-3.0L2.5,-0.5"/>
                </g>
                <g id="arrowDown" xlink:href="#dirArrow" transform="rotate(180) translate(-30 -48)" onmousedown="handlePan(0,1)">
                  <use xlink:href="#rim" fill="#404040">
                        <set attributeName="fill" to="#808080" begin="arrowDown.mouseover" end="arrowDown.mouseout"/>
                  </use>
                  <path fill="none" stroke="white" stroke-width="1.5" d="M0,-3.0v7 M-2.5,-0.5L0,-3.0L2.5,-0.5"/>
                </g>
                <g id="arrowLeft" xlink:href="#dirArrow" transform="rotate(270) translate(-36 17)" onmousedown="handlePan(-1,0)">
                  <use xlink:href="#rim" fill="#404040">
                        <set attributeName="fill" to="#808080" begin="arrowLeft.mouseover" end="arrowLeft.mouseout"/>
                  </use>
                  <path fill="none" stroke="white" stroke-width="1.5" d="M0,-3.0v7 M-2.5,-0.5L0,-3.0L2.5,-0.5"/>
                </g>
        </g>
        <svg viewBox="0 0 15 15" width="100%" height="30px" preserveAspectRatio="xMaxYMin meet">
         <g id="arrow_out" transform="scale(0.3 0.3)">
          <a xlink:href="class_game_1_1_c_goal_ped_aebc8df1e81dae70325ccf99002b76fd5_cgraph_org.svg" target="_base">
           <rect id="button" ry="5" rx="5" y="6" x="6" height="38" width="38"
                fill="#f2f5e9" fill-opacity="0.5" stroke="#606060" stroke-width="1.0"/>
           <path id="arrow"
             d="M 11.500037,31.436501 C 11.940474,20.09759 22.043105,11.32322 32.158766,21.979434 L 37.068811,17.246167 C 37.068811,17.246167 37.088388,32 37.088388,32 L 22.160133,31.978069 C 22.160133,31.978069 26.997745,27.140456 26.997745,27.140456 C 18.528582,18.264221 13.291696,25.230495 11.500037,31.436501 z"
             style="fill:#404040;"/>
          </a>
         </g>
        </svg>
</svg>
