<?xml version="1.0" encoding="UTF-8" standalone="no"?>
<!DOCTYPE svg PUBLIC "-//W3C//DTD SVG 1.1//EN"
 "http://www.w3.org/Graphics/SVG/1.1/DTD/svg11.dtd">
<!-- Generated by graphviz version 2.38.0 (20140413.2041)
 -->
<!-- Title: Game::CGoal::SetQuickStartFlag Pages: 1 -->
<svg width="1227pt" height="344pt"
 viewBox="0.00 0.00 1227.00 343.50" xmlns="http://www.w3.org/2000/svg" xmlns:xlink="http://www.w3.org/1999/xlink">
<g id="graph0" class="graph" transform="scale(1 1) rotate(0) translate(4 339.5)">
<title>Game::CGoal::SetQuickStartFlag</title>
<polygon fill="white" stroke="none" points="-4,4 -4,-339.5 1223,-339.5 1223,4 -4,4"/>
<!-- Node1 -->
<g id="node1" class="node"><title>Node1</title>
<g id="a_node1"><a xlink:title=" ">
<polygon fill="#bfbfbf" stroke="black" points="0,-66.5 0,-85.5 162,-85.5 162,-66.5 0,-66.5"/>
<text text-anchor="middle" x="81" y="-73.5" font-family="Helvetica,sans-Serif" font-size="10.00">Game::CGoal::SetQuickStartFlag</text>
</a>
</g>
</g>
<!-- Node2 -->
<g id="node2" class="node"><title>Node2</title>
<g id="a_node2"><a xlink:href="../../d2/df7/class_script_1_1_c_struct.html#a148f8f6bc239cff60340c410df449c71" target="_top" xlink:title=" ">
<polygon fill="white" stroke="black" points="198,-66.5 198,-85.5 349,-85.5 349,-66.5 198,-66.5"/>
<text text-anchor="middle" x="273.5" y="-73.5" font-family="Helvetica,sans-Serif" font-size="10.00">Script::CStruct::AddChecksum</text>
</a>
</g>
</g>
<!-- Node1&#45;&gt;Node2 -->
<g id="edge1" class="edge"><title>Node1&#45;&gt;Node2</title>
<path fill="none" stroke="midnightblue" d="M162.237,-76C170.623,-76 179.168,-76 187.603,-76"/>
<polygon fill="midnightblue" stroke="midnightblue" points="187.82,-79.5001 197.82,-76 187.82,-72.5001 187.82,-79.5001"/>
</g>
<!-- Node3 -->
<g id="node3" class="node"><title>Node3</title>
<g id="a_node3"><a xlink:href="../../d2/df7/class_script_1_1_c_struct.html#a3872f7f0a9ebcc695745aabeefab2796" target="_top" xlink:title=" ">
<polygon fill="white" stroke="black" points="385,-66.5 385,-85.5 539,-85.5 539,-66.5 385,-66.5"/>
<text text-anchor="middle" x="462" y="-73.5" font-family="Helvetica,sans-Serif" font-size="10.00">Script::CStruct::AddComponent</text>
</a>
</g>
</g>
<!-- Node2&#45;&gt;Node3 -->
<g id="edge2" class="edge"><title>Node2&#45;&gt;Node3</title>
<path fill="none" stroke="midnightblue" d="M349.014,-76C357.473,-76 366.147,-76 374.741,-76"/>
<polygon fill="midnightblue" stroke="midnightblue" points="374.776,-79.5001 384.776,-76 374.775,-72.5001 374.776,-79.5001"/>
</g>
<!-- Node4 -->
<g id="node4" class="node"><title>Node4</title>
<g id="a_node4"><a xlink:href="../../d1/d54/namespace_script.html#a1dd030523ebaecb95103d181f6fd382e" target="_top" xlink:title=" ">
<polygon fill="white" stroke="black" points="577.5,-95.5 577.5,-114.5 711.5,-114.5 711.5,-95.5 577.5,-95.5"/>
<text text-anchor="middle" x="644.5" y="-102.5" font-family="Helvetica,sans-Serif" font-size="10.00">Script::CleanUpComponent</text>
</a>
</g>
</g>
<!-- Node3&#45;&gt;Node4 -->
<g id="edge3" class="edge"><title>Node3&#45;&gt;Node4</title>
<path fill="none" stroke="midnightblue" d="M522.352,-85.5359C538.93,-88.1993 557.089,-91.1168 574.187,-93.8639"/>
<polygon fill="midnightblue" stroke="midnightblue" points="573.683,-97.3277 584.112,-95.4584 574.794,-90.4163 573.683,-97.3277"/>
</g>
<!-- Node13 -->
<g id="node13" class="node"><title>Node13</title>
<g id="a_node13"><a xlink:href="../../d1/d54/namespace_script.html#ae80ed69ea4edcbcbbbd4985a6efdcd6e" target="_top" xlink:title=" ">
<polygon fill="white" stroke="black" points="575,-38.5 575,-57.5 714,-57.5 714,-38.5 575,-38.5"/>
<text text-anchor="middle" x="644.5" y="-45.5" font-family="Helvetica,sans-Serif" font-size="10.00">Script::FindChecksumName</text>
</a>
</g>
</g>
<!-- Node3&#45;&gt;Node13 -->
<g id="edge16" class="edge"><title>Node3&#45;&gt;Node13</title>
<path fill="none" stroke="midnightblue" d="M524.361,-66.4814C539.619,-64.1145 556.109,-61.5565 571.815,-59.1201"/>
<polygon fill="midnightblue" stroke="midnightblue" points="572.657,-62.5315 582.002,-57.5398 571.584,-55.6142 572.657,-62.5315"/>
</g>
<!-- Node5 -->
<g id="node5" class="node"><title>Node5</title>
<g id="a_node5"><a xlink:href="../../d1/d54/namespace_script.html#a3dd60f29ada8a33fda9f4e842f1cabc1" target="_top" xlink:title=" ">
<polygon fill="white" stroke="black" points="777.5,-190.5 777.5,-209.5 885.5,-209.5 885.5,-190.5 777.5,-190.5"/>
<text text-anchor="middle" x="831.5" y="-197.5" font-family="Helvetica,sans-Serif" font-size="10.00">Script::CleanUpArray</text>
</a>
</g>
</g>
<!-- Node4&#45;&gt;Node5 -->
<g id="edge4" class="edge"><title>Node4&#45;&gt;Node5</title>
<path fill="none" stroke="midnightblue" d="M664.257,-114.632C697.029,-131.461 764.848,-166.287 802.959,-185.857"/>
<polygon fill="midnightblue" stroke="midnightblue" points="801.474,-189.029 811.969,-190.484 804.672,-182.802 801.474,-189.029"/>
</g>
<!-- Node7 -->
<g id="node7" class="node"><title>Node7</title>
<g id="a_node7"><a xlink:href="../../db/dc4/namespace_mem.html#aeedb606ea94a3398fdcfa3101c5ea8d9" target="_top" xlink:title=" ">
<polygon fill="white" stroke="black" points="1132,-114.5 1132,-133.5 1196,-133.5 1196,-114.5 1132,-114.5"/>
<text text-anchor="middle" x="1164" y="-121.5" font-family="Helvetica,sans-Serif" font-size="10.00">Mem::Free</text>
</a>
</g>
</g>
<!-- Node4&#45;&gt;Node7 -->
<g id="edge15" class="edge"><title>Node4&#45;&gt;Node7</title>
<path fill="none" stroke="midnightblue" d="M711.633,-100.757C795.83,-96.3275 945.665,-91.7056 1073,-105 1089,-106.671 1106.35,-109.969 1121.5,-113.355"/>
<polygon fill="midnightblue" stroke="midnightblue" points="1121.07,-116.847 1131.6,-115.695 1122.65,-110.028 1121.07,-116.847"/>
</g>
<!-- Node9 -->
<g id="node9" class="node"><title>Node9</title>
<g id="a_node9"><a xlink:href="../../d1/d54/namespace_script.html#a99857fb30343d0c999af4db73344cece" target="_top" xlink:title=" ">
<polygon fill="white" stroke="black" points="960.5,-114.5 960.5,-133.5 1061.5,-133.5 1061.5,-114.5 960.5,-114.5"/>
<text text-anchor="middle" x="1011" y="-121.5" font-family="Helvetica,sans-Serif" font-size="10.00">Script::DeleteString</text>
</a>
</g>
</g>
<!-- Node4&#45;&gt;Node9 -->
<g id="edge14" class="edge"><title>Node4&#45;&gt;Node9</title>
<path fill="none" stroke="midnightblue" d="M711.508,-108.441C779.471,-111.983 884.448,-117.455 950.088,-120.877"/>
<polygon fill="midnightblue" stroke="midnightblue" points="950.105,-124.383 960.274,-121.408 950.47,-117.392 950.105,-124.383"/>
</g>
<!-- Node6 -->
<g id="node6" class="node"><title>Node6</title>
<g id="a_node6"><a xlink:href="../../d0/d0b/class_script_1_1_c_array.html#a4b347b8b448dd652473dd6afe9aba2c2" target="_top" xlink:title=" ">
<polygon fill="white" stroke="black" points="957.5,-152.5 957.5,-171.5 1064.5,-171.5 1064.5,-152.5 957.5,-152.5"/>
<text text-anchor="middle" x="1011" y="-159.5" font-family="Helvetica,sans-Serif" font-size="10.00">Script::CArray::Clear</text>
</a>
</g>
</g>
<!-- Node5&#45;&gt;Node6 -->
<g id="edge5" class="edge"><title>Node5&#45;&gt;Node6</title>
<path fill="none" stroke="midnightblue" d="M877.291,-190.411C901.03,-185.329 930.384,-179.045 955.444,-173.68"/>
<polygon fill="midnightblue" stroke="midnightblue" points="956.486,-177.036 965.531,-171.52 955.02,-170.191 956.486,-177.036"/>
</g>
<!-- Node8 -->
<g id="node8" class="node"><title>Node8</title>
<g id="a_node8"><a xlink:href="../../d1/d54/namespace_script.html#af32f99ba26ca0f255240413a4e23a754" target="_top" xlink:title=" ">
<polygon fill="white" stroke="black" points="1109,-171.5 1109,-190.5 1219,-190.5 1219,-171.5 1109,-171.5"/>
<text text-anchor="middle" x="1164" y="-178.5" font-family="Helvetica,sans-Serif" font-size="10.00">Script::GetTypeName</text>
</a>
</g>
</g>
<!-- Node5&#45;&gt;Node8 -->
<g id="edge13" class="edge"><title>Node5&#45;&gt;Node8</title>
<path fill="none" stroke="midnightblue" d="M885.601,-196.947C943.677,-193.609 1036.75,-188.258 1098.86,-184.687"/>
<polygon fill="midnightblue" stroke="midnightblue" points="1099.15,-188.176 1108.93,-184.108 1098.75,-181.188 1099.15,-188.176"/>
</g>
<!-- Node5&#45;&gt;Node9 -->
<g id="edge8" class="edge"><title>Node5&#45;&gt;Node9</title>
<path fill="none" stroke="midnightblue" d="M849.883,-190.449C872.325,-178.365 912.803,-157.394 949,-143 954.546,-140.794 960.457,-138.676 966.332,-136.707"/>
<polygon fill="midnightblue" stroke="midnightblue" points="967.68,-139.95 976.118,-133.543 965.526,-133.289 967.68,-139.95"/>
</g>
<!-- Node10 -->
<g id="node10" class="node"><title>Node10</title>
<g id="a_node10"><a xlink:href="../../d0/d0b/class_script_1_1_c_array.html#a600fcbd0b8fd9d1df2ee87d77494db7a" target="_top" xlink:title=" ">
<polygon fill="white" stroke="black" points="949.5,-305 949.5,-335 1072.5,-335 1072.5,-305 949.5,-305"/>
<text text-anchor="start" x="957.5" y="-323" font-family="Helvetica,sans-Serif" font-size="10.00">Script::CArray::GetArray</text>
<text text-anchor="middle" x="1011" y="-312" font-family="Helvetica,sans-Serif" font-size="10.00">Pointer</text>
</a>
</g>
</g>
<!-- Node5&#45;&gt;Node10 -->
<g id="edge10" class="edge"><title>Node5&#45;&gt;Node10</title>
<path fill="none" stroke="midnightblue" d="M842.328,-209.751C861.477,-228.332 905.708,-269.254 949,-295 952.335,-296.984 955.857,-298.88 959.458,-300.678"/>
<polygon fill="midnightblue" stroke="midnightblue" points="957.97,-303.846 968.508,-304.938 960.951,-297.513 957.97,-303.846"/>
</g>
<!-- Node11 -->
<g id="node11" class="node"><title>Node11</title>
<g id="a_node11"><a xlink:href="../../d0/d0b/class_script_1_1_c_array.html#a71c761bdce14193b10bf3c88372ba5a0" target="_top" xlink:title=" ">
<polygon fill="white" stroke="black" points="951.5,-266.5 951.5,-285.5 1070.5,-285.5 1070.5,-266.5 951.5,-266.5"/>
<text text-anchor="middle" x="1011" y="-273.5" font-family="Helvetica,sans-Serif" font-size="10.00">Script::CArray::GetSize</text>
</a>
</g>
</g>
<!-- Node5&#45;&gt;Node11 -->
<g id="edge11" class="edge"><title>Node5&#45;&gt;Node11</title>
<path fill="none" stroke="midnightblue" d="M849.883,-209.551C872.325,-221.635 912.803,-242.606 949,-257 954.546,-259.206 960.457,-261.324 966.332,-263.293"/>
<polygon fill="midnightblue" stroke="midnightblue" points="965.526,-266.711 976.118,-266.457 967.68,-260.05 965.526,-266.711"/>
</g>
<!-- Node12 -->
<g id="node12" class="node"><title>Node12</title>
<g id="a_node12"><a xlink:href="../../d0/d0b/class_script_1_1_c_array.html#a68067b67ca9aae7b9214c0add1d8934e" target="_top" xlink:title=" ">
<polygon fill="white" stroke="black" points="950.5,-228.5 950.5,-247.5 1071.5,-247.5 1071.5,-228.5 950.5,-228.5"/>
<text text-anchor="middle" x="1011" y="-235.5" font-family="Helvetica,sans-Serif" font-size="10.00">Script::CArray::GetType</text>
</a>
</g>
</g>
<!-- Node5&#45;&gt;Node12 -->
<g id="edge12" class="edge"><title>Node5&#45;&gt;Node12</title>
<path fill="none" stroke="midnightblue" d="M877.291,-209.589C901.03,-214.671 930.384,-220.955 955.444,-226.32"/>
<polygon fill="midnightblue" stroke="midnightblue" points="955.02,-229.809 965.531,-228.48 956.486,-222.964 955.02,-229.809"/>
</g>
<!-- Node6&#45;&gt;Node7 -->
<g id="edge6" class="edge"><title>Node6&#45;&gt;Node7</title>
<path fill="none" stroke="midnightblue" d="M1050.1,-152.411C1071.92,-146.92 1099.32,-140.026 1121.66,-134.404"/>
<polygon fill="midnightblue" stroke="midnightblue" points="1122.69,-137.755 1131.53,-131.92 1120.98,-130.966 1122.69,-137.755"/>
</g>
<!-- Node6&#45;&gt;Node8 -->
<g id="edge7" class="edge"><title>Node6&#45;&gt;Node8</title>
<path fill="none" stroke="midnightblue" d="M1064.81,-168.645C1075.75,-170.022 1087.39,-171.486 1098.69,-172.908"/>
<polygon fill="midnightblue" stroke="midnightblue" points="1098.58,-176.422 1108.94,-174.198 1099.45,-169.476 1098.58,-176.422"/>
</g>
<!-- Node9&#45;&gt;Node7 -->
<g id="edge9" class="edge"><title>Node9&#45;&gt;Node7</title>
<path fill="none" stroke="midnightblue" d="M1061.86,-124C1081.2,-124 1103.08,-124 1121.53,-124"/>
<polygon fill="midnightblue" stroke="midnightblue" points="1121.67,-127.5 1131.67,-124 1121.67,-120.5 1121.67,-127.5"/>
</g>
<!-- Node14 -->
<g id="node14" class="node"><title>Node14</title>
<g id="a_node14"><a xlink:href="../../d1/d54/namespace_script.html#a5cc52c4ff5ea5bb27681d819212dfdca" target="_top" xlink:title=" ">
<polygon fill="white" stroke="black" points="750,-0.5 750,-19.5 913,-19.5 913,-0.5 750,-0.5"/>
<text text-anchor="middle" x="831.5" y="-7.5" font-family="Helvetica,sans-Serif" font-size="10.00">Script::FindChecksumNameNULL</text>
</a>
</g>
</g>
<!-- Node13&#45;&gt;Node14 -->
<g id="edge17" class="edge"><title>Node13&#45;&gt;Node14</title>
<path fill="none" stroke="midnightblue" d="M692.183,-38.411C717.146,-33.2835 748.064,-26.9328 774.334,-21.5368"/>
<polygon fill="midnightblue" stroke="midnightblue" points="775.061,-24.9606 784.152,-19.5201 773.653,-18.1038 775.061,-24.9606"/>
</g>
<!-- Node16 -->
<g id="node16" class="node"><title>Node16</title>
<g id="a_node16"><a xlink:href="../../da/d37/namespace_dbg.html#ab406a8cc16de5046c7d9fd09c9de5e22" target="_top" xlink:title=" ">
<polygon fill="white" stroke="black" points="798.5,-38.5 798.5,-57.5 864.5,-57.5 864.5,-38.5 798.5,-38.5"/>
<text text-anchor="middle" x="831.5" y="-45.5" font-family="Helvetica,sans-Serif" font-size="10.00">Dbg::sprintf</text>
</a>
</g>
</g>
<!-- Node13&#45;&gt;Node16 -->
<g id="edge19" class="edge"><title>Node13&#45;&gt;Node16</title>
<path fill="none" stroke="midnightblue" d="M714.124,-48C738.868,-48 766.058,-48 787.93,-48"/>
<polygon fill="midnightblue" stroke="midnightblue" points="788.206,-51.5001 798.206,-48 788.206,-44.5001 788.206,-51.5001"/>
</g>
<!-- Node15 -->
<g id="node15" class="node"><title>Node15</title>
<g id="a_node15"><a xlink:href="../../d0/d31/namespace_config.html#a709cc81780d49900157e3476b63aa25d" target="_top" xlink:title=" ">
<polygon fill="white" stroke="black" points="949,-0.5 949,-19.5 1073,-19.5 1073,-0.5 949,-0.5"/>
<text text-anchor="middle" x="1011" y="-7.5" font-family="Helvetica,sans-Serif" font-size="10.00">Config::GotExtraMemory</text>
</a>
</g>
</g>
<!-- Node14&#45;&gt;Node15 -->
<g id="edge18" class="edge"><title>Node14&#45;&gt;Node15</title>
<path fill="none" stroke="midnightblue" d="M913.2,-10C921.729,-10 930.358,-10 938.768,-10"/>
<polygon fill="midnightblue" stroke="midnightblue" points="938.898,-13.5001 948.898,-10 938.898,-6.5001 938.898,-13.5001"/>
</g>
</g>
</svg>
