<?xml version="1.0" encoding="UTF-8" standalone="no"?>
<!DOCTYPE svg PUBLIC "-//W3C//DTD SVG 1.1//EN"
 "http://www.w3.org/Graphics/SVG/1.1/DTD/svg11.dtd">
<!-- Generated by graphviz version 2.38.0 (20140413.2041)
 -->
<!-- Title: Game::CGoal::CheckDistanceRecord Pages: 1 -->
<!--zoomable 531 -->
<svg id="main" version="1.1" xmlns="http://www.w3.org/2000/svg" xmlns:xlink="http://www.w3.org/1999/xlink" xml:space="preserve" onload="init(evt)">
<style type="text/css"><![CDATA[
.edge:hover path { stroke: red; }
.edge:hover polygon { stroke: red; fill: red; }
]]></style>
<script type="text/javascript"><![CDATA[
var edges = document.getElementsByTagName('g');
if (edges && edges.length) {
  for (var i=0;i<edges.length;i++) {
    if (edges[i].id.substr(0,4)=='edge') {
      edges[i].setAttribute('class','edge');
    }
  }
}
]]></script>
        <defs>
                <circle id="rim" cx="0" cy="0" r="7"/>
                <circle id="rim2" cx="0" cy="0" r="3.5"/>
                <g id="zoomPlus">
                        <use xlink:href="#rim" fill="#404040">
                                <set attributeName="fill" to="#808080" begin="zoomplus.mouseover" end="zoomplus.mouseout"/>
                        </use>
                        <path d="M-4,0h8M0,-4v8" fill="none" stroke="white" stroke-width="1.5" pointer-events="none"/>
                </g>
                <g id="zoomMin">
                        <use xlink:href="#rim" fill="#404040">
                                <set attributeName="fill" to="#808080" begin="zoomminus.mouseover" end="zoomminus.mouseout"/>
                        </use>
                        <path d="M-4,0h8" fill="none" stroke="white" stroke-width="1.5" pointer-events="none"/>
                </g>
                <g id="dirArrow">
                        <path fill="none" stroke="white" stroke-width="1.5" d="M0,-3.0v7 M-2.5,-0.5L0,-3.0L2.5,-0.5"/>
                </g>
               <g id="resetDef">
                       <use xlink:href="#rim2" fill="#404040">
                               <set attributeName="fill" to="#808080" begin="reset.mouseover" end="reset.mouseout"/>
                       </use>
               </g>
        </defs>

<script type="text/javascript">
var viewWidth = 1235;
var viewHeight = 531;
var sectionId = 'dynsection-146';
</script>
<script xlink:href="../../svgpan.js"/>
<svg id="graph" class="graph">
<g id="viewport">
<title>Game::CGoal::CheckDistanceRecord</title>
<polygon fill="white" stroke="none" points="-4,4 -4,-526.633 1231,-526.633 1231,4 -4,4"/>
<!-- Node1 -->
<g id="node1" class="node"><title>Node1</title>
<g id="a_node1"><a xlink:title=" ">
<polygon fill="#bfbfbf" stroke="black" points="0,-90 0,-120 148,-120 148,-90 0,-90"/>
<text text-anchor="start" x="8" y="-108" font-family="Helvetica,sans-Serif" font-size="10.00">Game::CGoal::CheckDistance</text>
<text text-anchor="middle" x="74" y="-97" font-family="Helvetica,sans-Serif" font-size="10.00">Record</text>
</a>
</g>
</g>
<!-- Node2 -->
<g id="node2" class="node"><title>Node2</title>
<g id="a_node2"><a xlink:href="../../d2/df7/class_script_1_1_c_struct.html#ab6805f805d22e3876bcd47552a663f1a" target="_top" xlink:title=" ">
<polygon fill="white" stroke="black" points="191.5,-246.5 191.5,-265.5 325.5,-265.5 325.5,-246.5 191.5,-246.5"/>
<text text-anchor="middle" x="258.5" y="-253.5" font-family="Helvetica,sans-Serif" font-size="10.00">Script::CStruct::AddInteger</text>
</a>
</g>
</g>
<!-- Node1&#45;&gt;Node2 -->
<g id="edge1" class="edge"><title>Node1&#45;&gt;Node2</title>
<path fill="none" stroke="midnightblue" d="M92.1315,-120.259C113.403,-139.092 150.926,-171.945 184,-199 201.448,-213.273 221.724,-228.93 236.554,-240.216"/>
<polygon fill="midnightblue" stroke="midnightblue" points="234.512,-243.06 244.595,-246.313 238.741,-237.482 234.512,-243.06"/>
</g>
<!-- Node17 -->
<g id="node17" class="node"><title>Node17</title>
<g id="a_node17"><a xlink:href="../../d5/db9/namespace_mth.html#a4829497c960aa6d670291025162364d0" target="_top" xlink:title=" ">
<polygon fill="white" stroke="black" points="212.5,-76.5 212.5,-95.5 304.5,-95.5 304.5,-76.5 212.5,-76.5"/>
<text text-anchor="middle" x="258.5" y="-83.5" font-family="Helvetica,sans-Serif" font-size="10.00">Mth::DistanceSqr</text>
</a>
</g>
</g>
<!-- Node1&#45;&gt;Node17 -->
<g id="edge20" class="edge"><title>Node1&#45;&gt;Node17</title>
<path fill="none" stroke="midnightblue" d="M148.178,-97.3815C166.163,-95.5091 185.123,-93.5351 202.111,-91.7665"/>
<polygon fill="midnightblue" stroke="midnightblue" points="202.824,-95.2113 212.408,-90.6945 202.099,-88.2489 202.824,-95.2113"/>
</g>
<!-- Node18 -->
<g id="node18" class="node"><title>Node18</title>
<g id="a_node18"><a xlink:href="../../d2/df7/class_script_1_1_c_struct.html#aa39e6fe5fdf1d6c48136ae26a7ad511e" target="_top" xlink:title=" ">
<polygon fill="white" stroke="black" points="184,-114.5 184,-133.5 333,-133.5 333,-114.5 184,-114.5"/>
<text text-anchor="middle" x="258.5" y="-121.5" font-family="Helvetica,sans-Serif" font-size="10.00">Script::CStruct::GetChecksum</text>
</a>
</g>
</g>
<!-- Node1&#45;&gt;Node18 -->
<g id="edge21" class="edge"><title>Node1&#45;&gt;Node18</title>
<path fill="none" stroke="midnightblue" d="M148.178,-112.619C156.589,-113.494 165.213,-114.392 173.748,-115.281"/>
<polygon fill="midnightblue" stroke="midnightblue" points="173.401,-118.763 183.71,-116.318 174.126,-111.801 173.401,-118.763"/>
</g>
<!-- Node22 -->
<g id="node22" class="node"><title>Node22</title>
<g id="a_node22"><a xlink:href="../../d2/df7/class_script_1_1_c_struct.html#a1e85eee5e600de8358db26f6c777e42d" target="_top" xlink:title=" ">
<polygon fill="white" stroke="black" points="192.5,-170.5 192.5,-189.5 324.5,-189.5 324.5,-170.5 192.5,-170.5"/>
<text text-anchor="middle" x="258.5" y="-177.5" font-family="Helvetica,sans-Serif" font-size="10.00">Script::CStruct::GetInteger</text>
</a>
</g>
</g>
<!-- Node1&#45;&gt;Node22 -->
<g id="edge28" class="edge"><title>Node1&#45;&gt;Node22</title>
<path fill="none" stroke="midnightblue" d="M100.248,-120.012C121.88,-132.371 154.176,-149.645 184,-161 190.372,-163.426 197.171,-165.648 203.963,-167.648"/>
<polygon fill="midnightblue" stroke="midnightblue" points="203.286,-171.093 213.859,-170.419 205.173,-164.352 203.286,-171.093"/>
</g>
<!-- Node24 -->
<g id="node24" class="node"><title>Node24</title>
<g id="a_node24"><a xlink:href="../../d1/d08/class_mth_1_1_vector.html#a180cc532ba059d5717b486ae74170b13" target="_top" xlink:title=" ">
<polygon fill="white" stroke="black" points="210.5,-38.5 210.5,-57.5 306.5,-57.5 306.5,-38.5 210.5,-38.5"/>
<text text-anchor="middle" x="258.5" y="-45.5" font-family="Helvetica,sans-Serif" font-size="10.00">Mth::Vector::GetY</text>
</a>
</g>
</g>
<!-- Node1&#45;&gt;Node24 -->
<g id="edge36" class="edge"><title>Node1&#45;&gt;Node24</title>
<path fill="none" stroke="midnightblue" d="M115.629,-89.9411C136.019,-82.6128 161.176,-73.9156 184,-67 191.802,-64.6361 200.124,-62.3053 208.26,-60.1297"/>
<polygon fill="midnightblue" stroke="midnightblue" points="209.261,-63.4857 218.044,-57.5611 207.483,-56.7152 209.261,-63.4857"/>
</g>
<!-- Node25 -->
<g id="node25" class="node"><title>Node25</title>
<g id="a_node25"><a xlink:href="../../d5/db9/namespace_mth.html#adc6e7f87c6c36d52a16a9abceee925b4" target="_top" xlink:title=" ">
<polygon fill="white" stroke="black" points="231.5,-0.5 231.5,-19.5 285.5,-19.5 285.5,-0.5 231.5,-0.5"/>
<text text-anchor="middle" x="258.5" y="-7.5" font-family="Helvetica,sans-Serif" font-size="10.00">Mth::Sqr</text>
</a>
</g>
</g>
<!-- Node1&#45;&gt;Node25 -->
<g id="edge37" class="edge"><title>Node1&#45;&gt;Node25</title>
<path fill="none" stroke="midnightblue" d="M92.3018,-89.9715C112.848,-72.8604 148.787,-45.1889 184,-29 195.694,-23.6237 209.162,-19.5843 221.349,-16.6442"/>
<polygon fill="midnightblue" stroke="midnightblue" points="222.227,-20.0342 231.217,-14.4279 220.693,-13.2044 222.227,-20.0342"/>
</g>
<!-- Node3 -->
<g id="node3" class="node"><title>Node3</title>
<g id="a_node3"><a xlink:href="../../d2/df7/class_script_1_1_c_struct.html#a3872f7f0a9ebcc695745aabeefab2796" target="_top" xlink:title=" ">
<polygon fill="white" stroke="black" points="369,-284.5 369,-303.5 523,-303.5 523,-284.5 369,-284.5"/>
<text text-anchor="middle" x="446" y="-291.5" font-family="Helvetica,sans-Serif" font-size="10.00">Script::CStruct::AddComponent</text>
</a>
</g>
</g>
<!-- Node2&#45;&gt;Node3 -->
<g id="edge2" class="edge"><title>Node2&#45;&gt;Node3</title>
<path fill="none" stroke="midnightblue" d="M306.309,-265.589C331.34,-270.716 362.341,-277.067 388.682,-282.463"/>
<polygon fill="midnightblue" stroke="midnightblue" points="388.028,-285.902 398.527,-284.48 389.433,-279.044 388.028,-285.902"/>
</g>
<!-- Node4 -->
<g id="node4" class="node"><title>Node4</title>
<g id="a_node4"><a xlink:href="../../d1/d54/namespace_script.html#a1dd030523ebaecb95103d181f6fd382e" target="_top" xlink:title=" ">
<polygon fill="white" stroke="black" points="559,-439.5 559,-458.5 693,-458.5 693,-439.5 559,-439.5"/>
<text text-anchor="middle" x="626" y="-446.5" font-family="Helvetica,sans-Serif" font-size="10.00">Script::CleanUpComponent</text>
</a>
</g>
</g>
<!-- Node3&#45;&gt;Node4 -->
<g id="edge3" class="edge"><title>Node3&#45;&gt;Node4</title>
<path fill="none" stroke="midnightblue" d="M458.135,-303.696C487.853,-329.575 569.294,-400.492 606.282,-432.7"/>
<polygon fill="midnightblue" stroke="midnightblue" points="604.03,-435.38 613.87,-439.308 608.626,-430.101 604.03,-435.38"/>
</g>
<!-- Node13 -->
<g id="node13" class="node"><title>Node13</title>
<g id="a_node13"><a xlink:href="../../d1/d54/namespace_script.html#ae80ed69ea4edcbcbbbd4985a6efdcd6e" target="_top" xlink:title=" ">
<polygon fill="white" stroke="black" points="729,-170.5 729,-189.5 868,-189.5 868,-170.5 729,-170.5"/>
<text text-anchor="middle" x="798.5" y="-177.5" font-family="Helvetica,sans-Serif" font-size="10.00">Script::FindChecksumName</text>
</a>
</g>
</g>
<!-- Node3&#45;&gt;Node13 -->
<g id="edge16" class="edge"><title>Node3&#45;&gt;Node13</title>
<path fill="none" stroke="midnightblue" d="M476.537,-284.396C522.721,-269.379 614.846,-239.422 693,-214 714.729,-206.932 738.998,-199.036 758.676,-192.633"/>
<polygon fill="midnightblue" stroke="midnightblue" points="759.795,-195.95 768.222,-189.527 757.629,-189.293 759.795,-195.95"/>
</g>
<!-- Node5 -->
<g id="node5" class="node"><title>Node5</title>
<g id="a_node5"><a xlink:href="../../d1/d54/namespace_script.html#a3dd60f29ada8a33fda9f4e842f1cabc1" target="_top" xlink:title=" ">
<polygon fill="white" stroke="black" points="744.5,-410.5 744.5,-429.5 852.5,-429.5 852.5,-410.5 744.5,-410.5"/>
<text text-anchor="middle" x="798.5" y="-417.5" font-family="Helvetica,sans-Serif" font-size="10.00">Script::CleanUpArray</text>
</a>
</g>
</g>
<!-- Node4&#45;&gt;Node5 -->
<g id="edge4" class="edge"><title>Node4&#45;&gt;Node5</title>
<path fill="none" stroke="midnightblue" d="M683.301,-439.424C699.607,-436.65 717.517,-433.604 734.219,-430.763"/>
<polygon fill="midnightblue" stroke="midnightblue" points="735.166,-434.153 744.437,-429.025 733.992,-427.252 735.166,-434.153"/>
</g>
<!-- Node7 -->
<g id="node7" class="node"><title>Node7</title>
<g id="a_node7"><a xlink:href="../../db/dc4/namespace_mem.html#aeedb606ea94a3398fdcfa3101c5ea8d9" target="_top" xlink:title=" ">
<polygon fill="white" stroke="black" points="1133,-486.5 1133,-505.5 1197,-505.5 1197,-486.5 1133,-486.5"/>
<text text-anchor="middle" x="1165" y="-493.5" font-family="Helvetica,sans-Serif" font-size="10.00">Mem::Free</text>
</a>
</g>
</g>
<!-- Node4&#45;&gt;Node7 -->
<g id="edge15" class="edge"><title>Node4&#45;&gt;Node7</title>
<path fill="none" stroke="midnightblue" d="M650.552,-458.597C671.001,-466.618 701.557,-477.86 729,-485 874.954,-522.974 916.892,-529.563 1067,-515 1085.39,-513.216 1105.46,-509.572 1122.56,-505.949"/>
<polygon fill="midnightblue" stroke="midnightblue" points="1123.75,-509.27 1132.77,-503.712 1122.26,-502.432 1123.75,-509.27"/>
</g>
<!-- Node9 -->
<g id="node9" class="node"><title>Node9</title>
<g id="a_node9"><a xlink:href="../../d1/d54/namespace_script.html#a99857fb30343d0c999af4db73344cece" target="_top" xlink:title=" ">
<polygon fill="white" stroke="black" points="935,-486.5 935,-505.5 1036,-505.5 1036,-486.5 935,-486.5"/>
<text text-anchor="middle" x="985.5" y="-493.5" font-family="Helvetica,sans-Serif" font-size="10.00">Script::DeleteString</text>
</a>
</g>
</g>
<!-- Node4&#45;&gt;Node9 -->
<g id="edge14" class="edge"><title>Node4&#45;&gt;Node9</title>
<path fill="none" stroke="midnightblue" d="M693.405,-457.73C759.82,-466.462 861.031,-479.768 924.926,-488.168"/>
<polygon fill="midnightblue" stroke="midnightblue" points="924.478,-491.639 934.849,-489.472 925.391,-484.699 924.478,-491.639"/>
</g>
<!-- Node6 -->
<g id="node6" class="node"><title>Node6</title>
<g id="a_node6"><a xlink:href="../../d0/d0b/class_script_1_1_c_array.html#a4b347b8b448dd652473dd6afe9aba2c2" target="_top" xlink:title=" ">
<polygon fill="white" stroke="black" points="932,-448.5 932,-467.5 1039,-467.5 1039,-448.5 932,-448.5"/>
<text text-anchor="middle" x="985.5" y="-455.5" font-family="Helvetica,sans-Serif" font-size="10.00">Script::CArray::Clear</text>
</a>
</g>
</g>
<!-- Node5&#45;&gt;Node6 -->
<g id="edge5" class="edge"><title>Node5&#45;&gt;Node6</title>
<path fill="none" stroke="midnightblue" d="M846.183,-429.589C871.146,-434.716 902.064,-441.067 928.334,-446.463"/>
<polygon fill="midnightblue" stroke="midnightblue" points="927.653,-449.896 938.152,-448.48 929.061,-443.039 927.653,-449.896"/>
</g>
<!-- Node8 -->
<g id="node8" class="node"><title>Node8</title>
<g id="a_node8"><a xlink:href="../../d1/d54/namespace_script.html#af32f99ba26ca0f255240413a4e23a754" target="_top" xlink:title=" ">
<polygon fill="white" stroke="black" points="1110,-410.5 1110,-429.5 1220,-429.5 1220,-410.5 1110,-410.5"/>
<text text-anchor="middle" x="1165" y="-417.5" font-family="Helvetica,sans-Serif" font-size="10.00">Script::GetTypeName</text>
</a>
</g>
</g>
<!-- Node5&#45;&gt;Node8 -->
<g id="edge13" class="edge"><title>Node5&#45;&gt;Node8</title>
<path fill="none" stroke="midnightblue" d="M852.501,-420C917.992,-420 1029.36,-420 1099.68,-420"/>
<polygon fill="midnightblue" stroke="midnightblue" points="1099.74,-423.5 1109.74,-420 1099.74,-416.5 1099.74,-423.5"/>
</g>
<!-- Node5&#45;&gt;Node9 -->
<g id="edge8" class="edge"><title>Node5&#45;&gt;Node9</title>
<path fill="none" stroke="midnightblue" d="M814.121,-429.625C833.794,-442.183 870.225,-464.072 904,-477 910.731,-479.576 917.916,-481.873 925.119,-483.9"/>
<polygon fill="midnightblue" stroke="midnightblue" points="924.349,-487.316 934.912,-486.498 926.144,-480.551 924.349,-487.316"/>
</g>
<!-- Node10 -->
<g id="node10" class="node"><title>Node10</title>
<g id="a_node10"><a xlink:href="../../d0/d0b/class_script_1_1_c_array.html#a600fcbd0b8fd9d1df2ee87d77494db7a" target="_top" xlink:title=" ">
<polygon fill="white" stroke="black" points="924,-361 924,-391 1047,-391 1047,-361 924,-361"/>
<text text-anchor="start" x="932" y="-379" font-family="Helvetica,sans-Serif" font-size="10.00">Script::CArray::GetArray</text>
<text text-anchor="middle" x="985.5" y="-368" font-family="Helvetica,sans-Serif" font-size="10.00">Pointer</text>
</a>
</g>
</g>
<!-- Node5&#45;&gt;Node10 -->
<g id="edge10" class="edge"><title>Node5&#45;&gt;Node10</title>
<path fill="none" stroke="midnightblue" d="M839.642,-410.453C861.314,-405.298 888.702,-398.784 913.816,-392.811"/>
<polygon fill="midnightblue" stroke="midnightblue" points="914.759,-396.185 923.678,-390.466 913.139,-389.375 914.759,-396.185"/>
</g>
<!-- Node11 -->
<g id="node11" class="node"><title>Node11</title>
<g id="a_node11"><a xlink:href="../../d0/d0b/class_script_1_1_c_array.html#a71c761bdce14193b10bf3c88372ba5a0" target="_top" xlink:title=" ">
<polygon fill="white" stroke="black" points="926,-322.5 926,-341.5 1045,-341.5 1045,-322.5 926,-322.5"/>
<text text-anchor="middle" x="985.5" y="-329.5" font-family="Helvetica,sans-Serif" font-size="10.00">Script::CArray::GetSize</text>
</a>
</g>
</g>
<!-- Node5&#45;&gt;Node11 -->
<g id="edge11" class="edge"><title>Node5&#45;&gt;Node11</title>
<path fill="none" stroke="midnightblue" d="M811.285,-410.419C829.884,-395.757 867.675,-367.796 904,-352 910.719,-349.078 917.946,-346.528 925.215,-344.317"/>
<polygon fill="midnightblue" stroke="midnightblue" points="926.444,-347.606 935.108,-341.509 924.533,-340.872 926.444,-347.606"/>
</g>
<!-- Node12 -->
<g id="node12" class="node"><title>Node12</title>
<g id="a_node12"><a xlink:href="../../d0/d0b/class_script_1_1_c_array.html#a68067b67ca9aae7b9214c0add1d8934e" target="_top" xlink:title=" ">
<polygon fill="white" stroke="black" points="925,-284.5 925,-303.5 1046,-303.5 1046,-284.5 925,-284.5"/>
<text text-anchor="middle" x="985.5" y="-291.5" font-family="Helvetica,sans-Serif" font-size="10.00">Script::CArray::GetType</text>
</a>
</g>
</g>
<!-- Node5&#45;&gt;Node12 -->
<g id="edge12" class="edge"><title>Node5&#45;&gt;Node12</title>
<path fill="none" stroke="midnightblue" d="M806.045,-410.23C820.823,-388.98 859.017,-338.428 904,-313 907.975,-310.753 912.204,-308.771 916.563,-307.023"/>
<polygon fill="midnightblue" stroke="midnightblue" points="918.026,-310.218 926.266,-303.558 915.671,-303.625 918.026,-310.218"/>
</g>
<!-- Node6&#45;&gt;Node7 -->
<g id="edge6" class="edge"><title>Node6&#45;&gt;Node7</title>
<path fill="none" stroke="midnightblue" d="M1031.29,-467.589C1059.43,-473.613 1095.46,-481.326 1122.87,-487.195"/>
<polygon fill="midnightblue" stroke="midnightblue" points="1122.41,-490.676 1132.92,-489.347 1123.88,-483.831 1122.41,-490.676"/>
</g>
<!-- Node6&#45;&gt;Node8 -->
<g id="edge7" class="edge"><title>Node6&#45;&gt;Node8</title>
<path fill="none" stroke="midnightblue" d="M1031.29,-448.411C1055.03,-443.329 1084.38,-437.045 1109.44,-431.68"/>
<polygon fill="midnightblue" stroke="midnightblue" points="1110.49,-435.036 1119.53,-429.52 1109.02,-428.191 1110.49,-435.036"/>
</g>
<!-- Node9&#45;&gt;Node7 -->
<g id="edge9" class="edge"><title>Node9&#45;&gt;Node7</title>
<path fill="none" stroke="midnightblue" d="M1036.42,-496C1063.63,-496 1096.92,-496 1122.67,-496"/>
<polygon fill="midnightblue" stroke="midnightblue" points="1122.85,-499.5 1132.85,-496 1122.85,-492.5 1122.85,-499.5"/>
</g>
<!-- Node14 -->
<g id="node14" class="node"><title>Node14</title>
<g id="a_node14"><a xlink:href="../../d1/d54/namespace_script.html#a5cc52c4ff5ea5bb27681d819212dfdca" target="_top" xlink:title=" ">
<polygon fill="white" stroke="black" points="904,-189.5 904,-208.5 1067,-208.5 1067,-189.5 904,-189.5"/>
<text text-anchor="middle" x="985.5" y="-196.5" font-family="Helvetica,sans-Serif" font-size="10.00">Script::FindChecksumNameNULL</text>
</a>
</g>
</g>
<!-- Node13&#45;&gt;Node14 -->
<g id="edge17" class="edge"><title>Node13&#45;&gt;Node14</title>
<path fill="none" stroke="midnightblue" d="M868.124,-187.048C876.476,-187.906 885.107,-188.792 893.717,-189.676"/>
<polygon fill="midnightblue" stroke="midnightblue" points="893.493,-193.172 903.798,-190.712 894.208,-186.208 893.493,-193.172"/>
</g>
<!-- Node16 -->
<g id="node16" class="node"><title>Node16</title>
<g id="a_node16"><a xlink:href="../../da/d37/namespace_dbg.html#ab406a8cc16de5046c7d9fd09c9de5e22" target="_top" xlink:title=" ">
<polygon fill="white" stroke="black" points="952.5,-151.5 952.5,-170.5 1018.5,-170.5 1018.5,-151.5 952.5,-151.5"/>
<text text-anchor="middle" x="985.5" y="-158.5" font-family="Helvetica,sans-Serif" font-size="10.00">Dbg::sprintf</text>
</a>
</g>
</g>
<!-- Node13&#45;&gt;Node16 -->
<g id="edge19" class="edge"><title>Node13&#45;&gt;Node16</title>
<path fill="none" stroke="midnightblue" d="M868.124,-172.952C892.98,-170.399 920.305,-167.593 942.228,-165.341"/>
<polygon fill="midnightblue" stroke="midnightblue" points="942.616,-168.82 952.206,-164.317 941.901,-161.857 942.616,-168.82"/>
</g>
<!-- Node15 -->
<g id="node15" class="node"><title>Node15</title>
<g id="a_node15"><a xlink:href="../../d0/d31/namespace_config.html#a709cc81780d49900157e3476b63aa25d" target="_top" xlink:title=" ">
<polygon fill="white" stroke="black" points="1103,-189.5 1103,-208.5 1227,-208.5 1227,-189.5 1103,-189.5"/>
<text text-anchor="middle" x="1165" y="-196.5" font-family="Helvetica,sans-Serif" font-size="10.00">Config::GotExtraMemory</text>
</a>
</g>
</g>
<!-- Node14&#45;&gt;Node15 -->
<g id="edge18" class="edge"><title>Node14&#45;&gt;Node15</title>
<path fill="none" stroke="midnightblue" d="M1067.2,-199C1075.73,-199 1084.36,-199 1092.77,-199"/>
<polygon fill="midnightblue" stroke="midnightblue" points="1092.9,-202.5 1102.9,-199 1092.9,-195.5 1092.9,-202.5"/>
</g>
<!-- Node18&#45;&gt;Node13 -->
<g id="edge22" class="edge"><title>Node18&#45;&gt;Node13</title>
<path fill="none" stroke="midnightblue" d="M333.126,-123.235C345.116,-123.137 357.403,-123.053 369,-123 437.444,-122.687 454.914,-116.006 523,-123 605.103,-131.434 698.877,-153.704 752.837,-167.78"/>
<polygon fill="midnightblue" stroke="midnightblue" points="752.199,-171.231 762.76,-170.394 753.981,-164.462 752.199,-171.231"/>
</g>
<!-- Node18&#45;&gt;Node18 -->
<g id="edge23" class="edge"><title>Node18&#45;&gt;Node18</title>
<path fill="none" stroke="midnightblue" d="M230.14,-133.757C216.344,-142.565 225.797,-152 258.5,-152 280.983,-152 292.478,-147.541 292.983,-141.891"/>
<polygon fill="midnightblue" stroke="midnightblue" points="295.67,-139.642 286.86,-133.757 290.077,-143.851 295.67,-139.642"/>
</g>
<!-- Node19 -->
<g id="node19" class="node"><title>Node19</title>
<g id="a_node19"><a xlink:href="../../d1/d54/namespace_script.html#a0d003ee93577e31adb6597bce0002009" target="_top" xlink:title=" ">
<polygon fill="white" stroke="black" points="392.5,-132.5 392.5,-151.5 499.5,-151.5 499.5,-132.5 392.5,-132.5"/>
<text text-anchor="middle" x="446" y="-139.5" font-family="Helvetica,sans-Serif" font-size="10.00">Script::PrintContents</text>
</a>
</g>
</g>
<!-- Node18&#45;&gt;Node19 -->
<g id="edge24" class="edge"><title>Node18&#45;&gt;Node19</title>
<path fill="none" stroke="midnightblue" d="M333.081,-131.14C349.344,-132.718 366.43,-134.376 382.218,-135.908"/>
<polygon fill="midnightblue" stroke="midnightblue" points="382.093,-139.412 392.384,-136.894 382.769,-132.445 382.093,-139.412"/>
</g>
<!-- Node20 -->
<g id="node20" class="node"><title>Node20</title>
<g id="a_node20"><a xlink:href="../../d1/d54/namespace_script.html#a43181580ea5d38e4bf1aa19ccd5e9e85" target="_top" xlink:title=" ">
<polygon fill="white" stroke="black" points="585,-56.5 585,-75.5 667,-75.5 667,-56.5 585,-56.5"/>
<text text-anchor="middle" x="626" y="-63.5" font-family="Helvetica,sans-Serif" font-size="10.00">Script::Resolve</text>
</a>
</g>
</g>
<!-- Node18&#45;&gt;Node20 -->
<g id="edge25" class="edge"><title>Node18&#45;&gt;Node20</title>
<path fill="none" stroke="midnightblue" d="M300.623,-114.466C311.257,-111.703 322.629,-108.481 333,-105 349.432,-99.4837 352.181,-94.1897 369,-90 438.904,-72.5868 522.408,-67.5905 574.585,-66.2759"/>
<polygon fill="midnightblue" stroke="midnightblue" points="574.986,-69.7682 584.909,-66.0538 574.836,-62.7698 574.986,-69.7682"/>
</g>
<!-- Node20&#45;&gt;Node13 -->
<g id="edge26" class="edge"><title>Node20&#45;&gt;Node13</title>
<path fill="none" stroke="midnightblue" d="M660.62,-75.5913C671.34,-79.3314 683.006,-84.1457 693,-90 727.864,-110.422 762.172,-143.027 781.508,-162.88"/>
<polygon fill="midnightblue" stroke="midnightblue" points="779.165,-165.493 788.609,-170.294 784.22,-160.651 779.165,-165.493"/>
</g>
<!-- Node21 -->
<g id="node21" class="node"><title>Node21</title>
<g id="a_node21"><a xlink:href="../../d1/d54/namespace_script.html#af293a36c230b10de7d8151c2990b233b" target="_top" xlink:title=" ">
<polygon fill="white" stroke="black" points="741.5,-56.5 741.5,-75.5 855.5,-75.5 855.5,-56.5 741.5,-56.5"/>
<text text-anchor="middle" x="798.5" y="-63.5" font-family="Helvetica,sans-Serif" font-size="10.00">Script::LookUpSymbol</text>
</a>
</g>
</g>
<!-- Node20&#45;&gt;Node21 -->
<g id="edge27" class="edge"><title>Node20&#45;&gt;Node21</title>
<path fill="none" stroke="midnightblue" d="M667.406,-66C686.449,-66 709.664,-66 731.185,-66"/>
<polygon fill="midnightblue" stroke="midnightblue" points="731.259,-69.5001 741.259,-66 731.258,-62.5001 731.259,-69.5001"/>
</g>
<!-- Node22&#45;&gt;Node13 -->
<g id="edge29" class="edge"><title>Node22&#45;&gt;Node13</title>
<path fill="none" stroke="midnightblue" d="M324.663,-180C423.719,-180 611.905,-180 718.57,-180"/>
<polygon fill="midnightblue" stroke="midnightblue" points="718.632,-183.5 728.632,-180 718.632,-176.5 718.632,-183.5"/>
</g>
<!-- Node22&#45;&gt;Node19 -->
<g id="edge30" class="edge"><title>Node22&#45;&gt;Node19</title>
<path fill="none" stroke="midnightblue" d="M306.309,-170.411C331.34,-165.284 362.341,-158.933 388.682,-153.537"/>
<polygon fill="midnightblue" stroke="midnightblue" points="389.433,-156.956 398.527,-151.52 388.028,-150.098 389.433,-156.956"/>
</g>
<!-- Node23 -->
<g id="node23" class="node"><title>Node23</title>
<g id="a_node23"><a xlink:href="../../d2/df7/class_script_1_1_c_struct.html#a1e05f0a66cff4a700fb67fdc117d2d7f" target="_top" xlink:title=" ">
<polygon fill="white" stroke="black" points="380,-208.5 380,-227.5 512,-227.5 512,-208.5 380,-208.5"/>
<text text-anchor="middle" x="446" y="-215.5" font-family="Helvetica,sans-Serif" font-size="10.00">Script::CStruct::search_for</text>
</a>
</g>
</g>
<!-- Node22&#45;&gt;Node23 -->
<g id="edge31" class="edge"><title>Node22&#45;&gt;Node23</title>
<path fill="none" stroke="midnightblue" d="M306.309,-189.589C331.34,-194.716 362.341,-201.067 388.682,-206.463"/>
<polygon fill="midnightblue" stroke="midnightblue" points="388.028,-209.902 398.527,-208.48 389.433,-203.044 388.028,-209.902"/>
</g>
<!-- Node23&#45;&gt;Node8 -->
<g id="edge33" class="edge"><title>Node23&#45;&gt;Node8</title>
<path fill="none" stroke="midnightblue" d="M512.037,-217.042C651.596,-216.084 974.613,-220.067 1067,-275 1115.88,-304.066 1145.24,-368.504 1157.42,-400.786"/>
<polygon fill="midnightblue" stroke="midnightblue" points="1154.2,-402.188 1160.89,-410.404 1160.79,-399.809 1154.2,-402.188"/>
</g>
<!-- Node23&#45;&gt;Node13 -->
<g id="edge32" class="edge"><title>Node23&#45;&gt;Node13</title>
<path fill="none" stroke="midnightblue" d="M512.069,-212.294C561.698,-207.786 631.724,-201.091 693,-194 701.521,-193.014 710.424,-191.92 719.284,-190.79"/>
<polygon fill="midnightblue" stroke="midnightblue" points="719.777,-194.255 729.247,-189.503 718.881,-187.313 719.777,-194.255"/>
</g>
<!-- Node23&#45;&gt;Node20 -->
<g id="edge34" class="edge"><title>Node23&#45;&gt;Node20</title>
<path fill="none" stroke="midnightblue" d="M460.789,-208.333C476.28,-197.32 502.002,-178.568 523,-161 554.157,-134.933 588.312,-102.202 608.136,-82.7561"/>
<polygon fill="midnightblue" stroke="midnightblue" points="610.804,-85.0403 615.468,-75.5272 605.89,-80.0555 610.804,-85.0403"/>
</g>
<!-- Node23&#45;&gt;Node23 -->
<g id="edge35" class="edge"><title>Node23&#45;&gt;Node23</title>
<path fill="none" stroke="midnightblue" d="M418.257,-227.757C404.76,-236.565 414.008,-246 446,-246 467.995,-246 479.239,-241.541 479.733,-235.891"/>
<polygon fill="midnightblue" stroke="midnightblue" points="482.491,-233.734 473.743,-227.757 476.854,-237.885 482.491,-233.734"/>
</g>
</g>
</svg>
        <g id="navigator" transform="translate(0 0)" fill="#404254">
                <rect fill="#f2f5e9" fill-opacity="0.5" stroke="#606060" stroke-width=".5" x="0" y="0" width="60" height="60"/>
                <use id="zoomplus" xlink:href="#zoomPlus" x="17" y="9" onmousedown="handleZoom(evt,'in')"/>
                <use id="zoomminus" xlink:href="#zoomMin" x="42" y="9" onmousedown="handleZoom(evt,'out')"/>
                <use id="reset" xlink:href="#resetDef" x="30" y="36" onmousedown="handleReset()"/>
                <g id="arrowUp" xlink:href="#dirArrow" transform="translate(30 24)" onmousedown="handlePan(0,-1)">
                  <use xlink:href="#rim" fill="#404040">
                        <set attributeName="fill" to="#808080" begin="arrowUp.mouseover" end="arrowUp.mouseout"/>
                  </use>
                  <path fill="none" stroke="white" stroke-width="1.5" d="M0,-3.0v7 M-2.5,-0.5L0,-3.0L2.5,-0.5"/>
                </g>
                <g id="arrowRight" xlink:href="#dirArrow" transform="rotate(90) translate(36 -43)" onmousedown="handlePan(1,0)">
                  <use xlink:href="#rim" fill="#404040">
                        <set attributeName="fill" to="#808080" begin="arrowRight.mouseover" end="arrowRight.mouseout"/>
                  </use>
                  <path fill="none" stroke="white" stroke-width="1.5" d="M0,-3.0v7 M-2.5,-0.5L0,-3.0L2.5,-0.5"/>
                </g>
                <g id="arrowDown" xlink:href="#dirArrow" transform="rotate(180) translate(-30 -48)" onmousedown="handlePan(0,1)">
                  <use xlink:href="#rim" fill="#404040">
                        <set attributeName="fill" to="#808080" begin="arrowDown.mouseover" end="arrowDown.mouseout"/>
                  </use>
                  <path fill="none" stroke="white" stroke-width="1.5" d="M0,-3.0v7 M-2.5,-0.5L0,-3.0L2.5,-0.5"/>
                </g>
                <g id="arrowLeft" xlink:href="#dirArrow" transform="rotate(270) translate(-36 17)" onmousedown="handlePan(-1,0)">
                  <use xlink:href="#rim" fill="#404040">
                        <set attributeName="fill" to="#808080" begin="arrowLeft.mouseover" end="arrowLeft.mouseout"/>
                  </use>
                  <path fill="none" stroke="white" stroke-width="1.5" d="M0,-3.0v7 M-2.5,-0.5L0,-3.0L2.5,-0.5"/>
                </g>
        </g>
        <svg viewBox="0 0 15 15" width="100%" height="30px" preserveAspectRatio="xMaxYMin meet">
         <g id="arrow_out" transform="scale(0.3 0.3)">
          <a xlink:href="class_game_1_1_c_goal_a0a3f144bf9c438160b30272003f7286d_cgraph_org.svg" target="_base">
           <rect id="button" ry="5" rx="5" y="6" x="6" height="38" width="38"
                fill="#f2f5e9" fill-opacity="0.5" stroke="#606060" stroke-width="1.0"/>
           <path id="arrow"
             d="M 11.500037,31.436501 C 11.940474,20.09759 22.043105,11.32322 32.158766,21.979434 L 37.068811,17.246167 C 37.068811,17.246167 37.088388,32 37.088388,32 L 22.160133,31.978069 C 22.160133,31.978069 26.997745,27.140456 26.997745,27.140456 C 18.528582,18.264221 13.291696,25.230495 11.500037,31.436501 z"
             style="fill:#404040;"/>
          </a>
         </g>
        </svg>
</svg>
