<?xml version="1.0" encoding="UTF-8" standalone="no"?>
<!DOCTYPE svg PUBLIC "-//W3C//DTD SVG 1.1//EN"
 "http://www.w3.org/Graphics/SVG/1.1/DTD/svg11.dtd">
<!-- Generated by graphviz version 2.38.0 (20140413.2041)
 -->
<!-- Title: Game::CGoal::IsTetrisGoal Pages: 1 -->
<svg width="476pt" height="127pt"
 viewBox="0.00 0.00 476.00 126.50" xmlns="http://www.w3.org/2000/svg" xmlns:xlink="http://www.w3.org/1999/xlink">
<g id="graph0" class="graph" transform="scale(1 1) rotate(0) translate(4 122.5)">
<title>Game::CGoal::IsTetrisGoal</title>
<polygon fill="white" stroke="none" points="-4,4 -4,-122.5 472,-122.5 472,4 -4,4"/>
<!-- Node1 -->
<g id="node1" class="node"><title>Node1</title>
<g id="a_node1"><a xlink:title=" ">
<polygon fill="#bfbfbf" stroke="black" points="334,-44.5 334,-63.5 468,-63.5 468,-44.5 334,-44.5"/>
<text text-anchor="middle" x="401" y="-51.5" font-family="Helvetica,sans-Serif" font-size="10.00">Game::CGoal::IsTetrisGoal</text>
</a>
</g>
</g>
<!-- Node2 -->
<g id="node2" class="node"><title>Node2</title>
<g id="a_node2"><a xlink:href="../../d9/dda/class_game_1_1_c_goal_manager.html#a6be5561088520d8fbc133e2734a3a10e" target="_top" xlink:title=" ">
<polygon fill="white" stroke="black" points="168,-88 168,-118 281,-118 281,-88 168,-88"/>
<text text-anchor="start" x="176" y="-106" font-family="Helvetica,sans-Serif" font-size="10.00">Game::CGoalManager</text>
<text text-anchor="middle" x="224.5" y="-95" font-family="Helvetica,sans-Serif" font-size="10.00">::Bail</text>
</a>
</g>
</g>
<!-- Node1&#45;&gt;Node2 -->
<g id="edge1" class="edge"><title>Node1&#45;&gt;Node2</title>
<path fill="none" stroke="midnightblue" d="M356.277,-66.2776C332.858,-72.8537 303.814,-81.0092 279.05,-87.963"/>
<polygon fill="midnightblue" stroke="midnightblue" points="357.259,-69.6372 365.94,-63.564 355.367,-62.8979 357.259,-69.6372"/>
</g>
<!-- Node3 -->
<g id="node3" class="node"><title>Node3</title>
<g id="a_node3"><a xlink:href="../../d9/dda/class_game_1_1_c_goal_manager.html#aa72c4c2d3f44d4036027bf774bba2f43" target="_top" xlink:title=" ">
<polygon fill="white" stroke="black" points="168,-39 168,-69 281,-69 281,-39 168,-39"/>
<text text-anchor="start" x="176" y="-57" font-family="Helvetica,sans-Serif" font-size="10.00">Game::CGoalManager</text>
<text text-anchor="middle" x="224.5" y="-46" font-family="Helvetica,sans-Serif" font-size="10.00">::CheckTrickText</text>
</a>
</g>
</g>
<!-- Node1&#45;&gt;Node3 -->
<g id="edge2" class="edge"><title>Node1&#45;&gt;Node3</title>
<path fill="none" stroke="midnightblue" d="M323.32,-54C309.174,-54 294.653,-54 281.272,-54"/>
<polygon fill="midnightblue" stroke="midnightblue" points="323.531,-57.5001 333.531,-54 323.531,-50.5001 323.531,-57.5001"/>
</g>
<!-- Node5 -->
<g id="node5" class="node"><title>Node5</title>
<g id="a_node5"><a xlink:href="../../d2/d97/namespace_game.html#a43e6938ddd69639da6f82ca56f5af767" target="_top" xlink:title=" ">
<polygon fill="white" stroke="black" points="151,-0.5 151,-19.5 298,-19.5 298,-0.5 151,-0.5"/>
<text text-anchor="middle" x="224.5" y="-7.5" font-family="Helvetica,sans-Serif" font-size="10.00">Game::ScriptClearTetrisTricks</text>
</a>
</g>
</g>
<!-- Node1&#45;&gt;Node5 -->
<g id="edge4" class="edge"><title>Node1&#45;&gt;Node5</title>
<path fill="none" stroke="midnightblue" d="M352.164,-41.9383C324.178,-34.8815 289.342,-26.0976 263.29,-19.5287"/>
<polygon fill="midnightblue" stroke="midnightblue" points="351.584,-45.4014 362.136,-44.4527 353.295,-38.6138 351.584,-45.4014"/>
</g>
<!-- Node4 -->
<g id="node4" class="node"><title>Node4</title>
<g id="a_node4"><a xlink:href="../../df/d3f/class_obj_1_1_c_trick_component.html#ac5ca1bf03fa9f5cceab427060798cace" target="_top" xlink:title=" ">
<polygon fill="white" stroke="black" points="0,-39 0,-69 115,-69 115,-39 0,-39"/>
<text text-anchor="start" x="8" y="-57" font-family="Helvetica,sans-Serif" font-size="10.00">Obj::CTrickComponent</text>
<text text-anchor="middle" x="57.5" y="-46" font-family="Helvetica,sans-Serif" font-size="10.00">::CallMemberFunction</text>
</a>
</g>
</g>
<!-- Node3&#45;&gt;Node4 -->
<g id="edge3" class="edge"><title>Node3&#45;&gt;Node4</title>
<path fill="none" stroke="midnightblue" d="M157.556,-54C143.514,-54 128.804,-54 115.147,-54"/>
<polygon fill="midnightblue" stroke="midnightblue" points="157.639,-57.5001 167.639,-54 157.638,-50.5001 157.639,-57.5001"/>
</g>
</g>
</svg>
