<?xml version="1.0" encoding="UTF-8" standalone="no"?>
<!DOCTYPE svg PUBLIC "-//W3C//DTD SVG 1.1//EN"
 "http://www.w3.org/Graphics/SVG/1.1/DTD/svg11.dtd">
<!-- Generated by graphviz version 2.38.0 (20140413.2041)
 -->
<!-- Title: Tsk::BaseTask::~BaseTask Pages: 1 -->
<svg width="317pt" height="104pt"
 viewBox="0.00 0.00 317.00 104.00" xmlns="http://www.w3.org/2000/svg" xmlns:xlink="http://www.w3.org/1999/xlink">
<g id="graph0" class="graph" transform="scale(1 1) rotate(0) translate(4 100)">
<title>Tsk::BaseTask::~BaseTask</title>
<polygon fill="white" stroke="none" points="-4,4 -4,-100 313,-100 313,4 -4,4"/>
<!-- Node1 -->
<g id="node1" class="node"><title>Node1</title>
<g id="a_node1"><a xlink:title=" ">
<polygon fill="#bfbfbf" stroke="black" points="0,-38.5 0,-57.5 137,-57.5 137,-38.5 0,-38.5"/>
<text text-anchor="middle" x="68.5" y="-45.5" font-family="Helvetica,sans-Serif" font-size="10.00">Tsk::BaseTask::~BaseTask</text>
</a>
</g>
</g>
<!-- Node2 -->
<g id="node2" class="node"><title>Node2</title>
<g id="a_node2"><a xlink:href="../../d1/d11/class_spt_1_1_access.html#ac8f91ecea4f4feac49263248ab7b6d32" target="_top" xlink:title=" ">
<polygon fill="white" stroke="black" points="189,-76.5 189,-95.5 293,-95.5 293,-76.5 189,-76.5"/>
<text text-anchor="middle" x="241" y="-83.5" font-family="Helvetica,sans-Serif" font-size="10.00">Spt::Access::Forbid</text>
</a>
</g>
</g>
<!-- Node1&#45;&gt;Node2 -->
<g id="edge1" class="edge"><title>Node1&#45;&gt;Node2</title>
<path fill="none" stroke="midnightblue" d="M112.524,-57.589C135.226,-62.6487 163.273,-68.8996 187.274,-74.2488"/>
<polygon fill="midnightblue" stroke="midnightblue" points="186.763,-77.7207 197.285,-76.4799 188.286,-70.8883 186.763,-77.7207"/>
</g>
<!-- Node3 -->
<g id="node3" class="node"><title>Node3</title>
<g id="a_node3"><a xlink:href="../../d1/d11/class_spt_1_1_access.html#abb35bd6fe6044a984ac541f839602ffa" target="_top" xlink:title=" ">
<polygon fill="white" stroke="black" points="188.5,-38.5 188.5,-57.5 293.5,-57.5 293.5,-38.5 188.5,-38.5"/>
<text text-anchor="middle" x="241" y="-45.5" font-family="Helvetica,sans-Serif" font-size="10.00">Spt::Access::Permit</text>
</a>
</g>
</g>
<!-- Node1&#45;&gt;Node3 -->
<g id="edge2" class="edge"><title>Node1&#45;&gt;Node3</title>
<path fill="none" stroke="midnightblue" d="M137.376,-48C150.786,-48 164.794,-48 177.997,-48"/>
<polygon fill="midnightblue" stroke="midnightblue" points="178.386,-51.5001 188.386,-48 178.386,-44.5001 178.386,-51.5001"/>
</g>
<!-- Node4 -->
<g id="node4" class="node"><title>Node4</title>
<g id="a_node4"><a xlink:href="../../d9/df9/class_tsk_1_1_list.html#aa1c3a6176ba47cbf028f6ef8aa1f1529" target="_top" xlink:title=" ">
<polygon fill="white" stroke="black" points="173,-0.5 173,-19.5 309,-19.5 309,-0.5 173,-0.5"/>
<text text-anchor="middle" x="241" y="-7.5" font-family="Helvetica,sans-Serif" font-size="10.00">Tsk::List::SignalListChange</text>
</a>
</g>
</g>
<!-- Node1&#45;&gt;Node4 -->
<g id="edge3" class="edge"><title>Node1&#45;&gt;Node4</title>
<path fill="none" stroke="midnightblue" d="M112.524,-38.411C135.226,-33.3513 163.273,-27.1004 187.274,-21.7512"/>
<polygon fill="midnightblue" stroke="midnightblue" points="188.286,-25.1117 197.285,-19.5201 186.763,-18.2793 188.286,-25.1117"/>
</g>
</g>
</svg>
