<?xml version="1.0" encoding="UTF-8" standalone="no"?>
<!DOCTYPE svg PUBLIC "-//W3C//DTD SVG 1.1//EN"
 "http://www.w3.org/Graphics/SVG/1.1/DTD/svg11.dtd">
<!-- Generated by graphviz version 2.38.0 (20140413.2041)
 -->
<!-- Title: Pcm::CStreamFrameAmpManager::sLoadFrameAmp Pages: 1 -->
<svg width="345pt" height="78pt"
 viewBox="0.00 0.00 345.00 77.50" xmlns="http://www.w3.org/2000/svg" xmlns:xlink="http://www.w3.org/1999/xlink">
<g id="graph0" class="graph" transform="scale(1 1) rotate(0) translate(4 73.5)">
<title>Pcm::CStreamFrameAmpManager::sLoadFrameAmp</title>
<polygon fill="white" stroke="none" points="-4,4 -4,-73.5 341,-73.5 341,4 -4,4"/>
<!-- Node1 -->
<g id="node1" class="node"><title>Node1</title>
<g id="a_node1"><a xlink:title=" ">
<polygon fill="#bfbfbf" stroke="black" points="170,-17 170,-47 337,-47 337,-17 170,-17"/>
<text text-anchor="start" x="178" y="-35" font-family="Helvetica,sans-Serif" font-size="10.00">Pcm::CStreamFrameAmpManager</text>
<text text-anchor="middle" x="253.5" y="-24" font-family="Helvetica,sans-Serif" font-size="10.00">::sLoadFrameAmp</text>
</a>
</g>
</g>
<!-- Node2 -->
<g id="node2" class="node"><title>Node2</title>
<g id="a_node2"><a xlink:href="../../db/d54/namespace_c_funcs.html#a865810c21c4c3e38430b9693de5ebc5a" target="_top" xlink:title=" ">
<polygon fill="white" stroke="black" points="0,-39 0,-69 134,-69 134,-39 0,-39"/>
<text text-anchor="start" x="8" y="-57" font-family="Helvetica,sans-Serif" font-size="10.00">CFuncs::ScriptLoadStream</text>
<text text-anchor="middle" x="67" y="-46" font-family="Helvetica,sans-Serif" font-size="10.00">FrameAmp</text>
</a>
</g>
</g>
<!-- Node1&#45;&gt;Node2 -->
<g id="edge1" class="edge"><title>Node1&#45;&gt;Node2</title>
<path fill="none" stroke="midnightblue" d="M159.81,-43.0525C151.147,-44.0854 142.489,-45.1178 134.143,-46.1131"/>
<polygon fill="midnightblue" stroke="midnightblue" points="160.448,-46.5012 169.963,-41.8418 159.619,-39.5505 160.448,-46.5012"/>
</g>
<!-- Node3 -->
<g id="node3" class="node"><title>Node3</title>
<g id="a_node3"><a xlink:href="../../db/d54/namespace_c_funcs.html#a58888b46921b2f9456f7189638325063" target="_top" xlink:title=" ">
<polygon fill="white" stroke="black" points="0.5,-0.5 0.5,-19.5 133.5,-19.5 133.5,-0.5 0.5,-0.5"/>
<text text-anchor="middle" x="67" y="-7.5" font-family="Helvetica,sans-Serif" font-size="10.00">CFuncs::ScriptPlayStream</text>
</a>
</g>
</g>
<!-- Node1&#45;&gt;Node3 -->
<g id="edge2" class="edge"><title>Node1&#45;&gt;Node3</title>
<path fill="none" stroke="midnightblue" d="M159.934,-20.9624C151.037,-19.9014 142.144,-18.841 133.586,-17.8205"/>
<polygon fill="midnightblue" stroke="midnightblue" points="159.619,-24.4495 169.963,-22.1582 160.448,-17.4988 159.619,-24.4495"/>
</g>
</g>
</svg>
