<?xml version="1.0" encoding="UTF-8" standalone="no"?>
<!DOCTYPE svg PUBLIC "-//W3C//DTD SVG 1.1//EN"
 "http://www.w3.org/Graphics/SVG/1.1/DTD/svg11.dtd">
<!-- Generated by graphviz version 2.38.0 (20140413.2041)
 -->
<!-- Title: Gfx::CShadow::GetShadowType Pages: 1 -->
<svg width="656pt" height="88pt"
 viewBox="0.00 0.00 656.00 88.00" xmlns="http://www.w3.org/2000/svg" xmlns:xlink="http://www.w3.org/1999/xlink">
<g id="graph0" class="graph" transform="scale(1 1) rotate(0) translate(4 84)">
<title>Gfx::CShadow::GetShadowType</title>
<polygon fill="white" stroke="none" points="-4,4 -4,-84 652,-84 652,4 -4,4"/>
<!-- Node1 -->
<g id="node1" class="node"><title>Node1</title>
<g id="a_node1"><a xlink:title=" ">
<polygon fill="#bfbfbf" stroke="black" points="492,-30 492,-49 648,-49 648,-30 492,-30"/>
<text text-anchor="middle" x="570" y="-37" font-family="Helvetica,sans-Serif" font-size="10.00">Gfx::CShadow::GetShadowType</text>
</a>
</g>
</g>
<!-- Node2 -->
<g id="node2" class="node"><title>Node2</title>
<g id="a_node2"><a xlink:href="../../dc/dd7/class_obj_1_1_c_shadow_component.html#a8c73d257a169e76b2423b4476d824078" target="_top" xlink:title=" ">
<polygon fill="white" stroke="black" points="328,-49.5 328,-79.5 456,-79.5 456,-49.5 328,-49.5"/>
<text text-anchor="start" x="336" y="-67.5" font-family="Helvetica,sans-Serif" font-size="10.00">Obj::CShadowComponent</text>
<text text-anchor="middle" x="392" y="-56.5" font-family="Helvetica,sans-Serif" font-size="10.00">::CallMemberFunction</text>
</a>
</g>
</g>
<!-- Node1&#45;&gt;Node2 -->
<g id="edge1" class="edge"><title>Node1&#45;&gt;Node2</title>
<path fill="none" stroke="midnightblue" d="M491.974,-50.4412C479.984,-52.1443 467.719,-53.8865 456.087,-55.5388"/>
<polygon fill="midnightblue" stroke="midnightblue" points="492.552,-53.8944 501.96,-49.0227 491.567,-46.964 492.552,-53.8944"/>
</g>
<!-- Node3 -->
<g id="node3" class="node"><title>Node3</title>
<g id="a_node3"><a xlink:href="../../dc/dd7/class_obj_1_1_c_shadow_component.html#a7141ff760218137cf0fb6198b7738488" target="_top" xlink:title=" ">
<polygon fill="white" stroke="black" points="328,-0.5 328,-30.5 456,-30.5 456,-0.5 328,-0.5"/>
<text text-anchor="start" x="336" y="-18.5" font-family="Helvetica,sans-Serif" font-size="10.00">Obj::CShadowComponent</text>
<text text-anchor="middle" x="392" y="-7.5" font-family="Helvetica,sans-Serif" font-size="10.00">::update_shadow</text>
</a>
</g>
</g>
<!-- Node1&#45;&gt;Node3 -->
<g id="edge2" class="edge"><title>Node1&#45;&gt;Node3</title>
<path fill="none" stroke="midnightblue" d="M489.111,-28.6061C478.065,-27.0998 466.847,-25.5701 456.161,-24.1129"/>
<polygon fill="midnightblue" stroke="midnightblue" points="488.806,-32.0968 499.187,-29.9801 489.752,-25.161 488.806,-32.0968"/>
</g>
<!-- Node4 -->
<g id="node4" class="node"><title>Node4</title>
<g id="a_node4"><a xlink:href="../../dc/dd7/class_obj_1_1_c_shadow_component.html#a08e771885d84bfb22a0085a98ece53bd" target="_top" xlink:title=" ">
<polygon fill="white" stroke="black" points="164,-0.5 164,-30.5 292,-30.5 292,-0.5 164,-0.5"/>
<text text-anchor="start" x="172" y="-18.5" font-family="Helvetica,sans-Serif" font-size="10.00">Obj::CShadowComponent</text>
<text text-anchor="middle" x="228" y="-7.5" font-family="Helvetica,sans-Serif" font-size="10.00">::Update</text>
</a>
</g>
</g>
<!-- Node3&#45;&gt;Node4 -->
<g id="edge3" class="edge"><title>Node3&#45;&gt;Node4</title>
<path fill="none" stroke="midnightblue" d="M317.626,-15.5C309.135,-15.5 300.531,-15.5 292.192,-15.5"/>
<polygon fill="midnightblue" stroke="midnightblue" points="317.903,-19.0001 327.903,-15.5 317.903,-12.0001 317.903,-19.0001"/>
</g>
<!-- Node5 -->
<g id="node5" class="node"><title>Node5</title>
<g id="a_node5"><a xlink:href="../../dc/dd7/class_obj_1_1_c_shadow_component.html#a898366272c675c9ec4afa6d801a26874" target="_top" xlink:title=" ">
<polygon fill="white" stroke="black" points="0,-0.5 0,-30.5 128,-30.5 128,-0.5 0,-0.5"/>
<text text-anchor="start" x="8" y="-18.5" font-family="Helvetica,sans-Serif" font-size="10.00">Obj::CShadowComponent</text>
<text text-anchor="middle" x="64" y="-7.5" font-family="Helvetica,sans-Serif" font-size="10.00">::Teleport</text>
</a>
</g>
</g>
<!-- Node4&#45;&gt;Node5 -->
<g id="edge4" class="edge"><title>Node4&#45;&gt;Node5</title>
<path fill="none" stroke="midnightblue" d="M153.626,-15.5C145.135,-15.5 136.531,-15.5 128.192,-15.5"/>
<polygon fill="midnightblue" stroke="midnightblue" points="153.903,-19.0001 163.903,-15.5 153.903,-12.0001 153.903,-19.0001"/>
</g>
</g>
</svg>
