<?xml version="1.0" encoding="UTF-8" standalone="no"?>
<!DOCTYPE svg PUBLIC "-//W3C//DTD SVG 1.1//EN"
 "http://www.w3.org/Graphics/SVG/1.1/DTD/svg11.dtd">
<!-- Generated by graphviz version 2.38.0 (20140413.2041)
 -->
<!-- Title: Иерархия классов. Графический вид. Pages: 1 -->
<svg width="345pt" height="123pt"
 viewBox="0.00 0.00 345.00 123.00" xmlns="http://www.w3.org/2000/svg" xmlns:xlink="http://www.w3.org/1999/xlink">
<g id="graph0" class="graph" transform="scale(1 1) rotate(0) translate(4 119)">
<title>Иерархия классов. Графический вид.</title>
<polygon fill="white" stroke="none" points="-4,4 -4,-119 341,-119 341,4 -4,4"/>
<!-- Node0 -->
<g id="node1" class="node"><title>Node0</title>
<g id="a_node1"><a xlink:href="d7/d8e/class_nx_1_1_c_coll_obj.html" target="_top" xlink:title=" ">
<polygon fill="white" stroke="black" points="0,-38.5 0,-57.5 73,-57.5 73,-38.5 0,-38.5"/>
<text text-anchor="middle" x="36.5" y="-45.5" font-family="Helvetica,sans-Serif" font-size="10.00">Nx::CCollObj</text>
</a>
</g>
</g>
<!-- Node1 -->
<g id="node2" class="node"><title>Node1</title>
<g id="a_node2"><a xlink:href="d2/d11/class_nx_1_1_c_coll_movable.html" target="_top" xlink:title=" ">
<polygon fill="white" stroke="black" points="109,-76.5 109,-95.5 202,-95.5 202,-76.5 109,-76.5"/>
<text text-anchor="middle" x="155.5" y="-83.5" font-family="Helvetica,sans-Serif" font-size="10.00">Nx::CCollMovable</text>
</a>
</g>
</g>
<!-- Node0&#45;&gt;Node1 -->
<g id="edge1" class="edge"><title>Node0&#45;&gt;Node1</title>
<path fill="none" stroke="midnightblue" d="M76.5424,-60.6804C92.3509,-65.8148 110.299,-71.6441 124.985,-76.4141"/>
<polygon fill="midnightblue" stroke="midnightblue" points="77.6162,-57.3493 67.024,-57.589 75.4538,-64.0069 77.6162,-57.3493"/>
</g>
<!-- Node4 -->
<g id="node5" class="node"><title>Node4</title>
<g id="a_node5"><a xlink:href="d5/d44/class_nx_1_1_c_coll_multi.html" target="_top" xlink:title=" ">
<polygon fill="white" stroke="black" points="116,-38.5 116,-57.5 195,-57.5 195,-38.5 116,-38.5"/>
<text text-anchor="middle" x="155.5" y="-45.5" font-family="Helvetica,sans-Serif" font-size="10.00">Nx::CCollMulti</text>
</a>
</g>
</g>
<!-- Node0&#45;&gt;Node4 -->
<g id="edge4" class="edge"><title>Node0&#45;&gt;Node4</title>
<path fill="none" stroke="midnightblue" d="M83.2889,-48C94.0142,-48 105.338,-48 115.724,-48"/>
<polygon fill="midnightblue" stroke="midnightblue" points="83.2396,-44.5001 73.2396,-48 83.2396,-51.5001 83.2396,-44.5001"/>
</g>
<!-- Node5 -->
<g id="node6" class="node"><title>Node5</title>
<g id="a_node6"><a xlink:href="d0/dec/class_nx_1_1_c_coll_static.html" target="_top" xlink:title=" ">
<polygon fill="white" stroke="black" points="114,-0.5 114,-19.5 197,-19.5 197,-0.5 114,-0.5"/>
<text text-anchor="middle" x="155.5" y="-7.5" font-family="Helvetica,sans-Serif" font-size="10.00">Nx::CCollStatic</text>
</a>
</g>
</g>
<!-- Node0&#45;&gt;Node5 -->
<g id="edge5" class="edge"><title>Node0&#45;&gt;Node5</title>
<path fill="none" stroke="midnightblue" d="M76.5424,-35.3196C92.3509,-30.1852 110.299,-24.3559 124.985,-19.5859"/>
<polygon fill="midnightblue" stroke="midnightblue" points="75.4538,-31.9931 67.024,-38.411 77.6162,-38.6507 75.4538,-31.9931"/>
</g>
<!-- Node2 -->
<g id="node3" class="node"><title>Node2</title>
<g id="a_node3"><a xlink:href="d2/d46/class_nx_1_1_c_coll_mov_b_box.html" target="_top" xlink:title=" ">
<polygon fill="white" stroke="black" points="238,-95.5 238,-114.5 337,-114.5 337,-95.5 238,-95.5"/>
<text text-anchor="middle" x="287.5" y="-102.5" font-family="Helvetica,sans-Serif" font-size="10.00">Nx::CCollMovBBox</text>
</a>
</g>
</g>
<!-- Node1&#45;&gt;Node2 -->
<g id="edge2" class="edge"><title>Node1&#45;&gt;Node2</title>
<path fill="none" stroke="midnightblue" d="M212.252,-94.1484C220.819,-95.4004 229.604,-96.6844 237.996,-97.911"/>
<polygon fill="midnightblue" stroke="midnightblue" points="212.734,-90.6817 202.333,-92.6987 211.722,-97.6082 212.734,-90.6817"/>
</g>
<!-- Node3 -->
<g id="node4" class="node"><title>Node3</title>
<g id="a_node4"><a xlink:href="db/d32/class_nx_1_1_c_coll_mov_tri.html" target="_top" xlink:title=" ">
<polygon fill="white" stroke="black" points="244.5,-57.5 244.5,-76.5 330.5,-76.5 330.5,-57.5 244.5,-57.5"/>
<text text-anchor="middle" x="287.5" y="-64.5" font-family="Helvetica,sans-Serif" font-size="10.00">Nx::CCollMovTri</text>
</a>
</g>
</g>
<!-- Node1&#45;&gt;Node3 -->
<g id="edge3" class="edge"><title>Node1&#45;&gt;Node3</title>
<path fill="none" stroke="midnightblue" d="M212.39,-77.8314C223.026,-76.277 233.993,-74.6741 244.123,-73.1936"/>
<polygon fill="midnightblue" stroke="midnightblue" points="211.722,-74.3918 202.333,-79.3013 212.734,-81.3183 211.722,-74.3918"/>
</g>
<!-- Node6 -->
<g id="node7" class="node"><title>Node6</title>
<g id="a_node7"><a xlink:href="d0/d3c/class_nx_1_1_c_coll_static_tri.html" target="_top" xlink:title=" ">
<polygon fill="white" stroke="black" points="240.5,-0.5 240.5,-19.5 334.5,-19.5 334.5,-0.5 240.5,-0.5"/>
<text text-anchor="middle" x="287.5" y="-7.5" font-family="Helvetica,sans-Serif" font-size="10.00">Nx::CCollStaticTri</text>
</a>
</g>
</g>
<!-- Node5&#45;&gt;Node6 -->
<g id="edge6" class="edge"><title>Node5&#45;&gt;Node6</title>
<path fill="none" stroke="midnightblue" d="M207.483,-10C218.349,-10 229.764,-10 240.432,-10"/>
<polygon fill="midnightblue" stroke="midnightblue" points="207.276,-6.5001 197.276,-10 207.276,-13.5001 207.276,-6.5001"/>
</g>
</g>
</svg>
