<?xml version="1.0" encoding="UTF-8" standalone="no"?>
<!DOCTYPE svg PUBLIC "-//W3C//DTD SVG 1.1//EN"
 "http://www.w3.org/Graphics/SVG/1.1/DTD/svg11.dtd">
<!-- Generated by graphviz version 2.38.0 (20140413.2041)
 -->
<!-- Title: NsPrim::point Pages: 1 -->
<svg width="236pt" height="256pt"
 viewBox="0.00 0.00 236.00 256.00" xmlns="http://www.w3.org/2000/svg" xmlns:xlink="http://www.w3.org/1999/xlink">
<g id="graph0" class="graph" transform="scale(1 1) rotate(0) translate(4 252)">
<title>NsPrim::point</title>
<polygon fill="white" stroke="none" points="-4,4 -4,-252 232,-252 232,4 -4,4"/>
<!-- Node1 -->
<g id="node1" class="node"><title>Node1</title>
<g id="a_node1"><a xlink:title=" ">
<polygon fill="#bfbfbf" stroke="black" points="0,-114.5 0,-133.5 76,-133.5 76,-114.5 0,-114.5"/>
<text text-anchor="middle" x="38" y="-121.5" font-family="Helvetica,sans-Serif" font-size="10.00">NsPrim::point</text>
</a>
</g>
</g>
<!-- Node2 -->
<g id="node2" class="node"><title>Node2</title>
<g id="a_node2"><a xlink:href="../../d6/d63/namespace_g_x.html#a54dc0f5188e2ce2817a5bd755be88111" target="_top" xlink:title=" ">
<polygon fill="white" stroke="black" points="140,-228.5 140,-247.5 200,-247.5 200,-228.5 140,-228.5"/>
<text text-anchor="middle" x="170" y="-235.5" font-family="Helvetica,sans-Serif" font-size="10.00">GX::Begin</text>
</a>
</g>
</g>
<!-- Node1&#45;&gt;Node2 -->
<g id="edge1" class="edge"><title>Node1&#45;&gt;Node2</title>
<path fill="none" stroke="midnightblue" d="M43.8309,-133.604C53.8977,-152.669 78.958,-195.477 112,-219 117.538,-222.943 123.951,-226.109 130.433,-228.639"/>
<polygon fill="midnightblue" stroke="midnightblue" points="129.293,-231.949 139.888,-231.907 131.58,-225.333 129.293,-231.949"/>
</g>
<!-- Node3 -->
<g id="node3" class="node"><title>Node3</title>
<g id="a_node3"><a xlink:href="../../d6/d63/namespace_g_x.html#a40e0da8c9e9725024d38f31c846e2f1d" target="_top" xlink:title=" ">
<polygon fill="white" stroke="black" points="143.5,-190.5 143.5,-209.5 196.5,-209.5 196.5,-190.5 143.5,-190.5"/>
<text text-anchor="middle" x="170" y="-197.5" font-family="Helvetica,sans-Serif" font-size="10.00">GX::End</text>
</a>
</g>
</g>
<!-- Node1&#45;&gt;Node3 -->
<g id="edge2" class="edge"><title>Node1&#45;&gt;Node3</title>
<path fill="none" stroke="midnightblue" d="M49.0824,-133.727C62.4811,-146.195 87.3448,-167.775 112,-181 118.699,-184.593 126.203,-187.68 133.511,-190.258"/>
<polygon fill="midnightblue" stroke="midnightblue" points="132.668,-193.665 143.26,-193.458 134.85,-187.014 132.668,-193.665"/>
</g>
<!-- Node4 -->
<g id="node4" class="node"><title>Node4</title>
<g id="a_node4"><a xlink:href="../../d6/d63/namespace_g_x.html#a948da085f7ca4a29baf4510041ca26b5" target="_top" xlink:title=" ">
<polygon fill="white" stroke="black" points="125.5,-152.5 125.5,-171.5 214.5,-171.5 214.5,-152.5 125.5,-152.5"/>
<text text-anchor="middle" x="170" y="-159.5" font-family="Helvetica,sans-Serif" font-size="10.00">GX::Position3f32</text>
</a>
</g>
</g>
<!-- Node1&#45;&gt;Node4 -->
<g id="edge3" class="edge"><title>Node1&#45;&gt;Node4</title>
<path fill="none" stroke="midnightblue" d="M71.8045,-133.589C88.2783,-138.404 108.443,-144.299 126.127,-149.468"/>
<polygon fill="midnightblue" stroke="midnightblue" points="125.626,-152.968 136.206,-152.414 127.59,-146.249 125.626,-152.968"/>
</g>
<!-- Node5 -->
<g id="node5" class="node"><title>Node5</title>
<g id="a_node5"><a xlink:href="../../d6/d63/namespace_g_x.html#ab8cc96716da738d965eef63ab4eba246" target="_top" xlink:title=" ">
<polygon fill="white" stroke="black" points="112,-114.5 112,-133.5 228,-133.5 228,-114.5 112,-114.5"/>
<text text-anchor="middle" x="170" y="-121.5" font-family="Helvetica,sans-Serif" font-size="10.00">GX::SetChanAmbColor</text>
</a>
</g>
</g>
<!-- Node1&#45;&gt;Node5 -->
<g id="edge4" class="edge"><title>Node1&#45;&gt;Node5</title>
<path fill="none" stroke="midnightblue" d="M76.2528,-124C84.234,-124 92.9023,-124 101.628,-124"/>
<polygon fill="midnightblue" stroke="midnightblue" points="101.859,-127.5 111.859,-124 101.859,-120.5 101.859,-127.5"/>
</g>
<!-- Node6 -->
<g id="node6" class="node"><title>Node6</title>
<g id="a_node6"><a xlink:href="../../d6/d63/namespace_g_x.html#a1ac67d663b8f5655d7e767c50b522af4" target="_top" xlink:title=" ">
<polygon fill="white" stroke="black" points="126,-76.5 126,-95.5 214,-95.5 214,-76.5 126,-76.5"/>
<text text-anchor="middle" x="170" y="-83.5" font-family="Helvetica,sans-Serif" font-size="10.00">GX::SetChanCtrl</text>
</a>
</g>
</g>
<!-- Node1&#45;&gt;Node6 -->
<g id="edge5" class="edge"><title>Node1&#45;&gt;Node6</title>
<path fill="none" stroke="midnightblue" d="M71.8045,-114.411C88.2783,-109.596 108.443,-103.701 126.127,-98.532"/>
<polygon fill="midnightblue" stroke="midnightblue" points="127.59,-101.751 136.206,-95.5859 125.626,-95.0323 127.59,-101.751"/>
</g>
<!-- Node7 -->
<g id="node7" class="node"><title>Node7</title>
<g id="a_node7"><a xlink:href="../../d6/d63/namespace_g_x.html#a1565d5475be365c0876292bc7c2c8858" target="_top" xlink:title=" ">
<polygon fill="white" stroke="black" points="114,-38.5 114,-57.5 226,-57.5 226,-38.5 114,-38.5"/>
<text text-anchor="middle" x="170" y="-45.5" font-family="Helvetica,sans-Serif" font-size="10.00">GX::SetChanMatColor</text>
</a>
</g>
</g>
<!-- Node1&#45;&gt;Node7 -->
<g id="edge6" class="edge"><title>Node1&#45;&gt;Node7</title>
<path fill="none" stroke="midnightblue" d="M49.0824,-114.273C62.4811,-101.805 87.3448,-80.2251 112,-67 115.986,-64.8621 120.256,-62.9033 124.601,-61.1243"/>
<polygon fill="midnightblue" stroke="midnightblue" points="126.032,-64.3255 134.149,-57.5173 123.558,-57.7772 126.032,-64.3255"/>
</g>
<!-- Node8 -->
<g id="node8" class="node"><title>Node8</title>
<g id="a_node8"><a xlink:href="../../d6/d63/namespace_g_x.html#a3715a59c0bf67f9de75b1cdd99570f1f" target="_top" xlink:title=" ">
<polygon fill="white" stroke="black" points="126,-0.5 126,-19.5 214,-19.5 214,-0.5 126,-0.5"/>
<text text-anchor="middle" x="170" y="-7.5" font-family="Helvetica,sans-Serif" font-size="10.00">GX::SetVtxDesc</text>
</a>
</g>
</g>
<!-- Node1&#45;&gt;Node8 -->
<g id="edge7" class="edge"><title>Node1&#45;&gt;Node8</title>
<path fill="none" stroke="midnightblue" d="M43.8309,-114.396C53.8977,-95.3308 78.958,-52.5232 112,-29 114.677,-27.0944 117.558,-25.37 120.552,-23.8112"/>
<polygon fill="midnightblue" stroke="midnightblue" points="122.129,-26.9391 129.785,-19.6156 119.233,-20.5662 122.129,-26.9391"/>
</g>
</g>
</svg>
