<?xml version="1.0" encoding="UTF-8" standalone="no"?>
<!DOCTYPE svg PUBLIC "-//W3C//DTD SVG 1.1//EN"
 "http://www.w3.org/Graphics/SVG/1.1/DTD/svg11.dtd">
<!-- Generated by graphviz version 2.38.0 (20140413.2041)
 -->
<!-- Title: Nx::CViewportManager::sGet2DIn3DSpaceMinScale Pages: 1 -->
<svg width="342pt" height="88pt"
 viewBox="0.00 0.00 342.00 88.00" xmlns="http://www.w3.org/2000/svg" xmlns:xlink="http://www.w3.org/1999/xlink">
<g id="graph0" class="graph" transform="scale(1 1) rotate(0) translate(4 84)">
<title>Nx::CViewportManager::sGet2DIn3DSpaceMinScale</title>
<polygon fill="white" stroke="none" points="-4,4 -4,-84 338,-84 338,4 -4,4"/>
<!-- Node1 -->
<g id="node1" class="node"><title>Node1</title>
<g id="a_node1"><a xlink:title=" ">
<polygon fill="#bfbfbf" stroke="black" points="191,-24.5 191,-54.5 334,-54.5 334,-24.5 191,-24.5"/>
<text text-anchor="start" x="199" y="-42.5" font-family="Helvetica,sans-Serif" font-size="10.00">Nx::CViewportManager</text>
<text text-anchor="middle" x="262.5" y="-31.5" font-family="Helvetica,sans-Serif" font-size="10.00">::sGet2DIn3DSpaceMinScale</text>
</a>
</g>
</g>
<!-- Node2 -->
<g id="node2" class="node"><title>Node2</title>
<g id="a_node2"><a xlink:href="../../d9/de5/class_nx_1_1_c_xbox_viewport.html#a4ac23222ca0ca7b5c2e2800277e5b426" target="_top" xlink:title=" ">
<polygon fill="white" stroke="black" points="0,-49.5 0,-79.5 155,-79.5 155,-49.5 0,-49.5"/>
<text text-anchor="start" x="8" y="-67.5" font-family="Helvetica,sans-Serif" font-size="10.00">Nx::CXboxViewport::</text>
<text text-anchor="middle" x="77.5" y="-56.5" font-family="Helvetica,sans-Serif" font-size="10.00">plat_transform_to_screen_coord</text>
</a>
</g>
</g>
<!-- Node1&#45;&gt;Node2 -->
<g id="edge1" class="edge"><title>Node1&#45;&gt;Node2</title>
<path fill="none" stroke="midnightblue" d="M180.809,-50.5234C172.277,-51.6889 163.619,-52.8718 155.135,-54.0307"/>
<polygon fill="midnightblue" stroke="midnightblue" points="181.313,-53.9871 190.747,-49.1657 180.366,-47.0515 181.313,-53.9871"/>
</g>
<!-- Node3 -->
<g id="node3" class="node"><title>Node3</title>
<g id="a_node3"><a xlink:href="../../d3/d4f/class_nx_1_1_c_ps2_viewport.html#a9d7786579214b1b97b0a30401f41f249" target="_top" xlink:title=" ">
<polygon fill="white" stroke="black" points="7.5,-0.5 7.5,-30.5 147.5,-30.5 147.5,-0.5 7.5,-0.5"/>
<text text-anchor="start" x="15.5" y="-18.5" font-family="Helvetica,sans-Serif" font-size="10.00">Nx::CPs2Viewport::plat</text>
<text text-anchor="middle" x="77.5" y="-7.5" font-family="Helvetica,sans-Serif" font-size="10.00">_transform_to_screen_coord</text>
</a>
</g>
</g>
<!-- Node1&#45;&gt;Node3 -->
<g id="edge2" class="edge"><title>Node1&#45;&gt;Node3</title>
<path fill="none" stroke="midnightblue" d="M180.679,-28.9005C169.631,-27.4516 158.372,-25.975 147.559,-24.5569"/>
<polygon fill="midnightblue" stroke="midnightblue" points="180.377,-32.3908 190.747,-30.221 181.287,-25.4503 180.377,-32.3908"/>
</g>
</g>
</svg>
