<?xml version="1.0" encoding="UTF-8" standalone="no"?>
<!DOCTYPE svg PUBLIC "-//W3C//DTD SVG 1.1//EN"
 "http://www.w3.org/Graphics/SVG/1.1/DTD/svg11.dtd">
<!-- Generated by graphviz version 2.38.0 (20140413.2041)
 -->
<!-- Title: Sys::Profiler Pages: 1 -->
<svg width="228pt" height="176pt"
 viewBox="0.00 0.00 228.00 175.71" xmlns="http://www.w3.org/2000/svg" xmlns:xlink="http://www.w3.org/1999/xlink">
<g id="graph0" class="graph" transform="scale(1 1) rotate(0) translate(4 171.713)">
<title>Sys::Profiler</title>
<polygon fill="white" stroke="none" points="-4,4 -4,-171.713 224,-171.713 224,4 -4,4"/>
<!-- Node1 -->
<g id="node1" class="node"><title>Node1</title>
<g id="a_node1"><a xlink:title=" ">
<polygon fill="#bfbfbf" stroke="black" points="47,-4.21291 47,-23.2129 117,-23.2129 117,-4.21291 47,-4.21291"/>
<text text-anchor="middle" x="82" y="-11.2129" font-family="Helvetica,sans-Serif" font-size="10.00">Sys::Profiler</text>
</a>
</g>
</g>
<!-- Node1&#45;&gt;Node1 -->
<g id="edge3" class="edge"><title>Node1&#45;&gt;Node1</title>
<path fill="none" stroke="#9a32cd" stroke-dasharray="5,2" d="M106.093,-26.2826C120.92,-29.2654 135,-25.0755 135,-13.7129 135,0.138651 114.076,3.331 96.3812,-4.13585"/>
<polygon fill="#9a32cd" stroke="#9a32cd" points="106.968,-22.8901 96.3812,-23.29 104.907,-29.5797 106.968,-22.8901"/>
<text text-anchor="middle" x="167" y="-11.2129" font-family="Helvetica,sans-Serif" font-size="10.00"> s_cpu_profiler</text>
</g>
<!-- Node2 -->
<g id="node2" class="node"><title>Node2</title>
<g id="a_node2"><a xlink:href="../../d3/dee/class_spt_1_1_class.html" target="_top" xlink:title=" ">
<polygon fill="white" stroke="black" points="0,-148.213 0,-167.213 62,-167.213 62,-148.213 0,-148.213"/>
<text text-anchor="middle" x="31" y="-155.213" font-family="Helvetica,sans-Serif" font-size="10.00">Spt::Class</text>
</a>
</g>
</g>
<!-- Node2&#45;&gt;Node1 -->
<g id="edge1" class="edge"><title>Node2&#45;&gt;Node1</title>
<path fill="none" stroke="midnightblue" d="M37.6388,-138.228C48.7907,-107.178 70.8575,-45.7372 78.9406,-23.2313"/>
<polygon fill="midnightblue" stroke="midnightblue" points="34.2765,-137.236 34.1903,-147.83 40.8645,-139.602 34.2765,-137.236"/>
</g>
<!-- Node3 -->
<g id="node3" class="node"><title>Node3</title>
<g id="a_node3"><a xlink:href="../../d2/dbe/struct_sys_1_1_s_profile_context.html" target="_top" xlink:title=" ">
<polygon fill="white" stroke="black" points="80.5,-148.213 80.5,-167.213 187.5,-167.213 187.5,-148.213 80.5,-148.213"/>
<text text-anchor="middle" x="134" y="-155.213" font-family="Helvetica,sans-Serif" font-size="10.00">Sys::SProfileContext</text>
</a>
</g>
</g>
<!-- Node3&#45;&gt;Node1 -->
<g id="edge2" class="edge"><title>Node3&#45;&gt;Node1</title>
<path fill="none" stroke="#9a32cd" stroke-dasharray="5,2" d="M127.231,-138.228C115.86,-107.178 93.361,-45.7372 85.1194,-23.2313"/>
<polygon fill="#9a32cd" stroke="#9a32cd" points="124.022,-139.644 130.747,-147.83 130.595,-137.236 124.022,-139.644"/>
<text text-anchor="start" x="125" y="-121.713" font-family="Helvetica,sans-Serif" font-size="10.00"> mpp_current_context</text>
<text text-anchor="middle" x="172.5" y="-110.713" font-family="Helvetica,sans-Serif" font-size="10.00">_stack</text>
<text text-anchor="middle" x="172.5" y="-99.7129" font-family="Helvetica,sans-Serif" font-size="10.00">mp_acc_context</text>
<text text-anchor="middle" x="172.5" y="-88.7129" font-family="Helvetica,sans-Serif" font-size="10.00">mp_current_context</text>
<text text-anchor="start" x="125" y="-77.7129" font-family="Helvetica,sans-Serif" font-size="10.00">mp_current_context</text>
<text text-anchor="middle" x="172.5" y="-66.7129" font-family="Helvetica,sans-Serif" font-size="10.00">_list</text>
<text text-anchor="middle" x="172.5" y="-55.7129" font-family="Helvetica,sans-Serif" font-size="10.00">m_context_stack</text>
<text text-anchor="middle" x="172.5" y="-44.7129" font-family="Helvetica,sans-Serif" font-size="10.00">m_context_list</text>
</g>
</g>
</svg>
