<?xml version="1.0" encoding="UTF-8" standalone="no"?>
<!DOCTYPE svg PUBLIC "-//W3C//DTD SVG 1.1//EN"
 "http://www.w3.org/Graphics/SVG/1.1/DTD/svg11.dtd">
<!-- Generated by graphviz version 2.38.0 (20140413.2041)
 -->
<!-- Title: Nx::CNgcTexDict::CNgcTexDict Pages: 1 -->
<!--zoomable 420 -->
<svg id="main" version="1.1" xmlns="http://www.w3.org/2000/svg" xmlns:xlink="http://www.w3.org/1999/xlink" xml:space="preserve" onload="init(evt)">
<style type="text/css"><![CDATA[
.edge:hover path { stroke: red; }
.edge:hover polygon { stroke: red; fill: red; }
]]></style>
<script type="text/javascript"><![CDATA[
var edges = document.getElementsByTagName('g');
if (edges && edges.length) {
  for (var i=0;i<edges.length;i++) {
    if (edges[i].id.substr(0,4)=='edge') {
      edges[i].setAttribute('class','edge');
    }
  }
}
]]></script>
        <defs>
                <circle id="rim" cx="0" cy="0" r="7"/>
                <circle id="rim2" cx="0" cy="0" r="3.5"/>
                <g id="zoomPlus">
                        <use xlink:href="#rim" fill="#404040">
                                <set attributeName="fill" to="#808080" begin="zoomplus.mouseover" end="zoomplus.mouseout"/>
                        </use>
                        <path d="M-4,0h8M0,-4v8" fill="none" stroke="white" stroke-width="1.5" pointer-events="none"/>
                </g>
                <g id="zoomMin">
                        <use xlink:href="#rim" fill="#404040">
                                <set attributeName="fill" to="#808080" begin="zoomminus.mouseover" end="zoomminus.mouseout"/>
                        </use>
                        <path d="M-4,0h8" fill="none" stroke="white" stroke-width="1.5" pointer-events="none"/>
                </g>
                <g id="dirArrow">
                        <path fill="none" stroke="white" stroke-width="1.5" d="M0,-3.0v7 M-2.5,-0.5L0,-3.0L2.5,-0.5"/>
                </g>
               <g id="resetDef">
                       <use xlink:href="#rim2" fill="#404040">
                               <set attributeName="fill" to="#808080" begin="reset.mouseover" end="reset.mouseout"/>
                       </use>
               </g>
        </defs>

<script type="text/javascript">
var viewWidth = 697;
var viewHeight = 420;
var sectionId = 'dynsection-2';
</script>
<script xlink:href="../../svgpan.js"/>
<svg id="graph" class="graph">
<g id="viewport">
<title>Nx::CNgcTexDict::CNgcTexDict</title>
<polygon fill="white" stroke="none" points="-4,4 -4,-416 693,-416 693,4 -4,4"/>
<!-- Node1 -->
<g id="node1" class="node"><title>Node1</title>
<g id="a_node1"><a xlink:title=" ">
<polygon fill="#bfbfbf" stroke="black" points="0,-202.5 0,-221.5 155,-221.5 155,-202.5 0,-202.5"/>
<text text-anchor="middle" x="77.5" y="-209.5" font-family="Helvetica,sans-Serif" font-size="10.00">Nx::CNgcTexDict::CNgcTexDict</text>
</a>
</g>
</g>
<!-- Node2 -->
<g id="node2" class="node"><title>Node2</title>
<g id="a_node2"><a xlink:href="../../da/d35/class_nx_1_1_c_ngc_tex_dict.html#a793d979d478715b21d0a06870d6f9d91" target="_top" xlink:title=" ">
<polygon fill="white" stroke="black" points="191,-197 191,-227 342,-227 342,-197 191,-197"/>
<text text-anchor="start" x="199" y="-215" font-family="Helvetica,sans-Serif" font-size="10.00">Nx::CNgcTexDict::LoadTexture</text>
<text text-anchor="middle" x="266.5" y="-204" font-family="Helvetica,sans-Serif" font-size="10.00">Dictionary</text>
</a>
</g>
</g>
<!-- Node1&#45;&gt;Node2 -->
<g id="edge1" class="edge"><title>Node1&#45;&gt;Node2</title>
<path fill="none" stroke="midnightblue" d="M155.1,-212C163.582,-212 172.256,-212 180.83,-212"/>
<polygon fill="midnightblue" stroke="midnightblue" points="180.832,-215.5 190.832,-212 180.832,-208.5 180.832,-215.5"/>
</g>
<!-- Node3 -->
<g id="node3" class="node"><title>Node3</title>
<g id="a_node3"><a xlink:href="../../da/d63/namespace_nx_ngc.html#a19c42d04c3db7d38530e1d1c8e2b71f1" target="_top" xlink:title=" ">
<polygon fill="white" stroke="black" points="378,-202.5 378,-221.5 499,-221.5 499,-202.5 378,-202.5"/>
<text text-anchor="middle" x="438.5" y="-209.5" font-family="Helvetica,sans-Serif" font-size="10.00">NxNgc::LoadTextureFile</text>
</a>
</g>
</g>
<!-- Node2&#45;&gt;Node3 -->
<g id="edge2" class="edge"><title>Node2&#45;&gt;Node3</title>
<path fill="none" stroke="midnightblue" d="M342.064,-212C350.563,-212 359.204,-212 367.638,-212"/>
<polygon fill="midnightblue" stroke="midnightblue" points="367.802,-215.5 377.802,-212 367.802,-208.5 367.802,-215.5"/>
</g>
<!-- Node4 -->
<g id="node4" class="node"><title>Node4</title>
<g id="a_node4"><a xlink:href="../../d2/d0a/class_mem_1_1_manager.html#a17162e2f6ea33ee7c45ffb78044806a9" target="_top" xlink:title=" ">
<polygon fill="white" stroke="black" points="535,-392.5 535,-411.5 689,-411.5 689,-392.5 535,-392.5"/>
<text text-anchor="middle" x="612" y="-399.5" font-family="Helvetica,sans-Serif" font-size="10.00">Mem::Manager::BottomUpHeap</text>
</a>
</g>
</g>
<!-- Node3&#45;&gt;Node4 -->
<g id="edge3" class="edge"><title>Node3&#45;&gt;Node4</title>
<path fill="none" stroke="midnightblue" d="M441.92,-221.535C449.828,-250.67 477.753,-339.189 535,-383 537.459,-384.882 540.081,-386.579 542.819,-388.11"/>
<polygon fill="midnightblue" stroke="midnightblue" points="541.364,-391.294 551.895,-392.454 544.386,-384.98 541.364,-391.294"/>
</g>
<!-- Node5 -->
<g id="node5" class="node"><title>Node5</title>
<g id="a_node5"><a xlink:href="../../de/d10/namespace_file.html#af5cd83b01fc5f341f767beb7c0b1130c" target="_top" xlink:title=" ">
<polygon fill="white" stroke="black" points="580.5,-354.5 580.5,-373.5 643.5,-373.5 643.5,-354.5 580.5,-354.5"/>
<text text-anchor="middle" x="612" y="-361.5" font-family="Helvetica,sans-Serif" font-size="10.00">File::Close</text>
</a>
</g>
</g>
<!-- Node3&#45;&gt;Node5 -->
<g id="edge4" class="edge"><title>Node3&#45;&gt;Node5</title>
<path fill="none" stroke="midnightblue" d="M443.62,-221.835C454.552,-246.67 486.79,-312.264 535,-345 545.373,-352.043 558.13,-356.478 570.21,-359.269"/>
<polygon fill="midnightblue" stroke="midnightblue" points="569.639,-362.724 580.13,-361.248 571.008,-355.859 569.639,-362.724"/>
</g>
<!-- Node6 -->
<g id="node6" class="node"><title>Node6</title>
<g id="a_node6"><a xlink:href="../../df/de2/_messages_8h.html#a701d7b9cdd94e5f87bc47f4e770492e6" target="_top" xlink:title=" ">
<polygon fill="white" stroke="black" points="572.5,-316.5 572.5,-335.5 651.5,-335.5 651.5,-316.5 572.5,-316.5"/>
<text text-anchor="middle" x="612" y="-323.5" font-family="Helvetica,sans-Serif" font-size="10.00">Dbg_Message</text>
</a>
</g>
</g>
<!-- Node3&#45;&gt;Node6 -->
<g id="edge5" class="edge"><title>Node3&#45;&gt;Node6</title>
<path fill="none" stroke="midnightblue" d="M446.418,-221.793C460.664,-241.197 495.287,-284.584 535,-307 543.439,-311.763 553.067,-315.347 562.57,-318.039"/>
<polygon fill="midnightblue" stroke="midnightblue" points="561.817,-321.459 572.371,-320.533 563.543,-314.675 561.817,-321.459"/>
</g>
<!-- Node7 -->
<g id="node7" class="node"><title>Node7</title>
<g id="a_node7"><a xlink:href="../../de/d10/namespace_file.html#a180384dc852ac3b971285fc63b1287cb" target="_top" xlink:title=" ">
<polygon fill="white" stroke="black" points="581,-278.5 581,-297.5 643,-297.5 643,-278.5 581,-278.5"/>
<text text-anchor="middle" x="612" y="-285.5" font-family="Helvetica,sans-Serif" font-size="10.00">File::Open</text>
</a>
</g>
</g>
<!-- Node3&#45;&gt;Node7 -->
<g id="edge6" class="edge"><title>Node3&#45;&gt;Node7</title>
<path fill="none" stroke="midnightblue" d="M452.752,-221.635C470.608,-234.204 503.767,-256.105 535,-269 546.279,-273.657 558.987,-277.383 570.737,-280.259"/>
<polygon fill="midnightblue" stroke="midnightblue" points="570.225,-283.733 580.756,-282.57 571.798,-276.912 570.225,-283.733"/>
</g>
<!-- Node8 -->
<g id="node8" class="node"><title>Node8</title>
<g id="a_node8"><a xlink:href="../../d5/d97/class_mem_1_1_allocator.html#a85a57938d2ec5fe61e575a358f009ca9" target="_top" xlink:title=" ">
<polygon fill="white" stroke="black" points="548,-240.5 548,-259.5 676,-259.5 676,-240.5 548,-240.5"/>
<text text-anchor="middle" x="612" y="-247.5" font-family="Helvetica,sans-Serif" font-size="10.00">Mem::Allocator::PopAlign</text>
</a>
</g>
</g>
<!-- Node3&#45;&gt;Node8 -->
<g id="edge7" class="edge"><title>Node3&#45;&gt;Node8</title>
<path fill="none" stroke="midnightblue" d="M482.777,-221.589C505.612,-226.649 533.823,-232.9 557.965,-238.249"/>
<polygon fill="midnightblue" stroke="midnightblue" points="557.514,-241.734 568.035,-240.48 559.028,-234.899 557.514,-241.734"/>
</g>
<!-- Node9 -->
<g id="node9" class="node"><title>Node9</title>
<g id="a_node9"><a xlink:href="../../d5/d97/class_mem_1_1_allocator.html#ad867c0d0ef2ad7b1db3983d0a0baef81" target="_top" xlink:title=" ">
<polygon fill="white" stroke="black" points="545.5,-202.5 545.5,-221.5 678.5,-221.5 678.5,-202.5 545.5,-202.5"/>
<text text-anchor="middle" x="612" y="-209.5" font-family="Helvetica,sans-Serif" font-size="10.00">Mem::Allocator::PushAlign</text>
</a>
</g>
</g>
<!-- Node3&#45;&gt;Node9 -->
<g id="edge8" class="edge"><title>Node3&#45;&gt;Node9</title>
<path fill="none" stroke="midnightblue" d="M499.001,-212C510.716,-212 523.155,-212 535.319,-212"/>
<polygon fill="midnightblue" stroke="midnightblue" points="535.451,-215.5 545.451,-212 535.451,-208.5 535.451,-215.5"/>
</g>
<!-- Node10 -->
<g id="node10" class="node"><title>Node10</title>
<g id="a_node10"><a xlink:href="../../db/d67/class_lst_1_1_hash_table.html#a34e6689d015d8e7217d3fd785f42cc99" target="_top" xlink:title=" ">
<polygon fill="white" stroke="black" points="551,-164.5 551,-183.5 673,-183.5 673,-164.5 551,-164.5"/>
<text text-anchor="middle" x="612" y="-171.5" font-family="Helvetica,sans-Serif" font-size="10.00">Lst::HashTable::PutItem</text>
</a>
</g>
</g>
<!-- Node3&#45;&gt;Node10 -->
<g id="edge9" class="edge"><title>Node3&#45;&gt;Node10</title>
<path fill="none" stroke="midnightblue" d="M482.777,-202.411C505.612,-197.351 533.823,-191.1 557.965,-185.751"/>
<polygon fill="midnightblue" stroke="midnightblue" points="559.028,-189.101 568.035,-183.52 557.514,-182.266 559.028,-189.101"/>
</g>
<!-- Node11 -->
<g id="node11" class="node"><title>Node11</title>
<g id="a_node11"><a xlink:href="../../de/d10/namespace_file.html#ae5e5ed0fd4834fc2e0e1c29edc62fc02" target="_top" xlink:title=" ">
<polygon fill="white" stroke="black" points="581.5,-126.5 581.5,-145.5 642.5,-145.5 642.5,-126.5 581.5,-126.5"/>
<text text-anchor="middle" x="612" y="-133.5" font-family="Helvetica,sans-Serif" font-size="10.00">File::Read</text>
</a>
</g>
</g>
<!-- Node3&#45;&gt;Node11 -->
<g id="edge10" class="edge"><title>Node3&#45;&gt;Node11</title>
<path fill="none" stroke="midnightblue" d="M452.752,-202.365C470.608,-189.796 503.767,-167.895 535,-155 546.589,-150.215 559.687,-146.413 571.704,-143.505"/>
<polygon fill="midnightblue" stroke="midnightblue" points="572.518,-146.91 581.488,-141.272 570.96,-140.086 572.518,-146.91"/>
</g>
<!-- Node12 -->
<g id="node12" class="node"><title>Node12</title>
<g id="a_node12"><a xlink:href="../../d5/d12/class_nx_1_1_c_ngc_texture.html#ac4f195154fd4d2b54db2afffffa223af" target="_top" xlink:title=" ">
<polygon fill="white" stroke="black" points="541,-77 541,-107 683,-107 683,-77 541,-77"/>
<text text-anchor="start" x="549" y="-95" font-family="Helvetica,sans-Serif" font-size="10.00">Nx::CNgcTexture::SetEngine</text>
<text text-anchor="middle" x="612" y="-84" font-family="Helvetica,sans-Serif" font-size="10.00">Texture</text>
</a>
</g>
</g>
<!-- Node3&#45;&gt;Node12 -->
<g id="edge11" class="edge"><title>Node3&#45;&gt;Node12</title>
<path fill="none" stroke="midnightblue" d="M446.562,-202.451C461.065,-183.485 496.129,-140.847 535,-117 538.367,-114.934 541.924,-113.019 545.586,-111.247"/>
<polygon fill="midnightblue" stroke="midnightblue" points="547.142,-114.386 554.862,-107.129 544.302,-107.988 547.142,-114.386"/>
</g>
<!-- Node13 -->
<g id="node13" class="node"><title>Node13</title>
<g id="a_node13"><a xlink:href="../../d2/d0a/class_mem_1_1_manager.html#a3aefd91781b7f41d35e6df6a32d379d0" target="_top" xlink:title=" ">
<polygon fill="white" stroke="black" points="550.5,-38.5 550.5,-57.5 673.5,-57.5 673.5,-38.5 550.5,-38.5"/>
<text text-anchor="middle" x="612" y="-45.5" font-family="Helvetica,sans-Serif" font-size="10.00">Mem::Manager::sHandle</text>
</a>
</g>
</g>
<!-- Node3&#45;&gt;Node13 -->
<g id="edge12" class="edge"><title>Node3&#45;&gt;Node13</title>
<path fill="none" stroke="midnightblue" d="M443.107,-202.165C453.23,-175.987 484.507,-104.144 535,-68 538.432,-65.5431 542.145,-63.388 546.02,-61.4975"/>
<polygon fill="midnightblue" stroke="midnightblue" points="547.469,-64.6845 555.301,-57.5493 544.729,-58.2431 547.469,-64.6845"/>
</g>
<!-- Node14 -->
<g id="node14" class="node"><title>Node14</title>
<g id="a_node14"><a xlink:href="../../d2/d0a/class_mem_1_1_manager.html#a39d5899e894ada5a1b5ed1607322610a" target="_top" xlink:title=" ">
<polygon fill="white" stroke="black" points="537,-0.5 537,-19.5 687,-19.5 687,-0.5 537,-0.5"/>
<text text-anchor="middle" x="612" y="-7.5" font-family="Helvetica,sans-Serif" font-size="10.00">Mem::Manager::TopDownHeap</text>
</a>
</g>
</g>
<!-- Node3&#45;&gt;Node14 -->
<g id="edge13" class="edge"><title>Node3&#45;&gt;Node14</title>
<path fill="none" stroke="midnightblue" d="M441.603,-202.244C448.747,-171.558 475.046,-76.2455 535,-29 537.303,-27.1849 539.758,-25.5407 542.322,-24.0516"/>
<polygon fill="midnightblue" stroke="midnightblue" points="543.987,-27.1329 551.4,-19.563 540.884,-20.8581 543.987,-27.1329"/>
</g>
</g>
</svg>
        <g id="navigator" transform="translate(0 0)" fill="#404254">
                <rect fill="#f2f5e9" fill-opacity="0.5" stroke="#606060" stroke-width=".5" x="0" y="0" width="60" height="60"/>
                <use id="zoomplus" xlink:href="#zoomPlus" x="17" y="9" onmousedown="handleZoom(evt,'in')"/>
                <use id="zoomminus" xlink:href="#zoomMin" x="42" y="9" onmousedown="handleZoom(evt,'out')"/>
                <use id="reset" xlink:href="#resetDef" x="30" y="36" onmousedown="handleReset()"/>
                <g id="arrowUp" xlink:href="#dirArrow" transform="translate(30 24)" onmousedown="handlePan(0,-1)">
                  <use xlink:href="#rim" fill="#404040">
                        <set attributeName="fill" to="#808080" begin="arrowUp.mouseover" end="arrowUp.mouseout"/>
                  </use>
                  <path fill="none" stroke="white" stroke-width="1.5" d="M0,-3.0v7 M-2.5,-0.5L0,-3.0L2.5,-0.5"/>
                </g>
                <g id="arrowRight" xlink:href="#dirArrow" transform="rotate(90) translate(36 -43)" onmousedown="handlePan(1,0)">
                  <use xlink:href="#rim" fill="#404040">
                        <set attributeName="fill" to="#808080" begin="arrowRight.mouseover" end="arrowRight.mouseout"/>
                  </use>
                  <path fill="none" stroke="white" stroke-width="1.5" d="M0,-3.0v7 M-2.5,-0.5L0,-3.0L2.5,-0.5"/>
                </g>
                <g id="arrowDown" xlink:href="#dirArrow" transform="rotate(180) translate(-30 -48)" onmousedown="handlePan(0,1)">
                  <use xlink:href="#rim" fill="#404040">
                        <set attributeName="fill" to="#808080" begin="arrowDown.mouseover" end="arrowDown.mouseout"/>
                  </use>
                  <path fill="none" stroke="white" stroke-width="1.5" d="M0,-3.0v7 M-2.5,-0.5L0,-3.0L2.5,-0.5"/>
                </g>
                <g id="arrowLeft" xlink:href="#dirArrow" transform="rotate(270) translate(-36 17)" onmousedown="handlePan(-1,0)">
                  <use xlink:href="#rim" fill="#404040">
                        <set attributeName="fill" to="#808080" begin="arrowLeft.mouseover" end="arrowLeft.mouseout"/>
                  </use>
                  <path fill="none" stroke="white" stroke-width="1.5" d="M0,-3.0v7 M-2.5,-0.5L0,-3.0L2.5,-0.5"/>
                </g>
        </g>
        <svg viewBox="0 0 15 15" width="100%" height="30px" preserveAspectRatio="xMaxYMin meet">
         <g id="arrow_out" transform="scale(0.3 0.3)">
          <a xlink:href="class_nx_1_1_c_ngc_tex_dict_a42d8412c11a56f982f1246daf842a48c_cgraph_org.svg" target="_base">
           <rect id="button" ry="5" rx="5" y="6" x="6" height="38" width="38"
                fill="#f2f5e9" fill-opacity="0.5" stroke="#606060" stroke-width="1.0"/>
           <path id="arrow"
             d="M 11.500037,31.436501 C 11.940474,20.09759 22.043105,11.32322 32.158766,21.979434 L 37.068811,17.246167 C 37.068811,17.246167 37.088388,32 37.088388,32 L 22.160133,31.978069 C 22.160133,31.978069 26.997745,27.140456 26.997745,27.140456 C 18.528582,18.264221 13.291696,25.230495 11.500037,31.436501 z"
             style="fill:#404040;"/>
          </a>
         </g>
        </svg>
</svg>
