<?xml version="1.0" encoding="UTF-8" standalone="no"?>
<!DOCTYPE svg PUBLIC "-//W3C//DTD SVG 1.1//EN"
 "http://www.w3.org/Graphics/SVG/1.1/DTD/svg11.dtd">
<!-- Generated by graphviz version 2.38.0 (20140413.2041)
 -->
<!-- Title: Obj::CSkater::AddStatGoalInfo Pages: 1 -->
<svg width="494pt" height="78pt"
 viewBox="0.00 0.00 494.00 77.50" xmlns="http://www.w3.org/2000/svg" xmlns:xlink="http://www.w3.org/1999/xlink">
<g id="graph0" class="graph" transform="scale(1 1) rotate(0) translate(4 73.5)">
<title>Obj::CSkater::AddStatGoalInfo</title>
<polygon fill="white" stroke="none" points="-4,4 -4,-73.5 490,-73.5 490,4 -4,4"/>
<!-- Node1 -->
<g id="node1" class="node"><title>Node1</title>
<g id="a_node1"><a xlink:title=" ">
<polygon fill="#bfbfbf" stroke="black" points="0,-28 0,-47 149,-47 149,-28 0,-28"/>
<text text-anchor="middle" x="74.5" y="-35" font-family="Helvetica,sans-Serif" font-size="10.00">Obj::CSkater::AddStatGoalInfo</text>
</a>
</g>
</g>
<!-- Node2 -->
<g id="node2" class="node"><title>Node2</title>
<g id="a_node2"><a xlink:href="../../d0/d0b/class_script_1_1_c_array.html#a5cfabc42659d7b73ab472ac094c33e81" target="_top" xlink:title=" ">
<polygon fill="white" stroke="black" points="198.5,-50 198.5,-69 326.5,-69 326.5,-50 198.5,-50"/>
<text text-anchor="middle" x="262.5" y="-57" font-family="Helvetica,sans-Serif" font-size="10.00">Script::CArray::SetInteger</text>
</a>
</g>
</g>
<!-- Node1&#45;&gt;Node2 -->
<g id="edge1" class="edge"><title>Node1&#45;&gt;Node2</title>
<path fill="none" stroke="midnightblue" d="M149.012,-46.195C161.912,-47.7208 175.336,-49.3085 188.229,-50.8336"/>
<polygon fill="midnightblue" stroke="midnightblue" points="188.094,-54.3419 198.436,-52.0408 188.916,-47.3903 188.094,-54.3419"/>
</g>
<!-- Node4 -->
<g id="node4" class="node"><title>Node4</title>
<g id="a_node4"><a xlink:href="../../d1/dff/class_obj_1_1_c_stats_manager_component.html#aac112ebc6d60ca0f0932700e43cf9c59" target="_top" xlink:title=" ">
<polygon fill="white" stroke="black" points="185,-0.5 185,-30.5 340,-30.5 340,-0.5 185,-0.5"/>
<text text-anchor="start" x="193" y="-18.5" font-family="Helvetica,sans-Serif" font-size="10.00">Obj::CStatsManagerComponent</text>
<text text-anchor="middle" x="262.5" y="-7.5" font-family="Helvetica,sans-Serif" font-size="10.00">::StatGoalGetStatus</text>
</a>
</g>
</g>
<!-- Node1&#45;&gt;Node4 -->
<g id="edge3" class="edge"><title>Node1&#45;&gt;Node4</title>
<path fill="none" stroke="midnightblue" d="M149.012,-28.805C157.478,-27.8036 166.17,-26.7756 174.789,-25.7561"/>
<polygon fill="midnightblue" stroke="midnightblue" points="175.337,-29.2158 184.857,-24.5653 174.515,-22.2642 175.337,-29.2158"/>
</g>
<!-- Node3 -->
<g id="node3" class="node"><title>Node3</title>
<g id="a_node3"><a xlink:href="../../d1/d54/namespace_script.html#af32f99ba26ca0f255240413a4e23a754" target="_top" xlink:title=" ">
<polygon fill="white" stroke="black" points="376,-50 376,-69 486,-69 486,-50 376,-50"/>
<text text-anchor="middle" x="431" y="-57" font-family="Helvetica,sans-Serif" font-size="10.00">Script::GetTypeName</text>
</a>
</g>
</g>
<!-- Node2&#45;&gt;Node3 -->
<g id="edge2" class="edge"><title>Node2&#45;&gt;Node3</title>
<path fill="none" stroke="midnightblue" d="M326.921,-59.5C339.684,-59.5 353.107,-59.5 365.893,-59.5"/>
<polygon fill="midnightblue" stroke="midnightblue" points="365.985,-63.0001 375.985,-59.5 365.985,-56.0001 365.985,-63.0001"/>
</g>
</g>
</svg>
