<?xml version="1.0" encoding="UTF-8" standalone="no"?>
<!DOCTYPE svg PUBLIC "-//W3C//DTD SVG 1.1//EN"
 "http://www.w3.org/Graphics/SVG/1.1/DTD/svg11.dtd">
<!-- Generated by graphviz version 2.38.0 (20140413.2041)
 -->
<!-- Title: Obj::CSkater::GetDevice Pages: 1 -->
<svg width="790pt" height="148pt"
 viewBox="0.00 0.00 790.00 147.50" xmlns="http://www.w3.org/2000/svg" xmlns:xlink="http://www.w3.org/1999/xlink">
<g id="graph0" class="graph" transform="scale(1 1) rotate(0) translate(4 143.5)">
<title>Obj::CSkater::GetDevice</title>
<polygon fill="white" stroke="none" points="-4,4 -4,-143.5 786,-143.5 786,4 -4,4"/>
<!-- Node1 -->
<g id="node1" class="node"><title>Node1</title>
<g id="a_node1"><a xlink:title=" ">
<polygon fill="#bfbfbf" stroke="black" points="659,-76.5 659,-95.5 782,-95.5 782,-76.5 659,-76.5"/>
<text text-anchor="middle" x="720.5" y="-83.5" font-family="Helvetica,sans-Serif" font-size="10.00">Obj::CSkater::GetDevice</text>
</a>
</g>
</g>
<!-- Node2 -->
<g id="node2" class="node"><title>Node2</title>
<g id="a_node2"><a xlink:href="../../d9/d29/namespace_replay.html#a7c426768aee4425e84f478183ed653be" target="_top" xlink:title=" ">
<polygon fill="white" stroke="black" points="320.5,-76.5 320.5,-95.5 418.5,-95.5 418.5,-76.5 320.5,-76.5"/>
<text text-anchor="middle" x="369.5" y="-83.5" font-family="Helvetica,sans-Serif" font-size="10.00">Replay::sPlayback</text>
</a>
</g>
</g>
<!-- Node1&#45;&gt;Node2 -->
<g id="edge1" class="edge"><title>Node1&#45;&gt;Node2</title>
<path fill="none" stroke="midnightblue" d="M648.427,-86C579.885,-86 478.033,-86 418.541,-86"/>
<polygon fill="midnightblue" stroke="midnightblue" points="648.709,-89.5001 658.709,-86 648.709,-82.5001 648.709,-89.5001"/>
</g>
<!-- Node3 -->
<g id="node3" class="node"><title>Node3</title>
<g id="a_node3"><a xlink:href="../../d9/d29/namespace_replay.html#ab958f356e35a428381832faece7332ce" target="_top" xlink:title=" ">
<polygon fill="white" stroke="black" points="497.5,-114.5 497.5,-133.5 605.5,-133.5 605.5,-114.5 497.5,-114.5"/>
<text text-anchor="middle" x="551.5" y="-121.5" font-family="Helvetica,sans-Serif" font-size="10.00">Replay::sReadFrame</text>
</a>
</g>
</g>
<!-- Node1&#45;&gt;Node3 -->
<g id="edge2" class="edge"><title>Node1&#45;&gt;Node3</title>
<path fill="none" stroke="midnightblue" d="M667.535,-97.8243C643.991,-103.182 616.526,-109.431 594.338,-114.48"/>
<polygon fill="midnightblue" stroke="midnightblue" points="668.385,-101.221 677.359,-95.589 666.832,-94.3951 668.385,-101.221"/>
</g>
<!-- Node7 -->
<g id="node7" class="node"><title>Node7</title>
<g id="a_node7"><a xlink:href="../../d9/d29/namespace_replay.html#ad8d4cdb291171addfc5d345cd21bec8f" target="_top" xlink:title=" ">
<polygon fill="white" stroke="black" points="480,-38.5 480,-57.5 623,-57.5 623,-38.5 480,-38.5"/>
<text text-anchor="middle" x="551.5" y="-45.5" font-family="Helvetica,sans-Serif" font-size="10.00">Replay::sSwitchOffVibrations</text>
</a>
</g>
</g>
<!-- Node1&#45;&gt;Node7 -->
<g id="edge7" class="edge"><title>Node1&#45;&gt;Node7</title>
<path fill="none" stroke="midnightblue" d="M667.535,-74.1757C643.991,-68.8184 616.526,-62.5689 594.338,-57.5201"/>
<polygon fill="midnightblue" stroke="midnightblue" points="666.832,-77.6049 677.359,-76.411 668.385,-70.7794 666.832,-77.6049"/>
</g>
<!-- Node3&#45;&gt;Node2 -->
<g id="edge6" class="edge"><title>Node3&#45;&gt;Node2</title>
<path fill="none" stroke="midnightblue" d="M495.169,-112.319C469.643,-106.93 439.724,-100.614 415.595,-95.5201"/>
<polygon fill="midnightblue" stroke="midnightblue" points="494.571,-115.77 505.078,-114.411 496.017,-108.921 494.571,-115.77"/>
</g>
<!-- Node4 -->
<g id="node4" class="node"><title>Node4</title>
<g id="a_node4"><a xlink:href="../../d9/d29/namespace_replay.html#a87e015fff19e95eb8991d6f168e06823" target="_top" xlink:title=" ">
<polygon fill="white" stroke="black" points="298,-114.5 298,-133.5 441,-133.5 441,-114.5 298,-114.5"/>
<text text-anchor="middle" x="369.5" y="-121.5" font-family="Helvetica,sans-Serif" font-size="10.00">Replay::sMakeEnoughSpace</text>
</a>
</g>
</g>
<!-- Node3&#45;&gt;Node4 -->
<g id="edge3" class="edge"><title>Node3&#45;&gt;Node4</title>
<path fill="none" stroke="midnightblue" d="M487.332,-124C472.41,-124 456.404,-124 441.173,-124"/>
<polygon fill="midnightblue" stroke="midnightblue" points="487.468,-127.5 497.468,-124 487.468,-120.5 487.468,-127.5"/>
</g>
<!-- Node5 -->
<g id="node5" class="node"><title>Node5</title>
<g id="a_node5"><a xlink:href="../../d9/d29/namespace_replay.html#a5f4fc112127bbc87811481da0684a15b" target="_top" xlink:title=" ">
<polygon fill="white" stroke="black" points="125,-109 125,-139 259,-139 259,-109 125,-109"/>
<text text-anchor="start" x="133" y="-127" font-family="Helvetica,sans-Serif" font-size="10.00">Replay::sWriteFrameBuffer</text>
<text text-anchor="middle" x="192" y="-116" font-family="Helvetica,sans-Serif" font-size="10.00">ToBigBuffer</text>
</a>
</g>
</g>
<!-- Node4&#45;&gt;Node5 -->
<g id="edge4" class="edge"><title>Node4&#45;&gt;Node5</title>
<path fill="none" stroke="midnightblue" d="M287.62,-124C278.11,-124 268.491,-124 259.215,-124"/>
<polygon fill="midnightblue" stroke="midnightblue" points="287.876,-127.5 297.876,-124 287.876,-120.5 287.876,-127.5"/>
</g>
<!-- Node6 -->
<g id="node6" class="node"><title>Node6</title>
<g id="a_node6"><a xlink:href="../../d9/d29/namespace_replay.html#a53570fbf15aa6e28548d69a1b6c7a1b9" target="_top" xlink:title=" ">
<polygon fill="white" stroke="black" points="0,-114.5 0,-133.5 89,-133.5 89,-114.5 0,-114.5"/>
<text text-anchor="middle" x="44.5" y="-121.5" font-family="Helvetica,sans-Serif" font-size="10.00">Replay::sRecord</text>
</a>
</g>
</g>
<!-- Node5&#45;&gt;Node6 -->
<g id="edge5" class="edge"><title>Node5&#45;&gt;Node6</title>
<path fill="none" stroke="midnightblue" d="M114.492,-124C105.854,-124 97.2861,-124 89.2781,-124"/>
<polygon fill="midnightblue" stroke="midnightblue" points="114.637,-127.5 124.637,-124 114.637,-120.5 114.637,-127.5"/>
</g>
<!-- Node7&#45;&gt;Node2 -->
<g id="edge10" class="edge"><title>Node7&#45;&gt;Node2</title>
<path fill="none" stroke="midnightblue" d="M495.169,-59.681C469.643,-65.0699 439.724,-71.3861 415.595,-76.4799"/>
<polygon fill="midnightblue" stroke="midnightblue" points="496.017,-63.0792 505.078,-57.589 494.571,-56.2301 496.017,-63.0792"/>
</g>
<!-- Node8 -->
<g id="node8" class="node"><title>Node8</title>
<g id="a_node8"><a xlink:href="../../d9/d29/namespace_replay.html#a58efabef112bcf4eb7f341024da77bea" target="_top" xlink:title=" ">
<polygon fill="white" stroke="black" points="301.5,-38.5 301.5,-57.5 437.5,-57.5 437.5,-38.5 301.5,-38.5"/>
<text text-anchor="middle" x="369.5" y="-45.5" font-family="Helvetica,sans-Serif" font-size="10.00">Replay::ScriptPauseReplay</text>
</a>
</g>
</g>
<!-- Node7&#45;&gt;Node8 -->
<g id="edge8" class="edge"><title>Node7&#45;&gt;Node8</title>
<path fill="none" stroke="midnightblue" d="M469.692,-48C458.994,-48 448.12,-48 437.684,-48"/>
<polygon fill="midnightblue" stroke="midnightblue" points="469.876,-51.5001 479.876,-48 469.876,-44.5001 469.876,-51.5001"/>
</g>
<!-- Node9 -->
<g id="node9" class="node"><title>Node9</title>
<g id="a_node9"><a xlink:href="../../d9/d29/namespace_replay.html#ad6526ce527c88304b7736bcd1fd67757" target="_top" xlink:title=" ">
<polygon fill="white" stroke="black" points="295,-0.5 295,-19.5 444,-19.5 444,-0.5 295,-0.5"/>
<text text-anchor="middle" x="369.5" y="-7.5" font-family="Helvetica,sans-Serif" font-size="10.00">Replay::ScriptPlaybackReplay</text>
</a>
</g>
</g>
<!-- Node7&#45;&gt;Node9 -->
<g id="edge9" class="edge"><title>Node7&#45;&gt;Node9</title>
<path fill="none" stroke="midnightblue" d="M495.169,-36.319C469.643,-30.9301 439.724,-24.6139 415.595,-19.5201"/>
<polygon fill="midnightblue" stroke="midnightblue" points="494.571,-39.7699 505.078,-38.411 496.017,-32.9208 494.571,-39.7699"/>
</g>
</g>
</svg>
