<?xml version="1.0" encoding="UTF-8" standalone="no"?>
<!DOCTYPE svg PUBLIC "-//W3C//DTD SVG 1.1//EN"
 "http://www.w3.org/Graphics/SVG/1.1/DTD/svg11.dtd">
<!-- Generated by graphviz version 2.38.0 (20140413.2041)
 -->
<!-- Title: Obj::CSkater::GetDisplayMatrix Pages: 1 -->
<svg width="519pt" height="137pt"
 viewBox="0.00 0.00 519.00 137.00" xmlns="http://www.w3.org/2000/svg" xmlns:xlink="http://www.w3.org/1999/xlink">
<g id="graph0" class="graph" transform="scale(1 1) rotate(0) translate(4 133)">
<title>Obj::CSkater::GetDisplayMatrix</title>
<polygon fill="white" stroke="none" points="-4,4 -4,-133 515,-133 515,4 -4,4"/>
<!-- Node1 -->
<g id="node1" class="node"><title>Node1</title>
<g id="a_node1"><a xlink:title=" ">
<polygon fill="#bfbfbf" stroke="black" points="384,-49.5 384,-79.5 511,-79.5 511,-49.5 384,-49.5"/>
<text text-anchor="start" x="392" y="-67.5" font-family="Helvetica,sans-Serif" font-size="10.00">Obj::CSkater::GetDisplay</text>
<text text-anchor="middle" x="447.5" y="-56.5" font-family="Helvetica,sans-Serif" font-size="10.00">Matrix</text>
</a>
</g>
</g>
<!-- Node2 -->
<g id="node2" class="node"><title>Node2</title>
<g id="a_node2"><a xlink:href="../../d5/dc9/class_obj_1_1_c_avoid_component.html#aae7153ed354a9c094d357feeb86b8b00" target="_top" xlink:title=" ">
<polygon fill="white" stroke="black" points="211.5,-98.5 211.5,-128.5 328.5,-128.5 328.5,-98.5 211.5,-98.5"/>
<text text-anchor="start" x="219.5" y="-116.5" font-family="Helvetica,sans-Serif" font-size="10.00">Obj::CAvoidComponent</text>
<text text-anchor="middle" x="270" y="-105.5" font-family="Helvetica,sans-Serif" font-size="10.00">::get_ideal_heading</text>
</a>
</g>
</g>
<!-- Node1&#45;&gt;Node2 -->
<g id="edge1" class="edge"><title>Node1&#45;&gt;Node2</title>
<path fill="none" stroke="midnightblue" d="M382.671,-82.3212C363.722,-87.6118 343.162,-93.3522 324.909,-98.4484"/>
<polygon fill="midnightblue" stroke="midnightblue" points="383.722,-85.6618 392.412,-79.6014 381.839,-78.9196 383.722,-85.6618"/>
</g>
<!-- Node4 -->
<g id="node4" class="node"><title>Node4</title>
<g id="a_node4"><a xlink:href="../../d5/dcc/class_obj_1_1_c_skater_camera_component.html#a99820e88df9d47e2d58e9d56526b8555" target="_top" xlink:title=" ">
<polygon fill="white" stroke="black" points="192,-49.5 192,-79.5 348,-79.5 348,-49.5 192,-49.5"/>
<text text-anchor="start" x="200" y="-67.5" font-family="Helvetica,sans-Serif" font-size="10.00">Obj::CSkaterCameraComponent</text>
<text text-anchor="middle" x="270" y="-56.5" font-family="Helvetica,sans-Serif" font-size="10.00">::Update</text>
</a>
</g>
</g>
<!-- Node1&#45;&gt;Node4 -->
<g id="edge3" class="edge"><title>Node1&#45;&gt;Node4</title>
<path fill="none" stroke="midnightblue" d="M373.522,-64.5C365.138,-64.5 356.568,-64.5 348.131,-64.5"/>
<polygon fill="midnightblue" stroke="midnightblue" points="373.636,-68.0001 383.636,-64.5 373.636,-61.0001 373.636,-68.0001"/>
</g>
<!-- Node6 -->
<g id="node6" class="node"><title>Node6</title>
<g id="a_node6"><a xlink:href="../../d6/d1b/class_obj_1_1_c_skater_cam.html#af09f01a3d52e46d9995910f75df0f51b" target="_top" xlink:title=" ">
<polygon fill="white" stroke="black" points="205,-9 205,-28 335,-28 335,-9 205,-9"/>
<text text-anchor="middle" x="270" y="-16" font-family="Helvetica,sans-Serif" font-size="10.00">Obj::CSkaterCam::Update</text>
</a>
</g>
</g>
<!-- Node1&#45;&gt;Node6 -->
<g id="edge5" class="edge"><title>Node1&#45;&gt;Node6</title>
<path fill="none" stroke="midnightblue" d="M379.097,-46.833C354.695,-40.4373 328.073,-33.4592 307.354,-28.0286"/>
<polygon fill="midnightblue" stroke="midnightblue" points="378.474,-50.288 389.035,-49.4379 380.249,-43.5167 378.474,-50.288"/>
</g>
<!-- Node3 -->
<g id="node3" class="node"><title>Node3</title>
<g id="a_node3"><a xlink:href="../../d5/dc9/class_obj_1_1_c_avoid_component.html#abfe466456192af89a9d7285ad94013f6" target="_top" xlink:title=" ">
<polygon fill="white" stroke="black" points="19.5,-98.5 19.5,-128.5 136.5,-128.5 136.5,-98.5 19.5,-98.5"/>
<text text-anchor="start" x="27.5" y="-116.5" font-family="Helvetica,sans-Serif" font-size="10.00">Obj::CAvoidComponent</text>
<text text-anchor="middle" x="78" y="-105.5" font-family="Helvetica,sans-Serif" font-size="10.00">::CallMemberFunction</text>
</a>
</g>
</g>
<!-- Node2&#45;&gt;Node3 -->
<g id="edge2" class="edge"><title>Node2&#45;&gt;Node3</title>
<path fill="none" stroke="midnightblue" d="M201.28,-113.5C180.141,-113.5 157.034,-113.5 136.654,-113.5"/>
<polygon fill="midnightblue" stroke="midnightblue" points="201.478,-117 211.478,-113.5 201.478,-110 201.478,-117"/>
</g>
<!-- Node5 -->
<g id="node5" class="node"><title>Node5</title>
<g id="a_node5"><a xlink:href="../../d5/dcc/class_obj_1_1_c_skater_camera_component.html#a359a09a86c0ceb82dc185d70630b35ed" target="_top" xlink:title=" ">
<polygon fill="white" stroke="black" points="0,-49.5 0,-79.5 156,-79.5 156,-49.5 0,-49.5"/>
<text text-anchor="start" x="8" y="-67.5" font-family="Helvetica,sans-Serif" font-size="10.00">Obj::CSkaterCameraComponent</text>
<text text-anchor="middle" x="78" y="-56.5" font-family="Helvetica,sans-Serif" font-size="10.00">::ResetLookAround</text>
</a>
</g>
</g>
<!-- Node4&#45;&gt;Node5 -->
<g id="edge4" class="edge"><title>Node4&#45;&gt;Node5</title>
<path fill="none" stroke="midnightblue" d="M181.938,-64.5C173.323,-64.5 164.62,-64.5 156.116,-64.5"/>
<polygon fill="midnightblue" stroke="midnightblue" points="181.994,-68.0001 191.994,-64.5 181.994,-61.0001 181.994,-68.0001"/>
</g>
<!-- Node7 -->
<g id="node7" class="node"><title>Node7</title>
<g id="a_node7"><a xlink:href="../../d6/d1b/class_obj_1_1_c_skater_cam.html#a9ee9da78a764c654f6ee75824cc2b1d3" target="_top" xlink:title=" ">
<polygon fill="white" stroke="black" points="5,-0.5 5,-30.5 151,-30.5 151,-0.5 5,-0.5"/>
<text text-anchor="start" x="13" y="-18.5" font-family="Helvetica,sans-Serif" font-size="10.00">Obj::CSkaterCam::ResetLook</text>
<text text-anchor="middle" x="78" y="-7.5" font-family="Helvetica,sans-Serif" font-size="10.00">Around</text>
</a>
</g>
</g>
<!-- Node6&#45;&gt;Node7 -->
<g id="edge6" class="edge"><title>Node6&#45;&gt;Node7</title>
<path fill="none" stroke="midnightblue" d="M194.685,-17.3266C180.416,-17.1013 165.492,-16.8657 151.288,-16.6414"/>
<polygon fill="midnightblue" stroke="midnightblue" points="194.886,-20.8301 204.94,-17.4885 194.996,-13.831 194.886,-20.8301"/>
</g>
</g>
</svg>
