<?xml version="1.0" encoding="UTF-8" standalone="no"?>
<!DOCTYPE svg PUBLIC "-//W3C//DTD SVG 1.1//EN"
 "http://www.w3.org/Graphics/SVG/1.1/DTD/svg11.dtd">
<!-- Generated by graphviz version 2.38.0 (20140413.2041)
 -->
<!-- Title: Gfx::CProceduralAnimController::SetProceduralBoneTransCurrent Pages: 1 -->
<svg width="491pt" height="88pt"
 viewBox="0.00 0.00 491.00 88.00" xmlns="http://www.w3.org/2000/svg" xmlns:xlink="http://www.w3.org/1999/xlink">
<g id="graph0" class="graph" transform="scale(1 1) rotate(0) translate(4 84)">
<title>Gfx::CProceduralAnimController::SetProceduralBoneTransCurrent</title>
<polygon fill="white" stroke="none" points="-4,4 -4,-84 487,-84 487,4 -4,4"/>
<!-- Node1 -->
<g id="node1" class="node"><title>Node1</title>
<g id="a_node1"><a xlink:title=" ">
<polygon fill="#bfbfbf" stroke="black" points="0,-24.5 0,-54.5 162,-54.5 162,-24.5 0,-24.5"/>
<text text-anchor="start" x="8" y="-42.5" font-family="Helvetica,sans-Serif" font-size="10.00">Gfx::CProceduralAnimController</text>
<text text-anchor="middle" x="81" y="-31.5" font-family="Helvetica,sans-Serif" font-size="10.00">::SetProceduralBoneTransCurrent</text>
</a>
</g>
</g>
<!-- Node2 -->
<g id="node2" class="node"><title>Node2</title>
<g id="a_node2"><a xlink:href="../../d3/d6e/class_gfx_1_1_c_base_anim_controller.html#a221e76e3ca00d74f6b1fe6839d8e727b" target="_top" xlink:title=" ">
<polygon fill="white" stroke="black" points="205,-49.5 205,-79.5 336,-79.5 336,-49.5 205,-49.5"/>
<text text-anchor="start" x="213" y="-67.5" font-family="Helvetica,sans-Serif" font-size="10.00">Gfx::CBaseAnimController</text>
<text text-anchor="middle" x="270.5" y="-56.5" font-family="Helvetica,sans-Serif" font-size="10.00">::GetObject</text>
</a>
</g>
</g>
<!-- Node1&#45;&gt;Node2 -->
<g id="edge1" class="edge"><title>Node1&#45;&gt;Node2</title>
<path fill="none" stroke="midnightblue" d="M162.061,-50.1748C172.923,-51.623 184.035,-53.1046 194.797,-54.5397"/>
<polygon fill="midnightblue" stroke="midnightblue" points="194.615,-58.0462 204.99,-55.8986 195.54,-51.1076 194.615,-58.0462"/>
</g>
<!-- Node4 -->
<g id="node4" class="node"><title>Node4</title>
<g id="a_node4"><a xlink:href="../../d3/d4f/class_obj_1_1_c_animation_component.html#aa56002fc456a1ba1f166ba2f5d182ca7" target="_top" xlink:title=" ">
<polygon fill="white" stroke="black" points="198,-0.5 198,-30.5 343,-30.5 343,-0.5 198,-0.5"/>
<text text-anchor="start" x="206" y="-18.5" font-family="Helvetica,sans-Serif" font-size="10.00">Obj::CAnimationComponent</text>
<text text-anchor="middle" x="270.5" y="-7.5" font-family="Helvetica,sans-Serif" font-size="10.00">::GetProceduralBoneByName</text>
</a>
</g>
</g>
<!-- Node1&#45;&gt;Node4 -->
<g id="edge3" class="edge"><title>Node1&#45;&gt;Node4</title>
<path fill="none" stroke="midnightblue" d="M162.061,-29.2522C170.574,-28.1625 179.241,-27.0531 187.774,-25.961"/>
<polygon fill="midnightblue" stroke="midnightblue" points="188.236,-29.4305 197.71,-24.6891 187.347,-22.4871 188.236,-29.4305"/>
</g>
<!-- Node3 -->
<g id="node3" class="node"><title>Node3</title>
<g id="a_node3"><a xlink:href="../../d1/d8d/class_gfx_1_1_c_blend_channel.html#adec6862d8df52c197a8a8a93474d51b0" target="_top" xlink:title=" ">
<polygon fill="white" stroke="black" points="379,-49.5 379,-79.5 483,-79.5 483,-49.5 379,-49.5"/>
<text text-anchor="start" x="387" y="-67.5" font-family="Helvetica,sans-Serif" font-size="10.00">Gfx::CBlendChannel</text>
<text text-anchor="middle" x="431" y="-56.5" font-family="Helvetica,sans-Serif" font-size="10.00">::GetObject</text>
</a>
</g>
</g>
<!-- Node2&#45;&gt;Node3 -->
<g id="edge2" class="edge"><title>Node2&#45;&gt;Node3</title>
<path fill="none" stroke="midnightblue" d="M336.425,-64.5C347.18,-64.5 358.299,-64.5 368.953,-64.5"/>
<polygon fill="midnightblue" stroke="midnightblue" points="368.999,-68.0001 378.999,-64.5 368.999,-61.0001 368.999,-68.0001"/>
</g>
</g>
</svg>
