<?xml version="1.0" encoding="UTF-8" standalone="no"?>
<!DOCTYPE svg PUBLIC "-//W3C//DTD SVG 1.1//EN"
 "http://www.w3.org/Graphics/SVG/1.1/DTD/svg11.dtd">
<!-- Generated by graphviz version 2.38.0 (20140413.2041)
 -->
<!-- Title: Nx::CPs2Texture::plat_load_texture Pages: 1 -->
<svg width="275pt" height="284pt"
 viewBox="0.00 0.00 275.00 284.00" xmlns="http://www.w3.org/2000/svg" xmlns:xlink="http://www.w3.org/1999/xlink">
<g id="graph0" class="graph" transform="scale(1 1) rotate(0) translate(4 280)">
<title>Nx::CPs2Texture::plat_load_texture</title>
<polygon fill="white" stroke="none" points="-4,4 -4,-280 271,-280 271,4 -4,4"/>
<!-- Node1 -->
<g id="node1" class="node"><title>Node1</title>
<g id="a_node1"><a xlink:title=" ">
<polygon fill="#bfbfbf" stroke="black" points="0,-122.5 0,-152.5 113,-152.5 113,-122.5 0,-122.5"/>
<text text-anchor="start" x="8" y="-140.5" font-family="Helvetica,sans-Serif" font-size="10.00">Nx::CPs2Texture::plat</text>
<text text-anchor="middle" x="56.5" y="-129.5" font-family="Helvetica,sans-Serif" font-size="10.00">_load_texture</text>
</a>
</g>
</g>
<!-- Node2 -->
<g id="node2" class="node"><title>Node2</title>
<g id="a_node2"><a xlink:href="../../d8/d5f/struct_nx_ps2_1_1_s_single_texture.html#a062e9c7b6b96456f038534b4c11e7b4a" target="_top" xlink:title=" ">
<polygon fill="white" stroke="black" points="149,-245.5 149,-275.5 267,-275.5 267,-245.5 149,-245.5"/>
<text text-anchor="start" x="157" y="-263.5" font-family="Helvetica,sans-Serif" font-size="10.00">NxPs2::SSingleTexture</text>
<text text-anchor="middle" x="208" y="-252.5" font-family="Helvetica,sans-Serif" font-size="10.00">::GetBitdepth</text>
</a>
</g>
</g>
<!-- Node1&#45;&gt;Node2 -->
<g id="edge1" class="edge"><title>Node1&#45;&gt;Node2</title>
<path fill="none" stroke="midnightblue" d="M68.2873,-152.839C83.9345,-174.125 114.819,-212.684 149,-236.5 151.073,-237.945 153.247,-239.324 155.485,-240.639"/>
<polygon fill="midnightblue" stroke="midnightblue" points="153.899,-243.76 164.368,-245.389 157.2,-237.587 153.899,-243.76"/>
</g>
<!-- Node3 -->
<g id="node3" class="node"><title>Node3</title>
<g id="a_node3"><a xlink:href="../../d8/d5f/struct_nx_ps2_1_1_s_single_texture.html#a71f309f5125ca0bc5435299d10e93f0e" target="_top" xlink:title=" ">
<polygon fill="white" stroke="black" points="149,-196.5 149,-226.5 267,-226.5 267,-196.5 149,-196.5"/>
<text text-anchor="start" x="157" y="-214.5" font-family="Helvetica,sans-Serif" font-size="10.00">NxPs2::SSingleTexture</text>
<text text-anchor="middle" x="208" y="-203.5" font-family="Helvetica,sans-Serif" font-size="10.00">::GetClutBitdepth</text>
</a>
</g>
</g>
<!-- Node1&#45;&gt;Node3 -->
<g id="edge2" class="edge"><title>Node1&#45;&gt;Node3</title>
<path fill="none" stroke="midnightblue" d="M83.5358,-152.705C101.636,-163.032 126.465,-176.719 149,-187.5 152.395,-189.124 155.929,-190.747 159.503,-192.338"/>
<polygon fill="midnightblue" stroke="midnightblue" points="158.423,-195.685 168.989,-196.461 161.213,-189.265 158.423,-195.685"/>
</g>
<!-- Node4 -->
<g id="node4" class="node"><title>Node4</title>
<g id="a_node4"><a xlink:href="../../d8/d5f/struct_nx_ps2_1_1_s_single_texture.html#a80f67ad1cad0fc46f4384ada61421b06" target="_top" xlink:title=" ">
<polygon fill="white" stroke="black" points="149,-147.5 149,-177.5 267,-177.5 267,-147.5 149,-147.5"/>
<text text-anchor="start" x="157" y="-165.5" font-family="Helvetica,sans-Serif" font-size="10.00">NxPs2::SSingleTexture</text>
<text text-anchor="middle" x="208" y="-154.5" font-family="Helvetica,sans-Serif" font-size="10.00">::GetNumMipmaps</text>
</a>
</g>
</g>
<!-- Node1&#45;&gt;Node4 -->
<g id="edge3" class="edge"><title>Node1&#45;&gt;Node4</title>
<path fill="none" stroke="midnightblue" d="M113.168,-146.809C121.522,-148.206 130.216,-149.66 138.795,-151.094"/>
<polygon fill="midnightblue" stroke="midnightblue" points="138.344,-154.568 148.785,-152.765 139.499,-147.664 138.344,-154.568"/>
</g>
<!-- Node5 -->
<g id="node5" class="node"><title>Node5</title>
<g id="a_node5"><a xlink:href="../../d8/d5f/struct_nx_ps2_1_1_s_single_texture.html#ad69df151a8b8186cdaad2f39f65cb766" target="_top" xlink:title=" ">
<polygon fill="white" stroke="black" points="149,-98.5 149,-128.5 267,-128.5 267,-98.5 149,-98.5"/>
<text text-anchor="start" x="157" y="-116.5" font-family="Helvetica,sans-Serif" font-size="10.00">NxPs2::SSingleTexture</text>
<text text-anchor="middle" x="208" y="-105.5" font-family="Helvetica,sans-Serif" font-size="10.00">::GetOrigHeight</text>
</a>
</g>
</g>
<!-- Node1&#45;&gt;Node5 -->
<g id="edge4" class="edge"><title>Node1&#45;&gt;Node5</title>
<path fill="none" stroke="midnightblue" d="M113.168,-128.563C121.522,-127.222 130.216,-125.826 138.795,-124.449"/>
<polygon fill="midnightblue" stroke="midnightblue" points="139.466,-127.886 148.785,-122.846 138.356,-120.975 139.466,-127.886"/>
</g>
<!-- Node6 -->
<g id="node6" class="node"><title>Node6</title>
<g id="a_node6"><a xlink:href="../../d8/d5f/struct_nx_ps2_1_1_s_single_texture.html#aad93fadd66ebfff3cae039b757e648f8" target="_top" xlink:title=" ">
<polygon fill="white" stroke="black" points="149,-49.5 149,-79.5 267,-79.5 267,-49.5 149,-49.5"/>
<text text-anchor="start" x="157" y="-67.5" font-family="Helvetica,sans-Serif" font-size="10.00">NxPs2::SSingleTexture</text>
<text text-anchor="middle" x="208" y="-56.5" font-family="Helvetica,sans-Serif" font-size="10.00">::GetOrigWidth</text>
</a>
</g>
</g>
<!-- Node1&#45;&gt;Node6 -->
<g id="edge5" class="edge"><title>Node1&#45;&gt;Node6</title>
<path fill="none" stroke="midnightblue" d="M84.8513,-122.454C102.892,-112.704 127.142,-99.9255 149,-89.5 153.062,-87.5624 157.313,-85.6034 161.587,-83.6798"/>
<polygon fill="midnightblue" stroke="midnightblue" points="163.192,-86.7969 170.918,-79.5469 160.358,-80.3966 163.192,-86.7969"/>
</g>
<!-- Node7 -->
<g id="node7" class="node"><title>Node7</title>
<g id="a_node7"><a xlink:href="../../d8/d5f/struct_nx_ps2_1_1_s_single_texture.html#afd1eb7af6bf7be56d27afa86586fd081" target="_top" xlink:title=" ">
<polygon fill="white" stroke="black" points="149,-0.5 149,-30.5 267,-30.5 267,-0.5 149,-0.5"/>
<text text-anchor="start" x="157" y="-18.5" font-family="Helvetica,sans-Serif" font-size="10.00">NxPs2::SSingleTexture</text>
<text text-anchor="middle" x="208" y="-7.5" font-family="Helvetica,sans-Serif" font-size="10.00">::IsTransparent</text>
</a>
</g>
</g>
<!-- Node1&#45;&gt;Node7 -->
<g id="edge6" class="edge"><title>Node1&#45;&gt;Node7</title>
<path fill="none" stroke="midnightblue" d="M68.6727,-122.203C84.5413,-101.374 115.432,-63.9998 149,-40.5 151.65,-38.6449 154.459,-36.8854 157.356,-35.2241"/>
<polygon fill="midnightblue" stroke="midnightblue" points="159.027,-38.2999 166.237,-30.5371 155.76,-32.1091 159.027,-38.2999"/>
</g>
</g>
</svg>
