<?xml version="1.0" encoding="UTF-8" standalone="no"?>
<!DOCTYPE svg PUBLIC "-//W3C//DTD SVG 1.1//EN"
 "http://www.w3.org/Graphics/SVG/1.1/DTD/svg11.dtd">
<!-- Generated by graphviz version 2.38.0 (20140413.2041)
 -->
<!-- Title: Mdl::Skate::remove_skater Pages: 1 -->
<svg width="709pt" height="225pt"
 viewBox="0.00 0.00 709.00 225.00" xmlns="http://www.w3.org/2000/svg" xmlns:xlink="http://www.w3.org/1999/xlink">
<g id="graph0" class="graph" transform="scale(1 1) rotate(0) translate(4 221)">
<title>Mdl::Skate::remove_skater</title>
<polygon fill="white" stroke="none" points="-4,4 -4,-221 705,-221 705,4 -4,4"/>
<!-- Node1 -->
<g id="node1" class="node"><title>Node1</title>
<g id="a_node1"><a xlink:title=" ">
<polygon fill="#bfbfbf" stroke="black" points="600,-98.5 600,-128.5 701,-128.5 701,-98.5 600,-98.5"/>
<text text-anchor="start" x="608" y="-116.5" font-family="Helvetica,sans-Serif" font-size="10.00">Mdl::Skate::remove</text>
<text text-anchor="middle" x="650.5" y="-105.5" font-family="Helvetica,sans-Serif" font-size="10.00">_skater</text>
</a>
</g>
</g>
<!-- Node2 -->
<g id="node2" class="node"><title>Node2</title>
<g id="a_node2"><a xlink:href="../../d2/d8e/class_game_net_1_1_manager.html#a50b612961c727c2ca79d50653b3986c2" target="_top" xlink:title=" ">
<polygon fill="white" stroke="black" points="386,-186.5 386,-216.5 549,-216.5 549,-186.5 386,-186.5"/>
<text text-anchor="start" x="394" y="-204.5" font-family="Helvetica,sans-Serif" font-size="10.00">GameNet::Manager::DropPartially</text>
<text text-anchor="middle" x="467.5" y="-193.5" font-family="Helvetica,sans-Serif" font-size="10.00">LoadedPlayers</text>
</a>
</g>
</g>
<!-- Node1&#45;&gt;Node2 -->
<g id="edge1" class="edge"><title>Node1&#45;&gt;Node2</title>
<path fill="none" stroke="midnightblue" d="M625.143,-135.367C608.859,-148.954 586.386,-165.809 564,-176.5 555.958,-180.341 547.243,-183.652 538.459,-186.492"/>
<polygon fill="midnightblue" stroke="midnightblue" points="627.727,-137.763 633.061,-128.609 623.183,-132.438 627.727,-137.763"/>
</g>
<!-- Node4 -->
<g id="node4" class="node"><title>Node4</title>
<g id="a_node4"><a xlink:href="../../d2/d8e/class_game_net_1_1_manager.html#a89978e410ac60206ddcdb6bfc6cddb78" target="_top" xlink:title=" ">
<polygon fill="white" stroke="black" points="371,-148 371,-167 564,-167 564,-148 371,-148"/>
<text text-anchor="middle" x="467.5" y="-155" font-family="Helvetica,sans-Serif" font-size="10.00">GameNet::Manager::EnterObserverMode</text>
</a>
</g>
</g>
<!-- Node1&#45;&gt;Node4 -->
<g id="edge3" class="edge"><title>Node1&#45;&gt;Node4</title>
<path fill="none" stroke="midnightblue" d="M591.159,-131.301C582.102,-133.849 572.825,-136.336 564,-138.5 550.044,-141.922 534.828,-145.166 520.726,-147.973"/>
<polygon fill="midnightblue" stroke="midnightblue" points="592.217,-134.639 600.869,-128.524 590.292,-127.909 592.217,-134.639"/>
</g>
<!-- Node5 -->
<g id="node5" class="node"><title>Node5</title>
<g id="a_node5"><a xlink:href="../../d2/d8e/class_game_net_1_1_manager.html#a23f65b1f3223e83ab74672bfdc6f0772" target="_top" xlink:title=" ">
<polygon fill="white" stroke="black" points="406,-98.5 406,-128.5 529,-128.5 529,-98.5 406,-98.5"/>
<text text-anchor="start" x="414" y="-116.5" font-family="Helvetica,sans-Serif" font-size="10.00">GameNet::Manager::free</text>
<text text-anchor="middle" x="467.5" y="-105.5" font-family="Helvetica,sans-Serif" font-size="10.00">_all_players</text>
</a>
</g>
</g>
<!-- Node1&#45;&gt;Node5 -->
<g id="edge4" class="edge"><title>Node1&#45;&gt;Node5</title>
<path fill="none" stroke="midnightblue" d="M589.364,-113.5C570.029,-113.5 548.603,-113.5 529.227,-113.5"/>
<polygon fill="midnightblue" stroke="midnightblue" points="589.562,-117 599.562,-113.5 589.562,-110 589.562,-117"/>
</g>
<!-- Node9 -->
<g id="node9" class="node"><title>Node9</title>
<g id="a_node9"><a xlink:href="../../d2/d8e/class_game_net_1_1_manager.html#a4eb962fbf1198b58f50def3f28bdd37d" target="_top" xlink:title=" ">
<polygon fill="white" stroke="black" points="401,-49.5 401,-79.5 534,-79.5 534,-49.5 401,-49.5"/>
<text text-anchor="start" x="409" y="-67.5" font-family="Helvetica,sans-Serif" font-size="10.00">GameNet::Manager::Script</text>
<text text-anchor="middle" x="467.5" y="-56.5" font-family="Helvetica,sans-Serif" font-size="10.00">BanPlayer</text>
</a>
</g>
</g>
<!-- Node1&#45;&gt;Node9 -->
<g id="edge8" class="edge"><title>Node1&#45;&gt;Node9</title>
<path fill="none" stroke="midnightblue" d="M590.052,-96.6675C581.322,-94.2378 572.433,-91.7871 564,-89.5 551.925,-86.2251 538.971,-82.785 526.621,-79.5403"/>
<polygon fill="midnightblue" stroke="midnightblue" points="589.236,-100.073 599.809,-99.3919 591.119,-93.3313 589.236,-100.073"/>
</g>
<!-- Node10 -->
<g id="node10" class="node"><title>Node10</title>
<g id="a_node10"><a xlink:href="../../d2/d8e/class_game_net_1_1_manager.html#a250b8749b2e4409df54555e0c50924aa" target="_top" xlink:title=" ">
<polygon fill="white" stroke="black" points="401,-0.5 401,-30.5 534,-30.5 534,-0.5 401,-0.5"/>
<text text-anchor="start" x="409" y="-18.5" font-family="Helvetica,sans-Serif" font-size="10.00">GameNet::Manager::Script</text>
<text text-anchor="middle" x="467.5" y="-7.5" font-family="Helvetica,sans-Serif" font-size="10.00">KickPlayer</text>
</a>
</g>
</g>
<!-- Node1&#45;&gt;Node10 -->
<g id="edge9" class="edge"><title>Node1&#45;&gt;Node10</title>
<path fill="none" stroke="midnightblue" d="M628.574,-90.8228C612.404,-74.5839 588.68,-53.3914 564,-40.5 554.734,-35.6597 544.461,-31.7066 534.187,-28.4928"/>
<polygon fill="midnightblue" stroke="midnightblue" points="626.397,-93.6053 635.876,-98.3386 631.418,-88.7273 626.397,-93.6053"/>
</g>
<!-- Node3 -->
<g id="node3" class="node"><title>Node3</title>
<g id="a_node3"><a xlink:href="../../d2/d8e/class_game_net_1_1_manager.html#a0f1d80906babafc9c3e4da5ac5497936" target="_top" xlink:title=" ">
<polygon fill="white" stroke="black" points="197,-186.5 197,-216.5 330,-216.5 330,-186.5 197,-186.5"/>
<text text-anchor="start" x="205" y="-204.5" font-family="Helvetica,sans-Serif" font-size="10.00">GameNet::Manager::Script</text>
<text text-anchor="middle" x="263.5" y="-193.5" font-family="Helvetica,sans-Serif" font-size="10.00">DropPendingPlayers</text>
</a>
</g>
</g>
<!-- Node2&#45;&gt;Node3 -->
<g id="edge2" class="edge"><title>Node2&#45;&gt;Node3</title>
<path fill="none" stroke="midnightblue" d="M375.765,-201.5C360.411,-201.5 344.738,-201.5 330.184,-201.5"/>
<polygon fill="midnightblue" stroke="midnightblue" points="375.793,-205 385.793,-201.5 375.793,-198 375.793,-205"/>
</g>
<!-- Node6 -->
<g id="node6" class="node"><title>Node6</title>
<g id="a_node6"><a xlink:href="../../d2/d8e/class_game_net_1_1_manager.html#aa7e48fe50a1d0f8edd499d1871fe7ced" target="_top" xlink:title=" ">
<polygon fill="white" stroke="black" points="192,-98.5 192,-128.5 335,-128.5 335,-98.5 192,-98.5"/>
<text text-anchor="start" x="200" y="-116.5" font-family="Helvetica,sans-Serif" font-size="10.00">GameNet::Manager::Cleanup</text>
<text text-anchor="middle" x="263.5" y="-105.5" font-family="Helvetica,sans-Serif" font-size="10.00">Players</text>
</a>
</g>
</g>
<!-- Node5&#45;&gt;Node6 -->
<g id="edge5" class="edge"><title>Node5&#45;&gt;Node6</title>
<path fill="none" stroke="midnightblue" d="M395.767,-113.5C376.074,-113.5 354.689,-113.5 335.008,-113.5"/>
<polygon fill="midnightblue" stroke="midnightblue" points="395.893,-117 405.893,-113.5 395.893,-110 395.893,-117"/>
</g>
<!-- Node7 -->
<g id="node7" class="node"><title>Node7</title>
<g id="a_node7"><a xlink:href="../../d2/d8e/class_game_net_1_1_manager.html#a68f3440c541cd98cf65f0add7bcc4041" target="_top" xlink:title=" ">
<polygon fill="white" stroke="black" points="0,-120.5 0,-150.5 156,-150.5 156,-120.5 0,-120.5"/>
<text text-anchor="start" x="8" y="-138.5" font-family="Helvetica,sans-Serif" font-size="10.00">GameNet::Manager::Disconnect</text>
<text text-anchor="middle" x="78" y="-127.5" font-family="Helvetica,sans-Serif" font-size="10.00">FromServer</text>
</a>
</g>
</g>
<!-- Node6&#45;&gt;Node7 -->
<g id="edge6" class="edge"><title>Node6&#45;&gt;Node7</title>
<path fill="none" stroke="midnightblue" d="M181.838,-123.171C173.271,-124.198 164.574,-125.24 156.05,-126.262"/>
<polygon fill="midnightblue" stroke="midnightblue" points="182.304,-126.64 191.817,-121.974 181.471,-119.69 182.304,-126.64"/>
</g>
<!-- Node8 -->
<g id="node8" class="node"><title>Node8</title>
<g id="a_node8"><a xlink:href="../../d4/d0a/namespace_mdl.html#abe544560fa8622c6524275e45c8753a1" target="_top" xlink:title=" ">
<polygon fill="white" stroke="black" points="9.5,-82 9.5,-101 146.5,-101 146.5,-82 9.5,-82"/>
<text text-anchor="middle" x="78" y="-89" font-family="Helvetica,sans-Serif" font-size="10.00">Mdl::HostQuitDialogHandler</text>
</a>
</g>
</g>
<!-- Node6&#45;&gt;Node8 -->
<g id="edge7" class="edge"><title>Node6&#45;&gt;Node8</title>
<path fill="none" stroke="midnightblue" d="M181.629,-103.804C169.944,-102.403 158.02,-100.974 146.63,-99.6082"/>
<polygon fill="midnightblue" stroke="midnightblue" points="181.471,-107.31 191.817,-105.026 182.304,-100.36 181.471,-107.31"/>
</g>
</g>
</svg>
