<?xml version="1.0" encoding="UTF-8" standalone="no"?>
<!DOCTYPE svg PUBLIC "-//W3C//DTD SVG 1.1//EN"
 "http://www.w3.org/Graphics/SVG/1.1/DTD/svg11.dtd">
<!-- Generated by graphviz version 2.38.0 (20140413.2041)
 -->
<!-- Title: Obj::CParticleComponent::CParticleComponent Pages: 1 -->
<svg width="287pt" height="78pt"
 viewBox="0.00 0.00 287.00 77.50" xmlns="http://www.w3.org/2000/svg" xmlns:xlink="http://www.w3.org/1999/xlink">
<g id="graph0" class="graph" transform="scale(1 1) rotate(0) translate(4 73.5)">
<title>Obj::CParticleComponent::CParticleComponent</title>
<polygon fill="white" stroke="none" points="-4,4 -4,-73.5 283,-73.5 283,4 -4,4"/>
<!-- Node1 -->
<g id="node1" class="node"><title>Node1</title>
<g id="a_node1"><a xlink:title=" ">
<polygon fill="#bfbfbf" stroke="black" points="0,-22.5 0,-52.5 127,-52.5 127,-22.5 0,-22.5"/>
<text text-anchor="start" x="8" y="-40.5" font-family="Helvetica,sans-Serif" font-size="10.00">Obj::CParticleComponent</text>
<text text-anchor="middle" x="63.5" y="-29.5" font-family="Helvetica,sans-Serif" font-size="10.00">::CParticleComponent</text>
</a>
</g>
</g>
<!-- Node2 -->
<g id="node2" class="node"><title>Node2</title>
<g id="a_node2"><a xlink:href="../../d1/d0d/namespace_tmr.html#a73fa70536cd356e6914161cb7737fd65" target="_top" xlink:title=" ">
<polygon fill="white" stroke="black" points="183,-50 183,-69 259,-69 259,-50 183,-50"/>
<text text-anchor="middle" x="221" y="-57" font-family="Helvetica,sans-Serif" font-size="10.00">Tmr::GetTime</text>
</a>
</g>
</g>
<!-- Node1&#45;&gt;Node2 -->
<g id="edge1" class="edge"><title>Node1&#45;&gt;Node2</title>
<path fill="none" stroke="midnightblue" d="M127.3,-46.3848C142.493,-48.5344 158.478,-50.7959 172.814,-52.8242"/>
<polygon fill="midnightblue" stroke="midnightblue" points="172.535,-56.3195 182.927,-54.2549 173.516,-49.3885 172.535,-56.3195"/>
</g>
<!-- Node3 -->
<g id="node3" class="node"><title>Node3</title>
<g id="a_node3"><a xlink:href="../../d0/d7e/class_obj_1_1_c_base_component.html#a880a8b9b7ec5b22563c6821ae0f1903e" target="_top" xlink:title=" ">
<polygon fill="white" stroke="black" points="163,-0.5 163,-30.5 279,-30.5 279,-0.5 163,-0.5"/>
<text text-anchor="start" x="171" y="-18.5" font-family="Helvetica,sans-Serif" font-size="10.00">Obj::CBaseComponent</text>
<text text-anchor="middle" x="221" y="-7.5" font-family="Helvetica,sans-Serif" font-size="10.00">::SetType</text>
</a>
</g>
</g>
<!-- Node1&#45;&gt;Node3 -->
<g id="edge2" class="edge"><title>Node1&#45;&gt;Node3</title>
<path fill="none" stroke="midnightblue" d="M127.3,-28.6152C135.781,-27.4152 144.51,-26.1803 153.06,-24.9706"/>
<polygon fill="midnightblue" stroke="midnightblue" points="153.58,-28.432 162.991,-23.5656 152.599,-21.501 153.58,-28.432"/>
</g>
</g>
</svg>
