<?xml version="1.0" encoding="UTF-8" standalone="no"?>
<!DOCTYPE svg PUBLIC "-//W3C//DTD SVG 1.1//EN"
 "http://www.w3.org/Graphics/SVG/1.1/DTD/svg11.dtd">
<!-- Generated by graphviz version 2.38.0 (20140413.2041)
 -->
<!-- Title: Replay::CDummy::GetSkeleton Pages: 1 -->
<svg width="1019pt" height="104pt"
 viewBox="0.00 0.00 1019.00 104.00" xmlns="http://www.w3.org/2000/svg" xmlns:xlink="http://www.w3.org/1999/xlink">
<g id="graph0" class="graph" transform="scale(1 1) rotate(0) translate(4 100)">
<title>Replay::CDummy::GetSkeleton</title>
<polygon fill="white" stroke="none" points="-4,4 -4,-100 1015,-100 1015,4 -4,4"/>
<!-- Node1 -->
<g id="node1" class="node"><title>Node1</title>
<g id="a_node1"><a xlink:title=" ">
<polygon fill="#bfbfbf" stroke="black" points="858,-38.5 858,-57.5 1011,-57.5 1011,-38.5 858,-38.5"/>
<text text-anchor="middle" x="934.5" y="-45.5" font-family="Helvetica,sans-Serif" font-size="10.00">Replay::CDummy::GetSkeleton</text>
</a>
</g>
</g>
<!-- Node2 -->
<g id="node2" class="node"><title>Node2</title>
<g id="a_node2"><a xlink:href="../../d3/d7d/class_replay_1_1_c_dummy.html#a9fbff2972a978e124791889a5fd4e1a9" target="_top" xlink:title=" ">
<polygon fill="white" stroke="black" points="668,-76.5 668,-95.5 822,-95.5 822,-76.5 668,-76.5"/>
<text text-anchor="middle" x="745" y="-83.5" font-family="Helvetica,sans-Serif" font-size="10.00">Replay::CDummy::CreateModel</text>
</a>
</g>
</g>
<!-- Node1&#45;&gt;Node2 -->
<g id="edge1" class="edge"><title>Node1&#45;&gt;Node2</title>
<path fill="none" stroke="midnightblue" d="M876.216,-59.6095C849.549,-65.014 818.219,-71.3635 792.974,-76.4799"/>
<polygon fill="midnightblue" stroke="midnightblue" points="877.08,-63.0056 886.186,-57.589 875.69,-56.1451 877.08,-63.0056"/>
</g>
<!-- Node3 -->
<g id="node3" class="node"><title>Node3</title>
<g id="a_node3"><a xlink:href="../../d9/d29/namespace_replay.html#ab958f356e35a428381832faece7332ce" target="_top" xlink:title=" ">
<polygon fill="white" stroke="black" points="499,-38.5 499,-57.5 607,-57.5 607,-38.5 499,-38.5"/>
<text text-anchor="middle" x="553" y="-45.5" font-family="Helvetica,sans-Serif" font-size="10.00">Replay::sReadFrame</text>
</a>
</g>
</g>
<!-- Node1&#45;&gt;Node3 -->
<g id="edge9" class="edge"><title>Node1&#45;&gt;Node3</title>
<path fill="none" stroke="midnightblue" d="M847.4,-48C773.538,-48 669.445,-48 607.15,-48"/>
<polygon fill="midnightblue" stroke="midnightblue" points="847.615,-51.5001 857.615,-48 847.615,-44.5001 847.615,-51.5001"/>
</g>
<!-- Node8 -->
<g id="node8" class="node"><title>Node8</title>
<g id="a_node8"><a xlink:href="../../d3/d7d/class_replay_1_1_c_dummy.html#a7c3e63b114a36070f28cd9ade1a02b22" target="_top" xlink:title=" ">
<polygon fill="white" stroke="black" points="474,-0.5 474,-19.5 632,-19.5 632,-0.5 474,-0.5"/>
<text text-anchor="middle" x="553" y="-7.5" font-family="Helvetica,sans-Serif" font-size="10.00">Replay::CDummy::DisplayModel</text>
</a>
</g>
</g>
<!-- Node1&#45;&gt;Node8 -->
<g id="edge7" class="edge"><title>Node1&#45;&gt;Node8</title>
<path fill="none" stroke="midnightblue" d="M847.432,-39.3819C782.698,-32.8999 694.731,-24.0917 632.035,-17.8138"/>
<polygon fill="midnightblue" stroke="midnightblue" points="847.316,-42.8876 857.615,-40.4015 848.013,-35.9225 847.316,-42.8876"/>
</g>
<!-- Node2&#45;&gt;Node3 -->
<g id="edge2" class="edge"><title>Node2&#45;&gt;Node3</title>
<path fill="none" stroke="midnightblue" d="M685.952,-74.3905C658.93,-68.986 627.182,-62.6365 601.6,-57.5201"/>
<polygon fill="midnightblue" stroke="midnightblue" points="685.563,-77.8818 696.055,-76.411 686.936,-71.0177 685.563,-77.8818"/>
</g>
<!-- Node4 -->
<g id="node4" class="node"><title>Node4</title>
<g id="a_node4"><a xlink:href="../../d9/d29/namespace_replay.html#a87e015fff19e95eb8991d6f168e06823" target="_top" xlink:title=" ">
<polygon fill="white" stroke="black" points="295,-38.5 295,-57.5 438,-57.5 438,-38.5 295,-38.5"/>
<text text-anchor="middle" x="366.5" y="-45.5" font-family="Helvetica,sans-Serif" font-size="10.00">Replay::sMakeEnoughSpace</text>
</a>
</g>
</g>
<!-- Node3&#45;&gt;Node4 -->
<g id="edge3" class="edge"><title>Node3&#45;&gt;Node4</title>
<path fill="none" stroke="midnightblue" d="M488.248,-48C472.123,-48 454.71,-48 438.262,-48"/>
<polygon fill="midnightblue" stroke="midnightblue" points="488.635,-51.5001 498.635,-48 488.635,-44.5001 488.635,-51.5001"/>
</g>
<!-- Node7 -->
<g id="node7" class="node"><title>Node7</title>
<g id="a_node7"><a xlink:href="../../d9/d29/namespace_replay.html#a7c426768aee4425e84f478183ed653be" target="_top" xlink:title=" ">
<polygon fill="white" stroke="black" points="317.5,-0.5 317.5,-19.5 415.5,-19.5 415.5,-0.5 317.5,-0.5"/>
<text text-anchor="middle" x="366.5" y="-7.5" font-family="Helvetica,sans-Serif" font-size="10.00">Replay::sPlayback</text>
</a>
</g>
</g>
<!-- Node3&#45;&gt;Node7 -->
<g id="edge6" class="edge"><title>Node3&#45;&gt;Node7</title>
<path fill="none" stroke="midnightblue" d="M495.633,-36.3905C469.393,-30.986 438.564,-24.6365 413.722,-19.5201"/>
<polygon fill="midnightblue" stroke="midnightblue" points="494.942,-39.8217 505.443,-38.411 496.355,-32.9656 494.942,-39.8217"/>
</g>
<!-- Node5 -->
<g id="node5" class="node"><title>Node5</title>
<g id="a_node5"><a xlink:href="../../d9/d29/namespace_replay.html#a5f4fc112127bbc87811481da0684a15b" target="_top" xlink:title=" ">
<polygon fill="white" stroke="black" points="125,-33 125,-63 259,-63 259,-33 125,-33"/>
<text text-anchor="start" x="133" y="-51" font-family="Helvetica,sans-Serif" font-size="10.00">Replay::sWriteFrameBuffer</text>
<text text-anchor="middle" x="192" y="-40" font-family="Helvetica,sans-Serif" font-size="10.00">ToBigBuffer</text>
</a>
</g>
</g>
<!-- Node4&#45;&gt;Node5 -->
<g id="edge4" class="edge"><title>Node4&#45;&gt;Node5</title>
<path fill="none" stroke="midnightblue" d="M284.795,-48C276.191,-48 267.513,-48 259.106,-48"/>
<polygon fill="midnightblue" stroke="midnightblue" points="284.84,-51.5001 294.84,-48 284.84,-44.5001 284.84,-51.5001"/>
</g>
<!-- Node6 -->
<g id="node6" class="node"><title>Node6</title>
<g id="a_node6"><a xlink:href="../../d9/d29/namespace_replay.html#a53570fbf15aa6e28548d69a1b6c7a1b9" target="_top" xlink:title=" ">
<polygon fill="white" stroke="black" points="0,-38.5 0,-57.5 89,-57.5 89,-38.5 0,-38.5"/>
<text text-anchor="middle" x="44.5" y="-45.5" font-family="Helvetica,sans-Serif" font-size="10.00">Replay::sRecord</text>
</a>
</g>
</g>
<!-- Node5&#45;&gt;Node6 -->
<g id="edge5" class="edge"><title>Node5&#45;&gt;Node6</title>
<path fill="none" stroke="midnightblue" d="M114.492,-48C105.854,-48 97.2861,-48 89.2781,-48"/>
<polygon fill="midnightblue" stroke="midnightblue" points="114.637,-51.5001 124.637,-48 114.637,-44.5001 114.637,-51.5001"/>
</g>
<!-- Node8&#45;&gt;Node7 -->
<g id="edge8" class="edge"><title>Node8&#45;&gt;Node7</title>
<path fill="none" stroke="midnightblue" d="M463.518,-10C447.012,-10 430.344,-10 415.635,-10"/>
<polygon fill="midnightblue" stroke="midnightblue" points="463.755,-13.5001 473.755,-10 463.755,-6.5001 463.755,-13.5001"/>
</g>
</g>
</svg>
