<?xml version="1.0" encoding="UTF-8" standalone="no"?>
<!DOCTYPE svg PUBLIC "-//W3C//DTD SVG 1.1//EN"
 "http://www.w3.org/Graphics/SVG/1.1/DTD/svg11.dtd">
<!-- Generated by graphviz version 2.38.0 (20140413.2041)
 -->
<!-- Title: GameNet::LastSentProps Pages: 1 -->
<svg width="197pt" height="173pt"
 viewBox="0.00 0.00 197.00 173.00" xmlns="http://www.w3.org/2000/svg" xmlns:xlink="http://www.w3.org/1999/xlink">
<g id="graph0" class="graph" transform="scale(1 1) rotate(0) translate(4 169)">
<title>GameNet::LastSentProps</title>
<polygon fill="white" stroke="none" points="-4,4 -4,-169 193,-169 193,4 -4,4"/>
<!-- Node1 -->
<g id="node1" class="node"><title>Node1</title>
<g id="a_node1"><a xlink:title=" ">
<polygon fill="#bfbfbf" stroke="black" points="0,-0.5 0,-19.5 128,-19.5 128,-0.5 0,-0.5"/>
<text text-anchor="middle" x="64" y="-7.5" font-family="Helvetica,sans-Serif" font-size="10.00">GameNet::LastSentProps</text>
</a>
</g>
</g>
<!-- Node2 -->
<g id="node2" class="node"><title>Node2</title>
<g id="a_node2"><a xlink:href="../../db/d82/class_flags.html" target="_top" xlink:title=" ">
<polygon fill="white" stroke="black" points="29.5,-78.5 29.5,-97.5 98.5,-97.5 98.5,-78.5 29.5,-78.5"/>
<text text-anchor="middle" x="64" y="-85.5" font-family="Helvetica,sans-Serif" font-size="10.00">Flags&lt; int &gt;</text>
</a>
</g>
</g>
<!-- Node2&#45;&gt;Node1 -->
<g id="edge1" class="edge"><title>Node2&#45;&gt;Node1</title>
<path fill="none" stroke="#9a32cd" stroke-dasharray="5,2" d="M64,-68.2239C64,-52.6974 64,-31.3582 64,-19.6165"/>
<polygon fill="#9a32cd" stroke="#9a32cd" points="60.5001,-68.2818 64,-78.2818 67.5001,-68.2819 60.5001,-68.2818"/>
<text text-anchor="middle" x="126.5" y="-52" font-family="Helvetica,sans-Serif" font-size="10.00"> m_LastEndRunFlagsUpdate</text>
<text text-anchor="middle" x="126.5" y="-41" font-family="Helvetica,sans-Serif" font-size="10.00">m_LastSkaterFlagsUpdate</text>
</g>
<!-- Node3 -->
<g id="node3" class="node"><title>Node3</title>
<g id="a_node3"><a xlink:href="../../db/d82/class_flags.html" target="_top" xlink:title=" ">
<polygon fill="white" stroke="black" points="29.5,-145.5 29.5,-164.5 98.5,-164.5 98.5,-145.5 29.5,-145.5"/>
<text text-anchor="middle" x="64" y="-152.5" font-family="Helvetica,sans-Serif" font-size="10.00">Flags&lt; _T &gt;</text>
</a>
</g>
</g>
<!-- Node3&#45;&gt;Node2 -->
<g id="edge2" class="edge"><title>Node3&#45;&gt;Node2</title>
<path fill="none" stroke="orange" stroke-dasharray="5,2" d="M64,-135.037C64,-122.67 64,-107.12 64,-97.6273"/>
<polygon fill="orange" stroke="orange" points="60.5001,-135.234 64,-145.234 67.5001,-135.234 60.5001,-135.234"/>
<text text-anchor="middle" x="80" y="-119" font-family="Helvetica,sans-Serif" font-size="10.00"> &lt; int &gt;</text>
</g>
</g>
</svg>
