<?xml version="1.0" encoding="UTF-8" standalone="no"?>
<!DOCTYPE svg PUBLIC "-//W3C//DTD SVG 1.1//EN"
 "http://www.w3.org/Graphics/SVG/1.1/DTD/svg11.dtd">
<!-- Generated by graphviz version 2.38.0 (20140413.2041)
 -->
<!-- Title: Pcm::SWadInfo::LoadHeader Pages: 1 -->
<!--zoomable 474 -->
<svg id="main" version="1.1" xmlns="http://www.w3.org/2000/svg" xmlns:xlink="http://www.w3.org/1999/xlink" xml:space="preserve" onload="init(evt)">
<style type="text/css"><![CDATA[
.edge:hover path { stroke: red; }
.edge:hover polygon { stroke: red; fill: red; }
]]></style>
<script type="text/javascript"><![CDATA[
var edges = document.getElementsByTagName('g');
if (edges && edges.length) {
  for (var i=0;i<edges.length;i++) {
    if (edges[i].id.substr(0,4)=='edge') {
      edges[i].setAttribute('class','edge');
    }
  }
}
]]></script>
        <defs>
                <circle id="rim" cx="0" cy="0" r="7"/>
                <circle id="rim2" cx="0" cy="0" r="3.5"/>
                <g id="zoomPlus">
                        <use xlink:href="#rim" fill="#404040">
                                <set attributeName="fill" to="#808080" begin="zoomplus.mouseover" end="zoomplus.mouseout"/>
                        </use>
                        <path d="M-4,0h8M0,-4v8" fill="none" stroke="white" stroke-width="1.5" pointer-events="none"/>
                </g>
                <g id="zoomMin">
                        <use xlink:href="#rim" fill="#404040">
                                <set attributeName="fill" to="#808080" begin="zoomminus.mouseover" end="zoomminus.mouseout"/>
                        </use>
                        <path d="M-4,0h8" fill="none" stroke="white" stroke-width="1.5" pointer-events="none"/>
                </g>
                <g id="dirArrow">
                        <path fill="none" stroke="white" stroke-width="1.5" d="M0,-3.0v7 M-2.5,-0.5L0,-3.0L2.5,-0.5"/>
                </g>
               <g id="resetDef">
                       <use xlink:href="#rim2" fill="#404040">
                               <set attributeName="fill" to="#808080" begin="reset.mouseover" end="reset.mouseout"/>
                       </use>
               </g>
        </defs>

<script type="text/javascript">
var viewWidth = 808;
var viewHeight = 474;
var sectionId = 'dynsection-1';
</script>
<script xlink:href="../../svgpan.js"/>
<svg id="graph" class="graph">
<g id="viewport">
<title>Pcm::SWadInfo::LoadHeader</title>
<polygon fill="white" stroke="none" points="-4,4 -4,-469.615 804,-469.615 804,4 -4,4"/>
<!-- Node1 -->
<g id="node1" class="node"><title>Node1</title>
<g id="a_node1"><a xlink:title=" ">
<polygon fill="#bfbfbf" stroke="black" points="0,-351.5 0,-370.5 143,-370.5 143,-351.5 0,-351.5"/>
<text text-anchor="middle" x="71.5" y="-358.5" font-family="Helvetica,sans-Serif" font-size="10.00">Pcm::SWadInfo::LoadHeader</text>
</a>
</g>
</g>
<!-- Node2 -->
<g id="node2" class="node"><title>Node2</title>
<g id="a_node2"><a xlink:href="../../d0/d31/namespace_config.html#a417f0cda0d89952b0a8d74e3ad505781" target="_top" xlink:title=" ">
<polygon fill="white" stroke="black" points="532.5,-437.5 532.5,-456.5 595.5,-456.5 595.5,-437.5 532.5,-437.5"/>
<text text-anchor="middle" x="564" y="-444.5" font-family="Helvetica,sans-Serif" font-size="10.00">Config::CD</text>
</a>
</g>
</g>
<!-- Node1&#45;&gt;Node2 -->
<g id="edge1" class="edge"><title>Node1&#45;&gt;Node2</title>
<path fill="none" stroke="midnightblue" d="M81.9857,-370.645C99.3882,-387.624 138.375,-422.431 179,-437 297.767,-479.592 450.721,-464.691 522.462,-454.014"/>
<polygon fill="midnightblue" stroke="midnightblue" points="523.093,-457.458 532.444,-452.476 522.028,-450.539 523.093,-457.458"/>
</g>
<!-- Node3 -->
<g id="node3" class="node"><title>Node3</title>
<g id="a_node3"><a xlink:href="../../df/de2/_messages_8h.html#a701d7b9cdd94e5f87bc47f4e770492e6" target="_top" xlink:title=" ">
<polygon fill="white" stroke="black" points="194,-408.5 194,-427.5 273,-427.5 273,-408.5 194,-408.5"/>
<text text-anchor="middle" x="233.5" y="-415.5" font-family="Helvetica,sans-Serif" font-size="10.00">Dbg_Message</text>
</a>
</g>
</g>
<!-- Node1&#45;&gt;Node3 -->
<g id="edge2" class="edge"><title>Node1&#45;&gt;Node3</title>
<path fill="none" stroke="midnightblue" d="M99.1945,-370.537C120.733,-378.229 151.813,-389.322 179,-399 184.532,-400.969 190.387,-403.051 196.115,-405.086"/>
<polygon fill="midnightblue" stroke="midnightblue" points="194.96,-408.39 205.555,-408.439 197.303,-401.794 194.96,-408.39"/>
</g>
<!-- Node4 -->
<g id="node4" class="node"><title>Node4</title>
<g id="a_node4"><a xlink:href="../../db/dc4/namespace_mem.html#aeedb606ea94a3398fdcfa3101c5ea8d9" target="_top" xlink:title=" ">
<polygon fill="white" stroke="black" points="201.5,-370.5 201.5,-389.5 265.5,-389.5 265.5,-370.5 201.5,-370.5"/>
<text text-anchor="middle" x="233.5" y="-377.5" font-family="Helvetica,sans-Serif" font-size="10.00">Mem::Free</text>
</a>
</g>
</g>
<!-- Node1&#45;&gt;Node4 -->
<g id="edge3" class="edge"><title>Node1&#45;&gt;Node4</title>
<path fill="none" stroke="midnightblue" d="M143.144,-369.389C159.581,-371.341 176.552,-373.356 191.23,-375.099"/>
<polygon fill="midnightblue" stroke="midnightblue" points="191.13,-378.612 201.473,-376.315 191.955,-371.661 191.13,-378.612"/>
</g>
<!-- Node5 -->
<g id="node5" class="node"><title>Node5</title>
<g id="a_node5"><a xlink:href="../../de/d3e/namespace_pcm.html#a8e010eef3e9a88aa837d27415388d9f4" target="_top" xlink:title=" ">
<polygon fill="white" stroke="black" points="179,-332.5 179,-351.5 288,-351.5 288,-332.5 179,-332.5"/>
<text text-anchor="middle" x="233.5" y="-339.5" font-family="Helvetica,sans-Serif" font-size="10.00">Pcm::GetCDLocation</text>
</a>
</g>
</g>
<!-- Node1&#45;&gt;Node5 -->
<g id="edge4" class="edge"><title>Node1&#45;&gt;Node5</title>
<path fill="none" stroke="midnightblue" d="M143.144,-352.611C151.595,-351.607 160.188,-350.587 168.537,-349.596"/>
<polygon fill="midnightblue" stroke="midnightblue" points="169.058,-353.058 178.575,-348.404 168.232,-346.107 169.058,-353.058"/>
</g>
<!-- Node10 -->
<g id="node10" class="node"><title>Node10</title>
<g id="a_node10"><a xlink:href="../../da/d37/namespace_dbg.html#ab406a8cc16de5046c7d9fd09c9de5e22" target="_top" xlink:title=" ">
<polygon fill="white" stroke="black" points="366,-266.5 366,-285.5 432,-285.5 432,-266.5 366,-266.5"/>
<text text-anchor="middle" x="399" y="-273.5" font-family="Helvetica,sans-Serif" font-size="10.00">Dbg::sprintf</text>
</a>
</g>
</g>
<!-- Node1&#45;&gt;Node10 -->
<g id="edge23" class="edge"><title>Node1&#45;&gt;Node10</title>
<path fill="none" stroke="midnightblue" d="M96.3174,-351.486C117.711,-343.185 150.11,-331.216 179,-323 239.726,-305.731 311.51,-291.462 355.902,-283.334"/>
<polygon fill="midnightblue" stroke="midnightblue" points="356.543,-286.775 365.759,-281.548 355.295,-279.887 356.543,-286.775"/>
</g>
<!-- Node12 -->
<g id="node12" class="node"><title>Node12</title>
<g id="a_node12"><a xlink:href="../../de/d10/namespace_file.html#ae8a8a2564dfcc3e06f9297d837cab04a" target="_top" xlink:title=" ">
<polygon fill="white" stroke="black" points="195,-152.5 195,-171.5 272,-171.5 272,-152.5 195,-152.5"/>
<text text-anchor="middle" x="233.5" y="-159.5" font-family="Helvetica,sans-Serif" font-size="10.00">File::LoadHed</text>
</a>
</g>
</g>
<!-- Node1&#45;&gt;Node12 -->
<g id="edge12" class="edge"><title>Node1&#45;&gt;Node12</title>
<path fill="none" stroke="midnightblue" d="M80.2171,-351.402C105.457,-320.01 185.803,-220.08 218.478,-179.44"/>
<polygon fill="midnightblue" stroke="midnightblue" points="221.322,-181.488 224.86,-171.502 215.867,-177.102 221.322,-181.488"/>
</g>
<!-- Node6 -->
<g id="node6" class="node"><title>Node6</title>
<g id="a_node6"><a xlink:href="../../d0/d31/namespace_config.html#a9fca9dc34dd31a37615614db0d7401a6" target="_top" xlink:title=" ">
<polygon fill="white" stroke="black" points="347,-380.5 347,-399.5 451,-399.5 451,-380.5 347,-380.5"/>
<text text-anchor="middle" x="399" y="-387.5" font-family="Helvetica,sans-Serif" font-size="10.00">Config::GetDirectory</text>
</a>
</g>
</g>
<!-- Node5&#45;&gt;Node6 -->
<g id="edge5" class="edge"><title>Node5&#45;&gt;Node6</title>
<path fill="none" stroke="midnightblue" d="M262.579,-351.593C280.145,-357.471 303.293,-364.993 324,-371 332.149,-373.364 340.846,-375.733 349.308,-377.956"/>
<polygon fill="midnightblue" stroke="midnightblue" points="348.529,-381.37 359.087,-380.491 350.285,-374.594 348.529,-381.37"/>
</g>
<!-- Node8 -->
<g id="node8" class="node"><title>Node8</title>
<g id="a_node8"><a xlink:href="../../de/d3e/namespace_pcm.html#a7e291b456cd437a54cdaa265428c6e15" target="_top" xlink:title=" ">
<polygon fill="white" stroke="black" points="349.5,-418.5 349.5,-437.5 448.5,-437.5 448.5,-418.5 349.5,-418.5"/>
<text text-anchor="middle" x="399" y="-425.5" font-family="Helvetica,sans-Serif" font-size="10.00">Pcm::InitCDPlease</text>
</a>
</g>
</g>
<!-- Node5&#45;&gt;Node8 -->
<g id="edge7" class="edge"><title>Node5&#45;&gt;Node8</title>
<path fill="none" stroke="midnightblue" d="M270.786,-351.607C276.85,-354.11 282.839,-357.203 288,-361 309.48,-376.802 301.831,-394.179 324,-409 328.874,-412.259 334.271,-414.958 339.866,-417.195"/>
<polygon fill="midnightblue" stroke="midnightblue" points="338.814,-420.535 349.409,-420.539 341.129,-413.929 338.814,-420.535"/>
</g>
<!-- Node9 -->
<g id="node9" class="node"><title>Node9</title>
<g id="a_node9"><a xlink:href="../../df/d92/standard_8cpp.html#a5fc8fd1788f18ada61dfda9f171c5a1a" target="_top" xlink:title=" ">
<polygon fill="white" stroke="black" points="380,-342.5 380,-361.5 418,-361.5 418,-342.5 380,-342.5"/>
<text text-anchor="middle" x="399" y="-349.5" font-family="Helvetica,sans-Serif" font-size="10.00">printf</text>
</a>
</g>
</g>
<!-- Node5&#45;&gt;Node9 -->
<g id="edge9" class="edge"><title>Node5&#45;&gt;Node9</title>
<path fill="none" stroke="midnightblue" d="M288.036,-345.274C315.248,-346.939 347.214,-348.894 369.645,-350.266"/>
<polygon fill="midnightblue" stroke="midnightblue" points="369.634,-353.772 379.829,-350.889 370.061,-346.785 369.634,-353.772"/>
</g>
<!-- Node5&#45;&gt;Node10 -->
<g id="edge10" class="edge"><title>Node5&#45;&gt;Node10</title>
<path fill="none" stroke="midnightblue" d="M250.143,-332.349C267.607,-321.92 296.975,-305.403 324,-295 334.131,-291.1 345.348,-287.752 355.921,-285.001"/>
<polygon fill="midnightblue" stroke="midnightblue" points="356.941,-288.354 365.803,-282.549 355.255,-281.56 356.941,-288.354"/>
</g>
<!-- Node11 -->
<g id="node11" class="node"><title>Node11</title>
<g id="a_node11"><a xlink:href="../../de/d10/namespace_file.html#a8e901686535d27c6ee4c53bbdf327414" target="_top" xlink:title=" ">
<polygon fill="white" stroke="black" points="347.5,-304.5 347.5,-323.5 450.5,-323.5 450.5,-304.5 347.5,-304.5"/>
<text text-anchor="middle" x="399" y="-311.5" font-family="Helvetica,sans-Serif" font-size="10.00">File::StopStreaming</text>
</a>
</g>
</g>
<!-- Node5&#45;&gt;Node11 -->
<g id="edge11" class="edge"><title>Node5&#45;&gt;Node11</title>
<path fill="none" stroke="midnightblue" d="M288.036,-332.832C303.847,-330.124 321.262,-327.142 337.48,-324.364"/>
<polygon fill="midnightblue" stroke="midnightblue" points="338.132,-327.804 347.398,-322.666 336.95,-320.904 338.132,-327.804"/>
</g>
<!-- Node7 -->
<g id="node7" class="node"><title>Node7</title>
<g id="a_node7"><a xlink:href="../../d0/d31/namespace_config.html#a5c83b9c061c70b9b5dec7f9e679dbe5d" target="_top" xlink:title=" ">
<polygon fill="white" stroke="black" points="518,-380.5 518,-399.5 610,-399.5 610,-380.5 518,-380.5"/>
<text text-anchor="middle" x="564" y="-387.5" font-family="Helvetica,sans-Serif" font-size="10.00">Config::Bootstrap</text>
</a>
</g>
</g>
<!-- Node6&#45;&gt;Node7 -->
<g id="edge6" class="edge"><title>Node6&#45;&gt;Node7</title>
<path fill="none" stroke="midnightblue" d="M451.127,-390C469.083,-390 489.335,-390 507.624,-390"/>
<polygon fill="midnightblue" stroke="midnightblue" points="507.843,-393.5 517.843,-390 507.843,-386.5 507.843,-393.5"/>
</g>
<!-- Node8&#45;&gt;Node2 -->
<g id="edge8" class="edge"><title>Node8&#45;&gt;Node2</title>
<path fill="none" stroke="midnightblue" d="M448.905,-433.701C472.22,-436.418 499.796,-439.633 521.996,-442.22"/>
<polygon fill="midnightblue" stroke="midnightblue" points="521.763,-445.717 532.101,-443.398 522.574,-438.764 521.763,-445.717"/>
</g>
<!-- Node12&#45;&gt;Node10 -->
<g id="edge21" class="edge"><title>Node12&#45;&gt;Node10</title>
<path fill="none" stroke="midnightblue" d="M240.842,-171.785C253.937,-191.175 285.949,-234.538 324,-257 333.707,-262.73 345.124,-266.75 356.047,-269.563"/>
<polygon fill="midnightblue" stroke="midnightblue" points="355.345,-272.993 365.875,-271.822 356.913,-266.171 355.345,-272.993"/>
</g>
<!-- Node13 -->
<g id="node13" class="node"><title>Node13</title>
<g id="a_node13"><a xlink:href="../../de/d10/namespace_file.html#af5cd83b01fc5f341f767beb7c0b1130c" target="_top" xlink:title=" ">
<polygon fill="white" stroke="black" points="367.5,-228.5 367.5,-247.5 430.5,-247.5 430.5,-228.5 367.5,-228.5"/>
<text text-anchor="middle" x="399" y="-235.5" font-family="Helvetica,sans-Serif" font-size="10.00">File::Close</text>
</a>
</g>
</g>
<!-- Node12&#45;&gt;Node13 -->
<g id="edge13" class="edge"><title>Node12&#45;&gt;Node13</title>
<path fill="none" stroke="midnightblue" d="M246.827,-171.656C263.46,-184.247 294.424,-206.173 324,-219 334.528,-223.566 346.392,-227.216 357.486,-230.047"/>
<polygon fill="midnightblue" stroke="midnightblue" points="356.858,-233.496 367.398,-232.42 358.487,-226.688 356.858,-233.496"/>
</g>
<!-- Node14 -->
<g id="node14" class="node"><title>Node14</title>
<g id="a_node14"><a xlink:href="../../de/d10/namespace_file.html#a482cc8c6f257ae12f73feeb742cc71ac" target="_top" xlink:title=" ">
<polygon fill="white" stroke="black" points="345.5,-190.5 345.5,-209.5 452.5,-209.5 452.5,-190.5 345.5,-190.5"/>
<text text-anchor="middle" x="399" y="-197.5" font-family="Helvetica,sans-Serif" font-size="10.00">File::get_checksums</text>
</a>
</g>
</g>
<!-- Node12&#45;&gt;Node14 -->
<g id="edge14" class="edge"><title>Node12&#45;&gt;Node14</title>
<path fill="none" stroke="midnightblue" d="M272.01,-170.718C294.3,-175.899 322.869,-182.538 347.166,-188.185"/>
<polygon fill="midnightblue" stroke="midnightblue" points="346.405,-191.602 356.937,-190.456 347.989,-184.783 346.405,-191.602"/>
</g>
<!-- Node17 -->
<g id="node17" class="node"><title>Node17</title>
<g id="a_node17"><a xlink:href="../../de/d10/namespace_file.html#a42faef384ac438a449656a07258cdbec" target="_top" xlink:title=" ">
<polygon fill="white" stroke="black" points="354.5,-152.5 354.5,-171.5 443.5,-171.5 443.5,-152.5 354.5,-152.5"/>
<text text-anchor="middle" x="399" y="-159.5" font-family="Helvetica,sans-Serif" font-size="10.00">File::GetFileSize</text>
</a>
</g>
</g>
<!-- Node12&#45;&gt;Node17 -->
<g id="edge17" class="edge"><title>Node12&#45;&gt;Node17</title>
<path fill="none" stroke="midnightblue" d="M272.01,-162C293.363,-162 320.478,-162 344.079,-162"/>
<polygon fill="midnightblue" stroke="midnightblue" points="344.296,-165.5 354.296,-162 344.296,-158.5 344.296,-165.5"/>
</g>
<!-- Node18 -->
<g id="node18" class="node"><title>Node18</title>
<g id="a_node18"><a xlink:href="../../de/d10/namespace_file.html#a180384dc852ac3b971285fc63b1287cb" target="_top" xlink:title=" ">
<polygon fill="white" stroke="black" points="368,-114.5 368,-133.5 430,-133.5 430,-114.5 368,-114.5"/>
<text text-anchor="middle" x="399" y="-121.5" font-family="Helvetica,sans-Serif" font-size="10.00">File::Open</text>
</a>
</g>
</g>
<!-- Node12&#45;&gt;Node18 -->
<g id="edge18" class="edge"><title>Node12&#45;&gt;Node18</title>
<path fill="none" stroke="midnightblue" d="M272.01,-153.282C297.645,-147.324 331.586,-139.436 357.78,-133.348"/>
<polygon fill="midnightblue" stroke="midnightblue" points="358.816,-136.7 367.764,-131.027 357.232,-129.882 358.816,-136.7"/>
</g>
<!-- Node19 -->
<g id="node19" class="node"><title>Node19</title>
<g id="a_node19"><a xlink:href="../../de/d10/namespace_file.html#ae5e5ed0fd4834fc2e0e1c29edc62fc02" target="_top" xlink:title=" ">
<polygon fill="white" stroke="black" points="368.5,-76.5 368.5,-95.5 429.5,-95.5 429.5,-76.5 368.5,-76.5"/>
<text text-anchor="middle" x="399" y="-83.5" font-family="Helvetica,sans-Serif" font-size="10.00">File::Read</text>
</a>
</g>
</g>
<!-- Node12&#45;&gt;Node19 -->
<g id="edge19" class="edge"><title>Node12&#45;&gt;Node19</title>
<path fill="none" stroke="midnightblue" d="M246.827,-152.344C263.46,-139.753 294.424,-117.827 324,-105 334.918,-100.265 347.272,-96.5153 358.715,-93.6418"/>
<polygon fill="midnightblue" stroke="midnightblue" points="359.548,-97.0415 368.477,-91.3393 357.941,-90.2284 359.548,-97.0415"/>
</g>
<!-- Node20 -->
<g id="node20" class="node"><title>Node20</title>
<g id="a_node20"><a xlink:href="../../d2/d0a/class_mem_1_1_manager.html#a3aefd91781b7f41d35e6df6a32d379d0" target="_top" xlink:title=" ">
<polygon fill="white" stroke="black" points="337.5,-38.5 337.5,-57.5 460.5,-57.5 460.5,-38.5 337.5,-38.5"/>
<text text-anchor="middle" x="399" y="-45.5" font-family="Helvetica,sans-Serif" font-size="10.00">Mem::Manager::sHandle</text>
</a>
</g>
</g>
<!-- Node12&#45;&gt;Node20 -->
<g id="edge20" class="edge"><title>Node12&#45;&gt;Node20</title>
<path fill="none" stroke="midnightblue" d="M240.842,-152.215C253.937,-132.825 285.949,-89.4619 324,-67 327.662,-64.8381 331.568,-62.9197 335.599,-61.2178"/>
<polygon fill="midnightblue" stroke="midnightblue" points="337.04,-64.4151 345.175,-57.6265 334.582,-57.8609 337.04,-64.4151"/>
</g>
<!-- Node21 -->
<g id="node21" class="node"><title>Node21</title>
<g id="a_node21"><a xlink:href="../../d2/d0a/class_mem_1_1_manager.html#a39d5899e894ada5a1b5ed1607322610a" target="_top" xlink:title=" ">
<polygon fill="white" stroke="black" points="324,-0.5 324,-19.5 474,-19.5 474,-0.5 324,-0.5"/>
<text text-anchor="middle" x="399" y="-7.5" font-family="Helvetica,sans-Serif" font-size="10.00">Mem::Manager::TopDownHeap</text>
</a>
</g>
</g>
<!-- Node12&#45;&gt;Node21 -->
<g id="edge22" class="edge"><title>Node12&#45;&gt;Node21</title>
<path fill="none" stroke="midnightblue" d="M238.192,-152.186C248.039,-127.4 277.396,-61.9135 324,-29 326.849,-26.9879 329.894,-25.1886 333.064,-23.5798"/>
<polygon fill="midnightblue" stroke="midnightblue" points="334.525,-26.7605 342.27,-19.5311 331.707,-20.3527 334.525,-26.7605"/>
</g>
<!-- Node15 -->
<g id="node15" class="node"><title>Node15</title>
<g id="a_node15"><a xlink:href="../../d1/d54/namespace_script.html#aa331360f088c15972ac441ecb8b40cd9" target="_top" xlink:title=" ">
<polygon fill="white" stroke="black" points="510,-190.5 510,-209.5 618,-209.5 618,-190.5 510,-190.5"/>
<text text-anchor="middle" x="564" y="-197.5" font-family="Helvetica,sans-Serif" font-size="10.00">Script::GenerateCRC</text>
</a>
</g>
</g>
<!-- Node14&#45;&gt;Node15 -->
<g id="edge15" class="edge"><title>Node14&#45;&gt;Node15</title>
<path fill="none" stroke="midnightblue" d="M452.921,-200C467.867,-200 484.282,-200 499.768,-200"/>
<polygon fill="midnightblue" stroke="midnightblue" points="499.786,-203.5 509.786,-200 499.786,-196.5 499.786,-203.5"/>
</g>
<!-- Node16 -->
<g id="node16" class="node"><title>Node16</title>
<g id="a_node16"><a xlink:href="../../d3/d9b/namespace_crc.html#aed1b5ad21f682b39b09782ec29f5c5cc" target="_top" xlink:title=" ">
<polygon fill="white" stroke="black" points="654,-190.5 654,-209.5 800,-209.5 800,-190.5 654,-190.5"/>
<text text-anchor="middle" x="727" y="-197.5" font-family="Helvetica,sans-Serif" font-size="10.00">Crc::GenerateCRCFromString</text>
</a>
</g>
</g>
<!-- Node15&#45;&gt;Node16 -->
<g id="edge16" class="edge"><title>Node15&#45;&gt;Node16</title>
<path fill="none" stroke="midnightblue" d="M618.164,-200C626.393,-200 635.054,-200 643.743,-200"/>
<polygon fill="midnightblue" stroke="midnightblue" points="643.931,-203.5 653.931,-200 643.931,-196.5 643.931,-203.5"/>
</g>
</g>
</svg>
        <g id="navigator" transform="translate(0 0)" fill="#404254">
                <rect fill="#f2f5e9" fill-opacity="0.5" stroke="#606060" stroke-width=".5" x="0" y="0" width="60" height="60"/>
                <use id="zoomplus" xlink:href="#zoomPlus" x="17" y="9" onmousedown="handleZoom(evt,'in')"/>
                <use id="zoomminus" xlink:href="#zoomMin" x="42" y="9" onmousedown="handleZoom(evt,'out')"/>
                <use id="reset" xlink:href="#resetDef" x="30" y="36" onmousedown="handleReset()"/>
                <g id="arrowUp" xlink:href="#dirArrow" transform="translate(30 24)" onmousedown="handlePan(0,-1)">
                  <use xlink:href="#rim" fill="#404040">
                        <set attributeName="fill" to="#808080" begin="arrowUp.mouseover" end="arrowUp.mouseout"/>
                  </use>
                  <path fill="none" stroke="white" stroke-width="1.5" d="M0,-3.0v7 M-2.5,-0.5L0,-3.0L2.5,-0.5"/>
                </g>
                <g id="arrowRight" xlink:href="#dirArrow" transform="rotate(90) translate(36 -43)" onmousedown="handlePan(1,0)">
                  <use xlink:href="#rim" fill="#404040">
                        <set attributeName="fill" to="#808080" begin="arrowRight.mouseover" end="arrowRight.mouseout"/>
                  </use>
                  <path fill="none" stroke="white" stroke-width="1.5" d="M0,-3.0v7 M-2.5,-0.5L0,-3.0L2.5,-0.5"/>
                </g>
                <g id="arrowDown" xlink:href="#dirArrow" transform="rotate(180) translate(-30 -48)" onmousedown="handlePan(0,1)">
                  <use xlink:href="#rim" fill="#404040">
                        <set attributeName="fill" to="#808080" begin="arrowDown.mouseover" end="arrowDown.mouseout"/>
                  </use>
                  <path fill="none" stroke="white" stroke-width="1.5" d="M0,-3.0v7 M-2.5,-0.5L0,-3.0L2.5,-0.5"/>
                </g>
                <g id="arrowLeft" xlink:href="#dirArrow" transform="rotate(270) translate(-36 17)" onmousedown="handlePan(-1,0)">
                  <use xlink:href="#rim" fill="#404040">
                        <set attributeName="fill" to="#808080" begin="arrowLeft.mouseover" end="arrowLeft.mouseout"/>
                  </use>
                  <path fill="none" stroke="white" stroke-width="1.5" d="M0,-3.0v7 M-2.5,-0.5L0,-3.0L2.5,-0.5"/>
                </g>
        </g>
        <svg viewBox="0 0 15 15" width="100%" height="30px" preserveAspectRatio="xMaxYMin meet">
         <g id="arrow_out" transform="scale(0.3 0.3)">
          <a xlink:href="struct_pcm_1_1_s_wad_info_a705ca41c3e84af08db33d086053f1820_cgraph_org.svg" target="_base">
           <rect id="button" ry="5" rx="5" y="6" x="6" height="38" width="38"
                fill="#f2f5e9" fill-opacity="0.5" stroke="#606060" stroke-width="1.0"/>
           <path id="arrow"
             d="M 11.500037,31.436501 C 11.940474,20.09759 22.043105,11.32322 32.158766,21.979434 L 37.068811,17.246167 C 37.068811,17.246167 37.088388,32 37.088388,32 L 22.160133,31.978069 C 22.160133,31.978069 26.997745,27.140456 26.997745,27.140456 C 18.528582,18.264221 13.291696,25.230495 11.500037,31.436501 z"
             style="fill:#404040;"/>
          </a>
         </g>
        </svg>
</svg>
