<?xml version="1.0" encoding="UTF-8" standalone="no"?>
<!DOCTYPE svg PUBLIC "-//W3C//DTD SVG 1.1//EN"
 "http://www.w3.org/Graphics/SVG/1.1/DTD/svg11.dtd">
<!-- Generated by graphviz version 2.38.0 (20140413.2041)
 -->
<!-- Title: BgmInit Pages: 1 -->
<svg width="710pt" height="360pt"
 viewBox="0.00 0.00 710.00 360.00" xmlns="http://www.w3.org/2000/svg" xmlns:xlink="http://www.w3.org/1999/xlink">
<g id="graph0" class="graph" transform="scale(1 1) rotate(0) translate(4 356)">
<title>BgmInit</title>
<polygon fill="white" stroke="none" points="-4,4 -4,-356 706,-356 706,4 -4,4"/>
<!-- Node1 -->
<g id="node1" class="node"><title>Node1</title>
<g id="a_node1"><a xlink:title=" ">
<polygon fill="#bfbfbf" stroke="black" points="0,-247.5 0,-266.5 50,-266.5 50,-247.5 0,-247.5"/>
<text text-anchor="middle" x="25" y="-254.5" font-family="Helvetica,sans-Serif" font-size="10.00">BgmInit</text>
</a>
</g>
</g>
<!-- Node2 -->
<g id="node2" class="node"><title>Node2</title>
<g id="a_node2"><a xlink:href="../../df/de2/_messages_8h.html#a03fb230ad9263a5f6126da49d67feac0" target="_top" xlink:title=" ">
<polygon fill="white" stroke="black" points="640,-266.5 640,-285.5 702,-285.5 702,-266.5 640,-266.5"/>
<text text-anchor="middle" x="671" y="-273.5" font-family="Helvetica,sans-Serif" font-size="10.00">Dbg_Printf</text>
</a>
</g>
</g>
<!-- Node1&#45;&gt;Node2 -->
<g id="edge1" class="edge"><title>Node1&#45;&gt;Node2</title>
<path fill="none" stroke="midnightblue" d="M39.1435,-266.632C73.4412,-290.784 169.228,-352 259,-352 259,-352 259,-352 407,-352 496.342,-352 520.069,-342.621 604,-312 618.852,-306.581 634.425,-298.231 646.711,-290.937"/>
<polygon fill="midnightblue" stroke="midnightblue" points="648.69,-293.829 655.4,-285.63 645.042,-287.855 648.69,-293.829"/>
</g>
<!-- Node3 -->
<g id="node3" class="node"><title>Node3</title>
<g id="a_node3"><a xlink:href="../../d1/df7/ngc_2bgm_2bgm__play_8c.html#a5db2b013f92e9b092b390daff5f8e6dc" target="_top" xlink:title=" ">
<polygon fill="white" stroke="black" points="90.5,-247.5 90.5,-266.5 164.5,-266.5 164.5,-247.5 90.5,-247.5"/>
<text text-anchor="middle" x="127.5" y="-254.5" font-family="Helvetica,sans-Serif" font-size="10.00">makeMySem</text>
</a>
</g>
</g>
<!-- Node1&#45;&gt;Node3 -->
<g id="edge2" class="edge"><title>Node1&#45;&gt;Node3</title>
<path fill="none" stroke="midnightblue" d="M50.0723,-257C59.1312,-257 69.765,-257 80.173,-257"/>
<polygon fill="midnightblue" stroke="midnightblue" points="80.439,-260.5 90.439,-257 80.439,-253.5 80.439,-260.5"/>
</g>
<!-- Node4 -->
<g id="node4" class="node"><title>Node4</title>
<g id="a_node4"><a xlink:href="../../d1/df7/ngc_2bgm_2bgm__play_8c.html#ad33151eac79428cae6ecfa4323ce3f36" target="_top" xlink:title=" ">
<polygon fill="white" stroke="black" points="86,-152.5 86,-171.5 169,-171.5 169,-152.5 86,-152.5"/>
<text text-anchor="middle" x="127.5" y="-159.5" font-family="Helvetica,sans-Serif" font-size="10.00">makeMyThread</text>
</a>
</g>
</g>
<!-- Node1&#45;&gt;Node4 -->
<g id="edge3" class="edge"><title>Node1&#45;&gt;Node4</title>
<path fill="none" stroke="midnightblue" d="M36.3767,-247.191C53.5423,-230.965 88.0331,-198.362 109.014,-178.529"/>
<polygon fill="midnightblue" stroke="midnightblue" points="111.467,-181.027 116.329,-171.614 106.658,-175.94 111.467,-181.027"/>
</g>
<!-- Node5 -->
<g id="node5" class="node"><title>Node5</title>
<g id="a_node5"><a xlink:href="../../d1/df7/ngc_2bgm_2bgm__play_8c.html#a0f4156ebec947f14dab0c977668b327b" target="_top" xlink:title=" ">
<polygon fill="white" stroke="black" points="229,-152.5 229,-171.5 291,-171.5 291,-152.5 229,-152.5"/>
<text text-anchor="middle" x="260" y="-159.5" font-family="Helvetica,sans-Serif" font-size="10.00">_BgmPlay</text>
</a>
</g>
</g>
<!-- Node4&#45;&gt;Node5 -->
<g id="edge4" class="edge"><title>Node4&#45;&gt;Node5</title>
<path fill="none" stroke="midnightblue" d="M169.076,-162C184.911,-162 203.02,-162 218.817,-162"/>
<polygon fill="midnightblue" stroke="midnightblue" points="218.817,-165.5 228.817,-162 218.817,-158.5 218.817,-165.5"/>
</g>
<!-- Node17 -->
<g id="node17" class="node"><title>Node17</title>
<g id="a_node17"><a xlink:href="../../d8/d76/namespace_thread.html#ad1549c943a1c4a0b057be3df3be102f1" target="_top" xlink:title=" ">
<polygon fill="white" stroke="black" points="205,-57.5 205,-76.5 315,-76.5 315,-57.5 205,-57.5"/>
<text text-anchor="middle" x="260" y="-64.5" font-family="Helvetica,sans-Serif" font-size="10.00">Thread::CreateThread</text>
</a>
</g>
</g>
<!-- Node4&#45;&gt;Node17 -->
<g id="edge21" class="edge"><title>Node4&#45;&gt;Node17</title>
<path fill="none" stroke="midnightblue" d="M141.974,-152.191C164.558,-135.751 210.238,-102.497 237.365,-82.7495"/>
<polygon fill="midnightblue" stroke="midnightblue" points="239.769,-85.3291 245.793,-76.614 235.649,-79.6698 239.769,-85.3291"/>
</g>
<!-- Node5&#45;&gt;Node2 -->
<g id="edge15" class="edge"><title>Node5&#45;&gt;Node2</title>
<path fill="none" stroke="midnightblue" d="M265.102,-171.664C275.495,-194.749 305.324,-252.892 351,-276 441.814,-321.945 566.63,-301.927 629.834,-286.973"/>
<polygon fill="midnightblue" stroke="midnightblue" points="630.918,-290.311 639.8,-284.535 629.255,-283.511 630.918,-290.311"/>
</g>
<!-- Node6 -->
<g id="node6" class="node"><title>Node6</title>
<g id="a_node6"><a xlink:href="../../d1/df7/ngc_2bgm_2bgm__play_8c.html#ab5b3e51da2b927efd1bdfb46baa517c3" target="_top" xlink:title=" ">
<polygon fill="white" stroke="black" points="371,-247.5 371,-266.5 441,-266.5 441,-247.5 371,-247.5"/>
<text text-anchor="middle" x="406" y="-254.5" font-family="Helvetica,sans-Serif" font-size="10.00">_BgmPause</text>
</a>
</g>
</g>
<!-- Node5&#45;&gt;Node6 -->
<g id="edge5" class="edge"><title>Node5&#45;&gt;Node6</title>
<path fill="none" stroke="midnightblue" d="M275.6,-171.632C300.612,-188.133 351.85,-221.936 381.802,-241.696"/>
<polygon fill="midnightblue" stroke="midnightblue" points="380.087,-244.757 390.361,-247.343 383.942,-238.914 380.087,-244.757"/>
</g>
<!-- Node7 -->
<g id="node7" class="node"><title>Node7</title>
<g id="a_node7"><a xlink:href="../../d1/df7/ngc_2bgm_2bgm__play_8c.html#aca2317a84be069472cdbd41592dca34f" target="_top" xlink:title=" ">
<polygon fill="white" stroke="black" points="351,-190.5 351,-209.5 461,-209.5 461,-190.5 351,-190.5"/>
<text text-anchor="middle" x="406" y="-197.5" font-family="Helvetica,sans-Serif" font-size="10.00">_BgmStopAndUnload</text>
</a>
</g>
</g>
<!-- Node5&#45;&gt;Node7 -->
<g id="edge7" class="edge"><title>Node5&#45;&gt;Node7</title>
<path fill="none" stroke="midnightblue" d="M291.187,-169.966C310.855,-175.156 336.892,-182.027 359.099,-187.887"/>
<polygon fill="midnightblue" stroke="midnightblue" points="358.434,-191.331 368.996,-190.499 360.22,-184.563 358.434,-191.331"/>
</g>
<!-- Node9 -->
<g id="node9" class="node"><title>Node9</title>
<g id="a_node9"><a xlink:href="../../d1/df7/ngc_2bgm_2bgm__play_8c.html#a21f6ded3d23859478fa6458f725d0e7a" target="_top" xlink:title=" ">
<polygon fill="white" stroke="black" points="367,-152.5 367,-171.5 445,-171.5 445,-152.5 367,-152.5"/>
<text text-anchor="middle" x="406" y="-159.5" font-family="Helvetica,sans-Serif" font-size="10.00">BgmRaw2Spu</text>
</a>
</g>
</g>
<!-- Node5&#45;&gt;Node9 -->
<g id="edge11" class="edge"><title>Node5&#45;&gt;Node9</title>
<path fill="none" stroke="midnightblue" d="M291.187,-162C310.196,-162 335.157,-162 356.857,-162"/>
<polygon fill="midnightblue" stroke="midnightblue" points="356.885,-165.5 366.885,-162 356.885,-158.5 356.885,-165.5"/>
</g>
<!-- Node12 -->
<g id="node12" class="node"><title>Node12</title>
<g id="a_node12"><a xlink:href="../../d1/df7/ngc_2bgm_2bgm__play_8c.html#ae1bf0923658b72eae7c8d7ad1a782127" target="_top" xlink:title=" ">
<polygon fill="white" stroke="black" points="351,-114.5 351,-133.5 461,-133.5 461,-114.5 351,-114.5"/>
<text text-anchor="middle" x="406" y="-121.5" font-family="Helvetica,sans-Serif" font-size="10.00">BgmSetVolumeDirect</text>
</a>
</g>
</g>
<!-- Node5&#45;&gt;Node12 -->
<g id="edge14" class="edge"><title>Node5&#45;&gt;Node12</title>
<path fill="none" stroke="midnightblue" d="M291.187,-154.034C310.855,-148.844 336.892,-141.973 359.099,-136.113"/>
<polygon fill="midnightblue" stroke="midnightblue" points="360.22,-139.437 368.996,-133.501 358.434,-132.669 360.22,-139.437"/>
</g>
<!-- Node13 -->
<g id="node13" class="node"><title>Node13</title>
<g id="a_node13"><a xlink:href="../../d1/df7/ngc_2bgm_2bgm__play_8c.html#af32a61bdb2d92b81f446dfa9748c92ff" target="_top" xlink:title=" ">
<polygon fill="white" stroke="black" points="373.5,-76.5 373.5,-95.5 438.5,-95.5 438.5,-76.5 373.5,-76.5"/>
<text text-anchor="middle" x="406" y="-83.5" font-family="Helvetica,sans-Serif" font-size="10.00">PreloadFile</text>
</a>
</g>
</g>
<!-- Node5&#45;&gt;Node13 -->
<g id="edge16" class="edge"><title>Node5&#45;&gt;Node13</title>
<path fill="none" stroke="midnightblue" d="M274.168,-152.312C291.23,-140.082 322.209,-118.959 351,-105 355.301,-102.915 359.892,-100.942 364.512,-99.1142"/>
<polygon fill="midnightblue" stroke="midnightblue" points="365.818,-102.362 373.952,-95.5738 363.36,-95.8081 365.818,-102.362"/>
</g>
<!-- Node15 -->
<g id="node15" class="node"><title>Node15</title>
<g id="a_node15"><a xlink:href="../../df/d92/standard_8cpp.html#a5fc8fd1788f18ada61dfda9f171c5a1a" target="_top" xlink:title=" ">
<polygon fill="white" stroke="black" points="531.5,-0.5 531.5,-19.5 569.5,-19.5 569.5,-0.5 531.5,-0.5"/>
<text text-anchor="middle" x="550.5" y="-7.5" font-family="Helvetica,sans-Serif" font-size="10.00">printf</text>
</a>
</g>
</g>
<!-- Node5&#45;&gt;Node15 -->
<g id="edge20" class="edge"><title>Node5&#45;&gt;Node15</title>
<path fill="none" stroke="midnightblue" d="M267.446,-152.308C280.738,-133.084 313.139,-90.006 351,-67 379.914,-49.4305 474.078,-26.7874 521.571,-16.1001"/>
<polygon fill="midnightblue" stroke="midnightblue" points="522.499,-19.4793 531.498,-13.8877 520.976,-12.647 522.499,-19.4793"/>
</g>
<!-- Node6&#45;&gt;Node2 -->
<g id="edge6" class="edge"><title>Node6&#45;&gt;Node2</title>
<path fill="none" stroke="midnightblue" d="M441.113,-259.464C489.484,-262.959 577.85,-269.343 629.491,-273.073"/>
<polygon fill="midnightblue" stroke="midnightblue" points="629.39,-276.575 639.616,-273.805 629.894,-269.593 629.39,-276.575"/>
</g>
<!-- Node7&#45;&gt;Node2 -->
<g id="edge10" class="edge"><title>Node7&#45;&gt;Node2</title>
<path fill="none" stroke="midnightblue" d="M440.043,-209.548C488.286,-223.49 577.898,-249.385 629.866,-264.402"/>
<polygon fill="midnightblue" stroke="midnightblue" points="629.156,-267.84 639.735,-267.254 631.1,-261.116 629.156,-267.84"/>
</g>
<!-- Node8 -->
<g id="node8" class="node"><title>Node8</title>
<g id="a_node8"><a xlink:href="../../d1/df7/ngc_2bgm_2bgm__play_8c.html#a44fa49c872a8c1fd3edeb31b3a227b86" target="_top" xlink:title=" ">
<polygon fill="white" stroke="black" points="517,-190.5 517,-209.5 584,-209.5 584,-190.5 517,-190.5"/>
<text text-anchor="middle" x="550.5" y="-197.5" font-family="Helvetica,sans-Serif" font-size="10.00">_BgmClose</text>
</a>
</g>
</g>
<!-- Node7&#45;&gt;Node8 -->
<g id="edge8" class="edge"><title>Node7&#45;&gt;Node8</title>
<path fill="none" stroke="midnightblue" d="M461.28,-200C476.343,-200 492.481,-200 506.782,-200"/>
<polygon fill="midnightblue" stroke="midnightblue" points="506.829,-203.5 516.829,-200 506.829,-196.5 506.829,-203.5"/>
</g>
<!-- Node8&#45;&gt;Node2 -->
<g id="edge9" class="edge"><title>Node8&#45;&gt;Node2</title>
<path fill="none" stroke="midnightblue" d="M575.637,-209.592C584.771,-213.59 595.104,-218.57 604,-224 621.159,-234.474 638.97,-248.741 651.759,-259.681"/>
<polygon fill="midnightblue" stroke="midnightblue" points="649.54,-262.39 659.38,-266.317 654.137,-257.111 649.54,-262.39"/>
</g>
<!-- Node10 -->
<g id="node10" class="node"><title>Node10</title>
<g id="a_node10"><a xlink:href="../../d1/df7/ngc_2bgm_2bgm__play_8c.html#a22bb6e31d8aa81c4a49a4fdcd611ba39" target="_top" xlink:title=" ">
<polygon fill="white" stroke="black" points="509,-152.5 509,-171.5 592,-171.5 592,-152.5 509,-152.5"/>
<text text-anchor="middle" x="550.5" y="-159.5" font-family="Helvetica,sans-Serif" font-size="10.00">_BgmRaw2Spu</text>
</a>
</g>
</g>
<!-- Node9&#45;&gt;Node10 -->
<g id="edge12" class="edge"><title>Node9&#45;&gt;Node10</title>
<path fill="none" stroke="midnightblue" d="M445.187,-162C461.658,-162 481.158,-162 498.815,-162"/>
<polygon fill="midnightblue" stroke="midnightblue" points="498.962,-165.5 508.962,-162 498.962,-158.5 498.962,-165.5"/>
</g>
<!-- Node11 -->
<g id="node11" class="node"><title>Node11</title>
<g id="a_node11"><a xlink:href="../../d1/df7/ngc_2bgm_2bgm__play_8c.html#ae4d47aac16d5e221e71ccd0f9617da2a" target="_top" xlink:title=" ">
<polygon fill="white" stroke="black" points="497,-114.5 497,-133.5 604,-133.5 604,-114.5 497,-114.5"/>
<text text-anchor="middle" x="550.5" y="-121.5" font-family="Helvetica,sans-Serif" font-size="10.00">_BgmRaw2SpuMono</text>
</a>
</g>
</g>
<!-- Node9&#45;&gt;Node11 -->
<g id="edge13" class="edge"><title>Node9&#45;&gt;Node11</title>
<path fill="none" stroke="midnightblue" d="M442.959,-152.411C461.439,-147.483 484.156,-141.425 503.859,-136.171"/>
<polygon fill="midnightblue" stroke="midnightblue" points="504.792,-139.544 513.553,-133.586 502.989,-132.781 504.792,-139.544"/>
</g>
<!-- Node14 -->
<g id="node14" class="node"><title>Node14</title>
<g id="a_node14"><a xlink:href="../../d1/df7/ngc_2bgm_2bgm__play_8c.html#af9461441d4ee0e71b5b1c3c6b399b542" target="_top" xlink:title=" ">
<polygon fill="white" stroke="black" points="508,-76.5 508,-95.5 593,-95.5 593,-76.5 508,-76.5"/>
<text text-anchor="middle" x="550.5" y="-83.5" font-family="Helvetica,sans-Serif" font-size="10.00">BgmSetVolume</text>
</a>
</g>
</g>
<!-- Node13&#45;&gt;Node14 -->
<g id="edge17" class="edge"><title>Node13&#45;&gt;Node14</title>
<path fill="none" stroke="midnightblue" d="M438.625,-86C456.012,-86 478.013,-86 497.826,-86"/>
<polygon fill="midnightblue" stroke="midnightblue" points="497.951,-89.5001 507.951,-86 497.951,-82.5001 497.951,-89.5001"/>
</g>
<!-- Node13&#45;&gt;Node15 -->
<g id="edge18" class="edge"><title>Node13&#45;&gt;Node15</title>
<path fill="none" stroke="midnightblue" d="M433.159,-76.3894C442.302,-72.5152 452.419,-67.623 461,-62 479.154,-50.1035 478.435,-40.2448 497,-29 504.545,-24.4302 513.359,-20.7085 521.588,-17.8093"/>
<polygon fill="midnightblue" stroke="midnightblue" points="522.783,-21.1012 531.209,-14.6791 520.617,-14.4446 522.783,-21.1012"/>
</g>
<!-- Node16 -->
<g id="node16" class="node"><title>Node16</title>
<g id="a_node16"><a xlink:href="../../d1/df7/ngc_2bgm_2bgm__play_8c.html#a60956fb996b37b00a166fbc491928577" target="_top" xlink:title=" ">
<polygon fill="white" stroke="black" points="514,-38.5 514,-57.5 587,-57.5 587,-38.5 514,-38.5"/>
<text text-anchor="middle" x="550.5" y="-45.5" font-family="Helvetica,sans-Serif" font-size="10.00">SetStereoOn</text>
</a>
</g>
</g>
<!-- Node13&#45;&gt;Node16 -->
<g id="edge19" class="edge"><title>Node13&#45;&gt;Node16</title>
<path fill="none" stroke="midnightblue" d="M438.625,-77.5666C457.879,-72.4323 482.793,-65.7886 504.125,-60.0999"/>
<polygon fill="midnightblue" stroke="midnightblue" points="505.194,-63.4373 513.955,-57.4787 503.39,-56.6736 505.194,-63.4373"/>
</g>
<!-- Node18 -->
<g id="node18" class="node"><title>Node18</title>
<g id="a_node18"><a xlink:href="../../df/de2/_messages_8h.html#a701d7b9cdd94e5f87bc47f4e770492e6" target="_top" xlink:title=" ">
<polygon fill="white" stroke="black" points="366.5,-0.5 366.5,-19.5 445.5,-19.5 445.5,-0.5 366.5,-0.5"/>
<text text-anchor="middle" x="406" y="-7.5" font-family="Helvetica,sans-Serif" font-size="10.00">Dbg_Message</text>
</a>
</g>
</g>
<!-- Node17&#45;&gt;Node18 -->
<g id="edge22" class="edge"><title>Node17&#45;&gt;Node18</title>
<path fill="none" stroke="midnightblue" d="M285.102,-57.4595C308.673,-48.1295 344.777,-33.8384 371.209,-23.3758"/>
<polygon fill="midnightblue" stroke="midnightblue" points="372.809,-26.5065 380.819,-19.5716 370.233,-19.9979 372.809,-26.5065"/>
</g>
</g>
</svg>
