<?xml version="1.0" encoding="UTF-8" standalone="no"?>
<!DOCTYPE svg PUBLIC "-//W3C//DTD SVG 1.1//EN"
 "http://www.w3.org/Graphics/SVG/1.1/DTD/svg11.dtd">
<!-- Generated by graphviz version 2.38.0 (20140413.2041)
 -->
<!-- Title: NxNgc::process_instances Pages: 1 -->
<svg width="619pt" height="323pt"
 viewBox="0.00 0.00 619.00 323.00" xmlns="http://www.w3.org/2000/svg" xmlns:xlink="http://www.w3.org/1999/xlink">
<g id="graph0" class="graph" transform="scale(1 1) rotate(0) translate(4 319)">
<title>NxNgc::process_instances</title>
<polygon fill="white" stroke="none" points="-4,4 -4,-319 615,-319 615,4 -4,4"/>
<!-- Node1 -->
<g id="node1" class="node"><title>Node1</title>
<g id="a_node1"><a xlink:title=" ">
<polygon fill="#bfbfbf" stroke="black" points="0,-197.5 0,-216.5 134,-216.5 134,-197.5 0,-197.5"/>
<text text-anchor="middle" x="67" y="-204.5" font-family="Helvetica,sans-Serif" font-size="10.00">NxNgc::process_instances</text>
</a>
</g>
</g>
<!-- Node2 -->
<g id="node2" class="node"><title>Node2</title>
<g id="a_node2"><a xlink:href="../../da/d78/class_nx_ngc_1_1_c_instance.html#a1d9b3708efb6c5e3b2237e86e6dc929d" target="_top" xlink:title=" ">
<polygon fill="white" stroke="black" points="170.5,-295.5 170.5,-314.5 313.5,-314.5 313.5,-295.5 170.5,-295.5"/>
<text text-anchor="middle" x="242" y="-302.5" font-family="Helvetica,sans-Serif" font-size="10.00">NxNgc::CInstance::GetActive</text>
</a>
</g>
</g>
<!-- Node1&#45;&gt;Node2 -->
<g id="edge1" class="edge"><title>Node1&#45;&gt;Node2</title>
<path fill="none" stroke="midnightblue" d="M78.8874,-216.632C96.7859,-232.052 134.04,-262.425 170,-281 178.235,-285.254 187.384,-288.999 196.302,-292.188"/>
<polygon fill="midnightblue" stroke="midnightblue" points="195.238,-295.523 205.833,-295.429 197.492,-288.896 195.238,-295.523"/>
</g>
<!-- Node3 -->
<g id="node3" class="node"><title>Node3</title>
<g id="a_node3"><a xlink:href="../../da/d78/class_nx_ngc_1_1_c_instance.html#a984b0ff343f5cf1eccbcc7cd48725587" target="_top" xlink:title=" ">
<polygon fill="white" stroke="black" points="352.5,-252 352.5,-282 492.5,-282 492.5,-252 352.5,-252"/>
<text text-anchor="start" x="360.5" y="-270" font-family="Helvetica,sans-Serif" font-size="10.00">NxNgc::CInstance::GetBone</text>
<text text-anchor="middle" x="422.5" y="-259" font-family="Helvetica,sans-Serif" font-size="10.00">Transforms</text>
</a>
</g>
</g>
<!-- Node1&#45;&gt;Node3 -->
<g id="edge2" class="edge"><title>Node1&#45;&gt;Node3</title>
<path fill="none" stroke="midnightblue" d="M111.839,-216.518C129.823,-220.295 150.873,-224.55 170,-228 227.563,-238.382 292.845,-248.456 342.47,-255.763"/>
<polygon fill="midnightblue" stroke="midnightblue" points="342.094,-259.246 352.496,-257.234 343.11,-252.32 342.094,-259.246"/>
</g>
<!-- Node4 -->
<g id="node4" class="node"><title>Node4</title>
<g id="a_node4"><a xlink:href="../../da/d78/class_nx_ngc_1_1_c_instance.html#a0056714d5201d188a4643f0da3129c42" target="_top" xlink:title=" ">
<polygon fill="white" stroke="black" points="173.5,-82 173.5,-112 310.5,-112 310.5,-82 173.5,-82"/>
<text text-anchor="start" x="181.5" y="-100" font-family="Helvetica,sans-Serif" font-size="10.00">NxNgc::CInstance::GetNext</text>
<text text-anchor="middle" x="242" y="-89" font-family="Helvetica,sans-Serif" font-size="10.00">Instance</text>
</a>
</g>
</g>
<!-- Node1&#45;&gt;Node4 -->
<g id="edge3" class="edge"><title>Node1&#45;&gt;Node4</title>
<path fill="none" stroke="midnightblue" d="M77.2499,-197.278C94.1787,-179.977 131.919,-143.634 170,-122 173.707,-119.894 177.622,-117.919 181.633,-116.075"/>
<polygon fill="midnightblue" stroke="midnightblue" points="183.297,-119.17 191.109,-112.013 180.539,-112.736 183.297,-119.17"/>
</g>
<!-- Node5 -->
<g id="node5" class="node"><title>Node5</title>
<g id="a_node5"><a xlink:href="../../da/d78/class_nx_ngc_1_1_c_instance.html#a50dc29547f44923d864986415682de93" target="_top" xlink:title=" ">
<polygon fill="white" stroke="black" points="350,-213.5 350,-232.5 495,-232.5 495,-213.5 350,-213.5"/>
<text text-anchor="middle" x="422.5" y="-220.5" font-family="Helvetica,sans-Serif" font-size="10.00">NxNgc::CInstance::GetScene</text>
</a>
</g>
</g>
<!-- Node1&#45;&gt;Node5 -->
<g id="edge4" class="edge"><title>Node1&#45;&gt;Node5</title>
<path fill="none" stroke="midnightblue" d="M134.076,-209.991C192.285,-212.625 277.291,-216.473 339.763,-219.3"/>
<polygon fill="midnightblue" stroke="midnightblue" points="339.83,-222.807 349.979,-219.763 340.147,-215.814 339.83,-222.807"/>
</g>
<!-- Node6 -->
<g id="node6" class="node"><title>Node6</title>
<g id="a_node6"><a xlink:href="../../da/d63/namespace_nx_ngc.html#afd8475b3e5fe74c5576425f26dd7d145" target="_top" xlink:title=" ">
<polygon fill="white" stroke="black" points="187,-170 187,-200 297,-200 297,-170 187,-170"/>
<text text-anchor="start" x="195" y="-188" font-family="Helvetica,sans-Serif" font-size="10.00">NxNgc::sort_by_bone</text>
<text text-anchor="middle" x="242" y="-177" font-family="Helvetica,sans-Serif" font-size="10.00">_transform</text>
</a>
</g>
</g>
<!-- Node1&#45;&gt;Node6 -->
<g id="edge5" class="edge"><title>Node1&#45;&gt;Node6</title>
<path fill="none" stroke="midnightblue" d="M134.392,-198.557C148.347,-196.783 163.041,-194.914 176.91,-193.15"/>
<polygon fill="midnightblue" stroke="midnightblue" points="177.362,-196.621 186.84,-191.887 176.478,-189.677 177.362,-196.621"/>
</g>
<!-- Node7 -->
<g id="node7" class="node"><title>Node7</title>
<g id="a_node7"><a xlink:href="../../da/d78/class_nx_ngc_1_1_c_instance.html#a270d5b5babe366b5ecada08b713f5a27" target="_top" xlink:title=" ">
<polygon fill="white" stroke="black" points="170,-131.5 170,-150.5 314,-150.5 314,-131.5 170,-131.5"/>
<text text-anchor="middle" x="242" y="-138.5" font-family="Helvetica,sans-Serif" font-size="10.00">NxNgc::CInstance::Transform</text>
</a>
</g>
</g>
<!-- Node1&#45;&gt;Node7 -->
<g id="edge7" class="edge"><title>Node1&#45;&gt;Node7</title>
<path fill="none" stroke="midnightblue" d="M86.3992,-197.362C106.523,-187.097 139.925,-170.863 170,-160 176.531,-157.641 183.494,-155.426 190.41,-153.401"/>
<polygon fill="midnightblue" stroke="midnightblue" points="191.776,-156.653 200.454,-150.575 189.88,-149.914 191.776,-156.653"/>
</g>
<!-- Node6&#45;&gt;Node5 -->
<g id="edge6" class="edge"><title>Node6&#45;&gt;Node5</title>
<path fill="none" stroke="midnightblue" d="M297.04,-196.504C319.108,-201.202 344.596,-206.628 366.738,-211.342"/>
<polygon fill="midnightblue" stroke="midnightblue" points="366.142,-214.793 376.651,-213.452 367.599,-207.947 366.142,-214.793"/>
</g>
<!-- Node7&#45;&gt;Node3 -->
<g id="edge8" class="edge"><title>Node7&#45;&gt;Node3</title>
<path fill="none" stroke="midnightblue" d="M298.6,-150.504C304.176,-152.982 309.449,-156.094 314,-160 344.203,-185.923 320.789,-214.965 350,-242 351.686,-243.56 353.475,-245.024 355.344,-246.397"/>
<polygon fill="midnightblue" stroke="midnightblue" points="353.668,-249.478 363.993,-251.856 357.404,-243.559 353.668,-249.478"/>
</g>
<!-- Node7&#45;&gt;Node5 -->
<g id="edge12" class="edge"><title>Node7&#45;&gt;Node5</title>
<path fill="none" stroke="midnightblue" d="M294.302,-150.574C301.222,-153.035 307.997,-156.124 314,-160 335.228,-173.704 328.76,-190.314 350,-204 353.306,-206.131 356.845,-208.023 360.513,-209.705"/>
<polygon fill="midnightblue" stroke="midnightblue" points="359.255,-212.971 369.838,-213.463 361.872,-206.479 359.255,-212.971"/>
</g>
<!-- Node8 -->
<g id="node8" class="node"><title>Node8</title>
<g id="a_node8"><a xlink:href="../../da/d78/class_nx_ngc_1_1_c_instance.html#ad28e27a0a3cfba3922da00df64acb9ca" target="_top" xlink:title=" ">
<polygon fill="white" stroke="black" points="354,-126 354,-156 491,-156 491,-126 354,-126"/>
<text text-anchor="start" x="362" y="-144" font-family="Helvetica,sans-Serif" font-size="10.00">NxNgc::CInstance::GetNum</text>
<text text-anchor="middle" x="422.5" y="-133" font-family="Helvetica,sans-Serif" font-size="10.00">Bones</text>
</a>
</g>
</g>
<!-- Node7&#45;&gt;Node8 -->
<g id="edge9" class="edge"><title>Node7&#45;&gt;Node8</title>
<path fill="none" stroke="midnightblue" d="M314.061,-141C323.802,-141 333.845,-141 343.699,-141"/>
<polygon fill="midnightblue" stroke="midnightblue" points="343.879,-144.5 353.879,-141 343.879,-137.5 343.879,-144.5"/>
</g>
<!-- Node9 -->
<g id="node9" class="node"><title>Node9</title>
<g id="a_node9"><a xlink:href="../../da/d78/class_nx_ngc_1_1_c_instance.html#aff70be8246c64f8519487bf14a5baff9" target="_top" xlink:title=" ">
<polygon fill="white" stroke="black" points="355.5,-77 355.5,-107 489.5,-107 489.5,-77 355.5,-77"/>
<text text-anchor="start" x="363.5" y="-95" font-family="Helvetica,sans-Serif" font-size="10.00">NxNgc::CInstance::GetPos</text>
<text text-anchor="middle" x="422.5" y="-84" font-family="Helvetica,sans-Serif" font-size="10.00">NormalBuffer</text>
</a>
</g>
</g>
<!-- Node7&#45;&gt;Node9 -->
<g id="edge10" class="edge"><title>Node7&#45;&gt;Node9</title>
<path fill="none" stroke="midnightblue" d="M277.84,-131.436C300.34,-125.26 330.301,-117.035 357.038,-109.696"/>
<polygon fill="midnightblue" stroke="midnightblue" points="358.006,-113.059 366.722,-107.037 356.153,-106.309 358.006,-113.059"/>
</g>
<!-- Node11 -->
<g id="node11" class="node"><title>Node11</title>
<g id="a_node11"><a xlink:href="../../d3/df7/_n_g_c_2_n_x_2instance_8cpp.html#a222c7244074181544a99900a2af18c19" target="_top" xlink:title=" ">
<polygon fill="white" stroke="black" points="384,-38.5 384,-57.5 461,-57.5 461,-38.5 384,-38.5"/>
<text text-anchor="middle" x="422.5" y="-45.5" font-family="Helvetica,sans-Serif" font-size="10.00">TransformAcc</text>
</a>
</g>
</g>
<!-- Node7&#45;&gt;Node11 -->
<g id="edge13" class="edge"><title>Node7&#45;&gt;Node11</title>
<path fill="none" stroke="midnightblue" d="M293.937,-131.454C301.063,-128.783 307.993,-125.368 314,-121 337.329,-104.037 326.545,-83.7892 350,-67 357.056,-61.949 365.368,-58.2407 373.781,-55.5182"/>
<polygon fill="midnightblue" stroke="midnightblue" points="374.952,-58.8249 383.635,-52.7537 373.061,-52.0851 374.952,-58.8249"/>
</g>
<!-- Node12 -->
<g id="node12" class="node"><title>Node12</title>
<g id="a_node12"><a xlink:href="../../d3/df7/_n_g_c_2_n_x_2instance_8cpp.html#a99ace77bcede89cf46654cf9f57ef9b9" target="_top" xlink:title=" ">
<polygon fill="white" stroke="black" points="378,-0.5 378,-19.5 467,-19.5 467,-0.5 378,-0.5"/>
<text text-anchor="middle" x="422.5" y="-7.5" font-family="Helvetica,sans-Serif" font-size="10.00">TransformDouble</text>
</a>
</g>
</g>
<!-- Node7&#45;&gt;Node12 -->
<g id="edge14" class="edge"><title>Node7&#45;&gt;Node12</title>
<path fill="none" stroke="midnightblue" d="M297.715,-131.343C303.655,-128.682 309.255,-125.299 314,-121 346.537,-91.5171 317.245,-58.2406 350,-29 355.214,-24.345 361.443,-20.8106 368.019,-18.1306"/>
<polygon fill="midnightblue" stroke="midnightblue" points="369.491,-21.3266 377.825,-14.7844 367.23,-14.7017 369.491,-21.3266"/>
</g>
<!-- Node13 -->
<g id="node13" class="node"><title>Node13</title>
<g id="a_node13"><a xlink:href="../../d3/df7/_n_g_c_2_n_x_2instance_8cpp.html#ad0a3b7546286313adcb2d57f1407ecb2" target="_top" xlink:title=" ">
<polygon fill="white" stroke="black" points="379.5,-175.5 379.5,-194.5 465.5,-194.5 465.5,-175.5 379.5,-175.5"/>
<text text-anchor="middle" x="422.5" y="-182.5" font-family="Helvetica,sans-Serif" font-size="10.00">TransformSingle</text>
</a>
</g>
</g>
<!-- Node7&#45;&gt;Node13 -->
<g id="edge15" class="edge"><title>Node7&#45;&gt;Node13</title>
<path fill="none" stroke="midnightblue" d="M281.732,-150.547C308.514,-157.149 344.347,-165.982 373.025,-173.051"/>
<polygon fill="midnightblue" stroke="midnightblue" points="372.297,-176.476 382.844,-175.471 373.972,-169.68 372.297,-176.476"/>
</g>
<!-- Node10 -->
<g id="node10" class="node"><title>Node10</title>
<g id="a_node10"><a xlink:href="../../d3/dbf/namespace_ns_buffer.html#a847897492a024bf45c99ef6fad8d8916" target="_top" xlink:title=" ">
<polygon fill="white" stroke="black" points="531,-82.5 531,-101.5 611,-101.5 611,-82.5 531,-82.5"/>
<text text-anchor="middle" x="571" y="-89.5" font-family="Helvetica,sans-Serif" font-size="10.00">NsBuffer::alloc</text>
</a>
</g>
</g>
<!-- Node9&#45;&gt;Node10 -->
<g id="edge11" class="edge"><title>Node9&#45;&gt;Node10</title>
<path fill="none" stroke="midnightblue" d="M489.892,-92C500.231,-92 510.753,-92 520.626,-92"/>
<polygon fill="midnightblue" stroke="midnightblue" points="520.644,-95.5001 530.644,-92 520.644,-88.5001 520.644,-95.5001"/>
</g>
</g>
</svg>
