<?xml version="1.0" encoding="UTF-8" standalone="no"?>
<!DOCTYPE svg PUBLIC "-//W3C//DTD SVG 1.1//EN"
 "http://www.w3.org/Graphics/SVG/1.1/DTD/svg11.dtd">
<!-- Generated by graphviz version 2.38.0 (20140413.2041)
 -->
<!-- Title: NxNgc::ApplyMeshScaling Pages: 1 -->
<svg width="297pt" height="142pt"
 viewBox="0.00 0.00 297.00 142.00" xmlns="http://www.w3.org/2000/svg" xmlns:xlink="http://www.w3.org/1999/xlink">
<g id="graph0" class="graph" transform="scale(1 1) rotate(0) translate(4 138)">
<title>NxNgc::ApplyMeshScaling</title>
<polygon fill="white" stroke="none" points="-4,4 -4,-138 293,-138 293,4 -4,4"/>
<!-- Node1 -->
<g id="node1" class="node"><title>Node1</title>
<g id="a_node1"><a xlink:title=" ">
<polygon fill="#bfbfbf" stroke="black" points="0,-57.5 0,-76.5 133,-76.5 133,-57.5 0,-57.5"/>
<text text-anchor="middle" x="66.5" y="-64.5" font-family="Helvetica,sans-Serif" font-size="10.00">NxNgc::ApplyMeshScaling</text>
</a>
</g>
</g>
<!-- Node2 -->
<g id="node2" class="node"><title>Node2</title>
<g id="a_node2"><a xlink:href="../../da/d37/namespace_dbg.html#a3c3c5b63d794ccd4b83658648fffcaf5" target="_top" xlink:title=" ">
<polygon fill="white" stroke="black" points="204,-114.5 204,-133.5 254,-133.5 254,-114.5 204,-114.5"/>
<text text-anchor="middle" x="229" y="-121.5" font-family="Helvetica,sans-Serif" font-size="10.00">Dbg::for</text>
</a>
</g>
</g>
<!-- Node1&#45;&gt;Node2 -->
<g id="edge1" class="edge"><title>Node1&#45;&gt;Node2</title>
<path fill="none" stroke="midnightblue" d="M91.9957,-76.537C112.482,-84.4245 142.522,-95.7856 169,-105 177.093,-107.816 185.859,-110.719 194.097,-113.381"/>
<polygon fill="midnightblue" stroke="midnightblue" points="193.211,-116.773 203.802,-116.488 195.346,-110.106 193.211,-116.773"/>
</g>
<!-- Node3 -->
<g id="node3" class="node"><title>Node3</title>
<g id="a_node3"><a xlink:href="../../da/d63/namespace_nx_ngc.html#a86e9993de0359b51b515eae0ec163361" target="_top" xlink:title=" ">
<polygon fill="white" stroke="black" points="172.5,-76.5 172.5,-95.5 285.5,-95.5 285.5,-76.5 172.5,-76.5"/>
<text text-anchor="middle" x="229" y="-83.5" font-family="Helvetica,sans-Serif" font-size="10.00">NxNgc::get_bone_pos</text>
</a>
</g>
</g>
<!-- Node1&#45;&gt;Node3 -->
<g id="edge2" class="edge"><title>Node1&#45;&gt;Node3</title>
<path fill="none" stroke="midnightblue" d="M133.245,-74.7828C142.781,-75.9118 152.6,-77.0741 162.139,-78.2033"/>
<polygon fill="midnightblue" stroke="midnightblue" points="162.01,-81.7125 172.352,-79.4124 162.833,-74.761 162.01,-81.7125"/>
</g>
<!-- Node4 -->
<g id="node4" class="node"><title>Node4</title>
<g id="a_node4"><a xlink:href="../../da/d63/namespace_nx_ngc.html#acc8f7d2afcce68d2fa5a42fd9cb833a1" target="_top" xlink:title=" ">
<polygon fill="white" stroke="black" points="169,-38.5 169,-57.5 289,-57.5 289,-38.5 169,-38.5"/>
<text text-anchor="middle" x="229" y="-45.5" font-family="Helvetica,sans-Serif" font-size="10.00">NxNgc::get_bone_scale</text>
</a>
</g>
</g>
<!-- Node1&#45;&gt;Node4 -->
<g id="edge3" class="edge"><title>Node1&#45;&gt;Node4</title>
<path fill="none" stroke="midnightblue" d="M133.245,-59.2172C141.615,-58.2263 150.203,-57.2096 158.628,-56.2122"/>
<polygon fill="midnightblue" stroke="midnightblue" points="159.279,-59.6597 168.799,-55.0083 158.456,-52.7082 159.279,-59.6597"/>
</g>
<!-- Node5 -->
<g id="node5" class="node"><title>Node5</title>
<g id="a_node5"><a xlink:href="../../d1/d08/class_mth_1_1_vector.html#a616824c24fa4d62c4dddb82628517bab" target="_top" xlink:title=" ">
<polygon fill="white" stroke="black" points="180,-0.5 180,-19.5 278,-19.5 278,-0.5 180,-0.5"/>
<text text-anchor="middle" x="229" y="-7.5" font-family="Helvetica,sans-Serif" font-size="10.00">Mth::Vector::Scale</text>
</a>
</g>
</g>
<!-- Node1&#45;&gt;Node5 -->
<g id="edge4" class="edge"><title>Node1&#45;&gt;Node5</title>
<path fill="none" stroke="midnightblue" d="M91.9957,-57.463C112.482,-49.5755 142.522,-38.2144 169,-29 175.003,-26.9111 181.376,-24.7747 187.63,-22.724"/>
<polygon fill="midnightblue" stroke="midnightblue" points="188.855,-26.006 197.287,-19.591 186.695,-19.3475 188.855,-26.006"/>
</g>
</g>
</svg>
