<?xml version="1.0" encoding="UTF-8" standalone="no"?>
<!DOCTYPE svg PUBLIC "-//W3C//DTD SVG 1.1//EN"
 "http://www.w3.org/Graphics/SVG/1.1/DTD/svg11.dtd">
<!-- Generated by graphviz version 2.38.0 (20140413.2041)
 -->
<!-- Title: NxNgc::make_scene_visible Pages: 1 -->
<!--zoomable 97 -->
<svg id="main" version="1.1" xmlns="http://www.w3.org/2000/svg" xmlns:xlink="http://www.w3.org/1999/xlink" xml:space="preserve" onload="init(evt)">
<style type="text/css"><![CDATA[
.edge:hover path { stroke: red; }
.edge:hover polygon { stroke: red; fill: red; }
]]></style>
<script type="text/javascript"><![CDATA[
var edges = document.getElementsByTagName('g');
if (edges && edges.length) {
  for (var i=0;i<edges.length;i++) {
    if (edges[i].id.substr(0,4)=='edge') {
      edges[i].setAttribute('class','edge');
    }
  }
}
]]></script>
        <defs>
                <circle id="rim" cx="0" cy="0" r="7"/>
                <circle id="rim2" cx="0" cy="0" r="3.5"/>
                <g id="zoomPlus">
                        <use xlink:href="#rim" fill="#404040">
                                <set attributeName="fill" to="#808080" begin="zoomplus.mouseover" end="zoomplus.mouseout"/>
                        </use>
                        <path d="M-4,0h8M0,-4v8" fill="none" stroke="white" stroke-width="1.5" pointer-events="none"/>
                </g>
                <g id="zoomMin">
                        <use xlink:href="#rim" fill="#404040">
                                <set attributeName="fill" to="#808080" begin="zoomminus.mouseover" end="zoomminus.mouseout"/>
                        </use>
                        <path d="M-4,0h8" fill="none" stroke="white" stroke-width="1.5" pointer-events="none"/>
                </g>
                <g id="dirArrow">
                        <path fill="none" stroke="white" stroke-width="1.5" d="M0,-3.0v7 M-2.5,-0.5L0,-3.0L2.5,-0.5"/>
                </g>
               <g id="resetDef">
                       <use xlink:href="#rim2" fill="#404040">
                               <set attributeName="fill" to="#808080" begin="reset.mouseover" end="reset.mouseout"/>
                       </use>
               </g>
        </defs>

<script type="text/javascript">
var viewWidth = 1026;
var viewHeight = 97;
var sectionId = 'dynsection-83';
</script>
<script xlink:href="../../svgpan.js"/>
<svg id="graph" class="graph">
<g id="viewport">
<title>NxNgc::make_scene_visible</title>
<polygon fill="white" stroke="none" points="-4,4 -4,-93.2941 1022,-93.2941 1022,4 -4,4"/>
<!-- Node1 -->
<g id="node1" class="node"><title>Node1</title>
<g id="a_node1"><a xlink:title=" ">
<polygon fill="#bfbfbf" stroke="black" points="879,-3.79414 879,-22.7941 1018,-22.7941 1018,-3.79414 879,-3.79414"/>
<text text-anchor="middle" x="948.5" y="-10.7941" font-family="Helvetica,sans-Serif" font-size="10.00">NxNgc::make_scene_visible</text>
</a>
</g>
</g>
<!-- Node2 -->
<g id="node2" class="node"><title>Node2</title>
<g id="a_node2"><a xlink:href="../../da/d78/class_nx_ngc_1_1_c_instance.html#ae8f235a087ae559bf2cd8c1315601edb" target="_top" xlink:title=" ">
<polygon fill="white" stroke="black" points="711,-25.7941 711,-44.7941 843,-44.7941 843,-25.7941 711,-25.7941"/>
<text text-anchor="middle" x="777" y="-32.7941" font-family="Helvetica,sans-Serif" font-size="10.00">NxNgc::CInstance::Render</text>
</a>
</g>
</g>
<!-- Node1&#45;&gt;Node2 -->
<g id="edge1" class="edge"><title>Node1&#45;&gt;Node2</title>
<path fill="none" stroke="midnightblue" d="M868.581,-23.5373C860.033,-24.6468 851.405,-25.7666 843.048,-26.8513"/>
<polygon fill="midnightblue" stroke="midnightblue" points="869.092,-27.0005 878.558,-22.2424 868.191,-20.0587 869.092,-27.0005"/>
</g>
<!-- Node4 -->
<g id="node4" class="node"><title>Node4</title>
<g id="a_node4"><a xlink:href="../../d9/d8c/class_nx_1_1_c_engine.html#ab07e94b0d679732290471b10cd1ef1b6" target="_top" xlink:title=" ">
<polygon fill="white" stroke="black" points="409,-20.2941 409,-50.2941 513,-50.2941 513,-20.2941 409,-20.2941"/>
<text text-anchor="start" x="417" y="-38.2941" font-family="Helvetica,sans-Serif" font-size="10.00">Nx::CEngine::s_plat</text>
<text text-anchor="middle" x="461" y="-27.2941" font-family="Helvetica,sans-Serif" font-size="10.00">_render_world</text>
</a>
</g>
</g>
<!-- Node1&#45;&gt;Node4 -->
<g id="edge9" class="edge"><title>Node1&#45;&gt;Node4</title>
<path fill="none" stroke="midnightblue" d="M868.608,-5.90266C787.886,0.0718488 659.047,5.20369 549,-10.2941 534.527,-12.3323 519.088,-16.1889 505.295,-20.2738"/>
<polygon fill="midnightblue" stroke="midnightblue" points="868.459,-9.40136 878.696,-6.67232 868.992,-2.42164 868.459,-9.40136"/>
</g>
<!-- Node3 -->
<g id="node3" class="node"><title>Node3</title>
<g id="a_node3"><a xlink:href="../../da/d63/namespace_nx_ngc.html#a2109727dab89700c051ae95bbcc25415" target="_top" xlink:title=" ">
<polygon fill="white" stroke="black" points="549,-69.7941 549,-88.7941 675,-88.7941 675,-69.7941 549,-69.7941"/>
<text text-anchor="middle" x="612" y="-76.7941" font-family="Helvetica,sans-Serif" font-size="10.00">NxNgc::render_instances</text>
</a>
</g>
</g>
<!-- Node2&#45;&gt;Node3 -->
<g id="edge2" class="edge"><title>Node2&#45;&gt;Node3</title>
<path fill="none" stroke="midnightblue" d="M730.972,-47.4488C704.889,-54.4896 672.528,-63.2254 648.3,-69.7654"/>
<polygon fill="midnightblue" stroke="midnightblue" points="731.889,-50.8267 740.631,-44.8415 730.065,-44.0686 731.889,-50.8267"/>
</g>
<!-- Node8 -->
<g id="node8" class="node"><title>Node8</title>
<g id="a_node8"><a xlink:href="../../da/d63/namespace_nx_ngc.html#a46b5ffe2d958df4c5e41b2412403054c" target="_top" xlink:title=" ">
<polygon fill="white" stroke="black" points="553.5,-20.2941 553.5,-50.2941 670.5,-50.2941 670.5,-20.2941 553.5,-20.2941"/>
<text text-anchor="start" x="561.5" y="-38.2941" font-family="Helvetica,sans-Serif" font-size="10.00">NxNgc::render_shadow</text>
<text text-anchor="middle" x="612" y="-27.2941" font-family="Helvetica,sans-Serif" font-size="10.00">_targets</text>
</a>
</g>
</g>
<!-- Node2&#45;&gt;Node8 -->
<g id="edge7" class="edge"><title>Node2&#45;&gt;Node8</title>
<path fill="none" stroke="midnightblue" d="M700.342,-35.2941C690.394,-35.2941 680.33,-35.2941 670.745,-35.2941"/>
<polygon fill="midnightblue" stroke="midnightblue" points="700.641,-38.7942 710.641,-35.2941 700.641,-31.7942 700.641,-38.7942"/>
</g>
<!-- Node3&#45;&gt;Node4 -->
<g id="edge3" class="edge"><title>Node3&#45;&gt;Node4</title>
<path fill="none" stroke="midnightblue" d="M568.822,-66.8389C551.463,-61.7128 531.201,-55.7292 513.017,-50.3595"/>
<polygon fill="midnightblue" stroke="midnightblue" points="568.087,-70.2713 578.669,-69.7468 570.07,-63.5579 568.087,-70.2713"/>
</g>
<!-- Node5 -->
<g id="node5" class="node"><title>Node5</title>
<g id="a_node5"><a xlink:href="../../d9/d8c/class_nx_1_1_c_engine.html#ace274d6d74746eb2398ce51e6c5a5f30" target="_top" xlink:title=" ">
<polygon fill="white" stroke="black" points="234,-25.7941 234,-44.7941 373,-44.7941 373,-25.7941 234,-25.7941"/>
<text text-anchor="middle" x="303.5" y="-32.7941" font-family="Helvetica,sans-Serif" font-size="10.00">Nx::CEngine::sRenderWorld</text>
</a>
</g>
</g>
<!-- Node4&#45;&gt;Node5 -->
<g id="edge4" class="edge"><title>Node4&#45;&gt;Node5</title>
<path fill="none" stroke="midnightblue" d="M398.648,-35.2941C390.316,-35.2941 381.722,-35.2941 373.27,-35.2941"/>
<polygon fill="midnightblue" stroke="midnightblue" points="398.653,-38.7942 408.653,-35.2941 398.652,-31.7942 398.653,-38.7942"/>
</g>
<!-- Node6 -->
<g id="node6" class="node"><title>Node6</title>
<g id="a_node6"><a xlink:href="../../d3/d66/class_mlp_1_1_manager.html#a118bb3db98dd133cea15b15c288b29f0" target="_top" xlink:title=" ">
<polygon fill="white" stroke="black" points="74,-25.7941 74,-44.7941 198,-44.7941 198,-25.7941 74,-25.7941"/>
<text text-anchor="middle" x="136" y="-32.7941" font-family="Helvetica,sans-Serif" font-size="10.00">Mlp::Manager::MainLoop</text>
</a>
</g>
</g>
<!-- Node5&#45;&gt;Node6 -->
<g id="edge5" class="edge"><title>Node5&#45;&gt;Node6</title>
<path fill="none" stroke="midnightblue" d="M223.714,-35.2941C215.123,-35.2941 206.474,-35.2941 198.14,-35.2941"/>
<polygon fill="midnightblue" stroke="midnightblue" points="223.751,-38.7942 233.751,-35.2941 223.751,-31.7942 223.751,-38.7942"/>
</g>
<!-- Node7 -->
<g id="node7" class="node"><title>Node7</title>
<g id="a_node7"><a xlink:href="../../d5/d12/_main_8cpp.html#a0e18e794c708408ef1dec237965cb73d" target="_top" xlink:title=" ">
<polygon fill="white" stroke="black" points="0,-25.7941 0,-44.7941 38,-44.7941 38,-25.7941 0,-25.7941"/>
<text text-anchor="middle" x="19" y="-32.7941" font-family="Helvetica,sans-Serif" font-size="10.00">main</text>
</a>
</g>
</g>
<!-- Node6&#45;&gt;Node7 -->
<g id="edge6" class="edge"><title>Node6&#45;&gt;Node7</title>
<path fill="none" stroke="midnightblue" d="M63.7713,-35.2941C54.2902,-35.2941 45.3381,-35.2941 38.03,-35.2941"/>
<polygon fill="midnightblue" stroke="midnightblue" points="63.7963,-38.7942 73.7962,-35.2941 63.7962,-31.7942 63.7963,-38.7942"/>
</g>
<!-- Node8&#45;&gt;Node4 -->
<g id="edge8" class="edge"><title>Node8&#45;&gt;Node4</title>
<path fill="none" stroke="midnightblue" d="M543.33,-35.2941C533.182,-35.2941 522.863,-35.2941 513.136,-35.2941"/>
<polygon fill="midnightblue" stroke="midnightblue" points="543.393,-38.7942 553.393,-35.2941 543.393,-31.7942 543.393,-38.7942"/>
</g>
</g>
</svg>
        <g id="navigator" transform="translate(0 0)" fill="#404254">
                <rect fill="#f2f5e9" fill-opacity="0.5" stroke="#606060" stroke-width=".5" x="0" y="0" width="60" height="60"/>
                <use id="zoomplus" xlink:href="#zoomPlus" x="17" y="9" onmousedown="handleZoom(evt,'in')"/>
                <use id="zoomminus" xlink:href="#zoomMin" x="42" y="9" onmousedown="handleZoom(evt,'out')"/>
                <use id="reset" xlink:href="#resetDef" x="30" y="36" onmousedown="handleReset()"/>
                <g id="arrowUp" xlink:href="#dirArrow" transform="translate(30 24)" onmousedown="handlePan(0,-1)">
                  <use xlink:href="#rim" fill="#404040">
                        <set attributeName="fill" to="#808080" begin="arrowUp.mouseover" end="arrowUp.mouseout"/>
                  </use>
                  <path fill="none" stroke="white" stroke-width="1.5" d="M0,-3.0v7 M-2.5,-0.5L0,-3.0L2.5,-0.5"/>
                </g>
                <g id="arrowRight" xlink:href="#dirArrow" transform="rotate(90) translate(36 -43)" onmousedown="handlePan(1,0)">
                  <use xlink:href="#rim" fill="#404040">
                        <set attributeName="fill" to="#808080" begin="arrowRight.mouseover" end="arrowRight.mouseout"/>
                  </use>
                  <path fill="none" stroke="white" stroke-width="1.5" d="M0,-3.0v7 M-2.5,-0.5L0,-3.0L2.5,-0.5"/>
                </g>
                <g id="arrowDown" xlink:href="#dirArrow" transform="rotate(180) translate(-30 -48)" onmousedown="handlePan(0,1)">
                  <use xlink:href="#rim" fill="#404040">
                        <set attributeName="fill" to="#808080" begin="arrowDown.mouseover" end="arrowDown.mouseout"/>
                  </use>
                  <path fill="none" stroke="white" stroke-width="1.5" d="M0,-3.0v7 M-2.5,-0.5L0,-3.0L2.5,-0.5"/>
                </g>
                <g id="arrowLeft" xlink:href="#dirArrow" transform="rotate(270) translate(-36 17)" onmousedown="handlePan(-1,0)">
                  <use xlink:href="#rim" fill="#404040">
                        <set attributeName="fill" to="#808080" begin="arrowLeft.mouseover" end="arrowLeft.mouseout"/>
                  </use>
                  <path fill="none" stroke="white" stroke-width="1.5" d="M0,-3.0v7 M-2.5,-0.5L0,-3.0L2.5,-0.5"/>
                </g>
        </g>
        <svg viewBox="0 0 15 15" width="100%" height="30px" preserveAspectRatio="xMaxYMin meet">
         <g id="arrow_out" transform="scale(0.3 0.3)">
          <a xlink:href="namespace_nx_ngc_a6ff28ea644cee980735b325ad219cd8b_icgraph_org.svg" target="_base">
           <rect id="button" ry="5" rx="5" y="6" x="6" height="38" width="38"
                fill="#f2f5e9" fill-opacity="0.5" stroke="#606060" stroke-width="1.0"/>
           <path id="arrow"
             d="M 11.500037,31.436501 C 11.940474,20.09759 22.043105,11.32322 32.158766,21.979434 L 37.068811,17.246167 C 37.068811,17.246167 37.088388,32 37.088388,32 L 22.160133,31.978069 C 22.160133,31.978069 26.997745,27.140456 26.997745,27.140456 C 18.528582,18.264221 13.291696,25.230495 11.500037,31.436501 z"
             style="fill:#404040;"/>
          </a>
         </g>
        </svg>
</svg>
