<?xml version="1.0" encoding="UTF-8" standalone="no"?>
<!DOCTYPE svg PUBLIC "-//W3C//DTD SVG 1.1//EN"
 "http://www.w3.org/Graphics/SVG/1.1/DTD/svg11.dtd">
<!-- Generated by graphviz version 2.38.0 (20140413.2041)
 -->
<!-- Title: NxNgc::set_frustum_bbox_transform Pages: 1 -->
<svg width="252pt" height="142pt"
 viewBox="0.00 0.00 252.00 142.00" xmlns="http://www.w3.org/2000/svg" xmlns:xlink="http://www.w3.org/1999/xlink">
<g id="graph0" class="graph" transform="scale(1 1) rotate(0) translate(4 138)">
<title>NxNgc::set_frustum_bbox_transform</title>
<polygon fill="white" stroke="none" points="-4,4 -4,-138 248,-138 248,4 -4,4"/>
<!-- Node1 -->
<g id="node1" class="node"><title>Node1</title>
<g id="a_node1"><a xlink:title=" ">
<polygon fill="#bfbfbf" stroke="black" points="0,-52 0,-82 103,-82 103,-52 0,-52"/>
<text text-anchor="start" x="8" y="-70" font-family="Helvetica,sans-Serif" font-size="10.00">NxNgc::set_frustum</text>
<text text-anchor="middle" x="51.5" y="-59" font-family="Helvetica,sans-Serif" font-size="10.00">_bbox_transform</text>
</a>
</g>
</g>
<!-- Node2 -->
<g id="node2" class="node"><title>Node2</title>
<g id="a_node2"><a xlink:href="../../d9/d37/class_mth_1_1_matrix.html#a269ae2fa628a2a388f98cd852619875e" target="_top" xlink:title=" ">
<polygon fill="white" stroke="black" points="139,-114.5 139,-133.5 244,-133.5 244,-114.5 139,-114.5"/>
<text text-anchor="middle" x="191.5" y="-121.5" font-family="Helvetica,sans-Serif" font-size="10.00">Mth::Matrix::GetPos</text>
</a>
</g>
</g>
<!-- Node1&#45;&gt;Node2 -->
<g id="edge1" class="edge"><title>Node1&#45;&gt;Node2</title>
<path fill="none" stroke="midnightblue" d="M85.5722,-82.0894C101.607,-89.2614 121.204,-97.8161 139,-105 143.847,-106.957 148.98,-108.947 154.056,-110.866"/>
<polygon fill="midnightblue" stroke="midnightblue" points="153.06,-114.231 163.653,-114.444 155.505,-107.671 153.06,-114.231"/>
</g>
<!-- Node3 -->
<g id="node3" class="node"><title>Node3</title>
<g id="a_node3"><a xlink:href="../../d1/d08/class_mth_1_1_vector.html#aa5879c6e3b01b313acdc899265a46247" target="_top" xlink:title=" ">
<polygon fill="white" stroke="black" points="144,-76.5 144,-95.5 239,-95.5 239,-76.5 144,-76.5"/>
<text text-anchor="middle" x="191.5" y="-83.5" font-family="Helvetica,sans-Serif" font-size="10.00">Mth::Vector::GetX</text>
</a>
</g>
</g>
<!-- Node1&#45;&gt;Node3 -->
<g id="edge2" class="edge"><title>Node1&#45;&gt;Node3</title>
<path fill="none" stroke="midnightblue" d="M103.103,-73.967C113.026,-75.3332 123.497,-76.7749 133.609,-78.1672"/>
<polygon fill="midnightblue" stroke="midnightblue" points="133.185,-81.6417 143.569,-79.5385 134.14,-74.7071 133.185,-81.6417"/>
</g>
<!-- Node4 -->
<g id="node4" class="node"><title>Node4</title>
<g id="a_node4"><a xlink:href="../../d1/d08/class_mth_1_1_vector.html#a180cc532ba059d5717b486ae74170b13" target="_top" xlink:title=" ">
<polygon fill="white" stroke="black" points="143.5,-38.5 143.5,-57.5 239.5,-57.5 239.5,-38.5 143.5,-38.5"/>
<text text-anchor="middle" x="191.5" y="-45.5" font-family="Helvetica,sans-Serif" font-size="10.00">Mth::Vector::GetY</text>
</a>
</g>
</g>
<!-- Node1&#45;&gt;Node4 -->
<g id="edge3" class="edge"><title>Node1&#45;&gt;Node4</title>
<path fill="none" stroke="midnightblue" d="M103.103,-60.033C112.808,-58.6967 123.038,-57.2883 132.944,-55.9244"/>
<polygon fill="midnightblue" stroke="midnightblue" points="133.685,-59.3555 143.114,-54.5242 132.73,-52.4209 133.685,-59.3555"/>
</g>
<!-- Node5 -->
<g id="node5" class="node"><title>Node5</title>
<g id="a_node5"><a xlink:href="../../d1/d08/class_mth_1_1_vector.html#a09bf1a16a342e3424a5768a7f754d5ed" target="_top" xlink:title=" ">
<polygon fill="white" stroke="black" points="144,-0.5 144,-19.5 239,-19.5 239,-0.5 144,-0.5"/>
<text text-anchor="middle" x="191.5" y="-7.5" font-family="Helvetica,sans-Serif" font-size="10.00">Mth::Vector::GetZ</text>
</a>
</g>
</g>
<!-- Node1&#45;&gt;Node5 -->
<g id="edge4" class="edge"><title>Node1&#45;&gt;Node5</title>
<path fill="none" stroke="midnightblue" d="M85.5722,-51.9106C101.607,-44.7386 121.204,-36.1839 139,-29 143.847,-27.0435 148.98,-25.0532 154.056,-23.1335"/>
<polygon fill="midnightblue" stroke="midnightblue" points="155.505,-26.3286 163.653,-19.5561 153.06,-19.7694 155.505,-26.3286"/>
</g>
</g>
</svg>
