<?xml version="1.0" encoding="UTF-8" standalone="no"?>
<!DOCTYPE svg PUBLIC "-//W3C//DTD SVG 1.1//EN"
 "http://www.w3.org/Graphics/SVG/1.1/DTD/svg11.dtd">
<!-- Generated by graphviz version 2.38.0 (20140413.2041)
 -->
<!-- Title: Nx::SVCLight Pages: 1 -->
<!--zoomable 522 -->
<svg id="main" version="1.1" xmlns="http://www.w3.org/2000/svg" xmlns:xlink="http://www.w3.org/1999/xlink" xml:space="preserve" onload="init(evt)">
<style type="text/css"><![CDATA[
.edge:hover path { stroke: red; }
.edge:hover polygon { stroke: red; fill: red; }
]]></style>
<script type="text/javascript"><![CDATA[
var edges = document.getElementsByTagName('g');
if (edges && edges.length) {
  for (var i=0;i<edges.length;i++) {
    if (edges[i].id.substr(0,4)=='edge') {
      edges[i].setAttribute('class','edge');
    }
  }
}
]]></script>
        <defs>
                <circle id="rim" cx="0" cy="0" r="7"/>
                <circle id="rim2" cx="0" cy="0" r="3.5"/>
                <g id="zoomPlus">
                        <use xlink:href="#rim" fill="#404040">
                                <set attributeName="fill" to="#808080" begin="zoomplus.mouseover" end="zoomplus.mouseout"/>
                        </use>
                        <path d="M-4,0h8M0,-4v8" fill="none" stroke="white" stroke-width="1.5" pointer-events="none"/>
                </g>
                <g id="zoomMin">
                        <use xlink:href="#rim" fill="#404040">
                                <set attributeName="fill" to="#808080" begin="zoomminus.mouseover" end="zoomminus.mouseout"/>
                        </use>
                        <path d="M-4,0h8" fill="none" stroke="white" stroke-width="1.5" pointer-events="none"/>
                </g>
                <g id="dirArrow">
                        <path fill="none" stroke="white" stroke-width="1.5" d="M0,-3.0v7 M-2.5,-0.5L0,-3.0L2.5,-0.5"/>
                </g>
               <g id="resetDef">
                       <use xlink:href="#rim2" fill="#404040">
                               <set attributeName="fill" to="#808080" begin="reset.mouseover" end="reset.mouseout"/>
                       </use>
               </g>
        </defs>

<script type="text/javascript">
var viewWidth = 2070;
var viewHeight = 522;
var sectionId = 'dynsection-0';
</script>
<script xlink:href="../../svgpan.js"/>
<svg id="graph" class="graph">
<g id="viewport">
<title>Nx::SVCLight</title>
<polygon fill="white" stroke="none" points="-4,4 -4,-517.5 2066,-517.5 2066,4 -4,4"/>
<!-- Node1 -->
<g id="node1" class="node"><title>Node1</title>
<g id="a_node1"><a xlink:title=" ">
<polygon fill="#bfbfbf" stroke="black" points="1986,-420 1986,-439 2062,-439 2062,-420 1986,-420"/>
<text text-anchor="middle" x="2024" y="-427" font-family="Helvetica,sans-Serif" font-size="10.00">Nx::SVCLight</text>
</a>
</g>
</g>
<!-- Node2 -->
<g id="node2" class="node"><title>Node2</title>
<g id="a_node2"><a xlink:href="../../db/d67/class_lst_1_1_hash_table.html" target="_top" xlink:title=" ">
<polygon fill="white" stroke="black" points="1780,-414.5 1780,-444.5 1883,-444.5 1883,-414.5 1780,-414.5"/>
<text text-anchor="start" x="1788" y="-432.5" font-family="Helvetica,sans-Serif" font-size="10.00">Lst::HashTable&lt; Nx</text>
<text text-anchor="middle" x="1831.5" y="-421.5" font-family="Helvetica,sans-Serif" font-size="10.00">::CSector &gt;</text>
</a>
</g>
</g>
<!-- Node2&#45;&gt;Node1 -->
<g id="edge1" class="edge"><title>Node2&#45;&gt;Node1</title>
<path fill="none" stroke="#9a32cd" stroke-dasharray="5,2" d="M1893.14,-429.5C1923.59,-429.5 1959.49,-429.5 1985.82,-429.5"/>
<polygon fill="#9a32cd" stroke="#9a32cd" points="1893.05,-426 1883.05,-429.5 1893.05,-433 1893.05,-426"/>
<text text-anchor="middle" x="1934.5" y="-432.5" font-family="Helvetica,sans-Serif" font-size="10.00"> mp_sector_list</text>
</g>
<!-- Node3 -->
<g id="node3" class="node"><title>Node3</title>
<g id="a_node3"><a xlink:href="../../d8/d1b/class_lst_1_1_hash_item.html" target="_top" xlink:title=" ">
<polygon fill="white" stroke="black" points="1560,-371.5 1560,-401.5 1664,-401.5 1664,-371.5 1560,-371.5"/>
<text text-anchor="start" x="1568" y="-389.5" font-family="Helvetica,sans-Serif" font-size="10.00">Lst::HashItem&lt; Nx::</text>
<text text-anchor="middle" x="1612" y="-378.5" font-family="Helvetica,sans-Serif" font-size="10.00">CSector &gt;</text>
</a>
</g>
</g>
<!-- Node3&#45;&gt;Node2 -->
<g id="edge2" class="edge"><title>Node3&#45;&gt;Node2</title>
<path fill="none" stroke="#9a32cd" stroke-dasharray="5,2" d="M1674.23,-396.881C1701.2,-401.639 1733.24,-407.539 1762,-413.5 1767.74,-414.69 1773.74,-415.996 1779.69,-417.333"/>
<polygon fill="#9a32cd" stroke="#9a32cd" points="1674.61,-393.394 1664.15,-395.116 1673.4,-400.289 1674.61,-393.394"/>
<text text-anchor="middle" x="1724" y="-427.5" font-family="Helvetica,sans-Serif" font-size="10.00"> mp_iterator_item</text>
<text text-anchor="middle" x="1724" y="-416.5" font-family="Helvetica,sans-Serif" font-size="10.00">mp_hash_table</text>
</g>
<!-- Node3&#45;&gt;Node3 -->
<g id="edge3" class="edge"><title>Node3&#45;&gt;Node3</title>
<path fill="none" stroke="#9a32cd" stroke-dasharray="5,2" d="M1592.45,-411.958C1594.88,-416.679 1601.4,-420 1612,-420 1629.4,-420 1635.79,-411.057 1631.17,-401.659"/>
<polygon fill="#9a32cd" stroke="#9a32cd" points="1595.96,-411.78 1592.83,-401.659 1588.97,-411.525 1595.96,-411.78"/>
<text text-anchor="middle" x="1612" y="-423" font-family="Helvetica,sans-Serif" font-size="10.00"> mp_next</text>
</g>
<!-- Node4 -->
<g id="node4" class="node"><title>Node4</title>
<g id="a_node4"><a xlink:href="../../d3/d55/class_nx_1_1_c_sector.html" target="_top" xlink:title=" ">
<polygon fill="white" stroke="black" points="1356.5,-370 1356.5,-389 1426.5,-389 1426.5,-370 1356.5,-370"/>
<text text-anchor="middle" x="1391.5" y="-377" font-family="Helvetica,sans-Serif" font-size="10.00">Nx::CSector</text>
</a>
</g>
</g>
<!-- Node4&#45;&gt;Node3 -->
<g id="edge4" class="edge"><title>Node4&#45;&gt;Node3</title>
<path fill="none" stroke="#9a32cd" stroke-dasharray="5,2" d="M1436.72,-380.917C1472.29,-382.056 1522.3,-383.658 1559.63,-384.854"/>
<polygon fill="#9a32cd" stroke="#9a32cd" points="1436.75,-377.416 1426.64,-380.594 1436.52,-384.412 1436.75,-377.416"/>
<text text-anchor="middle" x="1500.5" y="-387.5" font-family="Helvetica,sans-Serif" font-size="10.00"> mp_value</text>
</g>
<!-- Node5 -->
<g id="node5" class="node"><title>Node5</title>
<g id="a_node5"><a xlink:href="../../d0/dec/class_nx_1_1_c_coll_static.html" target="_top" xlink:title=" ">
<polygon fill="white" stroke="black" points="1149,-422 1149,-441 1232,-441 1232,-422 1149,-422"/>
<text text-anchor="middle" x="1190.5" y="-429" font-family="Helvetica,sans-Serif" font-size="10.00">Nx::CCollStatic</text>
</a>
</g>
</g>
<!-- Node5&#45;&gt;Node4 -->
<g id="edge5" class="edge"><title>Node5&#45;&gt;Node4</title>
<path fill="none" stroke="#9a32cd" stroke-dasharray="5,2" d="M1237.83,-419.393C1274.03,-409.933 1323.53,-397 1356.23,-388.456"/>
<polygon fill="#9a32cd" stroke="#9a32cd" points="1236.79,-416.048 1228,-421.962 1238.56,-422.82 1236.79,-416.048"/>
<text text-anchor="middle" x="1285" y="-419.5" font-family="Helvetica,sans-Serif" font-size="10.00"> mp_coll_sector</text>
</g>
<!-- Node6 -->
<g id="node6" class="node"><title>Node6</title>
<g id="a_node6"><a xlink:href="../../d7/d8e/class_nx_1_1_c_coll_obj.html" target="_top" xlink:title=" ">
<polygon fill="white" stroke="black" points="936,-340 936,-359 1009,-359 1009,-340 936,-340"/>
<text text-anchor="middle" x="972.5" y="-347" font-family="Helvetica,sans-Serif" font-size="10.00">Nx::CCollObj</text>
</a>
</g>
</g>
<!-- Node6&#45;&gt;Node5 -->
<g id="edge6" class="edge"><title>Node6&#45;&gt;Node5</title>
<path fill="none" stroke="midnightblue" d="M1008.06,-362.62C1051.74,-379.201 1125.86,-407.342 1164.46,-421.994"/>
<polygon fill="midnightblue" stroke="midnightblue" points="1009.29,-359.344 998.701,-359.067 1006.81,-365.888 1009.29,-359.344"/>
</g>
<!-- Node7 -->
<g id="node7" class="node"><title>Node7</title>
<g id="a_node7"><a xlink:href="../../d9/d78/class_nx_1_1_c_coll_obj_tri_data.html" target="_top" xlink:title=" ">
<polygon fill="white" stroke="black" points="719,-236 719,-255 823,-255 823,-236 719,-236"/>
<text text-anchor="middle" x="771" y="-243" font-family="Helvetica,sans-Serif" font-size="10.00">Nx::CCollObjTriData</text>
</a>
</g>
</g>
<!-- Node7&#45;&gt;Node6 -->
<g id="edge7" class="edge"><title>Node7&#45;&gt;Node6</title>
<path fill="none" stroke="#9a32cd" stroke-dasharray="5,2" d="M796.001,-260.454C809.135,-268.461 825.788,-278.328 841,-286.5 878.677,-306.74 923.862,-327.88 949.969,-339.8"/>
<polygon fill="#9a32cd" stroke="#9a32cd" points="797.482,-257.256 787.13,-255.003 793.818,-263.221 797.482,-257.256"/>
<text text-anchor="middle" x="878.5" y="-326.5" font-family="Helvetica,sans-Serif" font-size="10.00"> mp_coll_tri_data</text>
</g>
<!-- Node22 -->
<g id="node22" class="node"><title>Node22</title>
<g id="a_node22"><a xlink:href="../../d8/dd6/class_nx_1_1_c_geom.html" target="_top" xlink:title=" ">
<polygon fill="white" stroke="black" points="1156.5,-282 1156.5,-301 1224.5,-301 1224.5,-282 1156.5,-282"/>
<text text-anchor="middle" x="1190.5" y="-289" font-family="Helvetica,sans-Serif" font-size="10.00">Nx::CGeom</text>
</a>
</g>
</g>
<!-- Node7&#45;&gt;Node22 -->
<g id="edge27" class="edge"><title>Node7&#45;&gt;Node22</title>
<path fill="none" stroke="#9a32cd" stroke-dasharray="5,2" d="M833.203,-252.243C922.71,-262.105 1086.26,-280.126 1156.27,-287.839"/>
<polygon fill="#9a32cd" stroke="#9a32cd" points="833.517,-248.757 823.194,-251.141 832.75,-255.715 833.517,-248.757"/>
<text text-anchor="middle" x="972.5" y="-275.5" font-family="Helvetica,sans-Serif" font-size="10.00"> mp_coll_tri_data</text>
</g>
<!-- Node8 -->
<g id="node8" class="node"><title>Node8</title>
<g id="a_node8"><a xlink:href="../../d2/dc7/struct_nx_1_1_c_coll_obj_tri_data_1_1_s_float_vert.html" target="_top" xlink:title=" ">
<polygon fill="white" stroke="black" points="482,-186.5 482,-216.5 586,-216.5 586,-186.5 482,-186.5"/>
<text text-anchor="start" x="490" y="-204.5" font-family="Helvetica,sans-Serif" font-size="10.00">Nx::CCollObjTriData</text>
<text text-anchor="middle" x="534" y="-193.5" font-family="Helvetica,sans-Serif" font-size="10.00">::SFloatVert</text>
</a>
</g>
</g>
<!-- Node8&#45;&gt;Node7 -->
<g id="edge8" class="edge"><title>Node8&#45;&gt;Node7</title>
<path fill="none" stroke="#9a32cd" stroke-dasharray="5,2" d="M596.239,-211.58C627.622,-216.902 666.415,-223.723 701,-230.5 709.541,-232.174 718.652,-234.073 727.36,-235.944"/>
<polygon fill="#9a32cd" stroke="#9a32cd" points="596.768,-208.12 586.325,-209.907 595.603,-215.022 596.768,-208.12"/>
<text text-anchor="middle" x="652.5" y="-233.5" font-family="Helvetica,sans-Serif" font-size="10.00"> mp_float_vert</text>
</g>
<!-- Node9 -->
<g id="node9" class="node"><title>Node9</title>
<g id="a_node9"><a xlink:href="../../d9/db8/class_nx_1_1_c_coll_b_s_p_node.html" target="_top" xlink:title=" ">
<polygon fill="white" stroke="black" points="483.5,-236 483.5,-255 584.5,-255 584.5,-236 483.5,-236"/>
<text text-anchor="middle" x="534" y="-243" font-family="Helvetica,sans-Serif" font-size="10.00">Nx::CCollBSPNode</text>
</a>
</g>
</g>
<!-- Node9&#45;&gt;Node7 -->
<g id="edge9" class="edge"><title>Node9&#45;&gt;Node7</title>
<path fill="none" stroke="#9a32cd" stroke-dasharray="5,2" d="M594.558,-245.5C632.932,-245.5 682.305,-245.5 718.894,-245.5"/>
<polygon fill="#9a32cd" stroke="#9a32cd" points="594.55,-242 584.55,-245.5 594.55,-249 594.55,-242"/>
<text text-anchor="middle" x="652.5" y="-248.5" font-family="Helvetica,sans-Serif" font-size="10.00"> mp_bsp_tree</text>
</g>
<!-- Node10 -->
<g id="node10" class="node"><title>Node10</title>
<g id="a_node10"><a xlink:href="../../da/dac/struct_nx_1_1_c_coll_b_s_p_node_1_1_s_node.html" target="_top" xlink:title=" ">
<polygon fill="white" stroke="black" points="272,-216 272,-235 408,-235 408,-216 272,-216"/>
<text text-anchor="middle" x="340" y="-223" font-family="Helvetica,sans-Serif" font-size="10.00">Nx::CCollBSPNode::SNode</text>
</a>
</g>
</g>
<!-- Node10&#45;&gt;Node9 -->
<g id="edge10" class="edge"><title>Node10&#45;&gt;Node9</title>
<path fill="none" stroke="#9a32cd" stroke-dasharray="5,2" d="M418.405,-232.835C433.53,-234.33 449.266,-235.927 464,-237.5 470.235,-238.166 476.785,-238.891 483.263,-239.624"/>
<polygon fill="#9a32cd" stroke="#9a32cd" points="418.345,-229.313 408.051,-231.819 417.661,-236.279 418.345,-229.313"/>
<text text-anchor="middle" x="445" y="-240.5" font-family="Helvetica,sans-Serif" font-size="10.00"> m_node</text>
</g>
<!-- Node11 -->
<g id="node11" class="node"><title>Node11</title>
<g id="a_node11"><a xlink:href="../../de/d0e/class_nx_1_1_c_coll_b_s_p_node_1_1_c_coll_b_s_p_children.html" target="_top" xlink:title=" ">
<polygon fill="white" stroke="black" points="0,-216 0,-235 185,-235 185,-216 0,-216"/>
<text text-anchor="middle" x="92.5" y="-223" font-family="Helvetica,sans-Serif" font-size="10.00">Nx::CCollBSPNode::CCollBSPChildren</text>
</a>
</g>
</g>
<!-- Node11&#45;&gt;Node10 -->
<g id="edge11" class="edge"><title>Node11&#45;&gt;Node10</title>
<path fill="none" stroke="#9a32cd" stroke-dasharray="5,2" d="M195.456,-225.5C221.243,-225.5 248.292,-225.5 271.869,-225.5"/>
<polygon fill="#9a32cd" stroke="#9a32cd" points="195.264,-222 185.264,-225.5 195.264,-229 195.264,-222"/>
<text text-anchor="middle" x="228.5" y="-228.5" font-family="Helvetica,sans-Serif" font-size="10.00"> m_children</text>
</g>
<!-- Node12 -->
<g id="node12" class="node"><title>Node12</title>
<g id="a_node12"><a xlink:href="../../d9/d9d/struct_nx_1_1_c_coll_b_s_p_node_1_1_s_leaf.html" target="_top" xlink:title=" ">
<polygon fill="white" stroke="black" points="274.5,-254 274.5,-273 405.5,-273 405.5,-254 274.5,-254"/>
<text text-anchor="middle" x="340" y="-261" font-family="Helvetica,sans-Serif" font-size="10.00">Nx::CCollBSPNode::SLeaf</text>
</a>
</g>
</g>
<!-- Node12&#45;&gt;Node9 -->
<g id="edge12" class="edge"><title>Node12&#45;&gt;Node9</title>
<path fill="none" stroke="#9a32cd" stroke-dasharray="5,2" d="M415.995,-256.469C438.619,-254.348 462.88,-252.074 483.411,-250.149"/>
<polygon fill="#9a32cd" stroke="#9a32cd" points="415.364,-253.013 405.735,-257.431 416.018,-259.982 415.364,-253.013"/>
<text text-anchor="middle" x="445" y="-258.5" font-family="Helvetica,sans-Serif" font-size="10.00"> m_leaf</text>
</g>
<!-- Node13 -->
<g id="node13" class="node"><title>Node13</title>
<g id="a_node13"><a xlink:href="../../d8/d32/struct_nx_1_1_c_coll_obj_tri_data_1_1_s_fixed_vert.html" target="_top" xlink:title=" ">
<polygon fill="white" stroke="black" points="482,-88.5 482,-118.5 586,-118.5 586,-88.5 482,-88.5"/>
<text text-anchor="start" x="490" y="-106.5" font-family="Helvetica,sans-Serif" font-size="10.00">Nx::CCollObjTriData</text>
<text text-anchor="middle" x="534" y="-95.5" font-family="Helvetica,sans-Serif" font-size="10.00">::SFixedVert</text>
</a>
</g>
</g>
<!-- Node13&#45;&gt;Node7 -->
<g id="edge13" class="edge"><title>Node13&#45;&gt;Node7</title>
<path fill="none" stroke="#9a32cd" stroke-dasharray="5,2" d="M596.353,-111.397C629.622,-117.986 670.126,-129.943 701,-151.5 733.367,-174.099 756.46,-216.81 765.627,-235.882"/>
<polygon fill="#9a32cd" stroke="#9a32cd" points="596.751,-107.911 586.279,-109.52 595.469,-114.793 596.751,-107.911"/>
<text text-anchor="middle" x="652.5" y="-154.5" font-family="Helvetica,sans-Serif" font-size="10.00"> mp_fixed_vert</text>
</g>
<!-- Node14 -->
<g id="node14" class="node"><title>Node14</title>
<g id="a_node14"><a xlink:href="../../de/d40/struct_nx_1_1_c_coll_obj_tri_data_1_1_s_face.html" target="_top" xlink:title=" ">
<polygon fill="white" stroke="black" points="482,-137.5 482,-167.5 586,-167.5 586,-137.5 482,-137.5"/>
<text text-anchor="start" x="490" y="-155.5" font-family="Helvetica,sans-Serif" font-size="10.00">Nx::CCollObjTriData</text>
<text text-anchor="middle" x="534" y="-144.5" font-family="Helvetica,sans-Serif" font-size="10.00">::SFace</text>
</a>
</g>
</g>
<!-- Node14&#45;&gt;Node7 -->
<g id="edge14" class="edge"><title>Node14&#45;&gt;Node7</title>
<path fill="none" stroke="#9a32cd" stroke-dasharray="5,2" d="M596.414,-164.452C628.476,-171.938 667.827,-183.12 701,-198.5 722.828,-208.621 745.361,-225.378 758.506,-235.91"/>
<polygon fill="#9a32cd" stroke="#9a32cd" points="596.805,-160.952 586.278,-162.151 595.255,-167.778 596.805,-160.952"/>
<text text-anchor="middle" x="652.5" y="-201.5" font-family="Helvetica,sans-Serif" font-size="10.00"> mp_faces</text>
</g>
<!-- Node15 -->
<g id="node15" class="node"><title>Node15</title>
<g id="a_node15"><a xlink:href="../../dd/dc9/struct_nx_1_1_c_coll_obj_tri_data_1_1_s_face_info.html" target="_top" xlink:title=" ">
<polygon fill="white" stroke="black" points="288,-56.5 288,-86.5 392,-86.5 392,-56.5 288,-56.5"/>
<text text-anchor="start" x="296" y="-74.5" font-family="Helvetica,sans-Serif" font-size="10.00">Nx::CCollObjTriData</text>
<text text-anchor="middle" x="340" y="-63.5" font-family="Helvetica,sans-Serif" font-size="10.00">::SFaceInfo</text>
</a>
</g>
</g>
<!-- Node15&#45;&gt;Node14 -->
<g id="edge15" class="edge"><title>Node15&#45;&gt;Node14</title>
<path fill="none" stroke="#9a32cd" stroke-dasharray="5,2" d="M385.889,-90.4377C419.806,-104.746 465.737,-124.124 497.202,-137.398"/>
<polygon fill="#9a32cd" stroke="#9a32cd" points="387.238,-87.2079 376.664,-86.5456 384.517,-93.6575 387.238,-87.2079"/>
<text text-anchor="middle" x="445" y="-125.5" font-family="Helvetica,sans-Serif" font-size="10.00"> m_info</text>
</g>
<!-- Node19 -->
<g id="node19" class="node"><title>Node19</title>
<g id="a_node19"><a xlink:href="../../df/d45/struct_nx_1_1_c_coll_obj_tri_data_1_1_s_face_small.html" target="_top" xlink:title=" ">
<polygon fill="white" stroke="black" points="482,-0.5 482,-30.5 586,-30.5 586,-0.5 482,-0.5"/>
<text text-anchor="start" x="490" y="-18.5" font-family="Helvetica,sans-Serif" font-size="10.00">Nx::CCollObjTriData</text>
<text text-anchor="middle" x="534" y="-7.5" font-family="Helvetica,sans-Serif" font-size="10.00">::SFaceSmall</text>
</a>
</g>
</g>
<!-- Node15&#45;&gt;Node19 -->
<g id="edge21" class="edge"><title>Node15&#45;&gt;Node19</title>
<path fill="none" stroke="#9a32cd" stroke-dasharray="5,2" d="M401.868,-53.7469C427.642,-46.2293 457.336,-37.5687 481.942,-30.3918"/>
<polygon fill="#9a32cd" stroke="#9a32cd" points="400.82,-50.4065 392.2,-56.5666 402.78,-57.1265 400.82,-50.4065"/>
<text text-anchor="middle" x="445" y="-48.5" font-family="Helvetica,sans-Serif" font-size="10.00"> m_info</text>
</g>
<!-- Node16 -->
<g id="node16" class="node"><title>Node16</title>
<g id="a_node16"><a xlink:href="../../db/dd6/class_ns_vector.html" target="_top" xlink:title=" ">
<polygon fill="white" stroke="black" points="505.5,-50 505.5,-69 562.5,-69 562.5,-50 505.5,-50"/>
<text text-anchor="middle" x="534" y="-57" font-family="Helvetica,sans-Serif" font-size="10.00">NsVector</text>
</a>
</g>
</g>
<!-- Node16&#45;&gt;Node7 -->
<g id="edge16" class="edge"><title>Node16&#45;&gt;Node7</title>
<path fill="none" stroke="#9a32cd" stroke-dasharray="5,2" d="M572.792,-56.472C609.344,-55.5751 664.431,-59.8344 701,-88.5 750.207,-127.073 765.115,-208.009 768.883,-235.851"/>
<polygon fill="#9a32cd" stroke="#9a32cd" points="572.401,-52.9845 562.545,-56.8698 572.673,-59.9792 572.401,-52.9845"/>
<text text-anchor="middle" x="652.5" y="-102.5" font-family="Helvetica,sans-Serif" font-size="10.00"> mp_cloned_vert_pos</text>
<text text-anchor="middle" x="652.5" y="-91.5" font-family="Helvetica,sans-Serif" font-size="10.00">mp_raw_vert_pos</text>
</g>
<!-- Node17 -->
<g id="node17" class="node"><title>Node17</title>
<g id="a_node17"><a xlink:href="../../d1/d08/class_mth_1_1_vector.html" target="_top" xlink:title=" ">
<polygon fill="white" stroke="black" points="306,-409 306,-428 374,-428 374,-409 306,-409"/>
<text text-anchor="middle" x="340" y="-416" font-family="Helvetica,sans-Serif" font-size="10.00">Mth::Vector</text>
</a>
</g>
</g>
<!-- Node17&#45;&gt;Node1 -->
<g id="edge33" class="edge"><title>Node17&#45;&gt;Node1</title>
<path fill="none" stroke="#9a32cd" stroke-dasharray="5,2" d="M361.346,-434.131C395.069,-458.428 465.534,-502.5 533,-502.5 533,-502.5 533,-502.5 1832.5,-502.5 1902.63,-502.5 1978.23,-458.831 2008.89,-439.043"/>
<polygon fill="#9a32cd" stroke="#9a32cd" points="363.341,-431.252 353.214,-428.136 359.187,-436.887 363.341,-431.252"/>
<text text-anchor="middle" x="1190.5" y="-505.5" font-family="Helvetica,sans-Serif" font-size="10.00"> m_pos</text>
</g>
<!-- Node17&#45;&gt;Node4 -->
<g id="edge29" class="edge"><title>Node17&#45;&gt;Node4</title>
<path fill="none" stroke="#9a32cd" stroke-dasharray="5,2" d="M384.164,-416.896C557.409,-410.458 1200.41,-386.564 1356.3,-380.771"/>
<polygon fill="#9a32cd" stroke="#9a32cd" points="384.006,-413.399 374.143,-417.268 384.266,-420.395 384.006,-413.399"/>
<text text-anchor="middle" x="878.5" y="-403.5" font-family="Helvetica,sans-Serif" font-size="10.00"> m_scale</text>
</g>
<!-- Node17&#45;&gt;Node5 -->
<g id="edge24" class="edge"><title>Node17&#45;&gt;Node5</title>
<path fill="none" stroke="#9a32cd" stroke-dasharray="5,2" d="M374.959,-431.459C412.898,-444.753 476.429,-463.5 533,-463.5 533,-463.5 533,-463.5 973.5,-463.5 1043.96,-463.5 1061.61,-457.721 1131,-445.5 1137.99,-444.268 1145.4,-442.703 1152.51,-441.068"/>
<polygon fill="#9a32cd" stroke="#9a32cd" points="376.019,-428.121 365.424,-428.043 373.658,-434.711 376.019,-428.121"/>
<text text-anchor="middle" x="771" y="-466.5" font-family="Helvetica,sans-Serif" font-size="10.00"> sWorldPos</text>
</g>
<!-- Node17&#45;&gt;Node7 -->
<g id="edge17" class="edge"><title>Node17&#45;&gt;Node7</title>
<path fill="none" stroke="#9a32cd" stroke-dasharray="5,2" d="M367.836,-403.972C384.44,-395.143 406.281,-383.814 426,-374.5 450.484,-362.935 456.381,-359.268 482,-350.5 577.157,-317.932 609.631,-335.538 701,-293.5 723.006,-283.375 745.486,-266.198 758.572,-255.372"/>
<polygon fill="#9a32cd" stroke="#9a32cd" points="365.887,-401.045 358.72,-408.848 369.189,-407.217 365.887,-401.045"/>
<text text-anchor="middle" x="534" y="-353.5" font-family="Helvetica,sans-Serif" font-size="10.00"> mp_vert_pos</text>
</g>
<!-- Node18 -->
<g id="node18" class="node"><title>Node18</title>
<g id="a_node18"><a xlink:href="../../dc/d50/class_mth_1_1_c_b_box.html" target="_top" xlink:title=" ">
<polygon fill="white" stroke="black" points="499,-371 499,-390 569,-390 569,-371 499,-371"/>
<text text-anchor="middle" x="534" y="-378" font-family="Helvetica,sans-Serif" font-size="10.00">Mth::CBBox</text>
</a>
</g>
</g>
<!-- Node17&#45;&gt;Node18 -->
<g id="edge19" class="edge"><title>Node17&#45;&gt;Node18</title>
<path fill="none" stroke="#9a32cd" stroke-dasharray="5,2" d="M367.228,-404.303C383.609,-396.228 405.428,-386.877 426,-382.5 449.988,-377.396 477.686,-377.023 498.891,-377.86"/>
<polygon fill="#9a32cd" stroke="#9a32cd" points="365.59,-401.209 358.263,-408.862 368.763,-407.449 365.59,-401.209"/>
<text text-anchor="middle" x="445" y="-396.5" font-family="Helvetica,sans-Serif" font-size="10.00"> m_min</text>
<text text-anchor="middle" x="445" y="-385.5" font-family="Helvetica,sans-Serif" font-size="10.00">m_max</text>
</g>
<!-- Node18&#45;&gt;Node7 -->
<g id="edge18" class="edge"><title>Node18&#45;&gt;Node7</title>
<path fill="none" stroke="#9a32cd" stroke-dasharray="5,2" d="M579.185,-383.526C614.837,-383.824 664.834,-379.196 701,-355.5 738.901,-330.667 759.822,-277.018 767.062,-255.112"/>
<polygon fill="#9a32cd" stroke="#9a32cd" points="579.147,-380.024 569.073,-383.307 578.995,-387.022 579.147,-380.024"/>
<text text-anchor="middle" x="652.5" y="-386.5" font-family="Helvetica,sans-Serif" font-size="10.00"> m_bbox</text>
</g>
<!-- Node19&#45;&gt;Node7 -->
<g id="edge20" class="edge"><title>Node19&#45;&gt;Node7</title>
<path fill="none" stroke="#9a32cd" stroke-dasharray="5,2" d="M596.777,-10.8992C631.11,-11.6337 672.517,-18.4019 701,-42.5 762.381,-94.4313 769.304,-203.247 769.968,-235.984"/>
<polygon fill="#9a32cd" stroke="#9a32cd" points="596.387,-7.39749 586.372,-10.8524 596.356,-14.3974 596.387,-7.39749"/>
<text text-anchor="middle" x="652.5" y="-45.5" font-family="Helvetica,sans-Serif" font-size="10.00"> mp_face_small</text>
</g>
<!-- Node20 -->
<g id="node20" class="node"><title>Node20</title>
<g id="a_node20"><a xlink:href="../../d5/d49/struct_nx_1_1_c_coll_obj_tri_data_1_1_s_overlay.html" target="_top" xlink:title=" ">
<polygon fill="white" stroke="black" points="482,-274.5 482,-304.5 586,-304.5 586,-274.5 482,-274.5"/>
<text text-anchor="start" x="490" y="-292.5" font-family="Helvetica,sans-Serif" font-size="10.00">Nx::CCollObjTriData</text>
<text text-anchor="middle" x="534" y="-281.5" font-family="Helvetica,sans-Serif" font-size="10.00">::SOverlay</text>
</a>
</g>
</g>
<!-- Node20&#45;&gt;Node7 -->
<g id="edge22" class="edge"><title>Node20&#45;&gt;Node7</title>
<path fill="none" stroke="#9a32cd" stroke-dasharray="5,2" d="M596.239,-279.42C627.622,-274.098 666.415,-267.277 701,-260.5 709.541,-258.826 718.652,-256.927 727.36,-255.056"/>
<polygon fill="#9a32cd" stroke="#9a32cd" points="595.603,-275.978 586.325,-281.093 596.768,-282.88 595.603,-275.978"/>
<text text-anchor="middle" x="652.5" y="-281.5" font-family="Helvetica,sans-Serif" font-size="10.00"> mp_vert_rgba_overlay</text>
</g>
<!-- Node21 -->
<g id="node21" class="node"><title>Node21</title>
<g id="a_node21"><a xlink:href="../../d9/d37/class_mth_1_1_matrix.html" target="_top" xlink:title=" ">
<polygon fill="white" stroke="black" points="939.5,-416 939.5,-435 1005.5,-435 1005.5,-416 939.5,-416"/>
<text text-anchor="middle" x="972.5" y="-423" font-family="Helvetica,sans-Serif" font-size="10.00">Mth::Matrix</text>
</a>
</g>
</g>
<!-- Node21&#45;&gt;Node5 -->
<g id="edge23" class="edge"><title>Node21&#45;&gt;Node5</title>
<path fill="none" stroke="#9a32cd" stroke-dasharray="5,2" d="M1016.2,-426.686C1054.71,-427.756 1110.95,-429.318 1148.82,-430.37"/>
<polygon fill="#9a32cd" stroke="#9a32cd" points="1015.93,-423.177 1005.84,-426.398 1015.74,-430.175 1015.93,-423.177"/>
<text text-anchor="middle" x="1080" y="-433.5" font-family="Helvetica,sans-Serif" font-size="10.00"> sOrient</text>
</g>
<!-- Node22&#45;&gt;Node4 -->
<g id="edge25" class="edge"><title>Node22&#45;&gt;Node4</title>
<path fill="none" stroke="#9a32cd" stroke-dasharray="5,2" d="M1222.34,-305.138C1262.98,-323.108 1333.43,-354.263 1368.85,-369.927"/>
<polygon fill="#9a32cd" stroke="#9a32cd" points="1223.74,-301.928 1213.18,-301.085 1220.91,-308.33 1223.74,-301.928"/>
<text text-anchor="middle" x="1285" y="-349.5" font-family="Helvetica,sans-Serif" font-size="10.00"> mp_geom</text>
</g>
<!-- Node23 -->
<g id="node23" class="node"><title>Node23</title>
<g id="a_node23"><a xlink:href="../../d3/dee/class_spt_1_1_class.html" target="_top" xlink:title=" ">
<polygon fill="white" stroke="black" points="941.5,-302 941.5,-321 1003.5,-321 1003.5,-302 941.5,-302"/>
<text text-anchor="middle" x="972.5" y="-309" font-family="Helvetica,sans-Serif" font-size="10.00">Spt::Class</text>
</a>
</g>
</g>
<!-- Node23&#45;&gt;Node22 -->
<g id="edge26" class="edge"><title>Node23&#45;&gt;Node22</title>
<path fill="none" stroke="midnightblue" d="M1013.73,-307.775C1054.8,-303.972 1117.81,-298.138 1156.18,-294.585"/>
<polygon fill="midnightblue" stroke="midnightblue" points="1013.17,-304.312 1003.53,-308.719 1013.81,-311.282 1013.17,-304.312"/>
</g>
<!-- Node24 -->
<g id="node24" class="node"><title>Node24</title>
<g id="a_node24"><a xlink:href="../../da/d6c/struct_image_1_1_r_g_b_a.html" target="_top" xlink:title=" ">
<polygon fill="white" stroke="black" points="934,-211 934,-230 1011,-230 1011,-211 934,-211"/>
<text text-anchor="middle" x="972.5" y="-218" font-family="Helvetica,sans-Serif" font-size="10.00">Image::RGBA</text>
</a>
</g>
</g>
<!-- Node24&#45;&gt;Node1 -->
<g id="edge32" class="edge"><title>Node24&#45;&gt;Node1</title>
<path fill="none" stroke="#9a32cd" stroke-dasharray="5,2" d="M1021.41,-218.057C1065.17,-216.038 1131.67,-213.5 1189.5,-213.5 1189.5,-213.5 1189.5,-213.5 1832.5,-213.5 1944.25,-213.5 2006.08,-378.138 2019.97,-419.94"/>
<polygon fill="#9a32cd" stroke="#9a32cd" points="1021.16,-214.565 1011.34,-218.531 1021.49,-221.557 1021.16,-214.565"/>
<text text-anchor="middle" x="1500.5" y="-216.5" font-family="Helvetica,sans-Serif" font-size="10.00"> m_color</text>
</g>
<!-- Node24&#45;&gt;Node22 -->
<g id="edge28" class="edge"><title>Node24&#45;&gt;Node22</title>
<path fill="none" stroke="#9a32cd" stroke-dasharray="5,2" d="M1021.19,-226.166C1060.11,-231.251 1111.71,-239.177 1131,-247.5 1150.14,-255.756 1168.76,-271.492 1179.68,-281.736"/>
<polygon fill="#9a32cd" stroke="#9a32cd" points="1021.45,-222.671 1011.09,-224.872 1020.56,-229.615 1021.45,-222.671"/>
<text text-anchor="middle" x="1080" y="-250.5" font-family="Helvetica,sans-Serif" font-size="10.00"> mp_orig_render_colors</text>
</g>
<!-- Node25 -->
<g id="node25" class="node"><title>Node25</title>
<g id="a_node25"><a xlink:href="../../d8/d1b/class_lst_1_1_hash_item.html" target="_top" xlink:title=" ">
<polygon fill="white" stroke="black" points="1338,-408 1338,-427 1445,-427 1445,-408 1338,-408"/>
<text text-anchor="middle" x="1391.5" y="-415" font-family="Helvetica,sans-Serif" font-size="10.00">Lst::HashItem&lt; _V &gt;</text>
</a>
</g>
</g>
<!-- Node25&#45;&gt;Node3 -->
<g id="edge30" class="edge"><title>Node25&#45;&gt;Node3</title>
<path fill="none" stroke="orange" stroke-dasharray="5,2" d="M1455.18,-408.607C1488.4,-403.894 1528.68,-398.179 1559.97,-393.74"/>
<polygon fill="orange" stroke="orange" points="1454.52,-405.165 1445.11,-410.035 1455.51,-412.096 1454.52,-405.165"/>
<text text-anchor="middle" x="1500.5" y="-410.5" font-family="Helvetica,sans-Serif" font-size="10.00"> &lt; Nx::CSector &gt;</text>
</g>
<!-- Node26 -->
<g id="node26" class="node"><title>Node26</title>
<g id="a_node26"><a xlink:href="../../db/d67/class_lst_1_1_hash_table.html" target="_top" xlink:title=" ">
<polygon fill="white" stroke="black" points="1556,-450 1556,-469 1668,-469 1668,-450 1556,-450"/>
<text text-anchor="middle" x="1612" y="-457" font-family="Helvetica,sans-Serif" font-size="10.00">Lst::HashTable&lt; _V &gt;</text>
</a>
</g>
</g>
<!-- Node26&#45;&gt;Node2 -->
<g id="edge31" class="edge"><title>Node26&#45;&gt;Node2</title>
<path fill="none" stroke="orange" stroke-dasharray="5,2" d="M1678.48,-450.468C1710.99,-445.984 1749.66,-440.65 1779.87,-436.484"/>
<polygon fill="orange" stroke="orange" points="1677.59,-447.057 1668.17,-451.891 1678.55,-453.992 1677.59,-447.057"/>
<text text-anchor="middle" x="1724" y="-452.5" font-family="Helvetica,sans-Serif" font-size="10.00"> &lt; Nx::CSector &gt;</text>
</g>
</g>
</svg>
        <g id="navigator" transform="translate(0 0)" fill="#404254">
                <rect fill="#f2f5e9" fill-opacity="0.5" stroke="#606060" stroke-width=".5" x="0" y="0" width="60" height="60"/>
                <use id="zoomplus" xlink:href="#zoomPlus" x="17" y="9" onmousedown="handleZoom(evt,'in')"/>
                <use id="zoomminus" xlink:href="#zoomMin" x="42" y="9" onmousedown="handleZoom(evt,'out')"/>
                <use id="reset" xlink:href="#resetDef" x="30" y="36" onmousedown="handleReset()"/>
                <g id="arrowUp" xlink:href="#dirArrow" transform="translate(30 24)" onmousedown="handlePan(0,-1)">
                  <use xlink:href="#rim" fill="#404040">
                        <set attributeName="fill" to="#808080" begin="arrowUp.mouseover" end="arrowUp.mouseout"/>
                  </use>
                  <path fill="none" stroke="white" stroke-width="1.5" d="M0,-3.0v7 M-2.5,-0.5L0,-3.0L2.5,-0.5"/>
                </g>
                <g id="arrowRight" xlink:href="#dirArrow" transform="rotate(90) translate(36 -43)" onmousedown="handlePan(1,0)">
                  <use xlink:href="#rim" fill="#404040">
                        <set attributeName="fill" to="#808080" begin="arrowRight.mouseover" end="arrowRight.mouseout"/>
                  </use>
                  <path fill="none" stroke="white" stroke-width="1.5" d="M0,-3.0v7 M-2.5,-0.5L0,-3.0L2.5,-0.5"/>
                </g>
                <g id="arrowDown" xlink:href="#dirArrow" transform="rotate(180) translate(-30 -48)" onmousedown="handlePan(0,1)">
                  <use xlink:href="#rim" fill="#404040">
                        <set attributeName="fill" to="#808080" begin="arrowDown.mouseover" end="arrowDown.mouseout"/>
                  </use>
                  <path fill="none" stroke="white" stroke-width="1.5" d="M0,-3.0v7 M-2.5,-0.5L0,-3.0L2.5,-0.5"/>
                </g>
                <g id="arrowLeft" xlink:href="#dirArrow" transform="rotate(270) translate(-36 17)" onmousedown="handlePan(-1,0)">
                  <use xlink:href="#rim" fill="#404040">
                        <set attributeName="fill" to="#808080" begin="arrowLeft.mouseover" end="arrowLeft.mouseout"/>
                  </use>
                  <path fill="none" stroke="white" stroke-width="1.5" d="M0,-3.0v7 M-2.5,-0.5L0,-3.0L2.5,-0.5"/>
                </g>
        </g>
        <svg viewBox="0 0 15 15" width="100%" height="30px" preserveAspectRatio="xMaxYMin meet">
         <g id="arrow_out" transform="scale(0.3 0.3)">
          <a xlink:href="struct_nx_1_1_s_v_c_light__coll__graph_org.svg" target="_base">
           <rect id="button" ry="5" rx="5" y="6" x="6" height="38" width="38"
                fill="#f2f5e9" fill-opacity="0.5" stroke="#606060" stroke-width="1.0"/>
           <path id="arrow"
             d="M 11.500037,31.436501 C 11.940474,20.09759 22.043105,11.32322 32.158766,21.979434 L 37.068811,17.246167 C 37.068811,17.246167 37.088388,32 37.088388,32 L 22.160133,31.978069 C 22.160133,31.978069 26.997745,27.140456 26.997745,27.140456 C 18.528582,18.264221 13.291696,25.230495 11.500037,31.436501 z"
             style="fill:#404040;"/>
          </a>
         </g>
        </svg>
</svg>
