<?xml version="1.0" encoding="UTF-8" standalone="no"?>
<!DOCTYPE svg PUBLIC "-//W3C//DTD SVG 1.1//EN"
 "http://www.w3.org/Graphics/SVG/1.1/DTD/svg11.dtd">
<!-- Generated by graphviz version 2.38.0 (20140413.2041)
 -->
<!-- Title: Front::CSpriteElement::update Pages: 1 -->
<svg width="547pt" height="938pt"
 viewBox="0.00 0.00 547.00 938.00" xmlns="http://www.w3.org/2000/svg" xmlns:xlink="http://www.w3.org/1999/xlink">
<g id="graph0" class="graph" transform="scale(1 1) rotate(0) translate(4 934)">
<title>Front::CSpriteElement::update</title>
<polygon fill="white" stroke="none" points="-4,4 -4,-934 543,-934 543,4 -4,4"/>
<!-- Node1 -->
<g id="node1" class="node"><title>Node1</title>
<g id="a_node1"><a xlink:title=" ">
<polygon fill="#bfbfbf" stroke="black" points="0,-381 0,-411 113,-411 113,-381 0,-381"/>
<text text-anchor="start" x="8" y="-399" font-family="Helvetica,sans-Serif" font-size="10.00">Front::CSpriteElement</text>
<text text-anchor="middle" x="56.5" y="-388" font-family="Helvetica,sans-Serif" font-size="10.00">::update</text>
</a>
</g>
</g>
<!-- Node2 -->
<g id="node2" class="node"><title>Node2</title>
<g id="a_node2"><a xlink:href="../../d7/df0/class_front_1_1_c_screen_element.html#a0068440267b2122d68f3c6814e3b523e" target="_top" xlink:title=" ">
<polygon fill="white" stroke="black" points="168,-883 168,-913 287,-913 287,-883 168,-883"/>
<text text-anchor="start" x="176" y="-901" font-family="Helvetica,sans-Serif" font-size="10.00">Front::CScreenElement</text>
<text text-anchor="middle" x="227.5" y="-890" font-family="Helvetica,sans-Serif" font-size="10.00">::get_window</text>
</a>
</g>
</g>
<!-- Node1&#45;&gt;Node2 -->
<g id="edge1" class="edge"><title>Node1&#45;&gt;Node2</title>
<path fill="none" stroke="midnightblue" d="M58.3526,-411.223C62.7691,-484.789 85.3429,-802.841 149,-874 151.905,-877.248 155.24,-880.061 158.859,-882.497"/>
<polygon fill="midnightblue" stroke="midnightblue" points="157.32,-885.648 167.747,-887.525 160.766,-879.555 157.32,-885.648"/>
</g>
<!-- Node5 -->
<g id="node5" class="node"><title>Node5</title>
<g id="a_node5"><a xlink:href="../../d5/df8/class_front_1_1_c_window_element.html#a6dd44f19abaf1ccec8bf948e10834788" target="_top" xlink:title=" ">
<polygon fill="white" stroke="black" points="166.5,-834 166.5,-864 288.5,-864 288.5,-834 166.5,-834"/>
<text text-anchor="start" x="174.5" y="-852" font-family="Helvetica,sans-Serif" font-size="10.00">Front::CWindowElement</text>
<text text-anchor="middle" x="227.5" y="-841" font-family="Helvetica,sans-Serif" font-size="10.00">::GetClipWindow</text>
</a>
</g>
</g>
<!-- Node1&#45;&gt;Node5 -->
<g id="edge4" class="edge"><title>Node1&#45;&gt;Node5</title>
<path fill="none" stroke="midnightblue" d="M58.6961,-411.021C64.4424,-479.548 91.34,-761.891 149,-825 151.574,-827.817 154.471,-830.307 157.595,-832.507"/>
<polygon fill="midnightblue" stroke="midnightblue" points="155.936,-835.593 166.323,-837.68 159.505,-829.571 155.936,-835.593"/>
</g>
<!-- Node6 -->
<g id="node6" class="node"><title>Node6</title>
<g id="a_node6"><a xlink:href="../../db/d5a/struct_front_1_1_c_screen_element_1_1_concat_props.html#a923b86873e515d57fe5bf8bbd6e1a2b5" target="_top" xlink:title=" ">
<polygon fill="white" stroke="black" points="163.5,-785 163.5,-815 291.5,-815 291.5,-785 163.5,-785"/>
<text text-anchor="start" x="171.5" y="-803" font-family="Helvetica,sans-Serif" font-size="10.00">Front::CScreenElement</text>
<text text-anchor="middle" x="227.5" y="-792" font-family="Helvetica,sans-Serif" font-size="10.00">::ConcatProps::GetRGBA</text>
</a>
</g>
</g>
<!-- Node1&#45;&gt;Node6 -->
<g id="edge5" class="edge"><title>Node1&#45;&gt;Node6</title>
<path fill="none" stroke="midnightblue" d="M59.1865,-411.421C66.5033,-475.642 97.4711,-721.062 149,-776 150.813,-777.933 152.778,-779.711 154.862,-781.347"/>
<polygon fill="midnightblue" stroke="midnightblue" points="153.151,-784.411 163.43,-786.978 156.996,-778.561 153.151,-784.411"/>
</g>
<!-- Node7 -->
<g id="node7" class="node"><title>Node7</title>
<g id="a_node7"><a xlink:href="../../db/d5a/struct_front_1_1_c_screen_element_1_1_concat_props.html#a7b23f6747530a367dab290f09fb0547b" target="_top" xlink:title=" ">
<polygon fill="white" stroke="black" points="163,-736 163,-766 292,-766 292,-736 163,-736"/>
<text text-anchor="start" x="171" y="-754" font-family="Helvetica,sans-Serif" font-size="10.00">Front::CScreenElement</text>
<text text-anchor="middle" x="227.5" y="-743" font-family="Helvetica,sans-Serif" font-size="10.00">::ConcatProps::GetRotate</text>
</a>
</g>
</g>
<!-- Node1&#45;&gt;Node7 -->
<g id="edge6" class="edge"><title>Node1&#45;&gt;Node7</title>
<path fill="none" stroke="midnightblue" d="M56.9294,-411.307C55.8587,-463.264 59.5505,-634.77 149,-727 150.633,-728.684 152.382,-730.251 154.225,-731.708"/>
<polygon fill="midnightblue" stroke="midnightblue" points="152.567,-734.808 162.834,-737.422 156.438,-728.976 152.567,-734.808"/>
</g>
<!-- Node8 -->
<g id="node8" class="node"><title>Node8</title>
<g id="a_node8"><a xlink:href="../../db/d5a/struct_front_1_1_c_screen_element_1_1_concat_props.html#a65cee8d76c3db67e0bf18ae54ba577cd" target="_top" xlink:title=" ">
<polygon fill="white" stroke="black" points="162,-687 162,-717 293,-717 293,-687 162,-687"/>
<text text-anchor="start" x="170" y="-705" font-family="Helvetica,sans-Serif" font-size="10.00">Front::CScreenElement</text>
<text text-anchor="middle" x="227.5" y="-694" font-family="Helvetica,sans-Serif" font-size="10.00">::ConcatProps::GetScaleX</text>
</a>
</g>
</g>
<!-- Node1&#45;&gt;Node8 -->
<g id="edge7" class="edge"><title>Node1&#45;&gt;Node8</title>
<path fill="none" stroke="midnightblue" d="M57.7838,-411.006C59.4941,-457.587 71.1416,-601.181 149,-678 150.429,-679.41 151.939,-680.737 153.516,-681.986"/>
<polygon fill="midnightblue" stroke="midnightblue" points="151.649,-684.948 161.905,-687.607 155.546,-679.133 151.649,-684.948"/>
</g>
<!-- Node9 -->
<g id="node9" class="node"><title>Node9</title>
<g id="a_node9"><a xlink:href="../../db/d5a/struct_front_1_1_c_screen_element_1_1_concat_props.html#ad6dab8a3605b2d1a04ba2f2f957f9a3f" target="_top" xlink:title=" ">
<polygon fill="white" stroke="black" points="161.5,-638 161.5,-668 293.5,-668 293.5,-638 161.5,-638"/>
<text text-anchor="start" x="169.5" y="-656" font-family="Helvetica,sans-Serif" font-size="10.00">Front::CScreenElement</text>
<text text-anchor="middle" x="227.5" y="-645" font-family="Helvetica,sans-Serif" font-size="10.00">::ConcatProps::GetScaleY</text>
</a>
</g>
</g>
<!-- Node1&#45;&gt;Node9 -->
<g id="edge8" class="edge"><title>Node1&#45;&gt;Node9</title>
<path fill="none" stroke="midnightblue" d="M58.9583,-411.015C63.7573,-452.116 82.7644,-567.486 149,-629 150.277,-630.186 151.612,-631.314 152.996,-632.386"/>
<polygon fill="midnightblue" stroke="midnightblue" points="151.126,-635.345 161.399,-637.935 154.983,-629.504 151.126,-635.345"/>
</g>
<!-- Node10 -->
<g id="node10" class="node"><title>Node10</title>
<g id="a_node10"><a xlink:href="../../db/d5a/struct_front_1_1_c_screen_element_1_1_concat_props.html#a5405979f8cfdfcecd83da845aa8bbba4" target="_top" xlink:title=" ">
<polygon fill="white" stroke="black" points="150.5,-589 150.5,-619 304.5,-619 304.5,-589 150.5,-589"/>
<text text-anchor="start" x="158.5" y="-607" font-family="Helvetica,sans-Serif" font-size="10.00">Front::CScreenElement</text>
<text text-anchor="middle" x="227.5" y="-596" font-family="Helvetica,sans-Serif" font-size="10.00">::ConcatProps::GetScreenPosX</text>
</a>
</g>
</g>
<!-- Node1&#45;&gt;Node10 -->
<g id="edge9" class="edge"><title>Node1&#45;&gt;Node10</title>
<path fill="none" stroke="midnightblue" d="M60.7299,-411.134C68.9967,-446.173 94.2411,-533.424 149,-580 150.529,-581.3 152.128,-582.53 153.784,-583.694"/>
<polygon fill="midnightblue" stroke="midnightblue" points="152.121,-586.778 162.485,-588.974 155.752,-580.794 152.121,-586.778"/>
</g>
<!-- Node11 -->
<g id="node11" class="node"><title>Node11</title>
<g id="a_node11"><a xlink:href="../../db/d5a/struct_front_1_1_c_screen_element_1_1_concat_props.html#aa0470ec7df7b7c7ea3ba37171721be52" target="_top" xlink:title=" ">
<polygon fill="white" stroke="black" points="150,-540 150,-570 305,-570 305,-540 150,-540"/>
<text text-anchor="start" x="158" y="-558" font-family="Helvetica,sans-Serif" font-size="10.00">Front::CScreenElement</text>
<text text-anchor="middle" x="227.5" y="-547" font-family="Helvetica,sans-Serif" font-size="10.00">::ConcatProps::GetScreenPosY</text>
</a>
</g>
</g>
<!-- Node1&#45;&gt;Node11 -->
<g id="edge10" class="edge"><title>Node1&#45;&gt;Node11</title>
<path fill="none" stroke="midnightblue" d="M63.6074,-411.025C75.6925,-438.88 105.323,-498.634 149,-531 150.885,-532.397 152.853,-533.713 154.885,-534.954"/>
<polygon fill="midnightblue" stroke="midnightblue" points="153.679,-538.279 164.145,-539.925 156.989,-532.112 153.679,-538.279"/>
</g>
<!-- Node12 -->
<g id="node12" class="node"><title>Node12</title>
<g id="a_node12"><a xlink:href="../../db/d5a/struct_front_1_1_c_screen_element_1_1_concat_props.html#a5cb86dfbbbaf634ac3f2e6d328fdcf50" target="_top" xlink:title=" ">
<polygon fill="white" stroke="black" points="150.5,-491 150.5,-521 304.5,-521 304.5,-491 150.5,-491"/>
<text text-anchor="start" x="158.5" y="-509" font-family="Helvetica,sans-Serif" font-size="10.00">Front::CScreenElement</text>
<text text-anchor="middle" x="227.5" y="-498" font-family="Helvetica,sans-Serif" font-size="10.00">::ConcatProps::GetScreenPosZ</text>
</a>
</g>
</g>
<!-- Node1&#45;&gt;Node12 -->
<g id="edge11" class="edge"><title>Node1&#45;&gt;Node12</title>
<path fill="none" stroke="midnightblue" d="M69.9138,-411.028C86.2316,-429.88 116.642,-462.027 149,-481 152.636,-483.132 156.476,-485.106 160.423,-486.931"/>
<polygon fill="midnightblue" stroke="midnightblue" points="159.212,-490.219 169.783,-490.92 161.956,-483.78 159.212,-490.219"/>
</g>
<!-- Node13 -->
<g id="node13" class="node"><title>Node13</title>
<g id="a_node13"><a xlink:href="../../db/d5a/struct_front_1_1_c_screen_element_1_1_concat_props.html#ad8aae2995312af3a4a6ce9364e9c7e47" target="_top" xlink:title=" ">
<polygon fill="white" stroke="black" points="149,-430.5 149,-471.5 306,-471.5 306,-430.5 149,-430.5"/>
<text text-anchor="start" x="157" y="-459.5" font-family="Helvetica,sans-Serif" font-size="10.00">Front::CScreenElement</text>
<text text-anchor="start" x="157" y="-448.5" font-family="Helvetica,sans-Serif" font-size="10.00">::ConcatProps::GetScreenUpper</text>
<text text-anchor="middle" x="227.5" y="-437.5" font-family="Helvetica,sans-Serif" font-size="10.00">LeftY</text>
</a>
</g>
</g>
<!-- Node1&#45;&gt;Node13 -->
<g id="edge12" class="edge"><title>Node1&#45;&gt;Node13</title>
<path fill="none" stroke="midnightblue" d="M103.68,-411.029C119.039,-416.027 136.541,-421.723 153.423,-427.217"/>
<polygon fill="midnightblue" stroke="midnightblue" points="152.678,-430.656 163.27,-430.422 154.844,-423.999 152.678,-430.656"/>
</g>
<!-- Node14 -->
<g id="node14" class="node"><title>Node14</title>
<g id="a_node14"><a xlink:href="../../d7/df0/class_front_1_1_c_screen_element.html#ab82de544d567f1645319649aedfd9412" target="_top" xlink:title=" ">
<polygon fill="white" stroke="black" points="168,-381 168,-411 287,-411 287,-381 168,-381"/>
<text text-anchor="start" x="176" y="-399" font-family="Helvetica,sans-Serif" font-size="10.00">Front::CScreenElement</text>
<text text-anchor="middle" x="227.5" y="-388" font-family="Helvetica,sans-Serif" font-size="10.00">::IsHidden</text>
</a>
</g>
</g>
<!-- Node1&#45;&gt;Node14 -->
<g id="edge13" class="edge"><title>Node1&#45;&gt;Node14</title>
<path fill="none" stroke="midnightblue" d="M113.305,-396C127.523,-396 142.97,-396 157.75,-396"/>
<polygon fill="midnightblue" stroke="midnightblue" points="157.853,-399.5 167.853,-396 157.853,-392.5 157.853,-399.5"/>
</g>
<!-- Node15 -->
<g id="node15" class="node"><title>Node15</title>
<g id="a_node15"><a xlink:href="../../d9/dd9/class_nx_1_1_c_sprite.html#abfc056ad4d30cdceb1181539c41d2889" target="_top" xlink:title=" ">
<polygon fill="white" stroke="black" points="168,-304.5 168,-323.5 287,-323.5 287,-304.5 168,-304.5"/>
<text text-anchor="middle" x="227.5" y="-311.5" font-family="Helvetica,sans-Serif" font-size="10.00">Nx::CSprite::SetAnchor</text>
</a>
</g>
</g>
<!-- Node1&#45;&gt;Node15 -->
<g id="edge14" class="edge"><title>Node1&#45;&gt;Node15</title>
<path fill="none" stroke="midnightblue" d="M75.2372,-380.855C92.8589,-366.548 121.197,-345.473 149,-333 154.425,-330.566 160.21,-328.414 166.081,-326.518"/>
<polygon fill="midnightblue" stroke="midnightblue" points="167.41,-329.774 175.994,-323.565 165.411,-323.066 167.41,-329.774"/>
</g>
<!-- Node18 -->
<g id="node18" class="node"><title>Node18</title>
<g id="a_node18"><a xlink:href="../../d9/dd9/class_nx_1_1_c_sprite.html#a9a95aca8f70413a394902d88a2627d1e" target="_top" xlink:title=" ">
<polygon fill="white" stroke="black" points="168.5,-342.5 168.5,-361.5 286.5,-361.5 286.5,-342.5 168.5,-342.5"/>
<text text-anchor="middle" x="227.5" y="-349.5" font-family="Helvetica,sans-Serif" font-size="10.00">Nx::CSprite::SetHidden</text>
</a>
</g>
</g>
<!-- Node1&#45;&gt;Node18 -->
<g id="edge17" class="edge"><title>Node1&#45;&gt;Node18</title>
<path fill="none" stroke="midnightblue" d="M113.136,-381.369C124.972,-378.267 137.398,-375.019 149,-372 158.884,-369.428 169.481,-366.685 179.567,-364.08"/>
<polygon fill="midnightblue" stroke="midnightblue" points="180.629,-367.421 189.437,-361.533 178.879,-360.643 180.629,-367.421"/>
</g>
<!-- Node20 -->
<g id="node20" class="node"><title>Node20</title>
<g id="a_node20"><a xlink:href="../../d9/dd9/class_nx_1_1_c_sprite.html#a566932dca6b504fabf88dc7af75e497c" target="_top" xlink:title=" ">
<polygon fill="white" stroke="black" points="175,-266.5 175,-285.5 280,-285.5 280,-266.5 175,-266.5"/>
<text text-anchor="middle" x="227.5" y="-273.5" font-family="Helvetica,sans-Serif" font-size="10.00">Nx::CSprite::SetPos</text>
</a>
</g>
</g>
<!-- Node1&#45;&gt;Node20 -->
<g id="edge20" class="edge"><title>Node1&#45;&gt;Node20</title>
<path fill="none" stroke="midnightblue" d="M66.987,-380.719C81.706,-358.338 112.215,-316.928 149,-295 154.031,-292.001 159.515,-289.474 165.163,-287.345"/>
<polygon fill="midnightblue" stroke="midnightblue" points="166.405,-290.621 174.776,-284.126 164.182,-283.983 166.405,-290.621"/>
</g>
<!-- Node21 -->
<g id="node21" class="node"><title>Node21</title>
<g id="a_node21"><a xlink:href="../../d9/dd9/class_nx_1_1_c_sprite.html#aa326e385d52d256b1bf670dfc05a6f43" target="_top" xlink:title=" ">
<polygon fill="white" stroke="black" points="168,-76.5 168,-95.5 287,-95.5 287,-76.5 168,-76.5"/>
<text text-anchor="middle" x="227.5" y="-83.5" font-family="Helvetica,sans-Serif" font-size="10.00">Nx::CSprite::SetPriority</text>
</a>
</g>
</g>
<!-- Node1&#45;&gt;Node21 -->
<g id="edge22" class="edge"><title>Node1&#45;&gt;Node21</title>
<path fill="none" stroke="midnightblue" d="M57.4087,-380.997C57.974,-333.08 66.5228,-182.343 149,-105 151.929,-102.253 155.188,-99.8852 158.665,-97.8448"/>
<polygon fill="midnightblue" stroke="midnightblue" points="160.254,-100.964 167.693,-93.4198 157.173,-94.6783 160.254,-100.964"/>
</g>
<!-- Node23 -->
<g id="node23" class="node"><title>Node23</title>
<g id="a_node23"><a xlink:href="../../d9/dd9/class_nx_1_1_c_sprite.html#ae1e57f33a98c1ab83ad3773c38f9ce26" target="_top" xlink:title=" ">
<polygon fill="white" stroke="black" points="169.5,-228.5 169.5,-247.5 285.5,-247.5 285.5,-228.5 169.5,-228.5"/>
<text text-anchor="middle" x="227.5" y="-235.5" font-family="Helvetica,sans-Serif" font-size="10.00">Nx::CSprite::SetRGBA</text>
</a>
</g>
</g>
<!-- Node1&#45;&gt;Node23 -->
<g id="edge25" class="edge"><title>Node1&#45;&gt;Node23</title>
<path fill="none" stroke="midnightblue" d="M63.1195,-380.73C74.5704,-351.828 103.441,-289.149 149,-257 152.438,-254.574 156.151,-252.456 160.026,-250.607"/>
<polygon fill="midnightblue" stroke="midnightblue" points="161.407,-253.824 169.307,-246.764 158.729,-247.356 161.407,-253.824"/>
</g>
<!-- Node24 -->
<g id="node24" class="node"><title>Node24</title>
<g id="a_node24"><a xlink:href="../../d9/dd9/class_nx_1_1_c_sprite.html#a8851496a9d0bfc71767932f8b0363870" target="_top" xlink:title=" ">
<polygon fill="white" stroke="black" points="165.5,-114.5 165.5,-133.5 289.5,-133.5 289.5,-114.5 165.5,-114.5"/>
<text text-anchor="middle" x="227.5" y="-121.5" font-family="Helvetica,sans-Serif" font-size="10.00">Nx::CSprite::SetRotation</text>
</a>
</g>
</g>
<!-- Node1&#45;&gt;Node24 -->
<g id="edge27" class="edge"><title>Node1&#45;&gt;Node24</title>
<path fill="none" stroke="midnightblue" d="M58.2347,-380.78C61.2105,-336.809 76.0456,-208.564 149,-143 151.222,-141.003 153.619,-139.208 156.147,-137.595"/>
<polygon fill="midnightblue" stroke="midnightblue" points="157.998,-140.574 165.176,-132.781 154.705,-134.397 157.998,-140.574"/>
</g>
<!-- Node26 -->
<g id="node26" class="node"><title>Node26</title>
<g id="a_node26"><a xlink:href="../../d9/dd9/class_nx_1_1_c_sprite.html#aa9c6fd1499976076683090cbf666dd89" target="_top" xlink:title=" ">
<polygon fill="white" stroke="black" points="171,-190.5 171,-209.5 284,-209.5 284,-190.5 171,-190.5"/>
<text text-anchor="middle" x="227.5" y="-197.5" font-family="Helvetica,sans-Serif" font-size="10.00">Nx::CSprite::SetScale</text>
</a>
</g>
</g>
<!-- Node1&#45;&gt;Node26 -->
<g id="edge30" class="edge"><title>Node1&#45;&gt;Node26</title>
<path fill="none" stroke="midnightblue" d="M60.7912,-380.957C69.1206,-346.599 94.3733,-262.017 149,-219 152.813,-215.998 157.033,-213.461 161.478,-211.319"/>
<polygon fill="midnightblue" stroke="midnightblue" points="162.947,-214.5 170.86,-207.454 160.281,-208.027 162.947,-214.5"/>
</g>
<!-- Node27 -->
<g id="node27" class="node"><title>Node27</title>
<g id="a_node27"><a xlink:href="../../d9/dd9/class_nx_1_1_c_sprite.html#a40e36b5eed50141634e9f9ece0553c4e" target="_top" xlink:title=" ">
<polygon fill="white" stroke="black" points="174,-152.5 174,-171.5 281,-171.5 281,-152.5 174,-152.5"/>
<text text-anchor="middle" x="227.5" y="-159.5" font-family="Helvetica,sans-Serif" font-size="10.00">Nx::CSprite::SetSize</text>
</a>
</g>
</g>
<!-- Node1&#45;&gt;Node27 -->
<g id="edge32" class="edge"><title>Node1&#45;&gt;Node27</title>
<path fill="none" stroke="midnightblue" d="M59.3208,-380.792C64.8783,-341.357 85.324,-235.117 149,-181 153.531,-177.149 158.721,-174.056 164.222,-171.574"/>
<polygon fill="midnightblue" stroke="midnightblue" points="165.619,-174.787 173.712,-167.948 163.121,-168.248 165.619,-174.787"/>
</g>
<!-- Node28 -->
<g id="node28" class="node"><title>Node28</title>
<g id="a_node28"><a xlink:href="../../d9/dd9/class_nx_1_1_c_sprite.html#a9e00abebdda1876cb7d1b790846f93e1" target="_top" xlink:title=" ">
<polygon fill="white" stroke="black" points="166.5,-0.5 166.5,-19.5 288.5,-19.5 288.5,-0.5 166.5,-0.5"/>
<text text-anchor="middle" x="227.5" y="-7.5" font-family="Helvetica,sans-Serif" font-size="10.00">Nx::CSprite::SetWindow</text>
</a>
</g>
</g>
<!-- Node1&#45;&gt;Node28 -->
<g id="edge34" class="edge"><title>Node1&#45;&gt;Node28</title>
<path fill="none" stroke="midnightblue" d="M59.2302,-380.597C66.6128,-317.581 97.4752,-80.3233 149,-29 151.53,-26.4795 154.337,-24.2739 157.339,-22.3455"/>
<polygon fill="midnightblue" stroke="midnightblue" points="159.058,-25.3954 166.247,-17.6129 155.774,-19.2136 159.058,-25.3954"/>
</g>
<!-- Node30 -->
<g id="node30" class="node"><title>Node30</title>
<g id="a_node30"><a xlink:href="../../d9/dd9/class_nx_1_1_c_sprite.html#a2b4c95061dc40f95659703a755774710" target="_top" xlink:title=" ">
<polygon fill="white" stroke="black" points="168.5,-38.5 168.5,-57.5 286.5,-57.5 286.5,-38.5 168.5,-38.5"/>
<text text-anchor="middle" x="227.5" y="-45.5" font-family="Helvetica,sans-Serif" font-size="10.00">Nx::CSprite::SetZValue</text>
</a>
</g>
</g>
<!-- Node1&#45;&gt;Node30 -->
<g id="edge37" class="edge"><title>Node1&#45;&gt;Node30</title>
<path fill="none" stroke="midnightblue" d="M59.701,-380.605C68.4113,-321.788 102.287,-112.294 149,-67 152.077,-64.0165 155.542,-61.4767 159.257,-59.3168"/>
<polygon fill="midnightblue" stroke="midnightblue" points="160.833,-62.4421 168.311,-54.9366 157.785,-56.1407 160.833,-62.4421"/>
</g>
<!-- Node3 -->
<g id="node3" class="node"><title>Node3</title>
<g id="a_node3"><a xlink:href="../../d7/df0/class_front_1_1_c_screen_element.html#ad376e68ac282c459b0b5eac6ed377fc2" target="_top" xlink:title=" ">
<polygon fill="white" stroke="black" points="344,-861 344,-891 463,-891 463,-861 344,-861"/>
<text text-anchor="start" x="352" y="-879" font-family="Helvetica,sans-Serif" font-size="10.00">Front::CScreenElement</text>
<text text-anchor="middle" x="403.5" y="-868" font-family="Helvetica,sans-Serif" font-size="10.00">::get_parent</text>
</a>
</g>
</g>
<!-- Node2&#45;&gt;Node3 -->
<g id="edge2" class="edge"><title>Node2&#45;&gt;Node3</title>
<path fill="none" stroke="midnightblue" d="M287.408,-890.552C302.37,-888.66 318.574,-886.611 333.969,-884.665"/>
<polygon fill="midnightblue" stroke="midnightblue" points="334.466,-888.13 343.948,-883.403 333.588,-881.185 334.466,-888.13"/>
</g>
<!-- Node4 -->
<g id="node4" class="node"><title>Node4</title>
<g id="a_node4"><a xlink:href="../../df/dde/class_obj_1_1_c_object.html#adf29aa023697e596d50506797d316b7a" target="_top" xlink:title=" ">
<polygon fill="white" stroke="black" points="345.5,-910.5 345.5,-929.5 461.5,-929.5 461.5,-910.5 345.5,-910.5"/>
<text text-anchor="middle" x="403.5" y="-917.5" font-family="Helvetica,sans-Serif" font-size="10.00">Obj::CObject::GetType</text>
</a>
</g>
</g>
<!-- Node2&#45;&gt;Node4 -->
<g id="edge3" class="edge"><title>Node2&#45;&gt;Node4</title>
<path fill="none" stroke="midnightblue" d="M287.408,-905.448C302.775,-907.391 319.451,-909.5 335.216,-911.493"/>
<polygon fill="midnightblue" stroke="midnightblue" points="335.06,-915.001 345.42,-912.783 335.939,-908.056 335.06,-915.001"/>
</g>
<!-- Node16 -->
<g id="node16" class="node"><title>Node16</title>
<g id="a_node16"><a xlink:href="../../d9/dd9/class_nx_1_1_c_sprite.html#a1f8747d86db051f9923e1ee2258ef1bc" target="_top" xlink:title=" ">
<polygon fill="white" stroke="black" points="342,-185 342,-215 465,-215 465,-185 342,-185"/>
<text text-anchor="start" x="350" y="-203" font-family="Helvetica,sans-Serif" font-size="10.00">Nx::CSprite::plat_update</text>
<text text-anchor="middle" x="403.5" y="-192" font-family="Helvetica,sans-Serif" font-size="10.00">_engine</text>
</a>
</g>
</g>
<!-- Node15&#45;&gt;Node16 -->
<g id="edge15" class="edge"><title>Node15&#45;&gt;Node16</title>
<path fill="none" stroke="midnightblue" d="M283.685,-304.382C291.438,-301.924 299.105,-298.848 306,-295 338.441,-276.897 367.602,-244.945 385.17,-223.139"/>
<polygon fill="midnightblue" stroke="midnightblue" points="388.103,-225.072 391.535,-215.048 382.601,-220.744 388.103,-225.072"/>
</g>
<!-- Node17 -->
<g id="node17" class="node"><title>Node17</title>
<g id="a_node17"><a xlink:href="../../df/d92/standard_8cpp.html#a5fc8fd1788f18ada61dfda9f171c5a1a" target="_top" xlink:title=" ">
<polygon fill="white" stroke="black" points="501,-133.5 501,-152.5 539,-152.5 539,-133.5 501,-133.5"/>
<text text-anchor="middle" x="520" y="-140.5" font-family="Helvetica,sans-Serif" font-size="10.00">printf</text>
</a>
</g>
</g>
<!-- Node16&#45;&gt;Node17 -->
<g id="edge16" class="edge"><title>Node16&#45;&gt;Node17</title>
<path fill="none" stroke="midnightblue" d="M434.883,-184.875C452.495,-176.107 474.494,-165.156 491.577,-156.652"/>
<polygon fill="midnightblue" stroke="midnightblue" points="493.604,-159.552 500.996,-151.963 490.484,-153.286 493.604,-159.552"/>
</g>
<!-- Node19 -->
<g id="node19" class="node"><title>Node19</title>
<g id="a_node19"><a xlink:href="../../d9/dd9/class_nx_1_1_c_sprite.html#aa884253c802200a518e56b235664c844" target="_top" xlink:title=" ">
<polygon fill="white" stroke="black" points="342,-286 342,-316 465,-316 465,-286 342,-286"/>
<text text-anchor="start" x="350" y="-304" font-family="Helvetica,sans-Serif" font-size="10.00">Nx::CSprite::plat_update</text>
<text text-anchor="middle" x="403.5" y="-293" font-family="Helvetica,sans-Serif" font-size="10.00">_hidden</text>
</a>
</g>
</g>
<!-- Node18&#45;&gt;Node19 -->
<g id="edge18" class="edge"><title>Node18&#45;&gt;Node19</title>
<path fill="none" stroke="midnightblue" d="M270.089,-342.451C281.757,-339.597 294.418,-336.334 306,-333 320.333,-328.874 335.717,-323.985 349.898,-319.287"/>
<polygon fill="midnightblue" stroke="midnightblue" points="351.122,-322.568 359.495,-316.076 348.901,-315.93 351.122,-322.568"/>
</g>
<!-- Node19&#45;&gt;Node17 -->
<g id="edge19" class="edge"><title>Node19&#45;&gt;Node17</title>
<path fill="none" stroke="midnightblue" d="M416.91,-285.93C429.398,-270.599 449.041,-246.028 465,-224 480.252,-202.949 496.67,-177.953 507.347,-161.352"/>
<polygon fill="midnightblue" stroke="midnightblue" points="510.479,-162.952 512.918,-152.642 504.582,-159.18 510.479,-162.952"/>
</g>
<!-- Node20&#45;&gt;Node16 -->
<g id="edge21" class="edge"><title>Node20&#45;&gt;Node16</title>
<path fill="none" stroke="midnightblue" d="M276.742,-266.497C286.592,-263.914 296.763,-260.764 306,-257 329.537,-247.408 354.179,-232.764 372.67,-220.721"/>
<polygon fill="midnightblue" stroke="midnightblue" points="374.821,-223.495 381.222,-215.052 370.953,-217.661 374.821,-223.495"/>
</g>
<!-- Node22 -->
<g id="node22" class="node"><title>Node22</title>
<g id="a_node22"><a xlink:href="../../d9/dd9/class_nx_1_1_c_sprite.html#a54cc4115336b1fc9f850a1f915e43e6c" target="_top" xlink:title=" ">
<polygon fill="white" stroke="black" points="342,-68 342,-98 465,-98 465,-68 342,-68"/>
<text text-anchor="start" x="350" y="-86" font-family="Helvetica,sans-Serif" font-size="10.00">Nx::CSprite::plat_update</text>
<text text-anchor="middle" x="403.5" y="-75" font-family="Helvetica,sans-Serif" font-size="10.00">_priority</text>
</a>
</g>
</g>
<!-- Node21&#45;&gt;Node22 -->
<g id="edge23" class="edge"><title>Node21&#45;&gt;Node22</title>
<path fill="none" stroke="midnightblue" d="M287.408,-84.9843C301.667,-84.7385 317.054,-84.4732 331.793,-84.2191"/>
<polygon fill="midnightblue" stroke="midnightblue" points="331.934,-87.7173 341.872,-84.0453 331.813,-80.7183 331.934,-87.7173"/>
</g>
<!-- Node22&#45;&gt;Node17 -->
<g id="edge24" class="edge"><title>Node22&#45;&gt;Node17</title>
<path fill="none" stroke="midnightblue" d="M444.035,-98.1098C451.121,-101.163 458.359,-104.513 465,-108 475.944,-113.746 487.515,-121.063 497.126,-127.519"/>
<polygon fill="midnightblue" stroke="midnightblue" points="495.43,-130.6 505.657,-133.367 499.388,-124.826 495.43,-130.6"/>
</g>
<!-- Node23&#45;&gt;Node16 -->
<g id="edge26" class="edge"><title>Node23&#45;&gt;Node16</title>
<path fill="none" stroke="midnightblue" d="M272.408,-228.411C290.49,-224.462 311.895,-219.787 332.066,-215.382"/>
<polygon fill="midnightblue" stroke="midnightblue" points="332.826,-218.799 341.849,-213.246 331.333,-211.96 332.826,-218.799"/>
</g>
<!-- Node24&#45;&gt;Node16 -->
<g id="edge28" class="edge"><title>Node24&#45;&gt;Node16</title>
<path fill="none" stroke="midnightblue" d="M276.742,-133.503C286.592,-136.086 296.763,-139.236 306,-143 329.537,-152.592 354.179,-167.236 372.67,-179.279"/>
<polygon fill="midnightblue" stroke="midnightblue" points="370.953,-182.339 381.222,-184.948 374.821,-176.505 370.953,-182.339"/>
</g>
<!-- Node25 -->
<g id="node25" class="node"><title>Node25</title>
<g id="a_node25"><a xlink:href="../../d1/d06/namespace_nx.html#ad462be29622bab9de7f93615354778d1" target="_top" xlink:title=" ">
<polygon fill="white" stroke="black" points="380.5,-117.5 380.5,-136.5 426.5,-136.5 426.5,-117.5 380.5,-117.5"/>
<text text-anchor="middle" x="403.5" y="-124.5" font-family="Helvetica,sans-Serif" font-size="10.00">Nx::rot</text>
</a>
</g>
</g>
<!-- Node24&#45;&gt;Node25 -->
<g id="edge29" class="edge"><title>Node24&#45;&gt;Node25</title>
<path fill="none" stroke="midnightblue" d="M289.846,-125.058C317.044,-125.527 347.916,-126.059 370.455,-126.447"/>
<polygon fill="midnightblue" stroke="midnightblue" points="370.43,-129.947 380.489,-126.62 370.551,-122.949 370.43,-129.947"/>
</g>
<!-- Node26&#45;&gt;Node16 -->
<g id="edge31" class="edge"><title>Node26&#45;&gt;Node16</title>
<path fill="none" stroke="midnightblue" d="M284.033,-200C299.127,-200 315.68,-200 331.503,-200"/>
<polygon fill="midnightblue" stroke="midnightblue" points="331.772,-203.5 341.772,-200 331.772,-196.5 331.772,-203.5"/>
</g>
<!-- Node27&#45;&gt;Node16 -->
<g id="edge33" class="edge"><title>Node27&#45;&gt;Node16</title>
<path fill="none" stroke="midnightblue" d="M272.408,-171.589C290.49,-175.538 311.895,-180.213 332.066,-184.618"/>
<polygon fill="midnightblue" stroke="midnightblue" points="331.333,-188.04 341.849,-186.754 332.826,-181.201 331.333,-188.04"/>
</g>
<!-- Node29 -->
<g id="node29" class="node"><title>Node29</title>
<g id="a_node29"><a xlink:href="../../d9/dd9/class_nx_1_1_c_sprite.html#a9aa6b87ccc7e3b41fbd930ad1e6bed73" target="_top" xlink:title=" ">
<polygon fill="white" stroke="black" points="342,-9 342,-39 465,-39 465,-9 342,-9"/>
<text text-anchor="start" x="350" y="-27" font-family="Helvetica,sans-Serif" font-size="10.00">Nx::CSprite::plat_update</text>
<text text-anchor="middle" x="403.5" y="-16" font-family="Helvetica,sans-Serif" font-size="10.00">_window</text>
</a>
</g>
</g>
<!-- Node28&#45;&gt;Node29 -->
<g id="edge35" class="edge"><title>Node28&#45;&gt;Node29</title>
<path fill="none" stroke="midnightblue" d="M288.868,-14.8572C302.691,-15.9694 317.505,-17.1614 331.721,-18.3051"/>
<polygon fill="midnightblue" stroke="midnightblue" points="331.695,-21.8143 341.944,-19.1277 332.257,-14.8368 331.695,-21.8143"/>
</g>
<!-- Node29&#45;&gt;Node17 -->
<g id="edge36" class="edge"><title>Node29&#45;&gt;Node17</title>
<path fill="none" stroke="midnightblue" d="M438.21,-39.1137C447.532,-44.2685 457.216,-50.6249 465,-58 485.239,-77.1751 501.217,-105.444 510.389,-124.036"/>
<polygon fill="midnightblue" stroke="midnightblue" points="507.315,-125.721 514.769,-133.251 513.637,-122.717 507.315,-125.721"/>
</g>
<!-- Node30&#45;&gt;Node22 -->
<g id="edge38" class="edge"><title>Node30&#45;&gt;Node22</title>
<path fill="none" stroke="midnightblue" d="M276.046,-57.5639C293.275,-61.0295 313.123,-65.022 331.912,-68.8012"/>
<polygon fill="midnightblue" stroke="midnightblue" points="331.424,-72.2732 341.918,-70.814 332.805,-65.4106 331.424,-72.2732"/>
</g>
</g>
</svg>
