<?xml version="1.0" encoding="UTF-8" standalone="no"?>
<!DOCTYPE svg PUBLIC "-//W3C//DTD SVG 1.1//EN"
 "http://www.w3.org/Graphics/SVG/1.1/DTD/svg11.dtd">
<!-- Generated by graphviz version 2.38.0 (20140413.2041)
 -->
<!-- Title: Flx::videoDecGetState Pages: 1 -->
<svg width="552pt" height="66pt"
 viewBox="0.00 0.00 552.00 66.00" xmlns="http://www.w3.org/2000/svg" xmlns:xlink="http://www.w3.org/1999/xlink">
<g id="graph0" class="graph" transform="scale(1 1) rotate(0) translate(4 62)">
<title>Flx::videoDecGetState</title>
<polygon fill="white" stroke="none" points="-4,4 -4,-62 548,-62 548,4 -4,4"/>
<!-- Node1 -->
<g id="node1" class="node"><title>Node1</title>
<g id="a_node1"><a xlink:title=" ">
<polygon fill="#bfbfbf" stroke="black" points="430,-19.5 430,-38.5 544,-38.5 544,-19.5 430,-19.5"/>
<text text-anchor="middle" x="487" y="-26.5" font-family="Helvetica,sans-Serif" font-size="10.00">Flx::videoDecGetState</text>
</a>
</g>
</g>
<!-- Node2 -->
<g id="node2" class="node"><title>Node2</title>
<g id="a_node2"><a xlink:href="../../d8/dbb/namespace_flx.html#a1c837dffa1fdf5f470193923c993eb1e" target="_top" xlink:title=" ">
<polygon fill="white" stroke="black" points="325,-38.5 325,-57.5 394,-57.5 394,-38.5 325,-38.5"/>
<text text-anchor="middle" x="359.5" y="-45.5" font-family="Helvetica,sans-Serif" font-size="10.00">Flx::decBs0</text>
</a>
</g>
</g>
<!-- Node1&#45;&gt;Node2 -->
<g id="edge1" class="edge"><title>Node1&#45;&gt;Node2</title>
<path fill="none" stroke="midnightblue" d="M419.862,-39.0129C411.01,-40.353 402.248,-41.6795 394.284,-42.8853"/>
<polygon fill="midnightblue" stroke="midnightblue" points="420.494,-42.4572 429.857,-37.4997 419.446,-35.5361 420.494,-42.4572"/>
</g>
<!-- Node6 -->
<g id="node6" class="node"><title>Node6</title>
<g id="a_node6"><a xlink:href="../../d8/dbb/namespace_flx.html#aad49d2913aee64eceb8cc86962be26b1" target="_top" xlink:title=" ">
<polygon fill="white" stroke="black" points="201.5,-0.5 201.5,-19.5 280.5,-19.5 280.5,-0.5 201.5,-0.5"/>
<text text-anchor="middle" x="241" y="-7.5" font-family="Helvetica,sans-Serif" font-size="10.00">Flx::readMpeg</text>
</a>
</g>
</g>
<!-- Node1&#45;&gt;Node6 -->
<g id="edge5" class="edge"><title>Node1&#45;&gt;Node6</title>
<path fill="none" stroke="midnightblue" d="M419.539,-23.8247C374.946,-20.3523 317.767,-15.8999 280.525,-12.9999"/>
<polygon fill="midnightblue" stroke="midnightblue" points="419.474,-27.3302 429.715,-24.6172 420.017,-20.3513 419.474,-27.3302"/>
</g>
<!-- Node3 -->
<g id="node3" class="node"><title>Node3</title>
<g id="a_node3"><a xlink:href="../../d8/dbb/namespace_flx.html#aaf060bd9a2477269e606c0478f3c4967" target="_top" xlink:title=" ">
<polygon fill="white" stroke="black" points="193,-38.5 193,-57.5 289,-57.5 289,-38.5 193,-38.5"/>
<text text-anchor="middle" x="241" y="-45.5" font-family="Helvetica,sans-Serif" font-size="10.00">Flx::videoDecMain</text>
</a>
</g>
</g>
<!-- Node2&#45;&gt;Node3 -->
<g id="edge2" class="edge"><title>Node2&#45;&gt;Node3</title>
<path fill="none" stroke="midnightblue" d="M314.535,-48C306.209,-48 297.468,-48 289.052,-48"/>
<polygon fill="midnightblue" stroke="midnightblue" points="314.803,-51.5001 324.803,-48 314.803,-44.5001 314.803,-51.5001"/>
</g>
<!-- Node4 -->
<g id="node4" class="node"><title>Node4</title>
<g id="a_node4"><a xlink:href="../../d8/dbb/namespace_flx.html#a77112c1bf6e680eb5e05c1e28723de63" target="_top" xlink:title=" ">
<polygon fill="white" stroke="black" points="97,-38.5 97,-57.5 157,-57.5 157,-38.5 97,-38.5"/>
<text text-anchor="middle" x="127" y="-45.5" font-family="Helvetica,sans-Serif" font-size="10.00">Flx::initAll</text>
</a>
</g>
</g>
<!-- Node3&#45;&gt;Node4 -->
<g id="edge3" class="edge"><title>Node3&#45;&gt;Node4</title>
<path fill="none" stroke="midnightblue" d="M182.556,-48C173.781,-48 165.053,-48 157.236,-48"/>
<polygon fill="midnightblue" stroke="midnightblue" points="182.827,-51.5001 192.827,-48 182.826,-44.5001 182.827,-51.5001"/>
</g>
<!-- Node5 -->
<g id="node5" class="node"><title>Node5</title>
<g id="a_node5"><a xlink:href="../../d8/dbb/namespace_flx.html#ac16deee34f4800eb9c29c6e22ad6a8a1" target="_top" xlink:title=" ">
<polygon fill="white" stroke="black" points="0,-19.5 0,-38.5 61,-38.5 61,-19.5 0,-19.5"/>
<text text-anchor="middle" x="30.5" y="-26.5" font-family="Helvetica,sans-Serif" font-size="10.00">Flx::movie</text>
</a>
</g>
</g>
<!-- Node4&#45;&gt;Node5 -->
<g id="edge4" class="edge"><title>Node4&#45;&gt;Node5</title>
<path fill="none" stroke="midnightblue" d="M86.9466,-40.148C78.2778,-38.4051 69.2292,-36.5858 61.0167,-34.9346"/>
<polygon fill="midnightblue" stroke="midnightblue" points="86.3821,-43.6045 96.8758,-42.1443 87.7619,-36.7418 86.3821,-43.6045"/>
</g>
<!-- Node6&#45;&gt;Node5 -->
<g id="edge6" class="edge"><title>Node6&#45;&gt;Node5</title>
<path fill="none" stroke="midnightblue" d="M191.137,-14.4528C150.882,-18.1211 95.1017,-23.2042 61.2553,-26.2885"/>
<polygon fill="midnightblue" stroke="midnightblue" points="191.63,-17.9224 201.271,-13.5292 190.995,-10.9513 191.63,-17.9224"/>
</g>
</g>
</svg>
