<?xml version="1.0" encoding="UTF-8" standalone="no"?>
<!DOCTYPE svg PUBLIC "-//W3C//DTD SVG 1.1//EN"
 "http://www.w3.org/Graphics/SVG/1.1/DTD/svg11.dtd">
<!-- Generated by graphviz version 2.38.0 (20140413.2041)
 -->
<!-- Title: Flx::videoDecPutTs Pages: 1 -->
<!--zoomable 161 -->
<svg id="main" version="1.1" xmlns="http://www.w3.org/2000/svg" xmlns:xlink="http://www.w3.org/1999/xlink" xml:space="preserve" onload="init(evt)">
<style type="text/css"><![CDATA[
.edge:hover path { stroke: red; }
.edge:hover polygon { stroke: red; fill: red; }
]]></style>
<script type="text/javascript"><![CDATA[
var edges = document.getElementsByTagName('g');
if (edges && edges.length) {
  for (var i=0;i<edges.length;i++) {
    if (edges[i].id.substr(0,4)=='edge') {
      edges[i].setAttribute('class','edge');
    }
  }
}
]]></script>
        <defs>
                <circle id="rim" cx="0" cy="0" r="7"/>
                <circle id="rim2" cx="0" cy="0" r="3.5"/>
                <g id="zoomPlus">
                        <use xlink:href="#rim" fill="#404040">
                                <set attributeName="fill" to="#808080" begin="zoomplus.mouseover" end="zoomplus.mouseout"/>
                        </use>
                        <path d="M-4,0h8M0,-4v8" fill="none" stroke="white" stroke-width="1.5" pointer-events="none"/>
                </g>
                <g id="zoomMin">
                        <use xlink:href="#rim" fill="#404040">
                                <set attributeName="fill" to="#808080" begin="zoomminus.mouseover" end="zoomminus.mouseout"/>
                        </use>
                        <path d="M-4,0h8" fill="none" stroke="white" stroke-width="1.5" pointer-events="none"/>
                </g>
                <g id="dirArrow">
                        <path fill="none" stroke="white" stroke-width="1.5" d="M0,-3.0v7 M-2.5,-0.5L0,-3.0L2.5,-0.5"/>
                </g>
               <g id="resetDef">
                       <use xlink:href="#rim2" fill="#404040">
                               <set attributeName="fill" to="#808080" begin="reset.mouseover" end="reset.mouseout"/>
                       </use>
               </g>
        </defs>

<script type="text/javascript">
var viewWidth = 505;
var viewHeight = 161;
var sectionId = 'dynsection-123';
</script>
<script xlink:href="../../svgpan.js"/>
<svg id="graph" class="graph">
<g id="viewport">
<title>Flx::videoDecPutTs</title>
<polygon fill="white" stroke="none" points="-4,4 -4,-157 501,-157 501,4 -4,4"/>
<!-- Node1 -->
<g id="node1" class="node"><title>Node1</title>
<g id="a_node1"><a xlink:title=" ">
<polygon fill="#bfbfbf" stroke="black" points="0,-56.5 0,-75.5 101,-75.5 101,-56.5 0,-56.5"/>
<text text-anchor="middle" x="50.5" y="-63.5" font-family="Helvetica,sans-Serif" font-size="10.00">Flx::videoDecPutTs</text>
</a>
</g>
</g>
<!-- Node2 -->
<g id="node2" class="node"><title>Node2</title>
<g id="a_node2"><a xlink:href="../../d3/d59/ngc_2bgm_2bgm__entr_8c.html#ac92d3b835636641550b12b0f93daf21d" target="_top" xlink:title=" ">
<polygon fill="white" stroke="black" points="160,-85.5 160,-104.5 196,-104.5 196,-85.5 160,-85.5"/>
<text text-anchor="middle" x="178" y="-92.5" font-family="Helvetica,sans-Serif" font-size="10.00">start</text>
</a>
</g>
</g>
<!-- Node1&#45;&gt;Node2 -->
<g id="edge1" class="edge"><title>Node1&#45;&gt;Node2</title>
<path fill="none" stroke="midnightblue" d="M92.9412,-75.5761C111.566,-79.8798 133.032,-84.8402 149.61,-88.6709"/>
<polygon fill="midnightblue" stroke="midnightblue" points="149.188,-92.1655 159.72,-91.0069 150.764,-85.3453 149.188,-92.1655"/>
</g>
<!-- Node7 -->
<g id="node7" class="node"><title>Node7</title>
<g id="a_node7"><a xlink:href="../../d8/dbb/namespace_flx.html#a36472b6009900664084e1dc4ecdbd810" target="_top" xlink:title=" ">
<polygon fill="white" stroke="black" points="137,-28.5 137,-47.5 219,-47.5 219,-28.5 137,-28.5"/>
<text text-anchor="middle" x="178" y="-35.5" font-family="Helvetica,sans-Serif" font-size="10.00">Flx::viBufPutTs</text>
</a>
</g>
</g>
<!-- Node1&#45;&gt;Node7 -->
<g id="edge6" class="edge"><title>Node1&#45;&gt;Node7</title>
<path fill="none" stroke="midnightblue" d="M94.339,-56.4423C104.886,-54.0892 116.27,-51.5493 127.118,-49.129"/>
<polygon fill="midnightblue" stroke="midnightblue" points="127.893,-52.5423 136.891,-46.9487 126.368,-45.7103 127.893,-52.5423"/>
</g>
<!-- Node3 -->
<g id="node3" class="node"><title>Node3</title>
<g id="a_node3"><a xlink:href="../../d8/d76/namespace_thread.html#ad1549c943a1c4a0b057be3df3be102f1" target="_top" xlink:title=" ">
<polygon fill="white" stroke="black" points="255,-133.5 255,-152.5 365,-152.5 365,-133.5 255,-133.5"/>
<text text-anchor="middle" x="310" y="-140.5" font-family="Helvetica,sans-Serif" font-size="10.00">Thread::CreateThread</text>
</a>
</g>
</g>
<!-- Node2&#45;&gt;Node3 -->
<g id="edge2" class="edge"><title>Node2&#45;&gt;Node3</title>
<path fill="none" stroke="midnightblue" d="M196.157,-101.694C211.529,-107.656 234.713,-116.562 255,-124 260.499,-126.016 266.329,-128.111 272.045,-130.142"/>
<polygon fill="midnightblue" stroke="midnightblue" points="270.884,-133.444 281.479,-133.473 273.215,-126.843 270.884,-133.444"/>
</g>
<!-- Node5 -->
<g id="node5" class="node"><title>Node5</title>
<g id="a_node5"><a xlink:href="../../df/d92/standard_8cpp.html#a5fc8fd1788f18ada61dfda9f171c5a1a" target="_top" xlink:title=" ">
<polygon fill="white" stroke="black" points="291,-95.5 291,-114.5 329,-114.5 329,-95.5 291,-95.5"/>
<text text-anchor="middle" x="310" y="-102.5" font-family="Helvetica,sans-Serif" font-size="10.00">printf</text>
</a>
</g>
</g>
<!-- Node2&#45;&gt;Node5 -->
<g id="edge4" class="edge"><title>Node2&#45;&gt;Node5</title>
<path fill="none" stroke="midnightblue" d="M196.263,-96.3279C217.778,-97.9829 254.843,-100.834 280.573,-102.813"/>
<polygon fill="midnightblue" stroke="midnightblue" points="280.589,-106.325 290.828,-103.602 281.126,-99.3454 280.589,-106.325"/>
</g>
<!-- Node6 -->
<g id="node6" class="node"><title>Node6</title>
<g id="a_node6"><a xlink:href="../../d3/d59/ngc_2bgm_2bgm__entr_8c.html#a4aed5c7019695e66a85230e9dbfe1e41" target="_top" xlink:title=" ">
<polygon fill="white" stroke="black" points="270,-57.5 270,-76.5 350,-76.5 350,-57.5 270,-57.5"/>
<text text-anchor="middle" x="310" y="-64.5" font-family="Helvetica,sans-Serif" font-size="10.00">sce_bgm_loop</text>
</a>
</g>
</g>
<!-- Node2&#45;&gt;Node6 -->
<g id="edge5" class="edge"><title>Node2&#45;&gt;Node6</title>
<path fill="none" stroke="midnightblue" d="M196.263,-91.2818C212.434,-87.7987 237.392,-82.4233 259.718,-77.6147"/>
<polygon fill="midnightblue" stroke="midnightblue" points="260.71,-80.9812 269.749,-75.454 259.236,-74.1381 260.71,-80.9812"/>
</g>
<!-- Node4 -->
<g id="node4" class="node"><title>Node4</title>
<g id="a_node4"><a xlink:href="../../df/de2/_messages_8h.html#a701d7b9cdd94e5f87bc47f4e770492e6" target="_top" xlink:title=" ">
<polygon fill="white" stroke="black" points="409.5,-133.5 409.5,-152.5 488.5,-152.5 488.5,-133.5 409.5,-133.5"/>
<text text-anchor="middle" x="449" y="-140.5" font-family="Helvetica,sans-Serif" font-size="10.00">Dbg_Message</text>
</a>
</g>
</g>
<!-- Node3&#45;&gt;Node4 -->
<g id="edge3" class="edge"><title>Node3&#45;&gt;Node4</title>
<path fill="none" stroke="midnightblue" d="M365.146,-143C376.368,-143 388.129,-143 399.149,-143"/>
<polygon fill="midnightblue" stroke="midnightblue" points="399.445,-146.5 409.445,-143 399.445,-139.5 399.445,-146.5"/>
</g>
<!-- Node8 -->
<g id="node8" class="node"><title>Node8</title>
<g id="a_node8"><a xlink:href="../../d8/dbb/namespace_flx.html#ad775e0655c0d448689be363ef42c165c" target="_top" xlink:title=" ">
<polygon fill="white" stroke="black" points="260,-19.5 260,-38.5 360,-38.5 360,-19.5 260,-19.5"/>
<text text-anchor="middle" x="310" y="-26.5" font-family="Helvetica,sans-Serif" font-size="10.00">Flx::viBufModifyPts</text>
</a>
</g>
</g>
<!-- Node7&#45;&gt;Node8 -->
<g id="edge7" class="edge"><title>Node7&#45;&gt;Node8</title>
<path fill="none" stroke="midnightblue" d="M219.065,-35.2263C228.689,-34.56 239.172,-33.8342 249.471,-33.1212"/>
<polygon fill="midnightblue" stroke="midnightblue" points="249.936,-36.5975 259.67,-32.4151 249.452,-29.6142 249.936,-36.5975"/>
</g>
<!-- Node9 -->
<g id="node9" class="node"><title>Node9</title>
<g id="a_node9"><a xlink:href="../../da/d37/namespace_dbg.html#a8270231090dad0898d8f3eb5cd232b0d" target="_top" xlink:title=" ">
<polygon fill="white" stroke="black" points="427,-38.5 427,-57.5 471,-57.5 471,-38.5 427,-38.5"/>
<text text-anchor="middle" x="449" y="-45.5" font-family="Helvetica,sans-Serif" font-size="10.00">Dbg::if</text>
</a>
</g>
</g>
<!-- Node8&#45;&gt;Node9 -->
<g id="edge8" class="edge"><title>Node8&#45;&gt;Node9</title>
<path fill="none" stroke="midnightblue" d="M360.073,-35.8058C378.842,-38.4087 399.732,-41.3059 416.439,-43.623"/>
<polygon fill="midnightblue" stroke="midnightblue" points="416.364,-47.1459 426.75,-45.0529 417.326,-40.2123 416.364,-47.1459"/>
</g>
<!-- Node10 -->
<g id="node10" class="node"><title>Node10</title>
<g id="a_node10"><a xlink:href="../../d8/dbb/namespace_flx.html#ac528b19dfda17d23fcf8c59c438bfe0e" target="_top" xlink:title=" ">
<polygon fill="white" stroke="black" points="401,-0.5 401,-19.5 497,-19.5 497,-0.5 401,-0.5"/>
<text text-anchor="middle" x="449" y="-7.5" font-family="Helvetica,sans-Serif" font-size="10.00">Flx::IsPtsInRegion</text>
</a>
</g>
</g>
<!-- Node8&#45;&gt;Node10 -->
<g id="edge9" class="edge"><title>Node8&#45;&gt;Node10</title>
<path fill="none" stroke="midnightblue" d="M360.073,-22.1942C369.978,-20.8206 380.473,-19.3651 390.632,-17.9561"/>
<polygon fill="midnightblue" stroke="midnightblue" points="391.221,-21.408 400.646,-16.5674 390.26,-14.4744 391.221,-21.408"/>
</g>
</g>
</svg>
        <g id="navigator" transform="translate(0 0)" fill="#404254">
                <rect fill="#f2f5e9" fill-opacity="0.5" stroke="#606060" stroke-width=".5" x="0" y="0" width="60" height="60"/>
                <use id="zoomplus" xlink:href="#zoomPlus" x="17" y="9" onmousedown="handleZoom(evt,'in')"/>
                <use id="zoomminus" xlink:href="#zoomMin" x="42" y="9" onmousedown="handleZoom(evt,'out')"/>
                <use id="reset" xlink:href="#resetDef" x="30" y="36" onmousedown="handleReset()"/>
                <g id="arrowUp" xlink:href="#dirArrow" transform="translate(30 24)" onmousedown="handlePan(0,-1)">
                  <use xlink:href="#rim" fill="#404040">
                        <set attributeName="fill" to="#808080" begin="arrowUp.mouseover" end="arrowUp.mouseout"/>
                  </use>
                  <path fill="none" stroke="white" stroke-width="1.5" d="M0,-3.0v7 M-2.5,-0.5L0,-3.0L2.5,-0.5"/>
                </g>
                <g id="arrowRight" xlink:href="#dirArrow" transform="rotate(90) translate(36 -43)" onmousedown="handlePan(1,0)">
                  <use xlink:href="#rim" fill="#404040">
                        <set attributeName="fill" to="#808080" begin="arrowRight.mouseover" end="arrowRight.mouseout"/>
                  </use>
                  <path fill="none" stroke="white" stroke-width="1.5" d="M0,-3.0v7 M-2.5,-0.5L0,-3.0L2.5,-0.5"/>
                </g>
                <g id="arrowDown" xlink:href="#dirArrow" transform="rotate(180) translate(-30 -48)" onmousedown="handlePan(0,1)">
                  <use xlink:href="#rim" fill="#404040">
                        <set attributeName="fill" to="#808080" begin="arrowDown.mouseover" end="arrowDown.mouseout"/>
                  </use>
                  <path fill="none" stroke="white" stroke-width="1.5" d="M0,-3.0v7 M-2.5,-0.5L0,-3.0L2.5,-0.5"/>
                </g>
                <g id="arrowLeft" xlink:href="#dirArrow" transform="rotate(270) translate(-36 17)" onmousedown="handlePan(-1,0)">
                  <use xlink:href="#rim" fill="#404040">
                        <set attributeName="fill" to="#808080" begin="arrowLeft.mouseover" end="arrowLeft.mouseout"/>
                  </use>
                  <path fill="none" stroke="white" stroke-width="1.5" d="M0,-3.0v7 M-2.5,-0.5L0,-3.0L2.5,-0.5"/>
                </g>
        </g>
        <svg viewBox="0 0 15 15" width="100%" height="30px" preserveAspectRatio="xMaxYMin meet">
         <g id="arrow_out" transform="scale(0.3 0.3)">
          <a xlink:href="namespace_flx_ac679b46bf8e2e9d3069effb4d561e7c9_cgraph_org.svg" target="_base">
           <rect id="button" ry="5" rx="5" y="6" x="6" height="38" width="38"
                fill="#f2f5e9" fill-opacity="0.5" stroke="#606060" stroke-width="1.0"/>
           <path id="arrow"
             d="M 11.500037,31.436501 C 11.940474,20.09759 22.043105,11.32322 32.158766,21.979434 L 37.068811,17.246167 C 37.068811,17.246167 37.088388,32 37.088388,32 L 22.160133,31.978069 C 22.160133,31.978069 26.997745,27.140456 26.997745,27.140456 C 18.528582,18.264221 13.291696,25.230495 11.500037,31.436501 z"
             style="fill:#404040;"/>
          </a>
         </g>
        </svg>
</svg>
