<?xml version="1.0" encoding="UTF-8" standalone="no"?>
<!DOCTYPE svg PUBLIC "-//W3C//DTD SVG 1.1//EN"
 "http://www.w3.org/Graphics/SVG/1.1/DTD/svg11.dtd">
<!-- Generated by graphviz version 2.38.0 (20140413.2041)
 -->
<!-- Title: Flx::showFrame Pages: 1 -->
<svg width="370pt" height="204pt"
 viewBox="0.00 0.00 370.00 203.50" xmlns="http://www.w3.org/2000/svg" xmlns:xlink="http://www.w3.org/1999/xlink">
<g id="graph0" class="graph" transform="scale(1 1) rotate(0) translate(4 199.5)">
<title>Flx::showFrame</title>
<polygon fill="white" stroke="none" points="-4,4 -4,-199.5 366,-199.5 366,4 -4,4"/>
<!-- Node1 -->
<g id="node1" class="node"><title>Node1</title>
<g id="a_node1"><a xlink:title=" ">
<polygon fill="#bfbfbf" stroke="black" points="0,-94 0,-113 86,-113 86,-94 0,-94"/>
<text text-anchor="middle" x="43" y="-101" font-family="Helvetica,sans-Serif" font-size="10.00">Flx::showFrame</text>
</a>
</g>
</g>
<!-- Node2 -->
<g id="node2" class="node"><title>Node2</title>
<g id="a_node2"><a xlink:href="../../d8/dbb/namespace_flx.html#aef4fdc5d368726749e91b3536a722832" target="_top" xlink:title=" ">
<polygon fill="white" stroke="black" points="122,-94 122,-113 197,-113 197,-94 122,-94"/>
<text text-anchor="middle" x="159.5" y="-101" font-family="Helvetica,sans-Serif" font-size="10.00">Flx::blitImage</text>
</a>
</g>
</g>
<!-- Node1&#45;&gt;Node2 -->
<g id="edge1" class="edge"><title>Node1&#45;&gt;Node2</title>
<path fill="none" stroke="midnightblue" d="M86.3103,-103.5C94.553,-103.5 103.24,-103.5 111.62,-103.5"/>
<polygon fill="midnightblue" stroke="midnightblue" points="111.64,-107 121.64,-103.5 111.64,-100 111.64,-107"/>
</g>
<!-- Node3 -->
<g id="node3" class="node"><title>Node3</title>
<g id="a_node3"><a xlink:href="../../d4/ddf/namespace_nx_xbox.html#a01e96222a8aac875c17a870a36d1d965" target="_top" xlink:title=" ">
<polygon fill="white" stroke="black" points="234,-176 234,-195 361,-195 361,-176 234,-176"/>
<text text-anchor="middle" x="297.5" y="-183" font-family="Helvetica,sans-Serif" font-size="10.00">NxXbox::set_blend_mode</text>
</a>
</g>
</g>
<!-- Node2&#45;&gt;Node3 -->
<g id="edge2" class="edge"><title>Node2&#45;&gt;Node3</title>
<path fill="none" stroke="midnightblue" d="M168.923,-113.035C181.544,-126.762 206.704,-152.029 233,-166.5 236.963,-168.681 241.207,-170.64 245.551,-172.394"/>
<polygon fill="midnightblue" stroke="midnightblue" points="244.559,-175.758 255.152,-175.913 246.968,-169.186 244.559,-175.758"/>
</g>
<!-- Node4 -->
<g id="node4" class="node"><title>Node4</title>
<g id="a_node4"><a xlink:href="../../d4/ddf/namespace_nx_xbox.html#a7ab2d41a1053bd29a3a2c75c04983c56" target="_top" xlink:title=" ">
<polygon fill="white" stroke="black" points="233,-138 233,-157 362,-157 362,-138 233,-138"/>
<text text-anchor="middle" x="297.5" y="-145" font-family="Helvetica,sans-Serif" font-size="10.00">NxXbox::set_pixel_shader</text>
</a>
</g>
</g>
<!-- Node2&#45;&gt;Node4 -->
<g id="edge3" class="edge"><title>Node2&#45;&gt;Node4</title>
<path fill="none" stroke="midnightblue" d="M187.267,-113.026C200.911,-117.806 217.791,-123.605 233,-128.5 239.697,-130.656 246.817,-132.865 253.777,-134.98"/>
<polygon fill="midnightblue" stroke="midnightblue" points="253.205,-138.463 263.79,-137.994 255.223,-131.76 253.205,-138.463"/>
</g>
<!-- Node5 -->
<g id="node5" class="node"><title>Node5</title>
<g id="a_node5"><a xlink:href="../../d4/ddf/namespace_nx_xbox.html#af169397368451c254aef09298bec304a" target="_top" xlink:title=" ">
<polygon fill="white" stroke="black" points="247,-88.5 247,-118.5 348,-118.5 348,-88.5 247,-88.5"/>
<text text-anchor="start" x="255" y="-106.5" font-family="Helvetica,sans-Serif" font-size="10.00">NxXbox::set_render</text>
<text text-anchor="middle" x="297.5" y="-95.5" font-family="Helvetica,sans-Serif" font-size="10.00">_state</text>
</a>
</g>
</g>
<!-- Node2&#45;&gt;Node5 -->
<g id="edge4" class="edge"><title>Node2&#45;&gt;Node5</title>
<path fill="none" stroke="midnightblue" d="M197.304,-103.5C209.465,-103.5 223.326,-103.5 236.751,-103.5"/>
<polygon fill="midnightblue" stroke="midnightblue" points="236.897,-107 246.897,-103.5 236.897,-100 236.897,-107"/>
</g>
<!-- Node6 -->
<g id="node6" class="node"><title>Node6</title>
<g id="a_node6"><a xlink:href="../../d4/ddf/namespace_nx_xbox.html#abc37345517638e477d4e5ebde2044ac9" target="_top" xlink:title=" ">
<polygon fill="white" stroke="black" points="245.5,-50 245.5,-69 349.5,-69 349.5,-50 245.5,-50"/>
<text text-anchor="middle" x="297.5" y="-57" font-family="Helvetica,sans-Serif" font-size="10.00">NxXbox::set_texture</text>
</a>
</g>
</g>
<!-- Node2&#45;&gt;Node6 -->
<g id="edge5" class="edge"><title>Node2&#45;&gt;Node6</title>
<path fill="none" stroke="midnightblue" d="M189.049,-93.943C202.387,-89.5053 218.491,-84.1862 233,-79.5 240.501,-77.0772 248.513,-74.5258 256.23,-72.0862"/>
<polygon fill="midnightblue" stroke="midnightblue" points="257.303,-75.4181 265.788,-69.0741 255.198,-68.7418 257.303,-75.4181"/>
</g>
<!-- Node7 -->
<g id="node7" class="node"><title>Node7</title>
<g id="a_node7"><a xlink:href="../../d4/ddf/namespace_nx_xbox.html#a26eda17b0f46b5f5b914f683b8af7e77" target="_top" xlink:title=" ">
<polygon fill="white" stroke="black" points="247.5,-0.5 247.5,-30.5 347.5,-30.5 347.5,-0.5 247.5,-0.5"/>
<text text-anchor="start" x="255.5" y="-18.5" font-family="Helvetica,sans-Serif" font-size="10.00">NxXbox::set_vertex</text>
<text text-anchor="middle" x="297.5" y="-7.5" font-family="Helvetica,sans-Serif" font-size="10.00">_shader</text>
</a>
</g>
</g>
<!-- Node2&#45;&gt;Node7 -->
<g id="edge6" class="edge"><title>Node2&#45;&gt;Node7</title>
<path fill="none" stroke="midnightblue" d="M169.522,-93.8054C182.485,-80.3383 207.622,-55.8934 233,-40.5 236.324,-38.4838 239.839,-36.5738 243.442,-34.7758"/>
<polygon fill="midnightblue" stroke="midnightblue" points="244.936,-37.9408 252.518,-30.5406 241.976,-31.5974 244.936,-37.9408"/>
</g>
</g>
</svg>
