<?xml version="1.0" encoding="UTF-8" standalone="no"?>
<!DOCTYPE svg PUBLIC "-//W3C//DTD SVG 1.1//EN"
 "http://www.w3.org/Graphics/SVG/1.1/DTD/svg11.dtd">
<!-- Generated by graphviz version 2.38.0 (20140413.2041)
 -->
<!-- Title: Flx::mpegRestartDMA Pages: 1 -->
<svg width="491pt" height="104pt"
 viewBox="0.00 0.00 491.00 104.00" xmlns="http://www.w3.org/2000/svg" xmlns:xlink="http://www.w3.org/1999/xlink">
<g id="graph0" class="graph" transform="scale(1 1) rotate(0) translate(4 100)">
<title>Flx::mpegRestartDMA</title>
<polygon fill="white" stroke="none" points="-4,4 -4,-100 487,-100 487,4 -4,4"/>
<!-- Node1 -->
<g id="node1" class="node"><title>Node1</title>
<g id="a_node1"><a xlink:title=" ">
<polygon fill="#bfbfbf" stroke="black" points="0,-38.5 0,-57.5 113,-57.5 113,-38.5 0,-38.5"/>
<text text-anchor="middle" x="56.5" y="-45.5" font-family="Helvetica,sans-Serif" font-size="10.00">Flx::mpegRestartDMA</text>
</a>
</g>
</g>
<!-- Node2 -->
<g id="node2" class="node"><title>Node2</title>
<g id="a_node2"><a xlink:href="../../d8/dbb/namespace_flx.html#ad1475e89668d47e5d0a74580aeaeb310" target="_top" xlink:title=" ">
<polygon fill="white" stroke="black" points="149,-38.5 149,-57.5 259,-57.5 259,-38.5 149,-38.5"/>
<text text-anchor="middle" x="204" y="-45.5" font-family="Helvetica,sans-Serif" font-size="10.00">Flx::viBufRestartDMA</text>
</a>
</g>
</g>
<!-- Node1&#45;&gt;Node2 -->
<g id="edge1" class="edge"><title>Node1&#45;&gt;Node2</title>
<path fill="none" stroke="midnightblue" d="M113.338,-48C121.656,-48 130.287,-48 138.761,-48"/>
<polygon fill="midnightblue" stroke="midnightblue" points="138.989,-51.5001 148.989,-48 138.989,-44.5001 138.989,-51.5001"/>
</g>
<!-- Node3 -->
<g id="node3" class="node"><title>Node3</title>
<g id="a_node3"><a xlink:href="../../d8/dbb/namespace_flx.html#a7ab50babe431dd28fef6a68d47625d91" target="_top" xlink:title=" ">
<polygon fill="white" stroke="black" points="295,-76.5 295,-95.5 390,-95.5 390,-76.5 295,-76.5"/>
<text text-anchor="middle" x="342.5" y="-83.5" font-family="Helvetica,sans-Serif" font-size="10.00">Flx::getFIFOindex</text>
</a>
</g>
</g>
<!-- Node2&#45;&gt;Node3 -->
<g id="edge2" class="edge"><title>Node2&#45;&gt;Node3</title>
<path fill="none" stroke="midnightblue" d="M239.445,-57.589C256.985,-62.4719 278.51,-68.4643 297.263,-73.685"/>
<polygon fill="midnightblue" stroke="midnightblue" points="296.494,-77.1039 307.066,-76.4141 298.371,-70.3603 296.494,-77.1039"/>
</g>
<!-- Node5 -->
<g id="node5" class="node"><title>Node5</title>
<g id="a_node5"><a xlink:href="../../d8/dbb/namespace_flx.html#aa35db7b37195c709c99a3c5e5b157d46" target="_top" xlink:title=" ">
<polygon fill="white" stroke="black" points="295.5,-38.5 295.5,-57.5 389.5,-57.5 389.5,-38.5 295.5,-38.5"/>
<text text-anchor="middle" x="342.5" y="-45.5" font-family="Helvetica,sans-Serif" font-size="10.00">Flx::setD3_CHCR</text>
</a>
</g>
</g>
<!-- Node2&#45;&gt;Node5 -->
<g id="edge4" class="edge"><title>Node2&#45;&gt;Node5</title>
<path fill="none" stroke="midnightblue" d="M259.341,-48C267.798,-48 276.552,-48 285.054,-48"/>
<polygon fill="midnightblue" stroke="midnightblue" points="285.264,-51.5001 295.264,-48 285.263,-44.5001 285.264,-51.5001"/>
</g>
<!-- Node6 -->
<g id="node6" class="node"><title>Node6</title>
<g id="a_node6"><a xlink:href="../../d8/dbb/namespace_flx.html#a0487e318d1cfa15d43f97b4b93bf2026" target="_top" xlink:title=" ">
<polygon fill="white" stroke="black" points="295.5,-0.5 295.5,-19.5 389.5,-19.5 389.5,-0.5 295.5,-0.5"/>
<text text-anchor="middle" x="342.5" y="-7.5" font-family="Helvetica,sans-Serif" font-size="10.00">Flx::setD4_CHCR</text>
</a>
</g>
</g>
<!-- Node2&#45;&gt;Node6 -->
<g id="edge5" class="edge"><title>Node2&#45;&gt;Node6</title>
<path fill="none" stroke="midnightblue" d="M239.445,-38.411C256.985,-33.5281 278.51,-27.5357 297.263,-22.315"/>
<polygon fill="midnightblue" stroke="midnightblue" points="298.371,-25.6397 307.066,-19.5859 296.494,-18.8961 298.371,-25.6397"/>
</g>
<!-- Node4 -->
<g id="node4" class="node"><title>Node4</title>
<g id="a_node4"><a xlink:href="../../d5/d64/defs_8h.html#add3c42fa3a74ab72ace94603badfd54b" target="_top" xlink:title=" ">
<polygon fill="white" stroke="black" points="426,-76.5 426,-95.5 483,-95.5 483,-76.5 426,-76.5"/>
<text text-anchor="middle" x="454.5" y="-83.5" font-family="Helvetica,sans-Serif" font-size="10.00">DmaAddr</text>
</a>
</g>
</g>
<!-- Node3&#45;&gt;Node4 -->
<g id="edge3" class="edge"><title>Node3&#45;&gt;Node4</title>
<path fill="none" stroke="midnightblue" d="M390.15,-86C398.714,-86 407.554,-86 415.814,-86"/>
<polygon fill="midnightblue" stroke="midnightblue" points="415.902,-89.5001 425.902,-86 415.902,-82.5001 415.902,-89.5001"/>
</g>
</g>
</svg>
