<?xml version="1.0" encoding="UTF-8" standalone="no"?>
<!DOCTYPE svg PUBLIC "-//W3C//DTD SVG 1.1//EN"
 "http://www.w3.org/Graphics/SVG/1.1/DTD/svg11.dtd">
<!-- Generated by graphviz version 2.38.0 (20140413.2041)
 -->
<!-- Title: Obj::CRailManager::CheckForHangRail Pages: 1 -->
<svg width="720pt" height="88pt"
 viewBox="0.00 0.00 720.00 88.00" xmlns="http://www.w3.org/2000/svg" xmlns:xlink="http://www.w3.org/1999/xlink">
<g id="graph0" class="graph" transform="scale(1 1) rotate(0) translate(4 84)">
<title>Obj::CRailManager::CheckForHangRail</title>
<polygon fill="white" stroke="none" points="-4,4 -4,-84 716,-84 716,4 -4,4"/>
<!-- Node1 -->
<g id="node1" class="node"><title>Node1</title>
<g id="a_node1"><a xlink:title=" ">
<polygon fill="#bfbfbf" stroke="black" points="608,-24.5 608,-54.5 712,-54.5 712,-24.5 608,-24.5"/>
<text text-anchor="start" x="616" y="-42.5" font-family="Helvetica,sans-Serif" font-size="10.00">Obj::CRailManager::</text>
<text text-anchor="middle" x="660" y="-31.5" font-family="Helvetica,sans-Serif" font-size="10.00">CheckForHangRail</text>
</a>
</g>
</g>
<!-- Node2 -->
<g id="node2" class="node"><title>Node2</title>
<g id="a_node2"><a xlink:href="../../dd/d52/class_obj_1_1_c_walk_component.html#a6fad5dcf6774ce730b69880d78568b5e" target="_top" xlink:title=" ">
<polygon fill="white" stroke="black" points="456,-47.5 456,-77.5 572,-77.5 572,-47.5 456,-47.5"/>
<text text-anchor="start" x="464" y="-65.5" font-family="Helvetica,sans-Serif" font-size="10.00">Obj::CWalkComponent</text>
<text text-anchor="middle" x="514" y="-54.5" font-family="Helvetica,sans-Serif" font-size="10.00">::maybe_drop_to_hang</text>
</a>
</g>
</g>
<!-- Node1&#45;&gt;Node2 -->
<g id="edge1" class="edge"><title>Node1&#45;&gt;Node2</title>
<path fill="none" stroke="midnightblue" d="M597.709,-49.2896C589.308,-50.6313 580.709,-52.0049 572.381,-53.3349"/>
<polygon fill="midnightblue" stroke="midnightblue" points="598.503,-52.7072 607.826,-47.6737 597.399,-45.7948 598.503,-52.7072"/>
</g>
<!-- Node6 -->
<g id="node6" class="node"><title>Node6</title>
<g id="a_node6"><a xlink:href="../../dd/d52/class_obj_1_1_c_walk_component.html#a30280997913993fc998b4b6a71808b6d" target="_top" xlink:title=" ">
<polygon fill="white" stroke="black" points="304,-0.5 304,-30.5 420,-30.5 420,-0.5 304,-0.5"/>
<text text-anchor="start" x="312" y="-18.5" font-family="Helvetica,sans-Serif" font-size="10.00">Obj::CWalkComponent</text>
<text text-anchor="middle" x="362" y="-7.5" font-family="Helvetica,sans-Serif" font-size="10.00">::maybe_grab_to_hang</text>
</a>
</g>
</g>
<!-- Node1&#45;&gt;Node6 -->
<g id="edge5" class="edge"><title>Node1&#45;&gt;Node6</title>
<path fill="none" stroke="midnightblue" d="M597.652,-34.5258C545.472,-30.295 471.108,-24.2655 420.162,-20.1348"/>
<polygon fill="midnightblue" stroke="midnightblue" points="597.528,-38.0272 607.779,-35.3469 598.094,-31.0501 597.528,-38.0272"/>
</g>
<!-- Node3 -->
<g id="node3" class="node"><title>Node3</title>
<g id="a_node3"><a xlink:href="../../dd/d52/class_obj_1_1_c_walk_component.html#a28f469e9766438223c23b8b53ffb7b13" target="_top" xlink:title=" ">
<polygon fill="white" stroke="black" points="304,-49.5 304,-79.5 420,-79.5 420,-49.5 304,-49.5"/>
<text text-anchor="start" x="312" y="-67.5" font-family="Helvetica,sans-Serif" font-size="10.00">Obj::CWalkComponent</text>
<text text-anchor="middle" x="362" y="-56.5" font-family="Helvetica,sans-Serif" font-size="10.00">::respond_to_ground</text>
</a>
</g>
</g>
<!-- Node2&#45;&gt;Node3 -->
<g id="edge2" class="edge"><title>Node2&#45;&gt;Node3</title>
<path fill="none" stroke="midnightblue" d="M445.689,-63.3975C437.272,-63.5097 428.723,-63.6237 420.475,-63.7337"/>
<polygon fill="midnightblue" stroke="midnightblue" points="445.911,-66.8949 455.864,-63.2618 445.818,-59.8955 445.911,-66.8949"/>
</g>
<!-- Node4 -->
<g id="node4" class="node"><title>Node4</title>
<g id="a_node4"><a xlink:href="../../dd/d52/class_obj_1_1_c_walk_component.html#a0ac69c034862c775af90cd21b01d2182" target="_top" xlink:title=" ">
<polygon fill="white" stroke="black" points="152,-49.5 152,-79.5 268,-79.5 268,-49.5 152,-49.5"/>
<text text-anchor="start" x="160" y="-67.5" font-family="Helvetica,sans-Serif" font-size="10.00">Obj::CWalkComponent</text>
<text text-anchor="middle" x="210" y="-56.5" font-family="Helvetica,sans-Serif" font-size="10.00">::go_on_ground_state</text>
</a>
</g>
</g>
<!-- Node3&#45;&gt;Node4 -->
<g id="edge3" class="edge"><title>Node3&#45;&gt;Node4</title>
<path fill="none" stroke="midnightblue" d="M293.689,-64.5C285.272,-64.5 276.723,-64.5 268.475,-64.5"/>
<polygon fill="midnightblue" stroke="midnightblue" points="293.864,-68.0001 303.864,-64.5 293.863,-61.0001 293.864,-68.0001"/>
</g>
<!-- Node5 -->
<g id="node5" class="node"><title>Node5</title>
<g id="a_node5"><a xlink:href="../../dd/d52/class_obj_1_1_c_walk_component.html#a93a603eb6f32522550b740ce8d56900d" target="_top" xlink:title=" ">
<polygon fill="white" stroke="black" points="0,-24.5 0,-54.5 116,-54.5 116,-24.5 0,-24.5"/>
<text text-anchor="start" x="8" y="-42.5" font-family="Helvetica,sans-Serif" font-size="10.00">Obj::CWalkComponent</text>
<text text-anchor="middle" x="58" y="-31.5" font-family="Helvetica,sans-Serif" font-size="10.00">::Update</text>
</a>
</g>
</g>
<!-- Node4&#45;&gt;Node5 -->
<g id="edge4" class="edge"><title>Node4&#45;&gt;Node5</title>
<path fill="none" stroke="midnightblue" d="M141.967,-53.3278C133.46,-51.9099 124.814,-50.469 116.475,-49.0791"/>
<polygon fill="midnightblue" stroke="midnightblue" points="141.424,-56.7856 151.864,-54.9773 142.575,-49.8808 141.424,-56.7856"/>
</g>
<!-- Node7 -->
<g id="node7" class="node"><title>Node7</title>
<g id="a_node7"><a xlink:href="../../dd/d52/class_obj_1_1_c_walk_component.html#a40ceeaea9d8d11dd084f85e5f1a9c6b1" target="_top" xlink:title=" ">
<polygon fill="white" stroke="black" points="152,-0.5 152,-30.5 268,-30.5 268,-0.5 152,-0.5"/>
<text text-anchor="start" x="160" y="-18.5" font-family="Helvetica,sans-Serif" font-size="10.00">Obj::CWalkComponent</text>
<text text-anchor="middle" x="210" y="-7.5" font-family="Helvetica,sans-Serif" font-size="10.00">::go_in_air_state</text>
</a>
</g>
</g>
<!-- Node6&#45;&gt;Node7 -->
<g id="edge6" class="edge"><title>Node6&#45;&gt;Node7</title>
<path fill="none" stroke="midnightblue" d="M293.689,-15.5C285.272,-15.5 276.723,-15.5 268.475,-15.5"/>
<polygon fill="midnightblue" stroke="midnightblue" points="293.864,-19.0001 303.864,-15.5 293.863,-12.0001 293.864,-19.0001"/>
</g>
<!-- Node7&#45;&gt;Node5 -->
<g id="edge7" class="edge"><title>Node7&#45;&gt;Node5</title>
<path fill="none" stroke="midnightblue" d="M141.967,-26.2253C133.46,-27.5865 124.814,-28.9698 116.475,-30.3041"/>
<polygon fill="midnightblue" stroke="midnightblue" points="142.542,-29.6779 151.864,-24.6418 141.436,-22.7658 142.542,-29.6779"/>
</g>
</g>
</svg>
