<?xml version="1.0" encoding="UTF-8" standalone="no"?>
<!DOCTYPE svg PUBLIC "-//W3C//DTD SVG 1.1//EN"
 "http://www.w3.org/Graphics/SVG/1.1/DTD/svg11.dtd">
<!-- Generated by graphviz version 2.38.0 (20140413.2041)
 -->
<!-- Title: Sfx::CleanUpSoundFX Pages: 1 -->
<svg width="432pt" height="39pt"
 viewBox="0.00 0.00 432.00 39.00" xmlns="http://www.w3.org/2000/svg" xmlns:xlink="http://www.w3.org/1999/xlink">
<g id="graph0" class="graph" transform="scale(1 1) rotate(0) translate(4 35)">
<title>Sfx::CleanUpSoundFX</title>
<polygon fill="white" stroke="none" points="-4,4 -4,-35 428,-35 428,4 -4,4"/>
<!-- Node1 -->
<g id="node1" class="node"><title>Node1</title>
<g id="a_node1"><a xlink:title=" ">
<polygon fill="#bfbfbf" stroke="black" points="311,-6 311,-25 424,-25 424,-6 311,-6"/>
<text text-anchor="middle" x="367.5" y="-13" font-family="Helvetica,sans-Serif" font-size="10.00">Sfx::CleanUpSoundFX</text>
</a>
</g>
</g>
<!-- Node2 -->
<g id="node2" class="node"><title>Node2</title>
<g id="a_node2"><a xlink:href="../../d2/d5f/class_sfx_1_1_c_sfx_manager.html#a13b4e8ef143a44722aeb6cbdf984f172" target="_top" xlink:title=" ">
<polygon fill="white" stroke="black" points="137,-6 137,-25 275,-25 275,-6 137,-6"/>
<text text-anchor="middle" x="206" y="-13" font-family="Helvetica,sans-Serif" font-size="10.00">Sfx::CSfxManager::CleanUp</text>
</a>
</g>
</g>
<!-- Node1&#45;&gt;Node2 -->
<g id="edge1" class="edge"><title>Node1&#45;&gt;Node2</title>
<path fill="none" stroke="midnightblue" d="M300.586,-15.5C292.174,-15.5 283.55,-15.5 275.105,-15.5"/>
<polygon fill="midnightblue" stroke="midnightblue" points="300.715,-19.0001 310.715,-15.5 300.715,-12.0001 300.715,-19.0001"/>
</g>
<!-- Node3 -->
<g id="node3" class="node"><title>Node3</title>
<g id="a_node3"><a xlink:href="../../d2/d5f/class_sfx_1_1_c_sfx_manager.html#a3ad7eeb8f523d94875dbc789fa2a1b51" target="_top" xlink:title=" ">
<polygon fill="white" stroke="black" points="0,-0.5 0,-30.5 101,-30.5 101,-0.5 0,-0.5"/>
<text text-anchor="start" x="8" y="-18.5" font-family="Helvetica,sans-Serif" font-size="10.00">Sfx::CSfxManager::</text>
<text text-anchor="middle" x="50.5" y="-7.5" font-family="Helvetica,sans-Serif" font-size="10.00">~CSfxManager</text>
</a>
</g>
</g>
<!-- Node2&#45;&gt;Node3 -->
<g id="edge2" class="edge"><title>Node2&#45;&gt;Node3</title>
<path fill="none" stroke="midnightblue" d="M126.604,-15.5C117.926,-15.5 109.275,-15.5 101.097,-15.5"/>
<polygon fill="midnightblue" stroke="midnightblue" points="126.779,-19.0001 136.779,-15.5 126.779,-12.0001 126.779,-19.0001"/>
</g>
</g>
</svg>
