<?xml version="1.0" encoding="UTF-8" standalone="no"?>
<!DOCTYPE svg PUBLIC "-//W3C//DTD SVG 1.1//EN"
 "http://www.w3.org/Graphics/SVG/1.1/DTD/svg11.dtd">
<!-- Generated by graphviz version 2.38.0 (20140413.2041)
 -->
<!-- Title: CFuncs::ScriptResetAllToDefaultProfile Pages: 1 -->
<!--zoomable 674 -->
<svg id="main" version="1.1" xmlns="http://www.w3.org/2000/svg" xmlns:xlink="http://www.w3.org/1999/xlink" xml:space="preserve" onload="init(evt)">
<style type="text/css"><![CDATA[
.edge:hover path { stroke: red; }
.edge:hover polygon { stroke: red; fill: red; }
]]></style>
<script type="text/javascript"><![CDATA[
var edges = document.getElementsByTagName('g');
if (edges && edges.length) {
  for (var i=0;i<edges.length;i++) {
    if (edges[i].id.substr(0,4)=='edge') {
      edges[i].setAttribute('class','edge');
    }
  }
}
]]></script>
        <defs>
                <circle id="rim" cx="0" cy="0" r="7"/>
                <circle id="rim2" cx="0" cy="0" r="3.5"/>
                <g id="zoomPlus">
                        <use xlink:href="#rim" fill="#404040">
                                <set attributeName="fill" to="#808080" begin="zoomplus.mouseover" end="zoomplus.mouseout"/>
                        </use>
                        <path d="M-4,0h8M0,-4v8" fill="none" stroke="white" stroke-width="1.5" pointer-events="none"/>
                </g>
                <g id="zoomMin">
                        <use xlink:href="#rim" fill="#404040">
                                <set attributeName="fill" to="#808080" begin="zoomminus.mouseover" end="zoomminus.mouseout"/>
                        </use>
                        <path d="M-4,0h8" fill="none" stroke="white" stroke-width="1.5" pointer-events="none"/>
                </g>
                <g id="dirArrow">
                        <path fill="none" stroke="white" stroke-width="1.5" d="M0,-3.0v7 M-2.5,-0.5L0,-3.0L2.5,-0.5"/>
                </g>
               <g id="resetDef">
                       <use xlink:href="#rim2" fill="#404040">
                               <set attributeName="fill" to="#808080" begin="reset.mouseover" end="reset.mouseout"/>
                       </use>
               </g>
        </defs>

<script type="text/javascript">
var viewWidth = 1386;
var viewHeight = 674;
var sectionId = 'dynsection-192';
</script>
<script xlink:href="../../svgpan.js"/>
<svg id="graph" class="graph">
<g id="viewport">
<title>CFuncs::ScriptResetAllToDefaultProfile</title>
<polygon fill="white" stroke="none" points="-4,4 -4,-670.013 1382,-670.013 1382,4 -4,4"/>
<!-- Node1 -->
<g id="node1" class="node"><title>Node1</title>
<g id="a_node1"><a xlink:title=" ">
<polygon fill="#bfbfbf" stroke="black" points="0,-346 0,-376 129,-376 129,-346 0,-346"/>
<text text-anchor="start" x="8" y="-364" font-family="Helvetica,sans-Serif" font-size="10.00">CFuncs::ScriptResetAllTo</text>
<text text-anchor="middle" x="64.5" y="-353" font-family="Helvetica,sans-Serif" font-size="10.00">DefaultProfile</text>
</a>
</g>
</g>
<!-- Node2 -->
<g id="node2" class="node"><title>Node2</title>
<g id="a_node2"><a xlink:href="../../d1/d54/namespace_script.html#aacb275494688d5b51c565c932f27f76c" target="_top" xlink:title=" ">
<polygon fill="white" stroke="black" points="557.5,-638.5 557.5,-657.5 644.5,-657.5 644.5,-638.5 557.5,-638.5"/>
<text text-anchor="middle" x="601" y="-645.5" font-family="Helvetica,sans-Serif" font-size="10.00">Script::GetArray</text>
</a>
</g>
</g>
<!-- Node1&#45;&gt;Node2 -->
<g id="edge1" class="edge"><title>Node1&#45;&gt;Node2</title>
<path fill="none" stroke="midnightblue" d="M75.3523,-376.061C91.7336,-400.253 126.592,-448.268 165,-480 281.618,-576.348 459.741,-621.55 547.458,-638.939"/>
<polygon fill="midnightblue" stroke="midnightblue" points="546.959,-642.407 557.443,-640.875 548.292,-635.535 546.959,-642.407"/>
</g>
<!-- Node10 -->
<g id="node10" class="node"><title>Node10</title>
<g id="a_node10"><a xlink:href="../../d2/df7/class_script_1_1_c_struct.html#aa39e6fe5fdf1d6c48136ae26a7ad511e" target="_top" xlink:title=" ">
<polygon fill="white" stroke="black" points="343.5,-529.5 343.5,-548.5 492.5,-548.5 492.5,-529.5 343.5,-529.5"/>
<text text-anchor="middle" x="418" y="-536.5" font-family="Helvetica,sans-Serif" font-size="10.00">Script::CStruct::GetChecksum</text>
</a>
</g>
</g>
<!-- Node1&#45;&gt;Node10 -->
<g id="edge10" class="edge"><title>Node1&#45;&gt;Node10</title>
<path fill="none" stroke="midnightblue" d="M86.2964,-376.032C130.481,-407.298 237.878,-479.765 338,-520 344.244,-522.509 350.904,-524.743 357.608,-526.717"/>
<polygon fill="midnightblue" stroke="midnightblue" points="356.848,-530.138 367.419,-529.425 358.711,-523.39 356.848,-530.138"/>
</g>
<!-- Node12 -->
<g id="node12" class="node"><title>Node12</title>
<g id="a_node12"><a xlink:href="../../d0/dc4/class_obj_1_1_c_player_profile_manager.html#a01bab544b9ce42a259a92d599714959e" target="_top" xlink:title=" ">
<polygon fill="white" stroke="black" points="165,-371 165,-401 302,-401 302,-371 165,-371"/>
<text text-anchor="start" x="173" y="-389" font-family="Helvetica,sans-Serif" font-size="10.00">Obj::CPlayerProfileManager</text>
<text text-anchor="middle" x="233.5" y="-378" font-family="Helvetica,sans-Serif" font-size="10.00">::GetProfileTemplate</text>
</a>
</g>
</g>
<!-- Node1&#45;&gt;Node12 -->
<g id="edge15" class="edge"><title>Node1&#45;&gt;Node12</title>
<path fill="none" stroke="midnightblue" d="M129.112,-370.523C137.526,-371.782 146.226,-373.085 154.843,-374.375"/>
<polygon fill="midnightblue" stroke="midnightblue" points="154.489,-377.861 164.897,-375.88 155.526,-370.938 154.489,-377.861"/>
</g>
<!-- Node13 -->
<g id="node13" class="node"><title>Node13</title>
<g id="a_node13"><a xlink:href="../../d0/d0b/class_script_1_1_c_array.html#a71c761bdce14193b10bf3c88372ba5a0" target="_top" xlink:title=" ">
<polygon fill="white" stroke="black" points="890,-0.5 890,-19.5 1009,-19.5 1009,-0.5 890,-0.5"/>
<text text-anchor="middle" x="949.5" y="-7.5" font-family="Helvetica,sans-Serif" font-size="10.00">Script::CArray::GetSize</text>
</a>
</g>
</g>
<!-- Node1&#45;&gt;Node13 -->
<g id="edge16" class="edge"><title>Node1&#45;&gt;Node13</title>
<path fill="none" stroke="midnightblue" d="M69.4986,-345.843C79.7977,-309.262 110.33,-214.828 165,-156 253.115,-61.183 287.561,-10 417,-10 417,-10 417,-10 602,-10 698.469,-10 810.045,-10 879.946,-10"/>
<polygon fill="midnightblue" stroke="midnightblue" points="879.951,-13.5001 889.951,-10 879.951,-6.5001 879.951,-13.5001"/>
</g>
<!-- Node14 -->
<g id="node14" class="node"><title>Node14</title>
<g id="a_node14"><a xlink:href="../../d0/d0b/class_script_1_1_c_array.html#af335b83cb06ac2934f891089c295bdf9" target="_top" xlink:title=" ">
<polygon fill="white" stroke="black" points="704,-215.5 704,-234.5 844,-234.5 844,-215.5 704,-215.5"/>
<text text-anchor="middle" x="774" y="-222.5" font-family="Helvetica,sans-Serif" font-size="10.00">Script::CArray::GetStructure</text>
</a>
</g>
</g>
<!-- Node1&#45;&gt;Node14 -->
<g id="edge17" class="edge"><title>Node1&#45;&gt;Node14</title>
<path fill="none" stroke="midnightblue" d="M77.6002,-345.892C112.5,-303.691 218.515,-184.913 338,-143 487.258,-90.6433 677.693,-175.478 746.615,-210.748"/>
<polygon fill="midnightblue" stroke="midnightblue" points="745.03,-213.869 755.517,-215.376 748.259,-207.658 745.03,-213.869"/>
</g>
<!-- Node15 -->
<g id="node15" class="node"><title>Node15</title>
<g id="a_node15"><a xlink:href="../../d5/d28/class_obj_1_1_c_skater_profile.html#a8619e26f5508a992a83cc647de2bd25f" target="_top" xlink:title=" ">
<polygon fill="white" stroke="black" points="183.5,-322 183.5,-352 283.5,-352 283.5,-322 183.5,-322"/>
<text text-anchor="start" x="191.5" y="-340" font-family="Helvetica,sans-Serif" font-size="10.00">Obj::CSkaterProfile</text>
<text text-anchor="middle" x="233.5" y="-329" font-family="Helvetica,sans-Serif" font-size="10.00">::Reset</text>
</a>
</g>
</g>
<!-- Node1&#45;&gt;Node15 -->
<g id="edge19" class="edge"><title>Node1&#45;&gt;Node15</title>
<path fill="none" stroke="midnightblue" d="M129.112,-351.858C143.576,-349.78 158.885,-347.579 173.162,-345.528"/>
<polygon fill="midnightblue" stroke="midnightblue" points="173.949,-348.951 183.35,-344.064 172.953,-342.022 173.949,-348.951"/>
</g>
<!-- Node3 -->
<g id="node3" class="node"><title>Node3</title>
<g id="a_node3"><a xlink:href="../../d1/d54/namespace_script.html#ae80ed69ea4edcbcbbbd4985a6efdcd6e" target="_top" xlink:title=" ">
<polygon fill="white" stroke="black" points="880,-506.5 880,-525.5 1019,-525.5 1019,-506.5 880,-506.5"/>
<text text-anchor="middle" x="949.5" y="-513.5" font-family="Helvetica,sans-Serif" font-size="10.00">Script::FindChecksumName</text>
</a>
</g>
</g>
<!-- Node2&#45;&gt;Node3 -->
<g id="edge2" class="edge"><title>Node2&#45;&gt;Node3</title>
<path fill="none" stroke="midnightblue" d="M644.595,-652.33C694.874,-655.57 779.763,-655.059 844,-624 885.864,-603.759 920.088,-559.353 937.018,-534.241"/>
<polygon fill="midnightblue" stroke="midnightblue" points="940.092,-535.936 942.64,-525.652 934.235,-532.103 940.092,-535.936"/>
</g>
<!-- Node7 -->
<g id="node7" class="node"><title>Node7</title>
<g id="a_node7"><a xlink:href="../../d1/d54/namespace_script.html#af32f99ba26ca0f255240413a4e23a754" target="_top" xlink:title=" ">
<polygon fill="white" stroke="black" points="1081.5,-297.5 1081.5,-316.5 1191.5,-316.5 1191.5,-297.5 1081.5,-297.5"/>
<text text-anchor="middle" x="1136.5" y="-304.5" font-family="Helvetica,sans-Serif" font-size="10.00">Script::GetTypeName</text>
</a>
</g>
</g>
<!-- Node2&#45;&gt;Node7 -->
<g id="edge6" class="edge"><title>Node2&#45;&gt;Node7</title>
<path fill="none" stroke="midnightblue" d="M644.634,-656.756C693.857,-665.085 776.686,-673.574 844,-653 933.71,-625.58 956.796,-605.217 1019,-535 1049.34,-500.747 1106.24,-374.11 1127.35,-325.849"/>
<polygon fill="midnightblue" stroke="midnightblue" points="1130.61,-327.124 1131.39,-316.558 1124.19,-324.33 1130.61,-327.124"/>
</g>
<!-- Node8 -->
<g id="node8" class="node"><title>Node8</title>
<g id="a_node8"><a xlink:href="../../d1/d54/namespace_script.html#a43181580ea5d38e4bf1aa19ccd5e9e85" target="_top" xlink:title=" ">
<polygon fill="white" stroke="black" points="733,-468.5 733,-487.5 815,-487.5 815,-468.5 733,-468.5"/>
<text text-anchor="middle" x="774" y="-475.5" font-family="Helvetica,sans-Serif" font-size="10.00">Script::Resolve</text>
</a>
</g>
</g>
<!-- Node2&#45;&gt;Node8 -->
<g id="edge7" class="edge"><title>Node2&#45;&gt;Node8</title>
<path fill="none" stroke="midnightblue" d="M612.426,-638.477C625.552,-626.427 648.716,-604.956 668,-586 700.081,-554.464 736.459,-516.544 756.873,-495.06"/>
<polygon fill="midnightblue" stroke="midnightblue" points="759.532,-497.342 763.873,-487.678 754.453,-492.526 759.532,-497.342"/>
</g>
<!-- Node4 -->
<g id="node4" class="node"><title>Node4</title>
<g id="a_node4"><a xlink:href="../../d1/d54/namespace_script.html#a5cc52c4ff5ea5bb27681d819212dfdca" target="_top" xlink:title=" ">
<polygon fill="white" stroke="black" points="1055,-487.5 1055,-506.5 1218,-506.5 1218,-487.5 1055,-487.5"/>
<text text-anchor="middle" x="1136.5" y="-494.5" font-family="Helvetica,sans-Serif" font-size="10.00">Script::FindChecksumNameNULL</text>
</a>
</g>
</g>
<!-- Node3&#45;&gt;Node4 -->
<g id="edge3" class="edge"><title>Node3&#45;&gt;Node4</title>
<path fill="none" stroke="midnightblue" d="M1019.12,-508.952C1027.48,-508.094 1036.11,-507.208 1044.72,-506.324"/>
<polygon fill="midnightblue" stroke="midnightblue" points="1045.21,-509.792 1054.8,-505.288 1044.49,-502.828 1045.21,-509.792"/>
</g>
<!-- Node6 -->
<g id="node6" class="node"><title>Node6</title>
<g id="a_node6"><a xlink:href="../../da/d37/namespace_dbg.html#ab406a8cc16de5046c7d9fd09c9de5e22" target="_top" xlink:title=" ">
<polygon fill="white" stroke="black" points="1103.5,-525.5 1103.5,-544.5 1169.5,-544.5 1169.5,-525.5 1103.5,-525.5"/>
<text text-anchor="middle" x="1136.5" y="-532.5" font-family="Helvetica,sans-Serif" font-size="10.00">Dbg::sprintf</text>
</a>
</g>
</g>
<!-- Node3&#45;&gt;Node6 -->
<g id="edge5" class="edge"><title>Node3&#45;&gt;Node6</title>
<path fill="none" stroke="midnightblue" d="M1019.12,-523.048C1043.98,-525.601 1071.31,-528.407 1093.23,-530.659"/>
<polygon fill="midnightblue" stroke="midnightblue" points="1092.9,-534.143 1103.21,-531.683 1093.62,-527.18 1092.9,-534.143"/>
</g>
<!-- Node5 -->
<g id="node5" class="node"><title>Node5</title>
<g id="a_node5"><a xlink:href="../../d0/d31/namespace_config.html#a709cc81780d49900157e3476b63aa25d" target="_top" xlink:title=" ">
<polygon fill="white" stroke="black" points="1254,-487.5 1254,-506.5 1378,-506.5 1378,-487.5 1254,-487.5"/>
<text text-anchor="middle" x="1316" y="-494.5" font-family="Helvetica,sans-Serif" font-size="10.00">Config::GotExtraMemory</text>
</a>
</g>
</g>
<!-- Node4&#45;&gt;Node5 -->
<g id="edge4" class="edge"><title>Node4&#45;&gt;Node5</title>
<path fill="none" stroke="midnightblue" d="M1218.2,-497C1226.73,-497 1235.36,-497 1243.77,-497"/>
<polygon fill="midnightblue" stroke="midnightblue" points="1243.9,-500.5 1253.9,-497 1243.9,-493.5 1243.9,-500.5"/>
</g>
<!-- Node8&#45;&gt;Node3 -->
<g id="edge8" class="edge"><title>Node8&#45;&gt;Node3</title>
<path fill="none" stroke="midnightblue" d="M815.24,-486.813C838.925,-492.001 869.175,-498.626 894.867,-504.253"/>
<polygon fill="midnightblue" stroke="midnightblue" points="894.313,-507.715 904.831,-506.436 895.811,-500.877 894.313,-507.715"/>
</g>
<!-- Node9 -->
<g id="node9" class="node"><title>Node9</title>
<g id="a_node9"><a xlink:href="../../d1/d54/namespace_script.html#af293a36c230b10de7d8151c2990b233b" target="_top" xlink:title=" ">
<polygon fill="white" stroke="black" points="892.5,-468.5 892.5,-487.5 1006.5,-487.5 1006.5,-468.5 892.5,-468.5"/>
<text text-anchor="middle" x="949.5" y="-475.5" font-family="Helvetica,sans-Serif" font-size="10.00">Script::LookUpSymbol</text>
</a>
</g>
</g>
<!-- Node8&#45;&gt;Node9 -->
<g id="edge9" class="edge"><title>Node8&#45;&gt;Node9</title>
<path fill="none" stroke="midnightblue" d="M815.24,-478C835.12,-478 859.626,-478 882.178,-478"/>
<polygon fill="midnightblue" stroke="midnightblue" points="882.379,-481.5 892.379,-478 882.379,-474.5 882.379,-481.5"/>
</g>
<!-- Node10&#45;&gt;Node3 -->
<g id="edge11" class="edge"><title>Node10&#45;&gt;Node3</title>
<path fill="none" stroke="midnightblue" d="M443.193,-548.656C466.138,-557.26 501.798,-569.208 534,-574 672.659,-594.633 837.737,-551.227 910.664,-528.585"/>
<polygon fill="midnightblue" stroke="midnightblue" points="911.846,-531.882 920.331,-525.537 909.741,-525.207 911.846,-531.882"/>
</g>
<!-- Node10&#45;&gt;Node8 -->
<g id="edge14" class="edge"><title>Node10&#45;&gt;Node8</title>
<path fill="none" stroke="midnightblue" d="M453.408,-548.557C502.379,-560.474 594.401,-576.586 668,-553 703.653,-541.574 737.505,-513.103 756.713,-494.711"/>
<polygon fill="midnightblue" stroke="midnightblue" points="759.341,-497.035 764.011,-487.525 754.429,-492.047 759.341,-497.035"/>
</g>
<!-- Node10&#45;&gt;Node10 -->
<g id="edge12" class="edge"><title>Node10&#45;&gt;Node10</title>
<path fill="none" stroke="midnightblue" d="M389.949,-548.757C376.302,-557.565 385.652,-567 418,-567 440.239,-567 451.608,-562.541 452.108,-556.891"/>
<polygon fill="midnightblue" stroke="midnightblue" points="454.831,-554.688 446.051,-548.757 449.216,-558.868 454.831,-554.688"/>
</g>
<!-- Node11 -->
<g id="node11" class="node"><title>Node11</title>
<g id="a_node11"><a xlink:href="../../d1/d54/namespace_script.html#a0d003ee93577e31adb6597bce0002009" target="_top" xlink:title=" ">
<polygon fill="white" stroke="black" points="547.5,-524.5 547.5,-543.5 654.5,-543.5 654.5,-524.5 547.5,-524.5"/>
<text text-anchor="middle" x="601" y="-531.5" font-family="Helvetica,sans-Serif" font-size="10.00">Script::PrintContents</text>
</a>
</g>
</g>
<!-- Node10&#45;&gt;Node11 -->
<g id="edge13" class="edge"><title>Node10&#45;&gt;Node11</title>
<path fill="none" stroke="midnightblue" d="M492.62,-536.966C507.347,-536.559 522.693,-536.136 537.022,-535.74"/>
<polygon fill="midnightblue" stroke="midnightblue" points="537.353,-539.232 547.252,-535.457 537.159,-532.235 537.353,-539.232"/>
</g>
<!-- Node14&#45;&gt;Node7 -->
<g id="edge18" class="edge"><title>Node14&#45;&gt;Node7</title>
<path fill="none" stroke="midnightblue" d="M797.133,-234.618C818.114,-243.398 850.693,-256.167 880,-264 943.962,-281.096 1018.83,-292.748 1070.93,-299.564"/>
<polygon fill="midnightblue" stroke="midnightblue" points="1070.67,-303.06 1081.03,-300.863 1071.56,-296.117 1070.67,-303.06"/>
</g>
<!-- Node15&#45;&gt;Node10 -->
<g id="edge36" class="edge"><title>Node15&#45;&gt;Node10</title>
<path fill="none" stroke="midnightblue" d="M283.562,-347.685C290.495,-350.993 296.964,-355.326 302,-361 350.098,-415.189 287.11,-468.425 338,-520 339.412,-521.431 340.911,-522.761 342.484,-523.998"/>
<polygon fill="midnightblue" stroke="midnightblue" points="340.597,-526.946 350.896,-529.432 344.396,-521.066 340.597,-526.946"/>
</g>
<!-- Node16 -->
<g id="node16" class="node"><title>Node16</title>
<g id="a_node16"><a xlink:href="../../d2/df7/class_script_1_1_c_struct.html#a69e53f2893ce3cb95bc68264d92ce39e" target="_top" xlink:title=" ">
<polygon fill="white" stroke="black" points="338,-251.5 338,-270.5 498,-270.5 498,-251.5 338,-251.5"/>
<text text-anchor="middle" x="418" y="-258.5" font-family="Helvetica,sans-Serif" font-size="10.00">Script::CStruct::AppendStructure</text>
</a>
</g>
</g>
<!-- Node15&#45;&gt;Node16 -->
<g id="edge20" class="edge"><title>Node15&#45;&gt;Node16</title>
<path fill="none" stroke="midnightblue" d="M257.875,-321.748C278.298,-309.013 309.118,-291.193 338,-280 344.451,-277.5 351.33,-275.26 358.236,-273.273"/>
<polygon fill="midnightblue" stroke="midnightblue" points="359.589,-276.533 368.328,-270.542 357.76,-269.776 359.589,-276.533"/>
</g>
<!-- Node17 -->
<g id="node17" class="node"><title>Node17</title>
<g id="a_node17"><a xlink:href="../../d2/df7/class_script_1_1_c_struct.html#a4d84333e975c7e376be53e2f11613fd5" target="_top" xlink:title=" ">
<polygon fill="white" stroke="black" points="363,-76.5 363,-95.5 473,-95.5 473,-76.5 363,-76.5"/>
<text text-anchor="middle" x="418" y="-83.5" font-family="Helvetica,sans-Serif" font-size="10.00">Script::CStruct::Clear</text>
</a>
</g>
</g>
<!-- Node15&#45;&gt;Node17 -->
<g id="edge21" class="edge"><title>Node15&#45;&gt;Node17</title>
<path fill="none" stroke="midnightblue" d="M239.79,-321.986C252.507,-287.427 287.525,-200.79 338,-143 352.926,-125.911 373.903,-111.079 390.491,-100.832"/>
<polygon fill="midnightblue" stroke="midnightblue" points="392.406,-103.765 399.188,-95.6255 388.81,-97.7589 392.406,-103.765"/>
</g>
<!-- Node25 -->
<g id="node25" class="node"><title>Node25</title>
<g id="a_node25"><a xlink:href="../../d1/d92/class_gfx_1_1_c_model_appearance.html#a2c250da55b79da5a92992ca5f6d058a8" target="_top" xlink:title=" ">
<polygon fill="white" stroke="black" points="357,-202 357,-232 479,-232 479,-202 357,-202"/>
<text text-anchor="start" x="365" y="-220" font-family="Helvetica,sans-Serif" font-size="10.00">Gfx::CModelAppearance</text>
<text text-anchor="middle" x="418" y="-209" font-family="Helvetica,sans-Serif" font-size="10.00">::CreateFaceTexture</text>
</a>
</g>
</g>
<!-- Node15&#45;&gt;Node25 -->
<g id="edge35" class="edge"><title>Node15&#45;&gt;Node25</title>
<path fill="none" stroke="midnightblue" d="M247.004,-321.972C265.063,-301.178 300.422,-263.743 338,-242 341.712,-239.852 345.631,-237.865 349.658,-236.032"/>
<polygon fill="midnightblue" stroke="midnightblue" points="351.338,-239.122 359.205,-232.026 348.63,-232.668 351.338,-239.122"/>
</g>
<!-- Node26 -->
<g id="node26" class="node"><title>Node26</title>
<g id="a_node26"><a xlink:href="../../d2/df7/class_script_1_1_c_struct.html#a7d6929b5a907965b7a7ef86dc9b90123" target="_top" xlink:title=" ">
<polygon fill="white" stroke="black" points="346.5,-491.5 346.5,-510.5 489.5,-510.5 489.5,-491.5 346.5,-491.5"/>
<text text-anchor="middle" x="418" y="-498.5" font-family="Helvetica,sans-Serif" font-size="10.00">Script::CStruct::GetStructure</text>
</a>
</g>
</g>
<!-- Node15&#45;&gt;Node26 -->
<g id="edge37" class="edge"><title>Node15&#45;&gt;Node26</title>
<path fill="none" stroke="midnightblue" d="M283.526,-348.197C290.378,-351.439 296.832,-355.617 302,-361 339.386,-399.939 299.715,-438.944 338,-477 341.939,-480.916 346.496,-484.196 351.393,-486.944"/>
<polygon fill="midnightblue" stroke="midnightblue" points="349.987,-490.151 360.516,-491.336 353.024,-483.844 349.987,-490.151"/>
</g>
<!-- Node28 -->
<g id="node28" class="node"><title>Node28</title>
<g id="a_node28"><a xlink:href="../../d1/d54/namespace_script.html#aaf10cce8c51e44ea46f7789b3db96bc0" target="_top" xlink:title=" ">
<polygon fill="white" stroke="black" points="549,-392.5 549,-411.5 653,-411.5 653,-392.5 549,-392.5"/>
<text text-anchor="middle" x="601" y="-399.5" font-family="Helvetica,sans-Serif" font-size="10.00">Script::GetStructure</text>
</a>
</g>
</g>
<!-- Node15&#45;&gt;Node28 -->
<g id="edge45" class="edge"><title>Node15&#45;&gt;Node28</title>
<path fill="none" stroke="midnightblue" d="M283.698,-349.044C290.366,-352.167 296.719,-356.086 302,-361 331.14,-388.112 304.676,-421.236 338,-443 397.538,-481.885 429.547,-462.26 498,-443 516.05,-437.921 516.836,-428.55 534,-421 539.314,-418.662 544.994,-416.527 550.708,-414.601"/>
<polygon fill="midnightblue" stroke="midnightblue" points="551.826,-417.918 560.299,-411.559 549.709,-411.246 551.826,-417.918"/>
</g>
<!-- Node29 -->
<g id="node29" class="node"><title>Node29</title>
<g id="a_node29"><a xlink:href="../../d5/d28/class_obj_1_1_c_skater_profile.html#af83f2e85205ed4d9dd259a5bf0dc730d" target="_top" xlink:title=" ">
<polygon fill="white" stroke="black" points="368,-153 368,-183 468,-183 468,-153 368,-153"/>
<text text-anchor="start" x="376" y="-171" font-family="Helvetica,sans-Serif" font-size="10.00">Obj::CSkaterProfile</text>
<text text-anchor="middle" x="418" y="-160" font-family="Helvetica,sans-Serif" font-size="10.00">::IsPro</text>
</a>
</g>
</g>
<!-- Node15&#45;&gt;Node29 -->
<g id="edge49" class="edge"><title>Node15&#45;&gt;Node29</title>
<path fill="none" stroke="midnightblue" d="M241.197,-321.764C254.957,-292.226 289.267,-227.005 338,-192 344.083,-187.631 350.974,-184.045 358.089,-181.105"/>
<polygon fill="midnightblue" stroke="midnightblue" points="359.713,-184.237 367.877,-177.484 357.284,-177.672 359.713,-184.237"/>
</g>
<!-- Node30 -->
<g id="node30" class="node"><title>Node30</title>
<g id="a_node30"><a xlink:href="../../d1/d92/class_gfx_1_1_c_model_appearance.html#af8f975284e9903c9b52a850f9c152f17" target="_top" xlink:title=" ">
<polygon fill="white" stroke="black" points="357,-404 357,-434 479,-434 479,-404 357,-404"/>
<text text-anchor="start" x="365" y="-422" font-family="Helvetica,sans-Serif" font-size="10.00">Gfx::CModelAppearance</text>
<text text-anchor="middle" x="418" y="-411" font-family="Helvetica,sans-Serif" font-size="10.00">::Load</text>
</a>
</g>
</g>
<!-- Node15&#45;&gt;Node30 -->
<g id="edge50" class="edge"><title>Node15&#45;&gt;Node30</title>
<path fill="none" stroke="midnightblue" d="M283.508,-351.778C289.915,-354.467 296.246,-357.537 302,-361 320.597,-372.193 319.21,-383.136 338,-394 341.713,-396.147 345.632,-398.132 349.66,-399.966"/>
<polygon fill="midnightblue" stroke="midnightblue" points="348.632,-403.33 359.208,-403.97 351.339,-396.875 348.632,-403.33"/>
</g>
<!-- Node31 -->
<g id="node31" class="node"><title>Node31</title>
<g id="a_node31"><a xlink:href="../../d2/d0a/class_mem_1_1_manager.html#a7c4cba14870f002aee0243e16114f443" target="_top" xlink:title=" ">
<polygon fill="white" stroke="black" points="348.5,-365.5 348.5,-384.5 487.5,-384.5 487.5,-365.5 348.5,-365.5"/>
<text text-anchor="middle" x="418" y="-372.5" font-family="Helvetica,sans-Serif" font-size="10.00">Mem::Manager::PopContext</text>
</a>
</g>
</g>
<!-- Node15&#45;&gt;Node31 -->
<g id="edge51" class="edge"><title>Node15&#45;&gt;Node31</title>
<path fill="none" stroke="midnightblue" d="M283.887,-347.283C307.824,-352.268 336.668,-358.273 361.378,-363.418"/>
<polygon fill="midnightblue" stroke="midnightblue" points="360.828,-366.879 371.332,-365.491 362.255,-360.026 360.828,-366.879"/>
</g>
<!-- Node32 -->
<g id="node32" class="node"><title>Node32</title>
<g id="a_node32"><a xlink:href="../../d2/d0a/class_mem_1_1_manager.html#aaf8e36abc36eecabe46bf2582035192a" target="_top" xlink:title=" ">
<polygon fill="white" stroke="black" points="346,-327.5 346,-346.5 490,-346.5 490,-327.5 346,-327.5"/>
<text text-anchor="middle" x="418" y="-334.5" font-family="Helvetica,sans-Serif" font-size="10.00">Mem::Manager::PushContext</text>
</a>
</g>
</g>
<!-- Node15&#45;&gt;Node32 -->
<g id="edge52" class="edge"><title>Node15&#45;&gt;Node32</title>
<path fill="none" stroke="midnightblue" d="M283.887,-337C299.859,-337 318.016,-337 335.672,-337"/>
<polygon fill="midnightblue" stroke="midnightblue" points="335.989,-340.5 345.989,-337 335.989,-333.5 335.989,-340.5"/>
</g>
<!-- Node33 -->
<g id="node33" class="node"><title>Node33</title>
<g id="a_node33"><a xlink:href="../../d2/d0a/class_mem_1_1_manager.html#a3aefd91781b7f41d35e6df6a32d379d0" target="_top" xlink:title=" ">
<polygon fill="white" stroke="black" points="356.5,-289.5 356.5,-308.5 479.5,-308.5 479.5,-289.5 356.5,-289.5"/>
<text text-anchor="middle" x="418" y="-296.5" font-family="Helvetica,sans-Serif" font-size="10.00">Mem::Manager::sHandle</text>
</a>
</g>
</g>
<!-- Node15&#45;&gt;Node33 -->
<g id="edge53" class="edge"><title>Node15&#45;&gt;Node33</title>
<path fill="none" stroke="midnightblue" d="M283.887,-326.717C307.824,-321.732 336.668,-315.727 361.378,-310.582"/>
<polygon fill="midnightblue" stroke="midnightblue" points="362.255,-313.974 371.332,-308.509 360.828,-307.121 362.255,-313.974"/>
</g>
<!-- Node18 -->
<g id="node18" class="node"><title>Node18</title>
<g id="a_node18"><a xlink:href="../../d1/d54/namespace_script.html#a1dd030523ebaecb95103d181f6fd382e" target="_top" xlink:title=" ">
<polygon fill="white" stroke="black" points="534,-76.5 534,-95.5 668,-95.5 668,-76.5 534,-76.5"/>
<text text-anchor="middle" x="601" y="-83.5" font-family="Helvetica,sans-Serif" font-size="10.00">Script::CleanUpComponent</text>
</a>
</g>
</g>
<!-- Node17&#45;&gt;Node18 -->
<g id="edge22" class="edge"><title>Node17&#45;&gt;Node18</title>
<path fill="none" stroke="midnightblue" d="M473.306,-86C489.087,-86 506.625,-86 523.498,-86"/>
<polygon fill="midnightblue" stroke="midnightblue" points="523.897,-89.5001 533.897,-86 523.897,-82.5001 523.897,-89.5001"/>
</g>
<!-- Node19 -->
<g id="node19" class="node"><title>Node19</title>
<g id="a_node19"><a xlink:href="../../d1/d54/namespace_script.html#a3dd60f29ada8a33fda9f4e842f1cabc1" target="_top" xlink:title=" ">
<polygon fill="white" stroke="black" points="720,-114.5 720,-133.5 828,-133.5 828,-114.5 720,-114.5"/>
<text text-anchor="middle" x="774" y="-121.5" font-family="Helvetica,sans-Serif" font-size="10.00">Script::CleanUpArray</text>
</a>
</g>
</g>
<!-- Node18&#45;&gt;Node19 -->
<g id="edge23" class="edge"><title>Node18&#45;&gt;Node19</title>
<path fill="none" stroke="midnightblue" d="M645.151,-95.589C667.919,-100.649 696.048,-106.9 720.119,-112.249"/>
<polygon fill="midnightblue" stroke="midnightblue" points="719.639,-115.727 730.16,-114.48 721.157,-108.894 719.639,-115.727"/>
</g>
<!-- Node21 -->
<g id="node21" class="node"><title>Node21</title>
<g id="a_node21"><a xlink:href="../../db/dc4/namespace_mem.html#aeedb606ea94a3398fdcfa3101c5ea8d9" target="_top" xlink:title=" ">
<polygon fill="white" stroke="black" points="1104.5,-76.5 1104.5,-95.5 1168.5,-95.5 1168.5,-76.5 1104.5,-76.5"/>
<text text-anchor="middle" x="1136.5" y="-83.5" font-family="Helvetica,sans-Serif" font-size="10.00">Mem::Free</text>
</a>
</g>
</g>
<!-- Node18&#45;&gt;Node21 -->
<g id="edge34" class="edge"><title>Node18&#45;&gt;Node21</title>
<path fill="none" stroke="midnightblue" d="M668.174,-77.8369C750.494,-68.8673 895.299,-56.979 1019,-67 1044.04,-69.0284 1071.81,-73.4709 1093.96,-77.5504"/>
<polygon fill="midnightblue" stroke="midnightblue" points="1093.55,-81.0347 1104.02,-79.4502 1094.85,-74.1561 1093.55,-81.0347"/>
</g>
<!-- Node22 -->
<g id="node22" class="node"><title>Node22</title>
<g id="a_node22"><a xlink:href="../../d1/d54/namespace_script.html#a99857fb30343d0c999af4db73344cece" target="_top" xlink:title=" ">
<polygon fill="white" stroke="black" points="899,-76.5 899,-95.5 1000,-95.5 1000,-76.5 899,-76.5"/>
<text text-anchor="middle" x="949.5" y="-83.5" font-family="Helvetica,sans-Serif" font-size="10.00">Script::DeleteString</text>
</a>
</g>
</g>
<!-- Node18&#45;&gt;Node22 -->
<g id="edge33" class="edge"><title>Node18&#45;&gt;Node22</title>
<path fill="none" stroke="midnightblue" d="M668.399,-86C732.022,-86 827.187,-86 888.56,-86"/>
<polygon fill="midnightblue" stroke="midnightblue" points="888.86,-89.5001 898.86,-86 888.86,-82.5001 888.86,-89.5001"/>
</g>
<!-- Node19&#45;&gt;Node7 -->
<g id="edge32" class="edge"><title>Node19&#45;&gt;Node7</title>
<path fill="none" stroke="midnightblue" d="M781.59,-133.765C796.468,-155.005 834.899,-205.537 880,-231 935.292,-262.216 958.217,-245.64 1019,-264 1047.71,-272.673 1079.63,-284.619 1102.78,-293.719"/>
<polygon fill="midnightblue" stroke="midnightblue" points="1101.55,-296.995 1112.13,-297.427 1104.13,-290.488 1101.55,-296.995"/>
</g>
<!-- Node19&#45;&gt;Node13 -->
<g id="edge30" class="edge"><title>Node19&#45;&gt;Node13</title>
<path fill="none" stroke="midnightblue" d="M789.494,-114.477C819.526,-94.7435 888.777,-49.2416 925.177,-25.3247"/>
<polygon fill="midnightblue" stroke="midnightblue" points="927.244,-28.1545 933.679,-19.738 923.4,-22.3043 927.244,-28.1545"/>
</g>
<!-- Node20 -->
<g id="node20" class="node"><title>Node20</title>
<g id="a_node20"><a xlink:href="../../d0/d0b/class_script_1_1_c_array.html#a4b347b8b448dd652473dd6afe9aba2c2" target="_top" xlink:title=" ">
<polygon fill="white" stroke="black" points="896,-202.5 896,-221.5 1003,-221.5 1003,-202.5 896,-202.5"/>
<text text-anchor="middle" x="949.5" y="-209.5" font-family="Helvetica,sans-Serif" font-size="10.00">Script::CArray::Clear</text>
</a>
</g>
</g>
<!-- Node19&#45;&gt;Node20 -->
<g id="edge24" class="edge"><title>Node19&#45;&gt;Node20</title>
<path fill="none" stroke="midnightblue" d="M787.24,-133.636C806.153,-148.117 844.061,-175.544 880,-192 886.055,-194.772 892.586,-197.262 899.128,-199.466"/>
<polygon fill="midnightblue" stroke="midnightblue" points="898.075,-202.804 908.665,-202.489 900.191,-196.131 898.075,-202.804"/>
</g>
<!-- Node19&#45;&gt;Node22 -->
<g id="edge27" class="edge"><title>Node19&#45;&gt;Node22</title>
<path fill="none" stroke="midnightblue" d="M818.781,-114.411C841.986,-109.329 870.678,-103.045 895.173,-97.6797"/>
<polygon fill="midnightblue" stroke="midnightblue" points="896.014,-101.079 905.033,-95.5201 894.516,-94.2407 896.014,-101.079"/>
</g>
<!-- Node23 -->
<g id="node23" class="node"><title>Node23</title>
<g id="a_node23"><a xlink:href="../../d0/d0b/class_script_1_1_c_array.html#a600fcbd0b8fd9d1df2ee87d77494db7a" target="_top" xlink:title=" ">
<polygon fill="white" stroke="black" points="888,-153 888,-183 1011,-183 1011,-153 888,-153"/>
<text text-anchor="start" x="896" y="-171" font-family="Helvetica,sans-Serif" font-size="10.00">Script::CArray::GetArray</text>
<text text-anchor="middle" x="949.5" y="-160" font-family="Helvetica,sans-Serif" font-size="10.00">Pointer</text>
</a>
</g>
</g>
<!-- Node19&#45;&gt;Node23 -->
<g id="edge29" class="edge"><title>Node19&#45;&gt;Node23</title>
<path fill="none" stroke="midnightblue" d="M812.647,-133.547C832.094,-138.479 856.449,-144.656 879.148,-150.412"/>
<polygon fill="midnightblue" stroke="midnightblue" points="878.541,-153.869 889.095,-152.935 880.262,-147.084 878.541,-153.869"/>
</g>
<!-- Node24 -->
<g id="node24" class="node"><title>Node24</title>
<g id="a_node24"><a xlink:href="../../d0/d0b/class_script_1_1_c_array.html#a68067b67ca9aae7b9214c0add1d8934e" target="_top" xlink:title=" ">
<polygon fill="white" stroke="black" points="889,-114.5 889,-133.5 1010,-133.5 1010,-114.5 889,-114.5"/>
<text text-anchor="middle" x="949.5" y="-121.5" font-family="Helvetica,sans-Serif" font-size="10.00">Script::CArray::GetType</text>
</a>
</g>
</g>
<!-- Node19&#45;&gt;Node24 -->
<g id="edge31" class="edge"><title>Node19&#45;&gt;Node24</title>
<path fill="none" stroke="midnightblue" d="M828.471,-124C844.303,-124 861.877,-124 878.584,-124"/>
<polygon fill="midnightblue" stroke="midnightblue" points="878.852,-127.5 888.852,-124 878.852,-120.5 878.852,-127.5"/>
</g>
<!-- Node20&#45;&gt;Node7 -->
<g id="edge26" class="edge"><title>Node20&#45;&gt;Node7</title>
<path fill="none" stroke="midnightblue" d="M982.086,-221.52C993.889,-225.476 1007.27,-230.446 1019,-236 1053.59,-252.374 1090.92,-276.357 1113.75,-291.825"/>
<polygon fill="midnightblue" stroke="midnightblue" points="1111.81,-294.738 1122.04,-297.497 1115.76,-288.961 1111.81,-294.738"/>
</g>
<!-- Node20&#45;&gt;Node21 -->
<g id="edge25" class="edge"><title>Node20&#45;&gt;Node21</title>
<path fill="none" stroke="midnightblue" d="M994.458,-202.387C1002.89,-199.66 1011.44,-196.242 1019,-192 1061.06,-168.411 1100.45,-127.023 1120.9,-103.55"/>
<polygon fill="midnightblue" stroke="midnightblue" points="1123.7,-105.654 1127.54,-95.779 1118.38,-101.105 1123.7,-105.654"/>
</g>
<!-- Node22&#45;&gt;Node21 -->
<g id="edge28" class="edge"><title>Node22&#45;&gt;Node21</title>
<path fill="none" stroke="midnightblue" d="M1000.08,-86C1029.5,-86 1066.36,-86 1094.2,-86"/>
<polygon fill="midnightblue" stroke="midnightblue" points="1094.39,-89.5001 1104.39,-86 1094.39,-82.5001 1094.39,-89.5001"/>
</g>
<!-- Node26&#45;&gt;Node3 -->
<g id="edge38" class="edge"><title>Node26&#45;&gt;Node3</title>
<path fill="none" stroke="midnightblue" d="M489.587,-503C588.228,-505.794 766.739,-510.851 869.636,-513.766"/>
<polygon fill="midnightblue" stroke="midnightblue" points="869.563,-517.265 879.658,-514.05 869.761,-510.268 869.563,-517.265"/>
</g>
<!-- Node26&#45;&gt;Node11 -->
<g id="edge39" class="edge"><title>Node26&#45;&gt;Node11</title>
<path fill="none" stroke="midnightblue" d="M471.353,-510.545C492.083,-514.325 516.082,-518.7 537.697,-522.641"/>
<polygon fill="midnightblue" stroke="midnightblue" points="537.299,-526.126 547.765,-524.476 538.555,-519.24 537.299,-526.126"/>
</g>
<!-- Node27 -->
<g id="node27" class="node"><title>Node27</title>
<g id="a_node27"><a xlink:href="../../d2/df7/class_script_1_1_c_struct.html#a1e05f0a66cff4a700fb67fdc117d2d7f" target="_top" xlink:title=" ">
<polygon fill="white" stroke="black" points="535,-430.5 535,-449.5 667,-449.5 667,-430.5 535,-430.5"/>
<text text-anchor="middle" x="601" y="-437.5" font-family="Helvetica,sans-Serif" font-size="10.00">Script::CStruct::search_for</text>
</a>
</g>
</g>
<!-- Node26&#45;&gt;Node27 -->
<g id="edge40" class="edge"><title>Node26&#45;&gt;Node27</title>
<path fill="none" stroke="midnightblue" d="M451.794,-491.462C466.047,-487.207 482.904,-482.027 498,-477 520.475,-469.515 545.483,-460.456 565.111,-453.175"/>
<polygon fill="midnightblue" stroke="midnightblue" points="566.413,-456.425 574.561,-449.653 563.968,-449.866 566.413,-456.425"/>
</g>
<!-- Node27&#45;&gt;Node3 -->
<g id="edge41" class="edge"><title>Node27&#45;&gt;Node3</title>
<path fill="none" stroke="midnightblue" d="M667.149,-432.813C717.813,-430.049 788.569,-432.538 844,-459 864.995,-469.022 860.064,-485.009 880,-497 883.629,-499.183 887.515,-501.121 891.526,-502.843"/>
<polygon fill="midnightblue" stroke="midnightblue" points="890.453,-506.18 901.044,-506.476 892.95,-499.64 890.453,-506.18"/>
</g>
<!-- Node27&#45;&gt;Node7 -->
<g id="edge42" class="edge"><title>Node27&#45;&gt;Node7</title>
<path fill="none" stroke="midnightblue" d="M640.368,-430.435C735.515,-406.715 982.199,-345.218 1087.12,-319.06"/>
<polygon fill="midnightblue" stroke="midnightblue" points="1088.27,-322.383 1097.12,-316.568 1086.57,-315.59 1088.27,-322.383"/>
</g>
<!-- Node27&#45;&gt;Node8 -->
<g id="edge43" class="edge"><title>Node27&#45;&gt;Node8</title>
<path fill="none" stroke="midnightblue" d="M645.151,-449.589C668.803,-454.845 698.241,-461.387 722.905,-466.868"/>
<polygon fill="midnightblue" stroke="midnightblue" points="722.279,-470.314 732.8,-469.067 723.797,-463.481 722.279,-470.314"/>
</g>
<!-- Node27&#45;&gt;Node27 -->
<g id="edge44" class="edge"><title>Node27&#45;&gt;Node27</title>
<path fill="none" stroke="midnightblue" d="M574.49,-449.757C561.593,-458.565 570.43,-468 601,-468 621.539,-468 632.268,-463.741 633.186,-458.275"/>
<polygon fill="midnightblue" stroke="midnightblue" points="635.968,-456.138 627.51,-449.757 630.143,-460.02 635.968,-456.138"/>
</g>
<!-- Node28&#45;&gt;Node3 -->
<g id="edge46" class="edge"><title>Node28&#45;&gt;Node3</title>
<path fill="none" stroke="midnightblue" d="M653.047,-394.343C705.557,-389.267 787.443,-389.434 844,-428 872.578,-447.487 853.109,-475.244 880,-497 882.249,-498.819 884.66,-500.465 887.185,-501.953"/>
<polygon fill="midnightblue" stroke="midnightblue" points="885.628,-505.088 896.137,-506.431 888.759,-498.827 885.628,-505.088"/>
</g>
<!-- Node28&#45;&gt;Node7 -->
<g id="edge47" class="edge"><title>Node28&#45;&gt;Node7</title>
<path fill="none" stroke="midnightblue" d="M616.476,-392.409C635.618,-380.26 670.813,-359.737 704,-350 830.513,-312.881 985.871,-306.425 1071.4,-306.05"/>
<polygon fill="midnightblue" stroke="midnightblue" points="1071.48,-309.55 1081.48,-306.032 1071.47,-302.55 1071.48,-309.55"/>
</g>
<!-- Node28&#45;&gt;Node8 -->
<g id="edge48" class="edge"><title>Node28&#45;&gt;Node8</title>
<path fill="none" stroke="midnightblue" d="M640.523,-411.567C649.661,-414.253 659.283,-417.429 668,-421 696.962,-432.865 728.261,-450.546 749.08,-463.064"/>
<polygon fill="midnightblue" stroke="midnightblue" points="747.501,-466.2 757.862,-468.413 751.142,-460.222 747.501,-466.2"/>
</g>
</g>
</svg>
        <g id="navigator" transform="translate(0 0)" fill="#404254">
                <rect fill="#f2f5e9" fill-opacity="0.5" stroke="#606060" stroke-width=".5" x="0" y="0" width="60" height="60"/>
                <use id="zoomplus" xlink:href="#zoomPlus" x="17" y="9" onmousedown="handleZoom(evt,'in')"/>
                <use id="zoomminus" xlink:href="#zoomMin" x="42" y="9" onmousedown="handleZoom(evt,'out')"/>
                <use id="reset" xlink:href="#resetDef" x="30" y="36" onmousedown="handleReset()"/>
                <g id="arrowUp" xlink:href="#dirArrow" transform="translate(30 24)" onmousedown="handlePan(0,-1)">
                  <use xlink:href="#rim" fill="#404040">
                        <set attributeName="fill" to="#808080" begin="arrowUp.mouseover" end="arrowUp.mouseout"/>
                  </use>
                  <path fill="none" stroke="white" stroke-width="1.5" d="M0,-3.0v7 M-2.5,-0.5L0,-3.0L2.5,-0.5"/>
                </g>
                <g id="arrowRight" xlink:href="#dirArrow" transform="rotate(90) translate(36 -43)" onmousedown="handlePan(1,0)">
                  <use xlink:href="#rim" fill="#404040">
                        <set attributeName="fill" to="#808080" begin="arrowRight.mouseover" end="arrowRight.mouseout"/>
                  </use>
                  <path fill="none" stroke="white" stroke-width="1.5" d="M0,-3.0v7 M-2.5,-0.5L0,-3.0L2.5,-0.5"/>
                </g>
                <g id="arrowDown" xlink:href="#dirArrow" transform="rotate(180) translate(-30 -48)" onmousedown="handlePan(0,1)">
                  <use xlink:href="#rim" fill="#404040">
                        <set attributeName="fill" to="#808080" begin="arrowDown.mouseover" end="arrowDown.mouseout"/>
                  </use>
                  <path fill="none" stroke="white" stroke-width="1.5" d="M0,-3.0v7 M-2.5,-0.5L0,-3.0L2.5,-0.5"/>
                </g>
                <g id="arrowLeft" xlink:href="#dirArrow" transform="rotate(270) translate(-36 17)" onmousedown="handlePan(-1,0)">
                  <use xlink:href="#rim" fill="#404040">
                        <set attributeName="fill" to="#808080" begin="arrowLeft.mouseover" end="arrowLeft.mouseout"/>
                  </use>
                  <path fill="none" stroke="white" stroke-width="1.5" d="M0,-3.0v7 M-2.5,-0.5L0,-3.0L2.5,-0.5"/>
                </g>
        </g>
        <svg viewBox="0 0 15 15" width="100%" height="30px" preserveAspectRatio="xMaxYMin meet">
         <g id="arrow_out" transform="scale(0.3 0.3)">
          <a xlink:href="namespace_c_funcs_a7b1487a7a20090344dd51ca88fe15f26_cgraph_org.svg" target="_base">
           <rect id="button" ry="5" rx="5" y="6" x="6" height="38" width="38"
                fill="#f2f5e9" fill-opacity="0.5" stroke="#606060" stroke-width="1.0"/>
           <path id="arrow"
             d="M 11.500037,31.436501 C 11.940474,20.09759 22.043105,11.32322 32.158766,21.979434 L 37.068811,17.246167 C 37.068811,17.246167 37.088388,32 37.088388,32 L 22.160133,31.978069 C 22.160133,31.978069 26.997745,27.140456 26.997745,27.140456 C 18.528582,18.264221 13.291696,25.230495 11.500037,31.436501 z"
             style="fill:#404040;"/>
          </a>
         </g>
        </svg>
</svg>
