<?xml version="1.0" encoding="UTF-8" standalone="no"?>
<!DOCTYPE svg PUBLIC "-//W3C//DTD SVG 1.1//EN"
 "http://www.w3.org/Graphics/SVG/1.1/DTD/svg11.dtd">
<!-- Generated by graphviz version 2.38.0 (20140413.2041)
 -->
<!-- Title: CFuncs::ScriptGetMemCardSpaceRequired Pages: 1 -->
<svg width="1375pt" height="534pt"
 viewBox="0.00 0.00 1375.00 534.16" xmlns="http://www.w3.org/2000/svg" xmlns:xlink="http://www.w3.org/1999/xlink">
<g id="graph0" class="graph" transform="scale(1 1) rotate(0) translate(4 530.162)">
<title>CFuncs::ScriptGetMemCardSpaceRequired</title>
<polygon fill="white" stroke="none" points="-4,4 -4,-530.162 1371,-530.162 1371,4 -4,4"/>
<!-- Node1 -->
<g id="node1" class="node"><title>Node1</title>
<g id="a_node1"><a xlink:title=" ">
<polygon fill="#bfbfbf" stroke="black" points="0,-171.118 0,-201.118 140,-201.118 140,-171.118 0,-171.118"/>
<text text-anchor="start" x="8" y="-189.118" font-family="Helvetica,sans-Serif" font-size="10.00">CFuncs::ScriptGetMemCard</text>
<text text-anchor="middle" x="70" y="-178.118" font-family="Helvetica,sans-Serif" font-size="10.00">SpaceRequired</text>
</a>
</g>
</g>
<!-- Node2 -->
<g id="node2" class="node"><title>Node2</title>
<g id="a_node2"><a xlink:href="../../d2/df7/class_script_1_1_c_struct.html#ab6805f805d22e3876bcd47552a663f1a" target="_top" xlink:title=" ">
<polygon fill="white" stroke="black" points="178,-332.618 178,-351.618 312,-351.618 312,-332.618 178,-332.618"/>
<text text-anchor="middle" x="245" y="-339.618" font-family="Helvetica,sans-Serif" font-size="10.00">Script::CStruct::AddInteger</text>
</a>
</g>
</g>
<!-- Node1&#45;&gt;Node2 -->
<g id="edge1" class="edge"><title>Node1&#45;&gt;Node2</title>
<path fill="none" stroke="midnightblue" d="M86.3901,-201.166C106.622,-220.825 143.422,-256.15 176,-285.118 191.92,-299.274 210.485,-314.77 224.19,-326.027"/>
<polygon fill="midnightblue" stroke="midnightblue" points="222.072,-328.816 232.029,-332.438 226.504,-323.398 222.072,-328.816"/>
</g>
<!-- Node17 -->
<g id="node17" class="node"><title>Node17</title>
<g id="a_node17"><a xlink:href="../../d2/df7/class_script_1_1_c_struct.html#aa39e6fe5fdf1d6c48136ae26a7ad511e" target="_top" xlink:title=" ">
<polygon fill="white" stroke="black" points="540,-280.618 540,-299.618 689,-299.618 689,-280.618 540,-280.618"/>
<text text-anchor="middle" x="614.5" y="-287.618" font-family="Helvetica,sans-Serif" font-size="10.00">Script::CStruct::GetChecksum</text>
</a>
</g>
</g>
<!-- Node1&#45;&gt;Node17 -->
<g id="edge20" class="edge"><title>Node1&#45;&gt;Node17</title>
<path fill="none" stroke="midnightblue" d="M140.259,-199.395C247.686,-219.989 452.631,-259.278 553.87,-278.686"/>
<polygon fill="midnightblue" stroke="midnightblue" points="553.445,-282.168 563.925,-280.614 554.763,-275.294 553.445,-282.168"/>
</g>
<!-- Node21 -->
<g id="node21" class="node"><title>Node21</title>
<g id="a_node21"><a xlink:href="../../db/df2/class_script_1_1_c_script.html#a95b75cd110a15699d07bef528f96d7aa" target="_top" xlink:title=" ">
<polygon fill="white" stroke="black" points="177,-64.6176 177,-83.6176 313,-83.6176 313,-64.6176 177,-64.6176"/>
<text text-anchor="middle" x="245" y="-71.6176" font-family="Helvetica,sans-Serif" font-size="10.00">Script::CScript::GetParams</text>
</a>
</g>
</g>
<!-- Node1&#45;&gt;Node21 -->
<g id="edge27" class="edge"><title>Node1&#45;&gt;Node21</title>
<path fill="none" stroke="midnightblue" d="M84.0119,-170.904C102.443,-150.298 138.147,-113.731 176,-93.1176 180.155,-90.8551 184.602,-88.843 189.16,-87.0571"/>
<polygon fill="midnightblue" stroke="midnightblue" points="190.358,-90.3458 198.611,-83.7015 188.016,-83.7492 190.358,-90.3458"/>
</g>
<!-- Node22 -->
<g id="node22" class="node"><title>Node22</title>
<g id="a_node22"><a xlink:href="../../db/d54/namespace_c_funcs.html#a127957d4135ab67767b8da32bfe00670" target="_top" xlink:title=" ">
<polygon fill="white" stroke="black" points="176,-103.118 176,-133.118 314,-133.118 314,-103.118 176,-103.118"/>
<text text-anchor="start" x="184" y="-121.118" font-family="Helvetica,sans-Serif" font-size="10.00">CFuncs::s_calculate</text>
<text text-anchor="middle" x="245" y="-110.118" font-family="Helvetica,sans-Serif" font-size="10.00">_total_space_used_on_card</text>
</a>
</g>
</g>
<!-- Node1&#45;&gt;Node22 -->
<g id="edge28" class="edge"><title>Node1&#45;&gt;Node22</title>
<path fill="none" stroke="midnightblue" d="M109.394,-171.026C135.04,-160.946 168.957,-147.614 196.329,-136.856"/>
<polygon fill="midnightblue" stroke="midnightblue" points="197.687,-140.082 205.713,-133.167 195.126,-133.568 197.687,-140.082"/>
</g>
<!-- Node28 -->
<g id="node28" class="node"><title>Node28</title>
<g id="a_node28"><a xlink:href="../../db/d54/namespace_c_funcs.html#a16595709b8eab851d4d8f38df3054abc" target="_top" xlink:title=" ">
<polygon fill="white" stroke="black" points="176.5,-176.618 176.5,-195.618 313.5,-195.618 313.5,-176.618 176.5,-176.618"/>
<text text-anchor="middle" x="245" y="-183.618" font-family="Helvetica,sans-Serif" font-size="10.00">CFuncs::sGetFixedFileSize</text>
</a>
</g>
</g>
<!-- Node1&#45;&gt;Node28 -->
<g id="edge40" class="edge"><title>Node1&#45;&gt;Node28</title>
<path fill="none" stroke="midnightblue" d="M140.369,-186.118C148.882,-186.118 157.626,-186.118 166.252,-186.118"/>
<polygon fill="midnightblue" stroke="midnightblue" points="166.305,-189.618 176.305,-186.118 166.304,-182.618 166.305,-189.618"/>
</g>
<!-- Node3 -->
<g id="node3" class="node"><title>Node3</title>
<g id="a_node3"><a xlink:href="../../d2/df7/class_script_1_1_c_struct.html#a3872f7f0a9ebcc695745aabeefab2796" target="_top" xlink:title=" ">
<polygon fill="white" stroke="black" points="350,-366.618 350,-385.618 504,-385.618 504,-366.618 350,-366.618"/>
<text text-anchor="middle" x="427" y="-373.618" font-family="Helvetica,sans-Serif" font-size="10.00">Script::CStruct::AddComponent</text>
</a>
</g>
</g>
<!-- Node2&#45;&gt;Node3 -->
<g id="edge2" class="edge"><title>Node2&#45;&gt;Node3</title>
<path fill="none" stroke="midnightblue" d="M296.619,-351.679C317.99,-355.716 343.051,-360.45 365.397,-364.67"/>
<polygon fill="midnightblue" stroke="midnightblue" points="364.973,-368.152 375.449,-366.569 366.273,-361.274 364.973,-368.152"/>
</g>
<!-- Node4 -->
<g id="node4" class="node"><title>Node4</title>
<g id="a_node4"><a xlink:href="../../d1/d54/namespace_script.html#a1dd030523ebaecb95103d181f6fd382e" target="_top" xlink:title=" ">
<polygon fill="white" stroke="black" points="547.5,-454.618 547.5,-473.618 681.5,-473.618 681.5,-454.618 547.5,-454.618"/>
<text text-anchor="middle" x="614.5" y="-461.618" font-family="Helvetica,sans-Serif" font-size="10.00">Script::CleanUpComponent</text>
</a>
</g>
</g>
<!-- Node3&#45;&gt;Node4 -->
<g id="edge3" class="edge"><title>Node3&#45;&gt;Node4</title>
<path fill="none" stroke="midnightblue" d="M448.205,-385.703C480.96,-401.242 545.809,-432.005 583.816,-450.036"/>
<polygon fill="midnightblue" stroke="midnightblue" points="582.785,-453.42 593.32,-454.544 585.785,-447.096 582.785,-453.42"/>
</g>
<!-- Node13 -->
<g id="node13" class="node"><title>Node13</title>
<g id="a_node13"><a xlink:href="../../d1/d54/namespace_script.html#ae80ed69ea4edcbcbbbd4985a6efdcd6e" target="_top" xlink:title=" ">
<polygon fill="white" stroke="black" points="869,-214.618 869,-233.618 1008,-233.618 1008,-214.618 869,-214.618"/>
<text text-anchor="middle" x="938.5" y="-221.618" font-family="Helvetica,sans-Serif" font-size="10.00">Script::FindChecksumName</text>
</a>
</g>
</g>
<!-- Node3&#45;&gt;Node13 -->
<g id="edge16" class="edge"><title>Node3&#45;&gt;Node13</title>
<path fill="none" stroke="midnightblue" d="M459.968,-385.662C534.226,-405.72 720.595,-443.619 833,-357.118 875.108,-324.713 830.772,-280.019 869,-243.118 870.498,-241.671 872.097,-240.333 873.776,-239.095"/>
<polygon fill="midnightblue" stroke="midnightblue" points="875.981,-241.853 882.749,-233.702 872.375,-235.853 875.981,-241.853"/>
</g>
<!-- Node5 -->
<g id="node5" class="node"><title>Node5</title>
<g id="a_node5"><a xlink:href="../../d1/d54/namespace_script.html#a3dd60f29ada8a33fda9f4e842f1cabc1" target="_top" xlink:title=" ">
<polygon fill="white" stroke="black" points="725,-416.618 725,-435.618 833,-435.618 833,-416.618 725,-416.618"/>
<text text-anchor="middle" x="779" y="-423.618" font-family="Helvetica,sans-Serif" font-size="10.00">Script::CleanUpArray</text>
</a>
</g>
</g>
<!-- Node4&#45;&gt;Node5 -->
<g id="edge4" class="edge"><title>Node4&#45;&gt;Node5</title>
<path fill="none" stroke="midnightblue" d="M656.506,-454.529C678.046,-449.492 704.635,-443.274 727.441,-437.941"/>
<polygon fill="midnightblue" stroke="midnightblue" points="728.349,-441.323 737.289,-435.638 726.755,-434.507 728.349,-441.323"/>
</g>
<!-- Node7 -->
<g id="node7" class="node"><title>Node7</title>
<g id="a_node7"><a xlink:href="../../db/dc4/namespace_mem.html#aeedb606ea94a3398fdcfa3101c5ea8d9" target="_top" xlink:title=" ">
<polygon fill="white" stroke="black" points="1093.5,-492.618 1093.5,-511.618 1157.5,-511.618 1157.5,-492.618 1093.5,-492.618"/>
<text text-anchor="middle" x="1125.5" y="-499.618" font-family="Helvetica,sans-Serif" font-size="10.00">Mem::Free</text>
</a>
</g>
</g>
<!-- Node4&#45;&gt;Node7 -->
<g id="edge15" class="edge"><title>Node4&#45;&gt;Node7</title>
<path fill="none" stroke="midnightblue" d="M643.593,-473.665C665.556,-480.865 696.961,-490.584 725,-497.118 847.936,-525.764 882.183,-531.31 1008,-521.118 1033.04,-519.089 1060.81,-514.647 1082.96,-510.567"/>
<polygon fill="midnightblue" stroke="midnightblue" points="1083.85,-513.961 1093.02,-508.667 1082.55,-507.083 1083.85,-513.961"/>
</g>
<!-- Node9 -->
<g id="node9" class="node"><title>Node9</title>
<g id="a_node9"><a xlink:href="../../d1/d54/namespace_script.html#a99857fb30343d0c999af4db73344cece" target="_top" xlink:title=" ">
<polygon fill="white" stroke="black" points="888,-492.618 888,-511.618 989,-511.618 989,-492.618 888,-492.618"/>
<text text-anchor="middle" x="938.5" y="-499.618" font-family="Helvetica,sans-Serif" font-size="10.00">Script::DeleteString</text>
</a>
</g>
</g>
<!-- Node4&#45;&gt;Node9 -->
<g id="edge14" class="edge"><title>Node4&#45;&gt;Node9</title>
<path fill="none" stroke="midnightblue" d="M681.828,-471.945C739.369,-478.736 821.933,-488.479 877.527,-495.04"/>
<polygon fill="midnightblue" stroke="midnightblue" points="877.241,-498.53 887.582,-496.227 878.061,-491.579 877.241,-498.53"/>
</g>
<!-- Node6 -->
<g id="node6" class="node"><title>Node6</title>
<g id="a_node6"><a xlink:href="../../d0/d0b/class_script_1_1_c_array.html#a4b347b8b448dd652473dd6afe9aba2c2" target="_top" xlink:title=" ">
<polygon fill="white" stroke="black" points="885,-454.618 885,-473.618 992,-473.618 992,-454.618 885,-454.618"/>
<text text-anchor="middle" x="938.5" y="-461.618" font-family="Helvetica,sans-Serif" font-size="10.00">Script::CArray::Clear</text>
</a>
</g>
</g>
<!-- Node5&#45;&gt;Node6 -->
<g id="edge5" class="edge"><title>Node5&#45;&gt;Node6</title>
<path fill="none" stroke="midnightblue" d="M819.744,-435.707C840.528,-440.721 866.161,-446.906 888.199,-452.223"/>
<polygon fill="midnightblue" stroke="midnightblue" points="887.5,-455.654 898.042,-454.598 889.142,-448.85 887.5,-455.654"/>
</g>
<!-- Node8 -->
<g id="node8" class="node"><title>Node8</title>
<g id="a_node8"><a xlink:href="../../d1/d54/namespace_script.html#af32f99ba26ca0f255240413a4e23a754" target="_top" xlink:title=" ">
<polygon fill="white" stroke="black" points="1070.5,-416.618 1070.5,-435.618 1180.5,-435.618 1180.5,-416.618 1070.5,-416.618"/>
<text text-anchor="middle" x="1125.5" y="-423.618" font-family="Helvetica,sans-Serif" font-size="10.00">Script::GetTypeName</text>
</a>
</g>
</g>
<!-- Node5&#45;&gt;Node8 -->
<g id="edge13" class="edge"><title>Node5&#45;&gt;Node8</title>
<path fill="none" stroke="midnightblue" d="M833.073,-426.118C894.165,-426.118 994.488,-426.118 1060.02,-426.118"/>
<polygon fill="midnightblue" stroke="midnightblue" points="1060.23,-429.618 1070.23,-426.118 1060.23,-422.618 1060.23,-429.618"/>
</g>
<!-- Node5&#45;&gt;Node9 -->
<g id="edge8" class="edge"><title>Node5&#45;&gt;Node9</title>
<path fill="none" stroke="midnightblue" d="M792.286,-435.693C808.857,-448.194 839.682,-470.021 869,-483.118 874.342,-485.504 880.054,-487.658 885.817,-489.584"/>
<polygon fill="midnightblue" stroke="midnightblue" points="884.917,-492.969 895.506,-492.61 887.004,-486.288 884.917,-492.969"/>
</g>
<!-- Node10 -->
<g id="node10" class="node"><title>Node10</title>
<g id="a_node10"><a xlink:href="../../d0/d0b/class_script_1_1_c_array.html#a600fcbd0b8fd9d1df2ee87d77494db7a" target="_top" xlink:title=" ">
<polygon fill="white" stroke="black" points="877,-367.118 877,-397.118 1000,-397.118 1000,-367.118 877,-367.118"/>
<text text-anchor="start" x="885" y="-385.118" font-family="Helvetica,sans-Serif" font-size="10.00">Script::CArray::GetArray</text>
<text text-anchor="middle" x="938.5" y="-374.118" font-family="Helvetica,sans-Serif" font-size="10.00">Pointer</text>
</a>
</g>
</g>
<!-- Node5&#45;&gt;Node10 -->
<g id="edge10" class="edge"><title>Node5&#45;&gt;Node10</title>
<path fill="none" stroke="midnightblue" d="M814.175,-416.57C831.591,-411.705 853.344,-405.628 873.711,-399.938"/>
<polygon fill="midnightblue" stroke="midnightblue" points="874.883,-403.245 883.573,-397.183 873,-396.503 874.883,-403.245"/>
</g>
<!-- Node11 -->
<g id="node11" class="node"><title>Node11</title>
<g id="a_node11"><a xlink:href="../../d0/d0b/class_script_1_1_c_array.html#a71c761bdce14193b10bf3c88372ba5a0" target="_top" xlink:title=" ">
<polygon fill="white" stroke="black" points="879,-328.618 879,-347.618 998,-347.618 998,-328.618 879,-328.618"/>
<text text-anchor="middle" x="938.5" y="-335.618" font-family="Helvetica,sans-Serif" font-size="10.00">Script::CArray::GetSize</text>
</a>
</g>
</g>
<!-- Node5&#45;&gt;Node11 -->
<g id="edge11" class="edge"><title>Node5&#45;&gt;Node11</title>
<path fill="none" stroke="midnightblue" d="M795.216,-416.535C806.015,-409.555 820.714,-399.686 833,-390.118 849.89,-376.965 850.269,-368.481 869,-358.118 873.81,-355.456 879.011,-353.116 884.323,-351.067"/>
<polygon fill="midnightblue" stroke="midnightblue" points="885.67,-354.303 893.943,-347.684 883.348,-347.7 885.67,-354.303"/>
</g>
<!-- Node12 -->
<g id="node12" class="node"><title>Node12</title>
<g id="a_node12"><a xlink:href="../../d0/d0b/class_script_1_1_c_array.html#a68067b67ca9aae7b9214c0add1d8934e" target="_top" xlink:title=" ">
<polygon fill="white" stroke="black" points="878,-290.618 878,-309.618 999,-309.618 999,-290.618 878,-290.618"/>
<text text-anchor="middle" x="938.5" y="-297.618" font-family="Helvetica,sans-Serif" font-size="10.00">Script::CArray::GetType</text>
</a>
</g>
</g>
<!-- Node5&#45;&gt;Node12 -->
<g id="edge12" class="edge"><title>Node5&#45;&gt;Node12</title>
<path fill="none" stroke="midnightblue" d="M798.683,-416.574C809.72,-410.227 823.373,-401.056 833,-390.118 856.374,-363.558 841.624,-341.53 869,-319.118 871.238,-317.285 873.641,-315.629 876.158,-314.132"/>
<polygon fill="midnightblue" stroke="midnightblue" points="877.736,-317.257 885.093,-309.633 874.588,-311.005 877.736,-317.257"/>
</g>
<!-- Node6&#45;&gt;Node7 -->
<g id="edge6" class="edge"><title>Node6&#45;&gt;Node7</title>
<path fill="none" stroke="midnightblue" d="M986.183,-473.707C1016.02,-479.836 1054.37,-487.713 1083.12,-493.618"/>
<polygon fill="midnightblue" stroke="midnightblue" points="1082.74,-497.113 1093.24,-495.697 1084.15,-490.256 1082.74,-497.113"/>
</g>
<!-- Node6&#45;&gt;Node8 -->
<g id="edge7" class="edge"><title>Node6&#45;&gt;Node8</title>
<path fill="none" stroke="midnightblue" d="M986.183,-454.529C1011.15,-449.401 1042.06,-443.05 1068.33,-437.654"/>
<polygon fill="midnightblue" stroke="midnightblue" points="1069.06,-441.078 1078.15,-435.638 1067.65,-434.221 1069.06,-441.078"/>
</g>
<!-- Node9&#45;&gt;Node7 -->
<g id="edge9" class="edge"><title>Node9&#45;&gt;Node7</title>
<path fill="none" stroke="midnightblue" d="M989.077,-502.118C1018.5,-502.118 1055.36,-502.118 1083.2,-502.118"/>
<polygon fill="midnightblue" stroke="midnightblue" points="1083.39,-505.618 1093.39,-502.118 1083.39,-498.618 1083.39,-505.618"/>
</g>
<!-- Node14 -->
<g id="node14" class="node"><title>Node14</title>
<g id="a_node14"><a xlink:href="../../d1/d54/namespace_script.html#a5cc52c4ff5ea5bb27681d819212dfdca" target="_top" xlink:title=" ">
<polygon fill="white" stroke="black" points="1044,-233.618 1044,-252.618 1207,-252.618 1207,-233.618 1044,-233.618"/>
<text text-anchor="middle" x="1125.5" y="-240.618" font-family="Helvetica,sans-Serif" font-size="10.00">Script::FindChecksumNameNULL</text>
</a>
</g>
</g>
<!-- Node13&#45;&gt;Node14 -->
<g id="edge17" class="edge"><title>Node13&#45;&gt;Node14</title>
<path fill="none" stroke="midnightblue" d="M1008.12,-231.166C1016.48,-232.023 1025.11,-232.91 1033.72,-233.794"/>
<polygon fill="midnightblue" stroke="midnightblue" points="1033.49,-237.289 1043.8,-234.829 1034.21,-230.326 1033.49,-237.289"/>
</g>
<!-- Node16 -->
<g id="node16" class="node"><title>Node16</title>
<g id="a_node16"><a xlink:href="../../da/d37/namespace_dbg.html#ab406a8cc16de5046c7d9fd09c9de5e22" target="_top" xlink:title=" ">
<polygon fill="white" stroke="black" points="1092.5,-195.618 1092.5,-214.618 1158.5,-214.618 1158.5,-195.618 1092.5,-195.618"/>
<text text-anchor="middle" x="1125.5" y="-202.618" font-family="Helvetica,sans-Serif" font-size="10.00">Dbg::sprintf</text>
</a>
</g>
</g>
<!-- Node13&#45;&gt;Node16 -->
<g id="edge19" class="edge"><title>Node13&#45;&gt;Node16</title>
<path fill="none" stroke="midnightblue" d="M1008.12,-217.07C1032.98,-214.517 1060.31,-211.711 1082.23,-209.459"/>
<polygon fill="midnightblue" stroke="midnightblue" points="1082.62,-212.938 1092.21,-208.434 1081.9,-205.974 1082.62,-212.938"/>
</g>
<!-- Node15 -->
<g id="node15" class="node"><title>Node15</title>
<g id="a_node15"><a xlink:href="../../d0/d31/namespace_config.html#a709cc81780d49900157e3476b63aa25d" target="_top" xlink:title=" ">
<polygon fill="white" stroke="black" points="1243,-233.618 1243,-252.618 1367,-252.618 1367,-233.618 1243,-233.618"/>
<text text-anchor="middle" x="1305" y="-240.618" font-family="Helvetica,sans-Serif" font-size="10.00">Config::GotExtraMemory</text>
</a>
</g>
</g>
<!-- Node14&#45;&gt;Node15 -->
<g id="edge18" class="edge"><title>Node14&#45;&gt;Node15</title>
<path fill="none" stroke="midnightblue" d="M1207.2,-243.118C1215.73,-243.118 1224.36,-243.118 1232.77,-243.118"/>
<polygon fill="midnightblue" stroke="midnightblue" points="1232.9,-246.618 1242.9,-243.118 1232.9,-239.618 1232.9,-246.618"/>
</g>
<!-- Node17&#45;&gt;Node13 -->
<g id="edge21" class="edge"><title>Node17&#45;&gt;Node13</title>
<path fill="none" stroke="midnightblue" d="M678.375,-299.658C723.44,-303.67 784.494,-303.181 833,-281.118 854.177,-271.485 849.064,-255.109 869,-243.118 872.629,-240.935 876.515,-238.996 880.526,-237.275"/>
<polygon fill="midnightblue" stroke="midnightblue" points="881.95,-240.478 890.044,-233.641 879.453,-233.938 881.95,-240.478"/>
</g>
<!-- Node17&#45;&gt;Node17 -->
<g id="edge22" class="edge"><title>Node17&#45;&gt;Node17</title>
<path fill="none" stroke="midnightblue" d="M589.223,-299.875C576.926,-308.683 585.352,-318.118 614.5,-318.118 634.084,-318.118 644.314,-313.859 645.189,-308.392"/>
<polygon fill="midnightblue" stroke="midnightblue" points="648.094,-306.438 639.777,-299.875 642.186,-310.192 648.094,-306.438"/>
</g>
<!-- Node18 -->
<g id="node18" class="node"><title>Node18</title>
<g id="a_node18"><a xlink:href="../../d1/d54/namespace_script.html#a0d003ee93577e31adb6597bce0002009" target="_top" xlink:title=" ">
<polygon fill="white" stroke="black" points="725.5,-328.618 725.5,-347.618 832.5,-347.618 832.5,-328.618 725.5,-328.618"/>
<text text-anchor="middle" x="779" y="-335.618" font-family="Helvetica,sans-Serif" font-size="10.00">Script::PrintContents</text>
</a>
</g>
</g>
<!-- Node17&#45;&gt;Node18 -->
<g id="edge23" class="edge"><title>Node17&#45;&gt;Node18</title>
<path fill="none" stroke="midnightblue" d="M647.994,-299.716C673.236,-307.172 708.44,-317.571 735.85,-325.667"/>
<polygon fill="midnightblue" stroke="midnightblue" points="734.981,-329.06 745.563,-328.536 736.964,-322.347 734.981,-329.06"/>
</g>
<!-- Node19 -->
<g id="node19" class="node"><title>Node19</title>
<g id="a_node19"><a xlink:href="../../d1/d54/namespace_script.html#a43181580ea5d38e4bf1aa19ccd5e9e85" target="_top" xlink:title=" ">
<polygon fill="white" stroke="black" points="738,-252.618 738,-271.618 820,-271.618 820,-252.618 738,-252.618"/>
<text text-anchor="middle" x="779" y="-259.618" font-family="Helvetica,sans-Serif" font-size="10.00">Script::Resolve</text>
</a>
</g>
</g>
<!-- Node17&#45;&gt;Node19 -->
<g id="edge24" class="edge"><title>Node17&#45;&gt;Node19</title>
<path fill="none" stroke="midnightblue" d="M670.969,-280.56C689.424,-277.38 709.859,-273.859 727.885,-270.753"/>
<polygon fill="midnightblue" stroke="midnightblue" points="728.644,-274.174 737.904,-269.026 727.455,-267.275 728.644,-274.174"/>
</g>
<!-- Node19&#45;&gt;Node13 -->
<g id="edge25" class="edge"><title>Node19&#45;&gt;Node13</title>
<path fill="none" stroke="midnightblue" d="M819.744,-252.529C840.528,-247.514 866.161,-241.33 888.199,-236.012"/>
<polygon fill="midnightblue" stroke="midnightblue" points="889.142,-239.386 898.042,-233.638 887.5,-232.581 889.142,-239.386"/>
</g>
<!-- Node20 -->
<g id="node20" class="node"><title>Node20</title>
<g id="a_node20"><a xlink:href="../../d1/d54/namespace_script.html#af293a36c230b10de7d8151c2990b233b" target="_top" xlink:title=" ">
<polygon fill="white" stroke="black" points="881.5,-252.618 881.5,-271.618 995.5,-271.618 995.5,-252.618 881.5,-252.618"/>
<text text-anchor="middle" x="938.5" y="-259.618" font-family="Helvetica,sans-Serif" font-size="10.00">Script::LookUpSymbol</text>
</a>
</g>
</g>
<!-- Node19&#45;&gt;Node20 -->
<g id="edge26" class="edge"><title>Node19&#45;&gt;Node20</title>
<path fill="none" stroke="midnightblue" d="M820.151,-262.118C835.694,-262.118 853.9,-262.118 871.273,-262.118"/>
<polygon fill="midnightblue" stroke="midnightblue" points="871.379,-265.618 881.379,-262.118 871.379,-258.618 871.379,-265.618"/>
</g>
<!-- Node23 -->
<g id="node23" class="node"><title>Node23</title>
<g id="a_node23"><a xlink:href="../../d0/d31/namespace_config.html#a6cdbd8b148c494cebe8d9f141d1896a1" target="_top" xlink:title=" ">
<polygon fill="white" stroke="black" points="726,-23.6176 726,-42.6176 832,-42.6176 832,-23.6176 726,-23.6176"/>
<text text-anchor="middle" x="779" y="-30.6176" font-family="Helvetica,sans-Serif" font-size="10.00">Config::GetHardware</text>
</a>
</g>
</g>
<!-- Node22&#45;&gt;Node23 -->
<g id="edge29" class="edge"><title>Node22&#45;&gt;Node23</title>
<path fill="none" stroke="midnightblue" d="M297.116,-103.115C303.09,-100.284 308.873,-96.9729 314,-93.1176 335.599,-76.8768 326.354,-57.2003 350,-44.1176 473.621,24.2793 649.612,-2.8252 732.059,-21.3219"/>
<polygon fill="midnightblue" stroke="midnightblue" points="731.347,-24.7492 741.877,-23.5838 732.918,-17.9279 731.347,-24.7492"/>
</g>
<!-- Node24 -->
<g id="node24" class="node"><title>Node24</title>
<g id="a_node24"><a xlink:href="../../db/d54/namespace_c_funcs.html#afdd33990bdbbed22942bb9c56385d6d1" target="_top" xlink:title=" ">
<polygon fill="white" stroke="black" points="375,-127.118 375,-157.118 479,-157.118 479,-127.118 375,-127.118"/>
<text text-anchor="start" x="383" y="-145.118" font-family="Helvetica,sans-Serif" font-size="10.00">CFuncs::s_get_icon</text>
<text text-anchor="middle" x="427" y="-134.118" font-family="Helvetica,sans-Serif" font-size="10.00">_k_required</text>
</a>
</g>
</g>
<!-- Node22&#45;&gt;Node24 -->
<g id="edge30" class="edge"><title>Node22&#45;&gt;Node24</title>
<path fill="none" stroke="midnightblue" d="M314.05,-127.191C330.787,-129.423 348.601,-131.798 364.982,-133.982"/>
<polygon fill="midnightblue" stroke="midnightblue" points="364.599,-137.462 374.974,-135.314 365.524,-130.523 364.599,-137.462"/>
</g>
<!-- Node26 -->
<g id="node26" class="node"><title>Node26</title>
<g id="a_node26"><a xlink:href="../../db/d54/namespace_c_funcs.html#a7829a846cbcca83b714df2dc2cda2e23" target="_top" xlink:title=" ">
<polygon fill="white" stroke="black" points="552,-40.1176 552,-70.1176 677,-70.1176 677,-40.1176 552,-40.1176"/>
<text text-anchor="start" x="560" y="-58.1176" font-family="Helvetica,sans-Serif" font-size="10.00">CFuncs::s_get_platforms</text>
<text text-anchor="middle" x="614.5" y="-47.1176" font-family="Helvetica,sans-Serif" font-size="10.00">_block_size</text>
</a>
</g>
</g>
<!-- Node22&#45;&gt;Node26 -->
<g id="edge36" class="edge"><title>Node22&#45;&gt;Node26</title>
<path fill="none" stroke="midnightblue" d="M292.047,-103.006C299.526,-100.038 307.082,-96.7163 314,-93.1176 331.282,-84.1284 331.56,-74.3956 350,-68.1176 412.22,-46.9349 487.481,-45.4154 541.613,-48.1706"/>
<polygon fill="midnightblue" stroke="midnightblue" points="541.623,-51.6768 551.807,-48.7524 542.022,-44.6882 541.623,-51.6768"/>
</g>
<!-- Node27 -->
<g id="node27" class="node"><title>Node27</title>
<g id="a_node27"><a xlink:href="../../db/d54/namespace_c_funcs.html#a6d89f06413168059bd6851fab55c9daf" target="_top" xlink:title=" ">
<polygon fill="white" stroke="black" points="363.5,-78.1176 363.5,-108.118 490.5,-108.118 490.5,-78.1176 363.5,-78.1176"/>
<text text-anchor="start" x="371.5" y="-96.1176" font-family="Helvetica,sans-Serif" font-size="10.00">CFuncs::s_round_up</text>
<text text-anchor="middle" x="427" y="-85.1176" font-family="Helvetica,sans-Serif" font-size="10.00">_to_platforms_block_size</text>
</a>
</g>
</g>
<!-- Node22&#45;&gt;Node27 -->
<g id="edge38" class="edge"><title>Node22&#45;&gt;Node27</title>
<path fill="none" stroke="midnightblue" d="M314.05,-108.666C326.855,-106.888 340.291,-105.022 353.233,-103.224"/>
<polygon fill="midnightblue" stroke="midnightblue" points="354.061,-106.643 363.485,-101.8 353.098,-99.7093 354.061,-106.643"/>
</g>
<!-- Node24&#45;&gt;Node13 -->
<g id="edge31" class="edge"><title>Node24&#45;&gt;Node13</title>
<path fill="none" stroke="midnightblue" d="M479.142,-145C556.591,-150.159 707.866,-163.355 833,-193.118 854.948,-198.338 879.118,-205.419 898.679,-211.496"/>
<polygon fill="midnightblue" stroke="midnightblue" points="897.863,-214.908 908.452,-214.567 899.961,-208.23 897.863,-214.908"/>
</g>
<!-- Node25 -->
<g id="node25" class="node"><title>Node25</title>
<g id="a_node25"><a xlink:href="../../d1/d54/namespace_script.html#aa0c62774649e1e3abcab019ea335a3ad" target="_top" xlink:title=" ">
<polygon fill="white" stroke="black" points="568,-176.618 568,-195.618 661,-195.618 661,-176.618 568,-176.618"/>
<text text-anchor="middle" x="614.5" y="-183.618" font-family="Helvetica,sans-Serif" font-size="10.00">Script::GetInteger</text>
</a>
</g>
</g>
<!-- Node24&#45;&gt;Node25 -->
<g id="edge32" class="edge"><title>Node24&#45;&gt;Node25</title>
<path fill="none" stroke="midnightblue" d="M479.18,-154.257C505.404,-160.478 537.219,-168.024 563.302,-174.211"/>
<polygon fill="midnightblue" stroke="midnightblue" points="562.821,-177.694 573.359,-176.596 564.437,-170.883 562.821,-177.694"/>
</g>
<!-- Node25&#45;&gt;Node8 -->
<g id="edge34" class="edge"><title>Node25&#45;&gt;Node8</title>
<path fill="none" stroke="midnightblue" d="M652.175,-176.608C726.264,-159.644 896.223,-132.353 1008,-205.118 1017.5,-211.301 1089.18,-354.774 1115.14,-407.177"/>
<polygon fill="midnightblue" stroke="midnightblue" points="1112.12,-408.966 1119.7,-416.376 1118.4,-405.861 1112.12,-408.966"/>
</g>
<!-- Node25&#45;&gt;Node13 -->
<g id="edge33" class="edge"><title>Node25&#45;&gt;Node13</title>
<path fill="none" stroke="midnightblue" d="M661.362,-190.865C705.405,-195.498 773.796,-202.886 833,-210.118 841.358,-211.138 850.086,-212.244 858.782,-213.372"/>
<polygon fill="midnightblue" stroke="midnightblue" points="858.582,-216.876 868.951,-214.702 859.489,-209.935 858.582,-216.876"/>
</g>
<!-- Node25&#45;&gt;Node19 -->
<g id="edge35" class="edge"><title>Node25&#45;&gt;Node19</title>
<path fill="none" stroke="midnightblue" d="M636.081,-195.743C664.408,-208.991 715.594,-232.931 748.133,-248.149"/>
<polygon fill="midnightblue" stroke="midnightblue" points="747.045,-251.504 757.586,-252.57 750.011,-245.163 747.045,-251.504"/>
</g>
<!-- Node26&#45;&gt;Node23 -->
<g id="edge37" class="edge"><title>Node26&#45;&gt;Node23</title>
<path fill="none" stroke="midnightblue" d="M677.398,-46.7376C689.995,-45.0321 703.252,-43.2374 715.858,-41.5307"/>
<polygon fill="midnightblue" stroke="midnightblue" points="716.363,-44.9943 725.803,-40.1843 715.424,-38.0576 716.363,-44.9943"/>
</g>
<!-- Node27&#45;&gt;Node26 -->
<g id="edge39" class="edge"><title>Node27&#45;&gt;Node26</title>
<path fill="none" stroke="midnightblue" d="M490.543,-80.3055C507.073,-76.9194 525.04,-73.2388 542.004,-69.7637"/>
<polygon fill="midnightblue" stroke="midnightblue" points="542.764,-73.1808 551.858,-67.7451 541.359,-66.3232 542.764,-73.1808"/>
</g>
<!-- Node28&#45;&gt;Node13 -->
<g id="edge41" class="edge"><title>Node28&#45;&gt;Node13</title>
<path fill="none" stroke="midnightblue" d="M309.696,-195.645C322.989,-197.366 336.933,-198.974 350,-200.118 531.45,-216.002 745.367,-221.403 858.345,-223.218"/>
<polygon fill="midnightblue" stroke="midnightblue" points="858.574,-226.722 868.627,-223.377 858.683,-219.722 858.574,-226.722"/>
</g>
<!-- Node28&#45;&gt;Node25 -->
<g id="edge42" class="edge"><title>Node28&#45;&gt;Node25</title>
<path fill="none" stroke="midnightblue" d="M313.833,-186.118C384.016,-186.118 492.33,-186.118 557.713,-186.118"/>
<polygon fill="midnightblue" stroke="midnightblue" points="557.826,-189.618 567.826,-186.118 557.826,-182.618 557.826,-189.618"/>
</g>
<!-- Node28&#45;&gt;Node27 -->
<g id="edge43" class="edge"><title>Node28&#45;&gt;Node27</title>
<path fill="none" stroke="midnightblue" d="M261.217,-176.472C275.06,-167.65 296.014,-154.177 314,-142.118 330.179,-131.269 332.514,-125.703 350,-117.118 353.773,-115.265 357.72,-113.514 361.747,-111.867"/>
<polygon fill="midnightblue" stroke="midnightblue" points="363.169,-115.071 371.246,-108.213 360.656,-108.537 363.169,-115.071"/>
</g>
</g>
</svg>
