<?xml version="1.0" encoding="UTF-8" standalone="no"?>
<!DOCTYPE svg PUBLIC "-//W3C//DTD SVG 1.1//EN"
 "http://www.w3.org/Graphics/SVG/1.1/DTD/svg11.dtd">
<!-- Generated by graphviz version 2.38.0 (20140413.2041)
 -->
<!-- Title: CFuncs::ScriptRemoveComponent Pages: 1 -->
<svg width="1036pt" height="104pt"
 viewBox="0.00 0.00 1036.00 104.00" xmlns="http://www.w3.org/2000/svg" xmlns:xlink="http://www.w3.org/1999/xlink">
<g id="graph0" class="graph" transform="scale(1 1) rotate(0) translate(4 100)">
<title>CFuncs::ScriptRemoveComponent</title>
<polygon fill="white" stroke="none" points="-4,4 -4,-100 1032,-100 1032,4 -4,4"/>
<!-- Node1 -->
<g id="node1" class="node"><title>Node1</title>
<g id="a_node1"><a xlink:title=" ">
<polygon fill="#bfbfbf" stroke="black" points="0,-38.5 0,-57.5 166,-57.5 166,-38.5 0,-38.5"/>
<text text-anchor="middle" x="83" y="-45.5" font-family="Helvetica,sans-Serif" font-size="10.00">CFuncs::ScriptRemoveComponent</text>
</a>
</g>
</g>
<!-- Node2 -->
<g id="node2" class="node"><title>Node2</title>
<g id="a_node2"><a xlink:href="../../d2/df7/class_script_1_1_c_struct.html#aa39e6fe5fdf1d6c48136ae26a7ad511e" target="_top" xlink:title=" ">
<polygon fill="white" stroke="black" points="202,-38.5 202,-57.5 351,-57.5 351,-38.5 202,-38.5"/>
<text text-anchor="middle" x="276.5" y="-45.5" font-family="Helvetica,sans-Serif" font-size="10.00">Script::CStruct::GetChecksum</text>
</a>
</g>
</g>
<!-- Node1&#45;&gt;Node2 -->
<g id="edge1" class="edge"><title>Node1&#45;&gt;Node2</title>
<path fill="none" stroke="midnightblue" d="M166.047,-48C174.491,-48 183.08,-48 191.544,-48"/>
<polygon fill="midnightblue" stroke="midnightblue" points="191.789,-51.5001 201.789,-48 191.789,-44.5001 191.789,-51.5001"/>
</g>
<!-- Node2&#45;&gt;Node2 -->
<g id="edge6" class="edge"><title>Node2&#45;&gt;Node2</title>
<path fill="none" stroke="midnightblue" d="M251.223,-57.7571C238.926,-66.5653 247.352,-76 276.5,-76 296.084,-76 306.314,-71.741 307.189,-66.2746"/>
<polygon fill="midnightblue" stroke="midnightblue" points="310.094,-64.3207 301.777,-57.7571 304.186,-68.0745 310.094,-64.3207"/>
</g>
<!-- Node3 -->
<g id="node3" class="node"><title>Node3</title>
<g id="a_node3"><a xlink:href="../../d1/d54/namespace_script.html#ae80ed69ea4edcbcbbbd4985a6efdcd6e" target="_top" xlink:title=" ">
<polygon fill="white" stroke="black" points="530,-57.5 530,-76.5 669,-76.5 669,-57.5 530,-57.5"/>
<text text-anchor="middle" x="599.5" y="-64.5" font-family="Helvetica,sans-Serif" font-size="10.00">Script::FindChecksumName</text>
</a>
</g>
</g>
<!-- Node2&#45;&gt;Node3 -->
<g id="edge2" class="edge"><title>Node2&#45;&gt;Node3</title>
<path fill="none" stroke="midnightblue" d="M322.025,-57.5121C341.82,-61.2775 365.47,-65.1459 387,-67 430.75,-70.7675 479.78,-71.0151 519.609,-70.2091"/>
<polygon fill="midnightblue" stroke="midnightblue" points="519.874,-73.7041 529.791,-69.9764 519.714,-66.7059 519.874,-73.7041"/>
</g>
<!-- Node7 -->
<g id="node7" class="node"><title>Node7</title>
<g id="a_node7"><a xlink:href="../../d1/d54/namespace_script.html#a0d003ee93577e31adb6597bce0002009" target="_top" xlink:title=" ">
<polygon fill="white" stroke="black" points="387,-38.5 387,-57.5 494,-57.5 494,-38.5 387,-38.5"/>
<text text-anchor="middle" x="440.5" y="-45.5" font-family="Helvetica,sans-Serif" font-size="10.00">Script::PrintContents</text>
</a>
</g>
</g>
<!-- Node2&#45;&gt;Node7 -->
<g id="edge7" class="edge"><title>Node2&#45;&gt;Node7</title>
<path fill="none" stroke="midnightblue" d="M351.389,-48C359.721,-48 368.154,-48 376.332,-48"/>
<polygon fill="midnightblue" stroke="midnightblue" points="376.527,-51.5001 386.527,-48 376.527,-44.5001 376.527,-51.5001"/>
</g>
<!-- Node8 -->
<g id="node8" class="node"><title>Node8</title>
<g id="a_node8"><a xlink:href="../../d1/d54/namespace_script.html#a43181580ea5d38e4bf1aa19ccd5e9e85" target="_top" xlink:title=" ">
<polygon fill="white" stroke="black" points="399.5,-0.5 399.5,-19.5 481.5,-19.5 481.5,-0.5 399.5,-0.5"/>
<text text-anchor="middle" x="440.5" y="-7.5" font-family="Helvetica,sans-Serif" font-size="10.00">Script::Resolve</text>
</a>
</g>
</g>
<!-- Node2&#45;&gt;Node8 -->
<g id="edge8" class="edge"><title>Node2&#45;&gt;Node8</title>
<path fill="none" stroke="midnightblue" d="M318.379,-38.411C340.017,-33.3356 366.764,-27.0616 389.615,-21.7014"/>
<polygon fill="midnightblue" stroke="midnightblue" points="390.538,-25.08 399.475,-19.3887 388.939,-18.2649 390.538,-25.08"/>
</g>
<!-- Node4 -->
<g id="node4" class="node"><title>Node4</title>
<g id="a_node4"><a xlink:href="../../d1/d54/namespace_script.html#a5cc52c4ff5ea5bb27681d819212dfdca" target="_top" xlink:title=" ">
<polygon fill="white" stroke="black" points="705,-76.5 705,-95.5 868,-95.5 868,-76.5 705,-76.5"/>
<text text-anchor="middle" x="786.5" y="-83.5" font-family="Helvetica,sans-Serif" font-size="10.00">Script::FindChecksumNameNULL</text>
</a>
</g>
</g>
<!-- Node3&#45;&gt;Node4 -->
<g id="edge3" class="edge"><title>Node3&#45;&gt;Node4</title>
<path fill="none" stroke="midnightblue" d="M669.124,-74.0479C677.476,-74.9056 686.107,-75.792 694.717,-76.6764"/>
<polygon fill="midnightblue" stroke="midnightblue" points="694.493,-80.1717 704.798,-77.7117 695.208,-73.2083 694.493,-80.1717"/>
</g>
<!-- Node6 -->
<g id="node6" class="node"><title>Node6</title>
<g id="a_node6"><a xlink:href="../../da/d37/namespace_dbg.html#ab406a8cc16de5046c7d9fd09c9de5e22" target="_top" xlink:title=" ">
<polygon fill="white" stroke="black" points="753.5,-38.5 753.5,-57.5 819.5,-57.5 819.5,-38.5 753.5,-38.5"/>
<text text-anchor="middle" x="786.5" y="-45.5" font-family="Helvetica,sans-Serif" font-size="10.00">Dbg::sprintf</text>
</a>
</g>
</g>
<!-- Node3&#45;&gt;Node6 -->
<g id="edge5" class="edge"><title>Node3&#45;&gt;Node6</title>
<path fill="none" stroke="midnightblue" d="M669.124,-59.9521C693.98,-57.3993 721.305,-54.593 743.228,-52.3414"/>
<polygon fill="midnightblue" stroke="midnightblue" points="743.616,-55.8201 753.206,-51.3167 742.901,-48.8567 743.616,-55.8201"/>
</g>
<!-- Node5 -->
<g id="node5" class="node"><title>Node5</title>
<g id="a_node5"><a xlink:href="../../d0/d31/namespace_config.html#a709cc81780d49900157e3476b63aa25d" target="_top" xlink:title=" ">
<polygon fill="white" stroke="black" points="904,-76.5 904,-95.5 1028,-95.5 1028,-76.5 904,-76.5"/>
<text text-anchor="middle" x="966" y="-83.5" font-family="Helvetica,sans-Serif" font-size="10.00">Config::GotExtraMemory</text>
</a>
</g>
</g>
<!-- Node4&#45;&gt;Node5 -->
<g id="edge4" class="edge"><title>Node4&#45;&gt;Node5</title>
<path fill="none" stroke="midnightblue" d="M868.2,-86C876.729,-86 885.358,-86 893.768,-86"/>
<polygon fill="midnightblue" stroke="midnightblue" points="893.898,-89.5001 903.898,-86 893.898,-82.5001 893.898,-89.5001"/>
</g>
<!-- Node8&#45;&gt;Node3 -->
<g id="edge9" class="edge"><title>Node8&#45;&gt;Node3</title>
<path fill="none" stroke="midnightblue" d="M467.942,-19.5604C476.28,-22.5777 485.526,-25.9258 494,-29 516.925,-37.3166 542.672,-46.6787 562.872,-54.0292"/>
<polygon fill="midnightblue" stroke="midnightblue" points="561.713,-57.3318 572.307,-57.4627 564.107,-50.7538 561.713,-57.3318"/>
</g>
<!-- Node9 -->
<g id="node9" class="node"><title>Node9</title>
<g id="a_node9"><a xlink:href="../../d1/d54/namespace_script.html#af293a36c230b10de7d8151c2990b233b" target="_top" xlink:title=" ">
<polygon fill="white" stroke="black" points="542.5,-0.5 542.5,-19.5 656.5,-19.5 656.5,-0.5 542.5,-0.5"/>
<text text-anchor="middle" x="599.5" y="-7.5" font-family="Helvetica,sans-Serif" font-size="10.00">Script::LookUpSymbol</text>
</a>
</g>
</g>
<!-- Node8&#45;&gt;Node9 -->
<g id="edge10" class="edge"><title>Node8&#45;&gt;Node9</title>
<path fill="none" stroke="midnightblue" d="M481.524,-10C496.941,-10 514.988,-10 532.229,-10"/>
<polygon fill="midnightblue" stroke="midnightblue" points="532.26,-13.5001 542.26,-10 532.26,-6.5001 532.26,-13.5001"/>
</g>
</g>
</svg>
