<?xml version="1.0" encoding="UTF-8" standalone="no"?>
<!DOCTYPE svg PUBLIC "-//W3C//DTD SVG 1.1//EN"
 "http://www.w3.org/Graphics/SVG/1.1/DTD/svg11.dtd">
<!-- Generated by graphviz version 2.38.0 (20140413.2041)
 -->
<!-- Title: CFuncs::compress_all_vertex_colors Pages: 1 -->
<svg width="715pt" height="330pt"
 viewBox="0.00 0.00 715.00 330.00" xmlns="http://www.w3.org/2000/svg" xmlns:xlink="http://www.w3.org/1999/xlink">
<g id="graph0" class="graph" transform="scale(1 1) rotate(0) translate(4 326)">
<title>CFuncs::compress_all_vertex_colors</title>
<polygon fill="white" stroke="none" points="-4,4 -4,-326 711,-326 711,4 -4,4"/>
<!-- Node1 -->
<g id="node1" class="node"><title>Node1</title>
<g id="a_node1"><a xlink:title=" ">
<polygon fill="#bfbfbf" stroke="black" points="0,-161 0,-191 114,-191 114,-161 0,-161"/>
<text text-anchor="start" x="8" y="-179" font-family="Helvetica,sans-Serif" font-size="10.00">CFuncs::compress_all</text>
<text text-anchor="middle" x="57" y="-168" font-family="Helvetica,sans-Serif" font-size="10.00">_vertex_colors</text>
</a>
</g>
</g>
<!-- Node2 -->
<g id="node2" class="node"><title>Node2</title>
<g id="a_node2"><a xlink:href="../../db/d54/namespace_c_funcs.html#accfc9e7105e2875a416d033e9dcf0d57" target="_top" xlink:title=" ">
<polygon fill="white" stroke="black" points="156.5,-302.5 156.5,-321.5 282.5,-321.5 282.5,-302.5 156.5,-302.5"/>
<text text-anchor="middle" x="219.5" y="-309.5" font-family="Helvetica,sans-Serif" font-size="10.00">CFuncs::compress_value</text>
</a>
</g>
</g>
<!-- Node1&#45;&gt;Node2 -->
<g id="edge1" class="edge"><title>Node1&#45;&gt;Node2</title>
<path fill="none" stroke="midnightblue" d="M65.6825,-191.08C79.2299,-216.132 109.781,-266.216 150,-293 153.11,-295.071 156.444,-296.919 159.903,-298.566"/>
<polygon fill="midnightblue" stroke="midnightblue" points="158.712,-301.861 169.29,-302.475 161.404,-295.399 158.712,-301.861"/>
</g>
<!-- Node3 -->
<g id="node3" class="node"><title>Node3</title>
<g id="a_node3"><a xlink:href="../../d3/d55/class_nx_1_1_c_sector.html#a428b12b33dfef6a164910b8f2b09d206" target="_top" xlink:title=" ">
<polygon fill="white" stroke="black" points="160.5,-264.5 160.5,-283.5 278.5,-283.5 278.5,-264.5 160.5,-264.5"/>
<text text-anchor="middle" x="219.5" y="-271.5" font-family="Helvetica,sans-Serif" font-size="10.00">Nx::CSector::GetGeom</text>
</a>
</g>
</g>
<!-- Node1&#45;&gt;Node3 -->
<g id="edge2" class="edge"><title>Node1&#45;&gt;Node3</title>
<path fill="none" stroke="midnightblue" d="M71.4809,-191.053C88.2136,-208.845 118.422,-238.155 150,-255 154.267,-257.276 158.833,-259.301 163.506,-261.098"/>
<polygon fill="midnightblue" stroke="midnightblue" points="162.593,-264.486 173.188,-264.473 164.897,-257.876 162.593,-264.486"/>
</g>
<!-- Node4 -->
<g id="node4" class="node"><title>Node4</title>
<g id="a_node4"><a xlink:href="../../d3/d55/class_nx_1_1_c_sector.html#a6808dcb556733e10888ac80b0b7dc45a" target="_top" xlink:title=" ">
<polygon fill="white" stroke="black" points="150,-226.5 150,-245.5 289,-245.5 289,-226.5 150,-226.5"/>
<text text-anchor="middle" x="219.5" y="-233.5" font-family="Helvetica,sans-Serif" font-size="10.00">Nx::CSector::GetLightGroup</text>
</a>
</g>
</g>
<!-- Node1&#45;&gt;Node4 -->
<g id="edge3" class="edge"><title>Node1&#45;&gt;Node4</title>
<path fill="none" stroke="midnightblue" d="M95.4828,-191.019C112.127,-197.598 131.988,-205.323 150,-212 159.925,-215.679 170.712,-219.528 180.726,-223.039"/>
<polygon fill="midnightblue" stroke="midnightblue" points="179.828,-226.432 190.423,-226.418 182.132,-219.822 179.828,-226.432"/>
</g>
<!-- Node5 -->
<g id="node5" class="node"><title>Node5</title>
<g id="a_node5"><a xlink:href="../../d8/dd6/class_nx_1_1_c_geom.html#a7d756ee803ae7351b1e72eb25178d0f5" target="_top" xlink:title=" ">
<polygon fill="white" stroke="black" points="325,-228.5 325,-247.5 489,-247.5 489,-228.5 325,-228.5"/>
<text text-anchor="middle" x="407" y="-235.5" font-family="Helvetica,sans-Serif" font-size="10.00">Nx::CGeom::GetNumRenderVerts</text>
</a>
</g>
</g>
<!-- Node1&#45;&gt;Node5 -->
<g id="edge4" class="edge"><title>Node1&#45;&gt;Node5</title>
<path fill="none" stroke="midnightblue" d="M114.019,-185.912C160.803,-194.197 229.255,-206.336 289,-217 306.492,-220.122 325.453,-223.52 342.916,-226.654"/>
<polygon fill="midnightblue" stroke="midnightblue" points="342.541,-230.143 353.003,-228.465 343.779,-223.253 342.541,-230.143"/>
</g>
<!-- Node8 -->
<g id="node8" class="node"><title>Node8</title>
<g id="a_node8"><a xlink:href="../../d8/dd6/class_nx_1_1_c_geom.html#af568991604b79fc0917a929fad359498" target="_top" xlink:title=" ">
<polygon fill="white" stroke="black" points="150.5,-139 150.5,-169 288.5,-169 288.5,-139 150.5,-139"/>
<text text-anchor="start" x="158.5" y="-157" font-family="Helvetica,sans-Serif" font-size="10.00">Nx::CGeom::GetOrigRender</text>
<text text-anchor="middle" x="219.5" y="-146" font-family="Helvetica,sans-Serif" font-size="10.00">Colors</text>
</a>
</g>
</g>
<!-- Node1&#45;&gt;Node8 -->
<g id="edge7" class="edge"><title>Node1&#45;&gt;Node8</title>
<path fill="none" stroke="midnightblue" d="M114.135,-168.305C122.608,-167.144 131.476,-165.929 140.31,-164.718"/>
<polygon fill="midnightblue" stroke="midnightblue" points="140.816,-168.181 150.248,-163.355 139.865,-161.246 140.816,-168.181"/>
</g>
<!-- Node15 -->
<g id="node15" class="node"><title>Node15</title>
<g id="a_node15"><a xlink:href="../../db/d67/class_lst_1_1_hash_table.html#a6234bf4d526b323871d01024541fc9cf" target="_top" xlink:title=" ">
<polygon fill="white" stroke="black" points="152,-100.5 152,-119.5 287,-119.5 287,-100.5 152,-100.5"/>
<text text-anchor="middle" x="219.5" y="-107.5" font-family="Helvetica,sans-Serif" font-size="10.00">Lst::HashTable::IterateNext</text>
</a>
</g>
</g>
<!-- Node1&#45;&gt;Node15 -->
<g id="edge16" class="edge"><title>Node1&#45;&gt;Node15</title>
<path fill="none" stroke="midnightblue" d="M83.9199,-160.974C102.004,-150.939 126.936,-137.984 150,-129 156.037,-126.648 162.479,-124.462 168.906,-122.472"/>
<polygon fill="midnightblue" stroke="midnightblue" points="170.333,-125.701 178.932,-119.512 168.351,-118.987 170.333,-125.701"/>
</g>
<!-- Node16 -->
<g id="node16" class="node"><title>Node16</title>
<g id="a_node16"><a xlink:href="../../db/d67/class_lst_1_1_hash_table.html#a735946d7e8670bfdb0ee446848f010e4" target="_top" xlink:title=" ">
<polygon fill="white" stroke="black" points="151.5,-62.5 151.5,-81.5 287.5,-81.5 287.5,-62.5 151.5,-62.5"/>
<text text-anchor="middle" x="219.5" y="-69.5" font-family="Helvetica,sans-Serif" font-size="10.00">Lst::HashTable::IterateStart</text>
</a>
</g>
</g>
<!-- Node1&#45;&gt;Node16 -->
<g id="edge17" class="edge"><title>Node1&#45;&gt;Node16</title>
<path fill="none" stroke="midnightblue" d="M70.3773,-160.762C86.6742,-141.689 117.135,-109.307 150,-91 153.989,-88.7779 158.256,-86.8013 162.637,-85.0455"/>
<polygon fill="midnightblue" stroke="midnightblue" points="164.127,-88.2291 172.347,-81.5452 161.753,-81.6439 164.127,-88.2291"/>
</g>
<!-- Node17 -->
<g id="node17" class="node"><title>Node17</title>
<g id="a_node17"><a xlink:href="../../d8/dd6/class_nx_1_1_c_geom.html#ab9eaf73a139399fbc629a6bdcf005201" target="_top" xlink:title=" ">
<polygon fill="white" stroke="black" points="333.5,-0.5 333.5,-19.5 480.5,-19.5 480.5,-0.5 333.5,-0.5"/>
<text text-anchor="middle" x="407" y="-7.5" font-family="Helvetica,sans-Serif" font-size="10.00">Nx::CGeom::SetRenderColors</text>
</a>
</g>
</g>
<!-- Node1&#45;&gt;Node17 -->
<g id="edge18" class="edge"><title>Node1&#45;&gt;Node17</title>
<path fill="none" stroke="midnightblue" d="M64.5657,-160.948C77.0163,-134.353 106.739,-79.375 150,-53 201.965,-21.318 270.345,-11.0959 323.36,-8.50906"/>
<polygon fill="midnightblue" stroke="midnightblue" points="323.561,-12.0039 333.41,-8.10034 323.276,-5.00966 323.561,-12.0039"/>
</g>
<!-- Node6 -->
<g id="node6" class="node"><title>Node6</title>
<g id="a_node6"><a xlink:href="../../d8/dd6/class_nx_1_1_c_geom.html#a11c543d59c841f2c8961e1f2993640cb" target="_top" xlink:title=" ">
<polygon fill="white" stroke="black" points="525,-223 525,-253 633,-253 633,-223 525,-223"/>
<text text-anchor="start" x="533" y="-241" font-family="Helvetica,sans-Serif" font-size="10.00">Nx::CGeom::plat_get</text>
<text text-anchor="middle" x="579" y="-230" font-family="Helvetica,sans-Serif" font-size="10.00">_num_render_verts</text>
</a>
</g>
</g>
<!-- Node5&#45;&gt;Node6 -->
<g id="edge5" class="edge"><title>Node5&#45;&gt;Node6</title>
<path fill="none" stroke="midnightblue" d="M489.017,-238C497.65,-238 506.338,-238 514.724,-238"/>
<polygon fill="midnightblue" stroke="midnightblue" points="514.779,-241.5 524.779,-238 514.779,-234.5 514.779,-241.5"/>
</g>
<!-- Node7 -->
<g id="node7" class="node"><title>Node7</title>
<g id="a_node7"><a xlink:href="../../df/d92/standard_8cpp.html#a5fc8fd1788f18ada61dfda9f171c5a1a" target="_top" xlink:title=" ">
<polygon fill="white" stroke="black" points="669,-179.5 669,-198.5 707,-198.5 707,-179.5 669,-179.5"/>
<text text-anchor="middle" x="688" y="-186.5" font-family="Helvetica,sans-Serif" font-size="10.00">printf</text>
</a>
</g>
</g>
<!-- Node6&#45;&gt;Node7 -->
<g id="edge6" class="edge"><title>Node6&#45;&gt;Node7</title>
<path fill="none" stroke="midnightblue" d="M613.381,-222.935C619.892,-219.983 626.663,-216.902 633,-214 641.599,-210.063 650.954,-205.744 659.424,-201.821"/>
<polygon fill="midnightblue" stroke="midnightblue" points="660.924,-204.983 668.523,-197.601 657.979,-198.633 660.924,-204.983"/>
</g>
<!-- Node8&#45;&gt;Node5 -->
<g id="edge8" class="edge"><title>Node8&#45;&gt;Node5</title>
<path fill="none" stroke="midnightblue" d="M261.61,-169.145C270.955,-173.356 280.597,-178.349 289,-184 307.517,-196.453 305.426,-208.285 325,-219 329.213,-221.306 333.698,-223.334 338.313,-225.116"/>
<polygon fill="midnightblue" stroke="midnightblue" points="337.329,-228.479 347.924,-228.442 339.618,-221.864 337.329,-228.479"/>
</g>
<!-- Node9 -->
<g id="node9" class="node"><title>Node9</title>
<g id="a_node9"><a xlink:href="../../d8/dd6/class_nx_1_1_c_geom.html#a7daa2d46f87dbbef37c66f0b4727a02c" target="_top" xlink:title=" ">
<polygon fill="white" stroke="black" points="333,-190.5 333,-209.5 481,-209.5 481,-190.5 333,-190.5"/>
<text text-anchor="middle" x="407" y="-197.5" font-family="Helvetica,sans-Serif" font-size="10.00">Nx::CGeom::GetRenderColors</text>
</a>
</g>
</g>
<!-- Node8&#45;&gt;Node9 -->
<g id="edge9" class="edge"><title>Node8&#45;&gt;Node9</title>
<path fill="none" stroke="midnightblue" d="M277.661,-169.016C293.016,-172.982 309.626,-177.211 325,-181 334.472,-183.334 344.584,-185.759 354.339,-188.065"/>
<polygon fill="midnightblue" stroke="midnightblue" points="353.798,-191.533 364.334,-190.415 355.401,-184.719 353.798,-191.533"/>
</g>
<!-- Node11 -->
<g id="node11" class="node"><title>Node11</title>
<g id="a_node11"><a xlink:href="../../db/dc4/namespace_mem.html#a10246603d03405159c82320b96e3efbf" target="_top" xlink:title=" ">
<polygon fill="white" stroke="black" points="370.5,-152.5 370.5,-171.5 443.5,-171.5 443.5,-152.5 370.5,-152.5"/>
<text text-anchor="middle" x="407" y="-159.5" font-family="Helvetica,sans-Serif" font-size="10.00">Mem::Malloc</text>
</a>
</g>
</g>
<!-- Node8&#45;&gt;Node11 -->
<g id="edge12" class="edge"><title>Node8&#45;&gt;Node11</title>
<path fill="none" stroke="midnightblue" d="M288.52,-156.933C312.335,-157.961 338.496,-159.089 360.074,-160.019"/>
<polygon fill="midnightblue" stroke="midnightblue" points="360.127,-163.525 370.268,-160.459 360.428,-156.531 360.127,-163.525"/>
</g>
<!-- Node12 -->
<g id="node12" class="node"><title>Node12</title>
<g id="a_node12"><a xlink:href="../../d2/d0a/class_mem_1_1_manager.html#a7c4cba14870f002aee0243e16114f443" target="_top" xlink:title=" ">
<polygon fill="white" stroke="black" points="337.5,-114.5 337.5,-133.5 476.5,-133.5 476.5,-114.5 337.5,-114.5"/>
<text text-anchor="middle" x="407" y="-121.5" font-family="Helvetica,sans-Serif" font-size="10.00">Mem::Manager::PopContext</text>
</a>
</g>
</g>
<!-- Node8&#45;&gt;Node12 -->
<g id="edge13" class="edge"><title>Node8&#45;&gt;Node12</title>
<path fill="none" stroke="midnightblue" d="M288.52,-142.999C304.297,-140.448 321.104,-137.73 336.925,-135.171"/>
<polygon fill="midnightblue" stroke="midnightblue" points="337.846,-138.568 347.159,-133.516 336.729,-131.657 337.846,-138.568"/>
</g>
<!-- Node13 -->
<g id="node13" class="node"><title>Node13</title>
<g id="a_node13"><a xlink:href="../../d2/d0a/class_mem_1_1_manager.html#aaf8e36abc36eecabe46bf2582035192a" target="_top" xlink:title=" ">
<polygon fill="white" stroke="black" points="335,-76.5 335,-95.5 479,-95.5 479,-76.5 335,-76.5"/>
<text text-anchor="middle" x="407" y="-83.5" font-family="Helvetica,sans-Serif" font-size="10.00">Mem::Manager::PushContext</text>
</a>
</g>
</g>
<!-- Node8&#45;&gt;Node13 -->
<g id="edge14" class="edge"><title>Node8&#45;&gt;Node13</title>
<path fill="none" stroke="midnightblue" d="M266.465,-138.943C274.124,-135.949 281.886,-132.605 289,-129 306.153,-120.309 307.358,-112.651 325,-105 330.74,-102.511 336.856,-100.32 343.057,-98.398"/>
<polygon fill="midnightblue" stroke="midnightblue" points="344.182,-101.716 352.829,-95.5944 342.251,-94.9879 344.182,-101.716"/>
</g>
<!-- Node14 -->
<g id="node14" class="node"><title>Node14</title>
<g id="a_node14"><a xlink:href="../../d2/d0a/class_mem_1_1_manager.html#a3aefd91781b7f41d35e6df6a32d379d0" target="_top" xlink:title=" ">
<polygon fill="white" stroke="black" points="345.5,-38.5 345.5,-57.5 468.5,-57.5 468.5,-38.5 345.5,-38.5"/>
<text text-anchor="middle" x="407" y="-45.5" font-family="Helvetica,sans-Serif" font-size="10.00">Mem::Manager::sHandle</text>
</a>
</g>
</g>
<!-- Node8&#45;&gt;Node14 -->
<g id="edge15" class="edge"><title>Node8&#45;&gt;Node14</title>
<path fill="none" stroke="midnightblue" d="M273.801,-138.859C279.244,-136.082 284.439,-132.821 289,-129 313.425,-108.538 299.396,-85.9667 325,-67 328.395,-64.4851 332.072,-62.2969 335.921,-60.3936"/>
<polygon fill="midnightblue" stroke="midnightblue" points="337.341,-63.5928 345.166,-56.4496 334.595,-57.1542 337.341,-63.5928"/>
</g>
<!-- Node10 -->
<g id="node10" class="node"><title>Node10</title>
<g id="a_node10"><a xlink:href="../../d8/dd6/class_nx_1_1_c_geom.html#a916c8c2f26886ff999a948b058c3027b" target="_top" xlink:title=" ">
<polygon fill="white" stroke="black" points="525,-174 525,-204 633,-204 633,-174 525,-174"/>
<text text-anchor="start" x="533" y="-192" font-family="Helvetica,sans-Serif" font-size="10.00">Nx::CGeom::plat_get</text>
<text text-anchor="middle" x="579" y="-181" font-family="Helvetica,sans-Serif" font-size="10.00">_render_colors</text>
</a>
</g>
</g>
<!-- Node9&#45;&gt;Node10 -->
<g id="edge10" class="edge"><title>Node9&#45;&gt;Node10</title>
<path fill="none" stroke="midnightblue" d="M481.082,-195.271C492.266,-194.547 503.731,-193.806 514.682,-193.097"/>
<polygon fill="midnightblue" stroke="midnightblue" points="515.244,-196.568 524.997,-192.43 514.792,-189.583 515.244,-196.568"/>
</g>
<!-- Node10&#45;&gt;Node7 -->
<g id="edge11" class="edge"><title>Node10&#45;&gt;Node7</title>
<path fill="none" stroke="midnightblue" d="M633.187,-189C641.985,-189 650.795,-189 658.664,-189"/>
<polygon fill="midnightblue" stroke="midnightblue" points="658.722,-192.5 668.722,-189 658.722,-185.5 658.722,-192.5"/>
</g>
<!-- Node18 -->
<g id="node18" class="node"><title>Node18</title>
<g id="a_node18"><a xlink:href="../../d8/dd6/class_nx_1_1_c_geom.html#a91c3cdfde51a7fd572a1f71bf6908b88" target="_top" xlink:title=" ">
<polygon fill="white" stroke="black" points="525,-60 525,-90 633,-90 633,-60 525,-60"/>
<text text-anchor="start" x="533" y="-78" font-family="Helvetica,sans-Serif" font-size="10.00">Nx::CGeom::plat_set</text>
<text text-anchor="middle" x="579" y="-67" font-family="Helvetica,sans-Serif" font-size="10.00">_render_colors</text>
</a>
</g>
</g>
<!-- Node17&#45;&gt;Node18 -->
<g id="edge19" class="edge"><title>Node17&#45;&gt;Node18</title>
<path fill="none" stroke="midnightblue" d="M457.405,-19.541C467.975,-22.148 478.973,-25.2975 489,-29 507.822,-35.9502 527.754,-45.9774 543.972,-54.8971"/>
<polygon fill="midnightblue" stroke="midnightblue" points="542.622,-58.1524 553.056,-59.9893 546.045,-52.0463 542.622,-58.1524"/>
</g>
<!-- Node18&#45;&gt;Node7 -->
<g id="edge20" class="edge"><title>Node18&#45;&gt;Node7</title>
<path fill="none" stroke="midnightblue" d="M594.43,-90.3745C614.346,-111.593 650.143,-149.732 670.903,-171.85"/>
<polygon fill="midnightblue" stroke="midnightblue" points="668.418,-174.317 677.814,-179.213 673.522,-169.526 668.418,-174.317"/>
</g>
</g>
</svg>
