<?xml version="1.0" encoding="UTF-8" standalone="no"?>
<!DOCTYPE svg PUBLIC "-//W3C//DTD SVG 1.1//EN"
 "http://www.w3.org/Graphics/SVG/1.1/DTD/svg11.dtd">
<!-- Generated by graphviz version 2.38.0 (20140413.2041)
 -->
<!-- Title: CFuncs::ScriptGetTrickType Pages: 1 -->
<!--zoomable 474 -->
<svg id="main" version="1.1" xmlns="http://www.w3.org/2000/svg" xmlns:xlink="http://www.w3.org/1999/xlink" xml:space="preserve" onload="init(evt)">
<style type="text/css"><![CDATA[
.edge:hover path { stroke: red; }
.edge:hover polygon { stroke: red; fill: red; }
]]></style>
<script type="text/javascript"><![CDATA[
var edges = document.getElementsByTagName('g');
if (edges && edges.length) {
  for (var i=0;i<edges.length;i++) {
    if (edges[i].id.substr(0,4)=='edge') {
      edges[i].setAttribute('class','edge');
    }
  }
}
]]></script>
        <defs>
                <circle id="rim" cx="0" cy="0" r="7"/>
                <circle id="rim2" cx="0" cy="0" r="3.5"/>
                <g id="zoomPlus">
                        <use xlink:href="#rim" fill="#404040">
                                <set attributeName="fill" to="#808080" begin="zoomplus.mouseover" end="zoomplus.mouseout"/>
                        </use>
                        <path d="M-4,0h8M0,-4v8" fill="none" stroke="white" stroke-width="1.5" pointer-events="none"/>
                </g>
                <g id="zoomMin">
                        <use xlink:href="#rim" fill="#404040">
                                <set attributeName="fill" to="#808080" begin="zoomminus.mouseover" end="zoomminus.mouseout"/>
                        </use>
                        <path d="M-4,0h8" fill="none" stroke="white" stroke-width="1.5" pointer-events="none"/>
                </g>
                <g id="dirArrow">
                        <path fill="none" stroke="white" stroke-width="1.5" d="M0,-3.0v7 M-2.5,-0.5L0,-3.0L2.5,-0.5"/>
                </g>
               <g id="resetDef">
                       <use xlink:href="#rim2" fill="#404040">
                               <set attributeName="fill" to="#808080" begin="reset.mouseover" end="reset.mouseout"/>
                       </use>
               </g>
        </defs>

<script type="text/javascript">
var viewWidth = 1205;
var viewHeight = 474;
var sectionId = 'dynsection-342';
</script>
<script xlink:href="../../svgpan.js"/>
<svg id="graph" class="graph">
<g id="viewport">
<title>CFuncs::ScriptGetTrickType</title>
<polygon fill="white" stroke="none" points="-4,4 -4,-470.417 1201,-470.417 1201,4 -4,4"/>
<!-- Node1 -->
<g id="node1" class="node"><title>Node1</title>
<g id="a_node1"><a xlink:title=" ">
<polygon fill="#bfbfbf" stroke="black" points="0,-81.5 0,-100.5 140,-100.5 140,-81.5 0,-81.5"/>
<text text-anchor="middle" x="70" y="-88.5" font-family="Helvetica,sans-Serif" font-size="10.00">CFuncs::ScriptGetTrickType</text>
</a>
</g>
</g>
<!-- Node2 -->
<g id="node2" class="node"><title>Node2</title>
<g id="a_node2"><a xlink:href="../../d2/df7/class_script_1_1_c_struct.html#a148f8f6bc239cff60340c410df449c71" target="_top" xlink:title=" ">
<polygon fill="white" stroke="black" points="176,-209.5 176,-228.5 327,-228.5 327,-209.5 176,-209.5"/>
<text text-anchor="middle" x="251.5" y="-216.5" font-family="Helvetica,sans-Serif" font-size="10.00">Script::CStruct::AddChecksum</text>
</a>
</g>
</g>
<!-- Node1&#45;&gt;Node2 -->
<g id="edge1" class="edge"><title>Node1&#45;&gt;Node2</title>
<path fill="none" stroke="midnightblue" d="M81.5972,-100.521C100.066,-116.894 139.658,-151.031 176,-176 191.044,-186.337 208.706,-196.605 223.056,-204.514"/>
<polygon fill="midnightblue" stroke="midnightblue" points="221.489,-207.646 231.946,-209.348 224.833,-201.496 221.489,-207.646"/>
</g>
<!-- Node17 -->
<g id="node17" class="node"><title>Node17</title>
<g id="a_node17"><a xlink:href="../../d1/d54/namespace_script.html#aa331360f088c15972ac441ecb8b40cd9" target="_top" xlink:title=" ">
<polygon fill="white" stroke="black" points="197.5,-43.5 197.5,-62.5 305.5,-62.5 305.5,-43.5 197.5,-43.5"/>
<text text-anchor="middle" x="251.5" y="-50.5" font-family="Helvetica,sans-Serif" font-size="10.00">Script::GenerateCRC</text>
</a>
</g>
</g>
<!-- Node1&#45;&gt;Node17 -->
<g id="edge20" class="edge"><title>Node1&#45;&gt;Node17</title>
<path fill="none" stroke="midnightblue" d="M116.295,-81.411C140.409,-76.3061 170.251,-69.9887 195.667,-64.6082"/>
<polygon fill="midnightblue" stroke="midnightblue" points="196.472,-68.0153 205.53,-62.5201 195.022,-61.1671 196.472,-68.0153"/>
</g>
<!-- Node19 -->
<g id="node19" class="node"><title>Node19</title>
<g id="a_node19"><a xlink:href="../../d2/df7/class_script_1_1_c_struct.html#aa39e6fe5fdf1d6c48136ae26a7ad511e" target="_top" xlink:title=" ">
<polygon fill="white" stroke="black" points="177,-81.5 177,-100.5 326,-100.5 326,-81.5 177,-81.5"/>
<text text-anchor="middle" x="251.5" y="-88.5" font-family="Helvetica,sans-Serif" font-size="10.00">Script::CStruct::GetChecksum</text>
</a>
</g>
</g>
<!-- Node1&#45;&gt;Node19 -->
<g id="edge22" class="edge"><title>Node1&#45;&gt;Node19</title>
<path fill="none" stroke="midnightblue" d="M140.143,-91C148.897,-91 157.928,-91 166.877,-91"/>
<polygon fill="midnightblue" stroke="midnightblue" points="166.927,-94.5001 176.927,-91 166.927,-87.5001 166.927,-94.5001"/>
</g>
<!-- Node23 -->
<g id="node23" class="node"><title>Node23</title>
<g id="a_node23"><a xlink:href="../../db/df2/class_script_1_1_c_script.html#a95b75cd110a15699d07bef528f96d7aa" target="_top" xlink:title=" ">
<polygon fill="white" stroke="black" points="183.5,-5.5 183.5,-24.5 319.5,-24.5 319.5,-5.5 183.5,-5.5"/>
<text text-anchor="middle" x="251.5" y="-12.5" font-family="Helvetica,sans-Serif" font-size="10.00">Script::CScript::GetParams</text>
</a>
</g>
</g>
<!-- Node1&#45;&gt;Node23 -->
<g id="edge29" class="edge"><title>Node1&#45;&gt;Node23</title>
<path fill="none" stroke="midnightblue" d="M85.7334,-81.4699C105.547,-69.018 142.204,-47.2454 176,-34 182.262,-31.5456 188.946,-29.3213 195.642,-27.3316"/>
<polygon fill="midnightblue" stroke="midnightblue" points="196.735,-30.6602 205.415,-24.5848 194.841,-23.9214 196.735,-30.6602"/>
</g>
<!-- Node24 -->
<g id="node24" class="node"><title>Node24</title>
<g id="a_node24"><a xlink:href="../../d1/d54/namespace_script.html#aaf10cce8c51e44ea46f7789b3db96bc0" target="_top" xlink:title=" ">
<polygon fill="white" stroke="black" points="199.5,-147.5 199.5,-166.5 303.5,-166.5 303.5,-147.5 199.5,-147.5"/>
<text text-anchor="middle" x="251.5" y="-154.5" font-family="Helvetica,sans-Serif" font-size="10.00">Script::GetStructure</text>
</a>
</g>
</g>
<!-- Node1&#45;&gt;Node24 -->
<g id="edge30" class="edge"><title>Node1&#45;&gt;Node24</title>
<path fill="none" stroke="midnightblue" d="M97.1008,-100.597C128.164,-112.018 180.184,-131.146 214.916,-143.916"/>
<polygon fill="midnightblue" stroke="midnightblue" points="214.065,-147.332 224.659,-147.499 216.481,-140.762 214.065,-147.332"/>
</g>
<!-- Node3 -->
<g id="node3" class="node"><title>Node3</title>
<g id="a_node3"><a xlink:href="../../d2/df7/class_script_1_1_c_struct.html#a3872f7f0a9ebcc695745aabeefab2796" target="_top" xlink:title=" ">
<polygon fill="white" stroke="black" points="363,-228.5 363,-247.5 517,-247.5 517,-228.5 363,-228.5"/>
<text text-anchor="middle" x="440" y="-235.5" font-family="Helvetica,sans-Serif" font-size="10.00">Script::CStruct::AddComponent</text>
</a>
</g>
</g>
<!-- Node2&#45;&gt;Node3 -->
<g id="edge2" class="edge"><title>Node2&#45;&gt;Node3</title>
<path fill="none" stroke="midnightblue" d="M327.014,-226.591C335.473,-227.453 344.147,-228.337 352.741,-229.212"/>
<polygon fill="midnightblue" stroke="midnightblue" points="352.472,-232.703 362.776,-230.235 353.182,-225.739 352.472,-232.703"/>
</g>
<!-- Node4 -->
<g id="node4" class="node"><title>Node4</title>
<g id="a_node4"><a xlink:href="../../d1/d54/namespace_script.html#a1dd030523ebaecb95103d181f6fd382e" target="_top" xlink:title=" ">
<polygon fill="white" stroke="black" points="555.5,-373.5 555.5,-392.5 689.5,-392.5 689.5,-373.5 555.5,-373.5"/>
<text text-anchor="middle" x="622.5" y="-380.5" font-family="Helvetica,sans-Serif" font-size="10.00">Script::CleanUpComponent</text>
</a>
</g>
</g>
<!-- Node3&#45;&gt;Node4 -->
<g id="edge3" class="edge"><title>Node3&#45;&gt;Node4</title>
<path fill="none" stroke="midnightblue" d="M452.843,-247.514C483.049,-271.779 563.239,-336.198 601.127,-366.634"/>
<polygon fill="midnightblue" stroke="midnightblue" points="599.389,-369.727 609.377,-373.261 603.773,-364.27 599.389,-369.727"/>
</g>
<!-- Node13 -->
<g id="node13" class="node"><title>Node13</title>
<g id="a_node13"><a xlink:href="../../d1/d54/namespace_script.html#ae80ed69ea4edcbcbbbd4985a6efdcd6e" target="_top" xlink:title=" ">
<polygon fill="white" stroke="black" points="553,-152.5 553,-171.5 692,-171.5 692,-152.5 553,-152.5"/>
<text text-anchor="middle" x="622.5" y="-159.5" font-family="Helvetica,sans-Serif" font-size="10.00">Script::FindChecksumName</text>
</a>
</g>
</g>
<!-- Node3&#45;&gt;Node13 -->
<g id="edge16" class="edge"><title>Node3&#45;&gt;Node13</title>
<path fill="none" stroke="midnightblue" d="M463.86,-228.375C495.597,-215.012 553.163,-190.773 589.254,-175.577"/>
<polygon fill="midnightblue" stroke="midnightblue" points="590.967,-178.654 598.825,-171.547 588.251,-172.202 590.967,-178.654"/>
</g>
<!-- Node5 -->
<g id="node5" class="node"><title>Node5</title>
<g id="a_node5"><a xlink:href="../../d1/d54/namespace_script.html#a3dd60f29ada8a33fda9f4e842f1cabc1" target="_top" xlink:title=" ">
<polygon fill="white" stroke="black" points="755.5,-342.5 755.5,-361.5 863.5,-361.5 863.5,-342.5 755.5,-342.5"/>
<text text-anchor="middle" x="809.5" y="-349.5" font-family="Helvetica,sans-Serif" font-size="10.00">Script::CleanUpArray</text>
</a>
</g>
</g>
<!-- Node4&#45;&gt;Node5 -->
<g id="edge4" class="edge"><title>Node4&#45;&gt;Node5</title>
<path fill="none" stroke="midnightblue" d="M680.263,-373.488C700.801,-370.047 724.116,-366.14 745.181,-362.61"/>
<polygon fill="midnightblue" stroke="midnightblue" points="746.035,-366.016 755.319,-360.911 744.878,-359.112 746.035,-366.016"/>
</g>
<!-- Node7 -->
<g id="node7" class="node"><title>Node7</title>
<g id="a_node7"><a xlink:href="../../db/dc4/namespace_mem.html#aeedb606ea94a3398fdcfa3101c5ea8d9" target="_top" xlink:title=" ">
<polygon fill="white" stroke="black" points="1110,-430.5 1110,-449.5 1174,-449.5 1174,-430.5 1110,-430.5"/>
<text text-anchor="middle" x="1142" y="-437.5" font-family="Helvetica,sans-Serif" font-size="10.00">Mem::Free</text>
</a>
</g>
</g>
<!-- Node4&#45;&gt;Node7 -->
<g id="edge15" class="edge"><title>Node4&#45;&gt;Node7</title>
<path fill="none" stroke="midnightblue" d="M643.058,-392.615C663.705,-402.39 697.433,-417.298 728,-426 866.788,-465.511 907.477,-473.984 1051,-459 1067,-457.329 1084.35,-454.031 1099.5,-450.645"/>
<polygon fill="midnightblue" stroke="midnightblue" points="1100.65,-453.972 1109.6,-448.305 1099.07,-447.153 1100.65,-453.972"/>
</g>
<!-- Node9 -->
<g id="node9" class="node"><title>Node9</title>
<g id="a_node9"><a xlink:href="../../d1/d54/namespace_script.html#a99857fb30343d0c999af4db73344cece" target="_top" xlink:title=" ">
<polygon fill="white" stroke="black" points="938.5,-430.5 938.5,-449.5 1039.5,-449.5 1039.5,-430.5 938.5,-430.5"/>
<text text-anchor="middle" x="989" y="-437.5" font-family="Helvetica,sans-Serif" font-size="10.00">Script::DeleteString</text>
</a>
</g>
</g>
<!-- Node4&#45;&gt;Node9 -->
<g id="edge14" class="edge"><title>Node4&#45;&gt;Node9</title>
<path fill="none" stroke="midnightblue" d="M684.509,-392.541C752.267,-403.136 860.945,-420.131 928.208,-430.65"/>
<polygon fill="midnightblue" stroke="midnightblue" points="927.808,-434.13 938.229,-432.217 928.889,-427.214 927.808,-434.13"/>
</g>
<!-- Node6 -->
<g id="node6" class="node"><title>Node6</title>
<g id="a_node6"><a xlink:href="../../d0/d0b/class_script_1_1_c_array.html#a4b347b8b448dd652473dd6afe9aba2c2" target="_top" xlink:title=" ">
<polygon fill="white" stroke="black" points="935.5,-266.5 935.5,-285.5 1042.5,-285.5 1042.5,-266.5 935.5,-266.5"/>
<text text-anchor="middle" x="989" y="-273.5" font-family="Helvetica,sans-Serif" font-size="10.00">Script::CArray::Clear</text>
</a>
</g>
</g>
<!-- Node5&#45;&gt;Node6 -->
<g id="edge5" class="edge"><title>Node5&#45;&gt;Node6</title>
<path fill="none" stroke="midnightblue" d="M827.883,-342.449C850.325,-330.365 890.803,-309.394 927,-295 932.546,-292.794 938.457,-290.676 944.332,-288.707"/>
<polygon fill="midnightblue" stroke="midnightblue" points="945.68,-291.95 954.118,-285.543 943.526,-285.289 945.68,-291.95"/>
</g>
<!-- Node8 -->
<g id="node8" class="node"><title>Node8</title>
<g id="a_node8"><a xlink:href="../../d1/d54/namespace_script.html#af32f99ba26ca0f255240413a4e23a754" target="_top" xlink:title=" ">
<polygon fill="white" stroke="black" points="1087,-228.5 1087,-247.5 1197,-247.5 1197,-228.5 1087,-228.5"/>
<text text-anchor="middle" x="1142" y="-235.5" font-family="Helvetica,sans-Serif" font-size="10.00">Script::GetTypeName</text>
</a>
</g>
</g>
<!-- Node5&#45;&gt;Node8 -->
<g id="edge13" class="edge"><title>Node5&#45;&gt;Node8</title>
<path fill="none" stroke="midnightblue" d="M818.623,-342.275C836.06,-322.186 879.376,-276.372 927,-257 974.499,-237.679 1032.7,-233.63 1076.41,-234.023"/>
<polygon fill="midnightblue" stroke="midnightblue" points="1076.57,-237.526 1086.63,-234.197 1076.69,-230.527 1076.57,-237.526"/>
</g>
<!-- Node5&#45;&gt;Node9 -->
<g id="edge8" class="edge"><title>Node5&#45;&gt;Node9</title>
<path fill="none" stroke="midnightblue" d="M826.311,-361.642C855.683,-379.514 916.636,-416.392 927,-421 932.004,-423.225 937.348,-425.298 942.713,-427.196"/>
<polygon fill="midnightblue" stroke="midnightblue" points="941.731,-430.558 952.325,-430.417 943.955,-423.921 941.731,-430.558"/>
</g>
<!-- Node10 -->
<g id="node10" class="node"><title>Node10</title>
<g id="a_node10"><a xlink:href="../../d0/d0b/class_script_1_1_c_array.html#a600fcbd0b8fd9d1df2ee87d77494db7a" target="_top" xlink:title=" ">
<polygon fill="white" stroke="black" points="927.5,-381 927.5,-411 1050.5,-411 1050.5,-381 927.5,-381"/>
<text text-anchor="start" x="935.5" y="-399" font-family="Helvetica,sans-Serif" font-size="10.00">Script::CArray::GetArray</text>
<text text-anchor="middle" x="989" y="-388" font-family="Helvetica,sans-Serif" font-size="10.00">Pointer</text>
</a>
</g>
</g>
<!-- Node5&#45;&gt;Node10 -->
<g id="edge10" class="edge"><title>Node5&#45;&gt;Node10</title>
<path fill="none" stroke="midnightblue" d="M849.015,-361.547C868.999,-366.501 894.051,-372.711 917.361,-378.49"/>
<polygon fill="midnightblue" stroke="midnightblue" points="916.677,-381.926 927.225,-380.935 918.361,-375.131 916.677,-381.926"/>
</g>
<!-- Node11 -->
<g id="node11" class="node"><title>Node11</title>
<g id="a_node11"><a xlink:href="../../d0/d0b/class_script_1_1_c_array.html#a71c761bdce14193b10bf3c88372ba5a0" target="_top" xlink:title=" ">
<polygon fill="white" stroke="black" points="929.5,-342.5 929.5,-361.5 1048.5,-361.5 1048.5,-342.5 929.5,-342.5"/>
<text text-anchor="middle" x="989" y="-349.5" font-family="Helvetica,sans-Serif" font-size="10.00">Script::CArray::GetSize</text>
</a>
</g>
</g>
<!-- Node5&#45;&gt;Node11 -->
<g id="edge11" class="edge"><title>Node5&#45;&gt;Node11</title>
<path fill="none" stroke="midnightblue" d="M863.756,-352C881.16,-352 900.745,-352 919.13,-352"/>
<polygon fill="midnightblue" stroke="midnightblue" points="919.199,-355.5 929.199,-352 919.199,-348.5 919.199,-355.5"/>
</g>
<!-- Node12 -->
<g id="node12" class="node"><title>Node12</title>
<g id="a_node12"><a xlink:href="../../d0/d0b/class_script_1_1_c_array.html#a68067b67ca9aae7b9214c0add1d8934e" target="_top" xlink:title=" ">
<polygon fill="white" stroke="black" points="928.5,-304.5 928.5,-323.5 1049.5,-323.5 1049.5,-304.5 928.5,-304.5"/>
<text text-anchor="middle" x="989" y="-311.5" font-family="Helvetica,sans-Serif" font-size="10.00">Script::CArray::GetType</text>
</a>
</g>
</g>
<!-- Node5&#45;&gt;Node12 -->
<g id="edge12" class="edge"><title>Node5&#45;&gt;Node12</title>
<path fill="none" stroke="midnightblue" d="M855.291,-342.411C879.03,-337.329 908.384,-331.045 933.444,-325.68"/>
<polygon fill="midnightblue" stroke="midnightblue" points="934.486,-329.036 943.531,-323.52 933.02,-322.191 934.486,-329.036"/>
</g>
<!-- Node6&#45;&gt;Node7 -->
<g id="edge6" class="edge"><title>Node6&#45;&gt;Node7</title>
<path fill="none" stroke="midnightblue" d="M1034.21,-285.579C1040.2,-288.042 1046,-291.13 1051,-295 1094.39,-328.578 1122.1,-389.442 1134.11,-420.553"/>
<polygon fill="midnightblue" stroke="midnightblue" points="1130.94,-422.068 1137.7,-430.222 1137.5,-419.63 1130.94,-422.068"/>
</g>
<!-- Node6&#45;&gt;Node8 -->
<g id="edge7" class="edge"><title>Node6&#45;&gt;Node8</title>
<path fill="none" stroke="midnightblue" d="M1028.1,-266.411C1047.94,-261.419 1072.38,-255.268 1093.45,-249.967"/>
<polygon fill="midnightblue" stroke="midnightblue" points="1094.33,-253.355 1103.17,-247.52 1092.62,-246.566 1094.33,-253.355"/>
</g>
<!-- Node9&#45;&gt;Node7 -->
<g id="edge9" class="edge"><title>Node9&#45;&gt;Node7</title>
<path fill="none" stroke="midnightblue" d="M1039.86,-440C1059.2,-440 1081.08,-440 1099.53,-440"/>
<polygon fill="midnightblue" stroke="midnightblue" points="1099.67,-443.5 1109.67,-440 1099.67,-436.5 1099.67,-443.5"/>
</g>
<!-- Node14 -->
<g id="node14" class="node"><title>Node14</title>
<g id="a_node14"><a xlink:href="../../d1/d54/namespace_script.html#a5cc52c4ff5ea5bb27681d819212dfdca" target="_top" xlink:title=" ">
<polygon fill="white" stroke="black" points="728,-114.5 728,-133.5 891,-133.5 891,-114.5 728,-114.5"/>
<text text-anchor="middle" x="809.5" y="-121.5" font-family="Helvetica,sans-Serif" font-size="10.00">Script::FindChecksumNameNULL</text>
</a>
</g>
</g>
<!-- Node13&#45;&gt;Node14 -->
<g id="edge17" class="edge"><title>Node13&#45;&gt;Node14</title>
<path fill="none" stroke="midnightblue" d="M670.183,-152.411C695.146,-147.284 726.064,-140.933 752.334,-135.537"/>
<polygon fill="midnightblue" stroke="midnightblue" points="753.061,-138.961 762.152,-133.52 751.653,-132.104 753.061,-138.961"/>
</g>
<!-- Node16 -->
<g id="node16" class="node"><title>Node16</title>
<g id="a_node16"><a xlink:href="../../da/d37/namespace_dbg.html#ab406a8cc16de5046c7d9fd09c9de5e22" target="_top" xlink:title=" ">
<polygon fill="white" stroke="black" points="776.5,-152.5 776.5,-171.5 842.5,-171.5 842.5,-152.5 776.5,-152.5"/>
<text text-anchor="middle" x="809.5" y="-159.5" font-family="Helvetica,sans-Serif" font-size="10.00">Dbg::sprintf</text>
</a>
</g>
</g>
<!-- Node13&#45;&gt;Node16 -->
<g id="edge19" class="edge"><title>Node13&#45;&gt;Node16</title>
<path fill="none" stroke="midnightblue" d="M692.124,-162C716.868,-162 744.058,-162 765.93,-162"/>
<polygon fill="midnightblue" stroke="midnightblue" points="766.206,-165.5 776.206,-162 766.206,-158.5 766.206,-165.5"/>
</g>
<!-- Node15 -->
<g id="node15" class="node"><title>Node15</title>
<g id="a_node15"><a xlink:href="../../d0/d31/namespace_config.html#a709cc81780d49900157e3476b63aa25d" target="_top" xlink:title=" ">
<polygon fill="white" stroke="black" points="927,-114.5 927,-133.5 1051,-133.5 1051,-114.5 927,-114.5"/>
<text text-anchor="middle" x="989" y="-121.5" font-family="Helvetica,sans-Serif" font-size="10.00">Config::GotExtraMemory</text>
</a>
</g>
</g>
<!-- Node14&#45;&gt;Node15 -->
<g id="edge18" class="edge"><title>Node14&#45;&gt;Node15</title>
<path fill="none" stroke="midnightblue" d="M891.2,-124C899.729,-124 908.358,-124 916.768,-124"/>
<polygon fill="midnightblue" stroke="midnightblue" points="916.898,-127.5 926.898,-124 916.898,-120.5 916.898,-127.5"/>
</g>
<!-- Node18 -->
<g id="node18" class="node"><title>Node18</title>
<g id="a_node18"><a xlink:href="../../d3/d9b/namespace_crc.html#aed1b5ad21f682b39b09782ec29f5c5cc" target="_top" xlink:title=" ">
<polygon fill="white" stroke="black" points="367,-0.5 367,-19.5 513,-19.5 513,-0.5 367,-0.5"/>
<text text-anchor="middle" x="440" y="-7.5" font-family="Helvetica,sans-Serif" font-size="10.00">Crc::GenerateCRCFromString</text>
</a>
</g>
</g>
<!-- Node17&#45;&gt;Node18 -->
<g id="edge21" class="edge"><title>Node17&#45;&gt;Node18</title>
<path fill="none" stroke="midnightblue" d="M293.89,-43.4569C321.537,-37.0826 358.101,-28.6523 387.609,-21.849"/>
<polygon fill="midnightblue" stroke="midnightblue" points="388.767,-25.1737 397.725,-19.5164 387.195,-18.3527 388.767,-25.1737"/>
</g>
<!-- Node19&#45;&gt;Node13 -->
<g id="edge23" class="edge"><title>Node19&#45;&gt;Node13</title>
<path fill="none" stroke="midnightblue" d="M317.122,-81.4924C372.73,-76.25 453.753,-75.7904 517,-105 538.121,-114.754 533.064,-131.009 553,-143 556.629,-145.183 560.515,-147.121 564.526,-148.843"/>
<polygon fill="midnightblue" stroke="midnightblue" points="563.453,-152.18 574.044,-152.476 565.95,-145.64 563.453,-152.18"/>
</g>
<!-- Node19&#45;&gt;Node19 -->
<g id="edge24" class="edge"><title>Node19&#45;&gt;Node19</title>
<path fill="none" stroke="midnightblue" d="M223.757,-100.757C210.26,-109.565 219.508,-119 251.5,-119 273.495,-119 284.739,-114.541 285.233,-108.891"/>
<polygon fill="midnightblue" stroke="midnightblue" points="287.991,-106.734 279.243,-100.757 282.354,-110.885 287.991,-106.734"/>
</g>
<!-- Node20 -->
<g id="node20" class="node"><title>Node20</title>
<g id="a_node20"><a xlink:href="../../d1/d54/namespace_script.html#a0d003ee93577e31adb6597bce0002009" target="_top" xlink:title=" ">
<polygon fill="white" stroke="black" points="386.5,-38.5 386.5,-57.5 493.5,-57.5 493.5,-38.5 386.5,-38.5"/>
<text text-anchor="middle" x="440" y="-45.5" font-family="Helvetica,sans-Serif" font-size="10.00">Script::PrintContents</text>
</a>
</g>
</g>
<!-- Node19&#45;&gt;Node20 -->
<g id="edge25" class="edge"><title>Node19&#45;&gt;Node20</title>
<path fill="none" stroke="midnightblue" d="M293.89,-81.4569C321.537,-75.0826 358.101,-66.6523 387.609,-59.849"/>
<polygon fill="midnightblue" stroke="midnightblue" points="388.767,-63.1737 397.725,-57.5164 387.195,-56.3527 388.767,-63.1737"/>
</g>
<!-- Node21 -->
<g id="node21" class="node"><title>Node21</title>
<g id="a_node21"><a xlink:href="../../d1/d54/namespace_script.html#a43181580ea5d38e4bf1aa19ccd5e9e85" target="_top" xlink:title=" ">
<polygon fill="white" stroke="black" points="399,-114.5 399,-133.5 481,-133.5 481,-114.5 399,-114.5"/>
<text text-anchor="middle" x="440" y="-121.5" font-family="Helvetica,sans-Serif" font-size="10.00">Script::Resolve</text>
</a>
</g>
</g>
<!-- Node19&#45;&gt;Node21 -->
<g id="edge26" class="edge"><title>Node19&#45;&gt;Node21</title>
<path fill="none" stroke="midnightblue" d="M306.193,-100.501C332.318,-105.123 363.527,-110.646 389.125,-115.175"/>
<polygon fill="midnightblue" stroke="midnightblue" points="388.541,-118.626 398.998,-116.922 389.761,-111.733 388.541,-118.626"/>
</g>
<!-- Node21&#45;&gt;Node13 -->
<g id="edge27" class="edge"><title>Node21&#45;&gt;Node13</title>
<path fill="none" stroke="midnightblue" d="M481.059,-132.433C506.127,-137.711 538.769,-144.583 566.275,-150.374"/>
<polygon fill="midnightblue" stroke="midnightblue" points="565.646,-153.818 576.152,-152.453 567.088,-146.968 565.646,-153.818"/>
</g>
<!-- Node22 -->
<g id="node22" class="node"><title>Node22</title>
<g id="a_node22"><a xlink:href="../../d1/d54/namespace_script.html#af293a36c230b10de7d8151c2990b233b" target="_top" xlink:title=" ">
<polygon fill="white" stroke="black" points="565.5,-114.5 565.5,-133.5 679.5,-133.5 679.5,-114.5 565.5,-114.5"/>
<text text-anchor="middle" x="622.5" y="-121.5" font-family="Helvetica,sans-Serif" font-size="10.00">Script::LookUpSymbol</text>
</a>
</g>
</g>
<!-- Node21&#45;&gt;Node22 -->
<g id="edge28" class="edge"><title>Node21&#45;&gt;Node22</title>
<path fill="none" stroke="midnightblue" d="M481.059,-124C502.876,-124 530.43,-124 555.342,-124"/>
<polygon fill="midnightblue" stroke="midnightblue" points="555.467,-127.5 565.467,-124 555.467,-120.5 555.467,-127.5"/>
</g>
<!-- Node24&#45;&gt;Node8 -->
<g id="edge32" class="edge"><title>Node24&#45;&gt;Node8</title>
<path fill="none" stroke="midnightblue" d="M302.42,-166.543C373.145,-179.211 506.697,-200 621.5,-200 621.5,-200 621.5,-200 810.5,-200 904.934,-200 1013.56,-215.501 1079.72,-226.702"/>
<polygon fill="midnightblue" stroke="midnightblue" points="1079.52,-230.219 1089.97,-228.46 1080.71,-223.319 1079.52,-230.219"/>
</g>
<!-- Node24&#45;&gt;Node13 -->
<g id="edge31" class="edge"><title>Node24&#45;&gt;Node13</title>
<path fill="none" stroke="midnightblue" d="M303.808,-157.695C365.622,-158.533 470.148,-159.949 542.33,-160.927"/>
<polygon fill="midnightblue" stroke="midnightblue" points="542.69,-164.432 552.736,-161.068 542.784,-157.433 542.69,-164.432"/>
</g>
<!-- Node24&#45;&gt;Node21 -->
<g id="edge33" class="edge"><title>Node24&#45;&gt;Node21</title>
<path fill="none" stroke="midnightblue" d="M303.956,-147.895C330.417,-143.213 362.539,-137.529 388.815,-132.88"/>
<polygon fill="midnightblue" stroke="midnightblue" points="389.706,-136.277 398.943,-131.088 388.486,-129.384 389.706,-136.277"/>
</g>
</g>
</svg>
        <g id="navigator" transform="translate(0 0)" fill="#404254">
                <rect fill="#f2f5e9" fill-opacity="0.5" stroke="#606060" stroke-width=".5" x="0" y="0" width="60" height="60"/>
                <use id="zoomplus" xlink:href="#zoomPlus" x="17" y="9" onmousedown="handleZoom(evt,'in')"/>
                <use id="zoomminus" xlink:href="#zoomMin" x="42" y="9" onmousedown="handleZoom(evt,'out')"/>
                <use id="reset" xlink:href="#resetDef" x="30" y="36" onmousedown="handleReset()"/>
                <g id="arrowUp" xlink:href="#dirArrow" transform="translate(30 24)" onmousedown="handlePan(0,-1)">
                  <use xlink:href="#rim" fill="#404040">
                        <set attributeName="fill" to="#808080" begin="arrowUp.mouseover" end="arrowUp.mouseout"/>
                  </use>
                  <path fill="none" stroke="white" stroke-width="1.5" d="M0,-3.0v7 M-2.5,-0.5L0,-3.0L2.5,-0.5"/>
                </g>
                <g id="arrowRight" xlink:href="#dirArrow" transform="rotate(90) translate(36 -43)" onmousedown="handlePan(1,0)">
                  <use xlink:href="#rim" fill="#404040">
                        <set attributeName="fill" to="#808080" begin="arrowRight.mouseover" end="arrowRight.mouseout"/>
                  </use>
                  <path fill="none" stroke="white" stroke-width="1.5" d="M0,-3.0v7 M-2.5,-0.5L0,-3.0L2.5,-0.5"/>
                </g>
                <g id="arrowDown" xlink:href="#dirArrow" transform="rotate(180) translate(-30 -48)" onmousedown="handlePan(0,1)">
                  <use xlink:href="#rim" fill="#404040">
                        <set attributeName="fill" to="#808080" begin="arrowDown.mouseover" end="arrowDown.mouseout"/>
                  </use>
                  <path fill="none" stroke="white" stroke-width="1.5" d="M0,-3.0v7 M-2.5,-0.5L0,-3.0L2.5,-0.5"/>
                </g>
                <g id="arrowLeft" xlink:href="#dirArrow" transform="rotate(270) translate(-36 17)" onmousedown="handlePan(-1,0)">
                  <use xlink:href="#rim" fill="#404040">
                        <set attributeName="fill" to="#808080" begin="arrowLeft.mouseover" end="arrowLeft.mouseout"/>
                  </use>
                  <path fill="none" stroke="white" stroke-width="1.5" d="M0,-3.0v7 M-2.5,-0.5L0,-3.0L2.5,-0.5"/>
                </g>
        </g>
        <svg viewBox="0 0 15 15" width="100%" height="30px" preserveAspectRatio="xMaxYMin meet">
         <g id="arrow_out" transform="scale(0.3 0.3)">
          <a xlink:href="namespace_c_funcs_a98967e676b5185a4c0ddf28e96e25eaf_cgraph_org.svg" target="_base">
           <rect id="button" ry="5" rx="5" y="6" x="6" height="38" width="38"
                fill="#f2f5e9" fill-opacity="0.5" stroke="#606060" stroke-width="1.0"/>
           <path id="arrow"
             d="M 11.500037,31.436501 C 11.940474,20.09759 22.043105,11.32322 32.158766,21.979434 L 37.068811,17.246167 C 37.068811,17.246167 37.088388,32 37.088388,32 L 22.160133,31.978069 C 22.160133,31.978069 26.997745,27.140456 26.997745,27.140456 C 18.528582,18.264221 13.291696,25.230495 11.500037,31.436501 z"
             style="fill:#404040;"/>
          </a>
         </g>
        </svg>
</svg>
