<?xml version="1.0" encoding="UTF-8" standalone="no"?>
<!DOCTYPE svg PUBLIC "-//W3C//DTD SVG 1.1//EN"
 "http://www.w3.org/Graphics/SVG/1.1/DTD/svg11.dtd">
<!-- Generated by graphviz version 2.38.0 (20140413.2041)
 -->
<!-- Title: CFuncs::GetNextUndisqualified Pages: 1 -->
<svg width="1184pt" height="135pt"
 viewBox="0.00 0.00 1184.00 134.96" xmlns="http://www.w3.org/2000/svg" xmlns:xlink="http://www.w3.org/1999/xlink">
<g id="graph0" class="graph" transform="scale(1 1) rotate(0) translate(4 130.959)">
<title>CFuncs::GetNextUndisqualified</title>
<polygon fill="white" stroke="none" points="-4,4 -4,-130.959 1180,-130.959 1180,4 -4,4"/>
<!-- Node1 -->
<g id="node1" class="node"><title>Node1</title>
<g id="a_node1"><a xlink:title=" ">
<polygon fill="#bfbfbf" stroke="black" points="0,-51.5 0,-70.5 152,-70.5 152,-51.5 0,-51.5"/>
<text text-anchor="middle" x="76" y="-58.5" font-family="Helvetica,sans-Serif" font-size="10.00">CFuncs::GetNextUndisqualified</text>
</a>
</g>
</g>
<!-- Node2 -->
<g id="node2" class="node"><title>Node2</title>
<g id="a_node2"><a xlink:href="../../d2/df7/class_script_1_1_c_struct.html#a1e85eee5e600de8358db26f6c777e42d" target="_top" xlink:title=" ">
<polygon fill="white" stroke="black" points="188,-91.5 188,-110.5 320,-110.5 320,-91.5 188,-91.5"/>
<text text-anchor="middle" x="254" y="-98.5" font-family="Helvetica,sans-Serif" font-size="10.00">Script::CStruct::GetInteger</text>
</a>
</g>
</g>
<!-- Node1&#45;&gt;Node2 -->
<g id="edge1" class="edge"><title>Node1&#45;&gt;Node2</title>
<path fill="none" stroke="midnightblue" d="M119.156,-70.581C143.756,-76.1717 174.985,-83.2694 201.09,-89.2023"/>
<polygon fill="midnightblue" stroke="midnightblue" points="200.661,-92.6939 211.188,-91.4972 202.212,-85.8679 200.661,-92.6939"/>
</g>
<!-- Node12 -->
<g id="node12" class="node"><title>Node12</title>
<g id="a_node12"><a xlink:href="../../d0/d0b/class_script_1_1_c_array.html#a71c761bdce14193b10bf3c88372ba5a0" target="_top" xlink:title=" ">
<polygon fill="white" stroke="black" points="194.5,-51.5 194.5,-70.5 313.5,-70.5 313.5,-51.5 194.5,-51.5"/>
<text text-anchor="middle" x="254" y="-58.5" font-family="Helvetica,sans-Serif" font-size="10.00">Script::CArray::GetSize</text>
</a>
</g>
</g>
<!-- Node1&#45;&gt;Node12 -->
<g id="edge14" class="edge"><title>Node1&#45;&gt;Node12</title>
<path fill="none" stroke="midnightblue" d="M152.15,-61C162.731,-61 173.566,-61 184.023,-61"/>
<polygon fill="midnightblue" stroke="midnightblue" points="184.332,-64.5001 194.332,-61 184.332,-57.5001 184.332,-64.5001"/>
</g>
<!-- Node13 -->
<g id="node13" class="node"><title>Node13</title>
<g id="a_node13"><a xlink:href="../../d0/d0b/class_script_1_1_c_array.html#af335b83cb06ac2934f891089c295bdf9" target="_top" xlink:title=" ">
<polygon fill="white" stroke="black" points="356,-0.5 356,-19.5 496,-19.5 496,-0.5 356,-0.5"/>
<text text-anchor="middle" x="426" y="-7.5" font-family="Helvetica,sans-Serif" font-size="10.00">Script::CArray::GetStructure</text>
</a>
</g>
</g>
<!-- Node1&#45;&gt;Node13 -->
<g id="edge15" class="edge"><title>Node1&#45;&gt;Node13</title>
<path fill="none" stroke="midnightblue" d="M130.292,-51.4852C148.566,-48.3271 169.157,-44.8839 188,-42 240.574,-33.9537 299.876,-25.9474 346.008,-19.9559"/>
<polygon fill="midnightblue" stroke="midnightblue" points="346.475,-23.4248 355.943,-18.6703 345.576,-16.4827 346.475,-23.4248"/>
</g>
<!-- Node3 -->
<g id="node3" class="node"><title>Node3</title>
<g id="a_node3"><a xlink:href="../../d1/d54/namespace_script.html#ae80ed69ea4edcbcbbbd4985a6efdcd6e" target="_top" xlink:title=" ">
<polygon fill="white" stroke="black" points="678,-76.5 678,-95.5 817,-95.5 817,-76.5 678,-76.5"/>
<text text-anchor="middle" x="747.5" y="-83.5" font-family="Helvetica,sans-Serif" font-size="10.00">Script::FindChecksumName</text>
</a>
</g>
</g>
<!-- Node2&#45;&gt;Node3 -->
<g id="edge2" class="edge"><title>Node2&#45;&gt;Node3</title>
<path fill="none" stroke="midnightblue" d="M289.754,-110.501C309.093,-115.298 333.697,-120.599 356,-123 477.087,-136.035 619.568,-112.801 694.458,-97.6106"/>
<polygon fill="midnightblue" stroke="midnightblue" points="695.481,-100.973 704.568,-95.5252 694.067,-94.1177 695.481,-100.973"/>
</g>
<!-- Node7 -->
<g id="node7" class="node"><title>Node7</title>
<g id="a_node7"><a xlink:href="../../d1/d54/namespace_script.html#a0d003ee93577e31adb6597bce0002009" target="_top" xlink:title=" ">
<polygon fill="white" stroke="black" points="372.5,-94.5 372.5,-113.5 479.5,-113.5 479.5,-94.5 372.5,-94.5"/>
<text text-anchor="middle" x="426" y="-101.5" font-family="Helvetica,sans-Serif" font-size="10.00">Script::PrintContents</text>
</a>
</g>
</g>
<!-- Node2&#45;&gt;Node7 -->
<g id="edge6" class="edge"><title>Node2&#45;&gt;Node7</title>
<path fill="none" stroke="midnightblue" d="M320.24,-102.151C333.969,-102.394 348.427,-102.649 362.069,-102.889"/>
<polygon fill="midnightblue" stroke="midnightblue" points="362.257,-106.393 372.317,-103.07 362.38,-99.3943 362.257,-106.393"/>
</g>
<!-- Node8 -->
<g id="node8" class="node"><title>Node8</title>
<g id="a_node8"><a xlink:href="../../d2/df7/class_script_1_1_c_struct.html#a1e05f0a66cff4a700fb67fdc117d2d7f" target="_top" xlink:title=" ">
<polygon fill="white" stroke="black" points="360,-38.5 360,-57.5 492,-57.5 492,-38.5 360,-38.5"/>
<text text-anchor="middle" x="426" y="-45.5" font-family="Helvetica,sans-Serif" font-size="10.00">Script::CStruct::search_for</text>
</a>
</g>
</g>
<!-- Node2&#45;&gt;Node8 -->
<g id="edge7" class="edge"><title>Node2&#45;&gt;Node8</title>
<path fill="none" stroke="midnightblue" d="M285.786,-91.4021C313.466,-82.7723 354.312,-70.0381 384.608,-60.5929"/>
<polygon fill="midnightblue" stroke="midnightblue" points="385.938,-63.8443 394.443,-57.5265 383.855,-57.1615 385.938,-63.8443"/>
</g>
<!-- Node4 -->
<g id="node4" class="node"><title>Node4</title>
<g id="a_node4"><a xlink:href="../../d1/d54/namespace_script.html#a5cc52c4ff5ea5bb27681d819212dfdca" target="_top" xlink:title=" ">
<polygon fill="white" stroke="black" points="853,-95.5 853,-114.5 1016,-114.5 1016,-95.5 853,-95.5"/>
<text text-anchor="middle" x="934.5" y="-102.5" font-family="Helvetica,sans-Serif" font-size="10.00">Script::FindChecksumNameNULL</text>
</a>
</g>
</g>
<!-- Node3&#45;&gt;Node4 -->
<g id="edge3" class="edge"><title>Node3&#45;&gt;Node4</title>
<path fill="none" stroke="midnightblue" d="M817.124,-93.0479C825.476,-93.9056 834.107,-94.792 842.717,-95.6764"/>
<polygon fill="midnightblue" stroke="midnightblue" points="842.493,-99.1717 852.798,-96.7117 843.208,-92.2083 842.493,-99.1717"/>
</g>
<!-- Node6 -->
<g id="node6" class="node"><title>Node6</title>
<g id="a_node6"><a xlink:href="../../da/d37/namespace_dbg.html#ab406a8cc16de5046c7d9fd09c9de5e22" target="_top" xlink:title=" ">
<polygon fill="white" stroke="black" points="901.5,-57.5 901.5,-76.5 967.5,-76.5 967.5,-57.5 901.5,-57.5"/>
<text text-anchor="middle" x="934.5" y="-64.5" font-family="Helvetica,sans-Serif" font-size="10.00">Dbg::sprintf</text>
</a>
</g>
</g>
<!-- Node3&#45;&gt;Node6 -->
<g id="edge5" class="edge"><title>Node3&#45;&gt;Node6</title>
<path fill="none" stroke="midnightblue" d="M817.124,-78.9521C841.98,-76.3993 869.305,-73.593 891.228,-71.3414"/>
<polygon fill="midnightblue" stroke="midnightblue" points="891.616,-74.8201 901.206,-70.3167 890.901,-67.8567 891.616,-74.8201"/>
</g>
<!-- Node5 -->
<g id="node5" class="node"><title>Node5</title>
<g id="a_node5"><a xlink:href="../../d0/d31/namespace_config.html#a709cc81780d49900157e3476b63aa25d" target="_top" xlink:title=" ">
<polygon fill="white" stroke="black" points="1052,-95.5 1052,-114.5 1176,-114.5 1176,-95.5 1052,-95.5"/>
<text text-anchor="middle" x="1114" y="-102.5" font-family="Helvetica,sans-Serif" font-size="10.00">Config::GotExtraMemory</text>
</a>
</g>
</g>
<!-- Node4&#45;&gt;Node5 -->
<g id="edge4" class="edge"><title>Node4&#45;&gt;Node5</title>
<path fill="none" stroke="midnightblue" d="M1016.2,-105C1024.73,-105 1033.36,-105 1041.77,-105"/>
<polygon fill="midnightblue" stroke="midnightblue" points="1041.9,-108.5 1051.9,-105 1041.9,-101.5 1041.9,-108.5"/>
</g>
<!-- Node8&#45;&gt;Node3 -->
<g id="edge8" class="edge"><title>Node8&#45;&gt;Node3</title>
<path fill="none" stroke="midnightblue" d="M474.421,-57.5226C492.398,-60.8844 513.089,-64.4568 532,-67 576.746,-73.0176 627.01,-77.5859 667.627,-80.7332"/>
<polygon fill="midnightblue" stroke="midnightblue" points="667.5,-84.2336 677.737,-81.5028 668.031,-77.2538 667.5,-84.2336"/>
</g>
<!-- Node8&#45;&gt;Node8 -->
<g id="edge13" class="edge"><title>Node8&#45;&gt;Node8</title>
<path fill="none" stroke="midnightblue" d="M401.339,-57.7571C389.342,-66.5653 397.563,-76 426,-76 445.106,-76 455.086,-71.741 455.94,-66.2746"/>
<polygon fill="midnightblue" stroke="midnightblue" points="458.904,-64.4128 450.661,-57.7571 452.954,-68.1007 458.904,-64.4128"/>
</g>
<!-- Node9 -->
<g id="node9" class="node"><title>Node9</title>
<g id="a_node9"><a xlink:href="../../d1/d54/namespace_script.html#af32f99ba26ca0f255240413a4e23a754" target="_top" xlink:title=" ">
<polygon fill="white" stroke="black" points="532,-0.5 532,-19.5 642,-19.5 642,-0.5 532,-0.5"/>
<text text-anchor="middle" x="587" y="-7.5" font-family="Helvetica,sans-Serif" font-size="10.00">Script::GetTypeName</text>
</a>
</g>
</g>
<!-- Node8&#45;&gt;Node9 -->
<g id="edge9" class="edge"><title>Node8&#45;&gt;Node9</title>
<path fill="none" stroke="midnightblue" d="M467.122,-38.411C488.104,-33.3965 513.982,-27.2119 536.23,-21.8947"/>
<polygon fill="midnightblue" stroke="midnightblue" points="537.254,-25.2487 546.166,-19.5201 535.626,-18.4405 537.254,-25.2487"/>
</g>
<!-- Node10 -->
<g id="node10" class="node"><title>Node10</title>
<g id="a_node10"><a xlink:href="../../d1/d54/namespace_script.html#a43181580ea5d38e4bf1aa19ccd5e9e85" target="_top" xlink:title=" ">
<polygon fill="white" stroke="black" points="546,-38.5 546,-57.5 628,-57.5 628,-38.5 546,-38.5"/>
<text text-anchor="middle" x="587" y="-45.5" font-family="Helvetica,sans-Serif" font-size="10.00">Script::Resolve</text>
</a>
</g>
</g>
<!-- Node8&#45;&gt;Node10 -->
<g id="edge10" class="edge"><title>Node8&#45;&gt;Node10</title>
<path fill="none" stroke="midnightblue" d="M492.13,-48C506.619,-48 521.766,-48 535.559,-48"/>
<polygon fill="midnightblue" stroke="midnightblue" points="535.81,-51.5001 545.81,-48 535.81,-44.5001 535.81,-51.5001"/>
</g>
<!-- Node10&#45;&gt;Node3 -->
<g id="edge11" class="edge"><title>Node10&#45;&gt;Node3</title>
<path fill="none" stroke="midnightblue" d="M627.996,-57.589C648.912,-62.6035 674.708,-68.7881 696.886,-74.1053"/>
<polygon fill="midnightblue" stroke="midnightblue" points="696.251,-77.552 706.791,-76.4799 697.883,-70.7449 696.251,-77.552"/>
</g>
<!-- Node11 -->
<g id="node11" class="node"><title>Node11</title>
<g id="a_node11"><a xlink:href="../../d1/d54/namespace_script.html#af293a36c230b10de7d8151c2990b233b" target="_top" xlink:title=" ">
<polygon fill="white" stroke="black" points="690.5,-38.5 690.5,-57.5 804.5,-57.5 804.5,-38.5 690.5,-38.5"/>
<text text-anchor="middle" x="747.5" y="-45.5" font-family="Helvetica,sans-Serif" font-size="10.00">Script::LookUpSymbol</text>
</a>
</g>
</g>
<!-- Node10&#45;&gt;Node11 -->
<g id="edge12" class="edge"><title>Node10&#45;&gt;Node11</title>
<path fill="none" stroke="midnightblue" d="M628.406,-48C644.124,-48 662.549,-48 680.11,-48"/>
<polygon fill="midnightblue" stroke="midnightblue" points="680.322,-51.5001 690.322,-48 680.322,-44.5001 680.322,-51.5001"/>
</g>
<!-- Node13&#45;&gt;Node9 -->
<g id="edge16" class="edge"><title>Node13&#45;&gt;Node9</title>
<path fill="none" stroke="midnightblue" d="M496.277,-10C504.726,-10 513.331,-10 521.702,-10"/>
<polygon fill="midnightblue" stroke="midnightblue" points="521.771,-13.5001 531.771,-10 521.771,-6.5001 521.771,-13.5001"/>
</g>
</g>
</svg>
