<?xml version="1.0" encoding="UTF-8" standalone="no"?>
<!DOCTYPE svg PUBLIC "-//W3C//DTD SVG 1.1//EN"
 "http://www.w3.org/Graphics/SVG/1.1/DTD/svg11.dtd">
<!-- Generated by graphviz version 2.38.0 (20140413.2041)
 -->
<!-- Title: CFuncs::ScriptGetKeyComboArrayFromTrickArray Pages: 1 -->
<svg width="1293pt" height="1062pt"
 viewBox="0.00 0.00 1293.00 1062.35" xmlns="http://www.w3.org/2000/svg" xmlns:xlink="http://www.w3.org/1999/xlink">
<g id="graph0" class="graph" transform="scale(1 1) rotate(0) translate(4 1058.35)">
<title>CFuncs::ScriptGetKeyComboArrayFromTrickArray</title>
<polygon fill="white" stroke="none" points="-4,4 -4,-1058.35 1289,-1058.35 1289,4 -4,4"/>
<!-- Node1 -->
<g id="node1" class="node"><title>Node1</title>
<g id="a_node1"><a xlink:title=" ">
<polygon fill="#bfbfbf" stroke="black" points="0,-263.5 0,-293.5 146,-293.5 146,-263.5 0,-263.5"/>
<text text-anchor="start" x="8" y="-281.5" font-family="Helvetica,sans-Serif" font-size="10.00">CFuncs::ScriptGetKeyCombo</text>
<text text-anchor="middle" x="73" y="-270.5" font-family="Helvetica,sans-Serif" font-size="10.00">ArrayFromTrickArray</text>
</a>
</g>
</g>
<!-- Node2 -->
<g id="node2" class="node"><title>Node2</title>
<g id="a_node2"><a xlink:href="../../d2/df7/class_script_1_1_c_struct.html#a8aaf5376a48834b041fe04298abc6f5d" target="_top" xlink:title=" ">
<polygon fill="white" stroke="black" points="190,-415 190,-434 318,-434 318,-415 190,-415"/>
<text text-anchor="middle" x="254" y="-422" font-family="Helvetica,sans-Serif" font-size="10.00">Script::CStruct::AddArray</text>
</a>
</g>
</g>
<!-- Node1&#45;&gt;Node2 -->
<g id="edge1" class="edge"><title>Node1&#45;&gt;Node2</title>
<path fill="none" stroke="midnightblue" d="M92.4819,-293.575C126.409,-321.247 198.333,-379.911 233.21,-408.359"/>
<polygon fill="midnightblue" stroke="midnightblue" points="231.272,-411.295 241.234,-414.903 235.697,-405.87 231.272,-411.295"/>
</g>
<!-- Node11 -->
<g id="node11" class="node"><title>Node11</title>
<g id="a_node11"><a xlink:href="../../d0/d0b/class_script_1_1_c_array.html#a71c761bdce14193b10bf3c88372ba5a0" target="_top" xlink:title=" ">
<polygon fill="white" stroke="black" points="949,-514 949,-533 1068,-533 1068,-514 949,-514"/>
<text text-anchor="middle" x="1008.5" y="-521" font-family="Helvetica,sans-Serif" font-size="10.00">Script::CArray::GetSize</text>
</a>
</g>
</g>
<!-- Node1&#45;&gt;Node11 -->
<g id="edge56" class="edge"><title>Node1&#45;&gt;Node11</title>
<path fill="none" stroke="midnightblue" d="M79.9247,-293.604C93.2815,-325.767 128.787,-401.504 182,-443.5 276.907,-518.4 317.098,-535.5 438,-535.5 438,-535.5 438,-535.5 626,-535.5 735.173,-535.5 861.832,-530.53 938.255,-526.987"/>
<polygon fill="midnightblue" stroke="midnightblue" points="938.873,-530.462 948.699,-526.497 938.545,-523.47 938.873,-530.462"/>
</g>
<!-- Node13 -->
<g id="node13" class="node"><title>Node13</title>
<g id="a_node13"><a xlink:href="../../d1/d54/namespace_script.html#ae80ed69ea4edcbcbbbd4985a6efdcd6e" target="_top" xlink:title=" ">
<polygon fill="white" stroke="black" points="743,-241 743,-260 882,-260 882,-241 743,-241"/>
<text text-anchor="middle" x="812.5" y="-248" font-family="Helvetica,sans-Serif" font-size="10.00">Script::FindChecksumName</text>
</a>
</g>
</g>
<!-- Node1&#45;&gt;Node13 -->
<g id="edge40" class="edge"><title>Node1&#45;&gt;Node13</title>
<path fill="none" stroke="midnightblue" d="M138.076,-263.486C210.013,-246.48 317.842,-220.475 326,-215.5 346.704,-202.874 339.909,-184.501 362,-174.5 511.431,-106.848 713.519,-198.547 785.065,-235.923"/>
<polygon fill="midnightblue" stroke="midnightblue" points="783.802,-239.215 794.275,-240.814 787.085,-233.033 783.802,-239.215"/>
</g>
<!-- Node25 -->
<g id="node25" class="node"><title>Node25</title>
<g id="a_node25"><a xlink:href="../../d0/d0b/class_script_1_1_c_array.html#a54248747f1372c9247b71703853e5bfc" target="_top" xlink:title=" ">
<polygon fill="white" stroke="black" points="734,-782 734,-801 891,-801 891,-782 734,-782"/>
<text text-anchor="middle" x="812.5" y="-789" font-family="Helvetica,sans-Serif" font-size="10.00">Script::CArray::SetSizeAndType</text>
</a>
</g>
</g>
<!-- Node1&#45;&gt;Node25 -->
<g id="edge67" class="edge"><title>Node1&#45;&gt;Node25</title>
<path fill="none" stroke="midnightblue" d="M75.7907,-293.715C81.9039,-338.997 105.974,-474.398 182,-549.5 334.317,-699.967 590.221,-758.951 724.011,-780.373"/>
<polygon fill="midnightblue" stroke="midnightblue" points="723.794,-783.882 734.215,-781.972 724.877,-776.966 723.794,-783.882"/>
</g>
<!-- Node26 -->
<g id="node26" class="node"><title>Node26</title>
<g id="a_node26"><a xlink:href="../../d2/df7/class_script_1_1_c_struct.html#af0638a7b3a0ea5a15b3f4ee0536869c9" target="_top" xlink:title=" ">
<polygon fill="white" stroke="black" points="191,-313 191,-332 317,-332 317,-313 191,-313"/>
<text text-anchor="middle" x="254" y="-320" font-family="Helvetica,sans-Serif" font-size="10.00">Script::CStruct::GetArray</text>
</a>
</g>
</g>
<!-- Node1&#45;&gt;Node26 -->
<g id="edge41" class="edge"><title>Node1&#45;&gt;Node26</title>
<path fill="none" stroke="midnightblue" d="M135.101,-293.519C157.746,-299.086 183.097,-305.317 204.472,-310.571"/>
<polygon fill="midnightblue" stroke="midnightblue" points="203.755,-313.999 214.302,-312.988 205.426,-307.202 203.755,-313.999"/>
</g>
<!-- Node31 -->
<g id="node31" class="node"><title>Node31</title>
<g id="a_node31"><a xlink:href="../../d0/d0b/class_script_1_1_c_array.html#a5fbc2c9d1db2c87fb4633333ef989559" target="_top" xlink:title=" ">
<polygon fill="white" stroke="black" points="552,-896 552,-915 698,-915 698,-896 552,-896"/>
<text text-anchor="middle" x="625" y="-903" font-family="Helvetica,sans-Serif" font-size="10.00">Script::CArray::GetChecksum</text>
</a>
</g>
</g>
<!-- Node1&#45;&gt;Node31 -->
<g id="edge51" class="edge"><title>Node1&#45;&gt;Node31</title>
<path fill="none" stroke="midnightblue" d="M75.0104,-293.619C80.4084,-369.611 108.403,-708.91 182,-777.5 291.711,-879.746 377.3,-768.464 516,-825.5 552.227,-840.397 587.383,-870.157 607.295,-888.882"/>
<polygon fill="midnightblue" stroke="midnightblue" points="604.986,-891.517 614.62,-895.925 609.837,-886.471 604.986,-891.517"/>
</g>
<!-- Node32 -->
<g id="node32" class="node"><title>Node32</title>
<g id="a_node32"><a xlink:href="../../d6/df1/class_mdl_1_1_skate.html#ad701fe82672b2bf2a9c5a9ce894bb5d7" target="_top" xlink:title=" ">
<polygon fill="white" stroke="black" points="182,-187 182,-206 326,-206 326,-187 182,-187"/>
<text text-anchor="middle" x="254" y="-194" font-family="Helvetica,sans-Serif" font-size="10.00">Mdl::Skate::GetCurrentProfile</text>
</a>
</g>
</g>
<!-- Node1&#45;&gt;Node32 -->
<g id="edge53" class="edge"><title>Node1&#45;&gt;Node32</title>
<path fill="none" stroke="midnightblue" d="M99.1522,-263.439C120.669,-250.936 152.714,-233.208 182,-220.5 191.4,-216.421 201.735,-212.581 211.541,-209.218"/>
<polygon fill="midnightblue" stroke="midnightblue" points="212.738,-212.508 221.116,-206.023 210.522,-205.868 212.738,-212.508"/>
</g>
<!-- Node33 -->
<g id="node33" class="node"><title>Node33</title>
<g id="a_node33"><a xlink:href="../../d5/d28/class_obj_1_1_c_skater_profile.html#a98e43fd942a07146da6b6a7111e8631f" target="_top" xlink:title=" ">
<polygon fill="white" stroke="black" points="187,-137.5 187,-167.5 321,-167.5 321,-137.5 187,-137.5"/>
<text text-anchor="start" x="195" y="-155.5" font-family="Helvetica,sans-Serif" font-size="10.00">Obj::CSkaterProfile</text>
<text text-anchor="middle" x="254" y="-144.5" font-family="Helvetica,sans-Serif" font-size="10.00">::GetNumSpecialTrickSlots</text>
</a>
</g>
</g>
<!-- Node1&#45;&gt;Node33 -->
<g id="edge54" class="edge"><title>Node1&#45;&gt;Node33</title>
<path fill="none" stroke="midnightblue" d="M86.4577,-263.417C105.148,-241.662 142.491,-201.465 182,-177.5 185.361,-175.461 188.912,-173.557 192.562,-171.783"/>
<polygon fill="midnightblue" stroke="midnightblue" points="194.1,-174.929 201.789,-167.64 191.232,-168.543 194.1,-174.929"/>
</g>
<!-- Node34 -->
<g id="node34" class="node"><title>Node34</title>
<g id="a_node34"><a xlink:href="../../db/df2/class_script_1_1_c_script.html#a95b75cd110a15699d07bef528f96d7aa" target="_top" xlink:title=" ">
<polygon fill="white" stroke="black" points="186,-99 186,-118 322,-118 322,-99 186,-99"/>
<text text-anchor="middle" x="254" y="-106" font-family="Helvetica,sans-Serif" font-size="10.00">Script::CScript::GetParams</text>
</a>
</g>
</g>
<!-- Node1&#45;&gt;Node34 -->
<g id="edge55" class="edge"><title>Node1&#45;&gt;Node34</title>
<path fill="none" stroke="midnightblue" d="M80.4585,-263.431C94.3485,-232.873 130.066,-163.466 182,-127.5 184.867,-125.515 187.931,-123.737 191.117,-122.144"/>
<polygon fill="midnightblue" stroke="midnightblue" points="192.58,-125.325 200.357,-118.131 189.791,-118.904 192.58,-125.325"/>
</g>
<!-- Node35 -->
<g id="node35" class="node"><title>Node35</title>
<g id="a_node35"><a xlink:href="../../d5/d28/class_obj_1_1_c_skater_profile.html#a58743899c2cd001e4588bfbb4cbf8c33" target="_top" xlink:title=" ">
<polygon fill="white" stroke="black" points="200.5,-49.5 200.5,-79.5 307.5,-79.5 307.5,-49.5 200.5,-49.5"/>
<text text-anchor="start" x="208.5" y="-67.5" font-family="Helvetica,sans-Serif" font-size="10.00">Obj::CSkaterProfile</text>
<text text-anchor="middle" x="254" y="-56.5" font-family="Helvetica,sans-Serif" font-size="10.00">::GetSpecialTrickInfo</text>
</a>
</g>
</g>
<!-- Node1&#45;&gt;Node35 -->
<g id="edge57" class="edge"><title>Node1&#45;&gt;Node35</title>
<path fill="none" stroke="midnightblue" d="M78.5631,-263.346C90.0235,-227.802 123.372,-138.393 182,-89.5 184.879,-87.0989 188.005,-84.9221 191.285,-82.9493"/>
<polygon fill="midnightblue" stroke="midnightblue" points="193.07,-85.9646 200.268,-78.1901 189.793,-79.7791 193.07,-85.9646"/>
</g>
<!-- Node36 -->
<g id="node36" class="node"><title>Node36</title>
<g id="a_node36"><a xlink:href="../../d5/d28/class_obj_1_1_c_skater_profile.html#a01cd76009b7178b4858c66d0abc20696" target="_top" xlink:title=" ">
<polygon fill="white" stroke="black" points="204,-0.5 204,-30.5 304,-30.5 304,-0.5 204,-0.5"/>
<text text-anchor="start" x="212" y="-18.5" font-family="Helvetica,sans-Serif" font-size="10.00">Obj::CSkaterProfile</text>
<text text-anchor="middle" x="254" y="-7.5" font-family="Helvetica,sans-Serif" font-size="10.00">::GetTrickMapping</text>
</a>
</g>
</g>
<!-- Node1&#45;&gt;Node36 -->
<g id="edge58" class="edge"><title>Node1&#45;&gt;Node36</title>
<path fill="none" stroke="midnightblue" d="M76.5086,-263.453C84.2529,-221.692 111.648,-103.245 182,-39.5 185.819,-36.0394 190.156,-33.0752 194.759,-30.5365"/>
<polygon fill="midnightblue" stroke="midnightblue" points="196.374,-33.644 203.874,-26.1605 193.344,-27.3337 196.374,-33.644"/>
</g>
<!-- Node37 -->
<g id="node37" class="node"><title>Node37</title>
<g id="a_node37"><a xlink:href="../../db/d54/namespace_c_funcs.html#a71aa6f5fdcfff52ef97620d8dcd6892b" target="_top" xlink:title=" ">
<polygon fill="white" stroke="black" points="201,-263.5 201,-293.5 307,-293.5 307,-263.5 201,-263.5"/>
<text text-anchor="start" x="209" y="-281.5" font-family="Helvetica,sans-Serif" font-size="10.00">CFuncs::s_find_trick</text>
<text text-anchor="middle" x="254" y="-270.5" font-family="Helvetica,sans-Serif" font-size="10.00">_in_mapping</text>
</a>
</g>
</g>
<!-- Node1&#45;&gt;Node37 -->
<g id="edge59" class="edge"><title>Node1&#45;&gt;Node37</title>
<path fill="none" stroke="midnightblue" d="M146.032,-278.5C160.807,-278.5 176.243,-278.5 190.643,-278.5"/>
<polygon fill="midnightblue" stroke="midnightblue" points="190.921,-282 200.921,-278.5 190.921,-275 190.921,-282"/>
</g>
<!-- Node40 -->
<g id="node40" class="node"><title>Node40</title>
<g id="a_node40"><a xlink:href="../../d0/d0b/class_script_1_1_c_array.html#a670cfd79d509aec1becc306aa5295859" target="_top" xlink:title=" ">
<polygon fill="white" stroke="black" points="552,-986 552,-1005 698,-1005 698,-986 552,-986"/>
<text text-anchor="middle" x="625" y="-993" font-family="Helvetica,sans-Serif" font-size="10.00">Script::CArray::SetChecksum</text>
</a>
</g>
</g>
<!-- Node1&#45;&gt;Node40 -->
<g id="edge65" class="edge"><title>Node1&#45;&gt;Node40</title>
<path fill="none" stroke="midnightblue" d="M75.147,-293.566C81.3676,-371.69 113.342,-730.259 182,-813.5 272.743,-923.516 440.832,-967.842 541.534,-985.095"/>
<polygon fill="midnightblue" stroke="midnightblue" points="541.226,-988.591 551.665,-986.778 542.374,-981.686 541.226,-988.591"/>
</g>
<!-- Node3 -->
<g id="node3" class="node"><title>Node3</title>
<g id="a_node3"><a xlink:href="../../d2/df7/class_script_1_1_c_struct.html#a3872f7f0a9ebcc695745aabeefab2796" target="_top" xlink:title=" ">
<polygon fill="white" stroke="black" points="362,-415 362,-434 516,-434 516,-415 362,-415"/>
<text text-anchor="middle" x="439" y="-422" font-family="Helvetica,sans-Serif" font-size="10.00">Script::CStruct::AddComponent</text>
</a>
</g>
</g>
<!-- Node2&#45;&gt;Node3 -->
<g id="edge2" class="edge"><title>Node2&#45;&gt;Node3</title>
<path fill="none" stroke="midnightblue" d="M318.234,-424.5C328.992,-424.5 340.327,-424.5 351.56,-424.5"/>
<polygon fill="midnightblue" stroke="midnightblue" points="351.828,-428 361.828,-424.5 351.828,-421 351.828,-428"/>
</g>
<!-- Node17 -->
<g id="node17" class="node"><title>Node17</title>
<g id="a_node17"><a xlink:href="../../d1/d54/namespace_script.html#ad1f3512d616e10c07e61d76ff0ee5968" target="_top" xlink:title=" ">
<polygon fill="white" stroke="black" points="578,-659 578,-678 672,-678 672,-659 578,-659"/>
<text text-anchor="middle" x="625" y="-666" font-family="Helvetica,sans-Serif" font-size="10.00">Script::CopyArray</text>
</a>
</g>
</g>
<!-- Node2&#45;&gt;Node17 -->
<g id="edge20" class="edge"><title>Node2&#45;&gt;Node17</title>
<path fill="none" stroke="midnightblue" d="M269.465,-434.065C325.83,-471.336 531.059,-607.043 600.699,-653.093"/>
<polygon fill="midnightblue" stroke="midnightblue" points="598.962,-656.14 609.234,-658.736 602.823,-650.301 598.962,-656.14"/>
</g>
<!-- Node4 -->
<g id="node4" class="node"><title>Node4</title>
<g id="a_node4"><a xlink:href="../../d1/d54/namespace_script.html#a1dd030523ebaecb95103d181f6fd382e" target="_top" xlink:title=" ">
<polygon fill="white" stroke="black" points="558,-469 558,-488 692,-488 692,-469 558,-469"/>
<text text-anchor="middle" x="625" y="-476" font-family="Helvetica,sans-Serif" font-size="10.00">Script::CleanUpComponent</text>
</a>
</g>
</g>
<!-- Node3&#45;&gt;Node4 -->
<g id="edge3" class="edge"><title>Node3&#45;&gt;Node4</title>
<path fill="none" stroke="midnightblue" d="M472.472,-434.03C502.859,-442.948 548.429,-456.321 581.658,-466.074"/>
<polygon fill="midnightblue" stroke="midnightblue" points="580.963,-469.517 591.544,-468.975 582.934,-462.8 580.963,-469.517"/>
</g>
<!-- Node3&#45;&gt;Node13 -->
<g id="edge16" class="edge"><title>Node3&#45;&gt;Node13</title>
<path fill="none" stroke="midnightblue" d="M481.559,-414.887C534.904,-401.222 628.818,-372.593 698,-326.5 717.361,-313.601 715.259,-302.284 734,-288.5 747.143,-278.833 763.125,-270.516 777.153,-264.148"/>
<polygon fill="midnightblue" stroke="midnightblue" points="778.737,-267.276 786.494,-260.059 775.93,-260.863 778.737,-267.276"/>
</g>
<!-- Node5 -->
<g id="node5" class="node"><title>Node5</title>
<g id="a_node5"><a xlink:href="../../d1/d54/namespace_script.html#a3dd60f29ada8a33fda9f4e842f1cabc1" target="_top" xlink:title=" ">
<polygon fill="white" stroke="black" points="758.5,-602 758.5,-621 866.5,-621 866.5,-602 758.5,-602"/>
<text text-anchor="middle" x="812.5" y="-609" font-family="Helvetica,sans-Serif" font-size="10.00">Script::CleanUpArray</text>
</a>
</g>
</g>
<!-- Node4&#45;&gt;Node5 -->
<g id="edge4" class="edge"><title>Node4&#45;&gt;Node5</title>
<path fill="none" stroke="midnightblue" d="M639.341,-488.065C670.95,-510.728 750.658,-567.878 789.518,-595.74"/>
<polygon fill="midnightblue" stroke="midnightblue" points="787.865,-598.86 798.031,-601.843 791.943,-593.172 787.865,-598.86"/>
</g>
<!-- Node7 -->
<g id="node7" class="node"><title>Node7</title>
<g id="a_node7"><a xlink:href="../../db/dc4/namespace_mem.html#aeedb606ea94a3398fdcfa3101c5ea8d9" target="_top" xlink:title=" ">
<polygon fill="white" stroke="black" points="1173.5,-476 1173.5,-495 1237.5,-495 1237.5,-476 1173.5,-476"/>
<text text-anchor="middle" x="1205.5" y="-483" font-family="Helvetica,sans-Serif" font-size="10.00">Mem::Free</text>
</a>
</g>
</g>
<!-- Node4&#45;&gt;Node7 -->
<g id="edge15" class="edge"><title>Node4&#45;&gt;Node7</title>
<path fill="none" stroke="midnightblue" d="M692.207,-472.304C782.346,-464.892 948.654,-454.852 1090,-466.5 1114.44,-468.514 1141.53,-472.909 1163.22,-476.964"/>
<polygon fill="midnightblue" stroke="midnightblue" points="1162.6,-480.41 1173.08,-478.855 1163.92,-473.535 1162.6,-480.41"/>
</g>
<!-- Node9 -->
<g id="node9" class="node"><title>Node9</title>
<g id="a_node9"><a xlink:href="../../d1/d54/namespace_script.html#a99857fb30343d0c999af4db73344cece" target="_top" xlink:title=" ">
<polygon fill="white" stroke="black" points="958,-476 958,-495 1059,-495 1059,-476 958,-476"/>
<text text-anchor="middle" x="1008.5" y="-483" font-family="Helvetica,sans-Serif" font-size="10.00">Script::DeleteString</text>
</a>
</g>
</g>
<!-- Node4&#45;&gt;Node9 -->
<g id="edge14" class="edge"><title>Node4&#45;&gt;Node9</title>
<path fill="none" stroke="midnightblue" d="M692.017,-479.711C763.927,-481.031 877.952,-483.123 947.432,-484.398"/>
<polygon fill="midnightblue" stroke="midnightblue" points="947.706,-487.903 957.768,-484.587 947.834,-480.905 947.706,-487.903"/>
</g>
<!-- Node6 -->
<g id="node6" class="node"><title>Node6</title>
<g id="a_node6"><a xlink:href="../../d0/d0b/class_script_1_1_c_array.html#a4b347b8b448dd652473dd6afe9aba2c2" target="_top" xlink:title=" ">
<polygon fill="white" stroke="black" points="955,-678 955,-697 1062,-697 1062,-678 955,-678"/>
<text text-anchor="middle" x="1008.5" y="-685" font-family="Helvetica,sans-Serif" font-size="10.00">Script::CArray::Clear</text>
</a>
</g>
</g>
<!-- Node5&#45;&gt;Node6 -->
<g id="edge5" class="edge"><title>Node5&#45;&gt;Node6</title>
<path fill="none" stroke="midnightblue" d="M829.506,-621.05C851.011,-633.523 890.733,-655.319 927,-668.5 934.038,-671.058 941.549,-673.362 949.048,-675.41"/>
<polygon fill="midnightblue" stroke="midnightblue" points="948.301,-678.832 958.859,-677.954 950.058,-672.056 948.301,-678.832"/>
</g>
<!-- Node8 -->
<g id="node8" class="node"><title>Node8</title>
<g id="a_node8"><a xlink:href="../../d1/d54/namespace_script.html#af32f99ba26ca0f255240413a4e23a754" target="_top" xlink:title=" ">
<polygon fill="white" stroke="black" points="1150.5,-697 1150.5,-716 1260.5,-716 1260.5,-697 1150.5,-697"/>
<text text-anchor="middle" x="1205.5" y="-704" font-family="Helvetica,sans-Serif" font-size="10.00">Script::GetTypeName</text>
</a>
</g>
</g>
<!-- Node5&#45;&gt;Node8 -->
<g id="edge13" class="edge"><title>Node5&#45;&gt;Node8</title>
<path fill="none" stroke="midnightblue" d="M844.697,-601.974C872.516,-593.666 911.209,-582.618 927,-580.5 998.802,-570.871 1023.75,-551.186 1090,-580.5 1140.03,-602.636 1177.56,-658.622 1194.52,-687.943"/>
<polygon fill="midnightblue" stroke="midnightblue" points="1191.53,-689.765 1199.47,-696.778 1197.64,-686.343 1191.53,-689.765"/>
</g>
<!-- Node5&#45;&gt;Node9 -->
<g id="edge8" class="edge"><title>Node5&#45;&gt;Node9</title>
<path fill="none" stroke="midnightblue" d="M820.818,-601.748C837.285,-580.532 879.549,-530.045 927,-504.5 933.52,-500.99 940.678,-498.123 947.955,-495.783"/>
<polygon fill="midnightblue" stroke="midnightblue" points="949.267,-499.047 957.901,-492.907 947.322,-492.323 949.267,-499.047"/>
</g>
<!-- Node10 -->
<g id="node10" class="node"><title>Node10</title>
<g id="a_node10"><a xlink:href="../../d0/d0b/class_script_1_1_c_array.html#a600fcbd0b8fd9d1df2ee87d77494db7a" target="_top" xlink:title=" ">
<polygon fill="white" stroke="black" points="947,-628.5 947,-658.5 1070,-658.5 1070,-628.5 947,-628.5"/>
<text text-anchor="start" x="955" y="-646.5" font-family="Helvetica,sans-Serif" font-size="10.00">Script::CArray::GetArray</text>
<text text-anchor="middle" x="1008.5" y="-635.5" font-family="Helvetica,sans-Serif" font-size="10.00">Pointer</text>
</a>
</g>
</g>
<!-- Node5&#45;&gt;Node10 -->
<g id="edge10" class="edge"><title>Node5&#45;&gt;Node10</title>
<path fill="none" stroke="midnightblue" d="M866.511,-620.244C888.109,-623.807 913.397,-627.978 936.548,-631.797"/>
<polygon fill="midnightblue" stroke="midnightblue" points="936.23,-635.291 946.666,-633.466 937.369,-628.385 936.23,-635.291"/>
</g>
<!-- Node5&#45;&gt;Node11 -->
<g id="edge11" class="edge"><title>Node5&#45;&gt;Node11</title>
<path fill="none" stroke="midnightblue" d="M858.755,-601.936C869.823,-598.424 881.271,-593.724 891,-587.5 911.147,-574.611 906.785,-560.283 927,-547.5 934.087,-543.018 942.052,-539.339 950.143,-536.328"/>
<polygon fill="midnightblue" stroke="midnightblue" points="951.313,-539.627 959.653,-533.092 949.059,-533 951.313,-539.627"/>
</g>
<!-- Node12 -->
<g id="node12" class="node"><title>Node12</title>
<g id="a_node12"><a xlink:href="../../d0/d0b/class_script_1_1_c_array.html#a68067b67ca9aae7b9214c0add1d8934e" target="_top" xlink:title=" ">
<polygon fill="white" stroke="black" points="948,-590 948,-609 1069,-609 1069,-590 948,-590"/>
<text text-anchor="middle" x="1008.5" y="-597" font-family="Helvetica,sans-Serif" font-size="10.00">Script::CArray::GetType</text>
</a>
</g>
</g>
<!-- Node5&#45;&gt;Node12 -->
<g id="edge12" class="edge"><title>Node5&#45;&gt;Node12</title>
<path fill="none" stroke="midnightblue" d="M866.511,-608.221C888.402,-606.867 914.084,-605.278 937.489,-603.831"/>
<polygon fill="midnightblue" stroke="midnightblue" points="937.946,-607.309 947.711,-603.198 937.514,-600.322 937.946,-607.309"/>
</g>
<!-- Node6&#45;&gt;Node7 -->
<g id="edge6" class="edge"><title>Node6&#45;&gt;Node7</title>
<path fill="none" stroke="midnightblue" d="M1062.3,-681.257C1072.11,-678.428 1081.83,-674.355 1090,-668.5 1149.06,-626.182 1184.33,-543.012 1197.98,-505.131"/>
<polygon fill="midnightblue" stroke="midnightblue" points="1201.41,-505.914 1201.39,-495.319 1194.8,-503.616 1201.41,-505.914"/>
</g>
<!-- Node6&#45;&gt;Node8 -->
<g id="edge7" class="edge"><title>Node6&#45;&gt;Node8</title>
<path fill="none" stroke="midnightblue" d="M1062.01,-692.617C1086.01,-694.954 1114.65,-697.746 1139.95,-700.21"/>
<polygon fill="midnightblue" stroke="midnightblue" points="1139.9,-703.722 1150.19,-701.209 1140.58,-696.755 1139.9,-703.722"/>
</g>
<!-- Node9&#45;&gt;Node7 -->
<g id="edge9" class="edge"><title>Node9&#45;&gt;Node7</title>
<path fill="none" stroke="midnightblue" d="M1059.21,-485.5C1091.41,-485.5 1132.85,-485.5 1163.22,-485.5"/>
<polygon fill="midnightblue" stroke="midnightblue" points="1163.47,-489 1173.47,-485.5 1163.47,-482 1163.47,-489"/>
</g>
<!-- Node14 -->
<g id="node14" class="node"><title>Node14</title>
<g id="a_node14"><a xlink:href="../../d1/d54/namespace_script.html#a5cc52c4ff5ea5bb27681d819212dfdca" target="_top" xlink:title=" ">
<polygon fill="white" stroke="black" points="927,-222 927,-241 1090,-241 1090,-222 927,-222"/>
<text text-anchor="middle" x="1008.5" y="-229" font-family="Helvetica,sans-Serif" font-size="10.00">Script::FindChecksumNameNULL</text>
</a>
</g>
</g>
<!-- Node13&#45;&gt;Node14 -->
<g id="edge17" class="edge"><title>Node13&#45;&gt;Node14</title>
<path fill="none" stroke="midnightblue" d="M882.17,-243.775C893.383,-242.676 905.149,-241.524 916.793,-240.384"/>
<polygon fill="midnightblue" stroke="midnightblue" points="917.367,-243.844 926.978,-239.386 916.685,-236.878 917.367,-243.844"/>
</g>
<!-- Node16 -->
<g id="node16" class="node"><title>Node16</title>
<g id="a_node16"><a xlink:href="../../da/d37/namespace_dbg.html#ab406a8cc16de5046c7d9fd09c9de5e22" target="_top" xlink:title=" ">
<polygon fill="white" stroke="black" points="975.5,-260 975.5,-279 1041.5,-279 1041.5,-260 975.5,-260"/>
<text text-anchor="middle" x="1008.5" y="-267" font-family="Helvetica,sans-Serif" font-size="10.00">Dbg::sprintf</text>
</a>
</g>
</g>
<!-- Node13&#45;&gt;Node16 -->
<g id="edge19" class="edge"><title>Node13&#45;&gt;Node16</title>
<path fill="none" stroke="midnightblue" d="M882.17,-257.225C909.924,-259.944 941.07,-262.994 965.37,-265.374"/>
<polygon fill="midnightblue" stroke="midnightblue" points="965.042,-268.858 975.335,-266.35 965.724,-261.892 965.042,-268.858"/>
</g>
<!-- Node15 -->
<g id="node15" class="node"><title>Node15</title>
<g id="a_node15"><a xlink:href="../../d0/d31/namespace_config.html#a709cc81780d49900157e3476b63aa25d" target="_top" xlink:title=" ">
<polygon fill="white" stroke="black" points="1143.5,-222 1143.5,-241 1267.5,-241 1267.5,-222 1143.5,-222"/>
<text text-anchor="middle" x="1205.5" y="-229" font-family="Helvetica,sans-Serif" font-size="10.00">Config::GotExtraMemory</text>
</a>
</g>
</g>
<!-- Node14&#45;&gt;Node15 -->
<g id="edge18" class="edge"><title>Node14&#45;&gt;Node15</title>
<path fill="none" stroke="midnightblue" d="M1090.22,-231.5C1104.55,-231.5 1119.39,-231.5 1133.43,-231.5"/>
<polygon fill="midnightblue" stroke="midnightblue" points="1133.49,-235 1143.49,-231.5 1133.49,-228 1133.49,-235"/>
</g>
<!-- Node17&#45;&gt;Node5 -->
<g id="edge21" class="edge"><title>Node17&#45;&gt;Node5</title>
<path fill="none" stroke="midnightblue" d="M657.049,-658.959C688.214,-649.383 736.391,-634.579 770.643,-624.054"/>
<polygon fill="midnightblue" stroke="midnightblue" points="771.819,-627.355 780.35,-621.072 769.763,-620.663 771.819,-627.355"/>
</g>
<!-- Node17&#45;&gt;Node8 -->
<g id="edge32" class="edge"><title>Node17&#45;&gt;Node8</title>
<path fill="none" stroke="midnightblue" d="M672.237,-676.171C731.178,-685.527 836.32,-700.799 927,-706.5 999.99,-711.089 1083.99,-710.236 1140.28,-708.781"/>
<polygon fill="midnightblue" stroke="midnightblue" points="1140.56,-712.275 1150.46,-708.503 1140.37,-705.277 1140.56,-712.275"/>
</g>
<!-- Node17&#45;&gt;Node10 -->
<g id="edge29" class="edge"><title>Node17&#45;&gt;Node10</title>
<path fill="none" stroke="midnightblue" d="M672.078,-669.735C725.035,-670.666 814.497,-670.747 891,-663.5 905.857,-662.093 921.673,-659.871 936.705,-657.412"/>
<polygon fill="midnightblue" stroke="midnightblue" points="937.689,-660.795 946.966,-655.678 936.522,-653.893 937.689,-660.795"/>
</g>
<!-- Node17&#45;&gt;Node11 -->
<g id="edge30" class="edge"><title>Node17&#45;&gt;Node11</title>
<path fill="none" stroke="midnightblue" d="M636.816,-658.809C655.367,-642.691 695.032,-610.379 734,-592.5 754.165,-583.248 882.843,-552.516 956.292,-535.353"/>
<polygon fill="midnightblue" stroke="midnightblue" points="957.329,-538.705 966.272,-533.025 955.738,-531.888 957.329,-538.705"/>
</g>
<!-- Node17&#45;&gt;Node12 -->
<g id="edge31" class="edge"><title>Node17&#45;&gt;Node12</title>
<path fill="none" stroke="midnightblue" d="M672.349,-664.043C725.555,-658.421 815.245,-647.399 891,-630.5 907.329,-626.857 910.876,-623.963 927,-619.5 936.785,-616.792 947.285,-614.058 957.365,-611.519"/>
<polygon fill="midnightblue" stroke="midnightblue" points="958.406,-614.867 967.263,-609.053 956.713,-608.074 958.406,-614.867"/>
</g>
<!-- Node18 -->
<g id="node18" class="node"><title>Node18</title>
<g id="a_node18"><a xlink:href="../../d1/d54/namespace_script.html#a0bd06d53a8bc5c49aa4561a3ccbbd13a" target="_top" xlink:title=" ">
<polygon fill="white" stroke="black" points="761.5,-839 761.5,-858 863.5,-858 863.5,-839 761.5,-839"/>
<text text-anchor="middle" x="812.5" y="-846" font-family="Helvetica,sans-Serif" font-size="10.00">Script::CreateString</text>
</a>
</g>
</g>
<!-- Node17&#45;&gt;Node18 -->
<g id="edge22" class="edge"><title>Node17&#45;&gt;Node18</title>
<path fill="none" stroke="midnightblue" d="M631.312,-678.36C645.205,-703.374 684.958,-770.171 734,-810.5 746.225,-820.553 761.556,-828.78 775.348,-834.975"/>
<polygon fill="midnightblue" stroke="midnightblue" points="774.023,-838.216 784.593,-838.938 776.78,-831.781 774.023,-838.216"/>
</g>
<!-- Node17&#45;&gt;Node25 -->
<g id="edge33" class="edge"><title>Node17&#45;&gt;Node25</title>
<path fill="none" stroke="midnightblue" d="M640.556,-678.152C672.659,-699.438 749.753,-750.557 788.48,-776.236"/>
<polygon fill="midnightblue" stroke="midnightblue" points="786.743,-779.284 797.012,-781.893 790.612,-773.45 786.743,-779.284"/>
</g>
<!-- Node19 -->
<g id="node19" class="node"><title>Node19</title>
<g id="a_node19"><a xlink:href="../../db/dc4/namespace_mem.html#a10246603d03405159c82320b96e3efbf" target="_top" xlink:title=" ">
<polygon fill="white" stroke="black" points="972,-868 972,-887 1045,-887 1045,-868 972,-868"/>
<text text-anchor="middle" x="1008.5" y="-875" font-family="Helvetica,sans-Serif" font-size="10.00">Mem::Malloc</text>
</a>
</g>
</g>
<!-- Node18&#45;&gt;Node19 -->
<g id="edge23" class="edge"><title>Node18&#45;&gt;Node19</title>
<path fill="none" stroke="midnightblue" d="M863.712,-856.006C894.041,-860.54 932.395,-866.273 961.862,-870.678"/>
<polygon fill="midnightblue" stroke="midnightblue" points="961.479,-874.159 971.887,-872.176 962.514,-867.236 961.479,-874.159"/>
</g>
<!-- Node20 -->
<g id="node20" class="node"><title>Node20</title>
<g id="a_node20"><a xlink:href="../../d2/d0a/class_mem_1_1_manager.html#a7c4cba14870f002aee0243e16114f443" target="_top" xlink:title=" ">
<polygon fill="white" stroke="black" points="939,-830 939,-849 1078,-849 1078,-830 939,-830"/>
<text text-anchor="middle" x="1008.5" y="-837" font-family="Helvetica,sans-Serif" font-size="10.00">Mem::Manager::PopContext</text>
</a>
</g>
</g>
<!-- Node18&#45;&gt;Node20 -->
<g id="edge24" class="edge"><title>Node18&#45;&gt;Node20</title>
<path fill="none" stroke="midnightblue" d="M863.712,-846.171C883.573,-845.249 906.875,-844.168 928.87,-843.148"/>
<polygon fill="midnightblue" stroke="midnightblue" points="929.039,-846.644 938.866,-842.684 928.715,-839.651 929.039,-846.644"/>
</g>
<!-- Node21 -->
<g id="node21" class="node"><title>Node21</title>
<g id="a_node21"><a xlink:href="../../d2/d0a/class_mem_1_1_manager.html#aaf8e36abc36eecabe46bf2582035192a" target="_top" xlink:title=" ">
<polygon fill="white" stroke="black" points="936.5,-792 936.5,-811 1080.5,-811 1080.5,-792 936.5,-792"/>
<text text-anchor="middle" x="1008.5" y="-799" font-family="Helvetica,sans-Serif" font-size="10.00">Mem::Manager::PushContext</text>
</a>
</g>
</g>
<!-- Node18&#45;&gt;Node21 -->
<g id="edge25" class="edge"><title>Node18&#45;&gt;Node21</title>
<path fill="none" stroke="midnightblue" d="M851.828,-838.943C873.815,-833.486 901.944,-826.547 927,-820.5 936.531,-818.2 946.705,-815.775 956.5,-813.455"/>
<polygon fill="midnightblue" stroke="midnightblue" points="957.601,-816.792 966.529,-811.086 955.992,-809.979 957.601,-816.792"/>
</g>
<!-- Node22 -->
<g id="node22" class="node"><title>Node22</title>
<g id="a_node22"><a xlink:href="../../d1/d54/namespace_script.html#a095cc885af5d5c378020ceb75f2d587f" target="_top" xlink:title=" ">
<polygon fill="white" stroke="black" points="928,-944 928,-963 1089,-963 1089,-944 928,-944"/>
<text text-anchor="middle" x="1008.5" y="-951" font-family="Helvetica,sans-Serif" font-size="10.00">Script::sAddToSpecialStringHeap</text>
</a>
</g>
</g>
<!-- Node18&#45;&gt;Node22 -->
<g id="edge26" class="edge"><title>Node18&#45;&gt;Node22</title>
<path fill="none" stroke="midnightblue" d="M823.182,-858.146C841.684,-876.014 884.056,-914.278 927,-934.5 932.243,-936.969 937.834,-939.132 943.532,-941.024"/>
<polygon fill="midnightblue" stroke="midnightblue" points="942.596,-944.397 953.182,-943.957 944.633,-937.7 942.596,-944.397"/>
</g>
<!-- Node24 -->
<g id="node24" class="node"><title>Node24</title>
<g id="a_node24"><a xlink:href="../../d2/d0a/class_mem_1_1_manager.html#a3aefd91781b7f41d35e6df6a32d379d0" target="_top" xlink:title=" ">
<polygon fill="white" stroke="black" points="947,-906 947,-925 1070,-925 1070,-906 947,-906"/>
<text text-anchor="middle" x="1008.5" y="-913" font-family="Helvetica,sans-Serif" font-size="10.00">Mem::Manager::sHandle</text>
</a>
</g>
</g>
<!-- Node18&#45;&gt;Node24 -->
<g id="edge28" class="edge"><title>Node18&#45;&gt;Node24</title>
<path fill="none" stroke="midnightblue" d="M833.204,-858.035C855.541,-868.559 893.243,-885.465 927,-896.5 934.763,-899.038 943.05,-901.385 951.245,-903.503"/>
<polygon fill="midnightblue" stroke="midnightblue" points="950.604,-906.95 961.154,-905.968 952.295,-900.157 950.604,-906.95"/>
</g>
<!-- Node23 -->
<g id="node23" class="node"><title>Node23</title>
<g id="a_node23"><a xlink:href="../../d3/d9b/namespace_crc.html#a60ea952dd05dcbab6d54f8f922f35872" target="_top" xlink:title=" ">
<polygon fill="white" stroke="black" points="1126,-944 1126,-963 1285,-963 1285,-944 1126,-944"/>
<text text-anchor="middle" x="1205.5" y="-951" font-family="Helvetica,sans-Serif" font-size="10.00">Crc::GenerateCRCCaseSensitive</text>
</a>
</g>
</g>
<!-- Node22&#45;&gt;Node23 -->
<g id="edge27" class="edge"><title>Node22&#45;&gt;Node23</title>
<path fill="none" stroke="midnightblue" d="M1089.1,-953.5C1097.8,-953.5 1106.7,-953.5 1115.51,-953.5"/>
<polygon fill="midnightblue" stroke="midnightblue" points="1115.79,-957 1125.79,-953.5 1115.79,-950 1115.79,-957"/>
</g>
<!-- Node25&#45;&gt;Node6 -->
<g id="edge34" class="edge"><title>Node25&#45;&gt;Node6</title>
<path fill="none" stroke="midnightblue" d="M831.403,-781.902C865.618,-763.56 940.458,-723.44 980.674,-701.881"/>
<polygon fill="midnightblue" stroke="midnightblue" points="982.48,-704.884 989.64,-697.074 979.173,-698.715 982.48,-704.884"/>
</g>
<!-- Node25&#45;&gt;Node8 -->
<g id="edge35" class="edge"><title>Node25&#45;&gt;Node8</title>
<path fill="none" stroke="midnightblue" d="M873.174,-781.958C929.407,-772.569 1015.87,-757.112 1090,-739.5 1114.96,-733.57 1142.61,-725.642 1164.48,-719.043"/>
<polygon fill="midnightblue" stroke="midnightblue" points="1165.54,-722.377 1174.09,-716.116 1163.51,-715.68 1165.54,-722.377"/>
</g>
<!-- Node25&#45;&gt;Node19 -->
<g id="edge36" class="edge"><title>Node25&#45;&gt;Node19</title>
<path fill="none" stroke="midnightblue" d="M836.257,-801.046C852.092,-808.071 873.43,-818.312 891,-829.5 908.331,-840.535 908.544,-849.472 927,-858.5 937.775,-863.771 950.089,-867.625 961.79,-870.425"/>
<polygon fill="midnightblue" stroke="midnightblue" points="961.345,-873.911 971.862,-872.625 962.838,-867.072 961.345,-873.911"/>
</g>
<!-- Node25&#45;&gt;Node20 -->
<g id="edge37" class="edge"><title>Node25&#45;&gt;Node20</title>
<path fill="none" stroke="midnightblue" d="M850.005,-801.009C872.235,-806.754 901.226,-814.166 927,-820.5 936.522,-822.84 946.691,-825.283 956.485,-827.608"/>
<polygon fill="midnightblue" stroke="midnightblue" points="955.976,-831.084 966.513,-829.979 957.586,-824.272 955.976,-831.084"/>
</g>
<!-- Node25&#45;&gt;Node21 -->
<g id="edge38" class="edge"><title>Node25&#45;&gt;Node21</title>
<path fill="none" stroke="midnightblue" d="M891.01,-795.495C902.602,-796.093 914.58,-796.71 926.246,-797.312"/>
<polygon fill="midnightblue" stroke="midnightblue" points="926.234,-800.816 936.401,-797.835 926.594,-793.825 926.234,-800.816"/>
</g>
<!-- Node25&#45;&gt;Node24 -->
<g id="edge39" class="edge"><title>Node25&#45;&gt;Node24</title>
<path fill="none" stroke="midnightblue" d="M843.393,-801.107C859.018,-807.289 877.619,-816.607 891,-829.5 915.343,-852.955 900.187,-875.914 927,-896.5 930.239,-898.987 933.752,-901.155 937.438,-903.046"/>
<polygon fill="midnightblue" stroke="midnightblue" points="936.334,-906.384 946.898,-907.196 939.146,-899.974 936.334,-906.384"/>
</g>
<!-- Node26&#45;&gt;Node13 -->
<g id="edge42" class="edge"><title>Node26&#45;&gt;Node13</title>
<path fill="none" stroke="midnightblue" d="M303.161,-312.928C311.122,-310.242 319.04,-306.828 326,-302.5 346.311,-289.871 340.635,-273.251 362,-262.5 424.721,-230.938 621.237,-237.806 732.552,-244.681"/>
<polygon fill="midnightblue" stroke="midnightblue" points="732.521,-248.186 742.722,-245.324 732.962,-241.2 732.521,-248.186"/>
</g>
<!-- Node27 -->
<g id="node27" class="node"><title>Node27</title>
<g id="a_node27"><a xlink:href="../../d1/d54/namespace_script.html#a0d003ee93577e31adb6597bce0002009" target="_top" xlink:title=" ">
<polygon fill="white" stroke="black" points="385.5,-366 385.5,-385 492.5,-385 492.5,-366 385.5,-366"/>
<text text-anchor="middle" x="439" y="-373" font-family="Helvetica,sans-Serif" font-size="10.00">Script::PrintContents</text>
</a>
</g>
</g>
<!-- Node26&#45;&gt;Node27 -->
<g id="edge43" class="edge"><title>Node26&#45;&gt;Node27</title>
<path fill="none" stroke="midnightblue" d="M283.464,-332.081C304.94,-339.178 335.184,-348.896 362,-356.5 370.276,-358.847 379.102,-361.194 387.701,-363.398"/>
<polygon fill="midnightblue" stroke="midnightblue" points="387.091,-366.854 397.644,-365.91 388.806,-360.067 387.091,-366.854"/>
</g>
<!-- Node28 -->
<g id="node28" class="node"><title>Node28</title>
<g id="a_node28"><a xlink:href="../../d2/df7/class_script_1_1_c_struct.html#a1e05f0a66cff4a700fb67fdc117d2d7f" target="_top" xlink:title=" ">
<polygon fill="white" stroke="black" points="373,-310 373,-329 505,-329 505,-310 373,-310"/>
<text text-anchor="middle" x="439" y="-317" font-family="Helvetica,sans-Serif" font-size="10.00">Script::CStruct::search_for</text>
</a>
</g>
</g>
<!-- Node26&#45;&gt;Node28 -->
<g id="edge44" class="edge"><title>Node26&#45;&gt;Node28</title>
<path fill="none" stroke="midnightblue" d="M317.211,-321.48C331.775,-321.241 347.447,-320.984 362.52,-320.737"/>
<polygon fill="midnightblue" stroke="midnightblue" points="362.897,-324.232 372.838,-320.568 362.782,-317.233 362.897,-324.232"/>
</g>
<!-- Node28&#45;&gt;Node8 -->
<g id="edge46" class="edge"><title>Node28&#45;&gt;Node8</title>
<path fill="none" stroke="midnightblue" d="M465.732,-329.01C481.172,-335.425 500.715,-344.84 516,-356.5 535.281,-371.208 530.591,-386.111 552,-397.5 764.828,-510.719 894.728,-325.138 1090,-466.5 1128.84,-494.617 1180.04,-635.123 1197.96,-687.115"/>
<polygon fill="midnightblue" stroke="midnightblue" points="1194.73,-688.46 1201.27,-696.793 1201.35,-686.199 1194.73,-688.46"/>
</g>
<!-- Node28&#45;&gt;Node13 -->
<g id="edge45" class="edge"><title>Node28&#45;&gt;Node13</title>
<path fill="none" stroke="midnightblue" d="M480.78,-309.917C492.223,-307.062 504.639,-303.808 516,-300.5 532.193,-295.785 535.593,-292.404 552,-288.5 611.904,-274.248 680.933,-264.449 732.731,-258.376"/>
<polygon fill="midnightblue" stroke="midnightblue" points="733.319,-261.831 742.853,-257.211 732.518,-254.877 733.319,-261.831"/>
</g>
<!-- Node28&#45;&gt;Node28 -->
<g id="edge50" class="edge"><title>Node28&#45;&gt;Node28</title>
<path fill="none" stroke="midnightblue" d="M410.64,-329.257C396.844,-338.065 406.297,-347.5 439,-347.5 461.483,-347.5 472.978,-343.041 473.483,-337.391"/>
<polygon fill="midnightblue" stroke="midnightblue" points="476.17,-335.142 467.36,-329.257 470.577,-339.351 476.17,-335.142"/>
</g>
<!-- Node29 -->
<g id="node29" class="node"><title>Node29</title>
<g id="a_node29"><a xlink:href="../../d1/d54/namespace_script.html#a43181580ea5d38e4bf1aa19ccd5e9e85" target="_top" xlink:title=" ">
<polygon fill="white" stroke="black" points="584,-298 584,-317 666,-317 666,-298 584,-298"/>
<text text-anchor="middle" x="625" y="-305" font-family="Helvetica,sans-Serif" font-size="10.00">Script::Resolve</text>
</a>
</g>
</g>
<!-- Node28&#45;&gt;Node29 -->
<g id="edge47" class="edge"><title>Node28&#45;&gt;Node29</title>
<path fill="none" stroke="midnightblue" d="M505.13,-315.252C527.697,-313.781 552.627,-312.155 573.804,-310.774"/>
<polygon fill="midnightblue" stroke="midnightblue" points="574.121,-314.261 583.872,-310.117 573.665,-307.275 574.121,-314.261"/>
</g>
<!-- Node29&#45;&gt;Node13 -->
<g id="edge48" class="edge"><title>Node29&#45;&gt;Node13</title>
<path fill="none" stroke="midnightblue" d="M657.049,-297.959C688.214,-288.383 736.391,-273.579 770.643,-263.054"/>
<polygon fill="midnightblue" stroke="midnightblue" points="771.819,-266.355 780.35,-260.072 769.763,-259.663 771.819,-266.355"/>
</g>
<!-- Node30 -->
<g id="node30" class="node"><title>Node30</title>
<g id="a_node30"><a xlink:href="../../d1/d54/namespace_script.html#af293a36c230b10de7d8151c2990b233b" target="_top" xlink:title=" ">
<polygon fill="white" stroke="black" points="755.5,-298 755.5,-317 869.5,-317 869.5,-298 755.5,-298"/>
<text text-anchor="middle" x="812.5" y="-305" font-family="Helvetica,sans-Serif" font-size="10.00">Script::LookUpSymbol</text>
</a>
</g>
</g>
<!-- Node29&#45;&gt;Node30 -->
<g id="edge49" class="edge"><title>Node29&#45;&gt;Node30</title>
<path fill="none" stroke="midnightblue" d="M666.251,-307.5C689.298,-307.5 718.793,-307.5 745.176,-307.5"/>
<polygon fill="midnightblue" stroke="midnightblue" points="745.496,-311 755.496,-307.5 745.496,-304 745.496,-311"/>
</g>
<!-- Node31&#45;&gt;Node8 -->
<g id="edge52" class="edge"><title>Node31&#45;&gt;Node8</title>
<path fill="none" stroke="midnightblue" d="M642.507,-915.188C706.328,-951.254 940.775,-1070.73 1090,-972.5 1134.19,-943.409 1183.11,-782.357 1199.12,-725.989"/>
<polygon fill="midnightblue" stroke="midnightblue" points="1202.54,-726.755 1201.87,-716.182 1195.8,-724.865 1202.54,-726.755"/>
</g>
<!-- Node38 -->
<g id="node38" class="node"><title>Node38</title>
<g id="a_node38"><a xlink:href="../../d2/df7/class_script_1_1_c_struct.html#af0481773c309ece51ef8c70fc083436b" target="_top" xlink:title=" ">
<polygon fill="white" stroke="black" points="377.5,-184.5 377.5,-214.5 500.5,-214.5 500.5,-184.5 377.5,-184.5"/>
<text text-anchor="start" x="385.5" y="-202.5" font-family="Helvetica,sans-Serif" font-size="10.00">Script::CStruct::GetNext</text>
<text text-anchor="middle" x="439" y="-191.5" font-family="Helvetica,sans-Serif" font-size="10.00">Component</text>
</a>
</g>
</g>
<!-- Node37&#45;&gt;Node38 -->
<g id="edge60" class="edge"><title>Node37&#45;&gt;Node38</title>
<path fill="none" stroke="midnightblue" d="M292.484,-263.37C303.378,-258.782 315.239,-253.602 326,-248.5 342.348,-240.75 345.561,-237.055 362,-229.5 370.33,-225.672 379.297,-221.865 388.049,-218.312"/>
<polygon fill="midnightblue" stroke="midnightblue" points="389.434,-221.528 397.422,-214.568 386.837,-215.027 389.434,-221.528"/>
</g>
<!-- Node39 -->
<g id="node39" class="node"><title>Node39</title>
<g id="a_node39"><a xlink:href="../../d1/d54/namespace_script.html#aaf10cce8c51e44ea46f7789b3db96bc0" target="_top" xlink:title=" ">
<polygon fill="white" stroke="black" points="387,-272 387,-291 491,-291 491,-272 387,-272"/>
<text text-anchor="middle" x="439" y="-279" font-family="Helvetica,sans-Serif" font-size="10.00">Script::GetStructure</text>
</a>
</g>
</g>
<!-- Node37&#45;&gt;Node39 -->
<g id="edge61" class="edge"><title>Node37&#45;&gt;Node39</title>
<path fill="none" stroke="midnightblue" d="M307.44,-279.36C329.056,-279.714 354.251,-280.127 376.711,-280.495"/>
<polygon fill="midnightblue" stroke="midnightblue" points="376.759,-283.996 386.815,-280.661 376.874,-276.997 376.759,-283.996"/>
</g>
<!-- Node39&#45;&gt;Node8 -->
<g id="edge63" class="edge"><title>Node39&#45;&gt;Node8</title>
<path fill="none" stroke="midnightblue" d="M489.999,-291.108C498.866,-293.619 507.86,-296.715 516,-300.5 533.897,-308.821 533.72,-319.059 552,-326.5 775.903,-417.635 902.514,-253.898 1090,-406.5 1125.99,-435.792 1109.6,-461.095 1126,-504.5 1151.44,-571.799 1182.67,-651.262 1196.85,-687.17"/>
<polygon fill="midnightblue" stroke="midnightblue" points="1193.75,-688.84 1200.68,-696.853 1200.26,-686.267 1193.75,-688.84"/>
</g>
<!-- Node39&#45;&gt;Node13 -->
<g id="edge62" class="edge"><title>Node39&#45;&gt;Node13</title>
<path fill="none" stroke="midnightblue" d="M472.998,-271.925C495.134,-265.978 525.06,-258.849 552,-255.5 612.367,-247.995 681.23,-247.015 732.842,-247.765"/>
<polygon fill="midnightblue" stroke="midnightblue" points="732.868,-251.266 742.926,-247.937 732.987,-244.267 732.868,-251.266"/>
</g>
<!-- Node39&#45;&gt;Node29 -->
<g id="edge64" class="edge"><title>Node39&#45;&gt;Node29</title>
<path fill="none" stroke="midnightblue" d="M491.254,-288.742C516.956,-292.374 547.974,-296.757 573.561,-300.373"/>
<polygon fill="midnightblue" stroke="midnightblue" points="573.408,-303.886 583.8,-301.82 574.388,-296.955 573.408,-303.886"/>
</g>
<!-- Node40&#45;&gt;Node8 -->
<g id="edge66" class="edge"><title>Node40&#45;&gt;Node8</title>
<path fill="none" stroke="midnightblue" d="M650.718,-1005.06C724.995,-1032.07 949.714,-1100.88 1090,-1004.5 1102.31,-996.044 1175.05,-790.596 1197.74,-725.852"/>
<polygon fill="midnightblue" stroke="midnightblue" points="1201.16,-726.689 1201.16,-716.094 1194.55,-724.377 1201.16,-726.689"/>
</g>
</g>
</svg>
