<?xml version="1.0" encoding="UTF-8" standalone="no"?>
<!DOCTYPE svg PUBLIC "-//W3C//DTD SVG 1.1//EN"
 "http://www.w3.org/Graphics/SVG/1.1/DTD/svg11.dtd">
<!-- Generated by graphviz version 2.38.0 (20140413.2041)
 -->
<!-- Title: CFuncs::ScriptResetScore Pages: 1 -->
<!--zoomable 686 -->
<svg id="main" version="1.1" xmlns="http://www.w3.org/2000/svg" xmlns:xlink="http://www.w3.org/1999/xlink" xml:space="preserve" onload="init(evt)">
<style type="text/css"><![CDATA[
.edge:hover path { stroke: red; }
.edge:hover polygon { stroke: red; fill: red; }
]]></style>
<script type="text/javascript"><![CDATA[
var edges = document.getElementsByTagName('g');
if (edges && edges.length) {
  for (var i=0;i<edges.length;i++) {
    if (edges[i].id.substr(0,4)=='edge') {
      edges[i].setAttribute('class','edge');
    }
  }
}
]]></script>
        <defs>
                <circle id="rim" cx="0" cy="0" r="7"/>
                <circle id="rim2" cx="0" cy="0" r="3.5"/>
                <g id="zoomPlus">
                        <use xlink:href="#rim" fill="#404040">
                                <set attributeName="fill" to="#808080" begin="zoomplus.mouseover" end="zoomplus.mouseout"/>
                        </use>
                        <path d="M-4,0h8M0,-4v8" fill="none" stroke="white" stroke-width="1.5" pointer-events="none"/>
                </g>
                <g id="zoomMin">
                        <use xlink:href="#rim" fill="#404040">
                                <set attributeName="fill" to="#808080" begin="zoomminus.mouseover" end="zoomminus.mouseout"/>
                        </use>
                        <path d="M-4,0h8" fill="none" stroke="white" stroke-width="1.5" pointer-events="none"/>
                </g>
                <g id="dirArrow">
                        <path fill="none" stroke="white" stroke-width="1.5" d="M0,-3.0v7 M-2.5,-0.5L0,-3.0L2.5,-0.5"/>
                </g>
               <g id="resetDef">
                       <use xlink:href="#rim2" fill="#404040">
                               <set attributeName="fill" to="#808080" begin="reset.mouseover" end="reset.mouseout"/>
                       </use>
               </g>
        </defs>

<script type="text/javascript">
var viewWidth = 1115;
var viewHeight = 686;
var sectionId = 'dynsection-306';
</script>
<script xlink:href="../../svgpan.js"/>
<svg id="graph" class="graph">
<g id="viewport">
<title>CFuncs::ScriptResetScore</title>
<polygon fill="white" stroke="none" points="-4,4 -4,-681.5 1111,-681.5 1111,4 -4,4"/>
<!-- Node1 -->
<g id="node1" class="node"><title>Node1</title>
<g id="a_node1"><a xlink:title=" ">
<polygon fill="#bfbfbf" stroke="black" points="0,-456 0,-475 133,-475 133,-456 0,-456"/>
<text text-anchor="middle" x="66.5" y="-463" font-family="Helvetica,sans-Serif" font-size="10.00">CFuncs::ScriptResetScore</text>
</a>
</g>
</g>
<!-- Node2 -->
<g id="node2" class="node"><title>Node2</title>
<g id="a_node2"><a xlink:href="../../df/de2/_messages_8h.html#a03fb230ad9263a5f6126da49d67feac0" target="_top" xlink:title=" ">
<polygon fill="white" stroke="black" points="214.5,-658 214.5,-677 276.5,-677 276.5,-658 214.5,-658"/>
<text text-anchor="middle" x="245.5" y="-665" font-family="Helvetica,sans-Serif" font-size="10.00">Dbg_Printf</text>
</a>
</g>
</g>
<!-- Node1&#45;&gt;Node2 -->
<g id="edge1" class="edge"><title>Node1&#45;&gt;Node2</title>
<path fill="none" stroke="midnightblue" d="M70.2682,-475.264C79.2368,-505.125 110.366,-596.069 169,-643.5 179.21,-651.759 192.305,-657.196 204.715,-660.767"/>
<polygon fill="midnightblue" stroke="midnightblue" points="203.896,-664.17 214.451,-663.249 205.625,-657.387 203.896,-664.17"/>
</g>
<!-- Node3 -->
<g id="node3" class="node"><title>Node3</title>
<g id="a_node3"><a xlink:href="../../d1/d54/namespace_script.html#aa331360f088c15972ac441ecb8b40cd9" target="_top" xlink:title=" ">
<polygon fill="white" stroke="black" points="382,-484 382,-503 490,-503 490,-484 382,-484"/>
<text text-anchor="middle" x="436" y="-491" font-family="Helvetica,sans-Serif" font-size="10.00">Script::GenerateCRC</text>
</a>
</g>
</g>
<!-- Node1&#45;&gt;Node3 -->
<g id="edge2" class="edge"><title>Node1&#45;&gt;Node3</title>
<path fill="none" stroke="midnightblue" d="M70.7473,-475.369C80.4319,-502.965 112.036,-580.842 169,-610.5 229.315,-641.903 259.405,-637.068 322,-610.5 369.437,-590.366 406.663,-539.486 424.132,-511.923"/>
<polygon fill="midnightblue" stroke="midnightblue" points="427.217,-513.587 429.471,-503.235 421.253,-509.922 427.217,-513.587"/>
</g>
<!-- Node5 -->
<g id="node5" class="node"><title>Node5</title>
<g id="a_node5"><a xlink:href="../../d6/df1/class_mdl_1_1_skate.html#a5a90b89a9816fe8fc4e8083510f22d3e" target="_top" xlink:title=" ">
<polygon fill="white" stroke="black" points="177.5,-582 177.5,-601 313.5,-601 313.5,-582 177.5,-582"/>
<text text-anchor="middle" x="245.5" y="-589" font-family="Helvetica,sans-Serif" font-size="10.00">Mdl::Skate::GetGameMode</text>
</a>
</g>
</g>
<!-- Node1&#45;&gt;Node5 -->
<g id="edge4" class="edge"><title>Node1&#45;&gt;Node5</title>
<path fill="none" stroke="midnightblue" d="M73.8133,-475.226C88.0803,-496.39 125.015,-546.779 169,-572.5 172.845,-574.748 176.951,-576.733 181.187,-578.484"/>
<polygon fill="midnightblue" stroke="midnightblue" points="180.025,-581.786 190.618,-581.957 182.444,-575.217 180.025,-581.786"/>
</g>
<!-- Node6 -->
<g id="node6" class="node"><title>Node6</title>
<g id="a_node6"><a xlink:href="../../d4/d1c/class_obj_1_1_c_skater.html#a223a0010c1ce65576f02883b96ad0335" target="_top" xlink:title=" ">
<polygon fill="white" stroke="black" points="175.5,-544 175.5,-563 315.5,-563 315.5,-544 175.5,-544"/>
<text text-anchor="middle" x="245.5" y="-551" font-family="Helvetica,sans-Serif" font-size="10.00">Obj::CSkater::GetHeapIndex</text>
</a>
</g>
</g>
<!-- Node1&#45;&gt;Node6 -->
<g id="edge5" class="edge"><title>Node1&#45;&gt;Node6</title>
<path fill="none" stroke="midnightblue" d="M78.8747,-475.238C96.8441,-490.137 133.424,-518.536 169,-534.5 174.372,-536.911 180.102,-539.051 185.912,-540.943"/>
<polygon fill="midnightblue" stroke="midnightblue" points="185.134,-544.364 195.718,-543.897 187.153,-537.661 185.134,-544.364"/>
</g>
<!-- Node7 -->
<g id="node7" class="node"><title>Node7</title>
<g id="a_node7"><a xlink:href="../../d0/d21/class_game_1_1_c_game_mode.html#a828922f112b9f1f03892f1a180ac2596" target="_top" xlink:title=" ">
<polygon fill="white" stroke="black" points="169,-494.5 169,-524.5 322,-524.5 322,-494.5 169,-494.5"/>
<text text-anchor="start" x="177" y="-512.5" font-family="Helvetica,sans-Serif" font-size="10.00">Game::CGameMode::GetName</text>
<text text-anchor="middle" x="245.5" y="-501.5" font-family="Helvetica,sans-Serif" font-size="10.00">Checksum</text>
</a>
</g>
</g>
<!-- Node1&#45;&gt;Node7 -->
<g id="edge6" class="edge"><title>Node1&#45;&gt;Node7</title>
<path fill="none" stroke="midnightblue" d="M105.906,-475.047C125.834,-480.001 150.815,-486.211 174.06,-491.99"/>
<polygon fill="midnightblue" stroke="midnightblue" points="173.347,-495.419 183.896,-494.435 175.036,-488.625 173.347,-495.419"/>
</g>
<!-- Node8 -->
<g id="node8" class="node"><title>Node8</title>
<g id="a_node8"><a xlink:href="../../d6/df1/class_mdl_1_1_skate.html#a712eaf5d2b8045dcb7c0cf45a20410c4" target="_top" xlink:title=" ">
<polygon fill="white" stroke="black" points="175.5,-456 175.5,-475 315.5,-475 315.5,-456 175.5,-456"/>
<text text-anchor="middle" x="245.5" y="-463" font-family="Helvetica,sans-Serif" font-size="10.00">Mdl::Skate::GetNumSkaters</text>
</a>
</g>
</g>
<!-- Node1&#45;&gt;Node8 -->
<g id="edge7" class="edge"><title>Node1&#45;&gt;Node8</title>
<path fill="none" stroke="midnightblue" d="M133.157,-465.5C143.595,-465.5 154.488,-465.5 165.199,-465.5"/>
<polygon fill="midnightblue" stroke="midnightblue" points="165.392,-469 175.392,-465.5 165.392,-462 165.392,-469"/>
</g>
<!-- Node9 -->
<g id="node9" class="node"><title>Node9</title>
<g id="a_node9"><a xlink:href="../../d4/d1c/class_obj_1_1_c_skater.html#a2506afd232d5f6b6f2d66220969bb379" target="_top" xlink:title=" ">
<polygon fill="white" stroke="black" points="171,-418 171,-437 320,-437 320,-418 171,-418"/>
<text text-anchor="middle" x="245.5" y="-425" font-family="Helvetica,sans-Serif" font-size="10.00">Obj::CSkater::GetScoreObject</text>
</a>
</g>
</g>
<!-- Node1&#45;&gt;Node9 -->
<g id="edge8" class="edge"><title>Node1&#45;&gt;Node9</title>
<path fill="none" stroke="midnightblue" d="M112.165,-455.911C135.837,-450.829 165.108,-444.545 190.097,-439.18"/>
<polygon fill="midnightblue" stroke="midnightblue" points="191.114,-442.541 200.157,-437.02 189.645,-435.697 191.114,-442.541"/>
</g>
<!-- Node10 -->
<g id="node10" class="node"><title>Node10</title>
<g id="a_node10"><a xlink:href="../../d6/df1/class_mdl_1_1_skate.html#a7bd64af5fee9a48c92ad23263cc92cde" target="_top" xlink:title=" ">
<polygon fill="white" stroke="black" points="188.5,-380 188.5,-399 302.5,-399 302.5,-380 188.5,-380"/>
<text text-anchor="middle" x="245.5" y="-387" font-family="Helvetica,sans-Serif" font-size="10.00">Mdl::Skate::GetSkater</text>
</a>
</g>
</g>
<!-- Node1&#45;&gt;Node10 -->
<g id="edge9" class="edge"><title>Node1&#45;&gt;Node10</title>
<path fill="none" stroke="midnightblue" d="M81.6861,-455.923C100.777,-443.419 136.144,-421.589 169,-408.5 175.243,-406.013 181.909,-403.775 188.598,-401.784"/>
<polygon fill="midnightblue" stroke="midnightblue" points="189.685,-405.114 198.368,-399.042 187.794,-398.374 189.685,-405.114"/>
</g>
<!-- Node11 -->
<g id="node11" class="node"><title>Node11</title>
<g id="a_node11"><a xlink:href="../../d4/d1c/class_obj_1_1_c_skater.html#ae826d6b63d099a7be6794235ab235c84" target="_top" xlink:title=" ">
<polygon fill="white" stroke="black" points="178.5,-342 178.5,-361 312.5,-361 312.5,-342 178.5,-342"/>
<text text-anchor="middle" x="245.5" y="-349" font-family="Helvetica,sans-Serif" font-size="10.00">Obj::CSkater::IsLocalClient</text>
</a>
</g>
</g>
<!-- Node1&#45;&gt;Node11 -->
<g id="edge10" class="edge"><title>Node1&#45;&gt;Node11</title>
<path fill="none" stroke="midnightblue" d="M75.0049,-455.728C90.4184,-436.363 127.684,-393.041 169,-370.5 173.227,-368.194 177.74,-366.162 182.377,-364.372"/>
<polygon fill="midnightblue" stroke="midnightblue" points="183.716,-367.612 192.017,-361.028 181.423,-360.998 183.716,-367.612"/>
</g>
<!-- Node12 -->
<g id="node12" class="node"><title>Node12</title>
<g id="a_node12"><a xlink:href="../../d1/d1e/class_mdl_1_1_score.html#a4869eeca252175e1934193854a3e5af4" target="_top" xlink:title=" ">
<polygon fill="white" stroke="black" points="198,-304 198,-323 293,-323 293,-304 198,-304"/>
<text text-anchor="middle" x="245.5" y="-311" font-family="Helvetica,sans-Serif" font-size="10.00">Mdl::Score::Reset</text>
</a>
</g>
</g>
<!-- Node1&#45;&gt;Node12 -->
<g id="edge11" class="edge"><title>Node1&#45;&gt;Node12</title>
<path fill="none" stroke="midnightblue" d="M72.0604,-455.669C84.1037,-430.842 119.282,-365.268 169,-332.5 174.763,-328.702 181.23,-325.663 187.892,-323.232"/>
<polygon fill="midnightblue" stroke="midnightblue" points="189.273,-326.465 197.733,-320.086 187.142,-319.797 189.273,-326.465"/>
</g>
<!-- Node13 -->
<g id="node13" class="node"><title>Node13</title>
<g id="a_node13"><a xlink:href="../../d5/d96/namespace_front.html#a43c1aca83d986cb5db84179a4608a471" target="_top" xlink:title=" ">
<polygon fill="white" stroke="black" points="187.5,-266 187.5,-285 303.5,-285 303.5,-266 187.5,-266"/>
<text text-anchor="middle" x="245.5" y="-273" font-family="Helvetica,sans-Serif" font-size="10.00">Front::SetScoreTHPS4</text>
</a>
</g>
</g>
<!-- Node1&#45;&gt;Node13 -->
<g id="edge12" class="edge"><title>Node1&#45;&gt;Node13</title>
<path fill="none" stroke="midnightblue" d="M70.2651,-455.96C79.2248,-426.812 110.331,-338.257 169,-294.5 171.849,-292.375 174.91,-290.486 178.108,-288.807"/>
<polygon fill="midnightblue" stroke="midnightblue" points="179.745,-291.908 187.426,-284.61 176.87,-285.526 179.745,-291.908"/>
</g>
<!-- Node4 -->
<g id="node4" class="node"><title>Node4</title>
<g id="a_node4"><a xlink:href="../../d3/d9b/namespace_crc.html#aed1b5ad21f682b39b09782ec29f5c5cc" target="_top" xlink:title=" ">
<polygon fill="white" stroke="black" points="552,-484 552,-503 698,-503 698,-484 552,-484"/>
<text text-anchor="middle" x="625" y="-491" font-family="Helvetica,sans-Serif" font-size="10.00">Crc::GenerateCRCFromString</text>
</a>
</g>
</g>
<!-- Node3&#45;&gt;Node4 -->
<g id="edge3" class="edge"><title>Node3&#45;&gt;Node4</title>
<path fill="none" stroke="midnightblue" d="M490.086,-493.5C506.153,-493.5 524.192,-493.5 541.699,-493.5"/>
<polygon fill="midnightblue" stroke="midnightblue" points="541.927,-497 551.927,-493.5 541.927,-490 541.927,-497"/>
</g>
<!-- Node13&#45;&gt;Node3 -->
<g id="edge14" class="edge"><title>Node13&#45;&gt;Node3</title>
<path fill="none" stroke="midnightblue" d="M303.72,-284.418C310.275,-286.986 316.55,-290.279 322,-294.5 348.417,-314.96 341.628,-331.373 358,-360.5 381.184,-401.748 409.199,-449.674 424.226,-475.23"/>
<polygon fill="midnightblue" stroke="midnightblue" points="421.222,-477.027 429.312,-483.869 427.255,-473.476 421.222,-477.027"/>
</g>
<!-- Node14 -->
<g id="node14" class="node"><title>Node14</title>
<g id="a_node14"><a xlink:href="../../de/dd8/class_obj_1_1_c_smt_ptr.html#abfded371e4740217057f76240804b0eb" target="_top" xlink:title=" ">
<polygon fill="white" stroke="black" points="379.5,-332 379.5,-351 492.5,-351 492.5,-332 379.5,-332"/>
<text text-anchor="middle" x="436" y="-339" font-family="Helvetica,sans-Serif" font-size="10.00">Obj::CSmtPtr::Convert</text>
</a>
</g>
</g>
<!-- Node13&#45;&gt;Node14 -->
<g id="edge13" class="edge"><title>Node13&#45;&gt;Node14</title>
<path fill="none" stroke="midnightblue" d="M296.683,-285.016C305.35,-287.528 314.104,-290.649 322,-294.5 340.218,-303.386 339.761,-313.656 358,-322.5 362.956,-324.903 368.243,-327.019 373.636,-328.879"/>
<polygon fill="midnightblue" stroke="midnightblue" points="372.822,-332.292 383.412,-331.957 374.925,-325.615 372.822,-332.292"/>
</g>
<!-- Node15 -->
<g id="node15" class="node"><title>Node15</title>
<g id="a_node15"><a xlink:href="../../d8/d59/class_front_1_1_c_screen_element_manager.html#a013a0ac21bd3c4120a5bc4d4a9fff021" target="_top" xlink:title=" ">
<polygon fill="white" stroke="black" points="358,-282.5 358,-312.5 514,-312.5 514,-282.5 358,-282.5"/>
<text text-anchor="start" x="366" y="-300.5" font-family="Helvetica,sans-Serif" font-size="10.00">Front::CScreenElementManager</text>
<text text-anchor="middle" x="436" y="-289.5" font-family="Helvetica,sans-Serif" font-size="10.00">::GetElement</text>
</a>
</g>
</g>
<!-- Node13&#45;&gt;Node15 -->
<g id="edge15" class="edge"><title>Node13&#45;&gt;Node15</title>
<path fill="none" stroke="midnightblue" d="M303.568,-282.16C317.479,-283.784 332.676,-285.558 347.641,-287.304"/>
<polygon fill="midnightblue" stroke="midnightblue" points="347.607,-290.824 357.945,-288.507 348.419,-283.871 347.607,-290.824"/>
</g>
<!-- Node21 -->
<g id="node21" class="node"><title>Node21</title>
<g id="a_node21"><a xlink:href="../../df/dde/class_obj_1_1_c_object.html#adf29aa023697e596d50506797d316b7a" target="_top" xlink:title=" ">
<polygon fill="white" stroke="black" points="378,-244 378,-263 494,-263 494,-244 378,-244"/>
<text text-anchor="middle" x="436" y="-251" font-family="Helvetica,sans-Serif" font-size="10.00">Obj::CObject::GetType</text>
</a>
</g>
</g>
<!-- Node13&#45;&gt;Node21 -->
<g id="edge21" class="edge"><title>Node13&#45;&gt;Node21</title>
<path fill="none" stroke="midnightblue" d="M303.568,-268.84C323.775,-266.481 346.698,-263.806 367.678,-261.357"/>
<polygon fill="midnightblue" stroke="midnightblue" points="368.274,-264.811 377.801,-260.176 367.463,-257.859 368.274,-264.811"/>
</g>
<!-- Node22 -->
<g id="node22" class="node"><title>Node22</title>
<g id="a_node22"><a xlink:href="../../d6/d9a/class_front_1_1_c_text_element.html#a4c92b0063fef57241e8ea756f2100c27" target="_top" xlink:title=" ">
<polygon fill="white" stroke="black" points="382.5,-168.5 382.5,-198.5 489.5,-198.5 489.5,-168.5 382.5,-168.5"/>
<text text-anchor="start" x="390.5" y="-186.5" font-family="Helvetica,sans-Serif" font-size="10.00">Front::CTextElement</text>
<text text-anchor="middle" x="436" y="-175.5" font-family="Helvetica,sans-Serif" font-size="10.00">::SetText</text>
</a>
</g>
</g>
<!-- Node13&#45;&gt;Node22 -->
<g id="edge22" class="edge"><title>Node13&#45;&gt;Node22</title>
<path fill="none" stroke="midnightblue" d="M266.317,-265.828C296.682,-251.008 355.349,-222.375 394.849,-203.096"/>
<polygon fill="midnightblue" stroke="midnightblue" points="396.503,-206.184 403.955,-198.652 393.433,-199.893 396.503,-206.184"/>
</g>
<!-- Node16 -->
<g id="node16" class="node"><title>Node16</title>
<g id="a_node16"><a xlink:href="../../d1/d54/namespace_script.html#ae80ed69ea4edcbcbbbd4985a6efdcd6e" target="_top" xlink:title=" ">
<polygon fill="white" stroke="black" points="555.5,-326 555.5,-345 694.5,-345 694.5,-326 555.5,-326"/>
<text text-anchor="middle" x="625" y="-333" font-family="Helvetica,sans-Serif" font-size="10.00">Script::FindChecksumName</text>
</a>
</g>
</g>
<!-- Node15&#45;&gt;Node16 -->
<g id="edge16" class="edge"><title>Node15&#45;&gt;Node16</title>
<path fill="none" stroke="midnightblue" d="M510.907,-312.519C529.597,-316.316 549.38,-320.337 567.085,-323.934"/>
<polygon fill="midnightblue" stroke="midnightblue" points="566.749,-327.438 577.245,-325.999 568.143,-320.578 566.749,-327.438"/>
</g>
<!-- Node20 -->
<g id="node20" class="node"><title>Node20</title>
<g id="a_node20"><a xlink:href="../../df/d80/class_obj_1_1_c_tracker.html#a65bb0b283516578974818642ff22944a" target="_top" xlink:title=" ">
<polygon fill="white" stroke="black" points="561.5,-288 561.5,-307 688.5,-307 688.5,-288 561.5,-288"/>
<text text-anchor="middle" x="625" y="-295" font-family="Helvetica,sans-Serif" font-size="10.00">Obj::CTracker::GetObject</text>
</a>
</g>
</g>
<!-- Node15&#45;&gt;Node20 -->
<g id="edge20" class="edge"><title>Node15&#45;&gt;Node20</title>
<path fill="none" stroke="midnightblue" d="M514.14,-297.5C526.401,-297.5 539.05,-297.5 551.208,-297.5"/>
<polygon fill="midnightblue" stroke="midnightblue" points="551.285,-301 561.285,-297.5 551.285,-294 551.285,-301"/>
</g>
<!-- Node17 -->
<g id="node17" class="node"><title>Node17</title>
<g id="a_node17"><a xlink:href="../../d1/d54/namespace_script.html#a5cc52c4ff5ea5bb27681d819212dfdca" target="_top" xlink:title=" ">
<polygon fill="white" stroke="black" points="736,-345 736,-364 899,-364 899,-345 736,-345"/>
<text text-anchor="middle" x="817.5" y="-352" font-family="Helvetica,sans-Serif" font-size="10.00">Script::FindChecksumNameNULL</text>
</a>
</g>
</g>
<!-- Node16&#45;&gt;Node17 -->
<g id="edge17" class="edge"><title>Node16&#45;&gt;Node17</title>
<path fill="none" stroke="midnightblue" d="M694.506,-342.333C704.691,-343.348 715.32,-344.409 725.873,-345.461"/>
<polygon fill="midnightblue" stroke="midnightblue" points="725.653,-348.956 735.951,-346.466 726.348,-341.991 725.653,-348.956"/>
</g>
<!-- Node19 -->
<g id="node19" class="node"><title>Node19</title>
<g id="a_node19"><a xlink:href="../../da/d37/namespace_dbg.html#ab406a8cc16de5046c7d9fd09c9de5e22" target="_top" xlink:title=" ">
<polygon fill="white" stroke="black" points="784.5,-307 784.5,-326 850.5,-326 850.5,-307 784.5,-307"/>
<text text-anchor="middle" x="817.5" y="-314" font-family="Helvetica,sans-Serif" font-size="10.00">Dbg::sprintf</text>
</a>
</g>
</g>
<!-- Node16&#45;&gt;Node19 -->
<g id="edge19" class="edge"><title>Node16&#45;&gt;Node19</title>
<path fill="none" stroke="midnightblue" d="M694.506,-328.667C721.173,-326.008 750.885,-323.044 774.309,-320.708"/>
<polygon fill="midnightblue" stroke="midnightblue" points="774.661,-324.19 784.265,-319.715 773.967,-317.225 774.661,-324.19"/>
</g>
<!-- Node18 -->
<g id="node18" class="node"><title>Node18</title>
<g id="a_node18"><a xlink:href="../../d0/d31/namespace_config.html#a709cc81780d49900157e3476b63aa25d" target="_top" xlink:title=" ">
<polygon fill="white" stroke="black" points="959,-345 959,-364 1083,-364 1083,-345 959,-345"/>
<text text-anchor="middle" x="1021" y="-352" font-family="Helvetica,sans-Serif" font-size="10.00">Config::GotExtraMemory</text>
</a>
</g>
</g>
<!-- Node17&#45;&gt;Node18 -->
<g id="edge18" class="edge"><title>Node17&#45;&gt;Node18</title>
<path fill="none" stroke="midnightblue" d="M899.007,-354.5C915.373,-354.5 932.482,-354.5 948.51,-354.5"/>
<polygon fill="midnightblue" stroke="midnightblue" points="948.867,-358 958.867,-354.5 948.867,-351 948.867,-358"/>
</g>
<!-- Node23 -->
<g id="node23" class="node"><title>Node23</title>
<g id="a_node23"><a xlink:href="../../d2/d0a/class_mem_1_1_manager.html#a7c4cba14870f002aee0243e16114f443" target="_top" xlink:title=" ">
<polygon fill="white" stroke="black" points="555.5,-250 555.5,-269 694.5,-269 694.5,-250 555.5,-250"/>
<text text-anchor="middle" x="625" y="-257" font-family="Helvetica,sans-Serif" font-size="10.00">Mem::Manager::PopContext</text>
</a>
</g>
</g>
<!-- Node22&#45;&gt;Node23 -->
<g id="edge23" class="edge"><title>Node22&#45;&gt;Node23</title>
<path fill="none" stroke="midnightblue" d="M462.76,-198.514C485.206,-211.1 518.94,-228.835 550,-240.5 556.507,-242.944 563.452,-245.183 570.381,-247.2"/>
<polygon fill="midnightblue" stroke="midnightblue" points="569.899,-250.698 580.47,-249.992 571.766,-243.952 569.899,-250.698"/>
</g>
<!-- Node24 -->
<g id="node24" class="node"><title>Node24</title>
<g id="a_node24"><a xlink:href="../../d2/d0a/class_mem_1_1_manager.html#aaf8e36abc36eecabe46bf2582035192a" target="_top" xlink:title=" ">
<polygon fill="white" stroke="black" points="553,-212 553,-231 697,-231 697,-212 553,-212"/>
<text text-anchor="middle" x="625" y="-219" font-family="Helvetica,sans-Serif" font-size="10.00">Mem::Manager::PushContext</text>
</a>
</g>
</g>
<!-- Node22&#45;&gt;Node24 -->
<g id="edge24" class="edge"><title>Node22&#45;&gt;Node24</title>
<path fill="none" stroke="midnightblue" d="M489.588,-194.186C513.799,-199.106 542.569,-204.953 567.268,-209.971"/>
<polygon fill="midnightblue" stroke="midnightblue" points="566.725,-213.433 577.222,-211.994 568.119,-206.573 566.725,-213.433"/>
</g>
<!-- Node25 -->
<g id="node25" class="node"><title>Node25</title>
<g id="a_node25"><a xlink:href="../../dd/d29/class_nx_1_1_c_font.html#a1f1025dba1f6ad4a9bcc2797ff517719" target="_top" xlink:title=" ">
<polygon fill="white" stroke="black" points="565.5,-174 565.5,-193 684.5,-193 684.5,-174 565.5,-174"/>
<text text-anchor="middle" x="625" y="-181" font-family="Helvetica,sans-Serif" font-size="10.00">Nx::CFont::QueryString</text>
</a>
</g>
</g>
<!-- Node22&#45;&gt;Node25 -->
<g id="edge25" class="edge"><title>Node22&#45;&gt;Node25</title>
<path fill="none" stroke="midnightblue" d="M489.588,-183.5C509.918,-183.5 533.463,-183.5 555.112,-183.5"/>
<polygon fill="midnightblue" stroke="midnightblue" points="555.235,-187 565.235,-183.5 555.235,-180 555.235,-187"/>
</g>
<!-- Node28 -->
<g id="node28" class="node"><title>Node28</title>
<g id="a_node28"><a xlink:href="../../d7/df0/class_front_1_1_c_screen_element.html#af54a927ba2d20f876e0a09862e9b89ce" target="_top" xlink:title=" ">
<polygon fill="white" stroke="black" points="565.5,-124.5 565.5,-154.5 684.5,-154.5 684.5,-124.5 565.5,-124.5"/>
<text text-anchor="start" x="573.5" y="-142.5" font-family="Helvetica,sans-Serif" font-size="10.00">Front::CScreenElement</text>
<text text-anchor="middle" x="625" y="-131.5" font-family="Helvetica,sans-Serif" font-size="10.00">::SetDims</text>
</a>
</g>
</g>
<!-- Node22&#45;&gt;Node28 -->
<g id="edge28" class="edge"><title>Node22&#45;&gt;Node28</title>
<path fill="none" stroke="midnightblue" d="M489.588,-171.126C510.01,-166.321 533.676,-160.753 555.406,-155.64"/>
<polygon fill="midnightblue" stroke="midnightblue" points="556.302,-159.024 565.235,-153.327 554.699,-152.211 556.302,-159.024"/>
</g>
<!-- Node35 -->
<g id="node35" class="node"><title>Node35</title>
<g id="a_node35"><a xlink:href="../../d2/d0a/class_mem_1_1_manager.html#a3aefd91781b7f41d35e6df6a32d379d0" target="_top" xlink:title=" ">
<polygon fill="white" stroke="black" points="563.5,-86 563.5,-105 686.5,-105 686.5,-86 563.5,-86"/>
<text text-anchor="middle" x="625" y="-93" font-family="Helvetica,sans-Serif" font-size="10.00">Mem::Manager::sHandle</text>
</a>
</g>
</g>
<!-- Node22&#45;&gt;Node35 -->
<g id="edge35" class="edge"><title>Node22&#45;&gt;Node35</title>
<path fill="none" stroke="midnightblue" d="M457.643,-168.285C479.559,-152.774 515.698,-128.993 550,-114.5 555.773,-112.061 561.936,-109.875 568.148,-107.932"/>
<polygon fill="midnightblue" stroke="midnightblue" points="569.288,-111.245 577.902,-105.076 567.321,-104.527 569.288,-111.245"/>
</g>
<!-- Node36 -->
<g id="node36" class="node"><title>Node36</title>
<g id="a_node36"><a xlink:href="../../df/d77/class_nx_1_1_c_font_manager.html#aa0c75c585bb20bb0a42c06e160e040ab" target="_top" xlink:title=" ">
<polygon fill="white" stroke="black" points="550,-36.5 550,-66.5 700,-66.5 700,-36.5 550,-36.5"/>
<text text-anchor="start" x="558" y="-54.5" font-family="Helvetica,sans-Serif" font-size="10.00">Nx::CFontManager::sMapMeta</text>
<text text-anchor="middle" x="625" y="-43.5" font-family="Helvetica,sans-Serif" font-size="10.00">CharacterToButton</text>
</a>
</g>
</g>
<!-- Node22&#45;&gt;Node36 -->
<g id="edge36" class="edge"><title>Node22&#45;&gt;Node36</title>
<path fill="none" stroke="midnightblue" d="M449.308,-168.205C468.532,-145.245 507.875,-101.864 550,-76.5 553.431,-74.4343 557.055,-72.5126 560.782,-70.729"/>
<polygon fill="midnightblue" stroke="midnightblue" points="562.466,-73.8115 570.206,-66.5769 559.644,-67.4056 562.466,-73.8115"/>
</g>
<!-- Node26 -->
<g id="node26" class="node"><title>Node26</title>
<g id="a_node26"><a xlink:href="../../dd/d29/class_nx_1_1_c_font.html#a147e56d0cfb3e5c5b22d9384d3310dff" target="_top" xlink:title=" ">
<polygon fill="white" stroke="black" points="761.5,-205.5 761.5,-235.5 873.5,-235.5 873.5,-205.5 761.5,-205.5"/>
<text text-anchor="start" x="769.5" y="-223.5" font-family="Helvetica,sans-Serif" font-size="10.00">Nx::CFont::plat_query</text>
<text text-anchor="middle" x="817.5" y="-212.5" font-family="Helvetica,sans-Serif" font-size="10.00">_string</text>
</a>
</g>
</g>
<!-- Node25&#45;&gt;Node26 -->
<g id="edge26" class="edge"><title>Node25&#45;&gt;Node26</title>
<path fill="none" stroke="midnightblue" d="M675.058,-193.028C698.216,-197.526 726.179,-202.957 751.107,-207.799"/>
<polygon fill="midnightblue" stroke="midnightblue" points="750.734,-211.292 761.218,-209.763 752.068,-204.42 750.734,-211.292"/>
</g>
<!-- Node27 -->
<g id="node27" class="node"><title>Node27</title>
<g id="a_node27"><a xlink:href="../../df/d92/standard_8cpp.html#a5fc8fd1788f18ada61dfda9f171c5a1a" target="_top" xlink:title=" ">
<polygon fill="white" stroke="black" points="1002,-246 1002,-265 1040,-265 1040,-246 1002,-246"/>
<text text-anchor="middle" x="1021" y="-253" font-family="Helvetica,sans-Serif" font-size="10.00">printf</text>
</a>
</g>
</g>
<!-- Node26&#45;&gt;Node27 -->
<g id="edge27" class="edge"><title>Node26&#45;&gt;Node27</title>
<path fill="none" stroke="midnightblue" d="M873.561,-230.064C911.919,-236.727 961.488,-245.337 991.995,-250.636"/>
<polygon fill="midnightblue" stroke="midnightblue" points="991.489,-254.1 1001.94,-252.363 992.687,-247.203 991.489,-254.1"/>
</g>
<!-- Node29 -->
<g id="node29" class="node"><title>Node29</title>
<g id="a_node29"><a xlink:href="../../d7/df0/class_front_1_1_c_screen_element.html#a0b67a3b8e5f71de02586eb60919865e9" target="_top" xlink:title=" ">
<polygon fill="white" stroke="black" points="758,-122.5 758,-152.5 877,-152.5 877,-122.5 758,-122.5"/>
<text text-anchor="start" x="766" y="-140.5" font-family="Helvetica,sans-Serif" font-size="10.00">Front::CScreenElement</text>
<text text-anchor="middle" x="817.5" y="-129.5" font-family="Helvetica,sans-Serif" font-size="10.00">::compute_ul_pos</text>
</a>
</g>
</g>
<!-- Node28&#45;&gt;Node29 -->
<g id="edge29" class="edge"><title>Node28&#45;&gt;Node29</title>
<path fill="none" stroke="midnightblue" d="M684.711,-138.884C704.722,-138.674 727.269,-138.437 747.982,-138.219"/>
<polygon fill="midnightblue" stroke="midnightblue" points="748.02,-141.719 757.983,-138.114 747.947,-134.72 748.02,-141.719"/>
</g>
<!-- Node30 -->
<g id="node30" class="node"><title>Node30</title>
<g id="a_node30"><a xlink:href="../../db/d5a/struct_front_1_1_c_screen_element_1_1_concat_props.html#a65cee8d76c3db67e0bf18ae54ba577cd" target="_top" xlink:title=" ">
<polygon fill="white" stroke="black" points="955.5,-196.5 955.5,-226.5 1086.5,-226.5 1086.5,-196.5 955.5,-196.5"/>
<text text-anchor="start" x="963.5" y="-214.5" font-family="Helvetica,sans-Serif" font-size="10.00">Front::CScreenElement</text>
<text text-anchor="middle" x="1021" y="-203.5" font-family="Helvetica,sans-Serif" font-size="10.00">::ConcatProps::GetScaleX</text>
</a>
</g>
</g>
<!-- Node29&#45;&gt;Node30 -->
<g id="edge30" class="edge"><title>Node29&#45;&gt;Node30</title>
<path fill="none" stroke="midnightblue" d="M851.505,-152.549C874.621,-162.8 906.371,-176.305 935,-186.5 941.675,-188.877 948.699,-191.208 955.732,-193.432"/>
<polygon fill="midnightblue" stroke="midnightblue" points="954.707,-196.779 965.295,-196.394 956.778,-190.092 954.707,-196.779"/>
</g>
<!-- Node31 -->
<g id="node31" class="node"><title>Node31</title>
<g id="a_node31"><a xlink:href="../../db/d5a/struct_front_1_1_c_screen_element_1_1_concat_props.html#ad6dab8a3605b2d1a04ba2f2f957f9a3f" target="_top" xlink:title=" ">
<polygon fill="white" stroke="black" points="955,-147.5 955,-177.5 1087,-177.5 1087,-147.5 955,-147.5"/>
<text text-anchor="start" x="963" y="-165.5" font-family="Helvetica,sans-Serif" font-size="10.00">Front::CScreenElement</text>
<text text-anchor="middle" x="1021" y="-154.5" font-family="Helvetica,sans-Serif" font-size="10.00">::ConcatProps::GetScaleY</text>
</a>
</g>
</g>
<!-- Node29&#45;&gt;Node31 -->
<g id="edge31" class="edge"><title>Node29&#45;&gt;Node31</title>
<path fill="none" stroke="midnightblue" d="M877.053,-144.765C898.214,-147.39 922.406,-150.392 944.795,-153.169"/>
<polygon fill="midnightblue" stroke="midnightblue" points="944.584,-156.67 954.938,-154.428 945.446,-149.723 944.584,-156.67"/>
</g>
<!-- Node32 -->
<g id="node32" class="node"><title>Node32</title>
<g id="a_node32"><a xlink:href="../../db/d5a/struct_front_1_1_c_screen_element_1_1_concat_props.html#a5405979f8cfdfcecd83da845aa8bbba4" target="_top" xlink:title=" ">
<polygon fill="white" stroke="black" points="944,-98.5 944,-128.5 1098,-128.5 1098,-98.5 944,-98.5"/>
<text text-anchor="start" x="952" y="-116.5" font-family="Helvetica,sans-Serif" font-size="10.00">Front::CScreenElement</text>
<text text-anchor="middle" x="1021" y="-105.5" font-family="Helvetica,sans-Serif" font-size="10.00">::ConcatProps::GetScreenPosX</text>
</a>
</g>
</g>
<!-- Node29&#45;&gt;Node32 -->
<g id="edge32" class="edge"><title>Node29&#45;&gt;Node32</title>
<path fill="none" stroke="midnightblue" d="M877.053,-130.526C894.684,-128.426 914.419,-126.075 933.462,-123.807"/>
<polygon fill="midnightblue" stroke="midnightblue" points="934.131,-127.252 943.647,-122.594 933.303,-120.302 934.131,-127.252"/>
</g>
<!-- Node33 -->
<g id="node33" class="node"><title>Node33</title>
<g id="a_node33"><a xlink:href="../../db/d5a/struct_front_1_1_c_screen_element_1_1_concat_props.html#aa0470ec7df7b7c7ea3ba37171721be52" target="_top" xlink:title=" ">
<polygon fill="white" stroke="black" points="943.5,-49.5 943.5,-79.5 1098.5,-79.5 1098.5,-49.5 943.5,-49.5"/>
<text text-anchor="start" x="951.5" y="-67.5" font-family="Helvetica,sans-Serif" font-size="10.00">Front::CScreenElement</text>
<text text-anchor="middle" x="1021" y="-56.5" font-family="Helvetica,sans-Serif" font-size="10.00">::ConcatProps::GetScreenPosY</text>
</a>
</g>
</g>
<!-- Node29&#45;&gt;Node33 -->
<g id="edge33" class="edge"><title>Node29&#45;&gt;Node33</title>
<path fill="none" stroke="midnightblue" d="M851.221,-122.464C874.341,-112.155 906.213,-98.5751 935,-88.5 940.889,-86.439 947.053,-84.4269 953.256,-82.5002"/>
<polygon fill="midnightblue" stroke="midnightblue" points="954.446,-85.7969 963.002,-79.5481 952.416,-79.0975 954.446,-85.7969"/>
</g>
<!-- Node34 -->
<g id="node34" class="node"><title>Node34</title>
<g id="a_node34"><a xlink:href="../../db/d5a/struct_front_1_1_c_screen_element_1_1_concat_props.html#ae8aedbc930ae6481becd98baf0554cc9" target="_top" xlink:title=" ">
<polygon fill="white" stroke="black" points="935,-0.5 935,-30.5 1107,-30.5 1107,-0.5 935,-0.5"/>
<text text-anchor="start" x="943" y="-18.5" font-family="Helvetica,sans-Serif" font-size="10.00">Front::CScreenElement</text>
<text text-anchor="middle" x="1021" y="-7.5" font-family="Helvetica,sans-Serif" font-size="10.00">::ConcatProps::SetScreenUpperLeft</text>
</a>
</g>
</g>
<!-- Node29&#45;&gt;Node34 -->
<g id="edge34" class="edge"><title>Node29&#45;&gt;Node34</title>
<path fill="none" stroke="midnightblue" d="M836.796,-122.419C853.16,-108.897 877.767,-88.4757 899,-70.5 915.115,-56.857 916.4,-49.4938 935,-39.5 938.472,-37.6345 942.103,-35.9017 945.828,-34.2937"/>
<polygon fill="midnightblue" stroke="midnightblue" points="947.24,-37.4987 955.237,-30.5494 944.652,-30.9947 947.24,-37.4987"/>
</g>
<!-- Node37 -->
<g id="node37" class="node"><title>Node37</title>
<g id="a_node37"><a xlink:href="../../df/d07/namespace_str.html#a187ff352809b73d4140d35a9080aeeb9" target="_top" xlink:title=" ">
<polygon fill="white" stroke="black" points="771.5,-42 771.5,-61 863.5,-61 863.5,-42 771.5,-42"/>
<text text-anchor="middle" x="817.5" y="-49" font-family="Helvetica,sans-Serif" font-size="10.00">Str::DehexifyDigit</text>
</a>
</g>
</g>
<!-- Node36&#45;&gt;Node37 -->
<g id="edge37" class="edge"><title>Node36&#45;&gt;Node37</title>
<path fill="none" stroke="midnightblue" d="M700.198,-51.5C720.566,-51.5 742.285,-51.5 761.374,-51.5"/>
<polygon fill="midnightblue" stroke="midnightblue" points="761.388,-55.0001 771.388,-51.5 761.388,-48.0001 761.388,-55.0001"/>
</g>
</g>
</svg>
        <g id="navigator" transform="translate(0 0)" fill="#404254">
                <rect fill="#f2f5e9" fill-opacity="0.5" stroke="#606060" stroke-width=".5" x="0" y="0" width="60" height="60"/>
                <use id="zoomplus" xlink:href="#zoomPlus" x="17" y="9" onmousedown="handleZoom(evt,'in')"/>
                <use id="zoomminus" xlink:href="#zoomMin" x="42" y="9" onmousedown="handleZoom(evt,'out')"/>
                <use id="reset" xlink:href="#resetDef" x="30" y="36" onmousedown="handleReset()"/>
                <g id="arrowUp" xlink:href="#dirArrow" transform="translate(30 24)" onmousedown="handlePan(0,-1)">
                  <use xlink:href="#rim" fill="#404040">
                        <set attributeName="fill" to="#808080" begin="arrowUp.mouseover" end="arrowUp.mouseout"/>
                  </use>
                  <path fill="none" stroke="white" stroke-width="1.5" d="M0,-3.0v7 M-2.5,-0.5L0,-3.0L2.5,-0.5"/>
                </g>
                <g id="arrowRight" xlink:href="#dirArrow" transform="rotate(90) translate(36 -43)" onmousedown="handlePan(1,0)">
                  <use xlink:href="#rim" fill="#404040">
                        <set attributeName="fill" to="#808080" begin="arrowRight.mouseover" end="arrowRight.mouseout"/>
                  </use>
                  <path fill="none" stroke="white" stroke-width="1.5" d="M0,-3.0v7 M-2.5,-0.5L0,-3.0L2.5,-0.5"/>
                </g>
                <g id="arrowDown" xlink:href="#dirArrow" transform="rotate(180) translate(-30 -48)" onmousedown="handlePan(0,1)">
                  <use xlink:href="#rim" fill="#404040">
                        <set attributeName="fill" to="#808080" begin="arrowDown.mouseover" end="arrowDown.mouseout"/>
                  </use>
                  <path fill="none" stroke="white" stroke-width="1.5" d="M0,-3.0v7 M-2.5,-0.5L0,-3.0L2.5,-0.5"/>
                </g>
                <g id="arrowLeft" xlink:href="#dirArrow" transform="rotate(270) translate(-36 17)" onmousedown="handlePan(-1,0)">
                  <use xlink:href="#rim" fill="#404040">
                        <set attributeName="fill" to="#808080" begin="arrowLeft.mouseover" end="arrowLeft.mouseout"/>
                  </use>
                  <path fill="none" stroke="white" stroke-width="1.5" d="M0,-3.0v7 M-2.5,-0.5L0,-3.0L2.5,-0.5"/>
                </g>
        </g>
        <svg viewBox="0 0 15 15" width="100%" height="30px" preserveAspectRatio="xMaxYMin meet">
         <g id="arrow_out" transform="scale(0.3 0.3)">
          <a xlink:href="namespace_c_funcs_a2040471de6cb6f20dcb33c9dfd1d62d7_cgraph_org.svg" target="_base">
           <rect id="button" ry="5" rx="5" y="6" x="6" height="38" width="38"
                fill="#f2f5e9" fill-opacity="0.5" stroke="#606060" stroke-width="1.0"/>
           <path id="arrow"
             d="M 11.500037,31.436501 C 11.940474,20.09759 22.043105,11.32322 32.158766,21.979434 L 37.068811,17.246167 C 37.068811,17.246167 37.088388,32 37.088388,32 L 22.160133,31.978069 C 22.160133,31.978069 26.997745,27.140456 26.997745,27.140456 C 18.528582,18.264221 13.291696,25.230495 11.500037,31.436501 z"
             style="fill:#404040;"/>
          </a>
         </g>
        </svg>
</svg>
