<?xml version="1.0" encoding="UTF-8" standalone="no"?>
<!DOCTYPE svg PUBLIC "-//W3C//DTD SVG 1.1//EN"
 "http://www.w3.org/Graphics/SVG/1.1/DTD/svg11.dtd">
<!-- Generated by graphviz version 2.38.0 (20140413.2041)
 -->
<!-- Title: CFuncs::ScriptAutoKickOn Pages: 1 -->
<svg width="1158pt" height="126pt"
 viewBox="0.00 0.00 1158.00 125.60" xmlns="http://www.w3.org/2000/svg" xmlns:xlink="http://www.w3.org/1999/xlink">
<g id="graph0" class="graph" transform="scale(1 1) rotate(0) translate(4 121.601)">
<title>CFuncs::ScriptAutoKickOn</title>
<polygon fill="white" stroke="none" points="-4,4 -4,-121.601 1154,-121.601 1154,4 -4,4"/>
<!-- Node1 -->
<g id="node1" class="node"><title>Node1</title>
<g id="a_node1"><a xlink:title=" ">
<polygon fill="#bfbfbf" stroke="black" points="0,-85.5 0,-104.5 134,-104.5 134,-85.5 0,-85.5"/>
<text text-anchor="middle" x="67" y="-92.5" font-family="Helvetica,sans-Serif" font-size="10.00">CFuncs::ScriptAutoKickOn</text>
</a>
</g>
</g>
<!-- Node2 -->
<g id="node2" class="node"><title>Node2</title>
<g id="a_node2"><a xlink:href="../../d2/df7/class_script_1_1_c_struct.html#a1e85eee5e600de8358db26f6c777e42d" target="_top" xlink:title=" ">
<polygon fill="white" stroke="black" points="170,-85.5 170,-104.5 302,-104.5 302,-85.5 170,-85.5"/>
<text text-anchor="middle" x="236" y="-92.5" font-family="Helvetica,sans-Serif" font-size="10.00">Script::CStruct::GetInteger</text>
</a>
</g>
</g>
<!-- Node1&#45;&gt;Node2 -->
<g id="edge1" class="edge"><title>Node1&#45;&gt;Node2</title>
<path fill="none" stroke="midnightblue" d="M134.003,-95C142.456,-95 151.16,-95 159.746,-95"/>
<polygon fill="midnightblue" stroke="midnightblue" points="159.75,-98.5001 169.75,-95 159.75,-91.5001 159.75,-98.5001"/>
</g>
<!-- Node3 -->
<g id="node3" class="node"><title>Node3</title>
<g id="a_node3"><a xlink:href="../../d1/d54/namespace_script.html#ae80ed69ea4edcbcbbbd4985a6efdcd6e" target="_top" xlink:title=" ">
<polygon fill="white" stroke="black" points="652,-76.5 652,-95.5 791,-95.5 791,-76.5 652,-76.5"/>
<text text-anchor="middle" x="721.5" y="-83.5" font-family="Helvetica,sans-Serif" font-size="10.00">Script::FindChecksumName</text>
</a>
</g>
</g>
<!-- Node2&#45;&gt;Node3 -->
<g id="edge2" class="edge"><title>Node2&#45;&gt;Node3</title>
<path fill="none" stroke="midnightblue" d="M278.033,-104.511C296.284,-108.276 318.103,-112.145 338,-114 450.144,-124.456 581.089,-108.869 657.026,-97.0907"/>
<polygon fill="midnightblue" stroke="midnightblue" points="657.583,-100.546 666.915,-95.5299 656.492,-93.6318 657.583,-100.546"/>
</g>
<!-- Node7 -->
<g id="node7" class="node"><title>Node7</title>
<g id="a_node7"><a xlink:href="../../d1/d54/namespace_script.html#a0d003ee93577e31adb6597bce0002009" target="_top" xlink:title=" ">
<polygon fill="white" stroke="black" points="350.5,-85.5 350.5,-104.5 457.5,-104.5 457.5,-85.5 350.5,-85.5"/>
<text text-anchor="middle" x="404" y="-92.5" font-family="Helvetica,sans-Serif" font-size="10.00">Script::PrintContents</text>
</a>
</g>
</g>
<!-- Node2&#45;&gt;Node7 -->
<g id="edge6" class="edge"><title>Node2&#45;&gt;Node7</title>
<path fill="none" stroke="midnightblue" d="M302.131,-95C314.621,-95 327.677,-95 340.094,-95"/>
<polygon fill="midnightblue" stroke="midnightblue" points="340.348,-98.5001 350.348,-95 340.348,-91.5001 340.348,-98.5001"/>
</g>
<!-- Node8 -->
<g id="node8" class="node"><title>Node8</title>
<g id="a_node8"><a xlink:href="../../d2/df7/class_script_1_1_c_struct.html#a1e05f0a66cff4a700fb67fdc117d2d7f" target="_top" xlink:title=" ">
<polygon fill="white" stroke="black" points="338,-29.5 338,-48.5 470,-48.5 470,-29.5 338,-29.5"/>
<text text-anchor="middle" x="404" y="-36.5" font-family="Helvetica,sans-Serif" font-size="10.00">Script::CStruct::search_for</text>
</a>
</g>
</g>
<!-- Node2&#45;&gt;Node8 -->
<g id="edge7" class="edge"><title>Node2&#45;&gt;Node8</title>
<path fill="none" stroke="midnightblue" d="M265.536,-85.3733C293.02,-76.1016 334.769,-62.0178 365.045,-51.804"/>
<polygon fill="midnightblue" stroke="midnightblue" points="366.479,-55.0141 374.836,-48.5011 364.242,-48.3813 366.479,-55.0141"/>
</g>
<!-- Node4 -->
<g id="node4" class="node"><title>Node4</title>
<g id="a_node4"><a xlink:href="../../d1/d54/namespace_script.html#a5cc52c4ff5ea5bb27681d819212dfdca" target="_top" xlink:title=" ">
<polygon fill="white" stroke="black" points="827,-95.5 827,-114.5 990,-114.5 990,-95.5 827,-95.5"/>
<text text-anchor="middle" x="908.5" y="-102.5" font-family="Helvetica,sans-Serif" font-size="10.00">Script::FindChecksumNameNULL</text>
</a>
</g>
</g>
<!-- Node3&#45;&gt;Node4 -->
<g id="edge3" class="edge"><title>Node3&#45;&gt;Node4</title>
<path fill="none" stroke="midnightblue" d="M791.124,-93.0479C799.476,-93.9056 808.107,-94.792 816.717,-95.6764"/>
<polygon fill="midnightblue" stroke="midnightblue" points="816.493,-99.1717 826.798,-96.7117 817.208,-92.2083 816.493,-99.1717"/>
</g>
<!-- Node6 -->
<g id="node6" class="node"><title>Node6</title>
<g id="a_node6"><a xlink:href="../../da/d37/namespace_dbg.html#ab406a8cc16de5046c7d9fd09c9de5e22" target="_top" xlink:title=" ">
<polygon fill="white" stroke="black" points="875.5,-57.5 875.5,-76.5 941.5,-76.5 941.5,-57.5 875.5,-57.5"/>
<text text-anchor="middle" x="908.5" y="-64.5" font-family="Helvetica,sans-Serif" font-size="10.00">Dbg::sprintf</text>
</a>
</g>
</g>
<!-- Node3&#45;&gt;Node6 -->
<g id="edge5" class="edge"><title>Node3&#45;&gt;Node6</title>
<path fill="none" stroke="midnightblue" d="M791.124,-78.9521C815.98,-76.3993 843.305,-73.593 865.228,-71.3414"/>
<polygon fill="midnightblue" stroke="midnightblue" points="865.616,-74.8201 875.206,-70.3167 864.901,-67.8567 865.616,-74.8201"/>
</g>
<!-- Node5 -->
<g id="node5" class="node"><title>Node5</title>
<g id="a_node5"><a xlink:href="../../d0/d31/namespace_config.html#a709cc81780d49900157e3476b63aa25d" target="_top" xlink:title=" ">
<polygon fill="white" stroke="black" points="1026,-95.5 1026,-114.5 1150,-114.5 1150,-95.5 1026,-95.5"/>
<text text-anchor="middle" x="1088" y="-102.5" font-family="Helvetica,sans-Serif" font-size="10.00">Config::GotExtraMemory</text>
</a>
</g>
</g>
<!-- Node4&#45;&gt;Node5 -->
<g id="edge4" class="edge"><title>Node4&#45;&gt;Node5</title>
<path fill="none" stroke="midnightblue" d="M990.2,-105C998.729,-105 1007.36,-105 1015.77,-105"/>
<polygon fill="midnightblue" stroke="midnightblue" points="1015.9,-108.5 1025.9,-105 1015.9,-101.5 1015.9,-108.5"/>
</g>
<!-- Node8&#45;&gt;Node3 -->
<g id="edge8" class="edge"><title>Node8&#45;&gt;Node3</title>
<path fill="none" stroke="midnightblue" d="M433.846,-48.5069C453.873,-54.7331 481.292,-62.5195 506,-67 550.594,-75.0867 601.053,-79.7752 641.823,-82.4705"/>
<polygon fill="midnightblue" stroke="midnightblue" points="641.769,-85.974 651.971,-83.1137 642.212,-78.988 641.769,-85.974"/>
</g>
<!-- Node8&#45;&gt;Node8 -->
<g id="edge13" class="edge"><title>Node8&#45;&gt;Node8</title>
<path fill="none" stroke="midnightblue" d="M379.956,-48.7571C368.259,-57.5653 376.273,-67 404,-67 422.196,-67 431.902,-62.9368 433.119,-57.6539"/>
<polygon fill="midnightblue" stroke="midnightblue" points="436.039,-55.7091 428.044,-48.7571 429.959,-59.1775 436.039,-55.7091"/>
</g>
<!-- Node9 -->
<g id="node9" class="node"><title>Node9</title>
<g id="a_node9"><a xlink:href="../../d1/d54/namespace_script.html#af32f99ba26ca0f255240413a4e23a754" target="_top" xlink:title=" ">
<polygon fill="white" stroke="black" points="506,-38.5 506,-57.5 616,-57.5 616,-38.5 506,-38.5"/>
<text text-anchor="middle" x="561" y="-45.5" font-family="Helvetica,sans-Serif" font-size="10.00">Script::GetTypeName</text>
</a>
</g>
</g>
<!-- Node8&#45;&gt;Node9 -->
<g id="edge9" class="edge"><title>Node8&#45;&gt;Node9</title>
<path fill="none" stroke="midnightblue" d="M470.285,-42.7907C478.637,-43.2757 487.184,-43.772 495.523,-44.2562"/>
<polygon fill="midnightblue" stroke="midnightblue" points="495.38,-47.7536 505.566,-44.8393 495.785,-40.7654 495.38,-47.7536"/>
</g>
<!-- Node10 -->
<g id="node10" class="node"><title>Node10</title>
<g id="a_node10"><a xlink:href="../../d1/d54/namespace_script.html#a43181580ea5d38e4bf1aa19ccd5e9e85" target="_top" xlink:title=" ">
<polygon fill="white" stroke="black" points="520,-0.5 520,-19.5 602,-19.5 602,-0.5 520,-0.5"/>
<text text-anchor="middle" x="561" y="-7.5" font-family="Helvetica,sans-Serif" font-size="10.00">Script::Resolve</text>
</a>
</g>
</g>
<!-- Node8&#45;&gt;Node10 -->
<g id="edge10" class="edge"><title>Node8&#45;&gt;Node10</title>
<path fill="none" stroke="midnightblue" d="M456.182,-29.4239C473.431,-26.1967 492.654,-22.6003 509.824,-19.3878"/>
<polygon fill="midnightblue" stroke="midnightblue" points="510.48,-22.8258 519.666,-17.5464 509.193,-15.9452 510.48,-22.8258"/>
</g>
<!-- Node10&#45;&gt;Node3 -->
<g id="edge11" class="edge"><title>Node10&#45;&gt;Node3</title>
<path fill="none" stroke="midnightblue" d="M591.764,-19.5083C599.737,-22.3156 608.283,-25.5644 616,-29 644.324,-41.609 675.339,-59.015 696.164,-71.2654"/>
<polygon fill="midnightblue" stroke="midnightblue" points="694.583,-74.3976 704.968,-76.4954 698.158,-68.3792 694.583,-74.3976"/>
</g>
<!-- Node11 -->
<g id="node11" class="node"><title>Node11</title>
<g id="a_node11"><a xlink:href="../../d1/d54/namespace_script.html#af293a36c230b10de7d8151c2990b233b" target="_top" xlink:title=" ">
<polygon fill="white" stroke="black" points="664.5,-0.5 664.5,-19.5 778.5,-19.5 778.5,-0.5 664.5,-0.5"/>
<text text-anchor="middle" x="721.5" y="-7.5" font-family="Helvetica,sans-Serif" font-size="10.00">Script::LookUpSymbol</text>
</a>
</g>
</g>
<!-- Node10&#45;&gt;Node11 -->
<g id="edge12" class="edge"><title>Node10&#45;&gt;Node11</title>
<path fill="none" stroke="midnightblue" d="M602.406,-10C618.124,-10 636.549,-10 654.11,-10"/>
<polygon fill="midnightblue" stroke="midnightblue" points="654.322,-13.5001 664.322,-10 654.322,-6.5001 654.322,-13.5001"/>
</g>
</g>
</svg>
