<?xml version="1.0" encoding="UTF-8" standalone="no"?>
<!DOCTYPE svg PUBLIC "-//W3C//DTD SVG 1.1//EN"
 "http://www.w3.org/Graphics/SVG/1.1/DTD/svg11.dtd">
<!-- Generated by graphviz version 2.38.0 (20140413.2041)
 -->
<!-- Title: CFuncs::ScriptFormatCard Pages: 1 -->
<svg width="746pt" height="218pt"
 viewBox="0.00 0.00 746.00 218.00" xmlns="http://www.w3.org/2000/svg" xmlns:xlink="http://www.w3.org/1999/xlink">
<g id="graph0" class="graph" transform="scale(1 1) rotate(0) translate(4 214)">
<title>CFuncs::ScriptFormatCard</title>
<polygon fill="white" stroke="none" points="-4,4 -4,-214 742,-214 742,4 -4,4"/>
<!-- Node1 -->
<g id="node1" class="node"><title>Node1</title>
<g id="a_node1"><a xlink:title=" ">
<polygon fill="#bfbfbf" stroke="black" points="0,-133.5 0,-152.5 133,-152.5 133,-133.5 0,-133.5"/>
<text text-anchor="middle" x="66.5" y="-140.5" font-family="Helvetica,sans-Serif" font-size="10.00">CFuncs::ScriptFormatCard</text>
</a>
</g>
</g>
<!-- Node2 -->
<g id="node2" class="node"><title>Node2</title>
<g id="a_node2"><a xlink:href="../../d2/dcc/class_mc_1_1_card.html#abaeaf8a61b745e2257000c3b5f351314" target="_top" xlink:title=" ">
<polygon fill="white" stroke="black" points="180.5,-190.5 180.5,-209.5 273.5,-209.5 273.5,-190.5 180.5,-190.5"/>
<text text-anchor="middle" x="227" y="-197.5" font-family="Helvetica,sans-Serif" font-size="10.00">Mc::Card::Format</text>
</a>
</g>
</g>
<!-- Node1&#45;&gt;Node2 -->
<g id="edge1" class="edge"><title>Node1&#45;&gt;Node2</title>
<path fill="none" stroke="midnightblue" d="M92.4345,-152.625C112.924,-160.464 142.746,-171.713 169,-181 174.733,-183.028 180.811,-185.117 186.779,-187.136"/>
<polygon fill="midnightblue" stroke="midnightblue" points="186.046,-190.581 196.64,-190.441 188.27,-183.944 186.046,-190.581"/>
</g>
<!-- Node3 -->
<g id="node3" class="node"><title>Node3</title>
<g id="a_node3"><a xlink:href="../../d6/d06/class_mc_1_1_manager.html#a96cc278fe2d03dbc55ea9c3ee059a206" target="_top" xlink:title=" ">
<polygon fill="white" stroke="black" points="169,-152.5 169,-171.5 285,-171.5 285,-152.5 169,-152.5"/>
<text text-anchor="middle" x="227" y="-159.5" font-family="Helvetica,sans-Serif" font-size="10.00">Mc::Manager::GetCard</text>
</a>
</g>
</g>
<!-- Node1&#45;&gt;Node3 -->
<g id="edge2" class="edge"><title>Node1&#45;&gt;Node3</title>
<path fill="none" stroke="midnightblue" d="M133.341,-150.893C141.686,-151.893 150.235,-152.918 158.603,-153.921"/>
<polygon fill="midnightblue" stroke="midnightblue" points="158.35,-157.416 168.696,-155.131 159.183,-150.465 158.35,-157.416"/>
</g>
<!-- Node4 -->
<g id="node4" class="node"><title>Node4</title>
<g id="a_node4"><a xlink:href="../../de/d3e/namespace_pcm.html#ad5082cda5b5b210b9569ddaca07148a8" target="_top" xlink:title=" ">
<polygon fill="white" stroke="black" points="178.5,-76.5 178.5,-95.5 275.5,-95.5 275.5,-76.5 178.5,-76.5"/>
<text text-anchor="middle" x="227" y="-83.5" font-family="Helvetica,sans-Serif" font-size="10.00">Pcm::PauseMusic</text>
</a>
</g>
</g>
<!-- Node1&#45;&gt;Node4 -->
<g id="edge3" class="edge"><title>Node1&#45;&gt;Node4</title>
<path fill="none" stroke="midnightblue" d="M92.4345,-133.375C112.924,-125.536 142.746,-114.287 169,-105 174.733,-102.972 180.811,-100.883 186.779,-98.8645"/>
<polygon fill="midnightblue" stroke="midnightblue" points="188.27,-102.056 196.64,-95.5594 186.046,-95.419 188.27,-102.056"/>
</g>
<!-- Node13 -->
<g id="node13" class="node"><title>Node13</title>
<g id="a_node13"><a xlink:href="../../de/d3e/namespace_pcm.html#ab66d43c8f3ac77f6a3138d7b18567663" target="_top" xlink:title=" ">
<polygon fill="white" stroke="black" points="176,-114.5 176,-133.5 278,-133.5 278,-114.5 176,-114.5"/>
<text text-anchor="middle" x="227" y="-121.5" font-family="Helvetica,sans-Serif" font-size="10.00">Pcm::PauseStream</text>
</a>
</g>
</g>
<!-- Node1&#45;&gt;Node13 -->
<g id="edge12" class="edge"><title>Node1&#45;&gt;Node13</title>
<path fill="none" stroke="midnightblue" d="M133.341,-135.107C144.041,-133.825 155.076,-132.502 165.636,-131.236"/>
<polygon fill="midnightblue" stroke="midnightblue" points="166.077,-134.708 175.589,-130.043 165.244,-127.758 166.077,-134.708"/>
</g>
<!-- Node5 -->
<g id="node5" class="node"><title>Node5</title>
<g id="a_node5"><a xlink:href="../../de/d3e/namespace_pcm.html#af0bafbd0b771375d49a4a76ae3a9a83b" target="_top" xlink:title=" ">
<polygon fill="white" stroke="black" points="326.5,-95.5 326.5,-114.5 437.5,-114.5 437.5,-95.5 326.5,-95.5"/>
<text text-anchor="middle" x="382" y="-102.5" font-family="Helvetica,sans-Serif" font-size="10.00">Pcm::NoMusicPlease</text>
</a>
</g>
</g>
<!-- Node4&#45;&gt;Node5 -->
<g id="edge4" class="edge"><title>Node4&#45;&gt;Node5</title>
<path fill="none" stroke="midnightblue" d="M275.571,-91.9076C288.364,-93.4962 302.422,-95.2419 315.987,-96.9264"/>
<polygon fill="midnightblue" stroke="midnightblue" points="315.879,-100.44 326.234,-98.199 316.742,-93.4933 315.879,-100.44"/>
</g>
<!-- Node7 -->
<g id="node7" class="node"><title>Node7</title>
<g id="a_node7"><a xlink:href="../../de/d3e/namespace_pcm.html#a18a60bdc2fe052b37ad788a0114ba2d8" target="_top" xlink:title=" ">
<polygon fill="white" stroke="black" points="321,-57.5 321,-76.5 443,-76.5 443,-57.5 321,-57.5"/>
<text text-anchor="middle" x="382" y="-64.5" font-family="Helvetica,sans-Serif" font-size="10.00">Pcm::PCMAudio_Pause</text>
</a>
</g>
</g>
<!-- Node4&#45;&gt;Node7 -->
<g id="edge6" class="edge"><title>Node4&#45;&gt;Node7</title>
<path fill="none" stroke="midnightblue" d="M275.571,-80.0924C286.742,-78.7052 298.878,-77.1981 310.808,-75.7166"/>
<polygon fill="midnightblue" stroke="midnightblue" points="311.263,-79.1872 320.755,-74.4814 310.4,-72.2405 311.263,-79.1872"/>
</g>
<!-- Node6 -->
<g id="node6" class="node"><title>Node6</title>
<g id="a_node6"><a xlink:href="../../d0/d31/namespace_config.html#a6cdbd8b148c494cebe8d9f141d1896a1" target="_top" xlink:title=" ">
<polygon fill="white" stroke="black" points="479,-133.5 479,-152.5 585,-152.5 585,-133.5 479,-133.5"/>
<text text-anchor="middle" x="532" y="-140.5" font-family="Helvetica,sans-Serif" font-size="10.00">Config::GetHardware</text>
</a>
</g>
</g>
<!-- Node5&#45;&gt;Node6 -->
<g id="edge5" class="edge"><title>Node5&#45;&gt;Node6</title>
<path fill="none" stroke="midnightblue" d="M420.347,-114.589C439.701,-119.558 463.53,-125.677 484.113,-130.961"/>
<polygon fill="midnightblue" stroke="midnightblue" points="483.366,-134.383 493.922,-133.48 485.107,-127.603 483.366,-134.383"/>
</g>
<!-- Node8 -->
<g id="node8" class="node"><title>Node8</title>
<g id="a_node8"><a xlink:href="../../de/d17/_a_u_d_simple_audio_8cpp.html#a3c225c2fe2faf817fbb4be3025e804a7" target="_top" xlink:title=" ">
<polygon fill="white" stroke="black" points="484.5,-76.5 484.5,-95.5 579.5,-95.5 579.5,-76.5 484.5,-76.5"/>
<text text-anchor="middle" x="532" y="-83.5" font-family="Helvetica,sans-Serif" font-size="10.00">AUDSimplePause</text>
</a>
</g>
</g>
<!-- Node7&#45;&gt;Node8 -->
<g id="edge7" class="edge"><title>Node7&#45;&gt;Node8</title>
<path fill="none" stroke="midnightblue" d="M443.197,-74.728C453.521,-76.0534 464.216,-77.4264 474.44,-78.739"/>
<polygon fill="midnightblue" stroke="midnightblue" points="474.112,-82.2255 484.477,-80.0274 475.004,-75.2825 474.112,-82.2255"/>
</g>
<!-- Node9 -->
<g id="node9" class="node"><title>Node9</title>
<g id="a_node9"><a xlink:href="../../de/d3e/namespace_pcm.html#a05919e3e44c529889b932611ce5c91e2" target="_top" xlink:title=" ">
<polygon fill="white" stroke="black" points="491.5,-38.5 491.5,-57.5 572.5,-57.5 572.5,-38.5 491.5,-38.5"/>
<text text-anchor="middle" x="532" y="-45.5" font-family="Helvetica,sans-Serif" font-size="10.00">Pcm::setDolby</text>
</a>
</g>
</g>
<!-- Node7&#45;&gt;Node9 -->
<g id="edge8" class="edge"><title>Node7&#45;&gt;Node9</title>
<path fill="none" stroke="midnightblue" d="M443.197,-59.272C455.827,-57.6506 469.012,-55.9579 481.211,-54.3918"/>
<polygon fill="midnightblue" stroke="midnightblue" points="481.72,-57.8553 491.193,-53.1104 480.828,-50.9123 481.72,-57.8553"/>
</g>
<!-- Node10 -->
<g id="node10" class="node"><title>Node10</title>
<g id="a_node10"><a xlink:href="../../d1/d08/class_mth_1_1_vector.html#a88ad2190dc8bba653fc442dfed7c033a" target="_top" xlink:title=" ">
<polygon fill="white" stroke="black" points="628,-76.5 628,-95.5 731,-95.5 731,-76.5 628,-76.5"/>
<text text-anchor="middle" x="679.5" y="-83.5" font-family="Helvetica,sans-Serif" font-size="10.00">Mth::Vector::Length</text>
</a>
</g>
</g>
<!-- Node9&#45;&gt;Node10 -->
<g id="edge9" class="edge"><title>Node9&#45;&gt;Node10</title>
<path fill="none" stroke="midnightblue" d="M569.716,-57.589C588.657,-62.5358 611.957,-68.6211 632.129,-73.8892"/>
<polygon fill="midnightblue" stroke="midnightblue" points="631.488,-77.3394 642.048,-76.4799 633.257,-70.5665 631.488,-77.3394"/>
</g>
<!-- Node11 -->
<g id="node11" class="node"><title>Node11</title>
<g id="a_node11"><a xlink:href="../../d1/d08/class_mth_1_1_vector.html#ac68fbfe676c95bf1ada686076c00675a" target="_top" xlink:title=" ">
<polygon fill="white" stroke="black" points="621,-38.5 621,-57.5 738,-57.5 738,-38.5 621,-38.5"/>
<text text-anchor="middle" x="679.5" y="-45.5" font-family="Helvetica,sans-Serif" font-size="10.00">Mth::Vector::Normalize</text>
</a>
</g>
</g>
<!-- Node9&#45;&gt;Node11 -->
<g id="edge10" class="edge"><title>Node9&#45;&gt;Node11</title>
<path fill="none" stroke="midnightblue" d="M572.759,-48C584.444,-48 597.569,-48 610.494,-48"/>
<polygon fill="midnightblue" stroke="midnightblue" points="610.786,-51.5001 620.786,-48 610.786,-44.5001 610.786,-51.5001"/>
</g>
<!-- Node12 -->
<g id="node12" class="node"><title>Node12</title>
<g id="a_node12"><a xlink:href="../../d5/db9/namespace_mth.html#ac76db42c879254b5ea1d63baf045f9a5" target="_top" xlink:title=" ">
<polygon fill="white" stroke="black" points="637.5,-0.5 637.5,-19.5 721.5,-19.5 721.5,-0.5 637.5,-0.5"/>
<text text-anchor="middle" x="679.5" y="-7.5" font-family="Helvetica,sans-Serif" font-size="10.00">Mth::RadToDeg</text>
</a>
</g>
</g>
<!-- Node9&#45;&gt;Node12 -->
<g id="edge11" class="edge"><title>Node9&#45;&gt;Node12</title>
<path fill="none" stroke="midnightblue" d="M569.716,-38.411C588.657,-33.4642 611.957,-27.3789 632.129,-22.1108"/>
<polygon fill="midnightblue" stroke="midnightblue" points="633.257,-25.4335 642.048,-19.5201 631.488,-18.6606 633.257,-25.4335"/>
</g>
<!-- Node13&#45;&gt;Node7 -->
<g id="edge13" class="edge"><title>Node13&#45;&gt;Node7</title>
<path fill="none" stroke="midnightblue" d="M259.704,-114.456C268.035,-111.671 276.942,-108.442 285,-105 301.637,-97.8934 304.309,-92.981 321,-86 326.36,-83.7582 332.082,-81.628 337.784,-79.6597"/>
<polygon fill="midnightblue" stroke="midnightblue" points="338.902,-82.9763 347.294,-76.509 336.701,-76.3315 338.902,-82.9763"/>
</g>
<!-- Node14 -->
<g id="node14" class="node"><title>Node14</title>
<g id="a_node14"><a xlink:href="../../de/d3e/namespace_pcm.html#a40ff528e21ecd75aac50a806657859eb" target="_top" xlink:title=" ">
<polygon fill="white" stroke="black" points="323.5,-133.5 323.5,-152.5 440.5,-152.5 440.5,-133.5 323.5,-133.5"/>
<text text-anchor="middle" x="382" y="-140.5" font-family="Helvetica,sans-Serif" font-size="10.00">Pcm::StreamsDisabled</text>
</a>
</g>
</g>
<!-- Node13&#45;&gt;Node14 -->
<g id="edge14" class="edge"><title>Node13&#45;&gt;Node14</title>
<path fill="none" stroke="midnightblue" d="M278.098,-130.221C289.287,-131.611 301.336,-133.107 313.108,-134.569"/>
<polygon fill="midnightblue" stroke="midnightblue" points="313,-138.082 323.355,-135.841 313.862,-131.136 313,-138.082"/>
</g>
<!-- Node14&#45;&gt;Node6 -->
<g id="edge15" class="edge"><title>Node14&#45;&gt;Node6</title>
<path fill="none" stroke="midnightblue" d="M440.644,-143C449.726,-143 459.153,-143 468.342,-143"/>
<polygon fill="midnightblue" stroke="midnightblue" points="468.583,-146.5 478.583,-143 468.583,-139.5 468.583,-146.5"/>
</g>
</g>
</svg>
