<?xml version="1.0" encoding="UTF-8" standalone="no"?>
<!DOCTYPE svg PUBLIC "-//W3C//DTD SVG 1.1//EN"
 "http://www.w3.org/Graphics/SVG/1.1/DTD/svg11.dtd">
<!-- Generated by graphviz version 2.38.0 (20140413.2041)
 -->
<!-- Title: CFuncs::ScriptVibrationOn Pages: 1 -->
<svg width="1157pt" height="126pt"
 viewBox="0.00 0.00 1157.00 125.60" xmlns="http://www.w3.org/2000/svg" xmlns:xlink="http://www.w3.org/1999/xlink">
<g id="graph0" class="graph" transform="scale(1 1) rotate(0) translate(4 121.601)">
<title>CFuncs::ScriptVibrationOn</title>
<polygon fill="white" stroke="none" points="-4,4 -4,-121.601 1153,-121.601 1153,4 -4,4"/>
<!-- Node1 -->
<g id="node1" class="node"><title>Node1</title>
<g id="a_node1"><a xlink:title=" ">
<polygon fill="#bfbfbf" stroke="black" points="0,-85.5 0,-104.5 133,-104.5 133,-85.5 0,-85.5"/>
<text text-anchor="middle" x="66.5" y="-92.5" font-family="Helvetica,sans-Serif" font-size="10.00">CFuncs::ScriptVibrationOn</text>
</a>
</g>
</g>
<!-- Node2 -->
<g id="node2" class="node"><title>Node2</title>
<g id="a_node2"><a xlink:href="../../d2/df7/class_script_1_1_c_struct.html#a1e85eee5e600de8358db26f6c777e42d" target="_top" xlink:title=" ">
<polygon fill="white" stroke="black" points="169,-85.5 169,-104.5 301,-104.5 301,-85.5 169,-85.5"/>
<text text-anchor="middle" x="235" y="-92.5" font-family="Helvetica,sans-Serif" font-size="10.00">Script::CStruct::GetInteger</text>
</a>
</g>
</g>
<!-- Node1&#45;&gt;Node2 -->
<g id="edge1" class="edge"><title>Node1&#45;&gt;Node2</title>
<path fill="none" stroke="midnightblue" d="M133.305,-95C141.642,-95 150.222,-95 158.692,-95"/>
<polygon fill="midnightblue" stroke="midnightblue" points="158.945,-98.5001 168.945,-95 158.945,-91.5001 158.945,-98.5001"/>
</g>
<!-- Node3 -->
<g id="node3" class="node"><title>Node3</title>
<g id="a_node3"><a xlink:href="../../d1/d54/namespace_script.html#ae80ed69ea4edcbcbbbd4985a6efdcd6e" target="_top" xlink:title=" ">
<polygon fill="white" stroke="black" points="651,-76.5 651,-95.5 790,-95.5 790,-76.5 651,-76.5"/>
<text text-anchor="middle" x="720.5" y="-83.5" font-family="Helvetica,sans-Serif" font-size="10.00">Script::FindChecksumName</text>
</a>
</g>
</g>
<!-- Node2&#45;&gt;Node3 -->
<g id="edge2" class="edge"><title>Node2&#45;&gt;Node3</title>
<path fill="none" stroke="midnightblue" d="M277.033,-104.511C295.284,-108.276 317.103,-112.145 337,-114 449.144,-124.456 580.089,-108.869 656.026,-97.0907"/>
<polygon fill="midnightblue" stroke="midnightblue" points="656.583,-100.546 665.915,-95.5299 655.492,-93.6318 656.583,-100.546"/>
</g>
<!-- Node7 -->
<g id="node7" class="node"><title>Node7</title>
<g id="a_node7"><a xlink:href="../../d1/d54/namespace_script.html#a0d003ee93577e31adb6597bce0002009" target="_top" xlink:title=" ">
<polygon fill="white" stroke="black" points="349.5,-85.5 349.5,-104.5 456.5,-104.5 456.5,-85.5 349.5,-85.5"/>
<text text-anchor="middle" x="403" y="-92.5" font-family="Helvetica,sans-Serif" font-size="10.00">Script::PrintContents</text>
</a>
</g>
</g>
<!-- Node2&#45;&gt;Node7 -->
<g id="edge6" class="edge"><title>Node2&#45;&gt;Node7</title>
<path fill="none" stroke="midnightblue" d="M301.131,-95C313.621,-95 326.677,-95 339.094,-95"/>
<polygon fill="midnightblue" stroke="midnightblue" points="339.348,-98.5001 349.348,-95 339.348,-91.5001 339.348,-98.5001"/>
</g>
<!-- Node8 -->
<g id="node8" class="node"><title>Node8</title>
<g id="a_node8"><a xlink:href="../../d2/df7/class_script_1_1_c_struct.html#a1e05f0a66cff4a700fb67fdc117d2d7f" target="_top" xlink:title=" ">
<polygon fill="white" stroke="black" points="337,-29.5 337,-48.5 469,-48.5 469,-29.5 337,-29.5"/>
<text text-anchor="middle" x="403" y="-36.5" font-family="Helvetica,sans-Serif" font-size="10.00">Script::CStruct::search_for</text>
</a>
</g>
</g>
<!-- Node2&#45;&gt;Node8 -->
<g id="edge7" class="edge"><title>Node2&#45;&gt;Node8</title>
<path fill="none" stroke="midnightblue" d="M264.536,-85.3733C292.02,-76.1016 333.769,-62.0178 364.045,-51.804"/>
<polygon fill="midnightblue" stroke="midnightblue" points="365.479,-55.0141 373.836,-48.5011 363.242,-48.3813 365.479,-55.0141"/>
</g>
<!-- Node4 -->
<g id="node4" class="node"><title>Node4</title>
<g id="a_node4"><a xlink:href="../../d1/d54/namespace_script.html#a5cc52c4ff5ea5bb27681d819212dfdca" target="_top" xlink:title=" ">
<polygon fill="white" stroke="black" points="826,-95.5 826,-114.5 989,-114.5 989,-95.5 826,-95.5"/>
<text text-anchor="middle" x="907.5" y="-102.5" font-family="Helvetica,sans-Serif" font-size="10.00">Script::FindChecksumNameNULL</text>
</a>
</g>
</g>
<!-- Node3&#45;&gt;Node4 -->
<g id="edge3" class="edge"><title>Node3&#45;&gt;Node4</title>
<path fill="none" stroke="midnightblue" d="M790.124,-93.0479C798.476,-93.9056 807.107,-94.792 815.717,-95.6764"/>
<polygon fill="midnightblue" stroke="midnightblue" points="815.493,-99.1717 825.798,-96.7117 816.208,-92.2083 815.493,-99.1717"/>
</g>
<!-- Node6 -->
<g id="node6" class="node"><title>Node6</title>
<g id="a_node6"><a xlink:href="../../da/d37/namespace_dbg.html#ab406a8cc16de5046c7d9fd09c9de5e22" target="_top" xlink:title=" ">
<polygon fill="white" stroke="black" points="874.5,-57.5 874.5,-76.5 940.5,-76.5 940.5,-57.5 874.5,-57.5"/>
<text text-anchor="middle" x="907.5" y="-64.5" font-family="Helvetica,sans-Serif" font-size="10.00">Dbg::sprintf</text>
</a>
</g>
</g>
<!-- Node3&#45;&gt;Node6 -->
<g id="edge5" class="edge"><title>Node3&#45;&gt;Node6</title>
<path fill="none" stroke="midnightblue" d="M790.124,-78.9521C814.98,-76.3993 842.305,-73.593 864.228,-71.3414"/>
<polygon fill="midnightblue" stroke="midnightblue" points="864.616,-74.8201 874.206,-70.3167 863.901,-67.8567 864.616,-74.8201"/>
</g>
<!-- Node5 -->
<g id="node5" class="node"><title>Node5</title>
<g id="a_node5"><a xlink:href="../../d0/d31/namespace_config.html#a709cc81780d49900157e3476b63aa25d" target="_top" xlink:title=" ">
<polygon fill="white" stroke="black" points="1025,-95.5 1025,-114.5 1149,-114.5 1149,-95.5 1025,-95.5"/>
<text text-anchor="middle" x="1087" y="-102.5" font-family="Helvetica,sans-Serif" font-size="10.00">Config::GotExtraMemory</text>
</a>
</g>
</g>
<!-- Node4&#45;&gt;Node5 -->
<g id="edge4" class="edge"><title>Node4&#45;&gt;Node5</title>
<path fill="none" stroke="midnightblue" d="M989.2,-105C997.729,-105 1006.36,-105 1014.77,-105"/>
<polygon fill="midnightblue" stroke="midnightblue" points="1014.9,-108.5 1024.9,-105 1014.9,-101.5 1014.9,-108.5"/>
</g>
<!-- Node8&#45;&gt;Node3 -->
<g id="edge8" class="edge"><title>Node8&#45;&gt;Node3</title>
<path fill="none" stroke="midnightblue" d="M432.846,-48.5069C452.873,-54.7331 480.292,-62.5195 505,-67 549.594,-75.0867 600.053,-79.7752 640.823,-82.4705"/>
<polygon fill="midnightblue" stroke="midnightblue" points="640.769,-85.974 650.971,-83.1137 641.212,-78.988 640.769,-85.974"/>
</g>
<!-- Node8&#45;&gt;Node8 -->
<g id="edge13" class="edge"><title>Node8&#45;&gt;Node8</title>
<path fill="none" stroke="midnightblue" d="M378.956,-48.7571C367.259,-57.5653 375.273,-67 403,-67 421.196,-67 430.902,-62.9368 432.119,-57.6539"/>
<polygon fill="midnightblue" stroke="midnightblue" points="435.039,-55.7091 427.044,-48.7571 428.959,-59.1775 435.039,-55.7091"/>
</g>
<!-- Node9 -->
<g id="node9" class="node"><title>Node9</title>
<g id="a_node9"><a xlink:href="../../d1/d54/namespace_script.html#af32f99ba26ca0f255240413a4e23a754" target="_top" xlink:title=" ">
<polygon fill="white" stroke="black" points="505,-38.5 505,-57.5 615,-57.5 615,-38.5 505,-38.5"/>
<text text-anchor="middle" x="560" y="-45.5" font-family="Helvetica,sans-Serif" font-size="10.00">Script::GetTypeName</text>
</a>
</g>
</g>
<!-- Node8&#45;&gt;Node9 -->
<g id="edge9" class="edge"><title>Node8&#45;&gt;Node9</title>
<path fill="none" stroke="midnightblue" d="M469.285,-42.7907C477.637,-43.2757 486.184,-43.772 494.523,-44.2562"/>
<polygon fill="midnightblue" stroke="midnightblue" points="494.38,-47.7536 504.566,-44.8393 494.785,-40.7654 494.38,-47.7536"/>
</g>
<!-- Node10 -->
<g id="node10" class="node"><title>Node10</title>
<g id="a_node10"><a xlink:href="../../d1/d54/namespace_script.html#a43181580ea5d38e4bf1aa19ccd5e9e85" target="_top" xlink:title=" ">
<polygon fill="white" stroke="black" points="519,-0.5 519,-19.5 601,-19.5 601,-0.5 519,-0.5"/>
<text text-anchor="middle" x="560" y="-7.5" font-family="Helvetica,sans-Serif" font-size="10.00">Script::Resolve</text>
</a>
</g>
</g>
<!-- Node8&#45;&gt;Node10 -->
<g id="edge10" class="edge"><title>Node8&#45;&gt;Node10</title>
<path fill="none" stroke="midnightblue" d="M455.182,-29.4239C472.431,-26.1967 491.654,-22.6003 508.824,-19.3878"/>
<polygon fill="midnightblue" stroke="midnightblue" points="509.48,-22.8258 518.666,-17.5464 508.193,-15.9452 509.48,-22.8258"/>
</g>
<!-- Node10&#45;&gt;Node3 -->
<g id="edge11" class="edge"><title>Node10&#45;&gt;Node3</title>
<path fill="none" stroke="midnightblue" d="M590.764,-19.5083C598.737,-22.3156 607.283,-25.5644 615,-29 643.324,-41.609 674.339,-59.015 695.164,-71.2654"/>
<polygon fill="midnightblue" stroke="midnightblue" points="693.583,-74.3976 703.968,-76.4954 697.158,-68.3792 693.583,-74.3976"/>
</g>
<!-- Node11 -->
<g id="node11" class="node"><title>Node11</title>
<g id="a_node11"><a xlink:href="../../d1/d54/namespace_script.html#af293a36c230b10de7d8151c2990b233b" target="_top" xlink:title=" ">
<polygon fill="white" stroke="black" points="663.5,-0.5 663.5,-19.5 777.5,-19.5 777.5,-0.5 663.5,-0.5"/>
<text text-anchor="middle" x="720.5" y="-7.5" font-family="Helvetica,sans-Serif" font-size="10.00">Script::LookUpSymbol</text>
</a>
</g>
</g>
<!-- Node10&#45;&gt;Node11 -->
<g id="edge12" class="edge"><title>Node10&#45;&gt;Node11</title>
<path fill="none" stroke="midnightblue" d="M601.406,-10C617.124,-10 635.549,-10 653.11,-10"/>
<polygon fill="midnightblue" stroke="midnightblue" points="653.322,-13.5001 663.322,-10 653.322,-6.5001 653.322,-13.5001"/>
</g>
</g>
</svg>
