<?xml version="1.0" encoding="UTF-8" standalone="no"?>
<!DOCTYPE svg PUBLIC "-//W3C//DTD SVG 1.1//EN"
 "http://www.w3.org/Graphics/SVG/1.1/DTD/svg11.dtd">
<!-- Generated by graphviz version 2.38.0 (20140413.2041)
 -->
<!-- Title: CFuncs::ScriptCurrentScorePotGreaterThan Pages: 1 -->
<!--zoomable 211 -->
<svg id="main" version="1.1" xmlns="http://www.w3.org/2000/svg" xmlns:xlink="http://www.w3.org/1999/xlink" xml:space="preserve" onload="init(evt)">
<style type="text/css"><![CDATA[
.edge:hover path { stroke: red; }
.edge:hover polygon { stroke: red; fill: red; }
]]></style>
<script type="text/javascript"><![CDATA[
var edges = document.getElementsByTagName('g');
if (edges && edges.length) {
  for (var i=0;i<edges.length;i++) {
    if (edges[i].id.substr(0,4)=='edge') {
      edges[i].setAttribute('class','edge');
    }
  }
}
]]></script>
        <defs>
                <circle id="rim" cx="0" cy="0" r="7"/>
                <circle id="rim2" cx="0" cy="0" r="3.5"/>
                <g id="zoomPlus">
                        <use xlink:href="#rim" fill="#404040">
                                <set attributeName="fill" to="#808080" begin="zoomplus.mouseover" end="zoomplus.mouseout"/>
                        </use>
                        <path d="M-4,0h8M0,-4v8" fill="none" stroke="white" stroke-width="1.5" pointer-events="none"/>
                </g>
                <g id="zoomMin">
                        <use xlink:href="#rim" fill="#404040">
                                <set attributeName="fill" to="#808080" begin="zoomminus.mouseover" end="zoomminus.mouseout"/>
                        </use>
                        <path d="M-4,0h8" fill="none" stroke="white" stroke-width="1.5" pointer-events="none"/>
                </g>
                <g id="dirArrow">
                        <path fill="none" stroke="white" stroke-width="1.5" d="M0,-3.0v7 M-2.5,-0.5L0,-3.0L2.5,-0.5"/>
                </g>
               <g id="resetDef">
                       <use xlink:href="#rim2" fill="#404040">
                               <set attributeName="fill" to="#808080" begin="reset.mouseover" end="reset.mouseout"/>
                       </use>
               </g>
        </defs>

<script type="text/javascript">
var viewWidth = 1400;
var viewHeight = 211;
var sectionId = 'dynsection-217';
</script>
<script xlink:href="../../svgpan.js"/>
<svg id="graph" class="graph">
<g id="viewport">
<title>CFuncs::ScriptCurrentScorePotGreaterThan</title>
<polygon fill="white" stroke="none" points="-4,4 -4,-207.055 1396,-207.055 1396,4 -4,4"/>
<!-- Node1 -->
<g id="node1" class="node"><title>Node1</title>
<g id="a_node1"><a xlink:title=" ">
<polygon fill="#bfbfbf" stroke="black" points="0,-66.5 0,-96.5 139,-96.5 139,-66.5 0,-66.5"/>
<text text-anchor="start" x="8" y="-84.5" font-family="Helvetica,sans-Serif" font-size="10.00">CFuncs::ScriptCurrentScore</text>
<text text-anchor="middle" x="69.5" y="-73.5" font-family="Helvetica,sans-Serif" font-size="10.00">PotGreaterThan</text>
</a>
</g>
</g>
<!-- Node2 -->
<g id="node2" class="node"><title>Node2</title>
<g id="a_node2"><a xlink:href="../../d2/df7/class_script_1_1_c_struct.html#a1e85eee5e600de8358db26f6c777e42d" target="_top" xlink:title=" ">
<polygon fill="white" stroke="black" points="370.5,-138 370.5,-157 502.5,-157 502.5,-138 370.5,-138"/>
<text text-anchor="middle" x="436.5" y="-145" font-family="Helvetica,sans-Serif" font-size="10.00">Script::CStruct::GetInteger</text>
</a>
</g>
</g>
<!-- Node1&#45;&gt;Node2 -->
<g id="edge1" class="edge"><title>Node1&#45;&gt;Node2</title>
<path fill="none" stroke="midnightblue" d="M97.9693,-96.6694C118.531,-107.25 147.697,-120.655 175,-127.5 236.046,-142.805 307.442,-147.395 360.037,-148.388"/>
<polygon fill="midnightblue" stroke="midnightblue" points="360.245,-151.892 370.297,-148.541 360.35,-144.893 360.245,-151.892"/>
</g>
<!-- Node12 -->
<g id="node12" class="node"><title>Node12</title>
<g id="a_node12"><a xlink:href="../../d1/d1e/class_mdl_1_1_score.html#a9a3a2df5f55776ae2767d8d93eb99353" target="_top" xlink:title=" ">
<polygon fill="white" stroke="black" points="175,-50 175,-69 326,-69 326,-50 175,-50"/>
<text text-anchor="middle" x="250.5" y="-57" font-family="Helvetica,sans-Serif" font-size="10.00">Mdl::Score::GetScorePotValue</text>
</a>
</g>
</g>
<!-- Node1&#45;&gt;Node12 -->
<g id="edge14" class="edge"><title>Node1&#45;&gt;Node12</title>
<path fill="none" stroke="midnightblue" d="M139.194,-73.0571C147.556,-72.0294 156.174,-70.9702 164.735,-69.9181"/>
<polygon fill="midnightblue" stroke="midnightblue" points="165.24,-73.3824 174.738,-68.6886 164.386,-66.4347 165.24,-73.3824"/>
</g>
<!-- Node13 -->
<g id="node13" class="node"><title>Node13</title>
<g id="a_node13"><a xlink:href="../../db/d54/namespace_c_funcs.html#a550fbc929cde0e1b48aad35ff8794a8c" target="_top" xlink:title=" ">
<polygon fill="white" stroke="black" points="195.5,-88.5 195.5,-118.5 305.5,-118.5 305.5,-88.5 195.5,-88.5"/>
<text text-anchor="start" x="203.5" y="-106.5" font-family="Helvetica,sans-Serif" font-size="10.00">CFuncs::s_get_score</text>
<text text-anchor="middle" x="250.5" y="-95.5" font-family="Helvetica,sans-Serif" font-size="10.00">_from_params</text>
</a>
</g>
</g>
<!-- Node1&#45;&gt;Node13 -->
<g id="edge15" class="edge"><title>Node1&#45;&gt;Node13</title>
<path fill="none" stroke="midnightblue" d="M139.194,-89.9429C154.334,-91.8036 170.315,-93.7678 185.27,-95.6059"/>
<polygon fill="midnightblue" stroke="midnightblue" points="185.085,-99.1093 195.437,-96.8554 185.939,-92.1616 185.085,-99.1093"/>
</g>
<!-- Node18 -->
<g id="node18" class="node"><title>Node18</title>
<g id="a_node18"><a xlink:href="../../db/d54/namespace_c_funcs.html#aa08b9aeb6476b62401b1fdecb60c9015" target="_top" xlink:title=" ">
<polygon fill="white" stroke="black" points="195.5,-0.5 195.5,-30.5 305.5,-30.5 305.5,-0.5 195.5,-0.5"/>
<text text-anchor="start" x="203.5" y="-18.5" font-family="Helvetica,sans-Serif" font-size="10.00">CFuncs::s_get_score</text>
<text text-anchor="middle" x="250.5" y="-7.5" font-family="Helvetica,sans-Serif" font-size="10.00">_struct</text>
</a>
</g>
</g>
<!-- Node1&#45;&gt;Node18 -->
<g id="edge24" class="edge"><title>Node1&#45;&gt;Node18</title>
<path fill="none" stroke="midnightblue" d="M107.569,-66.4338C127.469,-58.4781 152.472,-48.6932 175,-40.5 180.974,-38.3273 187.241,-36.1173 193.497,-33.9557"/>
<polygon fill="midnightblue" stroke="midnightblue" points="194.946,-37.1592 203.275,-30.6107 192.68,-30.5361 194.946,-37.1592"/>
</g>
<!-- Node3 -->
<g id="node3" class="node"><title>Node3</title>
<g id="a_node3"><a xlink:href="../../d1/d54/namespace_script.html#ae80ed69ea4edcbcbbbd4985a6efdcd6e" target="_top" xlink:title=" ">
<polygon fill="white" stroke="black" points="894,-154 894,-173 1033,-173 1033,-154 894,-154"/>
<text text-anchor="middle" x="963.5" y="-161" font-family="Helvetica,sans-Serif" font-size="10.00">Script::FindChecksumName</text>
</a>
</g>
</g>
<!-- Node2&#45;&gt;Node3 -->
<g id="edge2" class="edge"><title>Node2&#45;&gt;Node3</title>
<path fill="none" stroke="midnightblue" d="M451.937,-157.14C472.166,-170.007 510.563,-192.145 547,-200.5 568.55,-205.441 837.978,-201.879 858,-198.5 883.292,-194.232 910.753,-184.835 931.174,-176.853"/>
<polygon fill="midnightblue" stroke="midnightblue" points="932.614,-180.046 940.594,-173.076 930.009,-173.549 932.614,-180.046"/>
</g>
<!-- Node7 -->
<g id="node7" class="node"><title>Node7</title>
<g id="a_node7"><a xlink:href="../../d1/d54/namespace_script.html#a0d003ee93577e31adb6597bce0002009" target="_top" xlink:title=" ">
<polygon fill="white" stroke="black" points="559.5,-116 559.5,-135 666.5,-135 666.5,-116 559.5,-116"/>
<text text-anchor="middle" x="613" y="-123" font-family="Helvetica,sans-Serif" font-size="10.00">Script::PrintContents</text>
</a>
</g>
</g>
<!-- Node2&#45;&gt;Node7 -->
<g id="edge6" class="edge"><title>Node2&#45;&gt;Node7</title>
<path fill="none" stroke="midnightblue" d="M502.974,-139.245C518.06,-137.343 534.075,-135.324 549.052,-133.436"/>
<polygon fill="midnightblue" stroke="midnightblue" points="549.746,-136.876 559.23,-132.153 548.871,-129.931 549.746,-136.876"/>
</g>
<!-- Node8 -->
<g id="node8" class="node"><title>Node8</title>
<g id="a_node8"><a xlink:href="../../d2/df7/class_script_1_1_c_struct.html#a1e05f0a66cff4a700fb67fdc117d2d7f" target="_top" xlink:title=" ">
<polygon fill="white" stroke="black" points="547,-154 547,-173 679,-173 679,-154 547,-154"/>
<text text-anchor="middle" x="613" y="-161" font-family="Helvetica,sans-Serif" font-size="10.00">Script::CStruct::search_for</text>
</a>
</g>
</g>
<!-- Node2&#45;&gt;Node8 -->
<g id="edge7" class="edge"><title>Node2&#45;&gt;Node8</title>
<path fill="none" stroke="midnightblue" d="M502.974,-153.503C513.932,-154.508 525.38,-155.558 536.564,-156.583"/>
<polygon fill="midnightblue" stroke="midnightblue" points="536.462,-160.088 546.74,-157.516 537.101,-153.118 536.462,-160.088"/>
</g>
<!-- Node4 -->
<g id="node4" class="node"><title>Node4</title>
<g id="a_node4"><a xlink:href="../../d1/d54/namespace_script.html#a5cc52c4ff5ea5bb27681d819212dfdca" target="_top" xlink:title=" ">
<polygon fill="white" stroke="black" points="1069,-154 1069,-173 1232,-173 1232,-154 1069,-154"/>
<text text-anchor="middle" x="1150.5" y="-161" font-family="Helvetica,sans-Serif" font-size="10.00">Script::FindChecksumNameNULL</text>
</a>
</g>
</g>
<!-- Node3&#45;&gt;Node4 -->
<g id="edge3" class="edge"><title>Node3&#45;&gt;Node4</title>
<path fill="none" stroke="midnightblue" d="M1033.12,-163.5C1041.48,-163.5 1050.11,-163.5 1058.72,-163.5"/>
<polygon fill="midnightblue" stroke="midnightblue" points="1058.8,-167 1068.8,-163.5 1058.8,-160 1058.8,-167"/>
</g>
<!-- Node6 -->
<g id="node6" class="node"><title>Node6</title>
<g id="a_node6"><a xlink:href="../../da/d37/namespace_dbg.html#ab406a8cc16de5046c7d9fd09c9de5e22" target="_top" xlink:title=" ">
<polygon fill="white" stroke="black" points="1117.5,-107 1117.5,-126 1183.5,-126 1183.5,-107 1117.5,-107"/>
<text text-anchor="middle" x="1150.5" y="-114" font-family="Helvetica,sans-Serif" font-size="10.00">Dbg::sprintf</text>
</a>
</g>
</g>
<!-- Node3&#45;&gt;Node6 -->
<g id="edge5" class="edge"><title>Node3&#45;&gt;Node6</title>
<path fill="none" stroke="midnightblue" d="M1001.94,-153.989C1032.52,-146.219 1075.73,-135.243 1107.49,-127.174"/>
<polygon fill="midnightblue" stroke="midnightblue" points="1108.53,-130.519 1117.36,-124.664 1106.81,-123.734 1108.53,-130.519"/>
</g>
<!-- Node5 -->
<g id="node5" class="node"><title>Node5</title>
<g id="a_node5"><a xlink:href="../../d0/d31/namespace_config.html#a709cc81780d49900157e3476b63aa25d" target="_top" xlink:title=" ">
<polygon fill="white" stroke="black" points="1268,-154 1268,-173 1392,-173 1392,-154 1268,-154"/>
<text text-anchor="middle" x="1330" y="-161" font-family="Helvetica,sans-Serif" font-size="10.00">Config::GotExtraMemory</text>
</a>
</g>
</g>
<!-- Node4&#45;&gt;Node5 -->
<g id="edge4" class="edge"><title>Node4&#45;&gt;Node5</title>
<path fill="none" stroke="midnightblue" d="M1232.2,-163.5C1240.73,-163.5 1249.36,-163.5 1257.77,-163.5"/>
<polygon fill="midnightblue" stroke="midnightblue" points="1257.9,-167 1267.9,-163.5 1257.9,-160 1257.9,-167"/>
</g>
<!-- Node8&#45;&gt;Node3 -->
<g id="edge8" class="edge"><title>Node8&#45;&gt;Node3</title>
<path fill="none" stroke="midnightblue" d="M655.033,-173.011C673.284,-176.776 695.103,-180.645 715,-182.5 778.281,-188.4 794.701,-188.208 858,-182.5 875.034,-180.964 893.442,-178.047 909.993,-174.951"/>
<polygon fill="midnightblue" stroke="midnightblue" points="910.875,-178.346 920.029,-173.011 909.546,-171.473 910.875,-178.346"/>
</g>
<!-- Node8&#45;&gt;Node8 -->
<g id="edge13" class="edge"><title>Node8&#45;&gt;Node8</title>
<path fill="none" stroke="midnightblue" d="M586.49,-173.257C573.593,-182.065 582.43,-191.5 613,-191.5 633.539,-191.5 644.268,-187.241 645.186,-181.775"/>
<polygon fill="midnightblue" stroke="midnightblue" points="647.968,-179.638 639.51,-173.257 642.143,-183.52 647.968,-179.638"/>
</g>
<!-- Node9 -->
<g id="node9" class="node"><title>Node9</title>
<g id="a_node9"><a xlink:href="../../d1/d54/namespace_script.html#af32f99ba26ca0f255240413a4e23a754" target="_top" xlink:title=" ">
<polygon fill="white" stroke="black" points="731.5,-154 731.5,-173 841.5,-173 841.5,-154 731.5,-154"/>
<text text-anchor="middle" x="786.5" y="-161" font-family="Helvetica,sans-Serif" font-size="10.00">Script::GetTypeName</text>
</a>
</g>
</g>
<!-- Node8&#45;&gt;Node9 -->
<g id="edge9" class="edge"><title>Node8&#45;&gt;Node9</title>
<path fill="none" stroke="midnightblue" d="M679.326,-163.5C692.979,-163.5 707.366,-163.5 720.989,-163.5"/>
<polygon fill="midnightblue" stroke="midnightblue" points="721.234,-167 731.234,-163.5 721.234,-160 721.234,-167"/>
</g>
<!-- Node10 -->
<g id="node10" class="node"><title>Node10</title>
<g id="a_node10"><a xlink:href="../../d1/d54/namespace_script.html#a43181580ea5d38e4bf1aa19ccd5e9e85" target="_top" xlink:title=" ">
<polygon fill="white" stroke="black" points="745.5,-116 745.5,-135 827.5,-135 827.5,-116 745.5,-116"/>
<text text-anchor="middle" x="786.5" y="-123" font-family="Helvetica,sans-Serif" font-size="10.00">Script::Resolve</text>
</a>
</g>
</g>
<!-- Node8&#45;&gt;Node10 -->
<g id="edge10" class="edge"><title>Node8&#45;&gt;Node10</title>
<path fill="none" stroke="midnightblue" d="M657.277,-153.911C681.086,-148.635 710.74,-142.065 735.531,-136.572"/>
<polygon fill="midnightblue" stroke="midnightblue" points="736.467,-139.949 745.474,-134.369 734.953,-133.115 736.467,-139.949"/>
</g>
<!-- Node10&#45;&gt;Node3 -->
<g id="edge11" class="edge"><title>Node10&#45;&gt;Node3</title>
<path fill="none" stroke="midnightblue" d="M827.649,-134.218C851.612,-139.422 882.357,-146.098 908.437,-151.761"/>
<polygon fill="midnightblue" stroke="midnightblue" points="908.034,-155.255 918.549,-153.956 909.52,-148.414 908.034,-155.255"/>
</g>
<!-- Node11 -->
<g id="node11" class="node"><title>Node11</title>
<g id="a_node11"><a xlink:href="../../d1/d54/namespace_script.html#af293a36c230b10de7d8151c2990b233b" target="_top" xlink:title=" ">
<polygon fill="white" stroke="black" points="906.5,-116 906.5,-135 1020.5,-135 1020.5,-116 906.5,-116"/>
<text text-anchor="middle" x="963.5" y="-123" font-family="Helvetica,sans-Serif" font-size="10.00">Script::LookUpSymbol</text>
</a>
</g>
</g>
<!-- Node10&#45;&gt;Node11 -->
<g id="edge12" class="edge"><title>Node10&#45;&gt;Node11</title>
<path fill="none" stroke="midnightblue" d="M827.649,-125.5C847.954,-125.5 873.128,-125.5 896.207,-125.5"/>
<polygon fill="midnightblue" stroke="midnightblue" points="896.293,-129 906.293,-125.5 896.293,-122 896.293,-129"/>
</g>
<!-- Node13&#45;&gt;Node2 -->
<g id="edge16" class="edge"><title>Node13&#45;&gt;Node2</title>
<path fill="none" stroke="midnightblue" d="M305.711,-116.463C331.053,-122.524 361.026,-129.691 385.779,-135.61"/>
<polygon fill="midnightblue" stroke="midnightblue" points="385.148,-139.058 395.688,-137.98 386.776,-132.25 385.148,-139.058"/>
</g>
<!-- Node14 -->
<g id="node14" class="node"><title>Node14</title>
<g id="a_node14"><a xlink:href="../../db/df2/class_script_1_1_c_script.html#a79524e82741fa32e53faf43cd84bcef3" target="_top" xlink:title=" ">
<polygon fill="white" stroke="black" points="715,-78 715,-97 858,-97 858,-78 715,-78"/>
<text text-anchor="middle" x="786.5" y="-85" font-family="Helvetica,sans-Serif" font-size="10.00">Script::CScript::GetScriptInfo</text>
</a>
</g>
</g>
<!-- Node13&#45;&gt;Node14 -->
<g id="edge17" class="edge"><title>Node13&#45;&gt;Node14</title>
<path fill="none" stroke="midnightblue" d="M305.641,-101.878C399.878,-99.0542 594.503,-93.2228 704.74,-89.9198"/>
<polygon fill="midnightblue" stroke="midnightblue" points="704.921,-93.416 714.812,-89.618 704.711,-86.4192 704.921,-93.416"/>
</g>
<!-- Node14&#45;&gt;Node3 -->
<g id="edge18" class="edge"><title>Node14&#45;&gt;Node3</title>
<path fill="none" stroke="midnightblue" d="M836.71,-97.0064C844.125,-99.4901 851.468,-102.604 858,-106.5 877.98,-118.418 874.064,-132.509 894,-144.5 897.629,-146.683 901.515,-148.621 905.526,-150.343"/>
<polygon fill="midnightblue" stroke="midnightblue" points="904.453,-153.68 915.044,-153.976 906.95,-147.14 904.453,-153.68"/>
</g>
<!-- Node14&#45;&gt;Node6 -->
<g id="edge23" class="edge"><title>Node14&#45;&gt;Node6</title>
<path fill="none" stroke="midnightblue" d="M858.151,-92.8101C907.214,-96.5364 974.095,-101.693 1033,-106.5 1057.63,-108.51 1085.17,-110.869 1107.3,-112.791"/>
<polygon fill="midnightblue" stroke="midnightblue" points="1107.1,-116.287 1117.36,-113.669 1107.71,-109.314 1107.1,-116.287"/>
</g>
<!-- Node14&#45;&gt;Node11 -->
<g id="edge22" class="edge"><title>Node14&#45;&gt;Node11</title>
<path fill="none" stroke="midnightblue" d="M831.66,-97.089C855.065,-102.171 884.005,-108.455 908.712,-113.82"/>
<polygon fill="midnightblue" stroke="midnightblue" points="908.143,-117.278 918.658,-115.98 909.628,-110.438 908.143,-117.278"/>
</g>
<!-- Node15 -->
<g id="node15" class="node"><title>Node15</title>
<g id="a_node15"><a xlink:href="../../d1/d54/namespace_script.html#ade6b00de97e28d9883fd40fd39b49e75" target="_top" xlink:title=" ">
<polygon fill="white" stroke="black" points="905.5,-40 905.5,-59 1021.5,-59 1021.5,-40 905.5,-40"/>
<text text-anchor="middle" x="963.5" y="-47" font-family="Helvetica,sans-Serif" font-size="10.00">Script::GetLineNumber</text>
</a>
</g>
</g>
<!-- Node14&#45;&gt;Node15 -->
<g id="edge19" class="edge"><title>Node14&#45;&gt;Node15</title>
<path fill="none" stroke="midnightblue" d="M831.66,-77.911C855.065,-72.8287 884.005,-66.5446 908.712,-61.1797"/>
<polygon fill="midnightblue" stroke="midnightblue" points="909.628,-64.5624 918.658,-59.0201 908.143,-57.7218 909.628,-64.5624"/>
</g>
<!-- Node16 -->
<g id="node16" class="node"><title>Node16</title>
<g id="a_node16"><a xlink:href="../../d1/d54/namespace_script.html#a13f53c2ad11266b0280c0c1937902bb9" target="_top" xlink:title=" ">
<polygon fill="white" stroke="black" points="1100,-59 1100,-78 1201,-78 1201,-59 1100,-59"/>
<text text-anchor="middle" x="1150.5" y="-66" font-family="Helvetica,sans-Serif" font-size="10.00">Script::Read4Bytes</text>
</a>
</g>
</g>
<!-- Node15&#45;&gt;Node16 -->
<g id="edge20" class="edge"><title>Node15&#45;&gt;Node16</title>
<path fill="none" stroke="midnightblue" d="M1021.52,-55.3557C1043.15,-57.5771 1067.83,-60.1119 1089.71,-62.3589"/>
<polygon fill="midnightblue" stroke="midnightblue" points="1089.56,-65.8624 1099.87,-63.4025 1090.28,-58.8991 1089.56,-65.8624"/>
</g>
<!-- Node17 -->
<g id="node17" class="node"><title>Node17</title>
<g id="a_node17"><a xlink:href="../../d1/d54/namespace_script.html#a557f2b1ab2abd381a311d1deab276873" target="_top" xlink:title=" ">
<polygon fill="white" stroke="black" points="1103.5,-21 1103.5,-40 1197.5,-40 1197.5,-21 1103.5,-21"/>
<text text-anchor="middle" x="1150.5" y="-28" font-family="Helvetica,sans-Serif" font-size="10.00">Script::SkipToken</text>
</a>
</g>
</g>
<!-- Node15&#45;&gt;Node17 -->
<g id="edge21" class="edge"><title>Node15&#45;&gt;Node17</title>
<path fill="none" stroke="midnightblue" d="M1021.52,-43.6443C1044.26,-41.3088 1070.37,-38.627 1093.05,-36.2973"/>
<polygon fill="midnightblue" stroke="midnightblue" points="1093.62,-39.7576 1103.21,-35.2542 1092.9,-32.7942 1093.62,-39.7576"/>
</g>
<!-- Node19 -->
<g id="node19" class="node"><title>Node19</title>
<g id="a_node19"><a xlink:href="../../d4/d1c/class_obj_1_1_c_skater.html#a2506afd232d5f6b6f2d66220969bb379" target="_top" xlink:title=" ">
<polygon fill="white" stroke="black" points="362,-6 362,-25 511,-25 511,-6 362,-6"/>
<text text-anchor="middle" x="436.5" y="-13" font-family="Helvetica,sans-Serif" font-size="10.00">Obj::CSkater::GetScoreObject</text>
</a>
</g>
</g>
<!-- Node18&#45;&gt;Node19 -->
<g id="edge25" class="edge"><title>Node18&#45;&gt;Node19</title>
<path fill="none" stroke="midnightblue" d="M305.711,-15.5C320.146,-15.5 336.083,-15.5 351.703,-15.5"/>
<polygon fill="midnightblue" stroke="midnightblue" points="351.902,-19.0001 361.902,-15.5 351.902,-12.0001 351.902,-19.0001"/>
</g>
</g>
</svg>
        <g id="navigator" transform="translate(0 0)" fill="#404254">
                <rect fill="#f2f5e9" fill-opacity="0.5" stroke="#606060" stroke-width=".5" x="0" y="0" width="60" height="60"/>
                <use id="zoomplus" xlink:href="#zoomPlus" x="17" y="9" onmousedown="handleZoom(evt,'in')"/>
                <use id="zoomminus" xlink:href="#zoomMin" x="42" y="9" onmousedown="handleZoom(evt,'out')"/>
                <use id="reset" xlink:href="#resetDef" x="30" y="36" onmousedown="handleReset()"/>
                <g id="arrowUp" xlink:href="#dirArrow" transform="translate(30 24)" onmousedown="handlePan(0,-1)">
                  <use xlink:href="#rim" fill="#404040">
                        <set attributeName="fill" to="#808080" begin="arrowUp.mouseover" end="arrowUp.mouseout"/>
                  </use>
                  <path fill="none" stroke="white" stroke-width="1.5" d="M0,-3.0v7 M-2.5,-0.5L0,-3.0L2.5,-0.5"/>
                </g>
                <g id="arrowRight" xlink:href="#dirArrow" transform="rotate(90) translate(36 -43)" onmousedown="handlePan(1,0)">
                  <use xlink:href="#rim" fill="#404040">
                        <set attributeName="fill" to="#808080" begin="arrowRight.mouseover" end="arrowRight.mouseout"/>
                  </use>
                  <path fill="none" stroke="white" stroke-width="1.5" d="M0,-3.0v7 M-2.5,-0.5L0,-3.0L2.5,-0.5"/>
                </g>
                <g id="arrowDown" xlink:href="#dirArrow" transform="rotate(180) translate(-30 -48)" onmousedown="handlePan(0,1)">
                  <use xlink:href="#rim" fill="#404040">
                        <set attributeName="fill" to="#808080" begin="arrowDown.mouseover" end="arrowDown.mouseout"/>
                  </use>
                  <path fill="none" stroke="white" stroke-width="1.5" d="M0,-3.0v7 M-2.5,-0.5L0,-3.0L2.5,-0.5"/>
                </g>
                <g id="arrowLeft" xlink:href="#dirArrow" transform="rotate(270) translate(-36 17)" onmousedown="handlePan(-1,0)">
                  <use xlink:href="#rim" fill="#404040">
                        <set attributeName="fill" to="#808080" begin="arrowLeft.mouseover" end="arrowLeft.mouseout"/>
                  </use>
                  <path fill="none" stroke="white" stroke-width="1.5" d="M0,-3.0v7 M-2.5,-0.5L0,-3.0L2.5,-0.5"/>
                </g>
        </g>
        <svg viewBox="0 0 15 15" width="100%" height="30px" preserveAspectRatio="xMaxYMin meet">
         <g id="arrow_out" transform="scale(0.3 0.3)">
          <a xlink:href="namespace_c_funcs_a29767c6abd81db2ef218030073966be6_cgraph_org.svg" target="_base">
           <rect id="button" ry="5" rx="5" y="6" x="6" height="38" width="38"
                fill="#f2f5e9" fill-opacity="0.5" stroke="#606060" stroke-width="1.0"/>
           <path id="arrow"
             d="M 11.500037,31.436501 C 11.940474,20.09759 22.043105,11.32322 32.158766,21.979434 L 37.068811,17.246167 C 37.068811,17.246167 37.088388,32 37.088388,32 L 22.160133,31.978069 C 22.160133,31.978069 26.997745,27.140456 26.997745,27.140456 C 18.528582,18.264221 13.291696,25.230495 11.500037,31.436501 z"
             style="fill:#404040;"/>
          </a>
         </g>
        </svg>
</svg>
