<?xml version="1.0" encoding="UTF-8" standalone="no"?>
<!DOCTYPE svg PUBLIC "-//W3C//DTD SVG 1.1//EN"
 "http://www.w3.org/Graphics/SVG/1.1/DTD/svg11.dtd">
<!-- Generated by graphviz version 2.38.0 (20140413.2041)
 -->
<!-- Title: CFuncs::ScriptKillSpawnedScript Pages: 1 -->
<svg width="457pt" height="39pt"
 viewBox="0.00 0.00 457.00 39.00" xmlns="http://www.w3.org/2000/svg" xmlns:xlink="http://www.w3.org/1999/xlink">
<g id="graph0" class="graph" transform="scale(1 1) rotate(0) translate(4 35)">
<title>CFuncs::ScriptKillSpawnedScript</title>
<polygon fill="white" stroke="none" points="-4,4 -4,-35 453,-35 453,4 -4,4"/>
<!-- Node1 -->
<g id="node1" class="node"><title>Node1</title>
<g id="a_node1"><a xlink:title=" ">
<polygon fill="#bfbfbf" stroke="black" points="0,-0.5 0,-30.5 135,-30.5 135,-0.5 0,-0.5"/>
<text text-anchor="start" x="8" y="-18.5" font-family="Helvetica,sans-Serif" font-size="10.00">CFuncs::ScriptKillSpawned</text>
<text text-anchor="middle" x="67.5" y="-7.5" font-family="Helvetica,sans-Serif" font-size="10.00">Script</text>
</a>
</g>
</g>
<!-- Node2 -->
<g id="node2" class="node"><title>Node2</title>
<g id="a_node2"><a xlink:href="../../d1/d54/namespace_script.html#aa003276604636c2a429cf4b0b91d6f28" target="_top" xlink:title=" ">
<polygon fill="white" stroke="black" points="171,-0.5 171,-30.5 303,-30.5 303,-0.5 171,-0.5"/>
<text text-anchor="start" x="179" y="-18.5" font-family="Helvetica,sans-Serif" font-size="10.00">Script::KillSpawnedScripts</text>
<text text-anchor="middle" x="237" y="-7.5" font-family="Helvetica,sans-Serif" font-size="10.00">ThatReferTo</text>
</a>
</g>
</g>
<!-- Node1&#45;&gt;Node2 -->
<g id="edge1" class="edge"><title>Node1&#45;&gt;Node2</title>
<path fill="none" stroke="midnightblue" d="M135.182,-15.5C143.549,-15.5 152.153,-15.5 160.641,-15.5"/>
<polygon fill="midnightblue" stroke="midnightblue" points="160.913,-19.0001 170.913,-15.5 160.913,-12.0001 160.913,-19.0001"/>
</g>
<!-- Node3 -->
<g id="node3" class="node"><title>Node3</title>
<g id="a_node3"><a xlink:href="../../d1/d54/namespace_script.html#a7fd1a444b4f3ddfc05ff3144d1d80c44" target="_top" xlink:title=" ">
<polygon fill="white" stroke="black" points="339,-6 339,-25 449,-25 449,-6 339,-6"/>
<text text-anchor="middle" x="394" y="-13" font-family="Helvetica,sans-Serif" font-size="10.00">Script::GetNextScript</text>
</a>
</g>
</g>
<!-- Node2&#45;&gt;Node3 -->
<g id="edge2" class="edge"><title>Node2&#45;&gt;Node3</title>
<path fill="none" stroke="midnightblue" d="M303.285,-15.5C311.637,-15.5 320.184,-15.5 328.523,-15.5"/>
<polygon fill="midnightblue" stroke="midnightblue" points="328.566,-19.0001 338.566,-15.5 328.566,-12.0001 328.566,-19.0001"/>
</g>
</g>
</svg>
