<?xml version="1.0" encoding="UTF-8" standalone="no"?>
<!DOCTYPE svg PUBLIC "-//W3C//DTD SVG 1.1//EN"
 "http://www.w3.org/Graphics/SVG/1.1/DTD/svg11.dtd">
<!-- Generated by graphviz version 2.38.0 (20140413.2041)
 -->
<!-- Title: CFuncs::ScriptUnlockSkater Pages: 1 -->
<svg width="1227pt" height="497pt"
 viewBox="0.00 0.00 1227.00 497.42" xmlns="http://www.w3.org/2000/svg" xmlns:xlink="http://www.w3.org/1999/xlink">
<g id="graph0" class="graph" transform="scale(1 1) rotate(0) translate(4 493.423)">
<title>CFuncs::ScriptUnlockSkater</title>
<polygon fill="white" stroke="none" points="-4,4 -4,-493.423 1223,-493.423 1223,4 -4,4"/>
<!-- Node1 -->
<g id="node1" class="node"><title>Node1</title>
<g id="a_node1"><a xlink:title=" ">
<polygon fill="#bfbfbf" stroke="black" points="0,-197 0,-216 140,-216 140,-197 0,-197"/>
<text text-anchor="middle" x="70" y="-204" font-family="Helvetica,sans-Serif" font-size="10.00">CFuncs::ScriptUnlockSkater</text>
</a>
</g>
</g>
<!-- Node2 -->
<g id="node2" class="node"><title>Node2</title>
<g id="a_node2"><a xlink:href="../../d2/df7/class_script_1_1_c_struct.html#ab6805f805d22e3876bcd47552a663f1a" target="_top" xlink:title=" ">
<polygon fill="white" stroke="black" points="183.5,-387 183.5,-406 317.5,-406 317.5,-387 183.5,-387"/>
<text text-anchor="middle" x="250.5" y="-394" font-family="Helvetica,sans-Serif" font-size="10.00">Script::CStruct::AddInteger</text>
</a>
</g>
</g>
<!-- Node1&#45;&gt;Node2 -->
<g id="edge1" class="edge"><title>Node1&#45;&gt;Node2</title>
<path fill="none" stroke="midnightblue" d="M74.4776,-216.394C85.0325,-244.993 119.48,-328.525 176,-372.5 181.41,-376.709 187.586,-380.194 194.007,-383.076"/>
<polygon fill="midnightblue" stroke="midnightblue" points="192.945,-386.42 203.53,-386.881 195.542,-379.92 192.945,-386.42"/>
</g>
<!-- Node13 -->
<g id="node13" class="node"><title>Node13</title>
<g id="a_node13"><a xlink:href="../../d1/d54/namespace_script.html#ae80ed69ea4edcbcbbbd4985a6efdcd6e" target="_top" xlink:title=" ">
<polygon fill="white" stroke="black" points="721,-214 721,-233 860,-233 860,-214 721,-214"/>
<text text-anchor="middle" x="790.5" y="-221" font-family="Helvetica,sans-Serif" font-size="10.00">Script::FindChecksumName</text>
</a>
</g>
</g>
<!-- Node1&#45;&gt;Node13 -->
<g id="edge21" class="edge"><title>Node1&#45;&gt;Node13</title>
<path fill="none" stroke="midnightblue" d="M76.2299,-216.232C89.3411,-239.452 126.165,-297.778 176,-319.5 383.897,-410.116 470.081,-355.905 685,-283.5 716.085,-273.028 748.294,-252.875 768.589,-238.829"/>
<polygon fill="midnightblue" stroke="midnightblue" points="770.626,-241.675 776.774,-233.046 766.587,-235.958 770.626,-241.675"/>
</g>
<!-- Node17 -->
<g id="node17" class="node"><title>Node17</title>
<g id="a_node17"><a xlink:href="../../df/de2/_messages_8h.html#a701d7b9cdd94e5f87bc47f4e770492e6" target="_top" xlink:title=" ">
<polygon fill="white" stroke="black" points="211,-197 211,-216 290,-216 290,-197 211,-197"/>
<text text-anchor="middle" x="250.5" y="-204" font-family="Helvetica,sans-Serif" font-size="10.00">Dbg_Message</text>
</a>
</g>
</g>
<!-- Node1&#45;&gt;Node17 -->
<g id="edge20" class="edge"><title>Node1&#45;&gt;Node17</title>
<path fill="none" stroke="midnightblue" d="M140.013,-206.5C160.293,-206.5 182.045,-206.5 200.774,-206.5"/>
<polygon fill="midnightblue" stroke="midnightblue" points="200.839,-210 210.839,-206.5 200.839,-203 200.839,-210"/>
</g>
<!-- Node18 -->
<g id="node18" class="node"><title>Node18</title>
<g id="a_node18"><a xlink:href="../../d2/df7/class_script_1_1_c_struct.html#aa39e6fe5fdf1d6c48136ae26a7ad511e" target="_top" xlink:title=" ">
<polygon fill="white" stroke="black" points="176,-273 176,-292 325,-292 325,-273 176,-273"/>
<text text-anchor="middle" x="250.5" y="-280" font-family="Helvetica,sans-Serif" font-size="10.00">Script::CStruct::GetChecksum</text>
</a>
</g>
</g>
<!-- Node1&#45;&gt;Node18 -->
<g id="edge22" class="edge"><title>Node1&#45;&gt;Node18</title>
<path fill="none" stroke="midnightblue" d="M85.7399,-216.014C105.561,-228.447 142.226,-250.2 176,-263.5 182.262,-265.966 188.95,-268.204 195.645,-270.207"/>
<polygon fill="midnightblue" stroke="midnightblue" points="194.835,-273.615 205.411,-272.973 196.743,-266.88 194.835,-273.615"/>
</g>
<!-- Node22 -->
<g id="node22" class="node"><title>Node22</title>
<g id="a_node22"><a xlink:href="../../d0/dc4/class_obj_1_1_c_player_profile_manager.html#a1baa532a6025c90259264eb2f040ba44" target="_top" xlink:title=" ">
<polygon fill="white" stroke="black" points="182,-147.5 182,-177.5 319,-177.5 319,-147.5 182,-147.5"/>
<text text-anchor="start" x="190" y="-165.5" font-family="Helvetica,sans-Serif" font-size="10.00">Obj::CPlayerProfileManager</text>
<text text-anchor="middle" x="250.5" y="-154.5" font-family="Helvetica,sans-Serif" font-size="10.00">::GetCurrentProfile</text>
</a>
</g>
</g>
<!-- Node1&#45;&gt;Node22 -->
<g id="edge29" class="edge"><title>Node1&#45;&gt;Node22</title>
<path fill="none" stroke="midnightblue" d="M109.732,-196.953C129.829,-191.999 155.021,-185.789 178.463,-180.01"/>
<polygon fill="midnightblue" stroke="midnightblue" points="179.511,-183.357 188.383,-177.565 177.835,-176.561 179.511,-183.357"/>
</g>
<!-- Node23 -->
<g id="node23" class="node"><title>Node23</title>
<g id="a_node23"><a xlink:href="../../d5/d28/class_obj_1_1_c_skater_profile.html#a4054267b0b41f095fa20de31821c9cf1" target="_top" xlink:title=" ">
<polygon fill="white" stroke="black" points="200.5,-98.5 200.5,-128.5 300.5,-128.5 300.5,-98.5 200.5,-98.5"/>
<text text-anchor="start" x="208.5" y="-116.5" font-family="Helvetica,sans-Serif" font-size="10.00">Obj::CSkaterProfile</text>
<text text-anchor="middle" x="250.5" y="-105.5" font-family="Helvetica,sans-Serif" font-size="10.00">::GetInfo</text>
</a>
</g>
</g>
<!-- Node1&#45;&gt;Node23 -->
<g id="edge30" class="edge"><title>Node1&#45;&gt;Node23</title>
<path fill="none" stroke="midnightblue" d="M83.6475,-196.825C102.784,-182.538 140.626,-155.644 176,-138.5 180.656,-136.243 185.569,-134.101 190.557,-132.09"/>
<polygon fill="midnightblue" stroke="midnightblue" points="192.113,-135.242 200.192,-128.389 189.602,-128.708 192.113,-135.242"/>
</g>
<!-- Node24 -->
<g id="node24" class="node"><title>Node24</title>
<g id="a_node24"><a xlink:href="../../d2/df7/class_script_1_1_c_struct.html#a1e85eee5e600de8358db26f6c777e42d" target="_top" xlink:title=" ">
<polygon fill="white" stroke="black" points="184.5,-235 184.5,-254 316.5,-254 316.5,-235 184.5,-235"/>
<text text-anchor="middle" x="250.5" y="-242" font-family="Helvetica,sans-Serif" font-size="10.00">Script::CStruct::GetInteger</text>
</a>
</g>
</g>
<!-- Node1&#45;&gt;Node24 -->
<g id="edge31" class="edge"><title>Node1&#45;&gt;Node24</title>
<path fill="none" stroke="midnightblue" d="M116.043,-216.089C140.023,-221.194 169.698,-227.511 194.972,-232.892"/>
<polygon fill="midnightblue" stroke="midnightblue" points="194.271,-236.321 204.781,-234.98 195.729,-229.474 194.271,-236.321"/>
</g>
<!-- Node26 -->
<g id="node26" class="node"><title>Node26</title>
<g id="a_node26"><a xlink:href="../../d0/dc4/class_obj_1_1_c_player_profile_manager.html#a01bab544b9ce42a259a92d599714959e" target="_top" xlink:title=" ">
<polygon fill="white" stroke="black" points="182,-49.5 182,-79.5 319,-79.5 319,-49.5 182,-49.5"/>
<text text-anchor="start" x="190" y="-67.5" font-family="Helvetica,sans-Serif" font-size="10.00">Obj::CPlayerProfileManager</text>
<text text-anchor="middle" x="250.5" y="-56.5" font-family="Helvetica,sans-Serif" font-size="10.00">::GetProfileTemplate</text>
</a>
</g>
</g>
<!-- Node1&#45;&gt;Node26 -->
<g id="edge39" class="edge"><title>Node1&#45;&gt;Node26</title>
<path fill="none" stroke="midnightblue" d="M77.1182,-196.805C91.6005,-174.617 130.222,-119.73 176,-89.5 178.958,-87.5468 182.083,-85.7312 185.311,-84.0453"/>
<polygon fill="midnightblue" stroke="midnightblue" points="187.086,-87.0772 194.624,-79.6317 184.088,-80.7517 187.086,-87.0772"/>
</g>
<!-- Node27 -->
<g id="node27" class="node"><title>Node27</title>
<g id="a_node27"><a xlink:href="../../d5/d28/class_obj_1_1_c_skater_profile.html#a7d7efac02ad07b1d4dca8c709a146089" target="_top" xlink:title=" ">
<polygon fill="white" stroke="black" points="181,-0.5 181,-30.5 320,-30.5 320,-0.5 181,-0.5"/>
<text text-anchor="start" x="189" y="-18.5" font-family="Helvetica,sans-Serif" font-size="10.00">Obj::CSkaterProfile</text>
<text text-anchor="middle" x="250.5" y="-7.5" font-family="Helvetica,sans-Serif" font-size="10.00">::GetSkaterNameChecksum</text>
</a>
</g>
</g>
<!-- Node1&#45;&gt;Node27 -->
<g id="edge40" class="edge"><title>Node1&#45;&gt;Node27</title>
<path fill="none" stroke="midnightblue" d="M74.3114,-196.954C84.6401,-168.577 119.027,-83.9515 176,-39.5 177.806,-38.0911 179.697,-36.7634 181.655,-35.5123"/>
<polygon fill="midnightblue" stroke="midnightblue" points="183.587,-38.4418 190.604,-30.5036 180.169,-32.3335 183.587,-38.4418"/>
</g>
<!-- Node3 -->
<g id="node3" class="node"><title>Node3</title>
<g id="a_node3"><a xlink:href="../../d2/df7/class_script_1_1_c_struct.html#a3872f7f0a9ebcc695745aabeefab2796" target="_top" xlink:title=" ">
<polygon fill="white" stroke="black" points="361,-387 361,-406 515,-406 515,-387 361,-387"/>
<text text-anchor="middle" x="438" y="-394" font-family="Helvetica,sans-Serif" font-size="10.00">Script::CStruct::AddComponent</text>
</a>
</g>
</g>
<!-- Node2&#45;&gt;Node3 -->
<g id="edge2" class="edge"><title>Node2&#45;&gt;Node3</title>
<path fill="none" stroke="midnightblue" d="M317.684,-396.5C328.359,-396.5 339.546,-396.5 350.612,-396.5"/>
<polygon fill="midnightblue" stroke="midnightblue" points="350.723,-400 360.723,-396.5 350.723,-393 350.723,-400"/>
</g>
<!-- Node4 -->
<g id="node4" class="node"><title>Node4</title>
<g id="a_node4"><a xlink:href="../../d1/d54/namespace_script.html#a1dd030523ebaecb95103d181f6fd382e" target="_top" xlink:title=" ">
<polygon fill="white" stroke="black" points="551,-429 551,-448 685,-448 685,-429 551,-429"/>
<text text-anchor="middle" x="618" y="-436" font-family="Helvetica,sans-Serif" font-size="10.00">Script::CleanUpComponent</text>
</a>
</g>
</g>
<!-- Node3&#45;&gt;Node4 -->
<g id="edge3" class="edge"><title>Node3&#45;&gt;Node4</title>
<path fill="none" stroke="midnightblue" d="M479.391,-406.03C505.244,-412.131 538.991,-420.093 566.595,-426.607"/>
<polygon fill="midnightblue" stroke="midnightblue" points="565.925,-430.045 576.461,-428.935 567.532,-423.232 565.925,-430.045"/>
</g>
<!-- Node3&#45;&gt;Node13 -->
<g id="edge16" class="edge"><title>Node3&#45;&gt;Node13</title>
<path fill="none" stroke="midnightblue" d="M515.015,-404.926C566.365,-406.987 633.853,-402.345 685,-372.5 736.466,-342.469 768.816,-275.823 782.284,-242.806"/>
<polygon fill="midnightblue" stroke="midnightblue" points="785.597,-243.945 785.994,-233.357 779.081,-241.387 785.597,-243.945"/>
</g>
<!-- Node5 -->
<g id="node5" class="node"><title>Node5</title>
<g id="a_node5"><a xlink:href="../../d1/d54/namespace_script.html#a3dd60f29ada8a33fda9f4e842f1cabc1" target="_top" xlink:title=" ">
<polygon fill="white" stroke="black" points="736.5,-377 736.5,-396 844.5,-396 844.5,-377 736.5,-377"/>
<text text-anchor="middle" x="790.5" y="-384" font-family="Helvetica,sans-Serif" font-size="10.00">Script::CleanUpArray</text>
</a>
</g>
</g>
<!-- Node4&#45;&gt;Node5 -->
<g id="edge4" class="edge"><title>Node4&#45;&gt;Node5</title>
<path fill="none" stroke="midnightblue" d="M650.272,-428.962C677.825,-420.559 718.157,-408.258 748.328,-399.057"/>
<polygon fill="midnightblue" stroke="midnightblue" points="749.594,-402.33 758.138,-396.065 747.552,-395.635 749.594,-402.33"/>
</g>
<!-- Node7 -->
<g id="node7" class="node"><title>Node7</title>
<g id="a_node7"><a xlink:href="../../db/dc4/namespace_mem.html#aeedb606ea94a3398fdcfa3101c5ea8d9" target="_top" xlink:title=" ">
<polygon fill="white" stroke="black" points="1125,-453 1125,-472 1189,-472 1189,-453 1125,-453"/>
<text text-anchor="middle" x="1157" y="-460" font-family="Helvetica,sans-Serif" font-size="10.00">Mem::Free</text>
</a>
</g>
</g>
<!-- Node4&#45;&gt;Node7 -->
<g id="edge15" class="edge"><title>Node4&#45;&gt;Node7</title>
<path fill="none" stroke="midnightblue" d="M652.753,-448.014C672.505,-453.269 698.005,-459.519 721,-463.5 869.23,-489.163 909.268,-496.026 1059,-481.5 1077.39,-479.716 1097.46,-476.072 1114.56,-472.449"/>
<polygon fill="midnightblue" stroke="midnightblue" points="1115.75,-475.77 1124.77,-470.212 1114.26,-468.932 1115.75,-475.77"/>
</g>
<!-- Node9 -->
<g id="node9" class="node"><title>Node9</title>
<g id="a_node9"><a xlink:href="../../d1/d54/namespace_script.html#a99857fb30343d0c999af4db73344cece" target="_top" xlink:title=" ">
<polygon fill="white" stroke="black" points="927,-453 927,-472 1028,-472 1028,-453 927,-453"/>
<text text-anchor="middle" x="977.5" y="-460" font-family="Helvetica,sans-Serif" font-size="10.00">Script::DeleteString</text>
</a>
</g>
</g>
<!-- Node4&#45;&gt;Node9 -->
<g id="edge14" class="edge"><title>Node4&#45;&gt;Node9</title>
<path fill="none" stroke="midnightblue" d="M685.405,-442.958C751.683,-447.407 852.615,-454.183 916.531,-458.474"/>
<polygon fill="midnightblue" stroke="midnightblue" points="916.637,-461.989 926.849,-459.167 917.106,-455.005 916.637,-461.989"/>
</g>
<!-- Node6 -->
<g id="node6" class="node"><title>Node6</title>
<g id="a_node6"><a xlink:href="../../d0/d0b/class_script_1_1_c_array.html#a4b347b8b448dd652473dd6afe9aba2c2" target="_top" xlink:title=" ">
<polygon fill="white" stroke="black" points="924,-415 924,-434 1031,-434 1031,-415 924,-415"/>
<text text-anchor="middle" x="977.5" y="-422" font-family="Helvetica,sans-Serif" font-size="10.00">Script::CArray::Clear</text>
</a>
</g>
</g>
<!-- Node5&#45;&gt;Node6 -->
<g id="edge5" class="edge"><title>Node5&#45;&gt;Node6</title>
<path fill="none" stroke="midnightblue" d="M838.183,-396.089C863.146,-401.216 894.064,-407.567 920.334,-412.963"/>
<polygon fill="midnightblue" stroke="midnightblue" points="919.653,-416.396 930.152,-414.98 921.061,-409.539 919.653,-416.396"/>
</g>
<!-- Node8 -->
<g id="node8" class="node"><title>Node8</title>
<g id="a_node8"><a xlink:href="../../d1/d54/namespace_script.html#af32f99ba26ca0f255240413a4e23a754" target="_top" xlink:title=" ">
<polygon fill="white" stroke="black" points="1102,-377 1102,-396 1212,-396 1212,-377 1102,-377"/>
<text text-anchor="middle" x="1157" y="-384" font-family="Helvetica,sans-Serif" font-size="10.00">Script::GetTypeName</text>
</a>
</g>
</g>
<!-- Node5&#45;&gt;Node8 -->
<g id="edge13" class="edge"><title>Node5&#45;&gt;Node8</title>
<path fill="none" stroke="midnightblue" d="M844.501,-386.5C909.992,-386.5 1021.36,-386.5 1091.68,-386.5"/>
<polygon fill="midnightblue" stroke="midnightblue" points="1091.74,-390 1101.74,-386.5 1091.74,-383 1091.74,-390"/>
</g>
<!-- Node5&#45;&gt;Node9 -->
<g id="edge8" class="edge"><title>Node5&#45;&gt;Node9</title>
<path fill="none" stroke="midnightblue" d="M806.121,-396.125C825.794,-408.683 862.225,-430.572 896,-443.5 902.731,-446.076 909.916,-448.373 917.119,-450.4"/>
<polygon fill="midnightblue" stroke="midnightblue" points="916.349,-453.816 926.912,-452.998 918.144,-447.051 916.349,-453.816"/>
</g>
<!-- Node10 -->
<g id="node10" class="node"><title>Node10</title>
<g id="a_node10"><a xlink:href="../../d0/d0b/class_script_1_1_c_array.html#a600fcbd0b8fd9d1df2ee87d77494db7a" target="_top" xlink:title=" ">
<polygon fill="white" stroke="black" points="916,-327.5 916,-357.5 1039,-357.5 1039,-327.5 916,-327.5"/>
<text text-anchor="start" x="924" y="-345.5" font-family="Helvetica,sans-Serif" font-size="10.00">Script::CArray::GetArray</text>
<text text-anchor="middle" x="977.5" y="-334.5" font-family="Helvetica,sans-Serif" font-size="10.00">Pointer</text>
</a>
</g>
</g>
<!-- Node5&#45;&gt;Node10 -->
<g id="edge10" class="edge"><title>Node5&#45;&gt;Node10</title>
<path fill="none" stroke="midnightblue" d="M831.642,-376.953C853.314,-371.798 880.702,-365.284 905.816,-359.311"/>
<polygon fill="midnightblue" stroke="midnightblue" points="906.759,-362.685 915.678,-356.966 905.139,-355.875 906.759,-362.685"/>
</g>
<!-- Node11 -->
<g id="node11" class="node"><title>Node11</title>
<g id="a_node11"><a xlink:href="../../d0/d0b/class_script_1_1_c_array.html#a71c761bdce14193b10bf3c88372ba5a0" target="_top" xlink:title=" ">
<polygon fill="white" stroke="black" points="918,-289 918,-308 1037,-308 1037,-289 918,-289"/>
<text text-anchor="middle" x="977.5" y="-296" font-family="Helvetica,sans-Serif" font-size="10.00">Script::CArray::GetSize</text>
</a>
</g>
</g>
<!-- Node5&#45;&gt;Node11 -->
<g id="edge11" class="edge"><title>Node5&#45;&gt;Node11</title>
<path fill="none" stroke="midnightblue" d="M803.285,-376.919C821.884,-362.257 859.675,-334.296 896,-318.5 902.719,-315.578 909.946,-313.028 917.215,-310.817"/>
<polygon fill="midnightblue" stroke="midnightblue" points="918.444,-314.106 927.108,-308.009 916.533,-307.372 918.444,-314.106"/>
</g>
<!-- Node12 -->
<g id="node12" class="node"><title>Node12</title>
<g id="a_node12"><a xlink:href="../../d0/d0b/class_script_1_1_c_array.html#a68067b67ca9aae7b9214c0add1d8934e" target="_top" xlink:title=" ">
<polygon fill="white" stroke="black" points="917,-251 917,-270 1038,-270 1038,-251 917,-251"/>
<text text-anchor="middle" x="977.5" y="-258" font-family="Helvetica,sans-Serif" font-size="10.00">Script::CArray::GetType</text>
</a>
</g>
</g>
<!-- Node5&#45;&gt;Node12 -->
<g id="edge12" class="edge"><title>Node5&#45;&gt;Node12</title>
<path fill="none" stroke="midnightblue" d="M798.045,-376.73C812.823,-355.48 851.017,-304.928 896,-279.5 899.975,-277.253 904.204,-275.271 908.563,-273.523"/>
<polygon fill="midnightblue" stroke="midnightblue" points="910.026,-276.718 918.266,-270.058 907.671,-270.125 910.026,-276.718"/>
</g>
<!-- Node6&#45;&gt;Node7 -->
<g id="edge6" class="edge"><title>Node6&#45;&gt;Node7</title>
<path fill="none" stroke="midnightblue" d="M1023.29,-434.089C1051.43,-440.113 1087.46,-447.826 1114.87,-453.695"/>
<polygon fill="midnightblue" stroke="midnightblue" points="1114.41,-457.176 1124.92,-455.847 1115.88,-450.331 1114.41,-457.176"/>
</g>
<!-- Node6&#45;&gt;Node8 -->
<g id="edge7" class="edge"><title>Node6&#45;&gt;Node8</title>
<path fill="none" stroke="midnightblue" d="M1023.29,-414.911C1047.03,-409.829 1076.38,-403.545 1101.44,-398.18"/>
<polygon fill="midnightblue" stroke="midnightblue" points="1102.49,-401.536 1111.53,-396.02 1101.02,-394.691 1102.49,-401.536"/>
</g>
<!-- Node9&#45;&gt;Node7 -->
<g id="edge9" class="edge"><title>Node9&#45;&gt;Node7</title>
<path fill="none" stroke="midnightblue" d="M1028.42,-462.5C1055.63,-462.5 1088.92,-462.5 1114.67,-462.5"/>
<polygon fill="midnightblue" stroke="midnightblue" points="1114.85,-466 1124.85,-462.5 1114.85,-459 1114.85,-466"/>
</g>
<!-- Node14 -->
<g id="node14" class="node"><title>Node14</title>
<g id="a_node14"><a xlink:href="../../d1/d54/namespace_script.html#a5cc52c4ff5ea5bb27681d819212dfdca" target="_top" xlink:title=" ">
<polygon fill="white" stroke="black" points="896,-175 896,-194 1059,-194 1059,-175 896,-175"/>
<text text-anchor="middle" x="977.5" y="-182" font-family="Helvetica,sans-Serif" font-size="10.00">Script::FindChecksumNameNULL</text>
</a>
</g>
</g>
<!-- Node13&#45;&gt;Node14 -->
<g id="edge17" class="edge"><title>Node13&#45;&gt;Node14</title>
<path fill="none" stroke="midnightblue" d="M836.756,-213.96C862.272,-208.581 894.343,-201.82 921.324,-196.132"/>
<polygon fill="midnightblue" stroke="midnightblue" points="922.328,-199.497 931.391,-194.009 920.884,-192.648 922.328,-199.497"/>
</g>
<!-- Node16 -->
<g id="node16" class="node"><title>Node16</title>
<g id="a_node16"><a xlink:href="../../da/d37/namespace_dbg.html#ab406a8cc16de5046c7d9fd09c9de5e22" target="_top" xlink:title=" ">
<polygon fill="white" stroke="black" points="944.5,-213 944.5,-232 1010.5,-232 1010.5,-213 944.5,-213"/>
<text text-anchor="middle" x="977.5" y="-220" font-family="Helvetica,sans-Serif" font-size="10.00">Dbg::sprintf</text>
</a>
</g>
</g>
<!-- Node13&#45;&gt;Node16 -->
<g id="edge19" class="edge"><title>Node13&#45;&gt;Node16</title>
<path fill="none" stroke="midnightblue" d="M860.124,-223.129C884.868,-222.995 912.058,-222.848 933.93,-222.73"/>
<polygon fill="midnightblue" stroke="midnightblue" points="934.225,-226.229 944.206,-222.675 934.187,-219.229 934.225,-226.229"/>
</g>
<!-- Node15 -->
<g id="node15" class="node"><title>Node15</title>
<g id="a_node15"><a xlink:href="../../d0/d31/namespace_config.html#a709cc81780d49900157e3476b63aa25d" target="_top" xlink:title=" ">
<polygon fill="white" stroke="black" points="1095,-175 1095,-194 1219,-194 1219,-175 1095,-175"/>
<text text-anchor="middle" x="1157" y="-182" font-family="Helvetica,sans-Serif" font-size="10.00">Config::GotExtraMemory</text>
</a>
</g>
</g>
<!-- Node14&#45;&gt;Node15 -->
<g id="edge18" class="edge"><title>Node14&#45;&gt;Node15</title>
<path fill="none" stroke="midnightblue" d="M1059.2,-184.5C1067.73,-184.5 1076.36,-184.5 1084.77,-184.5"/>
<polygon fill="midnightblue" stroke="midnightblue" points="1084.9,-188 1094.9,-184.5 1084.9,-181 1084.9,-188"/>
</g>
<!-- Node18&#45;&gt;Node13 -->
<g id="edge23" class="edge"><title>Node18&#45;&gt;Node13</title>
<path fill="none" stroke="midnightblue" d="M325.095,-287.852C337.089,-288.538 349.386,-289.129 361,-289.5 429.41,-291.684 447.031,-297.556 515,-289.5 600.28,-279.392 697.407,-252.205 750.218,-236.051"/>
<polygon fill="midnightblue" stroke="midnightblue" points="751.34,-239.368 759.862,-233.073 749.274,-232.68 751.34,-239.368"/>
</g>
<!-- Node18&#45;&gt;Node18 -->
<g id="edge24" class="edge"><title>Node18&#45;&gt;Node18</title>
<path fill="none" stroke="midnightblue" d="M222.757,-292.257C209.26,-301.065 218.508,-310.5 250.5,-310.5 272.495,-310.5 283.739,-306.041 284.233,-300.391"/>
<polygon fill="midnightblue" stroke="midnightblue" points="286.991,-298.234 278.243,-292.257 281.354,-302.385 286.991,-298.234"/>
</g>
<!-- Node19 -->
<g id="node19" class="node"><title>Node19</title>
<g id="a_node19"><a xlink:href="../../d1/d54/namespace_script.html#a0d003ee93577e31adb6597bce0002009" target="_top" xlink:title=" ">
<polygon fill="white" stroke="black" points="384.5,-235 384.5,-254 491.5,-254 491.5,-235 384.5,-235"/>
<text text-anchor="middle" x="438" y="-242" font-family="Helvetica,sans-Serif" font-size="10.00">Script::PrintContents</text>
</a>
</g>
</g>
<!-- Node18&#45;&gt;Node19 -->
<g id="edge25" class="edge"><title>Node18&#45;&gt;Node19</title>
<path fill="none" stroke="midnightblue" d="M298.309,-272.911C323.34,-267.784 354.341,-261.433 380.682,-256.037"/>
<polygon fill="midnightblue" stroke="midnightblue" points="381.433,-259.456 390.527,-254.02 380.028,-252.598 381.433,-259.456"/>
</g>
<!-- Node20 -->
<g id="node20" class="node"><title>Node20</title>
<g id="a_node20"><a xlink:href="../../d1/d54/namespace_script.html#a43181580ea5d38e4bf1aa19ccd5e9e85" target="_top" xlink:title=" ">
<polygon fill="white" stroke="black" points="577,-176 577,-195 659,-195 659,-176 577,-176"/>
<text text-anchor="middle" x="618" y="-183" font-family="Helvetica,sans-Serif" font-size="10.00">Script::Resolve</text>
</a>
</g>
</g>
<!-- Node18&#45;&gt;Node20 -->
<g id="edge26" class="edge"><title>Node18&#45;&gt;Node20</title>
<path fill="none" stroke="midnightblue" d="M325.206,-288.28C379.427,-289.922 453.995,-286.631 515,-263.5 549.837,-250.291 582.66,-221.086 601.251,-202.4"/>
<polygon fill="midnightblue" stroke="midnightblue" points="603.867,-204.73 608.312,-195.112 598.84,-199.859 603.867,-204.73"/>
</g>
<!-- Node20&#45;&gt;Node13 -->
<g id="edge27" class="edge"><title>Node20&#45;&gt;Node13</title>
<path fill="none" stroke="midnightblue" d="M659.406,-194.505C682.515,-199.656 711.77,-206.176 736.682,-211.728"/>
<polygon fill="midnightblue" stroke="midnightblue" points="736.182,-215.203 746.704,-213.962 737.705,-208.37 736.182,-215.203"/>
</g>
<!-- Node21 -->
<g id="node21" class="node"><title>Node21</title>
<g id="a_node21"><a xlink:href="../../d1/d54/namespace_script.html#af293a36c230b10de7d8151c2990b233b" target="_top" xlink:title=" ">
<polygon fill="white" stroke="black" points="733.5,-176 733.5,-195 847.5,-195 847.5,-176 733.5,-176"/>
<text text-anchor="middle" x="790.5" y="-183" font-family="Helvetica,sans-Serif" font-size="10.00">Script::LookUpSymbol</text>
</a>
</g>
</g>
<!-- Node20&#45;&gt;Node21 -->
<g id="edge28" class="edge"><title>Node20&#45;&gt;Node21</title>
<path fill="none" stroke="midnightblue" d="M659.406,-185.5C678.449,-185.5 701.664,-185.5 723.185,-185.5"/>
<polygon fill="midnightblue" stroke="midnightblue" points="723.259,-189 733.259,-185.5 723.258,-182 723.259,-189"/>
</g>
<!-- Node24&#45;&gt;Node13 -->
<g id="edge32" class="edge"><title>Node24&#45;&gt;Node13</title>
<path fill="none" stroke="midnightblue" d="M296.295,-234.985C316.036,-231.244 339.57,-227.396 361,-225.5 482.59,-214.743 624.345,-216.954 710.467,-219.928"/>
<polygon fill="midnightblue" stroke="midnightblue" points="710.57,-223.434 720.688,-220.294 710.82,-216.438 710.57,-223.434"/>
</g>
<!-- Node24&#45;&gt;Node19 -->
<g id="edge33" class="edge"><title>Node24&#45;&gt;Node19</title>
<path fill="none" stroke="midnightblue" d="M316.64,-244.5C335.313,-244.5 355.63,-244.5 374.162,-244.5"/>
<polygon fill="midnightblue" stroke="midnightblue" points="374.252,-248 384.252,-244.5 374.252,-241 374.252,-248"/>
</g>
<!-- Node25 -->
<g id="node25" class="node"><title>Node25</title>
<g id="a_node25"><a xlink:href="../../d2/df7/class_script_1_1_c_struct.html#a1e05f0a66cff4a700fb67fdc117d2d7f" target="_top" xlink:title=" ">
<polygon fill="white" stroke="black" points="372,-139 372,-158 504,-158 504,-139 372,-139"/>
<text text-anchor="middle" x="438" y="-146" font-family="Helvetica,sans-Serif" font-size="10.00">Script::CStruct::search_for</text>
</a>
</g>
</g>
<!-- Node24&#45;&gt;Node25 -->
<g id="edge34" class="edge"><title>Node24&#45;&gt;Node25</title>
<path fill="none" stroke="midnightblue" d="M302.171,-234.9C310.063,-232.423 317.935,-229.336 325,-225.5 344.074,-215.143 343.505,-205.347 361,-192.5 376.02,-181.471 394.023,-170.943 408.735,-162.952"/>
<polygon fill="midnightblue" stroke="midnightblue" points="410.685,-165.879 417.864,-158.088 407.393,-159.702 410.685,-165.879"/>
</g>
<!-- Node25&#45;&gt;Node8 -->
<g id="edge36" class="edge"><title>Node25&#45;&gt;Node8</title>
<path fill="none" stroke="midnightblue" d="M468.43,-138.932C564.151,-109.773 871.27,-31.8686 1059,-165.5 1094.07,-190.462 1135.33,-317.71 1150.25,-366.98"/>
<polygon fill="midnightblue" stroke="midnightblue" points="1146.95,-368.165 1153.17,-376.742 1153.66,-366.159 1146.95,-368.165"/>
</g>
<!-- Node25&#45;&gt;Node13 -->
<g id="edge35" class="edge"><title>Node25&#45;&gt;Node13</title>
<path fill="none" stroke="midnightblue" d="M504.143,-140.827C555.697,-137.607 628.217,-139.578 685,-166.5 706.021,-176.467 701.064,-192.509 721,-204.5 724.629,-206.683 728.515,-208.621 732.526,-210.343"/>
<polygon fill="midnightblue" stroke="midnightblue" points="731.453,-213.68 742.044,-213.976 733.95,-207.14 731.453,-213.68"/>
</g>
<!-- Node25&#45;&gt;Node20 -->
<g id="edge37" class="edge"><title>Node25&#45;&gt;Node20</title>
<path fill="none" stroke="midnightblue" d="M484.839,-158.028C509.938,-163.246 541.079,-169.719 566.827,-175.071"/>
<polygon fill="midnightblue" stroke="midnightblue" points="566.266,-178.529 576.769,-177.137 567.69,-171.675 566.266,-178.529"/>
</g>
<!-- Node25&#45;&gt;Node25 -->
<g id="edge38" class="edge"><title>Node25&#45;&gt;Node25</title>
<path fill="none" stroke="midnightblue" d="M410.257,-158.257C396.76,-167.065 406.008,-176.5 438,-176.5 459.995,-176.5 471.239,-172.041 471.733,-166.391"/>
<polygon fill="midnightblue" stroke="midnightblue" points="474.491,-164.234 465.743,-158.257 468.854,-168.385 474.491,-164.234"/>
</g>
</g>
</svg>
