<?xml version="1.0" encoding="UTF-8" standalone="no"?>
<!DOCTYPE svg PUBLIC "-//W3C//DTD SVG 1.1//EN"
 "http://www.w3.org/Graphics/SVG/1.1/DTD/svg11.dtd">
<!-- Generated by graphviz version 2.38.0 (20140413.2041)
 -->
<!-- Title: CFuncs::ScriptStartCompetition Pages: 1 -->
<!--zoomable 322 -->
<svg id="main" version="1.1" xmlns="http://www.w3.org/2000/svg" xmlns:xlink="http://www.w3.org/1999/xlink" xml:space="preserve" onload="init(evt)">
<style type="text/css"><![CDATA[
.edge:hover path { stroke: red; }
.edge:hover polygon { stroke: red; fill: red; }
]]></style>
<script type="text/javascript"><![CDATA[
var edges = document.getElementsByTagName('g');
if (edges && edges.length) {
  for (var i=0;i<edges.length;i++) {
    if (edges[i].id.substr(0,4)=='edge') {
      edges[i].setAttribute('class','edge');
    }
  }
}
]]></script>
        <defs>
                <circle id="rim" cx="0" cy="0" r="7"/>
                <circle id="rim2" cx="0" cy="0" r="3.5"/>
                <g id="zoomPlus">
                        <use xlink:href="#rim" fill="#404040">
                                <set attributeName="fill" to="#808080" begin="zoomplus.mouseover" end="zoomplus.mouseout"/>
                        </use>
                        <path d="M-4,0h8M0,-4v8" fill="none" stroke="white" stroke-width="1.5" pointer-events="none"/>
                </g>
                <g id="zoomMin">
                        <use xlink:href="#rim" fill="#404040">
                                <set attributeName="fill" to="#808080" begin="zoomminus.mouseover" end="zoomminus.mouseout"/>
                        </use>
                        <path d="M-4,0h8" fill="none" stroke="white" stroke-width="1.5" pointer-events="none"/>
                </g>
                <g id="dirArrow">
                        <path fill="none" stroke="white" stroke-width="1.5" d="M0,-3.0v7 M-2.5,-0.5L0,-3.0L2.5,-0.5"/>
                </g>
               <g id="resetDef">
                       <use xlink:href="#rim2" fill="#404040">
                               <set attributeName="fill" to="#808080" begin="reset.mouseover" end="reset.mouseout"/>
                       </use>
               </g>
        </defs>

<script type="text/javascript">
var viewWidth = 1224;
var viewHeight = 322;
var sectionId = 'dynsection-286';
</script>
<script xlink:href="../../svgpan.js"/>
<svg id="graph" class="graph">
<g id="viewport">
<title>CFuncs::ScriptStartCompetition</title>
<polygon fill="white" stroke="none" points="-4,4 -4,-318 1220,-318 1220,4 -4,4"/>
<!-- Node1 -->
<g id="node1" class="node"><title>Node1</title>
<g id="a_node1"><a xlink:title=" ">
<polygon fill="#bfbfbf" stroke="black" points="0,-95.5 0,-114.5 155,-114.5 155,-95.5 0,-95.5"/>
<text text-anchor="middle" x="77.5" y="-102.5" font-family="Helvetica,sans-Serif" font-size="10.00">CFuncs::ScriptStartCompetition</text>
</a>
</g>
</g>
<!-- Node2 -->
<g id="node2" class="node"><title>Node2</title>
<g id="a_node2"><a xlink:href="../../d2/df7/class_script_1_1_c_struct.html#acae6f1a5a02d406ab56292ec3fcfaefd" target="_top" xlink:title=" ">
<polygon fill="white" stroke="black" points="200.5,-114.5 200.5,-133.5 325.5,-133.5 325.5,-114.5 200.5,-114.5"/>
<text text-anchor="middle" x="263" y="-121.5" font-family="Helvetica,sans-Serif" font-size="10.00">Script::CStruct::GetFloat</text>
</a>
</g>
</g>
<!-- Node1&#45;&gt;Node2 -->
<g id="edge1" class="edge"><title>Node1&#45;&gt;Node2</title>
<path fill="none" stroke="midnightblue" d="M155.257,-112.948C166.879,-114.151 178.831,-115.388 190.339,-116.58"/>
<polygon fill="midnightblue" stroke="midnightblue" points="190.011,-120.065 200.319,-117.613 190.732,-113.102 190.011,-120.065"/>
</g>
<!-- Node12 -->
<g id="node12" class="node"><title>Node12</title>
<g id="a_node12"><a xlink:href="../../db/df2/class_script_1_1_c_script.html#a79524e82741fa32e53faf43cd84bcef3" target="_top" xlink:title=" ">
<polygon fill="white" stroke="black" points="539,-228.5 539,-247.5 682,-247.5 682,-228.5 539,-228.5"/>
<text text-anchor="middle" x="610.5" y="-235.5" font-family="Helvetica,sans-Serif" font-size="10.00">Script::CScript::GetScriptInfo</text>
</a>
</g>
</g>
<!-- Node1&#45;&gt;Node12 -->
<g id="edge14" class="edge"><title>Node1&#45;&gt;Node12</title>
<path fill="none" stroke="midnightblue" d="M89.0321,-114.627C107.897,-131.258 149.383,-165.109 191,-181 302.906,-223.73 442.406,-235.136 528.715,-237.796"/>
<polygon fill="midnightblue" stroke="midnightblue" points="528.879,-241.302 538.971,-238.079 529.072,-234.305 528.879,-241.302"/>
</g>
<!-- Node16 -->
<g id="node16" class="node"><title>Node16</title>
<g id="a_node16"><a xlink:href="../../d2/df7/class_script_1_1_c_struct.html#a7d6929b5a907965b7a7ef86dc9b90123" target="_top" xlink:title=" ">
<polygon fill="white" stroke="black" points="191.5,-152.5 191.5,-171.5 334.5,-171.5 334.5,-152.5 191.5,-152.5"/>
<text text-anchor="middle" x="263" y="-159.5" font-family="Helvetica,sans-Serif" font-size="10.00">Script::CStruct::GetStructure</text>
</a>
</g>
</g>
<!-- Node1&#45;&gt;Node16 -->
<g id="edge21" class="edge"><title>Node1&#45;&gt;Node16</title>
<path fill="none" stroke="midnightblue" d="M105.166,-114.547C127.864,-122.542 161.4,-134.051 191,-143 198.643,-145.311 206.792,-147.627 214.743,-149.809"/>
<polygon fill="midnightblue" stroke="midnightblue" points="214.088,-153.257 224.655,-152.489 215.915,-146.5 214.088,-153.257"/>
</g>
<!-- Node17 -->
<g id="node17" class="node"><title>Node17</title>
<g id="a_node17"><a xlink:href="../../d2/d0a/class_mem_1_1_manager.html#a7c4cba14870f002aee0243e16114f443" target="_top" xlink:title=" ">
<polygon fill="white" stroke="black" points="193.5,-76.5 193.5,-95.5 332.5,-95.5 332.5,-76.5 193.5,-76.5"/>
<text text-anchor="middle" x="263" y="-83.5" font-family="Helvetica,sans-Serif" font-size="10.00">Mem::Manager::PopContext</text>
</a>
</g>
</g>
<!-- Node1&#45;&gt;Node17 -->
<g id="edge25" class="edge"><title>Node1&#45;&gt;Node17</title>
<path fill="none" stroke="midnightblue" d="M155.257,-97.0524C164.561,-96.089 174.077,-95.1038 183.406,-94.1377"/>
<polygon fill="midnightblue" stroke="midnightblue" points="183.853,-97.6104 193.439,-93.099 183.132,-90.6476 183.853,-97.6104"/>
</g>
<!-- Node18 -->
<g id="node18" class="node"><title>Node18</title>
<g id="a_node18"><a xlink:href="../../d2/d0a/class_mem_1_1_manager.html#aaf8e36abc36eecabe46bf2582035192a" target="_top" xlink:title=" ">
<polygon fill="white" stroke="black" points="191,-38.5 191,-57.5 335,-57.5 335,-38.5 191,-38.5"/>
<text text-anchor="middle" x="263" y="-45.5" font-family="Helvetica,sans-Serif" font-size="10.00">Mem::Manager::PushContext</text>
</a>
</g>
</g>
<!-- Node1&#45;&gt;Node18 -->
<g id="edge26" class="edge"><title>Node1&#45;&gt;Node18</title>
<path fill="none" stroke="midnightblue" d="M105.166,-95.4533C127.864,-87.4576 161.4,-75.9495 191,-67 198.643,-64.689 206.792,-62.3726 214.743,-60.1914"/>
<polygon fill="midnightblue" stroke="midnightblue" points="215.915,-63.5002 224.655,-57.5114 214.088,-56.7428 215.915,-63.5002"/>
</g>
<!-- Node19 -->
<g id="node19" class="node"><title>Node19</title>
<g id="a_node19"><a xlink:href="../../d2/d0a/class_mem_1_1_manager.html#a3aefd91781b7f41d35e6df6a32d379d0" target="_top" xlink:title=" ">
<polygon fill="white" stroke="black" points="201.5,-0.5 201.5,-19.5 324.5,-19.5 324.5,-0.5 201.5,-0.5"/>
<text text-anchor="middle" x="263" y="-7.5" font-family="Helvetica,sans-Serif" font-size="10.00">Mem::Manager::sHandle</text>
</a>
</g>
</g>
<!-- Node1&#45;&gt;Node19 -->
<g id="edge27" class="edge"><title>Node1&#45;&gt;Node19</title>
<path fill="none" stroke="midnightblue" d="M89.8723,-95.3981C109.353,-79.4099 150.896,-47.2863 191,-29 196.281,-26.5921 201.926,-24.4401 207.64,-22.529"/>
<polygon fill="midnightblue" stroke="midnightblue" points="208.758,-25.847 217.269,-19.5376 206.681,-19.1621 208.758,-25.847"/>
</g>
<!-- Node3 -->
<g id="node3" class="node"><title>Node3</title>
<g id="a_node3"><a xlink:href="../../d1/d54/namespace_script.html#ae80ed69ea4edcbcbbbd4985a6efdcd6e" target="_top" xlink:title=" ">
<polygon fill="white" stroke="black" points="718,-152.5 718,-171.5 857,-171.5 857,-152.5 718,-152.5"/>
<text text-anchor="middle" x="787.5" y="-159.5" font-family="Helvetica,sans-Serif" font-size="10.00">Script::FindChecksumName</text>
</a>
</g>
</g>
<!-- Node2&#45;&gt;Node3 -->
<g id="edge2" class="edge"><title>Node2&#45;&gt;Node3</title>
<path fill="none" stroke="midnightblue" d="M305.372,-114.439C315.205,-111.753 325.575,-108.575 335,-105 351.726,-98.6554 353.59,-91.1099 371,-87 396.32,-81.0228 667.09,-84.2162 682,-89 716.849,-100.181 750.282,-127.38 769.586,-145.236"/>
<polygon fill="midnightblue" stroke="midnightblue" points="767.298,-147.889 776.957,-152.242 772.12,-142.816 767.298,-147.889"/>
</g>
<!-- Node7 -->
<g id="node7" class="node"><title>Node7</title>
<g id="a_node7"><a xlink:href="../../d1/d54/namespace_script.html#a0d003ee93577e31adb6597bce0002009" target="_top" xlink:title=" ">
<polygon fill="white" stroke="black" points="383.5,-152.5 383.5,-171.5 490.5,-171.5 490.5,-152.5 383.5,-152.5"/>
<text text-anchor="middle" x="437" y="-159.5" font-family="Helvetica,sans-Serif" font-size="10.00">Script::PrintContents</text>
</a>
</g>
</g>
<!-- Node2&#45;&gt;Node7 -->
<g id="edge6" class="edge"><title>Node2&#45;&gt;Node7</title>
<path fill="none" stroke="midnightblue" d="M307.403,-133.589C330.407,-138.671 358.851,-144.955 383.134,-150.32"/>
<polygon fill="midnightblue" stroke="midnightblue" points="382.39,-153.74 392.909,-152.48 383.9,-146.905 382.39,-153.74"/>
</g>
<!-- Node8 -->
<g id="node8" class="node"><title>Node8</title>
<g id="a_node8"><a xlink:href="../../d2/df7/class_script_1_1_c_struct.html#a1e05f0a66cff4a700fb67fdc117d2d7f" target="_top" xlink:title=" ">
<polygon fill="white" stroke="black" points="371,-96.5 371,-115.5 503,-115.5 503,-96.5 371,-96.5"/>
<text text-anchor="middle" x="437" y="-103.5" font-family="Helvetica,sans-Serif" font-size="10.00">Script::CStruct::search_for</text>
</a>
</g>
</g>
<!-- Node2&#45;&gt;Node8 -->
<g id="edge7" class="edge"><title>Node2&#45;&gt;Node8</title>
<path fill="none" stroke="midnightblue" d="M325.61,-117.552C336.942,-116.366 348.891,-115.116 360.574,-113.893"/>
<polygon fill="midnightblue" stroke="midnightblue" points="361.171,-117.35 370.752,-112.828 360.442,-110.388 361.171,-117.35"/>
</g>
<!-- Node4 -->
<g id="node4" class="node"><title>Node4</title>
<g id="a_node4"><a xlink:href="../../d1/d54/namespace_script.html#a5cc52c4ff5ea5bb27681d819212dfdca" target="_top" xlink:title=" ">
<polygon fill="white" stroke="black" points="893,-152.5 893,-171.5 1056,-171.5 1056,-152.5 893,-152.5"/>
<text text-anchor="middle" x="974.5" y="-159.5" font-family="Helvetica,sans-Serif" font-size="10.00">Script::FindChecksumNameNULL</text>
</a>
</g>
</g>
<!-- Node3&#45;&gt;Node4 -->
<g id="edge3" class="edge"><title>Node3&#45;&gt;Node4</title>
<path fill="none" stroke="midnightblue" d="M857.124,-162C865.476,-162 874.107,-162 882.717,-162"/>
<polygon fill="midnightblue" stroke="midnightblue" points="882.798,-165.5 892.798,-162 882.798,-158.5 882.798,-165.5"/>
</g>
<!-- Node6 -->
<g id="node6" class="node"><title>Node6</title>
<g id="a_node6"><a xlink:href="../../da/d37/namespace_dbg.html#ab406a8cc16de5046c7d9fd09c9de5e22" target="_top" xlink:title=" ">
<polygon fill="white" stroke="black" points="941.5,-199.5 941.5,-218.5 1007.5,-218.5 1007.5,-199.5 941.5,-199.5"/>
<text text-anchor="middle" x="974.5" y="-206.5" font-family="Helvetica,sans-Serif" font-size="10.00">Dbg::sprintf</text>
</a>
</g>
</g>
<!-- Node3&#45;&gt;Node6 -->
<g id="edge5" class="edge"><title>Node3&#45;&gt;Node6</title>
<path fill="none" stroke="midnightblue" d="M825.938,-171.511C856.519,-179.281 899.726,-190.257 931.486,-198.326"/>
<polygon fill="midnightblue" stroke="midnightblue" points="930.811,-201.766 941.365,-200.836 932.534,-194.981 930.811,-201.766"/>
</g>
<!-- Node5 -->
<g id="node5" class="node"><title>Node5</title>
<g id="a_node5"><a xlink:href="../../d0/d31/namespace_config.html#a709cc81780d49900157e3476b63aa25d" target="_top" xlink:title=" ">
<polygon fill="white" stroke="black" points="1092,-152.5 1092,-171.5 1216,-171.5 1216,-152.5 1092,-152.5"/>
<text text-anchor="middle" x="1154" y="-159.5" font-family="Helvetica,sans-Serif" font-size="10.00">Config::GotExtraMemory</text>
</a>
</g>
</g>
<!-- Node4&#45;&gt;Node5 -->
<g id="edge4" class="edge"><title>Node4&#45;&gt;Node5</title>
<path fill="none" stroke="midnightblue" d="M1056.2,-162C1064.73,-162 1073.36,-162 1081.77,-162"/>
<polygon fill="midnightblue" stroke="midnightblue" points="1081.9,-165.5 1091.9,-162 1081.9,-158.5 1081.9,-165.5"/>
</g>
<!-- Node8&#45;&gt;Node3 -->
<g id="edge8" class="edge"><title>Node8&#45;&gt;Node3</title>
<path fill="none" stroke="midnightblue" d="M503.044,-96.9634C552.834,-92.1357 622.788,-89.9014 682,-105 713.258,-112.971 745.249,-132.413 765.458,-146.374"/>
<polygon fill="midnightblue" stroke="midnightblue" points="763.688,-149.41 773.869,-152.342 767.738,-143.701 763.688,-149.41"/>
</g>
<!-- Node8&#45;&gt;Node8 -->
<g id="edge13" class="edge"><title>Node8&#45;&gt;Node8</title>
<path fill="none" stroke="midnightblue" d="M410.49,-115.757C397.593,-124.565 406.43,-134 437,-134 457.539,-134 468.268,-129.741 469.186,-124.275"/>
<polygon fill="midnightblue" stroke="midnightblue" points="471.968,-122.138 463.51,-115.757 466.143,-126.02 471.968,-122.138"/>
</g>
<!-- Node9 -->
<g id="node9" class="node"><title>Node9</title>
<g id="a_node9"><a xlink:href="../../d1/d54/namespace_script.html#af32f99ba26ca0f255240413a4e23a754" target="_top" xlink:title=" ">
<polygon fill="white" stroke="black" points="555.5,-114.5 555.5,-133.5 665.5,-133.5 665.5,-114.5 555.5,-114.5"/>
<text text-anchor="middle" x="610.5" y="-121.5" font-family="Helvetica,sans-Serif" font-size="10.00">Script::GetTypeName</text>
</a>
</g>
</g>
<!-- Node8&#45;&gt;Node9 -->
<g id="edge9" class="edge"><title>Node8&#45;&gt;Node9</title>
<path fill="none" stroke="midnightblue" d="M503.326,-112.856C516.979,-114.289 531.366,-115.799 544.989,-117.229"/>
<polygon fill="midnightblue" stroke="midnightblue" points="544.923,-120.741 555.234,-118.304 545.654,-113.78 544.923,-120.741"/>
</g>
<!-- Node10 -->
<g id="node10" class="node"><title>Node10</title>
<g id="a_node10"><a xlink:href="../../d1/d54/namespace_script.html#a43181580ea5d38e4bf1aa19ccd5e9e85" target="_top" xlink:title=" ">
<polygon fill="white" stroke="black" points="569.5,-152.5 569.5,-171.5 651.5,-171.5 651.5,-152.5 569.5,-152.5"/>
<text text-anchor="middle" x="610.5" y="-159.5" font-family="Helvetica,sans-Serif" font-size="10.00">Script::Resolve</text>
</a>
</g>
</g>
<!-- Node8&#45;&gt;Node10 -->
<g id="edge10" class="edge"><title>Node8&#45;&gt;Node10</title>
<path fill="none" stroke="midnightblue" d="M462.284,-115.578C482.614,-123.432 512.478,-134.586 539,-143 546.309,-145.319 554.101,-147.603 561.738,-149.739"/>
<polygon fill="midnightblue" stroke="midnightblue" points="561.067,-153.184 571.636,-152.452 562.917,-146.433 561.067,-153.184"/>
</g>
<!-- Node10&#45;&gt;Node3 -->
<g id="edge11" class="edge"><title>Node10&#45;&gt;Node3</title>
<path fill="none" stroke="midnightblue" d="M651.649,-162C668.319,-162 688.271,-162 707.652,-162"/>
<polygon fill="midnightblue" stroke="midnightblue" points="707.714,-165.5 717.714,-162 707.714,-158.5 707.714,-165.5"/>
</g>
<!-- Node11 -->
<g id="node11" class="node"><title>Node11</title>
<g id="a_node11"><a xlink:href="../../d1/d54/namespace_script.html#af293a36c230b10de7d8151c2990b233b" target="_top" xlink:title=" ">
<polygon fill="white" stroke="black" points="730.5,-190.5 730.5,-209.5 844.5,-209.5 844.5,-190.5 730.5,-190.5"/>
<text text-anchor="middle" x="787.5" y="-197.5" font-family="Helvetica,sans-Serif" font-size="10.00">Script::LookUpSymbol</text>
</a>
</g>
</g>
<!-- Node10&#45;&gt;Node11 -->
<g id="edge12" class="edge"><title>Node10&#45;&gt;Node11</title>
<path fill="none" stroke="midnightblue" d="M651.649,-170.718C675.612,-175.922 706.357,-182.598 732.437,-188.261"/>
<polygon fill="midnightblue" stroke="midnightblue" points="732.034,-191.755 742.549,-190.456 733.52,-184.914 732.034,-191.755"/>
</g>
<!-- Node12&#45;&gt;Node3 -->
<g id="edge15" class="edge"><title>Node12&#45;&gt;Node3</title>
<path fill="none" stroke="midnightblue" d="M648.994,-228.418C660.045,-224.766 671.879,-219.999 682,-214 700.672,-202.933 699.017,-191.525 718,-181 721.994,-178.786 726.264,-176.815 730.647,-175.063"/>
<polygon fill="midnightblue" stroke="midnightblue" points="732.135,-178.247 740.36,-171.568 729.765,-171.66 732.135,-178.247"/>
</g>
<!-- Node12&#45;&gt;Node6 -->
<g id="edge20" class="edge"><title>Node12&#45;&gt;Node6</title>
<path fill="none" stroke="midnightblue" d="M682.151,-232.69C731.214,-228.964 798.095,-223.807 857,-219 881.628,-216.99 909.174,-214.631 931.295,-212.709"/>
<polygon fill="midnightblue" stroke="midnightblue" points="931.706,-216.186 941.364,-211.831 931.098,-209.213 931.706,-216.186"/>
</g>
<!-- Node12&#45;&gt;Node11 -->
<g id="edge19" class="edge"><title>Node12&#45;&gt;Node11</title>
<path fill="none" stroke="midnightblue" d="M655.66,-228.411C679.065,-223.329 708.005,-217.045 732.712,-211.68"/>
<polygon fill="midnightblue" stroke="midnightblue" points="733.628,-215.062 742.658,-209.52 732.143,-208.222 733.628,-215.062"/>
</g>
<!-- Node13 -->
<g id="node13" class="node"><title>Node13</title>
<g id="a_node13"><a xlink:href="../../d1/d54/namespace_script.html#ade6b00de97e28d9883fd40fd39b49e75" target="_top" xlink:title=" ">
<polygon fill="white" stroke="black" points="729.5,-266.5 729.5,-285.5 845.5,-285.5 845.5,-266.5 729.5,-266.5"/>
<text text-anchor="middle" x="787.5" y="-273.5" font-family="Helvetica,sans-Serif" font-size="10.00">Script::GetLineNumber</text>
</a>
</g>
</g>
<!-- Node12&#45;&gt;Node13 -->
<g id="edge16" class="edge"><title>Node12&#45;&gt;Node13</title>
<path fill="none" stroke="midnightblue" d="M655.66,-247.589C679.065,-252.671 708.005,-258.955 732.712,-264.32"/>
<polygon fill="midnightblue" stroke="midnightblue" points="732.143,-267.778 742.658,-266.48 733.628,-260.938 732.143,-267.778"/>
</g>
<!-- Node14 -->
<g id="node14" class="node"><title>Node14</title>
<g id="a_node14"><a xlink:href="../../d1/d54/namespace_script.html#a13f53c2ad11266b0280c0c1937902bb9" target="_top" xlink:title=" ">
<polygon fill="white" stroke="black" points="924,-294.5 924,-313.5 1025,-313.5 1025,-294.5 924,-294.5"/>
<text text-anchor="middle" x="974.5" y="-301.5" font-family="Helvetica,sans-Serif" font-size="10.00">Script::Read4Bytes</text>
</a>
</g>
</g>
<!-- Node13&#45;&gt;Node14 -->
<g id="edge17" class="edge"><title>Node13&#45;&gt;Node14</title>
<path fill="none" stroke="midnightblue" d="M845.516,-284.629C867.145,-287.903 891.826,-291.639 913.705,-294.95"/>
<polygon fill="midnightblue" stroke="midnightblue" points="913.455,-298.452 923.866,-296.488 914.503,-291.531 913.455,-298.452"/>
</g>
<!-- Node15 -->
<g id="node15" class="node"><title>Node15</title>
<g id="a_node15"><a xlink:href="../../d1/d54/namespace_script.html#a557f2b1ab2abd381a311d1deab276873" target="_top" xlink:title=" ">
<polygon fill="white" stroke="black" points="927.5,-256.5 927.5,-275.5 1021.5,-275.5 1021.5,-256.5 927.5,-256.5"/>
<text text-anchor="middle" x="974.5" y="-263.5" font-family="Helvetica,sans-Serif" font-size="10.00">Script::SkipToken</text>
</a>
</g>
</g>
<!-- Node13&#45;&gt;Node15 -->
<g id="edge18" class="edge"><title>Node13&#45;&gt;Node15</title>
<path fill="none" stroke="midnightblue" d="M845.516,-272.918C868.256,-271.689 894.369,-270.277 917.053,-269.051"/>
<polygon fill="midnightblue" stroke="midnightblue" points="917.413,-272.537 927.209,-268.502 917.035,-265.547 917.413,-272.537"/>
</g>
<!-- Node16&#45;&gt;Node3 -->
<g id="edge22" class="edge"><title>Node16&#45;&gt;Node3</title>
<path fill="none" stroke="midnightblue" d="M307.498,-171.512C326.839,-175.277 349.951,-179.146 371,-181 508.689,-193.13 544.336,-193.413 682,-181 699.034,-179.464 717.442,-176.547 733.993,-173.451"/>
<polygon fill="midnightblue" stroke="midnightblue" points="734.875,-176.846 744.029,-171.511 733.546,-169.973 734.875,-176.846"/>
</g>
<!-- Node16&#45;&gt;Node7 -->
<g id="edge23" class="edge"><title>Node16&#45;&gt;Node7</title>
<path fill="none" stroke="midnightblue" d="M334.952,-162C347.604,-162 360.704,-162 373.111,-162"/>
<polygon fill="midnightblue" stroke="midnightblue" points="373.344,-165.5 383.344,-162 373.344,-158.5 373.344,-165.5"/>
</g>
<!-- Node16&#45;&gt;Node8 -->
<g id="edge24" class="edge"><title>Node16&#45;&gt;Node8</title>
<path fill="none" stroke="midnightblue" d="M302.135,-152.468C312.825,-149.614 324.415,-146.348 335,-143 357.695,-135.822 382.829,-126.619 402.347,-119.188"/>
<polygon fill="midnightblue" stroke="midnightblue" points="403.638,-122.441 411.72,-115.591 401.13,-115.906 403.638,-122.441"/>
</g>
</g>
</svg>
        <g id="navigator" transform="translate(0 0)" fill="#404254">
                <rect fill="#f2f5e9" fill-opacity="0.5" stroke="#606060" stroke-width=".5" x="0" y="0" width="60" height="60"/>
                <use id="zoomplus" xlink:href="#zoomPlus" x="17" y="9" onmousedown="handleZoom(evt,'in')"/>
                <use id="zoomminus" xlink:href="#zoomMin" x="42" y="9" onmousedown="handleZoom(evt,'out')"/>
                <use id="reset" xlink:href="#resetDef" x="30" y="36" onmousedown="handleReset()"/>
                <g id="arrowUp" xlink:href="#dirArrow" transform="translate(30 24)" onmousedown="handlePan(0,-1)">
                  <use xlink:href="#rim" fill="#404040">
                        <set attributeName="fill" to="#808080" begin="arrowUp.mouseover" end="arrowUp.mouseout"/>
                  </use>
                  <path fill="none" stroke="white" stroke-width="1.5" d="M0,-3.0v7 M-2.5,-0.5L0,-3.0L2.5,-0.5"/>
                </g>
                <g id="arrowRight" xlink:href="#dirArrow" transform="rotate(90) translate(36 -43)" onmousedown="handlePan(1,0)">
                  <use xlink:href="#rim" fill="#404040">
                        <set attributeName="fill" to="#808080" begin="arrowRight.mouseover" end="arrowRight.mouseout"/>
                  </use>
                  <path fill="none" stroke="white" stroke-width="1.5" d="M0,-3.0v7 M-2.5,-0.5L0,-3.0L2.5,-0.5"/>
                </g>
                <g id="arrowDown" xlink:href="#dirArrow" transform="rotate(180) translate(-30 -48)" onmousedown="handlePan(0,1)">
                  <use xlink:href="#rim" fill="#404040">
                        <set attributeName="fill" to="#808080" begin="arrowDown.mouseover" end="arrowDown.mouseout"/>
                  </use>
                  <path fill="none" stroke="white" stroke-width="1.5" d="M0,-3.0v7 M-2.5,-0.5L0,-3.0L2.5,-0.5"/>
                </g>
                <g id="arrowLeft" xlink:href="#dirArrow" transform="rotate(270) translate(-36 17)" onmousedown="handlePan(-1,0)">
                  <use xlink:href="#rim" fill="#404040">
                        <set attributeName="fill" to="#808080" begin="arrowLeft.mouseover" end="arrowLeft.mouseout"/>
                  </use>
                  <path fill="none" stroke="white" stroke-width="1.5" d="M0,-3.0v7 M-2.5,-0.5L0,-3.0L2.5,-0.5"/>
                </g>
        </g>
        <svg viewBox="0 0 15 15" width="100%" height="30px" preserveAspectRatio="xMaxYMin meet">
         <g id="arrow_out" transform="scale(0.3 0.3)">
          <a xlink:href="namespace_c_funcs_aa24b640b9753402fb2fe6a45ffde8158_cgraph_org.svg" target="_base">
           <rect id="button" ry="5" rx="5" y="6" x="6" height="38" width="38"
                fill="#f2f5e9" fill-opacity="0.5" stroke="#606060" stroke-width="1.0"/>
           <path id="arrow"
             d="M 11.500037,31.436501 C 11.940474,20.09759 22.043105,11.32322 32.158766,21.979434 L 37.068811,17.246167 C 37.068811,17.246167 37.088388,32 37.088388,32 L 22.160133,31.978069 C 22.160133,31.978069 26.997745,27.140456 26.997745,27.140456 C 18.528582,18.264221 13.291696,25.230495 11.500037,31.436501 z"
             style="fill:#404040;"/>
          </a>
         </g>
        </svg>
</svg>
