<?xml version="1.0" encoding="UTF-8" standalone="no"?>
<!DOCTYPE svg PUBLIC "-//W3C//DTD SVG 1.1//EN"
 "http://www.w3.org/Graphics/SVG/1.1/DTD/svg11.dtd">
<!-- Generated by graphviz version 2.38.0 (20140413.2041)
 -->
<!-- Title: CFuncs::s_make_ps2_dir_and_icons Pages: 1 -->
<svg width="1161pt" height="948pt"
 viewBox="0.00 0.00 1161.00 948.00" xmlns="http://www.w3.org/2000/svg" xmlns:xlink="http://www.w3.org/1999/xlink">
<g id="graph0" class="graph" transform="scale(1 1) rotate(0) translate(4 944)">
<title>CFuncs::s_make_ps2_dir_and_icons</title>
<polygon fill="white" stroke="none" points="-4,4 -4,-944 1157,-944 1157,4 -4,4"/>
<!-- Node1 -->
<g id="node1" class="node"><title>Node1</title>
<g id="a_node1"><a xlink:title=" ">
<polygon fill="#bfbfbf" stroke="black" points="0,-413 0,-443 112,-443 112,-413 0,-413"/>
<text text-anchor="start" x="8" y="-431" font-family="Helvetica,sans-Serif" font-size="10.00">CFuncs::s_make_ps2</text>
<text text-anchor="middle" x="56" y="-420" font-family="Helvetica,sans-Serif" font-size="10.00">_dir_and_icons</text>
</a>
</g>
</g>
<!-- Node2 -->
<g id="node2" class="node"><title>Node2</title>
<g id="a_node2"><a xlink:href="../../da/d22/class_mc_1_1_file.html#a4b5bbde345fcec045a4cd08cb9238ff5" target="_top" xlink:title=" ">
<polygon fill="white" stroke="black" points="178.5,-920.5 178.5,-939.5 261.5,-939.5 261.5,-920.5 178.5,-920.5"/>
<text text-anchor="middle" x="220" y="-927.5" font-family="Helvetica,sans-Serif" font-size="10.00">Mc::File::Close</text>
</a>
</g>
</g>
<!-- Node1&#45;&gt;Node2 -->
<g id="edge1" class="edge"><title>Node1&#45;&gt;Node2</title>
<path fill="none" stroke="midnightblue" d="M57.7549,-443.432C61.711,-518 82.4323,-840.303 148,-911 153.614,-917.053 160.924,-921.26 168.716,-924.167"/>
<polygon fill="midnightblue" stroke="midnightblue" points="167.791,-927.544 178.377,-927.106 169.828,-920.847 167.791,-927.544"/>
</g>
<!-- Node3 -->
<g id="node3" class="node"><title>Node3</title>
<g id="a_node3"><a xlink:href="../../de/d10/namespace_file.html#af5cd83b01fc5f341f767beb7c0b1130c" target="_top" xlink:title=" ">
<polygon fill="white" stroke="black" points="188.5,-882.5 188.5,-901.5 251.5,-901.5 251.5,-882.5 188.5,-882.5"/>
<text text-anchor="middle" x="220" y="-889.5" font-family="Helvetica,sans-Serif" font-size="10.00">File::Close</text>
</a>
</g>
</g>
<!-- Node1&#45;&gt;Node3 -->
<g id="edge2" class="edge"><title>Node1&#45;&gt;Node3</title>
<path fill="none" stroke="midnightblue" d="M58.1587,-443.368C63.7373,-513.482 89.9754,-802.425 148,-868 155.869,-876.893 167.152,-882.496 178.413,-886.024"/>
<polygon fill="midnightblue" stroke="midnightblue" points="177.655,-889.444 188.218,-888.621 179.447,-882.677 177.655,-889.444"/>
</g>
<!-- Node4 -->
<g id="node4" class="node"><title>Node4</title>
<g id="a_node4"><a xlink:href="../../d1/d54/namespace_script.html#ae80ed69ea4edcbcbbbd4985a6efdcd6e" target="_top" xlink:title=" ">
<polygon fill="white" stroke="black" points="651.5,-787.5 651.5,-806.5 790.5,-806.5 790.5,-787.5 651.5,-787.5"/>
<text text-anchor="middle" x="721" y="-794.5" font-family="Helvetica,sans-Serif" font-size="10.00">Script::FindChecksumName</text>
</a>
</g>
</g>
<!-- Node1&#45;&gt;Node4 -->
<g id="edge3" class="edge"><title>Node1&#45;&gt;Node4</title>
<path fill="none" stroke="midnightblue" d="M58.8237,-443.405C66.3508,-504.264 97.0251,-726.83 148,-772 301.919,-908.391 580.655,-840.654 681.925,-809.649"/>
<polygon fill="midnightblue" stroke="midnightblue" points="683.215,-812.913 691.719,-806.594 681.13,-806.23 683.215,-812.913"/>
</g>
<!-- Node7 -->
<g id="node7" class="node"><title>Node7</title>
<g id="a_node7"><a xlink:href="../../da/d37/namespace_dbg.html#ab406a8cc16de5046c7d9fd09c9de5e22" target="_top" xlink:title=" ">
<polygon fill="white" stroke="black" points="878.5,-654.5 878.5,-673.5 944.5,-673.5 944.5,-654.5 878.5,-654.5"/>
<text text-anchor="middle" x="911.5" y="-661.5" font-family="Helvetica,sans-Serif" font-size="10.00">Dbg::sprintf</text>
</a>
</g>
</g>
<!-- Node1&#45;&gt;Node7 -->
<g id="edge40" class="edge"><title>Node1&#45;&gt;Node7</title>
<path fill="none" stroke="midnightblue" d="M57.8849,-443.256C61.2126,-484.833 76.7649,-600.273 148,-649 265.81,-729.586 726.028,-685.072 868.335,-669.017"/>
<polygon fill="midnightblue" stroke="midnightblue" points="868.872,-672.478 878.411,-667.868 868.079,-665.524 868.872,-672.478"/>
</g>
<!-- Node8 -->
<g id="node8" class="node"><title>Node8</title>
<g id="a_node8"><a xlink:href="../../da/d22/class_mc_1_1_file.html#a9008a46d7cd9679e64a8daeeff9b9eb5" target="_top" xlink:title=" ">
<polygon fill="white" stroke="black" points="179,-570.5 179,-589.5 261,-589.5 261,-570.5 179,-570.5"/>
<text text-anchor="middle" x="220" y="-577.5" font-family="Helvetica,sans-Serif" font-size="10.00">Mc::File::Flush</text>
</a>
</g>
</g>
<!-- Node1&#45;&gt;Node8 -->
<g id="edge7" class="edge"><title>Node1&#45;&gt;Node8</title>
<path fill="none" stroke="midnightblue" d="M63.1859,-443.396C75.1976,-471.284 104.388,-530.12 148,-561 154.37,-565.511 161.75,-568.95 169.294,-571.574"/>
<polygon fill="midnightblue" stroke="midnightblue" points="168.287,-574.926 178.872,-574.479 170.318,-568.227 168.287,-574.926"/>
</g>
<!-- Node9 -->
<g id="node9" class="node"><title>Node9</title>
<g id="a_node9"><a xlink:href="../../da/d37/namespace_dbg.html#a3c3c5b63d794ccd4b83658648fffcaf5" target="_top" xlink:title=" ">
<polygon fill="white" stroke="black" points="195,-532.5 195,-551.5 245,-551.5 245,-532.5 195,-532.5"/>
<text text-anchor="middle" x="220" y="-539.5" font-family="Helvetica,sans-Serif" font-size="10.00">Dbg::for</text>
</a>
</g>
</g>
<!-- Node1&#45;&gt;Node9 -->
<g id="edge8" class="edge"><title>Node1&#45;&gt;Node9</title>
<path fill="none" stroke="midnightblue" d="M67.4511,-443.319C82.6834,-464.458 113.01,-502.302 148,-523 159.154,-529.598 172.633,-533.952 184.836,-536.803"/>
<polygon fill="midnightblue" stroke="midnightblue" points="184.204,-540.246 194.708,-538.861 185.633,-533.393 184.204,-540.246"/>
</g>
<!-- Node10 -->
<g id="node10" class="node"><title>Node10</title>
<g id="a_node10"><a xlink:href="../../db/dc4/namespace_mem.html#aeedb606ea94a3398fdcfa3101c5ea8d9" target="_top" xlink:title=" ">
<polygon fill="white" stroke="black" points="188,-494.5 188,-513.5 252,-513.5 252,-494.5 188,-494.5"/>
<text text-anchor="middle" x="220" y="-501.5" font-family="Helvetica,sans-Serif" font-size="10.00">Mem::Free</text>
</a>
</g>
</g>
<!-- Node1&#45;&gt;Node10 -->
<g id="edge9" class="edge"><title>Node1&#45;&gt;Node10</title>
<path fill="none" stroke="midnightblue" d="M77.3422,-443.231C95.1671,-455.953 122.19,-473.766 148,-485 157.477,-489.125 168.065,-492.542 178.112,-495.286"/>
<polygon fill="midnightblue" stroke="midnightblue" points="177.361,-498.706 187.917,-497.806 179.104,-491.927 177.361,-498.706"/>
</g>
<!-- Node11 -->
<g id="node11" class="node"><title>Node11</title>
<g id="a_node11"><a xlink:href="../../de/d10/namespace_file.html#a42faef384ac438a449656a07258cdbec" target="_top" xlink:title=" ">
<polygon fill="white" stroke="black" points="175.5,-456.5 175.5,-475.5 264.5,-475.5 264.5,-456.5 175.5,-456.5"/>
<text text-anchor="middle" x="220" y="-463.5" font-family="Helvetica,sans-Serif" font-size="10.00">File::GetFileSize</text>
</a>
</g>
</g>
<!-- Node1&#45;&gt;Node11 -->
<g id="edge10" class="edge"><title>Node1&#45;&gt;Node11</title>
<path fill="none" stroke="midnightblue" d="M112.298,-440.971C130.381,-445.213 150.37,-449.902 168.112,-454.063"/>
<polygon fill="midnightblue" stroke="midnightblue" points="167.733,-457.569 178.268,-456.445 169.331,-450.754 167.733,-457.569"/>
</g>
<!-- Node12 -->
<g id="node12" class="node"><title>Node12</title>
<g id="a_node12"><a xlink:href="../../d1/d54/namespace_script.html#ac722bae4acb2ce23888cb428818f12af" target="_top" xlink:title=" ">
<polygon fill="white" stroke="black" points="183,-705.5 183,-724.5 257,-724.5 257,-705.5 183,-705.5"/>
<text text-anchor="middle" x="220" y="-712.5" font-family="Helvetica,sans-Serif" font-size="10.00">Script::GetInt</text>
</a>
</g>
</g>
<!-- Node1&#45;&gt;Node12 -->
<g id="edge11" class="edge"><title>Node1&#45;&gt;Node12</title>
<path fill="none" stroke="midnightblue" d="M58.4014,-443.229C63.1113,-486.155 81.9972,-609.695 148,-682 155.507,-690.224 165.481,-696.564 175.573,-701.384"/>
<polygon fill="midnightblue" stroke="midnightblue" points="174.241,-704.621 184.807,-705.393 177.028,-698.2 174.241,-704.621"/>
</g>
<!-- Node17 -->
<g id="node17" class="node"><title>Node17</title>
<g id="a_node17"><a xlink:href="../../d2/dcc/class_mc_1_1_card.html#a96269673bf1450eb70fed03d91648e9f" target="_top" xlink:title=" ">
<polygon fill="white" stroke="black" points="161,-418.5 161,-437.5 279,-437.5 279,-418.5 161,-418.5"/>
<text text-anchor="middle" x="220" y="-425.5" font-family="Helvetica,sans-Serif" font-size="10.00">Mc::Card::GetLastError</text>
</a>
</g>
</g>
<!-- Node1&#45;&gt;Node17 -->
<g id="edge18" class="edge"><title>Node1&#45;&gt;Node17</title>
<path fill="none" stroke="midnightblue" d="M112.298,-428C124.666,-428 137.925,-428 150.748,-428"/>
<polygon fill="midnightblue" stroke="midnightblue" points="150.912,-431.5 160.912,-428 150.912,-424.5 150.912,-431.5"/>
</g>
<!-- Node18 -->
<g id="node18" class="node"><title>Node18</title>
<g id="a_node18"><a xlink:href="../../d1/d54/namespace_script.html#ab27ea984c3280ff79948e7e660d9f6bf" target="_top" xlink:title=" ">
<polygon fill="white" stroke="black" points="352.5,-768.5 352.5,-787.5 441.5,-787.5 441.5,-768.5 352.5,-768.5"/>
<text text-anchor="middle" x="397" y="-775.5" font-family="Helvetica,sans-Serif" font-size="10.00">Script::GetString</text>
</a>
</g>
</g>
<!-- Node1&#45;&gt;Node18 -->
<g id="edge19" class="edge"><title>Node1&#45;&gt;Node18</title>
<path fill="none" stroke="midnightblue" d="M56.4063,-443.276C55.3556,-493.503 59.304,-654.837 148,-734 201.132,-781.421 287.034,-786.313 342.506,-783.596"/>
<polygon fill="midnightblue" stroke="midnightblue" points="342.718,-787.09 352.495,-783.009 342.307,-780.102 342.718,-787.09"/>
</g>
<!-- Node19 -->
<g id="node19" class="node"><title>Node19</title>
<g id="a_node19"><a xlink:href="../../d2/dcc/class_mc_1_1_card.html#accf0c51b0f317ccf382bed487882adaf" target="_top" xlink:title=" ">
<polygon fill="white" stroke="black" points="157.5,-380.5 157.5,-399.5 282.5,-399.5 282.5,-380.5 157.5,-380.5"/>
<text text-anchor="middle" x="220" y="-387.5" font-family="Helvetica,sans-Serif" font-size="10.00">Mc::Card::MakeDirectory</text>
</a>
</g>
</g>
<!-- Node1&#45;&gt;Node19 -->
<g id="edge23" class="edge"><title>Node1&#45;&gt;Node19</title>
<path fill="none" stroke="midnightblue" d="M112.298,-415.029C130.381,-410.787 150.37,-406.098 168.112,-401.937"/>
<polygon fill="midnightblue" stroke="midnightblue" points="169.331,-405.246 178.268,-399.555 167.733,-398.431 169.331,-405.246"/>
</g>
<!-- Node20 -->
<g id="node20" class="node"><title>Node20</title>
<g id="a_node20"><a xlink:href="../../db/dc4/namespace_mem.html#a10246603d03405159c82320b96e3efbf" target="_top" xlink:title=" ">
<polygon fill="white" stroke="black" points="183.5,-342.5 183.5,-361.5 256.5,-361.5 256.5,-342.5 183.5,-342.5"/>
<text text-anchor="middle" x="220" y="-349.5" font-family="Helvetica,sans-Serif" font-size="10.00">Mem::Malloc</text>
</a>
</g>
</g>
<!-- Node1&#45;&gt;Node20 -->
<g id="edge24" class="edge"><title>Node1&#45;&gt;Node20</title>
<path fill="none" stroke="midnightblue" d="M77.3422,-412.769C95.1671,-400.047 122.19,-382.234 148,-371 155.989,-367.523 164.767,-364.549 173.345,-362.057"/>
<polygon fill="midnightblue" stroke="midnightblue" points="174.537,-365.36 183.264,-359.352 172.696,-358.606 174.537,-365.36"/>
</g>
<!-- Node21 -->
<g id="node21" class="node"><title>Node21</title>
<g id="a_node21"><a xlink:href="../../d2/dcc/class_mc_1_1_card.html#a5dc9bb5a57b2a84b9b9593649cce2291" target="_top" xlink:title=" ">
<polygon fill="white" stroke="black" points="177,-304.5 177,-323.5 263,-323.5 263,-304.5 177,-304.5"/>
<text text-anchor="middle" x="220" y="-311.5" font-family="Helvetica,sans-Serif" font-size="10.00">Mc::Card::Open</text>
</a>
</g>
</g>
<!-- Node1&#45;&gt;Node21 -->
<g id="edge25" class="edge"><title>Node1&#45;&gt;Node21</title>
<path fill="none" stroke="midnightblue" d="M67.4511,-412.681C82.6834,-391.542 113.01,-353.698 148,-333 153.903,-329.508 160.457,-326.645 167.129,-324.3"/>
<polygon fill="midnightblue" stroke="midnightblue" points="168.434,-327.559 176.925,-321.224 166.336,-320.881 168.434,-327.559"/>
</g>
<!-- Node22 -->
<g id="node22" class="node"><title>Node22</title>
<g id="a_node22"><a xlink:href="../../de/d10/namespace_file.html#a180384dc852ac3b971285fc63b1287cb" target="_top" xlink:title=" ">
<polygon fill="white" stroke="black" points="189,-266.5 189,-285.5 251,-285.5 251,-266.5 189,-266.5"/>
<text text-anchor="middle" x="220" y="-273.5" font-family="Helvetica,sans-Serif" font-size="10.00">File::Open</text>
</a>
</g>
</g>
<!-- Node1&#45;&gt;Node22 -->
<g id="edge26" class="edge"><title>Node1&#45;&gt;Node22</title>
<path fill="none" stroke="midnightblue" d="M63.1859,-412.604C75.1976,-384.716 104.388,-325.88 148,-295 156.997,-288.63 168.007,-284.395 178.647,-281.581"/>
<polygon fill="midnightblue" stroke="midnightblue" points="179.688,-284.933 188.657,-279.293 178.129,-278.109 179.688,-284.933"/>
</g>
<!-- Node23 -->
<g id="node23" class="node"><title>Node23</title>
<g id="a_node23"><a xlink:href="../../d2/d0a/class_mem_1_1_manager.html#a7c4cba14870f002aee0243e16114f443" target="_top" xlink:title=" ">
<polygon fill="white" stroke="black" points="150.5,-228.5 150.5,-247.5 289.5,-247.5 289.5,-228.5 150.5,-228.5"/>
<text text-anchor="middle" x="220" y="-235.5" font-family="Helvetica,sans-Serif" font-size="10.00">Mem::Manager::PopContext</text>
</a>
</g>
</g>
<!-- Node1&#45;&gt;Node23 -->
<g id="edge27" class="edge"><title>Node1&#45;&gt;Node23</title>
<path fill="none" stroke="midnightblue" d="M60.6665,-412.789C69.5527,-379.276 95.4801,-298.747 148,-257 150.294,-255.176 152.748,-253.527 155.315,-252.035"/>
<polygon fill="midnightblue" stroke="midnightblue" points="156.99,-255.112 164.408,-247.547 153.892,-248.835 156.99,-255.112"/>
</g>
<!-- Node24 -->
<g id="node24" class="node"><title>Node24</title>
<g id="a_node24"><a xlink:href="../../d2/d0a/class_mem_1_1_manager.html#aaf8e36abc36eecabe46bf2582035192a" target="_top" xlink:title=" ">
<polygon fill="white" stroke="black" points="148,-190.5 148,-209.5 292,-209.5 292,-190.5 148,-190.5"/>
<text text-anchor="middle" x="220" y="-197.5" font-family="Helvetica,sans-Serif" font-size="10.00">Mem::Manager::PushContext</text>
</a>
</g>
</g>
<!-- Node1&#45;&gt;Node24 -->
<g id="edge28" class="edge"><title>Node1&#45;&gt;Node24</title>
<path fill="none" stroke="midnightblue" d="M59.0755,-412.723C65.1495,-374.112 86.5181,-271.932 148,-219 149.946,-217.325 152.025,-215.795 154.204,-214.399"/>
<polygon fill="midnightblue" stroke="midnightblue" points="155.885,-217.469 163.033,-209.649 152.568,-211.304 155.885,-217.469"/>
</g>
<!-- Node25 -->
<g id="node25" class="node"><title>Node25</title>
<g id="a_node25"><a xlink:href="../../de/d10/namespace_file.html#ae5e5ed0fd4834fc2e0e1c29edc62fc02" target="_top" xlink:title=" ">
<polygon fill="white" stroke="black" points="189.5,-152.5 189.5,-171.5 250.5,-171.5 250.5,-152.5 189.5,-152.5"/>
<text text-anchor="middle" x="220" y="-159.5" font-family="Helvetica,sans-Serif" font-size="10.00">File::Read</text>
</a>
</g>
</g>
<!-- Node1&#45;&gt;Node25 -->
<g id="edge29" class="edge"><title>Node1&#45;&gt;Node25</title>
<path fill="none" stroke="midnightblue" d="M57.9161,-412.9C61.3633,-369.862 77.2754,-245.532 148,-181 156.588,-173.164 168.056,-168.499 179.267,-165.741"/>
<polygon fill="midnightblue" stroke="midnightblue" points="180.284,-169.106 189.399,-163.707 178.906,-162.243 180.284,-169.106"/>
</g>
<!-- Node26 -->
<g id="node26" class="node"><title>Node26</title>
<g id="a_node26"><a xlink:href="../../db/d54/namespace_c_funcs.html#ad7791d0c6ef2fd5b52488487910218e2" target="_top" xlink:title=" ">
<polygon fill="white" stroke="black" points="159.5,-114.5 159.5,-133.5 280.5,-133.5 280.5,-114.5 159.5,-114.5"/>
<text text-anchor="middle" x="220" y="-121.5" font-family="Helvetica,sans-Serif" font-size="10.00">CFuncs::s_ascii_to_sjis</text>
</a>
</g>
</g>
<!-- Node1&#45;&gt;Node26 -->
<g id="edge30" class="edge"><title>Node1&#45;&gt;Node26</title>
<path fill="none" stroke="midnightblue" d="M57.0703,-412.707C58.1515,-365.258 68.1198,-219.167 148,-143 149.651,-141.426 151.417,-139.979 153.275,-138.649"/>
<polygon fill="midnightblue" stroke="midnightblue" points="155.1,-141.636 161.931,-133.538 151.541,-135.609 155.1,-141.636"/>
</g>
<!-- Node29 -->
<g id="node29" class="node"><title>Node29</title>
<g id="a_node29"><a xlink:href="../../db/d54/namespace_c_funcs.html#ad2eeb7f476b6220d7de2d992d05f2d54" target="_top" xlink:title=" ">
<polygon fill="white" stroke="black" points="163.5,-609 163.5,-639 276.5,-639 276.5,-609 163.5,-609"/>
<text text-anchor="start" x="171.5" y="-627" font-family="Helvetica,sans-Serif" font-size="10.00">CFuncs::s_generate</text>
<text text-anchor="middle" x="220" y="-616" font-family="Helvetica,sans-Serif" font-size="10.00">_card_directory_name</text>
</a>
</g>
</g>
<!-- Node1&#45;&gt;Node29 -->
<g id="edge33" class="edge"><title>Node1&#45;&gt;Node29</title>
<path fill="none" stroke="midnightblue" d="M60.978,-443.168C70.4147,-476.242 97.255,-555.37 148,-599 149.994,-600.715 152.114,-602.314 154.326,-603.806"/>
<polygon fill="midnightblue" stroke="midnightblue" points="152.859,-607.003 163.255,-609.043 156.4,-600.965 152.859,-607.003"/>
</g>
<!-- Node34 -->
<g id="node34" class="node"><title>Node34</title>
<g id="a_node34"><a xlink:href="../../d2/d0a/class_mem_1_1_manager.html#a3aefd91781b7f41d35e6df6a32d379d0" target="_top" xlink:title=" ">
<polygon fill="white" stroke="black" points="158.5,-76.5 158.5,-95.5 281.5,-95.5 281.5,-76.5 158.5,-76.5"/>
<text text-anchor="middle" x="220" y="-83.5" font-family="Helvetica,sans-Serif" font-size="10.00">Mem::Manager::sHandle</text>
</a>
</g>
</g>
<!-- Node1&#45;&gt;Node34 -->
<g id="edge39" class="edge"><title>Node1&#45;&gt;Node34</title>
<path fill="none" stroke="midnightblue" d="M56.4027,-412.927C55.242,-361.789 58.6422,-193.192 148,-105 149.464,-103.555 151.026,-102.216 152.667,-100.976"/>
<polygon fill="midnightblue" stroke="midnightblue" points="154.769,-103.792 161.447,-95.5674 151.097,-97.8326 154.769,-103.792"/>
</g>
<!-- Node35 -->
<g id="node35" class="node"><title>Node35</title>
<g id="a_node35"><a xlink:href="../../de/d10/namespace_file.html#a8e901686535d27c6ee4c53bbdf327414" target="_top" xlink:title=" ">
<polygon fill="white" stroke="black" points="168.5,-38.5 168.5,-57.5 271.5,-57.5 271.5,-38.5 168.5,-38.5"/>
<text text-anchor="middle" x="220" y="-45.5" font-family="Helvetica,sans-Serif" font-size="10.00">File::StopStreaming</text>
</a>
</g>
</g>
<!-- Node1&#45;&gt;Node35 -->
<g id="edge41" class="edge"><title>Node1&#45;&gt;Node35</title>
<path fill="none" stroke="midnightblue" d="M58.775,-412.876C66.3315,-350.997 97.7531,-117.983 148,-67 151.262,-63.6899 155.033,-60.9371 159.103,-58.65"/>
<polygon fill="midnightblue" stroke="midnightblue" points="160.796,-61.7234 168.405,-54.3516 157.859,-55.369 160.796,-61.7234"/>
</g>
<!-- Node36 -->
<g id="node36" class="node"><title>Node36</title>
<g id="a_node36"><a xlink:href="../../da/d22/class_mc_1_1_file.html#a0a704b0419ee92f385ca30906ff9e1f2" target="_top" xlink:title=" ">
<polygon fill="white" stroke="black" points="179.5,-0.5 179.5,-19.5 260.5,-19.5 260.5,-0.5 179.5,-0.5"/>
<text text-anchor="middle" x="220" y="-7.5" font-family="Helvetica,sans-Serif" font-size="10.00">Mc::File::Write</text>
</a>
</g>
</g>
<!-- Node1&#45;&gt;Node36 -->
<g id="edge42" class="edge"><title>Node1&#45;&gt;Node36</title>
<path fill="none" stroke="midnightblue" d="M58.4065,-412.663C64.7783,-346.471 93.0356,-86.0506 148,-29 153.918,-22.8576 161.586,-18.6275 169.687,-15.7298"/>
<polygon fill="midnightblue" stroke="midnightblue" points="170.705,-19.0785 179.316,-12.9055 168.735,-12.3614 170.705,-19.0785"/>
</g>
<!-- Node5 -->
<g id="node5" class="node"><title>Node5</title>
<g id="a_node5"><a xlink:href="../../d1/d54/namespace_script.html#a5cc52c4ff5ea5bb27681d819212dfdca" target="_top" xlink:title=" ">
<polygon fill="white" stroke="black" points="830,-787.5 830,-806.5 993,-806.5 993,-787.5 830,-787.5"/>
<text text-anchor="middle" x="911.5" y="-794.5" font-family="Helvetica,sans-Serif" font-size="10.00">Script::FindChecksumNameNULL</text>
</a>
</g>
</g>
<!-- Node4&#45;&gt;Node5 -->
<g id="edge4" class="edge"><title>Node4&#45;&gt;Node5</title>
<path fill="none" stroke="midnightblue" d="M790.586,-797C800.04,-797 809.866,-797 819.644,-797"/>
<polygon fill="midnightblue" stroke="midnightblue" points="819.798,-800.5 829.797,-797 819.797,-793.5 819.798,-800.5"/>
</g>
<!-- Node4&#45;&gt;Node7 -->
<g id="edge6" class="edge"><title>Node4&#45;&gt;Node7</title>
<path fill="none" stroke="midnightblue" d="M771.747,-787.498C779.464,-785.009 787.142,-781.893 794,-778 838.249,-752.883 877.81,-706.812 897.441,-681.612"/>
<polygon fill="midnightblue" stroke="midnightblue" points="900.243,-683.709 903.528,-673.637 894.678,-679.462 900.243,-683.709"/>
</g>
<!-- Node6 -->
<g id="node6" class="node"><title>Node6</title>
<g id="a_node6"><a xlink:href="../../d0/d31/namespace_config.html#a709cc81780d49900157e3476b63aa25d" target="_top" xlink:title=" ">
<polygon fill="white" stroke="black" points="1029,-787.5 1029,-806.5 1153,-806.5 1153,-787.5 1029,-787.5"/>
<text text-anchor="middle" x="1091" y="-794.5" font-family="Helvetica,sans-Serif" font-size="10.00">Config::GotExtraMemory</text>
</a>
</g>
</g>
<!-- Node5&#45;&gt;Node6 -->
<g id="edge5" class="edge"><title>Node5&#45;&gt;Node6</title>
<path fill="none" stroke="midnightblue" d="M993.2,-797C1001.73,-797 1010.36,-797 1018.77,-797"/>
<polygon fill="midnightblue" stroke="midnightblue" points="1018.9,-800.5 1028.9,-797 1018.9,-793.5 1018.9,-800.5"/>
</g>
<!-- Node13 -->
<g id="node13" class="node"><title>Node13</title>
<g id="a_node13"><a xlink:href="../../d1/d54/namespace_script.html#aa0c62774649e1e3abcab019ea335a3ad" target="_top" xlink:title=" ">
<polygon fill="white" stroke="black" points="350.5,-722.5 350.5,-741.5 443.5,-741.5 443.5,-722.5 350.5,-722.5"/>
<text text-anchor="middle" x="397" y="-729.5" font-family="Helvetica,sans-Serif" font-size="10.00">Script::GetInteger</text>
</a>
</g>
</g>
<!-- Node12&#45;&gt;Node13 -->
<g id="edge12" class="edge"><title>Node12&#45;&gt;Node13</title>
<path fill="none" stroke="midnightblue" d="M257.26,-718.522C281.229,-720.851 313.118,-723.949 340.279,-726.587"/>
<polygon fill="midnightblue" stroke="midnightblue" points="340.14,-730.09 350.431,-727.573 340.817,-723.123 340.14,-730.09"/>
</g>
<!-- Node13&#45;&gt;Node4 -->
<g id="edge13" class="edge"><title>Node13&#45;&gt;Node4</title>
<path fill="none" stroke="midnightblue" d="M423.658,-722.49C465.89,-708.541 551.4,-687.599 612,-721 638.241,-735.463 623.838,-760.281 648,-778 650.658,-779.949 653.502,-781.699 656.466,-783.269"/>
<polygon fill="midnightblue" stroke="midnightblue" points="655.111,-786.498 665.662,-787.462 658.016,-780.129 655.111,-786.498"/>
</g>
<!-- Node14 -->
<g id="node14" class="node"><title>Node14</title>
<g id="a_node14"><a xlink:href="../../d1/d54/namespace_script.html#af32f99ba26ca0f255240413a4e23a754" target="_top" xlink:title=" ">
<polygon fill="white" stroke="black" points="502,-730.5 502,-749.5 612,-749.5 612,-730.5 502,-730.5"/>
<text text-anchor="middle" x="557" y="-737.5" font-family="Helvetica,sans-Serif" font-size="10.00">Script::GetTypeName</text>
</a>
</g>
</g>
<!-- Node13&#45;&gt;Node14 -->
<g id="edge14" class="edge"><title>Node13&#45;&gt;Node14</title>
<path fill="none" stroke="midnightblue" d="M443.7,-734.314C458.578,-735.067 475.384,-735.918 491.377,-736.728"/>
<polygon fill="midnightblue" stroke="midnightblue" points="491.577,-740.242 501.741,-737.253 491.931,-733.251 491.577,-740.242"/>
</g>
<!-- Node15 -->
<g id="node15" class="node"><title>Node15</title>
<g id="a_node15"><a xlink:href="../../d1/d54/namespace_script.html#a43181580ea5d38e4bf1aa19ccd5e9e85" target="_top" xlink:title=" ">
<polygon fill="white" stroke="black" points="516,-768.5 516,-787.5 598,-787.5 598,-768.5 516,-768.5"/>
<text text-anchor="middle" x="557" y="-775.5" font-family="Helvetica,sans-Serif" font-size="10.00">Script::Resolve</text>
</a>
</g>
</g>
<!-- Node13&#45;&gt;Node15 -->
<g id="edge15" class="edge"><title>Node13&#45;&gt;Node15</title>
<path fill="none" stroke="midnightblue" d="M430.738,-741.531C454.783,-748.532 487.656,-758.102 513.693,-765.683"/>
<polygon fill="midnightblue" stroke="midnightblue" points="512.724,-769.046 523.304,-768.481 514.681,-762.325 512.724,-769.046"/>
</g>
<!-- Node15&#45;&gt;Node4 -->
<g id="edge16" class="edge"><title>Node15&#45;&gt;Node4</title>
<path fill="none" stroke="midnightblue" d="M598.045,-782.697C611.139,-784.232 626.171,-785.995 641.107,-787.747"/>
<polygon fill="midnightblue" stroke="midnightblue" points="641.068,-791.266 651.407,-788.955 641.883,-784.314 641.068,-791.266"/>
</g>
<!-- Node16 -->
<g id="node16" class="node"><title>Node16</title>
<g id="a_node16"><a xlink:href="../../d1/d54/namespace_script.html#af293a36c230b10de7d8151c2990b233b" target="_top" xlink:title=" ">
<polygon fill="white" stroke="black" points="664,-749.5 664,-768.5 778,-768.5 778,-749.5 664,-749.5"/>
<text text-anchor="middle" x="721" y="-756.5" font-family="Helvetica,sans-Serif" font-size="10.00">Script::LookUpSymbol</text>
</a>
</g>
</g>
<!-- Node15&#45;&gt;Node16 -->
<g id="edge17" class="edge"><title>Node15&#45;&gt;Node16</title>
<path fill="none" stroke="midnightblue" d="M598.045,-773.303C614.883,-771.329 634.924,-768.978 653.847,-766.759"/>
<polygon fill="midnightblue" stroke="midnightblue" points="654.391,-770.219 663.916,-765.578 653.576,-763.267 654.391,-770.219"/>
</g>
<!-- Node18&#45;&gt;Node4 -->
<g id="edge20" class="edge"><title>Node18&#45;&gt;Node4</title>
<path fill="none" stroke="midnightblue" d="M440.266,-787.511C459.062,-791.277 481.527,-795.145 502,-797 547.965,-801.164 599.605,-801.361 641.084,-800.426"/>
<polygon fill="midnightblue" stroke="midnightblue" points="641.219,-803.923 651.128,-800.173 641.043,-796.926 641.219,-803.923"/>
</g>
<!-- Node18&#45;&gt;Node14 -->
<g id="edge21" class="edge"><title>Node18&#45;&gt;Node14</title>
<path fill="none" stroke="midnightblue" d="M437.87,-768.411C458.72,-763.396 484.435,-757.212 506.543,-751.895"/>
<polygon fill="midnightblue" stroke="midnightblue" points="507.512,-755.261 516.417,-749.52 505.875,-748.456 507.512,-755.261"/>
</g>
<!-- Node18&#45;&gt;Node15 -->
<g id="edge22" class="edge"><title>Node18&#45;&gt;Node15</title>
<path fill="none" stroke="midnightblue" d="M441.592,-778C461.44,-778 485.047,-778 505.648,-778"/>
<polygon fill="midnightblue" stroke="midnightblue" points="505.799,-781.5 515.799,-778 505.799,-774.5 505.799,-781.5"/>
</g>
<!-- Node27 -->
<g id="node27" class="node"><title>Node27</title>
<g id="a_node27"><a xlink:href="../../d0/d31/namespace_config.html#ab8dae67d4b0090498fb0dcdaf6ad7156" target="_top" xlink:title=" ">
<polygon fill="white" stroke="black" points="363,-95.5 363,-114.5 431,-114.5 431,-95.5 363,-95.5"/>
<text text-anchor="middle" x="397" y="-102.5" font-family="Helvetica,sans-Serif" font-size="10.00">Config::PAL</text>
</a>
</g>
</g>
<!-- Node26&#45;&gt;Node27 -->
<g id="edge31" class="edge"><title>Node26&#45;&gt;Node27</title>
<path fill="none" stroke="midnightblue" d="M280.736,-117.514C304.306,-114.955 330.875,-112.071 352.559,-109.716"/>
<polygon fill="midnightblue" stroke="midnightblue" points="353.214,-113.166 362.777,-108.607 352.458,-106.207 353.214,-113.166"/>
</g>
<!-- Node28 -->
<g id="node28" class="node"><title>Node28</title>
<g id="a_node28"><a xlink:href="../../df/d92/standard_8cpp.html#a5fc8fd1788f18ada61dfda9f171c5a1a" target="_top" xlink:title=" ">
<polygon fill="white" stroke="black" points="378,-133.5 378,-152.5 416,-152.5 416,-133.5 378,-133.5"/>
<text text-anchor="middle" x="397" y="-140.5" font-family="Helvetica,sans-Serif" font-size="10.00">printf</text>
</a>
</g>
</g>
<!-- Node26&#45;&gt;Node28 -->
<g id="edge32" class="edge"><title>Node26&#45;&gt;Node28</title>
<path fill="none" stroke="midnightblue" d="M280.736,-130.486C310.273,-133.693 344.52,-137.411 367.961,-139.956"/>
<polygon fill="midnightblue" stroke="midnightblue" points="367.596,-143.437 377.916,-141.037 368.352,-136.478 367.596,-143.437"/>
</g>
<!-- Node29&#45;&gt;Node7 -->
<g id="edge38" class="edge"><title>Node29&#45;&gt;Node7</title>
<path fill="none" stroke="midnightblue" d="M276.804,-625.157C379.369,-627.588 604.694,-634.352 794,-650 818.712,-652.043 846.262,-655.308 868.365,-658.171"/>
<polygon fill="midnightblue" stroke="midnightblue" points="868.052,-661.66 878.423,-659.495 868.966,-654.72 868.052,-661.66"/>
</g>
<!-- Node30 -->
<g id="node30" class="node"><title>Node30</title>
<g id="a_node30"><a xlink:href="../../d0/d31/namespace_config.html#ab71b787ec77483869335a749d91e6bd8" target="_top" xlink:title=" ">
<polygon fill="white" stroke="black" points="328,-578.5 328,-597.5 466,-597.5 466,-578.5 328,-578.5"/>
<text text-anchor="middle" x="397" y="-585.5" font-family="Helvetica,sans-Serif" font-size="10.00">Config::GetMemCardHeader</text>
</a>
</g>
</g>
<!-- Node29&#45;&gt;Node30 -->
<g id="edge34" class="edge"><title>Node29&#45;&gt;Node30</title>
<path fill="none" stroke="midnightblue" d="M276.852,-612.51C296.962,-608.374 319.648,-603.707 339.788,-599.564"/>
<polygon fill="midnightblue" stroke="midnightblue" points="340.664,-602.957 349.753,-597.514 339.253,-596.1 340.664,-602.957"/>
</g>
<!-- Node31 -->
<g id="node31" class="node"><title>Node31</title>
<g id="a_node31"><a xlink:href="../../db/d54/namespace_c_funcs.html#a1a5e2009c227f01716eb2cf0197a256b" target="_top" xlink:title=" ">
<polygon fill="white" stroke="black" points="345,-529 345,-559 449,-559 449,-529 345,-529"/>
<text text-anchor="start" x="353" y="-547" font-family="Helvetica,sans-Serif" font-size="10.00">CFuncs::s_generate</text>
<text text-anchor="middle" x="397" y="-536" font-family="Helvetica,sans-Serif" font-size="10.00">_ascii_checksum</text>
</a>
</g>
</g>
<!-- Node29&#45;&gt;Node31 -->
<g id="edge35" class="edge"><title>Node29&#45;&gt;Node31</title>
<path fill="none" stroke="midnightblue" d="M270.891,-608.987C278.161,-606.075 285.41,-602.744 292,-599 310.109,-588.712 309.962,-579.412 328,-569 331.615,-566.913 335.436,-564.947 339.348,-563.106"/>
<polygon fill="midnightblue" stroke="midnightblue" points="340.847,-566.27 348.589,-559.037 338.026,-559.864 340.847,-566.27"/>
</g>
<!-- Node32 -->
<g id="node32" class="node"><title>Node32</title>
<g id="a_node32"><a xlink:href="../../d1/d54/namespace_script.html#aa331360f088c15972ac441ecb8b40cd9" target="_top" xlink:title=" ">
<polygon fill="white" stroke="black" points="503,-534.5 503,-553.5 611,-553.5 611,-534.5 503,-534.5"/>
<text text-anchor="middle" x="557" y="-541.5" font-family="Helvetica,sans-Serif" font-size="10.00">Script::GenerateCRC</text>
</a>
</g>
</g>
<!-- Node31&#45;&gt;Node32 -->
<g id="edge36" class="edge"><title>Node31&#45;&gt;Node32</title>
<path fill="none" stroke="midnightblue" d="M449.298,-544C463.075,-544 478.138,-544 492.491,-544"/>
<polygon fill="midnightblue" stroke="midnightblue" points="492.789,-547.5 502.789,-544 492.789,-540.5 492.789,-547.5"/>
</g>
<!-- Node33 -->
<g id="node33" class="node"><title>Node33</title>
<g id="a_node33"><a xlink:href="../../d3/d9b/namespace_crc.html#aed1b5ad21f682b39b09782ec29f5c5cc" target="_top" xlink:title=" ">
<polygon fill="white" stroke="black" points="648,-534.5 648,-553.5 794,-553.5 794,-534.5 648,-534.5"/>
<text text-anchor="middle" x="721" y="-541.5" font-family="Helvetica,sans-Serif" font-size="10.00">Crc::GenerateCRCFromString</text>
</a>
</g>
</g>
<!-- Node32&#45;&gt;Node33 -->
<g id="edge37" class="edge"><title>Node32&#45;&gt;Node33</title>
<path fill="none" stroke="midnightblue" d="M611.045,-544C619.56,-544 628.544,-544 637.553,-544"/>
<polygon fill="midnightblue" stroke="midnightblue" points="637.71,-547.5 647.71,-544 637.71,-540.5 637.71,-547.5"/>
</g>
</g>
</svg>
