<?xml version="1.0" encoding="UTF-8" standalone="no"?>
<!DOCTYPE svg PUBLIC "-//W3C//DTD SVG 1.1//EN"
 "http://www.w3.org/Graphics/SVG/1.1/DTD/svg11.dtd">
<!-- Generated by graphviz version 2.38.0 (20140413.2041)
 -->
<!-- Title: Obj::CGapChecklist::got_gap Pages: 1 -->
<!--zoomable 624 -->
<svg id="main" version="1.1" xmlns="http://www.w3.org/2000/svg" xmlns:xlink="http://www.w3.org/1999/xlink" xml:space="preserve" onload="init(evt)">
<style type="text/css"><![CDATA[
.edge:hover path { stroke: red; }
.edge:hover polygon { stroke: red; fill: red; }
]]></style>
<script type="text/javascript"><![CDATA[
var edges = document.getElementsByTagName('g');
if (edges && edges.length) {
  for (var i=0;i<edges.length;i++) {
    if (edges[i].id.substr(0,4)=='edge') {
      edges[i].setAttribute('class','edge');
    }
  }
}
]]></script>
        <defs>
                <circle id="rim" cx="0" cy="0" r="7"/>
                <circle id="rim2" cx="0" cy="0" r="3.5"/>
                <g id="zoomPlus">
                        <use xlink:href="#rim" fill="#404040">
                                <set attributeName="fill" to="#808080" begin="zoomplus.mouseover" end="zoomplus.mouseout"/>
                        </use>
                        <path d="M-4,0h8M0,-4v8" fill="none" stroke="white" stroke-width="1.5" pointer-events="none"/>
                </g>
                <g id="zoomMin">
                        <use xlink:href="#rim" fill="#404040">
                                <set attributeName="fill" to="#808080" begin="zoomminus.mouseover" end="zoomminus.mouseout"/>
                        </use>
                        <path d="M-4,0h8" fill="none" stroke="white" stroke-width="1.5" pointer-events="none"/>
                </g>
                <g id="dirArrow">
                        <path fill="none" stroke="white" stroke-width="1.5" d="M0,-3.0v7 M-2.5,-0.5L0,-3.0L2.5,-0.5"/>
                </g>
               <g id="resetDef">
                       <use xlink:href="#rim2" fill="#404040">
                               <set attributeName="fill" to="#808080" begin="reset.mouseover" end="reset.mouseout"/>
                       </use>
               </g>
        </defs>

<script type="text/javascript">
var viewWidth = 1297;
var viewHeight = 624;
var sectionId = 'dynsection-22';
</script>
<script xlink:href="../../svgpan.js"/>
<svg id="graph" class="graph">
<g id="viewport">
<title>Obj::CGapChecklist::got_gap</title>
<polygon fill="white" stroke="none" points="-4,4 -4,-620.066 1293,-620.066 1293,4 -4,4"/>
<!-- Node1 -->
<g id="node1" class="node"><title>Node1</title>
<g id="a_node1"><a xlink:title=" ">
<polygon fill="#bfbfbf" stroke="black" points="0,-135.066 0,-165.066 103,-165.066 103,-135.066 0,-135.066"/>
<text text-anchor="start" x="8" y="-153.066" font-family="Helvetica,sans-Serif" font-size="10.00">Obj::CGapChecklist</text>
<text text-anchor="middle" x="51.5" y="-142.066" font-family="Helvetica,sans-Serif" font-size="10.00">::got_gap</text>
</a>
</g>
</g>
<!-- Node2 -->
<g id="node2" class="node"><title>Node2</title>
<g id="a_node2"><a xlink:href="../../da/d03/class_obj_1_1_c_gap_checklist.html#abc652c2aed441b33bb965de9efb97993" target="_top" xlink:title=" ">
<polygon fill="white" stroke="black" points="148.5,-382.066 148.5,-412.066 251.5,-412.066 251.5,-382.066 148.5,-382.066"/>
<text text-anchor="start" x="156.5" y="-400.066" font-family="Helvetica,sans-Serif" font-size="10.00">Obj::CGapChecklist</text>
<text text-anchor="middle" x="200" y="-389.066" font-family="Helvetica,sans-Serif" font-size="10.00">::AddGapCheck</text>
</a>
</g>
</g>
<!-- Node1&#45;&gt;Node2 -->
<g id="edge1" class="edge"><title>Node1&#45;&gt;Node2</title>
<path fill="none" stroke="midnightblue" d="M61.4437,-165.145C86.0653,-206.657 154.993,-322.87 184.88,-373.26"/>
<polygon fill="midnightblue" stroke="midnightblue" points="181.875,-375.055 189.987,-381.87 187.896,-371.484 181.875,-375.055"/>
</g>
<!-- Node15 -->
<g id="node15" class="node"><title>Node15</title>
<g id="a_node15"><a xlink:href="../../d2/df7/class_script_1_1_c_struct.html#a1e85eee5e600de8358db26f6c777e42d" target="_top" xlink:title=" ">
<polygon fill="white" stroke="black" points="303,-178.566 303,-197.566 435,-197.566 435,-178.566 303,-178.566"/>
<text text-anchor="middle" x="369" y="-185.566" font-family="Helvetica,sans-Serif" font-size="10.00">Script::CStruct::GetInteger</text>
</a>
</g>
</g>
<!-- Node1&#45;&gt;Node15 -->
<g id="edge14" class="edge"><title>Node1&#45;&gt;Node15</title>
<path fill="none" stroke="midnightblue" d="M103.06,-162.357C114.803,-164.881 127.293,-167.302 139,-169.066 189.871,-176.728 247.599,-181.492 292.367,-184.333"/>
<polygon fill="midnightblue" stroke="midnightblue" points="292.388,-187.841 302.584,-184.963 292.818,-180.854 292.388,-187.841"/>
</g>
<!-- Node25 -->
<g id="node25" class="node"><title>Node25</title>
<g id="a_node25"><a xlink:href="../../d1/d54/namespace_script.html#aa0c62774649e1e3abcab019ea335a3ad" target="_top" xlink:title=" ">
<polygon fill="white" stroke="black" points="496.5,-36.5656 496.5,-55.5656 589.5,-55.5656 589.5,-36.5656 496.5,-36.5656"/>
<text text-anchor="middle" x="543" y="-43.5656" font-family="Helvetica,sans-Serif" font-size="10.00">Script::GetInteger</text>
</a>
</g>
</g>
<!-- Node1&#45;&gt;Node25 -->
<g id="edge27" class="edge"><title>Node1&#45;&gt;Node25</title>
<path fill="none" stroke="midnightblue" d="M103.255,-138.843C114.989,-136.269 127.426,-133.557 139,-131.066 262.931,-104.386 408.491,-73.8926 486.283,-57.6639"/>
<polygon fill="midnightblue" stroke="midnightblue" points="487.269,-61.0338 496.344,-55.5659 485.84,-54.1812 487.269,-61.0338"/>
</g>
<!-- Node26 -->
<g id="node26" class="node"><title>Node26</title>
<g id="a_node26"><a xlink:href="../../d2/df7/class_script_1_1_c_struct.html#a5d9860e75457556161201e9cf3e9732d" target="_top" xlink:title=" ">
<polygon fill="white" stroke="black" points="139,-140.566 139,-159.566 261,-159.566 261,-140.566 139,-140.566"/>
<text text-anchor="middle" x="200" y="-147.566" font-family="Helvetica,sans-Serif" font-size="10.00">Script::CStruct::GetText</text>
</a>
</g>
</g>
<!-- Node1&#45;&gt;Node26 -->
<g id="edge31" class="edge"><title>Node1&#45;&gt;Node26</title>
<path fill="none" stroke="midnightblue" d="M103.327,-150.066C111.584,-150.066 120.261,-150.066 128.88,-150.066"/>
<polygon fill="midnightblue" stroke="midnightblue" points="128.943,-153.566 138.943,-150.066 128.943,-146.566 128.943,-153.566"/>
</g>
<!-- Node28 -->
<g id="node28" class="node"><title>Node28</title>
<g id="a_node28"><a xlink:href="../../df/d92/standard_8cpp.html#a5fc8fd1788f18ada61dfda9f171c5a1a" target="_top" xlink:title=" ">
<polygon fill="white" stroke="black" points="181,-64.5656 181,-83.5656 219,-83.5656 219,-64.5656 181,-64.5656"/>
<text text-anchor="middle" x="200" y="-71.5656" font-family="Helvetica,sans-Serif" font-size="10.00">printf</text>
</a>
</g>
</g>
<!-- Node1&#45;&gt;Node28 -->
<g id="edge36" class="edge"><title>Node1&#45;&gt;Node28</title>
<path fill="none" stroke="midnightblue" d="M75.425,-134.897C92.5381,-123.92 116.715,-109.131 139,-98.0656 149.356,-92.9232 161.098,-88.0315 171.432,-84.0221"/>
<polygon fill="midnightblue" stroke="midnightblue" points="172.704,-87.2831 180.817,-80.469 170.226,-80.7365 172.704,-87.2831"/>
</g>
<!-- Node3 -->
<g id="node3" class="node"><title>Node3</title>
<g id="a_node3"><a xlink:href="../../df/d07/namespace_str.html#a7863437472817f89edc2919f4d08857d" target="_top" xlink:title=" ">
<polygon fill="white" stroke="black" points="332,-482.566 332,-501.566 406,-501.566 406,-482.566 332,-482.566"/>
<text text-anchor="middle" x="369" y="-489.566" font-family="Helvetica,sans-Serif" font-size="10.00">Str::Compare</text>
</a>
</g>
</g>
<!-- Node2&#45;&gt;Node3 -->
<g id="edge2" class="edge"><title>Node2&#45;&gt;Node3</title>
<path fill="none" stroke="midnightblue" d="M215.92,-412.15C233.717,-429.313 265.089,-457.034 297,-473.066 304.785,-476.977 313.469,-480.154 322.017,-482.709"/>
<polygon fill="midnightblue" stroke="midnightblue" points="321.359,-486.158 331.929,-485.43 323.212,-479.407 321.359,-486.158"/>
</g>
<!-- Node4 -->
<g id="node4" class="node"><title>Node4</title>
<g id="a_node4"><a xlink:href="../../db/dd6/class_obj_1_1_c_gap_check.html#ae90e7ab1aa7d987747abe6178a11d7c7" target="_top" xlink:title=" ">
<polygon fill="white" stroke="black" points="300.5,-444.566 300.5,-463.566 437.5,-463.566 437.5,-444.566 300.5,-444.566"/>
<text text-anchor="middle" x="369" y="-451.566" font-family="Helvetica,sans-Serif" font-size="10.00">Obj::CGapCheck::GetScore</text>
</a>
</g>
</g>
<!-- Node2&#45;&gt;Node4 -->
<g id="edge3" class="edge"><title>Node2&#45;&gt;Node4</title>
<path fill="none" stroke="midnightblue" d="M236.202,-412.13C254.206,-419.544 276.577,-428.316 297,-435.066 304.161,-437.432 311.799,-439.719 319.313,-441.836"/>
<polygon fill="midnightblue" stroke="midnightblue" points="318.499,-445.242 329.069,-444.514 320.352,-438.492 318.499,-445.242"/>
</g>
<!-- Node5 -->
<g id="node5" class="node"><title>Node5</title>
<g id="a_node5"><a xlink:href="../../db/dd6/class_obj_1_1_c_gap_check.html#ac6791e8dc35b7fc8f4552755e77f38af" target="_top" xlink:title=" ">
<polygon fill="white" stroke="black" points="303.5,-406.566 303.5,-425.566 434.5,-425.566 434.5,-406.566 303.5,-406.566"/>
<text text-anchor="middle" x="369" y="-413.566" font-family="Helvetica,sans-Serif" font-size="10.00">Obj::CGapCheck::GetText</text>
</a>
</g>
</g>
<!-- Node2&#45;&gt;Node5 -->
<g id="edge4" class="edge"><title>Node2&#45;&gt;Node5</title>
<path fill="none" stroke="midnightblue" d="M251.559,-402.818C264.691,-404.312 279.119,-405.953 293.211,-407.557"/>
<polygon fill="midnightblue" stroke="midnightblue" points="293.059,-411.062 303.391,-408.715 293.85,-404.107 293.059,-411.062"/>
</g>
<!-- Node7 -->
<g id="node7" class="node"><title>Node7</title>
<g id="a_node7"><a xlink:href="../../d2/d0a/class_mem_1_1_manager.html#a7c4cba14870f002aee0243e16114f443" target="_top" xlink:title=" ">
<polygon fill="white" stroke="black" points="299.5,-368.566 299.5,-387.566 438.5,-387.566 438.5,-368.566 299.5,-368.566"/>
<text text-anchor="middle" x="369" y="-375.566" font-family="Helvetica,sans-Serif" font-size="10.00">Mem::Manager::PopContext</text>
</a>
</g>
</g>
<!-- Node2&#45;&gt;Node7 -->
<g id="edge6" class="edge"><title>Node2&#45;&gt;Node7</title>
<path fill="none" stroke="midnightblue" d="M251.559,-391.313C263.452,-389.96 276.406,-388.487 289.213,-387.029"/>
<polygon fill="midnightblue" stroke="midnightblue" points="289.888,-390.475 299.428,-385.867 289.096,-383.52 289.888,-390.475"/>
</g>
<!-- Node8 -->
<g id="node8" class="node"><title>Node8</title>
<g id="a_node8"><a xlink:href="../../d2/d0a/class_mem_1_1_manager.html#aaf8e36abc36eecabe46bf2582035192a" target="_top" xlink:title=" ">
<polygon fill="white" stroke="black" points="297,-330.566 297,-349.566 441,-349.566 441,-330.566 297,-330.566"/>
<text text-anchor="middle" x="369" y="-337.566" font-family="Helvetica,sans-Serif" font-size="10.00">Mem::Manager::PushContext</text>
</a>
</g>
</g>
<!-- Node2&#45;&gt;Node8 -->
<g id="edge7" class="edge"><title>Node2&#45;&gt;Node8</title>
<path fill="none" stroke="midnightblue" d="M236.202,-382.002C254.206,-374.587 276.577,-365.815 297,-359.066 304.161,-356.699 311.799,-354.413 319.313,-352.295"/>
<polygon fill="midnightblue" stroke="midnightblue" points="320.352,-355.64 329.069,-349.617 318.499,-348.889 320.352,-355.64"/>
</g>
<!-- Node9 -->
<g id="node9" class="node"><title>Node9</title>
<g id="a_node9"><a xlink:href="../../db/dd6/class_obj_1_1_c_gap_check.html#a34aff822d1425ee3dddc128e703a8ad0" target="_top" xlink:title=" ">
<polygon fill="white" stroke="black" points="300.5,-292.566 300.5,-311.566 437.5,-311.566 437.5,-292.566 300.5,-292.566"/>
<text text-anchor="middle" x="369" y="-299.566" font-family="Helvetica,sans-Serif" font-size="10.00">Obj::CGapCheck::SetCount</text>
</a>
</g>
</g>
<!-- Node2&#45;&gt;Node9 -->
<g id="edge8" class="edge"><title>Node2&#45;&gt;Node9</title>
<path fill="none" stroke="midnightblue" d="M215.92,-381.982C233.717,-364.818 265.089,-337.098 297,-321.066 301.655,-318.727 306.632,-316.651 311.708,-314.813"/>
<polygon fill="midnightblue" stroke="midnightblue" points="313.138,-318.027 321.536,-311.567 310.943,-311.38 313.138,-318.027"/>
</g>
<!-- Node10 -->
<g id="node10" class="node"><title>Node10</title>
<g id="a_node10"><a xlink:href="../../db/dd6/class_obj_1_1_c_gap_check.html#afb30e4b26a88601c76cb2ed43bd98efb" target="_top" xlink:title=" ">
<polygon fill="white" stroke="black" points="300.5,-254.566 300.5,-273.566 437.5,-273.566 437.5,-254.566 300.5,-254.566"/>
<text text-anchor="middle" x="369" y="-261.566" font-family="Helvetica,sans-Serif" font-size="10.00">Obj::CGapCheck::SetScore</text>
</a>
</g>
</g>
<!-- Node2&#45;&gt;Node10 -->
<g id="edge9" class="edge"><title>Node2&#45;&gt;Node10</title>
<path fill="none" stroke="midnightblue" d="M209.497,-381.947C224.11,-357.364 256.384,-308.882 297,-283.066 300.357,-280.932 303.949,-279.036 307.669,-277.352"/>
<polygon fill="midnightblue" stroke="midnightblue" points="309.125,-280.54 317.12,-273.587 306.534,-274.037 309.125,-280.54"/>
</g>
<!-- Node11 -->
<g id="node11" class="node"><title>Node11</title>
<g id="a_node11"><a xlink:href="../../db/dd6/class_obj_1_1_c_gap_check.html#a20012ae433eeb0b0293b6f29db23fe67" target="_top" xlink:title=" ">
<polygon fill="white" stroke="black" points="304,-216.566 304,-235.566 434,-235.566 434,-216.566 304,-216.566"/>
<text text-anchor="middle" x="369" y="-223.566" font-family="Helvetica,sans-Serif" font-size="10.00">Obj::CGapCheck::SetText</text>
</a>
</g>
</g>
<!-- Node2&#45;&gt;Node11 -->
<g id="edge10" class="edge"><title>Node2&#45;&gt;Node11</title>
<path fill="none" stroke="midnightblue" d="M206.229,-381.906C217.632,-351.163 247.731,-281.327 297,-245.066 299.539,-243.197 302.249,-241.512 305.073,-239.993"/>
<polygon fill="midnightblue" stroke="midnightblue" points="306.8,-243.051 314.413,-235.683 303.867,-236.695 306.8,-243.051"/>
</g>
<!-- Node12 -->
<g id="node12" class="node"><title>Node12</title>
<g id="a_node12"><a xlink:href="../../db/dd6/class_obj_1_1_c_gap_check.html#ae1916700e16caa26d5b543ac9c327ad1" target="_top" xlink:title=" ">
<polygon fill="white" stroke="black" points="302.5,-596.566 302.5,-615.566 435.5,-615.566 435.5,-596.566 302.5,-596.566"/>
<text text-anchor="middle" x="369" y="-603.566" font-family="Helvetica,sans-Serif" font-size="10.00">Obj::CGapCheck::SetValid</text>
</a>
</g>
</g>
<!-- Node2&#45;&gt;Node12 -->
<g id="edge11" class="edge"><title>Node2&#45;&gt;Node12</title>
<path fill="none" stroke="midnightblue" d="M204.215,-412.309C212.653,-448.459 238.911,-539.879 297,-587.066 299.08,-588.755 301.296,-590.295 303.613,-591.699"/>
<polygon fill="midnightblue" stroke="midnightblue" points="302.468,-595.044 312.967,-596.467 305.647,-588.808 302.468,-595.044"/>
</g>
<!-- Node13 -->
<g id="node13" class="node"><title>Node13</title>
<g id="a_node13"><a xlink:href="../../d2/d0a/class_mem_1_1_manager.html#a3aefd91781b7f41d35e6df6a32d379d0" target="_top" xlink:title=" ">
<polygon fill="white" stroke="black" points="307.5,-558.566 307.5,-577.566 430.5,-577.566 430.5,-558.566 307.5,-558.566"/>
<text text-anchor="middle" x="369" y="-565.566" font-family="Helvetica,sans-Serif" font-size="10.00">Mem::Manager::sHandle</text>
</a>
</g>
</g>
<!-- Node2&#45;&gt;Node13 -->
<g id="edge12" class="edge"><title>Node2&#45;&gt;Node13</title>
<path fill="none" stroke="midnightblue" d="M206.229,-412.225C217.632,-442.968 247.731,-512.804 297,-549.066 299.539,-550.934 302.249,-552.619 305.073,-554.138"/>
<polygon fill="midnightblue" stroke="midnightblue" points="303.867,-557.436 314.413,-558.448 306.8,-551.08 303.867,-557.436"/>
</g>
<!-- Node14 -->
<g id="node14" class="node"><title>Node14</title>
<g id="a_node14"><a xlink:href="../../db/dd6/class_obj_1_1_c_gap_check.html#a3cd8e01779a63ea0aa3f5a69abb273fb" target="_top" xlink:title=" ">
<polygon fill="white" stroke="black" points="298,-520.566 298,-539.566 440,-539.566 440,-520.566 298,-520.566"/>
<text text-anchor="middle" x="369" y="-527.566" font-family="Helvetica,sans-Serif" font-size="10.00">Obj::CGapCheck::UnGetGap</text>
</a>
</g>
</g>
<!-- Node2&#45;&gt;Node14 -->
<g id="edge13" class="edge"><title>Node2&#45;&gt;Node14</title>
<path fill="none" stroke="midnightblue" d="M209.497,-412.184C224.11,-436.768 256.384,-485.25 297,-511.066 300.357,-513.199 303.949,-515.095 307.669,-516.779"/>
<polygon fill="midnightblue" stroke="midnightblue" points="306.534,-520.095 317.12,-520.545 309.125,-513.592 306.534,-520.095"/>
</g>
<!-- Node6 -->
<g id="node6" class="node"><title>Node6</title>
<g id="a_node6"><a xlink:href="../../d6/ddd/class_str_1_1_string.html#a95d6e7b705530f3a964187e790f4eaba" target="_top" xlink:title=" ">
<polygon fill="white" stroke="black" points="490,-406.566 490,-425.566 596,-425.566 596,-406.566 490,-406.566"/>
<text text-anchor="middle" x="543" y="-413.566" font-family="Helvetica,sans-Serif" font-size="10.00">Str::String::getString</text>
</a>
</g>
</g>
<!-- Node5&#45;&gt;Node6 -->
<g id="edge5" class="edge"><title>Node5&#45;&gt;Node6</title>
<path fill="none" stroke="midnightblue" d="M434.536,-416.066C449.406,-416.066 465.191,-416.066 479.953,-416.066"/>
<polygon fill="midnightblue" stroke="midnightblue" points="479.986,-419.566 489.986,-416.066 479.986,-412.566 479.986,-419.566"/>
</g>
<!-- Node16 -->
<g id="node16" class="node"><title>Node16</title>
<g id="a_node16"><a xlink:href="../../d1/d54/namespace_script.html#ae80ed69ea4edcbcbbbd4985a6efdcd6e" target="_top" xlink:title=" ">
<polygon fill="white" stroke="black" points="791,-102.566 791,-121.566 930,-121.566 930,-102.566 791,-102.566"/>
<text text-anchor="middle" x="860.5" y="-109.566" font-family="Helvetica,sans-Serif" font-size="10.00">Script::FindChecksumName</text>
</a>
</g>
</g>
<!-- Node15&#45;&gt;Node16 -->
<g id="edge15" class="edge"><title>Node15&#45;&gt;Node16</title>
<path fill="none" stroke="midnightblue" d="M413.498,-197.577C432.839,-201.343 455.951,-205.211 477,-207.066 535.44,-212.214 551.294,-217.64 609,-207.066 693.819,-191.522 787.166,-148.667 832.203,-126.211"/>
<polygon fill="midnightblue" stroke="midnightblue" points="833.962,-129.244 841.315,-121.616 830.81,-122.994 833.962,-129.244"/>
</g>
<!-- Node20 -->
<g id="node20" class="node"><title>Node20</title>
<g id="a_node20"><a xlink:href="../../d1/d54/namespace_script.html#a0d003ee93577e31adb6597bce0002009" target="_top" xlink:title=" ">
<polygon fill="white" stroke="black" points="489.5,-178.566 489.5,-197.566 596.5,-197.566 596.5,-178.566 489.5,-178.566"/>
<text text-anchor="middle" x="543" y="-185.566" font-family="Helvetica,sans-Serif" font-size="10.00">Script::PrintContents</text>
</a>
</g>
</g>
<!-- Node15&#45;&gt;Node20 -->
<g id="edge19" class="edge"><title>Node15&#45;&gt;Node20</title>
<path fill="none" stroke="midnightblue" d="M435.026,-188.066C449.494,-188.066 464.806,-188.066 479.183,-188.066"/>
<polygon fill="midnightblue" stroke="midnightblue" points="479.462,-191.566 489.462,-188.066 479.462,-184.566 479.462,-191.566"/>
</g>
<!-- Node21 -->
<g id="node21" class="node"><title>Node21</title>
<g id="a_node21"><a xlink:href="../../d2/df7/class_script_1_1_c_struct.html#a1e05f0a66cff4a700fb67fdc117d2d7f" target="_top" xlink:title=" ">
<polygon fill="white" stroke="black" points="477,-84.5656 477,-103.566 609,-103.566 609,-84.5656 477,-84.5656"/>
<text text-anchor="middle" x="543" y="-91.5656" font-family="Helvetica,sans-Serif" font-size="10.00">Script::CStruct::search_for</text>
</a>
</g>
</g>
<!-- Node15&#45;&gt;Node21 -->
<g id="edge20" class="edge"><title>Node15&#45;&gt;Node21</title>
<path fill="none" stroke="midnightblue" d="M415.992,-178.483C424.516,-175.951 433.187,-172.841 441,-169.066 473.034,-153.587 505.194,-127.441 524.35,-110.469"/>
<polygon fill="midnightblue" stroke="midnightblue" points="526.88,-112.9 531.958,-103.602 522.19,-107.704 526.88,-112.9"/>
</g>
<!-- Node17 -->
<g id="node17" class="node"><title>Node17</title>
<g id="a_node17"><a xlink:href="../../d1/d54/namespace_script.html#a5cc52c4ff5ea5bb27681d819212dfdca" target="_top" xlink:title=" ">
<polygon fill="white" stroke="black" points="966,-121.566 966,-140.566 1129,-140.566 1129,-121.566 966,-121.566"/>
<text text-anchor="middle" x="1047.5" y="-128.566" font-family="Helvetica,sans-Serif" font-size="10.00">Script::FindChecksumNameNULL</text>
</a>
</g>
</g>
<!-- Node16&#45;&gt;Node17 -->
<g id="edge16" class="edge"><title>Node16&#45;&gt;Node17</title>
<path fill="none" stroke="midnightblue" d="M930.124,-119.114C938.476,-119.971 947.107,-120.858 955.717,-121.742"/>
<polygon fill="midnightblue" stroke="midnightblue" points="955.493,-125.237 965.798,-122.777 956.208,-118.274 955.493,-125.237"/>
</g>
<!-- Node19 -->
<g id="node19" class="node"><title>Node19</title>
<g id="a_node19"><a xlink:href="../../da/d37/namespace_dbg.html#ab406a8cc16de5046c7d9fd09c9de5e22" target="_top" xlink:title=" ">
<polygon fill="white" stroke="black" points="1014.5,-83.5656 1014.5,-102.566 1080.5,-102.566 1080.5,-83.5656 1014.5,-83.5656"/>
<text text-anchor="middle" x="1047.5" y="-90.5656" font-family="Helvetica,sans-Serif" font-size="10.00">Dbg::sprintf</text>
</a>
</g>
</g>
<!-- Node16&#45;&gt;Node19 -->
<g id="edge18" class="edge"><title>Node16&#45;&gt;Node19</title>
<path fill="none" stroke="midnightblue" d="M930.124,-105.018C954.98,-102.465 982.305,-99.6586 1004.23,-97.4071"/>
<polygon fill="midnightblue" stroke="midnightblue" points="1004.62,-100.886 1014.21,-96.3823 1003.9,-93.9224 1004.62,-100.886"/>
</g>
<!-- Node18 -->
<g id="node18" class="node"><title>Node18</title>
<g id="a_node18"><a xlink:href="../../d0/d31/namespace_config.html#a709cc81780d49900157e3476b63aa25d" target="_top" xlink:title=" ">
<polygon fill="white" stroke="black" points="1165,-121.566 1165,-140.566 1289,-140.566 1289,-121.566 1165,-121.566"/>
<text text-anchor="middle" x="1227" y="-128.566" font-family="Helvetica,sans-Serif" font-size="10.00">Config::GotExtraMemory</text>
</a>
</g>
</g>
<!-- Node17&#45;&gt;Node18 -->
<g id="edge17" class="edge"><title>Node17&#45;&gt;Node18</title>
<path fill="none" stroke="midnightblue" d="M1129.2,-131.066C1137.73,-131.066 1146.36,-131.066 1154.77,-131.066"/>
<polygon fill="midnightblue" stroke="midnightblue" points="1154.9,-134.566 1164.9,-131.066 1154.9,-127.566 1154.9,-134.566"/>
</g>
<!-- Node21&#45;&gt;Node16 -->
<g id="edge21" class="edge"><title>Node21&#45;&gt;Node16</title>
<path fill="none" stroke="midnightblue" d="M609.372,-97.7953C659.224,-100.639 728.079,-104.568 780.929,-107.583"/>
<polygon fill="midnightblue" stroke="midnightblue" points="780.755,-111.079 790.938,-108.154 781.154,-104.09 780.755,-111.079"/>
</g>
<!-- Node21&#45;&gt;Node21 -->
<g id="edge26" class="edge"><title>Node21&#45;&gt;Node21</title>
<path fill="none" stroke="midnightblue" d="M518.956,-103.823C507.259,-112.631 515.273,-122.066 543,-122.066 561.196,-122.066 570.902,-118.002 572.119,-112.72"/>
<polygon fill="midnightblue" stroke="midnightblue" points="575.039,-110.775 567.044,-103.823 568.959,-114.243 575.039,-110.775"/>
</g>
<!-- Node22 -->
<g id="node22" class="node"><title>Node22</title>
<g id="a_node22"><a xlink:href="../../d1/d54/namespace_script.html#af32f99ba26ca0f255240413a4e23a754" target="_top" xlink:title=" ">
<polygon fill="white" stroke="black" points="645,-26.5656 645,-45.5656 755,-45.5656 755,-26.5656 645,-26.5656"/>
<text text-anchor="middle" x="700" y="-33.5656" font-family="Helvetica,sans-Serif" font-size="10.00">Script::GetTypeName</text>
</a>
</g>
</g>
<!-- Node21&#45;&gt;Node22 -->
<g id="edge22" class="edge"><title>Node21&#45;&gt;Node22</title>
<path fill="none" stroke="midnightblue" d="M568.003,-84.5626C588.419,-76.5363 618.548,-64.8239 645,-55.0656 650.495,-53.0384 656.323,-50.9375 662.038,-48.9044"/>
<polygon fill="midnightblue" stroke="midnightblue" points="663.208,-52.2029 671.471,-45.5716 660.876,-45.6027 663.208,-52.2029"/>
</g>
<!-- Node23 -->
<g id="node23" class="node"><title>Node23</title>
<g id="a_node23"><a xlink:href="../../d1/d54/namespace_script.html#a43181580ea5d38e4bf1aa19ccd5e9e85" target="_top" xlink:title=" ">
<polygon fill="white" stroke="black" points="659,-64.5656 659,-83.5656 741,-83.5656 741,-64.5656 659,-64.5656"/>
<text text-anchor="middle" x="700" y="-71.5656" font-family="Helvetica,sans-Serif" font-size="10.00">Script::Resolve</text>
</a>
</g>
</g>
<!-- Node21&#45;&gt;Node23 -->
<g id="edge23" class="edge"><title>Node21&#45;&gt;Node23</title>
<path fill="none" stroke="midnightblue" d="M609.285,-85.6418C622.471,-83.9404 636.14,-82.1766 648.715,-80.554"/>
<polygon fill="midnightblue" stroke="midnightblue" points="649.516,-83.9798 658.986,-79.2287 648.62,-77.0373 649.516,-83.9798"/>
</g>
<!-- Node23&#45;&gt;Node16 -->
<g id="edge24" class="edge"><title>Node23&#45;&gt;Node16</title>
<path fill="none" stroke="midnightblue" d="M740.996,-83.6547C761.912,-88.6692 787.708,-94.8537 809.886,-100.171"/>
<polygon fill="midnightblue" stroke="midnightblue" points="809.251,-103.618 819.791,-102.546 810.883,-96.8106 809.251,-103.618"/>
</g>
<!-- Node24 -->
<g id="node24" class="node"><title>Node24</title>
<g id="a_node24"><a xlink:href="../../d1/d54/namespace_script.html#af293a36c230b10de7d8151c2990b233b" target="_top" xlink:title=" ">
<polygon fill="white" stroke="black" points="803.5,-64.5656 803.5,-83.5656 917.5,-83.5656 917.5,-64.5656 803.5,-64.5656"/>
<text text-anchor="middle" x="860.5" y="-71.5656" font-family="Helvetica,sans-Serif" font-size="10.00">Script::LookUpSymbol</text>
</a>
</g>
</g>
<!-- Node23&#45;&gt;Node24 -->
<g id="edge25" class="edge"><title>Node23&#45;&gt;Node24</title>
<path fill="none" stroke="midnightblue" d="M741.406,-74.0656C757.124,-74.0656 775.549,-74.0656 793.11,-74.0656"/>
<polygon fill="midnightblue" stroke="midnightblue" points="793.322,-77.5657 803.322,-74.0656 793.322,-70.5657 793.322,-77.5657"/>
</g>
<!-- Node25&#45;&gt;Node16 -->
<g id="edge28" class="edge"><title>Node25&#45;&gt;Node16</title>
<path fill="none" stroke="midnightblue" d="M561.476,-36.5406C599.812,-17.067 692.822,22.2827 755,-17.0656 786.583,-37.0522 762.401,-69.002 791,-93.0656 793.024,-94.769 795.19,-96.3203 797.459,-97.7332"/>
<polygon fill="midnightblue" stroke="midnightblue" points="796.159,-101.003 806.644,-102.524 799.397,-94.7961 796.159,-101.003"/>
</g>
<!-- Node25&#45;&gt;Node22 -->
<g id="edge29" class="edge"><title>Node25&#45;&gt;Node22</title>
<path fill="none" stroke="midnightblue" d="M589.667,-43.1194C603.743,-42.2113 619.514,-41.1938 634.603,-40.2203"/>
<polygon fill="midnightblue" stroke="midnightblue" points="635.157,-43.6919 644.911,-39.5553 634.706,-36.7064 635.157,-43.6919"/>
</g>
<!-- Node25&#45;&gt;Node23 -->
<g id="edge30" class="edge"><title>Node25&#45;&gt;Node23</title>
<path fill="none" stroke="midnightblue" d="M589.667,-54.3151C608.288,-57.6789 629.876,-61.5788 648.927,-65.0201"/>
<polygon fill="midnightblue" stroke="midnightblue" points="648.457,-68.4919 658.92,-66.8254 649.701,-61.6034 648.457,-68.4919"/>
</g>
<!-- Node27 -->
<g id="node27" class="node"><title>Node27</title>
<g id="a_node27"><a xlink:href="../../d2/df7/class_script_1_1_c_struct.html#a42a803452add452cf735c191a1816b14" target="_top" xlink:title=" ">
<polygon fill="white" stroke="black" points="305,-140.566 305,-159.566 433,-159.566 433,-140.566 305,-140.566"/>
<text text-anchor="middle" x="369" y="-147.566" font-family="Helvetica,sans-Serif" font-size="10.00">Script::CStruct::GetString</text>
</a>
</g>
</g>
<!-- Node26&#45;&gt;Node27 -->
<g id="edge32" class="edge"><title>Node26&#45;&gt;Node27</title>
<path fill="none" stroke="midnightblue" d="M261.291,-150.066C272.164,-150.066 283.607,-150.066 294.799,-150.066"/>
<polygon fill="midnightblue" stroke="midnightblue" points="294.983,-153.566 304.983,-150.066 294.983,-146.566 294.983,-153.566"/>
</g>
<!-- Node27&#45;&gt;Node16 -->
<g id="edge33" class="edge"><title>Node27&#45;&gt;Node16</title>
<path fill="none" stroke="midnightblue" d="M433.241,-145.156C522.23,-138.248 684.303,-125.666 780.919,-118.166"/>
<polygon fill="midnightblue" stroke="midnightblue" points="781.225,-121.653 790.924,-117.389 780.684,-114.674 781.225,-121.653"/>
</g>
<!-- Node27&#45;&gt;Node20 -->
<g id="edge34" class="edge"><title>Node27&#45;&gt;Node20</title>
<path fill="none" stroke="midnightblue" d="M413.403,-159.655C436.407,-164.737 464.851,-171.021 489.134,-176.386"/>
<polygon fill="midnightblue" stroke="midnightblue" points="488.39,-179.806 498.909,-178.546 489.9,-172.971 488.39,-179.806"/>
</g>
<!-- Node27&#45;&gt;Node21 -->
<g id="edge35" class="edge"><title>Node27&#45;&gt;Node21</title>
<path fill="none" stroke="midnightblue" d="M399.568,-140.439C428.169,-131.127 471.679,-116.961 503.082,-106.737"/>
<polygon fill="midnightblue" stroke="midnightblue" points="504.393,-109.991 512.818,-103.567 502.226,-103.335 504.393,-109.991"/>
</g>
</g>
</svg>
        <g id="navigator" transform="translate(0 0)" fill="#404254">
                <rect fill="#f2f5e9" fill-opacity="0.5" stroke="#606060" stroke-width=".5" x="0" y="0" width="60" height="60"/>
                <use id="zoomplus" xlink:href="#zoomPlus" x="17" y="9" onmousedown="handleZoom(evt,'in')"/>
                <use id="zoomminus" xlink:href="#zoomMin" x="42" y="9" onmousedown="handleZoom(evt,'out')"/>
                <use id="reset" xlink:href="#resetDef" x="30" y="36" onmousedown="handleReset()"/>
                <g id="arrowUp" xlink:href="#dirArrow" transform="translate(30 24)" onmousedown="handlePan(0,-1)">
                  <use xlink:href="#rim" fill="#404040">
                        <set attributeName="fill" to="#808080" begin="arrowUp.mouseover" end="arrowUp.mouseout"/>
                  </use>
                  <path fill="none" stroke="white" stroke-width="1.5" d="M0,-3.0v7 M-2.5,-0.5L0,-3.0L2.5,-0.5"/>
                </g>
                <g id="arrowRight" xlink:href="#dirArrow" transform="rotate(90) translate(36 -43)" onmousedown="handlePan(1,0)">
                  <use xlink:href="#rim" fill="#404040">
                        <set attributeName="fill" to="#808080" begin="arrowRight.mouseover" end="arrowRight.mouseout"/>
                  </use>
                  <path fill="none" stroke="white" stroke-width="1.5" d="M0,-3.0v7 M-2.5,-0.5L0,-3.0L2.5,-0.5"/>
                </g>
                <g id="arrowDown" xlink:href="#dirArrow" transform="rotate(180) translate(-30 -48)" onmousedown="handlePan(0,1)">
                  <use xlink:href="#rim" fill="#404040">
                        <set attributeName="fill" to="#808080" begin="arrowDown.mouseover" end="arrowDown.mouseout"/>
                  </use>
                  <path fill="none" stroke="white" stroke-width="1.5" d="M0,-3.0v7 M-2.5,-0.5L0,-3.0L2.5,-0.5"/>
                </g>
                <g id="arrowLeft" xlink:href="#dirArrow" transform="rotate(270) translate(-36 17)" onmousedown="handlePan(-1,0)">
                  <use xlink:href="#rim" fill="#404040">
                        <set attributeName="fill" to="#808080" begin="arrowLeft.mouseover" end="arrowLeft.mouseout"/>
                  </use>
                  <path fill="none" stroke="white" stroke-width="1.5" d="M0,-3.0v7 M-2.5,-0.5L0,-3.0L2.5,-0.5"/>
                </g>
        </g>
        <svg viewBox="0 0 15 15" width="100%" height="30px" preserveAspectRatio="xMaxYMin meet">
         <g id="arrow_out" transform="scale(0.3 0.3)">
          <a xlink:href="class_obj_1_1_c_gap_checklist_a46723efa7dfd002e3868a5b701bd585a_cgraph_org.svg" target="_base">
           <rect id="button" ry="5" rx="5" y="6" x="6" height="38" width="38"
                fill="#f2f5e9" fill-opacity="0.5" stroke="#606060" stroke-width="1.0"/>
           <path id="arrow"
             d="M 11.500037,31.436501 C 11.940474,20.09759 22.043105,11.32322 32.158766,21.979434 L 37.068811,17.246167 C 37.068811,17.246167 37.088388,32 37.088388,32 L 22.160133,31.978069 C 22.160133,31.978069 26.997745,27.140456 26.997745,27.140456 C 18.528582,18.264221 13.291696,25.230495 11.500037,31.436501 z"
             style="fill:#404040;"/>
          </a>
         </g>
        </svg>
</svg>
