<?xml version="1.0" encoding="UTF-8" standalone="no"?>
<!DOCTYPE svg PUBLIC "-//W3C//DTD SVG 1.1//EN"
 "http://www.w3.org/Graphics/SVG/1.1/DTD/svg11.dtd">
<!-- Generated by graphviz version 2.38.0 (20140413.2041)
 -->
<!-- Title: NxPs2::SDraw2D::SetHidden Pages: 1 -->
<svg width="357pt" height="116pt"
 viewBox="0.00 0.00 357.00 116.00" xmlns="http://www.w3.org/2000/svg" xmlns:xlink="http://www.w3.org/1999/xlink">
<g id="graph0" class="graph" transform="scale(1 1) rotate(0) translate(4 112)">
<title>NxPs2::SDraw2D::SetHidden</title>
<polygon fill="white" stroke="none" points="-4,4 -4,-112 353,-112 353,4 -4,4"/>
<!-- Node1 -->
<g id="node1" class="node"><title>Node1</title>
<g id="a_node1"><a xlink:title=" ">
<polygon fill="#bfbfbf" stroke="black" points="0,-44.5 0,-63.5 143,-63.5 143,-44.5 0,-44.5"/>
<text text-anchor="middle" x="71.5" y="-51.5" font-family="Helvetica,sans-Serif" font-size="10.00">NxPs2::SDraw2D::SetHidden</text>
</a>
</g>
</g>
<!-- Node2 -->
<g id="node2" class="node"><title>Node2</title>
<g id="a_node2"><a xlink:href="../../dd/d1f/struct_nx_ps2_1_1_s_draw2_d.html#a17a643e9489ae52ea3e6ff737f759e5f" target="_top" xlink:title=" ">
<polygon fill="white" stroke="black" points="184,-88.5 184,-107.5 344,-107.5 344,-88.5 184,-88.5"/>
<text text-anchor="middle" x="264" y="-95.5" font-family="Helvetica,sans-Serif" font-size="10.00">NxPs2::SDraw2D::InsertDrawList</text>
</a>
</g>
</g>
<!-- Node1&#45;&gt;Node2 -->
<g id="edge1" class="edge"><title>Node1&#45;&gt;Node2</title>
<path fill="none" stroke="midnightblue" d="M112.687,-63.5148C132.622,-68.214 157.069,-73.9458 179,-79 189.268,-81.3665 200.249,-83.8699 210.772,-86.2557"/>
<polygon fill="midnightblue" stroke="midnightblue" points="210.157,-89.7048 220.683,-88.4986 211.702,-82.8775 210.157,-89.7048"/>
</g>
<!-- Node3 -->
<g id="node3" class="node"><title>Node3</title>
<g id="a_node3"><a xlink:href="../../dd/d1f/struct_nx_ps2_1_1_s_draw2_d.html#aafffd94964069d2d887152892efabf87" target="_top" xlink:title=" ">
<polygon fill="white" stroke="black" points="188.5,-39 188.5,-69 339.5,-69 339.5,-39 188.5,-39"/>
<text text-anchor="start" x="196.5" y="-57" font-family="Helvetica,sans-Serif" font-size="10.00">NxPs2::SDraw2D::InsertSorted</text>
<text text-anchor="middle" x="264" y="-46" font-family="Helvetica,sans-Serif" font-size="10.00">DrawList</text>
</a>
</g>
</g>
<!-- Node1&#45;&gt;Node3 -->
<g id="edge2" class="edge"><title>Node1&#45;&gt;Node3</title>
<path fill="none" stroke="midnightblue" d="M143.164,-54C154.548,-54 166.435,-54 178.111,-54"/>
<polygon fill="midnightblue" stroke="midnightblue" points="178.3,-57.5001 188.3,-54 178.3,-50.5001 178.3,-57.5001"/>
</g>
<!-- Node4 -->
<g id="node4" class="node"><title>Node4</title>
<g id="a_node4"><a xlink:href="../../dd/d1f/struct_nx_ps2_1_1_s_draw2_d.html#a65d507f0f9720d048dfa3187f825b4d2" target="_top" xlink:title=" ">
<polygon fill="white" stroke="black" points="179,-0.5 179,-19.5 349,-19.5 349,-0.5 179,-0.5"/>
<text text-anchor="middle" x="264" y="-7.5" font-family="Helvetica,sans-Serif" font-size="10.00">NxPs2::SDraw2D::RemoveDrawList</text>
</a>
</g>
</g>
<!-- Node1&#45;&gt;Node4 -->
<g id="edge3" class="edge"><title>Node1&#45;&gt;Node4</title>
<path fill="none" stroke="midnightblue" d="M113.836,-44.4527C142.544,-37.8219 180.994,-28.9409 211.667,-21.8565"/>
<polygon fill="midnightblue" stroke="midnightblue" points="212.789,-25.1895 221.745,-19.5287 211.214,-18.369 212.789,-25.1895"/>
</g>
</g>
</svg>
