<?xml version="1.0" encoding="UTF-8" standalone="no"?>
<!DOCTYPE svg PUBLIC "-//W3C//DTD SVG 1.1//EN"
 "http://www.w3.org/Graphics/SVG/1.1/DTD/svg11.dtd">
<!-- Generated by graphviz version 2.38.0 (20140413.2041)
 -->
<!-- Title: NxPs2::SDraw2D::IsHidden Pages: 1 -->
<svg width="799pt" height="127pt"
 viewBox="0.00 0.00 799.00 127.00" xmlns="http://www.w3.org/2000/svg" xmlns:xlink="http://www.w3.org/1999/xlink">
<g id="graph0" class="graph" transform="scale(1 1) rotate(0) translate(4 123)">
<title>NxPs2::SDraw2D::IsHidden</title>
<polygon fill="white" stroke="none" points="-4,4 -4,-123 795,-123 795,4 -4,4"/>
<!-- Node1 -->
<g id="node1" class="node"><title>Node1</title>
<g id="a_node1"><a xlink:title=" ">
<polygon fill="#bfbfbf" stroke="black" points="655,-29 655,-48 791,-48 791,-29 655,-29"/>
<text text-anchor="middle" x="723" y="-36" font-family="Helvetica,sans-Serif" font-size="10.00">NxPs2::SDraw2D::IsHidden</text>
</a>
</g>
</g>
<!-- Node2 -->
<g id="node2" class="node"><title>Node2</title>
<g id="a_node2"><a xlink:href="../../d8/de0/struct_nx_ps2_1_1_s_sprite.html#ada89371db43804260e4c18a704095c3d" target="_top" xlink:title=" ">
<polygon fill="white" stroke="black" points="483,-50 483,-69 618,-69 618,-50 483,-50"/>
<text text-anchor="middle" x="550.5" y="-57" font-family="Helvetica,sans-Serif" font-size="10.00">NxPs2::SSprite::SetHidden</text>
</a>
</g>
</g>
<!-- Node1&#45;&gt;Node2 -->
<g id="edge1" class="edge"><title>Node1&#45;&gt;Node2</title>
<path fill="none" stroke="midnightblue" d="M644.674,-48.0241C635.808,-49.1161 626.826,-50.2223 618.118,-51.2949"/>
<polygon fill="midnightblue" stroke="midnightblue" points="645.117,-51.496 654.614,-46.7998 644.261,-44.5485 645.117,-51.496"/>
</g>
<!-- Node7 -->
<g id="node7" class="node"><title>Node7</title>
<g id="a_node7"><a xlink:href="../../d8/de0/struct_nx_ps2_1_1_s_sprite.html#a4b9d12d696d0dfc77af311c29f13867f" target="_top" xlink:title=" ">
<polygon fill="white" stroke="black" points="482,-9 482,-28 619,-28 619,-9 482,-9"/>
<text text-anchor="middle" x="550.5" y="-16" font-family="Helvetica,sans-Serif" font-size="10.00">NxPs2::SSprite::SetTexture</text>
</a>
</g>
</g>
<!-- Node1&#45;&gt;Node7 -->
<g id="edge6" class="edge"><title>Node1&#45;&gt;Node7</title>
<path fill="none" stroke="midnightblue" d="M644.43,-29.4008C636.021,-28.4145 627.513,-27.4165 619.234,-26.4454"/>
<polygon fill="midnightblue" stroke="midnightblue" points="644.274,-32.9065 654.614,-30.5955 645.09,-25.9542 644.274,-32.9065"/>
</g>
<!-- Node3 -->
<g id="node3" class="node"><title>Node3</title>
<g id="a_node3"><a xlink:href="../../d6/d0a/class_nx_1_1_c_ps2_sprite.html#ac638c8870b433657001a914e116b7772" target="_top" xlink:title=" ">
<polygon fill="white" stroke="black" points="329,-88.5 329,-118.5 435,-118.5 435,-88.5 329,-88.5"/>
<text text-anchor="start" x="337" y="-106.5" font-family="Helvetica,sans-Serif" font-size="10.00">Nx::CPs2Sprite::plat</text>
<text text-anchor="middle" x="382" y="-95.5" font-family="Helvetica,sans-Serif" font-size="10.00">_update_hidden</text>
</a>
</g>
</g>
<!-- Node2&#45;&gt;Node3 -->
<g id="edge2" class="edge"><title>Node2&#45;&gt;Node3</title>
<path fill="none" stroke="midnightblue" d="M503.63,-71.6219C482.415,-77.2282 457.113,-83.9146 435.173,-89.7125"/>
<polygon fill="midnightblue" stroke="midnightblue" points="504.598,-74.9862 513.372,-69.0473 502.81,-68.2185 504.598,-74.9862"/>
</g>
<!-- Node6 -->
<g id="node6" class="node"><title>Node6</title>
<g id="a_node6"><a xlink:href="../../d8/de0/struct_nx_ps2_1_1_s_sprite.html#a6edee1ad46fb19087778f145d23f9bc0" target="_top" xlink:title=" ">
<polygon fill="white" stroke="black" points="318,-50 318,-69 446,-69 446,-50 318,-50"/>
<text text-anchor="middle" x="382" y="-57" font-family="Helvetica,sans-Serif" font-size="10.00">NxPs2::SSprite::~SSprite</text>
</a>
</g>
</g>
<!-- Node2&#45;&gt;Node6 -->
<g id="edge5" class="edge"><title>Node2&#45;&gt;Node6</title>
<path fill="none" stroke="midnightblue" d="M472.495,-59.5C463.713,-59.5 454.838,-59.5 446.264,-59.5"/>
<polygon fill="midnightblue" stroke="midnightblue" points="472.737,-63.0001 482.737,-59.5 472.737,-56.0001 472.737,-63.0001"/>
</g>
<!-- Node4 -->
<g id="node4" class="node"><title>Node4</title>
<g id="a_node4"><a xlink:href="../../d6/d0a/class_nx_1_1_c_ps2_sprite.html#a3e8e81c1929d3c694f8bd7413f7e9e76" target="_top" xlink:title=" ">
<polygon fill="white" stroke="black" points="176,-44.5 176,-74.5 282,-74.5 282,-44.5 176,-44.5"/>
<text text-anchor="start" x="184" y="-62.5" font-family="Helvetica,sans-Serif" font-size="10.00">Nx::CPs2Sprite::plat</text>
<text text-anchor="middle" x="229" y="-51.5" font-family="Helvetica,sans-Serif" font-size="10.00">_initialize</text>
</a>
</g>
</g>
<!-- Node3&#45;&gt;Node4 -->
<g id="edge3" class="edge"><title>Node3&#45;&gt;Node4</title>
<path fill="none" stroke="midnightblue" d="M319.499,-85.5793C306.904,-81.9092 293.77,-78.0821 281.567,-74.5262"/>
<polygon fill="midnightblue" stroke="midnightblue" points="318.877,-89.0434 329.457,-88.4808 320.835,-82.3229 318.877,-89.0434"/>
</g>
<!-- Node5 -->
<g id="node5" class="node"><title>Node5</title>
<g id="a_node5"><a xlink:href="../../d6/d0a/class_nx_1_1_c_ps2_sprite.html#ab3ee4dde9109b7e3215b8620c31eb134" target="_top" xlink:title=" ">
<polygon fill="white" stroke="black" points="0,-50 0,-69 140,-69 140,-50 0,-50"/>
<text text-anchor="middle" x="70" y="-57" font-family="Helvetica,sans-Serif" font-size="10.00">Nx::CPs2Sprite::CPs2Sprite</text>
</a>
</g>
</g>
<!-- Node4&#45;&gt;Node5 -->
<g id="edge4" class="edge"><title>Node4&#45;&gt;Node5</title>
<path fill="none" stroke="midnightblue" d="M165.638,-59.5C157.244,-59.5 148.593,-59.5 140.091,-59.5"/>
<polygon fill="midnightblue" stroke="midnightblue" points="165.721,-63.0001 175.721,-59.5 165.721,-56.0001 165.721,-63.0001"/>
</g>
<!-- Node8 -->
<g id="node8" class="node"><title>Node8</title>
<g id="a_node8"><a xlink:href="../../d6/d0a/class_nx_1_1_c_ps2_sprite.html#a6d4a651b2c7b12482d27963e327121ff" target="_top" xlink:title=" ">
<polygon fill="white" stroke="black" points="329,-0.5 329,-30.5 435,-30.5 435,-0.5 329,-0.5"/>
<text text-anchor="start" x="337" y="-18.5" font-family="Helvetica,sans-Serif" font-size="10.00">Nx::CPs2Sprite::plat</text>
<text text-anchor="middle" x="382" y="-7.5" font-family="Helvetica,sans-Serif" font-size="10.00">_update_engine</text>
</a>
</g>
</g>
<!-- Node7&#45;&gt;Node8 -->
<g id="edge7" class="edge"><title>Node7&#45;&gt;Node8</title>
<path fill="none" stroke="midnightblue" d="M471.473,-17.0941C459.133,-16.8718 446.639,-16.6467 435.082,-16.4384"/>
<polygon fill="midnightblue" stroke="midnightblue" points="471.717,-20.599 481.778,-17.2798 471.843,-13.6001 471.717,-20.599"/>
</g>
<!-- Node8&#45;&gt;Node4 -->
<g id="edge8" class="edge"><title>Node8&#45;&gt;Node4</title>
<path fill="none" stroke="midnightblue" d="M319.499,-33.4207C306.904,-37.0908 293.77,-40.9179 281.567,-44.4738"/>
<polygon fill="midnightblue" stroke="midnightblue" points="320.835,-36.6771 329.457,-30.5192 318.877,-29.9566 320.835,-36.6771"/>
</g>
</g>
</svg>
