<?xml version="1.0" encoding="UTF-8" standalone="no"?>
<!DOCTYPE svg PUBLIC "-//W3C//DTD SVG 1.1//EN"
 "http://www.w3.org/Graphics/SVG/1.1/DTD/svg11.dtd">
<!-- Generated by graphviz version 2.38.0 (20140413.2041)
 -->
<!-- Title: Obj::CObject::RemoveEventHandler Pages: 1 -->
<svg width="1367pt" height="236pt"
 viewBox="0.00 0.00 1367.00 236.00" xmlns="http://www.w3.org/2000/svg" xmlns:xlink="http://www.w3.org/1999/xlink">
<g id="graph0" class="graph" transform="scale(1 1) rotate(0) translate(4 232)">
<title>Obj::CObject::RemoveEventHandler</title>
<polygon fill="white" stroke="none" points="-4,4 -4,-232 1363,-232 1363,4 -4,4"/>
<!-- Node1 -->
<g id="node1" class="node"><title>Node1</title>
<g id="a_node1"><a xlink:title=" ">
<polygon fill="#bfbfbf" stroke="black" points="1222,-115.5 1222,-145.5 1359,-145.5 1359,-115.5 1222,-115.5"/>
<text text-anchor="start" x="1230" y="-133.5" font-family="Helvetica,sans-Serif" font-size="10.00">Obj::CObject::RemoveEvent</text>
<text text-anchor="middle" x="1290.5" y="-122.5" font-family="Helvetica,sans-Serif" font-size="10.00">Handler</text>
</a>
</g>
</g>
<!-- Node2 -->
<g id="node2" class="node"><title>Node2</title>
<g id="a_node2"><a xlink:href="../../d2/d61/class_obj_1_1_c_skater_core_physics_component.html#a533a4ae298b28c83a0efb32bcaee44cc" target="_top" xlink:title=" ">
<polygon fill="white" stroke="black" points="1008,-115.5 1008,-145.5 1186,-145.5 1186,-115.5 1008,-115.5"/>
<text text-anchor="start" x="1016" y="-133.5" font-family="Helvetica,sans-Serif" font-size="10.00">Obj::CSkaterCorePhysicsComponent</text>
<text text-anchor="middle" x="1097" y="-122.5" font-family="Helvetica,sans-Serif" font-size="10.00">::enter_acid_drop</text>
</a>
</g>
</g>
<!-- Node1&#45;&gt;Node2 -->
<g id="edge1" class="edge"><title>Node1&#45;&gt;Node2</title>
<path fill="none" stroke="midnightblue" d="M1211.76,-130.5C1203.29,-130.5 1194.62,-130.5 1186.04,-130.5"/>
<polygon fill="midnightblue" stroke="midnightblue" points="1211.98,-134 1221.98,-130.5 1211.98,-127 1211.98,-134"/>
</g>
<!-- Node14 -->
<g id="node14" class="node"><title>Node14</title>
<g id="a_node14"><a xlink:href="../../dd/d52/class_obj_1_1_c_walk_component.html#ab58303a24bb5d1ee544ca45463cacc4f" target="_top" xlink:title=" ">
<polygon fill="white" stroke="black" points="1032,-45.5 1032,-75.5 1162,-75.5 1162,-45.5 1032,-45.5"/>
<text text-anchor="start" x="1040" y="-63.5" font-family="Helvetica,sans-Serif" font-size="10.00">Obj::CWalkComponent</text>
<text text-anchor="middle" x="1097" y="-52.5" font-family="Helvetica,sans-Serif" font-size="10.00">::maybe_jump_low_barrier</text>
</a>
</g>
</g>
<!-- Node1&#45;&gt;Node14 -->
<g id="edge14" class="edge"><title>Node1&#45;&gt;Node14</title>
<path fill="none" stroke="midnightblue" d="M1238.65,-111.914C1207.62,-100.571 1168.46,-86.2557 1139.34,-75.6125"/>
<polygon fill="midnightblue" stroke="midnightblue" points="1237.82,-115.337 1248.42,-115.483 1240.23,-108.763 1237.82,-115.337"/>
</g>
<!-- Node17 -->
<g id="node17" class="node"><title>Node17</title>
<g id="a_node17"><a xlink:href="../../d2/d61/class_obj_1_1_c_skater_core_physics_component.html#a5b3123ab1ea6166c1e3755062a69fd93" target="_top" xlink:title=" ">
<polygon fill="white" stroke="black" points="1008,-180.5 1008,-210.5 1186,-210.5 1186,-180.5 1008,-180.5"/>
<text text-anchor="start" x="1016" y="-198.5" font-family="Helvetica,sans-Serif" font-size="10.00">Obj::CSkaterCorePhysicsComponent</text>
<text text-anchor="middle" x="1097" y="-187.5" font-family="Helvetica,sans-Serif" font-size="10.00">::maybe_spine_transfer</text>
</a>
</g>
</g>
<!-- Node1&#45;&gt;Node17 -->
<g id="edge19" class="edge"><title>Node1&#45;&gt;Node17</title>
<path fill="none" stroke="midnightblue" d="M1235.4,-148.862C1206.05,-158.824 1170.22,-170.987 1142.51,-180.394"/>
<polygon fill="midnightblue" stroke="midnightblue" points="1236.74,-152.104 1245.08,-145.576 1234.49,-145.476 1236.74,-152.104"/>
</g>
<!-- Node3 -->
<g id="node3" class="node"><title>Node3</title>
<g id="a_node3"><a xlink:href="../../d2/d61/class_obj_1_1_c_skater_core_physics_component.html#ac8680b0cbdb8dbcc8af0e9246b939d53" target="_top" xlink:title=" ">
<polygon fill="white" stroke="black" points="580,-137.5 580,-167.5 758,-167.5 758,-137.5 580,-137.5"/>
<text text-anchor="start" x="588" y="-155.5" font-family="Helvetica,sans-Serif" font-size="10.00">Obj::CSkaterCorePhysicsComponent</text>
<text text-anchor="middle" x="669" y="-144.5" font-family="Helvetica,sans-Serif" font-size="10.00">::do_in_air_physics</text>
</a>
</g>
</g>
<!-- Node2&#45;&gt;Node3 -->
<g id="edge2" class="edge"><title>Node2&#45;&gt;Node3</title>
<path fill="none" stroke="midnightblue" d="M997.962,-135.563C925.664,-139.297 828.136,-144.333 758.261,-147.942"/>
<polygon fill="midnightblue" stroke="midnightblue" points="998.185,-139.056 1007.99,-135.045 997.824,-132.066 998.185,-139.056"/>
</g>
<!-- Node5 -->
<g id="node5" class="node"><title>Node5</title>
<g id="a_node5"><a xlink:href="../../d2/d61/class_obj_1_1_c_skater_core_physics_component.html#a3f77c3319733b63343403d9ebc6f2da6" target="_top" xlink:title=" ">
<polygon fill="white" stroke="black" points="794,-71.5 794,-101.5 972,-101.5 972,-71.5 794,-71.5"/>
<text text-anchor="start" x="802" y="-89.5" font-family="Helvetica,sans-Serif" font-size="10.00">Obj::CSkaterCorePhysicsComponent</text>
<text text-anchor="middle" x="883" y="-78.5" font-family="Helvetica,sans-Serif" font-size="10.00">::ReadySkateState</text>
</a>
</g>
</g>
<!-- Node2&#45;&gt;Node5 -->
<g id="edge4" class="edge"><title>Node2&#45;&gt;Node5</title>
<path fill="none" stroke="midnightblue" d="M1013.84,-113.448C994.901,-109.517 974.889,-105.364 956.399,-101.526"/>
<polygon fill="midnightblue" stroke="midnightblue" points="1013.13,-116.875 1023.63,-115.481 1014.55,-110.022 1013.13,-116.875"/>
</g>
<!-- Node12 -->
<g id="node12" class="node"><title>Node12</title>
<g id="a_node12"><a xlink:href="../../d2/d61/class_obj_1_1_c_skater_core_physics_component.html#a57ea07a7343241be3e72bc19a81744aa" target="_top" xlink:title=" ">
<polygon fill="white" stroke="black" points="580,-186.5 580,-216.5 758,-216.5 758,-186.5 580,-186.5"/>
<text text-anchor="start" x="588" y="-204.5" font-family="Helvetica,sans-Serif" font-size="10.00">Obj::CSkaterCorePhysicsComponent</text>
<text text-anchor="middle" x="669" y="-193.5" font-family="Helvetica,sans-Serif" font-size="10.00">::snap_to_ground</text>
</a>
</g>
</g>
<!-- Node2&#45;&gt;Node12 -->
<g id="edge11" class="edge"><title>Node2&#45;&gt;Node12</title>
<path fill="none" stroke="midnightblue" d="M1010.81,-147.417C997.823,-149.871 984.566,-152.307 972,-154.5 900.127,-167.044 818.338,-179.672 758.02,-188.675"/>
<polygon fill="midnightblue" stroke="midnightblue" points="1011.5,-150.848 1020.67,-145.539 1010.19,-143.971 1011.5,-150.848"/>
</g>
<!-- Node4 -->
<g id="node4" class="node"><title>Node4</title>
<g id="a_node4"><a xlink:href="../../d2/d61/class_obj_1_1_c_skater_core_physics_component.html#ab33036e6e0db072615c967ea6392832e" target="_top" xlink:title=" ">
<polygon fill="white" stroke="black" points="152,-172.5 152,-202.5 330,-202.5 330,-172.5 152,-172.5"/>
<text text-anchor="start" x="160" y="-190.5" font-family="Helvetica,sans-Serif" font-size="10.00">Obj::CSkaterCorePhysicsComponent</text>
<text text-anchor="middle" x="241" y="-179.5" font-family="Helvetica,sans-Serif" font-size="10.00">::Update</text>
</a>
</g>
</g>
<!-- Node3&#45;&gt;Node4 -->
<g id="edge3" class="edge"><title>Node3&#45;&gt;Node4</title>
<path fill="none" stroke="midnightblue" d="M569.661,-158.872C510.584,-162.897 433.938,-168.466 366,-174.5 354.357,-175.534 342.109,-176.71 330.028,-177.923"/>
<polygon fill="midnightblue" stroke="midnightblue" points="569.992,-162.358 579.732,-158.189 569.518,-155.374 569.992,-162.358"/>
</g>
<!-- Node6 -->
<g id="node6" class="node"><title>Node6</title>
<g id="a_node6"><a xlink:href="../../d4/deb/class_obj_1_1_c_skater_physics_control_component.html#a44609b986e63e8ea74b0717d229b122e" target="_top" xlink:title=" ">
<polygon fill="white" stroke="black" points="599.5,-69 599.5,-110 738.5,-110 738.5,-69 599.5,-69"/>
<text text-anchor="start" x="607.5" y="-98" font-family="Helvetica,sans-Serif" font-size="10.00">Obj::CSkaterPhysicsControl</text>
<text text-anchor="start" x="607.5" y="-87" font-family="Helvetica,sans-Serif" font-size="10.00">Component::switch_walking</text>
<text text-anchor="middle" x="669" y="-76" font-family="Helvetica,sans-Serif" font-size="10.00">_to_skating</text>
</a>
</g>
</g>
<!-- Node5&#45;&gt;Node6 -->
<g id="edge5" class="edge"><title>Node5&#45;&gt;Node6</title>
<path fill="none" stroke="midnightblue" d="M783.505,-87.8938C768.37,-88.108 753.03,-88.325 738.727,-88.5274"/>
<polygon fill="midnightblue" stroke="midnightblue" points="783.985,-91.3874 793.935,-87.7462 783.886,-84.3881 783.985,-91.3874"/>
</g>
<!-- Node7 -->
<g id="node7" class="node"><title>Node7</title>
<g id="a_node7"><a xlink:href="../../d4/deb/class_obj_1_1_c_skater_physics_control_component.html#a464204726957c78800bcfd2798040994" target="_top" xlink:title=" ">
<polygon fill="white" stroke="black" points="374.5,-76.5 374.5,-106.5 535.5,-106.5 535.5,-76.5 374.5,-76.5"/>
<text text-anchor="start" x="382.5" y="-94.5" font-family="Helvetica,sans-Serif" font-size="10.00">Obj::CSkaterPhysicsControl</text>
<text text-anchor="middle" x="455" y="-83.5" font-family="Helvetica,sans-Serif" font-size="10.00">Component::CallMemberFunction</text>
</a>
</g>
</g>
<!-- Node6&#45;&gt;Node7 -->
<g id="edge6" class="edge"><title>Node6&#45;&gt;Node7</title>
<path fill="none" stroke="midnightblue" d="M589.305,-90.2424C571.818,-90.4074 553.266,-90.5824 535.738,-90.7478"/>
<polygon fill="midnightblue" stroke="midnightblue" points="589.496,-93.7409 599.462,-90.1466 589.43,-86.7412 589.496,-93.7409"/>
</g>
<!-- Node8 -->
<g id="node8" class="node"><title>Node8</title>
<g id="a_node8"><a xlink:href="../../dd/d52/class_obj_1_1_c_walk_component.html#a0ac69c034862c775af90cd21b01d2182" target="_top" xlink:title=" ">
<polygon fill="white" stroke="black" points="183,-49.5 183,-79.5 299,-79.5 299,-49.5 183,-49.5"/>
<text text-anchor="start" x="191" y="-67.5" font-family="Helvetica,sans-Serif" font-size="10.00">Obj::CWalkComponent</text>
<text text-anchor="middle" x="241" y="-56.5" font-family="Helvetica,sans-Serif" font-size="10.00">::go_on_ground_state</text>
</a>
</g>
</g>
<!-- Node7&#45;&gt;Node8 -->
<g id="edge7" class="edge"><title>Node7&#45;&gt;Node8</title>
<path fill="none" stroke="midnightblue" d="M364.388,-80.0871C342.295,-77.2734 319.228,-74.3356 299.153,-71.7789"/>
<polygon fill="midnightblue" stroke="midnightblue" points="364.094,-83.5779 374.456,-81.3694 364.978,-76.634 364.094,-83.5779"/>
</g>
<!-- Node10 -->
<g id="node10" class="node"><title>Node10</title>
<g id="a_node10"><a xlink:href="../../d5/d58/class_obj_1_1_c_rider_component.html#a27a1ea808a1b1a8bc9dee48df31d020e" target="_top" xlink:title=" ">
<polygon fill="white" stroke="black" points="183,-98.5 183,-128.5 299,-128.5 299,-98.5 183,-98.5"/>
<text text-anchor="start" x="191" y="-116.5" font-family="Helvetica,sans-Serif" font-size="10.00">Obj::CRiderComponent</text>
<text text-anchor="middle" x="241" y="-105.5" font-family="Helvetica,sans-Serif" font-size="10.00">::go_on_horse_state</text>
</a>
</g>
</g>
<!-- Node7&#45;&gt;Node10 -->
<g id="edge9" class="edge"><title>Node7&#45;&gt;Node10</title>
<path fill="none" stroke="midnightblue" d="M364.388,-100.799C342.295,-103.092 319.228,-105.486 299.153,-107.569"/>
<polygon fill="midnightblue" stroke="midnightblue" points="364.871,-104.268 374.456,-99.7546 364.148,-97.3056 364.871,-104.268"/>
</g>
<!-- Node9 -->
<g id="node9" class="node"><title>Node9</title>
<g id="a_node9"><a xlink:href="../../dd/d52/class_obj_1_1_c_walk_component.html#a93a603eb6f32522550b740ce8d56900d" target="_top" xlink:title=" ">
<polygon fill="white" stroke="black" points="0,-24.5 0,-54.5 116,-54.5 116,-24.5 0,-24.5"/>
<text text-anchor="start" x="8" y="-42.5" font-family="Helvetica,sans-Serif" font-size="10.00">Obj::CWalkComponent</text>
<text text-anchor="middle" x="58" y="-31.5" font-family="Helvetica,sans-Serif" font-size="10.00">::Update</text>
</a>
</g>
</g>
<!-- Node8&#45;&gt;Node9 -->
<g id="edge8" class="edge"><title>Node8&#45;&gt;Node9</title>
<path fill="none" stroke="midnightblue" d="M172.592,-55.1895C154.048,-52.6281 134.117,-49.8753 116.207,-47.4016"/>
<polygon fill="midnightblue" stroke="midnightblue" points="172.346,-58.6886 182.73,-56.5898 173.303,-51.7544 172.346,-58.6886"/>
</g>
<!-- Node11 -->
<g id="node11" class="node"><title>Node11</title>
<g id="a_node11"><a xlink:href="../../d5/d58/class_obj_1_1_c_rider_component.html#a541e39cf0541919fede6f6048d9ee72d" target="_top" xlink:title=" ">
<polygon fill="white" stroke="black" points="0,-98.5 0,-128.5 116,-128.5 116,-98.5 0,-98.5"/>
<text text-anchor="start" x="8" y="-116.5" font-family="Helvetica,sans-Serif" font-size="10.00">Obj::CRiderComponent</text>
<text text-anchor="middle" x="58" y="-105.5" font-family="Helvetica,sans-Serif" font-size="10.00">::Update</text>
</a>
</g>
</g>
<!-- Node10&#45;&gt;Node11 -->
<g id="edge10" class="edge"><title>Node10&#45;&gt;Node11</title>
<path fill="none" stroke="midnightblue" d="M172.592,-113.5C154.048,-113.5 134.117,-113.5 116.207,-113.5"/>
<polygon fill="midnightblue" stroke="midnightblue" points="172.731,-117 182.73,-113.5 172.73,-110 172.731,-117"/>
</g>
<!-- Node13 -->
<g id="node13" class="node"><title>Node13</title>
<g id="a_node13"><a xlink:href="../../d2/d61/class_obj_1_1_c_skater_core_physics_component.html#ac0a7b3aab2a95b3824bf411253578223" target="_top" xlink:title=" ">
<polygon fill="white" stroke="black" points="366,-184.5 366,-214.5 544,-214.5 544,-184.5 366,-184.5"/>
<text text-anchor="start" x="374" y="-202.5" font-family="Helvetica,sans-Serif" font-size="10.00">Obj::CSkaterCorePhysicsComponent</text>
<text text-anchor="middle" x="455" y="-191.5" font-family="Helvetica,sans-Serif" font-size="10.00">::do_on_ground_physics</text>
</a>
</g>
</g>
<!-- Node12&#45;&gt;Node13 -->
<g id="edge12" class="edge"><title>Node12&#45;&gt;Node13</title>
<path fill="none" stroke="midnightblue" d="M569.893,-200.574C561.3,-200.493 552.637,-200.412 544.132,-200.331"/>
<polygon fill="midnightblue" stroke="midnightblue" points="569.902,-204.075 579.935,-200.669 569.968,-197.075 569.902,-204.075"/>
</g>
<!-- Node13&#45;&gt;Node4 -->
<g id="edge13" class="edge"><title>Node13&#45;&gt;Node4</title>
<path fill="none" stroke="midnightblue" d="M355.893,-193.947C347.3,-193.46 338.637,-192.97 330.132,-192.489"/>
<polygon fill="midnightblue" stroke="midnightblue" points="355.753,-197.444 365.935,-194.515 356.148,-190.456 355.753,-197.444"/>
</g>
<!-- Node15 -->
<g id="node15" class="node"><title>Node15</title>
<g id="a_node15"><a xlink:href="../../dd/d52/class_obj_1_1_c_walk_component.html#a00a59f4e756358f5ad9e35744c40c4a9" target="_top" xlink:title=" ">
<polygon fill="white" stroke="black" points="397,-16 397,-57 513,-57 513,-16 397,-16"/>
<text text-anchor="start" x="405" y="-45" font-family="Helvetica,sans-Serif" font-size="10.00">Obj::CWalkComponent</text>
<text text-anchor="start" x="405" y="-34" font-family="Helvetica,sans-Serif" font-size="10.00">::adjust_horizonal_vel</text>
<text text-anchor="middle" x="455" y="-23" font-family="Helvetica,sans-Serif" font-size="10.00">_for_environment</text>
</a>
</g>
</g>
<!-- Node14&#45;&gt;Node15 -->
<g id="edge15" class="edge"><title>Node14&#45;&gt;Node15</title>
<path fill="none" stroke="midnightblue" d="M1021.81,-57.718C892.747,-52.878 629.569,-43.0088 513.352,-38.6507"/>
<polygon fill="midnightblue" stroke="midnightblue" points="1021.88,-61.2227 1032,-58.1 1022.14,-54.2276 1021.88,-61.2227"/>
</g>
<!-- Node15&#45;&gt;Node8 -->
<g id="edge18" class="edge"><title>Node15&#45;&gt;Node8</title>
<path fill="none" stroke="midnightblue" d="M386.742,-45.3831C358.579,-49.1027 326.185,-53.3812 299.193,-56.9462"/>
<polygon fill="midnightblue" stroke="midnightblue" points="387.453,-48.8197 396.909,-44.0403 386.537,-41.8799 387.453,-48.8197"/>
</g>
<!-- Node16 -->
<g id="node16" class="node"><title>Node16</title>
<g id="a_node16"><a xlink:href="../../dd/d52/class_obj_1_1_c_walk_component.html#a40ceeaea9d8d11dd084f85e5f1a9c6b1" target="_top" xlink:title=" ">
<polygon fill="white" stroke="black" points="183,-0.5 183,-30.5 299,-30.5 299,-0.5 183,-0.5"/>
<text text-anchor="start" x="191" y="-18.5" font-family="Helvetica,sans-Serif" font-size="10.00">Obj::CWalkComponent</text>
<text text-anchor="middle" x="241" y="-7.5" font-family="Helvetica,sans-Serif" font-size="10.00">::go_in_air_state</text>
</a>
</g>
</g>
<!-- Node15&#45;&gt;Node16 -->
<g id="edge16" class="edge"><title>Node15&#45;&gt;Node16</title>
<path fill="none" stroke="midnightblue" d="M386.742,-29.8377C358.579,-27.0479 326.185,-23.8391 299.193,-21.1653"/>
<polygon fill="midnightblue" stroke="midnightblue" points="386.613,-33.3419 396.909,-30.8448 387.303,-26.376 386.613,-33.3419"/>
</g>
<!-- Node16&#45;&gt;Node9 -->
<g id="edge17" class="edge"><title>Node16&#45;&gt;Node9</title>
<path fill="none" stroke="midnightblue" d="M172.592,-24.438C154.048,-26.897 134.117,-29.5397 116.207,-31.9145"/>
<polygon fill="midnightblue" stroke="midnightblue" points="173.277,-27.8779 182.73,-23.0938 172.357,-20.9387 173.277,-27.8779"/>
</g>
<!-- Node18 -->
<g id="node18" class="node"><title>Node18</title>
<g id="a_node18"><a xlink:href="../../d2/d61/class_obj_1_1_c_skater_core_physics_component.html#a84ec32db290f8ffb64af24000673ee1a" target="_top" xlink:title=" ">
<polygon fill="white" stroke="black" points="794,-197.5 794,-227.5 972,-227.5 972,-197.5 794,-197.5"/>
<text text-anchor="start" x="802" y="-215.5" font-family="Helvetica,sans-Serif" font-size="10.00">Obj::CSkaterCorePhysicsComponent</text>
<text text-anchor="middle" x="883" y="-204.5" font-family="Helvetica,sans-Serif" font-size="10.00">::maybe_break_vert</text>
</a>
</g>
</g>
<!-- Node17&#45;&gt;Node18 -->
<g id="edge20" class="edge"><title>Node17&#45;&gt;Node18</title>
<path fill="none" stroke="midnightblue" d="M997.893,-203.367C989.3,-204.056 980.637,-204.751 972.132,-205.433"/>
<polygon fill="midnightblue" stroke="midnightblue" points="998.246,-206.85 1007.93,-202.562 997.687,-199.872 998.246,-206.85"/>
</g>
<!-- Node18&#45;&gt;Node3 -->
<g id="edge21" class="edge"><title>Node18&#45;&gt;Node3</title>
<path fill="none" stroke="midnightblue" d="M821.125,-194.612C801.044,-188.769 778.583,-182.294 758,-176.5 747.635,-173.582 736.567,-170.521 725.901,-167.599"/>
<polygon fill="midnightblue" stroke="midnightblue" points="820.193,-197.986 830.773,-197.424 822.152,-191.266 820.193,-197.986"/>
</g>
<!-- Node18&#45;&gt;Node12 -->
<g id="edge22" class="edge"><title>Node18&#45;&gt;Node12</title>
<path fill="none" stroke="midnightblue" d="M783.893,-207.41C775.3,-206.964 766.637,-206.514 758.132,-206.073"/>
<polygon fill="midnightblue" stroke="midnightblue" points="783.767,-210.908 793.935,-207.931 784.129,-203.917 783.767,-210.908"/>
</g>
</g>
</svg>
