<?xml version="1.0" encoding="UTF-8" standalone="no"?>
<!DOCTYPE svg PUBLIC "-//W3C//DTD SVG 1.1//EN"
 "http://www.w3.org/Graphics/SVG/1.1/DTD/svg11.dtd">
<!-- Generated by graphviz version 2.38.0 (20140413.2041)
 -->
<!-- Title: Obj::CObject::SpawnScriptPlease Pages: 1 -->
<svg width="1652pt" height="322pt"
 viewBox="0.00 0.00 1652.00 322.00" xmlns="http://www.w3.org/2000/svg" xmlns:xlink="http://www.w3.org/1999/xlink">
<g id="graph0" class="graph" transform="scale(1 1) rotate(0) translate(4 318)">
<title>Obj::CObject::SpawnScriptPlease</title>
<polygon fill="white" stroke="none" points="-4,4 -4,-318 1648,-318 1648,4 -4,4"/>
<!-- Node1 -->
<g id="node1" class="node"><title>Node1</title>
<g id="a_node1"><a xlink:title=" ">
<polygon fill="#bfbfbf" stroke="black" points="0,-109 0,-139 134,-139 134,-109 0,-109"/>
<text text-anchor="start" x="8" y="-127" font-family="Helvetica,sans-Serif" font-size="10.00">Obj::CObject::SpawnScript</text>
<text text-anchor="middle" x="67" y="-116" font-family="Helvetica,sans-Serif" font-size="10.00">Please</text>
</a>
</g>
</g>
<!-- Node2 -->
<g id="node2" class="node"><title>Node2</title>
<g id="a_node2"><a xlink:href="../../d1/d54/namespace_script.html#abd06bad9c984b4ce132ede5d223e20f9" target="_top" xlink:title=" ">
<polygon fill="white" stroke="black" points="170,-114.5 170,-133.5 273,-133.5 273,-114.5 170,-114.5"/>
<text text-anchor="middle" x="221.5" y="-121.5" font-family="Helvetica,sans-Serif" font-size="10.00">Script::SpawnScript</text>
</a>
</g>
</g>
<!-- Node1&#45;&gt;Node2 -->
<g id="edge1" class="edge"><title>Node1&#45;&gt;Node2</title>
<path fill="none" stroke="midnightblue" d="M134.002,-124C142.472,-124 151.113,-124 159.499,-124"/>
<polygon fill="midnightblue" stroke="midnightblue" points="159.571,-127.5 169.571,-124 159.571,-120.5 159.571,-127.5"/>
</g>
<!-- Node3 -->
<g id="node3" class="node"><title>Node3</title>
<g id="a_node3"><a xlink:href="../../d1/d54/namespace_script.html#ae80ed69ea4edcbcbbbd4985a6efdcd6e" target="_top" xlink:title=" ">
<polygon fill="white" stroke="black" points="1146,-266.5 1146,-285.5 1285,-285.5 1285,-266.5 1146,-266.5"/>
<text text-anchor="middle" x="1215.5" y="-273.5" font-family="Helvetica,sans-Serif" font-size="10.00">Script::FindChecksumName</text>
</a>
</g>
</g>
<!-- Node2&#45;&gt;Node3 -->
<g id="edge2" class="edge"><title>Node2&#45;&gt;Node3</title>
<path fill="none" stroke="midnightblue" d="M231.561,-133.683C268.822,-172.402 415.388,-314 566,-314 566,-314 566,-314 918.5,-314 1002.86,-314 1099.66,-298.626 1158.94,-287.436"/>
<polygon fill="midnightblue" stroke="midnightblue" points="1159.68,-290.858 1168.84,-285.54 1158.36,-283.983 1159.68,-290.858"/>
</g>
<!-- Node7 -->
<g id="node7" class="node"><title>Node7</title>
<g id="a_node7"><a xlink:href="../../d2/d8e/class_game_net_1_1_manager.html#a9ff830a0ca3ff518a45fbc51606b8cf3" target="_top" xlink:title=" ">
<polygon fill="white" stroke="black" points="489,-190.5 489,-209.5 645,-209.5 645,-190.5 489,-190.5"/>
<text text-anchor="middle" x="567" y="-197.5" font-family="Helvetica,sans-Serif" font-size="10.00">GameNet::Manager::InNetGame</text>
</a>
</g>
</g>
<!-- Node2&#45;&gt;Node7 -->
<g id="edge6" class="edge"><title>Node2&#45;&gt;Node7</title>
<path fill="none" stroke="midnightblue" d="M234.523,-133.661C250.482,-145.885 280.033,-166.491 309,-176 363.571,-193.914 427.919,-199.906 478.575,-201.424"/>
<polygon fill="midnightblue" stroke="midnightblue" points="478.759,-204.929 488.842,-201.676 478.931,-197.932 478.759,-204.929"/>
</g>
<!-- Node11 -->
<g id="node11" class="node"><title>Node11</title>
<g id="a_node11"><a xlink:href="../../d1/d54/namespace_script.html#a43181580ea5d38e4bf1aa19ccd5e9e85" target="_top" xlink:title=" ">
<polygon fill="white" stroke="black" points="1014,-190.5 1014,-209.5 1096,-209.5 1096,-190.5 1014,-190.5"/>
<text text-anchor="middle" x="1055" y="-197.5" font-family="Helvetica,sans-Serif" font-size="10.00">Script::Resolve</text>
</a>
</g>
</g>
<!-- Node2&#45;&gt;Node11 -->
<g id="edge19" class="edge"><title>Node2&#45;&gt;Node11</title>
<path fill="none" stroke="midnightblue" d="M260.608,-133.598C275.603,-137.052 293.025,-140.667 309,-143 422.332,-159.55 451.466,-162 566,-162 566,-162 566,-162 759,-162 850.502,-162 873.529,-167.305 964,-181 976.957,-182.961 990.856,-185.618 1003.76,-188.322"/>
<polygon fill="midnightblue" stroke="midnightblue" points="1003.35,-191.813 1013.86,-190.488 1004.82,-184.969 1003.35,-191.813"/>
</g>
<!-- Node16 -->
<g id="node16" class="node"><title>Node16</title>
<g id="a_node16"><a xlink:href="../../d2/d0a/class_mem_1_1_manager.html#a7c4cba14870f002aee0243e16114f443" target="_top" xlink:title=" ">
<polygon fill="white" stroke="black" points="311.5,-76.5 311.5,-95.5 450.5,-95.5 450.5,-76.5 311.5,-76.5"/>
<text text-anchor="middle" x="381" y="-83.5" font-family="Helvetica,sans-Serif" font-size="10.00">Mem::Manager::PopContext</text>
</a>
</g>
</g>
<!-- Node2&#45;&gt;Node16 -->
<g id="edge17" class="edge"><title>Node2&#45;&gt;Node16</title>
<path fill="none" stroke="midnightblue" d="M262.244,-114.411C283.028,-109.396 308.661,-103.212 330.699,-97.8947"/>
<polygon fill="midnightblue" stroke="midnightblue" points="331.642,-101.268 340.542,-95.5201 330,-94.4632 331.642,-101.268"/>
</g>
<!-- Node17 -->
<g id="node17" class="node"><title>Node17</title>
<g id="a_node17"><a xlink:href="../../d2/d0a/class_mem_1_1_manager.html#aaf8e36abc36eecabe46bf2582035192a" target="_top" xlink:title=" ">
<polygon fill="white" stroke="black" points="309,-38.5 309,-57.5 453,-57.5 453,-38.5 309,-38.5"/>
<text text-anchor="middle" x="381" y="-45.5" font-family="Helvetica,sans-Serif" font-size="10.00">Mem::Manager::PushContext</text>
</a>
</g>
</g>
<!-- Node2&#45;&gt;Node17 -->
<g id="edge18" class="edge"><title>Node2&#45;&gt;Node17</title>
<path fill="none" stroke="midnightblue" d="M234.376,-114.364C250.41,-101.795 280.289,-79.8928 309,-67 314.369,-64.589 320.108,-62.43 325.91,-60.5105"/>
<polygon fill="midnightblue" stroke="midnightblue" points="327.151,-63.7908 335.679,-57.5039 325.091,-57.1005 327.151,-63.7908"/>
</g>
<!-- Node18 -->
<g id="node18" class="node"><title>Node18</title>
<g id="a_node18"><a xlink:href="../../d1/d54/namespace_script.html#a94d8a9f577c1a1177c63501e891ca256" target="_top" xlink:title=" ">
<polygon fill="white" stroke="black" points="318.5,-114.5 318.5,-133.5 443.5,-133.5 443.5,-114.5 318.5,-114.5"/>
<text text-anchor="middle" x="381" y="-121.5" font-family="Helvetica,sans-Serif" font-size="10.00">Script::SendSpawnScript</text>
</a>
</g>
</g>
<!-- Node2&#45;&gt;Node18 -->
<g id="edge20" class="edge"><title>Node2&#45;&gt;Node18</title>
<path fill="none" stroke="midnightblue" d="M273.201,-124C284.329,-124 296.317,-124 308.099,-124"/>
<polygon fill="midnightblue" stroke="midnightblue" points="308.373,-127.5 318.373,-124 308.373,-120.5 308.373,-127.5"/>
</g>
<!-- Node23 -->
<g id="node23" class="node"><title>Node23</title>
<g id="a_node23"><a xlink:href="../../d2/d0a/class_mem_1_1_manager.html#a3aefd91781b7f41d35e6df6a32d379d0" target="_top" xlink:title=" ">
<polygon fill="white" stroke="black" points="319.5,-0.5 319.5,-19.5 442.5,-19.5 442.5,-0.5 319.5,-0.5"/>
<text text-anchor="middle" x="381" y="-7.5" font-family="Helvetica,sans-Serif" font-size="10.00">Mem::Manager::sHandle</text>
</a>
</g>
</g>
<!-- Node2&#45;&gt;Node23 -->
<g id="edge26" class="edge"><title>Node2&#45;&gt;Node23</title>
<path fill="none" stroke="midnightblue" d="M228.565,-114.241C241.106,-94.8991 271.847,-51.6174 309,-29 312.556,-26.8353 316.359,-24.9137 320.287,-23.2085"/>
<polygon fill="midnightblue" stroke="midnightblue" points="321.554,-26.4714 329.627,-19.6097 319.037,-19.9395 321.554,-26.4714"/>
</g>
<!-- Node4 -->
<g id="node4" class="node"><title>Node4</title>
<g id="a_node4"><a xlink:href="../../d1/d54/namespace_script.html#a5cc52c4ff5ea5bb27681d819212dfdca" target="_top" xlink:title=" ">
<polygon fill="white" stroke="black" points="1321,-285.5 1321,-304.5 1484,-304.5 1484,-285.5 1321,-285.5"/>
<text text-anchor="middle" x="1402.5" y="-292.5" font-family="Helvetica,sans-Serif" font-size="10.00">Script::FindChecksumNameNULL</text>
</a>
</g>
</g>
<!-- Node3&#45;&gt;Node4 -->
<g id="edge3" class="edge"><title>Node3&#45;&gt;Node4</title>
<path fill="none" stroke="midnightblue" d="M1285.12,-283.048C1293.48,-283.906 1302.11,-284.792 1310.72,-285.676"/>
<polygon fill="midnightblue" stroke="midnightblue" points="1310.49,-289.172 1320.8,-286.712 1311.21,-282.208 1310.49,-289.172"/>
</g>
<!-- Node6 -->
<g id="node6" class="node"><title>Node6</title>
<g id="a_node6"><a xlink:href="../../da/d37/namespace_dbg.html#ab406a8cc16de5046c7d9fd09c9de5e22" target="_top" xlink:title=" ">
<polygon fill="white" stroke="black" points="1369.5,-247.5 1369.5,-266.5 1435.5,-266.5 1435.5,-247.5 1369.5,-247.5"/>
<text text-anchor="middle" x="1402.5" y="-254.5" font-family="Helvetica,sans-Serif" font-size="10.00">Dbg::sprintf</text>
</a>
</g>
</g>
<!-- Node3&#45;&gt;Node6 -->
<g id="edge5" class="edge"><title>Node3&#45;&gt;Node6</title>
<path fill="none" stroke="midnightblue" d="M1285.12,-268.952C1309.98,-266.399 1337.31,-263.593 1359.23,-261.341"/>
<polygon fill="midnightblue" stroke="midnightblue" points="1359.62,-264.82 1369.21,-260.317 1358.9,-257.857 1359.62,-264.82"/>
</g>
<!-- Node5 -->
<g id="node5" class="node"><title>Node5</title>
<g id="a_node5"><a xlink:href="../../d0/d31/namespace_config.html#a709cc81780d49900157e3476b63aa25d" target="_top" xlink:title=" ">
<polygon fill="white" stroke="black" points="1520,-285.5 1520,-304.5 1644,-304.5 1644,-285.5 1520,-285.5"/>
<text text-anchor="middle" x="1582" y="-292.5" font-family="Helvetica,sans-Serif" font-size="10.00">Config::GotExtraMemory</text>
</a>
</g>
</g>
<!-- Node4&#45;&gt;Node5 -->
<g id="edge4" class="edge"><title>Node4&#45;&gt;Node5</title>
<path fill="none" stroke="midnightblue" d="M1484.2,-295C1492.73,-295 1501.36,-295 1509.77,-295"/>
<polygon fill="midnightblue" stroke="midnightblue" points="1509.9,-298.5 1519.9,-295 1509.9,-291.5 1509.9,-298.5"/>
</g>
<!-- Node8 -->
<g id="node8" class="node"><title>Node8</title>
<g id="a_node8"><a xlink:href="../../d1/d54/namespace_script.html#ac722bae4acb2ce23888cb428818f12af" target="_top" xlink:title=" ">
<polygon fill="white" stroke="black" points="721,-266.5 721,-285.5 795,-285.5 795,-266.5 721,-266.5"/>
<text text-anchor="middle" x="758" y="-273.5" font-family="Helvetica,sans-Serif" font-size="10.00">Script::GetInt</text>
</a>
</g>
</g>
<!-- Node7&#45;&gt;Node8 -->
<g id="edge7" class="edge"><title>Node7&#45;&gt;Node8</title>
<path fill="none" stroke="midnightblue" d="M584.324,-209.696C605.841,-222.129 645.166,-243.672 681,-257 690.561,-260.556 701.042,-263.659 711.085,-266.269"/>
<polygon fill="midnightblue" stroke="midnightblue" points="710.382,-269.701 720.931,-268.714 712.069,-262.907 710.382,-269.701"/>
</g>
<!-- Node13 -->
<g id="node13" class="node"><title>Node13</title>
<g id="a_node13"><a xlink:href="../../d2/d8e/class_game_net_1_1_manager.html#ae51fd1e33cefcd3bd0211f6186cc8d30" target="_top" xlink:title=" ">
<polygon fill="white" stroke="black" points="681,-190.5 681,-209.5 835,-209.5 835,-190.5 681,-190.5"/>
<text text-anchor="middle" x="758" y="-197.5" font-family="Helvetica,sans-Serif" font-size="10.00">GameNet::Manager::InNetMode</text>
</a>
</g>
</g>
<!-- Node7&#45;&gt;Node13 -->
<g id="edge14" class="edge"><title>Node7&#45;&gt;Node13</title>
<path fill="none" stroke="midnightblue" d="M645.146,-200C653.491,-200 662.023,-200 670.47,-200"/>
<polygon fill="midnightblue" stroke="midnightblue" points="670.712,-203.5 680.712,-200 670.712,-196.5 670.712,-203.5"/>
</g>
<!-- Node15 -->
<g id="node15" class="node"><title>Node15</title>
<g id="a_node15"><a xlink:href="../../d5/d7d/class_net_1_1_app.html#ab9b195337369cd68da26019ef37e66c7" target="_top" xlink:title=" ">
<polygon fill="white" stroke="black" points="712,-228.5 712,-247.5 804,-247.5 804,-228.5 712,-228.5"/>
<text text-anchor="middle" x="758" y="-235.5" font-family="Helvetica,sans-Serif" font-size="10.00">Net::App::IsLocal</text>
</a>
</g>
</g>
<!-- Node7&#45;&gt;Node15 -->
<g id="edge16" class="edge"><title>Node7&#45;&gt;Node15</title>
<path fill="none" stroke="midnightblue" d="M615.693,-209.589C641.989,-214.876 674.755,-221.464 702.112,-226.964"/>
<polygon fill="midnightblue" stroke="midnightblue" points="701.431,-230.397 711.925,-228.937 702.811,-223.535 701.431,-230.397"/>
</g>
<!-- Node9 -->
<g id="node9" class="node"><title>Node9</title>
<g id="a_node9"><a xlink:href="../../d1/d54/namespace_script.html#aa0c62774649e1e3abcab019ea335a3ad" target="_top" xlink:title=" ">
<polygon fill="white" stroke="black" points="871,-247.5 871,-266.5 964,-266.5 964,-247.5 871,-247.5"/>
<text text-anchor="middle" x="917.5" y="-254.5" font-family="Helvetica,sans-Serif" font-size="10.00">Script::GetInteger</text>
</a>
</g>
</g>
<!-- Node8&#45;&gt;Node9 -->
<g id="edge8" class="edge"><title>Node8&#45;&gt;Node9</title>
<path fill="none" stroke="midnightblue" d="M795.134,-271.641C814.577,-269.295 838.981,-266.351 860.797,-263.72"/>
<polygon fill="midnightblue" stroke="midnightblue" points="861.429,-267.169 870.938,-262.496 860.591,-260.219 861.429,-267.169"/>
</g>
<!-- Node9&#45;&gt;Node3 -->
<g id="edge9" class="edge"><title>Node9&#45;&gt;Node3</title>
<path fill="none" stroke="midnightblue" d="M964.101,-259.927C1009.75,-262.857 1080.89,-267.423 1135.69,-270.941"/>
<polygon fill="midnightblue" stroke="midnightblue" points="1135.52,-274.437 1145.72,-271.585 1135.97,-267.452 1135.52,-274.437"/>
</g>
<!-- Node10 -->
<g id="node10" class="node"><title>Node10</title>
<g id="a_node10"><a xlink:href="../../d1/d54/namespace_script.html#af32f99ba26ca0f255240413a4e23a754" target="_top" xlink:title=" ">
<polygon fill="white" stroke="black" points="1000,-228.5 1000,-247.5 1110,-247.5 1110,-228.5 1000,-228.5"/>
<text text-anchor="middle" x="1055" y="-235.5" font-family="Helvetica,sans-Serif" font-size="10.00">Script::GetTypeName</text>
</a>
</g>
</g>
<!-- Node9&#45;&gt;Node10 -->
<g id="edge10" class="edge"><title>Node9&#45;&gt;Node10</title>
<path fill="none" stroke="midnightblue" d="M964.374,-250.567C972.541,-249.422 981.183,-248.21 989.751,-247.009"/>
<polygon fill="midnightblue" stroke="midnightblue" points="990.324,-250.463 999.741,-245.608 989.352,-243.531 990.324,-250.463"/>
</g>
<!-- Node9&#45;&gt;Node11 -->
<g id="edge11" class="edge"><title>Node9&#45;&gt;Node11</title>
<path fill="none" stroke="midnightblue" d="M937.695,-247.399C954.063,-239.371 978.317,-227.845 1000,-219 1005.06,-216.935 1010.44,-214.881 1015.77,-212.928"/>
<polygon fill="midnightblue" stroke="midnightblue" points="1016.99,-216.209 1025.22,-209.54 1014.62,-209.619 1016.99,-216.209"/>
</g>
<!-- Node11&#45;&gt;Node3 -->
<g id="edge12" class="edge"><title>Node11&#45;&gt;Node3</title>
<path fill="none" stroke="midnightblue" d="M1085.76,-209.508C1093.74,-212.316 1102.28,-215.564 1110,-219 1138.32,-231.609 1169.34,-249.015 1190.16,-261.265"/>
<polygon fill="midnightblue" stroke="midnightblue" points="1188.58,-264.398 1198.97,-266.495 1192.16,-258.379 1188.58,-264.398"/>
</g>
<!-- Node12 -->
<g id="node12" class="node"><title>Node12</title>
<g id="a_node12"><a xlink:href="../../d1/d54/namespace_script.html#af293a36c230b10de7d8151c2990b233b" target="_top" xlink:title=" ">
<polygon fill="white" stroke="black" points="1158.5,-190.5 1158.5,-209.5 1272.5,-209.5 1272.5,-190.5 1158.5,-190.5"/>
<text text-anchor="middle" x="1215.5" y="-197.5" font-family="Helvetica,sans-Serif" font-size="10.00">Script::LookUpSymbol</text>
</a>
</g>
</g>
<!-- Node11&#45;&gt;Node12 -->
<g id="edge13" class="edge"><title>Node11&#45;&gt;Node12</title>
<path fill="none" stroke="midnightblue" d="M1096.41,-200C1112.12,-200 1130.55,-200 1148.11,-200"/>
<polygon fill="midnightblue" stroke="midnightblue" points="1148.32,-203.5 1158.32,-200 1148.32,-196.5 1148.32,-203.5"/>
</g>
<!-- Node14 -->
<g id="node14" class="node"><title>Node14</title>
<g id="a_node14"><a xlink:href="../../db/d82/class_flags.html#acbb180e12c33dd3ce7393e132f4d136f" target="_top" xlink:title=" ">
<polygon fill="white" stroke="black" points="873,-190.5 873,-209.5 962,-209.5 962,-190.5 873,-190.5"/>
<text text-anchor="middle" x="917.5" y="-197.5" font-family="Helvetica,sans-Serif" font-size="10.00">Flags::TestMask</text>
</a>
</g>
</g>
<!-- Node13&#45;&gt;Node14 -->
<g id="edge15" class="edge"><title>Node13&#45;&gt;Node14</title>
<path fill="none" stroke="midnightblue" d="M835.443,-200C844.682,-200 853.963,-200 862.777,-200"/>
<polygon fill="midnightblue" stroke="midnightblue" points="862.879,-203.5 872.879,-200 862.879,-196.5 862.879,-203.5"/>
</g>
<!-- Node18&#45;&gt;Node7 -->
<g id="edge25" class="edge"><title>Node18&#45;&gt;Node7</title>
<path fill="none" stroke="midnightblue" d="M405.304,-133.625C437.794,-147.045 496.84,-171.434 533.6,-186.617"/>
<polygon fill="midnightblue" stroke="midnightblue" points="532.307,-189.87 542.885,-190.453 534.979,-183.4 532.307,-189.87"/>
</g>
<!-- Node19 -->
<g id="node19" class="node"><title>Node19</title>
<g id="a_node19"><a xlink:href="../../d5/d7d/class_net_1_1_app.html#ab733378173d8bd5e5902f1124907d62b" target="_top" xlink:title=" ">
<polygon fill="white" stroke="black" points="497.5,-103 497.5,-133 636.5,-133 636.5,-103 497.5,-103"/>
<text text-anchor="start" x="505.5" y="-121" font-family="Helvetica,sans-Serif" font-size="10.00">Net::App::EnqueueMessage</text>
<text text-anchor="middle" x="567" y="-110" font-family="Helvetica,sans-Serif" font-size="10.00">ToServer</text>
</a>
</g>
</g>
<!-- Node18&#45;&gt;Node19 -->
<g id="edge21" class="edge"><title>Node18&#45;&gt;Node19</title>
<path fill="none" stroke="midnightblue" d="M443.525,-121.994C457.531,-121.537 472.599,-121.046 487.213,-120.569"/>
<polygon fill="midnightblue" stroke="midnightblue" points="487.359,-124.066 497.239,-120.242 487.131,-117.07 487.359,-124.066"/>
</g>
<!-- Node21 -->
<g id="node21" class="node"><title>Node21</title>
<g id="a_node21"><a xlink:href="../../d2/d8e/class_game_net_1_1_manager.html#aa5990409003c3d0dc975eb8197f19339" target="_top" xlink:title=" ">
<polygon fill="white" stroke="black" points="493,-64.5 493,-83.5 641,-83.5 641,-64.5 493,-64.5"/>
<text text-anchor="middle" x="567" y="-71.5" font-family="Helvetica,sans-Serif" font-size="10.00">GameNet::Manager::GetClient</text>
</a>
</g>
</g>
<!-- Node18&#45;&gt;Node21 -->
<g id="edge23" class="edge"><title>Node18&#45;&gt;Node21</title>
<path fill="none" stroke="midnightblue" d="M419.336,-114.461C430.227,-111.556 442.123,-108.265 453,-105 469.153,-100.151 472.8,-97.6906 489,-93 497.27,-90.6054 506.094,-88.247 514.708,-86.05"/>
<polygon fill="midnightblue" stroke="midnightblue" points="515.829,-89.3777 524.678,-83.5525 514.128,-82.5875 515.829,-89.3777"/>
</g>
<!-- Node22 -->
<g id="node22" class="node"><title>Node22</title>
<g id="a_node22"><a xlink:href="../../df/dde/class_obj_1_1_c_object.html#ad39f6409df17fb6ee459d1071258c645" target="_top" xlink:title=" ">
<polygon fill="white" stroke="black" points="515,-26.5 515,-45.5 619,-45.5 619,-26.5 515,-26.5"/>
<text text-anchor="middle" x="567" y="-33.5" font-family="Helvetica,sans-Serif" font-size="10.00">Obj::CObject::GetID</text>
</a>
</g>
</g>
<!-- Node18&#45;&gt;Node22 -->
<g id="edge24" class="edge"><title>Node18&#45;&gt;Node22</title>
<path fill="none" stroke="midnightblue" d="M434.263,-114.49C440.892,-112.022 447.329,-108.914 453,-105 475.536,-89.4453 466.313,-70.3336 489,-55 493.97,-51.6412 499.477,-48.8754 505.197,-46.598"/>
<polygon fill="midnightblue" stroke="midnightblue" points="506.664,-49.7936 514.963,-43.2078 504.368,-43.1806 506.664,-49.7936"/>
</g>
<!-- Node20 -->
<g id="node20" class="node"><title>Node20</title>
<g id="a_node20"><a xlink:href="../../d5/d7d/class_net_1_1_app.html#aa796b3a0b2e06ff0096c509490961388" target="_top" xlink:title=" ">
<polygon fill="white" stroke="black" points="688.5,-108.5 688.5,-127.5 827.5,-127.5 827.5,-108.5 688.5,-108.5"/>
<text text-anchor="middle" x="758" y="-115.5" font-family="Helvetica,sans-Serif" font-size="10.00">Net::App::EnqueueMessage</text>
</a>
</g>
</g>
<!-- Node19&#45;&gt;Node20 -->
<g id="edge22" class="edge"><title>Node19&#45;&gt;Node20</title>
<path fill="none" stroke="midnightblue" d="M636.501,-118C650.102,-118 664.482,-118 678.39,-118"/>
<polygon fill="midnightblue" stroke="midnightblue" points="678.416,-121.5 688.416,-118 678.416,-114.5 678.416,-121.5"/>
</g>
</g>
</svg>
