<?xml version="1.0" encoding="UTF-8" standalone="no"?>
<!DOCTYPE svg PUBLIC "-//W3C//DTD SVG 1.1//EN"
 "http://www.w3.org/Graphics/SVG/1.1/DTD/svg11.dtd">
<!-- Generated by graphviz version 2.38.0 (20140413.2041)
 -->
<!-- Title: display_legal Pages: 1 -->
<!--zoomable 639 -->
<svg id="main" version="1.1" xmlns="http://www.w3.org/2000/svg" xmlns:xlink="http://www.w3.org/1999/xlink" xml:space="preserve" onload="init(evt)">
<style type="text/css"><![CDATA[
.edge:hover path { stroke: red; }
.edge:hover polygon { stroke: red; fill: red; }
]]></style>
<script type="text/javascript"><![CDATA[
var edges = document.getElementsByTagName('g');
if (edges && edges.length) {
  for (var i=0;i<edges.length;i++) {
    if (edges[i].id.substr(0,4)=='edge') {
      edges[i].setAttribute('class','edge');
    }
  }
}
]]></script>
        <defs>
                <circle id="rim" cx="0" cy="0" r="7"/>
                <circle id="rim2" cx="0" cy="0" r="3.5"/>
                <g id="zoomPlus">
                        <use xlink:href="#rim" fill="#404040">
                                <set attributeName="fill" to="#808080" begin="zoomplus.mouseover" end="zoomplus.mouseout"/>
                        </use>
                        <path d="M-4,0h8M0,-4v8" fill="none" stroke="white" stroke-width="1.5" pointer-events="none"/>
                </g>
                <g id="zoomMin">
                        <use xlink:href="#rim" fill="#404040">
                                <set attributeName="fill" to="#808080" begin="zoomminus.mouseover" end="zoomminus.mouseout"/>
                        </use>
                        <path d="M-4,0h8" fill="none" stroke="white" stroke-width="1.5" pointer-events="none"/>
                </g>
                <g id="dirArrow">
                        <path fill="none" stroke="white" stroke-width="1.5" d="M0,-3.0v7 M-2.5,-0.5L0,-3.0L2.5,-0.5"/>
                </g>
               <g id="resetDef">
                       <use xlink:href="#rim2" fill="#404040">
                               <set attributeName="fill" to="#808080" begin="reset.mouseover" end="reset.mouseout"/>
                       </use>
               </g>
        </defs>

<script type="text/javascript">
var viewWidth = 1975;
var viewHeight = 639;
var sectionId = 'dynsection-21';
</script>
<script xlink:href="../../svgpan.js"/>
<svg id="graph" class="graph">
<g id="viewport">
<title>display_legal</title>
<polygon fill="white" stroke="none" points="-4,4 -4,-634.818 1971,-634.818 1971,4 -4,4"/>
<!-- Node1 -->
<g id="node1" class="node"><title>Node1</title>
<g id="a_node1"><a xlink:title=" ">
<polygon fill="#bfbfbf" stroke="black" points="1894,-156.818 1894,-175.818 1967,-175.818 1967,-156.818 1894,-156.818"/>
<text text-anchor="middle" x="1930.5" y="-163.818" font-family="Helvetica,sans-Serif" font-size="10.00">display_legal</text>
</a>
</g>
</g>
<!-- Node2 -->
<g id="node2" class="node"><title>Node2</title>
<g id="a_node2"><a xlink:href="../../dd/d18/namespace_ns_display.html#a5dd4db09ae8a241f93725498d084375a" target="_top" xlink:title=" ">
<polygon fill="white" stroke="black" points="1741,-156.818 1741,-175.818 1858,-175.818 1858,-156.818 1741,-156.818"/>
<text text-anchor="middle" x="1799.5" y="-163.818" font-family="Helvetica,sans-Serif" font-size="10.00">NsDisplay::Check480P</text>
</a>
</g>
</g>
<!-- Node1&#45;&gt;Node2 -->
<g id="edge1" class="edge"><title>Node1&#45;&gt;Node2</title>
<path fill="none" stroke="midnightblue" d="M1883.75,-166.318C1875.5,-166.318 1866.81,-166.318 1858.27,-166.318"/>
<polygon fill="midnightblue" stroke="midnightblue" points="1883.91,-169.818 1893.91,-166.318 1883.91,-162.818 1883.91,-169.818"/>
</g>
<!-- Node4 -->
<g id="node4" class="node"><title>Node4</title>
<g id="a_node4"><a xlink:href="../../dd/d18/namespace_ns_display.html#a929ae894e55828461788b29db5f49d46" target="_top" xlink:title=" ">
<polygon fill="white" stroke="black" points="1741,-194.818 1741,-213.818 1858,-213.818 1858,-194.818 1741,-194.818"/>
<text text-anchor="middle" x="1799.5" y="-201.818" font-family="Helvetica,sans-Serif" font-size="10.00">NsDisplay::Check60Hz</text>
</a>
</g>
</g>
<!-- Node1&#45;&gt;Node4 -->
<g id="edge3" class="edge"><title>Node1&#45;&gt;Node4</title>
<path fill="none" stroke="midnightblue" d="M1886.95,-178.854C1869.4,-184.023 1849.39,-189.917 1833.04,-194.732"/>
<polygon fill="midnightblue" stroke="midnightblue" points="1888.34,-182.09 1896.95,-175.907 1886.37,-175.376 1888.34,-182.09"/>
</g>
<!-- Node5 -->
<g id="node5" class="node"><title>Node5</title>
<g id="a_node5"><a xlink:href="../../dd/d46/p__dvd_8h.html#a5631ef8041fb98b594a160bf813168d8" target="_top" xlink:title=" ">
<polygon fill="white" stroke="black" points="1757,-118.818 1757,-137.818 1842,-137.818 1842,-118.818 1757,-118.818"/>
<text text-anchor="middle" x="1799.5" y="-125.818" font-family="Helvetica,sans-Serif" font-size="10.00">DVDWaitAsync</text>
</a>
</g>
</g>
<!-- Node1&#45;&gt;Node5 -->
<g id="edge5" class="edge"><title>Node1&#45;&gt;Node5</title>
<path fill="none" stroke="midnightblue" d="M1886.95,-153.783C1869.4,-148.614 1849.39,-142.719 1833.04,-137.904"/>
<polygon fill="midnightblue" stroke="midnightblue" points="1886.37,-157.261 1896.95,-156.729 1888.34,-150.546 1886.37,-157.261"/>
</g>
<!-- Node3 -->
<g id="node3" class="node"><title>Node3</title>
<g id="a_node3"><a xlink:href="../../d5/d12/_main_8cpp.html#a0e18e794c708408ef1dec237965cb73d" target="_top" xlink:title=" ">
<polygon fill="white" stroke="black" points="1640,-194.818 1640,-213.818 1678,-213.818 1678,-194.818 1640,-194.818"/>
<text text-anchor="middle" x="1659" y="-201.818" font-family="Helvetica,sans-Serif" font-size="10.00">main</text>
</a>
</g>
</g>
<!-- Node2&#45;&gt;Node3 -->
<g id="edge2" class="edge"><title>Node2&#45;&gt;Node3</title>
<path fill="none" stroke="midnightblue" d="M1753.68,-178.615C1728.12,-185.627 1697.48,-194.036 1678.36,-199.28"/>
<polygon fill="midnightblue" stroke="midnightblue" points="1754.83,-181.929 1763.55,-175.907 1752.98,-175.178 1754.83,-181.929"/>
</g>
<!-- Node4&#45;&gt;Node3 -->
<g id="edge4" class="edge"><title>Node4&#45;&gt;Node3</title>
<path fill="none" stroke="midnightblue" d="M1730.82,-204.318C1711.34,-204.318 1691.69,-204.318 1678.04,-204.318"/>
<polygon fill="midnightblue" stroke="midnightblue" points="1730.97,-207.818 1740.97,-204.318 1730.97,-200.818 1730.97,-207.818"/>
</g>
<!-- Node6 -->
<g id="node6" class="node"><title>Node6</title>
<g id="a_node6"><a xlink:href="../../de/d1e/p__dvd_8cpp.html#af915797811ad0d00496596d2fa55708c" target="_top" xlink:title=" ">
<polygon fill="white" stroke="black" points="1620,-73.8183 1620,-92.8183 1698,-92.8183 1698,-73.8183 1620,-73.8183"/>
<text text-anchor="middle" x="1659" y="-80.8183" font-family="Helvetica,sans-Serif" font-size="10.00">dvd_read_safe</text>
</a>
</g>
</g>
<!-- Node5&#45;&gt;Node6 -->
<g id="edge6" class="edge"><title>Node5&#45;&gt;Node6</title>
<path fill="none" stroke="midnightblue" d="M1759.61,-115.684C1737.32,-108.441 1709.79,-99.4969 1689.33,-92.8478"/>
<polygon fill="midnightblue" stroke="midnightblue" points="1758.54,-119.013 1769.13,-118.775 1760.7,-112.356 1758.54,-119.013"/>
</g>
<!-- Node13 -->
<g id="node13" class="node"><title>Node13</title>
<g id="a_node13"><a xlink:href="../../dd/d46/p__dvd_8h.html#ae6f7ca6cd23e5143185f3152d2470135" target="_top" xlink:title=" ">
<polygon fill="white" stroke="black" points="1613,-156.818 1613,-175.818 1705,-175.818 1705,-156.818 1613,-156.818"/>
<text text-anchor="middle" x="1659" y="-163.818" font-family="Helvetica,sans-Serif" font-size="10.00">DVDCheckAsync</text>
</a>
</g>
</g>
<!-- Node5&#45;&gt;Node13 -->
<g id="edge16" class="edge"><title>Node5&#45;&gt;Node13</title>
<path fill="none" stroke="midnightblue" d="M1753.87,-140.564C1734.78,-145.802 1712.82,-151.827 1694.94,-156.732"/>
<polygon fill="midnightblue" stroke="midnightblue" points="1754.83,-143.929 1763.55,-137.907 1752.98,-137.178 1754.83,-143.929"/>
</g>
<!-- Node7 -->
<g id="node7" class="node"><title>Node7</title>
<g id="a_node7"><a xlink:href="../../de/d1e/p__dvd_8cpp.html#ad747fd8ccd45f0a07b9c17a1e400e6e0" target="_top" xlink:title=" ">
<polygon fill="white" stroke="black" points="1455,-51.8183 1455,-70.8183 1574,-70.8183 1574,-51.8183 1455,-51.8183"/>
<text text-anchor="middle" x="1514.5" y="-58.8183" font-family="Helvetica,sans-Serif" font-size="10.00">dvd_file_read_anywhere</text>
</a>
</g>
</g>
<!-- Node6&#45;&gt;Node7 -->
<g id="edge7" class="edge"><title>Node6&#45;&gt;Node7</title>
<path fill="none" stroke="midnightblue" d="M1609.64,-75.8515C1598.24,-74.0928 1585.98,-72.1994 1574.19,-70.3791"/>
<polygon fill="midnightblue" stroke="midnightblue" points="1609.4,-79.3558 1619.81,-77.4227 1610.46,-72.4378 1609.4,-79.3558"/>
</g>
<!-- Node8 -->
<g id="node8" class="node"><title>Node8</title>
<g id="a_node8"><a xlink:href="../../de/d1e/p__dvd_8cpp.html#a5588e22b628da0d382b2f568c0d37937" target="_top" xlink:title=" ">
<polygon fill="white" stroke="black" points="1306.5,-13.8183 1306.5,-32.8183 1400.5,-32.8183 1400.5,-13.8183 1306.5,-13.8183"/>
<text text-anchor="middle" x="1353.5" y="-20.8183" font-family="Helvetica,sans-Serif" font-size="10.00">dvd_file_fill_cache</text>
</a>
</g>
</g>
<!-- Node7&#45;&gt;Node8 -->
<g id="edge8" class="edge"><title>Node7&#45;&gt;Node8</title>
<path fill="none" stroke="midnightblue" d="M1463.42,-49.3503C1441.14,-44.0252 1415.27,-37.842 1394.33,-32.8383"/>
<polygon fill="midnightblue" stroke="midnightblue" points="1462.84,-52.8088 1473.38,-51.7293 1464.47,-46.0006 1462.84,-52.8088"/>
</g>
<!-- Node9 -->
<g id="node9" class="node"><title>Node9</title>
<g id="a_node9"><a xlink:href="../../de/d1e/p__dvd_8cpp.html#a2d0cba811e59739915f30ca17445dfb9" target="_top" xlink:title=" ">
<polygon fill="white" stroke="black" points="1142.5,-13.8183 1142.5,-32.8183 1214.5,-32.8183 1214.5,-13.8183 1142.5,-13.8183"/>
<text text-anchor="middle" x="1178.5" y="-20.8183" font-family="Helvetica,sans-Serif" font-size="10.00">dvd_file_read</text>
</a>
</g>
</g>
<!-- Node7&#45;&gt;Node9 -->
<g id="edge15" class="edge"><title>Node7&#45;&gt;Node9</title>
<path fill="none" stroke="midnightblue" d="M1444.78,-56.9395C1400.72,-53.7651 1342.38,-48.8775 1291,-42.3183 1265.29,-39.0356 1236.45,-34.0867 1214.54,-30.0626"/>
<polygon fill="midnightblue" stroke="midnightblue" points="1444.58,-60.4341 1454.8,-57.6501 1445.07,-53.4516 1444.58,-60.4341"/>
</g>
<!-- Node8&#45;&gt;Node9 -->
<g id="edge9" class="edge"><title>Node8&#45;&gt;Node9</title>
<path fill="none" stroke="midnightblue" d="M1296.11,-23.3183C1269.31,-23.3183 1238.11,-23.3183 1214.73,-23.3183"/>
<polygon fill="midnightblue" stroke="midnightblue" points="1296.14,-26.8184 1306.14,-23.3183 1296.14,-19.8184 1296.14,-26.8184"/>
</g>
<!-- Node10 -->
<g id="node10" class="node"><title>Node10</title>
<g id="a_node10"><a xlink:href="../../de/d1e/p__dvd_8cpp.html#adccca3cc52084b81293785dd7701205a" target="_top" xlink:title=" ">
<polygon fill="white" stroke="black" points="944,-13.8183 944,-32.8183 1051,-32.8183 1051,-13.8183 944,-13.8183"/>
<text text-anchor="middle" x="997.5" y="-20.8183" font-family="Helvetica,sans-Serif" font-size="10.00">dvd_file_getcharacter</text>
</a>
</g>
</g>
<!-- Node9&#45;&gt;Node10 -->
<g id="edge10" class="edge"><title>Node9&#45;&gt;Node10</title>
<path fill="none" stroke="midnightblue" d="M1131.97,-23.3183C1107.32,-23.3183 1076.76,-23.3183 1051.1,-23.3183"/>
<polygon fill="midnightblue" stroke="midnightblue" points="1132.14,-26.8184 1142.14,-23.3183 1132.14,-19.8184 1132.14,-26.8184"/>
</g>
<!-- Node12 -->
<g id="node12" class="node"><title>Node12</title>
<g id="a_node12"><a xlink:href="../../dd/d46/p__dvd_8h.html#a3f7e754a2f99a517f16bc88a00e329d1" target="_top" xlink:title=" ">
<polygon fill="white" stroke="black" points="587,-13.8183 587,-32.8183 673,-32.8183 673,-13.8183 587,-13.8183"/>
<text text-anchor="middle" x="630" y="-20.8183" font-family="Helvetica,sans-Serif" font-size="10.00">DVDFileAccess</text>
</a>
</g>
</g>
<!-- Node9&#45;&gt;Node12 -->
<g id="edge14" class="edge"><title>Node9&#45;&gt;Node12</title>
<path fill="none" stroke="midnightblue" d="M1132.42,-13.8558C1112.21,-10.0747 1088.01,-6.18026 1066,-4.31826 922.132,7.85188 750.796,-8.71457 673.065,-17.9118"/>
<polygon fill="midnightblue" stroke="midnightblue" points="1131.81,-17.303 1142.29,-15.7522 1133.13,-10.4286 1131.81,-17.303"/>
</g>
<!-- Node11 -->
<g id="node11" class="node"><title>Node11</title>
<g id="a_node11"><a xlink:href="../../de/d1e/p__dvd_8cpp.html#a7843ac1c76a3a92251438fb42a65669c" target="_top" xlink:title=" ">
<polygon fill="white" stroke="black" points="781,-51.8183 781,-70.8183 853,-70.8183 853,-51.8183 781,-51.8183"/>
<text text-anchor="middle" x="817" y="-58.8183" font-family="Helvetica,sans-Serif" font-size="10.00">dvd_file_gets</text>
</a>
</g>
</g>
<!-- Node10&#45;&gt;Node11 -->
<g id="edge11" class="edge"><title>Node10&#45;&gt;Node11</title>
<path fill="none" stroke="midnightblue" d="M941.534,-35.0197C912.751,-41.1471 878.358,-48.4689 853.179,-53.8291"/>
<polygon fill="midnightblue" stroke="midnightblue" points="942.405,-38.4128 951.457,-32.9073 940.947,-31.5662 942.405,-38.4128"/>
</g>
<!-- Node10&#45;&gt;Node12 -->
<g id="edge13" class="edge"><title>Node10&#45;&gt;Node12</title>
<path fill="none" stroke="midnightblue" d="M933.562,-23.3183C859.1,-23.3183 737.19,-23.3183 673.217,-23.3183"/>
<polygon fill="midnightblue" stroke="midnightblue" points="933.744,-26.8184 943.744,-23.3183 933.743,-19.8184 933.744,-26.8184"/>
</g>
<!-- Node11&#45;&gt;Node12 -->
<g id="edge12" class="edge"><title>Node11&#45;&gt;Node12</title>
<path fill="none" stroke="midnightblue" d="M770.651,-52.0034C740.92,-45.8965 702.318,-37.9675 673.236,-31.9938"/>
<polygon fill="midnightblue" stroke="midnightblue" points="770.268,-55.4976 780.767,-54.0813 771.676,-48.6408 770.268,-55.4976"/>
</g>
<!-- Node14 -->
<g id="node14" class="node"><title>Node14</title>
<g id="a_node14"><a xlink:href="../../de/d3e/namespace_pcm.html#a8488310aee3f720c9b123abd9c270402" target="_top" xlink:title=" ">
<polygon fill="white" stroke="black" points="1452,-212.818 1452,-231.818 1577,-231.818 1577,-212.818 1452,-212.818"/>
<text text-anchor="middle" x="1514.5" y="-219.818" font-family="Helvetica,sans-Serif" font-size="10.00">Pcm::PCMAudio_Update</text>
</a>
</g>
</g>
<!-- Node13&#45;&gt;Node14 -->
<g id="edge17" class="edge"><title>Node13&#45;&gt;Node14</title>
<path fill="none" stroke="midnightblue" d="M1624.04,-179.664C1598.05,-189.876 1562.85,-203.71 1539.68,-212.817"/>
<polygon fill="midnightblue" stroke="midnightblue" points="1625.48,-182.86 1633.5,-175.945 1622.92,-176.345 1625.48,-182.86"/>
</g>
<!-- Node15 -->
<g id="node15" class="node"><title>Node15</title>
<g id="a_node15"><a xlink:href="../../da/d63/namespace_nx_ngc.html#a253d74fc19d3a41519642cbeee6f96f6" target="_top" xlink:title=" ">
<polygon fill="white" stroke="black" points="1291,-245.818 1291,-264.818 1416,-264.818 1416,-245.818 1291,-245.818"/>
<text text-anchor="middle" x="1353.5" y="-252.818" font-family="Helvetica,sans-Serif" font-size="10.00">NxNgc::do_audio_update</text>
</a>
</g>
</g>
<!-- Node14&#45;&gt;Node15 -->
<g id="edge18" class="edge"><title>Node14&#45;&gt;Node15</title>
<path fill="none" stroke="midnightblue" d="M1457.63,-233.914C1438.9,-237.8 1418.26,-242.086 1400.39,-245.795"/>
<polygon fill="midnightblue" stroke="midnightblue" points="1458.43,-237.322 1467.51,-231.863 1457.01,-230.469 1458.43,-237.322"/>
</g>
<!-- Node19 -->
<g id="node19" class="node"><title>Node19</title>
<g id="a_node19"><a xlink:href="../../d1/d06/namespace_nx.html#a3f259ea8efce4da7e2c65cdcc583e037" target="_top" xlink:title=" ">
<polygon fill="white" stroke="black" points="1299.5,-179.818 1299.5,-198.818 1407.5,-198.818 1407.5,-179.818 1299.5,-179.818"/>
<text text-anchor="middle" x="1353.5" y="-186.818" font-family="Helvetica,sans-Serif" font-size="10.00">Nx::do_audio_update</text>
</a>
</g>
</g>
<!-- Node14&#45;&gt;Node19 -->
<g id="edge22" class="edge"><title>Node14&#45;&gt;Node19</title>
<path fill="none" stroke="midnightblue" d="M1457.63,-210.722C1438.9,-206.836 1418.26,-202.551 1400.39,-198.842"/>
<polygon fill="midnightblue" stroke="midnightblue" points="1457.01,-214.168 1467.51,-212.773 1458.43,-207.314 1457.01,-214.168"/>
</g>
<!-- Node28 -->
<g id="node28" class="node"><title>Node28</title>
<g id="a_node28"><a xlink:href="../../de/d3e/namespace_pcm.html#af405ca6aedfbd64805e40505bd0004ab" target="_top" xlink:title=" ">
<polygon fill="white" stroke="black" points="1316.5,-335.818 1316.5,-354.818 1390.5,-354.818 1390.5,-335.818 1316.5,-335.818"/>
<text text-anchor="middle" x="1353.5" y="-342.818" font-family="Helvetica,sans-Serif" font-size="10.00">Pcm::Update</text>
</a>
</g>
</g>
<!-- Node14&#45;&gt;Node28 -->
<g id="edge37" class="edge"><title>Node14&#45;&gt;Node28</title>
<path fill="none" stroke="midnightblue" d="M1492.85,-238.293C1459.35,-264.211 1394.15,-314.646 1366.92,-335.711"/>
<polygon fill="midnightblue" stroke="midnightblue" points="1495.26,-240.857 1501.02,-231.97 1490.97,-235.32 1495.26,-240.857"/>
</g>
<!-- Node16 -->
<g id="node16" class="node"><title>Node16</title>
<g id="a_node16"><a xlink:href="../../da/d63/namespace_nx_ngc.html#a7377a034ee1b279a116a22780e81cba9" target="_top" xlink:title=" ">
<polygon fill="white" stroke="black" points="1129,-297.818 1129,-316.818 1228,-316.818 1228,-297.818 1129,-297.818"/>
<text text-anchor="middle" x="1178.5" y="-304.818" font-family="Helvetica,sans-Serif" font-size="10.00">NxNgc::hide_mesh</text>
</a>
</g>
</g>
<!-- Node15&#45;&gt;Node16 -->
<g id="edge19" class="edge"><title>Node15&#45;&gt;Node16</title>
<path fill="none" stroke="midnightblue" d="M1315.29,-268.095C1297.17,-274.169 1275.03,-281.383 1255,-287.318 1242.78,-290.939 1229.35,-294.597 1217.26,-297.778"/>
<polygon fill="midnightblue" stroke="midnightblue" points="1316.54,-271.366 1324.9,-264.853 1314.3,-264.733 1316.54,-271.366"/>
</g>
<!-- Node17 -->
<g id="node17" class="node"><title>Node17</title>
<g id="a_node17"><a xlink:href="../../d7/df2/struct_nx_ngc_1_1s_scene.html#aef277fe95ac12d8bbaf3a4c36045e6a5" target="_top" xlink:title=" ">
<polygon fill="white" stroke="black" points="930,-294.818 930,-313.818 1065,-313.818 1065,-294.818 930,-294.818"/>
<text text-anchor="middle" x="997.5" y="-301.818" font-family="Helvetica,sans-Serif" font-size="10.00">NxNgc::sScene::HidePolys</text>
</a>
</g>
</g>
<!-- Node16&#45;&gt;Node17 -->
<g id="edge20" class="edge"><title>Node16&#45;&gt;Node17</title>
<path fill="none" stroke="midnightblue" d="M1118.23,-306.325C1101.22,-306.04 1082.56,-305.727 1065.14,-305.435"/>
<polygon fill="midnightblue" stroke="midnightblue" points="1118.53,-309.83 1128.59,-306.498 1118.65,-302.831 1118.53,-309.83"/>
</g>
<!-- Node18 -->
<g id="node18" class="node"><title>Node18</title>
<g id="a_node18"><a xlink:href="../../de/dc7/class_nx_1_1_c_ngc_geom.html#a057ff249f27275f1a91ce3132340928b" target="_top" xlink:title=" ">
<polygon fill="white" stroke="black" points="763.5,-287.318 763.5,-317.318 870.5,-317.318 870.5,-287.318 763.5,-287.318"/>
<text text-anchor="start" x="771.5" y="-305.318" font-family="Helvetica,sans-Serif" font-size="10.00">Nx::CNgcGeom::plat</text>
<text text-anchor="middle" x="817" y="-294.318" font-family="Helvetica,sans-Serif" font-size="10.00">_hide_polys</text>
</a>
</g>
</g>
<!-- Node17&#45;&gt;Node18 -->
<g id="edge21" class="edge"><title>Node17&#45;&gt;Node18</title>
<path fill="none" stroke="midnightblue" d="M919.605,-303.457C903.112,-303.272 886.046,-303.081 870.717,-302.909"/>
<polygon fill="midnightblue" stroke="midnightblue" points="919.741,-306.958 929.779,-303.571 919.819,-299.959 919.741,-306.958"/>
</g>
<!-- Node20 -->
<g id="node20" class="node"><title>Node20</title>
<g id="a_node20"><a xlink:href="../../de/dc7/class_nx_1_1_c_ngc_geom.html#a501b43f26595047755b77ddd402d7300" target="_top" xlink:title=" ">
<polygon fill="white" stroke="black" points="1120,-248.318 1120,-278.318 1237,-278.318 1237,-248.318 1120,-248.318"/>
<text text-anchor="start" x="1128" y="-266.318" font-family="Helvetica,sans-Serif" font-size="10.00">Nx::CNgcGeom::plat</text>
<text text-anchor="middle" x="1178.5" y="-255.318" font-family="Helvetica,sans-Serif" font-size="10.00">_get_num_render_verts</text>
</a>
</g>
</g>
<!-- Node19&#45;&gt;Node20 -->
<g id="edge23" class="edge"><title>Node19&#45;&gt;Node20</title>
<path fill="none" stroke="midnightblue" d="M1326.42,-203.735C1307.06,-214.113 1279.82,-228.038 1255,-238.318 1246.58,-241.806 1237.48,-245.157 1228.62,-248.21"/>
<polygon fill="midnightblue" stroke="midnightblue" points="1328.12,-206.795 1335.25,-198.956 1324.79,-200.638 1328.12,-206.795"/>
</g>
<!-- Node24 -->
<g id="node24" class="node"><title>Node24</title>
<g id="a_node24"><a xlink:href="../../de/dc7/class_nx_1_1_c_ngc_geom.html#a6a86400de3b2d0b1d6f782935dacaf9f" target="_top" xlink:title=" ">
<polygon fill="white" stroke="black" points="1125,-199.318 1125,-229.318 1232,-229.318 1232,-199.318 1125,-199.318"/>
<text text-anchor="start" x="1133" y="-217.318" font-family="Helvetica,sans-Serif" font-size="10.00">Nx::CNgcGeom::plat</text>
<text text-anchor="middle" x="1178.5" y="-206.318" font-family="Helvetica,sans-Serif" font-size="10.00">_get_render_colors</text>
</a>
</g>
</g>
<!-- Node19&#45;&gt;Node24 -->
<g id="edge27" class="edge"><title>Node19&#45;&gt;Node24</title>
<path fill="none" stroke="midnightblue" d="M1289.23,-198.462C1270.44,-201.176 1250.07,-204.12 1232.05,-206.725"/>
<polygon fill="midnightblue" stroke="midnightblue" points="1289.79,-201.917 1299.18,-197.023 1288.78,-194.989 1289.79,-201.917"/>
</g>
<!-- Node25 -->
<g id="node25" class="node"><title>Node25</title>
<g id="a_node25"><a xlink:href="../../de/dc7/class_nx_1_1_c_ngc_geom.html#a81b62b52115b11f92730f6dc10bfd886" target="_top" xlink:title=" ">
<polygon fill="white" stroke="black" points="1125,-101.318 1125,-131.318 1232,-131.318 1232,-101.318 1125,-101.318"/>
<text text-anchor="start" x="1133" y="-119.318" font-family="Helvetica,sans-Serif" font-size="10.00">Nx::CNgcGeom::plat</text>
<text text-anchor="middle" x="1178.5" y="-108.318" font-family="Helvetica,sans-Serif" font-size="10.00">_get_render_verts</text>
</a>
</g>
</g>
<!-- Node19&#45;&gt;Node25 -->
<g id="edge28" class="edge"><title>Node19&#45;&gt;Node25</title>
<path fill="none" stroke="midnightblue" d="M1326.81,-175.002C1307.44,-164.56 1280.03,-150.511 1255,-140.318 1247.23,-137.154 1238.88,-134.135 1230.66,-131.372"/>
<polygon fill="midnightblue" stroke="midnightblue" points="1325.16,-178.094 1335.62,-179.806 1328.51,-171.947 1325.16,-178.094"/>
</g>
<!-- Node26 -->
<g id="node26" class="node"><title>Node26</title>
<g id="a_node26"><a xlink:href="../../de/dc7/class_nx_1_1_c_ngc_geom.html#a2d968043e64af6d07c42c0ee1e06c942" target="_top" xlink:title=" ">
<polygon fill="white" stroke="black" points="1125,-150.318 1125,-180.318 1232,-180.318 1232,-150.318 1125,-150.318"/>
<text text-anchor="start" x="1133" y="-168.318" font-family="Helvetica,sans-Serif" font-size="10.00">Nx::CNgcGeom::plat</text>
<text text-anchor="middle" x="1178.5" y="-157.318" font-family="Helvetica,sans-Serif" font-size="10.00">_set_render_colors</text>
</a>
</g>
</g>
<!-- Node19&#45;&gt;Node26 -->
<g id="edge32" class="edge"><title>Node19&#45;&gt;Node26</title>
<path fill="none" stroke="midnightblue" d="M1289.23,-180.541C1270.44,-177.934 1250.07,-175.109 1232.05,-172.608"/>
<polygon fill="midnightblue" stroke="midnightblue" points="1288.8,-184.014 1299.18,-181.922 1289.76,-177.081 1288.8,-184.014"/>
</g>
<!-- Node27 -->
<g id="node27" class="node"><title>Node27</title>
<g id="a_node27"><a xlink:href="../../de/dc7/class_nx_1_1_c_ngc_geom.html#aeb147ead8994129c101051928526b7bd" target="_top" xlink:title=" ">
<polygon fill="white" stroke="black" points="1125,-52.3183 1125,-82.3183 1232,-82.3183 1232,-52.3183 1125,-52.3183"/>
<text text-anchor="start" x="1133" y="-70.3183" font-family="Helvetica,sans-Serif" font-size="10.00">Nx::CNgcGeom::plat</text>
<text text-anchor="middle" x="1178.5" y="-59.3183" font-family="Helvetica,sans-Serif" font-size="10.00">_set_render_verts</text>
</a>
</g>
</g>
<!-- Node19&#45;&gt;Node27 -->
<g id="edge33" class="edge"><title>Node19&#45;&gt;Node27</title>
<path fill="none" stroke="midnightblue" d="M1339.36,-171.635C1322.24,-149.781 1290.29,-112.853 1255,-91.3183 1247.96,-87.0199 1240.07,-83.418 1232.11,-80.4222"/>
<polygon fill="midnightblue" stroke="midnightblue" points="1336.7,-173.921 1345.56,-179.73 1342.26,-169.663 1336.7,-173.921"/>
</g>
<!-- Node21 -->
<g id="node21" class="node"><title>Node21</title>
<g id="a_node21"><a xlink:href="../../de/dc7/class_nx_1_1_c_ngc_geom.html#a35cae1ad9bed8916c1328ee08c2fbd54" target="_top" xlink:title=" ">
<polygon fill="white" stroke="black" points="944,-101.318 944,-131.318 1051,-131.318 1051,-101.318 944,-101.318"/>
<text text-anchor="start" x="952" y="-119.318" font-family="Helvetica,sans-Serif" font-size="10.00">Nx::CNgcGeom::plat</text>
<text text-anchor="middle" x="997.5" y="-108.318" font-family="Helvetica,sans-Serif" font-size="10.00">_rotate_y</text>
</a>
</g>
</g>
<!-- Node20&#45;&gt;Node21 -->
<g id="edge24" class="edge"><title>Node20&#45;&gt;Node21</title>
<path fill="none" stroke="midnightblue" d="M1110.99,-245.463C1107.77,-243.343 1104.74,-240.972 1102,-238.318 1068.66,-206.041 1098.98,-172.957 1066,-140.318 1061.67,-136.031 1056.52,-132.506 1051.03,-129.609"/>
<polygon fill="midnightblue" stroke="midnightblue" points="1109.48,-248.63 1119.91,-250.508 1112.93,-242.537 1109.48,-248.63"/>
</g>
<!-- Node22 -->
<g id="node22" class="node"><title>Node22</title>
<g id="a_node22"><a xlink:href="../../de/dc7/class_nx_1_1_c_ngc_geom.html#a5184d28913c9d4a89c381b559d99dac8" target="_top" xlink:title=" ">
<polygon fill="white" stroke="black" points="944,-52.3183 944,-82.3183 1051,-82.3183 1051,-52.3183 944,-52.3183"/>
<text text-anchor="start" x="952" y="-70.3183" font-family="Helvetica,sans-Serif" font-size="10.00">Nx::CNgcGeom::plat</text>
<text text-anchor="middle" x="997.5" y="-59.3183" font-family="Helvetica,sans-Serif" font-size="10.00">_set_scale</text>
</a>
</g>
</g>
<!-- Node20&#45;&gt;Node22 -->
<g id="edge25" class="edge"><title>Node20&#45;&gt;Node22</title>
<path fill="none" stroke="midnightblue" d="M1111.09,-246.143C1107.78,-243.853 1104.72,-241.258 1102,-238.318 1056.37,-188.901 1111.09,-141.231 1066,-91.3183 1061.83,-86.7037 1056.72,-82.9761 1051.18,-79.9652"/>
<polygon fill="midnightblue" stroke="midnightblue" points="1109.34,-249.175 1119.73,-251.231 1112.89,-243.142 1109.34,-249.175"/>
</g>
<!-- Node23 -->
<g id="node23" class="node"><title>Node23</title>
<g id="a_node23"><a xlink:href="../../de/dc7/class_nx_1_1_c_ngc_geom.html#adc11b6f35c9e5c01e220c8211103c337" target="_top" xlink:title=" ">
<polygon fill="white" stroke="black" points="944,-150.318 944,-180.318 1051,-180.318 1051,-150.318 944,-150.318"/>
<text text-anchor="start" x="952" y="-168.318" font-family="Helvetica,sans-Serif" font-size="10.00">Nx::CNgcGeom::plat</text>
<text text-anchor="middle" x="997.5" y="-157.318" font-family="Helvetica,sans-Serif" font-size="10.00">_set_world_position</text>
</a>
</g>
</g>
<!-- Node20&#45;&gt;Node23 -->
<g id="edge26" class="edge"><title>Node20&#45;&gt;Node23</title>
<path fill="none" stroke="midnightblue" d="M1115.51,-244.462C1110.87,-242.546 1106.32,-240.496 1102,-238.318 1069.8,-222.082 1036.38,-196.69 1016.52,-180.535"/>
<polygon fill="midnightblue" stroke="midnightblue" points="1114.52,-247.832 1125.1,-248.206 1117.06,-241.311 1114.52,-247.832"/>
</g>
<!-- Node25&#45;&gt;Node21 -->
<g id="edge29" class="edge"><title>Node25&#45;&gt;Node21</title>
<path fill="none" stroke="midnightblue" d="M1114.76,-116.318C1093.99,-116.318 1071.1,-116.318 1051.17,-116.318"/>
<polygon fill="midnightblue" stroke="midnightblue" points="1114.76,-119.818 1124.76,-116.318 1114.76,-112.818 1114.76,-119.818"/>
</g>
<!-- Node25&#45;&gt;Node22 -->
<g id="edge30" class="edge"><title>Node25&#45;&gt;Node22</title>
<path fill="none" stroke="midnightblue" d="M1115.04,-99.2208C1094.2,-93.5149 1071.19,-87.2178 1051.17,-81.7363"/>
<polygon fill="midnightblue" stroke="midnightblue" points="1114.19,-102.617 1124.76,-101.882 1116.04,-95.8655 1114.19,-102.617"/>
</g>
<!-- Node25&#45;&gt;Node23 -->
<g id="edge31" class="edge"><title>Node25&#45;&gt;Node23</title>
<path fill="none" stroke="midnightblue" d="M1115.04,-133.416C1094.2,-139.122 1071.19,-145.419 1051.17,-150.9"/>
<polygon fill="midnightblue" stroke="midnightblue" points="1116.04,-136.771 1124.76,-130.755 1114.19,-130.019 1116.04,-136.771"/>
</g>
<!-- Node27&#45;&gt;Node21 -->
<g id="edge34" class="edge"><title>Node27&#45;&gt;Node21</title>
<path fill="none" stroke="midnightblue" d="M1115.04,-84.4157C1094.2,-90.1216 1071.19,-96.4187 1051.17,-101.9"/>
<polygon fill="midnightblue" stroke="midnightblue" points="1116.04,-87.771 1124.76,-81.7549 1114.19,-81.0194 1116.04,-87.771"/>
</g>
<!-- Node27&#45;&gt;Node22 -->
<g id="edge35" class="edge"><title>Node27&#45;&gt;Node22</title>
<path fill="none" stroke="midnightblue" d="M1114.76,-67.3183C1093.99,-67.3183 1071.1,-67.3183 1051.17,-67.3183"/>
<polygon fill="midnightblue" stroke="midnightblue" points="1114.76,-70.8184 1124.76,-67.3183 1114.76,-63.8184 1114.76,-70.8184"/>
</g>
<!-- Node27&#45;&gt;Node23 -->
<g id="edge36" class="edge"><title>Node27&#45;&gt;Node23</title>
<path fill="none" stroke="midnightblue" d="M1115.42,-83.413C1110.69,-85.7162 1106.15,-88.3374 1102,-91.3183 1080.04,-107.074 1087.58,-124.052 1066,-140.318 1060.91,-144.155 1055.17,-147.455 1049.24,-150.28"/>
<polygon fill="midnightblue" stroke="midnightblue" points="1116.92,-86.5763 1124.68,-79.3649 1114.12,-80.162 1116.92,-86.5763"/>
</g>
<!-- Node29 -->
<g id="node29" class="node"><title>Node29</title>
<g id="a_node29"><a xlink:href="../../d0/d5c/class_ed_1_1_c_park_manager.html#a897030eed0d8e64a5af4d363405f77be" target="_top" xlink:title=" ">
<polygon fill="white" stroke="black" points="1102,-375.318 1102,-405.318 1255,-405.318 1255,-375.318 1102,-375.318"/>
<text text-anchor="start" x="1110" y="-393.318" font-family="Helvetica,sans-Serif" font-size="10.00">Ed::CParkManager::generate</text>
<text text-anchor="middle" x="1178.5" y="-382.318" font-family="Helvetica,sans-Serif" font-size="10.00">_floor_pieces_from_height_map</text>
</a>
</g>
</g>
<!-- Node28&#45;&gt;Node29 -->
<g id="edge38" class="edge"><title>Node28&#45;&gt;Node29</title>
<path fill="none" stroke="midnightblue" d="M1306.47,-357.291C1285.2,-362.825 1259.71,-369.455 1237.17,-375.318"/>
<polygon fill="midnightblue" stroke="midnightblue" points="1307.44,-360.656 1316.23,-354.752 1305.67,-353.882 1307.44,-360.656"/>
</g>
<!-- Node44 -->
<g id="node44" class="node"><title>Node44</title>
<g id="a_node44"><a xlink:href="../../dc/dd3/class_mdl_1_1_front_end.html#a2909c78542c4a9a518d5025f2ed312de" target="_top" xlink:title=" ">
<polygon fill="white" stroke="black" points="1122,-335.818 1122,-354.818 1235,-354.818 1235,-335.818 1122,-335.818"/>
<text text-anchor="middle" x="1178.5" y="-342.818" font-family="Helvetica,sans-Serif" font-size="10.00">Mdl::FrontEnd::update</text>
</a>
</g>
</g>
<!-- Node28&#45;&gt;Node44 -->
<g id="edge54" class="edge"><title>Node28&#45;&gt;Node44</title>
<path fill="none" stroke="midnightblue" d="M1306.21,-345.318C1284.35,-345.318 1258.08,-345.318 1235.14,-345.318"/>
<polygon fill="midnightblue" stroke="midnightblue" points="1306.23,-348.818 1316.23,-345.318 1306.23,-341.818 1306.23,-348.818"/>
</g>
<!-- Node30 -->
<g id="node30" class="node"><title>Node30</title>
<g id="a_node30"><a xlink:href="../../d0/d5c/class_ed_1_1_c_park_manager.html#ae25f8da3eb72427f1321dc50d4d90e15" target="_top" xlink:title=" ">
<polygon fill="white" stroke="black" points="929,-512.318 929,-542.318 1066,-542.318 1066,-512.318 929,-512.318"/>
<text text-anchor="start" x="937" y="-530.318" font-family="Helvetica,sans-Serif" font-size="10.00">Ed::CParkManager::Rebuild</text>
<text text-anchor="middle" x="997.5" y="-519.318" font-family="Helvetica,sans-Serif" font-size="10.00">Floor</text>
</a>
</g>
</g>
<!-- Node29&#45;&gt;Node30 -->
<g id="edge39" class="edge"><title>Node29&#45;&gt;Node30</title>
<path fill="none" stroke="midnightblue" d="M1149.41,-411.816C1112.88,-439.779 1049.97,-487.921 1018.16,-512.274"/>
<polygon fill="midnightblue" stroke="midnightblue" points="1151.85,-414.36 1157.66,-405.503 1147.59,-408.802 1151.85,-414.36"/>
</g>
<!-- Node36 -->
<g id="node36" class="node"><title>Node36</title>
<g id="a_node36"><a xlink:href="../../d0/d5c/class_ed_1_1_c_park_manager.html#a99f4c81a0f4c7285d6667c7480d732ba" target="_top" xlink:title=" ">
<polygon fill="white" stroke="black" points="929,-375.318 929,-405.318 1066,-405.318 1066,-375.318 929,-375.318"/>
<text text-anchor="start" x="937" y="-393.318" font-family="Helvetica,sans-Serif" font-size="10.00">Ed::CParkManager::Rebuild</text>
<text text-anchor="middle" x="997.5" y="-382.318" font-family="Helvetica,sans-Serif" font-size="10.00">WholePark</text>
</a>
</g>
</g>
<!-- Node29&#45;&gt;Node36 -->
<g id="edge45" class="edge"><title>Node29&#45;&gt;Node36</title>
<path fill="none" stroke="midnightblue" d="M1091.8,-390.318C1083.22,-390.318 1074.58,-390.318 1066.21,-390.318"/>
<polygon fill="midnightblue" stroke="midnightblue" points="1091.85,-393.818 1101.85,-390.318 1091.85,-386.818 1091.85,-393.818"/>
</g>
<!-- Node31 -->
<g id="node31" class="node"><title>Node31</title>
<g id="a_node31"><a xlink:href="../../d0/d5c/class_ed_1_1_c_park_manager.html#af3606842ce6881d602a97a4b940f4db3" target="_top" xlink:title=" ">
<polygon fill="white" stroke="black" points="748,-512.318 748,-542.318 886,-542.318 886,-512.318 748,-512.318"/>
<text text-anchor="start" x="756" y="-530.318" font-family="Helvetica,sans-Serif" font-size="10.00">Ed::CParkManager::Change</text>
<text text-anchor="middle" x="817" y="-519.318" font-family="Helvetica,sans-Serif" font-size="10.00">FloorHeight</text>
</a>
</g>
</g>
<!-- Node30&#45;&gt;Node31 -->
<g id="edge40" class="edge"><title>Node30&#45;&gt;Node31</title>
<path fill="none" stroke="midnightblue" d="M918.549,-527.318C907.804,-527.318 896.836,-527.318 886.284,-527.318"/>
<polygon fill="midnightblue" stroke="midnightblue" points="918.762,-530.818 928.762,-527.318 918.762,-523.818 918.762,-530.818"/>
</g>
<!-- Node32 -->
<g id="node32" class="node"><title>Node32</title>
<g id="a_node32"><a xlink:href="../../d0/d5c/class_ed_1_1_c_park_manager.html#ade3a39b0d9543b7a036317bc25214e51" target="_top" xlink:title=" ">
<polygon fill="white" stroke="black" points="747.5,-463.318 747.5,-493.318 886.5,-493.318 886.5,-463.318 747.5,-463.318"/>
<text text-anchor="start" x="755.5" y="-481.318" font-family="Helvetica,sans-Serif" font-size="10.00">Ed::CParkManager::Destroy</text>
<text text-anchor="middle" x="817" y="-470.318" font-family="Helvetica,sans-Serif" font-size="10.00">MetasInArea</text>
</a>
</g>
</g>
<!-- Node30&#45;&gt;Node32 -->
<g id="edge41" class="edge"><title>Node30&#45;&gt;Node32</title>
<path fill="none" stroke="midnightblue" d="M931.58,-509.497C912.307,-504.206 891.396,-498.466 872.831,-493.37"/>
<polygon fill="midnightblue" stroke="midnightblue" points="930.918,-512.945 941.488,-512.217 932.771,-506.194 930.918,-512.945"/>
</g>
<!-- Node33 -->
<g id="node33" class="node"><title>Node33</title>
<g id="a_node33"><a xlink:href="../../d0/d5c/class_ed_1_1_c_park_manager.html#a2c07eca44d2c7c8cbf9983734f760677" target="_top" xlink:title=" ">
<polygon fill="white" stroke="black" points="741,-600.318 741,-630.318 893,-630.318 893,-600.318 741,-600.318"/>
<text text-anchor="start" x="749" y="-618.318" font-family="Helvetica,sans-Serif" font-size="10.00">Ed::CParkManager::ResetFloor</text>
<text text-anchor="middle" x="817" y="-607.318" font-family="Helvetica,sans-Serif" font-size="10.00">Heights</text>
</a>
</g>
</g>
<!-- Node30&#45;&gt;Node33 -->
<g id="edge42" class="edge"><title>Node30&#45;&gt;Node33</title>
<path fill="none" stroke="midnightblue" d="M966.654,-547.967C946.497,-561.281 918.932,-578.291 893,-590.318 885.28,-593.899 876.901,-597.211 868.634,-600.176"/>
<polygon fill="midnightblue" stroke="midnightblue" points="968.721,-550.795 975.087,-542.327 964.829,-544.977 968.721,-550.795"/>
</g>
<!-- Node34 -->
<g id="node34" class="node"><title>Node34</title>
<g id="a_node34"><a xlink:href="../../d2/d84/namespace_ed.html#a18e01a46dde64d90411ab5c2e68344ad" target="_top" xlink:title=" ">
<polygon fill="white" stroke="black" points="774.5,-561.818 774.5,-580.818 859.5,-580.818 859.5,-561.818 774.5,-561.818"/>
<text text-anchor="middle" x="817" y="-568.818" font-family="Helvetica,sans-Serif" font-size="10.00">Ed::ResizePark</text>
</a>
</g>
</g>
<!-- Node30&#45;&gt;Node34 -->
<g id="edge43" class="edge"><title>Node30&#45;&gt;Node34</title>
<path fill="none" stroke="midnightblue" d="M925.611,-544.792C902.072,-550.595 876.753,-556.836 856.59,-561.806"/>
<polygon fill="midnightblue" stroke="midnightblue" points="926.698,-548.129 935.57,-542.338 925.023,-541.333 926.698,-548.129"/>
</g>
<!-- Node35 -->
<g id="node35" class="node"><title>Node35</title>
<g id="a_node35"><a xlink:href="../../d2/d84/namespace_ed.html#ab4c4bf774b1e68db92ab0e79d634bf57" target="_top" xlink:title=" ">
<polygon fill="white" stroke="black" points="575,-561.818 575,-580.818 685,-580.818 685,-561.818 575,-561.818"/>
<text text-anchor="middle" x="630" y="-568.818" font-family="Helvetica,sans-Serif" font-size="10.00">Ed::ScriptResizePark</text>
</a>
</g>
</g>
<!-- Node34&#45;&gt;Node35 -->
<g id="edge44" class="edge"><title>Node34&#45;&gt;Node35</title>
<path fill="none" stroke="midnightblue" d="M764.224,-571.318C739.533,-571.318 710.005,-571.318 685.03,-571.318"/>
<polygon fill="midnightblue" stroke="midnightblue" points="764.482,-574.818 774.482,-571.318 764.482,-567.818 764.482,-574.818"/>
</g>
<!-- Node37 -->
<g id="node37" class="node"><title>Node37</title>
<g id="a_node37"><a xlink:href="../../d8/d13/class_ed_1_1_c_park_editor.html#a960413265bc65b3f6ca5d6288ae4c8bd" target="_top" xlink:title=" ">
<polygon fill="white" stroke="black" points="179,-403.818 179,-422.818 325,-422.818 325,-403.818 179,-403.818"/>
<text text-anchor="middle" x="252" y="-410.818" font-family="Helvetica,sans-Serif" font-size="10.00">Ed::CParkEditor::AccessDisk</text>
</a>
</g>
</g>
<!-- Node36&#45;&gt;Node37 -->
<g id="edge46" class="edge"><title>Node36&#45;&gt;Node37</title>
<path fill="none" stroke="midnightblue" d="M931.988,-407.659C919.162,-410.43 905.725,-412.862 893,-414.318 688.225,-437.749 444.176,-426.699 325.289,-418.835"/>
<polygon fill="midnightblue" stroke="midnightblue" points="933.132,-410.989 942.118,-405.376 931.593,-404.16 933.132,-410.989"/>
</g>
<!-- Node40 -->
<g id="node40" class="node"><title>Node40</title>
<g id="a_node40"><a xlink:href="../../d0/d5c/class_ed_1_1_c_park_manager.html#a129890ee1132f04f2c98e6777431e2a4" target="_top" xlink:title=" ">
<polygon fill="white" stroke="black" points="747,-336.818 747,-355.818 887,-355.818 887,-336.818 747,-336.818"/>
<text text-anchor="middle" x="817" y="-343.818" font-family="Helvetica,sans-Serif" font-size="10.00">Ed::CParkManager::Initialize</text>
</a>
</g>
</g>
<!-- Node36&#45;&gt;Node40 -->
<g id="edge49" class="edge"><title>Node36&#45;&gt;Node40</title>
<path fill="none" stroke="midnightblue" d="M925.611,-372.844C902.072,-367.042 876.753,-360.801 856.59,-355.831"/>
<polygon fill="midnightblue" stroke="midnightblue" points="925.023,-376.304 935.57,-375.299 926.698,-369.507 925.023,-376.304"/>
</g>
<!-- Node41 -->
<g id="node41" class="node"><title>Node41</title>
<g id="a_node41"><a xlink:href="../../d8/d13/class_ed_1_1_c_park_editor.html#a7d21742d7c45dad9428d67cbcdeccd02" target="_top" xlink:title=" ">
<polygon fill="white" stroke="black" points="742.5,-375.318 742.5,-405.318 891.5,-405.318 891.5,-375.318 742.5,-375.318"/>
<text text-anchor="start" x="750.5" y="-393.318" font-family="Helvetica,sans-Serif" font-size="10.00">Ed::CParkEditor::PostMemory</text>
<text text-anchor="middle" x="817" y="-382.318" font-family="Helvetica,sans-Serif" font-size="10.00">CardLoad</text>
</a>
</g>
</g>
<!-- Node36&#45;&gt;Node41 -->
<g id="edge50" class="edge"><title>Node36&#45;&gt;Node41</title>
<path fill="none" stroke="midnightblue" d="M918.704,-390.318C909.719,-390.318 900.577,-390.318 891.649,-390.318"/>
<polygon fill="midnightblue" stroke="midnightblue" points="918.762,-393.818 928.762,-390.318 918.762,-386.818 918.762,-393.818"/>
</g>
<!-- Node38 -->
<g id="node38" class="node"><title>Node38</title>
<g id="a_node38"><a xlink:href="../../d2/d84/namespace_ed.html#ad60f3a0d186b2da60f26277074f39c2d" target="_top" xlink:title=" ">
<polygon fill="white" stroke="black" points="0,-422.818 0,-441.818 143,-441.818 143,-422.818 0,-422.818"/>
<text text-anchor="middle" x="71.5" y="-429.818" font-family="Helvetica,sans-Serif" font-size="10.00">Ed::ScriptLoadParkFromDisk</text>
</a>
</g>
</g>
<!-- Node37&#45;&gt;Node38 -->
<g id="edge47" class="edge"><title>Node37&#45;&gt;Node38</title>
<path fill="none" stroke="midnightblue" d="M168.872,-422.06C160.269,-422.976 151.577,-423.901 143.118,-424.801"/>
<polygon fill="midnightblue" stroke="midnightblue" points="169.338,-425.53 178.912,-420.992 168.597,-418.57 169.338,-425.53"/>
</g>
<!-- Node39 -->
<g id="node39" class="node"><title>Node39</title>
<g id="a_node39"><a xlink:href="../../d2/d84/namespace_ed.html#a16094dc8a2ec4512d21b7a524c913812" target="_top" xlink:title=" ">
<polygon fill="white" stroke="black" points="6,-384.818 6,-403.818 137,-403.818 137,-384.818 6,-384.818"/>
<text text-anchor="middle" x="71.5" y="-391.818" font-family="Helvetica,sans-Serif" font-size="10.00">Ed::ScriptSaveParkToDisk</text>
</a>
</g>
</g>
<!-- Node37&#45;&gt;Node39 -->
<g id="edge48" class="edge"><title>Node37&#45;&gt;Node39</title>
<path fill="none" stroke="midnightblue" d="M168.778,-404.566C158.145,-403.435 147.378,-402.288 137.086,-401.193"/>
<polygon fill="midnightblue" stroke="midnightblue" points="168.597,-408.067 178.912,-405.645 169.338,-401.106 168.597,-408.067"/>
</g>
<!-- Node42 -->
<g id="node42" class="node"><title>Node42</title>
<g id="a_node42"><a xlink:href="../../d0/d5c/class_ed_1_1_c_park_manager.html#af06ffb35bd29d3823932e27fe231c7ea" target="_top" xlink:title=" ">
<polygon fill="white" stroke="black" points="555,-375.318 555,-405.318 705,-405.318 705,-375.318 555,-375.318"/>
<text text-anchor="start" x="563" y="-393.318" font-family="Helvetica,sans-Serif" font-size="10.00">Ed::CParkManager::ReadFrom</text>
<text text-anchor="middle" x="630" y="-382.318" font-family="Helvetica,sans-Serif" font-size="10.00">Structure</text>
</a>
</g>
</g>
<!-- Node41&#45;&gt;Node42 -->
<g id="edge51" class="edge"><title>Node41&#45;&gt;Node42</title>
<path fill="none" stroke="midnightblue" d="M732.266,-390.318C723.275,-390.318 714.172,-390.318 705.302,-390.318"/>
<polygon fill="midnightblue" stroke="midnightblue" points="732.352,-393.818 742.352,-390.318 732.351,-386.818 732.352,-393.818"/>
</g>
<!-- Node43 -->
<g id="node43" class="node"><title>Node43</title>
<g id="a_node43"><a xlink:href="../../d0/d5c/class_ed_1_1_c_park_manager.html#aab29f1a394b0f9b7aeb1a4bd2a969efd" target="_top" xlink:title=" ">
<polygon fill="white" stroke="black" points="361,-383.818 361,-402.818 519,-402.818 519,-383.818 361,-383.818"/>
<text text-anchor="middle" x="440" y="-390.818" font-family="Helvetica,sans-Serif" font-size="10.00">Ed::CParkManager::AccessDisk</text>
</a>
</g>
</g>
<!-- Node42&#45;&gt;Node43 -->
<g id="edge52" class="edge"><title>Node42&#45;&gt;Node43</title>
<path fill="none" stroke="midnightblue" d="M544.719,-391.663C536.259,-391.798 527.693,-391.935 519.299,-392.069"/>
<polygon fill="midnightblue" stroke="midnightblue" points="545.024,-395.159 554.967,-391.5 544.913,-388.16 545.024,-395.159"/>
</g>
<!-- Node43&#45;&gt;Node37 -->
<g id="edge53" class="edge"><title>Node43&#45;&gt;Node37</title>
<path fill="none" stroke="midnightblue" d="M350.885,-402.793C342.293,-403.717 333.645,-404.647 325.236,-405.551"/>
<polygon fill="midnightblue" stroke="midnightblue" points="351.359,-406.262 360.928,-401.713 350.611,-399.302 351.359,-406.262"/>
</g>
</g>
</svg>
        <g id="navigator" transform="translate(0 0)" fill="#404254">
                <rect fill="#f2f5e9" fill-opacity="0.5" stroke="#606060" stroke-width=".5" x="0" y="0" width="60" height="60"/>
                <use id="zoomplus" xlink:href="#zoomPlus" x="17" y="9" onmousedown="handleZoom(evt,'in')"/>
                <use id="zoomminus" xlink:href="#zoomMin" x="42" y="9" onmousedown="handleZoom(evt,'out')"/>
                <use id="reset" xlink:href="#resetDef" x="30" y="36" onmousedown="handleReset()"/>
                <g id="arrowUp" xlink:href="#dirArrow" transform="translate(30 24)" onmousedown="handlePan(0,-1)">
                  <use xlink:href="#rim" fill="#404040">
                        <set attributeName="fill" to="#808080" begin="arrowUp.mouseover" end="arrowUp.mouseout"/>
                  </use>
                  <path fill="none" stroke="white" stroke-width="1.5" d="M0,-3.0v7 M-2.5,-0.5L0,-3.0L2.5,-0.5"/>
                </g>
                <g id="arrowRight" xlink:href="#dirArrow" transform="rotate(90) translate(36 -43)" onmousedown="handlePan(1,0)">
                  <use xlink:href="#rim" fill="#404040">
                        <set attributeName="fill" to="#808080" begin="arrowRight.mouseover" end="arrowRight.mouseout"/>
                  </use>
                  <path fill="none" stroke="white" stroke-width="1.5" d="M0,-3.0v7 M-2.5,-0.5L0,-3.0L2.5,-0.5"/>
                </g>
                <g id="arrowDown" xlink:href="#dirArrow" transform="rotate(180) translate(-30 -48)" onmousedown="handlePan(0,1)">
                  <use xlink:href="#rim" fill="#404040">
                        <set attributeName="fill" to="#808080" begin="arrowDown.mouseover" end="arrowDown.mouseout"/>
                  </use>
                  <path fill="none" stroke="white" stroke-width="1.5" d="M0,-3.0v7 M-2.5,-0.5L0,-3.0L2.5,-0.5"/>
                </g>
                <g id="arrowLeft" xlink:href="#dirArrow" transform="rotate(270) translate(-36 17)" onmousedown="handlePan(-1,0)">
                  <use xlink:href="#rim" fill="#404040">
                        <set attributeName="fill" to="#808080" begin="arrowLeft.mouseover" end="arrowLeft.mouseout"/>
                  </use>
                  <path fill="none" stroke="white" stroke-width="1.5" d="M0,-3.0v7 M-2.5,-0.5L0,-3.0L2.5,-0.5"/>
                </g>
        </g>
        <svg viewBox="0 0 15 15" width="100%" height="30px" preserveAspectRatio="xMaxYMin meet">
         <g id="arrow_out" transform="scale(0.3 0.3)">
          <a xlink:href="p__display_8cpp_aab96b6a63e4d6605bce9ea2b145d4420_icgraph_org.svg" target="_base">
           <rect id="button" ry="5" rx="5" y="6" x="6" height="38" width="38"
                fill="#f2f5e9" fill-opacity="0.5" stroke="#606060" stroke-width="1.0"/>
           <path id="arrow"
             d="M 11.500037,31.436501 C 11.940474,20.09759 22.043105,11.32322 32.158766,21.979434 L 37.068811,17.246167 C 37.068811,17.246167 37.088388,32 37.088388,32 L 22.160133,31.978069 C 22.160133,31.978069 26.997745,27.140456 26.997745,27.140456 C 18.528582,18.264221 13.291696,25.230495 11.500037,31.436501 z"
             style="fill:#404040;"/>
          </a>
         </g>
        </svg>
</svg>
