<?xml version="1.0" encoding="UTF-8" standalone="no"?>
<!DOCTYPE svg PUBLIC "-//W3C//DTD SVG 1.1//EN"
 "http://www.w3.org/Graphics/SVG/1.1/DTD/svg11.dtd">
<!-- Generated by graphviz version 2.38.0 (20140413.2041)
 -->
<!-- Title: Script::GetVector Pages: 1 -->
<svg width="780pt" height="104pt"
 viewBox="0.00 0.00 780.00 104.00" xmlns="http://www.w3.org/2000/svg" xmlns:xlink="http://www.w3.org/1999/xlink">
<g id="graph0" class="graph" transform="scale(1 1) rotate(0) translate(4 100)">
<title>Script::GetVector</title>
<polygon fill="white" stroke="none" points="-4,4 -4,-100 776,-100 776,4 -4,4"/>
<!-- Node1 -->
<g id="node1" class="node"><title>Node1</title>
<g id="a_node1"><a xlink:title=" ">
<polygon fill="#bfbfbf" stroke="black" points="0,-38.5 0,-57.5 92,-57.5 92,-38.5 0,-38.5"/>
<text text-anchor="middle" x="46" y="-45.5" font-family="Helvetica,sans-Serif" font-size="10.00">Script::GetVector</text>
</a>
</g>
</g>
<!-- Node2 -->
<g id="node2" class="node"><title>Node2</title>
<g id="a_node2"><a xlink:href="../../d1/d54/namespace_script.html#ae80ed69ea4edcbcbbbd4985a6efdcd6e" target="_top" xlink:title=" ">
<polygon fill="white" stroke="black" points="274,-57.5 274,-76.5 413,-76.5 413,-57.5 274,-57.5"/>
<text text-anchor="middle" x="343.5" y="-64.5" font-family="Helvetica,sans-Serif" font-size="10.00">Script::FindChecksumName</text>
</a>
</g>
</g>
<!-- Node1&#45;&gt;Node2 -->
<g id="edge1" class="edge"><title>Node1&#45;&gt;Node2</title>
<path fill="none" stroke="midnightblue" d="M79.8,-57.5069C94.417,-61.2713 111.93,-65.1405 128,-67 172.675,-72.1694 222.934,-72.4616 263.568,-71.3277"/>
<polygon fill="midnightblue" stroke="midnightblue" points="263.796,-74.8224 273.681,-71.0108 263.577,-67.8258 263.796,-74.8224"/>
</g>
<!-- Node6 -->
<g id="node6" class="node"><title>Node6</title>
<g id="a_node6"><a xlink:href="../../d1/d54/namespace_script.html#af32f99ba26ca0f255240413a4e23a754" target="_top" xlink:title=" ">
<polygon fill="white" stroke="black" points="128,-38.5 128,-57.5 238,-57.5 238,-38.5 128,-38.5"/>
<text text-anchor="middle" x="183" y="-45.5" font-family="Helvetica,sans-Serif" font-size="10.00">Script::GetTypeName</text>
</a>
</g>
</g>
<!-- Node1&#45;&gt;Node6 -->
<g id="edge5" class="edge"><title>Node1&#45;&gt;Node6</title>
<path fill="none" stroke="midnightblue" d="M92.3286,-48C100.388,-48 108.922,-48 117.396,-48"/>
<polygon fill="midnightblue" stroke="midnightblue" points="117.665,-51.5001 127.665,-48 117.665,-44.5001 117.665,-51.5001"/>
</g>
<!-- Node7 -->
<g id="node7" class="node"><title>Node7</title>
<g id="a_node7"><a xlink:href="../../d1/d54/namespace_script.html#a43181580ea5d38e4bf1aa19ccd5e9e85" target="_top" xlink:title=" ">
<polygon fill="white" stroke="black" points="142,-0.5 142,-19.5 224,-19.5 224,-0.5 142,-0.5"/>
<text text-anchor="middle" x="183" y="-7.5" font-family="Helvetica,sans-Serif" font-size="10.00">Script::Resolve</text>
</a>
</g>
</g>
<!-- Node1&#45;&gt;Node7 -->
<g id="edge6" class="edge"><title>Node1&#45;&gt;Node7</title>
<path fill="none" stroke="midnightblue" d="M81.0662,-38.411C98.4135,-33.5281 119.702,-27.5357 138.249,-22.315"/>
<polygon fill="midnightblue" stroke="midnightblue" points="139.267,-25.6646 147.945,-19.5859 137.37,-18.9265 139.267,-25.6646"/>
</g>
<!-- Node3 -->
<g id="node3" class="node"><title>Node3</title>
<g id="a_node3"><a xlink:href="../../d1/d54/namespace_script.html#a5cc52c4ff5ea5bb27681d819212dfdca" target="_top" xlink:title=" ">
<polygon fill="white" stroke="black" points="449,-76.5 449,-95.5 612,-95.5 612,-76.5 449,-76.5"/>
<text text-anchor="middle" x="530.5" y="-83.5" font-family="Helvetica,sans-Serif" font-size="10.00">Script::FindChecksumNameNULL</text>
</a>
</g>
</g>
<!-- Node2&#45;&gt;Node3 -->
<g id="edge2" class="edge"><title>Node2&#45;&gt;Node3</title>
<path fill="none" stroke="midnightblue" d="M413.124,-74.0479C421.476,-74.9056 430.107,-75.792 438.717,-76.6764"/>
<polygon fill="midnightblue" stroke="midnightblue" points="438.493,-80.1717 448.798,-77.7117 439.208,-73.2083 438.493,-80.1717"/>
</g>
<!-- Node5 -->
<g id="node5" class="node"><title>Node5</title>
<g id="a_node5"><a xlink:href="../../da/d37/namespace_dbg.html#ab406a8cc16de5046c7d9fd09c9de5e22" target="_top" xlink:title=" ">
<polygon fill="white" stroke="black" points="497.5,-38.5 497.5,-57.5 563.5,-57.5 563.5,-38.5 497.5,-38.5"/>
<text text-anchor="middle" x="530.5" y="-45.5" font-family="Helvetica,sans-Serif" font-size="10.00">Dbg::sprintf</text>
</a>
</g>
</g>
<!-- Node2&#45;&gt;Node5 -->
<g id="edge4" class="edge"><title>Node2&#45;&gt;Node5</title>
<path fill="none" stroke="midnightblue" d="M413.124,-59.9521C437.98,-57.3993 465.305,-54.593 487.228,-52.3414"/>
<polygon fill="midnightblue" stroke="midnightblue" points="487.616,-55.8201 497.206,-51.3167 486.901,-48.8567 487.616,-55.8201"/>
</g>
<!-- Node4 -->
<g id="node4" class="node"><title>Node4</title>
<g id="a_node4"><a xlink:href="../../d0/d31/namespace_config.html#a709cc81780d49900157e3476b63aa25d" target="_top" xlink:title=" ">
<polygon fill="white" stroke="black" points="648,-76.5 648,-95.5 772,-95.5 772,-76.5 648,-76.5"/>
<text text-anchor="middle" x="710" y="-83.5" font-family="Helvetica,sans-Serif" font-size="10.00">Config::GotExtraMemory</text>
</a>
</g>
</g>
<!-- Node3&#45;&gt;Node4 -->
<g id="edge3" class="edge"><title>Node3&#45;&gt;Node4</title>
<path fill="none" stroke="midnightblue" d="M612.2,-86C620.729,-86 629.358,-86 637.768,-86"/>
<polygon fill="midnightblue" stroke="midnightblue" points="637.898,-89.5001 647.898,-86 637.898,-82.5001 637.898,-89.5001"/>
</g>
<!-- Node7&#45;&gt;Node2 -->
<g id="edge7" class="edge"><title>Node7&#45;&gt;Node2</title>
<path fill="none" stroke="midnightblue" d="M211.214,-19.513C219.791,-22.528 229.297,-25.8868 238,-29 260.962,-37.2143 286.709,-46.5751 306.901,-53.9505"/>
<polygon fill="midnightblue" stroke="midnightblue" points="305.736,-57.2513 316.33,-57.398 308.14,-50.6769 305.736,-57.2513"/>
</g>
<!-- Node8 -->
<g id="node8" class="node"><title>Node8</title>
<g id="a_node8"><a xlink:href="../../d1/d54/namespace_script.html#af293a36c230b10de7d8151c2990b233b" target="_top" xlink:title=" ">
<polygon fill="white" stroke="black" points="286.5,-0.5 286.5,-19.5 400.5,-19.5 400.5,-0.5 286.5,-0.5"/>
<text text-anchor="middle" x="343.5" y="-7.5" font-family="Helvetica,sans-Serif" font-size="10.00">Script::LookUpSymbol</text>
</a>
</g>
</g>
<!-- Node7&#45;&gt;Node8 -->
<g id="edge8" class="edge"><title>Node7&#45;&gt;Node8</title>
<path fill="none" stroke="midnightblue" d="M224.406,-10C240.124,-10 258.549,-10 276.11,-10"/>
<polygon fill="midnightblue" stroke="midnightblue" points="276.322,-13.5001 286.322,-10 276.322,-6.5001 276.322,-13.5001"/>
</g>
</g>
</svg>
