<?xml version="1.0" encoding="UTF-8" standalone="no"?>
<!DOCTYPE svg PUBLIC "-//W3C//DTD SVG 1.1//EN"
 "http://www.w3.org/Graphics/SVG/1.1/DTD/svg11.dtd">
<!-- Generated by graphviz version 2.38.0 (20140413.2041)
 -->
<!-- Title: Script::GetScriptWithUniqueId Pages: 1 -->
<!--zoomable 591 -->
<svg id="main" version="1.1" xmlns="http://www.w3.org/2000/svg" xmlns:xlink="http://www.w3.org/1999/xlink" xml:space="preserve" onload="init(evt)">
<style type="text/css"><![CDATA[
.edge:hover path { stroke: red; }
.edge:hover polygon { stroke: red; fill: red; }
]]></style>
<script type="text/javascript"><![CDATA[
var edges = document.getElementsByTagName('g');
if (edges && edges.length) {
  for (var i=0;i<edges.length;i++) {
    if (edges[i].id.substr(0,4)=='edge') {
      edges[i].setAttribute('class','edge');
    }
  }
}
]]></script>
        <defs>
                <circle id="rim" cx="0" cy="0" r="7"/>
                <circle id="rim2" cx="0" cy="0" r="3.5"/>
                <g id="zoomPlus">
                        <use xlink:href="#rim" fill="#404040">
                                <set attributeName="fill" to="#808080" begin="zoomplus.mouseover" end="zoomplus.mouseout"/>
                        </use>
                        <path d="M-4,0h8M0,-4v8" fill="none" stroke="white" stroke-width="1.5" pointer-events="none"/>
                </g>
                <g id="zoomMin">
                        <use xlink:href="#rim" fill="#404040">
                                <set attributeName="fill" to="#808080" begin="zoomminus.mouseover" end="zoomminus.mouseout"/>
                        </use>
                        <path d="M-4,0h8" fill="none" stroke="white" stroke-width="1.5" pointer-events="none"/>
                </g>
                <g id="dirArrow">
                        <path fill="none" stroke="white" stroke-width="1.5" d="M0,-3.0v7 M-2.5,-0.5L0,-3.0L2.5,-0.5"/>
                </g>
               <g id="resetDef">
                       <use xlink:href="#rim2" fill="#404040">
                               <set attributeName="fill" to="#808080" begin="reset.mouseover" end="reset.mouseout"/>
                       </use>
               </g>
        </defs>

<script type="text/javascript">
var viewWidth = 1441;
var viewHeight = 591;
var sectionId = 'dynsection-119';
</script>
<script xlink:href="../../svgpan.js"/>
<svg id="graph" class="graph">
<g id="viewport">
<title>Script::GetScriptWithUniqueId</title>
<polygon fill="white" stroke="none" points="-4,4 -4,-587 1437,-587 1437,4 -4,4"/>
<!-- Node1 -->
<g id="node1" class="node"><title>Node1</title>
<g id="a_node1"><a xlink:title=" ">
<polygon fill="#bfbfbf" stroke="black" points="1286,-249 1286,-268 1433,-268 1433,-249 1286,-249"/>
<text text-anchor="middle" x="1359.5" y="-256" font-family="Helvetica,sans-Serif" font-size="10.00">Script::GetScriptWithUniqueId</text>
</a>
</g>
</g>
<!-- Node2 -->
<g id="node2" class="node"><title>Node2</title>
<g id="a_node2"><a xlink:href="../../dc/dd3/class_mdl_1_1_front_end.html#a637a0778e4087485304e7fab39ffda0c" target="_top" xlink:title=" ">
<polygon fill="white" stroke="black" points="1125.5,-287.5 1125.5,-317.5 1228.5,-317.5 1228.5,-287.5 1125.5,-287.5"/>
<text text-anchor="start" x="1133.5" y="-305.5" font-family="Helvetica,sans-Serif" font-size="10.00">Mdl::FrontEnd::grab</text>
<text text-anchor="middle" x="1177" y="-294.5" font-family="Helvetica,sans-Serif" font-size="10.00">_timed_event_type</text>
</a>
</g>
</g>
<!-- Node1&#45;&gt;Node2 -->
<g id="edge1" class="edge"><title>Node1&#45;&gt;Node2</title>
<path fill="none" stroke="midnightblue" d="M1309.33,-270.485C1284.33,-276.58 1253.98,-283.978 1228.76,-290.126"/>
<polygon fill="midnightblue" stroke="midnightblue" points="1310.45,-273.816 1319.33,-268.047 1308.79,-267.015 1310.45,-273.816"/>
</g>
<!-- Node3 -->
<g id="node3" class="node"><title>Node3</title>
<g id="a_node3"><a xlink:href="../../df/d80/class_obj_1_1_c_tracker.html#aff42a8a7d4fe4050e424421697ffe0ac" target="_top" xlink:title=" ">
<polygon fill="white" stroke="black" points="1108,-249 1108,-268 1246,-268 1246,-249 1108,-249"/>
<text text-anchor="middle" x="1177" y="-256" font-family="Helvetica,sans-Serif" font-size="10.00">Obj::CTracker::LaunchEvent</text>
</a>
</g>
</g>
<!-- Node1&#45;&gt;Node3 -->
<g id="edge2" class="edge"><title>Node1&#45;&gt;Node3</title>
<path fill="none" stroke="midnightblue" d="M1275.63,-258.5C1265.75,-258.5 1255.74,-258.5 1246.1,-258.5"/>
<polygon fill="midnightblue" stroke="midnightblue" points="1275.86,-262 1285.86,-258.5 1275.86,-255 1275.86,-262"/>
</g>
<!-- Node41 -->
<g id="node41" class="node"><title>Node41</title>
<g id="a_node41"><a xlink:href="../../df/d80/class_obj_1_1_c_tracker.html#a081ce678aabb08b558ec05c521b1eb79" target="_top" xlink:title=" ">
<polygon fill="white" stroke="black" points="1104,-117.5 1104,-147.5 1250,-147.5 1250,-117.5 1104,-117.5"/>
<text text-anchor="start" x="1112" y="-135.5" font-family="Helvetica,sans-Serif" font-size="10.00">Obj::CTracker::SuspendScript</text>
<text text-anchor="middle" x="1177" y="-124.5" font-family="Helvetica,sans-Serif" font-size="10.00">UntilEvent</text>
</a>
</g>
</g>
<!-- Node1&#45;&gt;Node41 -->
<g id="edge47" class="edge"><title>Node1&#45;&gt;Node41</title>
<path fill="none" stroke="midnightblue" d="M1336.07,-242.846C1301.1,-218.429 1234,-171.589 1199.56,-147.549"/>
<polygon fill="midnightblue" stroke="midnightblue" points="1334.43,-245.968 1344.64,-248.822 1338.44,-240.228 1334.43,-245.968"/>
</g>
<!-- Node4 -->
<g id="node4" class="node"><title>Node4</title>
<g id="a_node4"><a xlink:href="../../db/d54/class_front_1_1_c_base_menu.html#a85e85199500d764e2e34aaa7a0607314" target="_top" xlink:title=" ">
<polygon fill="white" stroke="black" points="922,-492.5 922,-522.5 1058,-522.5 1058,-492.5 922,-492.5"/>
<text text-anchor="start" x="930" y="-510.5" font-family="Helvetica,sans-Serif" font-size="10.00">Front::CBaseMenu::change</text>
<text text-anchor="middle" x="990" y="-499.5" font-family="Helvetica,sans-Serif" font-size="10.00">_selection</text>
</a>
</g>
</g>
<!-- Node3&#45;&gt;Node4 -->
<g id="edge3" class="edge"><title>Node3&#45;&gt;Node4</title>
<path fill="none" stroke="midnightblue" d="M1107.84,-273.833C1106.49,-274.973 1105.21,-276.194 1104,-277.5 1042.74,-343.864 1125.4,-407.768 1068,-477.5 1062.99,-483.592 1056.57,-488.452 1049.59,-492.326"/>
<polygon fill="midnightblue" stroke="midnightblue" points="1109.91,-276.655 1116.22,-268.138 1105.98,-270.866 1109.91,-276.655"/>
</g>
<!-- Node5 -->
<g id="node5" class="node"><title>Node5</title>
<g id="a_node5"><a xlink:href="../../db/d54/class_front_1_1_c_base_menu.html#ad63f6c1e0e3208fecf75622ebefaafd8" target="_top" xlink:title=" ">
<polygon fill="white" stroke="black" points="707.5,-464.5 707.5,-494.5 871.5,-494.5 871.5,-464.5 707.5,-464.5"/>
<text text-anchor="start" x="715.5" y="-482.5" font-family="Helvetica,sans-Serif" font-size="10.00">Front::CBaseMenu::PassTargeted</text>
<text text-anchor="middle" x="789.5" y="-471.5" font-family="Helvetica,sans-Serif" font-size="10.00">Event</text>
</a>
</g>
</g>
<!-- Node3&#45;&gt;Node5 -->
<g id="edge12" class="edge"><title>Node3&#45;&gt;Node5</title>
<path fill="none" stroke="midnightblue" d="M1108,-273.804C1106.6,-274.953 1105.26,-276.183 1104,-277.5 1051.55,-332.401 1123.97,-393.193 1068,-444.5 1040.08,-470.094 943.141,-477.492 871.668,-479.367"/>
<polygon fill="midnightblue" stroke="midnightblue" points="1110.27,-276.505 1116.7,-268.084 1106.42,-270.657 1110.27,-276.505"/>
</g>
<!-- Node6 -->
<g id="node6" class="node"><title>Node6</title>
<g id="a_node6"><a xlink:href="../../d8/d13/class_ed_1_1_c_park_editor.html#aa82fe3ef8e41678f843e404de53af450" target="_top" xlink:title=" ">
<polygon fill="white" stroke="black" points="520.5,-49.5 520.5,-79.5 650.5,-79.5 650.5,-49.5 520.5,-49.5"/>
<text text-anchor="start" x="528.5" y="-67.5" font-family="Helvetica,sans-Serif" font-size="10.00">Ed::CParkEditor::do</text>
<text text-anchor="middle" x="585.5" y="-56.5" font-family="Helvetica,sans-Serif" font-size="10.00">_piece_select_commands</text>
</a>
</g>
</g>
<!-- Node3&#45;&gt;Node6 -->
<g id="edge5" class="edge"><title>Node3&#45;&gt;Node6</title>
<path fill="none" stroke="midnightblue" d="M1162.28,-240.879C1147.09,-220.985 1122.35,-187.36 1104,-156.5 1085.51,-125.406 1098.34,-103.205 1068,-83.5 1001,-39.981 765.946,-50.824 650.903,-59.1359"/>
<polygon fill="midnightblue" stroke="midnightblue" points="1159.65,-243.205 1168.52,-248.994 1165.2,-238.935 1159.65,-243.205"/>
</g>
<!-- Node10 -->
<g id="node10" class="node"><title>Node10</title>
<g id="a_node10"><a xlink:href="../../d8/d59/class_front_1_1_c_screen_element_manager.html#af6f86b160c86bd76879bb80ac62e89aa" target="_top" xlink:title=" ">
<polygon fill="white" stroke="black" points="912,-317.5 912,-347.5 1068,-347.5 1068,-317.5 912,-317.5"/>
<text text-anchor="start" x="920" y="-335.5" font-family="Helvetica,sans-Serif" font-size="10.00">Front::CScreenElementManager</text>
<text text-anchor="middle" x="990" y="-324.5" font-family="Helvetica,sans-Serif" font-size="10.00">::pass_event_to_listener</text>
</a>
</g>
</g>
<!-- Node3&#45;&gt;Node10 -->
<g id="edge10" class="edge"><title>Node3&#45;&gt;Node10</title>
<path fill="none" stroke="midnightblue" d="M1118.39,-271.243C1113.42,-273.076 1108.55,-275.152 1104,-277.5 1085.49,-287.051 1086.23,-297.436 1068,-307.5 1061.23,-311.235 1053.82,-314.52 1046.35,-317.374"/>
<polygon fill="midnightblue" stroke="midnightblue" points="1119.67,-274.507 1128.04,-268.012 1117.44,-267.869 1119.67,-274.507"/>
</g>
<!-- Node11 -->
<g id="node11" class="node"><title>Node11</title>
<g id="a_node11"><a xlink:href="../../d9/db2/class_front_1_1_c_base_scrolling_menu.html#a833ac8e87007a2f2e78f5721b681d74f" target="_top" xlink:title=" ">
<polygon fill="white" stroke="black" points="922,-268.5 922,-298.5 1058,-298.5 1058,-268.5 922,-268.5"/>
<text text-anchor="start" x="930" y="-286.5" font-family="Helvetica,sans-Serif" font-size="10.00">Front::CBaseScrollingMenu</text>
<text text-anchor="middle" x="990" y="-275.5" font-family="Helvetica,sans-Serif" font-size="10.00">::PassTargetedEvent</text>
</a>
</g>
</g>
<!-- Node3&#45;&gt;Node11 -->
<g id="edge11" class="edge"><title>Node3&#45;&gt;Node11</title>
<path fill="none" stroke="midnightblue" d="M1097.87,-269.059C1084.62,-270.849 1070.96,-272.694 1058.03,-274.442"/>
<polygon fill="midnightblue" stroke="midnightblue" points="1098.46,-272.51 1107.9,-267.703 1097.52,-265.573 1098.46,-272.51"/>
</g>
<!-- Node12 -->
<g id="node12" class="node"><title>Node12</title>
<g id="a_node12"><a xlink:href="../../d7/d04/class_front_1_1_c_container_element.html#a0f6bd03af6fdbfc1a690a781eab7cf5d" target="_top" xlink:title=" ">
<polygon fill="white" stroke="black" points="925.5,-219.5 925.5,-249.5 1054.5,-249.5 1054.5,-219.5 925.5,-219.5"/>
<text text-anchor="start" x="933.5" y="-237.5" font-family="Helvetica,sans-Serif" font-size="10.00">Front::CContainerElement</text>
<text text-anchor="middle" x="990" y="-226.5" font-family="Helvetica,sans-Serif" font-size="10.00">::PassTargetedEvent</text>
</a>
</g>
</g>
<!-- Node3&#45;&gt;Node12 -->
<g id="edge13" class="edge"><title>Node3&#45;&gt;Node12</title>
<path fill="none" stroke="midnightblue" d="M1097.58,-248.326C1083.26,-246.469 1068.48,-244.552 1054.66,-242.758"/>
<polygon fill="midnightblue" stroke="midnightblue" points="1097.53,-251.85 1107.9,-249.666 1098.43,-244.908 1097.53,-251.85"/>
</g>
<!-- Node13 -->
<g id="node13" class="node"><title>Node13</title>
<g id="a_node13"><a xlink:href="../../db/d54/class_front_1_1_c_base_menu.html#a656494bedbccdae98695fa002d1ec5e9" target="_top" xlink:title=" ">
<polygon fill="white" stroke="black" points="917,-416 917,-435 1063,-435 1063,-416 917,-416"/>
<text text-anchor="middle" x="990" y="-423" font-family="Helvetica,sans-Serif" font-size="10.00">Front::CBaseMenu::reposition</text>
</a>
</g>
</g>
<!-- Node3&#45;&gt;Node13 -->
<g id="edge14" class="edge"><title>Node3&#45;&gt;Node13</title>
<path fill="none" stroke="midnightblue" d="M1108.62,-273.516C1106.99,-274.745 1105.45,-276.07 1104,-277.5 1061.61,-319.291 1110.72,-365.051 1068,-406.5 1064.05,-410.335 1059.45,-413.436 1054.51,-415.938"/>
<polygon fill="midnightblue" stroke="midnightblue" points="1110.63,-276.386 1117.28,-268.142 1106.94,-270.436 1110.63,-276.386"/>
</g>
<!-- Node14 -->
<g id="node14" class="node"><title>Node14</title>
<g id="a_node14"><a xlink:href="../../d2/d10/namespace_obj.html#ad2265cbf31832a24f13e36ae86e2a97d" target="_top" xlink:title=" ">
<polygon fill="white" stroke="black" points="930.5,-143 930.5,-162 1049.5,-162 1049.5,-143 930.5,-143"/>
<text text-anchor="middle" x="990" y="-150" font-family="Helvetica,sans-Serif" font-size="10.00">Obj::ScriptLaunchEvent</text>
</a>
</g>
</g>
<!-- Node3&#45;&gt;Node14 -->
<g id="edge16" class="edge"><title>Node3&#45;&gt;Node14</title>
<path fill="none" stroke="midnightblue" d="M1158.26,-241.896C1137.89,-223.604 1102.76,-194.412 1068,-176.5 1056.42,-170.536 1043.1,-165.737 1030.82,-162.045"/>
<polygon fill="midnightblue" stroke="midnightblue" points="1156.06,-244.624 1165.81,-248.778 1160.78,-239.452 1156.06,-244.624"/>
</g>
<!-- Node15 -->
<g id="node15" class="node"><title>Node15</title>
<g id="a_node15"><a xlink:href="../../d7/df0/class_front_1_1_c_screen_element.html#a170c075643a2c45f6c7f76b00009f242" target="_top" xlink:title=" ">
<polygon fill="white" stroke="black" points="930.5,-366.5 930.5,-396.5 1049.5,-396.5 1049.5,-366.5 930.5,-366.5"/>
<text text-anchor="start" x="938.5" y="-384.5" font-family="Helvetica,sans-Serif" font-size="10.00">Front::CScreenElement</text>
<text text-anchor="middle" x="990" y="-373.5" font-family="Helvetica,sans-Serif" font-size="10.00">::SetChildLockState</text>
</a>
</g>
</g>
<!-- Node3&#45;&gt;Node15 -->
<g id="edge17" class="edge"><title>Node3&#45;&gt;Node15</title>
<path fill="none" stroke="midnightblue" d="M1110.33,-272.894C1108.11,-274.292 1105.99,-275.823 1104,-277.5 1074.5,-302.375 1096.79,-330.81 1068,-356.5 1062.65,-361.273 1056.38,-365.136 1049.76,-368.262"/>
<polygon fill="midnightblue" stroke="midnightblue" points="1112.11,-275.911 1119.32,-268.141 1108.84,-269.723 1112.11,-275.911"/>
</g>
<!-- Node35 -->
<g id="node35" class="node"><title>Node35</title>
<g id="a_node35"><a xlink:href="../../d2/d4f/class_ed_1_1_c_upper_menu_manager.html#ab1056590813f145b2a1af912e2c60b38" target="_top" xlink:title=" ">
<polygon fill="white" stroke="black" points="926,-93.5 926,-123.5 1054,-123.5 1054,-93.5 926,-93.5"/>
<text text-anchor="start" x="934" y="-111.5" font-family="Helvetica,sans-Serif" font-size="10.00">Ed::CUpperMenuManager</text>
<text text-anchor="middle" x="990" y="-100.5" font-family="Helvetica,sans-Serif" font-size="10.00">::SetPieceSet</text>
</a>
</g>
</g>
<!-- Node3&#45;&gt;Node35 -->
<g id="edge38" class="edge"><title>Node3&#45;&gt;Node35</title>
<path fill="none" stroke="midnightblue" d="M1164.93,-240.258C1147.56,-213.14 1111.39,-162.305 1068,-133.5 1062.26,-129.691 1055.9,-126.424 1049.36,-123.631"/>
<polygon fill="midnightblue" stroke="midnightblue" points="1161.99,-242.167 1170.27,-248.786 1167.93,-238.453 1161.99,-242.167"/>
</g>
<!-- Node40 -->
<g id="node40" class="node"><title>Node40</title>
<g id="a_node40"><a xlink:href="../../d8/d13/class_ed_1_1_c_park_editor.html#a59796ee9965b02835c1d377ffcf722a6" target="_top" xlink:title=" ">
<polygon fill="white" stroke="black" points="512.5,-165.5 512.5,-195.5 658.5,-195.5 658.5,-165.5 512.5,-165.5"/>
<text text-anchor="start" x="520.5" y="-183.5" font-family="Helvetica,sans-Serif" font-size="10.00">Ed::CParkEditor::SwitchMenu</text>
<text text-anchor="middle" x="585.5" y="-172.5" font-family="Helvetica,sans-Serif" font-size="10.00">PieceToMostRecentClipboard</text>
</a>
</g>
</g>
<!-- Node3&#45;&gt;Node40 -->
<g id="edge46" class="edge"><title>Node3&#45;&gt;Node40</title>
<path fill="none" stroke="midnightblue" d="M1150.84,-243.881C1129.54,-232.303 1097.81,-216.891 1068,-209.5 926.159,-174.331 753.966,-173.633 658.703,-176.753"/>
<polygon fill="midnightblue" stroke="midnightblue" points="1149.41,-247.088 1159.85,-248.888 1152.81,-240.97 1149.41,-247.088"/>
</g>
<!-- Node4&#45;&gt;Node5 -->
<g id="edge4" class="edge"><title>Node4&#45;&gt;Node5</title>
<path fill="none" stroke="midnightblue" d="M911.857,-496.618C898.697,-494.762 884.991,-492.829 871.73,-490.958"/>
<polygon fill="midnightblue" stroke="midnightblue" points="911.406,-500.089 921.797,-498.02 912.384,-493.158 911.406,-500.089"/>
</g>
<!-- Node7 -->
<g id="node7" class="node"><title>Node7</title>
<g id="a_node7"><a xlink:href="../../d8/d13/class_ed_1_1_c_park_editor.html#a6be15a7ef8a2d7f722fe517ae21f431e" target="_top" xlink:title=" ">
<polygon fill="white" stroke="black" points="328.5,-49.5 328.5,-79.5 434.5,-79.5 434.5,-49.5 328.5,-49.5"/>
<text text-anchor="start" x="336.5" y="-67.5" font-family="Helvetica,sans-Serif" font-size="10.00">Ed::CParkEditor::rail</text>
<text text-anchor="middle" x="381.5" y="-56.5" font-family="Helvetica,sans-Serif" font-size="10.00">_placement_logic</text>
</a>
</g>
</g>
<!-- Node6&#45;&gt;Node7 -->
<g id="edge6" class="edge"><title>Node6&#45;&gt;Node7</title>
<path fill="none" stroke="midnightblue" d="M510.109,-64.5C485.066,-64.5 457.672,-64.5 434.708,-64.5"/>
<polygon fill="midnightblue" stroke="midnightblue" points="510.308,-68.0001 520.308,-64.5 510.308,-61.0001 510.308,-68.0001"/>
</g>
<!-- Node9 -->
<g id="node9" class="node"><title>Node9</title>
<g id="a_node9"><a xlink:href="../../d8/d13/class_ed_1_1_c_park_editor.html#a5f483743d7e5e5c75cf1b2afd637c223" target="_top" xlink:title=" ">
<polygon fill="white" stroke="black" points="320.5,-0.5 320.5,-30.5 442.5,-30.5 442.5,-0.5 320.5,-0.5"/>
<text text-anchor="start" x="328.5" y="-18.5" font-family="Helvetica,sans-Serif" font-size="10.00">Ed::CParkEditor::regular</text>
<text text-anchor="middle" x="381.5" y="-7.5" font-family="Helvetica,sans-Serif" font-size="10.00">_command_logic</text>
</a>
</g>
</g>
<!-- Node6&#45;&gt;Node9 -->
<g id="edge8" class="edge"><title>Node6&#45;&gt;Node9</title>
<path fill="none" stroke="midnightblue" d="M512.522,-47.0399C489.639,-41.4892 464.585,-35.4116 442.63,-30.0859"/>
<polygon fill="midnightblue" stroke="midnightblue" points="511.977,-50.5093 522.521,-49.4654 513.628,-43.7066 511.977,-50.5093"/>
</g>
<!-- Node8 -->
<g id="node8" class="node"><title>Node8</title>
<g id="a_node8"><a xlink:href="../../d8/d13/class_ed_1_1_c_park_editor.html#a622e0191890c341a9c8c9459171a5fc8" target="_top" xlink:title=" ">
<polygon fill="white" stroke="black" points="130,-55 130,-74 254,-74 254,-55 130,-55"/>
<text text-anchor="middle" x="192" y="-62" font-family="Helvetica,sans-Serif" font-size="10.00">Ed::CParkEditor::Update</text>
</a>
</g>
</g>
<!-- Node7&#45;&gt;Node8 -->
<g id="edge7" class="edge"><title>Node7&#45;&gt;Node8</title>
<path fill="none" stroke="midnightblue" d="M318.071,-64.5C297.521,-64.5 274.702,-64.5 254.24,-64.5"/>
<polygon fill="midnightblue" stroke="midnightblue" points="318.271,-68.0001 328.271,-64.5 318.271,-61.0001 318.271,-68.0001"/>
</g>
<!-- Node9&#45;&gt;Node8 -->
<g id="edge9" class="edge"><title>Node9&#45;&gt;Node8</title>
<path fill="none" stroke="midnightblue" d="M313.148,-33.1014C284.917,-40.4789 253.21,-48.7652 229.459,-54.972"/>
<polygon fill="midnightblue" stroke="midnightblue" points="314.179,-36.4494 322.97,-30.5346 312.41,-29.6768 314.179,-36.4494"/>
</g>
<!-- Node13&#45;&gt;Node5 -->
<g id="edge15" class="edge"><title>Node13&#45;&gt;Node5</title>
<path fill="none" stroke="midnightblue" d="M944.067,-437.724C914.932,-445.65 876.773,-456.03 845.782,-464.461"/>
<polygon fill="midnightblue" stroke="midnightblue" points="945.239,-441.032 953.969,-435.03 943.401,-434.278 945.239,-441.032"/>
</g>
<!-- Node16 -->
<g id="node16" class="node"><title>Node16</title>
<g id="a_node16"><a xlink:href="../../de/dfc/class_game_1_1_c_skatetris_goal.html#a35ff636231daf3573822314272b96048" target="_top" xlink:title=" ">
<polygon fill="white" stroke="black" points="732,-366.5 732,-396.5 847,-396.5 847,-366.5 732,-366.5"/>
<text text-anchor="start" x="740" y="-384.5" font-family="Helvetica,sans-Serif" font-size="10.00">Game::CSkatetrisGoal</text>
<text text-anchor="middle" x="789.5" y="-373.5" font-family="Helvetica,sans-Serif" font-size="10.00">::AddTetrisTrick</text>
</a>
</g>
</g>
<!-- Node15&#45;&gt;Node16 -->
<g id="edge18" class="edge"><title>Node15&#45;&gt;Node16</title>
<path fill="none" stroke="midnightblue" d="M920.193,-381.5C896.313,-381.5 869.83,-381.5 847.053,-381.5"/>
<polygon fill="midnightblue" stroke="midnightblue" points="920.249,-385 930.249,-381.5 920.249,-378 920.249,-385"/>
</g>
<!-- Node18 -->
<g id="node18" class="node"><title>Node18</title>
<g id="a_node18"><a xlink:href="../../d5/d96/namespace_front.html#a8eccf7a1abe3d1eb6ebc88b9813cb8d2" target="_top" xlink:title=" ">
<polygon fill="white" stroke="black" points="703,-328 703,-347 876,-347 876,-328 703,-328"/>
<text text-anchor="middle" x="789.5" y="-335" font-family="Helvetica,sans-Serif" font-size="10.00">Front::ScriptSetScreenElementLock</text>
</a>
</g>
</g>
<!-- Node15&#45;&gt;Node18 -->
<g id="edge20" class="edge"><title>Node15&#45;&gt;Node18</title>
<path fill="none" stroke="midnightblue" d="M920.252,-366.261C891.493,-359.886 858.949,-352.672 833.648,-347.064"/>
<polygon fill="midnightblue" stroke="midnightblue" points="919.729,-369.73 930.249,-368.477 921.244,-362.896 919.729,-369.73"/>
</g>
<!-- Node19 -->
<g id="node19" class="node"><title>Node19</title>
<g id="a_node19"><a xlink:href="../../d1/dec/class_front_1_1_c_text_block_element.html#a07ae9ccaf76dbabf1b37394b3383516e" target="_top" xlink:title=" ">
<polygon fill="white" stroke="black" points="724,-415.5 724,-445.5 855,-445.5 855,-415.5 724,-415.5"/>
<text text-anchor="start" x="732" y="-433.5" font-family="Helvetica,sans-Serif" font-size="10.00">Front::CTextBlockElement</text>
<text text-anchor="middle" x="789.5" y="-422.5" font-family="Helvetica,sans-Serif" font-size="10.00">::SetText</text>
</a>
</g>
</g>
<!-- Node15&#45;&gt;Node19 -->
<g id="edge21" class="edge"><title>Node15&#45;&gt;Node19</title>
<path fill="none" stroke="midnightblue" d="M920.469,-398.417C898.059,-403.949 873.33,-410.053 851.512,-415.439"/>
<polygon fill="midnightblue" stroke="midnightblue" points="921.379,-401.797 930.249,-396.003 919.702,-395.001 921.379,-401.797"/>
</g>
<!-- Node34 -->
<g id="node34" class="node"><title>Node34</title>
<g id="a_node34"><a xlink:href="../../d7/df0/class_front_1_1_c_screen_element.html#a70cacf7e8f0cde7ce9c5f0189add8241" target="_top" xlink:title=" ">
<polygon fill="white" stroke="black" points="730,-260.5 730,-290.5 849,-290.5 849,-260.5 730,-260.5"/>
<text text-anchor="start" x="738" y="-278.5" font-family="Helvetica,sans-Serif" font-size="10.00">Front::CScreenElement</text>
<text text-anchor="middle" x="789.5" y="-267.5" font-family="Helvetica,sans-Serif" font-size="10.00">::UpdateProperties</text>
</a>
</g>
</g>
<!-- Node15&#45;&gt;Node34 -->
<g id="edge36" class="edge"><title>Node15&#45;&gt;Node34</title>
<path fill="none" stroke="midnightblue" d="M922.438,-362.31C918.821,-360.526 915.315,-358.593 912,-356.5 892.328,-344.08 894.671,-332.379 876,-318.5 861.198,-307.498 843.158,-297.952 827.471,-290.669"/>
<polygon fill="midnightblue" stroke="midnightblue" points="921.055,-365.526 931.61,-366.443 923.931,-359.144 921.055,-365.526"/>
</g>
<!-- Node17 -->
<g id="node17" class="node"><title>Node17</title>
<g id="a_node17"><a xlink:href="../../de/dfc/class_game_1_1_c_skatetris_goal.html#ade3ae215495acba69b38a8215f9b8d1a" target="_top" xlink:title=" ">
<polygon fill="white" stroke="black" points="528,-278.5 528,-308.5 643,-308.5 643,-278.5 528,-278.5"/>
<text text-anchor="start" x="536" y="-296.5" font-family="Helvetica,sans-Serif" font-size="10.00">Game::CSkatetrisGoal</text>
<text text-anchor="middle" x="585.5" y="-285.5" font-family="Helvetica,sans-Serif" font-size="10.00">::Update</text>
</a>
</g>
</g>
<!-- Node16&#45;&gt;Node17 -->
<g id="edge19" class="edge"><title>Node16&#45;&gt;Node17</title>
<path fill="none" stroke="midnightblue" d="M722.573,-366.13C715.738,-363.401 709.079,-360.214 703,-356.5 683.148,-344.371 686.751,-330.794 667,-318.5 659.67,-313.937 651.443,-310.15 643.121,-307.023"/>
<polygon fill="midnightblue" stroke="midnightblue" points="721.369,-369.416 731.962,-369.574 723.779,-362.845 721.369,-369.416"/>
</g>
<!-- Node20 -->
<g id="node20" class="node"><title>Node20</title>
<g id="a_node20"><a xlink:href="../../d1/dec/class_front_1_1_c_text_block_element.html#a625a1c5ff651e034f4573e15e9d9ad4c" target="_top" xlink:title=" ">
<polygon fill="white" stroke="black" points="520,-415.5 520,-445.5 651,-445.5 651,-415.5 520,-415.5"/>
<text text-anchor="start" x="528" y="-433.5" font-family="Helvetica,sans-Serif" font-size="10.00">Front::CTextBlockElement</text>
<text text-anchor="middle" x="585.5" y="-422.5" font-family="Helvetica,sans-Serif" font-size="10.00">::Backspace</text>
</a>
</g>
</g>
<!-- Node19&#45;&gt;Node20 -->
<g id="edge22" class="edge"><title>Node19&#45;&gt;Node20</title>
<path fill="none" stroke="midnightblue" d="M713.529,-430.5C693.064,-430.5 671.069,-430.5 651.227,-430.5"/>
<polygon fill="midnightblue" stroke="midnightblue" points="713.752,-434 723.752,-430.5 713.752,-427 713.752,-434"/>
</g>
<!-- Node22 -->
<g id="node22" class="node"><title>Node22</title>
<g id="a_node22"><a xlink:href="../../d1/dec/class_front_1_1_c_text_block_element.html#a3e557147aa3a64b789a1b916f8a32410" target="_top" xlink:title=" ">
<polygon fill="white" stroke="black" points="520,-366.5 520,-396.5 651,-396.5 651,-366.5 520,-366.5"/>
<text text-anchor="start" x="528" y="-384.5" font-family="Helvetica,sans-Serif" font-size="10.00">Front::CTextBlockElement</text>
<text text-anchor="middle" x="585.5" y="-373.5" font-family="Helvetica,sans-Serif" font-size="10.00">::Concatenate</text>
</a>
</g>
</g>
<!-- Node19&#45;&gt;Node22 -->
<g id="edge24" class="edge"><title>Node19&#45;&gt;Node22</title>
<path fill="none" stroke="midnightblue" d="M716.754,-413.096C694.408,-407.676 669.971,-401.748 648.362,-396.506"/>
<polygon fill="midnightblue" stroke="midnightblue" points="715.977,-416.509 726.521,-415.465 717.628,-409.707 715.977,-416.509"/>
</g>
<!-- Node24 -->
<g id="node24" class="node"><title>Node24</title>
<g id="a_node24"><a xlink:href="../../d9/d29/namespace_replay.html#a6bf26a271f079170f437e6c9b4d794cd" target="_top" xlink:title=" ">
<polygon fill="white" stroke="black" points="504,-328 504,-347 667,-347 667,-328 504,-328"/>
<text text-anchor="middle" x="585.5" y="-335" font-family="Helvetica,sans-Serif" font-size="10.00">Replay::sClearTrickAndScoreText</text>
</a>
</g>
</g>
<!-- Node19&#45;&gt;Node24 -->
<g id="edge26" class="edge"><title>Node19&#45;&gt;Node24</title>
<path fill="none" stroke="midnightblue" d="M714.646,-413.378C710.57,-411.337 706.652,-409.054 703,-406.5 680.559,-390.808 689.765,-371.718 667,-356.5 661.15,-352.59 654.591,-349.48 647.808,-347.008"/>
<polygon fill="midnightblue" stroke="midnightblue" points="713.226,-416.577 723.783,-417.47 716.087,-410.188 713.226,-416.577"/>
</g>
<!-- Node27 -->
<g id="node27" class="node"><title>Node27</title>
<g id="a_node27"><a xlink:href="../../d1/dec/class_front_1_1_c_text_block_element.html#a7aa2f55eb993b4d6d3325db126072ed4" target="_top" xlink:title=" ">
<polygon fill="white" stroke="black" points="520,-552.5 520,-582.5 651,-582.5 651,-552.5 520,-552.5"/>
<text text-anchor="start" x="528" y="-570.5" font-family="Helvetica,sans-Serif" font-size="10.00">Front::CTextBlockElement</text>
<text text-anchor="middle" x="585.5" y="-559.5" font-family="Helvetica,sans-Serif" font-size="10.00">::SetProperties</text>
</a>
</g>
</g>
<!-- Node19&#45;&gt;Node27 -->
<g id="edge29" class="edge"><title>Node19&#45;&gt;Node27</title>
<path fill="none" stroke="midnightblue" d="M714.901,-446.941C710.634,-449.407 706.615,-452.242 703,-455.5 671.609,-483.789 698.316,-515.128 667,-543.5 662.353,-547.71 656.995,-551.183 651.298,-554.048"/>
<polygon fill="midnightblue" stroke="midnightblue" points="716.605,-450.002 723.963,-442.378 713.457,-443.749 716.605,-450.002"/>
</g>
<!-- Node28 -->
<g id="node28" class="node"><title>Node28</title>
<g id="a_node28"><a xlink:href="../../d1/dec/class_front_1_1_c_text_block_element.html#ad8b4b333cab528be4b6b32770b948dc0" target="_top" xlink:title=" ">
<polygon fill="white" stroke="black" points="520,-503.5 520,-533.5 651,-533.5 651,-503.5 520,-503.5"/>
<text text-anchor="start" x="528" y="-521.5" font-family="Helvetica,sans-Serif" font-size="10.00">Front::CTextBlockElement</text>
<text text-anchor="middle" x="585.5" y="-510.5" font-family="Helvetica,sans-Serif" font-size="10.00">::SetText</text>
</a>
</g>
</g>
<!-- Node19&#45;&gt;Node28 -->
<g id="edge30" class="edge"><title>Node19&#45;&gt;Node28</title>
<path fill="none" stroke="midnightblue" d="M714.449,-449.384C710.483,-451.244 706.637,-453.278 703,-455.5 683.148,-467.629 686.751,-481.206 667,-493.5 660.788,-497.367 653.932,-500.677 646.92,-503.5"/>
<polygon fill="midnightblue" stroke="midnightblue" points="716.062,-452.501 723.882,-445.353 713.311,-446.064 716.062,-452.501"/>
</g>
<!-- Node29 -->
<g id="node29" class="node"><title>Node29</title>
<g id="a_node29"><a xlink:href="../../d9/d29/namespace_replay.html#ab958f356e35a428381832faece7332ce" target="_top" xlink:title=" ">
<polygon fill="white" stroke="black" points="531.5,-465 531.5,-484 639.5,-484 639.5,-465 531.5,-465"/>
<text text-anchor="middle" x="585.5" y="-472" font-family="Helvetica,sans-Serif" font-size="10.00">Replay::sReadFrame</text>
</a>
</g>
</g>
<!-- Node19&#45;&gt;Node29 -->
<g id="edge31" class="edge"><title>Node19&#45;&gt;Node29</title>
<path fill="none" stroke="midnightblue" d="M713.922,-446.745C685.736,-452.884 654.597,-459.667 630.158,-464.99"/>
<polygon fill="midnightblue" stroke="midnightblue" points="714.726,-450.152 723.752,-444.603 713.237,-443.312 714.726,-450.152"/>
</g>
<!-- Node21 -->
<g id="node21" class="node"><title>Node21</title>
<g id="a_node21"><a xlink:href="../../d5/d96/namespace_front.html#a5afbf66636afa448a30c926ac0c7b2d0" target="_top" xlink:title=" ">
<polygon fill="white" stroke="black" points="319,-415.5 319,-445.5 444,-445.5 444,-415.5 319,-415.5"/>
<text text-anchor="start" x="327" y="-433.5" font-family="Helvetica,sans-Serif" font-size="10.00">Front::ScriptTextElement</text>
<text text-anchor="middle" x="381.5" y="-422.5" font-family="Helvetica,sans-Serif" font-size="10.00">Backspace</text>
</a>
</g>
</g>
<!-- Node20&#45;&gt;Node21 -->
<g id="edge23" class="edge"><title>Node20&#45;&gt;Node21</title>
<path fill="none" stroke="midnightblue" d="M509.65,-430.5C488.08,-430.5 464.801,-430.5 444.13,-430.5"/>
<polygon fill="midnightblue" stroke="midnightblue" points="509.752,-434 519.752,-430.5 509.752,-427 509.752,-434"/>
</g>
<!-- Node23 -->
<g id="node23" class="node"><title>Node23</title>
<g id="a_node23"><a xlink:href="../../d5/d96/namespace_front.html#a837f0fcb551bb4ad564975c0fdbbee77" target="_top" xlink:title=" ">
<polygon fill="white" stroke="black" points="319,-366.5 319,-396.5 444,-396.5 444,-366.5 319,-366.5"/>
<text text-anchor="start" x="327" y="-384.5" font-family="Helvetica,sans-Serif" font-size="10.00">Front::ScriptTextElement</text>
<text text-anchor="middle" x="381.5" y="-373.5" font-family="Helvetica,sans-Serif" font-size="10.00">Concatenate</text>
</a>
</g>
</g>
<!-- Node22&#45;&gt;Node23 -->
<g id="edge25" class="edge"><title>Node22&#45;&gt;Node23</title>
<path fill="none" stroke="midnightblue" d="M509.65,-381.5C488.08,-381.5 464.801,-381.5 444.13,-381.5"/>
<polygon fill="midnightblue" stroke="midnightblue" points="509.752,-385 519.752,-381.5 509.752,-378 509.752,-385"/>
</g>
<!-- Node25 -->
<g id="node25" class="node"><title>Node25</title>
<g id="a_node25"><a xlink:href="../../d9/d29/namespace_replay.html#a9504adfcb1229ba053bb270f012fd4dd" target="_top" xlink:title=" ">
<polygon fill="white" stroke="black" points="320.5,-278.5 320.5,-308.5 442.5,-308.5 442.5,-278.5 320.5,-278.5"/>
<text text-anchor="start" x="328.5" y="-296.5" font-family="Helvetica,sans-Serif" font-size="10.00">Replay::ScriptClearTrick</text>
<text text-anchor="middle" x="381.5" y="-285.5" font-family="Helvetica,sans-Serif" font-size="10.00">AndScoreText</text>
</a>
</g>
</g>
<!-- Node24&#45;&gt;Node25 -->
<g id="edge27" class="edge"><title>Node24&#45;&gt;Node25</title>
<path fill="none" stroke="midnightblue" d="M530.599,-325.759C503.522,-319.861 470.625,-312.696 442.72,-306.617"/>
<polygon fill="midnightblue" stroke="midnightblue" points="530.153,-329.244 540.669,-327.953 531.643,-322.404 530.153,-329.244"/>
</g>
<!-- Node26 -->
<g id="node26" class="node"><title>Node26</title>
<g id="a_node26"><a xlink:href="../../d9/d29/namespace_replay.html#ad6526ce527c88304b7736bcd1fd67757" target="_top" xlink:title=" ">
<polygon fill="white" stroke="black" points="307,-328 307,-347 456,-347 456,-328 307,-328"/>
<text text-anchor="middle" x="381.5" y="-335" font-family="Helvetica,sans-Serif" font-size="10.00">Replay::ScriptPlaybackReplay</text>
</a>
</g>
</g>
<!-- Node24&#45;&gt;Node26 -->
<g id="edge28" class="edge"><title>Node24&#45;&gt;Node26</title>
<path fill="none" stroke="midnightblue" d="M493.773,-337.5C481.202,-337.5 468.416,-337.5 456.206,-337.5"/>
<polygon fill="midnightblue" stroke="midnightblue" points="493.793,-341 503.793,-337.5 493.793,-334 493.793,-341"/>
</g>
<!-- Node30 -->
<g id="node30" class="node"><title>Node30</title>
<g id="a_node30"><a xlink:href="../../d9/d29/namespace_replay.html#a87e015fff19e95eb8991d6f168e06823" target="_top" xlink:title=" ">
<polygon fill="white" stroke="black" points="310,-465 310,-484 453,-484 453,-465 310,-465"/>
<text text-anchor="middle" x="381.5" y="-472" font-family="Helvetica,sans-Serif" font-size="10.00">Replay::sMakeEnoughSpace</text>
</a>
</g>
</g>
<!-- Node29&#45;&gt;Node30 -->
<g id="edge32" class="edge"><title>Node29&#45;&gt;Node30</title>
<path fill="none" stroke="midnightblue" d="M521.355,-474.5C499.685,-474.5 475.296,-474.5 453.074,-474.5"/>
<polygon fill="midnightblue" stroke="midnightblue" points="521.427,-478 531.427,-474.5 521.427,-471 521.427,-478"/>
</g>
<!-- Node33 -->
<g id="node33" class="node"><title>Node33</title>
<g id="a_node33"><a xlink:href="../../d9/d29/namespace_replay.html#a7c426768aee4425e84f478183ed653be" target="_top" xlink:title=" ">
<polygon fill="white" stroke="black" points="332.5,-503 332.5,-522 430.5,-522 430.5,-503 332.5,-503"/>
<text text-anchor="middle" x="381.5" y="-510" font-family="Helvetica,sans-Serif" font-size="10.00">Replay::sPlayback</text>
</a>
</g>
</g>
<!-- Node29&#45;&gt;Node33 -->
<g id="edge35" class="edge"><title>Node29&#45;&gt;Node33</title>
<path fill="none" stroke="midnightblue" d="M523.92,-485.896C494.133,-491.5 458.73,-498.16 430.797,-503.414"/>
<polygon fill="midnightblue" stroke="midnightblue" points="524.607,-489.328 533.788,-484.04 523.313,-482.449 524.607,-489.328"/>
</g>
<!-- Node31 -->
<g id="node31" class="node"><title>Node31</title>
<g id="a_node31"><a xlink:href="../../d9/d29/namespace_replay.html#a5f4fc112127bbc87811481da0684a15b" target="_top" xlink:title=" ">
<polygon fill="white" stroke="black" points="125,-459.5 125,-489.5 259,-489.5 259,-459.5 125,-459.5"/>
<text text-anchor="start" x="133" y="-477.5" font-family="Helvetica,sans-Serif" font-size="10.00">Replay::sWriteFrameBuffer</text>
<text text-anchor="middle" x="192" y="-466.5" font-family="Helvetica,sans-Serif" font-size="10.00">ToBigBuffer</text>
</a>
</g>
</g>
<!-- Node30&#45;&gt;Node31 -->
<g id="edge33" class="edge"><title>Node30&#45;&gt;Node31</title>
<path fill="none" stroke="midnightblue" d="M299.651,-474.5C286.155,-474.5 272.296,-474.5 259.221,-474.5"/>
<polygon fill="midnightblue" stroke="midnightblue" points="299.882,-478 309.881,-474.5 299.881,-471 299.882,-478"/>
</g>
<!-- Node32 -->
<g id="node32" class="node"><title>Node32</title>
<g id="a_node32"><a xlink:href="../../d9/d29/namespace_replay.html#a53570fbf15aa6e28548d69a1b6c7a1b9" target="_top" xlink:title=" ">
<polygon fill="white" stroke="black" points="0,-465 0,-484 89,-484 89,-465 0,-465"/>
<text text-anchor="middle" x="44.5" y="-472" font-family="Helvetica,sans-Serif" font-size="10.00">Replay::sRecord</text>
</a>
</g>
</g>
<!-- Node31&#45;&gt;Node32 -->
<g id="edge34" class="edge"><title>Node31&#45;&gt;Node32</title>
<path fill="none" stroke="midnightblue" d="M114.492,-474.5C105.854,-474.5 97.2861,-474.5 89.2781,-474.5"/>
<polygon fill="midnightblue" stroke="midnightblue" points="114.637,-478 124.637,-474.5 114.637,-471 114.637,-478"/>
</g>
<!-- Node34&#45;&gt;Node34 -->
<g id="edge37" class="edge"><title>Node34&#45;&gt;Node34</title>
<path fill="none" stroke="midnightblue" d="M825.038,-300.958C820.627,-305.679 808.781,-309 789.5,-309 757.859,-309 746.241,-300.057 754.646,-290.659"/>
<polygon fill="midnightblue" stroke="midnightblue" points="828.509,-300.405 824.354,-290.659 821.524,-300.869 828.509,-300.405"/>
</g>
<!-- Node36 -->
<g id="node36" class="node"><title>Node36</title>
<g id="a_node36"><a xlink:href="../../d8/d13/class_ed_1_1_c_park_editor.html#ad48921220fc2ca9d67c9f1fb96bac482" target="_top" xlink:title=" ">
<polygon fill="white" stroke="black" points="720.5,-93.5 720.5,-123.5 858.5,-123.5 858.5,-93.5 720.5,-93.5"/>
<text text-anchor="start" x="728.5" y="-111.5" font-family="Helvetica,sans-Serif" font-size="10.00">Ed::CParkEditor::turn</text>
<text text-anchor="middle" x="789.5" y="-100.5" font-family="Helvetica,sans-Serif" font-size="10.00">_on_or_update_piece_menu</text>
</a>
</g>
</g>
<!-- Node35&#45;&gt;Node36 -->
<g id="edge39" class="edge"><title>Node35&#45;&gt;Node36</title>
<path fill="none" stroke="midnightblue" d="M915.69,-108.5C896.998,-108.5 876.986,-108.5 858.568,-108.5"/>
<polygon fill="midnightblue" stroke="midnightblue" points="915.921,-112 925.921,-108.5 915.921,-105 915.921,-112"/>
</g>
<!-- Node36&#45;&gt;Node6 -->
<g id="edge40" class="edge"><title>Node36&#45;&gt;Node6</title>
<path fill="none" stroke="midnightblue" d="M710.472,-91.5038C690.655,-87.1872 669.592,-82.5992 650.559,-78.4534"/>
<polygon fill="midnightblue" stroke="midnightblue" points="709.878,-94.9564 720.394,-93.6649 711.368,-88.1167 709.878,-94.9564"/>
</g>
<!-- Node37 -->
<g id="node37" class="node"><title>Node37</title>
<g id="a_node37"><a xlink:href="../../d8/d13/class_ed_1_1_c_park_editor.html#ae21408452643f63f85b02fdc2ff3d22d" target="_top" xlink:title=" ">
<polygon fill="white" stroke="black" points="515,-118 515,-137 656,-137 656,-118 515,-118"/>
<text text-anchor="middle" x="585.5" y="-125" font-family="Helvetica,sans-Serif" font-size="10.00">Ed::CParkEditor::SetPaused</text>
</a>
</g>
</g>
<!-- Node36&#45;&gt;Node37 -->
<g id="edge41" class="edge"><title>Node36&#45;&gt;Node37</title>
<path fill="none" stroke="midnightblue" d="M710.04,-115.88C692.232,-117.555 673.439,-119.323 656.032,-120.96"/>
<polygon fill="midnightblue" stroke="midnightblue" points="710.765,-119.327 720.394,-114.906 710.11,-112.358 710.765,-119.327"/>
</g>
<!-- Node36&#45;&gt;Node40 -->
<g id="edge45" class="edge"><title>Node36&#45;&gt;Node40</title>
<path fill="none" stroke="midnightblue" d="M736.544,-127.019C703.09,-138.943 660.154,-154.247 628.79,-165.426"/>
<polygon fill="midnightblue" stroke="midnightblue" points="737.91,-130.248 746.154,-123.594 735.56,-123.654 737.91,-130.248"/>
</g>
<!-- Node37&#45;&gt;Node8 -->
<g id="edge44" class="edge"><title>Node37&#45;&gt;Node8</title>
<path fill="none" stroke="midnightblue" d="M547.243,-140.302C516.289,-150.829 476.057,-164.219 468,-165.5 392.065,-177.571 366.108,-194.749 295,-165.5 248.905,-146.54 212.578,-95.5594 198.89,-74.1628"/>
<polygon fill="midnightblue" stroke="midnightblue" points="548.579,-143.544 556.914,-137.003 546.32,-136.919 548.579,-143.544"/>
</g>
<!-- Node38 -->
<g id="node38" class="node"><title>Node38</title>
<g id="a_node38"><a xlink:href="../../d2/d84/namespace_ed.html#aace35a437e8cb2be371b0963f1b5c3f8" target="_top" xlink:title=" ">
<polygon fill="white" stroke="black" points="295,-137 295,-156 468,-156 468,-137 295,-137"/>
<text text-anchor="middle" x="381.5" y="-144" font-family="Helvetica,sans-Serif" font-size="10.00">Ed::ScriptSetParkEditorPauseMode</text>
</a>
</g>
</g>
<!-- Node37&#45;&gt;Node38 -->
<g id="edge42" class="edge"><title>Node37&#45;&gt;Node38</title>
<path fill="none" stroke="midnightblue" d="M504.964,-134.981C492.898,-136.116 480.403,-137.291 468.212,-138.438"/>
<polygon fill="midnightblue" stroke="midnightblue" points="505.355,-138.46 514.983,-134.039 504.699,-131.491 505.355,-138.46"/>
</g>
<!-- Node39 -->
<g id="node39" class="node"><title>Node39</title>
<g id="a_node39"><a xlink:href="../../d2/d84/namespace_ed.html#ab07cbc5cac3c62e78df39fe5c02f87ce" target="_top" xlink:title=" ">
<polygon fill="white" stroke="black" points="309.5,-99 309.5,-118 453.5,-118 453.5,-99 309.5,-99"/>
<text text-anchor="middle" x="381.5" y="-106" font-family="Helvetica,sans-Serif" font-size="10.00">Ed::ScriptSetParkEditorState</text>
</a>
</g>
</g>
<!-- Node37&#45;&gt;Node39 -->
<g id="edge43" class="edge"><title>Node37&#45;&gt;Node39</title>
<path fill="none" stroke="midnightblue" d="M504.602,-119.985C487.73,-118.398 470.036,-116.734 453.518,-115.18"/>
<polygon fill="midnightblue" stroke="midnightblue" points="504.699,-123.509 514.983,-120.961 505.355,-116.54 504.699,-123.509"/>
</g>
<!-- Node42 -->
<g id="node42" class="node"><title>Node42</title>
<g id="a_node42"><a xlink:href="../../d2/d10/namespace_obj.html#a785bf7b8696df49386cf8497d48bf672" target="_top" xlink:title=" ">
<polygon fill="white" stroke="black" points="929,-17 929,-36 1051,-36 1051,-17 929,-17"/>
<text text-anchor="middle" x="990" y="-24" font-family="Helvetica,sans-Serif" font-size="10.00">Obj::ScriptWaitForEvent</text>
</a>
</g>
</g>
<!-- Node41&#45;&gt;Node42 -->
<g id="edge48" class="edge"><title>Node41&#45;&gt;Node42</title>
<path fill="none" stroke="midnightblue" d="M1152.33,-110.635C1131.48,-92.3723 1099.59,-66.7779 1068,-50.5 1056.42,-44.5355 1043.1,-39.7372 1030.82,-36.045"/>
<polygon fill="midnightblue" stroke="midnightblue" points="1150.23,-113.448 1160.02,-117.481 1154.88,-108.219 1150.23,-113.448"/>
</g>
</g>
</svg>
        <g id="navigator" transform="translate(0 0)" fill="#404254">
                <rect fill="#f2f5e9" fill-opacity="0.5" stroke="#606060" stroke-width=".5" x="0" y="0" width="60" height="60"/>
                <use id="zoomplus" xlink:href="#zoomPlus" x="17" y="9" onmousedown="handleZoom(evt,'in')"/>
                <use id="zoomminus" xlink:href="#zoomMin" x="42" y="9" onmousedown="handleZoom(evt,'out')"/>
                <use id="reset" xlink:href="#resetDef" x="30" y="36" onmousedown="handleReset()"/>
                <g id="arrowUp" xlink:href="#dirArrow" transform="translate(30 24)" onmousedown="handlePan(0,-1)">
                  <use xlink:href="#rim" fill="#404040">
                        <set attributeName="fill" to="#808080" begin="arrowUp.mouseover" end="arrowUp.mouseout"/>
                  </use>
                  <path fill="none" stroke="white" stroke-width="1.5" d="M0,-3.0v7 M-2.5,-0.5L0,-3.0L2.5,-0.5"/>
                </g>
                <g id="arrowRight" xlink:href="#dirArrow" transform="rotate(90) translate(36 -43)" onmousedown="handlePan(1,0)">
                  <use xlink:href="#rim" fill="#404040">
                        <set attributeName="fill" to="#808080" begin="arrowRight.mouseover" end="arrowRight.mouseout"/>
                  </use>
                  <path fill="none" stroke="white" stroke-width="1.5" d="M0,-3.0v7 M-2.5,-0.5L0,-3.0L2.5,-0.5"/>
                </g>
                <g id="arrowDown" xlink:href="#dirArrow" transform="rotate(180) translate(-30 -48)" onmousedown="handlePan(0,1)">
                  <use xlink:href="#rim" fill="#404040">
                        <set attributeName="fill" to="#808080" begin="arrowDown.mouseover" end="arrowDown.mouseout"/>
                  </use>
                  <path fill="none" stroke="white" stroke-width="1.5" d="M0,-3.0v7 M-2.5,-0.5L0,-3.0L2.5,-0.5"/>
                </g>
                <g id="arrowLeft" xlink:href="#dirArrow" transform="rotate(270) translate(-36 17)" onmousedown="handlePan(-1,0)">
                  <use xlink:href="#rim" fill="#404040">
                        <set attributeName="fill" to="#808080" begin="arrowLeft.mouseover" end="arrowLeft.mouseout"/>
                  </use>
                  <path fill="none" stroke="white" stroke-width="1.5" d="M0,-3.0v7 M-2.5,-0.5L0,-3.0L2.5,-0.5"/>
                </g>
        </g>
        <svg viewBox="0 0 15 15" width="100%" height="30px" preserveAspectRatio="xMaxYMin meet">
         <g id="arrow_out" transform="scale(0.3 0.3)">
          <a xlink:href="namespace_script_a16fb9e60a44867ddc57936f325fff5b7_icgraph_org.svg" target="_base">
           <rect id="button" ry="5" rx="5" y="6" x="6" height="38" width="38"
                fill="#f2f5e9" fill-opacity="0.5" stroke="#606060" stroke-width="1.0"/>
           <path id="arrow"
             d="M 11.500037,31.436501 C 11.940474,20.09759 22.043105,11.32322 32.158766,21.979434 L 37.068811,17.246167 C 37.068811,17.246167 37.088388,32 37.088388,32 L 22.160133,31.978069 C 22.160133,31.978069 26.997745,27.140456 26.997745,27.140456 C 18.528582,18.264221 13.291696,25.230495 11.500037,31.436501 z"
             style="fill:#404040;"/>
          </a>
         </g>
        </svg>
</svg>
