<?xml version="1.0" encoding="UTF-8" standalone="no"?>
<!DOCTYPE svg PUBLIC "-//W3C//DTD SVG 1.1//EN"
 "http://www.w3.org/Graphics/SVG/1.1/DTD/svg11.dtd">
<!-- Generated by graphviz version 2.38.0 (20140413.2041)
 -->
<!-- Title: Script::StopScriptsUsingThisObject_Proper Pages: 1 -->
<svg width="1585pt" height="598pt"
 viewBox="0.00 0.00 1585.00 597.50" xmlns="http://www.w3.org/2000/svg" xmlns:xlink="http://www.w3.org/1999/xlink">
<g id="graph0" class="graph" transform="scale(1 1) rotate(0) translate(4 593.5)">
<title>Script::StopScriptsUsingThisObject_Proper</title>
<polygon fill="white" stroke="none" points="-4,4 -4,-593.5 1581,-593.5 1581,4 -4,4"/>
<!-- Node1 -->
<g id="node1" class="node"><title>Node1</title>
<g id="a_node1"><a xlink:title=" ">
<polygon fill="#bfbfbf" stroke="black" points="1453,-442.5 1453,-472.5 1577,-472.5 1577,-442.5 1453,-442.5"/>
<text text-anchor="start" x="1461" y="-460.5" font-family="Helvetica,sans-Serif" font-size="10.00">Script::StopScriptsUsing</text>
<text text-anchor="middle" x="1515" y="-449.5" font-family="Helvetica,sans-Serif" font-size="10.00">ThisObject_Proper</text>
</a>
</g>
</g>
<!-- Node2 -->
<g id="node2" class="node"><title>Node2</title>
<g id="a_node2"><a xlink:href="../../d1/dcb/class_obj_1_1_c_ped_logic_component.html#a2ae33dd2dcb4bd1e64de37cc1946a9b2" target="_top" xlink:title=" ">
<polygon fill="white" stroke="black" points="1075.5,-520.5 1075.5,-550.5 1209.5,-550.5 1209.5,-520.5 1075.5,-520.5"/>
<text text-anchor="start" x="1083.5" y="-538.5" font-family="Helvetica,sans-Serif" font-size="10.00">Obj::CPedLogicComponent</text>
<text text-anchor="middle" x="1142.5" y="-527.5" font-family="Helvetica,sans-Serif" font-size="10.00">::Bail</text>
</a>
</g>
</g>
<!-- Node1&#45;&gt;Node2 -->
<g id="edge1" class="edge"><title>Node1&#45;&gt;Node2</title>
<path fill="none" stroke="midnightblue" d="M1442.48,-451.33C1387.87,-449.264 1311.76,-452.19 1250,-476.5 1230.88,-484.025 1231.62,-494.933 1214,-505.5 1204.76,-511.042 1194.31,-516.08 1184.34,-520.378"/>
<polygon fill="midnightblue" stroke="midnightblue" points="1442.61,-454.84 1452.76,-451.788 1442.92,-447.847 1442.61,-454.84"/>
</g>
<!-- Node4 -->
<g id="node4" class="node"><title>Node4</title>
<g id="a_node4"><a xlink:href="../../d2/d10/namespace_obj.html#a5d8468ccaf5b6ec1ffdad91618a97b3c" target="_top" xlink:title=" ">
<polygon fill="white" stroke="black" points="1263.5,-486.5 1263.5,-516.5 1403.5,-516.5 1403.5,-486.5 1263.5,-486.5"/>
<text text-anchor="start" x="1271.5" y="-504.5" font-family="Helvetica,sans-Serif" font-size="10.00">Obj::ScriptTerminateObjects</text>
<text text-anchor="middle" x="1333.5" y="-493.5" font-family="Helvetica,sans-Serif" font-size="10.00">Scripts</text>
</a>
</g>
</g>
<!-- Node1&#45;&gt;Node4 -->
<g id="edge3" class="edge"><title>Node1&#45;&gt;Node4</title>
<path fill="none" stroke="midnightblue" d="M1442.91,-474.926C1427.38,-478.732 1411.08,-482.729 1395.96,-486.434"/>
<polygon fill="midnightblue" stroke="midnightblue" points="1444.1,-478.238 1452.98,-472.458 1442.43,-471.439 1444.1,-478.238"/>
</g>
<!-- Node5 -->
<g id="node5" class="node"><title>Node5</title>
<g id="a_node5"><a xlink:href="../../d4/d07/class_game_1_1_c_goal_ped.html#add42284c7893551ce98cce27b27d23da" target="_top" xlink:title=" ">
<polygon fill="white" stroke="black" points="1264.5,-554.5 1264.5,-584.5 1402.5,-584.5 1402.5,-554.5 1264.5,-554.5"/>
<text text-anchor="start" x="1272.5" y="-572.5" font-family="Helvetica,sans-Serif" font-size="10.00">Game::CGoalPed::StopLast</text>
<text text-anchor="middle" x="1333.5" y="-561.5" font-family="Helvetica,sans-Serif" font-size="10.00">Stream</text>
</a>
</g>
</g>
<!-- Node1&#45;&gt;Node5 -->
<g id="edge4" class="edge"><title>Node1&#45;&gt;Node5</title>
<path fill="none" stroke="midnightblue" d="M1486.27,-478.779C1467.23,-492.99 1441.15,-511.714 1417,-526.5 1400.61,-536.536 1381.63,-546.533 1366.01,-554.359"/>
<polygon fill="midnightblue" stroke="midnightblue" points="1488.6,-481.407 1494.48,-472.597 1484.39,-475.813 1488.6,-481.407"/>
</g>
<!-- Node7 -->
<g id="node7" class="node"><title>Node7</title>
<g id="a_node7"><a xlink:href="../../d1/dcb/class_obj_1_1_c_ped_logic_component.html#aa8d04d7505f85e0898a1ee31c3e06369" target="_top" xlink:title=" ">
<polygon fill="white" stroke="black" points="1266.5,-360.5 1266.5,-390.5 1400.5,-390.5 1400.5,-360.5 1266.5,-360.5"/>
<text text-anchor="start" x="1274.5" y="-378.5" font-family="Helvetica,sans-Serif" font-size="10.00">Obj::CPedLogicComponent</text>
<text text-anchor="middle" x="1333.5" y="-367.5" font-family="Helvetica,sans-Serif" font-size="10.00">::StopSkateActions</text>
</a>
</g>
</g>
<!-- Node1&#45;&gt;Node7 -->
<g id="edge6" class="edge"><title>Node1&#45;&gt;Node7</title>
<path fill="none" stroke="midnightblue" d="M1471.58,-438.123C1439.76,-423.584 1396.81,-403.963 1367.52,-390.583"/>
<polygon fill="midnightblue" stroke="midnightblue" points="1470.53,-441.488 1481.08,-442.46 1473.44,-435.121 1470.53,-441.488"/>
</g>
<!-- Node23 -->
<g id="node23" class="node"><title>Node23</title>
<g id="a_node23"><a xlink:href="../../d4/d07/class_game_1_1_c_goal_ped.html#a560b0058bf045cde15c8b4094969eac6" target="_top" xlink:title=" ">
<polygon fill="white" stroke="black" points="1250,-138 1250,-157 1417,-157 1417,-138 1250,-138"/>
<text text-anchor="middle" x="1333.5" y="-145" font-family="Helvetica,sans-Serif" font-size="10.00">Game::CGoalPed::UnloadLastFam</text>
</a>
</g>
</g>
<!-- Node1&#45;&gt;Node23 -->
<g id="edge35" class="edge"><title>Node1&#45;&gt;Node23</title>
<path fill="none" stroke="midnightblue" d="M1499.92,-433.191C1463.06,-369.519 1364.82,-199.86 1340.17,-157.293"/>
<polygon fill="midnightblue" stroke="midnightblue" points="1497.06,-435.227 1505.1,-442.127 1503.12,-431.719 1497.06,-435.227"/>
</g>
<!-- Node3 -->
<g id="node3" class="node"><title>Node3</title>
<g id="a_node3"><a xlink:href="../../d1/dcb/class_obj_1_1_c_ped_logic_component.html#a5d26ffb552c1bde3fb4551b7e0e70509" target="_top" xlink:title=" ">
<polygon fill="white" stroke="black" points="354.5,-515.5 354.5,-545.5 488.5,-545.5 488.5,-515.5 354.5,-515.5"/>
<text text-anchor="start" x="362.5" y="-533.5" font-family="Helvetica,sans-Serif" font-size="10.00">Obj::CPedLogicComponent</text>
<text text-anchor="middle" x="421.5" y="-522.5" font-family="Helvetica,sans-Serif" font-size="10.00">::CallMemberFunction</text>
</a>
</g>
</g>
<!-- Node2&#45;&gt;Node3 -->
<g id="edge2" class="edge"><title>Node2&#45;&gt;Node3</title>
<path fill="none" stroke="midnightblue" d="M1065.22,-537.106C1055.06,-537.269 1044.78,-537.408 1035,-537.5 836.146,-539.367 600.985,-534.771 488.664,-532.158"/>
<polygon fill="midnightblue" stroke="midnightblue" points="1065.38,-540.604 1075.32,-536.936 1065.26,-533.605 1065.38,-540.604"/>
</g>
<!-- Node6 -->
<g id="node6" class="node"><title>Node6</title>
<g id="a_node6"><a xlink:href="../../d2/d97/namespace_game.html#a27406b149a2931eba26e9d1241884c93" target="_top" xlink:title=" ">
<polygon fill="white" stroke="black" points="1071.5,-570 1071.5,-589 1213.5,-589 1213.5,-570 1071.5,-570"/>
<text text-anchor="middle" x="1142.5" y="-577" font-family="Helvetica,sans-Serif" font-size="10.00">Game::ScriptStopLastSream</text>
</a>
</g>
</g>
<!-- Node5&#45;&gt;Node6 -->
<g id="edge5" class="edge"><title>Node5&#45;&gt;Node6</title>
<path fill="none" stroke="midnightblue" d="M1254.09,-573.649C1240.64,-574.36 1226.75,-575.095 1213.54,-575.794"/>
<polygon fill="midnightblue" stroke="midnightblue" points="1254.47,-577.134 1264.27,-573.11 1254.1,-570.144 1254.47,-577.134"/>
</g>
<!-- Node7&#45;&gt;Node2 -->
<g id="edge7" class="edge"><title>Node7&#45;&gt;Node2</title>
<path fill="none" stroke="midnightblue" d="M1301.67,-396.746C1285.09,-409.136 1265.03,-425.785 1250,-443.5 1229.38,-467.794 1237.88,-484.405 1214,-505.5 1207.22,-511.488 1199.07,-516.412 1190.75,-520.414"/>
<polygon fill="midnightblue" stroke="midnightblue" points="1303.96,-399.4 1309.97,-390.671 1299.83,-393.75 1303.96,-399.4"/>
</g>
<!-- Node8 -->
<g id="node8" class="node"><title>Node8</title>
<g id="a_node8"><a xlink:href="../../d1/dcb/class_obj_1_1_c_ped_logic_component.html#a0b7b855cd75a803c0dc2695823753bbf" target="_top" xlink:title=" ">
<polygon fill="white" stroke="black" points="898.5,-399.5 898.5,-429.5 1032.5,-429.5 1032.5,-399.5 898.5,-399.5"/>
<text text-anchor="start" x="906.5" y="-417.5" font-family="Helvetica,sans-Serif" font-size="10.00">Obj::CPedLogicComponent</text>
<text text-anchor="middle" x="965.5" y="-406.5" font-family="Helvetica,sans-Serif" font-size="10.00">::DoFlipTrick</text>
</a>
</g>
</g>
<!-- Node7&#45;&gt;Node8 -->
<g id="edge8" class="edge"><title>Node7&#45;&gt;Node8</title>
<path fill="none" stroke="midnightblue" d="M1255.87,-383.666C1189.8,-390.706 1095.4,-400.765 1032.6,-407.457"/>
<polygon fill="midnightblue" stroke="midnightblue" points="1256.65,-387.103 1266.22,-382.563 1255.91,-380.142 1256.65,-387.103"/>
</g>
<!-- Node15 -->
<g id="node15" class="node"><title>Node15</title>
<g id="a_node15"><a xlink:href="../../d1/dcb/class_obj_1_1_c_ped_logic_component.html#ab3b722354176deab0baa6092b7c6f3d7" target="_top" xlink:title=" ">
<polygon fill="white" stroke="black" points="898.5,-175.5 898.5,-205.5 1032.5,-205.5 1032.5,-175.5 898.5,-175.5"/>
<text text-anchor="start" x="906.5" y="-193.5" font-family="Helvetica,sans-Serif" font-size="10.00">Obj::CPedLogicComponent</text>
<text text-anchor="middle" x="965.5" y="-182.5" font-family="Helvetica,sans-Serif" font-size="10.00">::DoGrind</text>
</a>
</g>
</g>
<!-- Node7&#45;&gt;Node15 -->
<g id="edge18" class="edge"><title>Node7&#45;&gt;Node15</title>
<path fill="none" stroke="midnightblue" d="M1323.13,-351.124C1307.16,-313.307 1270.76,-241.527 1214,-209.5 1158.73,-178.315 1085.16,-176.719 1032.62,-180.99"/>
<polygon fill="midnightblue" stroke="midnightblue" points="1319.9,-352.466 1326.92,-360.396 1326.38,-349.815 1319.9,-352.466"/>
</g>
<!-- Node16 -->
<g id="node16" class="node"><title>Node16</title>
<g id="a_node16"><a xlink:href="../../d1/dcb/class_obj_1_1_c_ped_logic_component.html#a321e2b517b97fcf5d57dd80caacd3ee3" target="_top" xlink:title=" ">
<polygon fill="white" stroke="black" points="898.5,-497.5 898.5,-527.5 1032.5,-527.5 1032.5,-497.5 898.5,-497.5"/>
<text text-anchor="start" x="906.5" y="-515.5" font-family="Helvetica,sans-Serif" font-size="10.00">Obj::CPedLogicComponent</text>
<text text-anchor="middle" x="965.5" y="-504.5" font-family="Helvetica,sans-Serif" font-size="10.00">::DoJump</text>
</a>
</g>
</g>
<!-- Node7&#45;&gt;Node16 -->
<g id="edge20" class="edge"><title>Node7&#45;&gt;Node16</title>
<path fill="none" stroke="midnightblue" d="M1308.32,-397.591C1280.06,-422.958 1234.53,-462.271 1214,-471.5 1156.2,-497.486 1084.15,-507.178 1032.72,-510.703"/>
<polygon fill="midnightblue" stroke="midnightblue" points="1310.72,-400.14 1315.8,-390.843 1306.03,-394.943 1310.72,-400.14"/>
</g>
<!-- Node17 -->
<g id="node17" class="node"><title>Node17</title>
<g id="a_node17"><a xlink:href="../../d1/dcb/class_obj_1_1_c_ped_logic_component.html#af917d1407864b7b527c879d0d7edd3ff" target="_top" xlink:title=" ">
<polygon fill="white" stroke="black" points="898.5,-350.5 898.5,-380.5 1032.5,-380.5 1032.5,-350.5 898.5,-350.5"/>
<text text-anchor="start" x="906.5" y="-368.5" font-family="Helvetica,sans-Serif" font-size="10.00">Obj::CPedLogicComponent</text>
<text text-anchor="middle" x="965.5" y="-357.5" font-family="Helvetica,sans-Serif" font-size="10.00">::DoLipTrick</text>
</a>
</g>
</g>
<!-- Node7&#45;&gt;Node17 -->
<g id="edge22" class="edge"><title>Node7&#45;&gt;Node17</title>
<path fill="none" stroke="midnightblue" d="M1255.87,-373.406C1189.8,-371.601 1095.4,-369.022 1032.6,-367.306"/>
<polygon fill="midnightblue" stroke="midnightblue" points="1256.13,-376.915 1266.22,-373.689 1256.32,-369.917 1256.13,-376.915"/>
</g>
<!-- Node18 -->
<g id="node18" class="node"><title>Node18</title>
<g id="a_node18"><a xlink:href="../../d1/dcb/class_obj_1_1_c_ped_logic_component.html#a920dace9487f117aecd731f63c9ec896" target="_top" xlink:title=" ">
<polygon fill="white" stroke="black" points="898.5,-301.5 898.5,-331.5 1032.5,-331.5 1032.5,-301.5 898.5,-301.5"/>
<text text-anchor="start" x="906.5" y="-319.5" font-family="Helvetica,sans-Serif" font-size="10.00">Obj::CPedLogicComponent</text>
<text text-anchor="middle" x="965.5" y="-308.5" font-family="Helvetica,sans-Serif" font-size="10.00">::DoManual</text>
</a>
</g>
</g>
<!-- Node7&#45;&gt;Node18 -->
<g id="edge24" class="edge"><title>Node7&#45;&gt;Node18</title>
<path fill="none" stroke="midnightblue" d="M1256.28,-363.213C1190.19,-352.559 1095.53,-337.3 1032.6,-327.155"/>
<polygon fill="midnightblue" stroke="midnightblue" points="1255.79,-366.679 1266.22,-364.816 1256.9,-359.769 1255.79,-366.679"/>
</g>
<!-- Node19 -->
<g id="node19" class="node"><title>Node19</title>
<g id="a_node19"><a xlink:href="../../d1/dcb/class_obj_1_1_c_ped_logic_component.html#a599c17e98431df80ebf8086638aa2f53" target="_top" xlink:title=" ">
<polygon fill="white" stroke="black" points="1075.5,-268.5 1075.5,-298.5 1209.5,-298.5 1209.5,-268.5 1075.5,-268.5"/>
<text text-anchor="start" x="1083.5" y="-286.5" font-family="Helvetica,sans-Serif" font-size="10.00">Obj::CPedLogicComponent</text>
<text text-anchor="middle" x="1142.5" y="-275.5" font-family="Helvetica,sans-Serif" font-size="10.00">::DoManualDown</text>
</a>
</g>
</g>
<!-- Node7&#45;&gt;Node19 -->
<g id="edge26" class="edge"><title>Node7&#45;&gt;Node19</title>
<path fill="none" stroke="midnightblue" d="M1296.21,-355.553C1272.95,-343.007 1241.97,-326.745 1214,-313.5 1203.18,-308.377 1191.25,-303.149 1180.34,-298.522"/>
<polygon fill="midnightblue" stroke="midnightblue" points="1294.58,-358.651 1305.04,-360.337 1297.91,-352.496 1294.58,-358.651"/>
</g>
<!-- Node20 -->
<g id="node20" class="node"><title>Node20</title>
<g id="a_node20"><a xlink:href="../../d1/dcb/class_obj_1_1_c_ped_logic_component.html#a44e68f2daf8f9dfac8304ed5756cc245" target="_top" xlink:title=" ">
<polygon fill="white" stroke="black" points="1075.5,-432.5 1075.5,-462.5 1209.5,-462.5 1209.5,-432.5 1075.5,-432.5"/>
<text text-anchor="start" x="1083.5" y="-450.5" font-family="Helvetica,sans-Serif" font-size="10.00">Obj::CPedLogicComponent</text>
<text text-anchor="middle" x="1142.5" y="-439.5" font-family="Helvetica,sans-Serif" font-size="10.00">::GetJumpParams</text>
</a>
</g>
</g>
<!-- Node7&#45;&gt;Node20 -->
<g id="edge28" class="edge"><title>Node7&#45;&gt;Node20</title>
<path fill="none" stroke="midnightblue" d="M1283.48,-394.173C1252.24,-406.075 1212.29,-421.295 1183.07,-432.426"/>
<polygon fill="midnightblue" stroke="midnightblue" points="1284.78,-397.424 1292.88,-390.594 1282.29,-390.883 1284.78,-397.424"/>
</g>
<!-- Node22 -->
<g id="node22" class="node"><title>Node22</title>
<g id="a_node22"><a xlink:href="../../d1/dcb/class_obj_1_1_c_ped_logic_component.html#ad445a29c7da10ef588d3fccc69b154aa" target="_top" xlink:title=" ">
<polygon fill="white" stroke="black" points="1075.5,-219.5 1075.5,-249.5 1209.5,-249.5 1209.5,-219.5 1075.5,-219.5"/>
<text text-anchor="start" x="1083.5" y="-237.5" font-family="Helvetica,sans-Serif" font-size="10.00">Obj::CPedLogicComponent</text>
<text text-anchor="middle" x="1142.5" y="-226.5" font-family="Helvetica,sans-Serif" font-size="10.00">::Stop</text>
</a>
</g>
</g>
<!-- Node7&#45;&gt;Node22 -->
<g id="edge33" class="edge"><title>Node7&#45;&gt;Node22</title>
<path fill="none" stroke="midnightblue" d="M1314.7,-352.505C1293.36,-326.36 1255.28,-284.01 1214,-258.5 1208.5,-255.101 1202.46,-252.115 1196.3,-249.509"/>
<polygon fill="midnightblue" stroke="midnightblue" points="1312.04,-354.774 1321.03,-360.382 1317.5,-350.392 1312.04,-354.774"/>
</g>
<!-- Node9 -->
<g id="node9" class="node"><title>Node9</title>
<g id="a_node9"><a xlink:href="../../d1/dcb/class_obj_1_1_c_ped_logic_component.html#a0b77f38d9fd8c1d72d779a39ceb7d694" target="_top" xlink:title=" ">
<polygon fill="white" stroke="black" points="723.5,-350.5 723.5,-380.5 857.5,-380.5 857.5,-350.5 723.5,-350.5"/>
<text text-anchor="start" x="731.5" y="-368.5" font-family="Helvetica,sans-Serif" font-size="10.00">Obj::CPedLogicComponent</text>
<text text-anchor="middle" x="790.5" y="-357.5" font-family="Helvetica,sans-Serif" font-size="10.00">::DoSkateActions</text>
</a>
</g>
</g>
<!-- Node8&#45;&gt;Node9 -->
<g id="edge9" class="edge"><title>Node8&#45;&gt;Node9</title>
<path fill="none" stroke="midnightblue" d="M901.323,-396.606C882.715,-391.336 862.552,-385.624 844.641,-380.552"/>
<polygon fill="midnightblue" stroke="midnightblue" points="900.607,-400.041 911.183,-399.399 902.515,-393.306 900.607,-400.041"/>
</g>
<!-- Node10 -->
<g id="node10" class="node"><title>Node10</title>
<g id="a_node10"><a xlink:href="../../d1/dcb/class_obj_1_1_c_ped_logic_component.html#a60c75deb5e76d5ff49bd92cdf20240ea" target="_top" xlink:title=" ">
<polygon fill="white" stroke="black" points="545,-376.5 545,-406.5 679,-406.5 679,-376.5 545,-376.5"/>
<text text-anchor="start" x="553" y="-394.5" font-family="Helvetica,sans-Serif" font-size="10.00">Obj::CPedLogicComponent</text>
<text text-anchor="middle" x="612" y="-383.5" font-family="Helvetica,sans-Serif" font-size="10.00">::HitWaypoint</text>
</a>
</g>
</g>
<!-- Node9&#45;&gt;Node10 -->
<g id="edge10" class="edge"><title>Node9&#45;&gt;Node10</title>
<path fill="none" stroke="midnightblue" d="M713.326,-376.721C701.9,-378.404 690.199,-380.128 679.008,-381.776"/>
<polygon fill="midnightblue" stroke="midnightblue" points="713.893,-380.175 723.276,-375.255 712.872,-373.25 713.893,-380.175"/>
</g>
<!-- Node10&#45;&gt;Node3 -->
<g id="edge11" class="edge"><title>Node10&#45;&gt;Node3</title>
<path fill="none" stroke="midnightblue" d="M582.273,-412.683C543.859,-441.01 476.7,-490.533 443.006,-515.379"/>
<polygon fill="midnightblue" stroke="midnightblue" points="584.497,-415.392 590.468,-406.64 580.343,-409.758 584.497,-415.392"/>
</g>
<!-- Node11 -->
<g id="node11" class="node"><title>Node11</title>
<g id="a_node11"><a xlink:href="../../d1/dcb/class_obj_1_1_c_ped_logic_component.html#aa2c62baf1ffba4ebce5263c0a07bff18" target="_top" xlink:title=" ">
<polygon fill="white" stroke="black" points="170,-398.5 170,-428.5 304,-428.5 304,-398.5 170,-398.5"/>
<text text-anchor="start" x="178" y="-416.5" font-family="Helvetica,sans-Serif" font-size="10.00">Obj::CPedLogicComponent</text>
<text text-anchor="middle" x="237" y="-405.5" font-family="Helvetica,sans-Serif" font-size="10.00">::GenericSkaterUpdate</text>
</a>
</g>
</g>
<!-- Node10&#45;&gt;Node11 -->
<g id="edge12" class="edge"><title>Node10&#45;&gt;Node11</title>
<path fill="none" stroke="midnightblue" d="M534.553,-396.009C466.769,-400.007 368.785,-405.786 304.265,-409.592"/>
<polygon fill="midnightblue" stroke="midnightblue" points="534.968,-399.491 544.745,-395.408 534.556,-392.503 534.968,-399.491"/>
</g>
<!-- Node13 -->
<g id="node13" class="node"><title>Node13</title>
<g id="a_node13"><a xlink:href="../../d1/dcb/class_obj_1_1_c_ped_logic_component.html#aea233d11a91e6cc7dd30c99dda97ab76" target="_top" xlink:title=" ">
<polygon fill="white" stroke="black" points="354.5,-354.5 354.5,-384.5 488.5,-384.5 488.5,-354.5 354.5,-354.5"/>
<text text-anchor="start" x="362.5" y="-372.5" font-family="Helvetica,sans-Serif" font-size="10.00">Obj::CPedLogicComponent</text>
<text text-anchor="middle" x="421.5" y="-361.5" font-family="Helvetica,sans-Serif" font-size="10.00">::UpdateTargetBias</text>
</a>
</g>
</g>
<!-- Node10&#45;&gt;Node13 -->
<g id="edge14" class="edge"><title>Node10&#45;&gt;Node13</title>
<path fill="none" stroke="midnightblue" d="M534.84,-382.611C519.499,-380.821 503.494,-378.953 488.534,-377.207"/>
<polygon fill="midnightblue" stroke="midnightblue" points="534.469,-386.092 544.807,-383.775 535.28,-379.139 534.469,-386.092"/>
</g>
<!-- Node12 -->
<g id="node12" class="node"><title>Node12</title>
<g id="a_node12"><a xlink:href="../../d1/dcb/class_obj_1_1_c_ped_logic_component.html#a84e225759509cdc85d7be0839dc1862b" target="_top" xlink:title=" ">
<polygon fill="white" stroke="black" points="0,-373.5 0,-403.5 134,-403.5 134,-373.5 0,-373.5"/>
<text text-anchor="start" x="8" y="-391.5" font-family="Helvetica,sans-Serif" font-size="10.00">Obj::CPedLogicComponent</text>
<text text-anchor="middle" x="67" y="-380.5" font-family="Helvetica,sans-Serif" font-size="10.00">::Update</text>
</a>
</g>
</g>
<!-- Node11&#45;&gt;Node12 -->
<g id="edge13" class="edge"><title>Node11&#45;&gt;Node12</title>
<path fill="none" stroke="midnightblue" d="M159.683,-402.143C151.174,-400.877 142.559,-399.595 134.191,-398.35"/>
<polygon fill="midnightblue" stroke="midnightblue" points="159.196,-405.609 169.602,-403.619 160.226,-398.685 159.196,-405.609"/>
</g>
<!-- Node13&#45;&gt;Node11 -->
<g id="edge17" class="edge"><title>Node13&#45;&gt;Node11</title>
<path fill="none" stroke="midnightblue" d="M348.425,-386.877C332.522,-390.711 315.804,-394.742 300.325,-398.474"/>
<polygon fill="midnightblue" stroke="midnightblue" points="349.303,-390.266 358.204,-384.519 347.662,-383.461 349.303,-390.266"/>
</g>
<!-- Node14 -->
<g id="node14" class="node"><title>Node14</title>
<g id="a_node14"><a xlink:href="../../d1/dcb/class_obj_1_1_c_ped_logic_component.html#a90d5e8a2276091a627351e7680b39e51" target="_top" xlink:title=" ">
<polygon fill="white" stroke="black" points="170,-349.5 170,-379.5 304,-379.5 304,-349.5 170,-349.5"/>
<text text-anchor="start" x="178" y="-367.5" font-family="Helvetica,sans-Serif" font-size="10.00">Obj::CPedLogicComponent</text>
<text text-anchor="middle" x="237" y="-356.5" font-family="Helvetica,sans-Serif" font-size="10.00">::GenericPedUpdate</text>
</a>
</g>
</g>
<!-- Node13&#45;&gt;Node14 -->
<g id="edge15" class="edge"><title>Node13&#45;&gt;Node14</title>
<path fill="none" stroke="midnightblue" d="M344.285,-367.412C330.979,-367.047 317.235,-366.671 304.225,-366.314"/>
<polygon fill="midnightblue" stroke="midnightblue" points="344.263,-370.913 354.355,-367.688 344.455,-363.915 344.263,-370.913"/>
</g>
<!-- Node14&#45;&gt;Node12 -->
<g id="edge16" class="edge"><title>Node14&#45;&gt;Node12</title>
<path fill="none" stroke="midnightblue" d="M159.683,-375.402C151.174,-376.618 142.559,-377.849 134.191,-379.044"/>
<polygon fill="midnightblue" stroke="midnightblue" points="160.197,-378.865 169.602,-373.985 159.207,-371.935 160.197,-378.865"/>
</g>
<!-- Node15&#45;&gt;Node9 -->
<g id="edge19" class="edge"><title>Node15&#45;&gt;Node9</title>
<path fill="none" stroke="midnightblue" d="M909.548,-210.54C904.691,-213.475 900.079,-216.784 896,-220.5 871.589,-242.741 878.836,-258.375 860,-285.5 843.314,-309.53 820.727,-334.773 806.134,-350.325"/>
<polygon fill="midnightblue" stroke="midnightblue" points="911.393,-213.521 918.49,-205.655 908.037,-207.378 911.393,-213.521"/>
</g>
<!-- Node16&#45;&gt;Node9 -->
<g id="edge21" class="edge"><title>Node16&#45;&gt;Node9</title>
<path fill="none" stroke="midnightblue" d="M903.074,-492.888C900.629,-491.513 898.259,-490.052 896,-488.5 852.575,-458.679 816.573,-406.323 800.511,-380.613"/>
<polygon fill="midnightblue" stroke="midnightblue" points="901.692,-496.111 912.196,-497.496 904.849,-489.863 901.692,-496.111"/>
</g>
<!-- Node17&#45;&gt;Node9 -->
<g id="edge23" class="edge"><title>Node17&#45;&gt;Node9</title>
<path fill="none" stroke="midnightblue" d="M888.071,-365.5C877.95,-365.5 867.643,-365.5 857.714,-365.5"/>
<polygon fill="midnightblue" stroke="midnightblue" points="888.108,-369 898.108,-365.5 888.108,-362 888.108,-369"/>
</g>
<!-- Node18&#45;&gt;Node9 -->
<g id="edge25" class="edge"><title>Node18&#45;&gt;Node9</title>
<path fill="none" stroke="midnightblue" d="M901.323,-334.394C882.715,-339.664 862.552,-345.376 844.641,-350.448"/>
<polygon fill="midnightblue" stroke="midnightblue" points="902.515,-337.694 911.183,-331.601 900.607,-330.959 902.515,-337.694"/>
</g>
<!-- Node19&#45;&gt;Node9 -->
<g id="edge27" class="edge"><title>Node19&#45;&gt;Node9</title>
<path fill="none" stroke="midnightblue" d="M1065.33,-274.872C1015.81,-271.931 950.548,-273.158 896,-291.5 859.968,-303.616 825.447,-332.563 806.494,-350.45"/>
<polygon fill="midnightblue" stroke="midnightblue" points="1065.12,-278.366 1075.33,-275.535 1065.58,-271.381 1065.12,-278.366"/>
</g>
<!-- Node20&#45;&gt;Node8 -->
<g id="edge29" class="edge"><title>Node20&#45;&gt;Node8</title>
<path fill="none" stroke="midnightblue" d="M1065.43,-433.156C1054.55,-431.104 1043.43,-429.006 1032.75,-426.994"/>
<polygon fill="midnightblue" stroke="midnightblue" points="1064.86,-436.61 1075.34,-435.024 1066.16,-429.732 1064.86,-436.61"/>
</g>
<!-- Node20&#45;&gt;Node16 -->
<g id="edge32" class="edge"><title>Node20&#45;&gt;Node16</title>
<path fill="none" stroke="midnightblue" d="M1093.59,-466.3C1075.3,-473.383 1054.23,-481.431 1035,-488.5 1026.96,-491.456 1018.35,-494.535 1010.06,-497.463"/>
<polygon fill="midnightblue" stroke="midnightblue" points="1095.1,-469.469 1103.16,-462.586 1092.57,-462.943 1095.1,-469.469"/>
</g>
<!-- Node21 -->
<g id="node21" class="node"><title>Node21</title>
<g id="a_node21"><a xlink:href="../../d1/dcb/class_obj_1_1_c_ped_logic_component.html#a8931f1e9aa9132cffc2c3ff128989995" target="_top" xlink:title=" ">
<polygon fill="white" stroke="black" points="898.5,-448.5 898.5,-478.5 1032.5,-478.5 1032.5,-448.5 898.5,-448.5"/>
<text text-anchor="start" x="906.5" y="-466.5" font-family="Helvetica,sans-Serif" font-size="10.00">Obj::CPedLogicComponent</text>
<text text-anchor="middle" x="965.5" y="-455.5" font-family="Helvetica,sans-Serif" font-size="10.00">::DoGrab</text>
</a>
</g>
</g>
<!-- Node20&#45;&gt;Node21 -->
<g id="edge30" class="edge"><title>Node20&#45;&gt;Node21</title>
<path fill="none" stroke="midnightblue" d="M1065.1,-454.485C1054.32,-455.47 1043.32,-456.477 1032.75,-457.443"/>
<polygon fill="midnightblue" stroke="midnightblue" points="1065.7,-457.945 1075.34,-453.549 1065.06,-450.974 1065.7,-457.945"/>
</g>
<!-- Node21&#45;&gt;Node9 -->
<g id="edge31" class="edge"><title>Node21&#45;&gt;Node9</title>
<path fill="none" stroke="midnightblue" d="M908.583,-444.481C904.266,-442.593 900.025,-440.595 896,-438.5 863.805,-421.745 829.973,-396.498 809.814,-380.516"/>
<polygon fill="midnightblue" stroke="midnightblue" points="907.525,-447.831 918.103,-448.431 910.208,-441.366 907.525,-447.831"/>
</g>
<!-- Node22&#45;&gt;Node9 -->
<g id="edge34" class="edge"><title>Node22&#45;&gt;Node9</title>
<path fill="none" stroke="midnightblue" d="M1065.29,-234.299C1015.06,-236.845 949.01,-245.433 896,-270.5 856.102,-289.366 820.647,-328.669 803.113,-350.341"/>
<polygon fill="midnightblue" stroke="midnightblue" points="1065.6,-237.789 1075.44,-233.856 1065.29,-230.796 1065.6,-237.789"/>
</g>
<!-- Node24 -->
<g id="node24" class="node"><title>Node24</title>
<g id="a_node24"><a xlink:href="../../d4/d07/class_game_1_1_c_goal_ped.html#a6eeb1e1d73bc3a7292fc4010da917fb4" target="_top" xlink:title=" ">
<polygon fill="white" stroke="black" points="1072.5,-138 1072.5,-157 1212.5,-157 1212.5,-138 1072.5,-138"/>
<text text-anchor="middle" x="1142.5" y="-145" font-family="Helvetica,sans-Serif" font-size="10.00">Game::CGoalPed::LoadFam</text>
</a>
</g>
</g>
<!-- Node23&#45;&gt;Node24 -->
<g id="edge36" class="edge"><title>Node23&#45;&gt;Node24</title>
<path fill="none" stroke="midnightblue" d="M1239.65,-147.5C1230.56,-147.5 1221.46,-147.5 1212.67,-147.5"/>
<polygon fill="midnightblue" stroke="midnightblue" points="1239.88,-151 1249.88,-147.5 1239.88,-144 1239.88,-151"/>
</g>
<!-- Node40 -->
<g id="node40" class="node"><title>Node40</title>
<g id="a_node40"><a xlink:href="../../d2/d97/namespace_game.html#adc6171d35ef7cfbd181e6385b8143221" target="_top" xlink:title=" ">
<polygon fill="white" stroke="black" points="1071,-100 1071,-119 1214,-119 1214,-100 1071,-100"/>
<text text-anchor="middle" x="1142.5" y="-107" font-family="Helvetica,sans-Serif" font-size="10.00">Game::ScriptUnloadLastFam</text>
</a>
</g>
</g>
<!-- Node23&#45;&gt;Node40 -->
<g id="edge55" class="edge"><title>Node23&#45;&gt;Node40</title>
<path fill="none" stroke="midnightblue" d="M1274.76,-135.89C1247.88,-130.486 1216.3,-124.136 1190.85,-119.02"/>
<polygon fill="midnightblue" stroke="midnightblue" points="1274.31,-139.371 1284.81,-137.911 1275.69,-132.508 1274.31,-139.371"/>
</g>
<!-- Node25 -->
<g id="node25" class="node"><title>Node25</title>
<g id="a_node25"><a xlink:href="../../d4/d07/class_game_1_1_c_goal_ped.html#a6e681b80a1aee6a2186e68f15561d836" target="_top" xlink:title=" ">
<polygon fill="white" stroke="black" points="896,-126.5 896,-156.5 1035,-156.5 1035,-126.5 896,-126.5"/>
<text text-anchor="start" x="904" y="-144.5" font-family="Helvetica,sans-Serif" font-size="10.00">Game::CGoalPed::PlayGoal</text>
<text text-anchor="middle" x="965.5" y="-133.5" font-family="Helvetica,sans-Serif" font-size="10.00">Stream</text>
</a>
</g>
</g>
<!-- Node24&#45;&gt;Node25 -->
<g id="edge37" class="edge"><title>Node24&#45;&gt;Node25</title>
<path fill="none" stroke="midnightblue" d="M1062.21,-144.782C1053.18,-144.472 1044.04,-144.158 1035.16,-143.854"/>
<polygon fill="midnightblue" stroke="midnightblue" points="1062.22,-148.284 1072.34,-145.129 1062.46,-141.288 1062.22,-148.284"/>
</g>
<!-- Node26 -->
<g id="node26" class="node"><title>Node26</title>
<g id="a_node26"><a xlink:href="../../d4/d07/class_game_1_1_c_goal_ped.html#a21e54959b715ba2b8b96eede1f96e016" target="_top" xlink:title=" ">
<polygon fill="white" stroke="black" points="721,-126.5 721,-156.5 860,-156.5 860,-126.5 721,-126.5"/>
<text text-anchor="start" x="729" y="-144.5" font-family="Helvetica,sans-Serif" font-size="10.00">Game::CGoalPed::PlayGoal</text>
<text text-anchor="middle" x="790.5" y="-133.5" font-family="Helvetica,sans-Serif" font-size="10.00">ProStream</text>
</a>
</g>
</g>
<!-- Node25&#45;&gt;Node26 -->
<g id="edge38" class="edge"><title>Node25&#45;&gt;Node26</title>
<path fill="none" stroke="midnightblue" d="M885.406,-141.5C876.969,-141.5 868.437,-141.5 860.134,-141.5"/>
<polygon fill="midnightblue" stroke="midnightblue" points="885.629,-145 895.629,-141.5 885.629,-138 885.629,-145"/>
</g>
<!-- Node28 -->
<g id="node28" class="node"><title>Node28</title>
<g id="a_node28"><a xlink:href="../../d4/d07/class_game_1_1_c_goal_ped.html#a42ea7014959837c81c2f180a4ff8ac63" target="_top" xlink:title=" ">
<polygon fill="white" stroke="black" points="352,-104.5 352,-134.5 491,-134.5 491,-104.5 352,-104.5"/>
<text text-anchor="start" x="360" y="-122.5" font-family="Helvetica,sans-Serif" font-size="10.00">Game::CGoalPed::PlayGoal</text>
<text text-anchor="middle" x="421.5" y="-111.5" font-family="Helvetica,sans-Serif" font-size="10.00">Stream</text>
</a>
</g>
</g>
<!-- Node25&#45;&gt;Node28 -->
<g id="edge49" class="edge"><title>Node25&#45;&gt;Node28</title>
<path fill="none" stroke="midnightblue" d="M900.15,-124.152C886.954,-121.147 873.095,-118.387 860,-116.5 718.736,-96.1457 681.535,-100.179 539,-107.5 523.466,-108.298 506.813,-109.691 491.096,-111.251"/>
<polygon fill="midnightblue" stroke="midnightblue" points="899.552,-127.606 910.088,-126.487 901.154,-120.792 899.552,-127.606"/>
</g>
<!-- Node32 -->
<g id="node32" class="node"><title>Node32</title>
<g id="a_node32"><a xlink:href="../../d4/d07/class_game_1_1_c_goal_ped.html#a0ee6a0919915f7b4c9ffa8455aed3f4b" target="_top" xlink:title=" ">
<polygon fill="white" stroke="black" points="721,-0.5 721,-30.5 860,-30.5 860,-0.5 721,-0.5"/>
<text text-anchor="start" x="729" y="-18.5" font-family="Helvetica,sans-Serif" font-size="10.00">Game::CGoalPed::PlayGoal</text>
<text text-anchor="middle" x="790.5" y="-7.5" font-family="Helvetica,sans-Serif" font-size="10.00">StartStream</text>
</a>
</g>
</g>
<!-- Node25&#45;&gt;Node32 -->
<g id="edge46" class="edge"><title>Node25&#45;&gt;Node32</title>
<path fill="none" stroke="midnightblue" d="M943.881,-118.635C923.979,-97.5752 892.204,-66.5028 860,-45.5 851.409,-39.8971 841.597,-34.8954 832.136,-30.6573"/>
<polygon fill="midnightblue" stroke="midnightblue" points="941.526,-121.242 950.903,-126.174 946.648,-116.471 941.526,-121.242"/>
</g>
<!-- Node35 -->
<g id="node35" class="node"><title>Node35</title>
<g id="a_node35"><a xlink:href="../../d9/dda/class_game_1_1_c_goal_manager.html#a5696d0c1ef4840ecbb3cafda60781bba" target="_top" xlink:title=" ">
<polygon fill="white" stroke="black" points="734,-246.5 734,-276.5 847,-276.5 847,-246.5 734,-246.5"/>
<text text-anchor="start" x="742" y="-264.5" font-family="Helvetica,sans-Serif" font-size="10.00">Game::CGoalManager</text>
<text text-anchor="middle" x="790.5" y="-253.5" font-family="Helvetica,sans-Serif" font-size="10.00">::PlayGoalStream</text>
</a>
</g>
</g>
<!-- Node25&#45;&gt;Node35 -->
<g id="edge50" class="edge"><title>Node25&#45;&gt;Node35</title>
<path fill="none" stroke="midnightblue" d="M900.93,-161.846C899.224,-162.999 897.575,-164.217 896,-165.5 871.891,-185.144 882.603,-204.141 860,-225.5 851.114,-233.897 839.89,-240.873 829.113,-246.377"/>
<polygon fill="midnightblue" stroke="midnightblue" points="903.026,-164.673 909.873,-156.588 899.478,-158.639 903.026,-164.673"/>
</g>
<!-- Node37 -->
<g id="node37" class="node"><title>Node37</title>
<g id="a_node37"><a xlink:href="../../d4/d07/class_game_1_1_c_goal_ped.html#a45f383927c9a41ec1feea3bc8963391d" target="_top" xlink:title=" ">
<polygon fill="white" stroke="black" points="721,-186.5 721,-216.5 860,-216.5 860,-186.5 721,-186.5"/>
<text text-anchor="start" x="729" y="-204.5" font-family="Helvetica,sans-Serif" font-size="10.00">Game::CGoalPed::PlayGoal</text>
<text text-anchor="middle" x="790.5" y="-193.5" font-family="Helvetica,sans-Serif" font-size="10.00">WinStream</text>
</a>
</g>
</g>
<!-- Node25&#45;&gt;Node37 -->
<g id="edge52" class="edge"><title>Node25&#45;&gt;Node37</title>
<path fill="none" stroke="midnightblue" d="M911.321,-159.944C886.787,-168.452 858.032,-178.425 834.841,-186.468"/>
<polygon fill="midnightblue" stroke="midnightblue" points="912.544,-163.224 920.845,-156.641 910.25,-156.611 912.544,-163.224"/>
</g>
<!-- Node27 -->
<g id="node27" class="node"><title>Node27</title>
<g id="a_node27"><a xlink:href="../../d4/d07/class_game_1_1_c_goal_ped.html#a59f6fb051ada4f6e30b4360ca9e1308e" target="_top" xlink:title=" ">
<polygon fill="white" stroke="black" points="542.5,-126.5 542.5,-156.5 681.5,-156.5 681.5,-126.5 542.5,-126.5"/>
<text text-anchor="start" x="550.5" y="-144.5" font-family="Helvetica,sans-Serif" font-size="10.00">Game::CGoalPed::PlayGoal</text>
<text text-anchor="middle" x="612" y="-133.5" font-family="Helvetica,sans-Serif" font-size="10.00">MidStream</text>
</a>
</g>
</g>
<!-- Node26&#45;&gt;Node27 -->
<g id="edge39" class="edge"><title>Node26&#45;&gt;Node27</title>
<path fill="none" stroke="midnightblue" d="M710.702,-141.5C700.982,-141.5 691.108,-141.5 681.557,-141.5"/>
<polygon fill="midnightblue" stroke="midnightblue" points="710.755,-145 720.755,-141.5 710.755,-138 710.755,-145"/>
</g>
<!-- Node26&#45;&gt;Node28 -->
<g id="edge41" class="edge"><title>Node26&#45;&gt;Node28</title>
<path fill="none" stroke="midnightblue" d="M727.399,-124.117C713.552,-120.951 698.864,-118.135 685,-116.5 619.483,-108.772 544.133,-110.742 491.015,-113.914"/>
<polygon fill="midnightblue" stroke="midnightblue" points="726.77,-127.565 737.308,-126.472 728.388,-120.755 726.77,-127.565"/>
</g>
<!-- Node29 -->
<g id="node29" class="node"><title>Node29</title>
<g id="a_node29"><a xlink:href="../../d4/d07/class_game_1_1_c_goal_ped.html#a66e83620440c7cd9932f634a9774c69b" target="_top" xlink:title=" ">
<polygon fill="white" stroke="black" points="542.5,-175.5 542.5,-205.5 681.5,-205.5 681.5,-175.5 542.5,-175.5"/>
<text text-anchor="start" x="550.5" y="-193.5" font-family="Helvetica,sans-Serif" font-size="10.00">Game::CGoalPed::PlayGoal</text>
<text text-anchor="middle" x="612" y="-182.5" font-family="Helvetica,sans-Serif" font-size="10.00">WaitStream</text>
</a>
</g>
</g>
<!-- Node26&#45;&gt;Node29 -->
<g id="edge42" class="edge"><title>Node26&#45;&gt;Node29</title>
<path fill="none" stroke="midnightblue" d="M725.307,-159.321C706.25,-164.612 685.573,-170.352 667.216,-175.448"/>
<polygon fill="midnightblue" stroke="midnightblue" points="726.405,-162.649 735.104,-156.601 724.532,-155.904 726.405,-162.649"/>
</g>
<!-- Node27&#45;&gt;Node28 -->
<g id="edge40" class="edge"><title>Node27&#45;&gt;Node28</title>
<path fill="none" stroke="midnightblue" d="M532.089,-132.29C518.45,-130.698 504.371,-129.055 491.035,-127.499"/>
<polygon fill="midnightblue" stroke="midnightblue" points="532.076,-135.812 542.414,-133.495 532.887,-128.86 532.076,-135.812"/>
</g>
<!-- Node29&#45;&gt;Node28 -->
<g id="edge43" class="edge"><title>Node29&#45;&gt;Node28</title>
<path fill="none" stroke="midnightblue" d="M557.146,-172.077C551.013,-169.897 544.862,-167.674 539,-165.5 512.189,-155.557 482.183,-143.692 459.338,-134.502"/>
<polygon fill="midnightblue" stroke="midnightblue" points="556.131,-175.43 566.726,-175.454 558.459,-168.829 556.131,-175.43"/>
</g>
<!-- Node30 -->
<g id="node30" class="node"><title>Node30</title>
<g id="a_node30"><a xlink:href="../../d9/dda/class_game_1_1_c_goal_manager.html#a76f07493ca4c4a2ed7a0e672b6eb1da1" target="_top" xlink:title=" ">
<polygon fill="white" stroke="black" points="364.5,-175.5 364.5,-205.5 478.5,-205.5 478.5,-175.5 364.5,-175.5"/>
<text text-anchor="start" x="372.5" y="-193.5" font-family="Helvetica,sans-Serif" font-size="10.00">Game::CGoalManager</text>
<text text-anchor="middle" x="421.5" y="-182.5" font-family="Helvetica,sans-Serif" font-size="10.00">::PlayGoalWaitStream</text>
</a>
</g>
</g>
<!-- Node29&#45;&gt;Node30 -->
<g id="edge44" class="edge"><title>Node29&#45;&gt;Node30</title>
<path fill="none" stroke="midnightblue" d="M532.227,-190.5C514.24,-190.5 495.48,-190.5 478.664,-190.5"/>
<polygon fill="midnightblue" stroke="midnightblue" points="532.414,-194 542.414,-190.5 532.414,-187 532.414,-194"/>
</g>
<!-- Node31 -->
<g id="node31" class="node"><title>Node31</title>
<g id="a_node31"><a xlink:href="../../d2/d97/namespace_game.html#a370b1a1301472bdfc04c9847e87a5552" target="_top" xlink:title=" ">
<polygon fill="white" stroke="black" points="170,-175.5 170,-205.5 304,-205.5 304,-175.5 170,-175.5"/>
<text text-anchor="start" x="178" y="-193.5" font-family="Helvetica,sans-Serif" font-size="10.00">Game::ScriptPlayGoalWait</text>
<text text-anchor="middle" x="237" y="-182.5" font-family="Helvetica,sans-Serif" font-size="10.00">Stream</text>
</a>
</g>
</g>
<!-- Node30&#45;&gt;Node31 -->
<g id="edge45" class="edge"><title>Node30&#45;&gt;Node31</title>
<path fill="none" stroke="midnightblue" d="M353.829,-190.5C337.686,-190.5 320.434,-190.5 304.307,-190.5"/>
<polygon fill="midnightblue" stroke="midnightblue" points="354.255,-194 364.255,-190.5 354.255,-187 354.255,-194"/>
</g>
<!-- Node33 -->
<g id="node33" class="node"><title>Node33</title>
<g id="a_node33"><a xlink:href="../../d9/dda/class_game_1_1_c_goal_manager.html#a9fe6b31045d1b676abc98b961d4d39fb" target="_top" xlink:title=" ">
<polygon fill="white" stroke="black" points="554.5,-0.5 554.5,-30.5 669.5,-30.5 669.5,-0.5 554.5,-0.5"/>
<text text-anchor="start" x="562.5" y="-18.5" font-family="Helvetica,sans-Serif" font-size="10.00">Game::CGoalManager</text>
<text text-anchor="middle" x="612" y="-7.5" font-family="Helvetica,sans-Serif" font-size="10.00">::PlayGoalStartStream</text>
</a>
</g>
</g>
<!-- Node32&#45;&gt;Node33 -->
<g id="edge47" class="edge"><title>Node32&#45;&gt;Node33</title>
<path fill="none" stroke="midnightblue" d="M710.734,-15.5C696.869,-15.5 682.687,-15.5 669.58,-15.5"/>
<polygon fill="midnightblue" stroke="midnightblue" points="710.755,-19.0001 720.755,-15.5 710.755,-12.0001 710.755,-19.0001"/>
</g>
<!-- Node34 -->
<g id="node34" class="node"><title>Node34</title>
<g id="a_node34"><a xlink:href="../../d2/d97/namespace_game.html#a96592fcd2f320819b69379cb1ab044bc" target="_top" xlink:title=" ">
<polygon fill="white" stroke="black" points="354,-0.5 354,-30.5 489,-30.5 489,-0.5 354,-0.5"/>
<text text-anchor="start" x="362" y="-18.5" font-family="Helvetica,sans-Serif" font-size="10.00">Game::ScriptPlayGoalStart</text>
<text text-anchor="middle" x="421.5" y="-7.5" font-family="Helvetica,sans-Serif" font-size="10.00">Stream</text>
</a>
</g>
</g>
<!-- Node33&#45;&gt;Node34 -->
<g id="edge48" class="edge"><title>Node33&#45;&gt;Node34</title>
<path fill="none" stroke="midnightblue" d="M544.148,-15.5C526.343,-15.5 507.11,-15.5 489.308,-15.5"/>
<polygon fill="midnightblue" stroke="midnightblue" points="544.444,-19.0001 554.444,-15.5 544.444,-12.0001 544.444,-19.0001"/>
</g>
<!-- Node36 -->
<g id="node36" class="node"><title>Node36</title>
<g id="a_node36"><a xlink:href="../../d2/d97/namespace_game.html#aeb92b42c274a4876d13a39cd9c4e95a0" target="_top" xlink:title=" ">
<polygon fill="white" stroke="black" points="539,-274 539,-293 685,-293 685,-274 539,-274"/>
<text text-anchor="middle" x="612" y="-281" font-family="Helvetica,sans-Serif" font-size="10.00">Game::ScriptPlayGoalStream</text>
</a>
</g>
</g>
<!-- Node35&#45;&gt;Node36 -->
<g id="edge51" class="edge"><title>Node35&#45;&gt;Node36</title>
<path fill="none" stroke="midnightblue" d="M723.386,-269.741C710.958,-271.29 697.904,-272.917 685.299,-274.488"/>
<polygon fill="midnightblue" stroke="midnightblue" points="724.164,-273.171 733.654,-268.461 723.298,-266.225 724.164,-273.171"/>
</g>
<!-- Node38 -->
<g id="node38" class="node"><title>Node38</title>
<g id="a_node38"><a xlink:href="../../d9/dda/class_game_1_1_c_goal_manager.html#ad79a365021224cf3ff2764bd0601664d" target="_top" xlink:title=" ">
<polygon fill="white" stroke="black" points="555.5,-224.5 555.5,-254.5 668.5,-254.5 668.5,-224.5 555.5,-224.5"/>
<text text-anchor="start" x="563.5" y="-242.5" font-family="Helvetica,sans-Serif" font-size="10.00">Game::CGoalManager</text>
<text text-anchor="middle" x="612" y="-231.5" font-family="Helvetica,sans-Serif" font-size="10.00">::PlayGoalWinStream</text>
</a>
</g>
</g>
<!-- Node37&#45;&gt;Node38 -->
<g id="edge53" class="edge"><title>Node37&#45;&gt;Node38</title>
<path fill="none" stroke="midnightblue" d="M710.972,-218.407C696.735,-221.472 682.157,-224.611 668.743,-227.499"/>
<polygon fill="midnightblue" stroke="midnightblue" points="711.716,-221.827 720.755,-216.301 710.242,-214.984 711.716,-221.827"/>
</g>
<!-- Node39 -->
<g id="node39" class="node"><title>Node39</title>
<g id="a_node39"><a xlink:href="../../d2/d97/namespace_game.html#a82a7340eb5a788eb6944946b1320455c" target="_top" xlink:title=" ">
<polygon fill="white" stroke="black" points="340,-230 340,-249 503,-249 503,-230 340,-230"/>
<text text-anchor="middle" x="421.5" y="-237" font-family="Helvetica,sans-Serif" font-size="10.00">Game::ScriptPlayGoalWinStream</text>
</a>
</g>
</g>
<!-- Node38&#45;&gt;Node39 -->
<g id="edge54" class="edge"><title>Node38&#45;&gt;Node39</title>
<path fill="none" stroke="midnightblue" d="M545.258,-239.5C531.661,-239.5 517.191,-239.5 503.133,-239.5"/>
<polygon fill="midnightblue" stroke="midnightblue" points="545.463,-243 555.463,-239.5 545.463,-236 545.463,-243"/>
</g>
</g>
</svg>
