<?xml version="1.0" encoding="UTF-8" standalone="no"?>
<!DOCTYPE svg PUBLIC "-//W3C//DTD SVG 1.1//EN"
 "http://www.w3.org/Graphics/SVG/1.1/DTD/svg11.dtd">
<!-- Generated by graphviz version 2.38.0 (20140413.2041)
 -->
<!-- Title: Obj::CSkaterBalanceTrickComponent::CSkaterBalanceTrickComponent Pages: 1 -->
<svg width="324pt" height="50pt"
 viewBox="0.00 0.00 324.00 50.00" xmlns="http://www.w3.org/2000/svg" xmlns:xlink="http://www.w3.org/1999/xlink">
<g id="graph0" class="graph" transform="scale(1 1) rotate(0) translate(4 46)">
<title>Obj::CSkaterBalanceTrickComponent::CSkaterBalanceTrickComponent</title>
<polygon fill="white" stroke="none" points="-4,4 -4,-46 320,-46 320,4 -4,4"/>
<!-- Node1 -->
<g id="node1" class="node"><title>Node1</title>
<g id="a_node1"><a xlink:title=" ">
<polygon fill="#bfbfbf" stroke="black" points="0,-0.5 0,-41.5 164,-41.5 164,-0.5 0,-0.5"/>
<text text-anchor="start" x="8" y="-29.5" font-family="Helvetica,sans-Serif" font-size="10.00">Obj::CSkaterBalanceTrick</text>
<text text-anchor="start" x="8" y="-18.5" font-family="Helvetica,sans-Serif" font-size="10.00">Component::CSkaterBalanceTrick</text>
<text text-anchor="middle" x="82" y="-7.5" font-family="Helvetica,sans-Serif" font-size="10.00">Component</text>
</a>
</g>
</g>
<!-- Node2 -->
<g id="node2" class="node"><title>Node2</title>
<g id="a_node2"><a xlink:href="../../d0/d7e/class_obj_1_1_c_base_component.html#a880a8b9b7ec5b22563c6821ae0f1903e" target="_top" xlink:title=" ">
<polygon fill="white" stroke="black" points="200,-6 200,-36 316,-36 316,-6 200,-6"/>
<text text-anchor="start" x="208" y="-24" font-family="Helvetica,sans-Serif" font-size="10.00">Obj::CBaseComponent</text>
<text text-anchor="middle" x="258" y="-13" font-family="Helvetica,sans-Serif" font-size="10.00">::SetType</text>
</a>
</g>
</g>
<!-- Node1&#45;&gt;Node2 -->
<g id="edge1" class="edge"><title>Node1&#45;&gt;Node2</title>
<path fill="none" stroke="midnightblue" d="M164.142,-21C172.708,-21 181.35,-21 189.735,-21"/>
<polygon fill="midnightblue" stroke="midnightblue" points="189.811,-24.5001 199.811,-21 189.811,-17.5001 189.811,-24.5001"/>
</g>
</g>
</svg>
