<?xml version="1.0" encoding="UTF-8" standalone="no"?>
<!DOCTYPE svg PUBLIC "-//W3C//DTD SVG 1.1//EN"
 "http://www.w3.org/Graphics/SVG/1.1/DTD/svg11.dtd">
<!-- Generated by graphviz version 2.38.0 (20140413.2041)
 -->
<!-- Title: NxPs2::sScene::SetUVOffset Pages: 1 -->
<svg width="496pt" height="39pt"
 viewBox="0.00 0.00 496.00 39.00" xmlns="http://www.w3.org/2000/svg" xmlns:xlink="http://www.w3.org/1999/xlink">
<g id="graph0" class="graph" transform="scale(1 1) rotate(0) translate(4 35)">
<title>NxPs2::sScene::SetUVOffset</title>
<polygon fill="white" stroke="none" points="-4,4 -4,-35 492,-35 492,4 -4,4"/>
<!-- Node1 -->
<g id="node1" class="node"><title>Node1</title>
<g id="a_node1"><a xlink:title=" ">
<polygon fill="#bfbfbf" stroke="black" points="343,-6 343,-25 488,-25 488,-6 343,-6"/>
<text text-anchor="middle" x="415.5" y="-13" font-family="Helvetica,sans-Serif" font-size="10.00">NxPs2::sScene::SetUVOffset</text>
</a>
</g>
</g>
<!-- Node2 -->
<g id="node2" class="node"><title>Node2</title>
<g id="a_node2"><a xlink:href="../../dd/da6/class_nx_ps2_1_1_c_instance.html#a7474aaaba7ccc5a72022ed3a3c63b457" target="_top" xlink:title=" ">
<polygon fill="white" stroke="black" points="152,-6 152,-25 307,-25 307,-6 152,-6"/>
<text text-anchor="middle" x="229.5" y="-13" font-family="Helvetica,sans-Serif" font-size="10.00">NxPs2::CInstance::SetUVOffset</text>
</a>
</g>
</g>
<!-- Node1&#45;&gt;Node2 -->
<g id="edge1" class="edge"><title>Node1&#45;&gt;Node2</title>
<path fill="none" stroke="midnightblue" d="M332.587,-15.5C324.124,-15.5 315.545,-15.5 307.142,-15.5"/>
<polygon fill="midnightblue" stroke="midnightblue" points="332.834,-19.0001 342.834,-15.5 332.834,-12.0001 332.834,-19.0001"/>
</g>
<!-- Node3 -->
<g id="node3" class="node"><title>Node3</title>
<g id="a_node3"><a xlink:href="../../de/d72/class_nx_1_1_c_ps2_geom.html#a56062f3355565154237f3911d93ad019" target="_top" xlink:title=" ">
<polygon fill="white" stroke="black" points="0,-0.5 0,-30.5 116,-30.5 116,-0.5 0,-0.5"/>
<text text-anchor="start" x="8" y="-18.5" font-family="Helvetica,sans-Serif" font-size="10.00">Nx::CPs2Geom::plat</text>
<text text-anchor="middle" x="58" y="-7.5" font-family="Helvetica,sans-Serif" font-size="10.00">_set_uv_wibble_offsets</text>
</a>
</g>
</g>
<!-- Node2&#45;&gt;Node3 -->
<g id="edge2" class="edge"><title>Node2&#45;&gt;Node3</title>
<path fill="none" stroke="midnightblue" d="M141.531,-15.5C132.874,-15.5 124.249,-15.5 116.016,-15.5"/>
<polygon fill="midnightblue" stroke="midnightblue" points="141.685,-19.0001 151.685,-15.5 141.685,-12.0001 141.685,-19.0001"/>
</g>
</g>
</svg>
