<?xml version="1.0" encoding="UTF-8" standalone="no"?>
<!DOCTYPE svg PUBLIC "-//W3C//DTD SVG 1.1//EN"
 "http://www.w3.org/Graphics/SVG/1.1/DTD/svg11.dtd">
<!-- Generated by graphviz version 2.38.0 (20140413.2041)
 -->
<!-- Title: GameNet::PlayerInfo::IsLocalPlayer Pages: 1 -->
<!--zoomable 303 -->
<svg id="main" version="1.1" xmlns="http://www.w3.org/2000/svg" xmlns:xlink="http://www.w3.org/1999/xlink" xml:space="preserve" onload="init(evt)">
<style type="text/css"><![CDATA[
.edge:hover path { stroke: red; }
.edge:hover polygon { stroke: red; fill: red; }
]]></style>
<script type="text/javascript"><![CDATA[
var edges = document.getElementsByTagName('g');
if (edges && edges.length) {
  for (var i=0;i<edges.length;i++) {
    if (edges[i].id.substr(0,4)=='edge') {
      edges[i].setAttribute('class','edge');
    }
  }
}
]]></script>
        <defs>
                <circle id="rim" cx="0" cy="0" r="7"/>
                <circle id="rim2" cx="0" cy="0" r="3.5"/>
                <g id="zoomPlus">
                        <use xlink:href="#rim" fill="#404040">
                                <set attributeName="fill" to="#808080" begin="zoomplus.mouseover" end="zoomplus.mouseout"/>
                        </use>
                        <path d="M-4,0h8M0,-4v8" fill="none" stroke="white" stroke-width="1.5" pointer-events="none"/>
                </g>
                <g id="zoomMin">
                        <use xlink:href="#rim" fill="#404040">
                                <set attributeName="fill" to="#808080" begin="zoomminus.mouseover" end="zoomminus.mouseout"/>
                        </use>
                        <path d="M-4,0h8" fill="none" stroke="white" stroke-width="1.5" pointer-events="none"/>
                </g>
                <g id="dirArrow">
                        <path fill="none" stroke="white" stroke-width="1.5" d="M0,-3.0v7 M-2.5,-0.5L0,-3.0L2.5,-0.5"/>
                </g>
               <g id="resetDef">
                       <use xlink:href="#rim2" fill="#404040">
                               <set attributeName="fill" to="#808080" begin="reset.mouseover" end="reset.mouseout"/>
                       </use>
               </g>
        </defs>

<script type="text/javascript">
var viewWidth = 728;
var viewHeight = 303;
var sectionId = 'dynsection-4';
</script>
<script xlink:href="../../svgpan.js"/>
<svg id="graph" class="graph">
<g id="viewport">
<title>GameNet::PlayerInfo::IsLocalPlayer</title>
<polygon fill="white" stroke="none" points="-4,4 -4,-298.842 724,-298.842 724,4 -4,4"/>
<!-- Node1 -->
<g id="node1" class="node"><title>Node1</title>
<g id="a_node1"><a xlink:title=" ">
<polygon fill="#bfbfbf" stroke="black" points="613,-142.5 613,-172.5 720,-172.5 720,-142.5 613,-142.5"/>
<text text-anchor="start" x="621" y="-160.5" font-family="Helvetica,sans-Serif" font-size="10.00">GameNet::PlayerInfo</text>
<text text-anchor="middle" x="666.5" y="-149.5" font-family="Helvetica,sans-Serif" font-size="10.00">::IsLocalPlayer</text>
</a>
</g>
</g>
<!-- Node2 -->
<g id="node2" class="node"><title>Node2</title>
<g id="a_node2"><a xlink:href="../../d2/d8e/class_game_net_1_1_manager.html#a69c50fe6e70eaaff4082694c14034b78" target="_top" xlink:title=" ">
<polygon fill="white" stroke="black" points="199.5,-259.5 199.5,-289.5 331.5,-289.5 331.5,-259.5 199.5,-259.5"/>
<text text-anchor="start" x="207.5" y="-277.5" font-family="Helvetica,sans-Serif" font-size="10.00">GameNet::Manager::Client</text>
<text text-anchor="middle" x="265.5" y="-266.5" font-family="Helvetica,sans-Serif" font-size="10.00">AddNewPlayer</text>
</a>
</g>
</g>
<!-- Node1&#45;&gt;Node2 -->
<g id="edge1" class="edge"><title>Node1&#45;&gt;Node2</title>
<path fill="none" stroke="midnightblue" d="M653.422,-181.842C639.132,-207.631 612.698,-246.992 577,-264.5 499.401,-302.558 397.284,-296.888 331.751,-287.322"/>
<polygon fill="midnightblue" stroke="midnightblue" points="656.681,-183.168 658.298,-172.697 650.505,-179.874 656.681,-183.168"/>
</g>
<!-- Node3 -->
<g id="node3" class="node"><title>Node3</title>
<g id="a_node3"><a xlink:href="../../d7/df7/class_obj_1_1_c_skater_state_history_component.html#a72490a17539dce707d71959122002d6a" target="_top" xlink:title=" ">
<polygon fill="white" stroke="black" points="398,-224.5 398,-254.5 577,-254.5 577,-224.5 398,-224.5"/>
<text text-anchor="start" x="406" y="-242.5" font-family="Helvetica,sans-Serif" font-size="10.00">Obj::CSkaterStateHistory</text>
<text text-anchor="middle" x="487.5" y="-231.5" font-family="Helvetica,sans-Serif" font-size="10.00">Component::CollideWithOtherSkaters</text>
</a>
</g>
</g>
<!-- Node1&#45;&gt;Node3 -->
<g id="edge2" class="edge"><title>Node1&#45;&gt;Node3</title>
<path fill="none" stroke="midnightblue" d="M637.473,-178.623C620.651,-190.501 598.421,-204.837 577,-214.5 568.704,-218.242 559.715,-221.557 550.753,-224.45"/>
<polygon fill="midnightblue" stroke="midnightblue" points="639.67,-181.355 645.744,-172.674 635.582,-175.672 639.67,-181.355"/>
</g>
<!-- Node4 -->
<g id="node4" class="node"><title>Node4</title>
<g id="a_node4"><a xlink:href="../../d2/d8e/class_game_net_1_1_manager.html#afe2b8603d40d7478b9823af386524641" target="_top" xlink:title=" ">
<polygon fill="white" stroke="black" points="410,-148 410,-167 565,-167 565,-148 410,-148"/>
<text text-anchor="middle" x="487.5" y="-155" font-family="Helvetica,sans-Serif" font-size="10.00">GameNet::Manager::DropPlayer</text>
</a>
</g>
</g>
<!-- Node1&#45;&gt;Node4 -->
<g id="edge3" class="edge"><title>Node1&#45;&gt;Node4</title>
<path fill="none" stroke="midnightblue" d="M602.829,-157.5C590.643,-157.5 577.742,-157.5 565.165,-157.5"/>
<polygon fill="midnightblue" stroke="midnightblue" points="602.873,-161 612.873,-157.5 602.873,-154 602.873,-161"/>
</g>
<!-- Node10 -->
<g id="node10" class="node"><title>Node10</title>
<g id="a_node10"><a xlink:href="../../d2/d8e/class_game_net_1_1_manager.html#ab7105b82dd3952541aea30d1428a268d" target="_top" xlink:title=" ">
<polygon fill="white" stroke="black" points="410.5,-186 410.5,-205 564.5,-205 564.5,-186 410.5,-186"/>
<text text-anchor="middle" x="487.5" y="-193" font-family="Helvetica,sans-Serif" font-size="10.00">GameNet::Manager::NewPlayer</text>
</a>
</g>
</g>
<!-- Node1&#45;&gt;Node10 -->
<g id="edge9" class="edge"><title>Node1&#45;&gt;Node10</title>
<path fill="none" stroke="midnightblue" d="M602.806,-170.96C579.698,-175.921 554.017,-181.434 532.859,-185.977"/>
<polygon fill="midnightblue" stroke="midnightblue" points="603.831,-174.32 612.873,-168.798 602.361,-167.475 603.831,-174.32"/>
</g>
<!-- Node11 -->
<g id="node11" class="node"><title>Node11</title>
<g id="a_node11"><a xlink:href="../../d2/d8e/class_game_net_1_1_manager.html#adfc1124919a7aa80647b3ae0e9d8d6d4" target="_top" xlink:title=" ">
<polygon fill="white" stroke="black" points="411.5,-98.5 411.5,-128.5 563.5,-128.5 563.5,-98.5 411.5,-98.5"/>
<text text-anchor="start" x="419.5" y="-116.5" font-family="Helvetica,sans-Serif" font-size="10.00">GameNet::Manager::SendFace</text>
<text text-anchor="middle" x="487.5" y="-105.5" font-family="Helvetica,sans-Serif" font-size="10.00">DataToPlayer</text>
</a>
</g>
</g>
<!-- Node1&#45;&gt;Node11 -->
<g id="edge11" class="edge"><title>Node1&#45;&gt;Node11</title>
<path fill="none" stroke="midnightblue" d="M602.777,-141.908C585.3,-137.563 566.354,-132.854 549.008,-128.542"/>
<polygon fill="midnightblue" stroke="midnightblue" points="602.324,-145.402 612.873,-144.418 604.013,-138.609 602.324,-145.402"/>
</g>
<!-- Node12 -->
<g id="node12" class="node"><title>Node12</title>
<g id="a_node12"><a xlink:href="../../d3/df6/class_obj_1_1_c_projectile_collision_component.html#a6005cb471c9c9e41be209d1959fb93c8" target="_top" xlink:title=" ">
<polygon fill="white" stroke="black" points="426.5,-49.5 426.5,-79.5 548.5,-79.5 548.5,-49.5 426.5,-49.5"/>
<text text-anchor="start" x="434.5" y="-67.5" font-family="Helvetica,sans-Serif" font-size="10.00">Obj::CProjectileCollision</text>
<text text-anchor="middle" x="487.5" y="-56.5" font-family="Helvetica,sans-Serif" font-size="10.00">Component::Update</text>
</a>
</g>
</g>
<!-- Node1&#45;&gt;Node12 -->
<g id="edge12" class="edge"><title>Node1&#45;&gt;Node12</title>
<path fill="none" stroke="midnightblue" d="M642.103,-135.514C625.169,-120.652 601.108,-101.602 577,-89.5 568.153,-85.0591 558.401,-81.3029 548.7,-78.1602"/>
<polygon fill="midnightblue" stroke="midnightblue" points="640.031,-138.356 649.813,-142.424 644.703,-133.143 640.031,-138.356"/>
</g>
<!-- Node13 -->
<g id="node13" class="node"><title>Node13</title>
<g id="a_node13"><a xlink:href="../../d3/d76/class_game_net_1_1_player_info.html#adcae25271385a368a77410cb5d0b7225" target="_top" xlink:title=" ">
<polygon fill="white" stroke="black" points="434,-0.5 434,-30.5 541,-30.5 541,-0.5 434,-0.5"/>
<text text-anchor="start" x="442" y="-18.5" font-family="Helvetica,sans-Serif" font-size="10.00">GameNet::PlayerInfo</text>
<text text-anchor="middle" x="487.5" y="-7.5" font-family="Helvetica,sans-Serif" font-size="10.00">::~PlayerInfo</text>
</a>
</g>
</g>
<!-- Node1&#45;&gt;Node13 -->
<g id="edge13" class="edge"><title>Node1&#45;&gt;Node13</title>
<path fill="none" stroke="midnightblue" d="M653.563,-133.116C639.123,-106.175 612.294,-63.4423 577,-39.5 566.329,-32.2611 553.55,-27.2003 541.067,-23.6641"/>
<polygon fill="midnightblue" stroke="midnightblue" points="650.599,-135.003 658.315,-142.263 656.81,-131.775 650.599,-135.003"/>
</g>
<!-- Node5 -->
<g id="node5" class="node"><title>Node5</title>
<g id="a_node5"><a xlink:href="../../d2/d8e/class_game_net_1_1_manager.html#a50b612961c727c2ca79d50653b3986c2" target="_top" xlink:title=" ">
<polygon fill="white" stroke="black" points="184,-194.5 184,-224.5 347,-224.5 347,-194.5 184,-194.5"/>
<text text-anchor="start" x="192" y="-212.5" font-family="Helvetica,sans-Serif" font-size="10.00">GameNet::Manager::DropPartially</text>
<text text-anchor="middle" x="265.5" y="-201.5" font-family="Helvetica,sans-Serif" font-size="10.00">LoadedPlayers</text>
</a>
</g>
</g>
<!-- Node4&#45;&gt;Node5 -->
<g id="edge4" class="edge"><title>Node4&#45;&gt;Node5</title>
<path fill="none" stroke="midnightblue" d="M430.683,-169.178C419.827,-171.536 408.547,-174.045 398,-176.5 373.929,-182.103 347.481,-188.661 324.657,-194.448"/>
<polygon fill="midnightblue" stroke="midnightblue" points="431.462,-172.591 440.5,-167.062 429.987,-165.748 431.462,-172.591"/>
</g>
<!-- Node7 -->
<g id="node7" class="node"><title>Node7</title>
<g id="a_node7"><a xlink:href="../../d2/d8e/class_game_net_1_1_manager.html#a89978e410ac60206ddcdb6bfc6cddb78" target="_top" xlink:title=" ">
<polygon fill="white" stroke="black" points="169,-156 169,-175 362,-175 362,-156 169,-156"/>
<text text-anchor="middle" x="265.5" y="-163" font-family="Helvetica,sans-Serif" font-size="10.00">GameNet::Manager::EnterObserverMode</text>
</a>
</g>
</g>
<!-- Node4&#45;&gt;Node7 -->
<g id="edge6" class="edge"><title>Node4&#45;&gt;Node7</title>
<path fill="none" stroke="midnightblue" d="M399.649,-160.658C387.358,-161.105 374.664,-161.567 362.218,-162.019"/>
<polygon fill="midnightblue" stroke="midnightblue" points="399.997,-164.148 409.864,-160.287 399.743,-157.153 399.997,-164.148"/>
</g>
<!-- Node8 -->
<g id="node8" class="node"><title>Node8</title>
<g id="a_node8"><a xlink:href="../../d2/d8e/class_game_net_1_1_manager.html#a4eb962fbf1198b58f50def3f28bdd37d" target="_top" xlink:title=" ">
<polygon fill="white" stroke="black" points="199,-106.5 199,-136.5 332,-136.5 332,-106.5 199,-106.5"/>
<text text-anchor="start" x="207" y="-124.5" font-family="Helvetica,sans-Serif" font-size="10.00">GameNet::Manager::Script</text>
<text text-anchor="middle" x="265.5" y="-113.5" font-family="Helvetica,sans-Serif" font-size="10.00">BanPlayer</text>
</a>
</g>
</g>
<!-- Node4&#45;&gt;Node8 -->
<g id="edge7" class="edge"><title>Node4&#45;&gt;Node8</title>
<path fill="none" stroke="midnightblue" d="M418.502,-146.373C391.063,-141.883 359.521,-136.722 332.307,-132.268"/>
<polygon fill="midnightblue" stroke="midnightblue" points="417.976,-149.833 428.41,-147.994 419.106,-142.925 417.976,-149.833"/>
</g>
<!-- Node9 -->
<g id="node9" class="node"><title>Node9</title>
<g id="a_node9"><a xlink:href="../../d2/d8e/class_game_net_1_1_manager.html#a250b8749b2e4409df54555e0c50924aa" target="_top" xlink:title=" ">
<polygon fill="white" stroke="black" points="199,-57.5 199,-87.5 332,-87.5 332,-57.5 199,-57.5"/>
<text text-anchor="start" x="207" y="-75.5" font-family="Helvetica,sans-Serif" font-size="10.00">GameNet::Manager::Script</text>
<text text-anchor="middle" x="265.5" y="-64.5" font-family="Helvetica,sans-Serif" font-size="10.00">KickPlayer</text>
</a>
</g>
</g>
<!-- Node4&#45;&gt;Node9 -->
<g id="edge8" class="edge"><title>Node4&#45;&gt;Node9</title>
<path fill="none" stroke="midnightblue" d="M410.12,-144.494C405.912,-142.741 401.839,-140.754 398,-138.5 377.088,-126.223 382.634,-110.24 362,-97.5 352.886,-91.8726 342.53,-87.5028 332.081,-84.112"/>
<polygon fill="midnightblue" stroke="midnightblue" points="408.918,-147.781 419.511,-147.968 411.347,-141.216 408.918,-147.781"/>
</g>
<!-- Node6 -->
<g id="node6" class="node"><title>Node6</title>
<g id="a_node6"><a xlink:href="../../d2/d8e/class_game_net_1_1_manager.html#a0f1d80906babafc9c3e4da5ac5497936" target="_top" xlink:title=" ">
<polygon fill="white" stroke="black" points="0,-194.5 0,-224.5 133,-224.5 133,-194.5 0,-194.5"/>
<text text-anchor="start" x="8" y="-212.5" font-family="Helvetica,sans-Serif" font-size="10.00">GameNet::Manager::Script</text>
<text text-anchor="middle" x="66.5" y="-201.5" font-family="Helvetica,sans-Serif" font-size="10.00">DropPendingPlayers</text>
</a>
</g>
</g>
<!-- Node5&#45;&gt;Node6 -->
<g id="edge5" class="edge"><title>Node5&#45;&gt;Node6</title>
<path fill="none" stroke="midnightblue" d="M173.437,-209.5C159.808,-209.5 145.988,-209.5 133.029,-209.5"/>
<polygon fill="midnightblue" stroke="midnightblue" points="173.804,-213 183.804,-209.5 173.804,-206 173.804,-213"/>
</g>
<!-- Node10&#45;&gt;Node2 -->
<g id="edge10" class="edge"><title>Node10&#45;&gt;Node2</title>
<path fill="none" stroke="midnightblue" d="M423.633,-207.547C414.916,-209.841 406.159,-212.485 398,-215.5 381.03,-221.77 378.36,-226.775 362,-234.5 343.307,-243.326 322.137,-252.294 304.487,-259.496"/>
<polygon fill="midnightblue" stroke="midnightblue" points="424.568,-210.921 433.424,-205.104 422.874,-204.129 424.568,-210.921"/>
</g>
</g>
</svg>
        <g id="navigator" transform="translate(0 0)" fill="#404254">
                <rect fill="#f2f5e9" fill-opacity="0.5" stroke="#606060" stroke-width=".5" x="0" y="0" width="60" height="60"/>
                <use id="zoomplus" xlink:href="#zoomPlus" x="17" y="9" onmousedown="handleZoom(evt,'in')"/>
                <use id="zoomminus" xlink:href="#zoomMin" x="42" y="9" onmousedown="handleZoom(evt,'out')"/>
                <use id="reset" xlink:href="#resetDef" x="30" y="36" onmousedown="handleReset()"/>
                <g id="arrowUp" xlink:href="#dirArrow" transform="translate(30 24)" onmousedown="handlePan(0,-1)">
                  <use xlink:href="#rim" fill="#404040">
                        <set attributeName="fill" to="#808080" begin="arrowUp.mouseover" end="arrowUp.mouseout"/>
                  </use>
                  <path fill="none" stroke="white" stroke-width="1.5" d="M0,-3.0v7 M-2.5,-0.5L0,-3.0L2.5,-0.5"/>
                </g>
                <g id="arrowRight" xlink:href="#dirArrow" transform="rotate(90) translate(36 -43)" onmousedown="handlePan(1,0)">
                  <use xlink:href="#rim" fill="#404040">
                        <set attributeName="fill" to="#808080" begin="arrowRight.mouseover" end="arrowRight.mouseout"/>
                  </use>
                  <path fill="none" stroke="white" stroke-width="1.5" d="M0,-3.0v7 M-2.5,-0.5L0,-3.0L2.5,-0.5"/>
                </g>
                <g id="arrowDown" xlink:href="#dirArrow" transform="rotate(180) translate(-30 -48)" onmousedown="handlePan(0,1)">
                  <use xlink:href="#rim" fill="#404040">
                        <set attributeName="fill" to="#808080" begin="arrowDown.mouseover" end="arrowDown.mouseout"/>
                  </use>
                  <path fill="none" stroke="white" stroke-width="1.5" d="M0,-3.0v7 M-2.5,-0.5L0,-3.0L2.5,-0.5"/>
                </g>
                <g id="arrowLeft" xlink:href="#dirArrow" transform="rotate(270) translate(-36 17)" onmousedown="handlePan(-1,0)">
                  <use xlink:href="#rim" fill="#404040">
                        <set attributeName="fill" to="#808080" begin="arrowLeft.mouseover" end="arrowLeft.mouseout"/>
                  </use>
                  <path fill="none" stroke="white" stroke-width="1.5" d="M0,-3.0v7 M-2.5,-0.5L0,-3.0L2.5,-0.5"/>
                </g>
        </g>
        <svg viewBox="0 0 15 15" width="100%" height="30px" preserveAspectRatio="xMaxYMin meet">
         <g id="arrow_out" transform="scale(0.3 0.3)">
          <a xlink:href="class_game_net_1_1_player_info_ac7d9cc98f61d52c5a5fb4a082401ebdd_icgraph_org.svg" target="_base">
           <rect id="button" ry="5" rx="5" y="6" x="6" height="38" width="38"
                fill="#f2f5e9" fill-opacity="0.5" stroke="#606060" stroke-width="1.0"/>
           <path id="arrow"
             d="M 11.500037,31.436501 C 11.940474,20.09759 22.043105,11.32322 32.158766,21.979434 L 37.068811,17.246167 C 37.068811,17.246167 37.088388,32 37.088388,32 L 22.160133,31.978069 C 22.160133,31.978069 26.997745,27.140456 26.997745,27.140456 C 18.528582,18.264221 13.291696,25.230495 11.500037,31.436501 z"
             style="fill:#404040;"/>
          </a>
         </g>
        </svg>
</svg>
