<?xml version="1.0" encoding="UTF-8" standalone="no"?>
<!DOCTYPE svg PUBLIC "-//W3C//DTD SVG 1.1//EN"
 "http://www.w3.org/Graphics/SVG/1.1/DTD/svg11.dtd">
<!-- Generated by graphviz version 2.38.0 (20140413.2041)
 -->
<!-- Title: Mem::CPoolable::SRemovePool Pages: 1 -->
<svg width="515pt" height="39pt"
 viewBox="0.00 0.00 515.00 39.00" xmlns="http://www.w3.org/2000/svg" xmlns:xlink="http://www.w3.org/1999/xlink">
<g id="graph0" class="graph" transform="scale(1 1) rotate(0) translate(4 35)">
<title>Mem::CPoolable::SRemovePool</title>
<polygon fill="white" stroke="none" points="-4,4 -4,-35 511,-35 511,4 -4,4"/>
<!-- Node1 -->
<g id="node1" class="node"><title>Node1</title>
<g id="a_node1"><a xlink:title=" ">
<polygon fill="#bfbfbf" stroke="black" points="352,-6 352,-25 507,-25 507,-6 352,-6"/>
<text text-anchor="middle" x="429.5" y="-13" font-family="Helvetica,sans-Serif" font-size="10.00">Mem::CPoolable::SRemovePool</text>
</a>
</g>
</g>
<!-- Node2 -->
<g id="node2" class="node"><title>Node2</title>
<g id="a_node2"><a xlink:href="../../d0/d5c/class_ed_1_1_c_park_manager.html#a294b6088fc662e0f95d45feea3cfda70" target="_top" xlink:title=" ">
<polygon fill="white" stroke="black" points="177,-6 177,-25 316,-25 316,-6 177,-6"/>
<text text-anchor="middle" x="246.5" y="-13" font-family="Helvetica,sans-Serif" font-size="10.00">Ed::CParkManager::Destroy</text>
</a>
</g>
</g>
<!-- Node1&#45;&gt;Node2 -->
<g id="edge1" class="edge"><title>Node1&#45;&gt;Node2</title>
<path fill="none" stroke="midnightblue" d="M341.683,-15.5C333.082,-15.5 324.437,-15.5 316.059,-15.5"/>
<polygon fill="midnightblue" stroke="midnightblue" points="341.74,-19.0001 351.74,-15.5 341.74,-12.0001 341.74,-19.0001"/>
</g>
<!-- Node3 -->
<g id="node3" class="node"><title>Node3</title>
<g id="a_node3"><a xlink:href="../../d2/d84/namespace_ed.html#a193edd746832f7fa49f8496c9804d8e8" target="_top" xlink:title=" ">
<polygon fill="white" stroke="black" points="0,-0.5 0,-30.5 141,-30.5 141,-0.5 0,-0.5"/>
<text text-anchor="start" x="8" y="-18.5" font-family="Helvetica,sans-Serif" font-size="10.00">Ed::ScriptFreeUpMemoryFor</text>
<text text-anchor="middle" x="70.5" y="-7.5" font-family="Helvetica,sans-Serif" font-size="10.00">PlayingPark</text>
</a>
</g>
</g>
<!-- Node2&#45;&gt;Node3 -->
<g id="edge2" class="edge"><title>Node2&#45;&gt;Node3</title>
<path fill="none" stroke="midnightblue" d="M166.505,-15.5C158.063,-15.5 149.519,-15.5 141.196,-15.5"/>
<polygon fill="midnightblue" stroke="midnightblue" points="166.731,-19.0001 176.731,-15.5 166.731,-12.0001 166.731,-19.0001"/>
</g>
</g>
</svg>
