<?xml version="1.0" encoding="UTF-8" standalone="no"?>
<!DOCTYPE svg PUBLIC "-//W3C//DTD SVG 1.1//EN"
 "http://www.w3.org/Graphics/SVG/1.1/DTD/svg11.dtd">
<!-- Generated by graphviz version 2.38.0 (20140413.2041)
 -->
<!-- Title: Mem::Heap Pages: 1 -->
<svg width="668pt" height="343pt"
 viewBox="0.00 0.00 668.00 343.00" xmlns="http://www.w3.org/2000/svg" xmlns:xlink="http://www.w3.org/1999/xlink">
<g id="graph0" class="graph" transform="scale(1 1) rotate(0) translate(4 339)">
<title>Mem::Heap</title>
<polygon fill="white" stroke="none" points="-4,4 -4,-339 664,-339 664,4 -4,4"/>
<!-- Node1 -->
<g id="node1" class="node"><title>Node1</title>
<g id="a_node1"><a xlink:title=" ">
<polygon fill="#bfbfbf" stroke="black" points="454.5,-85 454.5,-104 521.5,-104 521.5,-85 454.5,-85"/>
<text text-anchor="middle" x="488" y="-92" font-family="Helvetica,sans-Serif" font-size="10.00">Mem::Heap</text>
</a>
</g>
</g>
<!-- Node2 -->
<g id="node2" class="node"><title>Node2</title>
<g id="a_node2"><a xlink:href="../../d5/d97/class_mem_1_1_allocator.html" target="_top" xlink:title=" ">
<polygon fill="white" stroke="black" points="456.5,-158.5 456.5,-177.5 539.5,-177.5 539.5,-158.5 456.5,-158.5"/>
<text text-anchor="middle" x="498" y="-165.5" font-family="Helvetica,sans-Serif" font-size="10.00">Mem::Allocator</text>
</a>
</g>
</g>
<!-- Node2&#45;&gt;Node1 -->
<g id="edge1" class="edge"><title>Node2&#45;&gt;Node1</title>
<path fill="none" stroke="midnightblue" d="M483.831,-150.111C481.845,-146.927 480.106,-143.494 479,-140 475.146,-127.826 479.774,-113.24 483.692,-104.169"/>
<polygon fill="midnightblue" stroke="midnightblue" points="481.054,-152.243 489.766,-158.272 486.715,-148.126 481.054,-152.243"/>
</g>
<!-- Node5 -->
<g id="node5" class="node"><title>Node5</title>
<g id="a_node5"><a xlink:href="../../da/d27/class_mem_1_1_allocator_1_1_block_header.html" target="_top" xlink:title="sorry, need to access this from elsewhere, for debugging... (MICK)">
<polygon fill="white" stroke="black" points="208,-85 208,-104 352,-104 352,-85 208,-85"/>
<text text-anchor="middle" x="280" y="-92" font-family="Helvetica,sans-Serif" font-size="10.00">Mem::Allocator::BlockHeader</text>
</a>
</g>
</g>
<!-- Node2&#45;&gt;Node5 -->
<g id="edge8" class="edge"><title>Node2&#45;&gt;Node5</title>
<path fill="none" stroke="#9a32cd" stroke-dasharray="5,2" d="M462.003,-155.194C418.079,-140.787 344.883,-116.78 306.05,-104.044"/>
<polygon fill="#9a32cd" stroke="#9a32cd" points="461.111,-158.585 471.704,-158.375 463.293,-151.933 461.111,-158.585"/>
<text text-anchor="middle" x="433.5" y="-132" font-family="Helvetica,sans-Serif" font-size="10.00"> mpAlloc</text>
</g>
<!-- Node8 -->
<g id="node8" class="node"><title>Node8</title>
<g id="a_node8"><a xlink:href="../../d1/d75/class_mem_1_1_region.html" target="_top" xlink:title=" ">
<polygon fill="white" stroke="black" points="540,-85 540,-104 614,-104 614,-85 540,-85"/>
<text text-anchor="middle" x="577" y="-92" font-family="Helvetica,sans-Serif" font-size="10.00">Mem::Region</text>
</a>
</g>
</g>
<!-- Node2&#45;&gt;Node8 -->
<g id="edge13" class="edge"><title>Node2&#45;&gt;Node8</title>
<path fill="none" stroke="#9a32cd" stroke-dasharray="5,2" d="M491.94,-148.222C490.953,-141.664 491.265,-134.56 495,-129 498.408,-123.926 529.215,-112.232 552.071,-104.098"/>
<polygon fill="#9a32cd" stroke="#9a32cd" points="488.653,-149.508 494.455,-158.373 495.447,-147.825 488.653,-149.508"/>
<text text-anchor="middle" x="513.5" y="-132" font-family="Helvetica,sans-Serif" font-size="10.00"> m_alloc</text>
</g>
<!-- Node3 -->
<g id="node3" class="node"><title>Node3</title>
<g id="a_node3"><a xlink:href="../../d3/dee/class_spt_1_1_class.html" target="_top" xlink:title=" ">
<polygon fill="white" stroke="black" points="571,-315.5 571,-334.5 633,-334.5 633,-315.5 571,-315.5"/>
<text text-anchor="middle" x="602" y="-322.5" font-family="Helvetica,sans-Serif" font-size="10.00">Spt::Class</text>
</a>
</g>
</g>
<!-- Node3&#45;&gt;Node2 -->
<g id="edge2" class="edge"><title>Node3&#45;&gt;Node2</title>
<path fill="none" stroke="midnightblue" d="M602.1,-305.115C601.233,-277.715 595.674,-226.852 568,-196 560.346,-187.467 549.683,-181.61 538.984,-177.598"/>
<polygon fill="midnightblue" stroke="midnightblue" points="598.603,-305.341 602.235,-315.294 605.602,-305.248 598.603,-305.341"/>
</g>
<!-- Node4 -->
<g id="node4" class="node"><title>Node4</title>
<g id="a_node4"><a xlink:href="../../d1/df6/class_mem_1_1_allocator_1_1_context.html" target="_top" xlink:title=" ">
<polygon fill="white" stroke="black" points="219,-0.5 219,-19.5 341,-19.5 341,-0.5 219,-0.5"/>
<text text-anchor="middle" x="280" y="-7.5" font-family="Helvetica,sans-Serif" font-size="10.00">Mem::Allocator::Context</text>
</a>
</g>
</g>
<!-- Node3&#45;&gt;Node4 -->
<g id="edge4" class="edge"><title>Node3&#45;&gt;Node4</title>
<path fill="none" stroke="midnightblue" d="M630.315,-310.258C645.04,-300.945 660,-287.042 660,-269 660,-269 660,-269 660,-93.5 660,-29.0288 448.471,-14.8366 341.054,-11.786"/>
<polygon fill="midnightblue" stroke="midnightblue" points="628.22,-307.427 621.313,-315.461 631.723,-313.487 628.22,-307.427"/>
</g>
<!-- Node7 -->
<g id="node7" class="node"><title>Node7</title>
<g id="a_node7"><a xlink:href="../../da/d46/class_mem_1_1_record.html" target="_top" xlink:title=" ">
<polygon fill="white" stroke="black" points="471.5,-258.5 471.5,-277.5 546.5,-277.5 546.5,-258.5 471.5,-258.5"/>
<text text-anchor="middle" x="509" y="-265.5" font-family="Helvetica,sans-Serif" font-size="10.00">Mem::Record</text>
</a>
</g>
</g>
<!-- Node3&#45;&gt;Node7 -->
<g id="edge10" class="edge"><title>Node3&#45;&gt;Node7</title>
<path fill="none" stroke="midnightblue" d="M578.513,-310.11C561.176,-299.857 538.132,-286.229 523.429,-277.533"/>
<polygon fill="midnightblue" stroke="midnightblue" points="577.08,-313.328 587.469,-315.406 580.643,-307.303 577.08,-313.328"/>
</g>
<!-- Node3&#45;&gt;Node8 -->
<g id="edge12" class="edge"><title>Node3&#45;&gt;Node8</title>
<path fill="none" stroke="midnightblue" d="M606.727,-305.205C607.254,-302.469 607.707,-299.673 608,-297 609.891,-279.77 608.604,-275.323 608,-258 605.999,-200.562 617.372,-183.457 599,-129 595.886,-119.77 589.598,-110.616 584.54,-104.216"/>
<polygon fill="midnightblue" stroke="midnightblue" points="603.285,-304.557 604.497,-315.082 610.113,-306.099 603.285,-304.557"/>
</g>
<!-- Node4&#45;&gt;Node2 -->
<g id="edge3" class="edge"><title>Node4&#45;&gt;Node2</title>
<path fill="none" stroke="#9a32cd" stroke-dasharray="5,2" d="M230.337,-22.0554C171.302,-37.4173 85.131,-68.2332 122,-111 164.824,-160.674 367.786,-166.971 456.423,-167.304"/>
<polygon fill="#9a32cd" stroke="#9a32cd" points="231.442,-25.3863 240.281,-19.5451 229.728,-18.5993 231.442,-25.3863"/>
<text text-anchor="middle" x="160.5" y="-97.5" font-family="Helvetica,sans-Serif" font-size="10.00"> m_initial_context</text>
<text text-anchor="middle" x="160.5" y="-86.5" font-family="Helvetica,sans-Serif" font-size="10.00">mp_context</text>
</g>
<!-- Node5&#45;&gt;Node4 -->
<g id="edge5" class="edge"><title>Node5&#45;&gt;Node4</title>
<path fill="none" stroke="#9a32cd" stroke-dasharray="5,2" d="M280,-74.9332C280,-57.6343 280,-32.6114 280,-19.5955"/>
<polygon fill="#9a32cd" stroke="#9a32cd" points="276.5,-74.9817 280,-84.9818 283.5,-74.9818 276.5,-74.9817"/>
<text text-anchor="middle" x="309" y="-52" font-family="Helvetica,sans-Serif" font-size="10.00"> mp_free_list</text>
<text text-anchor="middle" x="309" y="-41" font-family="Helvetica,sans-Serif" font-size="10.00">mp_used_list</text>
</g>
<!-- Node5&#45;&gt;Node5 -->
<g id="edge6" class="edge"><title>Node5&#45;&gt;Node5</title>
<path fill="none" stroke="#9a32cd" stroke-dasharray="5,2" d="M362.066,-99.6934C367.024,-98.4583 370,-96.7272 370,-94.5 370,-91.0234 362.748,-88.7555 352.026,-87.6963"/>
<polygon fill="#9a32cd" stroke="#9a32cd" points="361.346,-96.2641 352.026,-101.304 362.454,-103.176 361.346,-96.2641"/>
<text text-anchor="middle" x="403" y="-103" font-family="Helvetica,sans-Serif" font-size="10.00"> mp_prev_used</text>
<text text-anchor="middle" x="403" y="-92" font-family="Helvetica,sans-Serif" font-size="10.00">mpNext</text>
<text text-anchor="middle" x="403" y="-81" font-family="Helvetica,sans-Serif" font-size="10.00">mp_next_used</text>
</g>
<!-- Node6 -->
<g id="node6" class="node"><title>Node6</title>
<g id="a_node6"><a xlink:href="../../d5/dd7/class_mem_1_1_c_mem_profile.html" target="_top" xlink:title=" ">
<polygon fill="white" stroke="black" points="0,-158.5 0,-177.5 100,-177.5 100,-158.5 0,-158.5"/>
<text text-anchor="middle" x="50" y="-165.5" font-family="Helvetica,sans-Serif" font-size="10.00">Mem::CMemProfile</text>
</a>
</g>
</g>
<!-- Node6&#45;&gt;Node5 -->
<g id="edge7" class="edge"><title>Node6&#45;&gt;Node5</title>
<path fill="none" stroke="#9a32cd" stroke-dasharray="5,2" d="M87.3951,-155.375C133.67,-140.99 211.373,-116.834 252.516,-104.044"/>
<polygon fill="#9a32cd" stroke="#9a32cd" points="86.2536,-152.065 77.7434,-158.375 88.3316,-158.749 86.2536,-152.065"/>
<text text-anchor="middle" x="196" y="-132" font-family="Helvetica,sans-Serif" font-size="10.00"> mp_profile</text>
</g>
<!-- Node7&#45;&gt;Node2 -->
<g id="edge9" class="edge"><title>Node7&#45;&gt;Node2</title>
<path fill="none" stroke="#9a32cd" stroke-dasharray="5,2" d="M506.892,-248.22C504.505,-226.951 500.719,-193.22 498.958,-177.537"/>
<polygon fill="#9a32cd" stroke="#9a32cd" points="503.43,-248.756 508.024,-258.303 510.386,-247.975 503.43,-248.756"/>
<text text-anchor="middle" x="535.5" y="-232" font-family="Helvetica,sans-Serif" font-size="10.00"> mFreeBlocks</text>
<text text-anchor="middle" x="535.5" y="-221" font-family="Helvetica,sans-Serif" font-size="10.00">mFreeMem</text>
<text text-anchor="middle" x="535.5" y="-210" font-family="Helvetica,sans-Serif" font-size="10.00">mUsedMem</text>
<text text-anchor="middle" x="535.5" y="-199" font-family="Helvetica,sans-Serif" font-size="10.00">mUsedBlocks</text>
</g>
<!-- Node8&#45;&gt;Node2 -->
<g id="edge11" class="edge"><title>Node8&#45;&gt;Node2</title>
<path fill="none" stroke="#9a32cd" stroke-dasharray="5,2" d="M563.388,-111.866C555.745,-120.633 545.798,-131.371 536,-140 528.347,-146.739 519.022,-153.385 511.525,-158.397"/>
<polygon fill="#9a32cd" stroke="#9a32cd" points="566.102,-114.078 569.93,-104.199 560.777,-109.535 566.102,-114.078"/>
<text text-anchor="middle" x="570.5" y="-132" font-family="Helvetica,sans-Serif" font-size="10.00"> mp_region</text>
</g>
</g>
</svg>
