<?xml version="1.0" encoding="UTF-8" standalone="no"?>
<!DOCTYPE svg PUBLIC "-//W3C//DTD SVG 1.1//EN"
 "http://www.w3.org/Graphics/SVG/1.1/DTD/svg11.dtd">
<!-- Generated by graphviz version 2.38.0 (20140413.2041)
 -->
<!-- Title: Obj::CSkitchComponent::GetDebugInfo Pages: 1 -->
<svg width="1322pt" height="344pt"
 viewBox="0.00 0.00 1322.00 343.50" xmlns="http://www.w3.org/2000/svg" xmlns:xlink="http://www.w3.org/1999/xlink">
<g id="graph0" class="graph" transform="scale(1 1) rotate(0) translate(4 339.5)">
<title>Obj::CSkitchComponent::GetDebugInfo</title>
<polygon fill="white" stroke="none" points="-4,4 -4,-339.5 1318,-339.5 1318,4 -4,4"/>
<!-- Node1 -->
<g id="node1" class="node"><title>Node1</title>
<g id="a_node1"><a xlink:title=" ">
<polygon fill="#bfbfbf" stroke="black" points="0,-52 0,-82 122,-82 122,-52 0,-52"/>
<text text-anchor="start" x="8" y="-70" font-family="Helvetica,sans-Serif" font-size="10.00">Obj::CSkitchComponent</text>
<text text-anchor="middle" x="61" y="-59" font-family="Helvetica,sans-Serif" font-size="10.00">::GetDebugInfo</text>
</a>
</g>
</g>
<!-- Node2 -->
<g id="node2" class="node"><title>Node2</title>
<g id="a_node2"><a xlink:href="../../d2/df7/class_script_1_1_c_struct.html#ab6805f805d22e3876bcd47552a663f1a" target="_top" xlink:title=" ">
<polygon fill="white" stroke="black" points="310,-57.5 310,-76.5 444,-76.5 444,-57.5 310,-57.5"/>
<text text-anchor="middle" x="377" y="-64.5" font-family="Helvetica,sans-Serif" font-size="10.00">Script::CStruct::AddInteger</text>
</a>
</g>
</g>
<!-- Node1&#45;&gt;Node2 -->
<g id="edge1" class="edge"><title>Node1&#45;&gt;Node2</title>
<path fill="none" stroke="midnightblue" d="M122.169,-68.4457C134.044,-68.6768 146.415,-68.8793 158,-69 209.553,-69.5369 222.447,-69.5054 274,-69 282.338,-68.9183 291.059,-68.799 299.74,-68.6586"/>
<polygon fill="midnightblue" stroke="midnightblue" points="299.948,-72.1557 309.886,-68.4853 299.828,-65.1567 299.948,-72.1557"/>
</g>
<!-- Node17 -->
<g id="node17" class="node"><title>Node17</title>
<g id="a_node17"><a xlink:href="../../d0/d7e/class_obj_1_1_c_base_component.html#acb60b78cb120aaaa883df1fd4d4d15bf" target="_top" xlink:title=" ">
<polygon fill="white" stroke="black" points="158,-30 158,-60 274,-60 274,-30 158,-30"/>
<text text-anchor="start" x="166" y="-48" font-family="Helvetica,sans-Serif" font-size="10.00">Obj::CBaseComponent</text>
<text text-anchor="middle" x="216" y="-37" font-family="Helvetica,sans-Serif" font-size="10.00">::GetDebugInfo</text>
</a>
</g>
</g>
<!-- Node1&#45;&gt;Node17 -->
<g id="edge20" class="edge"><title>Node1&#45;&gt;Node17</title>
<path fill="none" stroke="midnightblue" d="M122.031,-58.3682C130.455,-57.1568 139.159,-55.9053 147.707,-54.6761"/>
<polygon fill="midnightblue" stroke="midnightblue" points="148.244,-58.135 157.644,-53.2472 147.248,-51.2062 148.244,-58.135"/>
</g>
<!-- Node3 -->
<g id="node3" class="node"><title>Node3</title>
<g id="a_node3"><a xlink:href="../../d2/df7/class_script_1_1_c_struct.html#a3872f7f0a9ebcc695745aabeefab2796" target="_top" xlink:title=" ">
<polygon fill="white" stroke="black" points="480,-57.5 480,-76.5 634,-76.5 634,-57.5 480,-57.5"/>
<text text-anchor="middle" x="557" y="-64.5" font-family="Helvetica,sans-Serif" font-size="10.00">Script::CStruct::AddComponent</text>
</a>
</g>
</g>
<!-- Node2&#45;&gt;Node3 -->
<g id="edge2" class="edge"><title>Node2&#45;&gt;Node3</title>
<path fill="none" stroke="midnightblue" d="M444.028,-67C452.419,-67 461.103,-67 469.752,-67"/>
<polygon fill="midnightblue" stroke="midnightblue" points="469.87,-70.5001 479.87,-67 469.87,-63.5001 469.87,-70.5001"/>
</g>
<!-- Node4 -->
<g id="node4" class="node"><title>Node4</title>
<g id="a_node4"><a xlink:href="../../d1/d54/namespace_script.html#a1dd030523ebaecb95103d181f6fd382e" target="_top" xlink:title=" ">
<polygon fill="white" stroke="black" points="672.5,-95.5 672.5,-114.5 806.5,-114.5 806.5,-95.5 672.5,-95.5"/>
<text text-anchor="middle" x="739.5" y="-102.5" font-family="Helvetica,sans-Serif" font-size="10.00">Script::CleanUpComponent</text>
</a>
</g>
</g>
<!-- Node3&#45;&gt;Node4 -->
<g id="edge3" class="edge"><title>Node3&#45;&gt;Node4</title>
<path fill="none" stroke="midnightblue" d="M603.548,-76.589C627.796,-81.6939 657.804,-88.0113 683.361,-93.3918"/>
<polygon fill="midnightblue" stroke="midnightblue" points="682.773,-96.8447 693.28,-95.4799 684.215,-89.9948 682.773,-96.8447"/>
</g>
<!-- Node13 -->
<g id="node13" class="node"><title>Node13</title>
<g id="a_node13"><a xlink:href="../../d1/d54/namespace_script.html#ae80ed69ea4edcbcbbbd4985a6efdcd6e" target="_top" xlink:title=" ">
<polygon fill="white" stroke="black" points="670,-38.5 670,-57.5 809,-57.5 809,-38.5 670,-38.5"/>
<text text-anchor="middle" x="739.5" y="-45.5" font-family="Helvetica,sans-Serif" font-size="10.00">Script::FindChecksumName</text>
</a>
</g>
</g>
<!-- Node3&#45;&gt;Node13 -->
<g id="edge16" class="edge"><title>Node3&#45;&gt;Node13</title>
<path fill="none" stroke="midnightblue" d="M634.025,-58.9974C642.543,-58.1008 651.234,-57.1859 659.784,-56.2859"/>
<polygon fill="midnightblue" stroke="midnightblue" points="660.16,-59.7657 669.739,-55.238 659.427,-52.8042 660.16,-59.7657"/>
</g>
<!-- Node5 -->
<g id="node5" class="node"><title>Node5</title>
<g id="a_node5"><a xlink:href="../../d1/d54/namespace_script.html#a3dd60f29ada8a33fda9f4e842f1cabc1" target="_top" xlink:title=" ">
<polygon fill="white" stroke="black" points="872.5,-190.5 872.5,-209.5 980.5,-209.5 980.5,-190.5 872.5,-190.5"/>
<text text-anchor="middle" x="926.5" y="-197.5" font-family="Helvetica,sans-Serif" font-size="10.00">Script::CleanUpArray</text>
</a>
</g>
</g>
<!-- Node4&#45;&gt;Node5 -->
<g id="edge4" class="edge"><title>Node4&#45;&gt;Node5</title>
<path fill="none" stroke="midnightblue" d="M759.257,-114.632C792.029,-131.461 859.848,-166.287 897.959,-185.857"/>
<polygon fill="midnightblue" stroke="midnightblue" points="896.474,-189.029 906.969,-190.484 899.672,-182.802 896.474,-189.029"/>
</g>
<!-- Node7 -->
<g id="node7" class="node"><title>Node7</title>
<g id="a_node7"><a xlink:href="../../db/dc4/namespace_mem.html#aeedb606ea94a3398fdcfa3101c5ea8d9" target="_top" xlink:title=" ">
<polygon fill="white" stroke="black" points="1227,-114.5 1227,-133.5 1291,-133.5 1291,-114.5 1227,-114.5"/>
<text text-anchor="middle" x="1259" y="-121.5" font-family="Helvetica,sans-Serif" font-size="10.00">Mem::Free</text>
</a>
</g>
</g>
<!-- Node4&#45;&gt;Node7 -->
<g id="edge15" class="edge"><title>Node4&#45;&gt;Node7</title>
<path fill="none" stroke="midnightblue" d="M806.633,-100.757C890.83,-96.3275 1040.66,-91.7056 1168,-105 1184,-106.671 1201.35,-109.969 1216.5,-113.355"/>
<polygon fill="midnightblue" stroke="midnightblue" points="1216.07,-116.847 1226.6,-115.695 1217.65,-110.028 1216.07,-116.847"/>
</g>
<!-- Node9 -->
<g id="node9" class="node"><title>Node9</title>
<g id="a_node9"><a xlink:href="../../d1/d54/namespace_script.html#a99857fb30343d0c999af4db73344cece" target="_top" xlink:title=" ">
<polygon fill="white" stroke="black" points="1055.5,-114.5 1055.5,-133.5 1156.5,-133.5 1156.5,-114.5 1055.5,-114.5"/>
<text text-anchor="middle" x="1106" y="-121.5" font-family="Helvetica,sans-Serif" font-size="10.00">Script::DeleteString</text>
</a>
</g>
</g>
<!-- Node4&#45;&gt;Node9 -->
<g id="edge14" class="edge"><title>Node4&#45;&gt;Node9</title>
<path fill="none" stroke="midnightblue" d="M806.508,-108.441C874.471,-111.983 979.448,-117.455 1045.09,-120.877"/>
<polygon fill="midnightblue" stroke="midnightblue" points="1045.11,-124.383 1055.27,-121.408 1045.47,-117.392 1045.11,-124.383"/>
</g>
<!-- Node6 -->
<g id="node6" class="node"><title>Node6</title>
<g id="a_node6"><a xlink:href="../../d0/d0b/class_script_1_1_c_array.html#a4b347b8b448dd652473dd6afe9aba2c2" target="_top" xlink:title=" ">
<polygon fill="white" stroke="black" points="1052.5,-152.5 1052.5,-171.5 1159.5,-171.5 1159.5,-152.5 1052.5,-152.5"/>
<text text-anchor="middle" x="1106" y="-159.5" font-family="Helvetica,sans-Serif" font-size="10.00">Script::CArray::Clear</text>
</a>
</g>
</g>
<!-- Node5&#45;&gt;Node6 -->
<g id="edge5" class="edge"><title>Node5&#45;&gt;Node6</title>
<path fill="none" stroke="midnightblue" d="M972.291,-190.411C996.03,-185.329 1025.38,-179.045 1050.44,-173.68"/>
<polygon fill="midnightblue" stroke="midnightblue" points="1051.49,-177.036 1060.53,-171.52 1050.02,-170.191 1051.49,-177.036"/>
</g>
<!-- Node8 -->
<g id="node8" class="node"><title>Node8</title>
<g id="a_node8"><a xlink:href="../../d1/d54/namespace_script.html#af32f99ba26ca0f255240413a4e23a754" target="_top" xlink:title=" ">
<polygon fill="white" stroke="black" points="1204,-171.5 1204,-190.5 1314,-190.5 1314,-171.5 1204,-171.5"/>
<text text-anchor="middle" x="1259" y="-178.5" font-family="Helvetica,sans-Serif" font-size="10.00">Script::GetTypeName</text>
</a>
</g>
</g>
<!-- Node5&#45;&gt;Node8 -->
<g id="edge13" class="edge"><title>Node5&#45;&gt;Node8</title>
<path fill="none" stroke="midnightblue" d="M980.601,-196.947C1038.68,-193.609 1131.75,-188.258 1193.86,-184.687"/>
<polygon fill="midnightblue" stroke="midnightblue" points="1194.15,-188.176 1203.93,-184.108 1193.75,-181.188 1194.15,-188.176"/>
</g>
<!-- Node5&#45;&gt;Node9 -->
<g id="edge8" class="edge"><title>Node5&#45;&gt;Node9</title>
<path fill="none" stroke="midnightblue" d="M944.883,-190.449C967.325,-178.365 1007.8,-157.394 1044,-143 1049.55,-140.794 1055.46,-138.676 1061.33,-136.707"/>
<polygon fill="midnightblue" stroke="midnightblue" points="1062.68,-139.95 1071.12,-133.543 1060.53,-133.289 1062.68,-139.95"/>
</g>
<!-- Node10 -->
<g id="node10" class="node"><title>Node10</title>
<g id="a_node10"><a xlink:href="../../d0/d0b/class_script_1_1_c_array.html#a600fcbd0b8fd9d1df2ee87d77494db7a" target="_top" xlink:title=" ">
<polygon fill="white" stroke="black" points="1044.5,-305 1044.5,-335 1167.5,-335 1167.5,-305 1044.5,-305"/>
<text text-anchor="start" x="1052.5" y="-323" font-family="Helvetica,sans-Serif" font-size="10.00">Script::CArray::GetArray</text>
<text text-anchor="middle" x="1106" y="-312" font-family="Helvetica,sans-Serif" font-size="10.00">Pointer</text>
</a>
</g>
</g>
<!-- Node5&#45;&gt;Node10 -->
<g id="edge10" class="edge"><title>Node5&#45;&gt;Node10</title>
<path fill="none" stroke="midnightblue" d="M937.328,-209.751C956.477,-228.332 1000.71,-269.254 1044,-295 1047.34,-296.984 1050.86,-298.88 1054.46,-300.678"/>
<polygon fill="midnightblue" stroke="midnightblue" points="1052.97,-303.846 1063.51,-304.938 1055.95,-297.513 1052.97,-303.846"/>
</g>
<!-- Node11 -->
<g id="node11" class="node"><title>Node11</title>
<g id="a_node11"><a xlink:href="../../d0/d0b/class_script_1_1_c_array.html#a71c761bdce14193b10bf3c88372ba5a0" target="_top" xlink:title=" ">
<polygon fill="white" stroke="black" points="1046.5,-266.5 1046.5,-285.5 1165.5,-285.5 1165.5,-266.5 1046.5,-266.5"/>
<text text-anchor="middle" x="1106" y="-273.5" font-family="Helvetica,sans-Serif" font-size="10.00">Script::CArray::GetSize</text>
</a>
</g>
</g>
<!-- Node5&#45;&gt;Node11 -->
<g id="edge11" class="edge"><title>Node5&#45;&gt;Node11</title>
<path fill="none" stroke="midnightblue" d="M944.883,-209.551C967.325,-221.635 1007.8,-242.606 1044,-257 1049.55,-259.206 1055.46,-261.324 1061.33,-263.293"/>
<polygon fill="midnightblue" stroke="midnightblue" points="1060.53,-266.711 1071.12,-266.457 1062.68,-260.05 1060.53,-266.711"/>
</g>
<!-- Node12 -->
<g id="node12" class="node"><title>Node12</title>
<g id="a_node12"><a xlink:href="../../d0/d0b/class_script_1_1_c_array.html#a68067b67ca9aae7b9214c0add1d8934e" target="_top" xlink:title=" ">
<polygon fill="white" stroke="black" points="1045.5,-228.5 1045.5,-247.5 1166.5,-247.5 1166.5,-228.5 1045.5,-228.5"/>
<text text-anchor="middle" x="1106" y="-235.5" font-family="Helvetica,sans-Serif" font-size="10.00">Script::CArray::GetType</text>
</a>
</g>
</g>
<!-- Node5&#45;&gt;Node12 -->
<g id="edge12" class="edge"><title>Node5&#45;&gt;Node12</title>
<path fill="none" stroke="midnightblue" d="M972.291,-209.589C996.03,-214.671 1025.38,-220.955 1050.44,-226.32"/>
<polygon fill="midnightblue" stroke="midnightblue" points="1050.02,-229.809 1060.53,-228.48 1051.49,-222.964 1050.02,-229.809"/>
</g>
<!-- Node6&#45;&gt;Node7 -->
<g id="edge6" class="edge"><title>Node6&#45;&gt;Node7</title>
<path fill="none" stroke="midnightblue" d="M1145.1,-152.411C1166.92,-146.92 1194.32,-140.026 1216.66,-134.404"/>
<polygon fill="midnightblue" stroke="midnightblue" points="1217.69,-137.755 1226.53,-131.92 1215.98,-130.966 1217.69,-137.755"/>
</g>
<!-- Node6&#45;&gt;Node8 -->
<g id="edge7" class="edge"><title>Node6&#45;&gt;Node8</title>
<path fill="none" stroke="midnightblue" d="M1159.81,-168.645C1170.75,-170.022 1182.39,-171.486 1193.69,-172.908"/>
<polygon fill="midnightblue" stroke="midnightblue" points="1193.58,-176.422 1203.94,-174.198 1194.45,-169.476 1193.58,-176.422"/>
</g>
<!-- Node9&#45;&gt;Node7 -->
<g id="edge9" class="edge"><title>Node9&#45;&gt;Node7</title>
<path fill="none" stroke="midnightblue" d="M1156.86,-124C1176.2,-124 1198.08,-124 1216.53,-124"/>
<polygon fill="midnightblue" stroke="midnightblue" points="1216.67,-127.5 1226.67,-124 1216.67,-120.5 1216.67,-127.5"/>
</g>
<!-- Node14 -->
<g id="node14" class="node"><title>Node14</title>
<g id="a_node14"><a xlink:href="../../d1/d54/namespace_script.html#a5cc52c4ff5ea5bb27681d819212dfdca" target="_top" xlink:title=" ">
<polygon fill="white" stroke="black" points="845,-0.5 845,-19.5 1008,-19.5 1008,-0.5 845,-0.5"/>
<text text-anchor="middle" x="926.5" y="-7.5" font-family="Helvetica,sans-Serif" font-size="10.00">Script::FindChecksumNameNULL</text>
</a>
</g>
</g>
<!-- Node13&#45;&gt;Node14 -->
<g id="edge17" class="edge"><title>Node13&#45;&gt;Node14</title>
<path fill="none" stroke="midnightblue" d="M787.183,-38.411C812.146,-33.2835 843.064,-26.9328 869.334,-21.5368"/>
<polygon fill="midnightblue" stroke="midnightblue" points="870.061,-24.9606 879.152,-19.5201 868.653,-18.1038 870.061,-24.9606"/>
</g>
<!-- Node16 -->
<g id="node16" class="node"><title>Node16</title>
<g id="a_node16"><a xlink:href="../../da/d37/namespace_dbg.html#ab406a8cc16de5046c7d9fd09c9de5e22" target="_top" xlink:title=" ">
<polygon fill="white" stroke="black" points="893.5,-38.5 893.5,-57.5 959.5,-57.5 959.5,-38.5 893.5,-38.5"/>
<text text-anchor="middle" x="926.5" y="-45.5" font-family="Helvetica,sans-Serif" font-size="10.00">Dbg::sprintf</text>
</a>
</g>
</g>
<!-- Node13&#45;&gt;Node16 -->
<g id="edge19" class="edge"><title>Node13&#45;&gt;Node16</title>
<path fill="none" stroke="midnightblue" d="M809.124,-48C833.868,-48 861.058,-48 882.93,-48"/>
<polygon fill="midnightblue" stroke="midnightblue" points="883.206,-51.5001 893.206,-48 883.206,-44.5001 883.206,-51.5001"/>
</g>
<!-- Node15 -->
<g id="node15" class="node"><title>Node15</title>
<g id="a_node15"><a xlink:href="../../d0/d31/namespace_config.html#a709cc81780d49900157e3476b63aa25d" target="_top" xlink:title=" ">
<polygon fill="white" stroke="black" points="1044,-0.5 1044,-19.5 1168,-19.5 1168,-0.5 1044,-0.5"/>
<text text-anchor="middle" x="1106" y="-7.5" font-family="Helvetica,sans-Serif" font-size="10.00">Config::GotExtraMemory</text>
</a>
</g>
</g>
<!-- Node14&#45;&gt;Node15 -->
<g id="edge18" class="edge"><title>Node14&#45;&gt;Node15</title>
<path fill="none" stroke="midnightblue" d="M1008.2,-10C1016.73,-10 1025.36,-10 1033.77,-10"/>
<polygon fill="midnightblue" stroke="midnightblue" points="1033.9,-13.5001 1043.9,-10 1033.9,-6.5001 1033.9,-13.5001"/>
</g>
<!-- Node17&#45;&gt;Node2 -->
<g id="edge21" class="edge"><title>Node17&#45;&gt;Node2</title>
<path fill="none" stroke="midnightblue" d="M274.403,-52.9425C282.65,-54.0837 291.242,-55.2725 299.784,-56.4544"/>
<polygon fill="midnightblue" stroke="midnightblue" points="299.379,-59.9316 309.764,-57.8353 300.338,-52.9976 299.379,-59.9316"/>
</g>
</g>
</svg>
