<?xml version="1.0" encoding="UTF-8" standalone="no"?>
<!DOCTYPE svg PUBLIC "-//W3C//DTD SVG 1.1//EN"
 "http://www.w3.org/Graphics/SVG/1.1/DTD/svg11.dtd">
<!-- Generated by graphviz version 2.38.0 (20140413.2041)
 -->
<!-- Title: Obj::CCollideAndDieComponent::InitFromStructure Pages: 1 -->
<svg width="1196pt" height="274pt"
 viewBox="0.00 0.00 1196.00 274.00" xmlns="http://www.w3.org/2000/svg" xmlns:xlink="http://www.w3.org/1999/xlink">
<g id="graph0" class="graph" transform="scale(1 1) rotate(0) translate(4 270)">
<title>Obj::CCollideAndDieComponent::InitFromStructure</title>
<polygon fill="white" stroke="none" points="-4,4 -4,-270 1192,-270 1192,4 -4,4"/>
<!-- Node1 -->
<g id="node1" class="node"><title>Node1</title>
<g id="a_node1"><a xlink:title=" ">
<polygon fill="#bfbfbf" stroke="black" points="0,-71 0,-101 155,-101 155,-71 0,-71"/>
<text text-anchor="start" x="8" y="-89" font-family="Helvetica,sans-Serif" font-size="10.00">Obj::CCollideAndDieComponent</text>
<text text-anchor="middle" x="77.5" y="-78" font-family="Helvetica,sans-Serif" font-size="10.00">::InitFromStructure</text>
</a>
</g>
</g>
<!-- Node2 -->
<g id="node2" class="node"><title>Node2</title>
<g id="a_node2"><a xlink:href="../../d2/df7/class_script_1_1_c_struct.html#aa39e6fe5fdf1d6c48136ae26a7ad511e" target="_top" xlink:title=" ">
<polygon fill="white" stroke="black" points="191,-184.5 191,-203.5 340,-203.5 340,-184.5 191,-184.5"/>
<text text-anchor="middle" x="265.5" y="-191.5" font-family="Helvetica,sans-Serif" font-size="10.00">Script::CStruct::GetChecksum</text>
</a>
</g>
</g>
<!-- Node1&#45;&gt;Node2 -->
<g id="edge1" class="edge"><title>Node1&#45;&gt;Node2</title>
<path fill="none" stroke="midnightblue" d="M103.919,-101.024C126.689,-114.456 161.018,-134.64 191,-152 206.859,-161.182 224.705,-171.384 238.841,-179.433"/>
<polygon fill="midnightblue" stroke="midnightblue" points="237.114,-182.477 247.537,-184.379 240.575,-176.392 237.114,-182.477"/>
</g>
<!-- Node10 -->
<g id="node10" class="node"><title>Node10</title>
<g id="a_node10"><a xlink:href="../../d2/df7/class_script_1_1_c_struct.html#acae6f1a5a02d406ab56292ec3fcfaefd" target="_top" xlink:title=" ">
<polygon fill="white" stroke="black" points="203,-123.5 203,-142.5 328,-142.5 328,-123.5 203,-123.5"/>
<text text-anchor="middle" x="265.5" y="-130.5" font-family="Helvetica,sans-Serif" font-size="10.00">Script::CStruct::GetFloat</text>
</a>
</g>
</g>
<!-- Node1&#45;&gt;Node10 -->
<g id="edge11" class="edge"><title>Node1&#45;&gt;Node10</title>
<path fill="none" stroke="midnightblue" d="M137.863,-101C163.352,-107.441 192.738,-114.867 216.782,-120.942"/>
<polygon fill="midnightblue" stroke="midnightblue" points="216.18,-124.4 226.732,-123.457 217.895,-117.613 216.18,-124.4"/>
</g>
<!-- Node13 -->
<g id="node13" class="node"><title>Node13</title>
<g id="a_node13"><a xlink:href="../../d2/df7/class_script_1_1_c_struct.html#a40dfb370c37d6da857f33157b2b3bfc7" target="_top" xlink:title=" ">
<polygon fill="white" stroke="black" points="200,-76.5 200,-95.5 331,-95.5 331,-76.5 200,-76.5"/>
<text text-anchor="middle" x="265.5" y="-83.5" font-family="Helvetica,sans-Serif" font-size="10.00">Script::CStruct::GetVector</text>
</a>
</g>
</g>
<!-- Node1&#45;&gt;Node13 -->
<g id="edge19" class="edge"><title>Node1&#45;&gt;Node13</title>
<path fill="none" stroke="midnightblue" d="M155.227,-86C166.566,-86 178.239,-86 189.541,-86"/>
<polygon fill="midnightblue" stroke="midnightblue" points="189.797,-89.5001 199.797,-86 189.797,-82.5001 189.797,-89.5001"/>
</g>
<!-- Node14 -->
<g id="node14" class="node"><title>Node14</title>
<g id="a_node14"><a xlink:href="../../d1/d08/class_mth_1_1_vector.html#aeb3fc85704c5e3811b7dd4bebff78b3f" target="_top" xlink:title=" ">
<polygon fill="white" stroke="black" points="397.5,-0.5 397.5,-19.5 486.5,-19.5 486.5,-0.5 397.5,-0.5"/>
<text text-anchor="middle" x="442" y="-7.5" font-family="Helvetica,sans-Serif" font-size="10.00">Mth::Vector::Set</text>
</a>
</g>
</g>
<!-- Node1&#45;&gt;Node14 -->
<g id="edge25" class="edge"><title>Node1&#45;&gt;Node14</title>
<path fill="none" stroke="midnightblue" d="M150.118,-70.9848C219.895,-56.3557 324.396,-34.4466 387.31,-21.2564"/>
<polygon fill="midnightblue" stroke="midnightblue" points="388.349,-24.6148 397.418,-19.1373 386.912,-17.7638 388.349,-24.6148"/>
</g>
<!-- Node15 -->
<g id="node15" class="node"><title>Node15</title>
<g id="a_node15"><a xlink:href="../../d1/d08/class_mth_1_1_vector.html#ac68fbfe676c95bf1ada686076c00675a" target="_top" xlink:title=" ">
<polygon fill="white" stroke="black" points="207,-0.5 207,-19.5 324,-19.5 324,-0.5 207,-0.5"/>
<text text-anchor="middle" x="265.5" y="-7.5" font-family="Helvetica,sans-Serif" font-size="10.00">Mth::Vector::Normalize</text>
</a>
</g>
</g>
<!-- Node1&#45;&gt;Node15 -->
<g id="edge24" class="edge"><title>Node1&#45;&gt;Node15</title>
<path fill="none" stroke="midnightblue" d="M108.64,-70.8943C131.058,-59.9484 162.562,-45.1709 191,-34 201.131,-30.0204 212.218,-26.1541 222.639,-22.7284"/>
<polygon fill="midnightblue" stroke="midnightblue" points="223.93,-25.9897 232.374,-19.5898 221.782,-19.3274 223.93,-25.9897"/>
</g>
<!-- Node2&#45;&gt;Node2 -->
<g id="edge6" class="edge"><title>Node2&#45;&gt;Node2</title>
<path fill="none" stroke="midnightblue" d="M238.373,-203.757C225.177,-212.565 234.219,-222 265.5,-222 287.006,-222 298,-217.541 298.483,-211.891"/>
<polygon fill="midnightblue" stroke="midnightblue" points="301.31,-209.827 292.627,-203.757 295.629,-213.917 301.31,-209.827"/>
</g>
<!-- Node3 -->
<g id="node3" class="node"><title>Node3</title>
<g id="a_node3"><a xlink:href="../../d1/d54/namespace_script.html#ae80ed69ea4edcbcbbbd4985a6efdcd6e" target="_top" xlink:title=" ">
<polygon fill="white" stroke="black" points="690,-170.5 690,-189.5 829,-189.5 829,-170.5 690,-170.5"/>
<text text-anchor="middle" x="759.5" y="-177.5" font-family="Helvetica,sans-Serif" font-size="10.00">Script::FindChecksumName</text>
</a>
</g>
</g>
<!-- Node2&#45;&gt;Node3 -->
<g id="edge2" class="edge"><title>Node2&#45;&gt;Node3</title>
<path fill="none" stroke="midnightblue" d="M340.162,-196.911C418.187,-199.314 544.922,-201.274 654,-194 664.907,-193.273 676.412,-192.123 687.642,-190.787"/>
<polygon fill="midnightblue" stroke="midnightblue" points="688.363,-194.224 697.854,-189.515 687.498,-187.278 688.363,-194.224"/>
</g>
<!-- Node7 -->
<g id="node7" class="node"><title>Node7</title>
<g id="a_node7"><a xlink:href="../../d1/d54/namespace_script.html#a0d003ee93577e31adb6597bce0002009" target="_top" xlink:title=" ">
<polygon fill="white" stroke="black" points="388.5,-132.5 388.5,-151.5 495.5,-151.5 495.5,-132.5 388.5,-132.5"/>
<text text-anchor="middle" x="442" y="-139.5" font-family="Helvetica,sans-Serif" font-size="10.00">Script::PrintContents</text>
</a>
</g>
</g>
<!-- Node2&#45;&gt;Node7 -->
<g id="edge7" class="edge"><title>Node2&#45;&gt;Node7</title>
<path fill="none" stroke="midnightblue" d="M298.506,-184.462C326.828,-176.023 368.343,-163.651 399.265,-154.437"/>
<polygon fill="midnightblue" stroke="midnightblue" points="400.318,-157.775 408.902,-151.565 398.319,-151.067 400.318,-157.775"/>
</g>
<!-- Node8 -->
<g id="node8" class="node"><title>Node8</title>
<g id="a_node8"><a xlink:href="../../d1/d54/namespace_script.html#a43181580ea5d38e4bf1aa19ccd5e9e85" target="_top" xlink:title=" ">
<polygon fill="white" stroke="black" points="558,-246.5 558,-265.5 640,-265.5 640,-246.5 558,-246.5"/>
<text text-anchor="middle" x="599" y="-253.5" font-family="Helvetica,sans-Serif" font-size="10.00">Script::Resolve</text>
</a>
</g>
</g>
<!-- Node2&#45;&gt;Node8 -->
<g id="edge8" class="edge"><title>Node2&#45;&gt;Node8</title>
<path fill="none" stroke="midnightblue" d="M289.132,-203.548C310.974,-212.355 345.175,-225.079 376,-232 434.076,-245.039 502.346,-251.071 547.69,-253.81"/>
<polygon fill="midnightblue" stroke="midnightblue" points="547.67,-257.315 557.854,-254.392 548.07,-250.326 547.67,-257.315"/>
</g>
<!-- Node4 -->
<g id="node4" class="node"><title>Node4</title>
<g id="a_node4"><a xlink:href="../../d1/d54/namespace_script.html#a5cc52c4ff5ea5bb27681d819212dfdca" target="_top" xlink:title=" ">
<polygon fill="white" stroke="black" points="865,-189.5 865,-208.5 1028,-208.5 1028,-189.5 865,-189.5"/>
<text text-anchor="middle" x="946.5" y="-196.5" font-family="Helvetica,sans-Serif" font-size="10.00">Script::FindChecksumNameNULL</text>
</a>
</g>
</g>
<!-- Node3&#45;&gt;Node4 -->
<g id="edge3" class="edge"><title>Node3&#45;&gt;Node4</title>
<path fill="none" stroke="midnightblue" d="M829.124,-187.048C837.476,-187.906 846.107,-188.792 854.717,-189.676"/>
<polygon fill="midnightblue" stroke="midnightblue" points="854.493,-193.172 864.798,-190.712 855.208,-186.208 854.493,-193.172"/>
</g>
<!-- Node6 -->
<g id="node6" class="node"><title>Node6</title>
<g id="a_node6"><a xlink:href="../../da/d37/namespace_dbg.html#ab406a8cc16de5046c7d9fd09c9de5e22" target="_top" xlink:title=" ">
<polygon fill="white" stroke="black" points="913.5,-151.5 913.5,-170.5 979.5,-170.5 979.5,-151.5 913.5,-151.5"/>
<text text-anchor="middle" x="946.5" y="-158.5" font-family="Helvetica,sans-Serif" font-size="10.00">Dbg::sprintf</text>
</a>
</g>
</g>
<!-- Node3&#45;&gt;Node6 -->
<g id="edge5" class="edge"><title>Node3&#45;&gt;Node6</title>
<path fill="none" stroke="midnightblue" d="M829.124,-172.952C853.98,-170.399 881.305,-167.593 903.228,-165.341"/>
<polygon fill="midnightblue" stroke="midnightblue" points="903.616,-168.82 913.206,-164.317 902.901,-161.857 903.616,-168.82"/>
</g>
<!-- Node5 -->
<g id="node5" class="node"><title>Node5</title>
<g id="a_node5"><a xlink:href="../../d0/d31/namespace_config.html#a709cc81780d49900157e3476b63aa25d" target="_top" xlink:title=" ">
<polygon fill="white" stroke="black" points="1064,-189.5 1064,-208.5 1188,-208.5 1188,-189.5 1064,-189.5"/>
<text text-anchor="middle" x="1126" y="-196.5" font-family="Helvetica,sans-Serif" font-size="10.00">Config::GotExtraMemory</text>
</a>
</g>
</g>
<!-- Node4&#45;&gt;Node5 -->
<g id="edge4" class="edge"><title>Node4&#45;&gt;Node5</title>
<path fill="none" stroke="midnightblue" d="M1028.2,-199C1036.73,-199 1045.36,-199 1053.77,-199"/>
<polygon fill="midnightblue" stroke="midnightblue" points="1053.9,-202.5 1063.9,-199 1053.9,-195.5 1053.9,-202.5"/>
</g>
<!-- Node8&#45;&gt;Node3 -->
<g id="edge9" class="edge"><title>Node8&#45;&gt;Node3</title>
<path fill="none" stroke="midnightblue" d="M622.168,-246.407C631.969,-242.099 643.604,-236.894 654,-232 680.234,-219.65 709.788,-204.861 730.755,-194.217"/>
<polygon fill="midnightblue" stroke="midnightblue" points="732.418,-197.298 739.742,-189.642 729.242,-191.06 732.418,-197.298"/>
</g>
<!-- Node9 -->
<g id="node9" class="node"><title>Node9</title>
<g id="a_node9"><a xlink:href="../../d1/d54/namespace_script.html#af293a36c230b10de7d8151c2990b233b" target="_top" xlink:title=" ">
<polygon fill="white" stroke="black" points="702.5,-246.5 702.5,-265.5 816.5,-265.5 816.5,-246.5 702.5,-246.5"/>
<text text-anchor="middle" x="759.5" y="-253.5" font-family="Helvetica,sans-Serif" font-size="10.00">Script::LookUpSymbol</text>
</a>
</g>
</g>
<!-- Node8&#45;&gt;Node9 -->
<g id="edge10" class="edge"><title>Node8&#45;&gt;Node9</title>
<path fill="none" stroke="midnightblue" d="M640.406,-256C656.124,-256 674.549,-256 692.11,-256"/>
<polygon fill="midnightblue" stroke="midnightblue" points="692.322,-259.5 702.322,-256 692.322,-252.5 692.322,-259.5"/>
</g>
<!-- Node10&#45;&gt;Node3 -->
<g id="edge12" class="edge"><title>Node10&#45;&gt;Node3</title>
<path fill="none" stroke="midnightblue" d="M296.842,-142.509C318.636,-148.906 348.837,-156.895 376,-161 480.127,-176.736 601.826,-180.273 679.494,-180.683"/>
<polygon fill="midnightblue" stroke="midnightblue" points="679.67,-184.183 689.683,-180.72 679.696,-177.184 679.67,-184.183"/>
</g>
<!-- Node10&#45;&gt;Node7 -->
<g id="edge13" class="edge"><title>Node10&#45;&gt;Node7</title>
<path fill="none" stroke="midnightblue" d="M328.022,-136.173C344.355,-137.015 362.009,-137.926 378.399,-138.771"/>
<polygon fill="midnightblue" stroke="midnightblue" points="378.251,-142.268 388.418,-139.288 378.611,-135.277 378.251,-142.268"/>
</g>
<!-- Node11 -->
<g id="node11" class="node"><title>Node11</title>
<g id="a_node11"><a xlink:href="../../d2/df7/class_script_1_1_c_struct.html#a1e05f0a66cff4a700fb67fdc117d2d7f" target="_top" xlink:title=" ">
<polygon fill="white" stroke="black" points="376,-76.5 376,-95.5 508,-95.5 508,-76.5 376,-76.5"/>
<text text-anchor="middle" x="442" y="-83.5" font-family="Helvetica,sans-Serif" font-size="10.00">Script::CStruct::search_for</text>
</a>
</g>
</g>
<!-- Node10&#45;&gt;Node11 -->
<g id="edge14" class="edge"><title>Node10&#45;&gt;Node11</title>
<path fill="none" stroke="midnightblue" d="M301.813,-123.489C328.805,-116.219 366.226,-106.14 395.469,-98.2634"/>
<polygon fill="midnightblue" stroke="midnightblue" points="396.695,-101.558 405.441,-95.5776 394.875,-94.7988 396.695,-101.558"/>
</g>
<!-- Node11&#45;&gt;Node3 -->
<g id="edge15" class="edge"><title>Node11&#45;&gt;Node3</title>
<path fill="none" stroke="midnightblue" d="M474.988,-95.5305C532.388,-112.632 652.825,-148.515 716.683,-167.541"/>
<polygon fill="midnightblue" stroke="midnightblue" points="715.844,-170.943 726.427,-170.444 717.843,-164.235 715.844,-170.943"/>
</g>
<!-- Node11&#45;&gt;Node8 -->
<g id="edge17" class="edge"><title>Node11&#45;&gt;Node8</title>
<path fill="none" stroke="midnightblue" d="M465.428,-95.586C478.787,-102.029 495.515,-111.446 508,-123 544.995,-157.237 574.625,-209.451 588.841,-237.175"/>
<polygon fill="midnightblue" stroke="midnightblue" points="585.756,-238.83 593.366,-246.201 592.013,-235.693 585.756,-238.83"/>
</g>
<!-- Node11&#45;&gt;Node11 -->
<g id="edge18" class="edge"><title>Node11&#45;&gt;Node11</title>
<path fill="none" stroke="midnightblue" d="M417.956,-95.7571C406.259,-104.565 414.273,-114 442,-114 460.196,-114 469.902,-109.937 471.119,-104.654"/>
<polygon fill="midnightblue" stroke="midnightblue" points="474.039,-102.709 466.044,-95.7571 467.959,-106.177 474.039,-102.709"/>
</g>
<!-- Node12 -->
<g id="node12" class="node"><title>Node12</title>
<g id="a_node12"><a xlink:href="../../d1/d54/namespace_script.html#af32f99ba26ca0f255240413a4e23a754" target="_top" xlink:title=" ">
<polygon fill="white" stroke="black" points="544,-76.5 544,-95.5 654,-95.5 654,-76.5 544,-76.5"/>
<text text-anchor="middle" x="599" y="-83.5" font-family="Helvetica,sans-Serif" font-size="10.00">Script::GetTypeName</text>
</a>
</g>
</g>
<!-- Node11&#45;&gt;Node12 -->
<g id="edge16" class="edge"><title>Node11&#45;&gt;Node12</title>
<path fill="none" stroke="midnightblue" d="M508.285,-86C516.637,-86 525.184,-86 533.523,-86"/>
<polygon fill="midnightblue" stroke="midnightblue" points="533.566,-89.5001 543.566,-86 533.566,-82.5001 533.566,-89.5001"/>
</g>
<!-- Node13&#45;&gt;Node3 -->
<g id="edge20" class="edge"><title>Node13&#45;&gt;Node3</title>
<path fill="none" stroke="midnightblue" d="M294.802,-76.3898C360.981,-55.6186 529.649,-12.6232 654,-67 698.264,-86.3559 732.128,-134.733 748.204,-161.486"/>
<polygon fill="midnightblue" stroke="midnightblue" points="745.258,-163.382 753.308,-170.27 751.31,-159.865 745.258,-163.382"/>
</g>
<!-- Node13&#45;&gt;Node7 -->
<g id="edge21" class="edge"><title>Node13&#45;&gt;Node7</title>
<path fill="none" stroke="midnightblue" d="M293.847,-95.5917C315.936,-103.254 347.865,-114.139 376,-123 382.939,-125.185 390.32,-127.424 397.526,-129.563"/>
<polygon fill="midnightblue" stroke="midnightblue" points="396.602,-132.94 407.183,-132.403 398.577,-126.224 396.602,-132.94"/>
</g>
<!-- Node13&#45;&gt;Node11 -->
<g id="edge22" class="edge"><title>Node13&#45;&gt;Node11</title>
<path fill="none" stroke="midnightblue" d="M331.477,-86C342.606,-86 354.252,-86 365.624,-86"/>
<polygon fill="midnightblue" stroke="midnightblue" points="365.968,-89.5001 375.968,-86 365.968,-82.5001 365.968,-89.5001"/>
</g>
<!-- Node13&#45;&gt;Node14 -->
<g id="edge23" class="edge"><title>Node13&#45;&gt;Node14</title>
<path fill="none" stroke="midnightblue" d="M304.161,-76.443C315.987,-72.7281 328.857,-67.9198 340,-62 357.901,-52.4904 358.284,-43.8487 376,-34 383.325,-29.9278 391.478,-26.2944 399.465,-23.1628"/>
<polygon fill="midnightblue" stroke="midnightblue" points="400.905,-26.3615 409.058,-19.5958 398.465,-19.8003 400.905,-26.3615"/>
</g>
</g>
</svg>
