<?xml version="1.0" encoding="UTF-8" standalone="no"?>
<!DOCTYPE svg PUBLIC "-//W3C//DTD SVG 1.1//EN"
 "http://www.w3.org/Graphics/SVG/1.1/DTD/svg11.dtd">
<!-- Generated by graphviz version 2.38.0 (20140413.2041)
 -->
<!-- Title: Obj::CVibrationComponent::SetActiveState Pages: 1 -->
<svg width="590pt" height="166pt"
 viewBox="0.00 0.00 590.00 165.50" xmlns="http://www.w3.org/2000/svg" xmlns:xlink="http://www.w3.org/1999/xlink">
<g id="graph0" class="graph" transform="scale(1 1) rotate(0) translate(4 161.5)">
<title>Obj::CVibrationComponent::SetActiveState</title>
<polygon fill="white" stroke="none" points="-4,4 -4,-161.5 586,-161.5 586,4 -4,4"/>
<!-- Node1 -->
<g id="node1" class="node"><title>Node1</title>
<g id="a_node1"><a xlink:title=" ">
<polygon fill="#bfbfbf" stroke="black" points="0,-68.5 0,-98.5 132,-98.5 132,-68.5 0,-68.5"/>
<text text-anchor="start" x="8" y="-86.5" font-family="Helvetica,sans-Serif" font-size="10.00">Obj::CVibrationComponent</text>
<text text-anchor="middle" x="66" y="-75.5" font-family="Helvetica,sans-Serif" font-size="10.00">::SetActiveState</text>
</a>
</g>
</g>
<!-- Node2 -->
<g id="node2" class="node"><title>Node2</title>
<g id="a_node2"><a xlink:href="../../de/ddf/class_obj_1_1_c_vibration_component.html#a386f277e50df42f5a595cee78fa08ed7" target="_top" xlink:title=" ">
<polygon fill="white" stroke="black" points="168,-93.5 168,-123.5 300,-123.5 300,-93.5 168,-93.5"/>
<text text-anchor="start" x="176" y="-111.5" font-family="Helvetica,sans-Serif" font-size="10.00">Obj::CVibrationComponent</text>
<text text-anchor="middle" x="234" y="-100.5" font-family="Helvetica,sans-Serif" font-size="10.00">::SetActive</text>
</a>
</g>
</g>
<!-- Node1&#45;&gt;Node2 -->
<g id="edge1" class="edge"><title>Node1&#45;&gt;Node2</title>
<path fill="none" stroke="midnightblue" d="M132.131,-93.3089C140.553,-94.5773 149.232,-95.8844 157.8,-97.1747"/>
<polygon fill="midnightblue" stroke="midnightblue" points="157.374,-100.65 167.784,-98.6783 158.417,-93.7281 157.374,-100.65"/>
</g>
<!-- Node6 -->
<g id="node6" class="node"><title>Node6</title>
<g id="a_node6"><a xlink:href="../../de/ddf/class_obj_1_1_c_vibration_component.html#a93495a9d1b62bfd04bd0c5e07f3dd525" target="_top" xlink:title=" ">
<polygon fill="white" stroke="black" points="168,-44.5 168,-74.5 300,-74.5 300,-44.5 168,-44.5"/>
<text text-anchor="start" x="176" y="-62.5" font-family="Helvetica,sans-Serif" font-size="10.00">Obj::CVibrationComponent</text>
<text text-anchor="middle" x="234" y="-51.5" font-family="Helvetica,sans-Serif" font-size="10.00">::SetInactive</text>
</a>
</g>
</g>
<!-- Node1&#45;&gt;Node6 -->
<g id="edge5" class="edge"><title>Node1&#45;&gt;Node6</title>
<path fill="none" stroke="midnightblue" d="M132.131,-74.0834C140.553,-72.8658 149.232,-71.611 157.8,-70.3723"/>
<polygon fill="midnightblue" stroke="midnightblue" points="158.388,-73.8238 167.784,-68.9288 157.386,-66.8958 158.388,-73.8238"/>
</g>
<!-- Node3 -->
<g id="node3" class="node"><title>Node3</title>
<g id="a_node3"><a xlink:href="../../dc/de6/class_s_i_o_1_1_device.html#ada72b91bd57c0cfb32138b7f610be96d" target="_top" xlink:title=" ">
<polygon fill="white" stroke="black" points="337,-138 337,-157 483,-157 483,-138 337,-138"/>
<text text-anchor="middle" x="410" y="-145" font-family="Helvetica,sans-Serif" font-size="10.00">SIO::Device::EnableActuators</text>
</a>
</g>
</g>
<!-- Node2&#45;&gt;Node3 -->
<g id="edge2" class="edge"><title>Node2&#45;&gt;Node3</title>
<path fill="none" stroke="midnightblue" d="M300.286,-123.133C318.827,-127.289 338.773,-131.759 356.454,-135.723"/>
<polygon fill="midnightblue" stroke="midnightblue" points="356.052,-139.219 366.576,-137.991 357.583,-132.389 356.052,-139.219"/>
</g>
<!-- Node4 -->
<g id="node4" class="node"><title>Node4</title>
<g id="a_node4"><a xlink:href="../../d0/d7e/class_obj_1_1_c_base_component.html#a1b617ce9442e7fe78cc830537567a305" target="_top" xlink:title=" ">
<polygon fill="white" stroke="black" points="352,-88.5 352,-118.5 468,-118.5 468,-88.5 352,-88.5"/>
<text text-anchor="start" x="360" y="-106.5" font-family="Helvetica,sans-Serif" font-size="10.00">Obj::CBaseComponent</text>
<text text-anchor="middle" x="410" y="-95.5" font-family="Helvetica,sans-Serif" font-size="10.00">::Suspend</text>
</a>
</g>
</g>
<!-- Node2&#45;&gt;Node4 -->
<g id="edge3" class="edge"><title>Node2&#45;&gt;Node4</title>
<path fill="none" stroke="midnightblue" d="M300.286,-106.624C313.811,-106.235 328.083,-105.825 341.679,-105.435"/>
<polygon fill="midnightblue" stroke="midnightblue" points="342.025,-108.926 351.92,-105.14 341.824,-101.929 342.025,-108.926"/>
</g>
<!-- Node5 -->
<g id="node5" class="node"><title>Node5</title>
<g id="a_node5"><a xlink:href="../../db/d82/class_flags.html#a14ec7e6462fcd346612fe1e0c9dfff5e" target="_top" xlink:title=" ">
<polygon fill="white" stroke="black" points="520,-94 520,-113 582,-113 582,-94 520,-94"/>
<text text-anchor="middle" x="551" y="-101" font-family="Helvetica,sans-Serif" font-size="10.00">Flags::Set</text>
</a>
</g>
</g>
<!-- Node4&#45;&gt;Node5 -->
<g id="edge4" class="edge"><title>Node4&#45;&gt;Node5</title>
<path fill="none" stroke="midnightblue" d="M468.339,-103.5C482.127,-103.5 496.575,-103.5 509.418,-103.5"/>
<polygon fill="midnightblue" stroke="midnightblue" points="509.78,-107 519.78,-103.5 509.78,-100 509.78,-107"/>
</g>
<!-- Node6&#45;&gt;Node4 -->
<g id="edge8" class="edge"><title>Node6&#45;&gt;Node4</title>
<path fill="none" stroke="midnightblue" d="M294.394,-74.5192C309.658,-78.379 326.186,-82.5586 341.814,-86.5104"/>
<polygon fill="midnightblue" stroke="midnightblue" points="341.378,-90.0103 351.931,-89.0687 343.094,-83.2239 341.378,-90.0103"/>
</g>
<!-- Node7 -->
<g id="node7" class="node"><title>Node7</title>
<g id="a_node7"><a xlink:href="../../dc/de6/class_s_i_o_1_1_device.html#a59569404bdd15984baee5228310e4852" target="_top" xlink:title=" ">
<polygon fill="white" stroke="black" points="336,-50 336,-69 484,-69 484,-50 336,-50"/>
<text text-anchor="middle" x="410" y="-57" font-family="Helvetica,sans-Serif" font-size="10.00">SIO::Device::DisableActuators</text>
</a>
</g>
</g>
<!-- Node6&#45;&gt;Node7 -->
<g id="edge6" class="edge"><title>Node6&#45;&gt;Node7</title>
<path fill="none" stroke="midnightblue" d="M300.286,-59.5C308.513,-59.5 317.017,-59.5 325.476,-59.5"/>
<polygon fill="midnightblue" stroke="midnightblue" points="325.752,-63.0001 335.752,-59.5 325.752,-56.0001 325.752,-63.0001"/>
</g>
<!-- Node8 -->
<g id="node8" class="node"><title>Node8</title>
<g id="a_node8"><a xlink:href="../../dc/de6/class_s_i_o_1_1_device.html#a6766fde90f4be62525c27d174f0ed7b9" target="_top" xlink:title=" ">
<polygon fill="white" stroke="black" points="338.5,-0.5 338.5,-30.5 481.5,-30.5 481.5,-0.5 338.5,-0.5"/>
<text text-anchor="start" x="346.5" y="-18.5" font-family="Helvetica,sans-Serif" font-size="10.00">SIO::Device::StopAllVibration</text>
<text text-anchor="middle" x="410" y="-7.5" font-family="Helvetica,sans-Serif" font-size="10.00">IncludingSaved</text>
</a>
</g>
</g>
<!-- Node6&#45;&gt;Node8 -->
<g id="edge7" class="edge"><title>Node6&#45;&gt;Node8</title>
<path fill="none" stroke="midnightblue" d="M294.394,-44.4808C309.012,-40.7844 324.789,-36.7947 339.825,-32.9926"/>
<polygon fill="midnightblue" stroke="midnightblue" points="340.741,-36.371 349.578,-30.5262 339.025,-29.5847 340.741,-36.371"/>
</g>
</g>
</svg>
