<?xml version="1.0" encoding="UTF-8" standalone="no"?>
<!DOCTYPE svg PUBLIC "-//W3C//DTD SVG 1.1//EN"
 "http://www.w3.org/Graphics/SVG/1.1/DTD/svg11.dtd">
<!-- Generated by graphviz version 2.38.0 (20140413.2041)
 -->
<!-- Title: Obj::CSkaterLocalNetLogicComponent::GetSkater Pages: 1 -->
<!--zoomable 127 -->
<svg id="main" version="1.1" xmlns="http://www.w3.org/2000/svg" xmlns:xlink="http://www.w3.org/1999/xlink" xml:space="preserve" onload="init(evt)">
<style type="text/css"><![CDATA[
.edge:hover path { stroke: red; }
.edge:hover polygon { stroke: red; fill: red; }
]]></style>
<script type="text/javascript"><![CDATA[
var edges = document.getElementsByTagName('g');
if (edges && edges.length) {
  for (var i=0;i<edges.length;i++) {
    if (edges[i].id.substr(0,4)=='edge') {
      edges[i].setAttribute('class','edge');
    }
  }
}
]]></script>
        <defs>
                <circle id="rim" cx="0" cy="0" r="7"/>
                <circle id="rim2" cx="0" cy="0" r="3.5"/>
                <g id="zoomPlus">
                        <use xlink:href="#rim" fill="#404040">
                                <set attributeName="fill" to="#808080" begin="zoomplus.mouseover" end="zoomplus.mouseout"/>
                        </use>
                        <path d="M-4,0h8M0,-4v8" fill="none" stroke="white" stroke-width="1.5" pointer-events="none"/>
                </g>
                <g id="zoomMin">
                        <use xlink:href="#rim" fill="#404040">
                                <set attributeName="fill" to="#808080" begin="zoomminus.mouseover" end="zoomminus.mouseout"/>
                        </use>
                        <path d="M-4,0h8" fill="none" stroke="white" stroke-width="1.5" pointer-events="none"/>
                </g>
                <g id="dirArrow">
                        <path fill="none" stroke="white" stroke-width="1.5" d="M0,-3.0v7 M-2.5,-0.5L0,-3.0L2.5,-0.5"/>
                </g>
               <g id="resetDef">
                       <use xlink:href="#rim2" fill="#404040">
                               <set attributeName="fill" to="#808080" begin="reset.mouseover" end="reset.mouseout"/>
                       </use>
               </g>
        </defs>

<script type="text/javascript">
var viewWidth = 698;
var viewHeight = 127;
var sectionId = 'dynsection-13';
</script>
<script xlink:href="../../svgpan.js"/>
<svg id="graph" class="graph">
<g id="viewport">
<title>Obj::CSkaterLocalNetLogicComponent::GetSkater</title>
<polygon fill="white" stroke="none" points="-4,4 -4,-123 694,-123 694,4 -4,4"/>
<!-- Node1 -->
<g id="node1" class="node"><title>Node1</title>
<g id="a_node1"><a xlink:title=" ">
<polygon fill="#bfbfbf" stroke="black" points="556,-44.5 556,-74.5 690,-74.5 690,-44.5 556,-44.5"/>
<text text-anchor="start" x="564" y="-62.5" font-family="Helvetica,sans-Serif" font-size="10.00">Obj::CSkaterLocalNetLogic</text>
<text text-anchor="middle" x="623" y="-51.5" font-family="Helvetica,sans-Serif" font-size="10.00">Component::GetSkater</text>
</a>
</g>
</g>
<!-- Node2 -->
<g id="node2" class="node"><title>Node2</title>
<g id="a_node2"><a xlink:href="../../de/ddf/class_obj_1_1_c_skater_local_net_logic_component.html#a1c1f78837111c089e5930ae000135b07" target="_top" xlink:title=" ">
<polygon fill="white" stroke="black" points="373.5,-88.5 373.5,-118.5 519.5,-118.5 519.5,-88.5 373.5,-88.5"/>
<text text-anchor="start" x="381.5" y="-106.5" font-family="Helvetica,sans-Serif" font-size="10.00">Obj::CSkaterLocalNetLogic</text>
<text text-anchor="middle" x="446.5" y="-95.5" font-family="Helvetica,sans-Serif" font-size="10.00">Component::get_update_flags</text>
</a>
</g>
</g>
<!-- Node1&#45;&gt;Node2 -->
<g id="edge1" class="edge"><title>Node1&#45;&gt;Node2</title>
<path fill="none" stroke="midnightblue" d="M552.654,-76.9855C537.577,-80.7873 521.754,-84.777 507.093,-88.4738"/>
<polygon fill="midnightblue" stroke="midnightblue" points="553.594,-80.3581 562.435,-74.5192 551.883,-73.5705 553.594,-80.3581"/>
</g>
<!-- Node3 -->
<g id="node3" class="node"><title>Node3</title>
<g id="a_node3"><a xlink:href="../../de/ddf/class_obj_1_1_c_skater_local_net_logic_component.html#a4a8b7502e23950e3a18516e7a269239a" target="_top" xlink:title=" ">
<polygon fill="white" stroke="black" points="183.5,-68.5 183.5,-98.5 323.5,-98.5 323.5,-68.5 183.5,-68.5"/>
<text text-anchor="start" x="191.5" y="-86.5" font-family="Helvetica,sans-Serif" font-size="10.00">Obj::CSkaterLocalNetLogic</text>
<text text-anchor="middle" x="253.5" y="-75.5" font-family="Helvetica,sans-Serif" font-size="10.00">Component::network_update</text>
</a>
</g>
</g>
<!-- Node1&#45;&gt;Node3 -->
<g id="edge6" class="edge"><title>Node1&#45;&gt;Node3</title>
<path fill="none" stroke="midnightblue" d="M545.62,-64.4881C480.179,-68.7618 386.75,-74.8633 323.526,-78.9922"/>
<polygon fill="midnightblue" stroke="midnightblue" points="546.123,-67.9628 555.874,-63.8184 545.667,-60.9776 546.123,-67.9628"/>
</g>
<!-- Node5 -->
<g id="node5" class="node"><title>Node5</title>
<g id="a_node5"><a xlink:href="../../de/ddf/class_obj_1_1_c_skater_local_net_logic_component.html#ac9901124a1d31482d15bb72c0965c661" target="_top" xlink:title=" ">
<polygon fill="white" stroke="black" points="373,-0.5 373,-30.5 520,-30.5 520,-0.5 373,-0.5"/>
<text text-anchor="start" x="381" y="-18.5" font-family="Helvetica,sans-Serif" font-size="10.00">Obj::CSkaterLocalNetLogic</text>
<text text-anchor="middle" x="446.5" y="-7.5" font-family="Helvetica,sans-Serif" font-size="10.00">Component::InitFromStructure</text>
</a>
</g>
</g>
<!-- Node1&#45;&gt;Node5 -->
<g id="edge4" class="edge"><title>Node1&#45;&gt;Node5</title>
<path fill="none" stroke="midnightblue" d="M552.654,-42.0145C537.577,-38.2127 521.754,-34.223 507.093,-30.5262"/>
<polygon fill="midnightblue" stroke="midnightblue" points="551.883,-45.4295 562.435,-44.4808 553.594,-38.6419 551.883,-45.4295"/>
</g>
<!-- Node2&#45;&gt;Node3 -->
<g id="edge2" class="edge"><title>Node2&#45;&gt;Node3</title>
<path fill="none" stroke="midnightblue" d="M363.276,-94.8901C350.068,-93.5071 336.515,-92.088 323.654,-90.7412"/>
<polygon fill="midnightblue" stroke="midnightblue" points="362.981,-98.3783 373.291,-95.9389 363.71,-91.4164 362.981,-98.3783"/>
</g>
<!-- Node4 -->
<g id="node4" class="node"><title>Node4</title>
<g id="a_node4"><a xlink:href="../../de/ddf/class_obj_1_1_c_skater_local_net_logic_component.html#a13d2a350f21704fbe1b772d27cd4cb6f" target="_top" xlink:title=" ">
<polygon fill="white" stroke="black" points="0,-68.5 0,-98.5 134,-98.5 134,-68.5 0,-68.5"/>
<text text-anchor="start" x="8" y="-86.5" font-family="Helvetica,sans-Serif" font-size="10.00">Obj::CSkaterLocalNetLogic</text>
<text text-anchor="middle" x="67" y="-75.5" font-family="Helvetica,sans-Serif" font-size="10.00">Component::Update</text>
</a>
</g>
</g>
<!-- Node3&#45;&gt;Node4 -->
<g id="edge3" class="edge"><title>Node3&#45;&gt;Node4</title>
<path fill="none" stroke="midnightblue" d="M173.003,-83.5C160.079,-83.5 146.815,-83.5 134.251,-83.5"/>
<polygon fill="midnightblue" stroke="midnightblue" points="173.274,-87.0001 183.274,-83.5 173.274,-80.0001 173.274,-87.0001"/>
</g>
<!-- Node6 -->
<g id="node6" class="node"><title>Node6</title>
<g id="a_node6"><a xlink:href="../../de/ddf/class_obj_1_1_c_skater_local_net_logic_component.html#a0329dc5d9a6dbfa3eaa4dbf1b10c9836" target="_top" xlink:title=" ">
<polygon fill="white" stroke="black" points="170,-0.5 170,-30.5 337,-30.5 337,-0.5 170,-0.5"/>
<text text-anchor="start" x="178" y="-18.5" font-family="Helvetica,sans-Serif" font-size="10.00">Obj::CSkaterLocalNetLogic</text>
<text text-anchor="middle" x="253.5" y="-7.5" font-family="Helvetica,sans-Serif" font-size="10.00">Component::RefreshFromStructure</text>
</a>
</g>
</g>
<!-- Node5&#45;&gt;Node6 -->
<g id="edge5" class="edge"><title>Node5&#45;&gt;Node6</title>
<path fill="none" stroke="midnightblue" d="M362.589,-15.5C354.193,-15.5 345.665,-15.5 337.271,-15.5"/>
<polygon fill="midnightblue" stroke="midnightblue" points="362.746,-19.0001 372.746,-15.5 362.746,-12.0001 362.746,-19.0001"/>
</g>
</g>
</svg>
        <g id="navigator" transform="translate(0 0)" fill="#404254">
                <rect fill="#f2f5e9" fill-opacity="0.5" stroke="#606060" stroke-width=".5" x="0" y="0" width="60" height="60"/>
                <use id="zoomplus" xlink:href="#zoomPlus" x="17" y="9" onmousedown="handleZoom(evt,'in')"/>
                <use id="zoomminus" xlink:href="#zoomMin" x="42" y="9" onmousedown="handleZoom(evt,'out')"/>
                <use id="reset" xlink:href="#resetDef" x="30" y="36" onmousedown="handleReset()"/>
                <g id="arrowUp" xlink:href="#dirArrow" transform="translate(30 24)" onmousedown="handlePan(0,-1)">
                  <use xlink:href="#rim" fill="#404040">
                        <set attributeName="fill" to="#808080" begin="arrowUp.mouseover" end="arrowUp.mouseout"/>
                  </use>
                  <path fill="none" stroke="white" stroke-width="1.5" d="M0,-3.0v7 M-2.5,-0.5L0,-3.0L2.5,-0.5"/>
                </g>
                <g id="arrowRight" xlink:href="#dirArrow" transform="rotate(90) translate(36 -43)" onmousedown="handlePan(1,0)">
                  <use xlink:href="#rim" fill="#404040">
                        <set attributeName="fill" to="#808080" begin="arrowRight.mouseover" end="arrowRight.mouseout"/>
                  </use>
                  <path fill="none" stroke="white" stroke-width="1.5" d="M0,-3.0v7 M-2.5,-0.5L0,-3.0L2.5,-0.5"/>
                </g>
                <g id="arrowDown" xlink:href="#dirArrow" transform="rotate(180) translate(-30 -48)" onmousedown="handlePan(0,1)">
                  <use xlink:href="#rim" fill="#404040">
                        <set attributeName="fill" to="#808080" begin="arrowDown.mouseover" end="arrowDown.mouseout"/>
                  </use>
                  <path fill="none" stroke="white" stroke-width="1.5" d="M0,-3.0v7 M-2.5,-0.5L0,-3.0L2.5,-0.5"/>
                </g>
                <g id="arrowLeft" xlink:href="#dirArrow" transform="rotate(270) translate(-36 17)" onmousedown="handlePan(-1,0)">
                  <use xlink:href="#rim" fill="#404040">
                        <set attributeName="fill" to="#808080" begin="arrowLeft.mouseover" end="arrowLeft.mouseout"/>
                  </use>
                  <path fill="none" stroke="white" stroke-width="1.5" d="M0,-3.0v7 M-2.5,-0.5L0,-3.0L2.5,-0.5"/>
                </g>
        </g>
        <svg viewBox="0 0 15 15" width="100%" height="30px" preserveAspectRatio="xMaxYMin meet">
         <g id="arrow_out" transform="scale(0.3 0.3)">
          <a xlink:href="class_obj_1_1_c_skater_local_net_logic_component_a946f896b1258a39c00f0f326a7a8945b_icgraph_org.svg" target="_base">
           <rect id="button" ry="5" rx="5" y="6" x="6" height="38" width="38"
                fill="#f2f5e9" fill-opacity="0.5" stroke="#606060" stroke-width="1.0"/>
           <path id="arrow"
             d="M 11.500037,31.436501 C 11.940474,20.09759 22.043105,11.32322 32.158766,21.979434 L 37.068811,17.246167 C 37.068811,17.246167 37.088388,32 37.088388,32 L 22.160133,31.978069 C 22.160133,31.978069 26.997745,27.140456 26.997745,27.140456 C 18.528582,18.264221 13.291696,25.230495 11.500037,31.436501 z"
             style="fill:#404040;"/>
          </a>
         </g>
        </svg>
</svg>
