<?xml version="1.0" encoding="UTF-8" standalone="no"?>
<!DOCTYPE svg PUBLIC "-//W3C//DTD SVG 1.1//EN"
 "http://www.w3.org/Graphics/SVG/1.1/DTD/svg11.dtd">
<!-- Generated by graphviz version 2.38.0 (20140413.2041)
 -->
<!-- Title: Game::CGoalManager::RunLastStageScript Pages: 1 -->
<svg width="1722pt" height="581pt"
 viewBox="0.00 0.00 1722.00 581.00" xmlns="http://www.w3.org/2000/svg" xmlns:xlink="http://www.w3.org/1999/xlink">
<g id="graph0" class="graph" transform="scale(1 1) rotate(0) translate(4 577)">
<title>Game::CGoalManager::RunLastStageScript</title>
<polygon fill="white" stroke="none" points="-4,4 -4,-577 1718,-577 1718,4 -4,4"/>
<!-- Node1 -->
<g id="node1" class="node"><title>Node1</title>
<g id="a_node1"><a xlink:title=" ">
<polygon fill="#bfbfbf" stroke="black" points="0,-147 0,-177 113,-177 113,-147 0,-147"/>
<text text-anchor="start" x="8" y="-165" font-family="Helvetica,sans-Serif" font-size="10.00">Game::CGoalManager</text>
<text text-anchor="middle" x="56.5" y="-154" font-family="Helvetica,sans-Serif" font-size="10.00">::RunLastStageScript</text>
</a>
</g>
</g>
<!-- Node2 -->
<g id="node2" class="node"><title>Node2</title>
<g id="a_node2"><a xlink:href="../../d0/d0b/class_script_1_1_c_array.html#a4645418616142b2a40757bcd8f15e02d" target="_top" xlink:title=" ">
<polygon fill="white" stroke="black" points="333.5,-190.5 333.5,-209.5 456.5,-209.5 456.5,-190.5 333.5,-190.5"/>
<text text-anchor="middle" x="395" y="-197.5" font-family="Helvetica,sans-Serif" font-size="10.00">Script::CArray::GetArray</text>
</a>
</g>
</g>
<!-- Node1&#45;&gt;Node2 -->
<g id="edge1" class="edge"><title>Node1&#45;&gt;Node2</title>
<path fill="none" stroke="midnightblue" d="M113.078,-170.997C124.918,-172.775 137.36,-174.54 149,-176 207.594,-183.347 274.309,-189.755 323.31,-194.097"/>
<polygon fill="midnightblue" stroke="midnightblue" points="323.22,-197.602 333.488,-194.991 323.833,-190.629 323.22,-197.602"/>
</g>
<!-- Node4 -->
<g id="node4" class="node"><title>Node4</title>
<g id="a_node4"><a xlink:href="../../d1/d54/namespace_script.html#aacb275494688d5b51c565c932f27f76c" target="_top" xlink:title=" ">
<polygon fill="white" stroke="black" points="916,-228.5 916,-247.5 1003,-247.5 1003,-228.5 916,-228.5"/>
<text text-anchor="middle" x="959.5" y="-235.5" font-family="Helvetica,sans-Serif" font-size="10.00">Script::GetArray</text>
</a>
</g>
</g>
<!-- Node1&#45;&gt;Node4 -->
<g id="edge3" class="edge"><title>Node1&#45;&gt;Node4</title>
<path fill="none" stroke="midnightblue" d="M90.8101,-177.087C107.909,-184.319 129.248,-192.569 149,-198 255.382,-227.252 283.669,-238 394,-238 394,-238 394,-238 582,-238 697.412,-238 832.724,-238 905.584,-238"/>
<polygon fill="midnightblue" stroke="midnightblue" points="905.871,-241.5 915.871,-238 905.871,-234.5 905.871,-241.5"/>
</g>
<!-- Node11 -->
<g id="node11" class="node"><title>Node11</title>
<g id="a_node11"><a xlink:href="../../d2/df7/class_script_1_1_c_struct.html#aa39e6fe5fdf1d6c48136ae26a7ad511e" target="_top" xlink:title=" ">
<polygon fill="white" stroke="black" points="885,-535.5 885,-554.5 1034,-554.5 1034,-535.5 885,-535.5"/>
<text text-anchor="middle" x="959.5" y="-542.5" font-family="Helvetica,sans-Serif" font-size="10.00">Script::CStruct::GetChecksum</text>
</a>
</g>
</g>
<!-- Node1&#45;&gt;Node11 -->
<g id="edge12" class="edge"><title>Node1&#45;&gt;Node11</title>
<path fill="none" stroke="midnightblue" d="M60.4499,-177.075C68.6562,-215.904 94.8021,-321.116 149,-390 228.674,-491.264 265.149,-545 394,-545 394,-545 394,-545 582,-545 682.715,-545 798.585,-545 874.881,-545"/>
<polygon fill="midnightblue" stroke="midnightblue" points="874.914,-548.5 884.914,-545 874.914,-541.5 874.914,-548.5"/>
</g>
<!-- Node13 -->
<g id="node13" class="node"><title>Node13</title>
<g id="a_node13"><a xlink:href="../../d6/df1/class_mdl_1_1_skate.html#a5a90b89a9816fe8fc4e8083510f22d3e" target="_top" xlink:title=" ">
<polygon fill="white" stroke="black" points="150,-114.5 150,-133.5 286,-133.5 286,-114.5 150,-114.5"/>
<text text-anchor="middle" x="218" y="-121.5" font-family="Helvetica,sans-Serif" font-size="10.00">Mdl::Skate::GetGameMode</text>
</a>
</g>
</g>
<!-- Node1&#45;&gt;Node13 -->
<g id="edge17" class="edge"><title>Node1&#45;&gt;Node13</title>
<path fill="none" stroke="midnightblue" d="M113.285,-148.709C130.858,-144.523 150.142,-139.929 167.264,-135.849"/>
<polygon fill="midnightblue" stroke="midnightblue" points="168.15,-139.236 177.067,-133.514 166.528,-132.427 168.15,-139.236"/>
</g>
<!-- Node14 -->
<g id="node14" class="node"><title>Node14</title>
<g id="a_node14"><a xlink:href="../../d0/d0b/class_script_1_1_c_array.html#a71c761bdce14193b10bf3c88372ba5a0" target="_top" xlink:title=" ">
<polygon fill="white" stroke="black" points="158.5,-76.5 158.5,-95.5 277.5,-95.5 277.5,-76.5 158.5,-76.5"/>
<text text-anchor="middle" x="218" y="-83.5" font-family="Helvetica,sans-Serif" font-size="10.00">Script::CArray::GetSize</text>
</a>
</g>
</g>
<!-- Node1&#45;&gt;Node14 -->
<g id="edge18" class="edge"><title>Node1&#45;&gt;Node14</title>
<path fill="none" stroke="midnightblue" d="M77.9985,-146.847C95.9491,-134.174 123.136,-116.389 149,-105 154.39,-102.627 160.152,-100.475 165.957,-98.545"/>
<polygon fill="midnightblue" stroke="midnightblue" points="167.201,-101.823 175.708,-95.507 165.119,-95.1401 167.201,-101.823"/>
</g>
<!-- Node15 -->
<g id="node15" class="node"><title>Node15</title>
<g id="a_node15"><a xlink:href="../../d0/d0b/class_script_1_1_c_array.html#af335b83cb06ac2934f891089c295bdf9" target="_top" xlink:title=" ">
<polygon fill="white" stroke="black" points="511,-152.5 511,-171.5 651,-171.5 651,-152.5 511,-152.5"/>
<text text-anchor="middle" x="581" y="-159.5" font-family="Helvetica,sans-Serif" font-size="10.00">Script::CArray::GetStructure</text>
</a>
</g>
</g>
<!-- Node1&#45;&gt;Node15 -->
<g id="edge19" class="edge"><title>Node1&#45;&gt;Node15</title>
<path fill="none" stroke="midnightblue" d="M113.417,-162C206.632,-162 394.065,-162 500.821,-162"/>
<polygon fill="midnightblue" stroke="midnightblue" points="500.894,-165.5 510.894,-162 500.894,-158.5 500.894,-165.5"/>
</g>
<!-- Node16 -->
<g id="node16" class="node"><title>Node16</title>
<g id="a_node16"><a xlink:href="../../d0/d0b/class_script_1_1_c_array.html#a68067b67ca9aae7b9214c0add1d8934e" target="_top" xlink:title=" ">
<polygon fill="white" stroke="black" points="157.5,-38.5 157.5,-57.5 278.5,-57.5 278.5,-38.5 157.5,-38.5"/>
<text text-anchor="middle" x="218" y="-45.5" font-family="Helvetica,sans-Serif" font-size="10.00">Script::CArray::GetType</text>
</a>
</g>
</g>
<!-- Node1&#45;&gt;Node16 -->
<g id="edge21" class="edge"><title>Node1&#45;&gt;Node16</title>
<path fill="none" stroke="midnightblue" d="M68.0604,-146.736C83.4379,-125.663 114.004,-87.8973 149,-67 152.611,-64.8437 156.476,-62.924 160.461,-61.2164"/>
<polygon fill="midnightblue" stroke="midnightblue" points="161.824,-64.4426 169.917,-57.605 159.327,-57.9032 161.824,-64.4426"/>
</g>
<!-- Node17 -->
<g id="node17" class="node"><title>Node17</title>
<g id="a_node17"><a xlink:href="../../d0/d21/class_game_1_1_c_game_mode.html#ad0a85ed66f51e3a6abe16416a0e11482" target="_top" xlink:title=" ">
<polygon fill="white" stroke="black" points="149,-0.5 149,-19.5 287,-19.5 287,-0.5 149,-0.5"/>
<text text-anchor="middle" x="218" y="-7.5" font-family="Helvetica,sans-Serif" font-size="10.00">Game::CGameMode::IsTrue</text>
</a>
</g>
</g>
<!-- Node1&#45;&gt;Node17 -->
<g id="edge22" class="edge"><title>Node1&#45;&gt;Node17</title>
<path fill="none" stroke="midnightblue" d="M63.7767,-146.65C75.9467,-118.837 105.442,-60.1178 149,-29 151.693,-27.0761 154.574,-25.3467 157.574,-23.7922"/>
<polygon fill="midnightblue" stroke="midnightblue" points="159.165,-26.915 166.861,-19.6334 156.304,-20.5264 159.165,-26.915"/>
</g>
<!-- Node18 -->
<g id="node18" class="node"><title>Node18</title>
<g id="a_node18"><a xlink:href="../../d1/d54/namespace_script.html#abd06bad9c984b4ce132ede5d223e20f9" target="_top" xlink:title=" ">
<polygon fill="white" stroke="black" points="166.5,-361.5 166.5,-380.5 269.5,-380.5 269.5,-361.5 166.5,-361.5"/>
<text text-anchor="middle" x="218" y="-368.5" font-family="Helvetica,sans-Serif" font-size="10.00">Script::SpawnScript</text>
</a>
</g>
</g>
<!-- Node1&#45;&gt;Node18 -->
<g id="edge23" class="edge"><title>Node1&#45;&gt;Node18</title>
<path fill="none" stroke="midnightblue" d="M68.9708,-177.031C97.6587,-214.622 172.425,-312.592 203.328,-353.084"/>
<polygon fill="midnightblue" stroke="midnightblue" points="200.698,-355.408 209.547,-361.235 206.263,-351.162 200.698,-355.408"/>
</g>
<!-- Node3 -->
<g id="node3" class="node"><title>Node3</title>
<g id="a_node3"><a xlink:href="../../d1/d54/namespace_script.html#af32f99ba26ca0f255240413a4e23a754" target="_top" xlink:title=" ">
<polygon fill="white" stroke="black" points="1070,-190.5 1070,-209.5 1180,-209.5 1180,-190.5 1070,-190.5"/>
<text text-anchor="middle" x="1125" y="-197.5" font-family="Helvetica,sans-Serif" font-size="10.00">Script::GetTypeName</text>
</a>
</g>
</g>
<!-- Node2&#45;&gt;Node3 -->
<g id="edge2" class="edge"><title>Node2&#45;&gt;Node3</title>
<path fill="none" stroke="midnightblue" d="M456.505,-200C592.316,-200 920.384,-200 1059.7,-200"/>
<polygon fill="midnightblue" stroke="midnightblue" points="1059.8,-203.5 1069.8,-200 1059.8,-196.5 1059.8,-203.5"/>
</g>
<!-- Node4&#45;&gt;Node3 -->
<g id="edge8" class="edge"><title>Node4&#45;&gt;Node3</title>
<path fill="none" stroke="midnightblue" d="M1001.76,-228.411C1023.43,-223.374 1050.18,-217.156 1073.13,-211.823"/>
<polygon fill="midnightblue" stroke="midnightblue" points="1074.09,-215.193 1083.04,-209.52 1072.51,-208.375 1074.09,-215.193"/>
</g>
<!-- Node5 -->
<g id="node5" class="node"><title>Node5</title>
<g id="a_node5"><a xlink:href="../../d1/d54/namespace_script.html#ae80ed69ea4edcbcbbbd4985a6efdcd6e" target="_top" xlink:title=" ">
<polygon fill="white" stroke="black" points="1216,-304.5 1216,-323.5 1355,-323.5 1355,-304.5 1216,-304.5"/>
<text text-anchor="middle" x="1285.5" y="-311.5" font-family="Helvetica,sans-Serif" font-size="10.00">Script::FindChecksumName</text>
</a>
</g>
</g>
<!-- Node4&#45;&gt;Node5 -->
<g id="edge4" class="edge"><title>Node4&#45;&gt;Node5</title>
<path fill="none" stroke="midnightblue" d="M1003.03,-238.249C1047.89,-239.522 1120.22,-244.466 1180,-262 1209.34,-270.606 1240.4,-287.133 1260.96,-299.253"/>
<polygon fill="midnightblue" stroke="midnightblue" points="1259.25,-302.308 1269.62,-304.467 1262.86,-296.311 1259.25,-302.308"/>
</g>
<!-- Node9 -->
<g id="node9" class="node"><title>Node9</title>
<g id="a_node9"><a xlink:href="../../d1/d54/namespace_script.html#a43181580ea5d38e4bf1aa19ccd5e9e85" target="_top" xlink:title=" ">
<polygon fill="white" stroke="black" points="1084,-342.5 1084,-361.5 1166,-361.5 1166,-342.5 1084,-342.5"/>
<text text-anchor="middle" x="1125" y="-349.5" font-family="Helvetica,sans-Serif" font-size="10.00">Script::Resolve</text>
</a>
</g>
</g>
<!-- Node4&#45;&gt;Node9 -->
<g id="edge9" class="edge"><title>Node4&#45;&gt;Node9</title>
<path fill="none" stroke="midnightblue" d="M974.159,-247.523C1002.34,-267.173 1067.17,-312.373 1101.58,-336.37"/>
<polygon fill="midnightblue" stroke="midnightblue" points="1099.83,-339.413 1110.03,-342.262 1103.83,-333.671 1099.83,-339.413"/>
</g>
<!-- Node6 -->
<g id="node6" class="node"><title>Node6</title>
<g id="a_node6"><a xlink:href="../../d1/d54/namespace_script.html#a5cc52c4ff5ea5bb27681d819212dfdca" target="_top" xlink:title=" ">
<polygon fill="white" stroke="black" points="1391,-323.5 1391,-342.5 1554,-342.5 1554,-323.5 1391,-323.5"/>
<text text-anchor="middle" x="1472.5" y="-330.5" font-family="Helvetica,sans-Serif" font-size="10.00">Script::FindChecksumNameNULL</text>
</a>
</g>
</g>
<!-- Node5&#45;&gt;Node6 -->
<g id="edge5" class="edge"><title>Node5&#45;&gt;Node6</title>
<path fill="none" stroke="midnightblue" d="M1355.12,-321.048C1363.48,-321.906 1372.11,-322.792 1380.72,-323.676"/>
<polygon fill="midnightblue" stroke="midnightblue" points="1380.49,-327.172 1390.8,-324.712 1381.21,-320.208 1380.49,-327.172"/>
</g>
<!-- Node8 -->
<g id="node8" class="node"><title>Node8</title>
<g id="a_node8"><a xlink:href="../../da/d37/namespace_dbg.html#ab406a8cc16de5046c7d9fd09c9de5e22" target="_top" xlink:title=" ">
<polygon fill="white" stroke="black" points="1439.5,-285.5 1439.5,-304.5 1505.5,-304.5 1505.5,-285.5 1439.5,-285.5"/>
<text text-anchor="middle" x="1472.5" y="-292.5" font-family="Helvetica,sans-Serif" font-size="10.00">Dbg::sprintf</text>
</a>
</g>
</g>
<!-- Node5&#45;&gt;Node8 -->
<g id="edge7" class="edge"><title>Node5&#45;&gt;Node8</title>
<path fill="none" stroke="midnightblue" d="M1355.12,-306.952C1379.98,-304.399 1407.31,-301.593 1429.23,-299.341"/>
<polygon fill="midnightblue" stroke="midnightblue" points="1429.62,-302.82 1439.21,-298.317 1428.9,-295.857 1429.62,-302.82"/>
</g>
<!-- Node7 -->
<g id="node7" class="node"><title>Node7</title>
<g id="a_node7"><a xlink:href="../../d0/d31/namespace_config.html#a709cc81780d49900157e3476b63aa25d" target="_top" xlink:title=" ">
<polygon fill="white" stroke="black" points="1590,-323.5 1590,-342.5 1714,-342.5 1714,-323.5 1590,-323.5"/>
<text text-anchor="middle" x="1652" y="-330.5" font-family="Helvetica,sans-Serif" font-size="10.00">Config::GotExtraMemory</text>
</a>
</g>
</g>
<!-- Node6&#45;&gt;Node7 -->
<g id="edge6" class="edge"><title>Node6&#45;&gt;Node7</title>
<path fill="none" stroke="midnightblue" d="M1554.2,-333C1562.73,-333 1571.36,-333 1579.77,-333"/>
<polygon fill="midnightblue" stroke="midnightblue" points="1579.9,-336.5 1589.9,-333 1579.9,-329.5 1579.9,-336.5"/>
</g>
<!-- Node9&#45;&gt;Node5 -->
<g id="edge10" class="edge"><title>Node9&#45;&gt;Node5</title>
<path fill="none" stroke="midnightblue" d="M1166,-342.411C1186.91,-337.396 1212.71,-331.212 1234.89,-325.895"/>
<polygon fill="midnightblue" stroke="midnightblue" points="1235.88,-329.255 1244.79,-323.52 1234.25,-322.448 1235.88,-329.255"/>
</g>
<!-- Node10 -->
<g id="node10" class="node"><title>Node10</title>
<g id="a_node10"><a xlink:href="../../d1/d54/namespace_script.html#af293a36c230b10de7d8151c2990b233b" target="_top" xlink:title=" ">
<polygon fill="white" stroke="black" points="1228.5,-342.5 1228.5,-361.5 1342.5,-361.5 1342.5,-342.5 1228.5,-342.5"/>
<text text-anchor="middle" x="1285.5" y="-349.5" font-family="Helvetica,sans-Serif" font-size="10.00">Script::LookUpSymbol</text>
</a>
</g>
</g>
<!-- Node9&#45;&gt;Node10 -->
<g id="edge11" class="edge"><title>Node9&#45;&gt;Node10</title>
<path fill="none" stroke="midnightblue" d="M1166.41,-352C1182.12,-352 1200.55,-352 1218.11,-352"/>
<polygon fill="midnightblue" stroke="midnightblue" points="1218.32,-355.5 1228.32,-352 1218.32,-348.5 1218.32,-355.5"/>
</g>
<!-- Node11&#45;&gt;Node5 -->
<g id="edge13" class="edge"><title>Node11&#45;&gt;Node5</title>
<path fill="none" stroke="midnightblue" d="M1000.57,-554.556C1049.4,-563.611 1131.4,-570.056 1180,-526 1244.65,-467.398 1157.01,-397.3 1216,-333 1217.2,-331.687 1218.49,-330.462 1219.85,-329.318"/>
<polygon fill="midnightblue" stroke="midnightblue" points="1221.94,-332.124 1228.27,-323.626 1218.03,-326.324 1221.94,-332.124"/>
</g>
<!-- Node11&#45;&gt;Node9 -->
<g id="edge16" class="edge"><title>Node11&#45;&gt;Node9</title>
<path fill="none" stroke="midnightblue" d="M1007.98,-535.402C1017.29,-531.961 1026.5,-527.302 1034,-521 1082.47,-480.299 1108.62,-406.659 1118.85,-371.589"/>
<polygon fill="midnightblue" stroke="midnightblue" points="1122.3,-372.221 1121.61,-361.649 1115.56,-370.344 1122.3,-372.221"/>
</g>
<!-- Node11&#45;&gt;Node11 -->
<g id="edge14" class="edge"><title>Node11&#45;&gt;Node11</title>
<path fill="none" stroke="midnightblue" d="M934.223,-554.757C921.926,-563.565 930.352,-573 959.5,-573 979.084,-573 989.314,-568.741 990.189,-563.275"/>
<polygon fill="midnightblue" stroke="midnightblue" points="993.094,-561.321 984.777,-554.757 987.186,-565.075 993.094,-561.321"/>
</g>
<!-- Node12 -->
<g id="node12" class="node"><title>Node12</title>
<g id="a_node12"><a xlink:href="../../d1/d54/namespace_script.html#a0d003ee93577e31adb6597bce0002009" target="_top" xlink:title=" ">
<polygon fill="white" stroke="black" points="1071.5,-497.5 1071.5,-516.5 1178.5,-516.5 1178.5,-497.5 1071.5,-497.5"/>
<text text-anchor="middle" x="1125" y="-504.5" font-family="Helvetica,sans-Serif" font-size="10.00">Script::PrintContents</text>
</a>
</g>
</g>
<!-- Node11&#45;&gt;Node12 -->
<g id="edge15" class="edge"><title>Node11&#45;&gt;Node12</title>
<path fill="none" stroke="midnightblue" d="M1001.76,-535.411C1023.43,-530.374 1050.18,-524.156 1073.13,-518.823"/>
<polygon fill="midnightblue" stroke="midnightblue" points="1074.09,-522.193 1083.04,-516.52 1072.51,-515.375 1074.09,-522.193"/>
</g>
<!-- Node15&#45;&gt;Node3 -->
<g id="edge20" class="edge"><title>Node15&#45;&gt;Node3</title>
<path fill="none" stroke="midnightblue" d="M651.089,-163.495C739.9,-165.916 898.782,-171.93 1034,-186 1042.37,-186.87 1051.14,-187.984 1059.79,-189.201"/>
<polygon fill="midnightblue" stroke="midnightblue" points="1059.46,-192.689 1069.86,-190.669 1060.47,-185.763 1059.46,-192.689"/>
</g>
<!-- Node18&#45;&gt;Node5 -->
<g id="edge24" class="edge"><title>Node18&#45;&gt;Node5</title>
<path fill="none" stroke="midnightblue" d="M228.222,-361.375C245.15,-344.427 283.122,-309.667 323,-295 430.494,-255.464 465.466,-276 580,-276 580,-276 580,-276 960.5,-276 1053.1,-276 1159.58,-291.501 1224.44,-302.702"/>
<polygon fill="midnightblue" stroke="midnightblue" points="1224.03,-306.184 1234.48,-304.46 1225.24,-299.288 1224.03,-306.184"/>
</g>
<!-- Node18&#45;&gt;Node9 -->
<g id="edge36" class="edge"><title>Node18&#45;&gt;Node9</title>
<path fill="none" stroke="midnightblue" d="M224.256,-380.542C237.41,-403.354 274.228,-460.938 323,-485 425.809,-535.721 465.36,-507 580,-507 580,-507 580,-507 773,-507 909.649,-507 1052.67,-407.477 1104.12,-367.927"/>
<polygon fill="midnightblue" stroke="midnightblue" points="1106.38,-370.606 1112.11,-361.696 1102.07,-365.086 1106.38,-370.606"/>
</g>
<!-- Node19 -->
<g id="node19" class="node"><title>Node19</title>
<g id="a_node19"><a xlink:href="../../d2/d8e/class_game_net_1_1_manager.html#a9ff830a0ca3ff518a45fbc51606b8cf3" target="_top" xlink:title=" ">
<polygon fill="white" stroke="black" points="503,-333.5 503,-352.5 659,-352.5 659,-333.5 503,-333.5"/>
<text text-anchor="middle" x="581" y="-340.5" font-family="Helvetica,sans-Serif" font-size="10.00">GameNet::Manager::InNetGame</text>
</a>
</g>
</g>
<!-- Node18&#45;&gt;Node19 -->
<g id="edge25" class="edge"><title>Node18&#45;&gt;Node19</title>
<path fill="none" stroke="midnightblue" d="M269.569,-374.603C319.842,-377.339 399.055,-379.364 467,-371 483.369,-368.985 486.994,-365.976 503,-362 512.127,-359.733 521.864,-357.324 531.236,-355.009"/>
<polygon fill="midnightblue" stroke="midnightblue" points="532.347,-358.34 541.217,-352.545 530.67,-351.544 532.347,-358.34"/>
</g>
<!-- Node25 -->
<g id="node25" class="node"><title>Node25</title>
<g id="a_node25"><a xlink:href="../../d2/d0a/class_mem_1_1_manager.html#a7c4cba14870f002aee0243e16114f443" target="_top" xlink:title=" ">
<polygon fill="white" stroke="black" points="325.5,-342.5 325.5,-361.5 464.5,-361.5 464.5,-342.5 325.5,-342.5"/>
<text text-anchor="middle" x="395" y="-349.5" font-family="Helvetica,sans-Serif" font-size="10.00">Mem::Manager::PopContext</text>
</a>
</g>
</g>
<!-- Node18&#45;&gt;Node25 -->
<g id="edge34" class="edge"><title>Node18&#45;&gt;Node25</title>
<path fill="none" stroke="midnightblue" d="M269.617,-365.504C283.86,-363.958 299.699,-362.238 315.172,-360.558"/>
<polygon fill="midnightblue" stroke="midnightblue" points="315.703,-364.021 325.267,-359.462 314.948,-357.062 315.703,-364.021"/>
</g>
<!-- Node26 -->
<g id="node26" class="node"><title>Node26</title>
<g id="a_node26"><a xlink:href="../../d2/d0a/class_mem_1_1_manager.html#aaf8e36abc36eecabe46bf2582035192a" target="_top" xlink:title=" ">
<polygon fill="white" stroke="black" points="323,-304.5 323,-323.5 467,-323.5 467,-304.5 323,-304.5"/>
<text text-anchor="middle" x="395" y="-311.5" font-family="Helvetica,sans-Serif" font-size="10.00">Mem::Manager::PushContext</text>
</a>
</g>
</g>
<!-- Node18&#45;&gt;Node26 -->
<g id="edge35" class="edge"><title>Node18&#45;&gt;Node26</title>
<path fill="none" stroke="midnightblue" d="M243.166,-361.478C264.111,-353.391 295.321,-341.741 323,-333 330.443,-330.649 338.383,-328.337 346.158,-326.179"/>
<polygon fill="midnightblue" stroke="midnightblue" points="347.137,-329.54 355.867,-323.537 345.299,-322.786 347.137,-329.54"/>
</g>
<!-- Node27 -->
<g id="node27" class="node"><title>Node27</title>
<g id="a_node27"><a xlink:href="../../d1/d54/namespace_script.html#a94d8a9f577c1a1177c63501e891ca256" target="_top" xlink:title=" ">
<polygon fill="white" stroke="black" points="332.5,-418.5 332.5,-437.5 457.5,-437.5 457.5,-418.5 332.5,-418.5"/>
<text text-anchor="middle" x="395" y="-425.5" font-family="Helvetica,sans-Serif" font-size="10.00">Script::SendSpawnScript</text>
</a>
</g>
</g>
<!-- Node18&#45;&gt;Node27 -->
<g id="edge37" class="edge"><title>Node18&#45;&gt;Node27</title>
<path fill="none" stroke="midnightblue" d="M248.291,-380.541C277.567,-390.076 322.752,-404.794 355.039,-415.31"/>
<polygon fill="midnightblue" stroke="midnightblue" points="354.021,-418.659 364.613,-418.428 356.189,-412.003 354.021,-418.659"/>
</g>
<!-- Node32 -->
<g id="node32" class="node"><title>Node32</title>
<g id="a_node32"><a xlink:href="../../d2/d0a/class_mem_1_1_manager.html#a3aefd91781b7f41d35e6df6a32d379d0" target="_top" xlink:title=" ">
<polygon fill="white" stroke="black" points="333.5,-456.5 333.5,-475.5 456.5,-475.5 456.5,-456.5 333.5,-456.5"/>
<text text-anchor="middle" x="395" y="-463.5" font-family="Helvetica,sans-Serif" font-size="10.00">Mem::Manager::sHandle</text>
</a>
</g>
</g>
<!-- Node18&#45;&gt;Node32 -->
<g id="edge43" class="edge"><title>Node18&#45;&gt;Node32</title>
<path fill="none" stroke="midnightblue" d="M229.372,-380.654C247.172,-396.718 285.277,-428.951 323,-447 327.964,-449.375 333.27,-451.489 338.663,-453.363"/>
<polygon fill="midnightblue" stroke="midnightblue" points="337.816,-456.767 348.407,-456.48 339.949,-450.099 337.816,-456.767"/>
</g>
<!-- Node20 -->
<g id="node20" class="node"><title>Node20</title>
<g id="a_node20"><a xlink:href="../../d1/d54/namespace_script.html#ac722bae4acb2ce23888cb428818f12af" target="_top" xlink:title=" ">
<polygon fill="white" stroke="black" points="735,-304.5 735,-323.5 809,-323.5 809,-304.5 735,-304.5"/>
<text text-anchor="middle" x="772" y="-311.5" font-family="Helvetica,sans-Serif" font-size="10.00">Script::GetInt</text>
</a>
</g>
</g>
<!-- Node19&#45;&gt;Node20 -->
<g id="edge26" class="edge"><title>Node19&#45;&gt;Node20</title>
<path fill="none" stroke="midnightblue" d="M644.147,-333.464C670.413,-329.434 700.471,-324.822 724.733,-321.099"/>
<polygon fill="midnightblue" stroke="midnightblue" points="725.395,-324.539 734.748,-319.562 724.333,-317.62 725.395,-324.539"/>
</g>
<!-- Node22 -->
<g id="node22" class="node"><title>Node22</title>
<g id="a_node22"><a xlink:href="../../d2/d8e/class_game_net_1_1_manager.html#ae51fd1e33cefcd3bd0211f6186cc8d30" target="_top" xlink:title=" ">
<polygon fill="white" stroke="black" points="695,-380.5 695,-399.5 849,-399.5 849,-380.5 695,-380.5"/>
<text text-anchor="middle" x="772" y="-387.5" font-family="Helvetica,sans-Serif" font-size="10.00">GameNet::Manager::InNetMode</text>
</a>
</g>
</g>
<!-- Node19&#45;&gt;Node22 -->
<g id="edge31" class="edge"><title>Node19&#45;&gt;Node22</title>
<path fill="none" stroke="midnightblue" d="M620.783,-352.545C633.012,-355.562 646.572,-358.913 659,-362 662.328,-362.827 694.109,-370.772 722.969,-377.989"/>
<polygon fill="midnightblue" stroke="midnightblue" points="722.454,-381.468 733.004,-380.498 724.152,-374.677 722.454,-381.468"/>
</g>
<!-- Node24 -->
<g id="node24" class="node"><title>Node24</title>
<g id="a_node24"><a xlink:href="../../d5/d7d/class_net_1_1_app.html#ab9b195337369cd68da26019ef37e66c7" target="_top" xlink:title=" ">
<polygon fill="white" stroke="black" points="726,-342.5 726,-361.5 818,-361.5 818,-342.5 726,-342.5"/>
<text text-anchor="middle" x="772" y="-349.5" font-family="Helvetica,sans-Serif" font-size="10.00">Net::App::IsLocal</text>
</a>
</g>
</g>
<!-- Node19&#45;&gt;Node24 -->
<g id="edge33" class="edge"><title>Node19&#45;&gt;Node24</title>
<path fill="none" stroke="midnightblue" d="M659.146,-346.674C678.088,-347.576 697.994,-348.524 715.676,-349.366"/>
<polygon fill="midnightblue" stroke="midnightblue" points="715.651,-352.868 725.806,-349.848 715.984,-345.876 715.651,-352.868"/>
</g>
<!-- Node21 -->
<g id="node21" class="node"><title>Node21</title>
<g id="a_node21"><a xlink:href="../../d1/d54/namespace_script.html#aa0c62774649e1e3abcab019ea335a3ad" target="_top" xlink:title=" ">
<polygon fill="white" stroke="black" points="913,-304.5 913,-323.5 1006,-323.5 1006,-304.5 913,-304.5"/>
<text text-anchor="middle" x="959.5" y="-311.5" font-family="Helvetica,sans-Serif" font-size="10.00">Script::GetInteger</text>
</a>
</g>
</g>
<!-- Node20&#45;&gt;Node21 -->
<g id="edge27" class="edge"><title>Node20&#45;&gt;Node21</title>
<path fill="none" stroke="midnightblue" d="M809.207,-314C835.825,-314 872.492,-314 902.825,-314"/>
<polygon fill="midnightblue" stroke="midnightblue" points="902.846,-317.5 912.846,-314 902.846,-310.5 902.846,-317.5"/>
</g>
<!-- Node21&#45;&gt;Node3 -->
<g id="edge29" class="edge"><title>Node21&#45;&gt;Node3</title>
<path fill="none" stroke="midnightblue" d="M974.159,-304.477C1002.34,-284.827 1067.17,-239.627 1101.58,-215.63"/>
<polygon fill="midnightblue" stroke="midnightblue" points="1103.83,-218.329 1110.03,-209.738 1099.83,-212.587 1103.83,-218.329"/>
</g>
<!-- Node21&#45;&gt;Node5 -->
<g id="edge28" class="edge"><title>Node21&#45;&gt;Node5</title>
<path fill="none" stroke="midnightblue" d="M1006.23,-314C1057.95,-314 1143.09,-314 1205.59,-314"/>
<polygon fill="midnightblue" stroke="midnightblue" points="1205.81,-317.5 1215.81,-314 1205.81,-310.5 1205.81,-317.5"/>
</g>
<!-- Node21&#45;&gt;Node9 -->
<g id="edge30" class="edge"><title>Node21&#45;&gt;Node9</title>
<path fill="none" stroke="midnightblue" d="M1001.76,-323.589C1023.68,-328.684 1050.79,-334.986 1073.91,-340.359"/>
<polygon fill="midnightblue" stroke="midnightblue" points="1073.35,-343.822 1083.89,-342.677 1074.94,-337.004 1073.35,-343.822"/>
</g>
<!-- Node23 -->
<g id="node23" class="node"><title>Node23</title>
<g id="a_node23"><a xlink:href="../../db/d82/class_flags.html#acbb180e12c33dd3ce7393e132f4d136f" target="_top" xlink:title=" ">
<polygon fill="white" stroke="black" points="915,-380.5 915,-399.5 1004,-399.5 1004,-380.5 915,-380.5"/>
<text text-anchor="middle" x="959.5" y="-387.5" font-family="Helvetica,sans-Serif" font-size="10.00">Flags::TestMask</text>
</a>
</g>
</g>
<!-- Node22&#45;&gt;Node23 -->
<g id="edge32" class="edge"><title>Node22&#45;&gt;Node23</title>
<path fill="none" stroke="midnightblue" d="M849.253,-390C867.79,-390 887.235,-390 904.497,-390"/>
<polygon fill="midnightblue" stroke="midnightblue" points="904.935,-393.5 914.935,-390 904.935,-386.5 904.935,-393.5"/>
</g>
<!-- Node27&#45;&gt;Node19 -->
<g id="edge42" class="edge"><title>Node27&#45;&gt;Node19</title>
<path fill="none" stroke="midnightblue" d="M436.448,-418.467C446.929,-414.916 457.835,-410.191 467,-404 487.373,-390.239 482.067,-374.893 503,-362 506.561,-359.807 510.361,-357.866 514.293,-356.15"/>
<polygon fill="midnightblue" stroke="midnightblue" points="515.588,-359.402 523.658,-352.537 513.068,-352.871 515.588,-359.402"/>
</g>
<!-- Node28 -->
<g id="node28" class="node"><title>Node28</title>
<g id="a_node28"><a xlink:href="../../d5/d7d/class_net_1_1_app.html#ab733378173d8bd5e5902f1124907d62b" target="_top" xlink:title=" ">
<polygon fill="white" stroke="black" points="511.5,-410 511.5,-440 650.5,-440 650.5,-410 511.5,-410"/>
<text text-anchor="start" x="519.5" y="-428" font-family="Helvetica,sans-Serif" font-size="10.00">Net::App::EnqueueMessage</text>
<text text-anchor="middle" x="581" y="-417" font-family="Helvetica,sans-Serif" font-size="10.00">ToServer</text>
</a>
</g>
</g>
<!-- Node27&#45;&gt;Node28 -->
<g id="edge38" class="edge"><title>Node27&#45;&gt;Node28</title>
<path fill="none" stroke="midnightblue" d="M457.525,-426.997C471.531,-426.769 486.599,-426.523 501.213,-426.285"/>
<polygon fill="midnightblue" stroke="midnightblue" points="501.298,-429.784 511.239,-426.121 501.184,-422.785 501.298,-429.784"/>
</g>
<!-- Node30 -->
<g id="node30" class="node"><title>Node30</title>
<g id="a_node30"><a xlink:href="../../d2/d8e/class_game_net_1_1_manager.html#aa5990409003c3d0dc975eb8197f19339" target="_top" xlink:title=" ">
<polygon fill="white" stroke="black" points="507,-459.5 507,-478.5 655,-478.5 655,-459.5 507,-459.5"/>
<text text-anchor="middle" x="581" y="-466.5" font-family="Helvetica,sans-Serif" font-size="10.00">GameNet::Manager::GetClient</text>
</a>
</g>
</g>
<!-- Node27&#45;&gt;Node30 -->
<g id="edge40" class="edge"><title>Node27&#45;&gt;Node30</title>
<path fill="none" stroke="midnightblue" d="M438.676,-437.509C465.056,-443.387 499.117,-450.977 527.191,-457.233"/>
<polygon fill="midnightblue" stroke="midnightblue" points="526.715,-460.713 537.237,-459.471 528.238,-453.88 526.715,-460.713"/>
</g>
<!-- Node31 -->
<g id="node31" class="node"><title>Node31</title>
<g id="a_node31"><a xlink:href="../../df/dde/class_obj_1_1_c_object.html#ad39f6409df17fb6ee459d1071258c645" target="_top" xlink:title=" ">
<polygon fill="white" stroke="black" points="529,-371.5 529,-390.5 633,-390.5 633,-371.5 529,-371.5"/>
<text text-anchor="middle" x="581" y="-378.5" font-family="Helvetica,sans-Serif" font-size="10.00">Obj::CObject::GetID</text>
</a>
</g>
</g>
<!-- Node27&#45;&gt;Node31 -->
<g id="edge41" class="edge"><title>Node27&#45;&gt;Node31</title>
<path fill="none" stroke="midnightblue" d="M433.235,-418.489C461.946,-411.155 501.845,-400.964 532.796,-393.058"/>
<polygon fill="midnightblue" stroke="midnightblue" points="533.682,-396.444 542.505,-390.578 531.95,-389.661 533.682,-396.444"/>
</g>
<!-- Node29 -->
<g id="node29" class="node"><title>Node29</title>
<g id="a_node29"><a xlink:href="../../d5/d7d/class_net_1_1_app.html#aa796b3a0b2e06ff0096c509490961388" target="_top" xlink:title=" ">
<polygon fill="white" stroke="black" points="702.5,-418.5 702.5,-437.5 841.5,-437.5 841.5,-418.5 702.5,-418.5"/>
<text text-anchor="middle" x="772" y="-425.5" font-family="Helvetica,sans-Serif" font-size="10.00">Net::App::EnqueueMessage</text>
</a>
</g>
</g>
<!-- Node28&#45;&gt;Node29 -->
<g id="edge39" class="edge"><title>Node28&#45;&gt;Node29</title>
<path fill="none" stroke="midnightblue" d="M650.501,-426.087C664.102,-426.303 678.482,-426.531 692.39,-426.752"/>
<polygon fill="midnightblue" stroke="midnightblue" points="692.362,-430.252 702.416,-426.911 692.473,-423.253 692.362,-430.252"/>
</g>
</g>
</svg>
