<?xml version="1.0" encoding="UTF-8" standalone="no"?>
<!DOCTYPE svg PUBLIC "-//W3C//DTD SVG 1.1//EN"
 "http://www.w3.org/Graphics/SVG/1.1/DTD/svg11.dtd">
<!-- Generated by graphviz version 2.38.0 (20140413.2041)
 -->
<!-- Title: Game::CGoalManager::CanRetryGoal Pages: 1 -->
<svg width="1111pt" height="110pt"
 viewBox="0.00 0.00 1111.00 109.50" xmlns="http://www.w3.org/2000/svg" xmlns:xlink="http://www.w3.org/1999/xlink">
<g id="graph0" class="graph" transform="scale(1 1) rotate(0) translate(4 105.5)">
<title>Game::CGoalManager::CanRetryGoal</title>
<polygon fill="white" stroke="none" points="-4,4 -4,-105.5 1107,-105.5 1107,4 -4,4"/>
<!-- Node1 -->
<g id="node1" class="node"><title>Node1</title>
<g id="a_node1"><a xlink:title=" ">
<polygon fill="#bfbfbf" stroke="black" points="0,-22.5 0,-52.5 113,-52.5 113,-22.5 0,-22.5"/>
<text text-anchor="start" x="8" y="-40.5" font-family="Helvetica,sans-Serif" font-size="10.00">Game::CGoalManager</text>
<text text-anchor="middle" x="56.5" y="-29.5" font-family="Helvetica,sans-Serif" font-size="10.00">::CanRetryGoal</text>
</a>
</g>
</g>
<!-- Node2 -->
<g id="node2" class="node"><title>Node2</title>
<g id="a_node2"><a xlink:href="../../d1/d04/class_game_1_1_c_goal.html#aa624f63319de1ecab0e8a2d00497e3b1" target="_top" xlink:title=" ">
<polygon fill="white" stroke="black" points="149,-48 149,-67 271,-67 271,-48 149,-48"/>
<text text-anchor="middle" x="210" y="-55" font-family="Helvetica,sans-Serif" font-size="10.00">Game::CGoal::CanRetry</text>
</a>
</g>
</g>
<!-- Node1&#45;&gt;Node2 -->
<g id="edge1" class="edge"><title>Node1&#45;&gt;Node2</title>
<path fill="none" stroke="midnightblue" d="M113.053,-44.8337C121.429,-45.9395 130.161,-47.0922 138.796,-48.2321"/>
<polygon fill="midnightblue" stroke="midnightblue" points="138.489,-51.7219 148.861,-49.5609 139.405,-44.7822 138.489,-51.7219"/>
</g>
<!-- Node10 -->
<g id="node10" class="node"><title>Node10</title>
<g id="a_node10"><a xlink:href="../../d9/dda/class_game_1_1_c_goal_manager.html#ad38cfcd14218068547a93faa1d2c5d6f" target="_top" xlink:title=" ">
<polygon fill="white" stroke="black" points="322.5,-0.5 322.5,-30.5 435.5,-30.5 435.5,-0.5 322.5,-0.5"/>
<text text-anchor="start" x="330.5" y="-18.5" font-family="Helvetica,sans-Serif" font-size="10.00">Game::CGoalManager</text>
<text text-anchor="middle" x="379" y="-7.5" font-family="Helvetica,sans-Serif" font-size="10.00">::GetGoal</text>
</a>
</g>
</g>
<!-- Node1&#45;&gt;Node10 -->
<g id="edge11" class="edge"><title>Node1&#45;&gt;Node10</title>
<path fill="none" stroke="midnightblue" d="M113.327,-33.6679C168.651,-29.8703 253.387,-24.0538 312.011,-20.0297"/>
<polygon fill="midnightblue" stroke="midnightblue" points="312.539,-23.5017 322.276,-19.325 312.06,-16.5182 312.539,-23.5017"/>
</g>
<!-- Node3 -->
<g id="node3" class="node"><title>Node3</title>
<g id="a_node3"><a xlink:href="../../d2/df7/class_script_1_1_c_struct.html#aa27bdd009eb62b22c75dac7b9398a902" target="_top" xlink:title=" ">
<polygon fill="white" stroke="black" points="307,-50 307,-69 451,-69 451,-50 307,-50"/>
<text text-anchor="middle" x="379" y="-57" font-family="Helvetica,sans-Serif" font-size="10.00">Script::CStruct::ContainsFlag</text>
</a>
</g>
</g>
<!-- Node2&#45;&gt;Node3 -->
<g id="edge2" class="edge"><title>Node2&#45;&gt;Node3</title>
<path fill="none" stroke="midnightblue" d="M271.291,-58.222C279.618,-58.3218 288.279,-58.4255 296.906,-58.5288"/>
<polygon fill="midnightblue" stroke="midnightblue" points="296.954,-62.0295 306.995,-58.6496 297.038,-55.03 296.954,-62.0295"/>
</g>
<!-- Node3&#45;&gt;Node3 -->
<g id="edge3" class="edge"><title>Node3&#45;&gt;Node3</title>
<path fill="none" stroke="midnightblue" d="M356.189,-69.2571C345.092,-78.0653 352.695,-87.5 379,-87.5 396.262,-87.5 405.471,-83.4368 406.626,-78.1539"/>
<polygon fill="midnightblue" stroke="midnightblue" points="409.649,-76.386 401.811,-69.2571 403.492,-79.7176 409.649,-76.386"/>
</g>
<!-- Node4 -->
<g id="node4" class="node"><title>Node4</title>
<g id="a_node4"><a xlink:href="../../d1/d54/namespace_script.html#ae80ed69ea4edcbcbbbd4985a6efdcd6e" target="_top" xlink:title=" ">
<polygon fill="white" stroke="black" points="605,-44 605,-63 744,-63 744,-44 605,-44"/>
<text text-anchor="middle" x="674.5" y="-51" font-family="Helvetica,sans-Serif" font-size="10.00">Script::FindChecksumName</text>
</a>
</g>
</g>
<!-- Node3&#45;&gt;Node4 -->
<g id="edge4" class="edge"><title>Node3&#45;&gt;Node4</title>
<path fill="none" stroke="midnightblue" d="M451.048,-58.0476C494.41,-57.1611 549.914,-56.0265 594.633,-55.1123"/>
<polygon fill="midnightblue" stroke="midnightblue" points="594.949,-58.6066 604.875,-54.9029 594.806,-51.6081 594.949,-58.6066"/>
</g>
<!-- Node8 -->
<g id="node8" class="node"><title>Node8</title>
<g id="a_node8"><a xlink:href="../../d1/d54/namespace_script.html#a43181580ea5d38e4bf1aa19ccd5e9e85" target="_top" xlink:title=" ">
<polygon fill="white" stroke="black" points="487,-82 487,-101 569,-101 569,-82 487,-82"/>
<text text-anchor="middle" x="528" y="-89" font-family="Helvetica,sans-Serif" font-size="10.00">Script::Resolve</text>
</a>
</g>
</g>
<!-- Node3&#45;&gt;Node8 -->
<g id="edge8" class="edge"><title>Node3&#45;&gt;Node8</title>
<path fill="none" stroke="midnightblue" d="M423.707,-69.0144C440.403,-72.649 459.568,-76.821 476.821,-80.5767"/>
<polygon fill="midnightblue" stroke="midnightblue" points="476.21,-84.0255 486.725,-82.7327 477.699,-77.1857 476.21,-84.0255"/>
</g>
<!-- Node5 -->
<g id="node5" class="node"><title>Node5</title>
<g id="a_node5"><a xlink:href="../../d1/d54/namespace_script.html#a5cc52c4ff5ea5bb27681d819212dfdca" target="_top" xlink:title=" ">
<polygon fill="white" stroke="black" points="780,-63 780,-82 943,-82 943,-63 780,-63"/>
<text text-anchor="middle" x="861.5" y="-70" font-family="Helvetica,sans-Serif" font-size="10.00">Script::FindChecksumNameNULL</text>
</a>
</g>
</g>
<!-- Node4&#45;&gt;Node5 -->
<g id="edge5" class="edge"><title>Node4&#45;&gt;Node5</title>
<path fill="none" stroke="midnightblue" d="M744.124,-60.5479C752.476,-61.4056 761.107,-62.292 769.717,-63.1764"/>
<polygon fill="midnightblue" stroke="midnightblue" points="769.493,-66.6717 779.798,-64.2117 770.208,-59.7083 769.493,-66.6717"/>
</g>
<!-- Node7 -->
<g id="node7" class="node"><title>Node7</title>
<g id="a_node7"><a xlink:href="../../da/d37/namespace_dbg.html#ab406a8cc16de5046c7d9fd09c9de5e22" target="_top" xlink:title=" ">
<polygon fill="white" stroke="black" points="828.5,-25 828.5,-44 894.5,-44 894.5,-25 828.5,-25"/>
<text text-anchor="middle" x="861.5" y="-32" font-family="Helvetica,sans-Serif" font-size="10.00">Dbg::sprintf</text>
</a>
</g>
</g>
<!-- Node4&#45;&gt;Node7 -->
<g id="edge7" class="edge"><title>Node4&#45;&gt;Node7</title>
<path fill="none" stroke="midnightblue" d="M744.124,-46.4521C768.98,-43.8993 796.305,-41.093 818.228,-38.8414"/>
<polygon fill="midnightblue" stroke="midnightblue" points="818.616,-42.3201 828.206,-37.8167 817.901,-35.3567 818.616,-42.3201"/>
</g>
<!-- Node6 -->
<g id="node6" class="node"><title>Node6</title>
<g id="a_node6"><a xlink:href="../../d0/d31/namespace_config.html#a709cc81780d49900157e3476b63aa25d" target="_top" xlink:title=" ">
<polygon fill="white" stroke="black" points="979,-63 979,-82 1103,-82 1103,-63 979,-63"/>
<text text-anchor="middle" x="1041" y="-70" font-family="Helvetica,sans-Serif" font-size="10.00">Config::GotExtraMemory</text>
</a>
</g>
</g>
<!-- Node5&#45;&gt;Node6 -->
<g id="edge6" class="edge"><title>Node5&#45;&gt;Node6</title>
<path fill="none" stroke="midnightblue" d="M943.2,-72.5C951.729,-72.5 960.358,-72.5 968.768,-72.5"/>
<polygon fill="midnightblue" stroke="midnightblue" points="968.898,-76.0001 978.898,-72.5 968.898,-69.0001 968.898,-76.0001"/>
</g>
<!-- Node8&#45;&gt;Node4 -->
<g id="edge9" class="edge"><title>Node8&#45;&gt;Node4</title>
<path fill="none" stroke="midnightblue" d="M565.463,-81.911C584.274,-76.9642 607.415,-70.8789 627.447,-65.6108"/>
<polygon fill="midnightblue" stroke="midnightblue" points="628.518,-68.9483 637.299,-63.0201 626.737,-62.1785 628.518,-68.9483"/>
</g>
<!-- Node9 -->
<g id="node9" class="node"><title>Node9</title>
<g id="a_node9"><a xlink:href="../../d1/d54/namespace_script.html#af293a36c230b10de7d8151c2990b233b" target="_top" xlink:title=" ">
<polygon fill="white" stroke="black" points="617.5,-82 617.5,-101 731.5,-101 731.5,-82 617.5,-82"/>
<text text-anchor="middle" x="674.5" y="-89" font-family="Helvetica,sans-Serif" font-size="10.00">Script::LookUpSymbol</text>
</a>
</g>
</g>
<!-- Node8&#45;&gt;Node9 -->
<g id="edge10" class="edge"><title>Node8&#45;&gt;Node9</title>
<path fill="none" stroke="midnightblue" d="M569.251,-91.5C580.98,-91.5 594.119,-91.5 607.012,-91.5"/>
<polygon fill="midnightblue" stroke="midnightblue" points="607.267,-95.0001 617.267,-91.5 607.267,-88.0001 607.267,-95.0001"/>
</g>
<!-- Node10&#45;&gt;Node4 -->
<g id="edge12" class="edge"><title>Node10&#45;&gt;Node4</title>
<path fill="none" stroke="midnightblue" d="M435.55,-22.6922C480.483,-28.5097 544.315,-36.7742 594.556,-43.279"/>
<polygon fill="midnightblue" stroke="midnightblue" points="594.369,-46.7839 604.736,-44.597 595.268,-39.8419 594.369,-46.7839"/>
</g>
</g>
</svg>
