<?xml version="1.0" encoding="UTF-8" standalone="no"?>
<!DOCTYPE svg PUBLIC "-//W3C//DTD SVG 1.1//EN"
 "http://www.w3.org/Graphics/SVG/1.1/DTD/svg11.dtd">
<!-- Generated by graphviz version 2.38.0 (20140413.2041)
 -->
<!-- Title: Game::CGoalManager::IsPro Pages: 1 -->
<svg width="460pt" height="78pt"
 viewBox="0.00 0.00 460.00 77.50" xmlns="http://www.w3.org/2000/svg" xmlns:xlink="http://www.w3.org/1999/xlink">
<g id="graph0" class="graph" transform="scale(1 1) rotate(0) translate(4 73.5)">
<title>Game::CGoalManager::IsPro</title>
<polygon fill="white" stroke="none" points="-4,4 -4,-73.5 456,-73.5 456,4 -4,4"/>
<!-- Node1 -->
<g id="node1" class="node"><title>Node1</title>
<g id="a_node1"><a xlink:title=" ">
<polygon fill="#bfbfbf" stroke="black" points="339,-17 339,-47 452,-47 452,-17 339,-17"/>
<text text-anchor="start" x="347" y="-35" font-family="Helvetica,sans-Serif" font-size="10.00">Game::CGoalManager</text>
<text text-anchor="middle" x="395.5" y="-24" font-family="Helvetica,sans-Serif" font-size="10.00">::IsPro</text>
</a>
</g>
</g>
<!-- Node2 -->
<g id="node2" class="node"><title>Node2</title>
<g id="a_node2"><a xlink:href="../../d9/dda/class_game_1_1_c_goal_manager.html#aa6881c1cb318f4c69c16abab41df53c8" target="_top" xlink:title=" ">
<polygon fill="white" stroke="black" points="190,-39 190,-69 303,-69 303,-39 190,-39"/>
<text text-anchor="start" x="198" y="-57" font-family="Helvetica,sans-Serif" font-size="10.00">Game::CGoalManager</text>
<text text-anchor="middle" x="246.5" y="-46" font-family="Helvetica,sans-Serif" font-size="10.00">::AddViewGoalsList</text>
</a>
</g>
</g>
<!-- Node1&#45;&gt;Node2 -->
<g id="edge1" class="edge"><title>Node1&#45;&gt;Node2</title>
<path fill="none" stroke="midnightblue" d="M328.922,-41.8143C320.319,-43.1018 311.57,-44.4113 303.153,-45.671"/>
<polygon fill="midnightblue" stroke="midnightblue" points="329.554,-45.2589 338.926,-40.3173 328.518,-38.336 329.554,-45.2589"/>
</g>
<!-- Node4 -->
<g id="node4" class="node"><title>Node4</title>
<g id="a_node4"><a xlink:href="../../d2/d97/namespace_game.html#af493d5c52ef07d6417b2204689064a66" target="_top" xlink:title=" ">
<polygon fill="white" stroke="black" points="198,-0.5 198,-19.5 295,-19.5 295,-0.5 198,-0.5"/>
<text text-anchor="middle" x="246.5" y="-7.5" font-family="Helvetica,sans-Serif" font-size="10.00">Game::ScriptIsPro</text>
</a>
</g>
</g>
<!-- Node1&#45;&gt;Node4 -->
<g id="edge3" class="edge"><title>Node1&#45;&gt;Node4</title>
<path fill="none" stroke="midnightblue" d="M328.735,-22.1577C317.532,-20.481 306.087,-18.7681 295.455,-17.177"/>
<polygon fill="midnightblue" stroke="midnightblue" points="328.518,-25.664 338.926,-23.6827 329.554,-18.7411 328.518,-25.664"/>
</g>
<!-- Node3 -->
<g id="node3" class="node"><title>Node3</title>
<g id="a_node3"><a xlink:href="../../d2/d97/namespace_game.html#ae1e0cc5f812ffd19dd1c89503d9a291c" target="_top" xlink:title=" ">
<polygon fill="white" stroke="black" points="0,-44.5 0,-63.5 154,-63.5 154,-44.5 0,-44.5"/>
<text text-anchor="middle" x="77" y="-51.5" font-family="Helvetica,sans-Serif" font-size="10.00">Game::ScriptAddViewGoalsList</text>
</a>
</g>
</g>
<!-- Node2&#45;&gt;Node3 -->
<g id="edge2" class="edge"><title>Node2&#45;&gt;Node3</title>
<path fill="none" stroke="midnightblue" d="M179.649,-54C171.267,-54 162.634,-54 154.107,-54"/>
<polygon fill="midnightblue" stroke="midnightblue" points="179.725,-57.5001 189.725,-54 179.725,-50.5001 179.725,-57.5001"/>
</g>
</g>
</svg>
