<?xml version="1.0" encoding="UTF-8" standalone="no"?>
<!DOCTYPE svg PUBLIC "-//W3C//DTD SVG 1.1//EN"
 "http://www.w3.org/Graphics/SVG/1.1/DTD/svg11.dtd">
<!-- Generated by graphviz version 2.38.0 (20140413.2041)
 -->
<!-- Title: Game::CGoalManager::EditGoal Pages: 1 -->
<svg width="845pt" height="91pt"
 viewBox="0.00 0.00 845.00 91.00" xmlns="http://www.w3.org/2000/svg" xmlns:xlink="http://www.w3.org/1999/xlink">
<g id="graph0" class="graph" transform="scale(1 1) rotate(0) translate(4 87)">
<title>Game::CGoalManager::EditGoal</title>
<polygon fill="white" stroke="none" points="-4,4 -4,-87 841,-87 841,4 -4,4"/>
<!-- Node1 -->
<g id="node1" class="node"><title>Node1</title>
<g id="a_node1"><a xlink:title=" ">
<polygon fill="#bfbfbf" stroke="black" points="0,-36 0,-66 113,-66 113,-36 0,-36"/>
<text text-anchor="start" x="8" y="-54" font-family="Helvetica,sans-Serif" font-size="10.00">Game::CGoalManager</text>
<text text-anchor="middle" x="56.5" y="-43" font-family="Helvetica,sans-Serif" font-size="10.00">::EditGoal</text>
</a>
</g>
</g>
<!-- Node2 -->
<g id="node2" class="node"><title>Node2</title>
<g id="a_node2"><a xlink:href="../../d1/d04/class_game_1_1_c_goal.html#a5a051c681a81b9ddfebebbf10295612f" target="_top" xlink:title=" ">
<polygon fill="white" stroke="black" points="149,-63.5 149,-82.5 282,-82.5 282,-63.5 149,-63.5"/>
<text text-anchor="middle" x="215.5" y="-70.5" font-family="Helvetica,sans-Serif" font-size="10.00">Game::CGoal::EditParams</text>
</a>
</g>
</g>
<!-- Node1&#45;&gt;Node2 -->
<g id="edge1" class="edge"><title>Node1&#45;&gt;Node2</title>
<path fill="none" stroke="midnightblue" d="M113.294,-58.8183C121.593,-59.9812 130.262,-61.196 138.885,-62.4042"/>
<polygon fill="midnightblue" stroke="midnightblue" points="138.572,-65.8945 148.961,-63.8161 139.543,-58.9622 138.572,-65.8945"/>
</g>
<!-- Node4 -->
<g id="node4" class="node"><title>Node4</title>
<g id="a_node4"><a xlink:href="../../d9/dda/class_game_1_1_c_goal_manager.html#ad38cfcd14218068547a93faa1d2c5d6f" target="_top" xlink:title=" ">
<polygon fill="white" stroke="black" points="159,-14 159,-44 272,-44 272,-14 159,-14"/>
<text text-anchor="start" x="167" y="-32" font-family="Helvetica,sans-Serif" font-size="10.00">Game::CGoalManager</text>
<text text-anchor="middle" x="215.5" y="-21" font-family="Helvetica,sans-Serif" font-size="10.00">::GetGoal</text>
</a>
</g>
</g>
<!-- Node1&#45;&gt;Node4 -->
<g id="edge3" class="edge"><title>Node1&#45;&gt;Node4</title>
<path fill="none" stroke="midnightblue" d="M113.294,-43.1817C124.747,-41.5769 136.905,-39.8733 148.672,-38.2243"/>
<polygon fill="midnightblue" stroke="midnightblue" points="149.468,-41.6471 158.885,-36.7931 148.496,-34.7148 149.468,-41.6471"/>
</g>
<!-- Node3 -->
<g id="node3" class="node"><title>Node3</title>
<g id="a_node3"><a xlink:href="../../d2/df7/class_script_1_1_c_struct.html#a69e53f2893ce3cb95bc68264d92ce39e" target="_top" xlink:title=" ">
<polygon fill="white" stroke="black" points="318,-63.5 318,-82.5 478,-82.5 478,-63.5 318,-63.5"/>
<text text-anchor="middle" x="398" y="-70.5" font-family="Helvetica,sans-Serif" font-size="10.00">Script::CStruct::AppendStructure</text>
</a>
</g>
</g>
<!-- Node2&#45;&gt;Node3 -->
<g id="edge2" class="edge"><title>Node2&#45;&gt;Node3</title>
<path fill="none" stroke="midnightblue" d="M282.175,-73C290.507,-73 299.141,-73 307.763,-73"/>
<polygon fill="midnightblue" stroke="midnightblue" points="307.86,-76.5001 317.86,-73 307.86,-69.5001 307.86,-76.5001"/>
</g>
<!-- Node5 -->
<g id="node5" class="node"><title>Node5</title>
<g id="a_node5"><a xlink:href="../../d1/d54/namespace_script.html#ae80ed69ea4edcbcbbbd4985a6efdcd6e" target="_top" xlink:title=" ">
<polygon fill="white" stroke="black" points="328.5,-19.5 328.5,-38.5 467.5,-38.5 467.5,-19.5 328.5,-19.5"/>
<text text-anchor="middle" x="398" y="-26.5" font-family="Helvetica,sans-Serif" font-size="10.00">Script::FindChecksumName</text>
</a>
</g>
</g>
<!-- Node4&#45;&gt;Node5 -->
<g id="edge4" class="edge"><title>Node4&#45;&gt;Node5</title>
<path fill="none" stroke="midnightblue" d="M272.129,-29C286.659,-29 302.6,-29 318.089,-29"/>
<polygon fill="midnightblue" stroke="midnightblue" points="318.182,-32.5001 328.182,-29 318.182,-25.5001 318.182,-32.5001"/>
</g>
<!-- Node6 -->
<g id="node6" class="node"><title>Node6</title>
<g id="a_node6"><a xlink:href="../../d1/d54/namespace_script.html#a5cc52c4ff5ea5bb27681d819212dfdca" target="_top" xlink:title=" ">
<polygon fill="white" stroke="black" points="514,-38.5 514,-57.5 677,-57.5 677,-38.5 514,-38.5"/>
<text text-anchor="middle" x="595.5" y="-45.5" font-family="Helvetica,sans-Serif" font-size="10.00">Script::FindChecksumNameNULL</text>
</a>
</g>
</g>
<!-- Node5&#45;&gt;Node6 -->
<g id="edge5" class="edge"><title>Node5&#45;&gt;Node6</title>
<path fill="none" stroke="midnightblue" d="M467.651,-35.672C479.341,-36.8081 491.642,-38.0035 503.796,-39.1848"/>
<polygon fill="midnightblue" stroke="midnightblue" points="503.664,-42.6883 513.955,-40.1721 504.341,-35.7212 503.664,-42.6883"/>
</g>
<!-- Node8 -->
<g id="node8" class="node"><title>Node8</title>
<g id="a_node8"><a xlink:href="../../da/d37/namespace_dbg.html#ab406a8cc16de5046c7d9fd09c9de5e22" target="_top" xlink:title=" ">
<polygon fill="white" stroke="black" points="562.5,-0.5 562.5,-19.5 628.5,-19.5 628.5,-0.5 562.5,-0.5"/>
<text text-anchor="middle" x="595.5" y="-7.5" font-family="Helvetica,sans-Serif" font-size="10.00">Dbg::sprintf</text>
</a>
</g>
</g>
<!-- Node5&#45;&gt;Node8 -->
<g id="edge7" class="edge"><title>Node5&#45;&gt;Node8</title>
<path fill="none" stroke="midnightblue" d="M467.651,-22.328C495.858,-19.5867 527.622,-16.4997 552.308,-14.1005"/>
<polygon fill="midnightblue" stroke="midnightblue" points="552.809,-17.5684 562.424,-13.1174 552.132,-10.6012 552.809,-17.5684"/>
</g>
<!-- Node7 -->
<g id="node7" class="node"><title>Node7</title>
<g id="a_node7"><a xlink:href="../../d0/d31/namespace_config.html#a709cc81780d49900157e3476b63aa25d" target="_top" xlink:title=" ">
<polygon fill="white" stroke="black" points="713,-38.5 713,-57.5 837,-57.5 837,-38.5 713,-38.5"/>
<text text-anchor="middle" x="775" y="-45.5" font-family="Helvetica,sans-Serif" font-size="10.00">Config::GotExtraMemory</text>
</a>
</g>
</g>
<!-- Node6&#45;&gt;Node7 -->
<g id="edge6" class="edge"><title>Node6&#45;&gt;Node7</title>
<path fill="none" stroke="midnightblue" d="M677.2,-48C685.729,-48 694.358,-48 702.768,-48"/>
<polygon fill="midnightblue" stroke="midnightblue" points="702.898,-51.5001 712.898,-48 702.898,-44.5001 702.898,-51.5001"/>
</g>
</g>
</svg>
