<?xml version="1.0" encoding="UTF-8" standalone="no"?>
<!DOCTYPE svg PUBLIC "-//W3C//DTD SVG 1.1//EN"
 "http://www.w3.org/Graphics/SVG/1.1/DTD/svg11.dtd">
<!-- Generated by graphviz version 2.38.0 (20140413.2041)
 -->
<!-- Title: Game::CGoalManager::RemoveGoal Pages: 1 -->
<svg width="740pt" height="103pt"
 viewBox="0.00 0.00 740.00 102.50" xmlns="http://www.w3.org/2000/svg" xmlns:xlink="http://www.w3.org/1999/xlink">
<g id="graph0" class="graph" transform="scale(1 1) rotate(0) translate(4 98.5)">
<title>Game::CGoalManager::RemoveGoal</title>
<polygon fill="white" stroke="none" points="-4,4 -4,-98.5 736,-98.5 736,4 -4,4"/>
<!-- Node1 -->
<g id="node1" class="node"><title>Node1</title>
<g id="a_node1"><a xlink:title=" ">
<polygon fill="#bfbfbf" stroke="black" points="619,-17 619,-47 732,-47 732,-17 619,-17"/>
<text text-anchor="start" x="627" y="-35" font-family="Helvetica,sans-Serif" font-size="10.00">Game::CGoalManager</text>
<text text-anchor="middle" x="675.5" y="-24" font-family="Helvetica,sans-Serif" font-size="10.00">::RemoveGoal</text>
</a>
</g>
</g>
<!-- Node2 -->
<g id="node2" class="node"><title>Node2</title>
<g id="a_node2"><a xlink:href="../../d6/d61/class_obj_1_1_c_goal_editor_component.html#a6f7c4e52d39a3de9fd852fc6ddbb0ee0" target="_top" xlink:title=" ">
<polygon fill="white" stroke="black" points="443,-39 443,-69 583,-69 583,-39 443,-39"/>
<text text-anchor="start" x="451" y="-57" font-family="Helvetica,sans-Serif" font-size="10.00">Obj::CGoalEditorComponent</text>
<text text-anchor="middle" x="513" y="-46" font-family="Helvetica,sans-Serif" font-size="10.00">::remove_goal</text>
</a>
</g>
</g>
<!-- Node1&#45;&gt;Node2 -->
<g id="edge1" class="edge"><title>Node1&#45;&gt;Node2</title>
<path fill="none" stroke="midnightblue" d="M608.683,-41.0216C600.266,-42.1753 591.631,-43.359 583.163,-44.5198"/>
<polygon fill="midnightblue" stroke="midnightblue" points="609.383,-44.4585 618.815,-39.6328 608.433,-37.5233 609.383,-44.4585"/>
</g>
<!-- Node7 -->
<g id="node7" class="node"><title>Node7</title>
<g id="a_node7"><a xlink:href="../../d2/d97/namespace_game.html#a0681bd3cf10fa131332d956dc0674974" target="_top" xlink:title=" ">
<polygon fill="white" stroke="black" points="448.5,-0.5 448.5,-19.5 577.5,-19.5 577.5,-0.5 448.5,-0.5"/>
<text text-anchor="middle" x="513" y="-7.5" font-family="Helvetica,sans-Serif" font-size="10.00">Game::ScriptRemoveGoal</text>
</a>
</g>
</g>
<!-- Node1&#45;&gt;Node7 -->
<g id="edge6" class="edge"><title>Node1&#45;&gt;Node7</title>
<path fill="none" stroke="midnightblue" d="M608.672,-22.9769C598.395,-21.5681 587.79,-20.1146 577.564,-18.7129"/>
<polygon fill="midnightblue" stroke="midnightblue" points="608.433,-26.4767 618.815,-24.3672 609.383,-19.5415 608.433,-26.4767"/>
</g>
<!-- Node3 -->
<g id="node3" class="node"><title>Node3</title>
<g id="a_node3"><a xlink:href="../../d6/d61/class_obj_1_1_c_goal_editor_component.html#ac1772d92aa49f320ae2c9751e0ede6bf" target="_top" xlink:title=" ">
<polygon fill="white" stroke="black" points="267,-64 267,-94 407,-94 407,-64 267,-64"/>
<text text-anchor="start" x="275" y="-82" font-family="Helvetica,sans-Serif" font-size="10.00">Obj::CGoalEditorComponent</text>
<text text-anchor="middle" x="337" y="-71" font-family="Helvetica,sans-Serif" font-size="10.00">::CallMemberFunction</text>
</a>
</g>
</g>
<!-- Node2&#45;&gt;Node3 -->
<g id="edge2" class="edge"><title>Node2&#45;&gt;Node3</title>
<path fill="none" stroke="midnightblue" d="M432.965,-65.3556C424.375,-66.5898 415.681,-67.839 407.221,-69.0545"/>
<polygon fill="midnightblue" stroke="midnightblue" points="433.58,-68.8033 442.981,-63.9166 432.585,-61.8744 433.58,-68.8033"/>
</g>
<!-- Node4 -->
<g id="node4" class="node"><title>Node4</title>
<g id="a_node4"><a xlink:href="../../d6/d61/class_obj_1_1_c_goal_editor_component.html#aacad247c88d91b1df3c808fa8a5d2d03" target="_top" xlink:title=" ">
<polygon fill="white" stroke="black" points="267,-15 267,-45 407,-45 407,-15 267,-15"/>
<text text-anchor="start" x="275" y="-33" font-family="Helvetica,sans-Serif" font-size="10.00">Obj::CGoalEditorComponent</text>
<text text-anchor="middle" x="337" y="-22" font-family="Helvetica,sans-Serif" font-size="10.00">::DeleteGoalsOutsideArea</text>
</a>
</g>
</g>
<!-- Node2&#45;&gt;Node4 -->
<g id="edge3" class="edge"><title>Node2&#45;&gt;Node4</title>
<path fill="none" stroke="midnightblue" d="M432.965,-43.0986C424.375,-41.9138 415.681,-40.7146 407.221,-39.5477"/>
<polygon fill="midnightblue" stroke="midnightblue" points="432.596,-46.5808 442.981,-44.4801 433.553,-39.6465 432.596,-46.5808"/>
</g>
<!-- Node5 -->
<g id="node5" class="node"><title>Node5</title>
<g id="a_node5"><a xlink:href="../../d2/d84/namespace_ed.html#a18e01a46dde64d90411ab5c2e68344ad" target="_top" xlink:title=" ">
<polygon fill="white" stroke="black" points="146,-20.5 146,-39.5 231,-39.5 231,-20.5 146,-20.5"/>
<text text-anchor="middle" x="188.5" y="-27.5" font-family="Helvetica,sans-Serif" font-size="10.00">Ed::ResizePark</text>
</a>
</g>
</g>
<!-- Node4&#45;&gt;Node5 -->
<g id="edge4" class="edge"><title>Node4&#45;&gt;Node5</title>
<path fill="none" stroke="midnightblue" d="M256.374,-30C247.675,-30 239.097,-30 231.135,-30"/>
<polygon fill="midnightblue" stroke="midnightblue" points="256.611,-33.5001 266.611,-30 256.611,-26.5001 256.611,-33.5001"/>
</g>
<!-- Node6 -->
<g id="node6" class="node"><title>Node6</title>
<g id="a_node6"><a xlink:href="../../d2/d84/namespace_ed.html#ab4c4bf774b1e68db92ab0e79d634bf57" target="_top" xlink:title=" ">
<polygon fill="white" stroke="black" points="0,-20.5 0,-39.5 110,-39.5 110,-20.5 0,-20.5"/>
<text text-anchor="middle" x="55" y="-27.5" font-family="Helvetica,sans-Serif" font-size="10.00">Ed::ScriptResizePark</text>
</a>
</g>
</g>
<!-- Node5&#45;&gt;Node6 -->
<g id="edge5" class="edge"><title>Node5&#45;&gt;Node6</title>
<path fill="none" stroke="midnightblue" d="M135.868,-30C127.486,-30 118.784,-30 110.34,-30"/>
<polygon fill="midnightblue" stroke="midnightblue" points="135.893,-33.5001 145.893,-30 135.893,-26.5001 135.893,-33.5001"/>
</g>
</g>
</svg>
