<?xml version="1.0" encoding="UTF-8" standalone="no"?>
<!DOCTYPE svg PUBLIC "-//W3C//DTD SVG 1.1//EN"
 "http://www.w3.org/Graphics/SVG/1.1/DTD/svg11.dtd">
<!-- Generated by graphviz version 2.38.0 (20140413.2041)
 -->
<!-- Title: Game::CGameMode::ShouldAccumulateScore Pages: 1 -->
<svg width="375pt" height="88pt"
 viewBox="0.00 0.00 375.00 88.00" xmlns="http://www.w3.org/2000/svg" xmlns:xlink="http://www.w3.org/1999/xlink">
<g id="graph0" class="graph" transform="scale(1 1) rotate(0) translate(4 84)">
<title>Game::CGameMode::ShouldAccumulateScore</title>
<polygon fill="white" stroke="none" points="-4,4 -4,-84 371,-84 371,4 -4,4"/>
<!-- Node1 -->
<g id="node1" class="node"><title>Node1</title>
<g id="a_node1"><a xlink:title=" ">
<polygon fill="#bfbfbf" stroke="black" points="173,-24.5 173,-54.5 367,-54.5 367,-24.5 173,-24.5"/>
<text text-anchor="start" x="181" y="-42.5" font-family="Helvetica,sans-Serif" font-size="10.00">Game::CGameMode::ShouldAccumulate</text>
<text text-anchor="middle" x="270" y="-31.5" font-family="Helvetica,sans-Serif" font-size="10.00">Score</text>
</a>
</g>
</g>
<!-- Node2 -->
<g id="node2" class="node"><title>Node2</title>
<g id="a_node2"><a xlink:href="../../d2/d8e/class_game_net_1_1_manager.html#af6cbeb0bb185ba70449e1ccfd84ca4e5" target="_top" xlink:title=" ">
<polygon fill="white" stroke="black" points="0,-49.5 0,-79.5 137,-79.5 137,-49.5 0,-49.5"/>
<text text-anchor="start" x="8" y="-67.5" font-family="Helvetica,sans-Serif" font-size="10.00">GameNet::Manager::Should</text>
<text text-anchor="middle" x="68.5" y="-56.5" font-family="Helvetica,sans-Serif" font-size="10.00">SendScoreUpdates</text>
</a>
</g>
</g>
<!-- Node1&#45;&gt;Node2 -->
<g id="edge1" class="edge"><title>Node1&#45;&gt;Node2</title>
<path fill="none" stroke="midnightblue" d="M162.583,-52.8355C153.93,-53.9198 145.344,-54.9957 137.087,-56.0304"/>
<polygon fill="midnightblue" stroke="midnightblue" points="163.269,-56.277 172.756,-51.5606 162.399,-49.3313 163.269,-56.277"/>
</g>
<!-- Node3 -->
<g id="node3" class="node"><title>Node3</title>
<g id="a_node3"><a xlink:href="../../d2/d8e/class_game_net_1_1_manager.html#a3eebd5ab88be7d5369b25890446d5b20" target="_top" xlink:title=" ">
<polygon fill="white" stroke="black" points="0.5,-0.5 0.5,-30.5 136.5,-30.5 136.5,-0.5 0.5,-0.5"/>
<text text-anchor="start" x="8.5" y="-18.5" font-family="Helvetica,sans-Serif" font-size="10.00">GameNet::Manager::Toggle</text>
<text text-anchor="middle" x="68.5" y="-7.5" font-family="Helvetica,sans-Serif" font-size="10.00">Scores</text>
</a>
</g>
</g>
<!-- Node1&#45;&gt;Node3 -->
<g id="edge2" class="edge"><title>Node1&#45;&gt;Node3</title>
<path fill="none" stroke="midnightblue" d="M162.702,-26.7123C153.81,-25.6425 144.987,-24.5811 136.518,-23.5623"/>
<polygon fill="midnightblue" stroke="midnightblue" points="162.41,-30.2023 172.756,-27.9218 163.246,-23.2524 162.41,-30.2023"/>
</g>
</g>
</svg>
