<?xml version="1.0" encoding="UTF-8" standalone="no"?>
<!DOCTYPE svg PUBLIC "-//W3C//DTD SVG 1.1//EN"
 "http://www.w3.org/Graphics/SVG/1.1/DTD/svg11.dtd">
<!-- Generated by graphviz version 2.38.0 (20140413.2041)
 -->
<!-- Title: Nx::CPs2ParticleSmooth::CPs2ParticleSmooth Pages: 1 -->
<svg width="405pt" height="127pt"
 viewBox="0.00 0.00 405.00 127.00" xmlns="http://www.w3.org/2000/svg" xmlns:xlink="http://www.w3.org/1999/xlink">
<g id="graph0" class="graph" transform="scale(1 1) rotate(0) translate(4 123)">
<title>Nx::CPs2ParticleSmooth::CPs2ParticleSmooth</title>
<polygon fill="white" stroke="none" points="-4,4 -4,-123 401,-123 401,4 -4,4"/>
<!-- Node1 -->
<g id="node1" class="node"><title>Node1</title>
<g id="a_node1"><a xlink:title=" ">
<polygon fill="#bfbfbf" stroke="black" points="0,-44.5 0,-74.5 125,-74.5 125,-44.5 0,-44.5"/>
<text text-anchor="start" x="8" y="-62.5" font-family="Helvetica,sans-Serif" font-size="10.00">Nx::CPs2ParticleSmooth</text>
<text text-anchor="middle" x="62.5" y="-51.5" font-family="Helvetica,sans-Serif" font-size="10.00">::CPs2ParticleSmooth</text>
</a>
</g>
</g>
<!-- Node2 -->
<g id="node2" class="node"><title>Node2</title>
<g id="a_node2"><a xlink:href="../../d6/d18/class_nx_1_1_c_ps2_texture.html#adf4c38ccff4b4a3c333c8f99e31ed056" target="_top" xlink:title=" ">
<polygon fill="white" stroke="black" points="161,-88.5 161,-118.5 301,-118.5 301,-88.5 161,-88.5"/>
<text text-anchor="start" x="169" y="-106.5" font-family="Helvetica,sans-Serif" font-size="10.00">Nx::CPs2Texture::GetSingle</text>
<text text-anchor="middle" x="231" y="-95.5" font-family="Helvetica,sans-Serif" font-size="10.00">Texture</text>
</a>
</g>
</g>
<!-- Node1&#45;&gt;Node2 -->
<g id="edge1" class="edge"><title>Node1&#45;&gt;Node2</title>
<path fill="none" stroke="midnightblue" d="M120.334,-74.5192C134.188,-78.1804 149.132,-82.1294 163.395,-85.8987"/>
<polygon fill="midnightblue" stroke="midnightblue" points="162.577,-89.3026 173.139,-88.4738 164.366,-82.5349 162.577,-89.3026"/>
</g>
<!-- Node3 -->
<g id="node3" class="node"><title>Node3</title>
<g id="a_node3"><a xlink:href="../../d1/d37/class_nx_1_1_c_tex_dict.html#ae580a961a82318c752e4ed1b4b1163d6" target="_top" xlink:title=" ">
<polygon fill="white" stroke="black" points="167,-50 167,-69 295,-69 295,-50 167,-50"/>
<text text-anchor="middle" x="231" y="-57" font-family="Helvetica,sans-Serif" font-size="10.00">Nx::CTexDict::GetTexture</text>
</a>
</g>
</g>
<!-- Node1&#45;&gt;Node3 -->
<g id="edge2" class="edge"><title>Node1&#45;&gt;Node3</title>
<path fill="none" stroke="midnightblue" d="M125.025,-59.5C135.345,-59.5 146.143,-59.5 156.724,-59.5"/>
<polygon fill="midnightblue" stroke="midnightblue" points="156.778,-63.0001 166.778,-59.5 156.778,-56.0001 156.778,-63.0001"/>
</g>
<!-- Node5 -->
<g id="node5" class="node"><title>Node5</title>
<g id="a_node5"><a xlink:href="../../d5/d44/class_nx_ps2_1_1_c_immediate_mode.html#ac1a44eb9f99935febd9818b2172dbfad" target="_top" xlink:title=" ">
<polygon fill="white" stroke="black" points="167,-0.5 167,-30.5 295,-30.5 295,-0.5 167,-0.5"/>
<text text-anchor="start" x="175" y="-18.5" font-family="Helvetica,sans-Serif" font-size="10.00">NxPs2::CImmediateMode</text>
<text text-anchor="middle" x="231" y="-7.5" font-family="Helvetica,sans-Serif" font-size="10.00">::sGetTextureBlend</text>
</a>
</g>
</g>
<!-- Node1&#45;&gt;Node5 -->
<g id="edge4" class="edge"><title>Node1&#45;&gt;Node5</title>
<path fill="none" stroke="midnightblue" d="M120.334,-44.4808C134.188,-40.8196 149.132,-36.8706 163.395,-33.1013"/>
<polygon fill="midnightblue" stroke="midnightblue" points="164.366,-36.4651 173.139,-30.5262 162.577,-29.6974 164.366,-36.4651"/>
</g>
<!-- Node4 -->
<g id="node4" class="node"><title>Node4</title>
<g id="a_node4"><a xlink:href="../../df/de2/_messages_8h.html#a771b760c9d0250da6766f107453b9c60" target="_top" xlink:title=" ">
<polygon fill="white" stroke="black" points="337,-50 337,-69 397,-69 397,-50 337,-50"/>
<text text-anchor="middle" x="367" y="-57" font-family="Helvetica,sans-Serif" font-size="10.00">Dbg_Error</text>
</a>
</g>
</g>
<!-- Node3&#45;&gt;Node4 -->
<g id="edge3" class="edge"><title>Node3&#45;&gt;Node4</title>
<path fill="none" stroke="midnightblue" d="M295.076,-59.5C305.959,-59.5 316.979,-59.5 326.985,-59.5"/>
<polygon fill="midnightblue" stroke="midnightblue" points="326.996,-63.0001 336.996,-59.5 326.996,-56.0001 326.996,-63.0001"/>
</g>
</g>
</svg>
