<?xml version="1.0" encoding="UTF-8" standalone="no"?>
<!DOCTYPE svg PUBLIC "-//W3C//DTD SVG 1.1//EN"
 "http://www.w3.org/Graphics/SVG/1.1/DTD/svg11.dtd">
<!-- Generated by graphviz version 2.38.0 (20140413.2041)
 -->
<!-- Title: sce_sound_loop Pages: 1 -->
<svg width="524pt" height="66pt"
 viewBox="0.00 0.00 524.00 66.00" xmlns="http://www.w3.org/2000/svg" xmlns:xlink="http://www.w3.org/1999/xlink">
<g id="graph0" class="graph" transform="scale(1 1) rotate(0) translate(4 62)">
<title>sce_sound_loop</title>
<polygon fill="white" stroke="none" points="-4,4 -4,-62 520,-62 520,4 -4,4"/>
<!-- Node1 -->
<g id="node1" class="node"><title>Node1</title>
<g id="a_node1"><a xlink:title=" ">
<polygon fill="#bfbfbf" stroke="black" points="0,-19.5 0,-38.5 87,-38.5 87,-19.5 0,-19.5"/>
<text text-anchor="middle" x="43.5" y="-26.5" font-family="Helvetica,sans-Serif" font-size="10.00">sce_sound_loop</text>
</a>
</g>
</g>
<!-- Node2 -->
<g id="node2" class="node"><title>Node2</title>
<g id="a_node2"><a xlink:href="../../d2/db2/pcm__sound_8c.html#a174a9414d6b4c8e1bcb3f731957cd8a3" target="_top" xlink:title=" ">
<polygon fill="white" stroke="black" points="124,-38.5 124,-57.5 244,-57.5 244,-38.5 124,-38.5"/>
<text text-anchor="middle" x="184" y="-45.5" font-family="Helvetica,sans-Serif" font-size="10.00">execute_sound_request</text>
</a>
</g>
</g>
<!-- Node1&#45;&gt;Node2 -->
<g id="edge1" class="edge"><title>Node1&#45;&gt;Node2</title>
<path fill="none" stroke="midnightblue" d="M87.1847,-34.8557C95.6159,-36.0123 104.666,-37.2539 113.718,-38.4956"/>
<polygon fill="midnightblue" stroke="midnightblue" points="113.521,-42.0013 123.904,-39.893 114.473,-35.0663 113.521,-42.0013"/>
</g>
<!-- Node5 -->
<g id="node5" class="node"><title>Node5</title>
<g id="a_node5"><a xlink:href="../../d2/db2/pcm__sound_8c.html#a8806d905cdd23cf0e746ec319ee39f81" target="_top" xlink:title=" ">
<polygon fill="white" stroke="black" points="123,-0.5 123,-19.5 245,-19.5 245,-0.5 123,-0.5"/>
<text text-anchor="middle" x="184" y="-7.5" font-family="Helvetica,sans-Serif" font-size="10.00">sound_request_callback</text>
</a>
</g>
</g>
<!-- Node1&#45;&gt;Node5 -->
<g id="edge4" class="edge"><title>Node1&#45;&gt;Node5</title>
<path fill="none" stroke="midnightblue" d="M87.1847,-23.1443C95.385,-22.0194 104.171,-20.8141 112.974,-19.6065"/>
<polygon fill="midnightblue" stroke="midnightblue" points="113.458,-23.073 122.889,-18.2463 112.506,-16.1379 113.458,-23.073"/>
</g>
<!-- Node3 -->
<g id="node3" class="node"><title>Node3</title>
<g id="a_node3"><a xlink:href="../../d2/db2/pcm__sound_8c.html#a5ac5f8212b6d028878cc4602b8b1dedc" target="_top" xlink:title=" ">
<polygon fill="white" stroke="black" points="281,-38.5 281,-57.5 376,-57.5 376,-38.5 281,-38.5"/>
<text text-anchor="middle" x="328.5" y="-45.5" font-family="Helvetica,sans-Serif" font-size="10.00">queue_set_switch</text>
</a>
</g>
</g>
<!-- Node2&#45;&gt;Node3 -->
<g id="edge2" class="edge"><title>Node2&#45;&gt;Node3</title>
<path fill="none" stroke="midnightblue" d="M244.195,-48C252.989,-48 262.035,-48 270.776,-48"/>
<polygon fill="midnightblue" stroke="midnightblue" points="270.865,-51.5001 280.865,-48 270.865,-44.5001 270.865,-51.5001"/>
</g>
<!-- Node4 -->
<g id="node4" class="node"><title>Node4</title>
<g id="a_node4"><a xlink:href="../../d2/db2/pcm__sound_8c.html#a049035dac746e6937111199bd2fd91a7" target="_top" xlink:title=" ">
<polygon fill="white" stroke="black" points="412,-38.5 412,-57.5 516,-57.5 516,-38.5 412,-38.5"/>
<text text-anchor="middle" x="464" y="-45.5" font-family="Helvetica,sans-Serif" font-size="10.00">switch_set_callback</text>
</a>
</g>
</g>
<!-- Node3&#45;&gt;Node4 -->
<g id="edge3" class="edge"><title>Node3&#45;&gt;Node4</title>
<path fill="none" stroke="midnightblue" d="M376.192,-48C384.317,-48 392.88,-48 401.333,-48"/>
<polygon fill="midnightblue" stroke="midnightblue" points="401.553,-51.5001 411.553,-48 401.552,-44.5001 401.553,-51.5001"/>
</g>
</g>
</svg>
