<?xml version="1.0" encoding="UTF-8" standalone="no"?>
<!DOCTYPE svg PUBLIC "-//W3C//DTD SVG 1.1//EN"
 "http://www.w3.org/Graphics/SVG/1.1/DTD/svg11.dtd">
<!-- Generated by graphviz version 2.38.0 (20140413.2041)
 -->
<!-- Title: Obj::CSkeletonComponent::init_skeleton Pages: 1 -->
<svg width="1310pt" height="72pt"
 viewBox="0.00 0.00 1310.00 71.50" xmlns="http://www.w3.org/2000/svg" xmlns:xlink="http://www.w3.org/1999/xlink">
<g id="graph0" class="graph" transform="scale(1 1) rotate(0) translate(4 67.5)">
<title>Obj::CSkeletonComponent::init_skeleton</title>
<polygon fill="white" stroke="none" points="-4,4 -4,-67.5 1306,-67.5 1306,4 -4,4"/>
<!-- Node1 -->
<g id="node1" class="node"><title>Node1</title>
<g id="a_node1"><a xlink:title=" ">
<polygon fill="#bfbfbf" stroke="black" points="1170,-14 1170,-44 1302,-44 1302,-14 1170,-14"/>
<text text-anchor="start" x="1178" y="-32" font-family="Helvetica,sans-Serif" font-size="10.00">Obj::CSkeletonComponent</text>
<text text-anchor="middle" x="1236" y="-21" font-family="Helvetica,sans-Serif" font-size="10.00">::init_skeleton</text>
</a>
</g>
</g>
<!-- Node2 -->
<g id="node2" class="node"><title>Node2</title>
<g id="a_node2"><a xlink:href="../../dc/dc6/class_obj_1_1_c_skeleton_component.html#a89ac6c2153c51b31e14b85ef6e16e729" target="_top" xlink:title=" ">
<polygon fill="white" stroke="black" points="1002,-14 1002,-44 1134,-44 1134,-14 1002,-14"/>
<text text-anchor="start" x="1010" y="-32" font-family="Helvetica,sans-Serif" font-size="10.00">Obj::CSkeletonComponent</text>
<text text-anchor="middle" x="1068" y="-21" font-family="Helvetica,sans-Serif" font-size="10.00">::InitFromStructure</text>
</a>
</g>
</g>
<!-- Node1&#45;&gt;Node2 -->
<g id="edge1" class="edge"><title>Node1&#45;&gt;Node2</title>
<path fill="none" stroke="midnightblue" d="M1159.61,-29C1151.13,-29 1142.55,-29 1134.22,-29"/>
<polygon fill="midnightblue" stroke="midnightblue" points="1159.87,-32.5001 1169.87,-29 1159.87,-25.5001 1159.87,-32.5001"/>
</g>
<!-- Node3 -->
<g id="node3" class="node"><title>Node3</title>
<g id="a_node3"><a xlink:href="../../d3/d7d/class_replay_1_1_c_dummy.html#a9be7ff5338d231a215c3d17f4ea978e8" target="_top" xlink:title=" ">
<polygon fill="white" stroke="black" points="808,-19.5 808,-38.5 966,-38.5 966,-19.5 808,-19.5"/>
<text text-anchor="middle" x="887" y="-26.5" font-family="Helvetica,sans-Serif" font-size="10.00">Replay::CDummy::LoadSkeleton</text>
</a>
</g>
</g>
<!-- Node2&#45;&gt;Node3 -->
<g id="edge2" class="edge"><title>Node2&#45;&gt;Node3</title>
<path fill="none" stroke="midnightblue" d="M991.688,-29C983.252,-29 974.645,-29 966.174,-29"/>
<polygon fill="midnightblue" stroke="midnightblue" points="991.871,-32.5001 1001.87,-29 991.87,-25.5001 991.871,-32.5001"/>
</g>
<!-- Node4 -->
<g id="node4" class="node"><title>Node4</title>
<g id="a_node4"><a xlink:href="../../d3/d7d/class_replay_1_1_c_dummy.html#a9fbff2972a978e124791889a5fd4e1a9" target="_top" xlink:title=" ">
<polygon fill="white" stroke="black" points="618,-19.5 618,-38.5 772,-38.5 772,-19.5 618,-19.5"/>
<text text-anchor="middle" x="695" y="-26.5" font-family="Helvetica,sans-Serif" font-size="10.00">Replay::CDummy::CreateModel</text>
</a>
</g>
</g>
<!-- Node3&#45;&gt;Node4 -->
<g id="edge3" class="edge"><title>Node3&#45;&gt;Node4</title>
<path fill="none" stroke="midnightblue" d="M797.619,-29C789.148,-29 780.607,-29 772.267,-29"/>
<polygon fill="midnightblue" stroke="midnightblue" points="797.897,-32.5001 807.897,-29 797.897,-25.5001 797.897,-32.5001"/>
</g>
<!-- Node5 -->
<g id="node5" class="node"><title>Node5</title>
<g id="a_node5"><a xlink:href="../../d9/d29/namespace_replay.html#ab958f356e35a428381832faece7332ce" target="_top" xlink:title=" ">
<polygon fill="white" stroke="black" points="474,-19.5 474,-38.5 582,-38.5 582,-19.5 474,-19.5"/>
<text text-anchor="middle" x="528" y="-26.5" font-family="Helvetica,sans-Serif" font-size="10.00">Replay::sReadFrame</text>
</a>
</g>
</g>
<!-- Node4&#45;&gt;Node5 -->
<g id="edge4" class="edge"><title>Node4&#45;&gt;Node5</title>
<path fill="none" stroke="midnightblue" d="M607.642,-29C599.01,-29 590.435,-29 582.295,-29"/>
<polygon fill="midnightblue" stroke="midnightblue" points="607.779,-32.5001 617.779,-29 607.779,-25.5001 607.779,-32.5001"/>
</g>
<!-- Node6 -->
<g id="node6" class="node"><title>Node6</title>
<g id="a_node6"><a xlink:href="../../d9/d29/namespace_replay.html#a87e015fff19e95eb8991d6f168e06823" target="_top" xlink:title=" ">
<polygon fill="white" stroke="black" points="295,-38.5 295,-57.5 438,-57.5 438,-38.5 295,-38.5"/>
<text text-anchor="middle" x="366.5" y="-45.5" font-family="Helvetica,sans-Serif" font-size="10.00">Replay::sMakeEnoughSpace</text>
</a>
</g>
</g>
<!-- Node5&#45;&gt;Node6 -->
<g id="edge5" class="edge"><title>Node5&#45;&gt;Node6</title>
<path fill="none" stroke="midnightblue" d="M463.807,-36.5277C455.416,-37.5272 446.769,-38.5573 438.261,-39.5708"/>
<polygon fill="midnightblue" stroke="midnightblue" points="464.373,-39.9851 473.889,-35.3267 463.545,-33.0342 464.373,-39.9851"/>
</g>
<!-- Node9 -->
<g id="node9" class="node"><title>Node9</title>
<g id="a_node9"><a xlink:href="../../d9/d29/namespace_replay.html#a7c426768aee4425e84f478183ed653be" target="_top" xlink:title=" ">
<polygon fill="white" stroke="black" points="317.5,-0.5 317.5,-19.5 415.5,-19.5 415.5,-0.5 317.5,-0.5"/>
<text text-anchor="middle" x="366.5" y="-7.5" font-family="Helvetica,sans-Serif" font-size="10.00">Replay::sPlayback</text>
</a>
</g>
</g>
<!-- Node5&#45;&gt;Node9 -->
<g id="edge8" class="edge"><title>Node5&#45;&gt;Node9</title>
<path fill="none" stroke="midnightblue" d="M463.539,-21.4404C447.546,-19.5353 430.64,-17.5214 415.545,-15.7232"/>
<polygon fill="midnightblue" stroke="midnightblue" points="463.545,-24.9658 473.889,-22.6733 464.373,-18.0149 463.545,-24.9658"/>
</g>
<!-- Node7 -->
<g id="node7" class="node"><title>Node7</title>
<g id="a_node7"><a xlink:href="../../d9/d29/namespace_replay.html#a5f4fc112127bbc87811481da0684a15b" target="_top" xlink:title=" ">
<polygon fill="white" stroke="black" points="125,-33 125,-63 259,-63 259,-33 125,-33"/>
<text text-anchor="start" x="133" y="-51" font-family="Helvetica,sans-Serif" font-size="10.00">Replay::sWriteFrameBuffer</text>
<text text-anchor="middle" x="192" y="-40" font-family="Helvetica,sans-Serif" font-size="10.00">ToBigBuffer</text>
</a>
</g>
</g>
<!-- Node6&#45;&gt;Node7 -->
<g id="edge6" class="edge"><title>Node6&#45;&gt;Node7</title>
<path fill="none" stroke="midnightblue" d="M284.795,-48C276.191,-48 267.513,-48 259.106,-48"/>
<polygon fill="midnightblue" stroke="midnightblue" points="284.84,-51.5001 294.84,-48 284.84,-44.5001 284.84,-51.5001"/>
</g>
<!-- Node8 -->
<g id="node8" class="node"><title>Node8</title>
<g id="a_node8"><a xlink:href="../../d9/d29/namespace_replay.html#a53570fbf15aa6e28548d69a1b6c7a1b9" target="_top" xlink:title=" ">
<polygon fill="white" stroke="black" points="0,-38.5 0,-57.5 89,-57.5 89,-38.5 0,-38.5"/>
<text text-anchor="middle" x="44.5" y="-45.5" font-family="Helvetica,sans-Serif" font-size="10.00">Replay::sRecord</text>
</a>
</g>
</g>
<!-- Node7&#45;&gt;Node8 -->
<g id="edge7" class="edge"><title>Node7&#45;&gt;Node8</title>
<path fill="none" stroke="midnightblue" d="M114.492,-48C105.854,-48 97.2861,-48 89.2781,-48"/>
<polygon fill="midnightblue" stroke="midnightblue" points="114.637,-51.5001 124.637,-48 114.637,-44.5001 114.637,-51.5001"/>
</g>
</g>
</svg>
