<?xml version="1.0" encoding="UTF-8" standalone="no"?>
<!DOCTYPE svg PUBLIC "-//W3C//DTD SVG 1.1//EN"
 "http://www.w3.org/Graphics/SVG/1.1/DTD/svg11.dtd">
<!-- Generated by graphviz version 2.38.0 (20140413.2041)
 -->
<!-- Title: NxXbox::get_bounding_sphere_nearest_z Pages: 1 -->
<svg width="1055pt" height="138pt"
 viewBox="0.00 0.00 1055.00 137.50" xmlns="http://www.w3.org/2000/svg" xmlns:xlink="http://www.w3.org/1999/xlink">
<g id="graph0" class="graph" transform="scale(1 1) rotate(0) translate(4 133.5)">
<title>NxXbox::get_bounding_sphere_nearest_z</title>
<polygon fill="white" stroke="none" points="-4,4 -4,-133.5 1051,-133.5 1051,4 -4,4"/>
<!-- Node1 -->
<g id="node1" class="node"><title>Node1</title>
<g id="a_node1"><a xlink:title=" ">
<polygon fill="#bfbfbf" stroke="black" points="934,-44.5 934,-74.5 1047,-74.5 1047,-44.5 934,-44.5"/>
<text text-anchor="start" x="942" y="-62.5" font-family="Helvetica,sans-Serif" font-size="10.00">NxXbox::get_bounding</text>
<text text-anchor="middle" x="990.5" y="-51.5" font-family="Helvetica,sans-Serif" font-size="10.00">_sphere_nearest_z</text>
</a>
</g>
</g>
<!-- Node2 -->
<g id="node2" class="node"><title>Node2</title>
<g id="a_node2"><a xlink:href="../../d6/d5e/struct_nx_xbox_1_1s_mesh.html#ad9c80b702b23f40b32ab19f59e98030c" target="_top" xlink:title=" ">
<polygon fill="white" stroke="black" points="776,-50 776,-69 898,-69 898,-50 776,-50"/>
<text text-anchor="middle" x="837" y="-57" font-family="Helvetica,sans-Serif" font-size="10.00">NxXbox::sMesh::Submit</text>
</a>
</g>
</g>
<!-- Node1&#45;&gt;Node2 -->
<g id="edge1" class="edge"><title>Node1&#45;&gt;Node2</title>
<path fill="none" stroke="midnightblue" d="M923.698,-59.5C915.202,-59.5 906.537,-59.5 898.139,-59.5"/>
<polygon fill="midnightblue" stroke="midnightblue" points="923.947,-63.0001 933.947,-59.5 923.947,-56.0001 923.947,-63.0001"/>
</g>
<!-- Node3 -->
<g id="node3" class="node"><title>Node3</title>
<g id="a_node3"><a xlink:href="../../d3/d34/class_nx_1_1_c_xbox_imposter_group.html#a6bd3301f706cff8e8296a05efd883d6a" target="_top" xlink:title=" ">
<polygon fill="white" stroke="black" points="614,-88 614,-129 740,-129 740,-88 614,-88"/>
<text text-anchor="start" x="622" y="-117" font-family="Helvetica,sans-Serif" font-size="10.00">Nx::CXboxImposterGroup</text>
<text text-anchor="start" x="622" y="-106" font-family="Helvetica,sans-Serif" font-size="10.00">::plat_create_imposter</text>
<text text-anchor="middle" x="677" y="-95" font-family="Helvetica,sans-Serif" font-size="10.00">_polygon</text>
</a>
</g>
</g>
<!-- Node2&#45;&gt;Node3 -->
<g id="edge2" class="edge"><title>Node2&#45;&gt;Node3</title>
<path fill="none" stroke="midnightblue" d="M795.155,-72.167C778.398,-77.3638 758.627,-83.4954 740.146,-89.2268"/>
<polygon fill="midnightblue" stroke="midnightblue" points="796.646,-75.3691 805.161,-69.064 794.573,-68.6832 796.646,-75.3691"/>
</g>
<!-- Node4 -->
<g id="node4" class="node"><title>Node4</title>
<g id="a_node4"><a xlink:href="../../d4/ddf/namespace_nx_xbox.html#aeea1e1820132824403fc768475ceb9bd" target="_top" xlink:title=" ">
<polygon fill="white" stroke="black" points="464,-28 464,-47 578,-47 578,-28 464,-28"/>
<text text-anchor="middle" x="521" y="-35" font-family="Helvetica,sans-Serif" font-size="10.00">NxXbox::render_scene</text>
</a>
</g>
</g>
<!-- Node2&#45;&gt;Node4 -->
<g id="edge3" class="edge"><title>Node2&#45;&gt;Node4</title>
<path fill="none" stroke="midnightblue" d="M765.52,-54.5619C708.886,-50.5939 630.412,-45.0957 578.012,-41.4244"/>
<polygon fill="midnightblue" stroke="midnightblue" points="765.609,-58.0766 775.829,-55.2842 766.098,-51.0938 765.609,-58.0766"/>
</g>
<!-- Node9 -->
<g id="node9" class="node"><title>Node9</title>
<g id="a_node9"><a xlink:href="../../d4/ddf/namespace_nx_xbox.html#ae70008dfca7687cc6c44df1dd8238da4" target="_top" xlink:title=" ">
<polygon fill="white" stroke="black" points="616.5,-0.5 616.5,-30.5 737.5,-30.5 737.5,-0.5 616.5,-0.5"/>
<text text-anchor="start" x="624.5" y="-18.5" font-family="Helvetica,sans-Serif" font-size="10.00">NxXbox::render_shadow</text>
<text text-anchor="middle" x="677" y="-7.5" font-family="Helvetica,sans-Serif" font-size="10.00">_volumes</text>
</a>
</g>
</g>
<!-- Node2&#45;&gt;Node9 -->
<g id="edge8" class="edge"><title>Node2&#45;&gt;Node9</title>
<path fill="none" stroke="midnightblue" d="M792.047,-47.2598C773.47,-42.0866 751.651,-36.0103 732.098,-30.5654"/>
<polygon fill="midnightblue" stroke="midnightblue" points="791.144,-50.6416 801.716,-49.9527 793.022,-43.8982 791.144,-50.6416"/>
</g>
<!-- Node5 -->
<g id="node5" class="node"><title>Node5</title>
<g id="a_node5"><a xlink:href="../../d8/d5a/class_nx_xbox_1_1_c_instance.html#af4f8c3af9a44b5bf9954ed7b93fda4f5" target="_top" xlink:title=" ">
<polygon fill="white" stroke="black" points="323,-22.5 323,-52.5 428,-52.5 428,-22.5 323,-22.5"/>
<text text-anchor="start" x="331" y="-40.5" font-family="Helvetica,sans-Serif" font-size="10.00">NxXbox::CInstance::</text>
<text text-anchor="middle" x="375.5" y="-29.5" font-family="Helvetica,sans-Serif" font-size="10.00">Render</text>
</a>
</g>
</g>
<!-- Node4&#45;&gt;Node5 -->
<g id="edge4" class="edge"><title>Node4&#45;&gt;Node5</title>
<path fill="none" stroke="midnightblue" d="M453.508,-37.5C445.091,-37.5 436.576,-37.5 428.43,-37.5"/>
<polygon fill="midnightblue" stroke="midnightblue" points="453.697,-41.0001 463.697,-37.5 453.697,-34.0001 453.697,-41.0001"/>
</g>
<!-- Node6 -->
<g id="node6" class="node"><title>Node6</title>
<g id="a_node6"><a xlink:href="../../d4/ddf/namespace_nx_xbox.html#a91b8baea31ab13e2cfc7a29edeccc56d" target="_top" xlink:title=" ">
<polygon fill="white" stroke="black" points="159.5,-47 159.5,-66 284.5,-66 284.5,-47 159.5,-47"/>
<text text-anchor="middle" x="222" y="-54" font-family="Helvetica,sans-Serif" font-size="10.00">NxXbox::render_instance</text>
</a>
</g>
</g>
<!-- Node5&#45;&gt;Node6 -->
<g id="edge5" class="edge"><title>Node5&#45;&gt;Node6</title>
<path fill="none" stroke="midnightblue" d="M312.847,-45.232C303.557,-46.3972 293.973,-47.5991 284.681,-48.7644"/>
<polygon fill="midnightblue" stroke="midnightblue" points="313.299,-48.7028 322.786,-43.9856 312.428,-41.7572 313.299,-48.7028"/>
</g>
<!-- Node8 -->
<g id="node8" class="node"><title>Node8</title>
<g id="a_node8"><a xlink:href="../../d4/ddf/namespace_nx_xbox.html#a89d339689c1b2b21b0c02e078a15aaae" target="_top" xlink:title=" ">
<polygon fill="white" stroke="black" points="157,-9 157,-28 287,-28 287,-9 157,-9"/>
<text text-anchor="middle" x="222" y="-16" font-family="Helvetica,sans-Serif" font-size="10.00">NxXbox::render_instances</text>
</a>
</g>
</g>
<!-- Node5&#45;&gt;Node8 -->
<g id="edge7" class="edge"><title>Node5&#45;&gt;Node8</title>
<path fill="none" stroke="midnightblue" d="M312.648,-29.743C304.216,-28.6856 295.547,-27.5983 287.076,-26.536"/>
<polygon fill="midnightblue" stroke="midnightblue" points="312.428,-33.2428 322.786,-31.0144 313.299,-26.2972 312.428,-33.2428"/>
</g>
<!-- Node7 -->
<g id="node7" class="node"><title>Node7</title>
<g id="a_node7"><a xlink:href="../../d4/ddf/namespace_nx_xbox.html#aee13fac116b7ebed7014e72e74e591b8" target="_top" xlink:title=" ">
<polygon fill="white" stroke="black" points="0,-41.5 0,-71.5 121,-71.5 121,-41.5 0,-41.5"/>
<text text-anchor="start" x="8" y="-59.5" font-family="Helvetica,sans-Serif" font-size="10.00">NxXbox::render_shadow</text>
<text text-anchor="middle" x="60.5" y="-48.5" font-family="Helvetica,sans-Serif" font-size="10.00">_targets</text>
</a>
</g>
</g>
<!-- Node6&#45;&gt;Node7 -->
<g id="edge6" class="edge"><title>Node6&#45;&gt;Node7</title>
<path fill="none" stroke="midnightblue" d="M149.235,-56.5C139.853,-56.5 130.321,-56.5 121.167,-56.5"/>
<polygon fill="midnightblue" stroke="midnightblue" points="149.333,-60.0001 159.333,-56.5 149.333,-53.0001 149.333,-60.0001"/>
</g>
<!-- Node9&#45;&gt;Node4 -->
<g id="edge9" class="edge"><title>Node9&#45;&gt;Node4</title>
<path fill="none" stroke="midnightblue" d="M606.298,-25.4575C596.854,-26.8066 587.263,-28.1768 578.099,-29.4859"/>
<polygon fill="midnightblue" stroke="midnightblue" points="607.055,-28.8849 616.46,-24.0058 606.065,-21.9552 607.055,-28.8849"/>
</g>
</g>
</svg>
