<?xml version="1.0" encoding="UTF-8" standalone="no"?>
<!DOCTYPE svg PUBLIC "-//W3C//DTD SVG 1.1//EN"
 "http://www.w3.org/Graphics/SVG/1.1/DTD/svg11.dtd">
<!-- Generated by graphviz version 2.38.0 (20140413.2041)
 -->
<!-- Title: NxXbox::InitialiseRenderstates Pages: 1 -->
<svg width="467pt" height="88pt"
 viewBox="0.00 0.00 467.00 88.00" xmlns="http://www.w3.org/2000/svg" xmlns:xlink="http://www.w3.org/1999/xlink">
<g id="graph0" class="graph" transform="scale(1 1) rotate(0) translate(4 84)">
<title>NxXbox::InitialiseRenderstates</title>
<polygon fill="white" stroke="none" points="-4,4 -4,-84 463,-84 463,4 -4,4"/>
<!-- Node1 -->
<g id="node1" class="node"><title>Node1</title>
<g id="a_node1"><a xlink:title=" ">
<polygon fill="#bfbfbf" stroke="black" points="0,-30 0,-49 149,-49 149,-30 0,-30"/>
<text text-anchor="middle" x="74.5" y="-37" font-family="Helvetica,sans-Serif" font-size="10.00">NxXbox::InitialiseRenderstates</text>
</a>
</g>
</g>
<!-- Node2 -->
<g id="node2" class="node"><title>Node2</title>
<g id="a_node2"><a xlink:href="../../d4/ddf/namespace_nx_xbox.html#ae5b1a9606767f4937452c08a6d91d0fa" target="_top" xlink:title=" ">
<polygon fill="white" stroke="black" points="205.5,-49.5 205.5,-79.5 313.5,-79.5 313.5,-49.5 205.5,-49.5"/>
<text text-anchor="start" x="213.5" y="-67.5" font-family="Helvetica,sans-Serif" font-size="10.00">NxXbox::create_pixel</text>
<text text-anchor="middle" x="259.5" y="-56.5" font-family="Helvetica,sans-Serif" font-size="10.00">_shaders</text>
</a>
</g>
</g>
<!-- Node1&#45;&gt;Node2 -->
<g id="edge1" class="edge"><title>Node1&#45;&gt;Node2</title>
<path fill="none" stroke="midnightblue" d="M145.206,-49.0227C161.769,-51.2853 179.342,-53.6861 195.581,-55.9044"/>
<polygon fill="midnightblue" stroke="midnightblue" points="195.116,-59.3734 205.498,-57.2593 196.064,-52.4378 195.116,-59.3734"/>
</g>
<!-- Node4 -->
<g id="node4" class="node"><title>Node4</title>
<g id="a_node4"><a xlink:href="../../d4/ddf/namespace_nx_xbox.html#a1253919e68002c380d8b4432d095db86" target="_top" xlink:title=" ">
<polygon fill="white" stroke="black" points="185,-0.5 185,-30.5 334,-30.5 334,-0.5 185,-0.5"/>
<text text-anchor="start" x="193" y="-18.5" font-family="Helvetica,sans-Serif" font-size="10.00">NxXbox::CreateWeightedMesh</text>
<text text-anchor="middle" x="259.5" y="-7.5" font-family="Helvetica,sans-Serif" font-size="10.00">VertexShaders</text>
</a>
</g>
</g>
<!-- Node1&#45;&gt;Node4 -->
<g id="edge3" class="edge"><title>Node1&#45;&gt;Node4</title>
<path fill="none" stroke="midnightblue" d="M148.089,-29.9801C156.862,-28.8295 165.878,-27.6472 174.794,-26.4779"/>
<polygon fill="midnightblue" stroke="midnightblue" points="175.34,-29.9363 184.8,-25.1656 174.43,-22.9957 175.34,-29.9363"/>
</g>
<!-- Node3 -->
<g id="node3" class="node"><title>Node3</title>
<g id="a_node3"><a xlink:href="../../d1/d08/class_mth_1_1_vector.html#aeb3fc85704c5e3811b7dd4bebff78b3f" target="_top" xlink:title=" ">
<polygon fill="white" stroke="black" points="370,-55 370,-74 459,-74 459,-55 370,-55"/>
<text text-anchor="middle" x="414.5" y="-62" font-family="Helvetica,sans-Serif" font-size="10.00">Mth::Vector::Set</text>
</a>
</g>
</g>
<!-- Node2&#45;&gt;Node3 -->
<g id="edge2" class="edge"><title>Node2&#45;&gt;Node3</title>
<path fill="none" stroke="midnightblue" d="M313.583,-64.5C328.449,-64.5 344.622,-64.5 359.539,-64.5"/>
<polygon fill="midnightblue" stroke="midnightblue" points="359.634,-68.0001 369.634,-64.5 359.634,-61.0001 359.634,-68.0001"/>
</g>
</g>
</svg>
