<?xml version="1.0" encoding="UTF-8" standalone="no"?>
<!DOCTYPE svg PUBLIC "-//W3C//DTD SVG 1.1//EN"
 "http://www.w3.org/Graphics/SVG/1.1/DTD/svg11.dtd">
<!-- Generated by graphviz version 2.38.0 (20140413.2041)
 -->
<!-- Title: NxXbox::filter_copy Pages: 1 -->
<svg width="273pt" height="166pt"
 viewBox="0.00 0.00 273.00 165.50" xmlns="http://www.w3.org/2000/svg" xmlns:xlink="http://www.w3.org/1999/xlink">
<g id="graph0" class="graph" transform="scale(1 1) rotate(0) translate(4 161.5)">
<title>NxXbox::filter_copy</title>
<polygon fill="white" stroke="none" points="-4,4 -4,-161.5 269,-161.5 269,4 -4,4"/>
<!-- Node1 -->
<g id="node1" class="node"><title>Node1</title>
<g id="a_node1"><a xlink:title=" ">
<polygon fill="#bfbfbf" stroke="black" points="0,-72 0,-91 100,-91 100,-72 0,-72"/>
<text text-anchor="middle" x="50" y="-79" font-family="Helvetica,sans-Serif" font-size="10.00">NxXbox::filter_copy</text>
</a>
</g>
</g>
<!-- Node2 -->
<g id="node2" class="node"><title>Node2</title>
<g id="a_node2"><a xlink:href="../../d4/ddf/namespace_nx_xbox.html#a7ab2d41a1053bd29a3a2c75c04983c56" target="_top" xlink:title=" ">
<polygon fill="white" stroke="black" points="136,-138 136,-157 265,-157 265,-138 136,-138"/>
<text text-anchor="middle" x="200.5" y="-145" font-family="Helvetica,sans-Serif" font-size="10.00">NxXbox::set_pixel_shader</text>
</a>
</g>
</g>
<!-- Node1&#45;&gt;Node2 -->
<g id="edge1" class="edge"><title>Node1&#45;&gt;Node2</title>
<path fill="none" stroke="midnightblue" d="M65.8625,-91.0074C82.454,-101.31 110.35,-117.718 136,-128.5 141.437,-130.785 147.242,-132.917 153.049,-134.865"/>
<polygon fill="midnightblue" stroke="midnightblue" points="152.171,-138.259 162.761,-137.965 154.299,-131.59 152.171,-138.259"/>
</g>
<!-- Node3 -->
<g id="node3" class="node"><title>Node3</title>
<g id="a_node3"><a xlink:href="../../d4/ddf/namespace_nx_xbox.html#af169397368451c254aef09298bec304a" target="_top" xlink:title=" ">
<polygon fill="white" stroke="black" points="150,-88.5 150,-118.5 251,-118.5 251,-88.5 150,-88.5"/>
<text text-anchor="start" x="158" y="-106.5" font-family="Helvetica,sans-Serif" font-size="10.00">NxXbox::set_render</text>
<text text-anchor="middle" x="200.5" y="-95.5" font-family="Helvetica,sans-Serif" font-size="10.00">_state</text>
</a>
</g>
</g>
<!-- Node1&#45;&gt;Node3 -->
<g id="edge2" class="edge"><title>Node1&#45;&gt;Node3</title>
<path fill="none" stroke="midnightblue" d="M100.036,-88.7646C112.76,-90.6496 126.605,-92.7007 139.81,-94.657"/>
<polygon fill="midnightblue" stroke="midnightblue" points="139.349,-98.1269 149.754,-96.1302 140.375,-91.2024 139.349,-98.1269"/>
</g>
<!-- Node4 -->
<g id="node4" class="node"><title>Node4</title>
<g id="a_node4"><a xlink:href="../../d4/ddf/namespace_nx_xbox.html#abc37345517638e477d4e5ebde2044ac9" target="_top" xlink:title=" ">
<polygon fill="white" stroke="black" points="148.5,-50 148.5,-69 252.5,-69 252.5,-50 148.5,-50"/>
<text text-anchor="middle" x="200.5" y="-57" font-family="Helvetica,sans-Serif" font-size="10.00">NxXbox::set_texture</text>
</a>
</g>
</g>
<!-- Node1&#45;&gt;Node4 -->
<g id="edge3" class="edge"><title>Node1&#45;&gt;Node4</title>
<path fill="none" stroke="midnightblue" d="M100.036,-74.2354C112.302,-72.4183 125.609,-70.4468 138.381,-68.5546"/>
<polygon fill="midnightblue" stroke="midnightblue" points="139.1,-71.9864 148.479,-67.0586 138.074,-65.062 139.1,-71.9864"/>
</g>
<!-- Node5 -->
<g id="node5" class="node"><title>Node5</title>
<g id="a_node5"><a xlink:href="../../d4/ddf/namespace_nx_xbox.html#a26eda17b0f46b5f5b914f683b8af7e77" target="_top" xlink:title=" ">
<polygon fill="white" stroke="black" points="150.5,-0.5 150.5,-30.5 250.5,-30.5 250.5,-0.5 150.5,-0.5"/>
<text text-anchor="start" x="158.5" y="-18.5" font-family="Helvetica,sans-Serif" font-size="10.00">NxXbox::set_vertex</text>
<text text-anchor="middle" x="200.5" y="-7.5" font-family="Helvetica,sans-Serif" font-size="10.00">_shader</text>
</a>
</g>
</g>
<!-- Node1&#45;&gt;Node5 -->
<g id="edge4" class="edge"><title>Node1&#45;&gt;Node5</title>
<path fill="none" stroke="midnightblue" d="M69.719,-71.9749C86.8187,-63.3929 112.883,-50.6094 136,-40.5 140.697,-38.4461 145.619,-36.3724 150.558,-34.3442"/>
<polygon fill="midnightblue" stroke="midnightblue" points="152.061,-37.5118 160.019,-30.5172 149.436,-31.0226 152.061,-37.5118"/>
</g>
</g>
</svg>
