<?xml version="1.0" encoding="UTF-8" standalone="no"?>
<!DOCTYPE svg PUBLIC "-//W3C//DTD SVG 1.1//EN"
 "http://www.w3.org/Graphics/SVG/1.1/DTD/svg11.dtd">
<!-- Generated by graphviz version 2.38.0 (20140413.2041)
 -->
<!-- Title: Ed::CGapManager::sInstance Pages: 1 -->
<!--zoomable 350 -->
<svg id="main" version="1.1" xmlns="http://www.w3.org/2000/svg" xmlns:xlink="http://www.w3.org/1999/xlink" xml:space="preserve" onload="init(evt)">
<style type="text/css"><![CDATA[
.edge:hover path { stroke: red; }
.edge:hover polygon { stroke: red; fill: red; }
]]></style>
<script type="text/javascript"><![CDATA[
var edges = document.getElementsByTagName('g');
if (edges && edges.length) {
  for (var i=0;i<edges.length;i++) {
    if (edges[i].id.substr(0,4)=='edge') {
      edges[i].setAttribute('class','edge');
    }
  }
}
]]></script>
        <defs>
                <circle id="rim" cx="0" cy="0" r="7"/>
                <circle id="rim2" cx="0" cy="0" r="3.5"/>
                <g id="zoomPlus">
                        <use xlink:href="#rim" fill="#404040">
                                <set attributeName="fill" to="#808080" begin="zoomplus.mouseover" end="zoomplus.mouseout"/>
                        </use>
                        <path d="M-4,0h8M0,-4v8" fill="none" stroke="white" stroke-width="1.5" pointer-events="none"/>
                </g>
                <g id="zoomMin">
                        <use xlink:href="#rim" fill="#404040">
                                <set attributeName="fill" to="#808080" begin="zoomminus.mouseover" end="zoomminus.mouseout"/>
                        </use>
                        <path d="M-4,0h8" fill="none" stroke="white" stroke-width="1.5" pointer-events="none"/>
                </g>
                <g id="dirArrow">
                        <path fill="none" stroke="white" stroke-width="1.5" d="M0,-3.0v7 M-2.5,-0.5L0,-3.0L2.5,-0.5"/>
                </g>
               <g id="resetDef">
                       <use xlink:href="#rim2" fill="#404040">
                               <set attributeName="fill" to="#808080" begin="reset.mouseover" end="reset.mouseout"/>
                       </use>
               </g>
        </defs>

<script type="text/javascript">
var viewWidth = 877;
var viewHeight = 350;
var sectionId = 'dynsection-22';
</script>
<script xlink:href="../../svgpan.js"/>
<svg id="graph" class="graph">
<g id="viewport">
<title>Ed::CGapManager::sInstance</title>
<polygon fill="white" stroke="none" points="-4,4 -4,-346 873,-346 873,4 -4,4"/>
<!-- Node1 -->
<g id="node1" class="node"><title>Node1</title>
<g id="a_node1"><a xlink:title=" ">
<polygon fill="#bfbfbf" stroke="black" points="724,-167 724,-186 869,-186 869,-167 724,-167"/>
<text text-anchor="middle" x="796.5" y="-174" font-family="Helvetica,sans-Serif" font-size="10.00">Ed::CGapManager::sInstance</text>
</a>
</g>
</g>
<!-- Node2 -->
<g id="node2" class="node"><title>Node2</title>
<g id="a_node2"><a xlink:href="../../d8/d13/class_ed_1_1_c_park_editor.html#aaae56f32a0b08e68c2861c561d9374fe" target="_top" xlink:title=" ">
<polygon fill="white" stroke="black" points="541.5,-311.5 541.5,-341.5 682.5,-341.5 682.5,-311.5 541.5,-311.5"/>
<text text-anchor="start" x="549.5" y="-329.5" font-family="Helvetica,sans-Serif" font-size="10.00">Ed::CParkEditor::CreatePlay</text>
<text text-anchor="middle" x="612" y="-318.5" font-family="Helvetica,sans-Serif" font-size="10.00">ModeGapManager</text>
</a>
</g>
</g>
<!-- Node1&#45;&gt;Node2 -->
<g id="edge1" class="edge"><title>Node1&#45;&gt;Node2</title>
<path fill="none" stroke="midnightblue" d="M784.552,-194.916C767.361,-222.288 731.473,-273.576 688,-302.5 682.878,-305.908 677.239,-308.859 671.424,-311.409"/>
<polygon fill="midnightblue" stroke="midnightblue" points="787.587,-196.662 789.834,-186.308 781.621,-193.001 787.587,-196.662"/>
</g>
<!-- Node3 -->
<g id="node3" class="node"><title>Node3</title>
<g id="a_node3"><a xlink:href="../../d8/d13/class_ed_1_1_c_park_editor.html#a9c6fb86a7e015beeff16bbf4fc9ccd3f" target="_top" xlink:title=" ">
<polygon fill="white" stroke="black" points="549.5,-224 549.5,-243 674.5,-243 674.5,-224 549.5,-224"/>
<text text-anchor="middle" x="612" y="-231" font-family="Helvetica,sans-Serif" font-size="10.00">Ed::CParkEditor::Rebuild</text>
</a>
</g>
</g>
<!-- Node1&#45;&gt;Node3 -->
<g id="edge2" class="edge"><title>Node1&#45;&gt;Node3</title>
<path fill="none" stroke="midnightblue" d="M761.081,-189.573C740.116,-197.309 712.697,-207.024 688,-214.5 676.944,-217.847 664.852,-221.089 653.668,-223.92"/>
<polygon fill="midnightblue" stroke="midnightblue" points="762.366,-192.829 770.52,-186.063 759.927,-186.268 762.366,-192.829"/>
</g>
<!-- Node5 -->
<g id="node5" class="node"><title>Node5</title>
<g id="a_node5"><a xlink:href="../../d8/d13/class_ed_1_1_c_park_editor.html#a5f483743d7e5e5c75cf1b2afd637c223" target="_top" xlink:title=" ">
<polygon fill="white" stroke="black" points="551,-262.5 551,-292.5 673,-292.5 673,-262.5 551,-262.5"/>
<text text-anchor="start" x="559" y="-280.5" font-family="Helvetica,sans-Serif" font-size="10.00">Ed::CParkEditor::regular</text>
<text text-anchor="middle" x="612" y="-269.5" font-family="Helvetica,sans-Serif" font-size="10.00">_command_logic</text>
</a>
</g>
</g>
<!-- Node1&#45;&gt;Node5 -->
<g id="edge4" class="edge"><title>Node1&#45;&gt;Node5</title>
<path fill="none" stroke="midnightblue" d="M776.312,-192.719C755.627,-209.545 721.189,-235.701 688,-252.5 680.775,-256.157 672.897,-259.456 665.05,-262.369"/>
<polygon fill="midnightblue" stroke="midnightblue" points="778.806,-195.198 784.291,-186.133 774.35,-189.799 778.806,-195.198"/>
</g>
<!-- Node7 -->
<g id="node7" class="node"><title>Node7</title>
<g id="a_node7"><a xlink:href="../../d2/d84/namespace_ed.html#ac72d25306234007af0126bad9111baca" target="_top" xlink:title=" ">
<polygon fill="white" stroke="black" points="537.5,-186 537.5,-205 686.5,-205 686.5,-186 537.5,-186"/>
<text text-anchor="middle" x="612" y="-193" font-family="Helvetica,sans-Serif" font-size="10.00">Ed::ScriptFireCustomParkGap</text>
</a>
</g>
</g>
<!-- Node1&#45;&gt;Node7 -->
<g id="edge6" class="edge"><title>Node1&#45;&gt;Node7</title>
<path fill="none" stroke="midnightblue" d="M713.81,-185.005C704.814,-185.941 695.692,-186.891 686.8,-187.817"/>
<polygon fill="midnightblue" stroke="midnightblue" points="714.311,-188.472 723.895,-183.955 713.586,-181.509 714.311,-188.472"/>
</g>
<!-- Node8 -->
<g id="node8" class="node"><title>Node8</title>
<g id="a_node8"><a xlink:href="../../de/d42/class_ed_1_1_c_park_generator.html#ab98e8cb53a5e942830863f74fc1aa440" target="_top" xlink:title=" ">
<polygon fill="white" stroke="black" points="554.5,-98.5 554.5,-128.5 669.5,-128.5 669.5,-98.5 554.5,-98.5"/>
<text text-anchor="start" x="562.5" y="-116.5" font-family="Helvetica,sans-Serif" font-size="10.00">Ed::CParkGenerator</text>
<text text-anchor="middle" x="612" y="-105.5" font-family="Helvetica,sans-Serif" font-size="10.00">::set_up_object_nodes</text>
</a>
</g>
</g>
<!-- Node1&#45;&gt;Node8 -->
<g id="edge7" class="edge"><title>Node1&#45;&gt;Node8</title>
<path fill="none" stroke="midnightblue" d="M759.608,-163.631C738.741,-156.194 711.92,-146.714 688,-138.5 678.524,-135.246 668.353,-131.815 658.655,-128.572"/>
<polygon fill="midnightblue" stroke="midnightblue" points="758.445,-166.932 769.04,-166.997 760.798,-160.339 758.445,-166.932"/>
</g>
<!-- Node12 -->
<g id="node12" class="node"><title>Node12</title>
<g id="a_node12"><a xlink:href="../../d0/db9/class_ed_1_1_c_cursor.html#a80c7c8a63d920cbfcadf70bb54d4c583" target="_top" xlink:title=" ">
<polygon fill="white" stroke="black" points="542.5,-49.5 542.5,-79.5 681.5,-79.5 681.5,-49.5 542.5,-49.5"/>
<text text-anchor="start" x="550.5" y="-67.5" font-family="Helvetica,sans-Serif" font-size="10.00">Ed::CCursor::SetGapCancel</text>
<text text-anchor="middle" x="612" y="-56.5" font-family="Helvetica,sans-Serif" font-size="10.00">Flags</text>
</a>
</g>
</g>
<!-- Node1&#45;&gt;Node12 -->
<g id="edge11" class="edge"><title>Node1&#45;&gt;Node12</title>
<path fill="none" stroke="midnightblue" d="M779.012,-159.575C759.086,-139.986 723.76,-107.936 688,-88.5 681.874,-85.1705 675.212,-82.2151 668.471,-79.6168"/>
<polygon fill="midnightblue" stroke="midnightblue" points="776.787,-162.299 786.332,-166.896 781.737,-157.35 776.787,-162.299"/>
</g>
<!-- Node14 -->
<g id="node14" class="node"><title>Node14</title>
<g id="a_node14"><a xlink:href="../../d0/db9/class_ed_1_1_c_cursor.html#a97834c33c6d4a3704edcbd93ebc841c1" target="_top" xlink:title=" ">
<polygon fill="white" stroke="black" points="536,-0.5 536,-30.5 688,-30.5 688,-0.5 536,-0.5"/>
<text text-anchor="start" x="544" y="-18.5" font-family="Helvetica,sans-Serif" font-size="10.00">Ed::CCursor::SetGapNameAnd</text>
<text text-anchor="middle" x="612" y="-7.5" font-family="Helvetica,sans-Serif" font-size="10.00">Score</text>
</a>
</g>
</g>
<!-- Node1&#45;&gt;Node14 -->
<g id="edge13" class="edge"><title>Node1&#45;&gt;Node14</title>
<path fill="none" stroke="midnightblue" d="M785.684,-157.753C769.331,-128.307 733.74,-71.3049 688,-39.5 683.061,-36.0659 677.605,-33.1033 671.954,-30.5515"/>
<polygon fill="midnightblue" stroke="midnightblue" points="782.814,-159.803 790.651,-166.932 788.97,-156.471 782.814,-159.803"/>
</g>
<!-- Node15 -->
<g id="node15" class="node"><title>Node15</title>
<g id="a_node15"><a xlink:href="../../d8/d13/class_ed_1_1_c_park_editor.html#a12c20bfbf0c8c948d77417e460cdf35f" target="_top" xlink:title=" ">
<polygon fill="white" stroke="black" points="546.5,-148 546.5,-167 677.5,-167 677.5,-148 546.5,-148"/>
<text text-anchor="middle" x="612" y="-155" font-family="Helvetica,sans-Serif" font-size="10.00">Ed::CParkEditor::SetState</text>
</a>
</g>
</g>
<!-- Node1&#45;&gt;Node15 -->
<g id="edge15" class="edge"><title>Node1&#45;&gt;Node15</title>
<path fill="none" stroke="midnightblue" d="M713.777,-167.992C701.645,-166.729 689.286,-165.442 677.57,-164.222"/>
<polygon fill="midnightblue" stroke="midnightblue" points="713.586,-171.491 723.895,-169.045 714.311,-164.528 713.586,-171.491"/>
</g>
<!-- Node4 -->
<g id="node4" class="node"><title>Node4</title>
<g id="a_node4"><a xlink:href="../../d2/d84/namespace_ed.html#ab07cbc5cac3c62e78df39fe5c02f87ce" target="_top" xlink:title=" ">
<polygon fill="white" stroke="black" points="350,-186 350,-205 494,-205 494,-186 350,-186"/>
<text text-anchor="middle" x="422" y="-193" font-family="Helvetica,sans-Serif" font-size="10.00">Ed::ScriptSetParkEditorState</text>
</a>
</g>
</g>
<!-- Node3&#45;&gt;Node4 -->
<g id="edge3" class="edge"><title>Node3&#45;&gt;Node4</title>
<path fill="none" stroke="midnightblue" d="M553.563,-221.89C526.826,-216.486 495.412,-210.136 470.099,-205.02"/>
<polygon fill="midnightblue" stroke="midnightblue" points="553.064,-225.36 563.56,-223.911 554.451,-218.499 553.064,-225.36"/>
</g>
<!-- Node6 -->
<g id="node6" class="node"><title>Node6</title>
<g id="a_node6"><a xlink:href="../../d8/d13/class_ed_1_1_c_park_editor.html#a622e0191890c341a9c8c9459171a5fc8" target="_top" xlink:title=" ">
<polygon fill="white" stroke="black" points="360,-268 360,-287 484,-287 484,-268 360,-268"/>
<text text-anchor="middle" x="422" y="-275" font-family="Helvetica,sans-Serif" font-size="10.00">Ed::CParkEditor::Update</text>
</a>
</g>
</g>
<!-- Node5&#45;&gt;Node6 -->
<g id="edge5" class="edge"><title>Node5&#45;&gt;Node6</title>
<path fill="none" stroke="midnightblue" d="M540.796,-277.5C522.148,-277.5 502.162,-277.5 484.045,-277.5"/>
<polygon fill="midnightblue" stroke="midnightblue" points="540.999,-281 550.999,-277.5 540.999,-274 540.999,-281"/>
</g>
<!-- Node9 -->
<g id="node9" class="node"><title>Node9</title>
<g id="a_node9"><a xlink:href="../../de/d42/class_ed_1_1_c_park_generator.html#aa09527e9552236975be71ab5aa2bda14" target="_top" xlink:title=" ">
<polygon fill="white" stroke="black" points="370,-98.5 370,-128.5 474,-128.5 474,-98.5 370,-98.5"/>
<text text-anchor="start" x="378" y="-116.5" font-family="Helvetica,sans-Serif" font-size="10.00">Ed::CParkGenerator</text>
<text text-anchor="middle" x="422" y="-105.5" font-family="Helvetica,sans-Serif" font-size="10.00">::GenerateNodeInfo</text>
</a>
</g>
</g>
<!-- Node8&#45;&gt;Node9 -->
<g id="edge8" class="edge"><title>Node8&#45;&gt;Node9</title>
<path fill="none" stroke="midnightblue" d="M544.273,-113.5C521.2,-113.5 495.726,-113.5 474.106,-113.5"/>
<polygon fill="midnightblue" stroke="midnightblue" points="544.339,-117 554.339,-113.5 544.339,-110 544.339,-117"/>
</g>
<!-- Node10 -->
<g id="node10" class="node"><title>Node10</title>
<g id="a_node10"><a xlink:href="../../d0/d5c/class_ed_1_1_c_park_manager.html#afe3b49be10db3c24e7a68e400f00ade5" target="_top" xlink:title=" ">
<polygon fill="white" stroke="black" points="171,-98.5 171,-128.5 308,-128.5 308,-98.5 171,-98.5"/>
<text text-anchor="start" x="179" y="-116.5" font-family="Helvetica,sans-Serif" font-size="10.00">Ed::CParkManager::Rebuild</text>
<text text-anchor="middle" x="239.5" y="-105.5" font-family="Helvetica,sans-Serif" font-size="10.00">NodeArray</text>
</a>
</g>
</g>
<!-- Node9&#45;&gt;Node10 -->
<g id="edge9" class="edge"><title>Node9&#45;&gt;Node10</title>
<path fill="none" stroke="midnightblue" d="M359.636,-113.5C343.038,-113.5 324.982,-113.5 308.065,-113.5"/>
<polygon fill="midnightblue" stroke="midnightblue" points="359.759,-117 369.759,-113.5 359.759,-110 359.759,-117"/>
</g>
<!-- Node11 -->
<g id="node11" class="node"><title>Node11</title>
<g id="a_node11"><a xlink:href="../../d2/d84/namespace_ed.html#a22ced855b40e383b19535536b3cbefab" target="_top" xlink:title=" ">
<polygon fill="white" stroke="black" points="0,-98.5 0,-128.5 135,-128.5 135,-98.5 0,-98.5"/>
<text text-anchor="start" x="8" y="-116.5" font-family="Helvetica,sans-Serif" font-size="10.00">Ed::ScriptRebuildParkNode</text>
<text text-anchor="middle" x="67.5" y="-105.5" font-family="Helvetica,sans-Serif" font-size="10.00">Array</text>
</a>
</g>
</g>
<!-- Node10&#45;&gt;Node11 -->
<g id="edge10" class="edge"><title>Node10&#45;&gt;Node11</title>
<path fill="none" stroke="midnightblue" d="M160.813,-113.5C152.228,-113.5 143.543,-113.5 135.112,-113.5"/>
<polygon fill="midnightblue" stroke="midnightblue" points="160.823,-117 170.823,-113.5 160.823,-110 160.823,-117"/>
</g>
<!-- Node13 -->
<g id="node13" class="node"><title>Node13</title>
<g id="a_node13"><a xlink:href="../../d2/d84/namespace_ed.html#a0040fe2e508a13d795fd3c78e454c83c" target="_top" xlink:title=" ">
<polygon fill="white" stroke="black" points="344,-31 344,-50 500,-50 500,-31 344,-31"/>
<text text-anchor="middle" x="422" y="-38" font-family="Helvetica,sans-Serif" font-size="10.00">Ed::ScriptSetEditedParkGapInfo</text>
</a>
</g>
</g>
<!-- Node12&#45;&gt;Node13 -->
<g id="edge12" class="edge"><title>Node12&#45;&gt;Node13</title>
<path fill="none" stroke="midnightblue" d="M532.303,-54.4535C520.78,-52.9825 508.941,-51.4712 497.506,-50.0114"/>
<polygon fill="midnightblue" stroke="midnightblue" points="531.967,-57.939 542.33,-55.7336 532.853,-50.9953 531.967,-57.939"/>
</g>
<!-- Node14&#45;&gt;Node13 -->
<g id="edge14" class="edge"><title>Node14&#45;&gt;Node13</title>
<path fill="none" stroke="midnightblue" d="M525.924,-26.8133C515.467,-28.2038 504.862,-29.6141 494.631,-30.9745"/>
<polygon fill="midnightblue" stroke="midnightblue" points="526.436,-30.2762 535.887,-25.4884 525.513,-23.3373 526.436,-30.2762"/>
</g>
<!-- Node15&#45;&gt;Node4 -->
<g id="edge16" class="edge"><title>Node15&#45;&gt;Node4</title>
<path fill="none" stroke="midnightblue" d="M553.563,-169.11C526.826,-174.514 495.412,-180.864 470.099,-185.98"/>
<polygon fill="midnightblue" stroke="midnightblue" points="554.451,-172.501 563.56,-167.089 553.064,-165.64 554.451,-172.501"/>
</g>
</g>
</svg>
        <g id="navigator" transform="translate(0 0)" fill="#404254">
                <rect fill="#f2f5e9" fill-opacity="0.5" stroke="#606060" stroke-width=".5" x="0" y="0" width="60" height="60"/>
                <use id="zoomplus" xlink:href="#zoomPlus" x="17" y="9" onmousedown="handleZoom(evt,'in')"/>
                <use id="zoomminus" xlink:href="#zoomMin" x="42" y="9" onmousedown="handleZoom(evt,'out')"/>
                <use id="reset" xlink:href="#resetDef" x="30" y="36" onmousedown="handleReset()"/>
                <g id="arrowUp" xlink:href="#dirArrow" transform="translate(30 24)" onmousedown="handlePan(0,-1)">
                  <use xlink:href="#rim" fill="#404040">
                        <set attributeName="fill" to="#808080" begin="arrowUp.mouseover" end="arrowUp.mouseout"/>
                  </use>
                  <path fill="none" stroke="white" stroke-width="1.5" d="M0,-3.0v7 M-2.5,-0.5L0,-3.0L2.5,-0.5"/>
                </g>
                <g id="arrowRight" xlink:href="#dirArrow" transform="rotate(90) translate(36 -43)" onmousedown="handlePan(1,0)">
                  <use xlink:href="#rim" fill="#404040">
                        <set attributeName="fill" to="#808080" begin="arrowRight.mouseover" end="arrowRight.mouseout"/>
                  </use>
                  <path fill="none" stroke="white" stroke-width="1.5" d="M0,-3.0v7 M-2.5,-0.5L0,-3.0L2.5,-0.5"/>
                </g>
                <g id="arrowDown" xlink:href="#dirArrow" transform="rotate(180) translate(-30 -48)" onmousedown="handlePan(0,1)">
                  <use xlink:href="#rim" fill="#404040">
                        <set attributeName="fill" to="#808080" begin="arrowDown.mouseover" end="arrowDown.mouseout"/>
                  </use>
                  <path fill="none" stroke="white" stroke-width="1.5" d="M0,-3.0v7 M-2.5,-0.5L0,-3.0L2.5,-0.5"/>
                </g>
                <g id="arrowLeft" xlink:href="#dirArrow" transform="rotate(270) translate(-36 17)" onmousedown="handlePan(-1,0)">
                  <use xlink:href="#rim" fill="#404040">
                        <set attributeName="fill" to="#808080" begin="arrowLeft.mouseover" end="arrowLeft.mouseout"/>
                  </use>
                  <path fill="none" stroke="white" stroke-width="1.5" d="M0,-3.0v7 M-2.5,-0.5L0,-3.0L2.5,-0.5"/>
                </g>
        </g>
        <svg viewBox="0 0 15 15" width="100%" height="30px" preserveAspectRatio="xMaxYMin meet">
         <g id="arrow_out" transform="scale(0.3 0.3)">
          <a xlink:href="class_ed_1_1_c_gap_manager_a63bc5ae6873ff59d105df0475cab2aa8_icgraph_org.svg" target="_base">
           <rect id="button" ry="5" rx="5" y="6" x="6" height="38" width="38"
                fill="#f2f5e9" fill-opacity="0.5" stroke="#606060" stroke-width="1.0"/>
           <path id="arrow"
             d="M 11.500037,31.436501 C 11.940474,20.09759 22.043105,11.32322 32.158766,21.979434 L 37.068811,17.246167 C 37.068811,17.246167 37.088388,32 37.088388,32 L 22.160133,31.978069 C 22.160133,31.978069 26.997745,27.140456 26.997745,27.140456 C 18.528582,18.264221 13.291696,25.230495 11.500037,31.436501 z"
             style="fill:#404040;"/>
          </a>
         </g>
        </svg>
</svg>
