<?xml version="1.0" encoding="UTF-8" standalone="no"?>
<!DOCTYPE svg PUBLIC "-//W3C//DTD SVG 1.1//EN"
 "http://www.w3.org/Graphics/SVG/1.1/DTD/svg11.dtd">
<!-- Generated by graphviz version 2.38.0 (20140413.2041)
 -->
<!-- Title: Obj::CGoalEditorComponent::RefreshGapGoalsAfterGapRemovedFromPark Pages: 1 -->
<svg width="2107pt" height="424pt"
 viewBox="0.00 0.00 2107.00 424.00" xmlns="http://www.w3.org/2000/svg" xmlns:xlink="http://www.w3.org/1999/xlink">
<g id="graph0" class="graph" transform="scale(1 1) rotate(0) translate(4 420)">
<title>Obj::CGoalEditorComponent::RefreshGapGoalsAfterGapRemovedFromPark</title>
<polygon fill="white" stroke="none" points="-4,4 -4,-420 2103,-420 2103,4 -4,4"/>
<!-- Node1 -->
<g id="node1" class="node"><title>Node1</title>
<g id="a_node1"><a xlink:title=" ">
<polygon fill="#bfbfbf" stroke="black" points="1922,-196 1922,-237 2099,-237 2099,-196 1922,-196"/>
<text text-anchor="start" x="1930" y="-225" font-family="Helvetica,sans-Serif" font-size="10.00">Obj::CGoalEditorComponent</text>
<text text-anchor="start" x="1930" y="-214" font-family="Helvetica,sans-Serif" font-size="10.00">::RefreshGapGoalsAfterGapRemoved</text>
<text text-anchor="middle" x="2010.5" y="-203" font-family="Helvetica,sans-Serif" font-size="10.00">FromPark</text>
</a>
</g>
</g>
<!-- Node2 -->
<g id="node2" class="node"><title>Node2</title>
<g id="a_node2"><a xlink:href="../../d8/d62/class_ed_1_1_c_gap_manager.html#adda4ef32b8a373c030555c44441aae21" target="_top" xlink:title=" ">
<polygon fill="white" stroke="black" points="1731,-207 1731,-226 1886,-226 1886,-207 1731,-207"/>
<text text-anchor="middle" x="1808.5" y="-214" font-family="Helvetica,sans-Serif" font-size="10.00">Ed::CGapManager::RemoveGap</text>
</a>
</g>
</g>
<!-- Node1&#45;&gt;Node2 -->
<g id="edge1" class="edge"><title>Node1&#45;&gt;Node2</title>
<path fill="none" stroke="midnightblue" d="M1911.73,-216.5C1903.15,-216.5 1894.55,-216.5 1886.18,-216.5"/>
<polygon fill="midnightblue" stroke="midnightblue" points="1911.78,-220 1921.78,-216.5 1911.78,-213 1911.78,-220"/>
</g>
<!-- Node3 -->
<g id="node3" class="node"><title>Node3</title>
<g id="a_node3"><a xlink:href="../../d8/d62/class_ed_1_1_c_gap_manager.html#af0a8b41f90ca0560d7c5139e96225ab9" target="_top" xlink:title=" ">
<polygon fill="white" stroke="black" points="1329,-304 1329,-323 1501,-323 1501,-304 1329,-304"/>
<text text-anchor="middle" x="1415" y="-311" font-family="Helvetica,sans-Serif" font-size="10.00">Ed::CGapManager::RemoveAllGaps</text>
</a>
</g>
</g>
<!-- Node2&#45;&gt;Node3 -->
<g id="edge2" class="edge"><title>Node2&#45;&gt;Node3</title>
<path fill="none" stroke="midnightblue" d="M1758.75,-228.579C1679.98,-248.094 1526.33,-286.163 1454.61,-303.934"/>
<polygon fill="midnightblue" stroke="midnightblue" points="1760.03,-231.868 1768.89,-226.066 1758.34,-225.074 1760.03,-231.868"/>
</g>
<!-- Node16 -->
<g id="node16" class="node"><title>Node16</title>
<g id="a_node16"><a xlink:href="../../d0/d5c/class_ed_1_1_c_park_manager.html#ab1366acc0ad92804af45eefeb28a8cd1" target="_top" xlink:title=" ">
<polygon fill="white" stroke="black" points="1537,-162 1537,-181 1695,-181 1695,-162 1537,-162"/>
<text text-anchor="middle" x="1616" y="-169" font-family="Helvetica,sans-Serif" font-size="10.00">Ed::CParkManager::RemoveGap</text>
</a>
</g>
</g>
<!-- Node2&#45;&gt;Node16 -->
<g id="edge17" class="edge"><title>Node2&#45;&gt;Node16</title>
<path fill="none" stroke="midnightblue" d="M1757.29,-204.639C1726.08,-197.267 1686.5,-187.917 1657.34,-181.03"/>
<polygon fill="midnightblue" stroke="midnightblue" points="1756.56,-208.064 1767.1,-206.957 1758.17,-201.251 1756.56,-208.064"/>
</g>
<!-- Node4 -->
<g id="node4" class="node"><title>Node4</title>
<g id="a_node4"><a xlink:href="../../d0/d5c/class_ed_1_1_c_park_manager.html#a294b6088fc662e0f95d45feea3cfda70" target="_top" xlink:title=" ">
<polygon fill="white" stroke="black" points="942,-326 942,-345 1081,-345 1081,-326 942,-326"/>
<text text-anchor="middle" x="1011.5" y="-333" font-family="Helvetica,sans-Serif" font-size="10.00">Ed::CParkManager::Destroy</text>
</a>
</g>
</g>
<!-- Node3&#45;&gt;Node4 -->
<g id="edge3" class="edge"><title>Node3&#45;&gt;Node4</title>
<path fill="none" stroke="midnightblue" d="M1318.72,-318.721C1245.68,-322.723 1146.63,-328.151 1081.2,-331.736"/>
<polygon fill="midnightblue" stroke="midnightblue" points="1319.06,-322.208 1328.85,-318.166 1318.68,-315.218 1319.06,-322.208"/>
</g>
<!-- Node6 -->
<g id="node6" class="node"><title>Node6</title>
<g id="a_node6"><a xlink:href="../../d0/d5c/class_ed_1_1_c_park_manager.html#af640e213a45553360f591b8feb636449" target="_top" xlink:title=" ">
<polygon fill="white" stroke="black" points="1139,-276.5 1139,-306.5 1276,-306.5 1276,-276.5 1139,-276.5"/>
<text text-anchor="start" x="1147" y="-294.5" font-family="Helvetica,sans-Serif" font-size="10.00">Ed::CParkManager::destroy</text>
<text text-anchor="middle" x="1207.5" y="-283.5" font-family="Helvetica,sans-Serif" font-size="10.00">_concrete_metapieces</text>
</a>
</g>
</g>
<!-- Node3&#45;&gt;Node6 -->
<g id="edge5" class="edge"><title>Node3&#45;&gt;Node6</title>
<path fill="none" stroke="midnightblue" d="M1318.58,-303.285C1304.29,-301.755 1289.82,-300.206 1276.27,-298.755"/>
<polygon fill="midnightblue" stroke="midnightblue" points="1318.62,-306.809 1328.93,-304.393 1319.36,-299.848 1318.62,-306.809"/>
</g>
<!-- Node15 -->
<g id="node15" class="node"><title>Node15</title>
<g id="a_node15"><a xlink:href="../../d8/d62/class_ed_1_1_c_gap_manager.html#a7d80560df65b182fc8fae27b1bc12d1b" target="_top" xlink:title=" ">
<polygon fill="white" stroke="black" points="1122,-364 1122,-383 1293,-383 1293,-364 1122,-364"/>
<text text-anchor="middle" x="1207.5" y="-371" font-family="Helvetica,sans-Serif" font-size="10.00">Ed::CGapManager::~CGapManager</text>
</a>
</g>
</g>
<!-- Node3&#45;&gt;Node15 -->
<g id="edge16" class="edge"><title>Node3&#45;&gt;Node15</title>
<path fill="none" stroke="midnightblue" d="M1372.84,-325.884C1349.45,-332.887 1319.61,-341.763 1293,-349.5 1276.45,-354.311 1258.05,-359.551 1242.65,-363.904"/>
<polygon fill="midnightblue" stroke="midnightblue" points="1373.87,-329.231 1382.44,-323.007 1371.86,-322.525 1373.87,-329.231"/>
</g>
<!-- Node5 -->
<g id="node5" class="node"><title>Node5</title>
<g id="a_node5"><a xlink:href="../../d2/d84/namespace_ed.html#a193edd746832f7fa49f8496c9804d8e8" target="_top" xlink:title=" ">
<polygon fill="white" stroke="black" points="750.5,-385.5 750.5,-415.5 891.5,-415.5 891.5,-385.5 750.5,-385.5"/>
<text text-anchor="start" x="758.5" y="-403.5" font-family="Helvetica,sans-Serif" font-size="10.00">Ed::ScriptFreeUpMemoryFor</text>
<text text-anchor="middle" x="821" y="-392.5" font-family="Helvetica,sans-Serif" font-size="10.00">PlayingPark</text>
</a>
</g>
</g>
<!-- Node4&#45;&gt;Node5 -->
<g id="edge4" class="edge"><title>Node4&#45;&gt;Node5</title>
<path fill="none" stroke="midnightblue" d="M975.732,-348.641C954.276,-356.642 926.139,-366.935 901,-375.5 891.196,-378.84 880.657,-382.279 870.573,-385.497"/>
<polygon fill="midnightblue" stroke="midnightblue" points="977.247,-351.812 985.386,-345.029 974.793,-345.256 977.247,-351.812"/>
</g>
<!-- Node6&#45;&gt;Node4 -->
<g id="edge6" class="edge"><title>Node6&#45;&gt;Node4</title>
<path fill="none" stroke="midnightblue" d="M1130.48,-308.741C1104.61,-314.609 1076.65,-320.951 1054.44,-325.988"/>
<polygon fill="midnightblue" stroke="midnightblue" points="1131.3,-312.144 1140.28,-306.519 1129.75,-305.318 1131.3,-312.144"/>
</g>
<!-- Node7 -->
<g id="node7" class="node"><title>Node7</title>
<g id="a_node7"><a xlink:href="../../d0/d5c/class_ed_1_1_c_park_manager.html#a99f4c81a0f4c7285d6667c7480d732ba" target="_top" xlink:title=" ">
<polygon fill="white" stroke="black" points="943,-272.5 943,-302.5 1080,-302.5 1080,-272.5 943,-272.5"/>
<text text-anchor="start" x="951" y="-290.5" font-family="Helvetica,sans-Serif" font-size="10.00">Ed::CParkManager::Rebuild</text>
<text text-anchor="middle" x="1011.5" y="-279.5" font-family="Helvetica,sans-Serif" font-size="10.00">WholePark</text>
</a>
</g>
</g>
<!-- Node6&#45;&gt;Node7 -->
<g id="edge7" class="edge"><title>Node6&#45;&gt;Node7</title>
<path fill="none" stroke="midnightblue" d="M1128.52,-289.892C1112.51,-289.562 1095.78,-289.217 1080.17,-288.895"/>
<polygon fill="midnightblue" stroke="midnightblue" points="1128.85,-293.4 1138.92,-290.107 1128.99,-286.401 1128.85,-293.4"/>
</g>
<!-- Node8 -->
<g id="node8" class="node"><title>Node8</title>
<g id="a_node8"><a xlink:href="../../d8/d13/class_ed_1_1_c_park_editor.html#a960413265bc65b3f6ca5d6288ae4c8bd" target="_top" xlink:title=" ">
<polygon fill="white" stroke="black" points="179,-285 179,-304 325,-304 325,-285 179,-285"/>
<text text-anchor="middle" x="252" y="-292" font-family="Helvetica,sans-Serif" font-size="10.00">Ed::CParkEditor::AccessDisk</text>
</a>
</g>
</g>
<!-- Node7&#45;&gt;Node8 -->
<g id="edge8" class="edge"><title>Node7&#45;&gt;Node8</title>
<path fill="none" stroke="midnightblue" d="M932.779,-287.612C878.941,-287.733 805.613,-287.983 741,-288.5 593.365,-289.681 420.618,-292.034 325.344,-293.417"/>
<polygon fill="midnightblue" stroke="midnightblue" points="932.946,-291.112 942.938,-287.59 932.931,-284.112 932.946,-291.112"/>
</g>
<!-- Node11 -->
<g id="node11" class="node"><title>Node11</title>
<g id="a_node11"><a xlink:href="../../d0/d5c/class_ed_1_1_c_park_manager.html#a129890ee1132f04f2c98e6777431e2a4" target="_top" xlink:title=" ">
<polygon fill="white" stroke="black" points="751,-298 751,-317 891,-317 891,-298 751,-298"/>
<text text-anchor="middle" x="821" y="-305" font-family="Helvetica,sans-Serif" font-size="10.00">Ed::CParkManager::Initialize</text>
</a>
</g>
</g>
<!-- Node7&#45;&gt;Node11 -->
<g id="edge11" class="edge"><title>Node7&#45;&gt;Node11</title>
<path fill="none" stroke="midnightblue" d="M933.014,-295.721C919.183,-297.189 904.854,-298.709 891.271,-300.15"/>
<polygon fill="midnightblue" stroke="midnightblue" points="933.405,-299.2 942.98,-294.664 932.666,-292.239 933.405,-299.2"/>
</g>
<!-- Node12 -->
<g id="node12" class="node"><title>Node12</title>
<g id="a_node12"><a xlink:href="../../d8/d13/class_ed_1_1_c_park_editor.html#a7d21742d7c45dad9428d67cbcdeccd02" target="_top" xlink:title=" ">
<polygon fill="white" stroke="black" points="746.5,-336.5 746.5,-366.5 895.5,-366.5 895.5,-336.5 746.5,-336.5"/>
<text text-anchor="start" x="754.5" y="-354.5" font-family="Helvetica,sans-Serif" font-size="10.00">Ed::CParkEditor::PostMemory</text>
<text text-anchor="middle" x="821" y="-343.5" font-family="Helvetica,sans-Serif" font-size="10.00">CardLoad</text>
</a>
</g>
</g>
<!-- Node7&#45;&gt;Node12 -->
<g id="edge12" class="edge"><title>Node7&#45;&gt;Node12</title>
<path fill="none" stroke="midnightblue" d="M959.627,-306.044C941.208,-312.646 920.214,-320.041 901,-326.5 891.182,-329.801 880.638,-333.222 870.552,-336.436"/>
<polygon fill="midnightblue" stroke="midnightblue" points="961.058,-309.249 969.283,-302.572 958.689,-302.662 961.058,-309.249"/>
</g>
<!-- Node9 -->
<g id="node9" class="node"><title>Node9</title>
<g id="a_node9"><a xlink:href="../../d2/d84/namespace_ed.html#ad60f3a0d186b2da60f26277074f39c2d" target="_top" xlink:title=" ">
<polygon fill="white" stroke="black" points="0,-304 0,-323 143,-323 143,-304 0,-304"/>
<text text-anchor="middle" x="71.5" y="-311" font-family="Helvetica,sans-Serif" font-size="10.00">Ed::ScriptLoadParkFromDisk</text>
</a>
</g>
</g>
<!-- Node8&#45;&gt;Node9 -->
<g id="edge9" class="edge"><title>Node8&#45;&gt;Node9</title>
<path fill="none" stroke="midnightblue" d="M168.872,-303.242C160.269,-304.158 151.577,-305.083 143.118,-305.983"/>
<polygon fill="midnightblue" stroke="midnightblue" points="169.338,-306.712 178.912,-302.173 168.597,-299.751 169.338,-306.712"/>
</g>
<!-- Node10 -->
<g id="node10" class="node"><title>Node10</title>
<g id="a_node10"><a xlink:href="../../d2/d84/namespace_ed.html#a16094dc8a2ec4512d21b7a524c913812" target="_top" xlink:title=" ">
<polygon fill="white" stroke="black" points="6,-266 6,-285 137,-285 137,-266 6,-266"/>
<text text-anchor="middle" x="71.5" y="-273" font-family="Helvetica,sans-Serif" font-size="10.00">Ed::ScriptSaveParkToDisk</text>
</a>
</g>
</g>
<!-- Node8&#45;&gt;Node10 -->
<g id="edge10" class="edge"><title>Node8&#45;&gt;Node10</title>
<path fill="none" stroke="midnightblue" d="M168.778,-285.748C158.145,-284.616 147.378,-283.47 137.086,-282.375"/>
<polygon fill="midnightblue" stroke="midnightblue" points="168.597,-289.249 178.912,-286.827 169.338,-282.288 168.597,-289.249"/>
</g>
<!-- Node13 -->
<g id="node13" class="node"><title>Node13</title>
<g id="a_node13"><a xlink:href="../../d0/d5c/class_ed_1_1_c_park_manager.html#af06ffb35bd29d3823932e27fe231c7ea" target="_top" xlink:title=" ">
<polygon fill="white" stroke="black" points="555,-317.5 555,-347.5 705,-347.5 705,-317.5 555,-317.5"/>
<text text-anchor="start" x="563" y="-335.5" font-family="Helvetica,sans-Serif" font-size="10.00">Ed::CParkManager::ReadFrom</text>
<text text-anchor="middle" x="630" y="-324.5" font-family="Helvetica,sans-Serif" font-size="10.00">Structure</text>
</a>
</g>
</g>
<!-- Node12&#45;&gt;Node13 -->
<g id="edge13" class="edge"><title>Node12&#45;&gt;Node13</title>
<path fill="none" stroke="midnightblue" d="M736.432,-343.099C725.973,-342.048 715.334,-340.978 705.035,-339.943"/>
<polygon fill="midnightblue" stroke="midnightblue" points="736.087,-346.582 746.386,-344.1 736.787,-339.617 736.087,-346.582"/>
</g>
<!-- Node14 -->
<g id="node14" class="node"><title>Node14</title>
<g id="a_node14"><a xlink:href="../../d0/d5c/class_ed_1_1_c_park_manager.html#aab29f1a394b0f9b7aeb1a4bd2a969efd" target="_top" xlink:title=" ">
<polygon fill="white" stroke="black" points="361,-310 361,-329 519,-329 519,-310 361,-310"/>
<text text-anchor="middle" x="440" y="-317" font-family="Helvetica,sans-Serif" font-size="10.00">Ed::CParkManager::AccessDisk</text>
</a>
</g>
</g>
<!-- Node13&#45;&gt;Node14 -->
<g id="edge14" class="edge"><title>Node13&#45;&gt;Node14</title>
<path fill="none" stroke="midnightblue" d="M544.719,-326.672C536.259,-326.087 527.693,-325.495 519.299,-324.914"/>
<polygon fill="midnightblue" stroke="midnightblue" points="544.75,-330.182 554.967,-327.381 545.233,-323.199 544.75,-330.182"/>
</g>
<!-- Node14&#45;&gt;Node8 -->
<g id="edge15" class="edge"><title>Node14&#45;&gt;Node8</title>
<path fill="none" stroke="midnightblue" d="M358.213,-308.641C346.81,-307.109 335.159,-305.543 323.96,-304.038"/>
<polygon fill="midnightblue" stroke="midnightblue" points="357.774,-312.114 368.151,-309.977 358.706,-305.176 357.774,-312.114"/>
</g>
<!-- Node17 -->
<g id="node17" class="node"><title>Node17</title>
<g id="a_node17"><a xlink:href="../../d0/d5c/class_ed_1_1_c_park_manager.html#a880ed2ff0af3127cbf7b44efb635b36b" target="_top" xlink:title=" ">
<polygon fill="white" stroke="black" points="1345.5,-178.5 1345.5,-208.5 1484.5,-208.5 1484.5,-178.5 1345.5,-178.5"/>
<text text-anchor="start" x="1353.5" y="-196.5" font-family="Helvetica,sans-Serif" font-size="10.00">Ed::CParkManager::Destroy</text>
<text text-anchor="middle" x="1415" y="-185.5" font-family="Helvetica,sans-Serif" font-size="10.00">ConcreteMeta</text>
</a>
</g>
</g>
<!-- Node16&#45;&gt;Node17 -->
<g id="edge18" class="edge"><title>Node16&#45;&gt;Node17</title>
<path fill="none" stroke="midnightblue" d="M1526.75,-181.256C1512.7,-182.81 1498.33,-184.398 1484.81,-185.893"/>
<polygon fill="midnightblue" stroke="midnightblue" points="1527.37,-184.71 1536.92,-180.132 1526.6,-177.752 1527.37,-184.71"/>
</g>
<!-- Node26 -->
<g id="node26" class="node"><title>Node26</title>
<g id="a_node26"><a xlink:href="../../d0/d5c/class_ed_1_1_c_park_manager.html#a5cac96c24586edfa719311b658213429" target="_top" xlink:title=" ">
<polygon fill="white" stroke="black" points="1136,-90.5 1136,-120.5 1279,-120.5 1279,-90.5 1136,-90.5"/>
<text text-anchor="start" x="1144" y="-108.5" font-family="Helvetica,sans-Serif" font-size="10.00">Ed::CParkManager::Relocate</text>
<text text-anchor="middle" x="1207.5" y="-97.5" font-family="Helvetica,sans-Serif" font-size="10.00">MetaPiece</text>
</a>
</g>
</g>
<!-- Node16&#45;&gt;Node26 -->
<g id="edge39" class="edge"><title>Node16&#45;&gt;Node26</title>
<path fill="none" stroke="midnightblue" d="M1529.49,-160.655C1472.54,-153.085 1396.12,-142.261 1329,-130.5 1312.16,-127.55 1294.08,-124.002 1277.18,-120.518"/>
<polygon fill="midnightblue" stroke="midnightblue" points="1529.15,-164.142 1539.53,-161.983 1530.07,-157.202 1529.15,-164.142"/>
</g>
<!-- Node30 -->
<g id="node30" class="node"><title>Node30</title>
<g id="a_node30"><a xlink:href="../../d0/d5c/class_ed_1_1_c_park_manager.html#a8d80eb47c0fcce2c73d2333828a1c3e3" target="_top" xlink:title=" ">
<polygon fill="white" stroke="black" points="1336,-102 1336,-121 1494,-121 1494,-102 1336,-102"/>
<text text-anchor="middle" x="1415" y="-109" font-family="Helvetica,sans-Serif" font-size="10.00">Ed::CParkManager::RemoveGap</text>
</a>
</g>
</g>
<!-- Node16&#45;&gt;Node30 -->
<g id="edge40" class="edge"><title>Node16&#45;&gt;Node30</title>
<path fill="none" stroke="midnightblue" d="M1575.91,-158.83C1553.95,-151.793 1526,-142.976 1501,-135.5 1484.55,-130.58 1466.22,-125.372 1450.81,-121.068"/>
<polygon fill="midnightblue" stroke="midnightblue" points="1574.96,-162.2 1585.55,-161.927 1577.1,-155.536 1574.96,-162.2"/>
</g>
<!-- Node17&#45;&gt;Node6 -->
<g id="edge19" class="edge"><title>Node17&#45;&gt;Node6</title>
<path fill="none" stroke="midnightblue" d="M1384.05,-214.538C1360.25,-230.51 1325.65,-252.107 1293,-266.5 1284.6,-270.203 1275.5,-273.544 1266.48,-276.488"/>
<polygon fill="midnightblue" stroke="midnightblue" points="1386.31,-217.233 1392.61,-208.719 1382.38,-211.443 1386.31,-217.233"/>
</g>
<!-- Node18 -->
<g id="node18" class="node"><title>Node18</title>
<g id="a_node18"><a xlink:href="../../d0/d5c/class_ed_1_1_c_park_manager.html#ade3a39b0d9543b7a036317bc25214e51" target="_top" xlink:title=" ">
<polygon fill="white" stroke="black" points="751.5,-134.5 751.5,-164.5 890.5,-164.5 890.5,-134.5 751.5,-134.5"/>
<text text-anchor="start" x="759.5" y="-152.5" font-family="Helvetica,sans-Serif" font-size="10.00">Ed::CParkManager::Destroy</text>
<text text-anchor="middle" x="821" y="-141.5" font-family="Helvetica,sans-Serif" font-size="10.00">MetasInArea</text>
</a>
</g>
</g>
<!-- Node17&#45;&gt;Node18 -->
<g id="edge20" class="edge"><title>Node17&#45;&gt;Node18</title>
<path fill="none" stroke="midnightblue" d="M1341,-176.415C1325.25,-173.291 1308.63,-170.417 1293,-168.5 1150.65,-151.042 982.467,-148.582 890.533,-148.768"/>
<polygon fill="midnightblue" stroke="midnightblue" points="1340.71,-179.927 1351.21,-178.496 1342.11,-173.069 1340.71,-179.927"/>
</g>
<!-- Node19 -->
<g id="node19" class="node"><title>Node19</title>
<g id="a_node19"><a xlink:href="../../d0/d5c/class_ed_1_1_c_park_manager.html#a897030eed0d8e64a5af4d363405f77be" target="_top" xlink:title=" ">
<polygon fill="white" stroke="black" points="1131,-178.5 1131,-208.5 1284,-208.5 1284,-178.5 1131,-178.5"/>
<text text-anchor="start" x="1139" y="-196.5" font-family="Helvetica,sans-Serif" font-size="10.00">Ed::CParkManager::generate</text>
<text text-anchor="middle" x="1207.5" y="-185.5" font-family="Helvetica,sans-Serif" font-size="10.00">_floor_pieces_from_height_map</text>
</a>
</g>
</g>
<!-- Node17&#45;&gt;Node19 -->
<g id="edge21" class="edge"><title>Node17&#45;&gt;Node19</title>
<path fill="none" stroke="midnightblue" d="M1335.03,-193.5C1318.35,-193.5 1300.78,-193.5 1284.22,-193.5"/>
<polygon fill="midnightblue" stroke="midnightblue" points="1335.29,-197 1345.29,-193.5 1335.29,-190 1335.29,-197"/>
</g>
<!-- Node25 -->
<g id="node25" class="node"><title>Node25</title>
<g id="a_node25"><a xlink:href="../../d0/d5c/class_ed_1_1_c_park_manager.html#a1f1fab05dba222adba629cc7b7b529f0" target="_top" xlink:title=" ">
<polygon fill="white" stroke="black" points="1139,-227.5 1139,-257.5 1276,-257.5 1276,-227.5 1139,-227.5"/>
<text text-anchor="start" x="1147" y="-245.5" font-family="Helvetica,sans-Serif" font-size="10.00">Ed::CParkManager::Rebuild</text>
<text text-anchor="middle" x="1207.5" y="-234.5" font-family="Helvetica,sans-Serif" font-size="10.00">InnerShell</text>
</a>
</g>
</g>
<!-- Node17&#45;&gt;Node25 -->
<g id="edge29" class="edge"><title>Node17&#45;&gt;Node25</title>
<path fill="none" stroke="midnightblue" d="M1341.01,-210.904C1318.28,-216.324 1293.42,-222.252 1271.43,-227.494"/>
<polygon fill="midnightblue" stroke="midnightblue" points="1342.03,-214.259 1350.95,-208.535 1340.41,-207.45 1342.03,-214.259"/>
</g>
<!-- Node17&#45;&gt;Node26 -->
<g id="edge32" class="edge"><title>Node17&#45;&gt;Node26</title>
<path fill="none" stroke="midnightblue" d="M1353.48,-174.864C1345.07,-171.495 1336.68,-167.699 1329,-163.5 1311.21,-153.779 1310.78,-145.237 1293,-135.5 1282.49,-129.742 1270.65,-124.733 1259.24,-120.545"/>
<polygon fill="midnightblue" stroke="midnightblue" points="1352.36,-178.184 1362.95,-178.485 1354.86,-171.646 1352.36,-178.184"/>
</g>
<!-- Node19&#45;&gt;Node7 -->
<g id="edge28" class="edge"><title>Node19&#45;&gt;Node7</title>
<path fill="none" stroke="midnightblue" d="M1135.62,-211.957C1130.95,-213.683 1126.38,-215.531 1122,-217.5 1088.46,-232.589 1053.24,-256.842 1032.07,-272.472"/>
<polygon fill="midnightblue" stroke="midnightblue" points="1136.98,-215.187 1145.27,-208.584 1134.68,-208.579 1136.98,-215.187"/>
</g>
<!-- Node20 -->
<g id="node20" class="node"><title>Node20</title>
<g id="a_node20"><a xlink:href="../../d0/d5c/class_ed_1_1_c_park_manager.html#ae25f8da3eb72427f1321dc50d4d90e15" target="_top" xlink:title=" ">
<polygon fill="white" stroke="black" points="943,-178.5 943,-208.5 1080,-208.5 1080,-178.5 943,-178.5"/>
<text text-anchor="start" x="951" y="-196.5" font-family="Helvetica,sans-Serif" font-size="10.00">Ed::CParkManager::Rebuild</text>
<text text-anchor="middle" x="1011.5" y="-185.5" font-family="Helvetica,sans-Serif" font-size="10.00">Floor</text>
</a>
</g>
</g>
<!-- Node19&#45;&gt;Node20 -->
<g id="edge22" class="edge"><title>Node19&#45;&gt;Node20</title>
<path fill="none" stroke="midnightblue" d="M1120.67,-193.5C1107.14,-193.5 1093.31,-193.5 1080.27,-193.5"/>
<polygon fill="midnightblue" stroke="midnightblue" points="1120.94,-197 1130.94,-193.5 1120.94,-190 1120.94,-197"/>
</g>
<!-- Node20&#45;&gt;Node18 -->
<g id="edge24" class="edge"><title>Node20&#45;&gt;Node18</title>
<path fill="none" stroke="midnightblue" d="M936.056,-176.123C919.629,-172.289 902.362,-168.258 886.374,-164.526"/>
<polygon fill="midnightblue" stroke="midnightblue" points="935.622,-179.616 946.156,-178.481 937.214,-172.799 935.622,-179.616"/>
</g>
<!-- Node21 -->
<g id="node21" class="node"><title>Node21</title>
<g id="a_node21"><a xlink:href="../../d0/d5c/class_ed_1_1_c_park_manager.html#af3606842ce6881d602a97a4b940f4db3" target="_top" xlink:title=" ">
<polygon fill="white" stroke="black" points="561,-41.5 561,-71.5 699,-71.5 699,-41.5 561,-41.5"/>
<text text-anchor="start" x="569" y="-59.5" font-family="Helvetica,sans-Serif" font-size="10.00">Ed::CParkManager::Change</text>
<text text-anchor="middle" x="630" y="-48.5" font-family="Helvetica,sans-Serif" font-size="10.00">FloorHeight</text>
</a>
</g>
</g>
<!-- Node20&#45;&gt;Node21 -->
<g id="edge23" class="edge"><title>Node20&#45;&gt;Node21</title>
<path fill="none" stroke="midnightblue" d="M932.604,-202.25C876.624,-205.169 800.795,-202.028 741,-173.5 693.442,-150.811 656.15,-97.8516 639.887,-71.685"/>
<polygon fill="midnightblue" stroke="midnightblue" points="933.044,-205.73 942.818,-201.639 932.627,-198.742 933.044,-205.73"/>
</g>
<!-- Node22 -->
<g id="node22" class="node"><title>Node22</title>
<g id="a_node22"><a xlink:href="../../d0/d5c/class_ed_1_1_c_park_manager.html#a2c07eca44d2c7c8cbf9983734f760677" target="_top" xlink:title=" ">
<polygon fill="white" stroke="black" points="745,-85.5 745,-115.5 897,-115.5 897,-85.5 745,-85.5"/>
<text text-anchor="start" x="753" y="-103.5" font-family="Helvetica,sans-Serif" font-size="10.00">Ed::CParkManager::ResetFloor</text>
<text text-anchor="middle" x="821" y="-92.5" font-family="Helvetica,sans-Serif" font-size="10.00">Heights</text>
</a>
</g>
</g>
<!-- Node20&#45;&gt;Node22 -->
<g id="edge25" class="edge"><title>Node20&#45;&gt;Node22</title>
<path fill="none" stroke="midnightblue" d="M981.737,-172.369C960.324,-157.402 929.92,-137.715 901,-124.5 893.829,-121.223 886.093,-118.247 878.366,-115.593"/>
<polygon fill="midnightblue" stroke="midnightblue" points="979.865,-175.332 990.047,-178.258 983.911,-169.621 979.865,-175.332"/>
</g>
<!-- Node23 -->
<g id="node23" class="node"><title>Node23</title>
<g id="a_node23"><a xlink:href="../../d2/d84/namespace_ed.html#a18e01a46dde64d90411ab5c2e68344ad" target="_top" xlink:title=" ">
<polygon fill="white" stroke="black" points="778.5,-222 778.5,-241 863.5,-241 863.5,-222 778.5,-222"/>
<text text-anchor="middle" x="821" y="-229" font-family="Helvetica,sans-Serif" font-size="10.00">Ed::ResizePark</text>
</a>
</g>
</g>
<!-- Node20&#45;&gt;Node23 -->
<g id="edge26" class="edge"><title>Node20&#45;&gt;Node23</title>
<path fill="none" stroke="midnightblue" d="M932.91,-209.141C909.164,-213.928 883.961,-219.009 863.59,-223.116"/>
<polygon fill="midnightblue" stroke="midnightblue" points="933.868,-212.519 942.98,-207.112 932.485,-205.657 933.868,-212.519"/>
</g>
<!-- Node24 -->
<g id="node24" class="node"><title>Node24</title>
<g id="a_node24"><a xlink:href="../../d2/d84/namespace_ed.html#ab4c4bf774b1e68db92ab0e79d634bf57" target="_top" xlink:title=" ">
<polygon fill="white" stroke="black" points="575,-222 575,-241 685,-241 685,-222 575,-222"/>
<text text-anchor="middle" x="630" y="-229" font-family="Helvetica,sans-Serif" font-size="10.00">Ed::ScriptResizePark</text>
</a>
</g>
</g>
<!-- Node23&#45;&gt;Node24 -->
<g id="edge27" class="edge"><title>Node23&#45;&gt;Node24</title>
<path fill="none" stroke="midnightblue" d="M767.745,-231.5C742.013,-231.5 711.019,-231.5 685.049,-231.5"/>
<polygon fill="midnightblue" stroke="midnightblue" points="768.055,-235 778.055,-231.5 768.055,-228 768.055,-235"/>
</g>
<!-- Node25&#45;&gt;Node7 -->
<g id="edge30" class="edge"><title>Node25&#45;&gt;Node7</title>
<path fill="none" stroke="midnightblue" d="M1131.78,-259.832C1113.82,-263.999 1094.78,-268.415 1077.31,-272.467"/>
<polygon fill="midnightblue" stroke="midnightblue" points="1132.68,-263.216 1141.63,-257.547 1131.1,-256.397 1132.68,-263.216"/>
</g>
<!-- Node25&#45;&gt;Node23 -->
<g id="edge31" class="edge"><title>Node25&#45;&gt;Node23</title>
<path fill="none" stroke="midnightblue" d="M1128.61,-240.272C1048.59,-237.982 927.028,-234.505 863.687,-232.693"/>
<polygon fill="midnightblue" stroke="midnightblue" points="1128.55,-243.771 1138.64,-240.559 1128.75,-236.774 1128.55,-243.771"/>
</g>
<!-- Node26&#45;&gt;Node22 -->
<g id="edge33" class="edge"><title>Node26&#45;&gt;Node22</title>
<path fill="none" stroke="midnightblue" d="M1125.82,-104.451C1058.34,-103.573 962.834,-102.331 897.002,-101.475"/>
<polygon fill="midnightblue" stroke="midnightblue" points="1125.93,-107.953 1135.98,-104.583 1126.02,-100.953 1125.93,-107.953"/>
</g>
<!-- Node27 -->
<g id="node27" class="node"><title>Node27</title>
<g id="a_node27"><a xlink:href="../../d0/d5c/class_ed_1_1_c_park_manager.html#afaa3d5674cd68fefe1622dc2dcc66013" target="_top" xlink:title=" ">
<polygon fill="white" stroke="black" points="949,-49.5 949,-79.5 1074,-79.5 1074,-49.5 949,-49.5"/>
<text text-anchor="start" x="957" y="-67.5" font-family="Helvetica,sans-Serif" font-size="10.00">Ed::CParkManager::slide</text>
<text text-anchor="middle" x="1011.5" y="-56.5" font-family="Helvetica,sans-Serif" font-size="10.00">_column_part_two</text>
</a>
</g>
</g>
<!-- Node26&#45;&gt;Node27 -->
<g id="edge34" class="edge"><title>Node26&#45;&gt;Node27</title>
<path fill="none" stroke="midnightblue" d="M1125.82,-88.45C1108.52,-84.793 1090.5,-80.9852 1074.06,-77.5103"/>
<polygon fill="midnightblue" stroke="midnightblue" points="1125.41,-91.9386 1135.91,-90.5821 1126.85,-85.0899 1125.41,-91.9386"/>
</g>
<!-- Node29 -->
<g id="node29" class="node"><title>Node29</title>
<g id="a_node29"><a xlink:href="../../d0/d5c/class_ed_1_1_c_park_manager.html#abfe1d3f53e77695384e1b95db6043ad3" target="_top" xlink:title=" ">
<polygon fill="white" stroke="black" points="937,-0.5 937,-30.5 1086,-30.5 1086,-0.5 937,-0.5"/>
<text text-anchor="start" x="945" y="-18.5" font-family="Helvetica,sans-Serif" font-size="10.00">Ed::CParkManager::UndoSlide</text>
<text text-anchor="middle" x="1011.5" y="-7.5" font-family="Helvetica,sans-Serif" font-size="10.00">Column</text>
</a>
</g>
</g>
<!-- Node26&#45;&gt;Node29 -->
<g id="edge37" class="edge"><title>Node26&#45;&gt;Node29</title>
<path fill="none" stroke="midnightblue" d="M1173.63,-85.3256C1149.86,-71.283 1116.67,-52.7702 1086,-39.5 1078.61,-36.3017 1070.64,-33.2843 1062.78,-30.5386"/>
<polygon fill="midnightblue" stroke="midnightblue" points="1171.87,-88.3518 1182.25,-90.4685 1175.45,-82.34 1171.87,-88.3518"/>
</g>
<!-- Node28 -->
<g id="node28" class="node"><title>Node28</title>
<g id="a_node28"><a xlink:href="../../d0/d5c/class_ed_1_1_c_park_manager.html#a14313a2617312d29b0006017f5739d9f" target="_top" xlink:title=" ">
<polygon fill="white" stroke="black" points="741,-47 741,-66 901,-66 901,-47 741,-47"/>
<text text-anchor="middle" x="821" y="-54" font-family="Helvetica,sans-Serif" font-size="10.00">Ed::CParkManager::SlideColumn</text>
</a>
</g>
</g>
<!-- Node27&#45;&gt;Node28 -->
<g id="edge35" class="edge"><title>Node27&#45;&gt;Node28</title>
<path fill="none" stroke="midnightblue" d="M938.606,-61.4488C926.323,-60.9275 913.502,-60.3834 901.045,-59.8547"/>
<polygon fill="midnightblue" stroke="midnightblue" points="938.639,-64.9532 948.778,-61.8805 938.935,-57.9595 938.639,-64.9532"/>
</g>
<!-- Node28&#45;&gt;Node21 -->
<g id="edge36" class="edge"><title>Node28&#45;&gt;Node21</title>
<path fill="none" stroke="midnightblue" d="M730.811,-56.5C720.197,-56.5 709.493,-56.5 699.238,-56.5"/>
<polygon fill="midnightblue" stroke="midnightblue" points="730.942,-60.0001 740.942,-56.5 730.942,-53.0001 730.942,-60.0001"/>
</g>
<!-- Node29&#45;&gt;Node21 -->
<g id="edge38" class="edge"><title>Node29&#45;&gt;Node21</title>
<path fill="none" stroke="midnightblue" d="M926.738,-20.3979C873.438,-23.9935 803.016,-29.6288 741,-37.5 727.446,-39.2203 713.015,-41.4341 699.217,-43.739"/>
<polygon fill="midnightblue" stroke="midnightblue" points="927.077,-23.8832 936.824,-19.728 926.614,-16.8985 927.077,-23.8832"/>
</g>
</g>
</svg>
