<?xml version="1.0" encoding="UTF-8" standalone="no"?>
<!DOCTYPE svg PUBLIC "-//W3C//DTD SVG 1.1//EN"
 "http://www.w3.org/Graphics/SVG/1.1/DTD/svg11.dtd">
<!-- Generated by graphviz version 2.38.0 (20140413.2041)
 -->
<!-- Title: Obj::CGoalEditorComponent::SetGoalType Pages: 1 -->
<!--zoomable 221 -->
<svg id="main" version="1.1" xmlns="http://www.w3.org/2000/svg" xmlns:xlink="http://www.w3.org/1999/xlink" xml:space="preserve" onload="init(evt)">
<style type="text/css"><![CDATA[
.edge:hover path { stroke: red; }
.edge:hover polygon { stroke: red; fill: red; }
]]></style>
<script type="text/javascript"><![CDATA[
var edges = document.getElementsByTagName('g');
if (edges && edges.length) {
  for (var i=0;i<edges.length;i++) {
    if (edges[i].id.substr(0,4)=='edge') {
      edges[i].setAttribute('class','edge');
    }
  }
}
]]></script>
        <defs>
                <circle id="rim" cx="0" cy="0" r="7"/>
                <circle id="rim2" cx="0" cy="0" r="3.5"/>
                <g id="zoomPlus">
                        <use xlink:href="#rim" fill="#404040">
                                <set attributeName="fill" to="#808080" begin="zoomplus.mouseover" end="zoomplus.mouseout"/>
                        </use>
                        <path d="M-4,0h8M0,-4v8" fill="none" stroke="white" stroke-width="1.5" pointer-events="none"/>
                </g>
                <g id="zoomMin">
                        <use xlink:href="#rim" fill="#404040">
                                <set attributeName="fill" to="#808080" begin="zoomminus.mouseover" end="zoomminus.mouseout"/>
                        </use>
                        <path d="M-4,0h8" fill="none" stroke="white" stroke-width="1.5" pointer-events="none"/>
                </g>
                <g id="dirArrow">
                        <path fill="none" stroke="white" stroke-width="1.5" d="M0,-3.0v7 M-2.5,-0.5L0,-3.0L2.5,-0.5"/>
                </g>
               <g id="resetDef">
                       <use xlink:href="#rim2" fill="#404040">
                               <set attributeName="fill" to="#808080" begin="reset.mouseover" end="reset.mouseout"/>
                       </use>
               </g>
        </defs>

<script type="text/javascript">
var viewWidth = 1324;
var viewHeight = 221;
var sectionId = 'dynsection-31';
</script>
<script xlink:href="../../svgpan.js"/>
<svg id="graph" class="graph">
<g id="viewport">
<title>Obj::CGoalEditorComponent::SetGoalType</title>
<polygon fill="white" stroke="none" points="-4,4 -4,-217.394 1320,-217.394 1320,4 -4,4"/>
<!-- Node1 -->
<g id="node1" class="node"><title>Node1</title>
<g id="a_node1"><a xlink:title=" ">
<polygon fill="#bfbfbf" stroke="black" points="0,-135.066 0,-165.066 140,-165.066 140,-135.066 0,-135.066"/>
<text text-anchor="start" x="8" y="-153.066" font-family="Helvetica,sans-Serif" font-size="10.00">Obj::CGoalEditorComponent</text>
<text text-anchor="middle" x="70" y="-142.066" font-family="Helvetica,sans-Serif" font-size="10.00">::SetGoalType</text>
</a>
</g>
</g>
<!-- Node2 -->
<g id="node2" class="node"><title>Node2</title>
<g id="a_node2"><a xlink:href="../../dc/dea/class_obj_1_1_c_edit_goal.html#afd5c4fd94b571094f925d4d511304b70" target="_top" xlink:title=" ">
<polygon fill="white" stroke="black" points="176,-140.566 176,-159.566 300,-159.566 300,-140.566 176,-140.566"/>
<text text-anchor="middle" x="238" y="-147.566" font-family="Helvetica,sans-Serif" font-size="10.00">Obj::CEditGoal::SetType</text>
</a>
</g>
</g>
<!-- Node1&#45;&gt;Node2 -->
<g id="edge1" class="edge"><title>Node1&#45;&gt;Node2</title>
<path fill="none" stroke="midnightblue" d="M140.437,-150.066C148.775,-150.066 157.3,-150.066 165.664,-150.066"/>
<polygon fill="midnightblue" stroke="midnightblue" points="165.762,-153.566 175.762,-150.066 165.762,-146.566 165.762,-153.566"/>
</g>
<!-- Node3 -->
<g id="node3" class="node"><title>Node3</title>
<g id="a_node3"><a xlink:href="../../d2/df7/class_script_1_1_c_struct.html#a1e85eee5e600de8358db26f6c777e42d" target="_top" xlink:title=" ">
<polygon fill="white" stroke="black" points="336,-178.566 336,-197.566 468,-197.566 468,-178.566 336,-178.566"/>
<text text-anchor="middle" x="402" y="-185.566" font-family="Helvetica,sans-Serif" font-size="10.00">Script::CStruct::GetInteger</text>
</a>
</g>
</g>
<!-- Node2&#45;&gt;Node3 -->
<g id="edge2" class="edge"><title>Node2&#45;&gt;Node3</title>
<path fill="none" stroke="midnightblue" d="M279.879,-159.655C301.353,-164.692 327.86,-170.909 350.597,-176.243"/>
<polygon fill="midnightblue" stroke="midnightblue" points="349.879,-179.669 360.415,-178.546 351.478,-172.854 349.879,-179.669"/>
</g>
<!-- Node13 -->
<g id="node13" class="node"><title>Node13</title>
<g id="a_node13"><a xlink:href="../../d2/df7/class_script_1_1_c_struct.html#a42a803452add452cf735c191a1816b14" target="_top" xlink:title=" ">
<polygon fill="white" stroke="black" points="338,-140.566 338,-159.566 466,-159.566 466,-140.566 338,-140.566"/>
<text text-anchor="middle" x="402" y="-147.566" font-family="Helvetica,sans-Serif" font-size="10.00">Script::CStruct::GetString</text>
</a>
</g>
</g>
<!-- Node2&#45;&gt;Node13 -->
<g id="edge15" class="edge"><title>Node2&#45;&gt;Node13</title>
<path fill="none" stroke="midnightblue" d="M300.245,-150.066C309.164,-150.066 318.423,-150.066 327.553,-150.066"/>
<polygon fill="midnightblue" stroke="midnightblue" points="327.781,-153.566 337.781,-150.066 327.781,-146.566 327.781,-153.566"/>
</g>
<!-- Node14 -->
<g id="node14" class="node"><title>Node14</title>
<g id="a_node14"><a xlink:href="../../d2/d10/namespace_obj.html#a79894a9a1156b3bc34458fbfc3ae496c" target="_top" xlink:title=" ">
<polygon fill="white" stroke="black" points="354.5,-61.0656 354.5,-91.0656 449.5,-91.0656 449.5,-61.0656 354.5,-61.0656"/>
<text text-anchor="start" x="362.5" y="-79.0656" font-family="Helvetica,sans-Serif" font-size="10.00">Obj::s_get_default</text>
<text text-anchor="middle" x="402" y="-68.0656" font-family="Helvetica,sans-Serif" font-size="10.00">_goal_params</text>
</a>
</g>
</g>
<!-- Node2&#45;&gt;Node14 -->
<g id="edge19" class="edge"><title>Node2&#45;&gt;Node14</title>
<path fill="none" stroke="midnightblue" d="M259.847,-140.543C284.629,-129.223 326.622,-110.041 358.378,-95.5347"/>
<polygon fill="midnightblue" stroke="midnightblue" points="360.233,-98.5354 367.875,-91.1969 357.325,-92.1683 360.233,-98.5354"/>
</g>
<!-- Node4 -->
<g id="node4" class="node"><title>Node4</title>
<g id="a_node4"><a xlink:href="../../d1/d54/namespace_script.html#ae80ed69ea4edcbcbbbd4985a6efdcd6e" target="_top" xlink:title=" ">
<polygon fill="white" stroke="black" points="818,-102.566 818,-121.566 957,-121.566 957,-102.566 818,-102.566"/>
<text text-anchor="middle" x="887.5" y="-109.566" font-family="Helvetica,sans-Serif" font-size="10.00">Script::FindChecksumName</text>
</a>
</g>
</g>
<!-- Node3&#45;&gt;Node4 -->
<g id="edge3" class="edge"><title>Node3&#45;&gt;Node4</title>
<path fill="none" stroke="midnightblue" d="M444.033,-197.577C462.284,-201.342 484.103,-205.21 504,-207.066 562.413,-212.512 578.294,-217.64 636,-207.066 720.819,-191.522 814.166,-148.667 859.203,-126.211"/>
<polygon fill="midnightblue" stroke="midnightblue" points="860.962,-129.244 868.315,-121.616 857.81,-122.994 860.962,-129.244"/>
</g>
<!-- Node8 -->
<g id="node8" class="node"><title>Node8</title>
<g id="a_node8"><a xlink:href="../../d1/d54/namespace_script.html#a0d003ee93577e31adb6597bce0002009" target="_top" xlink:title=" ">
<polygon fill="white" stroke="black" points="516.5,-178.566 516.5,-197.566 623.5,-197.566 623.5,-178.566 516.5,-178.566"/>
<text text-anchor="middle" x="570" y="-185.566" font-family="Helvetica,sans-Serif" font-size="10.00">Script::PrintContents</text>
</a>
</g>
</g>
<!-- Node3&#45;&gt;Node8 -->
<g id="edge7" class="edge"><title>Node3&#45;&gt;Node8</title>
<path fill="none" stroke="midnightblue" d="M468.131,-188.066C480.621,-188.066 493.677,-188.066 506.094,-188.066"/>
<polygon fill="midnightblue" stroke="midnightblue" points="506.348,-191.566 516.348,-188.066 506.348,-184.566 506.348,-191.566"/>
</g>
<!-- Node9 -->
<g id="node9" class="node"><title>Node9</title>
<g id="a_node9"><a xlink:href="../../d2/df7/class_script_1_1_c_struct.html#a1e05f0a66cff4a700fb67fdc117d2d7f" target="_top" xlink:title=" ">
<polygon fill="white" stroke="black" points="504,-84.5656 504,-103.566 636,-103.566 636,-84.5656 504,-84.5656"/>
<text text-anchor="middle" x="570" y="-91.5656" font-family="Helvetica,sans-Serif" font-size="10.00">Script::CStruct::search_for</text>
</a>
</g>
</g>
<!-- Node3&#45;&gt;Node9 -->
<g id="edge8" class="edge"><title>Node3&#45;&gt;Node9</title>
<path fill="none" stroke="midnightblue" d="M444.065,-178.464C452.198,-175.9 460.526,-172.783 468,-169.066 499.684,-153.306 531.719,-127.453 550.97,-110.595"/>
<polygon fill="midnightblue" stroke="midnightblue" points="553.497,-113.031 558.634,-103.764 548.84,-107.805 553.497,-113.031"/>
</g>
<!-- Node5 -->
<g id="node5" class="node"><title>Node5</title>
<g id="a_node5"><a xlink:href="../../d1/d54/namespace_script.html#a5cc52c4ff5ea5bb27681d819212dfdca" target="_top" xlink:title=" ">
<polygon fill="white" stroke="black" points="993,-121.566 993,-140.566 1156,-140.566 1156,-121.566 993,-121.566"/>
<text text-anchor="middle" x="1074.5" y="-128.566" font-family="Helvetica,sans-Serif" font-size="10.00">Script::FindChecksumNameNULL</text>
</a>
</g>
</g>
<!-- Node4&#45;&gt;Node5 -->
<g id="edge4" class="edge"><title>Node4&#45;&gt;Node5</title>
<path fill="none" stroke="midnightblue" d="M957.124,-119.114C965.476,-119.971 974.107,-120.858 982.717,-121.742"/>
<polygon fill="midnightblue" stroke="midnightblue" points="982.493,-125.237 992.798,-122.777 983.208,-118.274 982.493,-125.237"/>
</g>
<!-- Node7 -->
<g id="node7" class="node"><title>Node7</title>
<g id="a_node7"><a xlink:href="../../da/d37/namespace_dbg.html#ab406a8cc16de5046c7d9fd09c9de5e22" target="_top" xlink:title=" ">
<polygon fill="white" stroke="black" points="1041.5,-83.5656 1041.5,-102.566 1107.5,-102.566 1107.5,-83.5656 1041.5,-83.5656"/>
<text text-anchor="middle" x="1074.5" y="-90.5656" font-family="Helvetica,sans-Serif" font-size="10.00">Dbg::sprintf</text>
</a>
</g>
</g>
<!-- Node4&#45;&gt;Node7 -->
<g id="edge6" class="edge"><title>Node4&#45;&gt;Node7</title>
<path fill="none" stroke="midnightblue" d="M957.124,-105.018C981.98,-102.465 1009.31,-99.6586 1031.23,-97.4071"/>
<polygon fill="midnightblue" stroke="midnightblue" points="1031.62,-100.886 1041.21,-96.3823 1030.9,-93.9224 1031.62,-100.886"/>
</g>
<!-- Node6 -->
<g id="node6" class="node"><title>Node6</title>
<g id="a_node6"><a xlink:href="../../d0/d31/namespace_config.html#a709cc81780d49900157e3476b63aa25d" target="_top" xlink:title=" ">
<polygon fill="white" stroke="black" points="1192,-121.566 1192,-140.566 1316,-140.566 1316,-121.566 1192,-121.566"/>
<text text-anchor="middle" x="1254" y="-128.566" font-family="Helvetica,sans-Serif" font-size="10.00">Config::GotExtraMemory</text>
</a>
</g>
</g>
<!-- Node5&#45;&gt;Node6 -->
<g id="edge5" class="edge"><title>Node5&#45;&gt;Node6</title>
<path fill="none" stroke="midnightblue" d="M1156.2,-131.066C1164.73,-131.066 1173.36,-131.066 1181.77,-131.066"/>
<polygon fill="midnightblue" stroke="midnightblue" points="1181.9,-134.566 1191.9,-131.066 1181.9,-127.566 1181.9,-134.566"/>
</g>
<!-- Node9&#45;&gt;Node4 -->
<g id="edge9" class="edge"><title>Node9&#45;&gt;Node4</title>
<path fill="none" stroke="midnightblue" d="M636.372,-97.7953C686.224,-100.639 755.079,-104.568 807.929,-107.583"/>
<polygon fill="midnightblue" stroke="midnightblue" points="807.755,-111.079 817.938,-108.154 808.154,-104.09 807.755,-111.079"/>
</g>
<!-- Node9&#45;&gt;Node9 -->
<g id="edge14" class="edge"><title>Node9&#45;&gt;Node9</title>
<path fill="none" stroke="midnightblue" d="M545.956,-103.823C534.259,-112.631 542.273,-122.066 570,-122.066 588.196,-122.066 597.902,-118.002 599.119,-112.72"/>
<polygon fill="midnightblue" stroke="midnightblue" points="602.039,-110.775 594.044,-103.823 595.959,-114.243 602.039,-110.775"/>
</g>
<!-- Node10 -->
<g id="node10" class="node"><title>Node10</title>
<g id="a_node10"><a xlink:href="../../d1/d54/namespace_script.html#af32f99ba26ca0f255240413a4e23a754" target="_top" xlink:title=" ">
<polygon fill="white" stroke="black" points="672,-26.5656 672,-45.5656 782,-45.5656 782,-26.5656 672,-26.5656"/>
<text text-anchor="middle" x="727" y="-33.5656" font-family="Helvetica,sans-Serif" font-size="10.00">Script::GetTypeName</text>
</a>
</g>
</g>
<!-- Node9&#45;&gt;Node10 -->
<g id="edge10" class="edge"><title>Node9&#45;&gt;Node10</title>
<path fill="none" stroke="midnightblue" d="M595.003,-84.5626C615.419,-76.5363 645.548,-64.8239 672,-55.0656 677.495,-53.0384 683.323,-50.9375 689.038,-48.9044"/>
<polygon fill="midnightblue" stroke="midnightblue" points="690.208,-52.2029 698.471,-45.5716 687.876,-45.6027 690.208,-52.2029"/>
</g>
<!-- Node11 -->
<g id="node11" class="node"><title>Node11</title>
<g id="a_node11"><a xlink:href="../../d1/d54/namespace_script.html#a43181580ea5d38e4bf1aa19ccd5e9e85" target="_top" xlink:title=" ">
<polygon fill="white" stroke="black" points="686,-64.5656 686,-83.5656 768,-83.5656 768,-64.5656 686,-64.5656"/>
<text text-anchor="middle" x="727" y="-71.5656" font-family="Helvetica,sans-Serif" font-size="10.00">Script::Resolve</text>
</a>
</g>
</g>
<!-- Node9&#45;&gt;Node11 -->
<g id="edge11" class="edge"><title>Node9&#45;&gt;Node11</title>
<path fill="none" stroke="midnightblue" d="M636.285,-85.6418C649.471,-83.9404 663.14,-82.1766 675.715,-80.554"/>
<polygon fill="midnightblue" stroke="midnightblue" points="676.516,-83.9798 685.986,-79.2287 675.62,-77.0373 676.516,-83.9798"/>
</g>
<!-- Node11&#45;&gt;Node4 -->
<g id="edge12" class="edge"><title>Node11&#45;&gt;Node4</title>
<path fill="none" stroke="midnightblue" d="M767.996,-83.6547C788.912,-88.6692 814.708,-94.8537 836.886,-100.171"/>
<polygon fill="midnightblue" stroke="midnightblue" points="836.251,-103.618 846.791,-102.546 837.883,-96.8106 836.251,-103.618"/>
</g>
<!-- Node12 -->
<g id="node12" class="node"><title>Node12</title>
<g id="a_node12"><a xlink:href="../../d1/d54/namespace_script.html#af293a36c230b10de7d8151c2990b233b" target="_top" xlink:title=" ">
<polygon fill="white" stroke="black" points="830.5,-64.5656 830.5,-83.5656 944.5,-83.5656 944.5,-64.5656 830.5,-64.5656"/>
<text text-anchor="middle" x="887.5" y="-71.5656" font-family="Helvetica,sans-Serif" font-size="10.00">Script::LookUpSymbol</text>
</a>
</g>
</g>
<!-- Node11&#45;&gt;Node12 -->
<g id="edge13" class="edge"><title>Node11&#45;&gt;Node12</title>
<path fill="none" stroke="midnightblue" d="M768.406,-74.0656C784.124,-74.0656 802.549,-74.0656 820.11,-74.0656"/>
<polygon fill="midnightblue" stroke="midnightblue" points="820.322,-77.5657 830.322,-74.0656 820.322,-70.5657 820.322,-77.5657"/>
</g>
<!-- Node13&#45;&gt;Node4 -->
<g id="edge16" class="edge"><title>Node13&#45;&gt;Node4</title>
<path fill="none" stroke="midnightblue" d="M466.209,-145.098C553.885,-138.207 712.35,-125.753 807.652,-118.263"/>
<polygon fill="midnightblue" stroke="midnightblue" points="808.117,-121.737 817.812,-117.464 807.568,-114.758 808.117,-121.737"/>
</g>
<!-- Node13&#45;&gt;Node8 -->
<g id="edge17" class="edge"><title>Node13&#45;&gt;Node8</title>
<path fill="none" stroke="midnightblue" d="M444.889,-159.655C466.893,-164.692 494.055,-170.909 517.352,-176.243"/>
<polygon fill="midnightblue" stroke="midnightblue" points="516.884,-179.726 527.412,-178.546 518.446,-172.902 516.884,-179.726"/>
</g>
<!-- Node13&#45;&gt;Node9 -->
<g id="edge18" class="edge"><title>Node13&#45;&gt;Node9</title>
<path fill="none" stroke="midnightblue" d="M431.536,-140.439C459.02,-131.167 500.769,-117.083 531.045,-106.87"/>
<polygon fill="midnightblue" stroke="midnightblue" points="532.479,-110.08 540.836,-103.567 530.242,-103.447 532.479,-110.08"/>
</g>
<!-- Node15 -->
<g id="node15" class="node"><title>Node15</title>
<g id="a_node15"><a xlink:href="../../d1/d54/namespace_script.html#aaf10cce8c51e44ea46f7789b3db96bc0" target="_top" xlink:title=" ">
<polygon fill="white" stroke="black" points="518,-36.5656 518,-55.5656 622,-55.5656 622,-36.5656 518,-36.5656"/>
<text text-anchor="middle" x="570" y="-43.5656" font-family="Helvetica,sans-Serif" font-size="10.00">Script::GetStructure</text>
</a>
</g>
</g>
<!-- Node14&#45;&gt;Node15 -->
<g id="edge20" class="edge"><title>Node14&#45;&gt;Node15</title>
<path fill="none" stroke="midnightblue" d="M449.682,-67.6291C467.729,-64.3676 488.63,-60.5904 507.848,-57.1172"/>
<polygon fill="midnightblue" stroke="midnightblue" points="508.502,-60.5557 517.721,-55.333 507.257,-53.6673 508.502,-60.5557"/>
</g>
<!-- Node15&#45;&gt;Node4 -->
<g id="edge21" class="edge"><title>Node15&#45;&gt;Node4</title>
<path fill="none" stroke="midnightblue" d="M588.476,-36.5406C626.812,-17.067 719.822,22.2827 782,-17.0656 813.583,-37.0522 789.401,-69.002 818,-93.0656 820.024,-94.769 822.19,-96.3203 824.459,-97.7332"/>
<polygon fill="midnightblue" stroke="midnightblue" points="823.159,-101.003 833.644,-102.524 826.397,-94.7961 823.159,-101.003"/>
</g>
<!-- Node15&#45;&gt;Node10 -->
<g id="edge22" class="edge"><title>Node15&#45;&gt;Node10</title>
<path fill="none" stroke="midnightblue" d="M622.182,-42.7636C634.901,-41.943 648.693,-41.0532 661.943,-40.1983"/>
<polygon fill="midnightblue" stroke="midnightblue" points="662.19,-43.6898 671.944,-39.5531 661.739,-36.7043 662.19,-43.6898"/>
</g>
<!-- Node15&#45;&gt;Node11 -->
<g id="edge23" class="edge"><title>Node15&#45;&gt;Node11</title>
<path fill="none" stroke="midnightblue" d="M622.182,-55.3115C639.431,-58.4274 658.654,-61.8998 675.824,-65.0016"/>
<polygon fill="midnightblue" stroke="midnightblue" points="675.203,-68.446 685.666,-66.7795 676.447,-61.5575 675.203,-68.446"/>
</g>
</g>
</svg>
        <g id="navigator" transform="translate(0 0)" fill="#404254">
                <rect fill="#f2f5e9" fill-opacity="0.5" stroke="#606060" stroke-width=".5" x="0" y="0" width="60" height="60"/>
                <use id="zoomplus" xlink:href="#zoomPlus" x="17" y="9" onmousedown="handleZoom(evt,'in')"/>
                <use id="zoomminus" xlink:href="#zoomMin" x="42" y="9" onmousedown="handleZoom(evt,'out')"/>
                <use id="reset" xlink:href="#resetDef" x="30" y="36" onmousedown="handleReset()"/>
                <g id="arrowUp" xlink:href="#dirArrow" transform="translate(30 24)" onmousedown="handlePan(0,-1)">
                  <use xlink:href="#rim" fill="#404040">
                        <set attributeName="fill" to="#808080" begin="arrowUp.mouseover" end="arrowUp.mouseout"/>
                  </use>
                  <path fill="none" stroke="white" stroke-width="1.5" d="M0,-3.0v7 M-2.5,-0.5L0,-3.0L2.5,-0.5"/>
                </g>
                <g id="arrowRight" xlink:href="#dirArrow" transform="rotate(90) translate(36 -43)" onmousedown="handlePan(1,0)">
                  <use xlink:href="#rim" fill="#404040">
                        <set attributeName="fill" to="#808080" begin="arrowRight.mouseover" end="arrowRight.mouseout"/>
                  </use>
                  <path fill="none" stroke="white" stroke-width="1.5" d="M0,-3.0v7 M-2.5,-0.5L0,-3.0L2.5,-0.5"/>
                </g>
                <g id="arrowDown" xlink:href="#dirArrow" transform="rotate(180) translate(-30 -48)" onmousedown="handlePan(0,1)">
                  <use xlink:href="#rim" fill="#404040">
                        <set attributeName="fill" to="#808080" begin="arrowDown.mouseover" end="arrowDown.mouseout"/>
                  </use>
                  <path fill="none" stroke="white" stroke-width="1.5" d="M0,-3.0v7 M-2.5,-0.5L0,-3.0L2.5,-0.5"/>
                </g>
                <g id="arrowLeft" xlink:href="#dirArrow" transform="rotate(270) translate(-36 17)" onmousedown="handlePan(-1,0)">
                  <use xlink:href="#rim" fill="#404040">
                        <set attributeName="fill" to="#808080" begin="arrowLeft.mouseover" end="arrowLeft.mouseout"/>
                  </use>
                  <path fill="none" stroke="white" stroke-width="1.5" d="M0,-3.0v7 M-2.5,-0.5L0,-3.0L2.5,-0.5"/>
                </g>
        </g>
        <svg viewBox="0 0 15 15" width="100%" height="30px" preserveAspectRatio="xMaxYMin meet">
         <g id="arrow_out" transform="scale(0.3 0.3)">
          <a xlink:href="class_obj_1_1_c_goal_editor_component_a240fe44245ec1bc106b851d85337f6a2_cgraph_org.svg" target="_base">
           <rect id="button" ry="5" rx="5" y="6" x="6" height="38" width="38"
                fill="#f2f5e9" fill-opacity="0.5" stroke="#606060" stroke-width="1.0"/>
           <path id="arrow"
             d="M 11.500037,31.436501 C 11.940474,20.09759 22.043105,11.32322 32.158766,21.979434 L 37.068811,17.246167 C 37.068811,17.246167 37.088388,32 37.088388,32 L 22.160133,31.978069 C 22.160133,31.978069 26.997745,27.140456 26.997745,27.140456 C 18.528582,18.264221 13.291696,25.230495 11.500037,31.436501 z"
             style="fill:#404040;"/>
          </a>
         </g>
        </svg>
</svg>
