<?xml version="1.0" encoding="UTF-8" standalone="no"?>
<!DOCTYPE svg PUBLIC "-//W3C//DTD SVG 1.1//EN"
 "http://www.w3.org/Graphics/SVG/1.1/DTD/svg11.dtd">
<!-- Generated by graphviz version 2.38.0 (20140413.2041)
 -->
<!-- Title: NsMatrix::getRight Pages: 1 -->
<svg width="272pt" height="66pt"
 viewBox="0.00 0.00 272.00 66.00" xmlns="http://www.w3.org/2000/svg" xmlns:xlink="http://www.w3.org/1999/xlink">
<g id="graph0" class="graph" transform="scale(1 1) rotate(0) translate(4 62)">
<title>NsMatrix::getRight</title>
<polygon fill="white" stroke="none" points="-4,4 -4,-62 268,-62 268,4 -4,4"/>
<!-- Node1 -->
<g id="node1" class="node"><title>Node1</title>
<g id="a_node1"><a xlink:title=" ">
<polygon fill="#bfbfbf" stroke="black" points="166,-19.5 166,-38.5 264,-38.5 264,-19.5 166,-19.5"/>
<text text-anchor="middle" x="215" y="-26.5" font-family="Helvetica,sans-Serif" font-size="10.00">NsMatrix::getRight</text>
</a>
</g>
</g>
<!-- Node2 -->
<g id="node2" class="node"><title>Node2</title>
<g id="a_node2"><a xlink:href="../../de/d1b/class_ns_matrix.html#a290afc614b8a41f1e5f13c9e60418f02" target="_top" xlink:title=" ">
<polygon fill="white" stroke="black" points="9.5,-38.5 9.5,-57.5 120.5,-57.5 120.5,-38.5 9.5,-38.5"/>
<text text-anchor="middle" x="65" y="-45.5" font-family="Helvetica,sans-Serif" font-size="10.00">NsMatrix::getRotation</text>
</a>
</g>
</g>
<!-- Node1&#45;&gt;Node2 -->
<g id="edge1" class="edge"><title>Node1&#45;&gt;Node2</title>
<path fill="none" stroke="midnightblue" d="M155.937,-36.4541C144.349,-37.9417 132.214,-39.4995 120.743,-40.9722"/>
<polygon fill="midnightblue" stroke="midnightblue" points="156.476,-39.9137 165.949,-35.1688 155.584,-32.9707 156.476,-39.9137"/>
</g>
<!-- Node3 -->
<g id="node3" class="node"><title>Node3</title>
<g id="a_node3"><a xlink:href="../../df/d2c/class_ns_camera.html#ab3dba9d9555f1dcce0f772c655940556" target="_top" xlink:title=" ">
<polygon fill="white" stroke="black" points="0,-0.5 0,-19.5 130,-19.5 130,-0.5 0,-0.5"/>
<text text-anchor="middle" x="65" y="-7.5" font-family="Helvetica,sans-Serif" font-size="10.00">NsCamera::getViewMatrix</text>
</a>
</g>
</g>
<!-- Node1&#45;&gt;Node3 -->
<g id="edge2" class="edge"><title>Node1&#45;&gt;Node3</title>
<path fill="none" stroke="midnightblue" d="M155.863,-21.5365C147.452,-20.4567 138.755,-19.3401 130.233,-18.2461"/>
<polygon fill="midnightblue" stroke="midnightblue" points="155.584,-25.0293 165.949,-22.8312 156.476,-18.0863 155.584,-25.0293"/>
</g>
</g>
</svg>
