<?xml version="1.0" encoding="UTF-8" standalone="no"?>
<!DOCTYPE svg PUBLIC "-//W3C//DTD SVG 1.1//EN"
 "http://www.w3.org/Graphics/SVG/1.1/DTD/svg11.dtd">
<!-- Generated by graphviz version 2.38.0 (20140413.2041)
 -->
<!-- Title: Replay::RunningReplay Pages: 1 -->
<svg width="870pt" height="192pt"
 viewBox="0.00 0.00 870.00 191.50" xmlns="http://www.w3.org/2000/svg" xmlns:xlink="http://www.w3.org/1999/xlink">
<g id="graph0" class="graph" transform="scale(1 1) rotate(0) translate(4 187.5)">
<title>Replay::RunningReplay</title>
<polygon fill="white" stroke="none" points="-4,4 -4,-187.5 866,-187.5 866,4 -4,4"/>
<!-- Node1 -->
<g id="node1" class="node"><title>Node1</title>
<g id="a_node1"><a xlink:title=" ">
<polygon fill="#bfbfbf" stroke="black" points="744,-88 744,-107 862,-107 862,-88 744,-88"/>
<text text-anchor="middle" x="803" y="-95" font-family="Helvetica,sans-Serif" font-size="10.00">Replay::RunningReplay</text>
</a>
</g>
</g>
<!-- Node2 -->
<g id="node2" class="node"><title>Node2</title>
<g id="a_node2"><a xlink:href="../../d1/dd7/class_nx_1_1_c_particle.html#a95acfbac9ce21cdff3640b38aca260a8" target="_top" xlink:title=" ">
<polygon fill="white" stroke="black" points="579,-164 579,-183 694,-183 694,-164 579,-164"/>
<text text-anchor="middle" x="636.5" y="-171" font-family="Helvetica,sans-Serif" font-size="10.00">Nx::CParticle::process</text>
</a>
</g>
</g>
<!-- Node1&#45;&gt;Node2 -->
<g id="edge1" class="edge"><title>Node1&#45;&gt;Node2</title>
<path fill="none" stroke="midnightblue" d="M780.68,-112.835C762.214,-125.515 734.39,-143.212 708,-154.5 699.375,-158.189 689.846,-161.333 680.656,-163.938"/>
<polygon fill="midnightblue" stroke="midnightblue" points="782.751,-115.658 788.946,-107.063 778.743,-109.919 782.751,-115.658"/>
</g>
<!-- Node7 -->
<g id="node7" class="node"><title>Node7</title>
<g id="a_node7"><a xlink:href="../../d9/d29/namespace_replay.html#a7558e559f271915e364c7860ed1ecc82" target="_top" xlink:title=" ">
<polygon fill="white" stroke="black" points="565,-126 565,-145 708,-145 708,-126 565,-126"/>
<text text-anchor="middle" x="636.5" y="-133" font-family="Helvetica,sans-Serif" font-size="10.00">Replay::ScriptRunningReplay</text>
</a>
</g>
</g>
<!-- Node1&#45;&gt;Node7 -->
<g id="edge6" class="edge"><title>Node1&#45;&gt;Node7</title>
<path fill="none" stroke="midnightblue" d="M750.503,-109.396C727.38,-114.737 700.47,-120.954 678.712,-125.98"/>
<polygon fill="midnightblue" stroke="midnightblue" points="751.534,-112.75 760.49,-107.089 749.958,-105.93 751.534,-112.75"/>
</g>
<!-- Node8 -->
<g id="node8" class="node"><title>Node8</title>
<g id="a_node8"><a xlink:href="../../d1/d06/namespace_nx.html#ac0447a8e77d8b3668134981dd47538fd" target="_top" xlink:title=" ">
<polygon fill="white" stroke="black" points="420.5,-88 420.5,-107 517.5,-107 517.5,-88 420.5,-88"/>
<text text-anchor="middle" x="469" y="-95" font-family="Helvetica,sans-Serif" font-size="10.00">Nx::ShatterUpdate</text>
</a>
</g>
</g>
<!-- Node1&#45;&gt;Node8 -->
<g id="edge7" class="edge"><title>Node1&#45;&gt;Node8</title>
<path fill="none" stroke="midnightblue" d="M733.719,-97.5C669.267,-97.5 574.297,-97.5 517.646,-97.5"/>
<polygon fill="midnightblue" stroke="midnightblue" points="733.79,-101 743.79,-97.5 733.79,-94.0001 733.79,-101"/>
</g>
<!-- Node9 -->
<g id="node9" class="node"><title>Node9</title>
<g id="a_node9"><a xlink:href="../../d1/d06/namespace_nx.html#aef73929bb9d4d268676231a49b84e4c1" target="_top" xlink:title=" ">
<polygon fill="white" stroke="black" points="409,-50 409,-69 529,-69 529,-50 409,-50"/>
<text text-anchor="middle" x="469" y="-57" font-family="Helvetica,sans-Serif" font-size="10.00">Nx::TextureSplatUpdate</text>
</a>
</g>
</g>
<!-- Node1&#45;&gt;Node9 -->
<g id="edge9" class="edge"><title>Node1&#45;&gt;Node9</title>
<path fill="none" stroke="midnightblue" d="M733.616,-89.6729C673.393,-82.78 586.585,-72.8441 529.262,-66.283"/>
<polygon fill="midnightblue" stroke="midnightblue" points="733.457,-93.1775 743.79,-90.8374 734.253,-86.2229 733.457,-93.1775"/>
</g>
<!-- Node10 -->
<g id="node10" class="node"><title>Node10</title>
<g id="a_node10"><a xlink:href="../../dc/dfa/class_front_1_1_c_element3d.html#af0d5dc579096bf62d01eca976e221540" target="_top" xlink:title=" ">
<polygon fill="white" stroke="black" points="584.5,-0.5 584.5,-30.5 688.5,-30.5 688.5,-0.5 584.5,-0.5"/>
<text text-anchor="start" x="592.5" y="-18.5" font-family="Helvetica,sans-Serif" font-size="10.00">Front::CElement3d::</text>
<text text-anchor="middle" x="636.5" y="-7.5" font-family="Helvetica,sans-Serif" font-size="10.00">update</text>
</a>
</g>
</g>
<!-- Node1&#45;&gt;Node10 -->
<g id="edge11" class="edge"><title>Node1&#45;&gt;Node10</title>
<path fill="none" stroke="midnightblue" d="M777.181,-82.8523C758.441,-72.0185 731.947,-57.1805 708,-45.5 697.36,-40.3101 685.597,-35.1029 674.778,-30.5177"/>
<polygon fill="midnightblue" stroke="midnightblue" points="775.563,-85.96 785.966,-87.9659 779.084,-79.9103 775.563,-85.96"/>
</g>
<!-- Node3 -->
<g id="node3" class="node"><title>Node3</title>
<g id="a_node3"><a xlink:href="../../d1/d06/namespace_nx.html#a01eff0a98fb223d901962041cc49abe4" target="_top" xlink:title=" ">
<polygon fill="white" stroke="black" points="413.5,-145 413.5,-164 524.5,-164 524.5,-145 413.5,-145"/>
<text text-anchor="middle" x="469" y="-152" font-family="Helvetica,sans-Serif" font-size="10.00">Nx::process_particles</text>
</a>
</g>
</g>
<!-- Node2&#45;&gt;Node3 -->
<g id="edge2" class="edge"><title>Node2&#45;&gt;Node3</title>
<path fill="none" stroke="midnightblue" d="M568.553,-165.814C553.928,-164.135 538.62,-162.378 524.547,-160.762"/>
<polygon fill="midnightblue" stroke="midnightblue" points="568.21,-169.298 578.544,-166.961 569.009,-162.343 568.21,-169.298"/>
</g>
<!-- Node4 -->
<g id="node4" class="node"><title>Node4</title>
<g id="a_node4"><a xlink:href="../../d9/d8c/class_nx_1_1_c_engine.html#ace274d6d74746eb2398ce51e6c5a5f30" target="_top" xlink:title=" ">
<polygon fill="white" stroke="black" points="234,-88 234,-107 373,-107 373,-88 234,-88"/>
<text text-anchor="middle" x="303.5" y="-95" font-family="Helvetica,sans-Serif" font-size="10.00">Nx::CEngine::sRenderWorld</text>
</a>
</g>
</g>
<!-- Node3&#45;&gt;Node4 -->
<g id="edge3" class="edge"><title>Node3&#45;&gt;Node4</title>
<path fill="none" stroke="midnightblue" d="M430.916,-141.572C400.832,-131.084 359.103,-116.536 331.956,-107.072"/>
<polygon fill="midnightblue" stroke="midnightblue" points="430.039,-144.972 440.634,-144.959 432.343,-138.363 430.039,-144.972"/>
</g>
<!-- Node5 -->
<g id="node5" class="node"><title>Node5</title>
<g id="a_node5"><a xlink:href="../../d3/d66/class_mlp_1_1_manager.html#a118bb3db98dd133cea15b15c288b29f0" target="_top" xlink:title=" ">
<polygon fill="white" stroke="black" points="74,-88 74,-107 198,-107 198,-88 74,-88"/>
<text text-anchor="middle" x="136" y="-95" font-family="Helvetica,sans-Serif" font-size="10.00">Mlp::Manager::MainLoop</text>
</a>
</g>
</g>
<!-- Node4&#45;&gt;Node5 -->
<g id="edge4" class="edge"><title>Node4&#45;&gt;Node5</title>
<path fill="none" stroke="midnightblue" d="M223.714,-97.5C215.123,-97.5 206.474,-97.5 198.14,-97.5"/>
<polygon fill="midnightblue" stroke="midnightblue" points="223.751,-101 233.751,-97.5 223.751,-94.0001 223.751,-101"/>
</g>
<!-- Node6 -->
<g id="node6" class="node"><title>Node6</title>
<g id="a_node6"><a xlink:href="../../d5/d12/_main_8cpp.html#a0e18e794c708408ef1dec237965cb73d" target="_top" xlink:title=" ">
<polygon fill="white" stroke="black" points="0,-88 0,-107 38,-107 38,-88 0,-88"/>
<text text-anchor="middle" x="19" y="-95" font-family="Helvetica,sans-Serif" font-size="10.00">main</text>
</a>
</g>
</g>
<!-- Node5&#45;&gt;Node6 -->
<g id="edge5" class="edge"><title>Node5&#45;&gt;Node6</title>
<path fill="none" stroke="midnightblue" d="M63.7713,-97.5C54.2902,-97.5 45.3381,-97.5 38.03,-97.5"/>
<polygon fill="midnightblue" stroke="midnightblue" points="63.7963,-101 73.7962,-97.5 63.7962,-94.0001 63.7963,-101"/>
</g>
<!-- Node8&#45;&gt;Node4 -->
<g id="edge8" class="edge"><title>Node8&#45;&gt;Node4</title>
<path fill="none" stroke="midnightblue" d="M410.029,-97.5C398.127,-97.5 385.489,-97.5 373.25,-97.5"/>
<polygon fill="midnightblue" stroke="midnightblue" points="410.27,-101 420.27,-97.5 410.269,-94.0001 410.27,-101"/>
</g>
<!-- Node9&#45;&gt;Node4 -->
<g id="edge10" class="edge"><title>Node9&#45;&gt;Node4</title>
<path fill="none" stroke="midnightblue" d="M416.816,-71.3961C393.834,-76.7374 367.087,-82.9537 345.461,-87.9799"/>
<polygon fill="midnightblue" stroke="midnightblue" points="417.794,-74.762 426.742,-69.089 416.209,-67.9438 417.794,-74.762"/>
</g>
</g>
</svg>
