<?xml version="1.0" encoding="UTF-8" standalone="no"?>
<!DOCTYPE svg PUBLIC "-//W3C//DTD SVG 1.1//EN"
 "http://www.w3.org/Graphics/SVG/1.1/DTD/svg11.dtd">
<!-- Generated by graphviz version 2.38.0 (20140413.2041)
 -->
<!-- Title: Replay::WritePlayStream Pages: 1 -->
<svg width="460pt" height="192pt"
 viewBox="0.00 0.00 460.00 191.50" xmlns="http://www.w3.org/2000/svg" xmlns:xlink="http://www.w3.org/1999/xlink">
<g id="graph0" class="graph" transform="scale(1 1) rotate(0) translate(4 187.5)">
<title>Replay::WritePlayStream</title>
<polygon fill="white" stroke="none" points="-4,4 -4,-187.5 456,-187.5 456,4 -4,4"/>
<!-- Node1 -->
<g id="node1" class="node"><title>Node1</title>
<g id="a_node1"><a xlink:title=" ">
<polygon fill="#bfbfbf" stroke="black" points="0,-76.5 0,-95.5 127,-95.5 127,-76.5 0,-76.5"/>
<text text-anchor="middle" x="63.5" y="-83.5" font-family="Helvetica,sans-Serif" font-size="10.00">Replay::WritePlayStream</text>
</a>
</g>
</g>
<!-- Node2 -->
<g id="node2" class="node"><title>Node2</title>
<g id="a_node2"><a xlink:href="../../da/d13/struct_sfx_1_1s_volume.html#a308ed6f4baabba296b62b106dc707cc9" target="_top" xlink:title=" ">
<polygon fill="white" stroke="black" points="172.5,-153 172.5,-183 304.5,-183 304.5,-153 172.5,-153"/>
<text text-anchor="start" x="180.5" y="-171" font-family="Helvetica,sans-Serif" font-size="10.00">Sfx::sVolume::GetChannel</text>
<text text-anchor="middle" x="238.5" y="-160" font-family="Helvetica,sans-Serif" font-size="10.00">Volume</text>
</a>
</g>
</g>
<!-- Node1&#45;&gt;Node2 -->
<g id="edge1" class="edge"><title>Node1&#45;&gt;Node2</title>
<path fill="none" stroke="midnightblue" d="M79.0246,-95.6536C97.8173,-107.847 131.849,-128.932 163,-143 167.974,-145.246 173.212,-147.4 178.51,-149.437"/>
<polygon fill="midnightblue" stroke="midnightblue" points="177.476,-152.786 188.069,-152.97 179.903,-146.22 177.476,-152.786"/>
</g>
<!-- Node3 -->
<g id="node3" class="node"><title>Node3</title>
<g id="a_node3"><a xlink:href="../../da/d13/struct_sfx_1_1s_volume.html#a98867019f809e9b60b6a926508b8aeaf" target="_top" xlink:title=" ">
<polygon fill="white" stroke="black" points="163,-114.5 163,-133.5 314,-133.5 314,-114.5 163,-114.5"/>
<text text-anchor="middle" x="238.5" y="-121.5" font-family="Helvetica,sans-Serif" font-size="10.00">Sfx::sVolume::GetVolumeType</text>
</a>
</g>
</g>
<!-- Node1&#45;&gt;Node3 -->
<g id="edge2" class="edge"><title>Node1&#45;&gt;Node3</title>
<path fill="none" stroke="midnightblue" d="M108.155,-95.589C131.293,-100.671 159.902,-106.955 184.327,-112.32"/>
<polygon fill="midnightblue" stroke="midnightblue" points="183.641,-115.753 194.159,-114.48 185.142,-108.916 183.641,-115.753"/>
</g>
<!-- Node4 -->
<g id="node4" class="node"><title>Node4</title>
<g id="a_node4"><a xlink:href="../../d9/d29/namespace_replay.html#ace304a52f3a65514afea11f4a5882289" target="_top" xlink:title=" ">
<polygon fill="white" stroke="black" points="187,-76.5 187,-95.5 290,-95.5 290,-76.5 187,-76.5"/>
<text text-anchor="middle" x="238.5" y="-83.5" font-family="Helvetica,sans-Serif" font-size="10.00">Replay::sWriteFloat</text>
</a>
</g>
</g>
<!-- Node1&#45;&gt;Node4 -->
<g id="edge3" class="edge"><title>Node1&#45;&gt;Node4</title>
<path fill="none" stroke="midnightblue" d="M127.446,-86C143.455,-86 160.629,-86 176.537,-86"/>
<polygon fill="midnightblue" stroke="midnightblue" points="176.783,-89.5001 186.783,-86 176.783,-82.5001 176.783,-89.5001"/>
</g>
<!-- Node6 -->
<g id="node6" class="node"><title>Node6</title>
<g id="a_node6"><a xlink:href="../../d9/d29/namespace_replay.html#a70c9a5bdae9b8cc9dc32add89d5d4b73" target="_top" xlink:title=" ">
<polygon fill="white" stroke="black" points="171.5,-38.5 171.5,-57.5 305.5,-57.5 305.5,-38.5 171.5,-38.5"/>
<text text-anchor="middle" x="238.5" y="-45.5" font-family="Helvetica,sans-Serif" font-size="10.00">Replay::sWriteSingleToken</text>
</a>
</g>
</g>
<!-- Node1&#45;&gt;Node6 -->
<g id="edge5" class="edge"><title>Node1&#45;&gt;Node6</title>
<path fill="none" stroke="midnightblue" d="M108.155,-76.411C131.293,-71.3287 159.902,-65.0446 184.327,-59.6797"/>
<polygon fill="midnightblue" stroke="midnightblue" points="185.142,-63.084 194.159,-57.5201 183.641,-56.247 185.142,-63.084"/>
</g>
<!-- Node7 -->
<g id="node7" class="node"><title>Node7</title>
<g id="a_node7"><a xlink:href="../../d9/d29/namespace_replay.html#ac96941574d420bacdbf78bb9e89b1d90" target="_top" xlink:title=" ">
<polygon fill="white" stroke="black" points="184,-0.5 184,-19.5 293,-19.5 293,-0.5 184,-0.5"/>
<text text-anchor="middle" x="238.5" y="-7.5" font-family="Helvetica,sans-Serif" font-size="10.00">Replay::sWriteUint32</text>
</a>
</g>
</g>
<!-- Node1&#45;&gt;Node7 -->
<g id="edge6" class="edge"><title>Node1&#45;&gt;Node7</title>
<path fill="none" stroke="midnightblue" d="M78.2273,-76.4125C96.7103,-63.897 130.983,-42.0542 163,-29 169.145,-26.4944 175.714,-24.2453 182.309,-22.2477"/>
<polygon fill="midnightblue" stroke="midnightblue" points="183.288,-25.6082 191.945,-19.5003 181.369,-18.8765 183.288,-25.6082"/>
</g>
<!-- Node5 -->
<g id="node5" class="node"><title>Node5</title>
<g id="a_node5"><a xlink:href="../../d1/d54/namespace_script.html#a8f645576233ac57731b814dbe06a7aa8" target="_top" xlink:title=" ">
<polygon fill="white" stroke="black" points="350,-38.5 350,-57.5 452,-57.5 452,-38.5 350,-38.5"/>
<text text-anchor="middle" x="401" y="-45.5" font-family="Helvetica,sans-Serif" font-size="10.00">Script::Write4Bytes</text>
</a>
</g>
</g>
<!-- Node4&#45;&gt;Node5 -->
<g id="edge4" class="edge"><title>Node4&#45;&gt;Node5</title>
<path fill="none" stroke="midnightblue" d="M280.001,-76.411C301.181,-71.3965 327.302,-65.2119 349.76,-59.8947"/>
<polygon fill="midnightblue" stroke="midnightblue" points="350.866,-63.2299 359.79,-57.5201 349.253,-56.4182 350.866,-63.2299"/>
</g>
<!-- Node7&#45;&gt;Node5 -->
<g id="edge7" class="edge"><title>Node7&#45;&gt;Node5</title>
<path fill="none" stroke="midnightblue" d="M280.001,-19.589C301.181,-24.6035 327.302,-30.7881 349.76,-36.1053"/>
<polygon fill="midnightblue" stroke="midnightblue" points="349.253,-39.5818 359.79,-38.4799 350.866,-32.7701 349.253,-39.5818"/>
</g>
</g>
</svg>
