<?xml version="1.0" encoding="UTF-8" standalone="no"?>
<!DOCTYPE svg PUBLIC "-//W3C//DTD SVG 1.1//EN"
 "http://www.w3.org/Graphics/SVG/1.1/DTD/svg11.dtd">
<!-- Generated by graphviz version 2.38.0 (20140413.2041)
 -->
<!-- Title: Nx::CTexture::GetChecksum Pages: 1 -->
<!--zoomable 481 -->
<svg id="main" version="1.1" xmlns="http://www.w3.org/2000/svg" xmlns:xlink="http://www.w3.org/1999/xlink" xml:space="preserve" onload="init(evt)">
<style type="text/css"><![CDATA[
.edge:hover path { stroke: red; }
.edge:hover polygon { stroke: red; fill: red; }
]]></style>
<script type="text/javascript"><![CDATA[
var edges = document.getElementsByTagName('g');
if (edges && edges.length) {
  for (var i=0;i<edges.length;i++) {
    if (edges[i].id.substr(0,4)=='edge') {
      edges[i].setAttribute('class','edge');
    }
  }
}
]]></script>
        <defs>
                <circle id="rim" cx="0" cy="0" r="7"/>
                <circle id="rim2" cx="0" cy="0" r="3.5"/>
                <g id="zoomPlus">
                        <use xlink:href="#rim" fill="#404040">
                                <set attributeName="fill" to="#808080" begin="zoomplus.mouseover" end="zoomplus.mouseout"/>
                        </use>
                        <path d="M-4,0h8M0,-4v8" fill="none" stroke="white" stroke-width="1.5" pointer-events="none"/>
                </g>
                <g id="zoomMin">
                        <use xlink:href="#rim" fill="#404040">
                                <set attributeName="fill" to="#808080" begin="zoomminus.mouseover" end="zoomminus.mouseout"/>
                        </use>
                        <path d="M-4,0h8" fill="none" stroke="white" stroke-width="1.5" pointer-events="none"/>
                </g>
                <g id="dirArrow">
                        <path fill="none" stroke="white" stroke-width="1.5" d="M0,-3.0v7 M-2.5,-0.5L0,-3.0L2.5,-0.5"/>
                </g>
               <g id="resetDef">
                       <use xlink:href="#rim2" fill="#404040">
                               <set attributeName="fill" to="#808080" begin="reset.mouseover" end="reset.mouseout"/>
                       </use>
               </g>
        </defs>

<script type="text/javascript">
var viewWidth = 895;
var viewHeight = 481;
var sectionId = 'dynsection-30';
</script>
<script xlink:href="../../svgpan.js"/>
<svg id="graph" class="graph">
<g id="viewport">
<title>Nx::CTexture::GetChecksum</title>
<polygon fill="white" stroke="none" points="-4,4 -4,-476.5 891,-476.5 891,4 -4,4"/>
<!-- Node1 -->
<g id="node1" class="node"><title>Node1</title>
<g id="a_node1"><a xlink:title=" ">
<polygon fill="#bfbfbf" stroke="black" points="745,-135.5 745,-154.5 887,-154.5 887,-135.5 745,-135.5"/>
<text text-anchor="middle" x="816" y="-142.5" font-family="Helvetica,sans-Serif" font-size="10.00">Nx::CTexture::GetChecksum</text>
</a>
</g>
</g>
<!-- Node2 -->
<g id="node2" class="node"><title>Node2</title>
<g id="a_node2"><a xlink:href="../../d1/d37/class_nx_1_1_c_tex_dict.html#a140bccecaa34fb45f940b2b77c7fee51" target="_top" xlink:title=" ">
<polygon fill="white" stroke="black" points="572.5,-381.5 572.5,-400.5 702.5,-400.5 702.5,-381.5 572.5,-381.5"/>
<text text-anchor="middle" x="637.5" y="-388.5" font-family="Helvetica,sans-Serif" font-size="10.00">Nx::CTexDict::AddTexture</text>
</a>
</g>
</g>
<!-- Node1&#45;&gt;Node2 -->
<g id="edge1" class="edge"><title>Node1&#45;&gt;Node2</title>
<path fill="none" stroke="midnightblue" d="M803.884,-163.514C785.292,-194.114 746.252,-256.844 709,-307 688.112,-335.123 660.83,-366.214 647.136,-381.478"/>
<polygon fill="midnightblue" stroke="midnightblue" points="806.995,-165.133 809.173,-154.764 801.004,-161.511 806.995,-165.133"/>
</g>
<!-- Node6 -->
<g id="node6" class="node"><title>Node6</title>
<g id="a_node6"><a xlink:href="../../d0/dea/class_nx_1_1_c_model.html#ae466409e518cc7ac161762b0dbc52ca3" target="_top" xlink:title=" ">
<polygon fill="white" stroke="black" points="378,-126.5 378,-145.5 530,-145.5 530,-126.5 378,-126.5"/>
<text text-anchor="middle" x="454" y="-133.5" font-family="Helvetica,sans-Serif" font-size="10.00">Nx::CModel::ApplyFaceTexture</text>
</a>
</g>
</g>
<!-- Node1&#45;&gt;Node6 -->
<g id="edge5" class="edge"><title>Node1&#45;&gt;Node6</title>
<path fill="none" stroke="midnightblue" d="M734.733,-142.993C673.551,-141.464 589.907,-139.373 530.054,-137.876"/>
<polygon fill="midnightblue" stroke="midnightblue" points="734.649,-146.492 744.734,-143.243 734.824,-139.494 734.649,-146.492"/>
</g>
<!-- Node7 -->
<g id="node7" class="node"><title>Node7</title>
<g id="a_node7"><a xlink:href="../../d1/d37/class_nx_1_1_c_tex_dict.html#aafdb9ef179367efd73cb9244f0499252" target="_top" xlink:title=" ">
<polygon fill="white" stroke="black" points="566.5,-47.5 566.5,-66.5 708.5,-66.5 708.5,-47.5 566.5,-47.5"/>
<text text-anchor="middle" x="637.5" y="-54.5" font-family="Helvetica,sans-Serif" font-size="10.00">Nx::CTexDict::FlushTextures</text>
</a>
</g>
</g>
<!-- Node1&#45;&gt;Node7 -->
<g id="edge6" class="edge"><title>Node1&#45;&gt;Node7</title>
<path fill="none" stroke="midnightblue" d="M795.042,-129.25C774.517,-113.738 741.103,-90.3417 709,-76 700.667,-72.2772 691.444,-69.1456 682.492,-66.567"/>
<polygon fill="midnightblue" stroke="midnightblue" points="792.944,-132.052 803.008,-135.366 797.207,-126.5 792.944,-132.052"/>
</g>
<!-- Node10 -->
<g id="node10" class="node"><title>Node10</title>
<g id="a_node10"><a xlink:href="../../d1/d37/class_nx_1_1_c_tex_dict.html#a3bb394a305bed6e96f92bf0ff02cd0f5" target="_top" xlink:title=" ">
<polygon fill="white" stroke="black" points="570.5,-183.5 570.5,-202.5 704.5,-202.5 704.5,-183.5 570.5,-183.5"/>
<text text-anchor="middle" x="637.5" y="-190.5" font-family="Helvetica,sans-Serif" font-size="10.00">Nx::CTexDict::LoadTexture</text>
</a>
</g>
</g>
<!-- Node1&#45;&gt;Node10 -->
<g id="edge9" class="edge"><title>Node1&#45;&gt;Node10</title>
<path fill="none" stroke="midnightblue" d="M769.934,-157.256C740.04,-165.386 701.373,-175.901 673.732,-183.418"/>
<polygon fill="midnightblue" stroke="midnightblue" points="770.976,-160.6 779.707,-154.598 769.139,-153.845 770.976,-160.6"/>
</g>
<!-- Node15 -->
<g id="node15" class="node"><title>Node15</title>
<g id="a_node15"><a xlink:href="../../d1/d37/class_nx_1_1_c_tex_dict.html#ad35122aee93b8207789a959edc567e5b" target="_top" xlink:title=" ">
<polygon fill="white" stroke="black" points="570.5,-86 570.5,-116 704.5,-116 704.5,-86 570.5,-86"/>
<text text-anchor="start" x="578.5" y="-104" font-family="Helvetica,sans-Serif" font-size="10.00">Nx::CTexDict::LoadTexture</text>
<text text-anchor="middle" x="637.5" y="-93" font-family="Helvetica,sans-Serif" font-size="10.00">FromBuffer</text>
</a>
</g>
</g>
<!-- Node1&#45;&gt;Node15 -->
<g id="edge15" class="edge"><title>Node1&#45;&gt;Node15</title>
<path fill="none" stroke="midnightblue" d="M766.759,-132.974C745.823,-127.755 721.076,-121.586 698.933,-116.065"/>
<polygon fill="midnightblue" stroke="midnightblue" points="766.152,-136.43 776.702,-135.453 767.846,-129.638 766.152,-136.43"/>
</g>
<!-- Node17 -->
<g id="node17" class="node"><title>Node17</title>
<g id="a_node17"><a xlink:href="../../d1/d06/namespace_nx.html#a4888c83040633d2cb687346cefd6474c" target="_top" xlink:title=" ">
<polygon fill="white" stroke="black" points="576,-9.5 576,-28.5 699,-28.5 699,-9.5 576,-9.5"/>
<text text-anchor="middle" x="637.5" y="-16.5" font-family="Helvetica,sans-Serif" font-size="10.00">Nx::ScriptDumpTextures</text>
</a>
</g>
</g>
<!-- Node1&#45;&gt;Node17 -->
<g id="edge18" class="edge"><title>Node1&#45;&gt;Node17</title>
<path fill="none" stroke="midnightblue" d="M802.211,-127.146C784.15,-103.25 748.888,-61.1931 709,-38 702.315,-34.1132 694.813,-30.9999 687.263,-28.5122"/>
<polygon fill="midnightblue" stroke="midnightblue" points="799.507,-129.376 808.265,-135.339 805.137,-125.216 799.507,-129.376"/>
</g>
<!-- Node18 -->
<g id="node18" class="node"><title>Node18</title>
<g id="a_node18"><a xlink:href="../../d1/d37/class_nx_1_1_c_tex_dict.html#ad17758b383da1c34a8b1676bc5f0b32d" target="_top" xlink:title=" ">
<polygon fill="white" stroke="black" points="566,-278.5 566,-297.5 709,-297.5 709,-278.5 566,-278.5"/>
<text text-anchor="middle" x="637.5" y="-285.5" font-family="Helvetica,sans-Serif" font-size="10.00">Nx::CTexDict::UnloadTexture</text>
</a>
</g>
</g>
<!-- Node1&#45;&gt;Node18 -->
<g id="edge19" class="edge"><title>Node1&#45;&gt;Node18</title>
<path fill="none" stroke="midnightblue" d="M795.1,-161.123C758.152,-191.058 680.014,-254.365 650.303,-278.437"/>
<polygon fill="midnightblue" stroke="midnightblue" points="797.579,-163.619 803.145,-154.605 793.172,-158.18 797.579,-163.619"/>
</g>
<!-- Node3 -->
<g id="node3" class="node"><title>Node3</title>
<g id="a_node3"><a xlink:href="../../da/da2/class_nx_1_1_c_ps2_tex_dict.html#a5b818083d5031edcdef370ccf693498a" target="_top" xlink:title=" ">
<polygon fill="white" stroke="black" points="392.5,-442 392.5,-472 515.5,-472 515.5,-442 392.5,-442"/>
<text text-anchor="start" x="400.5" y="-460" font-family="Helvetica,sans-Serif" font-size="10.00">Nx::CPs2TexDict::add</text>
<text text-anchor="middle" x="454" y="-449" font-family="Helvetica,sans-Serif" font-size="10.00">_textures_to_hash_table</text>
</a>
</g>
</g>
<!-- Node2&#45;&gt;Node3 -->
<g id="edge2" class="edge"><title>Node2&#45;&gt;Node3</title>
<path fill="none" stroke="midnightblue" d="M603.11,-404.305C582.195,-412.527 554.63,-423.159 530,-432 520.699,-435.339 510.697,-438.777 501.124,-441.994"/>
<polygon fill="midnightblue" stroke="midnightblue" points="604.49,-407.523 612.508,-400.597 601.921,-401.012 604.49,-407.523"/>
</g>
<!-- Node4 -->
<g id="node4" class="node"><title>Node4</title>
<g id="a_node4"><a xlink:href="../../da/da2/class_nx_1_1_c_ps2_tex_dict.html#a8b2341b54b76492389e7094102ac6ef9" target="_top" xlink:title=" ">
<polygon fill="white" stroke="black" points="191,-442 191,-472 342,-472 342,-442 191,-442"/>
<text text-anchor="start" x="199" y="-460" font-family="Helvetica,sans-Serif" font-size="10.00">Nx::CPs2TexDict::LoadTexture</text>
<text text-anchor="middle" x="266.5" y="-449" font-family="Helvetica,sans-Serif" font-size="10.00">Dictionary</text>
</a>
</g>
</g>
<!-- Node3&#45;&gt;Node4 -->
<g id="edge3" class="edge"><title>Node3&#45;&gt;Node4</title>
<path fill="none" stroke="midnightblue" d="M381.992,-457C369.002,-457 355.408,-457 342.311,-457"/>
<polygon fill="midnightblue" stroke="midnightblue" points="382.26,-460.5 392.26,-457 382.26,-453.5 382.26,-460.5"/>
</g>
<!-- Node5 -->
<g id="node5" class="node"><title>Node5</title>
<g id="a_node5"><a xlink:href="../../da/da2/class_nx_1_1_c_ps2_tex_dict.html#a379ce3c8a14188de99578333bfeeac63" target="_top" xlink:title=" ">
<polygon fill="white" stroke="black" points="0,-447.5 0,-466.5 155,-466.5 155,-447.5 0,-447.5"/>
<text text-anchor="middle" x="77.5" y="-454.5" font-family="Helvetica,sans-Serif" font-size="10.00">Nx::CPs2TexDict::CPs2TexDict</text>
</a>
</g>
</g>
<!-- Node4&#45;&gt;Node5 -->
<g id="edge4" class="edge"><title>Node4&#45;&gt;Node5</title>
<path fill="none" stroke="midnightblue" d="M180.557,-457C172.118,-457 163.584,-457 155.235,-457"/>
<polygon fill="midnightblue" stroke="midnightblue" points="180.786,-460.5 190.786,-457 180.786,-453.5 180.786,-460.5"/>
</g>
<!-- Node8 -->
<g id="node8" class="node"><title>Node8</title>
<g id="a_node8"><a xlink:href="../../d1/d06/namespace_nx.html#a1312c8c8531e401db03fbe50aa78f3ae" target="_top" xlink:title=" ">
<polygon fill="white" stroke="black" points="389.5,-38.5 389.5,-57.5 518.5,-57.5 518.5,-38.5 389.5,-38.5"/>
<text text-anchor="middle" x="454" y="-45.5" font-family="Helvetica,sans-Serif" font-size="10.00">Nx::FlushParticleTextures</text>
</a>
</g>
</g>
<!-- Node7&#45;&gt;Node8 -->
<g id="edge7" class="edge"><title>Node7&#45;&gt;Node8</title>
<path fill="none" stroke="midnightblue" d="M556.32,-53.0241C543.745,-52.4006 530.896,-51.7634 518.756,-51.1614"/>
<polygon fill="midnightblue" stroke="midnightblue" points="556.166,-56.5207 566.327,-53.5204 556.513,-49.5293 556.166,-56.5207"/>
</g>
<!-- Node9 -->
<g id="node9" class="node"><title>Node9</title>
<g id="a_node9"><a xlink:href="../../d1/d37/class_nx_1_1_c_tex_dict.html#a49130379cf6b49a12c9ff84bccb45f65" target="_top" xlink:title=" ">
<polygon fill="white" stroke="black" points="391,-0.5 391,-19.5 517,-19.5 517,-0.5 391,-0.5"/>
<text text-anchor="middle" x="454" y="-7.5" font-family="Helvetica,sans-Serif" font-size="10.00">Nx::CTexDict::~CTexDict</text>
</a>
</g>
</g>
<!-- Node7&#45;&gt;Node9 -->
<g id="edge8" class="edge"><title>Node7&#45;&gt;Node9</title>
<path fill="none" stroke="midnightblue" d="M590.735,-44.8716C571.928,-39.9127 549.928,-34.1437 530,-29 517.905,-25.878 504.699,-22.5168 492.787,-19.5022"/>
<polygon fill="midnightblue" stroke="midnightblue" points="589.972,-48.2902 600.535,-47.4584 591.759,-41.522 589.972,-48.2902"/>
</g>
<!-- Node10&#45;&gt;Node6 -->
<g id="edge10" class="edge"><title>Node10&#45;&gt;Node6</title>
<path fill="none" stroke="midnightblue" d="M602.129,-179.803C581.4,-172.078 554.371,-162.417 530,-155 518.949,-151.637 506.859,-148.389 495.675,-145.559"/>
<polygon fill="midnightblue" stroke="midnightblue" points="601.168,-183.181 611.76,-183.422 603.63,-176.628 601.168,-183.181"/>
</g>
<!-- Node11 -->
<g id="node11" class="node"><title>Node11</title>
<g id="a_node11"><a xlink:href="../../d1/d37/class_nx_1_1_c_tex_dict.html#abc1e0a43b23c3889c7076c27c0133ce8" target="_top" xlink:title=" ">
<polygon fill="white" stroke="black" points="380,-278.5 380,-297.5 528,-297.5 528,-278.5 380,-278.5"/>
<text text-anchor="middle" x="454" y="-285.5" font-family="Helvetica,sans-Serif" font-size="10.00">Nx::CTexDict::ReplaceTexture</text>
</a>
</g>
</g>
<!-- Node10&#45;&gt;Node11 -->
<g id="edge11" class="edge"><title>Node10&#45;&gt;Node11</title>
<path fill="none" stroke="midnightblue" d="M618.079,-209.441C597.844,-226.674 563.722,-253.373 530,-269 521.835,-272.784 512.806,-275.889 503.925,-278.411"/>
<polygon fill="midnightblue" stroke="midnightblue" points="620.597,-211.89 625.859,-202.695 616.011,-206.602 620.597,-211.89"/>
</g>
<!-- Node12 -->
<g id="node12" class="node"><title>Node12</title>
<g id="a_node12"><a xlink:href="../../d1/d06/namespace_nx.html#a6e5c0b830c258905929e9b5917a22f07" target="_top" xlink:title=" ">
<polygon fill="white" stroke="black" points="381,-240.5 381,-259.5 527,-259.5 527,-240.5 381,-240.5"/>
<text text-anchor="middle" x="454" y="-247.5" font-family="Helvetica,sans-Serif" font-size="10.00">Nx::ScriptLoadParticleTexture</text>
</a>
</g>
</g>
<!-- Node10&#45;&gt;Node12 -->
<g id="edge12" class="edge"><title>Node10&#45;&gt;Node12</title>
<path fill="none" stroke="midnightblue" d="M602.129,-206.197C581.4,-213.922 554.371,-223.583 530,-231 518.949,-234.363 506.859,-237.611 495.675,-240.441"/>
<polygon fill="midnightblue" stroke="midnightblue" points="603.63,-209.372 611.76,-202.578 601.168,-202.819 603.63,-209.372"/>
</g>
<!-- Node13 -->
<g id="node13" class="node"><title>Node13</title>
<g id="a_node13"><a xlink:href="../../d1/d06/namespace_nx.html#aa69da12d9623e1e26143435ebfeb2c35" target="_top" xlink:title=" ">
<polygon fill="white" stroke="black" points="387.5,-202.5 387.5,-221.5 520.5,-221.5 520.5,-202.5 387.5,-202.5"/>
<text text-anchor="middle" x="454" y="-209.5" font-family="Helvetica,sans-Serif" font-size="10.00">Nx::ScriptLoadSFPTexture</text>
</a>
</g>
</g>
<!-- Node10&#45;&gt;Node13 -->
<g id="edge13" class="edge"><title>Node10&#45;&gt;Node13</title>
<path fill="none" stroke="midnightblue" d="M560.457,-200.96C547.24,-202.344 533.596,-203.772 520.686,-205.124"/>
<polygon fill="midnightblue" stroke="midnightblue" points="560.88,-204.435 570.461,-199.913 560.151,-197.473 560.88,-204.435"/>
</g>
<!-- Node14 -->
<g id="node14" class="node"><title>Node14</title>
<g id="a_node14"><a xlink:href="../../d1/d06/namespace_nx.html#a75a44c20d43cfc43b8f9617ae8c7aafd" target="_top" xlink:title=" ">
<polygon fill="white" stroke="black" points="397.5,-164.5 397.5,-183.5 510.5,-183.5 510.5,-164.5 397.5,-164.5"/>
<text text-anchor="middle" x="454" y="-171.5" font-family="Helvetica,sans-Serif" font-size="10.00">Nx::ScriptLoadTexture</text>
</a>
</g>
</g>
<!-- Node10&#45;&gt;Node14 -->
<g id="edge14" class="edge"><title>Node10&#45;&gt;Node14</title>
<path fill="none" stroke="midnightblue" d="M560.194,-185.012C543.534,-183.268 526.206,-181.454 510.537,-179.814"/>
<polygon fill="midnightblue" stroke="midnightblue" points="560.151,-188.527 570.461,-186.087 560.88,-181.565 560.151,-188.527"/>
</g>
<!-- Node15&#45;&gt;Node6 -->
<g id="edge16" class="edge"><title>Node15&#45;&gt;Node6</title>
<path fill="none" stroke="midnightblue" d="M560.639,-115.629C541.666,-119.288 521.8,-123.118 504.482,-126.458"/>
<polygon fill="midnightblue" stroke="midnightblue" points="561.305,-119.065 570.461,-113.735 559.979,-112.192 561.305,-119.065"/>
</g>
<!-- Node16 -->
<g id="node16" class="node"><title>Node16</title>
<g id="a_node16"><a xlink:href="../../d1/d06/namespace_nx.html#a92feb646360a12619a4591620197d0c6" target="_top" xlink:title=" ">
<polygon fill="white" stroke="black" points="386.5,-77 386.5,-107 521.5,-107 521.5,-77 386.5,-77"/>
<text text-anchor="start" x="394.5" y="-95" font-family="Helvetica,sans-Serif" font-size="10.00">Nx::ScriptLoadFaceTexture</text>
<text text-anchor="middle" x="454" y="-84" font-family="Helvetica,sans-Serif" font-size="10.00">FromProfile</text>
</a>
</g>
</g>
<!-- Node15&#45;&gt;Node16 -->
<g id="edge17" class="edge"><title>Node15&#45;&gt;Node16</title>
<path fill="none" stroke="midnightblue" d="M560.265,-97.2197C547.419,-96.5828 534.175,-95.926 521.599,-95.3024"/>
<polygon fill="midnightblue" stroke="midnightblue" points="560.3,-100.726 570.461,-97.7253 560.647,-93.7343 560.3,-100.726"/>
</g>
<!-- Node18&#45;&gt;Node6 -->
<g id="edge20" class="edge"><title>Node18&#45;&gt;Node6</title>
<path fill="none" stroke="midnightblue" d="M619.181,-271.175C604.283,-256.286 582.631,-233.624 566,-212 547.734,-188.249 554.25,-172.599 530,-155 524.673,-151.134 518.638,-148.052 512.36,-145.595"/>
<polygon fill="midnightblue" stroke="midnightblue" points="616.721,-273.664 626.293,-278.205 621.642,-268.686 616.721,-273.664"/>
</g>
<!-- Node18&#45;&gt;Node11 -->
<g id="edge21" class="edge"><title>Node18&#45;&gt;Node11</title>
<path fill="none" stroke="midnightblue" d="M555.586,-288C546.465,-288 537.209,-288 528.194,-288"/>
<polygon fill="midnightblue" stroke="midnightblue" points="555.808,-291.5 565.808,-288 555.808,-284.5 555.808,-291.5"/>
</g>
<!-- Node18&#45;&gt;Node12 -->
<g id="edge22" class="edge"><title>Node18&#45;&gt;Node12</title>
<path fill="none" stroke="midnightblue" d="M580.708,-276.319C554.969,-270.93 524.801,-264.614 500.471,-259.52"/>
<polygon fill="midnightblue" stroke="midnightblue" points="580.195,-279.787 590.7,-278.411 581.629,-272.936 580.195,-279.787"/>
</g>
<!-- Node19 -->
<g id="node19" class="node"><title>Node19</title>
<g id="a_node19"><a xlink:href="../../d1/d06/namespace_nx.html#a7fc477c3debb0ccd8ab25274bec29f08" target="_top" xlink:title=" ">
<polygon fill="white" stroke="black" points="392.5,-393 392.5,-423 515.5,-423 515.5,-393 392.5,-393"/>
<text text-anchor="start" x="400.5" y="-411" font-family="Helvetica,sans-Serif" font-size="10.00">Nx::ScriptUnloadParticle</text>
<text text-anchor="middle" x="454" y="-400" font-family="Helvetica,sans-Serif" font-size="10.00">Texture</text>
</a>
</g>
</g>
<!-- Node18&#45;&gt;Node19 -->
<g id="edge23" class="edge"><title>Node18&#45;&gt;Node19</title>
<path fill="none" stroke="midnightblue" d="M621.289,-305.343C601.973,-326.4 566.718,-361.729 530,-383 523.468,-386.784 516.281,-390.096 509.022,-392.964"/>
<polygon fill="midnightblue" stroke="midnightblue" points="624.011,-307.55 628.104,-297.778 618.81,-302.864 624.011,-307.55"/>
</g>
<!-- Node20 -->
<g id="node20" class="node"><title>Node20</title>
<g id="a_node20"><a xlink:href="../../d1/d06/namespace_nx.html#a84137b547ce1ddde755a8c38cc06cb61" target="_top" xlink:title=" ">
<polygon fill="white" stroke="black" points="383,-354.5 383,-373.5 525,-373.5 525,-354.5 383,-354.5"/>
<text text-anchor="middle" x="454" y="-361.5" font-family="Helvetica,sans-Serif" font-size="10.00">Nx::ScriptUnloadSFPTexture</text>
</a>
</g>
</g>
<!-- Node18&#45;&gt;Node20 -->
<g id="edge24" class="edge"><title>Node18&#45;&gt;Node20</title>
<path fill="none" stroke="midnightblue" d="M612.95,-302.764C591.88,-315.441 559.808,-333.447 530,-345 520.607,-348.641 510.28,-351.779 500.373,-354.397"/>
<polygon fill="midnightblue" stroke="midnightblue" points="614.824,-305.721 621.538,-297.525 611.179,-299.745 614.824,-305.721"/>
</g>
<!-- Node21 -->
<g id="node21" class="node"><title>Node21</title>
<g id="a_node21"><a xlink:href="../../d1/d06/namespace_nx.html#ace75f899efffd95178fa7801add46839" target="_top" xlink:title=" ">
<polygon fill="white" stroke="black" points="393,-316.5 393,-335.5 515,-335.5 515,-316.5 393,-316.5"/>
<text text-anchor="middle" x="454" y="-323.5" font-family="Helvetica,sans-Serif" font-size="10.00">Nx::ScriptUnloadTexture</text>
</a>
</g>
</g>
<!-- Node18&#45;&gt;Node21 -->
<g id="edge25" class="edge"><title>Node18&#45;&gt;Node21</title>
<path fill="none" stroke="midnightblue" d="M580.708,-299.681C554.969,-305.07 524.801,-311.386 500.471,-316.48"/>
<polygon fill="midnightblue" stroke="midnightblue" points="581.629,-303.064 590.7,-297.589 580.195,-296.213 581.629,-303.064"/>
</g>
</g>
</svg>
        <g id="navigator" transform="translate(0 0)" fill="#404254">
                <rect fill="#f2f5e9" fill-opacity="0.5" stroke="#606060" stroke-width=".5" x="0" y="0" width="60" height="60"/>
                <use id="zoomplus" xlink:href="#zoomPlus" x="17" y="9" onmousedown="handleZoom(evt,'in')"/>
                <use id="zoomminus" xlink:href="#zoomMin" x="42" y="9" onmousedown="handleZoom(evt,'out')"/>
                <use id="reset" xlink:href="#resetDef" x="30" y="36" onmousedown="handleReset()"/>
                <g id="arrowUp" xlink:href="#dirArrow" transform="translate(30 24)" onmousedown="handlePan(0,-1)">
                  <use xlink:href="#rim" fill="#404040">
                        <set attributeName="fill" to="#808080" begin="arrowUp.mouseover" end="arrowUp.mouseout"/>
                  </use>
                  <path fill="none" stroke="white" stroke-width="1.5" d="M0,-3.0v7 M-2.5,-0.5L0,-3.0L2.5,-0.5"/>
                </g>
                <g id="arrowRight" xlink:href="#dirArrow" transform="rotate(90) translate(36 -43)" onmousedown="handlePan(1,0)">
                  <use xlink:href="#rim" fill="#404040">
                        <set attributeName="fill" to="#808080" begin="arrowRight.mouseover" end="arrowRight.mouseout"/>
                  </use>
                  <path fill="none" stroke="white" stroke-width="1.5" d="M0,-3.0v7 M-2.5,-0.5L0,-3.0L2.5,-0.5"/>
                </g>
                <g id="arrowDown" xlink:href="#dirArrow" transform="rotate(180) translate(-30 -48)" onmousedown="handlePan(0,1)">
                  <use xlink:href="#rim" fill="#404040">
                        <set attributeName="fill" to="#808080" begin="arrowDown.mouseover" end="arrowDown.mouseout"/>
                  </use>
                  <path fill="none" stroke="white" stroke-width="1.5" d="M0,-3.0v7 M-2.5,-0.5L0,-3.0L2.5,-0.5"/>
                </g>
                <g id="arrowLeft" xlink:href="#dirArrow" transform="rotate(270) translate(-36 17)" onmousedown="handlePan(-1,0)">
                  <use xlink:href="#rim" fill="#404040">
                        <set attributeName="fill" to="#808080" begin="arrowLeft.mouseover" end="arrowLeft.mouseout"/>
                  </use>
                  <path fill="none" stroke="white" stroke-width="1.5" d="M0,-3.0v7 M-2.5,-0.5L0,-3.0L2.5,-0.5"/>
                </g>
        </g>
        <svg viewBox="0 0 15 15" width="100%" height="30px" preserveAspectRatio="xMaxYMin meet">
         <g id="arrow_out" transform="scale(0.3 0.3)">
          <a xlink:href="class_nx_1_1_c_texture_ab5c6c77d59945d248482109483b19d81_icgraph_org.svg" target="_base">
           <rect id="button" ry="5" rx="5" y="6" x="6" height="38" width="38"
                fill="#f2f5e9" fill-opacity="0.5" stroke="#606060" stroke-width="1.0"/>
           <path id="arrow"
             d="M 11.500037,31.436501 C 11.940474,20.09759 22.043105,11.32322 32.158766,21.979434 L 37.068811,17.246167 C 37.068811,17.246167 37.088388,32 37.088388,32 L 22.160133,31.978069 C 22.160133,31.978069 26.997745,27.140456 26.997745,27.140456 C 18.528582,18.264221 13.291696,25.230495 11.500037,31.436501 z"
             style="fill:#404040;"/>
          </a>
         </g>
        </svg>
</svg>
