<?xml version="1.0" encoding="UTF-8" standalone="no"?>
<!DOCTYPE svg PUBLIC "-//W3C//DTD SVG 1.1//EN"
 "http://www.w3.org/Graphics/SVG/1.1/DTD/svg11.dtd">
<!-- Generated by graphviz version 2.38.0 (20140413.2041)
 -->
<!-- Title: Nx::CTexture::plat_remove_from_vram Pages: 1 -->
<svg width="515pt" height="78pt"
 viewBox="0.00 0.00 515.00 77.50" xmlns="http://www.w3.org/2000/svg" xmlns:xlink="http://www.w3.org/1999/xlink">
<g id="graph0" class="graph" transform="scale(1 1) rotate(0) translate(4 73.5)">
<title>Nx::CTexture::plat_remove_from_vram</title>
<polygon fill="white" stroke="none" points="-4,4 -4,-73.5 511,-73.5 511,4 -4,4"/>
<!-- Node1 -->
<g id="node1" class="node"><title>Node1</title>
<g id="a_node1"><a xlink:title=" ">
<polygon fill="#bfbfbf" stroke="black" points="405,-22.5 405,-52.5 507,-52.5 507,-22.5 405,-22.5"/>
<text text-anchor="start" x="413" y="-40.5" font-family="Helvetica,sans-Serif" font-size="10.00">Nx::CTexture::plat</text>
<text text-anchor="middle" x="456" y="-29.5" font-family="Helvetica,sans-Serif" font-size="10.00">_remove_from_vram</text>
</a>
</g>
</g>
<!-- Node2 -->
<g id="node2" class="node"><title>Node2</title>
<g id="a_node2"><a xlink:href="../../da/df1/class_nx_1_1_c_texture.html#a863d26c22c5e4f7294ae14bbffc92e5b" target="_top" xlink:title=" ">
<polygon fill="white" stroke="black" points="209,-28 209,-47 369,-47 369,-28 209,-28"/>
<text text-anchor="middle" x="289" y="-35" font-family="Helvetica,sans-Serif" font-size="10.00">Nx::CTexture::RemoveFromVram</text>
</a>
</g>
</g>
<!-- Node1&#45;&gt;Node2 -->
<g id="edge1" class="edge"><title>Node1&#45;&gt;Node2</title>
<path fill="none" stroke="midnightblue" d="M394.418,-37.5C386.229,-37.5 377.73,-37.5 369.276,-37.5"/>
<polygon fill="midnightblue" stroke="midnightblue" points="394.598,-41.0001 404.598,-37.5 394.598,-34.0001 394.598,-41.0001"/>
</g>
<!-- Node3 -->
<g id="node3" class="node"><title>Node3</title>
<g id="a_node3"><a xlink:href="../../d1/d06/namespace_nx.html#a18cce0f44e6f58dcb6949f20ced7c1d0" target="_top" xlink:title=" ">
<polygon fill="white" stroke="black" points="0,-50 0,-69 173,-69 173,-50 0,-50"/>
<text text-anchor="middle" x="86.5" y="-57" font-family="Helvetica,sans-Serif" font-size="10.00">Nx::ScriptRemoveTextureFromVram</text>
</a>
</g>
</g>
<!-- Node2&#45;&gt;Node3 -->
<g id="edge2" class="edge"><title>Node2&#45;&gt;Node3</title>
<path fill="none" stroke="midnightblue" d="M198.795,-47.2881C190.254,-48.2253 181.604,-49.1744 173.098,-50.1077"/>
<polygon fill="midnightblue" stroke="midnightblue" points="199.199,-50.7649 208.757,-46.195 198.435,-43.8067 199.199,-50.7649"/>
</g>
<!-- Node4 -->
<g id="node4" class="node"><title>Node4</title>
<g id="a_node4"><a xlink:href="../../d1/d06/namespace_nx.html#a7fc477c3debb0ccd8ab25274bec29f08" target="_top" xlink:title=" ">
<polygon fill="white" stroke="black" points="25,-0.5 25,-30.5 148,-30.5 148,-0.5 25,-0.5"/>
<text text-anchor="start" x="33" y="-18.5" font-family="Helvetica,sans-Serif" font-size="10.00">Nx::ScriptUnloadParticle</text>
<text text-anchor="middle" x="86.5" y="-7.5" font-family="Helvetica,sans-Serif" font-size="10.00">Texture</text>
</a>
</g>
</g>
<!-- Node2&#45;&gt;Node4 -->
<g id="edge3" class="edge"><title>Node2&#45;&gt;Node4</title>
<path fill="none" stroke="midnightblue" d="M198.764,-27.7085C181.68,-25.834 164.165,-23.9121 148.235,-22.1642"/>
<polygon fill="midnightblue" stroke="midnightblue" points="198.435,-31.1933 208.757,-28.805 199.199,-24.2351 198.435,-31.1933"/>
</g>
</g>
</svg>
