<?xml version="1.0" encoding="UTF-8" standalone="no"?>
<!DOCTYPE svg PUBLIC "-//W3C//DTD SVG 1.1//EN"
 "http://www.w3.org/Graphics/SVG/1.1/DTD/svg11.dtd">
<!-- Generated by graphviz version 2.38.0 (20140413.2041)
 -->
<!-- Title: Nx::CEngine::s_plat_post_render Pages: 1 -->
<svg width="516pt" height="39pt"
 viewBox="0.00 0.00 516.00 39.00" xmlns="http://www.w3.org/2000/svg" xmlns:xlink="http://www.w3.org/1999/xlink">
<g id="graph0" class="graph" transform="scale(1 1) rotate(0) translate(4 35)">
<title>Nx::CEngine::s_plat_post_render</title>
<polygon fill="white" stroke="none" points="-4,4 -4,-35 512,-35 512,4 -4,4"/>
<!-- Node1 -->
<g id="node1" class="node"><title>Node1</title>
<g id="a_node1"><a xlink:title=" ">
<polygon fill="#bfbfbf" stroke="black" points="404,-0.5 404,-30.5 508,-30.5 508,-0.5 404,-0.5"/>
<text text-anchor="start" x="412" y="-18.5" font-family="Helvetica,sans-Serif" font-size="10.00">Nx::CEngine::s_plat</text>
<text text-anchor="middle" x="456" y="-7.5" font-family="Helvetica,sans-Serif" font-size="10.00">_post_render</text>
</a>
</g>
</g>
<!-- Node2 -->
<g id="node2" class="node"><title>Node2</title>
<g id="a_node2"><a xlink:href="../../d9/d8c/class_nx_1_1_c_engine.html#abd00877b58ace39a925e19aa7b4ec1ac" target="_top" xlink:title=" ">
<polygon fill="white" stroke="black" points="234,-6 234,-25 368,-25 368,-6 234,-6"/>
<text text-anchor="middle" x="301" y="-13" font-family="Helvetica,sans-Serif" font-size="10.00">Nx::CEngine::sPostRender</text>
</a>
</g>
</g>
<!-- Node1&#45;&gt;Node2 -->
<g id="edge1" class="edge"><title>Node1&#45;&gt;Node2</title>
<path fill="none" stroke="midnightblue" d="M393.585,-15.5C385.227,-15.5 376.619,-15.5 368.181,-15.5"/>
<polygon fill="midnightblue" stroke="midnightblue" points="393.628,-19.0001 403.628,-15.5 393.628,-12.0001 393.628,-19.0001"/>
</g>
<!-- Node3 -->
<g id="node3" class="node"><title>Node3</title>
<g id="a_node3"><a xlink:href="../../d3/d66/class_mlp_1_1_manager.html#a118bb3db98dd133cea15b15c288b29f0" target="_top" xlink:title=" ">
<polygon fill="white" stroke="black" points="74,-6 74,-25 198,-25 198,-6 74,-6"/>
<text text-anchor="middle" x="136" y="-13" font-family="Helvetica,sans-Serif" font-size="10.00">Mlp::Manager::MainLoop</text>
</a>
</g>
</g>
<!-- Node2&#45;&gt;Node3 -->
<g id="edge2" class="edge"><title>Node2&#45;&gt;Node3</title>
<path fill="none" stroke="midnightblue" d="M223.452,-15.5C214.999,-15.5 206.475,-15.5 198.246,-15.5"/>
<polygon fill="midnightblue" stroke="midnightblue" points="223.702,-19.0001 233.702,-15.5 223.702,-12.0001 223.702,-19.0001"/>
</g>
<!-- Node4 -->
<g id="node4" class="node"><title>Node4</title>
<g id="a_node4"><a xlink:href="../../d5/d12/_main_8cpp.html#a0e18e794c708408ef1dec237965cb73d" target="_top" xlink:title=" ">
<polygon fill="white" stroke="black" points="0,-6 0,-25 38,-25 38,-6 0,-6"/>
<text text-anchor="middle" x="19" y="-13" font-family="Helvetica,sans-Serif" font-size="10.00">main</text>
</a>
</g>
</g>
<!-- Node3&#45;&gt;Node4 -->
<g id="edge3" class="edge"><title>Node3&#45;&gt;Node4</title>
<path fill="none" stroke="midnightblue" d="M63.7713,-15.5C54.2902,-15.5 45.3381,-15.5 38.03,-15.5"/>
<polygon fill="midnightblue" stroke="midnightblue" points="63.7963,-19.0001 73.7962,-15.5 63.7962,-12.0001 63.7963,-19.0001"/>
</g>
</g>
</svg>
