<?xml version="1.0" encoding="UTF-8" standalone="no"?>
<!DOCTYPE svg PUBLIC "-//W3C//DTD SVG 1.1//EN"
 "http://www.w3.org/Graphics/SVG/1.1/DTD/svg11.dtd">
<!-- Generated by graphviz version 2.38.0 (20140413.2041)
 -->
<!-- Title: Nx::CEngine::s_plat_set_projection_texture_camera Pages: 1 -->
<svg width="453pt" height="50pt"
 viewBox="0.00 0.00 453.00 50.00" xmlns="http://www.w3.org/2000/svg" xmlns:xlink="http://www.w3.org/1999/xlink">
<g id="graph0" class="graph" transform="scale(1 1) rotate(0) translate(4 46)">
<title>Nx::CEngine::s_plat_set_projection_texture_camera</title>
<polygon fill="white" stroke="none" points="-4,4 -4,-46 449,-46 449,4 -4,4"/>
<!-- Node1 -->
<g id="node1" class="node"><title>Node1</title>
<g id="a_node1"><a xlink:title=" ">
<polygon fill="#bfbfbf" stroke="black" points="327,-0.5 327,-41.5 445,-41.5 445,-0.5 327,-0.5"/>
<text text-anchor="start" x="335" y="-29.5" font-family="Helvetica,sans-Serif" font-size="10.00">Nx::CEngine::s_plat</text>
<text text-anchor="start" x="335" y="-18.5" font-family="Helvetica,sans-Serif" font-size="10.00">_set_projection_texture</text>
<text text-anchor="middle" x="386" y="-7.5" font-family="Helvetica,sans-Serif" font-size="10.00">_camera</text>
</a>
</g>
</g>
<!-- Node2 -->
<g id="node2" class="node"><title>Node2</title>
<g id="a_node2"><a xlink:href="../../d9/d8c/class_nx_1_1_c_engine.html#a5b549c97b39bc3af95186d87c0321c07" target="_top" xlink:title=" ">
<polygon fill="white" stroke="black" points="150,-6 150,-36 291,-36 291,-6 150,-6"/>
<text text-anchor="start" x="158" y="-24" font-family="Helvetica,sans-Serif" font-size="10.00">Nx::CEngine::sSetProjection</text>
<text text-anchor="middle" x="220.5" y="-13" font-family="Helvetica,sans-Serif" font-size="10.00">TextureCamera</text>
</a>
</g>
</g>
<!-- Node1&#45;&gt;Node2 -->
<g id="edge1" class="edge"><title>Node1&#45;&gt;Node2</title>
<path fill="none" stroke="midnightblue" d="M316.719,-21C308.274,-21 299.633,-21 291.168,-21"/>
<polygon fill="midnightblue" stroke="midnightblue" points="316.896,-24.5001 326.896,-21 316.896,-17.5001 316.896,-24.5001"/>
</g>
<!-- Node3 -->
<g id="node3" class="node"><title>Node3</title>
<g id="a_node3"><a xlink:href="../../d1/dff/class_gfx_1_1_c_detailed_shadow.html#ae1adacb3260eb5858467a6c6bcff8020" target="_top" xlink:title=" ">
<polygon fill="white" stroke="black" points="0,-6 0,-36 114,-36 114,-6 0,-6"/>
<text text-anchor="start" x="8" y="-24" font-family="Helvetica,sans-Serif" font-size="10.00">Gfx::CDetailedShadow</text>
<text text-anchor="middle" x="57" y="-13" font-family="Helvetica,sans-Serif" font-size="10.00">::~CDetailedShadow</text>
</a>
</g>
</g>
<!-- Node2&#45;&gt;Node3 -->
<g id="edge2" class="edge"><title>Node2&#45;&gt;Node3</title>
<path fill="none" stroke="midnightblue" d="M139.347,-21C130.916,-21 122.476,-21 114.395,-21"/>
<polygon fill="midnightblue" stroke="midnightblue" points="139.603,-24.5001 149.603,-21 139.603,-17.5001 139.603,-24.5001"/>
</g>
</g>
</svg>
