<?xml version="1.0" encoding="UTF-8" standalone="no"?>
<!DOCTYPE svg PUBLIC "-//W3C//DTD SVG 1.1//EN"
 "http://www.w3.org/Graphics/SVG/1.1/DTD/svg11.dtd">
<!-- Generated by graphviz version 2.38.0 (20140413.2041)
 -->
<!-- Title: Nx::CEngine::sUninitGeom Pages: 1 -->
<!--zoomable 122 -->
<svg id="main" version="1.1" xmlns="http://www.w3.org/2000/svg" xmlns:xlink="http://www.w3.org/1999/xlink" xml:space="preserve" onload="init(evt)">
<style type="text/css"><![CDATA[
.edge:hover path { stroke: red; }
.edge:hover polygon { stroke: red; fill: red; }
]]></style>
<script type="text/javascript"><![CDATA[
var edges = document.getElementsByTagName('g');
if (edges && edges.length) {
  for (var i=0;i<edges.length;i++) {
    if (edges[i].id.substr(0,4)=='edge') {
      edges[i].setAttribute('class','edge');
    }
  }
}
]]></script>
        <defs>
                <circle id="rim" cx="0" cy="0" r="7"/>
                <circle id="rim2" cx="0" cy="0" r="3.5"/>
                <g id="zoomPlus">
                        <use xlink:href="#rim" fill="#404040">
                                <set attributeName="fill" to="#808080" begin="zoomplus.mouseover" end="zoomplus.mouseout"/>
                        </use>
                        <path d="M-4,0h8M0,-4v8" fill="none" stroke="white" stroke-width="1.5" pointer-events="none"/>
                </g>
                <g id="zoomMin">
                        <use xlink:href="#rim" fill="#404040">
                                <set attributeName="fill" to="#808080" begin="zoomminus.mouseover" end="zoomminus.mouseout"/>
                        </use>
                        <path d="M-4,0h8" fill="none" stroke="white" stroke-width="1.5" pointer-events="none"/>
                </g>
                <g id="dirArrow">
                        <path fill="none" stroke="white" stroke-width="1.5" d="M0,-3.0v7 M-2.5,-0.5L0,-3.0L2.5,-0.5"/>
                </g>
               <g id="resetDef">
                       <use xlink:href="#rim2" fill="#404040">
                               <set attributeName="fill" to="#808080" begin="reset.mouseover" end="reset.mouseout"/>
                       </use>
               </g>
        </defs>

<script type="text/javascript">
var viewWidth = 786;
var viewHeight = 122;
var sectionId = 'dynsection-61';
</script>
<script xlink:href="../../svgpan.js"/>
<svg id="graph" class="graph">
<g id="viewport">
<title>Nx::CEngine::sUninitGeom</title>
<polygon fill="white" stroke="none" points="-4,4 -4,-117.5 782,-117.5 782,4 -4,4"/>
<!-- Node1 -->
<g id="node1" class="node"><title>Node1</title>
<g id="a_node1"><a xlink:title=" ">
<polygon fill="#bfbfbf" stroke="black" points="644,-44.5 644,-63.5 778,-63.5 778,-44.5 644,-44.5"/>
<text text-anchor="middle" x="711" y="-51.5" font-family="Helvetica,sans-Serif" font-size="10.00">Nx::CEngine::sUninitGeom</text>
</a>
</g>
</g>
<!-- Node2 -->
<g id="node2" class="node"><title>Node2</title>
<g id="a_node2"><a xlink:href="../../d0/dea/class_nx_1_1_c_model.html#a326928e23e9a5739754c7d8ec29642c2" target="_top" xlink:title=" ">
<polygon fill="white" stroke="black" points="480,-44.5 480,-63.5 608,-63.5 608,-44.5 480,-44.5"/>
<text text-anchor="middle" x="544" y="-51.5" font-family="Helvetica,sans-Serif" font-size="10.00">Nx::CModel::ClearGeoms</text>
</a>
</g>
</g>
<!-- Node1&#45;&gt;Node2 -->
<g id="edge1" class="edge"><title>Node1&#45;&gt;Node2</title>
<path fill="none" stroke="midnightblue" d="M633.563,-54C625.083,-54 616.518,-54 608.227,-54"/>
<polygon fill="midnightblue" stroke="midnightblue" points="633.839,-57.5001 643.839,-54 633.839,-50.5001 633.839,-57.5001"/>
</g>
<!-- Node3 -->
<g id="node3" class="node"><title>Node3</title>
<g id="a_node3"><a xlink:href="../../df/d52/class_obj_1_1_c_model_component.html#a9e7be10913bfb101a4634f29bfeb2fd5" target="_top" xlink:title=" ">
<polygon fill="white" stroke="black" points="168,-83 168,-113 288,-113 288,-83 168,-83"/>
<text text-anchor="start" x="176" y="-101" font-family="Helvetica,sans-Serif" font-size="10.00">Obj::CModelComponent</text>
<text text-anchor="middle" x="228" y="-90" font-family="Helvetica,sans-Serif" font-size="10.00">::CallMemberFunction</text>
</a>
</g>
</g>
<!-- Node2&#45;&gt;Node3 -->
<g id="edge2" class="edge"><title>Node2&#45;&gt;Node3</title>
<path fill="none" stroke="midnightblue" d="M499.17,-66.0735C482.069,-70.4023 462.228,-74.9593 444,-78 391.678,-86.7282 331.511,-91.918 288.156,-94.8143"/>
<polygon fill="midnightblue" stroke="midnightblue" points="500.082,-69.453 508.89,-63.5643 498.332,-62.6752 500.082,-69.453"/>
</g>
<!-- Node5 -->
<g id="node5" class="node"><title>Node5</title>
<g id="a_node5"><a xlink:href="../../df/d52/class_obj_1_1_c_model_component.html#a761c3bdba3a4527ef38033984bec3d56" target="_top" xlink:title=" ">
<polygon fill="white" stroke="black" points="324,-39 324,-69 444,-69 444,-39 324,-39"/>
<text text-anchor="start" x="332" y="-57" font-family="Helvetica,sans-Serif" font-size="10.00">Obj::CModelComponent</text>
<text text-anchor="middle" x="384" y="-46" font-family="Helvetica,sans-Serif" font-size="10.00">::InitModel</text>
</a>
</g>
</g>
<!-- Node2&#45;&gt;Node5 -->
<g id="edge4" class="edge"><title>Node2&#45;&gt;Node5</title>
<path fill="none" stroke="midnightblue" d="M469.632,-54C461.046,-54 452.37,-54 444.014,-54"/>
<polygon fill="midnightblue" stroke="midnightblue" points="469.646,-57.5001 479.646,-54 469.646,-50.5001 469.646,-57.5001"/>
</g>
<!-- Node7 -->
<g id="node7" class="node"><title>Node7</title>
<g id="a_node7"><a xlink:href="../../d0/dea/class_nx_1_1_c_model.html#a5dc14d793103bbc4adb5cfdf1a42fc23" target="_top" xlink:title=" ">
<polygon fill="white" stroke="black" points="327.5,-0.5 327.5,-19.5 440.5,-19.5 440.5,-0.5 327.5,-0.5"/>
<text text-anchor="middle" x="384" y="-7.5" font-family="Helvetica,sans-Serif" font-size="10.00">Nx::CModel::~CModel</text>
</a>
</g>
</g>
<!-- Node2&#45;&gt;Node7 -->
<g id="edge7" class="edge"><title>Node2&#45;&gt;Node7</title>
<path fill="none" stroke="midnightblue" d="M499.019,-41.7522C473.795,-34.7276 442.598,-26.04 419.217,-19.5287"/>
<polygon fill="midnightblue" stroke="midnightblue" points="498.144,-45.1416 508.716,-44.4527 500.022,-38.3982 498.144,-45.1416"/>
</g>
<!-- Node4 -->
<g id="node4" class="node"><title>Node4</title>
<g id="a_node4"><a xlink:href="../../db/d54/namespace_c_funcs.html#a34cf5fa7193452d13951a8f06d6e7481" target="_top" xlink:title=" ">
<polygon fill="white" stroke="black" points="0,-83 0,-113 132,-113 132,-83 0,-83"/>
<text text-anchor="start" x="8" y="-101" font-family="Helvetica,sans-Serif" font-size="10.00">CFuncs::ScriptReplaceCar</text>
<text text-anchor="middle" x="66" y="-90" font-family="Helvetica,sans-Serif" font-size="10.00">Textures</text>
</a>
</g>
</g>
<!-- Node3&#45;&gt;Node4 -->
<g id="edge3" class="edge"><title>Node3&#45;&gt;Node4</title>
<path fill="none" stroke="midnightblue" d="M157.631,-98C149.143,-98 140.493,-98 132.072,-98"/>
<polygon fill="midnightblue" stroke="midnightblue" points="157.877,-101.5 167.876,-98 157.876,-94.5001 157.877,-101.5"/>
</g>
<!-- Node5&#45;&gt;Node3 -->
<g id="edge5" class="edge"><title>Node5&#45;&gt;Node3</title>
<path fill="none" stroke="midnightblue" d="M320.659,-71.8118C307.697,-75.515 294.161,-79.3827 281.592,-82.9738"/>
<polygon fill="midnightblue" stroke="midnightblue" points="321.779,-75.1319 330.433,-69.0192 319.856,-68.4012 321.779,-75.1319"/>
</g>
<!-- Node6 -->
<g id="node6" class="node"><title>Node6</title>
<g id="a_node6"><a xlink:href="../../df/d52/class_obj_1_1_c_model_component.html#a85e036714bb9e884bb33de0c638e11ac" target="_top" xlink:title=" ">
<polygon fill="white" stroke="black" points="168,-34 168,-64 288,-64 288,-34 168,-34"/>
<text text-anchor="start" x="176" y="-52" font-family="Helvetica,sans-Serif" font-size="10.00">Obj::CModelComponent</text>
<text text-anchor="middle" x="228" y="-41" font-family="Helvetica,sans-Serif" font-size="10.00">::InitFromStructure</text>
</a>
</g>
</g>
<!-- Node5&#45;&gt;Node6 -->
<g id="edge6" class="edge"><title>Node5&#45;&gt;Node6</title>
<path fill="none" stroke="midnightblue" d="M313.631,-51.7478C305.138,-51.472 296.52,-51.1922 288.196,-50.922"/>
<polygon fill="midnightblue" stroke="midnightblue" points="313.792,-55.2547 323.9,-52.0812 314.019,-48.2584 313.792,-55.2547"/>
</g>
</g>
</svg>
        <g id="navigator" transform="translate(0 0)" fill="#404254">
                <rect fill="#f2f5e9" fill-opacity="0.5" stroke="#606060" stroke-width=".5" x="0" y="0" width="60" height="60"/>
                <use id="zoomplus" xlink:href="#zoomPlus" x="17" y="9" onmousedown="handleZoom(evt,'in')"/>
                <use id="zoomminus" xlink:href="#zoomMin" x="42" y="9" onmousedown="handleZoom(evt,'out')"/>
                <use id="reset" xlink:href="#resetDef" x="30" y="36" onmousedown="handleReset()"/>
                <g id="arrowUp" xlink:href="#dirArrow" transform="translate(30 24)" onmousedown="handlePan(0,-1)">
                  <use xlink:href="#rim" fill="#404040">
                        <set attributeName="fill" to="#808080" begin="arrowUp.mouseover" end="arrowUp.mouseout"/>
                  </use>
                  <path fill="none" stroke="white" stroke-width="1.5" d="M0,-3.0v7 M-2.5,-0.5L0,-3.0L2.5,-0.5"/>
                </g>
                <g id="arrowRight" xlink:href="#dirArrow" transform="rotate(90) translate(36 -43)" onmousedown="handlePan(1,0)">
                  <use xlink:href="#rim" fill="#404040">
                        <set attributeName="fill" to="#808080" begin="arrowRight.mouseover" end="arrowRight.mouseout"/>
                  </use>
                  <path fill="none" stroke="white" stroke-width="1.5" d="M0,-3.0v7 M-2.5,-0.5L0,-3.0L2.5,-0.5"/>
                </g>
                <g id="arrowDown" xlink:href="#dirArrow" transform="rotate(180) translate(-30 -48)" onmousedown="handlePan(0,1)">
                  <use xlink:href="#rim" fill="#404040">
                        <set attributeName="fill" to="#808080" begin="arrowDown.mouseover" end="arrowDown.mouseout"/>
                  </use>
                  <path fill="none" stroke="white" stroke-width="1.5" d="M0,-3.0v7 M-2.5,-0.5L0,-3.0L2.5,-0.5"/>
                </g>
                <g id="arrowLeft" xlink:href="#dirArrow" transform="rotate(270) translate(-36 17)" onmousedown="handlePan(-1,0)">
                  <use xlink:href="#rim" fill="#404040">
                        <set attributeName="fill" to="#808080" begin="arrowLeft.mouseover" end="arrowLeft.mouseout"/>
                  </use>
                  <path fill="none" stroke="white" stroke-width="1.5" d="M0,-3.0v7 M-2.5,-0.5L0,-3.0L2.5,-0.5"/>
                </g>
        </g>
        <svg viewBox="0 0 15 15" width="100%" height="30px" preserveAspectRatio="xMaxYMin meet">
         <g id="arrow_out" transform="scale(0.3 0.3)">
          <a xlink:href="class_nx_1_1_c_engine_ae6409c7ae2c5b0289ddc2b14df65452b_icgraph_org.svg" target="_base">
           <rect id="button" ry="5" rx="5" y="6" x="6" height="38" width="38"
                fill="#f2f5e9" fill-opacity="0.5" stroke="#606060" stroke-width="1.0"/>
           <path id="arrow"
             d="M 11.500037,31.436501 C 11.940474,20.09759 22.043105,11.32322 32.158766,21.979434 L 37.068811,17.246167 C 37.068811,17.246167 37.088388,32 37.088388,32 L 22.160133,31.978069 C 22.160133,31.978069 26.997745,27.140456 26.997745,27.140456 C 18.528582,18.264221 13.291696,25.230495 11.500037,31.436501 z"
             style="fill:#404040;"/>
          </a>
         </g>
        </svg>
</svg>
