<?xml version="1.0" encoding="UTF-8" standalone="no"?>
<!DOCTYPE svg PUBLIC "-//W3C//DTD SVG 1.1//EN"
 "http://www.w3.org/Graphics/SVG/1.1/DTD/svg11.dtd">
<!-- Generated by graphviz version 2.38.0 (20140413.2041)
 -->
<!-- Title: File::CPs2AsyncFileHandle::plat_open Pages: 1 -->
<!--zoomable 476 -->
<svg id="main" version="1.1" xmlns="http://www.w3.org/2000/svg" xmlns:xlink="http://www.w3.org/1999/xlink" xml:space="preserve" onload="init(evt)">
<style type="text/css"><![CDATA[
.edge:hover path { stroke: red; }
.edge:hover polygon { stroke: red; fill: red; }
]]></style>
<script type="text/javascript"><![CDATA[
var edges = document.getElementsByTagName('g');
if (edges && edges.length) {
  for (var i=0;i<edges.length;i++) {
    if (edges[i].id.substr(0,4)=='edge') {
      edges[i].setAttribute('class','edge');
    }
  }
}
]]></script>
        <defs>
                <circle id="rim" cx="0" cy="0" r="7"/>
                <circle id="rim2" cx="0" cy="0" r="3.5"/>
                <g id="zoomPlus">
                        <use xlink:href="#rim" fill="#404040">
                                <set attributeName="fill" to="#808080" begin="zoomplus.mouseover" end="zoomplus.mouseout"/>
                        </use>
                        <path d="M-4,0h8M0,-4v8" fill="none" stroke="white" stroke-width="1.5" pointer-events="none"/>
                </g>
                <g id="zoomMin">
                        <use xlink:href="#rim" fill="#404040">
                                <set attributeName="fill" to="#808080" begin="zoomminus.mouseover" end="zoomminus.mouseout"/>
                        </use>
                        <path d="M-4,0h8" fill="none" stroke="white" stroke-width="1.5" pointer-events="none"/>
                </g>
                <g id="dirArrow">
                        <path fill="none" stroke="white" stroke-width="1.5" d="M0,-3.0v7 M-2.5,-0.5L0,-3.0L2.5,-0.5"/>
                </g>
               <g id="resetDef">
                       <use xlink:href="#rim2" fill="#404040">
                               <set attributeName="fill" to="#808080" begin="reset.mouseover" end="reset.mouseout"/>
                       </use>
               </g>
        </defs>

<script type="text/javascript">
var viewWidth = 1032;
var viewHeight = 476;
var sectionId = 'dynsection-12';
</script>
<script xlink:href="../../svgpan.js"/>
<svg id="graph" class="graph">
<g id="viewport">
<title>File::CPs2AsyncFileHandle::plat_open</title>
<polygon fill="white" stroke="none" points="-4,4 -4,-471.5 1028,-471.5 1028,4 -4,4"/>
<!-- Node1 -->
<g id="node1" class="node"><title>Node1</title>
<g id="a_node1"><a xlink:title=" ">
<polygon fill="#bfbfbf" stroke="black" points="0,-328.5 0,-358.5 136,-358.5 136,-328.5 0,-328.5"/>
<text text-anchor="start" x="8" y="-346.5" font-family="Helvetica,sans-Serif" font-size="10.00">File::CPs2AsyncFileHandle</text>
<text text-anchor="middle" x="68" y="-335.5" font-family="Helvetica,sans-Serif" font-size="10.00">::plat_open</text>
</a>
</g>
</g>
<!-- Node2 -->
<g id="node2" class="node"><title>Node2</title>
<g id="a_node2"><a xlink:href="../../d0/d31/namespace_config.html#a417f0cda0d89952b0a8d74e3ad505781" target="_top" xlink:title=" ">
<polygon fill="white" stroke="black" points="208,-448 208,-467 271,-467 271,-448 208,-448"/>
<text text-anchor="middle" x="239.5" y="-455" font-family="Helvetica,sans-Serif" font-size="10.00">Config::CD</text>
</a>
</g>
</g>
<!-- Node1&#45;&gt;Node2 -->
<g id="edge1" class="edge"><title>Node1&#45;&gt;Node2</title>
<path fill="none" stroke="midnightblue" d="M81.3439,-358.679C99.1961,-379.652 134.244,-417.299 172,-438.5 179.987,-442.985 189.119,-446.484 198.005,-449.187"/>
<polygon fill="midnightblue" stroke="midnightblue" points="197.287,-452.62 207.858,-451.91 199.152,-445.873 197.287,-452.62"/>
</g>
<!-- Node3 -->
<g id="node3" class="node"><title>Node3</title>
<g id="a_node3"><a xlink:href="../../df/de2/_messages_8h.html#a701d7b9cdd94e5f87bc47f4e770492e6" target="_top" xlink:title=" ">
<polygon fill="white" stroke="black" points="200,-410 200,-429 279,-429 279,-410 200,-410"/>
<text text-anchor="middle" x="239.5" y="-417" font-family="Helvetica,sans-Serif" font-size="10.00">Dbg_Message</text>
</a>
</g>
</g>
<!-- Node1&#45;&gt;Node3 -->
<g id="edge2" class="edge"><title>Node1&#45;&gt;Node3</title>
<path fill="none" stroke="midnightblue" d="M92.7808,-358.703C113.175,-371.235 143.668,-388.792 172,-400.5 177.753,-402.877 183.903,-405.071 190.054,-407.058"/>
<polygon fill="midnightblue" stroke="midnightblue" points="189.075,-410.419 199.662,-410.007 191.129,-403.727 189.075,-410.419"/>
</g>
<!-- Node4 -->
<g id="node4" class="node"><title>Node4</title>
<g id="a_node4"><a xlink:href="../../de/d10/namespace_file.html#acf039fc02ca467c5a20e57e2d6d2640e" target="_top" xlink:title=" ">
<polygon fill="white" stroke="black" points="190.5,-372 190.5,-391 288.5,-391 288.5,-372 190.5,-372"/>
<text text-anchor="middle" x="239.5" y="-379" font-family="Helvetica,sans-Serif" font-size="10.00">File::FindFileInHed</text>
</a>
</g>
</g>
<!-- Node1&#45;&gt;Node4 -->
<g id="edge3" class="edge"><title>Node1&#45;&gt;Node4</title>
<path fill="none" stroke="midnightblue" d="M135.991,-358.519C152.539,-362.228 170.033,-366.15 185.793,-369.684"/>
<polygon fill="midnightblue" stroke="midnightblue" points="185.348,-373.171 195.872,-371.943 186.879,-366.34 185.348,-373.171"/>
</g>
<!-- Node8 -->
<g id="node8" class="node"><title>Node8</title>
<g id="a_node8"><a xlink:href="../../db/de2/struct_file_1_1_s_hed_file.html#a261414b841a1dae692a088af784a27f2" target="_top" xlink:title=" ">
<polygon fill="white" stroke="black" points="172,-334 172,-353 307,-353 307,-334 172,-334"/>
<text text-anchor="middle" x="239.5" y="-341" font-family="Helvetica,sans-Serif" font-size="10.00">File::SHedFile::GetFileSize</text>
</a>
</g>
</g>
<!-- Node1&#45;&gt;Node8 -->
<g id="edge7" class="edge"><title>Node1&#45;&gt;Node8</title>
<path fill="none" stroke="midnightblue" d="M136.478,-343.5C144.748,-343.5 153.247,-343.5 161.642,-343.5"/>
<polygon fill="midnightblue" stroke="midnightblue" points="161.808,-347 171.808,-343.5 161.807,-340 161.808,-347"/>
</g>
<!-- Node9 -->
<g id="node9" class="node"><title>Node9</title>
<g id="a_node9"><a xlink:href="../../d8/dd3/class_file_1_1_c_async_file_handle.html#ab78a7f92298ca2f874c8277aa7b1b586" target="_top" xlink:title=" ">
<polygon fill="white" stroke="black" points="180,-284.5 180,-314.5 299,-314.5 299,-284.5 180,-284.5"/>
<text text-anchor="start" x="188" y="-302.5" font-family="Helvetica,sans-Serif" font-size="10.00">File::CAsyncFileHandle</text>
<text text-anchor="middle" x="239.5" y="-291.5" font-family="Helvetica,sans-Serif" font-size="10.00">::inc_busy_count</text>
</a>
</g>
</g>
<!-- Node1&#45;&gt;Node9 -->
<g id="edge8" class="edge"><title>Node1&#45;&gt;Node9</title>
<path fill="none" stroke="midnightblue" d="M126.858,-328.481C140.962,-324.82 156.174,-320.871 170.695,-317.101"/>
<polygon fill="midnightblue" stroke="midnightblue" points="171.815,-320.427 180.615,-314.526 170.056,-313.651 171.815,-320.427"/>
</g>
<!-- Node11 -->
<g id="node11" class="node"><title>Node11</title>
<g id="a_node11"><a xlink:href="../../df/dce/class_file_1_1_c_file_i_o_manager.html#a27a5a83d4be95f02408db28e72b66c5c" target="_top" xlink:title=" ">
<polygon fill="white" stroke="black" points="185.5,-232.5 185.5,-262.5 293.5,-262.5 293.5,-232.5 185.5,-232.5"/>
<text text-anchor="start" x="193.5" y="-250.5" font-family="Helvetica,sans-Serif" font-size="10.00">File::CFileIOManager</text>
<text text-anchor="middle" x="239.5" y="-239.5" font-family="Helvetica,sans-Serif" font-size="10.00">::sSendCommand</text>
</a>
</g>
</g>
<!-- Node1&#45;&gt;Node11 -->
<g id="edge10" class="edge"><title>Node1&#45;&gt;Node11</title>
<path fill="none" stroke="midnightblue" d="M89.6005,-328.252C109.907,-313.625 142.145,-291.464 172,-275.5 177.655,-272.477 183.707,-269.543 189.771,-266.784"/>
<polygon fill="midnightblue" stroke="midnightblue" points="191.516,-269.839 199.256,-262.604 188.693,-263.434 191.516,-269.839"/>
</g>
<!-- Node17 -->
<g id="node17" class="node"><title>Node17</title>
<g id="a_node17"><a xlink:href="../../d8/dd3/class_file_1_1_c_async_file_handle.html#a81ff55bed1304ad4958fd1a0cc55f7e3" target="_top" xlink:title=" ">
<polygon fill="white" stroke="black" points="180,-95.5 180,-125.5 299,-125.5 299,-95.5 180,-95.5"/>
<text text-anchor="start" x="188" y="-113.5" font-family="Helvetica,sans-Serif" font-size="10.00">File::CAsyncFileHandle</text>
<text text-anchor="middle" x="239.5" y="-102.5" font-family="Helvetica,sans-Serif" font-size="10.00">::WaitForIO</text>
</a>
</g>
</g>
<!-- Node1&#45;&gt;Node17 -->
<g id="edge17" class="edge"><title>Node1&#45;&gt;Node17</title>
<path fill="none" stroke="midnightblue" d="M80.1214,-328.212C109.104,-288.372 187.09,-181.169 221.635,-133.683"/>
<polygon fill="midnightblue" stroke="midnightblue" points="224.506,-135.687 227.558,-125.541 218.845,-131.569 224.506,-135.687"/>
</g>
<!-- Node5 -->
<g id="node5" class="node"><title>Node5</title>
<g id="a_node5"><a xlink:href="../../de/d10/namespace_file.html#a482cc8c6f257ae12f73feeb742cc71ac" target="_top" xlink:title=" ">
<polygon fill="white" stroke="black" points="361.5,-375 361.5,-394 468.5,-394 468.5,-375 361.5,-375"/>
<text text-anchor="middle" x="415" y="-382" font-family="Helvetica,sans-Serif" font-size="10.00">File::get_checksums</text>
</a>
</g>
</g>
<!-- Node4&#45;&gt;Node5 -->
<g id="edge4" class="edge"><title>Node4&#45;&gt;Node5</title>
<path fill="none" stroke="midnightblue" d="M288.829,-382.336C308.129,-382.669 330.608,-383.058 351.148,-383.413"/>
<polygon fill="midnightblue" stroke="midnightblue" points="351.309,-386.916 361.368,-383.59 351.43,-379.917 351.309,-386.916"/>
</g>
<!-- Node6 -->
<g id="node6" class="node"><title>Node6</title>
<g id="a_node6"><a xlink:href="../../d1/d54/namespace_script.html#aa331360f088c15972ac441ecb8b40cd9" target="_top" xlink:title=" ">
<polygon fill="white" stroke="black" points="537,-375 537,-394 645,-394 645,-375 537,-375"/>
<text text-anchor="middle" x="591" y="-382" font-family="Helvetica,sans-Serif" font-size="10.00">Script::GenerateCRC</text>
</a>
</g>
</g>
<!-- Node5&#45;&gt;Node6 -->
<g id="edge5" class="edge"><title>Node5&#45;&gt;Node6</title>
<path fill="none" stroke="midnightblue" d="M468.678,-384.5C486.992,-384.5 507.722,-384.5 526.799,-384.5"/>
<polygon fill="midnightblue" stroke="midnightblue" points="526.901,-388 536.901,-384.5 526.901,-381 526.901,-388"/>
</g>
<!-- Node7 -->
<g id="node7" class="node"><title>Node7</title>
<g id="a_node7"><a xlink:href="../../d3/d9b/namespace_crc.html#aed1b5ad21f682b39b09782ec29f5c5cc" target="_top" xlink:title=" ">
<polygon fill="white" stroke="black" points="695,-375 695,-394 841,-394 841,-375 695,-375"/>
<text text-anchor="middle" x="768" y="-382" font-family="Helvetica,sans-Serif" font-size="10.00">Crc::GenerateCRCFromString</text>
</a>
</g>
</g>
<!-- Node6&#45;&gt;Node7 -->
<g id="edge6" class="edge"><title>Node6&#45;&gt;Node7</title>
<path fill="none" stroke="midnightblue" d="M645.457,-384.5C657.872,-384.5 671.371,-384.5 684.707,-384.5"/>
<polygon fill="midnightblue" stroke="midnightblue" points="684.854,-388 694.854,-384.5 684.854,-381 684.854,-388"/>
</g>
<!-- Node10 -->
<g id="node10" class="node"><title>Node10</title>
<g id="a_node10"><a xlink:href="../../df/d7a/class_file_1_1_c_async_file_loader.html#a3d594a04271ec79089261d7f1d7c516e" target="_top" xlink:title=" ">
<polygon fill="white" stroke="black" points="343,-325.5 343,-355.5 487,-355.5 487,-325.5 343,-325.5"/>
<text text-anchor="start" x="351" y="-343.5" font-family="Helvetica,sans-Serif" font-size="10.00">File::CAsyncFileLoader</text>
<text text-anchor="middle" x="415" y="-332.5" font-family="Helvetica,sans-Serif" font-size="10.00">::s_inc_manager_busy_count</text>
</a>
</g>
</g>
<!-- Node9&#45;&gt;Node10 -->
<g id="edge9" class="edge"><title>Node9&#45;&gt;Node10</title>
<path fill="none" stroke="midnightblue" d="M299.239,-313.381C312.45,-316.503 326.632,-319.854 340.365,-323.099"/>
<polygon fill="midnightblue" stroke="midnightblue" points="339.728,-326.545 350.265,-325.439 341.338,-319.733 339.728,-326.545"/>
</g>
<!-- Node12 -->
<g id="node12" class="node"><title>Node12</title>
<g id="a_node12"><a xlink:href="../../d6/d31/class_file_1_1_c_ps2_async_file_handle.html#a1352d9cd4866bc850601d87bc62b31c7" target="_top" xlink:title=" ">
<polygon fill="white" stroke="black" points="347,-276.5 347,-306.5 483,-306.5 483,-276.5 347,-276.5"/>
<text text-anchor="start" x="355" y="-294.5" font-family="Helvetica,sans-Serif" font-size="10.00">File::CPs2AsyncFileHandle</text>
<text text-anchor="middle" x="415" y="-283.5" font-family="Helvetica,sans-Serif" font-size="10.00">::add_request_id</text>
</a>
</g>
</g>
<!-- Node11&#45;&gt;Node12 -->
<g id="edge11" class="edge"><title>Node11&#45;&gt;Node12</title>
<path fill="none" stroke="midnightblue" d="M293.971,-261.06C310.035,-265.134 327.893,-269.663 344.82,-273.956"/>
<polygon fill="midnightblue" stroke="midnightblue" points="344.104,-277.385 354.658,-276.451 345.825,-270.6 344.104,-277.385"/>
</g>
<!-- Node13 -->
<g id="node13" class="node"><title>Node13</title>
<g id="a_node13"><a xlink:href="../../df/dce/class_file_1_1_c_file_i_o_manager.html#afcb543af5b80489036af4d0c95e25798" target="_top" xlink:title=" ">
<polygon fill="white" stroke="black" points="537,-190.5 537,-220.5 645,-220.5 645,-190.5 537,-190.5"/>
<text text-anchor="start" x="545" y="-208.5" font-family="Helvetica,sans-Serif" font-size="10.00">File::CFileIOManager</text>
<text text-anchor="middle" x="591" y="-197.5" font-family="Helvetica,sans-Serif" font-size="10.00">::s_find_request</text>
</a>
</g>
</g>
<!-- Node11&#45;&gt;Node13 -->
<g id="edge12" class="edge"><title>Node11&#45;&gt;Node13</title>
<path fill="none" stroke="midnightblue" d="M293.639,-245.597C343.728,-243.285 420.777,-238.394 487,-228.5 499.996,-226.558 513.795,-223.899 526.926,-221.077"/>
<polygon fill="midnightblue" stroke="midnightblue" points="527.801,-224.469 536.813,-218.897 526.294,-217.633 527.801,-224.469"/>
</g>
<!-- Node15 -->
<g id="node15" class="node"><title>Node15</title>
<g id="a_node15"><a xlink:href="../../df/dce/class_file_1_1_c_file_i_o_manager.html#a341ff55cba91f59fac2d973bdc1a2d95" target="_top" xlink:title=" ">
<polygon fill="white" stroke="black" points="361,-188.5 361,-218.5 469,-218.5 469,-188.5 361,-188.5"/>
<text text-anchor="start" x="369" y="-206.5" font-family="Helvetica,sans-Serif" font-size="10.00">File::CFileIOManager</text>
<text text-anchor="middle" x="415" y="-195.5" font-family="Helvetica,sans-Serif" font-size="10.00">::s_next_open_index</text>
</a>
</g>
</g>
<!-- Node11&#45;&gt;Node15 -->
<g id="edge14" class="edge"><title>Node11&#45;&gt;Node15</title>
<path fill="none" stroke="midnightblue" d="M293.971,-233.94C311.948,-229.381 332.173,-224.252 350.824,-219.522"/>
<polygon fill="midnightblue" stroke="midnightblue" points="351.872,-222.867 360.705,-217.016 350.152,-216.081 351.872,-222.867"/>
</g>
<!-- Node16 -->
<g id="node16" class="node"><title>Node16</title>
<g id="a_node16"><a xlink:href="../../df/dce/class_file_1_1_c_file_i_o_manager.html#af19965313b3e29b86e03c47e1ebcb0f2" target="_top" xlink:title=" ">
<polygon fill="white" stroke="black" points="355.5,-139.5 355.5,-169.5 474.5,-169.5 474.5,-139.5 355.5,-139.5"/>
<text text-anchor="start" x="363.5" y="-157.5" font-family="Helvetica,sans-Serif" font-size="10.00">File::CFileIOManager</text>
<text text-anchor="middle" x="415" y="-146.5" font-family="Helvetica,sans-Serif" font-size="10.00">::sWaitSendCompletion</text>
</a>
</g>
</g>
<!-- Node11&#45;&gt;Node16 -->
<g id="edge15" class="edge"><title>Node11&#45;&gt;Node16</title>
<path fill="none" stroke="midnightblue" d="M259.58,-232.371C279.482,-217.153 312.041,-193.809 343,-178.5 346.74,-176.651 350.656,-174.888 354.647,-173.22"/>
<polygon fill="midnightblue" stroke="midnightblue" points="356.034,-176.435 364.044,-169.501 353.458,-169.926 356.034,-176.435"/>
</g>
<!-- Node14 -->
<g id="node14" class="node"><title>Node14</title>
<g id="a_node14"><a xlink:href="../../df/dce/class_file_1_1_c_file_i_o_manager.html#aaca407046c4be705e735a73fd39d6f51" target="_top" xlink:title=" ">
<polygon fill="white" stroke="black" points="714,-190.5 714,-220.5 822,-220.5 822,-190.5 714,-190.5"/>
<text text-anchor="start" x="722" y="-208.5" font-family="Helvetica,sans-Serif" font-size="10.00">File::CFileIOManager</text>
<text text-anchor="middle" x="768" y="-197.5" font-family="Helvetica,sans-Serif" font-size="10.00">::s_prev_open_index</text>
</a>
</g>
</g>
<!-- Node13&#45;&gt;Node14 -->
<g id="edge13" class="edge"><title>Node13&#45;&gt;Node14</title>
<path fill="none" stroke="midnightblue" d="M645.457,-205.5C663.861,-205.5 684.645,-205.5 703.754,-205.5"/>
<polygon fill="midnightblue" stroke="midnightblue" points="703.871,-209 713.871,-205.5 703.871,-202 703.871,-209"/>
</g>
<!-- Node16&#45;&gt;Node13 -->
<g id="edge16" class="edge"><title>Node16&#45;&gt;Node13</title>
<path fill="none" stroke="midnightblue" d="M467.265,-169.526C486.648,-175.207 508.896,-181.728 529.08,-187.644"/>
<polygon fill="midnightblue" stroke="midnightblue" points="528.221,-191.039 538.801,-190.494 530.19,-184.322 528.221,-191.039"/>
</g>
<!-- Node18 -->
<g id="node18" class="node"><title>Node18</title>
<g id="a_node18"><a xlink:href="../../d8/dd3/class_file_1_1_c_async_file_handle.html#a8534ad6913ab7cf32ce6b2cdcd8124a3" target="_top" xlink:title=" ">
<polygon fill="white" stroke="black" points="531.5,-98.5 531.5,-128.5 650.5,-128.5 650.5,-98.5 531.5,-98.5"/>
<text text-anchor="start" x="539.5" y="-116.5" font-family="Helvetica,sans-Serif" font-size="10.00">File::CAsyncFileHandle</text>
<text text-anchor="middle" x="591" y="-105.5" font-family="Helvetica,sans-Serif" font-size="10.00">::IsBusy</text>
</a>
</g>
</g>
<!-- Node17&#45;&gt;Node18 -->
<g id="edge18" class="edge"><title>Node17&#45;&gt;Node18</title>
<path fill="none" stroke="midnightblue" d="M299.393,-111.006C360.7,-111.532 456.634,-112.355 521.342,-112.911"/>
<polygon fill="midnightblue" stroke="midnightblue" points="521.42,-116.411 531.449,-112.997 521.48,-109.412 521.42,-116.411"/>
</g>
<!-- Node20 -->
<g id="node20" class="node"><title>Node20</title>
<g id="a_node20"><a xlink:href="../../df/d7a/class_file_1_1_c_async_file_loader.html#ae1c871d092fc7fd68830eaedfb940e5a" target="_top" xlink:title=" ">
<polygon fill="white" stroke="black" points="351.5,-49.5 351.5,-79.5 478.5,-79.5 478.5,-49.5 351.5,-49.5"/>
<text text-anchor="start" x="359.5" y="-67.5" font-family="Helvetica,sans-Serif" font-size="10.00">File::CAsyncFileLoader</text>
<text text-anchor="middle" x="415" y="-56.5" font-family="Helvetica,sans-Serif" font-size="10.00">::s_execute_callback_list</text>
</a>
</g>
</g>
<!-- Node17&#45;&gt;Node20 -->
<g id="edge20" class="edge"><title>Node17&#45;&gt;Node20</title>
<path fill="none" stroke="midnightblue" d="M297.31,-95.4379C313.27,-91.2066 330.77,-86.5668 347.251,-82.1971"/>
<polygon fill="midnightblue" stroke="midnightblue" points="348.589,-85.4633 357.358,-79.5174 346.795,-78.6971 348.589,-85.4633"/>
</g>
<!-- Node19 -->
<g id="node19" class="node"><title>Node19</title>
<g id="a_node19"><a xlink:href="../../d8/dd3/class_file_1_1_c_async_file_handle.html#a53b651c18b13c539edac4c682a08a2a4" target="_top" xlink:title=" ">
<polygon fill="white" stroke="black" points="708.5,-98.5 708.5,-128.5 827.5,-128.5 827.5,-98.5 708.5,-98.5"/>
<text text-anchor="start" x="716.5" y="-116.5" font-family="Helvetica,sans-Serif" font-size="10.00">File::CAsyncFileHandle</text>
<text text-anchor="middle" x="768" y="-105.5" font-family="Helvetica,sans-Serif" font-size="10.00">::get_busy_count</text>
</a>
</g>
</g>
<!-- Node18&#45;&gt;Node19 -->
<g id="edge19" class="edge"><title>Node18&#45;&gt;Node19</title>
<path fill="none" stroke="midnightblue" d="M650.759,-113.5C665.991,-113.5 682.53,-113.5 698.226,-113.5"/>
<polygon fill="midnightblue" stroke="midnightblue" points="698.396,-117 708.396,-113.5 698.396,-110 698.396,-117"/>
</g>
<!-- Node21 -->
<g id="node21" class="node"><title>Node21</title>
<g id="a_node21"><a xlink:href="../../d8/dd3/class_file_1_1_c_async_file_handle.html#a50bf88358237e556f8f1b17bbf8f8c1f" target="_top" xlink:title=" ">
<polygon fill="white" stroke="black" points="531.5,-49.5 531.5,-79.5 650.5,-79.5 650.5,-49.5 531.5,-49.5"/>
<text text-anchor="start" x="539.5" y="-67.5" font-family="Helvetica,sans-Serif" font-size="10.00">File::CAsyncFileHandle</text>
<text text-anchor="middle" x="591" y="-56.5" font-family="Helvetica,sans-Serif" font-size="10.00">::post_io_callback</text>
</a>
</g>
</g>
<!-- Node20&#45;&gt;Node21 -->
<g id="edge21" class="edge"><title>Node20&#45;&gt;Node21</title>
<path fill="none" stroke="midnightblue" d="M478.818,-64.5C492.604,-64.5 507.271,-64.5 521.275,-64.5"/>
<polygon fill="midnightblue" stroke="midnightblue" points="521.334,-68.0001 531.334,-64.5 521.334,-61.0001 521.334,-68.0001"/>
</g>
<!-- Node24 -->
<g id="node24" class="node"><title>Node24</title>
<g id="a_node24"><a xlink:href="../../df/d7a/class_file_1_1_c_async_file_loader.html#abc2caad42a87ad6878153d2986147a7a" target="_top" xlink:title=" ">
<polygon fill="white" stroke="black" points="523,-0.5 523,-30.5 659,-30.5 659,-0.5 523,-0.5"/>
<text text-anchor="start" x="531" y="-18.5" font-family="Helvetica,sans-Serif" font-size="10.00">File::CAsyncFileLoader</text>
<text text-anchor="middle" x="591" y="-7.5" font-family="Helvetica,sans-Serif" font-size="10.00">::s_plat_swap_callback_list</text>
</a>
</g>
</g>
<!-- Node20&#45;&gt;Node24 -->
<g id="edge25" class="edge"><title>Node20&#45;&gt;Node24</title>
<path fill="none" stroke="midnightblue" d="M469.626,-49.3986C487.737,-44.2981 508.124,-38.5571 526.9,-33.2695"/>
<polygon fill="midnightblue" stroke="midnightblue" points="527.875,-36.6313 536.552,-30.5516 525.977,-29.8933 527.875,-36.6313"/>
</g>
<!-- Node21&#45;&gt;Node19 -->
<g id="edge24" class="edge"><title>Node21&#45;&gt;Node19</title>
<path fill="none" stroke="midnightblue" d="M645.934,-79.6014C664.15,-84.7019 684.653,-90.4429 703.537,-95.7305"/>
<polygon fill="midnightblue" stroke="midnightblue" points="702.671,-99.1224 713.244,-98.4484 704.558,-92.3817 702.671,-99.1224"/>
</g>
<!-- Node22 -->
<g id="node22" class="node"><title>Node22</title>
<g id="a_node22"><a xlink:href="../../d8/dd3/class_file_1_1_c_async_file_handle.html#a7954b0b3e7d0ff40ac65d60623af8acf" target="_top" xlink:title=" ">
<polygon fill="white" stroke="black" points="708.5,-49.5 708.5,-79.5 827.5,-79.5 827.5,-49.5 708.5,-49.5"/>
<text text-anchor="start" x="716.5" y="-67.5" font-family="Helvetica,sans-Serif" font-size="10.00">File::CAsyncFileHandle</text>
<text text-anchor="middle" x="768" y="-56.5" font-family="Helvetica,sans-Serif" font-size="10.00">::dec_busy_count</text>
</a>
</g>
</g>
<!-- Node21&#45;&gt;Node22 -->
<g id="edge22" class="edge"><title>Node21&#45;&gt;Node22</title>
<path fill="none" stroke="midnightblue" d="M650.759,-64.5C665.991,-64.5 682.53,-64.5 698.226,-64.5"/>
<polygon fill="midnightblue" stroke="midnightblue" points="698.396,-68.0001 708.396,-64.5 698.396,-61.0001 698.396,-68.0001"/>
</g>
<!-- Node23 -->
<g id="node23" class="node"><title>Node23</title>
<g id="a_node23"><a xlink:href="../../df/d7a/class_file_1_1_c_async_file_loader.html#a5151e3587fd526f5cf69c3b2092625ea" target="_top" xlink:title=" ">
<polygon fill="white" stroke="black" points="877,-49.5 877,-79.5 1024,-79.5 1024,-49.5 877,-49.5"/>
<text text-anchor="start" x="885" y="-67.5" font-family="Helvetica,sans-Serif" font-size="10.00">File::CAsyncFileLoader</text>
<text text-anchor="middle" x="950.5" y="-56.5" font-family="Helvetica,sans-Serif" font-size="10.00">::s_dec_manager_busy_count</text>
</a>
</g>
</g>
<!-- Node22&#45;&gt;Node23 -->
<g id="edge23" class="edge"><title>Node22&#45;&gt;Node23</title>
<path fill="none" stroke="midnightblue" d="M827.603,-64.5C840.154,-64.5 853.639,-64.5 866.903,-64.5"/>
<polygon fill="midnightblue" stroke="midnightblue" points="866.983,-68.0001 876.983,-64.5 866.983,-61.0001 866.983,-68.0001"/>
</g>
</g>
</svg>
        <g id="navigator" transform="translate(0 0)" fill="#404254">
                <rect fill="#f2f5e9" fill-opacity="0.5" stroke="#606060" stroke-width=".5" x="0" y="0" width="60" height="60"/>
                <use id="zoomplus" xlink:href="#zoomPlus" x="17" y="9" onmousedown="handleZoom(evt,'in')"/>
                <use id="zoomminus" xlink:href="#zoomMin" x="42" y="9" onmousedown="handleZoom(evt,'out')"/>
                <use id="reset" xlink:href="#resetDef" x="30" y="36" onmousedown="handleReset()"/>
                <g id="arrowUp" xlink:href="#dirArrow" transform="translate(30 24)" onmousedown="handlePan(0,-1)">
                  <use xlink:href="#rim" fill="#404040">
                        <set attributeName="fill" to="#808080" begin="arrowUp.mouseover" end="arrowUp.mouseout"/>
                  </use>
                  <path fill="none" stroke="white" stroke-width="1.5" d="M0,-3.0v7 M-2.5,-0.5L0,-3.0L2.5,-0.5"/>
                </g>
                <g id="arrowRight" xlink:href="#dirArrow" transform="rotate(90) translate(36 -43)" onmousedown="handlePan(1,0)">
                  <use xlink:href="#rim" fill="#404040">
                        <set attributeName="fill" to="#808080" begin="arrowRight.mouseover" end="arrowRight.mouseout"/>
                  </use>
                  <path fill="none" stroke="white" stroke-width="1.5" d="M0,-3.0v7 M-2.5,-0.5L0,-3.0L2.5,-0.5"/>
                </g>
                <g id="arrowDown" xlink:href="#dirArrow" transform="rotate(180) translate(-30 -48)" onmousedown="handlePan(0,1)">
                  <use xlink:href="#rim" fill="#404040">
                        <set attributeName="fill" to="#808080" begin="arrowDown.mouseover" end="arrowDown.mouseout"/>
                  </use>
                  <path fill="none" stroke="white" stroke-width="1.5" d="M0,-3.0v7 M-2.5,-0.5L0,-3.0L2.5,-0.5"/>
                </g>
                <g id="arrowLeft" xlink:href="#dirArrow" transform="rotate(270) translate(-36 17)" onmousedown="handlePan(-1,0)">
                  <use xlink:href="#rim" fill="#404040">
                        <set attributeName="fill" to="#808080" begin="arrowLeft.mouseover" end="arrowLeft.mouseout"/>
                  </use>
                  <path fill="none" stroke="white" stroke-width="1.5" d="M0,-3.0v7 M-2.5,-0.5L0,-3.0L2.5,-0.5"/>
                </g>
        </g>
        <svg viewBox="0 0 15 15" width="100%" height="30px" preserveAspectRatio="xMaxYMin meet">
         <g id="arrow_out" transform="scale(0.3 0.3)">
          <a xlink:href="class_file_1_1_c_ps2_async_file_handle_a67bb22920bbd3940290af9caecf7dcb5_cgraph_org.svg" target="_base">
           <rect id="button" ry="5" rx="5" y="6" x="6" height="38" width="38"
                fill="#f2f5e9" fill-opacity="0.5" stroke="#606060" stroke-width="1.0"/>
           <path id="arrow"
             d="M 11.500037,31.436501 C 11.940474,20.09759 22.043105,11.32322 32.158766,21.979434 L 37.068811,17.246167 C 37.068811,17.246167 37.088388,32 37.088388,32 L 22.160133,31.978069 C 22.160133,31.978069 26.997745,27.140456 26.997745,27.140456 C 18.528582,18.264221 13.291696,25.230495 11.500037,31.436501 z"
             style="fill:#404040;"/>
          </a>
         </g>
        </svg>
</svg>
