<?xml version="1.0" encoding="UTF-8" standalone="no"?>
<!DOCTYPE svg PUBLIC "-//W3C//DTD SVG 1.1//EN"
 "http://www.w3.org/Graphics/SVG/1.1/DTD/svg11.dtd">
<!-- Generated by graphviz version 2.38.0 (20140413.2041)
 -->
<!-- Title: File::CPs2AsyncFileHandle::plat_write Pages: 1 -->
<!--zoomable 351 -->
<svg id="main" version="1.1" xmlns="http://www.w3.org/2000/svg" xmlns:xlink="http://www.w3.org/1999/xlink" xml:space="preserve" onload="init(evt)">
<style type="text/css"><![CDATA[
.edge:hover path { stroke: red; }
.edge:hover polygon { stroke: red; fill: red; }
]]></style>
<script type="text/javascript"><![CDATA[
var edges = document.getElementsByTagName('g');
if (edges && edges.length) {
  for (var i=0;i<edges.length;i++) {
    if (edges[i].id.substr(0,4)=='edge') {
      edges[i].setAttribute('class','edge');
    }
  }
}
]]></script>
        <defs>
                <circle id="rim" cx="0" cy="0" r="7"/>
                <circle id="rim2" cx="0" cy="0" r="3.5"/>
                <g id="zoomPlus">
                        <use xlink:href="#rim" fill="#404040">
                                <set attributeName="fill" to="#808080" begin="zoomplus.mouseover" end="zoomplus.mouseout"/>
                        </use>
                        <path d="M-4,0h8M0,-4v8" fill="none" stroke="white" stroke-width="1.5" pointer-events="none"/>
                </g>
                <g id="zoomMin">
                        <use xlink:href="#rim" fill="#404040">
                                <set attributeName="fill" to="#808080" begin="zoomminus.mouseover" end="zoomminus.mouseout"/>
                        </use>
                        <path d="M-4,0h8" fill="none" stroke="white" stroke-width="1.5" pointer-events="none"/>
                </g>
                <g id="dirArrow">
                        <path fill="none" stroke="white" stroke-width="1.5" d="M0,-3.0v7 M-2.5,-0.5L0,-3.0L2.5,-0.5"/>
                </g>
               <g id="resetDef">
                       <use xlink:href="#rim2" fill="#404040">
                               <set attributeName="fill" to="#808080" begin="reset.mouseover" end="reset.mouseout"/>
                       </use>
               </g>
        </defs>

<script type="text/javascript">
var viewWidth = 798;
var viewHeight = 351;
var sectionId = 'dynsection-21';
</script>
<script xlink:href="../../svgpan.js"/>
<svg id="graph" class="graph">
<g id="viewport">
<title>File::CPs2AsyncFileHandle::plat_write</title>
<polygon fill="white" stroke="none" points="-4,4 -4,-347 794,-347 794,4 -4,4"/>
<!-- Node1 -->
<g id="node1" class="node"><title>Node1</title>
<g id="a_node1"><a xlink:title=" ">
<polygon fill="#bfbfbf" stroke="black" points="0,-217.5 0,-247.5 136,-247.5 136,-217.5 0,-217.5"/>
<text text-anchor="start" x="8" y="-235.5" font-family="Helvetica,sans-Serif" font-size="10.00">File::CPs2AsyncFileHandle</text>
<text text-anchor="middle" x="68" y="-224.5" font-family="Helvetica,sans-Serif" font-size="10.00">::plat_write</text>
</a>
</g>
</g>
<!-- Node2 -->
<g id="node2" class="node"><title>Node2</title>
<g id="a_node2"><a xlink:href="../../d8/dd3/class_file_1_1_c_async_file_handle.html#ab78a7f92298ca2f874c8277aa7b1b586" target="_top" xlink:title=" ">
<polygon fill="white" stroke="black" points="179,-305.5 179,-335.5 298,-335.5 298,-305.5 179,-305.5"/>
<text text-anchor="start" x="187" y="-323.5" font-family="Helvetica,sans-Serif" font-size="10.00">File::CAsyncFileHandle</text>
<text text-anchor="middle" x="238.5" y="-312.5" font-family="Helvetica,sans-Serif" font-size="10.00">::inc_busy_count</text>
</a>
</g>
</g>
<!-- Node1&#45;&gt;Node2 -->
<g id="edge1" class="edge"><title>Node1&#45;&gt;Node2</title>
<path fill="none" stroke="midnightblue" d="M95.4273,-247.73C116.088,-259.489 145.629,-275.98 172,-289.5 179.564,-293.378 187.697,-297.368 195.573,-301.141"/>
<polygon fill="midnightblue" stroke="midnightblue" points="194.116,-304.324 204.651,-305.451 197.118,-298 194.116,-304.324"/>
</g>
<!-- Node4 -->
<g id="node4" class="node"><title>Node4</title>
<g id="a_node4"><a xlink:href="../../df/dce/class_file_1_1_c_file_i_o_manager.html#a5ea2a5daf98fbcedc6cb74a205ab1273" target="_top" xlink:title=" ">
<polygon fill="white" stroke="black" points="184.5,-249.5 184.5,-279.5 292.5,-279.5 292.5,-249.5 184.5,-249.5"/>
<text text-anchor="start" x="192.5" y="-267.5" font-family="Helvetica,sans-Serif" font-size="10.00">File::CFileIOManager</text>
<text text-anchor="middle" x="238.5" y="-256.5" font-family="Helvetica,sans-Serif" font-size="10.00">::sGetRequestResult</text>
</a>
</g>
</g>
<!-- Node1&#45;&gt;Node4 -->
<g id="edge3" class="edge"><title>Node1&#45;&gt;Node4</title>
<path fill="none" stroke="midnightblue" d="M136.08,-245.239C148.753,-247.646 161.967,-250.155 174.509,-252.537"/>
<polygon fill="midnightblue" stroke="midnightblue" points="173.922,-255.988 184.4,-254.416 175.228,-249.111 173.922,-255.988"/>
</g>
<!-- Node7 -->
<g id="node7" class="node"><title>Node7</title>
<g id="a_node7"><a xlink:href="../../df/dce/class_file_1_1_c_file_i_o_manager.html#a27a5a83d4be95f02408db28e72b66c5c" target="_top" xlink:title=" ">
<polygon fill="white" stroke="black" points="184.5,-186.5 184.5,-216.5 292.5,-216.5 292.5,-186.5 184.5,-186.5"/>
<text text-anchor="start" x="192.5" y="-204.5" font-family="Helvetica,sans-Serif" font-size="10.00">File::CFileIOManager</text>
<text text-anchor="middle" x="238.5" y="-193.5" font-family="Helvetica,sans-Serif" font-size="10.00">::sSendCommand</text>
</a>
</g>
</g>
<!-- Node1&#45;&gt;Node7 -->
<g id="edge6" class="edge"><title>Node1&#45;&gt;Node7</title>
<path fill="none" stroke="midnightblue" d="M136.08,-220.159C148.753,-217.827 161.967,-215.396 174.509,-213.089"/>
<polygon fill="midnightblue" stroke="midnightblue" points="175.198,-216.521 184.4,-211.269 173.931,-209.636 175.198,-216.521"/>
</g>
<!-- Node11 -->
<g id="node11" class="node"><title>Node11</title>
<g id="a_node11"><a xlink:href="../../df/dce/class_file_1_1_c_file_i_o_manager.html#a47aeaf50432e0a6c6de38d5fed7ad51c" target="_top" xlink:title=" ">
<polygon fill="white" stroke="black" points="172,-44.5 172,-74.5 305,-74.5 305,-44.5 172,-44.5"/>
<text text-anchor="start" x="180" y="-62.5" font-family="Helvetica,sans-Serif" font-size="10.00">File::CFileIOManager</text>
<text text-anchor="middle" x="238.5" y="-51.5" font-family="Helvetica,sans-Serif" font-size="10.00">::sWaitRequestCompletion</text>
</a>
</g>
</g>
<!-- Node1&#45;&gt;Node11 -->
<g id="edge12" class="edge"><title>Node1&#45;&gt;Node11</title>
<path fill="none" stroke="midnightblue" d="M83.6585,-217.45C113.285,-187.032 180.438,-118.086 215.404,-82.1858"/>
<polygon fill="midnightblue" stroke="midnightblue" points="218.285,-84.2441 222.755,-74.6384 213.271,-79.36 218.285,-84.2441"/>
</g>
<!-- Node3 -->
<g id="node3" class="node"><title>Node3</title>
<g id="a_node3"><a xlink:href="../../df/d7a/class_file_1_1_c_async_file_loader.html#a3d594a04271ec79089261d7f1d7c516e" target="_top" xlink:title=" ">
<polygon fill="white" stroke="black" points="349.5,-312.5 349.5,-342.5 493.5,-342.5 493.5,-312.5 349.5,-312.5"/>
<text text-anchor="start" x="357.5" y="-330.5" font-family="Helvetica,sans-Serif" font-size="10.00">File::CAsyncFileLoader</text>
<text text-anchor="middle" x="421.5" y="-319.5" font-family="Helvetica,sans-Serif" font-size="10.00">::s_inc_manager_busy_count</text>
</a>
</g>
</g>
<!-- Node2&#45;&gt;Node3 -->
<g id="edge2" class="edge"><title>Node2&#45;&gt;Node3</title>
<path fill="none" stroke="midnightblue" d="M298.266,-322.773C311.39,-323.28 325.533,-323.827 339.38,-324.363"/>
<polygon fill="midnightblue" stroke="midnightblue" points="339.264,-327.861 349.392,-324.75 339.535,-320.866 339.264,-327.861"/>
</g>
<!-- Node5 -->
<g id="node5" class="node"><title>Node5</title>
<g id="a_node5"><a xlink:href="../../df/dce/class_file_1_1_c_file_i_o_manager.html#afcb543af5b80489036af4d0c95e25798" target="_top" xlink:title=" ">
<polygon fill="white" stroke="black" points="538,-159.5 538,-189.5 646,-189.5 646,-159.5 538,-159.5"/>
<text text-anchor="start" x="546" y="-177.5" font-family="Helvetica,sans-Serif" font-size="10.00">File::CFileIOManager</text>
<text text-anchor="middle" x="592" y="-166.5" font-family="Helvetica,sans-Serif" font-size="10.00">::s_find_request</text>
</a>
</g>
</g>
<!-- Node4&#45;&gt;Node5 -->
<g id="edge4" class="edge"><title>Node4&#45;&gt;Node5</title>
<path fill="none" stroke="midnightblue" d="M292.535,-269.297C347.014,-272.227 433.322,-271.237 502,-244.5 528.529,-234.172 553.525,-213.128 570.232,-196.797"/>
<polygon fill="midnightblue" stroke="midnightblue" points="572.737,-199.242 577.301,-189.68 567.771,-194.309 572.737,-199.242"/>
</g>
<!-- Node6 -->
<g id="node6" class="node"><title>Node6</title>
<g id="a_node6"><a xlink:href="../../df/dce/class_file_1_1_c_file_i_o_manager.html#aaca407046c4be705e735a73fd39d6f51" target="_top" xlink:title=" ">
<polygon fill="white" stroke="black" points="682,-159.5 682,-189.5 790,-189.5 790,-159.5 682,-159.5"/>
<text text-anchor="start" x="690" y="-177.5" font-family="Helvetica,sans-Serif" font-size="10.00">File::CFileIOManager</text>
<text text-anchor="middle" x="736" y="-166.5" font-family="Helvetica,sans-Serif" font-size="10.00">::s_prev_open_index</text>
</a>
</g>
</g>
<!-- Node5&#45;&gt;Node6 -->
<g id="edge5" class="edge"><title>Node5&#45;&gt;Node6</title>
<path fill="none" stroke="midnightblue" d="M646.28,-174.5C654.56,-174.5 663.184,-174.5 671.661,-174.5"/>
<polygon fill="midnightblue" stroke="midnightblue" points="671.894,-178 681.894,-174.5 671.894,-171 671.894,-178"/>
</g>
<!-- Node7&#45;&gt;Node5 -->
<g id="edge8" class="edge"><title>Node7&#45;&gt;Node5</title>
<path fill="none" stroke="midnightblue" d="M289.25,-216.594C342.715,-230.437 429.752,-246.059 502,-226.5 524.506,-220.407 547.156,-207.047 563.974,-195.395"/>
<polygon fill="midnightblue" stroke="midnightblue" points="566.11,-198.17 572.206,-189.505 562.037,-192.478 566.11,-198.17"/>
</g>
<!-- Node8 -->
<g id="node8" class="node"><title>Node8</title>
<g id="a_node8"><a xlink:href="../../d6/d31/class_file_1_1_c_ps2_async_file_handle.html#a1352d9cd4866bc850601d87bc62b31c7" target="_top" xlink:title=" ">
<polygon fill="white" stroke="black" points="353.5,-186.5 353.5,-216.5 489.5,-216.5 489.5,-186.5 353.5,-186.5"/>
<text text-anchor="start" x="361.5" y="-204.5" font-family="Helvetica,sans-Serif" font-size="10.00">File::CPs2AsyncFileHandle</text>
<text text-anchor="middle" x="421.5" y="-193.5" font-family="Helvetica,sans-Serif" font-size="10.00">::add_request_id</text>
</a>
</g>
</g>
<!-- Node7&#45;&gt;Node8 -->
<g id="edge7" class="edge"><title>Node7&#45;&gt;Node8</title>
<path fill="none" stroke="midnightblue" d="M292.827,-201.5C308.544,-201.5 326.071,-201.5 342.981,-201.5"/>
<polygon fill="midnightblue" stroke="midnightblue" points="343.408,-205 353.408,-201.5 343.408,-198 343.408,-205"/>
</g>
<!-- Node9 -->
<g id="node9" class="node"><title>Node9</title>
<g id="a_node9"><a xlink:href="../../df/dce/class_file_1_1_c_file_i_o_manager.html#a341ff55cba91f59fac2d973bdc1a2d95" target="_top" xlink:title=" ">
<polygon fill="white" stroke="black" points="367.5,-137.5 367.5,-167.5 475.5,-167.5 475.5,-137.5 367.5,-137.5"/>
<text text-anchor="start" x="375.5" y="-155.5" font-family="Helvetica,sans-Serif" font-size="10.00">File::CFileIOManager</text>
<text text-anchor="middle" x="421.5" y="-144.5" font-family="Helvetica,sans-Serif" font-size="10.00">::s_next_open_index</text>
</a>
</g>
</g>
<!-- Node7&#45;&gt;Node9 -->
<g id="edge9" class="edge"><title>Node7&#45;&gt;Node9</title>
<path fill="none" stroke="midnightblue" d="M292.827,-187.063C313.082,-181.58 336.344,-175.283 357.415,-169.578"/>
<polygon fill="midnightblue" stroke="midnightblue" points="358.504,-172.91 367.242,-166.918 356.674,-166.153 358.504,-172.91"/>
</g>
<!-- Node10 -->
<g id="node10" class="node"><title>Node10</title>
<g id="a_node10"><a xlink:href="../../df/dce/class_file_1_1_c_file_i_o_manager.html#af19965313b3e29b86e03c47e1ebcb0f2" target="_top" xlink:title=" ">
<polygon fill="white" stroke="black" points="362,-88.5 362,-118.5 481,-118.5 481,-88.5 362,-88.5"/>
<text text-anchor="start" x="370" y="-106.5" font-family="Helvetica,sans-Serif" font-size="10.00">File::CFileIOManager</text>
<text text-anchor="middle" x="421.5" y="-95.5" font-family="Helvetica,sans-Serif" font-size="10.00">::sWaitSendCompletion</text>
</a>
</g>
</g>
<!-- Node7&#45;&gt;Node10 -->
<g id="edge10" class="edge"><title>Node7&#45;&gt;Node10</title>
<path fill="none" stroke="midnightblue" d="M256.296,-186.47C275.532,-169.951 308.588,-143.622 341,-127.5 344.776,-125.622 348.727,-123.86 352.763,-122.211"/>
<polygon fill="midnightblue" stroke="midnightblue" points="354.202,-125.408 362.295,-118.571 351.705,-118.869 354.202,-125.408"/>
</g>
<!-- Node10&#45;&gt;Node5 -->
<g id="edge11" class="edge"><title>Node10&#45;&gt;Node5</title>
<path fill="none" stroke="midnightblue" d="M477.299,-118.525C485.666,-121.254 494.131,-124.27 502,-127.5 520.512,-135.099 540.273,-145.305 556.46,-154.265"/>
<polygon fill="midnightblue" stroke="midnightblue" points="555.109,-157.521 565.541,-159.367 558.537,-151.418 555.109,-157.521"/>
</g>
<!-- Node11&#45;&gt;Node5 -->
<g id="edge14" class="edge"><title>Node11&#45;&gt;Node5</title>
<path fill="none" stroke="midnightblue" d="M305.192,-51.3329C360.449,-47.4001 440.115,-48.7786 502,-78.5 534.736,-94.2219 561.28,-127.719 576.608,-150.676"/>
<polygon fill="midnightblue" stroke="midnightblue" points="573.743,-152.691 582.107,-159.194 579.624,-148.895 573.743,-152.691"/>
</g>
<!-- Node12 -->
<g id="node12" class="node"><title>Node12</title>
<g id="a_node12"><a xlink:href="../../d0/dff/struct_file_1_1_c_file_i_o_manager_1_1_s_open_request.html#a3325a46152c33f6e39271652292b1be4" target="_top" xlink:title=" ">
<polygon fill="white" stroke="black" points="341,-0.5 341,-30.5 502,-30.5 502,-0.5 341,-0.5"/>
<text text-anchor="start" x="349" y="-18.5" font-family="Helvetica,sans-Serif" font-size="10.00">File::CFileIOManager</text>
<text text-anchor="middle" x="421.5" y="-7.5" font-family="Helvetica,sans-Serif" font-size="10.00">::SOpenRequest::CommandDone</text>
</a>
</g>
</g>
<!-- Node11&#45;&gt;Node12 -->
<g id="edge13" class="edge"><title>Node11&#45;&gt;Node12</title>
<path fill="none" stroke="midnightblue" d="M301.284,-44.4808C316.489,-40.7844 332.901,-36.7947 348.542,-32.9926"/>
<polygon fill="midnightblue" stroke="midnightblue" points="349.797,-36.2894 358.688,-30.5262 348.144,-29.4875 349.797,-36.2894"/>
</g>
</g>
</svg>
        <g id="navigator" transform="translate(0 0)" fill="#404254">
                <rect fill="#f2f5e9" fill-opacity="0.5" stroke="#606060" stroke-width=".5" x="0" y="0" width="60" height="60"/>
                <use id="zoomplus" xlink:href="#zoomPlus" x="17" y="9" onmousedown="handleZoom(evt,'in')"/>
                <use id="zoomminus" xlink:href="#zoomMin" x="42" y="9" onmousedown="handleZoom(evt,'out')"/>
                <use id="reset" xlink:href="#resetDef" x="30" y="36" onmousedown="handleReset()"/>
                <g id="arrowUp" xlink:href="#dirArrow" transform="translate(30 24)" onmousedown="handlePan(0,-1)">
                  <use xlink:href="#rim" fill="#404040">
                        <set attributeName="fill" to="#808080" begin="arrowUp.mouseover" end="arrowUp.mouseout"/>
                  </use>
                  <path fill="none" stroke="white" stroke-width="1.5" d="M0,-3.0v7 M-2.5,-0.5L0,-3.0L2.5,-0.5"/>
                </g>
                <g id="arrowRight" xlink:href="#dirArrow" transform="rotate(90) translate(36 -43)" onmousedown="handlePan(1,0)">
                  <use xlink:href="#rim" fill="#404040">
                        <set attributeName="fill" to="#808080" begin="arrowRight.mouseover" end="arrowRight.mouseout"/>
                  </use>
                  <path fill="none" stroke="white" stroke-width="1.5" d="M0,-3.0v7 M-2.5,-0.5L0,-3.0L2.5,-0.5"/>
                </g>
                <g id="arrowDown" xlink:href="#dirArrow" transform="rotate(180) translate(-30 -48)" onmousedown="handlePan(0,1)">
                  <use xlink:href="#rim" fill="#404040">
                        <set attributeName="fill" to="#808080" begin="arrowDown.mouseover" end="arrowDown.mouseout"/>
                  </use>
                  <path fill="none" stroke="white" stroke-width="1.5" d="M0,-3.0v7 M-2.5,-0.5L0,-3.0L2.5,-0.5"/>
                </g>
                <g id="arrowLeft" xlink:href="#dirArrow" transform="rotate(270) translate(-36 17)" onmousedown="handlePan(-1,0)">
                  <use xlink:href="#rim" fill="#404040">
                        <set attributeName="fill" to="#808080" begin="arrowLeft.mouseover" end="arrowLeft.mouseout"/>
                  </use>
                  <path fill="none" stroke="white" stroke-width="1.5" d="M0,-3.0v7 M-2.5,-0.5L0,-3.0L2.5,-0.5"/>
                </g>
        </g>
        <svg viewBox="0 0 15 15" width="100%" height="30px" preserveAspectRatio="xMaxYMin meet">
         <g id="arrow_out" transform="scale(0.3 0.3)">
          <a xlink:href="class_file_1_1_c_ps2_async_file_handle_a45b9513a476ea75031d829c4f1cf9423_cgraph_org.svg" target="_base">
           <rect id="button" ry="5" rx="5" y="6" x="6" height="38" width="38"
                fill="#f2f5e9" fill-opacity="0.5" stroke="#606060" stroke-width="1.0"/>
           <path id="arrow"
             d="M 11.500037,31.436501 C 11.940474,20.09759 22.043105,11.32322 32.158766,21.979434 L 37.068811,17.246167 C 37.068811,17.246167 37.088388,32 37.088388,32 L 22.160133,31.978069 C 22.160133,31.978069 26.997745,27.140456 26.997745,27.140456 C 18.528582,18.264221 13.291696,25.230495 11.500037,31.436501 z"
             style="fill:#404040;"/>
          </a>
         </g>
        </svg>
</svg>
