<?xml version="1.0" encoding="UTF-8" standalone="no"?>
<!DOCTYPE svg PUBLIC "-//W3C//DTD SVG 1.1//EN"
 "http://www.w3.org/Graphics/SVG/1.1/DTD/svg11.dtd">
<!-- Generated by graphviz version 2.38.0 (20140413.2041)
 -->
<!-- Title: GameNet::LobbyMan Pages: 1 -->
<svg width="123pt" height="152pt"
 viewBox="0.00 0.00 122.50 152.00" xmlns="http://www.w3.org/2000/svg" xmlns:xlink="http://www.w3.org/1999/xlink">
<g id="graph0" class="graph" transform="scale(1 1) rotate(0) translate(4 148)">
<title>GameNet::LobbyMan</title>
<polygon fill="white" stroke="none" points="-4,4 -4,-148 118.5,-148 118.5,4 -4,4"/>
<!-- Node1 -->
<g id="node1" class="node"><title>Node1</title>
<g id="a_node1"><a xlink:title=" ">
<polygon fill="#bfbfbf" stroke="black" points="0,-0.5 0,-19.5 109,-19.5 109,-0.5 0,-0.5"/>
<text text-anchor="middle" x="54.5" y="-7.5" font-family="Helvetica,sans-Serif" font-size="10.00">GameNet::LobbyMan</text>
</a>
</g>
</g>
<!-- Node2 -->
<g id="node2" class="node"><title>Node2</title>
<g id="a_node2"><a xlink:href="../../df/d52/class_spt_1_1_ref.html" target="_top" xlink:title=" ">
<polygon fill="white" stroke="black" points="28.5,-67.5 28.5,-86.5 80.5,-86.5 80.5,-67.5 28.5,-67.5"/>
<text text-anchor="middle" x="54.5" y="-74.5" font-family="Helvetica,sans-Serif" font-size="10.00">Spt::Ref</text>
</a>
</g>
</g>
<!-- Node2&#45;&gt;Node1 -->
<g id="edge1" class="edge"><title>Node2&#45;&gt;Node1</title>
<path fill="none" stroke="#9a32cd" stroke-dasharray="5,2" d="M54.5,-57.037C54.5,-44.6703 54.5,-29.1198 54.5,-19.6273"/>
<polygon fill="#9a32cd" stroke="#9a32cd" points="51.0001,-57.2338 54.5,-67.2338 58.0001,-57.2338 51.0001,-57.2338"/>
<text text-anchor="middle" x="84.5" y="-41" font-family="Helvetica,sans-Serif" font-size="10.00"> m_nat_count</text>
</g>
<!-- Node3 -->
<g id="node3" class="node"><title>Node3</title>
<g id="a_node3"><a xlink:href="../../d3/dee/class_spt_1_1_class.html" target="_top" xlink:title=" ">
<polygon fill="white" stroke="black" points="23.5,-124.5 23.5,-143.5 85.5,-143.5 85.5,-124.5 23.5,-124.5"/>
<text text-anchor="middle" x="54.5" y="-131.5" font-family="Helvetica,sans-Serif" font-size="10.00">Spt::Class</text>
</a>
</g>
</g>
<!-- Node3&#45;&gt;Node2 -->
<g id="edge2" class="edge"><title>Node3&#45;&gt;Node2</title>
<path fill="none" stroke="midnightblue" d="M54.5,-114.117C54.5,-104.817 54.5,-94.0557 54.5,-86.7149"/>
<polygon fill="midnightblue" stroke="midnightblue" points="51.0001,-114.406 54.5,-124.406 58.0001,-114.406 51.0001,-114.406"/>
</g>
</g>
</svg>
