<?xml version="1.0" encoding="UTF-8" standalone="no"?>
<!DOCTYPE svg PUBLIC "-//W3C//DTD SVG 1.1//EN"
 "http://www.w3.org/Graphics/SVG/1.1/DTD/svg11.dtd">
<!-- Generated by graphviz version 2.38.0 (20140413.2041)
 -->
<!-- Title: Ed::CMetaPiece::BuildElement3dSectorsArray Pages: 1 -->
<svg width="1257pt" height="537pt"
 viewBox="0.00 0.00 1257.00 536.71" xmlns="http://www.w3.org/2000/svg" xmlns:xlink="http://www.w3.org/1999/xlink">
<g id="graph0" class="graph" transform="scale(1 1) rotate(0) translate(4 532.708)">
<title>Ed::CMetaPiece::BuildElement3dSectorsArray</title>
<polygon fill="white" stroke="none" points="-4,4 -4,-532.708 1253,-532.708 1253,4 -4,4"/>
<!-- Node1 -->
<g id="node1" class="node"><title>Node1</title>
<g id="a_node1"><a xlink:title=" ">
<polygon fill="#bfbfbf" stroke="black" points="0,-185 0,-215 162,-215 162,-185 0,-185"/>
<text text-anchor="start" x="8" y="-203" font-family="Helvetica,sans-Serif" font-size="10.00">Ed::CMetaPiece::BuildElement3d</text>
<text text-anchor="middle" x="81" y="-192" font-family="Helvetica,sans-Serif" font-size="10.00">SectorsArray</text>
</a>
</g>
</g>
<!-- Node2 -->
<g id="node2" class="node"><title>Node2</title>
<g id="a_node2"><a xlink:href="../../d2/df7/class_script_1_1_c_struct.html#a148f8f6bc239cff60340c410df449c71" target="_top" xlink:title=" ">
<polygon fill="white" stroke="black" points="198,-424.5 198,-443.5 349,-443.5 349,-424.5 198,-424.5"/>
<text text-anchor="middle" x="273.5" y="-431.5" font-family="Helvetica,sans-Serif" font-size="10.00">Script::CStruct::AddChecksum</text>
</a>
</g>
</g>
<!-- Node1&#45;&gt;Node2 -->
<g id="edge1" class="edge"><title>Node1&#45;&gt;Node2</title>
<path fill="none" stroke="midnightblue" d="M88.4972,-215.144C103.651,-249.137 144.176,-332.766 198,-387 210.99,-400.089 228.273,-411.275 242.921,-419.448"/>
<polygon fill="midnightblue" stroke="midnightblue" points="241.629,-422.726 252.096,-424.372 244.94,-416.559 241.629,-422.726"/>
</g>
<!-- Node17 -->
<g id="node17" class="node"><title>Node17</title>
<g id="a_node17"><a xlink:href="../../d2/df7/class_script_1_1_c_struct.html#a49c79546032fdadb74b1cb94aa9ef6d2" target="_top" xlink:title=" ">
<polygon fill="white" stroke="black" points="207,-474.5 207,-493.5 340,-493.5 340,-474.5 207,-474.5"/>
<text text-anchor="middle" x="273.5" y="-481.5" font-family="Helvetica,sans-Serif" font-size="10.00">Script::CStruct::AddVector</text>
</a>
</g>
</g>
<!-- Node1&#45;&gt;Node17 -->
<g id="edge20" class="edge"><title>Node1&#45;&gt;Node17</title>
<path fill="none" stroke="midnightblue" d="M84.8813,-215.052C93.8507,-258.025 125.157,-382.704 198,-453 205.716,-460.446 215.477,-466.21 225.371,-470.633"/>
<polygon fill="midnightblue" stroke="midnightblue" points="224.254,-473.957 234.836,-474.474 226.886,-467.471 224.254,-473.957"/>
</g>
<!-- Node18 -->
<g id="node18" class="node"><title>Node18</title>
<g id="a_node18"><a xlink:href="../../da/d0e/class_ed_1_1_c_meta_piece.html#ac2363df5b5e32ce7d52eafeccee0bd31" target="_top" xlink:title=" ">
<polygon fill="white" stroke="black" points="408.5,-431 408.5,-461 515.5,-461 515.5,-431 408.5,-431"/>
<text text-anchor="start" x="416.5" y="-449" font-family="Helvetica,sans-Serif" font-size="10.00">Ed::CMetaPiece::get</text>
<text text-anchor="middle" x="462" y="-438" font-family="Helvetica,sans-Serif" font-size="10.00">_desc_at_index</text>
</a>
</g>
</g>
<!-- Node1&#45;&gt;Node18 -->
<g id="edge22" class="edge"><title>Node1&#45;&gt;Node18</title>
<path fill="none" stroke="midnightblue" d="M96.5863,-215.023C117.828,-236.495 159.004,-276.608 198,-306 275.917,-364.726 296.5,-379.921 385,-421 389.882,-423.266 395.027,-425.419 400.245,-427.441"/>
<polygon fill="midnightblue" stroke="midnightblue" points="399.079,-430.741 409.672,-430.935 401.512,-424.178 399.079,-430.741"/>
</g>
<!-- Node19 -->
<g id="node19" class="node"><title>Node19</title>
<g id="a_node19"><a xlink:href="../../da/d0e/class_ed_1_1_c_meta_piece.html#a9cb31b3e85c4bacf97205392bdf6e8eb" target="_top" xlink:title=" ">
<polygon fill="white" stroke="black" points="202,-267 202,-297 345,-297 345,-267 202,-267"/>
<text text-anchor="start" x="210" y="-285" font-family="Helvetica,sans-Serif" font-size="10.00">Ed::CMetaPiece::GetRelative</text>
<text text-anchor="middle" x="273.5" y="-274" font-family="Helvetica,sans-Serif" font-size="10.00">PosOfContainedPiece</text>
</a>
</g>
</g>
<!-- Node1&#45;&gt;Node19 -->
<g id="edge23" class="edge"><title>Node1&#45;&gt;Node19</title>
<path fill="none" stroke="midnightblue" d="M116.941,-215.04C148.261,-228.522 194.36,-248.365 228.247,-262.952"/>
<polygon fill="midnightblue" stroke="midnightblue" points="226.89,-266.178 237.459,-266.917 229.657,-259.748 226.89,-266.178"/>
</g>
<!-- Node26 -->
<g id="node26" class="node"><title>Node26</title>
<g id="a_node26"><a xlink:href="../../d1/d08/class_mth_1_1_vector.html#aa5879c6e3b01b313acdc899265a46247" target="_top" xlink:title=" ">
<polygon fill="white" stroke="black" points="602,-190.5 602,-209.5 697,-209.5 697,-190.5 602,-190.5"/>
<text text-anchor="middle" x="649.5" y="-197.5" font-family="Helvetica,sans-Serif" font-size="10.00">Mth::Vector::GetX</text>
</a>
</g>
</g>
<!-- Node1&#45;&gt;Node26 -->
<g id="edge39" class="edge"><title>Node1&#45;&gt;Node26</title>
<path fill="none" stroke="midnightblue" d="M162.264,-200C278.385,-200 490.394,-200 591.684,-200"/>
<polygon fill="midnightblue" stroke="midnightblue" points="591.72,-203.5 601.72,-200 591.72,-196.5 591.72,-203.5"/>
</g>
<!-- Node27 -->
<g id="node27" class="node"><title>Node27</title>
<g id="a_node27"><a xlink:href="../../d1/d08/class_mth_1_1_vector.html#a180cc532ba059d5717b486ae74170b13" target="_top" xlink:title=" ">
<polygon fill="white" stroke="black" points="601.5,-152.5 601.5,-171.5 697.5,-171.5 697.5,-152.5 601.5,-152.5"/>
<text text-anchor="middle" x="649.5" y="-159.5" font-family="Helvetica,sans-Serif" font-size="10.00">Mth::Vector::GetY</text>
</a>
</g>
</g>
<!-- Node1&#45;&gt;Node27 -->
<g id="edge40" class="edge"><title>Node1&#45;&gt;Node27</title>
<path fill="none" stroke="midnightblue" d="M162.264,-194.616C278.237,-186.837 489.855,-172.642 591.297,-165.837"/>
<polygon fill="midnightblue" stroke="midnightblue" points="591.607,-169.324 601.351,-165.163 591.139,-162.34 591.607,-169.324"/>
</g>
<!-- Node28 -->
<g id="node28" class="node"><title>Node28</title>
<g id="a_node28"><a xlink:href="../../d1/d08/class_mth_1_1_vector.html#a09bf1a16a342e3424a5768a7f754d5ed" target="_top" xlink:title=" ">
<polygon fill="white" stroke="black" points="602,-114.5 602,-133.5 697,-133.5 697,-114.5 602,-114.5"/>
<text text-anchor="middle" x="649.5" y="-121.5" font-family="Helvetica,sans-Serif" font-size="10.00">Mth::Vector::GetZ</text>
</a>
</g>
</g>
<!-- Node1&#45;&gt;Node28 -->
<g id="edge41" class="edge"><title>Node1&#45;&gt;Node28</title>
<path fill="none" stroke="midnightblue" d="M161.459,-184.989C173.677,-182.863 186.162,-180.793 198,-179 339.113,-157.631 506.075,-138.966 591.658,-129.877"/>
<polygon fill="midnightblue" stroke="midnightblue" points="592.108,-133.349 601.685,-128.817 591.372,-126.388 592.108,-133.349"/>
</g>
<!-- Node32 -->
<g id="node32" class="node"><title>Node32</title>
<g id="a_node32"><a xlink:href="../../d0/d0b/class_script_1_1_c_array.html#a54248747f1372c9247b71703853e5bfc" target="_top" xlink:title=" ">
<polygon fill="white" stroke="black" points="763,-137.5 763,-156.5 920,-156.5 920,-137.5 763,-137.5"/>
<text text-anchor="middle" x="841.5" y="-144.5" font-family="Helvetica,sans-Serif" font-size="10.00">Script::CArray::SetSizeAndType</text>
</a>
</g>
</g>
<!-- Node1&#45;&gt;Node32 -->
<g id="edge42" class="edge"><title>Node1&#45;&gt;Node32</title>
<path fill="none" stroke="midnightblue" d="M114.812,-184.85C137.672,-174.901 169.124,-162.403 198,-155 425.475,-96.6838 492.674,-64.5752 724,-105 754.762,-110.376 788.121,-123.172 811.226,-133.238"/>
<polygon fill="midnightblue" stroke="midnightblue" points="809.905,-136.481 820.463,-137.355 812.754,-130.087 809.905,-136.481"/>
</g>
<!-- Node37 -->
<g id="node37" class="node"><title>Node37</title>
<g id="a_node37"><a xlink:href="../../d0/d0b/class_script_1_1_c_array.html#a3f62675cdb3323f37f239a94dc814898" target="_top" xlink:title=" ">
<polygon fill="white" stroke="black" points="204,-0.5 204,-19.5 343,-19.5 343,-0.5 204,-0.5"/>
<text text-anchor="middle" x="273.5" y="-7.5" font-family="Helvetica,sans-Serif" font-size="10.00">Script::CArray::SetStructure</text>
</a>
</g>
</g>
<!-- Node1&#45;&gt;Node37 -->
<g id="edge49" class="edge"><title>Node1&#45;&gt;Node37</title>
<path fill="none" stroke="midnightblue" d="M88.5426,-184.668C103.237,-152.045 142.008,-75.3645 198,-34 203.861,-29.6702 210.536,-26.1012 217.426,-23.1643"/>
<polygon fill="midnightblue" stroke="midnightblue" points="218.81,-26.3822 226.899,-19.5392 216.308,-19.8445 218.81,-26.3822"/>
</g>
<!-- Node3 -->
<g id="node3" class="node"><title>Node3</title>
<g id="a_node3"><a xlink:href="../../d2/df7/class_script_1_1_c_struct.html#a3872f7f0a9ebcc695745aabeefab2796" target="_top" xlink:title=" ">
<polygon fill="white" stroke="black" points="385,-480.5 385,-499.5 539,-499.5 539,-480.5 385,-480.5"/>
<text text-anchor="middle" x="462" y="-487.5" font-family="Helvetica,sans-Serif" font-size="10.00">Script::CStruct::AddComponent</text>
</a>
</g>
</g>
<!-- Node2&#45;&gt;Node3 -->
<g id="edge2" class="edge"><title>Node2&#45;&gt;Node3</title>
<path fill="none" stroke="midnightblue" d="M302.52,-443.623C324.773,-451.146 356.74,-461.686 385,-470 394.035,-472.658 403.724,-475.337 413.057,-477.832"/>
<polygon fill="midnightblue" stroke="midnightblue" points="412.434,-481.288 422.996,-480.458 414.222,-474.52 412.434,-481.288"/>
</g>
<!-- Node4 -->
<g id="node4" class="node"><title>Node4</title>
<g id="a_node4"><a xlink:href="../../d1/d54/namespace_script.html#a1dd030523ebaecb95103d181f6fd382e" target="_top" xlink:title=" ">
<polygon fill="white" stroke="black" points="582.5,-491.5 582.5,-510.5 716.5,-510.5 716.5,-491.5 582.5,-491.5"/>
<text text-anchor="middle" x="649.5" y="-498.5" font-family="Helvetica,sans-Serif" font-size="10.00">Script::CleanUpComponent</text>
</a>
</g>
</g>
<!-- Node3&#45;&gt;Node4 -->
<g id="edge3" class="edge"><title>Node3&#45;&gt;Node4</title>
<path fill="none" stroke="midnightblue" d="M539.253,-494.522C550.082,-495.164 561.221,-495.824 572.054,-496.467"/>
<polygon fill="midnightblue" stroke="midnightblue" points="572.136,-499.978 582.326,-497.076 572.55,-492.99 572.136,-499.978"/>
</g>
<!-- Node13 -->
<g id="node13" class="node"><title>Node13</title>
<g id="a_node13"><a xlink:href="../../d1/d54/namespace_script.html#ae80ed69ea4edcbcbbbd4985a6efdcd6e" target="_top" xlink:title=" ">
<polygon fill="white" stroke="black" points="580,-453.5 580,-472.5 719,-472.5 719,-453.5 580,-453.5"/>
<text text-anchor="middle" x="649.5" y="-460.5" font-family="Helvetica,sans-Serif" font-size="10.00">Script::FindChecksumName</text>
</a>
</g>
</g>
<!-- Node3&#45;&gt;Node13 -->
<g id="edge16" class="edge"><title>Node3&#45;&gt;Node13</title>
<path fill="none" stroke="midnightblue" d="M528.4,-480.481C542.808,-478.384 558.183,-476.146 572.954,-473.996"/>
<polygon fill="midnightblue" stroke="midnightblue" points="573.673,-477.428 583.065,-472.524 572.665,-470.501 573.673,-477.428"/>
</g>
<!-- Node5 -->
<g id="node5" class="node"><title>Node5</title>
<g id="a_node5"><a xlink:href="../../d1/d54/namespace_script.html#a3dd60f29ada8a33fda9f4e842f1cabc1" target="_top" xlink:title=" ">
<polygon fill="white" stroke="black" points="787.5,-431.5 787.5,-450.5 895.5,-450.5 895.5,-431.5 787.5,-431.5"/>
<text text-anchor="middle" x="841.5" y="-438.5" font-family="Helvetica,sans-Serif" font-size="10.00">Script::CleanUpArray</text>
</a>
</g>
</g>
<!-- Node4&#45;&gt;Node5 -->
<g id="edge4" class="edge"><title>Node4&#45;&gt;Node5</title>
<path fill="none" stroke="midnightblue" d="M689.962,-491.46C701.029,-488.606 713.031,-485.341 724,-482 751.694,-473.564 782.582,-462.622 805.592,-454.163"/>
<polygon fill="midnightblue" stroke="midnightblue" points="807.09,-457.341 815.253,-450.588 804.66,-450.776 807.09,-457.341"/>
</g>
<!-- Node7 -->
<g id="node7" class="node"><title>Node7</title>
<g id="a_node7"><a xlink:href="../../db/dc4/namespace_mem.html#aeedb606ea94a3398fdcfa3101c5ea8d9" target="_top" xlink:title=" ">
<polygon fill="white" stroke="black" points="1162,-491.5 1162,-510.5 1226,-510.5 1226,-491.5 1162,-491.5"/>
<text text-anchor="middle" x="1194" y="-498.5" font-family="Helvetica,sans-Serif" font-size="10.00">Mem::Free</text>
</a>
</g>
</g>
<!-- Node4&#45;&gt;Node7 -->
<g id="edge15" class="edge"><title>Node4&#45;&gt;Node7</title>
<path fill="none" stroke="midnightblue" d="M716.399,-510.531C730.744,-512.296 745.859,-513.921 760,-515 912.019,-526.597 951.364,-535.832 1103,-520 1119,-518.329 1136.35,-515.031 1151.5,-511.645"/>
<polygon fill="midnightblue" stroke="midnightblue" points="1152.65,-514.972 1161.6,-509.305 1151.07,-508.153 1152.65,-514.972"/>
</g>
<!-- Node9 -->
<g id="node9" class="node"><title>Node9</title>
<g id="a_node9"><a xlink:href="../../d1/d54/namespace_script.html#a99857fb30343d0c999af4db73344cece" target="_top" xlink:title=" ">
<polygon fill="white" stroke="black" points="980.5,-491.5 980.5,-510.5 1081.5,-510.5 1081.5,-491.5 980.5,-491.5"/>
<text text-anchor="middle" x="1031" y="-498.5" font-family="Helvetica,sans-Serif" font-size="10.00">Script::DeleteString</text>
</a>
</g>
</g>
<!-- Node4&#45;&gt;Node9 -->
<g id="edge14" class="edge"><title>Node4&#45;&gt;Node9</title>
<path fill="none" stroke="midnightblue" d="M716.604,-501C788.109,-501 901.108,-501 970.097,-501"/>
<polygon fill="midnightblue" stroke="midnightblue" points="970.363,-504.5 980.363,-501 970.363,-497.5 970.363,-504.5"/>
</g>
<!-- Node6 -->
<g id="node6" class="node"><title>Node6</title>
<g id="a_node6"><a xlink:href="../../d0/d0b/class_script_1_1_c_array.html#a4b347b8b448dd652473dd6afe9aba2c2" target="_top" xlink:title=" ">
<polygon fill="white" stroke="black" points="977.5,-251.5 977.5,-270.5 1084.5,-270.5 1084.5,-251.5 977.5,-251.5"/>
<text text-anchor="middle" x="1031" y="-258.5" font-family="Helvetica,sans-Serif" font-size="10.00">Script::CArray::Clear</text>
</a>
</g>
</g>
<!-- Node5&#45;&gt;Node6 -->
<g id="edge5" class="edge"><title>Node5&#45;&gt;Node6</title>
<path fill="none" stroke="midnightblue" d="M895.639,-437.023C905.77,-434.054 915.527,-429.351 923,-422 969.416,-376.343 913.267,-326.341 959,-280 961.714,-277.25 964.78,-274.884 968.075,-272.851"/>
<polygon fill="midnightblue" stroke="midnightblue" points="969.91,-275.846 977.254,-268.209 966.75,-269.599 969.91,-275.846"/>
</g>
<!-- Node8 -->
<g id="node8" class="node"><title>Node8</title>
<g id="a_node8"><a xlink:href="../../d1/d54/namespace_script.html#af32f99ba26ca0f255240413a4e23a754" target="_top" xlink:title=" ">
<polygon fill="white" stroke="black" points="1139,-232.5 1139,-251.5 1249,-251.5 1249,-232.5 1139,-232.5"/>
<text text-anchor="middle" x="1194" y="-239.5" font-family="Helvetica,sans-Serif" font-size="10.00">Script::GetTypeName</text>
</a>
</g>
</g>
<!-- Node5&#45;&gt;Node8 -->
<g id="edge13" class="edge"><title>Node5&#45;&gt;Node8</title>
<path fill="none" stroke="midnightblue" d="M895.578,-435.139C905.367,-432.279 915.008,-428.096 923,-422 949.567,-401.736 932.701,-376.611 959,-356 1011.1,-315.17 1044.28,-348.544 1103,-318 1132.16,-302.834 1160.17,-276.76 1176.99,-259.449"/>
<polygon fill="midnightblue" stroke="midnightblue" points="1179.96,-261.405 1184.3,-251.741 1174.88,-256.587 1179.96,-261.405"/>
</g>
<!-- Node5&#45;&gt;Node9 -->
<g id="edge8" class="edge"><title>Node5&#45;&gt;Node9</title>
<path fill="none" stroke="midnightblue" d="M867.766,-450.525C891.239,-459.222 927.249,-472.181 959,-482 966.543,-484.333 974.587,-486.648 982.45,-488.817"/>
<polygon fill="midnightblue" stroke="midnightblue" points="981.694,-492.239 992.261,-491.478 983.526,-485.483 981.694,-492.239"/>
</g>
<!-- Node10 -->
<g id="node10" class="node"><title>Node10</title>
<g id="a_node10"><a xlink:href="../../d0/d0b/class_script_1_1_c_array.html#a600fcbd0b8fd9d1df2ee87d77494db7a" target="_top" xlink:title=" ">
<polygon fill="white" stroke="black" points="969.5,-404 969.5,-434 1092.5,-434 1092.5,-404 969.5,-404"/>
<text text-anchor="start" x="977.5" y="-422" font-family="Helvetica,sans-Serif" font-size="10.00">Script::CArray::GetArray</text>
<text text-anchor="middle" x="1031" y="-411" font-family="Helvetica,sans-Serif" font-size="10.00">Pointer</text>
</a>
</g>
</g>
<!-- Node5&#45;&gt;Node10 -->
<g id="edge10" class="edge"><title>Node5&#45;&gt;Node10</title>
<path fill="none" stroke="midnightblue" d="M895.728,-434.755C915.454,-432.44 938.142,-429.778 959.188,-427.309"/>
<polygon fill="midnightblue" stroke="midnightblue" points="959.843,-430.756 969.367,-426.114 959.027,-423.804 959.843,-430.756"/>
</g>
<!-- Node11 -->
<g id="node11" class="node"><title>Node11</title>
<g id="a_node11"><a xlink:href="../../d0/d0b/class_script_1_1_c_array.html#a71c761bdce14193b10bf3c88372ba5a0" target="_top" xlink:title=" ">
<polygon fill="white" stroke="black" points="971.5,-365.5 971.5,-384.5 1090.5,-384.5 1090.5,-365.5 971.5,-365.5"/>
<text text-anchor="middle" x="1031" y="-372.5" font-family="Helvetica,sans-Serif" font-size="10.00">Script::CArray::GetSize</text>
</a>
</g>
</g>
<!-- Node5&#45;&gt;Node11 -->
<g id="edge11" class="edge"><title>Node5&#45;&gt;Node11</title>
<path fill="none" stroke="midnightblue" d="M895.58,-431.899C904.96,-429.337 914.451,-426.092 923,-422 941.283,-413.249 940.849,-403.022 959,-394 963.665,-391.681 968.648,-389.619 973.729,-387.79"/>
<polygon fill="midnightblue" stroke="midnightblue" points="975.157,-391.005 983.563,-384.555 972.97,-384.355 975.157,-391.005"/>
</g>
<!-- Node12 -->
<g id="node12" class="node"><title>Node12</title>
<g id="a_node12"><a xlink:href="../../d0/d0b/class_script_1_1_c_array.html#a68067b67ca9aae7b9214c0add1d8934e" target="_top" xlink:title=" ">
<polygon fill="white" stroke="black" points="970.5,-453.5 970.5,-472.5 1091.5,-472.5 1091.5,-453.5 970.5,-453.5"/>
<text text-anchor="middle" x="1031" y="-460.5" font-family="Helvetica,sans-Serif" font-size="10.00">Script::CArray::GetType</text>
</a>
</g>
</g>
<!-- Node5&#45;&gt;Node12 -->
<g id="edge12" class="edge"><title>Node5&#45;&gt;Node12</title>
<path fill="none" stroke="midnightblue" d="M895.728,-447.245C915.824,-449.603 938.994,-452.322 960.37,-454.83"/>
<polygon fill="midnightblue" stroke="midnightblue" points="960.032,-458.314 970.372,-456.004 960.848,-451.362 960.032,-458.314"/>
</g>
<!-- Node6&#45;&gt;Node7 -->
<g id="edge6" class="edge"><title>Node6&#45;&gt;Node7</title>
<path fill="none" stroke="midnightblue" d="M1084.84,-269.16C1091.46,-271.833 1097.74,-275.358 1103,-280 1164.89,-334.586 1184.96,-438.033 1190.81,-481.25"/>
<polygon fill="midnightblue" stroke="midnightblue" points="1187.36,-481.823 1192.06,-491.316 1194.31,-480.961 1187.36,-481.823"/>
</g>
<!-- Node6&#45;&gt;Node8 -->
<g id="edge7" class="edge"><title>Node6&#45;&gt;Node8</title>
<path fill="none" stroke="midnightblue" d="M1084.72,-254.779C1098.8,-253.117 1114.18,-251.302 1128.8,-249.576"/>
<polygon fill="midnightblue" stroke="midnightblue" points="1129.26,-253.046 1138.78,-248.398 1128.44,-246.094 1129.26,-253.046"/>
</g>
<!-- Node9&#45;&gt;Node7 -->
<g id="edge9" class="edge"><title>Node9&#45;&gt;Node7</title>
<path fill="none" stroke="midnightblue" d="M1081.62,-501C1104.01,-501 1130.16,-501 1151.49,-501"/>
<polygon fill="midnightblue" stroke="midnightblue" points="1151.54,-504.5 1161.54,-501 1151.54,-497.5 1151.54,-504.5"/>
</g>
<!-- Node14 -->
<g id="node14" class="node"><title>Node14</title>
<g id="a_node14"><a xlink:href="../../d1/d54/namespace_script.html#a5cc52c4ff5ea5bb27681d819212dfdca" target="_top" xlink:title=" ">
<polygon fill="white" stroke="black" points="760,-322.5 760,-341.5 923,-341.5 923,-322.5 760,-322.5"/>
<text text-anchor="middle" x="841.5" y="-329.5" font-family="Helvetica,sans-Serif" font-size="10.00">Script::FindChecksumNameNULL</text>
</a>
</g>
</g>
<!-- Node13&#45;&gt;Node14 -->
<g id="edge17" class="edge"><title>Node13&#45;&gt;Node14</title>
<path fill="none" stroke="midnightblue" d="M704.525,-453.452C711.476,-450.783 718.185,-447.369 724,-443 748.56,-424.549 738.56,-405.998 760,-384 774.853,-368.761 794.958,-355.77 811.359,-346.584"/>
<polygon fill="midnightblue" stroke="midnightblue" points="813.391,-349.464 820.521,-341.627 810.06,-343.307 813.391,-349.464"/>
</g>
<!-- Node16 -->
<g id="node16" class="node"><title>Node16</title>
<g id="a_node16"><a xlink:href="../../da/d37/namespace_dbg.html#ab406a8cc16de5046c7d9fd09c9de5e22" target="_top" xlink:title=" ">
<polygon fill="white" stroke="black" points="808.5,-393.5 808.5,-412.5 874.5,-412.5 874.5,-393.5 808.5,-393.5"/>
<text text-anchor="middle" x="841.5" y="-400.5" font-family="Helvetica,sans-Serif" font-size="10.00">Dbg::sprintf</text>
</a>
</g>
</g>
<!-- Node13&#45;&gt;Node16 -->
<g id="edge19" class="edge"><title>Node13&#45;&gt;Node16</title>
<path fill="none" stroke="midnightblue" d="M693.117,-453.437C703.406,-450.576 714.243,-447.089 724,-443 741.084,-435.84 742.798,-428.869 760,-422 772.206,-417.126 785.975,-413.308 798.628,-410.414"/>
<polygon fill="midnightblue" stroke="midnightblue" points="799.448,-413.818 808.486,-408.29 797.973,-406.975 799.448,-413.818"/>
</g>
<!-- Node15 -->
<g id="node15" class="node"><title>Node15</title>
<g id="a_node15"><a xlink:href="../../d0/d31/namespace_config.html#a709cc81780d49900157e3476b63aa25d" target="_top" xlink:title=" ">
<polygon fill="white" stroke="black" points="969,-289.5 969,-308.5 1093,-308.5 1093,-289.5 969,-289.5"/>
<text text-anchor="middle" x="1031" y="-296.5" font-family="Helvetica,sans-Serif" font-size="10.00">Config::GotExtraMemory</text>
</a>
</g>
</g>
<!-- Node14&#45;&gt;Node15 -->
<g id="edge18" class="edge"><title>Node14&#45;&gt;Node15</title>
<path fill="none" stroke="midnightblue" d="M896.481,-322.499C918.059,-318.702 943.088,-314.297 965.604,-310.334"/>
<polygon fill="midnightblue" stroke="midnightblue" points="966.509,-313.728 975.751,-308.548 965.295,-306.834 966.509,-313.728"/>
</g>
<!-- Node17&#45;&gt;Node3 -->
<g id="edge21" class="edge"><title>Node17&#45;&gt;Node3</title>
<path fill="none" stroke="midnightblue" d="M340.253,-486.115C351.365,-486.473 363.05,-486.849 374.594,-487.22"/>
<polygon fill="midnightblue" stroke="midnightblue" points="374.577,-490.721 384.684,-487.545 374.802,-483.725 374.577,-490.721"/>
</g>
<!-- Node19&#45;&gt;Node18 -->
<g id="edge24" class="edge"><title>Node19&#45;&gt;Node18</title>
<path fill="none" stroke="midnightblue" d="M291.404,-297.189C307.355,-312.024 331.385,-335.707 349,-359 368.22,-384.415 360.249,-400.933 385,-421 389.248,-424.444 393.988,-427.421 398.967,-429.991"/>
<polygon fill="midnightblue" stroke="midnightblue" points="397.584,-433.208 408.133,-434.194 400.502,-426.845 397.584,-433.208"/>
</g>
<!-- Node20 -->
<g id="node20" class="node"><title>Node20</title>
<g id="a_node20"><a xlink:href="../../da/d0e/class_ed_1_1_c_meta_piece.html#a283dce45704587975791104fc7e5feed" target="_top" xlink:title=" ">
<polygon fill="white" stroke="black" points="385.5,-343 385.5,-373 538.5,-373 538.5,-343 385.5,-343"/>
<text text-anchor="start" x="393.5" y="-361" font-family="Helvetica,sans-Serif" font-size="10.00">Ed::CMetaPiece::GetContained</text>
<text text-anchor="middle" x="462" y="-350" font-family="Helvetica,sans-Serif" font-size="10.00">Piece</text>
</a>
</g>
</g>
<!-- Node19&#45;&gt;Node20 -->
<g id="edge25" class="edge"><title>Node19&#45;&gt;Node20</title>
<path fill="none" stroke="midnightblue" d="M304.58,-297.021C326.574,-307.722 357.28,-322.085 385,-333 390.767,-335.271 396.833,-337.51 402.919,-339.659"/>
<polygon fill="midnightblue" stroke="midnightblue" points="401.862,-342.997 412.457,-342.953 404.148,-336.38 401.862,-342.997"/>
</g>
<!-- Node21 -->
<g id="node21" class="node"><title>Node21</title>
<g id="a_node21"><a xlink:href="../../de/d7f/class_ed_1_1_c_piece.html#a2e66f4e6cbc7cf1be6345be4cbb5fdc3" target="_top" xlink:title=" ">
<polygon fill="white" stroke="black" points="389,-304.5 389,-323.5 535,-323.5 535,-304.5 389,-304.5"/>
<text text-anchor="middle" x="462" y="-311.5" font-family="Helvetica,sans-Serif" font-size="10.00">Ed::CPiece::GetDimsWithRot</text>
</a>
</g>
</g>
<!-- Node19&#45;&gt;Node21 -->
<g id="edge26" class="edge"><title>Node19&#45;&gt;Node21</title>
<path fill="none" stroke="midnightblue" d="M345.008,-294.098C361.58,-296.941 379.172,-299.96 395.513,-302.764"/>
<polygon fill="midnightblue" stroke="midnightblue" points="395.058,-306.237 405.505,-304.478 396.241,-299.337 395.058,-306.237"/>
</g>
<!-- Node19&#45;&gt;Node26 -->
<g id="edge37" class="edge"><title>Node19&#45;&gt;Node26</title>
<path fill="none" stroke="midnightblue" d="M345.22,-288.445C400.677,-290.491 478.356,-286.544 539,-257 559.915,-246.811 554.959,-230.815 575,-219 580.365,-215.837 586.253,-213.195 592.289,-210.988"/>
<polygon fill="midnightblue" stroke="midnightblue" points="593.422,-214.3 601.841,-207.868 591.248,-207.646 593.422,-214.3"/>
</g>
<!-- Node19&#45;&gt;Node28 -->
<g id="edge38" class="edge"><title>Node19&#45;&gt;Node28</title>
<path fill="none" stroke="midnightblue" d="M298.99,-266.738C321.041,-253.313 354.567,-233.676 385,-219 466.921,-179.494 488.575,-171.328 575,-143 582.397,-140.575 590.293,-138.258 598.065,-136.128"/>
<polygon fill="midnightblue" stroke="midnightblue" points="599.033,-139.492 607.794,-133.536 597.23,-132.728 599.033,-139.492"/>
</g>
<!-- Node30 -->
<g id="node30" class="node"><title>Node30</title>
<g id="a_node30"><a xlink:href="../../da/d40/class_ed_1_1_grid_dims.html#aa217013df258b0b0f48a7440fc962894" target="_top" xlink:title=" ">
<polygon fill="white" stroke="black" points="411,-228.5 411,-247.5 513,-247.5 513,-228.5 411,-228.5"/>
<text text-anchor="middle" x="462" y="-235.5" font-family="Helvetica,sans-Serif" font-size="10.00">Ed::GridDims::GetL</text>
</a>
</g>
</g>
<!-- Node19&#45;&gt;Node30 -->
<g id="edge35" class="edge"><title>Node19&#45;&gt;Node30</title>
<path fill="none" stroke="midnightblue" d="M338.161,-266.981C361.862,-261.389 388.407,-255.126 410.741,-249.857"/>
<polygon fill="midnightblue" stroke="midnightblue" points="411.751,-253.215 420.68,-247.512 410.144,-246.402 411.751,-253.215"/>
</g>
<!-- Node31 -->
<g id="node31" class="node"><title>Node31</title>
<g id="a_node31"><a xlink:href="../../da/d40/class_ed_1_1_grid_dims.html#aa466bafadbcc9108699d380b7436d774" target="_top" xlink:title=" ">
<polygon fill="white" stroke="black" points="408.5,-392.5 408.5,-411.5 515.5,-411.5 515.5,-392.5 408.5,-392.5"/>
<text text-anchor="middle" x="462" y="-399.5" font-family="Helvetica,sans-Serif" font-size="10.00">Ed::GridDims::GetW</text>
</a>
</g>
</g>
<!-- Node19&#45;&gt;Node31 -->
<g id="edge36" class="edge"><title>Node19&#45;&gt;Node31</title>
<path fill="none" stroke="midnightblue" d="M287.107,-297.342C306.056,-319.391 344.05,-359.818 385,-382 390.072,-384.748 395.542,-387.133 401.14,-389.201"/>
<polygon fill="midnightblue" stroke="midnightblue" points="400.04,-392.524 410.634,-392.39 402.269,-385.888 400.04,-392.524"/>
</g>
<!-- Node22 -->
<g id="node22" class="node"><title>Node22</title>
<g id="a_node22"><a xlink:href="../../de/d7f/class_ed_1_1_c_piece.html#a2adf793600b3f15c6d15e8527a82a02c" target="_top" xlink:title=" ">
<polygon fill="white" stroke="black" points="579.5,-316 579.5,-346 719.5,-346 719.5,-316 579.5,-316"/>
<text text-anchor="start" x="587.5" y="-334" font-family="Helvetica,sans-Serif" font-size="10.00">Ed::CPiece::CastToCCloned</text>
<text text-anchor="middle" x="649.5" y="-323" font-family="Helvetica,sans-Serif" font-size="10.00">Piece</text>
</a>
</g>
</g>
<!-- Node21&#45;&gt;Node22 -->
<g id="edge27" class="edge"><title>Node21&#45;&gt;Node22</title>
<path fill="none" stroke="midnightblue" d="M535.25,-320.621C546.388,-321.642 557.941,-322.701 569.222,-323.735"/>
<polygon fill="midnightblue" stroke="midnightblue" points="569.209,-327.248 579.486,-324.675 569.848,-320.277 569.209,-327.248"/>
</g>
<!-- Node23 -->
<g id="node23" class="node"><title>Node23</title>
<g id="a_node23"><a xlink:href="../../de/d7f/class_ed_1_1_c_piece.html#aa07396a8313fbbab57f417c6c396ce24" target="_top" xlink:title=" ">
<polygon fill="white" stroke="black" points="579.5,-267 579.5,-297 719.5,-297 719.5,-267 579.5,-267"/>
<text text-anchor="start" x="587.5" y="-285" font-family="Helvetica,sans-Serif" font-size="10.00">Ed::CPiece::CastToCSource</text>
<text text-anchor="middle" x="649.5" y="-274" font-family="Helvetica,sans-Serif" font-size="10.00">Piece</text>
</a>
</g>
</g>
<!-- Node21&#45;&gt;Node23 -->
<g id="edge28" class="edge"><title>Node21&#45;&gt;Node23</title>
<path fill="none" stroke="midnightblue" d="M518.154,-304.486C534.224,-301.713 552.106,-298.629 569.347,-295.654"/>
<polygon fill="midnightblue" stroke="midnightblue" points="570.147,-299.068 579.406,-293.919 568.957,-292.17 570.147,-299.068"/>
</g>
<!-- Node24 -->
<g id="node24" class="node"><title>Node24</title>
<g id="a_node24"><a xlink:href="../../d4/d52/class_ed_1_1_c_source_piece.html#a0b0453c49ca99c9332b173deff732879" target="_top" xlink:title=" ">
<polygon fill="white" stroke="black" points="579,-228.5 579,-247.5 720,-247.5 720,-228.5 579,-228.5"/>
<text text-anchor="middle" x="649.5" y="-235.5" font-family="Helvetica,sans-Serif" font-size="10.00">Ed::CSourcePiece::GetDims</text>
</a>
</g>
</g>
<!-- Node21&#45;&gt;Node24 -->
<g id="edge29" class="edge"><title>Node21&#45;&gt;Node24</title>
<path fill="none" stroke="midnightblue" d="M504.611,-304.428C516.182,-300.831 528.457,-296.091 539,-290 557.794,-279.142 555.926,-267.357 575,-257 579.195,-254.722 583.674,-252.708 588.273,-250.93"/>
<polygon fill="midnightblue" stroke="midnightblue" points="589.538,-254.196 597.829,-247.6 587.234,-247.586 589.538,-254.196"/>
</g>
<!-- Node25 -->
<g id="node25" class="node"><title>Node25</title>
<g id="a_node25"><a xlink:href="../../db/dbe/class_ed_1_1_c_cloned_piece.html#a323eca34928b7023fc439ff2fe9b519e" target="_top" xlink:title=" ">
<polygon fill="white" stroke="black" points="575,-404 575,-434 724,-434 724,-404 575,-404"/>
<text text-anchor="start" x="583" y="-422" font-family="Helvetica,sans-Serif" font-size="10.00">Ed::CClonedPiece::GetSource</text>
<text text-anchor="middle" x="649.5" y="-411" font-family="Helvetica,sans-Serif" font-size="10.00">Piece</text>
</a>
</g>
</g>
<!-- Node21&#45;&gt;Node25 -->
<g id="edge30" class="edge"><title>Node21&#45;&gt;Node25</title>
<path fill="none" stroke="midnightblue" d="M521.626,-323.512C527.827,-325.986 533.769,-329.095 539,-333 564.226,-351.833 550.576,-374.138 575,-394 577.059,-395.674 579.236,-397.239 581.5,-398.701"/>
<polygon fill="midnightblue" stroke="midnightblue" points="580.177,-401.973 590.605,-403.845 583.62,-395.878 580.177,-401.973"/>
</g>
<!-- Node21&#45;&gt;Node26 -->
<g id="edge31" class="edge"><title>Node21&#45;&gt;Node26</title>
<path fill="none" stroke="midnightblue" d="M512.97,-304.473C522.328,-301.033 531.51,-296.357 539,-290 565.976,-267.107 547.428,-241.171 575,-219 580.055,-214.935 585.884,-211.731 592.001,-209.206"/>
<polygon fill="midnightblue" stroke="midnightblue" points="593.505,-212.388 601.782,-205.774 591.187,-205.783 593.505,-212.388"/>
</g>
<!-- Node21&#45;&gt;Node27 -->
<g id="edge32" class="edge"><title>Node21&#45;&gt;Node27</title>
<path fill="none" stroke="midnightblue" d="M480.321,-304.399C497.112,-294.38 522.412,-277.311 539,-257 562.642,-228.052 546.191,-204.811 575,-181 579.934,-176.922 585.64,-173.708 591.649,-171.176"/>
<polygon fill="midnightblue" stroke="midnightblue" points="593.036,-174.397 601.273,-167.734 590.678,-167.807 593.036,-174.397"/>
</g>
<!-- Node21&#45;&gt;Node28 -->
<g id="edge33" class="edge"><title>Node21&#45;&gt;Node28</title>
<path fill="none" stroke="midnightblue" d="M481.589,-304.498C498.834,-294.778 524.027,-278.126 539,-257 569.724,-213.651 536.449,-179.564 575,-143 579.947,-138.308 585.897,-134.736 592.241,-132.024"/>
<polygon fill="midnightblue" stroke="midnightblue" points="593.505,-135.289 601.748,-128.634 591.154,-128.696 593.505,-135.289"/>
</g>
<!-- Node29 -->
<g id="node29" class="node"><title>Node29</title>
<g id="a_node29"><a xlink:href="../../d1/d06/namespace_nx.html#ad462be29622bab9de7f93615354778d1" target="_top" xlink:title=" ">
<polygon fill="white" stroke="black" points="626.5,-365.5 626.5,-384.5 672.5,-384.5 672.5,-365.5 626.5,-365.5"/>
<text text-anchor="middle" x="649.5" y="-372.5" font-family="Helvetica,sans-Serif" font-size="10.00">Nx::rot</text>
</a>
</g>
</g>
<!-- Node21&#45;&gt;Node29 -->
<g id="edge34" class="edge"><title>Node21&#45;&gt;Node29</title>
<path fill="none" stroke="midnightblue" d="M510.752,-323.58C520.282,-326.145 530.094,-329.268 539,-333 556.294,-340.246 557.781,-347.575 575,-355 588.127,-360.661 603.274,-365.107 616.394,-368.355"/>
<polygon fill="midnightblue" stroke="midnightblue" points="615.869,-371.827 626.404,-370.703 617.468,-365.012 615.869,-371.827"/>
</g>
<!-- Node32&#45;&gt;Node6 -->
<g id="edge43" class="edge"><title>Node32&#45;&gt;Node6</title>
<path fill="none" stroke="midnightblue" d="M852.593,-156.717C871.842,-174.787 915.746,-213.825 959,-237 966.916,-241.242 975.725,-244.941 984.37,-248.081"/>
<polygon fill="midnightblue" stroke="midnightblue" points="983.409,-251.452 994.004,-251.389 985.683,-244.831 983.409,-251.452"/>
</g>
<!-- Node32&#45;&gt;Node8 -->
<g id="edge44" class="edge"><title>Node32&#45;&gt;Node8</title>
<path fill="none" stroke="midnightblue" d="M858.456,-156.7C880.333,-169.55 921.235,-191.986 959,-204 1014.91,-221.785 1081.1,-231.546 1128.79,-236.704"/>
<polygon fill="midnightblue" stroke="midnightblue" points="1128.67,-240.21 1138.98,-237.767 1129.4,-233.248 1128.67,-240.21"/>
</g>
<!-- Node33 -->
<g id="node33" class="node"><title>Node33</title>
<g id="a_node33"><a xlink:href="../../db/dc4/namespace_mem.html#a10246603d03405159c82320b96e3efbf" target="_top" xlink:title=" ">
<polygon fill="white" stroke="black" points="994.5,-175.5 994.5,-194.5 1067.5,-194.5 1067.5,-175.5 994.5,-175.5"/>
<text text-anchor="middle" x="1031" y="-182.5" font-family="Helvetica,sans-Serif" font-size="10.00">Mem::Malloc</text>
</a>
</g>
</g>
<!-- Node32&#45;&gt;Node33 -->
<g id="edge45" class="edge"><title>Node32&#45;&gt;Node33</title>
<path fill="none" stroke="midnightblue" d="M889.814,-156.589C918.704,-162.444 955.464,-169.894 984.093,-175.696"/>
<polygon fill="midnightblue" stroke="midnightblue" points="983.747,-179.197 994.243,-177.753 985.137,-172.337 983.747,-179.197"/>
</g>
<!-- Node34 -->
<g id="node34" class="node"><title>Node34</title>
<g id="a_node34"><a xlink:href="../../d2/d0a/class_mem_1_1_manager.html#a7c4cba14870f002aee0243e16114f443" target="_top" xlink:title=" ">
<polygon fill="white" stroke="black" points="961.5,-137.5 961.5,-156.5 1100.5,-156.5 1100.5,-137.5 961.5,-137.5"/>
<text text-anchor="middle" x="1031" y="-144.5" font-family="Helvetica,sans-Serif" font-size="10.00">Mem::Manager::PopContext</text>
</a>
</g>
</g>
<!-- Node32&#45;&gt;Node34 -->
<g id="edge46" class="edge"><title>Node32&#45;&gt;Node34</title>
<path fill="none" stroke="midnightblue" d="M920.117,-147C930.393,-147 940.936,-147 951.231,-147"/>
<polygon fill="midnightblue" stroke="midnightblue" points="951.425,-150.5 961.425,-147 951.425,-143.5 951.425,-150.5"/>
</g>
<!-- Node35 -->
<g id="node35" class="node"><title>Node35</title>
<g id="a_node35"><a xlink:href="../../d2/d0a/class_mem_1_1_manager.html#aaf8e36abc36eecabe46bf2582035192a" target="_top" xlink:title=" ">
<polygon fill="white" stroke="black" points="959,-99.5 959,-118.5 1103,-118.5 1103,-99.5 959,-99.5"/>
<text text-anchor="middle" x="1031" y="-106.5" font-family="Helvetica,sans-Serif" font-size="10.00">Mem::Manager::PushContext</text>
</a>
</g>
</g>
<!-- Node32&#45;&gt;Node35 -->
<g id="edge47" class="edge"><title>Node32&#45;&gt;Node35</title>
<path fill="none" stroke="midnightblue" d="M889.814,-137.411C915.114,-132.284 946.45,-125.933 973.075,-120.537"/>
<polygon fill="midnightblue" stroke="midnightblue" points="973.921,-123.937 983.026,-118.52 972.53,-117.076 973.921,-123.937"/>
</g>
<!-- Node36 -->
<g id="node36" class="node"><title>Node36</title>
<g id="a_node36"><a xlink:href="../../d2/d0a/class_mem_1_1_manager.html#a3aefd91781b7f41d35e6df6a32d379d0" target="_top" xlink:title=" ">
<polygon fill="white" stroke="black" points="969.5,-61.5 969.5,-80.5 1092.5,-80.5 1092.5,-61.5 969.5,-61.5"/>
<text text-anchor="middle" x="1031" y="-68.5" font-family="Helvetica,sans-Serif" font-size="10.00">Mem::Manager::sHandle</text>
</a>
</g>
</g>
<!-- Node32&#45;&gt;Node36 -->
<g id="edge48" class="edge"><title>Node32&#45;&gt;Node36</title>
<path fill="none" stroke="midnightblue" d="M859.408,-137.43C881.674,-125.133 922.308,-103.738 959,-90 965.423,-87.5951 972.279,-85.3625 979.103,-83.3359"/>
<polygon fill="midnightblue" stroke="midnightblue" points="980.36,-86.6172 989.023,-80.5179 978.447,-79.8836 980.36,-86.6172"/>
</g>
<!-- Node37&#45;&gt;Node8 -->
<g id="edge50" class="edge"><title>Node37&#45;&gt;Node8</title>
<path fill="none" stroke="midnightblue" d="M343.088,-10C418.097,-10 541.852,-10 648.5,-10 648.5,-10 648.5,-10 842.5,-10 959.773,-10 1009.23,18.4234 1103,-52 1159.97,-94.7828 1182.39,-182.782 1189.82,-222.174"/>
<polygon fill="midnightblue" stroke="midnightblue" points="1186.39,-222.881 1191.57,-232.123 1193.29,-221.668 1186.39,-222.881"/>
</g>
</g>
</svg>
