<?xml version="1.0" encoding="UTF-8" standalone="no"?>
<!DOCTYPE svg PUBLIC "-//W3C//DTD SVG 1.1//EN"
 "http://www.w3.org/Graphics/SVG/1.1/DTD/svg11.dtd">
<!-- Generated by graphviz version 2.38.0 (20140413.2041)
 -->
<!-- Title: Ed::CMetaPiece::IsInPark Pages: 1 -->
<!--zoomable 603 -->
<svg id="main" version="1.1" xmlns="http://www.w3.org/2000/svg" xmlns:xlink="http://www.w3.org/1999/xlink" xml:space="preserve" onload="init(evt)">
<style type="text/css"><![CDATA[
.edge:hover path { stroke: red; }
.edge:hover polygon { stroke: red; fill: red; }
]]></style>
<script type="text/javascript"><![CDATA[
var edges = document.getElementsByTagName('g');
if (edges && edges.length) {
  for (var i=0;i<edges.length;i++) {
    if (edges[i].id.substr(0,4)=='edge') {
      edges[i].setAttribute('class','edge');
    }
  }
}
]]></script>
        <defs>
                <circle id="rim" cx="0" cy="0" r="7"/>
                <circle id="rim2" cx="0" cy="0" r="3.5"/>
                <g id="zoomPlus">
                        <use xlink:href="#rim" fill="#404040">
                                <set attributeName="fill" to="#808080" begin="zoomplus.mouseover" end="zoomplus.mouseout"/>
                        </use>
                        <path d="M-4,0h8M0,-4v8" fill="none" stroke="white" stroke-width="1.5" pointer-events="none"/>
                </g>
                <g id="zoomMin">
                        <use xlink:href="#rim" fill="#404040">
                                <set attributeName="fill" to="#808080" begin="zoomminus.mouseover" end="zoomminus.mouseout"/>
                        </use>
                        <path d="M-4,0h8" fill="none" stroke="white" stroke-width="1.5" pointer-events="none"/>
                </g>
                <g id="dirArrow">
                        <path fill="none" stroke="white" stroke-width="1.5" d="M0,-3.0v7 M-2.5,-0.5L0,-3.0L2.5,-0.5"/>
                </g>
               <g id="resetDef">
                       <use xlink:href="#rim2" fill="#404040">
                               <set attributeName="fill" to="#808080" begin="reset.mouseover" end="reset.mouseout"/>
                       </use>
               </g>
        </defs>

<script type="text/javascript">
var viewWidth = 1657;
var viewHeight = 603;
var sectionId = 'dynsection-17';
</script>
<script xlink:href="../../svgpan.js"/>
<svg id="graph" class="graph">
<g id="viewport">
<title>Ed::CMetaPiece::IsInPark</title>
<polygon fill="white" stroke="none" points="-4,4 -4,-599 1653,-599 1653,4 -4,4"/>
<!-- Node1 -->
<g id="node1" class="node"><title>Node1</title>
<g id="a_node1"><a xlink:title=" ">
<polygon fill="#bfbfbf" stroke="black" points="1520,-244 1520,-263 1649,-263 1649,-244 1520,-244"/>
<text text-anchor="middle" x="1584.5" y="-251" font-family="Helvetica,sans-Serif" font-size="10.00">Ed::CMetaPiece::IsInPark</text>
</a>
</g>
</g>
<!-- Node2 -->
<g id="node2" class="node"><title>Node2</title>
<g id="a_node2"><a xlink:href="../../d0/d5c/class_ed_1_1_c_park_manager.html#a880ed2ff0af3127cbf7b44efb635b36b" target="_top" xlink:title=" ">
<polygon fill="white" stroke="black" points="1345,-320.5 1345,-350.5 1484,-350.5 1484,-320.5 1345,-320.5"/>
<text text-anchor="start" x="1353" y="-338.5" font-family="Helvetica,sans-Serif" font-size="10.00">Ed::CParkManager::Destroy</text>
<text text-anchor="middle" x="1414.5" y="-327.5" font-family="Helvetica,sans-Serif" font-size="10.00">ConcreteMeta</text>
</a>
</g>
</g>
<!-- Node1&#45;&gt;Node2 -->
<g id="edge1" class="edge"><title>Node1&#45;&gt;Node2</title>
<path fill="none" stroke="midnightblue" d="M1554.74,-267.535C1524.57,-282.265 1477.3,-305.337 1446.36,-320.44"/>
<polygon fill="midnightblue" stroke="midnightblue" points="1556.45,-270.599 1563.9,-263.067 1553.38,-264.308 1556.45,-270.599"/>
</g>
<!-- Node21 -->
<g id="node21" class="node"><title>Node21</title>
<g id="a_node21"><a xlink:href="../../d0/d5c/class_ed_1_1_c_park_manager.html#a1f1fab05dba222adba629cc7b7b529f0" target="_top" xlink:title=" ">
<polygon fill="white" stroke="black" points="1164,-296.5 1164,-326.5 1301,-326.5 1301,-296.5 1164,-296.5"/>
<text text-anchor="start" x="1172" y="-314.5" font-family="Helvetica,sans-Serif" font-size="10.00">Ed::CParkManager::Rebuild</text>
<text text-anchor="middle" x="1232.5" y="-303.5" font-family="Helvetica,sans-Serif" font-size="10.00">InnerShell</text>
</a>
</g>
</g>
<!-- Node1&#45;&gt;Node21 -->
<g id="edge38" class="edge"><title>Node1&#45;&gt;Node21</title>
<path fill="none" stroke="midnightblue" d="M1516.05,-264.678C1454.19,-274.929 1363.04,-290.033 1301.13,-300.293"/>
<polygon fill="midnightblue" stroke="midnightblue" points="1516.8,-268.1 1526.1,-263.013 1515.66,-261.195 1516.8,-268.1"/>
</g>
<!-- Node26 -->
<g id="node26" class="node"><title>Node26</title>
<g id="a_node26"><a xlink:href="../../de/d42/class_ed_1_1_c_park_generator.html#a6fe4c8aa7ca841a3772e521064853a76" target="_top" xlink:title=" ">
<polygon fill="white" stroke="black" points="1359.5,-116.5 1359.5,-146.5 1469.5,-146.5 1469.5,-116.5 1359.5,-116.5"/>
<text text-anchor="start" x="1367.5" y="-134.5" font-family="Helvetica,sans-Serif" font-size="10.00">Ed::CParkGenerator</text>
<text text-anchor="middle" x="1414.5" y="-123.5" font-family="Helvetica,sans-Serif" font-size="10.00">::GenerateOutRailSet</text>
</a>
</g>
</g>
<!-- Node1&#45;&gt;Node26 -->
<g id="edge33" class="edge"><title>Node1&#45;&gt;Node26</title>
<path fill="none" stroke="midnightblue" d="M1561.96,-237.86C1529.48,-214.273 1468.36,-169.886 1436.31,-146.613"/>
<polygon fill="midnightblue" stroke="midnightblue" points="1560.17,-240.883 1570.32,-243.927 1564.28,-235.219 1560.17,-240.883"/>
</g>
<!-- Node31 -->
<g id="node31" class="node"><title>Node31</title>
<g id="a_node31"><a xlink:href="../../d0/d5c/class_ed_1_1_c_park_manager.html#ad0ef32b9d0a3cb11c5bea809bf3b477e" target="_top" xlink:title=" ">
<polygon fill="white" stroke="black" points="1168.5,-187.5 1168.5,-217.5 1296.5,-217.5 1296.5,-187.5 1168.5,-187.5"/>
<text text-anchor="start" x="1176.5" y="-205.5" font-family="Helvetica,sans-Serif" font-size="10.00">Ed::CParkManager::write</text>
<text text-anchor="middle" x="1232.5" y="-194.5" font-family="Helvetica,sans-Serif" font-size="10.00">_compressed_map_buffer</text>
</a>
</g>
</g>
<!-- Node1&#45;&gt;Node31 -->
<g id="edge39" class="edge"><title>Node1&#45;&gt;Node31</title>
<path fill="none" stroke="midnightblue" d="M1509.81,-242.762C1446.59,-233.551 1356.48,-220.42 1296.56,-211.688"/>
<polygon fill="midnightblue" stroke="midnightblue" points="1509.31,-246.227 1519.71,-244.205 1510.32,-239.3 1509.31,-246.227"/>
</g>
<!-- Node3 -->
<g id="node3" class="node"><title>Node3</title>
<g id="a_node3"><a xlink:href="../../d0/d5c/class_ed_1_1_c_park_manager.html#af640e213a45553360f591b8feb636449" target="_top" xlink:title=" ">
<polygon fill="white" stroke="black" points="1164,-247.5 1164,-277.5 1301,-277.5 1301,-247.5 1164,-247.5"/>
<text text-anchor="start" x="1172" y="-265.5" font-family="Helvetica,sans-Serif" font-size="10.00">Ed::CParkManager::destroy</text>
<text text-anchor="middle" x="1232.5" y="-254.5" font-family="Helvetica,sans-Serif" font-size="10.00">_concrete_metapieces</text>
</a>
</g>
</g>
<!-- Node2&#45;&gt;Node3 -->
<g id="edge2" class="edge"><title>Node2&#45;&gt;Node3</title>
<path fill="none" stroke="midnightblue" d="M1374.63,-315.791C1355.18,-306.315 1331.13,-295.162 1309,-286.5 1301.06,-283.392 1292.54,-280.381 1284.18,-277.603"/>
<polygon fill="midnightblue" stroke="midnightblue" points="1373.26,-319.017 1383.77,-320.29 1376.34,-312.736 1373.26,-319.017"/>
</g>
<!-- Node14 -->
<g id="node14" class="node"><title>Node14</title>
<g id="a_node14"><a xlink:href="../../d0/d5c/class_ed_1_1_c_park_manager.html#ade3a39b0d9543b7a036317bc25214e51" target="_top" xlink:title=" ">
<polygon fill="white" stroke="black" points="751.5,-427.5 751.5,-457.5 890.5,-457.5 890.5,-427.5 751.5,-427.5"/>
<text text-anchor="start" x="759.5" y="-445.5" font-family="Helvetica,sans-Serif" font-size="10.00">Ed::CParkManager::Destroy</text>
<text text-anchor="middle" x="821" y="-434.5" font-family="Helvetica,sans-Serif" font-size="10.00">MetasInArea</text>
</a>
</g>
</g>
<!-- Node2&#45;&gt;Node14 -->
<g id="edge14" class="edge"><title>Node2&#45;&gt;Node14</title>
<path fill="none" stroke="midnightblue" d="M1376.94,-355.287C1357.28,-365.249 1332.33,-376.81 1309,-384.5 1165.46,-431.817 986.848,-441.402 890.803,-442.831"/>
<polygon fill="midnightblue" stroke="midnightblue" points="1378.57,-358.385 1385.86,-350.697 1375.37,-352.161 1378.57,-358.385"/>
</g>
<!-- Node15 -->
<g id="node15" class="node"><title>Node15</title>
<g id="a_node15"><a xlink:href="../../d0/d5c/class_ed_1_1_c_park_manager.html#a897030eed0d8e64a5af4d363405f77be" target="_top" xlink:title=" ">
<polygon fill="white" stroke="black" points="1156,-345.5 1156,-375.5 1309,-375.5 1309,-345.5 1156,-345.5"/>
<text text-anchor="start" x="1164" y="-363.5" font-family="Helvetica,sans-Serif" font-size="10.00">Ed::CParkManager::generate</text>
<text text-anchor="middle" x="1232.5" y="-352.5" font-family="Helvetica,sans-Serif" font-size="10.00">_floor_pieces_from_height_map</text>
</a>
</g>
</g>
<!-- Node2&#45;&gt;Node15 -->
<g id="edge15" class="edge"><title>Node2&#45;&gt;Node15</title>
<path fill="none" stroke="midnightblue" d="M1334.94,-346.411C1326.36,-347.603 1317.63,-348.815 1309.08,-350.003"/>
<polygon fill="midnightblue" stroke="midnightblue" points="1335.51,-349.865 1344.94,-345.023 1334.55,-342.932 1335.51,-349.865"/>
</g>
<!-- Node2&#45;&gt;Node21 -->
<g id="edge23" class="edge"><title>Node2&#45;&gt;Node21</title>
<path fill="none" stroke="midnightblue" d="M1334.77,-325.003C1323.61,-323.514 1312.21,-321.995 1301.28,-320.537"/>
<polygon fill="midnightblue" stroke="midnightblue" points="1334.56,-328.506 1344.94,-326.358 1335.49,-321.567 1334.56,-328.506"/>
</g>
<!-- Node22 -->
<g id="node22" class="node"><title>Node22</title>
<g id="a_node22"><a xlink:href="../../d0/d5c/class_ed_1_1_c_park_manager.html#a5cac96c24586edfa719311b658213429" target="_top" xlink:title=" ">
<polygon fill="white" stroke="black" points="1161,-473.5 1161,-503.5 1304,-503.5 1304,-473.5 1161,-473.5"/>
<text text-anchor="start" x="1169" y="-491.5" font-family="Helvetica,sans-Serif" font-size="10.00">Ed::CParkManager::Relocate</text>
<text text-anchor="middle" x="1232.5" y="-480.5" font-family="Helvetica,sans-Serif" font-size="10.00">MetaPiece</text>
</a>
</g>
</g>
<!-- Node2&#45;&gt;Node22 -->
<g id="edge26" class="edge"><title>Node2&#45;&gt;Node22</title>
<path fill="none" stroke="midnightblue" d="M1398.01,-359.255C1379.56,-385.972 1346.49,-429.186 1309,-456.5 1299.8,-463.207 1288.97,-468.847 1278.44,-473.432"/>
<polygon fill="midnightblue" stroke="midnightblue" points="1400.98,-361.115 1403.69,-350.874 1395.18,-357.188 1400.98,-361.115"/>
</g>
<!-- Node4 -->
<g id="node4" class="node"><title>Node4</title>
<g id="a_node4"><a xlink:href="../../d0/d5c/class_ed_1_1_c_park_manager.html#a294b6088fc662e0f95d45feea3cfda70" target="_top" xlink:title=" ">
<polygon fill="white" stroke="black" points="959,-193 959,-212 1098,-212 1098,-193 959,-193"/>
<text text-anchor="middle" x="1028.5" y="-200" font-family="Helvetica,sans-Serif" font-size="10.00">Ed::CParkManager::Destroy</text>
</a>
</g>
</g>
<!-- Node3&#45;&gt;Node4 -->
<g id="edge3" class="edge"><title>Node3&#45;&gt;Node4</title>
<path fill="none" stroke="midnightblue" d="M1170.89,-244.497C1134.97,-233.828 1090.89,-220.734 1061.59,-212.032"/>
<polygon fill="midnightblue" stroke="midnightblue" points="1170.2,-247.945 1180.79,-247.437 1172.2,-241.234 1170.2,-247.945"/>
</g>
<!-- Node6 -->
<g id="node6" class="node"><title>Node6</title>
<g id="a_node6"><a xlink:href="../../d0/d5c/class_ed_1_1_c_park_manager.html#a99f4c81a0f4c7285d6667c7480d732ba" target="_top" xlink:title=" ">
<polygon fill="white" stroke="black" points="960,-269.5 960,-299.5 1097,-299.5 1097,-269.5 960,-269.5"/>
<text text-anchor="start" x="968" y="-287.5" font-family="Helvetica,sans-Serif" font-size="10.00">Ed::CParkManager::Rebuild</text>
<text text-anchor="middle" x="1028.5" y="-276.5" font-family="Helvetica,sans-Serif" font-size="10.00">WholePark</text>
</a>
</g>
</g>
<!-- Node3&#45;&gt;Node6 -->
<g id="edge5" class="edge"><title>Node3&#45;&gt;Node6</title>
<path fill="none" stroke="midnightblue" d="M1154.01,-270.939C1135.33,-272.973 1115.52,-275.131 1097.32,-277.113"/>
<polygon fill="midnightblue" stroke="midnightblue" points="1154.39,-274.418 1163.96,-269.856 1153.64,-267.46 1154.39,-274.418"/>
</g>
<!-- Node5 -->
<g id="node5" class="node"><title>Node5</title>
<g id="a_node5"><a xlink:href="../../d2/d84/namespace_ed.html#a193edd746832f7fa49f8496c9804d8e8" target="_top" xlink:title=" ">
<polygon fill="white" stroke="black" points="750.5,-176.5 750.5,-206.5 891.5,-206.5 891.5,-176.5 750.5,-176.5"/>
<text text-anchor="start" x="758.5" y="-194.5" font-family="Helvetica,sans-Serif" font-size="10.00">Ed::ScriptFreeUpMemoryFor</text>
<text text-anchor="middle" x="821" y="-183.5" font-family="Helvetica,sans-Serif" font-size="10.00">PlayingPark</text>
</a>
</g>
</g>
<!-- Node4&#45;&gt;Node5 -->
<g id="edge4" class="edge"><title>Node4&#45;&gt;Node5</title>
<path fill="none" stroke="midnightblue" d="M948.779,-198.286C929.985,-197.28 910.056,-196.213 891.701,-195.231"/>
<polygon fill="midnightblue" stroke="midnightblue" points="948.613,-201.782 958.786,-198.822 948.987,-194.792 948.613,-201.782"/>
</g>
<!-- Node7 -->
<g id="node7" class="node"><title>Node7</title>
<g id="a_node7"><a xlink:href="../../d8/d13/class_ed_1_1_c_park_editor.html#a960413265bc65b3f6ca5d6288ae4c8bd" target="_top" xlink:title=" ">
<polygon fill="white" stroke="black" points="179,-272 179,-291 325,-291 325,-272 179,-272"/>
<text text-anchor="middle" x="252" y="-279" font-family="Helvetica,sans-Serif" font-size="10.00">Ed::CParkEditor::AccessDisk</text>
</a>
</g>
</g>
<!-- Node6&#45;&gt;Node7 -->
<g id="edge6" class="edge"><title>Node6&#45;&gt;Node7</title>
<path fill="none" stroke="midnightblue" d="M949.855,-298.026C933.755,-300.306 916.864,-302.315 901,-303.5 692.211,-319.092 444.744,-300.413 325.021,-289.033"/>
<polygon fill="midnightblue" stroke="midnightblue" points="950.374,-301.488 959.762,-296.577 949.36,-294.561 950.374,-301.488"/>
</g>
<!-- Node10 -->
<g id="node10" class="node"><title>Node10</title>
<g id="a_node10"><a xlink:href="../../d0/d5c/class_ed_1_1_c_park_manager.html#a129890ee1132f04f2c98e6777431e2a4" target="_top" xlink:title=" ">
<polygon fill="white" stroke="black" points="751,-275 751,-294 891,-294 891,-275 751,-275"/>
<text text-anchor="middle" x="821" y="-282" font-family="Helvetica,sans-Serif" font-size="10.00">Ed::CParkManager::Initialize</text>
</a>
</g>
</g>
<!-- Node6&#45;&gt;Node10 -->
<g id="edge9" class="edge"><title>Node6&#45;&gt;Node10</title>
<path fill="none" stroke="midnightblue" d="M949.667,-284.5C930.383,-284.5 909.852,-284.5 891.021,-284.5"/>
<polygon fill="midnightblue" stroke="midnightblue" points="949.927,-288 959.927,-284.5 949.927,-281 949.927,-288"/>
</g>
<!-- Node11 -->
<g id="node11" class="node"><title>Node11</title>
<g id="a_node11"><a xlink:href="../../d8/d13/class_ed_1_1_c_park_editor.html#a7d21742d7c45dad9428d67cbcdeccd02" target="_top" xlink:title=" ">
<polygon fill="white" stroke="black" points="746.5,-225.5 746.5,-255.5 895.5,-255.5 895.5,-225.5 746.5,-225.5"/>
<text text-anchor="start" x="754.5" y="-243.5" font-family="Helvetica,sans-Serif" font-size="10.00">Ed::CParkEditor::PostMemory</text>
<text text-anchor="middle" x="821" y="-232.5" font-family="Helvetica,sans-Serif" font-size="10.00">CardLoad</text>
</a>
</g>
</g>
<!-- Node6&#45;&gt;Node11 -->
<g id="edge10" class="edge"><title>Node6&#45;&gt;Node11</title>
<path fill="none" stroke="midnightblue" d="M950.094,-267.927C931.047,-263.848 910.76,-259.505 892.081,-255.505"/>
<polygon fill="midnightblue" stroke="midnightblue" points="949.416,-271.36 959.927,-270.032 950.881,-264.516 949.416,-271.36"/>
</g>
<!-- Node8 -->
<g id="node8" class="node"><title>Node8</title>
<g id="a_node8"><a xlink:href="../../d2/d84/namespace_ed.html#ad60f3a0d186b2da60f26277074f39c2d" target="_top" xlink:title=" ">
<polygon fill="white" stroke="black" points="0,-291 0,-310 143,-310 143,-291 0,-291"/>
<text text-anchor="middle" x="71.5" y="-298" font-family="Helvetica,sans-Serif" font-size="10.00">Ed::ScriptLoadParkFromDisk</text>
</a>
</g>
</g>
<!-- Node7&#45;&gt;Node8 -->
<g id="edge7" class="edge"><title>Node7&#45;&gt;Node8</title>
<path fill="none" stroke="midnightblue" d="M168.872,-290.242C160.269,-291.158 151.577,-292.083 143.118,-292.983"/>
<polygon fill="midnightblue" stroke="midnightblue" points="169.338,-293.712 178.912,-289.173 168.597,-286.751 169.338,-293.712"/>
</g>
<!-- Node9 -->
<g id="node9" class="node"><title>Node9</title>
<g id="a_node9"><a xlink:href="../../d2/d84/namespace_ed.html#a16094dc8a2ec4512d21b7a524c913812" target="_top" xlink:title=" ">
<polygon fill="white" stroke="black" points="6,-253 6,-272 137,-272 137,-253 6,-253"/>
<text text-anchor="middle" x="71.5" y="-260" font-family="Helvetica,sans-Serif" font-size="10.00">Ed::ScriptSaveParkToDisk</text>
</a>
</g>
</g>
<!-- Node7&#45;&gt;Node9 -->
<g id="edge8" class="edge"><title>Node7&#45;&gt;Node9</title>
<path fill="none" stroke="midnightblue" d="M168.778,-272.748C158.145,-271.616 147.378,-270.47 137.086,-269.375"/>
<polygon fill="midnightblue" stroke="midnightblue" points="168.597,-276.249 178.912,-273.827 169.338,-269.288 168.597,-276.249"/>
</g>
<!-- Node12 -->
<g id="node12" class="node"><title>Node12</title>
<g id="a_node12"><a xlink:href="../../d0/d5c/class_ed_1_1_c_park_manager.html#af06ffb35bd29d3823932e27fe231c7ea" target="_top" xlink:title=" ">
<polygon fill="white" stroke="black" points="555,-225.5 555,-255.5 705,-255.5 705,-225.5 555,-225.5"/>
<text text-anchor="start" x="563" y="-243.5" font-family="Helvetica,sans-Serif" font-size="10.00">Ed::CParkManager::ReadFrom</text>
<text text-anchor="middle" x="630" y="-232.5" font-family="Helvetica,sans-Serif" font-size="10.00">Structure</text>
</a>
</g>
</g>
<!-- Node11&#45;&gt;Node12 -->
<g id="edge11" class="edge"><title>Node11&#45;&gt;Node12</title>
<path fill="none" stroke="midnightblue" d="M736.108,-240.5C725.754,-240.5 715.227,-240.5 705.035,-240.5"/>
<polygon fill="midnightblue" stroke="midnightblue" points="736.387,-244 746.386,-240.5 736.386,-237 736.387,-244"/>
</g>
<!-- Node13 -->
<g id="node13" class="node"><title>Node13</title>
<g id="a_node13"><a xlink:href="../../d0/d5c/class_ed_1_1_c_park_manager.html#aab29f1a394b0f9b7aeb1a4bd2a969efd" target="_top" xlink:title=" ">
<polygon fill="white" stroke="black" points="361,-231 361,-250 519,-250 519,-231 361,-231"/>
<text text-anchor="middle" x="440" y="-238" font-family="Helvetica,sans-Serif" font-size="10.00">Ed::CParkManager::AccessDisk</text>
</a>
</g>
</g>
<!-- Node12&#45;&gt;Node13 -->
<g id="edge12" class="edge"><title>Node12&#45;&gt;Node13</title>
<path fill="none" stroke="midnightblue" d="M544.719,-240.5C536.259,-240.5 527.693,-240.5 519.299,-240.5"/>
<polygon fill="midnightblue" stroke="midnightblue" points="544.967,-244 554.967,-240.5 544.967,-237 544.967,-244"/>
</g>
<!-- Node13&#45;&gt;Node7 -->
<g id="edge13" class="edge"><title>Node13&#45;&gt;Node7</title>
<path fill="none" stroke="midnightblue" d="M386.083,-252.165C357.647,-258.433 323.028,-266.064 296.227,-271.971"/>
<polygon fill="midnightblue" stroke="midnightblue" points="386.848,-255.58 395.86,-250.009 385.341,-248.744 386.848,-255.58"/>
</g>
<!-- Node15&#45;&gt;Node6 -->
<g id="edge22" class="edge"><title>Node15&#45;&gt;Node6</title>
<path fill="none" stroke="midnightblue" d="M1174.72,-342.129C1168.38,-339.952 1162.04,-337.715 1156,-335.5 1124.99,-324.127 1090.21,-310.005 1064.98,-299.507"/>
<polygon fill="midnightblue" stroke="midnightblue" points="1174.03,-345.591 1184.62,-345.49 1176.28,-338.962 1174.03,-345.591"/>
</g>
<!-- Node16 -->
<g id="node16" class="node"><title>Node16</title>
<g id="a_node16"><a xlink:href="../../d0/d5c/class_ed_1_1_c_park_manager.html#ae25f8da3eb72427f1321dc50d4d90e15" target="_top" xlink:title=" ">
<polygon fill="white" stroke="black" points="960,-383.5 960,-413.5 1097,-413.5 1097,-383.5 960,-383.5"/>
<text text-anchor="start" x="968" y="-401.5" font-family="Helvetica,sans-Serif" font-size="10.00">Ed::CParkManager::Rebuild</text>
<text text-anchor="middle" x="1028.5" y="-390.5" font-family="Helvetica,sans-Serif" font-size="10.00">Floor</text>
</a>
</g>
</g>
<!-- Node15&#45;&gt;Node16 -->
<g id="edge16" class="edge"><title>Node15&#45;&gt;Node16</title>
<path fill="none" stroke="midnightblue" d="M1145.96,-376.593C1129.69,-379.652 1112.88,-382.815 1097.26,-385.753"/>
<polygon fill="midnightblue" stroke="midnightblue" points="1146.81,-379.992 1156,-374.704 1145.52,-373.113 1146.81,-379.992"/>
</g>
<!-- Node16&#45;&gt;Node14 -->
<g id="edge18" class="edge"><title>Node16&#45;&gt;Node14</title>
<path fill="none" stroke="midnightblue" d="M950.148,-415.062C930.604,-419.247 909.752,-423.711 890.668,-427.797"/>
<polygon fill="midnightblue" stroke="midnightblue" points="950.881,-418.484 959.927,-412.968 949.416,-411.64 950.881,-418.484"/>
</g>
<!-- Node17 -->
<g id="node17" class="node"><title>Node17</title>
<g id="a_node17"><a xlink:href="../../d0/d5c/class_ed_1_1_c_park_manager.html#af3606842ce6881d602a97a4b940f4db3" target="_top" xlink:title=" ">
<polygon fill="white" stroke="black" points="561,-520.5 561,-550.5 699,-550.5 699,-520.5 561,-520.5"/>
<text text-anchor="start" x="569" y="-538.5" font-family="Helvetica,sans-Serif" font-size="10.00">Ed::CParkManager::Change</text>
<text text-anchor="middle" x="630" y="-527.5" font-family="Helvetica,sans-Serif" font-size="10.00">FloorHeight</text>
</a>
</g>
</g>
<!-- Node16&#45;&gt;Node17 -->
<g id="edge17" class="edge"><title>Node16&#45;&gt;Node17</title>
<path fill="none" stroke="midnightblue" d="M949.577,-388.64C889.656,-384.514 806.34,-386.472 741,-417.5 693.185,-440.206 656.015,-493.702 639.834,-520.149"/>
<polygon fill="midnightblue" stroke="midnightblue" points="949.497,-392.144 959.733,-389.413 950.028,-385.164 949.497,-392.144"/>
</g>
<!-- Node18 -->
<g id="node18" class="node"><title>Node18</title>
<g id="a_node18"><a xlink:href="../../d0/d5c/class_ed_1_1_c_park_manager.html#a2c07eca44d2c7c8cbf9983734f760677" target="_top" xlink:title=" ">
<polygon fill="white" stroke="black" points="745,-476.5 745,-506.5 897,-506.5 897,-476.5 745,-476.5"/>
<text text-anchor="start" x="753" y="-494.5" font-family="Helvetica,sans-Serif" font-size="10.00">Ed::CParkManager::ResetFloor</text>
<text text-anchor="middle" x="821" y="-483.5" font-family="Helvetica,sans-Serif" font-size="10.00">Heights</text>
</a>
</g>
</g>
<!-- Node16&#45;&gt;Node18 -->
<g id="edge19" class="edge"><title>Node16&#45;&gt;Node18</title>
<path fill="none" stroke="midnightblue" d="M994.805,-418.754C969.789,-433.646 934.079,-453.626 901,-467.5 893.333,-470.716 885.085,-473.706 876.913,-476.408"/>
<polygon fill="midnightblue" stroke="midnightblue" points="996.746,-421.671 1003.51,-413.518 993.139,-415.671 996.746,-421.671"/>
</g>
<!-- Node19 -->
<g id="node19" class="node"><title>Node19</title>
<g id="a_node19"><a xlink:href="../../d2/d84/namespace_ed.html#a18e01a46dde64d90411ab5c2e68344ad" target="_top" xlink:title=" ">
<polygon fill="white" stroke="black" points="778.5,-351 778.5,-370 863.5,-370 863.5,-351 778.5,-351"/>
<text text-anchor="middle" x="821" y="-358" font-family="Helvetica,sans-Serif" font-size="10.00">Ed::ResizePark</text>
</a>
</g>
</g>
<!-- Node16&#45;&gt;Node19 -->
<g id="edge20" class="edge"><title>Node16&#45;&gt;Node19</title>
<path fill="none" stroke="midnightblue" d="M950.089,-384.186C920.7,-378.751 888.363,-372.771 863.532,-368.18"/>
<polygon fill="midnightblue" stroke="midnightblue" points="949.457,-387.628 959.927,-386.005 950.73,-380.745 949.457,-387.628"/>
</g>
<!-- Node20 -->
<g id="node20" class="node"><title>Node20</title>
<g id="a_node20"><a xlink:href="../../d2/d84/namespace_ed.html#ab4c4bf774b1e68db92ab0e79d634bf57" target="_top" xlink:title=" ">
<polygon fill="white" stroke="black" points="575,-351 575,-370 685,-370 685,-351 575,-351"/>
<text text-anchor="middle" x="630" y="-358" font-family="Helvetica,sans-Serif" font-size="10.00">Ed::ScriptResizePark</text>
</a>
</g>
</g>
<!-- Node19&#45;&gt;Node20 -->
<g id="edge21" class="edge"><title>Node19&#45;&gt;Node20</title>
<path fill="none" stroke="midnightblue" d="M767.745,-360.5C742.013,-360.5 711.019,-360.5 685.049,-360.5"/>
<polygon fill="midnightblue" stroke="midnightblue" points="768.055,-364 778.055,-360.5 768.055,-357 768.055,-364"/>
</g>
<!-- Node21&#45;&gt;Node6 -->
<g id="edge24" class="edge"><title>Node21&#45;&gt;Node6</title>
<path fill="none" stroke="midnightblue" d="M1154.01,-301.143C1135.33,-298.646 1115.52,-295.998 1097.32,-293.566"/>
<polygon fill="midnightblue" stroke="midnightblue" points="1153.58,-304.616 1163.96,-302.472 1154.51,-297.678 1153.58,-304.616"/>
</g>
<!-- Node21&#45;&gt;Node19 -->
<g id="edge25" class="edge"><title>Node21&#45;&gt;Node19</title>
<path fill="none" stroke="midnightblue" d="M1153.88,-320.787C1067.71,-331.099 931.814,-347.36 863.753,-355.504"/>
<polygon fill="midnightblue" stroke="midnightblue" points="1154.37,-324.255 1163.88,-319.591 1153.53,-317.304 1154.37,-324.255"/>
</g>
<!-- Node22&#45;&gt;Node18 -->
<g id="edge27" class="edge"><title>Node22&#45;&gt;Node18</title>
<path fill="none" stroke="midnightblue" d="M1150.48,-489.094C1076.82,-489.633 968.972,-490.423 897.189,-490.949"/>
<polygon fill="midnightblue" stroke="midnightblue" points="1150.66,-492.592 1160.64,-489.019 1150.61,-485.593 1150.66,-492.592"/>
</g>
<!-- Node23 -->
<g id="node23" class="node"><title>Node23</title>
<g id="a_node23"><a xlink:href="../../d0/d5c/class_ed_1_1_c_park_manager.html#afaa3d5674cd68fefe1622dc2dcc66013" target="_top" xlink:title=" ">
<polygon fill="white" stroke="black" points="966,-564.5 966,-594.5 1091,-594.5 1091,-564.5 966,-564.5"/>
<text text-anchor="start" x="974" y="-582.5" font-family="Helvetica,sans-Serif" font-size="10.00">Ed::CParkManager::slide</text>
<text text-anchor="middle" x="1028.5" y="-571.5" font-family="Helvetica,sans-Serif" font-size="10.00">_column_part_two</text>
</a>
</g>
</g>
<!-- Node22&#45;&gt;Node23 -->
<g id="edge28" class="edge"><title>Node22&#45;&gt;Node23</title>
<path fill="none" stroke="midnightblue" d="M1201.79,-509.521C1180.01,-524.131 1149.25,-543.128 1120,-555.5 1110.87,-559.363 1100.95,-562.747 1091.14,-565.662"/>
<polygon fill="midnightblue" stroke="midnightblue" points="1203.96,-512.28 1210.26,-503.761 1200.02,-506.493 1203.96,-512.28"/>
</g>
<!-- Node25 -->
<g id="node25" class="node"><title>Node25</title>
<g id="a_node25"><a xlink:href="../../d0/d5c/class_ed_1_1_c_park_manager.html#abfe1d3f53e77695384e1b95db6043ad3" target="_top" xlink:title=" ">
<polygon fill="white" stroke="black" points="954,-515.5 954,-545.5 1103,-545.5 1103,-515.5 954,-515.5"/>
<text text-anchor="start" x="962" y="-533.5" font-family="Helvetica,sans-Serif" font-size="10.00">Ed::CParkManager::UndoSlide</text>
<text text-anchor="middle" x="1028.5" y="-522.5" font-family="Helvetica,sans-Serif" font-size="10.00">Column</text>
</a>
</g>
</g>
<!-- Node22&#45;&gt;Node25 -->
<g id="edge31" class="edge"><title>Node22&#45;&gt;Node25</title>
<path fill="none" stroke="midnightblue" d="M1150.87,-505.265C1134.66,-508.635 1117.72,-512.156 1101.82,-515.463"/>
<polygon fill="midnightblue" stroke="midnightblue" points="1151.77,-508.652 1160.85,-503.19 1150.35,-501.799 1151.77,-508.652"/>
</g>
<!-- Node24 -->
<g id="node24" class="node"><title>Node24</title>
<g id="a_node24"><a xlink:href="../../d0/d5c/class_ed_1_1_c_park_manager.html#a14313a2617312d29b0006017f5739d9f" target="_top" xlink:title=" ">
<polygon fill="white" stroke="black" points="741,-567 741,-586 901,-586 901,-567 741,-567"/>
<text text-anchor="middle" x="821" y="-574" font-family="Helvetica,sans-Serif" font-size="10.00">Ed::CParkManager::SlideColumn</text>
</a>
</g>
</g>
<!-- Node23&#45;&gt;Node24 -->
<g id="edge29" class="edge"><title>Node23&#45;&gt;Node24</title>
<path fill="none" stroke="midnightblue" d="M955.645,-578.451C938.032,-578.194 919.083,-577.917 901.149,-577.655"/>
<polygon fill="midnightblue" stroke="midnightblue" points="955.793,-581.953 965.843,-578.6 955.895,-574.954 955.793,-581.953"/>
</g>
<!-- Node24&#45;&gt;Node17 -->
<g id="edge30" class="edge"><title>Node24&#45;&gt;Node17</title>
<path fill="none" stroke="midnightblue" d="M766.193,-564.828C745.295,-560.294 721.115,-555.049 699.033,-550.258"/>
<polygon fill="midnightblue" stroke="midnightblue" points="765.65,-568.291 776.165,-566.991 767.134,-561.45 765.65,-568.291"/>
</g>
<!-- Node25&#45;&gt;Node17 -->
<g id="edge32" class="edge"><title>Node25&#45;&gt;Node17</title>
<path fill="none" stroke="midnightblue" d="M943.805,-531.555C871.088,-532.472 767.07,-533.784 699.287,-534.639"/>
<polygon fill="midnightblue" stroke="midnightblue" points="943.896,-535.055 953.851,-531.429 943.807,-528.055 943.896,-535.055"/>
</g>
<!-- Node27 -->
<g id="node27" class="node"><title>Node27</title>
<g id="a_node27"><a xlink:href="../../de/d42/class_ed_1_1_c_park_generator.html#aa09527e9552236975be71ab5aa2bda14" target="_top" xlink:title=" ">
<polygon fill="white" stroke="black" points="1180.5,-23.5 1180.5,-53.5 1284.5,-53.5 1284.5,-23.5 1180.5,-23.5"/>
<text text-anchor="start" x="1188.5" y="-41.5" font-family="Helvetica,sans-Serif" font-size="10.00">Ed::CParkGenerator</text>
<text text-anchor="middle" x="1232.5" y="-30.5" font-family="Helvetica,sans-Serif" font-size="10.00">::GenerateNodeInfo</text>
</a>
</g>
</g>
<!-- Node26&#45;&gt;Node27 -->
<g id="edge34" class="edge"><title>Node26&#45;&gt;Node27</title>
<path fill="none" stroke="midnightblue" d="M1375.11,-111.666C1341.51,-94.3033 1293.4,-69.4478 1262.81,-53.6426"/>
<polygon fill="midnightblue" stroke="midnightblue" points="1373.69,-114.87 1384.18,-116.351 1376.9,-108.651 1373.69,-114.87"/>
</g>
<!-- Node30 -->
<g id="node30" class="node"><title>Node30</title>
<g id="a_node30"><a xlink:href="../../dc/d9e/class_obj_1_1_c_rail_editor_component.html#a1c9cbe3132bad09cfcab8f889e424770" target="_top" xlink:title=" ">
<polygon fill="white" stroke="black" points="1164.5,-116.5 1164.5,-146.5 1300.5,-146.5 1300.5,-116.5 1164.5,-116.5"/>
<text text-anchor="start" x="1172.5" y="-134.5" font-family="Helvetica,sans-Serif" font-size="10.00">Obj::CRailEditorComponent</text>
<text text-anchor="middle" x="1232.5" y="-123.5" font-family="Helvetica,sans-Serif" font-size="10.00">::Hide</text>
</a>
</g>
</g>
<!-- Node26&#45;&gt;Node30 -->
<g id="edge37" class="edge"><title>Node26&#45;&gt;Node30</title>
<path fill="none" stroke="midnightblue" d="M1349.29,-131.5C1333.47,-131.5 1316.49,-131.5 1300.54,-131.5"/>
<polygon fill="midnightblue" stroke="midnightblue" points="1349.49,-135 1359.49,-131.5 1349.49,-128 1349.49,-135"/>
</g>
<!-- Node28 -->
<g id="node28" class="node"><title>Node28</title>
<g id="a_node28"><a xlink:href="../../d0/d5c/class_ed_1_1_c_park_manager.html#afe3b49be10db3c24e7a68e400f00ade5" target="_top" xlink:title=" ">
<polygon fill="white" stroke="black" points="960,-11.5 960,-41.5 1097,-41.5 1097,-11.5 960,-11.5"/>
<text text-anchor="start" x="968" y="-29.5" font-family="Helvetica,sans-Serif" font-size="10.00">Ed::CParkManager::Rebuild</text>
<text text-anchor="middle" x="1028.5" y="-18.5" font-family="Helvetica,sans-Serif" font-size="10.00">NodeArray</text>
</a>
</g>
</g>
<!-- Node27&#45;&gt;Node28 -->
<g id="edge35" class="edge"><title>Node27&#45;&gt;Node28</title>
<path fill="none" stroke="midnightblue" d="M1170.25,-34.8612C1147.14,-33.4888 1120.74,-31.9203 1097.09,-30.5154"/>
<polygon fill="midnightblue" stroke="midnightblue" points="1170.08,-38.3571 1180.27,-35.4564 1170.49,-31.3694 1170.08,-38.3571"/>
</g>
<!-- Node29 -->
<g id="node29" class="node"><title>Node29</title>
<g id="a_node29"><a xlink:href="../../d2/d84/namespace_ed.html#a22ced855b40e383b19535536b3cbefab" target="_top" xlink:title=" ">
<polygon fill="white" stroke="black" points="753.5,-0.5 753.5,-30.5 888.5,-30.5 888.5,-0.5 753.5,-0.5"/>
<text text-anchor="start" x="761.5" y="-18.5" font-family="Helvetica,sans-Serif" font-size="10.00">Ed::ScriptRebuildParkNode</text>
<text text-anchor="middle" x="821" y="-7.5" font-family="Helvetica,sans-Serif" font-size="10.00">Array</text>
</a>
</g>
</g>
<!-- Node28&#45;&gt;Node29 -->
<g id="edge36" class="edge"><title>Node28&#45;&gt;Node29</title>
<path fill="none" stroke="midnightblue" d="M949.835,-22.3427C929.659,-21.2628 908.109,-20.1093 888.563,-19.063"/>
<polygon fill="midnightblue" stroke="midnightblue" points="949.754,-25.8433 959.927,-22.883 950.128,-18.8533 949.754,-25.8433"/>
</g>
<!-- Node31&#45;&gt;Node4 -->
<g id="edge40" class="edge"><title>Node31&#45;&gt;Node4</title>
<path fill="none" stroke="midnightblue" d="M1158.29,-202.5C1138.64,-202.5 1117.46,-202.5 1098.06,-202.5"/>
<polygon fill="midnightblue" stroke="midnightblue" points="1158.42,-206 1168.42,-202.5 1158.42,-199 1158.42,-206"/>
</g>
<!-- Node31&#45;&gt;Node6 -->
<g id="edge41" class="edge"><title>Node31&#45;&gt;Node6</title>
<path fill="none" stroke="midnightblue" d="M1185.15,-221.315C1149.2,-235.907 1100.04,-255.864 1066.66,-269.417"/>
<polygon fill="midnightblue" stroke="midnightblue" points="1186.5,-224.544 1194.45,-217.54 1183.87,-218.058 1186.5,-224.544"/>
</g>
<!-- Node32 -->
<g id="node32" class="node"><title>Node32</title>
<g id="a_node32"><a xlink:href="../../d0/d5c/class_ed_1_1_c_park_manager.html#ac548b141aef21d92f0be44bd5225110a" target="_top" xlink:title=" ">
<polygon fill="white" stroke="black" points="954,-83 954,-102 1103,-102 1103,-83 954,-83"/>
<text text-anchor="middle" x="1028.5" y="-90" font-family="Helvetica,sans-Serif" font-size="10.00">Ed::CParkManager::SetTheme</text>
</a>
</g>
</g>
<!-- Node31&#45;&gt;Node32 -->
<g id="edge42" class="edge"><title>Node31&#45;&gt;Node32</title>
<path fill="none" stroke="midnightblue" d="M1195.86,-182.176C1182.95,-174.338 1168.49,-164.982 1156,-155.5 1138.71,-142.375 1138.72,-133.492 1120,-122.5 1104.73,-113.531 1086.41,-106.818 1070.26,-102.043"/>
<polygon fill="midnightblue" stroke="midnightblue" points="1194.12,-185.215 1204.5,-187.342 1197.71,-179.207 1194.12,-185.215"/>
</g>
<!-- Node34 -->
<g id="node34" class="node"><title>Node34</title>
<g id="a_node34"><a xlink:href="../../d0/d5c/class_ed_1_1_c_park_manager.html#a534da0c8b079c89533660449eb0124a0" target="_top" xlink:title=" ">
<polygon fill="white" stroke="black" points="937,-132.5 937,-162.5 1120,-162.5 1120,-132.5 937,-132.5"/>
<text text-anchor="start" x="945" y="-150.5" font-family="Helvetica,sans-Serif" font-size="10.00">Ed::CParkManager::WriteCompressed</text>
<text text-anchor="middle" x="1028.5" y="-139.5" font-family="Helvetica,sans-Serif" font-size="10.00">MapBuffer</text>
</a>
</g>
</g>
<!-- Node31&#45;&gt;Node34 -->
<g id="edge44" class="edge"><title>Node31&#45;&gt;Node34</title>
<path fill="none" stroke="midnightblue" d="M1166.4,-184.774C1140.02,-177.593 1109.9,-169.39 1084.63,-162.511"/>
<polygon fill="midnightblue" stroke="midnightblue" points="1165.73,-188.221 1176.3,-187.471 1167.57,-181.467 1165.73,-188.221"/>
</g>
<!-- Node33 -->
<g id="node33" class="node"><title>Node33</title>
<g id="a_node33"><a xlink:href="../../d2/d84/namespace_ed.html#a24db05daa585edcd83981f5af6cff706" target="_top" xlink:title=" ">
<polygon fill="white" stroke="black" points="756,-50 756,-69 886,-69 886,-50 756,-50"/>
<text text-anchor="middle" x="821" y="-57" font-family="Helvetica,sans-Serif" font-size="10.00">Ed::ScriptSetEditorTheme</text>
</a>
</g>
</g>
<!-- Node32&#45;&gt;Node33 -->
<g id="edge43" class="edge"><title>Node32&#45;&gt;Node33</title>
<path fill="none" stroke="midnightblue" d="M958.226,-81.3757C933.316,-77.3755 905.458,-72.902 881.457,-69.0479"/>
<polygon fill="midnightblue" stroke="midnightblue" points="957.908,-84.8694 968.337,-82.9993 959.018,-77.958 957.908,-84.8694"/>
</g>
<!-- Node35 -->
<g id="node35" class="node"><title>Node35</title>
<g id="a_node35"><a xlink:href="../../d2/d84/namespace_ed.html#ae0e0b8a6808eb34a8d8c01d48b58e22e" target="_top" xlink:title=" ">
<polygon fill="white" stroke="black" points="752,-88.5 752,-118.5 890,-118.5 890,-88.5 752,-88.5"/>
<text text-anchor="start" x="760" y="-106.5" font-family="Helvetica,sans-Serif" font-size="10.00">Ed::ScriptWriteCompressed</text>
<text text-anchor="middle" x="821" y="-95.5" font-family="Helvetica,sans-Serif" font-size="10.00">MapBuffer</text>
</a>
</g>
</g>
<!-- Node34&#45;&gt;Node35 -->
<g id="edge45" class="edge"><title>Node34&#45;&gt;Node35</title>
<path fill="none" stroke="midnightblue" d="M947.542,-130.38C928.561,-126.316 908.488,-122.018 890.093,-118.08"/>
<polygon fill="midnightblue" stroke="midnightblue" points="946.842,-133.809 957.353,-132.481 948.308,-126.965 946.842,-133.809"/>
</g>
<!-- Node36 -->
<g id="node36" class="node"><title>Node36</title>
<g id="a_node36"><a xlink:href="../../d0/d5c/class_ed_1_1_c_park_manager.html#a90c4c1429a48870aa0161fa21009cd2b" target="_top" xlink:title=" ">
<polygon fill="white" stroke="black" points="558,-154.5 558,-184.5 702,-184.5 702,-154.5 558,-154.5"/>
<text text-anchor="start" x="566" y="-172.5" font-family="Helvetica,sans-Serif" font-size="10.00">Ed::CParkManager::WriteInto</text>
<text text-anchor="middle" x="630" y="-161.5" font-family="Helvetica,sans-Serif" font-size="10.00">Structure</text>
</a>
</g>
</g>
<!-- Node34&#45;&gt;Node36 -->
<g id="edge46" class="edge"><title>Node34&#45;&gt;Node36</title>
<path fill="none" stroke="midnightblue" d="M926.351,-153.112C856.231,-157.003 764.589,-162.088 702.102,-165.555"/>
<polygon fill="midnightblue" stroke="midnightblue" points="926.744,-156.596 936.535,-152.547 926.356,-149.607 926.744,-156.596"/>
</g>
<!-- Node36&#45;&gt;Node13 -->
<g id="edge47" class="edge"><title>Node36&#45;&gt;Node13</title>
<path fill="none" stroke="midnightblue" d="M579.683,-188.125C543.325,-201.856 495.343,-219.977 466.403,-230.906"/>
<polygon fill="midnightblue" stroke="midnightblue" points="581.012,-191.365 589.13,-184.557 578.538,-184.816 581.012,-191.365"/>
</g>
</g>
</svg>
        <g id="navigator" transform="translate(0 0)" fill="#404254">
                <rect fill="#f2f5e9" fill-opacity="0.5" stroke="#606060" stroke-width=".5" x="0" y="0" width="60" height="60"/>
                <use id="zoomplus" xlink:href="#zoomPlus" x="17" y="9" onmousedown="handleZoom(evt,'in')"/>
                <use id="zoomminus" xlink:href="#zoomMin" x="42" y="9" onmousedown="handleZoom(evt,'out')"/>
                <use id="reset" xlink:href="#resetDef" x="30" y="36" onmousedown="handleReset()"/>
                <g id="arrowUp" xlink:href="#dirArrow" transform="translate(30 24)" onmousedown="handlePan(0,-1)">
                  <use xlink:href="#rim" fill="#404040">
                        <set attributeName="fill" to="#808080" begin="arrowUp.mouseover" end="arrowUp.mouseout"/>
                  </use>
                  <path fill="none" stroke="white" stroke-width="1.5" d="M0,-3.0v7 M-2.5,-0.5L0,-3.0L2.5,-0.5"/>
                </g>
                <g id="arrowRight" xlink:href="#dirArrow" transform="rotate(90) translate(36 -43)" onmousedown="handlePan(1,0)">
                  <use xlink:href="#rim" fill="#404040">
                        <set attributeName="fill" to="#808080" begin="arrowRight.mouseover" end="arrowRight.mouseout"/>
                  </use>
                  <path fill="none" stroke="white" stroke-width="1.5" d="M0,-3.0v7 M-2.5,-0.5L0,-3.0L2.5,-0.5"/>
                </g>
                <g id="arrowDown" xlink:href="#dirArrow" transform="rotate(180) translate(-30 -48)" onmousedown="handlePan(0,1)">
                  <use xlink:href="#rim" fill="#404040">
                        <set attributeName="fill" to="#808080" begin="arrowDown.mouseover" end="arrowDown.mouseout"/>
                  </use>
                  <path fill="none" stroke="white" stroke-width="1.5" d="M0,-3.0v7 M-2.5,-0.5L0,-3.0L2.5,-0.5"/>
                </g>
                <g id="arrowLeft" xlink:href="#dirArrow" transform="rotate(270) translate(-36 17)" onmousedown="handlePan(-1,0)">
                  <use xlink:href="#rim" fill="#404040">
                        <set attributeName="fill" to="#808080" begin="arrowLeft.mouseover" end="arrowLeft.mouseout"/>
                  </use>
                  <path fill="none" stroke="white" stroke-width="1.5" d="M0,-3.0v7 M-2.5,-0.5L0,-3.0L2.5,-0.5"/>
                </g>
        </g>
        <svg viewBox="0 0 15 15" width="100%" height="30px" preserveAspectRatio="xMaxYMin meet">
         <g id="arrow_out" transform="scale(0.3 0.3)">
          <a xlink:href="class_ed_1_1_c_meta_piece_a3fef4af6f589d591e507df93c039793e_icgraph_org.svg" target="_base">
           <rect id="button" ry="5" rx="5" y="6" x="6" height="38" width="38"
                fill="#f2f5e9" fill-opacity="0.5" stroke="#606060" stroke-width="1.0"/>
           <path id="arrow"
             d="M 11.500037,31.436501 C 11.940474,20.09759 22.043105,11.32322 32.158766,21.979434 L 37.068811,17.246167 C 37.068811,17.246167 37.088388,32 37.088388,32 L 22.160133,31.978069 C 22.160133,31.978069 26.997745,27.140456 26.997745,27.140456 C 18.528582,18.264221 13.291696,25.230495 11.500037,31.436501 z"
             style="fill:#404040;"/>
          </a>
         </g>
        </svg>
</svg>
