<?xml version="1.0" encoding="UTF-8" standalone="no"?>
<!DOCTYPE svg PUBLIC "-//W3C//DTD SVG 1.1//EN"
 "http://www.w3.org/Graphics/SVG/1.1/DTD/svg11.dtd">
<!-- Generated by graphviz version 2.38.0 (20140413.2041)
 -->
<!-- Title: CRectFeeler::DebugLines Pages: 1 -->
<svg width="433pt" height="154pt"
 viewBox="0.00 0.00 433.00 153.50" xmlns="http://www.w3.org/2000/svg" xmlns:xlink="http://www.w3.org/1999/xlink">
<g id="graph0" class="graph" transform="scale(1 1) rotate(0) translate(4 149.5)">
<title>CRectFeeler::DebugLines</title>
<polygon fill="white" stroke="none" points="-4,4 -4,-149.5 429,-149.5 429,4 -4,4"/>
<!-- Node1 -->
<g id="node1" class="node"><title>Node1</title>
<g id="a_node1"><a xlink:title=" ">
<polygon fill="#bfbfbf" stroke="black" points="0,-57.5 0,-76.5 128,-76.5 128,-57.5 0,-57.5"/>
<text text-anchor="middle" x="64" y="-64.5" font-family="Helvetica,sans-Serif" font-size="10.00">CRectFeeler::DebugLines</text>
</a>
</g>
</g>
<!-- Node2 -->
<g id="node2" class="node"><title>Node2</title>
<g id="a_node2"><a xlink:href="../../de/d47/namespace_gfx.html#a1f9f2c8b6d5def6b6112dab8ed4f00b8" target="_top" xlink:title=" ">
<polygon fill="white" stroke="black" points="164,-57.5 164,-76.5 265,-76.5 265,-57.5 164,-57.5"/>
<text text-anchor="middle" x="214.5" y="-64.5" font-family="Helvetica,sans-Serif" font-size="10.00">Gfx::AddDebugLine</text>
</a>
</g>
</g>
<!-- Node1&#45;&gt;Node2 -->
<g id="edge1" class="edge"><title>Node1&#45;&gt;Node2</title>
<path fill="none" stroke="midnightblue" d="M128.408,-67C136.815,-67 145.411,-67 153.753,-67"/>
<polygon fill="midnightblue" stroke="midnightblue" points="153.773,-70.5001 163.773,-67 153.773,-63.5001 153.773,-70.5001"/>
</g>
<!-- Node3 -->
<g id="node3" class="node"><title>Node3</title>
<g id="a_node3"><a xlink:href="../../de/d47/namespace_gfx.html#a8f357fbd8752fc156448d9ef1aa4df0f" target="_top" xlink:title=" ">
<polygon fill="white" stroke="black" points="309.5,-115 309.5,-145 416.5,-145 416.5,-115 309.5,-115"/>
<text text-anchor="start" x="317.5" y="-133" font-family="Helvetica,sans-Serif" font-size="10.00">Gfx::DebuggeryLines</text>
<text text-anchor="middle" x="363" y="-122" font-family="Helvetica,sans-Serif" font-size="10.00">_CleanUp</text>
</a>
</g>
</g>
<!-- Node2&#45;&gt;Node3 -->
<g id="edge2" class="edge"><title>Node2&#45;&gt;Node3</title>
<path fill="none" stroke="midnightblue" d="M236.507,-76.542C253.769,-84.3332 278.891,-95.5586 301,-105 305.682,-106.999 310.579,-109.059 315.475,-111.097"/>
<polygon fill="midnightblue" stroke="midnightblue" points="314.252,-114.379 324.831,-114.969 316.929,-107.911 314.252,-114.379"/>
</g>
<!-- Node4 -->
<g id="node4" class="node"><title>Node4</title>
<g id="a_node4"><a xlink:href="../../d0/d31/namespace_config.html#a709cc81780d49900157e3476b63aa25d" target="_top" xlink:title=" ">
<polygon fill="white" stroke="black" points="301,-76.5 301,-95.5 425,-95.5 425,-76.5 301,-76.5"/>
<text text-anchor="middle" x="363" y="-83.5" font-family="Helvetica,sans-Serif" font-size="10.00">Config::GotExtraMemory</text>
</a>
</g>
</g>
<!-- Node2&#45;&gt;Node4 -->
<g id="edge3" class="edge"><title>Node2&#45;&gt;Node4</title>
<path fill="none" stroke="midnightblue" d="M265.098,-73.4325C273.332,-74.5004 282.012,-75.6261 290.656,-76.7473"/>
<polygon fill="midnightblue" stroke="midnightblue" points="290.392,-80.2422 300.759,-78.0575 291.293,-73.3004 290.392,-80.2422"/>
</g>
<!-- Node5 -->
<g id="node5" class="node"><title>Node5</title>
<g id="a_node5"><a xlink:href="../../db/dc4/namespace_mem.html#a10246603d03405159c82320b96e3efbf" target="_top" xlink:title=" ">
<polygon fill="white" stroke="black" points="326.5,-38.5 326.5,-57.5 399.5,-57.5 399.5,-38.5 326.5,-38.5"/>
<text text-anchor="middle" x="363" y="-45.5" font-family="Helvetica,sans-Serif" font-size="10.00">Mem::Malloc</text>
</a>
</g>
</g>
<!-- Node2&#45;&gt;Node5 -->
<g id="edge4" class="edge"><title>Node2&#45;&gt;Node5</title>
<path fill="none" stroke="midnightblue" d="M265.098,-60.5675C281.577,-58.4303 299.844,-56.0611 316.037,-53.9611"/>
<polygon fill="midnightblue" stroke="midnightblue" points="316.871,-57.3823 326.338,-52.6251 315.971,-50.4405 316.871,-57.3823"/>
</g>
<!-- Node6 -->
<g id="node6" class="node"><title>Node6</title>
<g id="a_node6"><a xlink:href="../../d2/d0a/class_mem_1_1_manager.html#a3aefd91781b7f41d35e6df6a32d379d0" target="_top" xlink:title=" ">
<polygon fill="white" stroke="black" points="301.5,-0.5 301.5,-19.5 424.5,-19.5 424.5,-0.5 301.5,-0.5"/>
<text text-anchor="middle" x="363" y="-7.5" font-family="Helvetica,sans-Serif" font-size="10.00">Mem::Manager::sHandle</text>
</a>
</g>
</g>
<!-- Node2&#45;&gt;Node6 -->
<g id="edge5" class="edge"><title>Node2&#45;&gt;Node6</title>
<path fill="none" stroke="midnightblue" d="M235.267,-57.4278C252.423,-49.3105 278.045,-37.6426 301,-29 306.859,-26.7942 313.099,-24.6376 319.268,-22.6156"/>
<polygon fill="midnightblue" stroke="midnightblue" points="320.375,-25.9361 328.837,-19.5613 318.247,-19.2675 320.375,-25.9361"/>
</g>
</g>
</svg>
