<?xml version="1.0" encoding="UTF-8" standalone="no"?>
<!DOCTYPE svg PUBLIC "-//W3C//DTD SVG 1.1//EN"
 "http://www.w3.org/Graphics/SVG/1.1/DTD/svg11.dtd">
<!-- Generated by graphviz version 2.38.0 (20140413.2041)
 -->
<!-- Title: NxNgc::SFont Pages: 1 -->
<svg width="134pt" height="95pt"
 viewBox="0.00 0.00 133.50 95.00" xmlns="http://www.w3.org/2000/svg" xmlns:xlink="http://www.w3.org/1999/xlink">
<g id="graph0" class="graph" transform="scale(1 1) rotate(0) translate(4 91)">
<title>NxNgc::SFont</title>
<polygon fill="white" stroke="none" points="-4,4 -4,-91 129.5,-91 129.5,4 -4,4"/>
<!-- Node1 -->
<g id="node1" class="node"><title>Node1</title>
<g id="a_node1"><a xlink:title=" ">
<polygon fill="#bfbfbf" stroke="black" points="0.5,-0.5 0.5,-19.5 78.5,-19.5 78.5,-0.5 0.5,-0.5"/>
<text text-anchor="middle" x="39.5" y="-7.5" font-family="Helvetica,sans-Serif" font-size="10.00">NxNgc::SFont</text>
</a>
</g>
</g>
<!-- Node1&#45;&gt;Node1 -->
<g id="edge2" class="edge"><title>Node1&#45;&gt;Node1</title>
<path fill="none" stroke="#9a32cd" stroke-dasharray="5,2" d="M88.7752,-14.8464C93.5046,-13.8616 96.5,-12.2461 96.5,-10 96.5,-6.40625 88.8317,-4.42688 78.6622,-4.06189"/>
<polygon fill="#9a32cd" stroke="#9a32cd" points="88.2288,-11.385 78.6622,-15.9381 88.9801,-18.3446 88.2288,-11.385"/>
<text text-anchor="middle" x="111" y="-7.5" font-family="Helvetica,sans-Serif" font-size="10.00"> pNext</text>
</g>
<!-- Node2 -->
<g id="node2" class="node"><title>Node2</title>
<g id="a_node2"><a xlink:href="../../d8/dcf/struct_nx_ngc_1_1_s_char.html" target="_top" xlink:title=" ">
<polygon fill="white" stroke="black" points="0,-67.5 0,-86.5 79,-86.5 79,-67.5 0,-67.5"/>
<text text-anchor="middle" x="39.5" y="-74.5" font-family="Helvetica,sans-Serif" font-size="10.00">NxNgc::SChar</text>
</a>
</g>
</g>
<!-- Node2&#45;&gt;Node1 -->
<g id="edge1" class="edge"><title>Node2&#45;&gt;Node1</title>
<path fill="none" stroke="#9a32cd" stroke-dasharray="5,2" d="M39.5,-57.037C39.5,-44.6703 39.5,-29.1198 39.5,-19.6273"/>
<polygon fill="#9a32cd" stroke="#9a32cd" points="36.0001,-57.2338 39.5,-67.2338 43.0001,-57.2338 36.0001,-57.2338"/>
<text text-anchor="middle" x="56.5" y="-41" font-family="Helvetica,sans-Serif" font-size="10.00"> pChars</text>
</g>
</g>
</svg>
