<?xml version="1.0" encoding="UTF-8" standalone="no"?>
<!DOCTYPE svg PUBLIC "-//W3C//DTD SVG 1.1//EN"
 "http://www.w3.org/Graphics/SVG/1.1/DTD/svg11.dtd">
<!-- Generated by graphviz version 2.38.0 (20140413.2041)
 -->
<!-- Title: File::PreMgr::pre_ftell Pages: 1 -->
<svg width="457pt" height="39pt"
 viewBox="0.00 0.00 457.00 39.00" xmlns="http://www.w3.org/2000/svg" xmlns:xlink="http://www.w3.org/1999/xlink">
<g id="graph0" class="graph" transform="scale(1 1) rotate(0) translate(4 35)">
<title>File::PreMgr::pre_ftell</title>
<polygon fill="white" stroke="none" points="-4,4 -4,-35 453,-35 453,4 -4,4"/>
<!-- Node1 -->
<g id="node1" class="node"><title>Node1</title>
<g id="a_node1"><a xlink:title=" ">
<polygon fill="#bfbfbf" stroke="black" points="0,-6 0,-25 110,-25 110,-6 0,-6"/>
<text text-anchor="middle" x="55" y="-13" font-family="Helvetica,sans-Serif" font-size="10.00">File::PreMgr::pre_ftell</text>
</a>
</g>
</g>
<!-- Node2 -->
<g id="node2" class="node"><title>Node2</title>
<g id="a_node2"><a xlink:href="../../df/d06/class_file_1_1_pre_mgr.html#a95595de508c7106d6cbedaf0ece641b6" target="_top" xlink:title=" ">
<polygon fill="white" stroke="black" points="146,-0.5 146,-30.5 279,-30.5 279,-0.5 146,-0.5"/>
<text text-anchor="start" x="154" y="-18.5" font-family="Helvetica,sans-Serif" font-size="10.00">File::PreMgr::getContained</text>
<text text-anchor="middle" x="212.5" y="-7.5" font-family="Helvetica,sans-Serif" font-size="10.00">FileByHandle</text>
</a>
</g>
</g>
<!-- Node1&#45;&gt;Node2 -->
<g id="edge1" class="edge"><title>Node1&#45;&gt;Node2</title>
<path fill="none" stroke="midnightblue" d="M110.386,-15.5C118.633,-15.5 127.266,-15.5 135.864,-15.5"/>
<polygon fill="midnightblue" stroke="midnightblue" points="135.917,-19.0001 145.917,-15.5 135.917,-12.0001 135.917,-19.0001"/>
</g>
<!-- Node3 -->
<g id="node3" class="node"><title>Node3</title>
<g id="a_node3"><a xlink:href="../../d9/d43/class_file_1_1_pre_file.html#a8f0fb9cef4cb0862b8c18c7c8f0cc5cd" target="_top" xlink:title=" ">
<polygon fill="white" stroke="black" points="315,-0.5 315,-30.5 449,-30.5 449,-0.5 315,-0.5"/>
<text text-anchor="start" x="323" y="-18.5" font-family="Helvetica,sans-Serif" font-size="10.00">File::PreFile::GetContained</text>
<text text-anchor="middle" x="382" y="-7.5" font-family="Helvetica,sans-Serif" font-size="10.00">FileByHandle</text>
</a>
</g>
</g>
<!-- Node2&#45;&gt;Node3 -->
<g id="edge2" class="edge"><title>Node2&#45;&gt;Node3</title>
<path fill="none" stroke="midnightblue" d="M279.22,-15.5C287.652,-15.5 296.34,-15.5 304.919,-15.5"/>
<polygon fill="midnightblue" stroke="midnightblue" points="304.92,-19.0001 314.92,-15.5 304.92,-12.0001 304.92,-19.0001"/>
</g>
</g>
</svg>
