<?xml version="1.0" encoding="UTF-8" standalone="no"?>
<!DOCTYPE svg PUBLIC "-//W3C//DTD SVG 1.1//EN"
 "http://www.w3.org/Graphics/SVG/1.1/DTD/svg11.dtd">
<!-- Generated by graphviz version 2.38.0 (20140413.2041)
 -->
<!-- Title: File::PreMgr::UnloadPre Pages: 1 -->
<!--zoomable 187 -->
<svg id="main" version="1.1" xmlns="http://www.w3.org/2000/svg" xmlns:xlink="http://www.w3.org/1999/xlink" xml:space="preserve" onload="init(evt)">
<style type="text/css"><![CDATA[
.edge:hover path { stroke: red; }
.edge:hover polygon { stroke: red; fill: red; }
]]></style>
<script type="text/javascript"><![CDATA[
var edges = document.getElementsByTagName('g');
if (edges && edges.length) {
  for (var i=0;i<edges.length;i++) {
    if (edges[i].id.substr(0,4)=='edge') {
      edges[i].setAttribute('class','edge');
    }
  }
}
]]></script>
        <defs>
                <circle id="rim" cx="0" cy="0" r="7"/>
                <circle id="rim2" cx="0" cy="0" r="3.5"/>
                <g id="zoomPlus">
                        <use xlink:href="#rim" fill="#404040">
                                <set attributeName="fill" to="#808080" begin="zoomplus.mouseover" end="zoomplus.mouseout"/>
                        </use>
                        <path d="M-4,0h8M0,-4v8" fill="none" stroke="white" stroke-width="1.5" pointer-events="none"/>
                </g>
                <g id="zoomMin">
                        <use xlink:href="#rim" fill="#404040">
                                <set attributeName="fill" to="#808080" begin="zoomminus.mouseover" end="zoomminus.mouseout"/>
                        </use>
                        <path d="M-4,0h8" fill="none" stroke="white" stroke-width="1.5" pointer-events="none"/>
                </g>
                <g id="dirArrow">
                        <path fill="none" stroke="white" stroke-width="1.5" d="M0,-3.0v7 M-2.5,-0.5L0,-3.0L2.5,-0.5"/>
                </g>
               <g id="resetDef">
                       <use xlink:href="#rim2" fill="#404040">
                               <set attributeName="fill" to="#808080" begin="reset.mouseover" end="reset.mouseout"/>
                       </use>
               </g>
        </defs>

<script type="text/javascript">
var viewWidth = 803;
var viewHeight = 187;
var sectionId = 'dynsection-6';
</script>
<script xlink:href="../../svgpan.js"/>
<svg id="graph" class="graph">
<g id="viewport">
<title>File::PreMgr::UnloadPre</title>
<polygon fill="white" stroke="none" points="-4,4 -4,-183 799,-183 799,4 -4,4"/>
<!-- Node1 -->
<g id="node1" class="node"><title>Node1</title>
<g id="a_node1"><a xlink:title=" ">
<polygon fill="#bfbfbf" stroke="black" points="674,-44.5 674,-63.5 795,-63.5 795,-44.5 674,-44.5"/>
<text text-anchor="middle" x="734.5" y="-51.5" font-family="Helvetica,sans-Serif" font-size="10.00">File::PreMgr::UnloadPre</text>
</a>
</g>
</g>
<!-- Node2 -->
<g id="node2" class="node"><title>Node2</title>
<g id="a_node2"><a xlink:href="../../d9/df7/class_nx_1_1_c_load_screen.html#ae9b68bbc0445ae8b08de25f41c2a325e" target="_top" xlink:title=" ">
<polygon fill="white" stroke="black" points="514.5,-88 514.5,-118 618.5,-118 618.5,-88 514.5,-88"/>
<text text-anchor="start" x="522.5" y="-106" font-family="Helvetica,sans-Serif" font-size="10.00">Nx::CLoadScreen::s</text>
<text text-anchor="middle" x="566.5" y="-95" font-family="Helvetica,sans-Serif" font-size="10.00">_plat_display</text>
</a>
</g>
</g>
<!-- Node1&#45;&gt;Node2 -->
<g id="edge1" class="edge"><title>Node1&#45;&gt;Node2</title>
<path fill="none" stroke="midnightblue" d="M691.309,-66.4541C669.135,-72.9992 641.789,-81.0713 618.442,-87.963"/>
<polygon fill="midnightblue" stroke="midnightblue" points="692.499,-69.7519 701.099,-63.564 690.518,-63.0383 692.499,-69.7519"/>
</g>
<!-- Node9 -->
<g id="node9" class="node"><title>Node9</title>
<g id="a_node9"><a xlink:href="../../db/d54/namespace_c_funcs.html#a87a680cbd2ee8af2e7618b374847e8f1" target="_top" xlink:title=" ">
<polygon fill="white" stroke="black" points="495,-39 495,-69 638,-69 638,-39 495,-39"/>
<text text-anchor="start" x="503" y="-57" font-family="Helvetica,sans-Serif" font-size="10.00">CFuncs::ScriptRefreshSkater</text>
<text text-anchor="middle" x="566.5" y="-46" font-family="Helvetica,sans-Serif" font-size="10.00">Model</text>
</a>
</g>
</g>
<!-- Node1&#45;&gt;Node9 -->
<g id="edge8" class="edge"><title>Node1&#45;&gt;Node9</title>
<path fill="none" stroke="midnightblue" d="M663.446,-54C655.054,-54 646.48,-54 638.079,-54"/>
<polygon fill="midnightblue" stroke="midnightblue" points="663.57,-57.5001 673.57,-54 663.57,-50.5001 663.57,-57.5001"/>
</g>
<!-- Node10 -->
<g id="node10" class="node"><title>Node10</title>
<g id="a_node10"><a xlink:href="../../de/d10/namespace_file.html#a65d2a26d13d432b2832c2d8fd74fc718" target="_top" xlink:title=" ">
<polygon fill="white" stroke="black" points="504,-0.5 504,-19.5 629,-19.5 629,-0.5 504,-0.5"/>
<text text-anchor="middle" x="566.5" y="-7.5" font-family="Helvetica,sans-Serif" font-size="10.00">File::ScriptUnloadPreFile</text>
</a>
</g>
</g>
<!-- Node1&#45;&gt;Node10 -->
<g id="edge9" class="edge"><title>Node1&#45;&gt;Node10</title>
<path fill="none" stroke="midnightblue" d="M687.644,-41.8453C661.081,-34.8045 628.123,-26.0688 603.449,-19.5287"/>
<polygon fill="midnightblue" stroke="midnightblue" points="686.917,-45.2736 697.48,-44.4527 688.711,-38.5073 686.917,-45.2736"/>
</g>
<!-- Node3 -->
<g id="node3" class="node"><title>Node3</title>
<g id="a_node3"><a xlink:href="../../d9/df7/class_nx_1_1_c_load_screen.html#ab239c5bc9a4641f20d8cc3cd3fc832bd" target="_top" xlink:title=" ">
<polygon fill="white" stroke="black" points="322,-93.5 322,-112.5 459,-112.5 459,-93.5 322,-93.5"/>
<text text-anchor="middle" x="390.5" y="-100.5" font-family="Helvetica,sans-Serif" font-size="10.00">Nx::CLoadScreen::sDisplay</text>
</a>
</g>
</g>
<!-- Node2&#45;&gt;Node3 -->
<g id="edge2" class="edge"><title>Node2&#45;&gt;Node3</title>
<path fill="none" stroke="midnightblue" d="M503.899,-103C489.418,-103 473.909,-103 459.178,-103"/>
<polygon fill="midnightblue" stroke="midnightblue" points="504.235,-106.5 514.235,-103 504.235,-99.5001 504.235,-106.5"/>
</g>
<!-- Node4 -->
<g id="node4" class="node"><title>Node4</title>
<g id="a_node4"><a xlink:href="../../d5/d02/class_obj_1_1_c_movie_manager.html#a178e04942724693bad5e9970fdb72f5d" target="_top" xlink:title=" ">
<polygon fill="white" stroke="black" points="179,-110 179,-140 286,-140 286,-110 179,-110"/>
<text text-anchor="start" x="187" y="-128" font-family="Helvetica,sans-Serif" font-size="10.00">Obj::CMovieManager</text>
<text text-anchor="middle" x="232.5" y="-117" font-family="Helvetica,sans-Serif" font-size="10.00">::AddMovieToQueue</text>
</a>
</g>
</g>
<!-- Node3&#45;&gt;Node4 -->
<g id="edge3" class="edge"><title>Node3&#45;&gt;Node4</title>
<path fill="none" stroke="midnightblue" d="M312.069,-113.92C303.263,-115.162 294.448,-116.405 286.072,-117.586"/>
<polygon fill="midnightblue" stroke="midnightblue" points="312.57,-117.384 321.983,-112.522 311.593,-110.452 312.57,-117.384"/>
</g>
<!-- Node8 -->
<g id="node8" class="node"><title>Node8</title>
<g id="a_node8"><a xlink:href="../../d5/d12/_main_8cpp.html#a0e18e794c708408ef1dec237965cb73d" target="_top" xlink:title=" ">
<polygon fill="white" stroke="black" points="213.5,-71.5 213.5,-90.5 251.5,-90.5 251.5,-71.5 213.5,-71.5"/>
<text text-anchor="middle" x="232.5" y="-78.5" font-family="Helvetica,sans-Serif" font-size="10.00">main</text>
</a>
</g>
</g>
<!-- Node3&#45;&gt;Node8 -->
<g id="edge7" class="edge"><title>Node3&#45;&gt;Node8</title>
<path fill="none" stroke="midnightblue" d="M311.995,-92.0699C289.434,-88.8881 266.817,-85.6985 251.696,-83.5661"/>
<polygon fill="midnightblue" stroke="midnightblue" points="311.593,-95.5476 321.983,-93.4784 312.57,-88.6162 311.593,-95.5476"/>
</g>
<!-- Node5 -->
<g id="node5" class="node"><title>Node5</title>
<g id="a_node5"><a xlink:href="../../db/d54/namespace_c_funcs.html#a5f901adbe37559921d24d62261f50b79" target="_top" xlink:title=" ">
<polygon fill="white" stroke="black" points="0,-159.5 0,-178.5 143,-178.5 143,-159.5 0,-159.5"/>
<text text-anchor="middle" x="71.5" y="-166.5" font-family="Helvetica,sans-Serif" font-size="10.00">CFuncs::ScriptPlayCutscene</text>
</a>
</g>
</g>
<!-- Node4&#45;&gt;Node5 -->
<g id="edge4" class="edge"><title>Node4&#45;&gt;Node5</title>
<path fill="none" stroke="midnightblue" d="M168.911,-142.782C160.213,-145.223 151.387,-147.685 143,-150 131.758,-153.103 119.491,-156.429 108.388,-159.418"/>
<polygon fill="midnightblue" stroke="midnightblue" points="169.969,-146.12 178.648,-140.043 168.074,-139.382 169.969,-146.12"/>
</g>
<!-- Node6 -->
<g id="node6" class="node"><title>Node6</title>
<g id="a_node6"><a xlink:href="../../db/d54/namespace_c_funcs.html#aefe15140c78d4d703ba10395a25ae04b" target="_top" xlink:title=" ">
<polygon fill="white" stroke="black" points="6,-110 6,-140 137,-140 137,-110 6,-110"/>
<text text-anchor="start" x="14" y="-128" font-family="Helvetica,sans-Serif" font-size="10.00">CFuncs::ScriptPlayMoving</text>
<text text-anchor="middle" x="71.5" y="-117" font-family="Helvetica,sans-Serif" font-size="10.00">ObjectAnim</text>
</a>
</g>
</g>
<!-- Node4&#45;&gt;Node6 -->
<g id="edge5" class="edge"><title>Node4&#45;&gt;Node6</title>
<path fill="none" stroke="midnightblue" d="M168.767,-125C158.376,-125 147.584,-125 137.146,-125"/>
<polygon fill="midnightblue" stroke="midnightblue" points="168.997,-128.5 178.997,-125 168.997,-121.5 168.997,-128.5"/>
</g>
<!-- Node7 -->
<g id="node7" class="node"><title>Node7</title>
<g id="a_node7"><a xlink:href="../../db/d54/namespace_c_funcs.html#aee67faec954bbc0d41fe51588192bbc8" target="_top" xlink:title=" ">
<polygon fill="white" stroke="black" points="6.5,-61 6.5,-91 136.5,-91 136.5,-61 6.5,-61"/>
<text text-anchor="start" x="14.5" y="-79" font-family="Helvetica,sans-Serif" font-size="10.00">CFuncs::ScriptPlaySkater</text>
<text text-anchor="middle" x="71.5" y="-68" font-family="Helvetica,sans-Serif" font-size="10.00">CamAnim</text>
</a>
</g>
</g>
<!-- Node4&#45;&gt;Node7 -->
<g id="edge6" class="edge"><title>Node4&#45;&gt;Node7</title>
<path fill="none" stroke="midnightblue" d="M172.725,-106.887C155.822,-101.678 137.574,-96.0543 121.341,-91.0516"/>
<polygon fill="midnightblue" stroke="midnightblue" points="171.91,-110.298 182.497,-109.899 173.972,-103.609 171.91,-110.298"/>
</g>
</g>
</svg>
        <g id="navigator" transform="translate(0 0)" fill="#404254">
                <rect fill="#f2f5e9" fill-opacity="0.5" stroke="#606060" stroke-width=".5" x="0" y="0" width="60" height="60"/>
                <use id="zoomplus" xlink:href="#zoomPlus" x="17" y="9" onmousedown="handleZoom(evt,'in')"/>
                <use id="zoomminus" xlink:href="#zoomMin" x="42" y="9" onmousedown="handleZoom(evt,'out')"/>
                <use id="reset" xlink:href="#resetDef" x="30" y="36" onmousedown="handleReset()"/>
                <g id="arrowUp" xlink:href="#dirArrow" transform="translate(30 24)" onmousedown="handlePan(0,-1)">
                  <use xlink:href="#rim" fill="#404040">
                        <set attributeName="fill" to="#808080" begin="arrowUp.mouseover" end="arrowUp.mouseout"/>
                  </use>
                  <path fill="none" stroke="white" stroke-width="1.5" d="M0,-3.0v7 M-2.5,-0.5L0,-3.0L2.5,-0.5"/>
                </g>
                <g id="arrowRight" xlink:href="#dirArrow" transform="rotate(90) translate(36 -43)" onmousedown="handlePan(1,0)">
                  <use xlink:href="#rim" fill="#404040">
                        <set attributeName="fill" to="#808080" begin="arrowRight.mouseover" end="arrowRight.mouseout"/>
                  </use>
                  <path fill="none" stroke="white" stroke-width="1.5" d="M0,-3.0v7 M-2.5,-0.5L0,-3.0L2.5,-0.5"/>
                </g>
                <g id="arrowDown" xlink:href="#dirArrow" transform="rotate(180) translate(-30 -48)" onmousedown="handlePan(0,1)">
                  <use xlink:href="#rim" fill="#404040">
                        <set attributeName="fill" to="#808080" begin="arrowDown.mouseover" end="arrowDown.mouseout"/>
                  </use>
                  <path fill="none" stroke="white" stroke-width="1.5" d="M0,-3.0v7 M-2.5,-0.5L0,-3.0L2.5,-0.5"/>
                </g>
                <g id="arrowLeft" xlink:href="#dirArrow" transform="rotate(270) translate(-36 17)" onmousedown="handlePan(-1,0)">
                  <use xlink:href="#rim" fill="#404040">
                        <set attributeName="fill" to="#808080" begin="arrowLeft.mouseover" end="arrowLeft.mouseout"/>
                  </use>
                  <path fill="none" stroke="white" stroke-width="1.5" d="M0,-3.0v7 M-2.5,-0.5L0,-3.0L2.5,-0.5"/>
                </g>
        </g>
        <svg viewBox="0 0 15 15" width="100%" height="30px" preserveAspectRatio="xMaxYMin meet">
         <g id="arrow_out" transform="scale(0.3 0.3)">
          <a xlink:href="class_file_1_1_pre_mgr_a3172b724b1b80f1cb281c1a51502b14e_icgraph_org.svg" target="_base">
           <rect id="button" ry="5" rx="5" y="6" x="6" height="38" width="38"
                fill="#f2f5e9" fill-opacity="0.5" stroke="#606060" stroke-width="1.0"/>
           <path id="arrow"
             d="M 11.500037,31.436501 C 11.940474,20.09759 22.043105,11.32322 32.158766,21.979434 L 37.068811,17.246167 C 37.068811,17.246167 37.088388,32 37.088388,32 L 22.160133,31.978069 C 22.160133,31.978069 26.997745,27.140456 26.997745,27.140456 C 18.528582,18.264221 13.291696,25.230495 11.500037,31.436501 z"
             style="fill:#404040;"/>
          </a>
         </g>
        </svg>
</svg>
