<?xml version="1.0" encoding="UTF-8" standalone="no"?>
<!DOCTYPE svg PUBLIC "-//W3C//DTD SVG 1.1//EN"
 "http://www.w3.org/Graphics/SVG/1.1/DTD/svg11.dtd">
<!-- Generated by graphviz version 2.38.0 (20140413.2041)
 -->
<!-- Title: Env::CTerrainManager::s_get_terrain_actions_struct Pages: 1 -->
<svg width="1165pt" height="321pt"
 viewBox="0.00 0.00 1165.00 320.50" xmlns="http://www.w3.org/2000/svg" xmlns:xlink="http://www.w3.org/1999/xlink">
<g id="graph0" class="graph" transform="scale(1 1) rotate(0) translate(4 316.5)">
<title>Env::CTerrainManager::s_get_terrain_actions_struct</title>
<polygon fill="white" stroke="none" points="-4,4 -4,-316.5 1161,-316.5 1161,4 -4,4"/>
<!-- Node1 -->
<g id="node1" class="node"><title>Node1</title>
<g id="a_node1"><a xlink:title=" ">
<polygon fill="#bfbfbf" stroke="black" points="0,-96 0,-137 116,-137 116,-96 0,-96"/>
<text text-anchor="start" x="8" y="-125" font-family="Helvetica,sans-Serif" font-size="10.00">Env::CTerrainManager</text>
<text text-anchor="start" x="8" y="-114" font-family="Helvetica,sans-Serif" font-size="10.00">::s_get_terrain_actions</text>
<text text-anchor="middle" x="58" y="-103" font-family="Helvetica,sans-Serif" font-size="10.00">_struct</text>
</a>
</g>
</g>
<!-- Node2 -->
<g id="node2" class="node"><title>Node2</title>
<g id="a_node2"><a xlink:href="../../d1/d54/namespace_script.html#aacb275494688d5b51c565c932f27f76c" target="_top" xlink:title=" ">
<polygon fill="white" stroke="black" points="363.5,-255 363.5,-274 450.5,-274 450.5,-255 363.5,-255"/>
<text text-anchor="middle" x="407" y="-262" font-family="Helvetica,sans-Serif" font-size="10.00">Script::GetArray</text>
</a>
</g>
</g>
<!-- Node1&#45;&gt;Node2 -->
<g id="edge1" class="edge"><title>Node1&#45;&gt;Node2</title>
<path fill="none" stroke="midnightblue" d="M69.5724,-137.421C84.185,-163.941 113.208,-208.812 152,-230.5 214.75,-265.582 299.48,-269.922 353.443,-268.353"/>
<polygon fill="midnightblue" stroke="midnightblue" points="353.615,-271.849 363.479,-267.982 353.357,-264.853 353.615,-271.849"/>
</g>
<!-- Node10 -->
<g id="node10" class="node"><title>Node10</title>
<g id="a_node10"><a xlink:href="../../d2/df7/class_script_1_1_c_struct.html#aa39e6fe5fdf1d6c48136ae26a7ad511e" target="_top" xlink:title=" ">
<polygon fill="white" stroke="black" points="152,-184 152,-203 301,-203 301,-184 152,-184"/>
<text text-anchor="middle" x="226.5" y="-191" font-family="Helvetica,sans-Serif" font-size="10.00">Script::CStruct::GetChecksum</text>
</a>
</g>
</g>
<!-- Node1&#45;&gt;Node10 -->
<g id="edge10" class="edge"><title>Node1&#45;&gt;Node10</title>
<path fill="none" stroke="midnightblue" d="M103.619,-137.135C132.66,-150.565 169.76,-167.722 195.358,-179.561"/>
<polygon fill="midnightblue" stroke="midnightblue" points="194.02,-182.798 204.565,-183.819 196.958,-176.444 194.02,-182.798"/>
</g>
<!-- Node12 -->
<g id="node12" class="node"><title>Node12</title>
<g id="a_node12"><a xlink:href="../../d0/d0b/class_script_1_1_c_array.html#a71c761bdce14193b10bf3c88372ba5a0" target="_top" xlink:title=" ">
<polygon fill="white" stroke="black" points="167,-50 167,-69 286,-69 286,-50 167,-50"/>
<text text-anchor="middle" x="226.5" y="-57" font-family="Helvetica,sans-Serif" font-size="10.00">Script::CArray::GetSize</text>
</a>
</g>
</g>
<!-- Node1&#45;&gt;Node12 -->
<g id="edge15" class="edge"><title>Node1&#45;&gt;Node12</title>
<path fill="none" stroke="midnightblue" d="M116.468,-95.8516C128.205,-91.7069 140.486,-87.422 152,-83.5 162.993,-79.7555 174.951,-75.8008 185.965,-72.2057"/>
<polygon fill="midnightblue" stroke="midnightblue" points="187.332,-75.4416 195.76,-69.0215 185.168,-68.7845 187.332,-75.4416"/>
</g>
<!-- Node13 -->
<g id="node13" class="node"><title>Node13</title>
<g id="a_node13"><a xlink:href="../../d0/d0b/class_script_1_1_c_array.html#af335b83cb06ac2934f891089c295bdf9" target="_top" xlink:title=" ">
<polygon fill="white" stroke="black" points="337,-47 337,-66 477,-66 477,-47 337,-47"/>
<text text-anchor="middle" x="407" y="-54" font-family="Helvetica,sans-Serif" font-size="10.00">Script::CArray::GetStructure</text>
</a>
</g>
</g>
<!-- Node1&#45;&gt;Node13 -->
<g id="edge16" class="edge"><title>Node1&#45;&gt;Node13</title>
<path fill="none" stroke="midnightblue" d="M116.347,-108.333C165.47,-101.137 238.042,-90.031 301,-78.5 317.916,-75.4018 336.289,-71.6764 352.868,-68.1794"/>
<polygon fill="midnightblue" stroke="midnightblue" points="353.877,-71.5433 362.93,-66.0392 352.42,-64.6965 353.877,-71.5433"/>
</g>
<!-- Node14 -->
<g id="node14" class="node"><title>Node14</title>
<g id="a_node14"><a xlink:href="../../d2/df7/class_script_1_1_c_struct.html#a7d6929b5a907965b7a7ef86dc9b90123" target="_top" xlink:title=" ">
<polygon fill="white" stroke="black" points="155,-126 155,-145 298,-145 298,-126 155,-126"/>
<text text-anchor="middle" x="226.5" y="-133" font-family="Helvetica,sans-Serif" font-size="10.00">Script::CStruct::GetStructure</text>
</a>
</g>
</g>
<!-- Node1&#45;&gt;Node14 -->
<g id="edge18" class="edge"><title>Node1&#45;&gt;Node14</title>
<path fill="none" stroke="midnightblue" d="M116.3,-123.039C125.516,-124.09 135.203,-125.196 144.843,-126.296"/>
<polygon fill="midnightblue" stroke="midnightblue" points="144.519,-129.782 154.851,-127.438 145.313,-122.827 144.519,-129.782"/>
</g>
<!-- Node16 -->
<g id="node16" class="node"><title>Node16</title>
<g id="a_node16"><a xlink:href="../../d7/df4/class_env_1_1_c_terrain_manager.html#a1a257c59538b353476151408d127750d" target="_top" xlink:title=" ">
<polygon fill="white" stroke="black" points="155.5,-0.5 155.5,-30.5 297.5,-30.5 297.5,-0.5 155.5,-0.5"/>
<text text-anchor="start" x="163.5" y="-18.5" font-family="Helvetica,sans-Serif" font-size="10.00">Env::CTerrainManager</text>
<text text-anchor="middle" x="226.5" y="-7.5" font-family="Helvetica,sans-Serif" font-size="10.00">::sGetTerrainFromChecksum</text>
</a>
</g>
</g>
<!-- Node1&#45;&gt;Node16 -->
<g id="edge26" class="edge"><title>Node1&#45;&gt;Node16</title>
<path fill="none" stroke="midnightblue" d="M79.9208,-95.6668C97.7847,-78.8451 124.832,-55.572 152,-40.5 155.884,-38.3453 159.986,-36.3311 164.185,-34.4569"/>
<polygon fill="midnightblue" stroke="midnightblue" points="165.605,-37.657 173.487,-30.5774 162.911,-31.1963 165.605,-37.657"/>
</g>
<!-- Node3 -->
<g id="node3" class="node"><title>Node3</title>
<g id="a_node3"><a xlink:href="../../d1/d54/namespace_script.html#ae80ed69ea4edcbcbbbd4985a6efdcd6e" target="_top" xlink:title=" ">
<polygon fill="white" stroke="black" points="659,-217 659,-236 798,-236 798,-217 659,-217"/>
<text text-anchor="middle" x="728.5" y="-224" font-family="Helvetica,sans-Serif" font-size="10.00">Script::FindChecksumName</text>
</a>
</g>
</g>
<!-- Node2&#45;&gt;Node3 -->
<g id="edge2" class="edge"><title>Node2&#45;&gt;Node3</title>
<path fill="none" stroke="midnightblue" d="M450.865,-259.996C494.282,-255.368 563.355,-247.824 623,-240.5 631.357,-239.474 640.085,-238.364 648.781,-237.235"/>
<polygon fill="midnightblue" stroke="midnightblue" points="649.489,-240.672 658.95,-235.903 648.58,-233.731 649.489,-240.672"/>
</g>
<!-- Node7 -->
<g id="node7" class="node"><title>Node7</title>
<g id="a_node7"><a xlink:href="../../d1/d54/namespace_script.html#af32f99ba26ca0f255240413a4e23a754" target="_top" xlink:title=" ">
<polygon fill="white" stroke="black" points="513,-123 513,-142 623,-142 623,-123 513,-123"/>
<text text-anchor="middle" x="568" y="-130" font-family="Helvetica,sans-Serif" font-size="10.00">Script::GetTypeName</text>
</a>
</g>
</g>
<!-- Node2&#45;&gt;Node7 -->
<g id="edge6" class="edge"><title>Node2&#45;&gt;Node7</title>
<path fill="none" stroke="midnightblue" d="M419.733,-254.833C433.473,-243.507 456.911,-224.168 477,-207.5 501.213,-187.41 529.025,-164.215 547.246,-149.003"/>
<polygon fill="midnightblue" stroke="midnightblue" points="549.931,-151.321 555.363,-142.225 545.444,-145.948 549.931,-151.321"/>
</g>
<!-- Node8 -->
<g id="node8" class="node"><title>Node8</title>
<g id="a_node8"><a xlink:href="../../d1/d54/namespace_script.html#a43181580ea5d38e4bf1aa19ccd5e9e85" target="_top" xlink:title=" ">
<polygon fill="white" stroke="black" points="527,-293 527,-312 609,-312 609,-293 527,-293"/>
<text text-anchor="middle" x="568" y="-300" font-family="Helvetica,sans-Serif" font-size="10.00">Script::Resolve</text>
</a>
</g>
</g>
<!-- Node2&#45;&gt;Node8 -->
<g id="edge7" class="edge"><title>Node2&#45;&gt;Node8</title>
<path fill="none" stroke="midnightblue" d="M448.122,-274.089C469.104,-279.104 494.982,-285.288 517.23,-290.605"/>
<polygon fill="midnightblue" stroke="midnightblue" points="516.626,-294.06 527.166,-292.98 518.254,-287.251 516.626,-294.06"/>
</g>
<!-- Node4 -->
<g id="node4" class="node"><title>Node4</title>
<g id="a_node4"><a xlink:href="../../d1/d54/namespace_script.html#a5cc52c4ff5ea5bb27681d819212dfdca" target="_top" xlink:title=" ">
<polygon fill="white" stroke="black" points="834,-236 834,-255 997,-255 997,-236 834,-236"/>
<text text-anchor="middle" x="915.5" y="-243" font-family="Helvetica,sans-Serif" font-size="10.00">Script::FindChecksumNameNULL</text>
</a>
</g>
</g>
<!-- Node3&#45;&gt;Node4 -->
<g id="edge3" class="edge"><title>Node3&#45;&gt;Node4</title>
<path fill="none" stroke="midnightblue" d="M798.124,-233.548C806.476,-234.406 815.107,-235.292 823.717,-236.176"/>
<polygon fill="midnightblue" stroke="midnightblue" points="823.493,-239.672 833.798,-237.212 824.208,-232.708 823.493,-239.672"/>
</g>
<!-- Node6 -->
<g id="node6" class="node"><title>Node6</title>
<g id="a_node6"><a xlink:href="../../da/d37/namespace_dbg.html#ab406a8cc16de5046c7d9fd09c9de5e22" target="_top" xlink:title=" ">
<polygon fill="white" stroke="black" points="882.5,-198 882.5,-217 948.5,-217 948.5,-198 882.5,-198"/>
<text text-anchor="middle" x="915.5" y="-205" font-family="Helvetica,sans-Serif" font-size="10.00">Dbg::sprintf</text>
</a>
</g>
</g>
<!-- Node3&#45;&gt;Node6 -->
<g id="edge5" class="edge"><title>Node3&#45;&gt;Node6</title>
<path fill="none" stroke="midnightblue" d="M798.124,-219.452C822.98,-216.899 850.305,-214.093 872.228,-211.841"/>
<polygon fill="midnightblue" stroke="midnightblue" points="872.616,-215.32 882.206,-210.817 871.901,-208.357 872.616,-215.32"/>
</g>
<!-- Node5 -->
<g id="node5" class="node"><title>Node5</title>
<g id="a_node5"><a xlink:href="../../d0/d31/namespace_config.html#a709cc81780d49900157e3476b63aa25d" target="_top" xlink:title=" ">
<polygon fill="white" stroke="black" points="1033,-236 1033,-255 1157,-255 1157,-236 1033,-236"/>
<text text-anchor="middle" x="1095" y="-243" font-family="Helvetica,sans-Serif" font-size="10.00">Config::GotExtraMemory</text>
</a>
</g>
</g>
<!-- Node4&#45;&gt;Node5 -->
<g id="edge4" class="edge"><title>Node4&#45;&gt;Node5</title>
<path fill="none" stroke="midnightblue" d="M997.2,-245.5C1005.73,-245.5 1014.36,-245.5 1022.77,-245.5"/>
<polygon fill="midnightblue" stroke="midnightblue" points="1022.9,-249 1032.9,-245.5 1022.9,-242 1022.9,-249"/>
</g>
<!-- Node8&#45;&gt;Node3 -->
<g id="edge8" class="edge"><title>Node8&#45;&gt;Node3</title>
<path fill="none" stroke="midnightblue" d="M591.168,-292.907C600.969,-288.599 612.604,-283.394 623,-278.5 649.234,-266.15 678.788,-251.361 699.755,-240.717"/>
<polygon fill="midnightblue" stroke="midnightblue" points="701.418,-243.798 708.742,-236.142 698.242,-237.56 701.418,-243.798"/>
</g>
<!-- Node9 -->
<g id="node9" class="node"><title>Node9</title>
<g id="a_node9"><a xlink:href="../../d1/d54/namespace_script.html#af293a36c230b10de7d8151c2990b233b" target="_top" xlink:title=" ">
<polygon fill="white" stroke="black" points="671.5,-293 671.5,-312 785.5,-312 785.5,-293 671.5,-293"/>
<text text-anchor="middle" x="728.5" y="-300" font-family="Helvetica,sans-Serif" font-size="10.00">Script::LookUpSymbol</text>
</a>
</g>
</g>
<!-- Node8&#45;&gt;Node9 -->
<g id="edge9" class="edge"><title>Node8&#45;&gt;Node9</title>
<path fill="none" stroke="midnightblue" d="M609.406,-302.5C625.124,-302.5 643.549,-302.5 661.11,-302.5"/>
<polygon fill="midnightblue" stroke="midnightblue" points="661.322,-306 671.322,-302.5 661.322,-299 661.322,-306"/>
</g>
<!-- Node10&#45;&gt;Node3 -->
<g id="edge11" class="edge"><title>Node10&#45;&gt;Node3</title>
<path fill="none" stroke="midnightblue" d="M295.46,-203.031C309.19,-204.719 323.541,-206.314 337,-207.5 444.739,-216.994 569.649,-222.03 648.612,-224.48"/>
<polygon fill="midnightblue" stroke="midnightblue" points="648.863,-227.989 658.964,-224.794 649.075,-220.992 648.863,-227.989"/>
</g>
<!-- Node10&#45;&gt;Node8 -->
<g id="edge14" class="edge"><title>Node10&#45;&gt;Node8</title>
<path fill="none" stroke="midnightblue" d="M235.36,-203.028C251.861,-222.249 292.303,-265.378 337,-283.5 395.288,-307.133 468.577,-308.926 516.551,-306.778"/>
<polygon fill="midnightblue" stroke="midnightblue" points="516.883,-310.266 526.686,-306.249 516.517,-303.275 516.883,-310.266"/>
</g>
<!-- Node10&#45;&gt;Node10 -->
<g id="edge12" class="edge"><title>Node10&#45;&gt;Node10</title>
<path fill="none" stroke="midnightblue" d="M200.606,-203.257C188.009,-212.065 196.641,-221.5 226.5,-221.5 246.562,-221.5 257.041,-217.241 257.937,-211.775"/>
<polygon fill="midnightblue" stroke="midnightblue" points="260.782,-209.729 252.394,-203.257 254.915,-213.548 260.782,-209.729"/>
</g>
<!-- Node11 -->
<g id="node11" class="node"><title>Node11</title>
<g id="a_node11"><a xlink:href="../../d1/d54/namespace_script.html#a0d003ee93577e31adb6597bce0002009" target="_top" xlink:title=" ">
<polygon fill="white" stroke="black" points="353.5,-179 353.5,-198 460.5,-198 460.5,-179 353.5,-179"/>
<text text-anchor="middle" x="407" y="-186" font-family="Helvetica,sans-Serif" font-size="10.00">Script::PrintContents</text>
</a>
</g>
</g>
<!-- Node10&#45;&gt;Node11 -->
<g id="edge13" class="edge"><title>Node10&#45;&gt;Node11</title>
<path fill="none" stroke="midnightblue" d="M301.133,-191.437C315.061,-191.047 329.513,-190.642 343.074,-190.263"/>
<polygon fill="midnightblue" stroke="midnightblue" points="343.35,-193.756 353.248,-189.978 343.154,-186.759 343.35,-193.756"/>
</g>
<!-- Node13&#45;&gt;Node7 -->
<g id="edge17" class="edge"><title>Node13&#45;&gt;Node7</title>
<path fill="none" stroke="midnightblue" d="M428.137,-66.1255C455.855,-79.3739 505.938,-103.313 537.776,-118.531"/>
<polygon fill="midnightblue" stroke="midnightblue" points="536.494,-121.798 547.026,-122.953 539.513,-115.482 536.494,-121.798"/>
</g>
<!-- Node14&#45;&gt;Node3 -->
<g id="edge19" class="edge"><title>Node14&#45;&gt;Node3</title>
<path fill="none" stroke="midnightblue" d="M254.889,-125.87C321.348,-104.174 495.093,-57.5681 623,-113.5 667.264,-132.856 701.128,-181.233 717.204,-207.986"/>
<polygon fill="midnightblue" stroke="midnightblue" points="714.258,-209.882 722.308,-216.77 720.31,-206.365 714.258,-209.882"/>
</g>
<!-- Node14&#45;&gt;Node11 -->
<g id="edge20" class="edge"><title>Node14&#45;&gt;Node11</title>
<path fill="none" stroke="midnightblue" d="M257.631,-145.144C279.582,-152.099 310.064,-161.612 337,-169.5 344.63,-171.734 352.756,-174.039 360.654,-176.238"/>
<polygon fill="midnightblue" stroke="midnightblue" points="359.91,-179.664 370.481,-178.956 361.775,-172.917 359.91,-179.664"/>
</g>
<!-- Node15 -->
<g id="node15" class="node"><title>Node15</title>
<g id="a_node15"><a xlink:href="../../d2/df7/class_script_1_1_c_struct.html#a1e05f0a66cff4a700fb67fdc117d2d7f" target="_top" xlink:title=" ">
<polygon fill="white" stroke="black" points="341,-123 341,-142 473,-142 473,-123 341,-123"/>
<text text-anchor="middle" x="407" y="-130" font-family="Helvetica,sans-Serif" font-size="10.00">Script::CStruct::search_for</text>
</a>
</g>
</g>
<!-- Node14&#45;&gt;Node15 -->
<g id="edge21" class="edge"><title>Node14&#45;&gt;Node15</title>
<path fill="none" stroke="midnightblue" d="M298.048,-134.314C308.756,-134.134 319.84,-133.948 330.645,-133.766"/>
<polygon fill="midnightblue" stroke="midnightblue" points="330.959,-137.262 340.898,-133.594 330.841,-130.263 330.959,-137.262"/>
</g>
<!-- Node15&#45;&gt;Node3 -->
<g id="edge22" class="edge"><title>Node15&#45;&gt;Node3</title>
<path fill="none" stroke="midnightblue" d="M440.394,-142.031C498.521,-159.132 620.485,-195.015 685.152,-214.041"/>
<polygon fill="midnightblue" stroke="midnightblue" points="684.439,-217.479 695.021,-216.944 686.415,-210.764 684.439,-217.479"/>
</g>
<!-- Node15&#45;&gt;Node7 -->
<g id="edge23" class="edge"><title>Node15&#45;&gt;Node7</title>
<path fill="none" stroke="midnightblue" d="M473.13,-132.5C482.932,-132.5 493.036,-132.5 502.818,-132.5"/>
<polygon fill="midnightblue" stroke="midnightblue" points="502.87,-136 512.87,-132.5 502.87,-129 502.87,-136"/>
</g>
<!-- Node15&#45;&gt;Node8 -->
<g id="edge24" class="edge"><title>Node15&#45;&gt;Node8</title>
<path fill="none" stroke="midnightblue" d="M432.483,-142.111C446.562,-148.451 463.981,-157.754 477,-169.5 514.61,-203.433 544.168,-256.192 558.159,-283.963"/>
<polygon fill="midnightblue" stroke="midnightblue" points="555.041,-285.554 562.595,-292.983 561.322,-282.465 555.041,-285.554"/>
</g>
<!-- Node15&#45;&gt;Node15 -->
<g id="edge25" class="edge"><title>Node15&#45;&gt;Node15</title>
<path fill="none" stroke="midnightblue" d="M382.339,-142.257C370.342,-151.065 378.563,-160.5 407,-160.5 426.106,-160.5 436.086,-156.241 436.94,-150.775"/>
<polygon fill="midnightblue" stroke="midnightblue" points="439.904,-148.913 431.661,-142.257 433.954,-152.601 439.904,-148.913"/>
</g>
<!-- Node17 -->
<g id="node17" class="node"><title>Node17</title>
<g id="a_node17"><a xlink:href="../../df/de2/_messages_8h.html#a701d7b9cdd94e5f87bc47f4e770492e6" target="_top" xlink:title=" ">
<polygon fill="white" stroke="black" points="367.5,-6 367.5,-25 446.5,-25 446.5,-6 367.5,-6"/>
<text text-anchor="middle" x="407" y="-13" font-family="Helvetica,sans-Serif" font-size="10.00">Dbg_Message</text>
</a>
</g>
</g>
<!-- Node16&#45;&gt;Node17 -->
<g id="edge27" class="edge"><title>Node16&#45;&gt;Node17</title>
<path fill="none" stroke="midnightblue" d="M297.536,-15.5C317.469,-15.5 338.744,-15.5 357.125,-15.5"/>
<polygon fill="midnightblue" stroke="midnightblue" points="357.295,-19.0001 367.295,-15.5 357.295,-12.0001 357.295,-19.0001"/>
</g>
</g>
</svg>
