<?xml version="1.0" encoding="UTF-8" standalone="no"?>
<!DOCTYPE svg PUBLIC "-//W3C//DTD SVG 1.1//EN"
 "http://www.w3.org/Graphics/SVG/1.1/DTD/svg11.dtd">
<!-- Generated by graphviz version 2.38.0 (20140413.2041)
 -->
<!-- Title: Nx::CTexDict::CopyTexture Pages: 1 -->
<svg width="349pt" height="78pt"
 viewBox="0.00 0.00 349.00 77.50" xmlns="http://www.w3.org/2000/svg" xmlns:xlink="http://www.w3.org/1999/xlink">
<g id="graph0" class="graph" transform="scale(1 1) rotate(0) translate(4 73.5)">
<title>Nx::CTexDict::CopyTexture</title>
<polygon fill="white" stroke="none" points="-4,4 -4,-73.5 345,-73.5 345,4 -4,4"/>
<!-- Node1 -->
<g id="node1" class="node"><title>Node1</title>
<g id="a_node1"><a xlink:title=" ">
<polygon fill="#bfbfbf" stroke="black" points="0,-28 0,-47 135,-47 135,-28 0,-28"/>
<text text-anchor="middle" x="67.5" y="-35" font-family="Helvetica,sans-Serif" font-size="10.00">Nx::CTexDict::CopyTexture</text>
</a>
</g>
</g>
<!-- Node2 -->
<g id="node2" class="node"><title>Node2</title>
<g id="a_node2"><a xlink:href="../../df/de2/_messages_8h.html#a771b760c9d0250da6766f107453b9c60" target="_top" xlink:title=" ">
<polygon fill="white" stroke="black" points="189,-50 189,-69 249,-69 249,-50 189,-50"/>
<text text-anchor="middle" x="219" y="-57" font-family="Helvetica,sans-Serif" font-size="10.00">Dbg_Error</text>
</a>
</g>
</g>
<!-- Node1&#45;&gt;Node2 -->
<g id="edge1" class="edge"><title>Node1&#45;&gt;Node2</title>
<path fill="none" stroke="midnightblue" d="M133.203,-47.0216C148.673,-49.298 164.727,-51.6606 178.651,-53.7095"/>
<polygon fill="midnightblue" stroke="midnightblue" points="178.435,-57.2153 188.838,-55.2086 179.454,-50.2899 178.435,-57.2153"/>
</g>
<!-- Node3 -->
<g id="node3" class="node"><title>Node3</title>
<g id="a_node3"><a xlink:href="../../d1/d37/class_nx_1_1_c_tex_dict.html#a08b0d549fee4701b51df7efbdc517f19" target="_top" xlink:title=" ">
<polygon fill="white" stroke="black" points="171,-0.5 171,-30.5 267,-30.5 267,-0.5 171,-0.5"/>
<text text-anchor="start" x="179" y="-18.5" font-family="Helvetica,sans-Serif" font-size="10.00">Nx::CTexDict::plat</text>
<text text-anchor="middle" x="219" y="-7.5" font-family="Helvetica,sans-Serif" font-size="10.00">_copy_texture</text>
</a>
</g>
</g>
<!-- Node1&#45;&gt;Node3 -->
<g id="edge2" class="edge"><title>Node1&#45;&gt;Node3</title>
<path fill="none" stroke="midnightblue" d="M133.203,-27.9784C142.377,-26.6284 151.757,-25.2482 160.775,-23.921"/>
<polygon fill="midnightblue" stroke="midnightblue" points="161.39,-27.3683 170.774,-22.4496 160.371,-20.4429 161.39,-27.3683"/>
</g>
<!-- Node4 -->
<g id="node4" class="node"><title>Node4</title>
<g id="a_node4"><a xlink:href="../../df/d92/standard_8cpp.html#a5fc8fd1788f18ada61dfda9f171c5a1a" target="_top" xlink:title=" ">
<polygon fill="white" stroke="black" points="303,-6 303,-25 341,-25 341,-6 303,-6"/>
<text text-anchor="middle" x="322" y="-13" font-family="Helvetica,sans-Serif" font-size="10.00">printf</text>
</a>
</g>
</g>
<!-- Node3&#45;&gt;Node4 -->
<g id="edge3" class="edge"><title>Node3&#45;&gt;Node4</title>
<path fill="none" stroke="midnightblue" d="M267.247,-15.5C275.859,-15.5 284.599,-15.5 292.457,-15.5"/>
<polygon fill="midnightblue" stroke="midnightblue" points="292.532,-19.0001 302.532,-15.5 292.532,-12.0001 292.532,-19.0001"/>
</g>
</g>
</svg>
