<?xml version="1.0" encoding="UTF-8" standalone="no"?>
<!DOCTYPE svg PUBLIC "-//W3C//DTD SVG 1.1//EN"
 "http://www.w3.org/Graphics/SVG/1.1/DTD/svg11.dtd">
<!-- Generated by graphviz version 2.38.0 (20140413.2041)
 -->
<!-- Title: Nx::CTexDict::plat_load_texture_from_buffer Pages: 1 -->
<svg width="494pt" height="78pt"
 viewBox="0.00 0.00 494.00 77.50" xmlns="http://www.w3.org/2000/svg" xmlns:xlink="http://www.w3.org/1999/xlink">
<g id="graph0" class="graph" transform="scale(1 1) rotate(0) translate(4 73.5)">
<title>Nx::CTexDict::plat_load_texture_from_buffer</title>
<polygon fill="white" stroke="none" points="-4,4 -4,-73.5 490,-73.5 490,4 -4,4"/>
<!-- Node1 -->
<g id="node1" class="node"><title>Node1</title>
<g id="a_node1"><a xlink:title=" ">
<polygon fill="#bfbfbf" stroke="black" points="358,-22.5 358,-52.5 486,-52.5 486,-22.5 358,-22.5"/>
<text text-anchor="start" x="366" y="-40.5" font-family="Helvetica,sans-Serif" font-size="10.00">Nx::CTexDict::plat</text>
<text text-anchor="middle" x="422" y="-29.5" font-family="Helvetica,sans-Serif" font-size="10.00">_load_texture_from_buffer</text>
</a>
</g>
</g>
<!-- Node2 -->
<g id="node2" class="node"><title>Node2</title>
<g id="a_node2"><a xlink:href="../../d1/d37/class_nx_1_1_c_tex_dict.html#ad35122aee93b8207789a959edc567e5b" target="_top" xlink:title=" ">
<polygon fill="white" stroke="black" points="188,-22.5 188,-52.5 322,-52.5 322,-22.5 188,-22.5"/>
<text text-anchor="start" x="196" y="-40.5" font-family="Helvetica,sans-Serif" font-size="10.00">Nx::CTexDict::LoadTexture</text>
<text text-anchor="middle" x="255" y="-29.5" font-family="Helvetica,sans-Serif" font-size="10.00">FromBuffer</text>
</a>
</g>
</g>
<!-- Node1&#45;&gt;Node2 -->
<g id="edge1" class="edge"><title>Node1&#45;&gt;Node2</title>
<path fill="none" stroke="midnightblue" d="M347.48,-37.5C339.048,-37.5 330.489,-37.5 322.161,-37.5"/>
<polygon fill="midnightblue" stroke="midnightblue" points="347.679,-41.0001 357.679,-37.5 347.679,-34.0001 347.679,-41.0001"/>
</g>
<!-- Node3 -->
<g id="node3" class="node"><title>Node3</title>
<g id="a_node3"><a xlink:href="../../d0/dea/class_nx_1_1_c_model.html#ae466409e518cc7ac161762b0dbc52ca3" target="_top" xlink:title=" ">
<polygon fill="white" stroke="black" points="0,-50 0,-69 152,-69 152,-50 0,-50"/>
<text text-anchor="middle" x="76" y="-57" font-family="Helvetica,sans-Serif" font-size="10.00">Nx::CModel::ApplyFaceTexture</text>
</a>
</g>
</g>
<!-- Node2&#45;&gt;Node3 -->
<g id="edge2" class="edge"><title>Node2&#45;&gt;Node3</title>
<path fill="none" stroke="midnightblue" d="M177.869,-46.9626C169.296,-48.0282 160.566,-49.1133 152.007,-50.1771"/>
<polygon fill="midnightblue" stroke="midnightblue" points="178.348,-50.4301 187.84,-45.7233 177.485,-43.4835 178.348,-50.4301"/>
</g>
<!-- Node4 -->
<g id="node4" class="node"><title>Node4</title>
<g id="a_node4"><a xlink:href="../../d1/d06/namespace_nx.html#a92feb646360a12619a4591620197d0c6" target="_top" xlink:title=" ">
<polygon fill="white" stroke="black" points="8.5,-0.5 8.5,-30.5 143.5,-30.5 143.5,-0.5 8.5,-0.5"/>
<text text-anchor="start" x="16.5" y="-18.5" font-family="Helvetica,sans-Serif" font-size="10.00">Nx::ScriptLoadFaceTexture</text>
<text text-anchor="middle" x="76" y="-7.5" font-family="Helvetica,sans-Serif" font-size="10.00">FromProfile</text>
</a>
</g>
</g>
<!-- Node2&#45;&gt;Node4 -->
<g id="edge3" class="edge"><title>Node2&#45;&gt;Node4</title>
<path fill="none" stroke="midnightblue" d="M177.573,-28.0006C166.288,-26.5979 154.736,-25.1621 143.669,-23.7866"/>
<polygon fill="midnightblue" stroke="midnightblue" points="177.485,-31.5165 187.84,-29.2767 178.348,-24.5699 177.485,-31.5165"/>
</g>
</g>
</svg>
