<?xml version="1.0" encoding="UTF-8" standalone="no"?>
<!DOCTYPE svg PUBLIC "-//W3C//DTD SVG 1.1//EN"
 "http://www.w3.org/Graphics/SVG/1.1/DTD/svg11.dtd">
<!-- Generated by graphviz version 2.38.0 (20140413.2041)
 -->
<!-- Title: Nx::CTexDict::GetTexture Pages: 1 -->
<svg width="482pt" height="78pt"
 viewBox="0.00 0.00 482.00 77.50" xmlns="http://www.w3.org/2000/svg" xmlns:xlink="http://www.w3.org/1999/xlink">
<g id="graph0" class="graph" transform="scale(1 1) rotate(0) translate(4 73.5)">
<title>Nx::CTexDict::GetTexture</title>
<polygon fill="white" stroke="none" points="-4,4 -4,-73.5 478,-73.5 478,4 -4,4"/>
<!-- Node1 -->
<g id="node1" class="node"><title>Node1</title>
<g id="a_node1"><a xlink:title=" ">
<polygon fill="#bfbfbf" stroke="black" points="0,-28 0,-47 128,-47 128,-28 0,-28"/>
<text text-anchor="middle" x="64" y="-35" font-family="Helvetica,sans-Serif" font-size="10.00">Nx::CTexDict::GetTexture</text>
</a>
</g>
</g>
<!-- Node2 -->
<g id="node2" class="node"><title>Node2</title>
<g id="a_node2"><a xlink:href="../../d1/d37/class_nx_1_1_c_tex_dict.html#ae580a961a82318c752e4ed1b4b1163d6" target="_top" xlink:title=" ">
<polygon fill="white" stroke="black" points="164,-50 164,-69 292,-69 292,-50 164,-50"/>
<text text-anchor="middle" x="228" y="-57" font-family="Helvetica,sans-Serif" font-size="10.00">Nx::CTexDict::GetTexture</text>
</a>
</g>
</g>
<!-- Node1&#45;&gt;Node2 -->
<g id="edge1" class="edge"><title>Node1&#45;&gt;Node2</title>
<path fill="none" stroke="midnightblue" d="M128.097,-46.0688C136.526,-47.2134 145.227,-48.3951 153.81,-49.5607"/>
<polygon fill="midnightblue" stroke="midnightblue" points="153.428,-53.0408 163.808,-50.9184 154.37,-46.1045 153.428,-53.0408"/>
</g>
<!-- Node4 -->
<g id="node4" class="node"><title>Node4</title>
<g id="a_node4"><a xlink:href="../../d1/d06/namespace_nx.html#a7b78a9893288a65811ab307b6e50cd51" target="_top" xlink:title=" ">
<polygon fill="white" stroke="black" points="169.5,-0.5 169.5,-30.5 286.5,-30.5 286.5,-0.5 169.5,-0.5"/>
<text text-anchor="start" x="177.5" y="-18.5" font-family="Helvetica,sans-Serif" font-size="10.00">Nx::s_convert_filename</text>
<text text-anchor="middle" x="228" y="-7.5" font-family="Helvetica,sans-Serif" font-size="10.00">_to_checksum</text>
</a>
</g>
</g>
<!-- Node1&#45;&gt;Node4 -->
<g id="edge3" class="edge"><title>Node1&#45;&gt;Node4</title>
<path fill="none" stroke="midnightblue" d="M128.097,-28.9312C138.292,-27.5468 148.885,-26.1082 159.185,-24.7094"/>
<polygon fill="midnightblue" stroke="midnightblue" points="159.925,-28.1412 169.363,-23.3273 158.983,-21.2049 159.925,-28.1412"/>
</g>
<!-- Node3 -->
<g id="node3" class="node"><title>Node3</title>
<g id="a_node3"><a xlink:href="../../df/de2/_messages_8h.html#a771b760c9d0250da6766f107453b9c60" target="_top" xlink:title=" ">
<polygon fill="white" stroke="black" points="371,-50 371,-69 431,-69 431,-50 371,-50"/>
<text text-anchor="middle" x="401" y="-57" font-family="Helvetica,sans-Serif" font-size="10.00">Dbg_Error</text>
</a>
</g>
</g>
<!-- Node2&#45;&gt;Node3 -->
<g id="edge2" class="edge"><title>Node2&#45;&gt;Node3</title>
<path fill="none" stroke="midnightblue" d="M292.188,-59.5C315.197,-59.5 340.524,-59.5 360.845,-59.5"/>
<polygon fill="midnightblue" stroke="midnightblue" points="360.977,-63.0001 370.977,-59.5 360.977,-56.0001 360.977,-63.0001"/>
</g>
<!-- Node5 -->
<g id="node5" class="node"><title>Node5</title>
<g id="a_node5"><a xlink:href="../../d3/d9b/namespace_crc.html#aed1b5ad21f682b39b09782ec29f5c5cc" target="_top" xlink:title=" ">
<polygon fill="white" stroke="black" points="328,-6 328,-25 474,-25 474,-6 328,-6"/>
<text text-anchor="middle" x="401" y="-13" font-family="Helvetica,sans-Serif" font-size="10.00">Crc::GenerateCRCFromString</text>
</a>
</g>
</g>
<!-- Node4&#45;&gt;Node5 -->
<g id="edge4" class="edge"><title>Node4&#45;&gt;Node5</title>
<path fill="none" stroke="midnightblue" d="M286.893,-15.5C296.879,-15.5 307.427,-15.5 317.908,-15.5"/>
<polygon fill="midnightblue" stroke="midnightblue" points="317.914,-19.0001 327.914,-15.5 317.914,-12.0001 317.914,-19.0001"/>
</g>
</g>
</svg>
