<?xml version="1.0" encoding="UTF-8" standalone="no"?>
<!DOCTYPE svg PUBLIC "-//W3C//DTD SVG 1.1//EN"
 "http://www.w3.org/Graphics/SVG/1.1/DTD/svg11.dtd">
<!-- Generated by graphviz version 2.38.0 (20140413.2041)
 -->
<!-- Title: Obj::CFloatingLabelComponent::RefreshFromStructure Pages: 1 -->
<svg width="1381pt" height="269pt"
 viewBox="0.00 0.00 1381.00 269.03" xmlns="http://www.w3.org/2000/svg" xmlns:xlink="http://www.w3.org/1999/xlink">
<g id="graph0" class="graph" transform="scale(1 1) rotate(0) translate(4 265.031)">
<title>Obj::CFloatingLabelComponent::RefreshFromStructure</title>
<polygon fill="white" stroke="none" points="-4,4 -4,-265.031 1377,-265.031 1377,4 -4,4"/>
<!-- Node1 -->
<g id="node1" class="node"><title>Node1</title>
<g id="a_node1"><a xlink:title=" ">
<polygon fill="#bfbfbf" stroke="black" points="0,-112.031 0,-142.031 152,-142.031 152,-112.031 0,-112.031"/>
<text text-anchor="start" x="8" y="-130.031" font-family="Helvetica,sans-Serif" font-size="10.00">Obj::CFloatingLabelComponent</text>
<text text-anchor="middle" x="76" y="-119.031" font-family="Helvetica,sans-Serif" font-size="10.00">::RefreshFromStructure</text>
</a>
</g>
</g>
<!-- Node2 -->
<g id="node2" class="node"><title>Node2</title>
<g id="a_node2"><a xlink:href="../../dc/d49/class_obj_1_1_c_floating_label_component.html#a73c27111976f5e46b549fe219c19bdd3" target="_top" xlink:title=" ">
<polygon fill="white" stroke="black" points="188,-112.031 188,-142.031 340,-142.031 340,-112.031 188,-112.031"/>
<text text-anchor="start" x="196" y="-130.031" font-family="Helvetica,sans-Serif" font-size="10.00">Obj::CFloatingLabelComponent</text>
<text text-anchor="middle" x="264" y="-119.031" font-family="Helvetica,sans-Serif" font-size="10.00">::InitFromStructure</text>
</a>
</g>
</g>
<!-- Node1&#45;&gt;Node2 -->
<g id="edge1" class="edge"><title>Node1&#45;&gt;Node2</title>
<path fill="none" stroke="midnightblue" d="M152.117,-127.031C160.596,-127.031 169.281,-127.031 177.875,-127.031"/>
<polygon fill="midnightblue" stroke="midnightblue" points="177.905,-130.531 187.905,-127.031 177.905,-123.531 177.905,-130.531"/>
</g>
<!-- Node3 -->
<g id="node3" class="node"><title>Node3</title>
<g id="a_node3"><a xlink:href="../../d2/df7/class_script_1_1_c_struct.html#aa39e6fe5fdf1d6c48136ae26a7ad511e" target="_top" xlink:title=" ">
<polygon fill="white" stroke="black" points="376,-193.531 376,-212.531 525,-212.531 525,-193.531 376,-193.531"/>
<text text-anchor="middle" x="450.5" y="-200.531" font-family="Helvetica,sans-Serif" font-size="10.00">Script::CStruct::GetChecksum</text>
</a>
</g>
</g>
<!-- Node2&#45;&gt;Node3 -->
<g id="edge2" class="edge"><title>Node2&#45;&gt;Node3</title>
<path fill="none" stroke="midnightblue" d="M301.451,-142.046C335.047,-155.885 384.458,-176.238 416.805,-189.563"/>
<polygon fill="midnightblue" stroke="midnightblue" points="415.681,-192.885 426.26,-193.457 418.347,-186.412 415.681,-192.885"/>
</g>
<!-- Node11 -->
<g id="node11" class="node"><title>Node11</title>
<g id="a_node11"><a xlink:href="../../d2/df7/class_script_1_1_c_struct.html#acae6f1a5a02d406ab56292ec3fcfaefd" target="_top" xlink:title=" ">
<polygon fill="white" stroke="black" points="388,-136.531 388,-155.531 513,-155.531 513,-136.531 388,-136.531"/>
<text text-anchor="middle" x="450.5" y="-143.531" font-family="Helvetica,sans-Serif" font-size="10.00">Script::CStruct::GetFloat</text>
</a>
</g>
</g>
<!-- Node2&#45;&gt;Node11 -->
<g id="edge12" class="edge"><title>Node2&#45;&gt;Node11</title>
<path fill="none" stroke="midnightblue" d="M340.043,-134.759C352.436,-136.035 365.258,-137.355 377.572,-138.623"/>
<polygon fill="midnightblue" stroke="midnightblue" points="377.47,-142.131 387.776,-139.674 378.187,-135.168 377.47,-142.131"/>
</g>
<!-- Node14 -->
<g id="node14" class="node"><title>Node14</title>
<g id="a_node14"><a xlink:href="../../d2/df7/class_script_1_1_c_struct.html#a1e85eee5e600de8358db26f6c777e42d" target="_top" xlink:title=" ">
<polygon fill="white" stroke="black" points="384.5,-98.5305 384.5,-117.531 516.5,-117.531 516.5,-98.5305 384.5,-98.5305"/>
<text text-anchor="middle" x="450.5" y="-105.531" font-family="Helvetica,sans-Serif" font-size="10.00">Script::CStruct::GetInteger</text>
</a>
</g>
</g>
<!-- Node2&#45;&gt;Node14 -->
<g id="edge20" class="edge"><title>Node2&#45;&gt;Node14</title>
<path fill="none" stroke="midnightblue" d="M340.043,-119.302C351.271,-118.146 362.852,-116.954 374.088,-115.796"/>
<polygon fill="midnightblue" stroke="midnightblue" points="374.701,-119.252 384.29,-114.746 373.984,-112.289 374.701,-119.252"/>
</g>
<!-- Node15 -->
<g id="node15" class="node"><title>Node15</title>
<g id="a_node15"><a xlink:href="../../d2/df7/class_script_1_1_c_struct.html#a42a803452add452cf735c191a1816b14" target="_top" xlink:title=" ">
<polygon fill="white" stroke="black" points="386.5,-60.5305 386.5,-79.5305 514.5,-79.5305 514.5,-60.5305 386.5,-60.5305"/>
<text text-anchor="middle" x="450.5" y="-67.5305" font-family="Helvetica,sans-Serif" font-size="10.00">Script::CStruct::GetString</text>
</a>
</g>
</g>
<!-- Node2&#45;&gt;Node15 -->
<g id="edge24" class="edge"><title>Node2&#45;&gt;Node15</title>
<path fill="none" stroke="midnightblue" d="M306.396,-112.013C327.166,-104.695 352.783,-95.9942 376,-89.0305 383.898,-86.6616 392.325,-84.3157 400.552,-82.1232"/>
<polygon fill="midnightblue" stroke="midnightblue" points="401.651,-85.4535 410.437,-79.5336 399.877,-78.682 401.651,-85.4535"/>
</g>
<!-- Node3&#45;&gt;Node3 -->
<g id="edge7" class="edge"><title>Node3&#45;&gt;Node3</title>
<path fill="none" stroke="midnightblue" d="M423.373,-212.788C410.177,-221.596 419.219,-231.031 450.5,-231.031 472.006,-231.031 483,-226.571 483.483,-220.922"/>
<polygon fill="midnightblue" stroke="midnightblue" points="486.31,-218.858 477.627,-212.788 480.629,-222.948 486.31,-218.858"/>
</g>
<!-- Node4 -->
<g id="node4" class="node"><title>Node4</title>
<g id="a_node4"><a xlink:href="../../d1/d54/namespace_script.html#ae80ed69ea4edcbcbbbd4985a6efdcd6e" target="_top" xlink:title=" ">
<polygon fill="white" stroke="black" points="875,-141.531 875,-160.531 1014,-160.531 1014,-141.531 875,-141.531"/>
<text text-anchor="middle" x="944.5" y="-148.531" font-family="Helvetica,sans-Serif" font-size="10.00">Script::FindChecksumName</text>
</a>
</g>
</g>
<!-- Node3&#45;&gt;Node4 -->
<g id="edge3" class="edge"><title>Node3&#45;&gt;Node4</title>
<path fill="none" stroke="midnightblue" d="M525.291,-198.836C603.423,-193.908 730.244,-184.515 839,-170.031 854.519,-167.964 871.238,-165.178 886.655,-162.377"/>
<polygon fill="midnightblue" stroke="midnightblue" points="887.376,-165.804 896.572,-160.542 886.102,-158.92 887.376,-165.804"/>
</g>
<!-- Node8 -->
<g id="node8" class="node"><title>Node8</title>
<g id="a_node8"><a xlink:href="../../d1/d54/namespace_script.html#a0d003ee93577e31adb6597bce0002009" target="_top" xlink:title=" ">
<polygon fill="white" stroke="black" points="573.5,-127.531 573.5,-146.531 680.5,-146.531 680.5,-127.531 573.5,-127.531"/>
<text text-anchor="middle" x="627" y="-134.531" font-family="Helvetica,sans-Serif" font-size="10.00">Script::PrintContents</text>
</a>
</g>
</g>
<!-- Node3&#45;&gt;Node8 -->
<g id="edge8" class="edge"><title>Node3&#45;&gt;Node8</title>
<path fill="none" stroke="midnightblue" d="M476.874,-193.434C507.071,-182.012 557.643,-162.885 591.407,-150.114"/>
<polygon fill="midnightblue" stroke="midnightblue" points="592.764,-153.343 600.879,-146.532 590.287,-146.796 592.764,-153.343"/>
</g>
<!-- Node9 -->
<g id="node9" class="node"><title>Node9</title>
<g id="a_node9"><a xlink:href="../../d1/d54/namespace_script.html#a43181580ea5d38e4bf1aa19ccd5e9e85" target="_top" xlink:title=" ">
<polygon fill="white" stroke="black" points="743,-241.531 743,-260.531 825,-260.531 825,-241.531 743,-241.531"/>
<text text-anchor="middle" x="784" y="-248.531" font-family="Helvetica,sans-Serif" font-size="10.00">Script::Resolve</text>
</a>
</g>
</g>
<!-- Node3&#45;&gt;Node9 -->
<g id="edge9" class="edge"><title>Node3&#45;&gt;Node9</title>
<path fill="none" stroke="midnightblue" d="M490.072,-212.553C510.96,-217.439 537.278,-223.16 561,-227.031 619.567,-236.586 687.469,-243.295 732.602,-247.145"/>
<polygon fill="midnightblue" stroke="midnightblue" points="732.462,-250.646 742.719,-247.993 733.046,-243.67 732.462,-250.646"/>
</g>
<!-- Node5 -->
<g id="node5" class="node"><title>Node5</title>
<g id="a_node5"><a xlink:href="../../d1/d54/namespace_script.html#a5cc52c4ff5ea5bb27681d819212dfdca" target="_top" xlink:title=" ">
<polygon fill="white" stroke="black" points="1050,-160.531 1050,-179.531 1213,-179.531 1213,-160.531 1050,-160.531"/>
<text text-anchor="middle" x="1131.5" y="-167.531" font-family="Helvetica,sans-Serif" font-size="10.00">Script::FindChecksumNameNULL</text>
</a>
</g>
</g>
<!-- Node4&#45;&gt;Node5 -->
<g id="edge4" class="edge"><title>Node4&#45;&gt;Node5</title>
<path fill="none" stroke="midnightblue" d="M1014.12,-158.078C1022.48,-158.936 1031.11,-159.823 1039.72,-160.707"/>
<polygon fill="midnightblue" stroke="midnightblue" points="1039.49,-164.202 1049.8,-161.742 1040.21,-157.239 1039.49,-164.202"/>
</g>
<!-- Node7 -->
<g id="node7" class="node"><title>Node7</title>
<g id="a_node7"><a xlink:href="../../da/d37/namespace_dbg.html#ab406a8cc16de5046c7d9fd09c9de5e22" target="_top" xlink:title=" ">
<polygon fill="white" stroke="black" points="1098.5,-122.531 1098.5,-141.531 1164.5,-141.531 1164.5,-122.531 1098.5,-122.531"/>
<text text-anchor="middle" x="1131.5" y="-129.531" font-family="Helvetica,sans-Serif" font-size="10.00">Dbg::sprintf</text>
</a>
</g>
</g>
<!-- Node4&#45;&gt;Node7 -->
<g id="edge6" class="edge"><title>Node4&#45;&gt;Node7</title>
<path fill="none" stroke="midnightblue" d="M1014.12,-143.983C1038.98,-141.43 1066.31,-138.623 1088.23,-136.372"/>
<polygon fill="midnightblue" stroke="midnightblue" points="1088.62,-139.851 1098.21,-135.347 1087.9,-132.887 1088.62,-139.851"/>
</g>
<!-- Node6 -->
<g id="node6" class="node"><title>Node6</title>
<g id="a_node6"><a xlink:href="../../d0/d31/namespace_config.html#a709cc81780d49900157e3476b63aa25d" target="_top" xlink:title=" ">
<polygon fill="white" stroke="black" points="1249,-160.531 1249,-179.531 1373,-179.531 1373,-160.531 1249,-160.531"/>
<text text-anchor="middle" x="1311" y="-167.531" font-family="Helvetica,sans-Serif" font-size="10.00">Config::GotExtraMemory</text>
</a>
</g>
</g>
<!-- Node5&#45;&gt;Node6 -->
<g id="edge5" class="edge"><title>Node5&#45;&gt;Node6</title>
<path fill="none" stroke="midnightblue" d="M1213.2,-170.031C1221.73,-170.031 1230.36,-170.031 1238.77,-170.031"/>
<polygon fill="midnightblue" stroke="midnightblue" points="1238.9,-173.531 1248.9,-170.031 1238.9,-166.531 1238.9,-173.531"/>
</g>
<!-- Node9&#45;&gt;Node4 -->
<g id="edge10" class="edge"><title>Node9&#45;&gt;Node4</title>
<path fill="none" stroke="midnightblue" d="M809.461,-241.452C818.91,-237.421 829.671,-232.416 839,-227.031 870.45,-208.877 903.909,-183.294 924.262,-166.935"/>
<polygon fill="midnightblue" stroke="midnightblue" points="926.583,-169.559 932.138,-160.538 922.17,-164.126 926.583,-169.559"/>
</g>
<!-- Node10 -->
<g id="node10" class="node"><title>Node10</title>
<g id="a_node10"><a xlink:href="../../d1/d54/namespace_script.html#af293a36c230b10de7d8151c2990b233b" target="_top" xlink:title=" ">
<polygon fill="white" stroke="black" points="887.5,-241.531 887.5,-260.531 1001.5,-260.531 1001.5,-241.531 887.5,-241.531"/>
<text text-anchor="middle" x="944.5" y="-248.531" font-family="Helvetica,sans-Serif" font-size="10.00">Script::LookUpSymbol</text>
</a>
</g>
</g>
<!-- Node9&#45;&gt;Node10 -->
<g id="edge11" class="edge"><title>Node9&#45;&gt;Node10</title>
<path fill="none" stroke="midnightblue" d="M825.406,-251.031C841.124,-251.031 859.549,-251.031 877.11,-251.031"/>
<polygon fill="midnightblue" stroke="midnightblue" points="877.322,-254.531 887.322,-251.031 877.322,-247.531 877.322,-254.531"/>
</g>
<!-- Node11&#45;&gt;Node4 -->
<g id="edge13" class="edge"><title>Node11&#45;&gt;Node4</title>
<path fill="none" stroke="midnightblue" d="M513.108,-152.648C528.714,-154.052 545.458,-155.322 561,-156.031 665.921,-160.811 787.186,-157.777 864.558,-154.759"/>
<polygon fill="midnightblue" stroke="midnightblue" points="864.857,-158.25 874.709,-154.353 864.577,-151.256 864.857,-158.25"/>
</g>
<!-- Node11&#45;&gt;Node8 -->
<g id="edge14" class="edge"><title>Node11&#45;&gt;Node8</title>
<path fill="none" stroke="midnightblue" d="M513.022,-142.857C529.355,-142.015 547.009,-141.105 563.399,-140.259"/>
<polygon fill="midnightblue" stroke="midnightblue" points="563.611,-143.753 573.418,-139.742 563.251,-136.762 563.611,-143.753"/>
</g>
<!-- Node12 -->
<g id="node12" class="node"><title>Node12</title>
<g id="a_node12"><a xlink:href="../../d2/df7/class_script_1_1_c_struct.html#a1e05f0a66cff4a700fb67fdc117d2d7f" target="_top" xlink:title=" ">
<polygon fill="white" stroke="black" points="561,-71.5305 561,-90.5305 693,-90.5305 693,-71.5305 561,-71.5305"/>
<text text-anchor="middle" x="627" y="-78.5305" font-family="Helvetica,sans-Serif" font-size="10.00">Script::CStruct::search_for</text>
</a>
</g>
</g>
<!-- Node11&#45;&gt;Node12 -->
<g id="edge15" class="edge"><title>Node11&#45;&gt;Node12</title>
<path fill="none" stroke="midnightblue" d="M493.473,-136.527C503.882,-133.802 514.936,-130.592 525,-127.031 550.443,-118.025 578.282,-105.102 598.278,-95.2454"/>
<polygon fill="midnightblue" stroke="midnightblue" points="600.034,-98.2806 607.419,-90.6833 596.908,-92.0173 600.034,-98.2806"/>
</g>
<!-- Node12&#45;&gt;Node4 -->
<g id="edge16" class="edge"><title>Node12&#45;&gt;Node4</title>
<path fill="none" stroke="midnightblue" d="M670.878,-90.5439C727.935,-103.203 828.78,-125.578 890.528,-139.278"/>
<polygon fill="midnightblue" stroke="midnightblue" points="889.942,-142.733 900.463,-141.482 891.458,-135.899 889.942,-142.733"/>
</g>
<!-- Node12&#45;&gt;Node9 -->
<g id="edge18" class="edge"><title>Node12&#45;&gt;Node9</title>
<path fill="none" stroke="midnightblue" d="M650.428,-90.6165C663.787,-97.0591 680.515,-106.477 693,-118.031 729.995,-152.267 759.625,-204.482 773.841,-232.205"/>
<polygon fill="midnightblue" stroke="midnightblue" points="770.756,-233.861 778.366,-241.232 777.013,-230.724 770.756,-233.861"/>
</g>
<!-- Node12&#45;&gt;Node12 -->
<g id="edge19" class="edge"><title>Node12&#45;&gt;Node12</title>
<path fill="none" stroke="midnightblue" d="M602.956,-90.7876C591.259,-99.5958 599.273,-109.031 627,-109.031 645.196,-109.031 654.902,-104.967 656.119,-99.6844"/>
<polygon fill="midnightblue" stroke="midnightblue" points="659.039,-97.7396 651.044,-90.7876 652.959,-101.208 659.039,-97.7396"/>
</g>
<!-- Node13 -->
<g id="node13" class="node"><title>Node13</title>
<g id="a_node13"><a xlink:href="../../d1/d54/namespace_script.html#af32f99ba26ca0f255240413a4e23a754" target="_top" xlink:title=" ">
<polygon fill="white" stroke="black" points="729,-71.5305 729,-90.5305 839,-90.5305 839,-71.5305 729,-71.5305"/>
<text text-anchor="middle" x="784" y="-78.5305" font-family="Helvetica,sans-Serif" font-size="10.00">Script::GetTypeName</text>
</a>
</g>
</g>
<!-- Node12&#45;&gt;Node13 -->
<g id="edge17" class="edge"><title>Node12&#45;&gt;Node13</title>
<path fill="none" stroke="midnightblue" d="M693.285,-81.0305C701.637,-81.0305 710.184,-81.0305 718.523,-81.0305"/>
<polygon fill="midnightblue" stroke="midnightblue" points="718.566,-84.5306 728.566,-81.0305 718.566,-77.5306 718.566,-84.5306"/>
</g>
<!-- Node14&#45;&gt;Node4 -->
<g id="edge21" class="edge"><title>Node14&#45;&gt;Node4</title>
<path fill="none" stroke="midnightblue" d="M499.519,-98.5113C508.215,-95.9826 517.042,-92.8574 525,-89.0305 543.024,-80.363 542.026,-68.3551 561,-62.0305 678.215,-22.9588 723.051,-19.3466 839,-62.0305 877.695,-76.2754 911.822,-111.923 929.879,-133.534"/>
<polygon fill="midnightblue" stroke="midnightblue" points="927.174,-135.755 936.193,-141.315 932.61,-131.344 927.174,-135.755"/>
</g>
<!-- Node14&#45;&gt;Node8 -->
<g id="edge22" class="edge"><title>Node14&#45;&gt;Node8</title>
<path fill="none" stroke="midnightblue" d="M509.121,-117.607C526.466,-120.489 545.582,-123.666 563.242,-126.601"/>
<polygon fill="midnightblue" stroke="midnightblue" points="563.009,-130.11 573.447,-128.297 564.156,-123.205 563.009,-130.11"/>
</g>
<!-- Node14&#45;&gt;Node12 -->
<g id="edge23" class="edge"><title>Node14&#45;&gt;Node12</title>
<path fill="none" stroke="midnightblue" d="M513.022,-98.5113C526.445,-96.4344 540.761,-94.2194 554.533,-92.0884"/>
<polygon fill="midnightblue" stroke="midnightblue" points="555.098,-95.5427 564.445,-90.5547 554.028,-88.6251 555.098,-95.5427"/>
</g>
<!-- Node15&#45;&gt;Node4 -->
<g id="edge25" class="edge"><title>Node15&#45;&gt;Node4</title>
<path fill="none" stroke="midnightblue" d="M470.263,-60.3895C491.591,-50.018 527.766,-34.1855 561,-28.0305 682.493,-5.52972 727.004,22.1581 839,-30.0305 885.137,-51.5296 918.797,-104.316 934.181,-132.534"/>
<polygon fill="midnightblue" stroke="midnightblue" points="931.094,-134.183 938.851,-141.399 937.287,-130.92 931.094,-134.183"/>
</g>
<!-- Node15&#45;&gt;Node8 -->
<g id="edge26" class="edge"><title>Node15&#45;&gt;Node8</title>
<path fill="none" stroke="midnightblue" d="M500.407,-79.5555C508.839,-82.067 517.345,-85.1847 525,-89.0305 543.359,-98.2536 542.788,-108.52 561,-118.031 565.27,-120.26 569.837,-122.263 574.498,-124.054"/>
<polygon fill="midnightblue" stroke="midnightblue" points="573.537,-127.426 584.132,-127.438 575.857,-120.821 573.537,-127.426"/>
</g>
<!-- Node15&#45;&gt;Node12 -->
<g id="edge27" class="edge"><title>Node15&#45;&gt;Node12</title>
<path fill="none" stroke="midnightblue" d="M514.992,-74.0329C526.524,-74.7598 538.655,-75.5245 550.492,-76.2707"/>
<polygon fill="midnightblue" stroke="midnightblue" points="550.596,-79.7841 560.797,-76.9203 551.037,-72.798 550.596,-79.7841"/>
</g>
</g>
</svg>
