<?xml version="1.0" encoding="UTF-8" standalone="no"?>
<!DOCTYPE svg PUBLIC "-//W3C//DTD SVG 1.1//EN"
 "http://www.w3.org/Graphics/SVG/1.1/DTD/svg11.dtd">
<!-- Generated by graphviz version 2.38.0 (20140413.2041)
 -->
<!-- Title: Game::CSkatetrisGoal::RemoveTrick Pages: 1 -->
<svg width="725pt" height="61pt"
 viewBox="0.00 0.00 725.00 61.00" xmlns="http://www.w3.org/2000/svg" xmlns:xlink="http://www.w3.org/1999/xlink">
<g id="graph0" class="graph" transform="scale(1 1) rotate(0) translate(4 57)">
<title>Game::CSkatetrisGoal::RemoveTrick</title>
<polygon fill="white" stroke="none" points="-4,4 -4,-57 721,-57 721,4 -4,4"/>
<!-- Node1 -->
<g id="node1" class="node"><title>Node1</title>
<g id="a_node1"><a xlink:title=" ">
<polygon fill="#bfbfbf" stroke="black" points="602,-0.5 602,-30.5 717,-30.5 717,-0.5 602,-0.5"/>
<text text-anchor="start" x="610" y="-18.5" font-family="Helvetica,sans-Serif" font-size="10.00">Game::CSkatetrisGoal</text>
<text text-anchor="middle" x="659.5" y="-7.5" font-family="Helvetica,sans-Serif" font-size="10.00">::RemoveTrick</text>
</a>
</g>
</g>
<!-- Node2 -->
<g id="node2" class="node"><title>Node2</title>
<g id="a_node2"><a xlink:href="../../de/dfc/class_game_1_1_c_skatetris_goal.html#a4ca0a88563b967c99db470efc066d804" target="_top" xlink:title=" ">
<polygon fill="white" stroke="black" points="451,-22.5 451,-52.5 566,-52.5 566,-22.5 451,-22.5"/>
<text text-anchor="start" x="459" y="-40.5" font-family="Helvetica,sans-Serif" font-size="10.00">Game::CSkatetrisGoal</text>
<text text-anchor="middle" x="508.5" y="-29.5" font-family="Helvetica,sans-Serif" font-size="10.00">::CheckTetrisCombos</text>
</a>
</g>
</g>
<!-- Node1&#45;&gt;Node2 -->
<g id="edge1" class="edge"><title>Node1&#45;&gt;Node2</title>
<path fill="none" stroke="midnightblue" d="M591.772,-25.3525C583.199,-26.6183 574.487,-27.9045 566.098,-29.1433"/>
<polygon fill="midnightblue" stroke="midnightblue" points="592.363,-28.8032 601.744,-23.88 591.34,-21.8783 592.363,-28.8032"/>
</g>
<!-- Node3 -->
<g id="node3" class="node"><title>Node3</title>
<g id="a_node3"><a xlink:href="../../de/dfc/class_game_1_1_c_skatetris_goal.html#aedb65124a520f3bed4b9ec02d38d355b" target="_top" xlink:title=" ">
<polygon fill="white" stroke="black" points="300,-0.5 300,-30.5 415,-30.5 415,-0.5 300,-0.5"/>
<text text-anchor="start" x="308" y="-18.5" font-family="Helvetica,sans-Serif" font-size="10.00">Game::CSkatetrisGoal</text>
<text text-anchor="middle" x="357.5" y="-7.5" font-family="Helvetica,sans-Serif" font-size="10.00">::CheckTetrisTricks</text>
</a>
</g>
</g>
<!-- Node1&#45;&gt;Node3 -->
<g id="edge5" class="edge"><title>Node1&#45;&gt;Node3</title>
<path fill="none" stroke="midnightblue" d="M591.685,-13.8837C583.043,-13.7251 574.312,-13.5898 566,-13.5 514.892,-12.9475 502.108,-12.9475 451,-13.5 439.435,-13.625 427.059,-13.8379 415.242,-14.0794"/>
<polygon fill="midnightblue" stroke="midnightblue" points="591.692,-17.3844 601.758,-14.0794 591.828,-10.3857 591.692,-17.3844"/>
</g>
<!-- Node2&#45;&gt;Node3 -->
<g id="edge2" class="edge"><title>Node2&#45;&gt;Node3</title>
<path fill="none" stroke="midnightblue" d="M440.772,-27.6475C432.199,-26.3817 423.487,-25.0955 415.098,-23.8567"/>
<polygon fill="midnightblue" stroke="midnightblue" points="440.34,-31.1217 450.744,-29.12 441.363,-24.1968 440.34,-31.1217"/>
</g>
<!-- Node4 -->
<g id="node4" class="node"><title>Node4</title>
<g id="a_node4"><a xlink:href="../../d9/dda/class_game_1_1_c_goal_manager.html#aa72c4c2d3f44d4036027bf774bba2f43" target="_top" xlink:title=" ">
<polygon fill="white" stroke="black" points="151,-0.5 151,-30.5 264,-30.5 264,-0.5 151,-0.5"/>
<text text-anchor="start" x="159" y="-18.5" font-family="Helvetica,sans-Serif" font-size="10.00">Game::CGoalManager</text>
<text text-anchor="middle" x="207.5" y="-7.5" font-family="Helvetica,sans-Serif" font-size="10.00">::CheckTrickText</text>
</a>
</g>
</g>
<!-- Node3&#45;&gt;Node4 -->
<g id="edge3" class="edge"><title>Node3&#45;&gt;Node4</title>
<path fill="none" stroke="midnightblue" d="M289.545,-15.5C281.144,-15.5 272.62,-15.5 264.413,-15.5"/>
<polygon fill="midnightblue" stroke="midnightblue" points="289.703,-19.0001 299.703,-15.5 289.703,-12.0001 289.703,-19.0001"/>
</g>
<!-- Node5 -->
<g id="node5" class="node"><title>Node5</title>
<g id="a_node5"><a xlink:href="../../df/d3f/class_obj_1_1_c_trick_component.html#ac5ca1bf03fa9f5cceab427060798cace" target="_top" xlink:title=" ">
<polygon fill="white" stroke="black" points="0,-0.5 0,-30.5 115,-30.5 115,-0.5 0,-0.5"/>
<text text-anchor="start" x="8" y="-18.5" font-family="Helvetica,sans-Serif" font-size="10.00">Obj::CTrickComponent</text>
<text text-anchor="middle" x="57.5" y="-7.5" font-family="Helvetica,sans-Serif" font-size="10.00">::CallMemberFunction</text>
</a>
</g>
</g>
<!-- Node4&#45;&gt;Node5 -->
<g id="edge4" class="edge"><title>Node4&#45;&gt;Node5</title>
<path fill="none" stroke="midnightblue" d="M140.736,-15.5C132.262,-15.5 123.642,-15.5 115.329,-15.5"/>
<polygon fill="midnightblue" stroke="midnightblue" points="140.969,-19.0001 150.969,-15.5 140.969,-12.0001 140.969,-19.0001"/>
</g>
</g>
</svg>
