<?xml version="1.0" encoding="UTF-8" standalone="no"?>
<!DOCTYPE svg PUBLIC "-//W3C//DTD SVG 1.1//EN"
 "http://www.w3.org/Graphics/SVG/1.1/DTD/svg11.dtd">
<!-- Generated by graphviz version 2.38.0 (20140413.2041)
 -->
<!-- Title: Nx::CCollObjTriData::ProcessOcclusion Pages: 1 -->
<svg width="622pt" height="148pt"
 viewBox="0.00 0.00 622.00 147.50" xmlns="http://www.w3.org/2000/svg" xmlns:xlink="http://www.w3.org/1999/xlink">
<g id="graph0" class="graph" transform="scale(1 1) rotate(0) translate(4 143.5)">
<title>Nx::CCollObjTriData::ProcessOcclusion</title>
<polygon fill="white" stroke="none" points="-4,4 -4,-143.5 618,-143.5 618,4 -4,4"/>
<!-- Node1 -->
<g id="node1" class="node"><title>Node1</title>
<g id="a_node1"><a xlink:title=" ">
<polygon fill="#bfbfbf" stroke="black" points="0,-57.5 0,-87.5 104,-87.5 104,-57.5 0,-57.5"/>
<text text-anchor="start" x="8" y="-75.5" font-family="Helvetica,sans-Serif" font-size="10.00">Nx::CCollObjTriData</text>
<text text-anchor="middle" x="52" y="-64.5" font-family="Helvetica,sans-Serif" font-size="10.00">::ProcessOcclusion</text>
</a>
</g>
</g>
<!-- Node2 -->
<g id="node2" class="node"><title>Node2</title>
<g id="a_node2"><a xlink:href="../../d5/db9/namespace_mth.html#aaca09fd5728158c602a3970017204614" target="_top" xlink:title=" ">
<polygon fill="white" stroke="black" points="172.5,-120 172.5,-139 270.5,-139 270.5,-120 172.5,-120"/>
<text text-anchor="middle" x="221.5" y="-127" font-family="Helvetica,sans-Serif" font-size="10.00">Mth::CrossProduct</text>
</a>
</g>
</g>
<!-- Node1&#45;&gt;Node2 -->
<g id="edge1" class="edge"><title>Node1&#45;&gt;Node2</title>
<path fill="none" stroke="midnightblue" d="M83.8767,-87.6076C100.271,-95.212 120.924,-104.14 140,-110.5 147.651,-113.051 155.82,-115.397 163.91,-117.505"/>
<polygon fill="midnightblue" stroke="midnightblue" points="163.15,-120.923 173.701,-119.957 164.85,-114.132 163.15,-120.923"/>
</g>
<!-- Node3 -->
<g id="node3" class="node"><title>Node3</title>
<g id="a_node3"><a xlink:href="../../df/db1/math_8h.html#a0bc70d364c7f180aece2381faae7eafc" target="_top" xlink:title=" ">
<polygon fill="white" stroke="black" points="204,-82 204,-101 239,-101 239,-82 204,-82"/>
<text text-anchor="middle" x="221.5" y="-89" font-family="Helvetica,sans-Serif" font-size="10.00">fabs</text>
</a>
</g>
</g>
<!-- Node1&#45;&gt;Node3 -->
<g id="edge2" class="edge"><title>Node1&#45;&gt;Node3</title>
<path fill="none" stroke="midnightblue" d="M104.166,-78.3039C133.7,-81.654 169.64,-85.7308 193.686,-88.4584"/>
<polygon fill="midnightblue" stroke="midnightblue" points="193.501,-91.9598 203.832,-89.6093 194.29,-85.0044 193.501,-91.9598"/>
</g>
<!-- Node4 -->
<g id="node4" class="node"><title>Node4</title>
<g id="a_node4"><a xlink:href="../../d1/d08/class_mth_1_1_vector.html#ac68fbfe676c95bf1ada686076c00675a" target="_top" xlink:title=" ">
<polygon fill="white" stroke="black" points="163,-44 163,-63 280,-63 280,-44 163,-44"/>
<text text-anchor="middle" x="221.5" y="-51" font-family="Helvetica,sans-Serif" font-size="10.00">Mth::Vector::Normalize</text>
</a>
</g>
</g>
<!-- Node1&#45;&gt;Node4 -->
<g id="edge3" class="edge"><title>Node1&#45;&gt;Node4</title>
<path fill="none" stroke="midnightblue" d="M104.166,-66.6961C119.542,-64.9519 136.655,-63.0107 152.922,-61.1655"/>
<polygon fill="midnightblue" stroke="midnightblue" points="153.377,-64.6365 162.918,-60.0317 152.587,-57.6811 153.377,-64.6365"/>
</g>
<!-- Node5 -->
<g id="node5" class="node"><title>Node5</title>
<g id="a_node5"><a xlink:href="../../d9/d8c/class_nx_1_1_c_engine.html#af06de1049fb7db1fd52e6d5e1d261e1e" target="_top" xlink:title=" ">
<polygon fill="white" stroke="black" points="140,-6 140,-25 303,-25 303,-6 140,-6"/>
<text text-anchor="middle" x="221.5" y="-13" font-family="Helvetica,sans-Serif" font-size="10.00">Nx::CEngine::sAddOcclusionPoly</text>
</a>
</g>
</g>
<!-- Node1&#45;&gt;Node5 -->
<g id="edge4" class="edge"><title>Node1&#45;&gt;Node5</title>
<path fill="none" stroke="midnightblue" d="M83.8767,-57.3924C100.271,-49.788 120.924,-40.8596 140,-34.5 147.651,-31.9493 155.82,-29.6033 163.91,-27.4949"/>
<polygon fill="midnightblue" stroke="midnightblue" points="164.85,-30.8676 173.701,-25.0432 163.15,-24.0773 164.85,-30.8676"/>
</g>
<!-- Node6 -->
<g id="node6" class="node"><title>Node6</title>
<g id="a_node6"><a xlink:href="../../d9/d8c/class_nx_1_1_c_engine.html#ab74e6629406bd2e46b60128f04b26467" target="_top" xlink:title=" ">
<polygon fill="white" stroke="black" points="339,-0.5 339,-30.5 446,-30.5 446,-0.5 339,-0.5"/>
<text text-anchor="start" x="347" y="-18.5" font-family="Helvetica,sans-Serif" font-size="10.00">Nx::CEngine::s_plat</text>
<text text-anchor="middle" x="392.5" y="-7.5" font-family="Helvetica,sans-Serif" font-size="10.00">_add_occlusion_poly</text>
</a>
</g>
</g>
<!-- Node5&#45;&gt;Node6 -->
<g id="edge5" class="edge"><title>Node5&#45;&gt;Node6</title>
<path fill="none" stroke="midnightblue" d="M303.04,-15.5C311.529,-15.5 320.07,-15.5 328.322,-15.5"/>
<polygon fill="midnightblue" stroke="midnightblue" points="328.592,-19.0001 338.592,-15.5 328.592,-12.0001 328.592,-19.0001"/>
</g>
<!-- Node7 -->
<g id="node7" class="node"><title>Node7</title>
<g id="a_node7"><a xlink:href="../../da/d63/namespace_nx_ngc.html#a0ea05a2d1b537cff8b85fae46f31b71f" target="_top" xlink:title=" ">
<polygon fill="white" stroke="black" points="482,-6 482,-25 614,-25 614,-6 482,-6"/>
<text text-anchor="middle" x="548" y="-13" font-family="Helvetica,sans-Serif" font-size="10.00">NxNgc::AddOcclusionPoly</text>
</a>
</g>
</g>
<!-- Node6&#45;&gt;Node7 -->
<g id="edge6" class="edge"><title>Node6&#45;&gt;Node7</title>
<path fill="none" stroke="midnightblue" d="M446.326,-15.5C454.554,-15.5 463.189,-15.5 471.799,-15.5"/>
<polygon fill="midnightblue" stroke="midnightblue" points="471.867,-19.0001 481.867,-15.5 471.867,-12.0001 471.867,-19.0001"/>
</g>
</g>
</svg>
