<?xml version="1.0" encoding="UTF-8" standalone="no"?>
<!DOCTYPE svg PUBLIC "-//W3C//DTD SVG 1.1//EN"
 "http://www.w3.org/Graphics/SVG/1.1/DTD/svg11.dtd">
<!-- Generated by graphviz version 2.38.0 (20140413.2041)
 -->
<!-- Title: Nx::CParticle::plat_set_position Pages: 1 -->
<svg width="832pt" height="127pt"
 viewBox="0.00 0.00 832.00 126.50" xmlns="http://www.w3.org/2000/svg" xmlns:xlink="http://www.w3.org/1999/xlink">
<g id="graph0" class="graph" transform="scale(1 1) rotate(0) translate(4 122.5)">
<title>Nx::CParticle::plat_set_position</title>
<polygon fill="white" stroke="none" points="-4,4 -4,-122.5 828,-122.5 828,4 -4,4"/>
<!-- Node1 -->
<g id="node1" class="node"><title>Node1</title>
<g id="a_node1"><a xlink:title=" ">
<polygon fill="#bfbfbf" stroke="black" points="728,-18 728,-48 824,-48 824,-18 728,-18"/>
<text text-anchor="start" x="736" y="-36" font-family="Helvetica,sans-Serif" font-size="10.00">Nx::CParticle::plat</text>
<text text-anchor="middle" x="776" y="-25" font-family="Helvetica,sans-Serif" font-size="10.00">_set_position</text>
</a>
</g>
</g>
<!-- Node2 -->
<g id="node2" class="node"><title>Node2</title>
<g id="a_node2"><a xlink:href="../../d1/dd7/class_nx_1_1_c_particle.html#a0632cb6e48fcb84a68f333fb04340755" target="_top" xlink:title=" ">
<polygon fill="white" stroke="black" points="585,-44.5 585,-63.5 684,-63.5 684,-44.5 585,-44.5"/>
<text text-anchor="middle" x="634.5" y="-51.5" font-family="Helvetica,sans-Serif" font-size="10.00">Nx::CParticle::emit</text>
</a>
</g>
</g>
<!-- Node1&#45;&gt;Node2 -->
<g id="edge1" class="edge"><title>Node1&#45;&gt;Node2</title>
<path fill="none" stroke="midnightblue" d="M717.687,-41.6277C706.535,-43.3065 694.945,-45.0513 684.107,-46.6829"/>
<polygon fill="midnightblue" stroke="midnightblue" points="718.404,-45.0593 727.772,-40.1096 717.362,-38.1373 718.404,-45.0593"/>
</g>
<!-- Node5 -->
<g id="node5" class="node"><title>Node5</title>
<g id="a_node5"><a xlink:href="../../d1/dd7/class_nx_1_1_c_particle.html#a95acfbac9ce21cdff3640b38aca260a8" target="_top" xlink:title=" ">
<polygon fill="white" stroke="black" points="577,-3.5 577,-22.5 692,-22.5 692,-3.5 577,-3.5"/>
<text text-anchor="middle" x="634.5" y="-10.5" font-family="Helvetica,sans-Serif" font-size="10.00">Nx::CParticle::process</text>
</a>
</g>
</g>
<!-- Node1&#45;&gt;Node5 -->
<g id="edge4" class="edge"><title>Node1&#45;&gt;Node5</title>
<path fill="none" stroke="midnightblue" d="M717.71,-24.7864C709.333,-23.5854 700.709,-22.3489 692.341,-21.1492"/>
<polygon fill="midnightblue" stroke="midnightblue" points="717.376,-28.2742 727.772,-26.2289 718.37,-21.3451 717.376,-28.2742"/>
</g>
<!-- Node3 -->
<g id="node3" class="node"><title>Node3</title>
<g id="a_node3"><a xlink:href="../../d1/dd7/class_nx_1_1_c_particle.html#aeb404c8005586e38c470c158e21f852d" target="_top" xlink:title=" ">
<polygon fill="white" stroke="black" points="409,-88 409,-118 541,-118 541,-88 409,-88"/>
<text text-anchor="start" x="417" y="-106" font-family="Helvetica,sans-Serif" font-size="10.00">Nx::CParticle::CallMember</text>
<text text-anchor="middle" x="475" y="-95" font-family="Helvetica,sans-Serif" font-size="10.00">Function</text>
</a>
</g>
</g>
<!-- Node2&#45;&gt;Node3 -->
<g id="edge2" class="edge"><title>Node2&#45;&gt;Node3</title>
<path fill="none" stroke="midnightblue" d="M593.184,-66.5426C572.197,-73.0719 546.385,-81.1024 524.333,-87.963"/>
<polygon fill="midnightblue" stroke="midnightblue" points="594.25,-69.8768 602.759,-63.564 592.17,-63.1928 594.25,-69.8768"/>
</g>
<!-- Node4 -->
<g id="node4" class="node"><title>Node4</title>
<g id="a_node4"><a xlink:href="../../d1/dd0/class_nx_1_1_c_xbox_particle_flat.html#a775cc7085ed8250be056b55b569b5133" target="_top" xlink:title=" ">
<polygon fill="white" stroke="black" points="419,-39 419,-69 531,-69 531,-39 419,-39"/>
<text text-anchor="start" x="427" y="-57" font-family="Helvetica,sans-Serif" font-size="10.00">Nx::CXboxParticleFlat</text>
<text text-anchor="middle" x="475" y="-46" font-family="Helvetica,sans-Serif" font-size="10.00">::plat_render</text>
</a>
</g>
</g>
<!-- Node2&#45;&gt;Node4 -->
<g id="edge3" class="edge"><title>Node2&#45;&gt;Node4</title>
<path fill="none" stroke="midnightblue" d="M574.779,-54C560.531,-54 545.345,-54 531.262,-54"/>
<polygon fill="midnightblue" stroke="midnightblue" points="574.96,-57.5001 584.96,-54 574.96,-50.5001 574.96,-57.5001"/>
</g>
<!-- Node6 -->
<g id="node6" class="node"><title>Node6</title>
<g id="a_node6"><a xlink:href="../../d1/d06/namespace_nx.html#a01eff0a98fb223d901962041cc49abe4" target="_top" xlink:title=" ">
<polygon fill="white" stroke="black" points="419.5,-0.5 419.5,-19.5 530.5,-19.5 530.5,-0.5 419.5,-0.5"/>
<text text-anchor="middle" x="475" y="-7.5" font-family="Helvetica,sans-Serif" font-size="10.00">Nx::process_particles</text>
</a>
</g>
</g>
<!-- Node5&#45;&gt;Node6 -->
<g id="edge5" class="edge"><title>Node5&#45;&gt;Node6</title>
<path fill="none" stroke="midnightblue" d="M566.309,-11.7202C554.417,-11.4937 542.166,-11.2603 530.671,-11.0414"/>
<polygon fill="midnightblue" stroke="midnightblue" points="566.574,-15.2258 576.639,-11.9169 566.707,-8.22703 566.574,-15.2258"/>
</g>
<!-- Node7 -->
<g id="node7" class="node"><title>Node7</title>
<g id="a_node7"><a xlink:href="../../d9/d8c/class_nx_1_1_c_engine.html#ace274d6d74746eb2398ce51e6c5a5f30" target="_top" xlink:title=" ">
<polygon fill="white" stroke="black" points="234,-0.5 234,-19.5 373,-19.5 373,-0.5 234,-0.5"/>
<text text-anchor="middle" x="303.5" y="-7.5" font-family="Helvetica,sans-Serif" font-size="10.00">Nx::CEngine::sRenderWorld</text>
</a>
</g>
</g>
<!-- Node6&#45;&gt;Node7 -->
<g id="edge6" class="edge"><title>Node6&#45;&gt;Node7</title>
<path fill="none" stroke="midnightblue" d="M409.248,-10C397.465,-10 385.136,-10 373.244,-10"/>
<polygon fill="midnightblue" stroke="midnightblue" points="409.436,-13.5001 419.436,-10 409.436,-6.5001 409.436,-13.5001"/>
</g>
<!-- Node8 -->
<g id="node8" class="node"><title>Node8</title>
<g id="a_node8"><a xlink:href="../../d3/d66/class_mlp_1_1_manager.html#a118bb3db98dd133cea15b15c288b29f0" target="_top" xlink:title=" ">
<polygon fill="white" stroke="black" points="74,-0.5 74,-19.5 198,-19.5 198,-0.5 74,-0.5"/>
<text text-anchor="middle" x="136" y="-7.5" font-family="Helvetica,sans-Serif" font-size="10.00">Mlp::Manager::MainLoop</text>
</a>
</g>
</g>
<!-- Node7&#45;&gt;Node8 -->
<g id="edge7" class="edge"><title>Node7&#45;&gt;Node8</title>
<path fill="none" stroke="midnightblue" d="M223.714,-10C215.123,-10 206.474,-10 198.14,-10"/>
<polygon fill="midnightblue" stroke="midnightblue" points="223.751,-13.5001 233.751,-10 223.751,-6.5001 223.751,-13.5001"/>
</g>
<!-- Node9 -->
<g id="node9" class="node"><title>Node9</title>
<g id="a_node9"><a xlink:href="../../d5/d12/_main_8cpp.html#a0e18e794c708408ef1dec237965cb73d" target="_top" xlink:title=" ">
<polygon fill="white" stroke="black" points="0,-0.5 0,-19.5 38,-19.5 38,-0.5 0,-0.5"/>
<text text-anchor="middle" x="19" y="-7.5" font-family="Helvetica,sans-Serif" font-size="10.00">main</text>
</a>
</g>
</g>
<!-- Node8&#45;&gt;Node9 -->
<g id="edge8" class="edge"><title>Node8&#45;&gt;Node9</title>
<path fill="none" stroke="midnightblue" d="M63.7713,-10C54.2902,-10 45.3381,-10 38.03,-10"/>
<polygon fill="midnightblue" stroke="midnightblue" points="63.7963,-13.5001 73.7962,-10 63.7962,-6.5001 63.7963,-13.5001"/>
</g>
</g>
</svg>
