<?xml version="1.0" encoding="UTF-8" standalone="no"?>
<!DOCTYPE svg PUBLIC "-//W3C//DTD SVG 1.1//EN"
 "http://www.w3.org/Graphics/SVG/1.1/DTD/svg11.dtd">
<!-- Generated by graphviz version 2.38.0 (20140413.2041)
 -->
<!-- Title: NxPs2::CVu1Context::Init Pages: 1 -->
<!--zoomable 241 -->
<svg id="main" version="1.1" xmlns="http://www.w3.org/2000/svg" xmlns:xlink="http://www.w3.org/1999/xlink" xml:space="preserve" onload="init(evt)">
<style type="text/css"><![CDATA[
.edge:hover path { stroke: red; }
.edge:hover polygon { stroke: red; fill: red; }
]]></style>
<script type="text/javascript"><![CDATA[
var edges = document.getElementsByTagName('g');
if (edges && edges.length) {
  for (var i=0;i<edges.length;i++) {
    if (edges[i].id.substr(0,4)=='edge') {
      edges[i].setAttribute('class','edge');
    }
  }
}
]]></script>
        <defs>
                <circle id="rim" cx="0" cy="0" r="7"/>
                <circle id="rim2" cx="0" cy="0" r="3.5"/>
                <g id="zoomPlus">
                        <use xlink:href="#rim" fill="#404040">
                                <set attributeName="fill" to="#808080" begin="zoomplus.mouseover" end="zoomplus.mouseout"/>
                        </use>
                        <path d="M-4,0h8M0,-4v8" fill="none" stroke="white" stroke-width="1.5" pointer-events="none"/>
                </g>
                <g id="zoomMin">
                        <use xlink:href="#rim" fill="#404040">
                                <set attributeName="fill" to="#808080" begin="zoomminus.mouseover" end="zoomminus.mouseout"/>
                        </use>
                        <path d="M-4,0h8" fill="none" stroke="white" stroke-width="1.5" pointer-events="none"/>
                </g>
                <g id="dirArrow">
                        <path fill="none" stroke="white" stroke-width="1.5" d="M0,-3.0v7 M-2.5,-0.5L0,-3.0L2.5,-0.5"/>
                </g>
               <g id="resetDef">
                       <use xlink:href="#rim2" fill="#404040">
                               <set attributeName="fill" to="#808080" begin="reset.mouseover" end="reset.mouseout"/>
                       </use>
               </g>
        </defs>

<script type="text/javascript">
var viewWidth = 535;
var viewHeight = 241;
var sectionId = 'dynsection-3';
</script>
<script xlink:href="../../svgpan.js"/>
<svg id="graph" class="graph">
<g id="viewport">
<title>NxPs2::CVu1Context::Init</title>
<polygon fill="white" stroke="none" points="-4,4 -4,-237 531,-237 531,4 -4,4"/>
<!-- Node1 -->
<g id="node1" class="node"><title>Node1</title>
<g id="a_node1"><a xlink:title=" ">
<polygon fill="#bfbfbf" stroke="black" points="0,-101.5 0,-131.5 110,-131.5 110,-101.5 0,-101.5"/>
<text text-anchor="start" x="8" y="-119.5" font-family="Helvetica,sans-Serif" font-size="10.00">NxPs2::CVu1Context</text>
<text text-anchor="middle" x="55" y="-108.5" font-family="Helvetica,sans-Serif" font-size="10.00">::Init</text>
</a>
</g>
</g>
<!-- Node2 -->
<g id="node2" class="node"><title>Node2</title>
<g id="a_node2"><a xlink:href="../../d9/d43/class_nx_ps2_1_1_c_vu1_context.html#a3228a4ae95ab934aa1b031854e4dd9c7" target="_top" xlink:title=" ">
<polygon fill="white" stroke="black" points="146,-202.5 146,-232.5 256,-232.5 256,-202.5 146,-202.5"/>
<text text-anchor="start" x="154" y="-220.5" font-family="Helvetica,sans-Serif" font-size="10.00">NxPs2::CVu1Context</text>
<text text-anchor="middle" x="201" y="-209.5" font-family="Helvetica,sans-Serif" font-size="10.00">::SetExtended</text>
</a>
</g>
</g>
<!-- Node1&#45;&gt;Node2 -->
<g id="edge1" class="edge"><title>Node1&#45;&gt;Node2</title>
<path fill="none" stroke="midnightblue" d="M71.2449,-131.608C88.3819,-148.035 117.544,-174.364 146,-192.5 148.788,-194.277 151.722,-196 154.724,-197.655"/>
<polygon fill="midnightblue" stroke="midnightblue" points="153.36,-200.891 163.846,-202.403 156.592,-194.682 153.36,-200.891"/>
</g>
<!-- Node3 -->
<g id="node3" class="node"><title>Node3</title>
<g id="a_node3"><a xlink:href="../../d5/db1/class_nx_ps2_1_1vif.html#acfbb123e2487087243ff386405ec1776" target="_top" xlink:title=" ">
<polygon fill="white" stroke="black" points="149,-164 149,-183 253,-183 253,-164 149,-164"/>
<text text-anchor="middle" x="201" y="-171" font-family="Helvetica,sans-Serif" font-size="10.00">NxPs2::vif::STCYCL</text>
</a>
</g>
</g>
<!-- Node1&#45;&gt;Node3 -->
<g id="edge2" class="edge"><title>Node1&#45;&gt;Node3</title>
<path fill="none" stroke="midnightblue" d="M90.4165,-131.614C107.102,-138.792 127.491,-147.344 146,-154.5 151.214,-156.516 156.744,-158.563 162.199,-160.531"/>
<polygon fill="midnightblue" stroke="midnightblue" points="161.259,-163.911 171.853,-163.962 163.603,-157.315 161.259,-163.911"/>
</g>
<!-- Node6 -->
<g id="node6" class="node"><title>Node6</title>
<g id="a_node6"><a xlink:href="../../d5/db1/class_nx_ps2_1_1vif.html#abfd4d5302b919ba203ede96d1d07ca8c" target="_top" xlink:title=" ">
<polygon fill="white" stroke="black" points="147.5,-88 147.5,-107 254.5,-107 254.5,-88 147.5,-88"/>
<text text-anchor="middle" x="201" y="-95" font-family="Helvetica,sans-Serif" font-size="10.00">NxPs2::vif::STMASK</text>
</a>
</g>
</g>
<!-- Node1&#45;&gt;Node6 -->
<g id="edge5" class="edge"><title>Node1&#45;&gt;Node6</title>
<path fill="none" stroke="midnightblue" d="M110.03,-109.371C118.844,-108.208 128.041,-106.995 137.046,-105.806"/>
<polygon fill="midnightblue" stroke="midnightblue" points="137.645,-109.258 147.102,-104.48 136.73,-102.318 137.645,-109.258"/>
</g>
<!-- Node7 -->
<g id="node7" class="node"><title>Node7</title>
<g id="a_node7"><a xlink:href="../../d5/df5/class_nx_ps2_1_1gif.html#a3f6f09d37c130d1f679d4848002141c3" target="_top" xlink:title=" ">
<polygon fill="white" stroke="black" points="292,-50 292,-69 381,-69 381,-50 292,-50"/>
<text text-anchor="middle" x="336.5" y="-57" font-family="Helvetica,sans-Serif" font-size="10.00">NxPs2::gif::Tag1</text>
</a>
</g>
</g>
<!-- Node1&#45;&gt;Node7 -->
<g id="edge8" class="edge"><title>Node1&#45;&gt;Node7</title>
<path fill="none" stroke="midnightblue" d="M85.6279,-101.332C102.815,-93.217 125.128,-83.8233 146,-78.5 190.807,-67.0722 243.212,-62.46 281.542,-60.6272"/>
<polygon fill="midnightblue" stroke="midnightblue" points="282.121,-64.1057 291.962,-60.1806 281.821,-57.1121 282.121,-64.1057"/>
</g>
<!-- Node8 -->
<g id="node8" class="node"><title>Node8</title>
<g id="a_node8"><a xlink:href="../../d5/db1/class_nx_ps2_1_1vif.html#a925526d7f124f774f6844dd7c4209d92" target="_top" xlink:title=" ">
<polygon fill="white" stroke="black" points="147.5,-126 147.5,-145 254.5,-145 254.5,-126 147.5,-126"/>
<text text-anchor="middle" x="201" y="-133" font-family="Helvetica,sans-Serif" font-size="10.00">NxPs2::vif::UNPACK</text>
</a>
</g>
</g>
<!-- Node1&#45;&gt;Node8 -->
<g id="edge10" class="edge"><title>Node1&#45;&gt;Node8</title>
<path fill="none" stroke="midnightblue" d="M110.03,-123.629C118.844,-124.792 128.041,-126.005 137.046,-127.194"/>
<polygon fill="midnightblue" stroke="midnightblue" points="136.73,-130.682 147.102,-128.52 137.645,-123.742 136.73,-130.682"/>
</g>
<!-- Node9 -->
<g id="node9" class="node"><title>Node9</title>
<g id="a_node9"><a xlink:href="../../d9/d43/class_nx_ps2_1_1_c_vu1_context.html#a8a2de3e8f380ebc4c2533314c09fa266" target="_top" xlink:title=" ">
<polygon fill="white" stroke="black" points="146,-0.5 146,-30.5 256,-30.5 256,-0.5 146,-0.5"/>
<text text-anchor="start" x="154" y="-18.5" font-family="Helvetica,sans-Serif" font-size="10.00">NxPs2::CVu1Context</text>
<text text-anchor="middle" x="201" y="-7.5" font-family="Helvetica,sans-Serif" font-size="10.00">::update_lights</text>
</a>
</g>
</g>
<!-- Node1&#45;&gt;Node9 -->
<g id="edge12" class="edge"><title>Node1&#45;&gt;Node9</title>
<path fill="none" stroke="midnightblue" d="M73.2954,-101.481C90.9661,-86.4721 119.497,-63.1503 146,-45.5 151.032,-42.1487 156.467,-38.8186 161.883,-35.6629"/>
<polygon fill="midnightblue" stroke="midnightblue" points="163.934,-38.5229 170.905,-30.5437 160.48,-32.4346 163.934,-38.5229"/>
</g>
<!-- Node4 -->
<g id="node4" class="node"><title>Node4</title>
<g id="a_node4"><a xlink:href="../../d5/db1/class_nx_ps2_1_1vif.html#a033b234f6385fdc0b4fc469f6fbf847d" target="_top" xlink:title=" ">
<polygon fill="white" stroke="black" points="292,-126 292,-145 381,-145 381,-126 292,-126"/>
<text text-anchor="middle" x="336.5" y="-133" font-family="Helvetica,sans-Serif" font-size="10.00">NxPs2::vif::Code</text>
</a>
</g>
</g>
<!-- Node3&#45;&gt;Node4 -->
<g id="edge3" class="edge"><title>Node3&#45;&gt;Node4</title>
<path fill="none" stroke="midnightblue" d="M235.688,-163.911C252.763,-159.051 273.7,-153.091 291.982,-147.887"/>
<polygon fill="midnightblue" stroke="midnightblue" points="293.163,-151.19 301.823,-145.086 291.247,-144.457 293.163,-151.19"/>
</g>
<!-- Node5 -->
<g id="node5" class="node"><title>Node5</title>
<g id="a_node5"><a xlink:href="../../d7/d08/class_nx_ps2_1_1dma.html#a29e81437fd90a1395b4ced35c2619854" target="_top" xlink:title=" ">
<polygon fill="white" stroke="black" points="417,-88 417,-107 527,-107 527,-88 417,-88"/>
<text text-anchor="middle" x="472" y="-95" font-family="Helvetica,sans-Serif" font-size="10.00">NxPs2::dma::Store32</text>
</a>
</g>
</g>
<!-- Node4&#45;&gt;Node5 -->
<g id="edge4" class="edge"><title>Node4&#45;&gt;Node5</title>
<path fill="none" stroke="midnightblue" d="M371.188,-125.911C388.263,-121.051 409.2,-115.091 427.482,-109.887"/>
<polygon fill="midnightblue" stroke="midnightblue" points="428.663,-113.19 437.323,-107.086 426.747,-106.457 428.663,-113.19"/>
</g>
<!-- Node6&#45;&gt;Node4 -->
<g id="edge6" class="edge"><title>Node6&#45;&gt;Node4</title>
<path fill="none" stroke="midnightblue" d="M235.688,-107.089C252.763,-111.949 273.7,-117.909 291.982,-123.113"/>
<polygon fill="midnightblue" stroke="midnightblue" points="291.247,-126.543 301.823,-125.914 293.163,-119.81 291.247,-126.543"/>
</g>
<!-- Node6&#45;&gt;Node5 -->
<g id="edge7" class="edge"><title>Node6&#45;&gt;Node5</title>
<path fill="none" stroke="midnightblue" d="M254.504,-97.5C298.002,-97.5 360,-97.5 406.511,-97.5"/>
<polygon fill="midnightblue" stroke="midnightblue" points="406.784,-101 416.784,-97.5 406.784,-94.0001 406.784,-101"/>
</g>
<!-- Node7&#45;&gt;Node5 -->
<g id="edge9" class="edge"><title>Node7&#45;&gt;Node5</title>
<path fill="none" stroke="midnightblue" d="M371.188,-69.089C388.263,-73.9494 409.2,-79.9091 427.482,-85.1127"/>
<polygon fill="midnightblue" stroke="midnightblue" points="426.747,-88.5426 437.323,-87.9141 428.663,-81.81 426.747,-88.5426"/>
</g>
<!-- Node8&#45;&gt;Node4 -->
<g id="edge11" class="edge"><title>Node8&#45;&gt;Node4</title>
<path fill="none" stroke="midnightblue" d="M254.763,-135.5C263.563,-135.5 272.703,-135.5 281.533,-135.5"/>
<polygon fill="midnightblue" stroke="midnightblue" points="281.718,-139 291.718,-135.5 281.718,-132 281.718,-139"/>
</g>
</g>
</svg>
        <g id="navigator" transform="translate(0 0)" fill="#404254">
                <rect fill="#f2f5e9" fill-opacity="0.5" stroke="#606060" stroke-width=".5" x="0" y="0" width="60" height="60"/>
                <use id="zoomplus" xlink:href="#zoomPlus" x="17" y="9" onmousedown="handleZoom(evt,'in')"/>
                <use id="zoomminus" xlink:href="#zoomMin" x="42" y="9" onmousedown="handleZoom(evt,'out')"/>
                <use id="reset" xlink:href="#resetDef" x="30" y="36" onmousedown="handleReset()"/>
                <g id="arrowUp" xlink:href="#dirArrow" transform="translate(30 24)" onmousedown="handlePan(0,-1)">
                  <use xlink:href="#rim" fill="#404040">
                        <set attributeName="fill" to="#808080" begin="arrowUp.mouseover" end="arrowUp.mouseout"/>
                  </use>
                  <path fill="none" stroke="white" stroke-width="1.5" d="M0,-3.0v7 M-2.5,-0.5L0,-3.0L2.5,-0.5"/>
                </g>
                <g id="arrowRight" xlink:href="#dirArrow" transform="rotate(90) translate(36 -43)" onmousedown="handlePan(1,0)">
                  <use xlink:href="#rim" fill="#404040">
                        <set attributeName="fill" to="#808080" begin="arrowRight.mouseover" end="arrowRight.mouseout"/>
                  </use>
                  <path fill="none" stroke="white" stroke-width="1.5" d="M0,-3.0v7 M-2.5,-0.5L0,-3.0L2.5,-0.5"/>
                </g>
                <g id="arrowDown" xlink:href="#dirArrow" transform="rotate(180) translate(-30 -48)" onmousedown="handlePan(0,1)">
                  <use xlink:href="#rim" fill="#404040">
                        <set attributeName="fill" to="#808080" begin="arrowDown.mouseover" end="arrowDown.mouseout"/>
                  </use>
                  <path fill="none" stroke="white" stroke-width="1.5" d="M0,-3.0v7 M-2.5,-0.5L0,-3.0L2.5,-0.5"/>
                </g>
                <g id="arrowLeft" xlink:href="#dirArrow" transform="rotate(270) translate(-36 17)" onmousedown="handlePan(-1,0)">
                  <use xlink:href="#rim" fill="#404040">
                        <set attributeName="fill" to="#808080" begin="arrowLeft.mouseover" end="arrowLeft.mouseout"/>
                  </use>
                  <path fill="none" stroke="white" stroke-width="1.5" d="M0,-3.0v7 M-2.5,-0.5L0,-3.0L2.5,-0.5"/>
                </g>
        </g>
        <svg viewBox="0 0 15 15" width="100%" height="30px" preserveAspectRatio="xMaxYMin meet">
         <g id="arrow_out" transform="scale(0.3 0.3)">
          <a xlink:href="class_nx_ps2_1_1_c_vu1_context_a7ab0c372d1b0f14dbceeedb6c21e63a9_cgraph_org.svg" target="_base">
           <rect id="button" ry="5" rx="5" y="6" x="6" height="38" width="38"
                fill="#f2f5e9" fill-opacity="0.5" stroke="#606060" stroke-width="1.0"/>
           <path id="arrow"
             d="M 11.500037,31.436501 C 11.940474,20.09759 22.043105,11.32322 32.158766,21.979434 L 37.068811,17.246167 C 37.068811,17.246167 37.088388,32 37.088388,32 L 22.160133,31.978069 C 22.160133,31.978069 26.997745,27.140456 26.997745,27.140456 C 18.528582,18.264221 13.291696,25.230495 11.500037,31.436501 z"
             style="fill:#404040;"/>
          </a>
         </g>
        </svg>
</svg>
