<?xml version="1.0" encoding="UTF-8" standalone="no"?>
<!DOCTYPE svg PUBLIC "-//W3C//DTD SVG 1.1//EN"
 "http://www.w3.org/Graphics/SVG/1.1/DTD/svg11.dtd">
<!-- Generated by graphviz version 2.38.0 (20140413.2041)
 -->
<!-- Title: Gfx::CBonedAnimController::Update Pages: 1 -->
<svg width="816pt" height="274pt"
 viewBox="0.00 0.00 816.00 273.50" xmlns="http://www.w3.org/2000/svg" xmlns:xlink="http://www.w3.org/1999/xlink">
<g id="graph0" class="graph" transform="scale(1 1) rotate(0) translate(4 269.5)">
<title>Gfx::CBonedAnimController::Update</title>
<polygon fill="white" stroke="none" points="-4,4 -4,-269.5 812,-269.5 812,4 -4,4"/>
<!-- Node1 -->
<g id="node1" class="node"><title>Node1</title>
<g id="a_node1"><a xlink:title=" ">
<polygon fill="#bfbfbf" stroke="black" points="0,-177.5 0,-207.5 136,-207.5 136,-177.5 0,-177.5"/>
<text text-anchor="start" x="8" y="-195.5" font-family="Helvetica,sans-Serif" font-size="10.00">Gfx::CBonedAnimController</text>
<text text-anchor="middle" x="68" y="-184.5" font-family="Helvetica,sans-Serif" font-size="10.00">::Update</text>
</a>
</g>
</g>
<!-- Node2 -->
<g id="node2" class="node"><title>Node2</title>
<g id="a_node2"><a xlink:href="../../d3/dae/class_nx_1_1_c_quick_anim.html#ae9424f91614f296f71efa42b2224b58a" target="_top" xlink:title=" ">
<polygon fill="white" stroke="black" points="172,-239 172,-258 297,-258 297,-239 172,-239"/>
<text text-anchor="middle" x="234.5" y="-246" font-family="Helvetica,sans-Serif" font-size="10.00">Nx::CQuickAnim::Enable</text>
</a>
</g>
</g>
<!-- Node1&#45;&gt;Node2 -->
<g id="edge1" class="edge"><title>Node1&#45;&gt;Node2</title>
<path fill="none" stroke="midnightblue" d="M113.083,-207.507C138.846,-216.277 171.028,-227.233 195.639,-235.611"/>
<polygon fill="midnightblue" stroke="midnightblue" points="194.75,-239.006 205.344,-238.915 197.006,-232.379 194.75,-239.006"/>
</g>
<!-- Node6 -->
<g id="node6" class="node"><title>Node6</title>
<g id="a_node6"><a xlink:href="../../d0/df0/class_gfx_1_1_c_anim_channel.html#a5deb4c73e4f4dcc6b4062011e6e3fc2a" target="_top" xlink:title=" ">
<polygon fill="white" stroke="black" points="180.5,-177.5 180.5,-207.5 288.5,-207.5 288.5,-177.5 180.5,-177.5"/>
<text text-anchor="start" x="188.5" y="-195.5" font-family="Helvetica,sans-Serif" font-size="10.00">Gfx::CAnimChannel::</text>
<text text-anchor="middle" x="234.5" y="-184.5" font-family="Helvetica,sans-Serif" font-size="10.00">get_new_anim_time</text>
</a>
</g>
</g>
<!-- Node1&#45;&gt;Node6 -->
<g id="edge5" class="edge"><title>Node1&#45;&gt;Node6</title>
<path fill="none" stroke="midnightblue" d="M136.383,-192.5C147.592,-192.5 159.182,-192.5 170.282,-192.5"/>
<polygon fill="midnightblue" stroke="midnightblue" points="170.314,-196 180.314,-192.5 170.314,-189 170.314,-196"/>
</g>
<!-- Node7 -->
<g id="node7" class="node"><title>Node7</title>
<g id="a_node7"><a xlink:href="../../d1/d8d/class_gfx_1_1_c_blend_channel.html#a23863df8d9ec7112f9cd6b8e69f9dd58" target="_top" xlink:title=" ">
<polygon fill="white" stroke="black" points="177,-104.5 177,-134.5 292,-134.5 292,-104.5 177,-104.5"/>
<text text-anchor="start" x="185" y="-122.5" font-family="Helvetica,sans-Serif" font-size="10.00">Gfx::CBlendChannel</text>
<text text-anchor="middle" x="234.5" y="-111.5" font-family="Helvetica,sans-Serif" font-size="10.00">::ProcessCustomKeys</text>
</a>
</g>
</g>
<!-- Node1&#45;&gt;Node7 -->
<g id="edge6" class="edge"><title>Node1&#45;&gt;Node7</title>
<path fill="none" stroke="midnightblue" d="M103.085,-177.374C128.339,-166.167 162.948,-150.809 190.167,-138.73"/>
<polygon fill="midnightblue" stroke="midnightblue" points="191.738,-141.862 199.459,-134.606 188.899,-135.463 191.738,-141.862"/>
</g>
<!-- Node3 -->
<g id="node3" class="node"><title>Node3</title>
<g id="a_node3"><a xlink:href="../../d1/d06/namespace_nx.html#a3114de8f9a5e6e923dffdee4b490ade8" target="_top" xlink:title=" ">
<polygon fill="white" stroke="black" points="339,-246 339,-265 445,-265 445,-246 339,-246"/>
<text text-anchor="middle" x="392" y="-253" font-family="Helvetica,sans-Serif" font-size="10.00">Nx::GetCachedAnim</text>
</a>
</g>
</g>
<!-- Node2&#45;&gt;Node3 -->
<g id="edge2" class="edge"><title>Node2&#45;&gt;Node3</title>
<path fill="none" stroke="midnightblue" d="M297.405,-251.287C307.695,-251.75 318.372,-252.231 328.673,-252.694"/>
<polygon fill="midnightblue" stroke="midnightblue" points="328.673,-256.198 338.82,-253.151 328.988,-249.205 328.673,-256.198"/>
</g>
<!-- Node4 -->
<g id="node4" class="node"><title>Node4</title>
<g id="a_node4"><a xlink:href="../../d0/d30/class_ass_1_1_c_ass_man.html#a7b6692784f69c66688d7dd8ef50147b2" target="_top" xlink:title=" ">
<polygon fill="white" stroke="black" points="487,-246 487,-265 617,-265 617,-246 487,-246"/>
<text text-anchor="middle" x="552" y="-253" font-family="Helvetica,sans-Serif" font-size="10.00">Ass::CAssMan::GetAsset</text>
</a>
</g>
</g>
<!-- Node3&#45;&gt;Node4 -->
<g id="edge3" class="edge"><title>Node3&#45;&gt;Node4</title>
<path fill="none" stroke="midnightblue" d="M445.173,-255.5C455.254,-255.5 465.997,-255.5 476.628,-255.5"/>
<polygon fill="midnightblue" stroke="midnightblue" points="476.76,-259 486.76,-255.5 476.76,-252 476.76,-259"/>
</g>
<!-- Node5 -->
<g id="node5" class="node"><title>Node5</title>
<g id="a_node5"><a xlink:href="../../d0/d30/class_ass_1_1_c_ass_man.html#ae61569bfa244135dd0550d2806a01936" target="_top" xlink:title=" ">
<polygon fill="white" stroke="black" points="653,-246 653,-265 808,-265 808,-246 653,-246"/>
<text text-anchor="middle" x="730.5" y="-253" font-family="Helvetica,sans-Serif" font-size="10.00">Ass::CAssMan::AssetAllocated</text>
</a>
</g>
</g>
<!-- Node4&#45;&gt;Node5 -->
<g id="edge4" class="edge"><title>Node4&#45;&gt;Node5</title>
<path fill="none" stroke="midnightblue" d="M617.22,-255.5C625.509,-255.5 634.104,-255.5 642.68,-255.5"/>
<polygon fill="midnightblue" stroke="midnightblue" points="642.721,-259 652.721,-255.5 642.721,-252 642.721,-259"/>
</g>
<!-- Node8 -->
<g id="node8" class="node"><title>Node8</title>
<g id="a_node8"><a xlink:href="../../d1/d8d/class_gfx_1_1_c_blend_channel.html#adec6862d8df52c197a8a8a93474d51b0" target="_top" xlink:title=" ">
<polygon fill="white" stroke="black" points="340,-196.5 340,-226.5 444,-226.5 444,-196.5 340,-196.5"/>
<text text-anchor="start" x="348" y="-214.5" font-family="Helvetica,sans-Serif" font-size="10.00">Gfx::CBlendChannel</text>
<text text-anchor="middle" x="392" y="-203.5" font-family="Helvetica,sans-Serif" font-size="10.00">::GetObject</text>
</a>
</g>
</g>
<!-- Node7&#45;&gt;Node8 -->
<g id="edge7" class="edge"><title>Node7&#45;&gt;Node8</title>
<path fill="none" stroke="midnightblue" d="M254.488,-134.606C273.574,-149.332 304.214,-171.749 333,-187.5 336.007,-189.145 339.15,-190.749 342.352,-192.295"/>
<polygon fill="midnightblue" stroke="midnightblue" points="340.914,-195.486 351.461,-196.493 343.843,-189.129 340.914,-195.486"/>
</g>
<!-- Node9 -->
<g id="node9" class="node"><title>Node9</title>
<g id="a_node9"><a xlink:href="../../d1/d8d/class_gfx_1_1_c_blend_channel.html#ab64e0ed1b74c4c52c04fa82b5ddf7129" target="_top" xlink:title=" ">
<polygon fill="white" stroke="black" points="340,-147.5 340,-177.5 444,-177.5 444,-147.5 340,-147.5"/>
<text text-anchor="start" x="348" y="-165.5" font-family="Helvetica,sans-Serif" font-size="10.00">Gfx::CBlendChannel</text>
<text text-anchor="middle" x="392" y="-154.5" font-family="Helvetica,sans-Serif" font-size="10.00">::GetStatus</text>
</a>
</g>
</g>
<!-- Node7&#45;&gt;Node9 -->
<g id="edge8" class="edge"><title>Node7&#45;&gt;Node9</title>
<path fill="none" stroke="midnightblue" d="M289.886,-134.539C302.798,-138.11 316.657,-141.942 329.847,-145.59"/>
<polygon fill="midnightblue" stroke="midnightblue" points="329.206,-149.044 339.777,-148.335 331.072,-142.297 329.206,-149.044"/>
</g>
<!-- Node10 -->
<g id="node10" class="node"><title>Node10</title>
<g id="a_node10"><a xlink:href="../../d7/dea/class_gfx_1_1_c_custom_anim_key.html#a0eb4f5a31fdbfbd3ee6686e446b87aba" target="_top" xlink:title=" ">
<polygon fill="white" stroke="black" points="333,-98.5 333,-128.5 451,-128.5 451,-98.5 333,-98.5"/>
<text text-anchor="start" x="341" y="-116.5" font-family="Helvetica,sans-Serif" font-size="10.00">Gfx::CCustomAnimKey</text>
<text text-anchor="middle" x="392" y="-105.5" font-family="Helvetica,sans-Serif" font-size="10.00">::ProcessKey</text>
</a>
</g>
</g>
<!-- Node7&#45;&gt;Node10 -->
<g id="edge9" class="edge"><title>Node7&#45;&gt;Node10</title>
<path fill="none" stroke="midnightblue" d="M292.079,-117.317C302.044,-116.932 312.511,-116.529 322.754,-116.133"/>
<polygon fill="midnightblue" stroke="midnightblue" points="323.039,-119.625 332.896,-115.742 322.769,-112.63 323.039,-119.625"/>
</g>
<!-- Node11 -->
<g id="node11" class="node"><title>Node11</title>
<g id="a_node11"><a xlink:href="../../d1/d8d/class_gfx_1_1_c_blend_channel.html#a3f9c32ffb73435616b33614bc4976f36" target="_top" xlink:title=" ">
<polygon fill="white" stroke="black" points="340,-49.5 340,-79.5 444,-79.5 444,-49.5 340,-49.5"/>
<text text-anchor="start" x="348" y="-67.5" font-family="Helvetica,sans-Serif" font-size="10.00">Gfx::CBlendChannel</text>
<text text-anchor="middle" x="392" y="-56.5" font-family="Helvetica,sans-Serif" font-size="10.00">::ResetCustomKeys</text>
</a>
</g>
</g>
<!-- Node7&#45;&gt;Node11 -->
<g id="edge10" class="edge"><title>Node7&#45;&gt;Node11</title>
<path fill="none" stroke="midnightblue" d="M277.991,-104.471C296.847,-97.8018 319.213,-89.891 339.051,-82.8742"/>
<polygon fill="midnightblue" stroke="midnightblue" points="340.3,-86.1451 348.56,-79.5108 337.966,-79.5457 340.3,-86.1451"/>
</g>
<!-- Node13 -->
<g id="node13" class="node"><title>Node13</title>
<g id="a_node13"><a xlink:href="../../d7/dea/class_gfx_1_1_c_custom_anim_key.html#ae4204f3e646a9efb2ccbc1d206e9e5a4" target="_top" xlink:title=" ">
<polygon fill="white" stroke="black" points="333,-0.5 333,-30.5 451,-30.5 451,-0.5 333,-0.5"/>
<text text-anchor="start" x="341" y="-18.5" font-family="Helvetica,sans-Serif" font-size="10.00">Gfx::CCustomAnimKey</text>
<text text-anchor="middle" x="392" y="-7.5" font-family="Helvetica,sans-Serif" font-size="10.00">::WithinRange</text>
</a>
</g>
</g>
<!-- Node7&#45;&gt;Node13 -->
<g id="edge12" class="edge"><title>Node7&#45;&gt;Node13</title>
<path fill="none" stroke="midnightblue" d="M250.956,-104.341C269.316,-86.9497 301.444,-58.404 333,-39.5 335.626,-37.9267 338.375,-36.4096 341.187,-34.9555"/>
<polygon fill="midnightblue" stroke="midnightblue" points="342.84,-38.0436 350.313,-30.5332 339.788,-31.7442 342.84,-38.0436"/>
</g>
<!-- Node12 -->
<g id="node12" class="node"><title>Node12</title>
<g id="a_node12"><a xlink:href="../../d7/dea/class_gfx_1_1_c_custom_anim_key.html#a010cab7b66f03630cef78a034961012d" target="_top" xlink:title=" ">
<polygon fill="white" stroke="black" points="493,-49.5 493,-79.5 611,-79.5 611,-49.5 493,-49.5"/>
<text text-anchor="start" x="501" y="-67.5" font-family="Helvetica,sans-Serif" font-size="10.00">Gfx::CCustomAnimKey</text>
<text text-anchor="middle" x="552" y="-56.5" font-family="Helvetica,sans-Serif" font-size="10.00">::SetActive</text>
</a>
</g>
</g>
<!-- Node11&#45;&gt;Node12 -->
<g id="edge11" class="edge"><title>Node11&#45;&gt;Node12</title>
<path fill="none" stroke="midnightblue" d="M444.298,-64.5C456.527,-64.5 469.771,-64.5 482.631,-64.5"/>
<polygon fill="midnightblue" stroke="midnightblue" points="482.836,-68.0001 492.836,-64.5 482.836,-61.0001 482.836,-68.0001"/>
</g>
</g>
</svg>
