<?xml version="1.0" encoding="UTF-8" standalone="no"?>
<!DOCTYPE svg PUBLIC "-//W3C//DTD SVG 1.1//EN"
 "http://www.w3.org/Graphics/SVG/1.1/DTD/svg11.dtd">
<!-- Generated by graphviz version 2.38.0 (20140413.2041)
 -->
<!-- Title: Obj::CObjectHookNode::GetNext Pages: 1 -->
<svg width="926pt" height="88pt"
 viewBox="0.00 0.00 926.00 88.00" xmlns="http://www.w3.org/2000/svg" xmlns:xlink="http://www.w3.org/1999/xlink">
<g id="graph0" class="graph" transform="scale(1 1) rotate(0) translate(4 84)">
<title>Obj::CObjectHookNode::GetNext</title>
<polygon fill="white" stroke="none" points="-4,4 -4,-84 922,-84 922,4 -4,4"/>
<!-- Node1 -->
<g id="node1" class="node"><title>Node1</title>
<g id="a_node1"><a xlink:title=" ">
<polygon fill="#bfbfbf" stroke="black" points="800,-24.5 800,-54.5 918,-54.5 918,-24.5 800,-24.5"/>
<text text-anchor="start" x="808" y="-42.5" font-family="Helvetica,sans-Serif" font-size="10.00">Obj::CObjectHookNode</text>
<text text-anchor="middle" x="859" y="-31.5" font-family="Helvetica,sans-Serif" font-size="10.00">::GetNext</text>
</a>
</g>
</g>
<!-- Node2 -->
<g id="node2" class="node"><title>Node2</title>
<g id="a_node2"><a xlink:href="../../db/db0/class_obj_1_1_c_skitch_component.html#a76bcbb444b1b941b73137e3a94705517" target="_top" xlink:title=" ">
<polygon fill="white" stroke="black" points="642,-49.5 642,-79.5 764,-79.5 764,-49.5 642,-49.5"/>
<text text-anchor="start" x="650" y="-67.5" font-family="Helvetica,sans-Serif" font-size="10.00">Obj::CSkitchComponent</text>
<text text-anchor="middle" x="703" y="-56.5" font-family="Helvetica,sans-Serif" font-size="10.00">::GetIndexedSkitchPoint</text>
</a>
</g>
</g>
<!-- Node1&#45;&gt;Node2 -->
<g id="edge1" class="edge"><title>Node1&#45;&gt;Node2</title>
<path fill="none" stroke="midnightblue" d="M789.814,-50.5692C781.245,-51.9602 772.529,-53.3752 764.097,-54.744"/>
<polygon fill="midnightblue" stroke="midnightblue" points="790.469,-54.0087 799.779,-48.9514 789.348,-47.0991 790.469,-54.0087"/>
</g>
<!-- Node8 -->
<g id="node8" class="node"><title>Node8</title>
<g id="a_node8"><a xlink:href="../../db/db0/class_obj_1_1_c_skitch_component.html#ada0e4d90b1dbd472cce96e896e9ae554" target="_top" xlink:title=" ">
<polygon fill="white" stroke="black" points="642,-0.5 642,-30.5 764,-30.5 764,-0.5 642,-0.5"/>
<text text-anchor="start" x="650" y="-18.5" font-family="Helvetica,sans-Serif" font-size="10.00">Obj::CSkitchComponent</text>
<text text-anchor="middle" x="703" y="-7.5" font-family="Helvetica,sans-Serif" font-size="10.00">::GetNearestSkitchPoint</text>
</a>
</g>
</g>
<!-- Node1&#45;&gt;Node8 -->
<g id="edge7" class="edge"><title>Node1&#45;&gt;Node8</title>
<path fill="none" stroke="midnightblue" d="M789.814,-28.8736C781.245,-27.5382 772.529,-26.1798 764.097,-24.8657"/>
<polygon fill="midnightblue" stroke="midnightblue" points="789.359,-32.3449 799.779,-30.4266 790.437,-25.4284 789.359,-32.3449"/>
</g>
<!-- Node3 -->
<g id="node3" class="node"><title>Node3</title>
<g id="a_node3"><a xlink:href="../../d2/d61/class_obj_1_1_c_skater_core_physics_component.html#a52dab9cc7f4da19e94c0611edd62ebf4" target="_top" xlink:title=" ">
<polygon fill="white" stroke="black" points="428,-24.5 428,-54.5 606,-54.5 606,-24.5 428,-24.5"/>
<text text-anchor="start" x="436" y="-42.5" font-family="Helvetica,sans-Serif" font-size="10.00">Obj::CSkaterCorePhysicsComponent</text>
<text text-anchor="middle" x="517" y="-31.5" font-family="Helvetica,sans-Serif" font-size="10.00">::move_to_skitch_point</text>
</a>
</g>
</g>
<!-- Node2&#45;&gt;Node3 -->
<g id="edge2" class="edge"><title>Node2&#45;&gt;Node3</title>
<path fill="none" stroke="midnightblue" d="M631.678,-54.9454C623.3,-53.807 614.667,-52.6341 606.08,-51.4674"/>
<polygon fill="midnightblue" stroke="midnightblue" points="631.371,-58.4358 641.752,-56.3141 632.314,-51.4995 631.371,-58.4358"/>
</g>
<!-- Node4 -->
<g id="node4" class="node"><title>Node4</title>
<g id="a_node4"><a xlink:href="../../d2/d61/class_obj_1_1_c_skater_core_physics_component.html#ac0a7b3aab2a95b3824bf411253578223" target="_top" xlink:title=" ">
<polygon fill="white" stroke="black" points="214,-49.5 214,-79.5 392,-79.5 392,-49.5 214,-49.5"/>
<text text-anchor="start" x="222" y="-67.5" font-family="Helvetica,sans-Serif" font-size="10.00">Obj::CSkaterCorePhysicsComponent</text>
<text text-anchor="middle" x="303" y="-56.5" font-family="Helvetica,sans-Serif" font-size="10.00">::do_on_ground_physics</text>
</a>
</g>
</g>
<!-- Node3&#45;&gt;Node4 -->
<g id="edge3" class="edge"><title>Node3&#45;&gt;Node4</title>
<path fill="none" stroke="midnightblue" d="M417.893,-51.0693C409.3,-52.0826 400.637,-53.1041 392.132,-54.107"/>
<polygon fill="midnightblue" stroke="midnightblue" points="418.413,-54.5322 427.935,-49.8851 417.594,-47.5804 418.413,-54.5322"/>
</g>
<!-- Node6 -->
<g id="node6" class="node"><title>Node6</title>
<g id="a_node6"><a xlink:href="../../d2/d61/class_obj_1_1_c_skater_core_physics_component.html#a34728b50b1cf0153e0ff737c935c71d8" target="_top" xlink:title=" ">
<polygon fill="white" stroke="black" points="214,-0.5 214,-30.5 392,-30.5 392,-0.5 214,-0.5"/>
<text text-anchor="start" x="222" y="-18.5" font-family="Helvetica,sans-Serif" font-size="10.00">Obj::CSkaterCorePhysicsComponent</text>
<text text-anchor="middle" x="303" y="-7.5" font-family="Helvetica,sans-Serif" font-size="10.00">::start_skitch</text>
</a>
</g>
</g>
<!-- Node3&#45;&gt;Node6 -->
<g id="edge5" class="edge"><title>Node3&#45;&gt;Node6</title>
<path fill="none" stroke="midnightblue" d="M417.893,-28.3935C409.3,-27.4207 400.637,-26.44 392.132,-25.4773"/>
<polygon fill="midnightblue" stroke="midnightblue" points="417.604,-31.8831 427.935,-29.5303 418.392,-24.9276 417.604,-31.8831"/>
</g>
<!-- Node5 -->
<g id="node5" class="node"><title>Node5</title>
<g id="a_node5"><a xlink:href="../../d2/d61/class_obj_1_1_c_skater_core_physics_component.html#ab33036e6e0db072615c967ea6392832e" target="_top" xlink:title=" ">
<polygon fill="white" stroke="black" points="0,-49.5 0,-79.5 178,-79.5 178,-49.5 0,-49.5"/>
<text text-anchor="start" x="8" y="-67.5" font-family="Helvetica,sans-Serif" font-size="10.00">Obj::CSkaterCorePhysicsComponent</text>
<text text-anchor="middle" x="89" y="-56.5" font-family="Helvetica,sans-Serif" font-size="10.00">::Update</text>
</a>
</g>
</g>
<!-- Node4&#45;&gt;Node5 -->
<g id="edge4" class="edge"><title>Node4&#45;&gt;Node5</title>
<path fill="none" stroke="midnightblue" d="M203.893,-64.5C195.3,-64.5 186.637,-64.5 178.132,-64.5"/>
<polygon fill="midnightblue" stroke="midnightblue" points="203.935,-68.0001 213.935,-64.5 203.935,-61.0001 203.935,-68.0001"/>
</g>
<!-- Node7 -->
<g id="node7" class="node"><title>Node7</title>
<g id="a_node7"><a xlink:href="../../d2/d61/class_obj_1_1_c_skater_core_physics_component.html#a8a203adc7b9d259c8374d3632e38b74f" target="_top" xlink:title=" ">
<polygon fill="white" stroke="black" points="0,-0.5 0,-30.5 178,-30.5 178,-0.5 0,-0.5"/>
<text text-anchor="start" x="8" y="-18.5" font-family="Helvetica,sans-Serif" font-size="10.00">Obj::CSkaterCorePhysicsComponent</text>
<text text-anchor="middle" x="89" y="-7.5" font-family="Helvetica,sans-Serif" font-size="10.00">::CallMemberFunction</text>
</a>
</g>
</g>
<!-- Node6&#45;&gt;Node7 -->
<g id="edge6" class="edge"><title>Node6&#45;&gt;Node7</title>
<path fill="none" stroke="midnightblue" d="M203.893,-15.5C195.3,-15.5 186.637,-15.5 178.132,-15.5"/>
<polygon fill="midnightblue" stroke="midnightblue" points="203.935,-19.0001 213.935,-15.5 203.935,-12.0001 203.935,-19.0001"/>
</g>
<!-- Node8&#45;&gt;Node3 -->
<g id="edge8" class="edge"><title>Node8&#45;&gt;Node3</title>
<path fill="none" stroke="midnightblue" d="M631.678,-24.6724C623.3,-25.7652 614.667,-26.8912 606.08,-28.0113"/>
<polygon fill="midnightblue" stroke="midnightblue" points="632.288,-28.1226 641.752,-23.3585 631.383,-21.1814 632.288,-28.1226"/>
</g>
</g>
</svg>
