<?xml version="1.0" encoding="UTF-8" standalone="no"?>
<!DOCTYPE svg PUBLIC "-//W3C//DTD SVG 1.1//EN"
 "http://www.w3.org/Graphics/SVG/1.1/DTD/svg11.dtd">
<!-- Generated by graphviz version 2.38.0 (20140413.2041)
 -->
<!-- Title: Mem::Allocator::ParentRegion Pages: 1 -->
<svg width="704pt" height="78pt"
 viewBox="0.00 0.00 704.00 77.50" xmlns="http://www.w3.org/2000/svg" xmlns:xlink="http://www.w3.org/1999/xlink">
<g id="graph0" class="graph" transform="scale(1 1) rotate(0) translate(4 73.5)">
<title>Mem::Allocator::ParentRegion</title>
<polygon fill="white" stroke="none" points="-4,4 -4,-73.5 700,-73.5 700,4 -4,4"/>
<!-- Node1 -->
<g id="node1" class="node"><title>Node1</title>
<g id="a_node1"><a xlink:title=" ">
<polygon fill="#bfbfbf" stroke="black" points="549,-28 549,-47 696,-47 696,-28 549,-28"/>
<text text-anchor="middle" x="622.5" y="-35" font-family="Helvetica,sans-Serif" font-size="10.00">Mem::Allocator::ParentRegion</text>
</a>
</g>
</g>
<!-- Node2 -->
<g id="node2" class="node"><title>Node2</title>
<g id="a_node2"><a xlink:href="../../de/d90/heap_8cpp.html#aca55b8bd5cab65fc6213da019b3874ed" target="_top" xlink:title=" ">
<polygon fill="white" stroke="black" points="427.5,-50 427.5,-69 494.5,-69 494.5,-50 427.5,-50"/>
<text text-anchor="middle" x="461" y="-57" font-family="Helvetica,sans-Serif" font-size="10.00">dump_heap</text>
</a>
</g>
</g>
<!-- Node1&#45;&gt;Node2 -->
<g id="edge1" class="edge"><title>Node1&#45;&gt;Node2</title>
<path fill="none" stroke="midnightblue" d="M542.555,-48.389C525.669,-50.7181 508.735,-53.0538 494.781,-54.9785"/>
<polygon fill="midnightblue" stroke="midnightblue" points="543.041,-51.8552 552.469,-47.0216 542.084,-44.9209 543.041,-51.8552"/>
</g>
<!-- Node3 -->
<g id="node3" class="node"><title>Node3</title>
<g id="a_node3"><a xlink:href="../../d9/d8c/class_nx_1_1_c_engine.html#ab07e94b0d679732290471b10cd1ef1b6" target="_top" xlink:title=" ">
<polygon fill="white" stroke="black" points="409,-0.5 409,-30.5 513,-30.5 513,-0.5 409,-0.5"/>
<text text-anchor="start" x="417" y="-18.5" font-family="Helvetica,sans-Serif" font-size="10.00">Nx::CEngine::s_plat</text>
<text text-anchor="middle" x="461" y="-7.5" font-family="Helvetica,sans-Serif" font-size="10.00">_render_world</text>
</a>
</g>
</g>
<!-- Node1&#45;&gt;Node3 -->
<g id="edge2" class="edge"><title>Node1&#45;&gt;Node3</title>
<path fill="none" stroke="midnightblue" d="M542.256,-26.5699C532.429,-25.2144 522.592,-23.8575 513.341,-22.5816"/>
<polygon fill="midnightblue" stroke="midnightblue" points="542.084,-30.0791 552.469,-27.9784 543.041,-23.1448 542.084,-30.0791"/>
</g>
<!-- Node4 -->
<g id="node4" class="node"><title>Node4</title>
<g id="a_node4"><a xlink:href="../../d9/d8c/class_nx_1_1_c_engine.html#ace274d6d74746eb2398ce51e6c5a5f30" target="_top" xlink:title=" ">
<polygon fill="white" stroke="black" points="234,-6 234,-25 373,-25 373,-6 234,-6"/>
<text text-anchor="middle" x="303.5" y="-13" font-family="Helvetica,sans-Serif" font-size="10.00">Nx::CEngine::sRenderWorld</text>
</a>
</g>
</g>
<!-- Node3&#45;&gt;Node4 -->
<g id="edge3" class="edge"><title>Node3&#45;&gt;Node4</title>
<path fill="none" stroke="midnightblue" d="M398.648,-15.5C390.316,-15.5 381.722,-15.5 373.27,-15.5"/>
<polygon fill="midnightblue" stroke="midnightblue" points="398.653,-19.0001 408.653,-15.5 398.652,-12.0001 398.653,-19.0001"/>
</g>
<!-- Node5 -->
<g id="node5" class="node"><title>Node5</title>
<g id="a_node5"><a xlink:href="../../d3/d66/class_mlp_1_1_manager.html#a118bb3db98dd133cea15b15c288b29f0" target="_top" xlink:title=" ">
<polygon fill="white" stroke="black" points="74,-6 74,-25 198,-25 198,-6 74,-6"/>
<text text-anchor="middle" x="136" y="-13" font-family="Helvetica,sans-Serif" font-size="10.00">Mlp::Manager::MainLoop</text>
</a>
</g>
</g>
<!-- Node4&#45;&gt;Node5 -->
<g id="edge4" class="edge"><title>Node4&#45;&gt;Node5</title>
<path fill="none" stroke="midnightblue" d="M223.714,-15.5C215.123,-15.5 206.474,-15.5 198.14,-15.5"/>
<polygon fill="midnightblue" stroke="midnightblue" points="223.751,-19.0001 233.751,-15.5 223.751,-12.0001 223.751,-19.0001"/>
</g>
<!-- Node6 -->
<g id="node6" class="node"><title>Node6</title>
<g id="a_node6"><a xlink:href="../../d5/d12/_main_8cpp.html#a0e18e794c708408ef1dec237965cb73d" target="_top" xlink:title=" ">
<polygon fill="white" stroke="black" points="0,-6 0,-25 38,-25 38,-6 0,-6"/>
<text text-anchor="middle" x="19" y="-13" font-family="Helvetica,sans-Serif" font-size="10.00">main</text>
</a>
</g>
</g>
<!-- Node5&#45;&gt;Node6 -->
<g id="edge5" class="edge"><title>Node5&#45;&gt;Node6</title>
<path fill="none" stroke="midnightblue" d="M63.7713,-15.5C54.2902,-15.5 45.3381,-15.5 38.03,-15.5"/>
<polygon fill="midnightblue" stroke="midnightblue" points="63.7963,-19.0001 73.7962,-15.5 63.7962,-12.0001 63.7963,-19.0001"/>
</g>
</g>
</svg>
