<?xml version="1.0" encoding="UTF-8" standalone="no"?>
<!DOCTYPE svg PUBLIC "-//W3C//DTD SVG 1.1//EN"
 "http://www.w3.org/Graphics/SVG/1.1/DTD/svg11.dtd">
<!-- Generated by graphviz version 2.38.0 (20140413.2041)
 -->
<!-- Title: Obj::CSkaterGapComponent::clear_gap_tricks Pages: 1 -->
<svg width="980pt" height="85pt"
 viewBox="0.00 0.00 980.00 85.00" xmlns="http://www.w3.org/2000/svg" xmlns:xlink="http://www.w3.org/1999/xlink">
<g id="graph0" class="graph" transform="scale(1 1) rotate(0) translate(4 81)">
<title>Obj::CSkaterGapComponent::clear_gap_tricks</title>
<polygon fill="white" stroke="none" points="-4,4 -4,-81 976,-81 976,4 -4,4"/>
<!-- Node1 -->
<g id="node1" class="node"><title>Node1</title>
<g id="a_node1"><a xlink:title=" ">
<polygon fill="#bfbfbf" stroke="black" points="0,-14 0,-44 140,-44 140,-14 0,-14"/>
<text text-anchor="start" x="8" y="-32" font-family="Helvetica,sans-Serif" font-size="10.00">Obj::CSkaterGapComponent</text>
<text text-anchor="middle" x="70" y="-21" font-family="Helvetica,sans-Serif" font-size="10.00">::clear_gap_tricks</text>
</a>
</g>
</g>
<!-- Node2 -->
<g id="node2" class="node"><title>Node2</title>
<g id="a_node2"><a xlink:href="../../d2/df7/class_script_1_1_c_struct.html#aa27bdd009eb62b22c75dac7b9398a902" target="_top" xlink:title=" ">
<polygon fill="white" stroke="black" points="176,-19.5 176,-38.5 320,-38.5 320,-19.5 176,-19.5"/>
<text text-anchor="middle" x="248" y="-26.5" font-family="Helvetica,sans-Serif" font-size="10.00">Script::CStruct::ContainsFlag</text>
</a>
</g>
</g>
<!-- Node1&#45;&gt;Node2 -->
<g id="edge1" class="edge"><title>Node1&#45;&gt;Node2</title>
<path fill="none" stroke="midnightblue" d="M140.055,-29C148.499,-29 157.188,-29 165.79,-29"/>
<polygon fill="midnightblue" stroke="midnightblue" points="165.828,-32.5001 175.828,-29 165.828,-25.5001 165.828,-32.5001"/>
</g>
<!-- Node2&#45;&gt;Node2 -->
<g id="edge2" class="edge"><title>Node2&#45;&gt;Node2</title>
<path fill="none" stroke="midnightblue" d="M225.189,-38.7571C214.092,-47.5653 221.695,-57 248,-57 265.262,-57 274.471,-52.9368 275.626,-47.6539"/>
<polygon fill="midnightblue" stroke="midnightblue" points="278.649,-45.886 270.811,-38.7571 272.492,-49.2176 278.649,-45.886"/>
</g>
<!-- Node3 -->
<g id="node3" class="node"><title>Node3</title>
<g id="a_node3"><a xlink:href="../../d1/d54/namespace_script.html#ae80ed69ea4edcbcbbbd4985a6efdcd6e" target="_top" xlink:title=" ">
<polygon fill="white" stroke="black" points="474,-38.5 474,-57.5 613,-57.5 613,-38.5 474,-38.5"/>
<text text-anchor="middle" x="543.5" y="-45.5" font-family="Helvetica,sans-Serif" font-size="10.00">Script::FindChecksumName</text>
</a>
</g>
</g>
<!-- Node2&#45;&gt;Node3 -->
<g id="edge3" class="edge"><title>Node2&#45;&gt;Node3</title>
<path fill="none" stroke="midnightblue" d="M320.048,-33.5994C363.41,-36.4064 418.914,-39.9996 463.633,-42.8945"/>
<polygon fill="midnightblue" stroke="midnightblue" points="463.67,-46.4041 473.875,-43.5575 464.122,-39.4187 463.67,-46.4041"/>
</g>
<!-- Node7 -->
<g id="node7" class="node"><title>Node7</title>
<g id="a_node7"><a xlink:href="../../d1/d54/namespace_script.html#a43181580ea5d38e4bf1aa19ccd5e9e85" target="_top" xlink:title=" ">
<polygon fill="white" stroke="black" points="356,-0.5 356,-19.5 438,-19.5 438,-0.5 356,-0.5"/>
<text text-anchor="middle" x="397" y="-7.5" font-family="Helvetica,sans-Serif" font-size="10.00">Script::Resolve</text>
</a>
</g>
</g>
<!-- Node2&#45;&gt;Node7 -->
<g id="edge7" class="edge"><title>Node2&#45;&gt;Node7</title>
<path fill="none" stroke="midnightblue" d="M320.347,-19.7783C328.885,-18.6747 337.462,-17.5661 345.616,-16.5122"/>
<polygon fill="midnightblue" stroke="midnightblue" points="346.215,-19.9639 355.684,-15.2109 345.318,-13.0217 346.215,-19.9639"/>
</g>
<!-- Node4 -->
<g id="node4" class="node"><title>Node4</title>
<g id="a_node4"><a xlink:href="../../d1/d54/namespace_script.html#a5cc52c4ff5ea5bb27681d819212dfdca" target="_top" xlink:title=" ">
<polygon fill="white" stroke="black" points="649,-57.5 649,-76.5 812,-76.5 812,-57.5 649,-57.5"/>
<text text-anchor="middle" x="730.5" y="-64.5" font-family="Helvetica,sans-Serif" font-size="10.00">Script::FindChecksumNameNULL</text>
</a>
</g>
</g>
<!-- Node3&#45;&gt;Node4 -->
<g id="edge4" class="edge"><title>Node3&#45;&gt;Node4</title>
<path fill="none" stroke="midnightblue" d="M613.124,-55.0479C621.476,-55.9056 630.107,-56.792 638.717,-57.6764"/>
<polygon fill="midnightblue" stroke="midnightblue" points="638.493,-61.1717 648.798,-58.7117 639.208,-54.2083 638.493,-61.1717"/>
</g>
<!-- Node6 -->
<g id="node6" class="node"><title>Node6</title>
<g id="a_node6"><a xlink:href="../../da/d37/namespace_dbg.html#ab406a8cc16de5046c7d9fd09c9de5e22" target="_top" xlink:title=" ">
<polygon fill="white" stroke="black" points="697.5,-19.5 697.5,-38.5 763.5,-38.5 763.5,-19.5 697.5,-19.5"/>
<text text-anchor="middle" x="730.5" y="-26.5" font-family="Helvetica,sans-Serif" font-size="10.00">Dbg::sprintf</text>
</a>
</g>
</g>
<!-- Node3&#45;&gt;Node6 -->
<g id="edge6" class="edge"><title>Node3&#45;&gt;Node6</title>
<path fill="none" stroke="midnightblue" d="M613.124,-40.9521C637.98,-38.3993 665.305,-35.593 687.228,-33.3414"/>
<polygon fill="midnightblue" stroke="midnightblue" points="687.616,-36.8201 697.206,-32.3167 686.901,-29.8567 687.616,-36.8201"/>
</g>
<!-- Node5 -->
<g id="node5" class="node"><title>Node5</title>
<g id="a_node5"><a xlink:href="../../d0/d31/namespace_config.html#a709cc81780d49900157e3476b63aa25d" target="_top" xlink:title=" ">
<polygon fill="white" stroke="black" points="848,-57.5 848,-76.5 972,-76.5 972,-57.5 848,-57.5"/>
<text text-anchor="middle" x="910" y="-64.5" font-family="Helvetica,sans-Serif" font-size="10.00">Config::GotExtraMemory</text>
</a>
</g>
</g>
<!-- Node4&#45;&gt;Node5 -->
<g id="edge5" class="edge"><title>Node4&#45;&gt;Node5</title>
<path fill="none" stroke="midnightblue" d="M812.2,-67C820.729,-67 829.358,-67 837.768,-67"/>
<polygon fill="midnightblue" stroke="midnightblue" points="837.898,-70.5001 847.898,-67 837.898,-63.5001 837.898,-70.5001"/>
</g>
<!-- Node7&#45;&gt;Node3 -->
<g id="edge8" class="edge"><title>Node7&#45;&gt;Node3</title>
<path fill="none" stroke="midnightblue" d="M434.463,-19.589C453.274,-24.5358 476.415,-30.6211 496.447,-35.8892"/>
<polygon fill="midnightblue" stroke="midnightblue" points="495.737,-39.3215 506.299,-38.4799 497.518,-32.5517 495.737,-39.3215"/>
</g>
<!-- Node8 -->
<g id="node8" class="node"><title>Node8</title>
<g id="a_node8"><a xlink:href="../../d1/d54/namespace_script.html#af293a36c230b10de7d8151c2990b233b" target="_top" xlink:title=" ">
<polygon fill="white" stroke="black" points="486.5,-0.5 486.5,-19.5 600.5,-19.5 600.5,-0.5 486.5,-0.5"/>
<text text-anchor="middle" x="543.5" y="-7.5" font-family="Helvetica,sans-Serif" font-size="10.00">Script::LookUpSymbol</text>
</a>
</g>
</g>
<!-- Node7&#45;&gt;Node8 -->
<g id="edge9" class="edge"><title>Node7&#45;&gt;Node8</title>
<path fill="none" stroke="midnightblue" d="M438.251,-10C449.98,-10 463.119,-10 476.012,-10"/>
<polygon fill="midnightblue" stroke="midnightblue" points="476.267,-13.5001 486.267,-10 476.267,-6.5001 476.267,-13.5001"/>
</g>
</g>
</svg>
