<?xml version="1.0" encoding="UTF-8" standalone="no"?>
<!DOCTYPE svg PUBLIC "-//W3C//DTD SVG 1.1//EN"
 "http://www.w3.org/Graphics/SVG/1.1/DTD/svg11.dtd">
<!-- Generated by graphviz version 2.38.0 (20140413.2041)
 -->
<!-- Title: Ass::CAsset Pages: 1 -->
<svg width="332pt" height="218pt"
 viewBox="0.00 0.00 332.00 218.00" xmlns="http://www.w3.org/2000/svg" xmlns:xlink="http://www.w3.org/1999/xlink">
<g id="graph0" class="graph" transform="scale(1 1) rotate(0) translate(4 214)">
<title>Ass::CAsset</title>
<polygon fill="white" stroke="none" points="-4,4 -4,-214 328,-214 328,4 -4,4"/>
<!-- Node1 -->
<g id="node1" class="node"><title>Node1</title>
<g id="a_node1"><a xlink:title=" ">
<polygon fill="#bfbfbf" stroke="black" points="98,-95.5 98,-114.5 170,-114.5 170,-95.5 98,-95.5"/>
<text text-anchor="middle" x="134" y="-102.5" font-family="Helvetica,sans-Serif" font-size="10.00">Ass::CAsset</text>
</a>
</g>
</g>
<!-- Node3 -->
<g id="node3" class="node"><title>Node3</title>
<g id="a_node3"><a xlink:href="../../d2/d7b/class_ass_1_1_c_anim_asset.html" target="_top" xlink:title=" ">
<polygon fill="white" stroke="black" points="217.5,-190.5 217.5,-209.5 312.5,-209.5 312.5,-190.5 217.5,-190.5"/>
<text text-anchor="middle" x="265" y="-197.5" font-family="Helvetica,sans-Serif" font-size="10.00">Ass::CAnimAsset</text>
</a>
</g>
</g>
<!-- Node1&#45;&gt;Node3 -->
<g id="edge2" class="edge"><title>Node1&#45;&gt;Node3</title>
<path fill="none" stroke="midnightblue" d="M147.373,-122.735C160.205,-139.901 181.761,-165.533 206,-181 211.985,-184.819 218.809,-187.94 225.625,-190.468"/>
<polygon fill="midnightblue" stroke="midnightblue" points="150.196,-120.666 141.49,-114.629 144.531,-124.778 150.196,-120.666"/>
</g>
<!-- Node4 -->
<g id="node4" class="node"><title>Node4</title>
<g id="a_node4"><a xlink:href="../../d2/d69/class_ass_1_1_c_cutscene_asset.html" target="_top" xlink:title=" ">
<polygon fill="white" stroke="black" points="208.5,-152.5 208.5,-171.5 321.5,-171.5 321.5,-152.5 208.5,-152.5"/>
<text text-anchor="middle" x="265" y="-159.5" font-family="Helvetica,sans-Serif" font-size="10.00">Ass::CCutsceneAsset</text>
</a>
</g>
</g>
<!-- Node1&#45;&gt;Node4 -->
<g id="edge3" class="edge"><title>Node1&#45;&gt;Node4</title>
<path fill="none" stroke="midnightblue" d="M160,-119.766C173.37,-127.305 190.276,-136.278 206,-143 214.087,-146.457 223.026,-149.67 231.416,-152.433"/>
<polygon fill="midnightblue" stroke="midnightblue" points="161.374,-116.519 150.958,-114.583 157.893,-122.592 161.374,-116.519"/>
</g>
<!-- Node5 -->
<g id="node5" class="node"><title>Node5</title>
<g id="a_node5"><a xlink:href="../../d5/df1/class_ass_1_1_c_node_array_asset.html" target="_top" xlink:title=" ">
<polygon fill="white" stroke="black" points="206,-114.5 206,-133.5 324,-133.5 324,-114.5 206,-114.5"/>
<text text-anchor="middle" x="265" y="-121.5" font-family="Helvetica,sans-Serif" font-size="10.00">Ass::CNodeArrayAsset</text>
</a>
</g>
</g>
<!-- Node1&#45;&gt;Node5 -->
<g id="edge4" class="edge"><title>Node1&#45;&gt;Node5</title>
<path fill="none" stroke="midnightblue" d="M180.145,-111.649C188.486,-112.878 197.303,-114.176 205.962,-115.452"/>
<polygon fill="midnightblue" stroke="midnightblue" points="180.653,-108.186 170.25,-110.192 179.633,-115.112 180.653,-108.186"/>
</g>
<!-- Node6 -->
<g id="node6" class="node"><title>Node6</title>
<g id="a_node6"><a xlink:href="../../da/d90/class_ass_1_1_c_ref_asset.html" target="_top" xlink:title=" ">
<polygon fill="white" stroke="black" points="222,-76.5 222,-95.5 308,-95.5 308,-76.5 222,-76.5"/>
<text text-anchor="middle" x="265" y="-83.5" font-family="Helvetica,sans-Serif" font-size="10.00">Ass::CRefAsset</text>
</a>
</g>
</g>
<!-- Node1&#45;&gt;Node6 -->
<g id="edge5" class="edge"><title>Node1&#45;&gt;Node6</title>
<path fill="none" stroke="midnightblue" d="M180.309,-98.3266C193.837,-96.3341 208.604,-94.159 221.917,-92.1983"/>
<polygon fill="midnightblue" stroke="midnightblue" points="179.633,-94.8883 170.25,-99.8082 180.653,-101.814 179.633,-94.8883"/>
</g>
<!-- Node7 -->
<g id="node7" class="node"><title>Node7</title>
<g id="a_node7"><a xlink:href="../../d4/d9c/class_ass_1_1_c_skeleton_asset.html" target="_top" xlink:title=" ">
<polygon fill="white" stroke="black" points="210,-38.5 210,-57.5 320,-57.5 320,-38.5 210,-38.5"/>
<text text-anchor="middle" x="265" y="-45.5" font-family="Helvetica,sans-Serif" font-size="10.00">Ass::CSkeletonAsset</text>
</a>
</g>
</g>
<!-- Node1&#45;&gt;Node7 -->
<g id="edge6" class="edge"><title>Node1&#45;&gt;Node7</title>
<path fill="none" stroke="midnightblue" d="M160,-90.234C173.37,-82.6952 190.276,-73.722 206,-67 214.087,-63.5429 223.026,-60.3302 231.416,-57.567"/>
<polygon fill="midnightblue" stroke="midnightblue" points="157.893,-87.4076 150.958,-95.4171 161.374,-93.4806 157.893,-87.4076"/>
</g>
<!-- Node8 -->
<g id="node8" class="node"><title>Node8</title>
<g id="a_node8"><a xlink:href="../../d7/d7f/class_ass_1_1_c_skin_asset.html" target="_top" xlink:title=" ">
<polygon fill="white" stroke="black" points="219,-0.5 219,-19.5 311,-19.5 311,-0.5 219,-0.5"/>
<text text-anchor="middle" x="265" y="-7.5" font-family="Helvetica,sans-Serif" font-size="10.00">Ass::CSkinAsset</text>
</a>
</g>
</g>
<!-- Node1&#45;&gt;Node8 -->
<g id="edge7" class="edge"><title>Node1&#45;&gt;Node8</title>
<path fill="none" stroke="midnightblue" d="M147.373,-87.265C160.205,-70.0991 181.761,-44.4674 206,-29 211.985,-25.181 218.809,-22.0596 225.625,-19.5322"/>
<polygon fill="midnightblue" stroke="midnightblue" points="144.531,-85.2223 141.49,-95.3713 150.196,-89.3339 144.531,-85.2223"/>
</g>
<!-- Node2 -->
<g id="node2" class="node"><title>Node2</title>
<g id="a_node2"><a xlink:href="../../d3/dee/class_spt_1_1_class.html" target="_top" xlink:title=" ">
<polygon fill="white" stroke="black" points="0,-95.5 0,-114.5 62,-114.5 62,-95.5 0,-95.5"/>
<text text-anchor="middle" x="31" y="-102.5" font-family="Helvetica,sans-Serif" font-size="10.00">Spt::Class</text>
</a>
</g>
</g>
<!-- Node2&#45;&gt;Node1 -->
<g id="edge1" class="edge"><title>Node2&#45;&gt;Node1</title>
<path fill="none" stroke="midnightblue" d="M72.1545,-105C80.6787,-105 89.6137,-105 97.9309,-105"/>
<polygon fill="midnightblue" stroke="midnightblue" points="72.0299,-101.5 62.0299,-105 72.0298,-108.5 72.0299,-101.5"/>
</g>
</g>
</svg>
