<?xml version="1.0" encoding="UTF-8" standalone="no"?>
<!DOCTYPE svg PUBLIC "-//W3C//DTD SVG 1.1//EN"
 "http://www.w3.org/Graphics/SVG/1.1/DTD/svg11.dtd">
<!-- Generated by graphviz version 2.38.0 (20140413.2041)
 -->
<!-- Title: Obj::CMovieDetails::GetName Pages: 1 -->
<svg width="447pt" height="176pt"
 viewBox="0.00 0.00 447.00 175.50" xmlns="http://www.w3.org/2000/svg" xmlns:xlink="http://www.w3.org/1999/xlink">
<g id="graph0" class="graph" transform="scale(1 1) rotate(0) translate(4 171.5)">
<title>Obj::CMovieDetails::GetName</title>
<polygon fill="white" stroke="none" points="-4,4 -4,-171.5 443,-171.5 443,4 -4,4"/>
<!-- Node1 -->
<g id="node1" class="node"><title>Node1</title>
<g id="a_node1"><a xlink:title=" ">
<polygon fill="#bfbfbf" stroke="black" points="340,-49.5 340,-79.5 439,-79.5 439,-49.5 340,-49.5"/>
<text text-anchor="start" x="348" y="-67.5" font-family="Helvetica,sans-Serif" font-size="10.00">Obj::CMovieDetails</text>
<text text-anchor="middle" x="389.5" y="-56.5" font-family="Helvetica,sans-Serif" font-size="10.00">::GetName</text>
</a>
</g>
</g>
<!-- Node2 -->
<g id="node2" class="node"><title>Node2</title>
<g id="a_node2"><a xlink:href="../../d5/d02/class_obj_1_1_c_movie_manager.html#a178e04942724693bad5e9970fdb72f5d" target="_top" xlink:title=" ">
<polygon fill="white" stroke="black" points="188,-98.5 188,-128.5 295,-128.5 295,-98.5 188,-98.5"/>
<text text-anchor="start" x="196" y="-116.5" font-family="Helvetica,sans-Serif" font-size="10.00">Obj::CMovieManager</text>
<text text-anchor="middle" x="241.5" y="-105.5" font-family="Helvetica,sans-Serif" font-size="10.00">::AddMovieToQueue</text>
</a>
</g>
</g>
<!-- Node1&#45;&gt;Node2 -->
<g id="edge1" class="edge"><title>Node1&#45;&gt;Node2</title>
<path fill="none" stroke="midnightblue" d="M333.659,-82.9055C318.384,-88.0322 301.975,-93.5392 287.348,-98.4484"/>
<polygon fill="midnightblue" stroke="midnightblue" points="335.137,-86.1014 343.504,-79.6014 332.91,-79.4651 335.137,-86.1014"/>
</g>
<!-- Node6 -->
<g id="node6" class="node"><title>Node6</title>
<g id="a_node6"><a xlink:href="../../d4/db9/class_obj_1_1_c_skater_cam_details.html#a0ee7212a7991fb2c99f16d8133ec42c4" target="_top" xlink:title=" ">
<polygon fill="white" stroke="black" points="180,-49.5 180,-79.5 303,-79.5 303,-49.5 180,-49.5"/>
<text text-anchor="start" x="188" y="-67.5" font-family="Helvetica,sans-Serif" font-size="10.00">Obj::CSkaterCamDetails</text>
<text text-anchor="middle" x="241.5" y="-56.5" font-family="Helvetica,sans-Serif" font-size="10.00">::InitFromStructure</text>
</a>
</g>
</g>
<!-- Node1&#45;&gt;Node6 -->
<g id="edge5" class="edge"><title>Node1&#45;&gt;Node6</title>
<path fill="none" stroke="midnightblue" d="M329.75,-64.5C320.979,-64.5 311.922,-64.5 303.112,-64.5"/>
<polygon fill="midnightblue" stroke="midnightblue" points="329.884,-68.0001 339.884,-64.5 329.884,-61.0001 329.884,-68.0001"/>
</g>
<!-- Node7 -->
<g id="node7" class="node"><title>Node7</title>
<g id="a_node7"><a xlink:href="../../d8/d88/class_obj_1_1_c_object_anim_details.html#a55a431a872188414524e9d4fa3278457" target="_top" xlink:title=" ">
<polygon fill="white" stroke="black" points="179,-0.5 179,-30.5 304,-30.5 304,-0.5 179,-0.5"/>
<text text-anchor="start" x="187" y="-18.5" font-family="Helvetica,sans-Serif" font-size="10.00">Obj::CObjectAnimDetails</text>
<text text-anchor="middle" x="241.5" y="-7.5" font-family="Helvetica,sans-Serif" font-size="10.00">::InitFromStructure</text>
</a>
</g>
</g>
<!-- Node1&#45;&gt;Node7 -->
<g id="edge6" class="edge"><title>Node1&#45;&gt;Node7</title>
<path fill="none" stroke="midnightblue" d="M333.659,-46.0945C318.384,-40.9678 301.975,-35.4608 287.348,-30.5516"/>
<polygon fill="midnightblue" stroke="midnightblue" points="332.91,-49.5349 343.504,-49.3986 335.137,-42.8986 332.91,-49.5349"/>
</g>
<!-- Node3 -->
<g id="node3" class="node"><title>Node3</title>
<g id="a_node3"><a xlink:href="../../db/d54/namespace_c_funcs.html#a5f901adbe37559921d24d62261f50b79" target="_top" xlink:title=" ">
<polygon fill="white" stroke="black" points="0,-148 0,-167 143,-167 143,-148 0,-148"/>
<text text-anchor="middle" x="71.5" y="-155" font-family="Helvetica,sans-Serif" font-size="10.00">CFuncs::ScriptPlayCutscene</text>
</a>
</g>
</g>
<!-- Node2&#45;&gt;Node3 -->
<g id="edge2" class="edge"><title>Node2&#45;&gt;Node3</title>
<path fill="none" stroke="midnightblue" d="M177.979,-129.875C154.661,-135.982 128.975,-142.709 108.789,-147.996"/>
<polygon fill="midnightblue" stroke="midnightblue" points="179.018,-133.221 187.805,-127.301 177.244,-126.449 179.018,-133.221"/>
</g>
<!-- Node4 -->
<g id="node4" class="node"><title>Node4</title>
<g id="a_node4"><a xlink:href="../../db/d54/namespace_c_funcs.html#aefe15140c78d4d703ba10395a25ae04b" target="_top" xlink:title=" ">
<polygon fill="white" stroke="black" points="6,-98.5 6,-128.5 137,-128.5 137,-98.5 6,-98.5"/>
<text text-anchor="start" x="14" y="-116.5" font-family="Helvetica,sans-Serif" font-size="10.00">CFuncs::ScriptPlayMoving</text>
<text text-anchor="middle" x="71.5" y="-105.5" font-family="Helvetica,sans-Serif" font-size="10.00">ObjectAnim</text>
</a>
</g>
</g>
<!-- Node2&#45;&gt;Node4 -->
<g id="edge3" class="edge"><title>Node2&#45;&gt;Node4</title>
<path fill="none" stroke="midnightblue" d="M177.424,-113.5C164.251,-113.5 150.344,-113.5 137.116,-113.5"/>
<polygon fill="midnightblue" stroke="midnightblue" points="177.805,-117 187.805,-113.5 177.805,-110 177.805,-117"/>
</g>
<!-- Node5 -->
<g id="node5" class="node"><title>Node5</title>
<g id="a_node5"><a xlink:href="../../db/d54/namespace_c_funcs.html#aee67faec954bbc0d41fe51588192bbc8" target="_top" xlink:title=" ">
<polygon fill="white" stroke="black" points="6.5,-49.5 6.5,-79.5 136.5,-79.5 136.5,-49.5 6.5,-49.5"/>
<text text-anchor="start" x="14.5" y="-67.5" font-family="Helvetica,sans-Serif" font-size="10.00">CFuncs::ScriptPlaySkater</text>
<text text-anchor="middle" x="71.5" y="-56.5" font-family="Helvetica,sans-Serif" font-size="10.00">CamAnim</text>
</a>
</g>
</g>
<!-- Node2&#45;&gt;Node5 -->
<g id="edge4" class="edge"><title>Node2&#45;&gt;Node5</title>
<path fill="none" stroke="midnightblue" d="M178.899,-95.533C160.899,-90.283 141.418,-84.6011 124.105,-79.5516"/>
<polygon fill="midnightblue" stroke="midnightblue" points="178.144,-98.9585 188.724,-98.3986 180.104,-92.2385 178.144,-98.9585"/>
</g>
</g>
</svg>
