<?xml version="1.0" encoding="UTF-8" standalone="no"?>
<!DOCTYPE svg PUBLIC "-//W3C//DTD SVG 1.1//EN"
 "http://www.w3.org/Graphics/SVG/1.1/DTD/svg11.dtd">
<!-- Generated by graphviz version 2.38.0 (20140413.2041)
 -->
<!-- Title: File::CPs2AsyncFileHandle Pages: 1 -->
<svg width="358pt" height="173pt"
 viewBox="0.00 0.00 357.50 173.00" xmlns="http://www.w3.org/2000/svg" xmlns:xlink="http://www.w3.org/1999/xlink">
<g id="graph0" class="graph" transform="scale(1 1) rotate(0) translate(4 169)">
<title>File::CPs2AsyncFileHandle</title>
<polygon fill="white" stroke="none" points="-4,4 -4,-169 353.5,-169 353.5,4 -4,4"/>
<!-- Node1 -->
<g id="node1" class="node"><title>Node1</title>
<g id="a_node1"><a xlink:title=" ">
<polygon fill="#bfbfbf" stroke="black" points="157.5,-0.5 157.5,-19.5 293.5,-19.5 293.5,-0.5 157.5,-0.5"/>
<text text-anchor="middle" x="225.5" y="-7.5" font-family="Helvetica,sans-Serif" font-size="10.00">File::CPs2AsyncFileHandle</text>
</a>
</g>
</g>
<!-- Node2 -->
<g id="node2" class="node"><title>Node2</title>
<g id="a_node2"><a xlink:href="../../d8/dd3/class_file_1_1_c_async_file_handle.html" target="_top" xlink:title=" ">
<polygon fill="white" stroke="black" points="0,-73 0,-92 119,-92 119,-73 0,-73"/>
<text text-anchor="middle" x="59.5" y="-80" font-family="Helvetica,sans-Serif" font-size="10.00">File::CAsyncFileHandle</text>
</a>
</g>
</g>
<!-- Node2&#45;&gt;Node1 -->
<g id="edge1" class="edge"><title>Node2&#45;&gt;Node1</title>
<path fill="none" stroke="midnightblue" d="M88.8088,-69.0526C122.332,-54.8154 176.325,-31.8844 205.406,-19.5341"/>
<polygon fill="midnightblue" stroke="midnightblue" points="87.3596,-65.8654 79.5235,-72.9961 90.096,-72.3084 87.3596,-65.8654"/>
</g>
<!-- Node2&#45;&gt;Node2 -->
<g id="edge2" class="edge"><title>Node2&#45;&gt;Node2</title>
<path fill="none" stroke="#9a32cd" stroke-dasharray="5,2" d="M129.483,-87.6141C134.162,-86.4313 137,-84.7266 137,-82.5 137,-78.9375 129.734,-76.7109 119.29,-75.8203"/>
<polygon fill="#9a32cd" stroke="#9a32cd" points="128.643,-84.2021 119.29,-89.1797 129.705,-91.121 128.643,-84.2021"/>
<text text-anchor="middle" x="166" y="-80" font-family="Helvetica,sans-Serif" font-size="10.00"> mp_callback</text>
</g>
<!-- Node3 -->
<g id="node3" class="node"><title>Node3</title>
<g id="a_node3"><a xlink:href="../../d3/ddf/struct_file_1_1_pre_file_1_1___file.html" target="_top" xlink:title=" ">
<polygon fill="white" stroke="black" points="11.5,-145.5 11.5,-164.5 107.5,-164.5 107.5,-145.5 11.5,-145.5"/>
<text text-anchor="middle" x="59.5" y="-152.5" font-family="Helvetica,sans-Serif" font-size="10.00">File::PreFile::_File</text>
</a>
</g>
</g>
<!-- Node3&#45;&gt;Node2 -->
<g id="edge3" class="edge"><title>Node3&#45;&gt;Node2</title>
<path fill="none" stroke="#9a32cd" stroke-dasharray="5,2" d="M59.5,-134.942C59.5,-121.03 59.5,-102.82 59.5,-92.2154"/>
<polygon fill="#9a32cd" stroke="#9a32cd" points="56.0001,-135.355 59.5,-145.355 63.0001,-135.355 56.0001,-135.355"/>
<text text-anchor="middle" x="86" y="-119" font-family="Helvetica,sans-Serif" font-size="10.00"> mp_pre_file</text>
</g>
<!-- Node4 -->
<g id="node4" class="node"><title>Node4</title>
<g id="a_node4"><a xlink:href="../../d2/d6d/struct_file_1_1_c_ps2_async_file_handle_1_1_s_request.html" target="_top" xlink:title=" ">
<polygon fill="white" stroke="black" points="213.5,-67.5 213.5,-97.5 349.5,-97.5 349.5,-67.5 213.5,-67.5"/>
<text text-anchor="start" x="221.5" y="-85.5" font-family="Helvetica,sans-Serif" font-size="10.00">File::CPs2AsyncFileHandle</text>
<text text-anchor="middle" x="281.5" y="-74.5" font-family="Helvetica,sans-Serif" font-size="10.00">::SRequest</text>
</a>
</g>
</g>
<!-- Node4&#45;&gt;Node1 -->
<g id="edge4" class="edge"><title>Node4&#45;&gt;Node1</title>
<path fill="none" stroke="#9a32cd" stroke-dasharray="5,2" d="M263.933,-59.3845C253.33,-46.0362 240.398,-29.7556 232.564,-19.8932"/>
<polygon fill="#9a32cd" stroke="#9a32cd" points="261.207,-61.5799 270.168,-67.2333 266.688,-57.226 261.207,-61.5799"/>
<text text-anchor="middle" x="296" y="-41" font-family="Helvetica,sans-Serif" font-size="10.00"> m_open_requests</text>
</g>
</g>
</svg>
