<?xml version="1.0" encoding="UTF-8" standalone="no"?>
<!DOCTYPE svg PUBLIC "-//W3C//DTD SVG 1.1//EN"
 "http://www.w3.org/Graphics/SVG/1.1/DTD/svg11.dtd">
<!-- Generated by graphviz version 2.38.0 (20140413.2041)
 -->
<!-- Title: GameNet::MsgScoreUpdate Pages: 1 -->
<svg width="147pt" height="162pt"
 viewBox="0.00 0.00 147.00 162.00" xmlns="http://www.w3.org/2000/svg" xmlns:xlink="http://www.w3.org/1999/xlink">
<g id="graph0" class="graph" transform="scale(1 1) rotate(0) translate(4 158)">
<title>GameNet::MsgScoreUpdate</title>
<polygon fill="white" stroke="none" points="-4,4 -4,-158 143,-158 143,4 -4,4"/>
<!-- Node1 -->
<g id="node1" class="node"><title>Node1</title>
<g id="a_node1"><a xlink:title=" ">
<polygon fill="#bfbfbf" stroke="black" points="0,-0.5 0,-19.5 139,-19.5 139,-0.5 0,-0.5"/>
<text text-anchor="middle" x="69.5" y="-7.5" font-family="Helvetica,sans-Serif" font-size="10.00">GameNet::MsgScoreUpdate</text>
</a>
</g>
</g>
<!-- Node2 -->
<g id="node2" class="node"><title>Node2</title>
<g id="a_node2"><a xlink:href="../../db/d82/class_flags.html" target="_top" xlink:title=" ">
<polygon fill="white" stroke="black" points="35,-67.5 35,-86.5 104,-86.5 104,-67.5 35,-67.5"/>
<text text-anchor="middle" x="69.5" y="-74.5" font-family="Helvetica,sans-Serif" font-size="10.00">Flags&lt; int &gt;</text>
</a>
</g>
</g>
<!-- Node2&#45;&gt;Node1 -->
<g id="edge1" class="edge"><title>Node2&#45;&gt;Node1</title>
<path fill="none" stroke="#9a32cd" stroke-dasharray="5,2" d="M69.5,-57.037C69.5,-44.6703 69.5,-29.1198 69.5,-19.6273"/>
<polygon fill="#9a32cd" stroke="#9a32cd" points="66.0001,-57.2338 69.5,-67.2338 73.0001,-57.2338 66.0001,-57.2338"/>
<text text-anchor="middle" x="93.5" y="-41" font-family="Helvetica,sans-Serif" font-size="10.00"> m_Cheats</text>
</g>
<!-- Node3 -->
<g id="node3" class="node"><title>Node3</title>
<g id="a_node3"><a xlink:href="../../db/d82/class_flags.html" target="_top" xlink:title=" ">
<polygon fill="white" stroke="black" points="35,-134.5 35,-153.5 104,-153.5 104,-134.5 35,-134.5"/>
<text text-anchor="middle" x="69.5" y="-141.5" font-family="Helvetica,sans-Serif" font-size="10.00">Flags&lt; _T &gt;</text>
</a>
</g>
</g>
<!-- Node3&#45;&gt;Node2 -->
<g id="edge2" class="edge"><title>Node3&#45;&gt;Node2</title>
<path fill="none" stroke="orange" stroke-dasharray="5,2" d="M69.5,-124.037C69.5,-111.67 69.5,-96.1198 69.5,-86.6273"/>
<polygon fill="orange" stroke="orange" points="66.0001,-124.234 69.5,-134.234 73.0001,-124.234 66.0001,-124.234"/>
<text text-anchor="middle" x="85.5" y="-108" font-family="Helvetica,sans-Serif" font-size="10.00"> &lt; int &gt;</text>
</g>
</g>
</svg>
