<?xml version="1.0" encoding="UTF-8" standalone="no"?>
<!DOCTYPE svg PUBLIC "-//W3C//DTD SVG 1.1//EN"
 "http://www.w3.org/Graphics/SVG/1.1/DTD/svg11.dtd">
<!-- Generated by graphviz version 2.38.0 (20140413.2041)
 -->
<!-- Title: Obj::CSkaterSoundComponent::SetState Pages: 1 -->
<svg width="1594pt" height="766pt"
 viewBox="0.00 0.00 1594.00 765.94" xmlns="http://www.w3.org/2000/svg" xmlns:xlink="http://www.w3.org/1999/xlink">
<g id="graph0" class="graph" transform="scale(1 1) rotate(0) translate(4 761.943)">
<title>Obj::CSkaterSoundComponent::SetState</title>
<polygon fill="white" stroke="none" points="-4,4 -4,-761.943 1590,-761.943 1590,4 -4,4"/>
<!-- Node1 -->
<g id="node1" class="node"><title>Node1</title>
<g id="a_node1"><a xlink:title=" ">
<polygon fill="#bfbfbf" stroke="black" points="1436,-282.5 1436,-312.5 1586,-312.5 1586,-282.5 1436,-282.5"/>
<text text-anchor="start" x="1444" y="-300.5" font-family="Helvetica,sans-Serif" font-size="10.00">Obj::CSkaterSoundComponent</text>
<text text-anchor="middle" x="1511" y="-289.5" font-family="Helvetica,sans-Serif" font-size="10.00">::SetState</text>
</a>
</g>
</g>
<!-- Node2 -->
<g id="node2" class="node"><title>Node2</title>
<g id="a_node2"><a xlink:href="../../d2/d61/class_obj_1_1_c_skater_core_physics_component.html#a729b5e29db86283466da848897bf4e9e" target="_top" xlink:title=" ">
<polygon fill="white" stroke="black" points="1222,-377.5 1222,-407.5 1400,-407.5 1400,-377.5 1222,-377.5"/>
<text text-anchor="start" x="1230" y="-395.5" font-family="Helvetica,sans-Serif" font-size="10.00">Obj::CSkaterCorePhysicsComponent</text>
<text text-anchor="middle" x="1311" y="-384.5" font-family="Helvetica,sans-Serif" font-size="10.00">::SetState</text>
</a>
</g>
</g>
<!-- Node1&#45;&gt;Node2 -->
<g id="edge1" class="edge"><title>Node1&#45;&gt;Node2</title>
<path fill="none" stroke="midnightblue" d="M1469.54,-316.911C1432.27,-334.797 1377.7,-360.975 1343.55,-377.36"/>
<polygon fill="midnightblue" stroke="midnightblue" points="1471.12,-320.035 1478.63,-312.553 1468.1,-313.723 1471.12,-320.035"/>
</g>
<!-- Node35 -->
<g id="node35" class="node"><title>Node35</title>
<g id="a_node35"><a xlink:href="../../d1/dcb/class_obj_1_1_c_ped_logic_component.html#abbd71c33c6a641400daec30876484231" target="_top" xlink:title=" ">
<polygon fill="white" stroke="black" points="1242,-94.5 1242,-124.5 1380,-124.5 1380,-94.5 1242,-94.5"/>
<text text-anchor="start" x="1250" y="-112.5" font-family="Helvetica,sans-Serif" font-size="10.00">Obj::CPedLogicComponent</text>
<text text-anchor="middle" x="1311" y="-101.5" font-family="Helvetica,sans-Serif" font-size="10.00">::UpdateSkaterSoundStates</text>
</a>
</g>
</g>
<!-- Node1&#45;&gt;Node35 -->
<g id="edge49" class="edge"><title>Node1&#45;&gt;Node35</title>
<path fill="none" stroke="midnightblue" d="M1486.82,-275.489C1446.12,-236.848 1362.84,-157.775 1327.94,-124.639"/>
<polygon fill="midnightblue" stroke="midnightblue" points="1484.47,-278.086 1494.13,-282.433 1489.29,-273.009 1484.47,-278.086"/>
</g>
<!-- Node3 -->
<g id="node3" class="node"><title>Node3</title>
<g id="a_node3"><a xlink:href="../../d2/d61/class_obj_1_1_c_skater_core_physics_component.html#a8a203adc7b9d259c8374d3632e38b74f" target="_top" xlink:title=" ">
<polygon fill="white" stroke="black" points="794,-706.5 794,-736.5 972,-736.5 972,-706.5 794,-706.5"/>
<text text-anchor="start" x="802" y="-724.5" font-family="Helvetica,sans-Serif" font-size="10.00">Obj::CSkaterCorePhysicsComponent</text>
<text text-anchor="middle" x="883" y="-713.5" font-family="Helvetica,sans-Serif" font-size="10.00">::CallMemberFunction</text>
</a>
</g>
</g>
<!-- Node2&#45;&gt;Node3 -->
<g id="edge2" class="edge"><title>Node2&#45;&gt;Node3</title>
<path fill="none" stroke="midnightblue" d="M1309.56,-417.646C1306.9,-481.949 1289.93,-652.375 1186,-724.5 1108.68,-778.16 991.312,-755.095 928.072,-736.519"/>
<polygon fill="midnightblue" stroke="midnightblue" points="1313.06,-417.701 1309.89,-407.591 1306.06,-417.471 1313.06,-417.701"/>
</g>
<!-- Node4 -->
<g id="node4" class="node"><title>Node4</title>
<g id="a_node4"><a xlink:href="../../d2/d61/class_obj_1_1_c_skater_core_physics_component.html#a81d1b5eb7bc986fd1130248e2d3f8912" target="_top" xlink:title=" ">
<polygon fill="white" stroke="black" points="1008,-596.5 1008,-626.5 1186,-626.5 1186,-596.5 1008,-596.5"/>
<text text-anchor="start" x="1016" y="-614.5" font-family="Helvetica,sans-Serif" font-size="10.00">Obj::CSkaterCorePhysicsComponent</text>
<text text-anchor="middle" x="1097" y="-603.5" font-family="Helvetica,sans-Serif" font-size="10.00">::check_for_wallplant</text>
</a>
</g>
</g>
<!-- Node2&#45;&gt;Node4 -->
<g id="edge3" class="edge"><title>Node2&#45;&gt;Node4</title>
<path fill="none" stroke="midnightblue" d="M1301.06,-417.063C1284.75,-458.405 1246.17,-541.751 1186,-586.5 1180.77,-590.386 1174.97,-593.668 1168.89,-596.441"/>
<polygon fill="midnightblue" stroke="midnightblue" points="1304.41,-418.096 1304.73,-407.506 1297.88,-415.588 1304.41,-418.096"/>
</g>
<!-- Node6 -->
<g id="node6" class="node"><title>Node6</title>
<g id="a_node6"><a xlink:href="../../d2/d61/class_obj_1_1_c_skater_core_physics_component.html#ac8680b0cbdb8dbcc8af0e9246b939d53" target="_top" xlink:title=" ">
<polygon fill="white" stroke="black" points="366,-571.5 366,-601.5 544,-601.5 544,-571.5 366,-571.5"/>
<text text-anchor="start" x="374" y="-589.5" font-family="Helvetica,sans-Serif" font-size="10.00">Obj::CSkaterCorePhysicsComponent</text>
<text text-anchor="middle" x="455" y="-578.5" font-family="Helvetica,sans-Serif" font-size="10.00">::do_in_air_physics</text>
</a>
</g>
</g>
<!-- Node2&#45;&gt;Node6 -->
<g id="edge21" class="edge"><title>Node2&#45;&gt;Node6</title>
<path fill="none" stroke="midnightblue" d="M1305.99,-417.616C1296.2,-469.458 1265.78,-587.55 1186,-636.5 1071.13,-706.974 713.027,-635.067 580,-613.5 559.992,-610.256 538.35,-605.857 518.832,-601.551"/>
<polygon fill="midnightblue" stroke="midnightblue" points="1309.46,-418.067 1307.77,-407.607 1302.57,-416.837 1309.46,-418.067"/>
</g>
<!-- Node8 -->
<g id="node8" class="node"><title>Node8</title>
<g id="a_node8"><a xlink:href="../../d2/d61/class_obj_1_1_c_skater_core_physics_component.html#adf51713ad92e95712944004b518048ca" target="_top" xlink:title=" ">
<polygon fill="white" stroke="black" points="1008,-547.5 1008,-577.5 1186,-577.5 1186,-547.5 1008,-547.5"/>
<text text-anchor="start" x="1016" y="-565.5" font-family="Helvetica,sans-Serif" font-size="10.00">Obj::CSkaterCorePhysicsComponent</text>
<text text-anchor="middle" x="1097" y="-554.5" font-family="Helvetica,sans-Serif" font-size="10.00">::check_for_wallride</text>
</a>
</g>
</g>
<!-- Node2&#45;&gt;Node8 -->
<g id="edge7" class="edge"><title>Node2&#45;&gt;Node8</title>
<path fill="none" stroke="midnightblue" d="M1294.73,-416.355C1273.76,-447.31 1233.23,-501.063 1186,-532.5 1177,-538.492 1166.68,-543.402 1156.35,-547.387"/>
<polygon fill="midnightblue" stroke="midnightblue" points="1297.73,-418.163 1300.36,-407.899 1291.9,-414.286 1297.73,-418.163"/>
</g>
<!-- Node12 -->
<g id="node12" class="node"><title>Node12</title>
<g id="a_node12"><a xlink:href="../../d1/dee/class_obj_1_1_c_skater_adjust_physics_component.html#a210b24d0b42b834632cfffccd7cd6fc3" target="_top" xlink:title=" ">
<polygon fill="white" stroke="black" points="1029,-197 1029,-238 1165,-238 1165,-197 1029,-197"/>
<text text-anchor="start" x="1037" y="-226" font-family="Helvetica,sans-Serif" font-size="10.00">Obj::CSkaterAdjustPhysics</text>
<text text-anchor="start" x="1037" y="-215" font-family="Helvetica,sans-Serif" font-size="10.00">Component::check_inside</text>
<text text-anchor="middle" x="1097" y="-204" font-family="Helvetica,sans-Serif" font-size="10.00">_objects</text>
</a>
</g>
</g>
<!-- Node2&#45;&gt;Node12 -->
<g id="edge14" class="edge"><title>Node2&#45;&gt;Node12</title>
<path fill="none" stroke="midnightblue" d="M1294.49,-368.998C1273.25,-338.434 1232.43,-285.108 1186,-252.5 1178.2,-247.02 1169.41,-242.226 1160.49,-238.089"/>
<polygon fill="midnightblue" stroke="midnightblue" points="1291.66,-371.061 1300.19,-377.342 1297.44,-367.111 1291.66,-371.061"/>
</g>
<!-- Node14 -->
<g id="node14" class="node"><title>Node14</title>
<g id="a_node14"><a xlink:href="../../d2/d61/class_obj_1_1_c_skater_core_physics_component.html#af78c16f5fbc19409a8146e3df6694d63" target="_top" xlink:title=" ">
<polygon fill="white" stroke="black" points="1008,-98.5 1008,-128.5 1186,-128.5 1186,-98.5 1008,-98.5"/>
<text text-anchor="start" x="1016" y="-116.5" font-family="Helvetica,sans-Serif" font-size="10.00">Obj::CSkaterCorePhysicsComponent</text>
<text text-anchor="middle" x="1097" y="-105.5" font-family="Helvetica,sans-Serif" font-size="10.00">::CollideWithOtherSkaterLost</text>
</a>
</g>
</g>
<!-- Node2&#45;&gt;Node14 -->
<g id="edge16" class="edge"><title>Node2&#45;&gt;Node14</title>
<path fill="none" stroke="midnightblue" d="M1305.09,-367.6C1293.68,-316.465 1260.48,-199.246 1186,-137.5 1181.86,-134.064 1177.26,-131.117 1172.4,-128.59"/>
<polygon fill="midnightblue" stroke="midnightblue" points="1301.69,-368.419 1307.2,-377.465 1308.53,-366.954 1301.69,-368.419"/>
</g>
<!-- Node18 -->
<g id="node18" class="node"><title>Node18</title>
<g id="a_node18"><a xlink:href="../../d2/d61/class_obj_1_1_c_skater_core_physics_component.html#a12177ea092fa01e5211a61ae3cfa57f8" target="_top" xlink:title=" ">
<polygon fill="white" stroke="black" points="1008,-684.5 1008,-714.5 1186,-714.5 1186,-684.5 1008,-684.5"/>
<text text-anchor="start" x="1016" y="-702.5" font-family="Helvetica,sans-Serif" font-size="10.00">Obj::CSkaterCorePhysicsComponent</text>
<text text-anchor="middle" x="1097" y="-691.5" font-family="Helvetica,sans-Serif" font-size="10.00">::do_jump</text>
</a>
</g>
</g>
<!-- Node2&#45;&gt;Node18 -->
<g id="edge22" class="edge"><title>Node2&#45;&gt;Node18</title>
<path fill="none" stroke="midnightblue" d="M1305.71,-417.615C1295.22,-471.517 1263.23,-599.096 1186,-669.5 1179.32,-675.59 1171.35,-680.451 1162.98,-684.329"/>
<polygon fill="midnightblue" stroke="midnightblue" points="1309.2,-418.038 1307.59,-407.566 1302.31,-416.757 1309.2,-418.038"/>
</g>
<!-- Node19 -->
<g id="node19" class="node"><title>Node19</title>
<g id="a_node19"><a xlink:href="../../d2/d61/class_obj_1_1_c_skater_core_physics_component.html#a4a19f752bea38dcfe2507160bf6dce74" target="_top" xlink:title=" ">
<polygon fill="white" stroke="black" points="794,-424.5 794,-454.5 972,-454.5 972,-424.5 794,-424.5"/>
<text text-anchor="start" x="802" y="-442.5" font-family="Helvetica,sans-Serif" font-size="10.00">Obj::CSkaterCorePhysicsComponent</text>
<text text-anchor="middle" x="883" y="-431.5" font-family="Helvetica,sans-Serif" font-size="10.00">::do_rail_physics</text>
</a>
</g>
</g>
<!-- Node2&#45;&gt;Node19 -->
<g id="edge24" class="edge"><title>Node2&#45;&gt;Node19</title>
<path fill="none" stroke="midnightblue" d="M1281.57,-413.537C1257.5,-429.951 1221.38,-451.437 1186,-460.5 1103.65,-481.598 1004.8,-467.652 943.175,-454.523"/>
<polygon fill="midnightblue" stroke="midnightblue" points="1283.66,-416.343 1289.86,-407.752 1279.66,-410.601 1283.66,-416.343"/>
</g>
<!-- Node20 -->
<g id="node20" class="node"><title>Node20</title>
<g id="a_node20"><a xlink:href="../../d2/d61/class_obj_1_1_c_skater_core_physics_component.html#a5fadc83749c9d2c902f9d8e3b21a11f5" target="_top" xlink:title=" ">
<polygon fill="white" stroke="black" points="366,-380.5 366,-410.5 544,-410.5 544,-380.5 366,-380.5"/>
<text text-anchor="start" x="374" y="-398.5" font-family="Helvetica,sans-Serif" font-size="10.00">Obj::CSkaterCorePhysicsComponent</text>
<text text-anchor="middle" x="455" y="-387.5" font-family="Helvetica,sans-Serif" font-size="10.00">::do_wallplant_physics</text>
</a>
</g>
</g>
<!-- Node2&#45;&gt;Node20 -->
<g id="edge26" class="edge"><title>Node2&#45;&gt;Node20</title>
<path fill="none" stroke="midnightblue" d="M1211.76,-392.845C1043.92,-393.435 704.581,-394.627 544.016,-395.191"/>
<polygon fill="midnightblue" stroke="midnightblue" points="1211.84,-396.345 1221.82,-392.81 1211.81,-389.345 1211.84,-396.345"/>
</g>
<!-- Node21 -->
<g id="node21" class="node"><title>Node21</title>
<g id="a_node21"><a xlink:href="../../d2/d61/class_obj_1_1_c_skater_core_physics_component.html#aa340242d36f0580b9d16d3748b70313c" target="_top" xlink:title=" ">
<polygon fill="white" stroke="black" points="580,-336.5 580,-366.5 758,-366.5 758,-336.5 580,-336.5"/>
<text text-anchor="start" x="588" y="-354.5" font-family="Helvetica,sans-Serif" font-size="10.00">Obj::CSkaterCorePhysicsComponent</text>
<text text-anchor="middle" x="669" y="-343.5" font-family="Helvetica,sans-Serif" font-size="10.00">::do_wallride_physics</text>
</a>
</g>
</g>
<!-- Node2&#45;&gt;Node21 -->
<g id="edge28" class="edge"><title>Node2&#45;&gt;Node21</title>
<path fill="none" stroke="midnightblue" d="M1211.54,-380.837C1202.91,-379.981 1194.3,-379.185 1186,-378.5 1036.03,-366.121 861.04,-358.372 758.216,-354.501"/>
<polygon fill="midnightblue" stroke="midnightblue" points="1211.36,-384.337 1221.67,-381.868 1212.07,-377.373 1211.36,-384.337"/>
</g>
<!-- Node22 -->
<g id="node22" class="node"><title>Node22</title>
<g id="a_node22"><a xlink:href="../../d2/d61/class_obj_1_1_c_skater_core_physics_component.html#a7051f22d83e69a19d70192da15a136db" target="_top" xlink:title=" ">
<polygon fill="white" stroke="black" points="1008,-295.5 1008,-325.5 1186,-325.5 1186,-295.5 1008,-295.5"/>
<text text-anchor="start" x="1016" y="-313.5" font-family="Helvetica,sans-Serif" font-size="10.00">Obj::CSkaterCorePhysicsComponent</text>
<text text-anchor="middle" x="1097" y="-302.5" font-family="Helvetica,sans-Serif" font-size="10.00">::got_rail</text>
</a>
</g>
</g>
<!-- Node2&#45;&gt;Node22 -->
<g id="edge30" class="edge"><title>Node2&#45;&gt;Node22</title>
<path fill="none" stroke="midnightblue" d="M1266.39,-373.349C1242.75,-363.191 1212.95,-350.731 1186,-340.5 1172.57,-335.402 1157.84,-330.222 1144.34,-325.634"/>
<polygon fill="midnightblue" stroke="midnightblue" points="1265.21,-376.654 1275.78,-377.405 1267.98,-370.228 1265.21,-376.654"/>
</g>
<!-- Node24 -->
<g id="node24" class="node"><title>Node24</title>
<g id="a_node24"><a xlink:href="../../d2/d61/class_obj_1_1_c_skater_core_physics_component.html#a3f77c3319733b63343403d9ebc6f2da6" target="_top" xlink:title=" ">
<polygon fill="white" stroke="black" points="794,-246.5 794,-276.5 972,-276.5 972,-246.5 794,-246.5"/>
<text text-anchor="start" x="802" y="-264.5" font-family="Helvetica,sans-Serif" font-size="10.00">Obj::CSkaterCorePhysicsComponent</text>
<text text-anchor="middle" x="883" y="-253.5" font-family="Helvetica,sans-Serif" font-size="10.00">::ReadySkateState</text>
</a>
</g>
</g>
<!-- Node2&#45;&gt;Node24 -->
<g id="edge41" class="edge"><title>Node2&#45;&gt;Node24</title>
<path fill="none" stroke="midnightblue" d="M1291.68,-369.713C1269.63,-344.159 1230.04,-303.892 1186,-285.5 1118.17,-257.173 1034.4,-252.622 972.308,-254.329"/>
<polygon fill="midnightblue" stroke="midnightblue" points="1289.08,-372.061 1298.2,-377.446 1294.43,-367.546 1289.08,-372.061"/>
</g>
<!-- Node31 -->
<g id="node31" class="node"><title>Node31</title>
<g id="a_node31"><a xlink:href="../../d2/d61/class_obj_1_1_c_skater_core_physics_component.html#a973f20376b5ea2d7fd407ec31cb038b5" target="_top" xlink:title=" ">
<polygon fill="white" stroke="black" points="1008,-49.5 1008,-79.5 1186,-79.5 1186,-49.5 1008,-49.5"/>
<text text-anchor="start" x="1016" y="-67.5" font-family="Helvetica,sans-Serif" font-size="10.00">Obj::CSkaterCorePhysicsComponent</text>
<text text-anchor="middle" x="1097" y="-56.5" font-family="Helvetica,sans-Serif" font-size="10.00">::Reset</text>
</a>
</g>
</g>
<!-- Node2&#45;&gt;Node31 -->
<g id="edge42" class="edge"><title>Node2&#45;&gt;Node31</title>
<path fill="none" stroke="midnightblue" d="M1302.96,-367.629C1283.97,-302.199 1230.16,-127.612 1186,-88.5 1182.09,-85.0351 1177.72,-82.0646 1173.08,-79.5188"/>
<polygon fill="midnightblue" stroke="midnightblue" points="1299.67,-368.857 1305.8,-377.5 1306.4,-366.922 1299.67,-368.857"/>
</g>
<!-- Node32 -->
<g id="node32" class="node"><title>Node32</title>
<g id="a_node32"><a xlink:href="../../d2/d61/class_obj_1_1_c_skater_core_physics_component.html#afad7e842e0675347fca4a169997dfcb6" target="_top" xlink:title=" ">
<polygon fill="white" stroke="black" points="1008,-421.5 1008,-451.5 1186,-451.5 1186,-421.5 1008,-421.5"/>
<text text-anchor="start" x="1016" y="-439.5" font-family="Helvetica,sans-Serif" font-size="10.00">Obj::CSkaterCorePhysicsComponent</text>
<text text-anchor="middle" x="1097" y="-428.5" font-family="Helvetica,sans-Serif" font-size="10.00">::skate_off_rail</text>
</a>
</g>
</g>
<!-- Node2&#45;&gt;Node32 -->
<g id="edge43" class="edge"><title>Node2&#45;&gt;Node32</title>
<path fill="none" stroke="midnightblue" d="M1227.84,-409.552C1208.9,-413.483 1188.89,-417.636 1170.4,-421.474"/>
<polygon fill="midnightblue" stroke="midnightblue" points="1228.55,-412.978 1237.63,-407.519 1227.13,-406.125 1228.55,-412.978"/>
</g>
<!-- Node33 -->
<g id="node33" class="node"><title>Node33</title>
<g id="a_node33"><a xlink:href="../../d2/d61/class_obj_1_1_c_skater_core_physics_component.html#a57ea07a7343241be3e72bc19a81744aa" target="_top" xlink:title=" ">
<polygon fill="white" stroke="black" points="580,-499.5 580,-529.5 758,-529.5 758,-499.5 580,-499.5"/>
<text text-anchor="start" x="588" y="-517.5" font-family="Helvetica,sans-Serif" font-size="10.00">Obj::CSkaterCorePhysicsComponent</text>
<text text-anchor="middle" x="669" y="-506.5" font-family="Helvetica,sans-Serif" font-size="10.00">::snap_to_ground</text>
</a>
</g>
</g>
<!-- Node2&#45;&gt;Node33 -->
<g id="edge45" class="edge"><title>Node2&#45;&gt;Node33</title>
<path fill="none" stroke="midnightblue" d="M1287.22,-414.684C1263.91,-435.814 1225.61,-466.423 1186,-480.5 1042.83,-531.387 863.424,-529.849 758.278,-522.963"/>
<polygon fill="midnightblue" stroke="midnightblue" points="1289.85,-417.011 1294.81,-407.647 1285.1,-411.876 1289.85,-417.011"/>
</g>
<!-- Node34 -->
<g id="node34" class="node"><title>Node34</title>
<g id="a_node34"><a xlink:href="../../d1/dee/class_obj_1_1_c_skater_adjust_physics_component.html#a7a766e7e20ffb3c89364297c0a7b7f79" target="_top" xlink:title=" ">
<polygon fill="white" stroke="black" points="1029,-147.5 1029,-177.5 1165,-177.5 1165,-147.5 1029,-147.5"/>
<text text-anchor="start" x="1037" y="-165.5" font-family="Helvetica,sans-Serif" font-size="10.00">Obj::CSkaterAdjustPhysics</text>
<text text-anchor="middle" x="1097" y="-154.5" font-family="Helvetica,sans-Serif" font-size="10.00">Component::uber_frig</text>
</a>
</g>
</g>
<!-- Node2&#45;&gt;Node34 -->
<g id="edge47" class="edge"><title>Node2&#45;&gt;Node34</title>
<path fill="none" stroke="midnightblue" d="M1301.9,-367.788C1286.45,-324.562 1248.62,-235.286 1186,-187.5 1179.81,-182.779 1172.77,-178.95 1165.43,-175.843"/>
<polygon fill="midnightblue" stroke="midnightblue" points="1298.68,-369.191 1305.27,-377.492 1305.3,-366.897 1298.68,-369.191"/>
</g>
<!-- Node5 -->
<g id="node5" class="node"><title>Node5</title>
<g id="a_node5"><a xlink:href="../../d2/d61/class_obj_1_1_c_skater_core_physics_component.html#ac72697bca83c340810eaff189de6e7ce" target="_top" xlink:title=" ">
<polygon fill="white" stroke="black" points="794,-596.5 794,-626.5 972,-626.5 972,-596.5 794,-596.5"/>
<text text-anchor="start" x="802" y="-614.5" font-family="Helvetica,sans-Serif" font-size="10.00">Obj::CSkaterCorePhysicsComponent</text>
<text text-anchor="middle" x="883" y="-603.5" font-family="Helvetica,sans-Serif" font-size="10.00">::handle_forward_collision_in_air</text>
</a>
</g>
</g>
<!-- Node4&#45;&gt;Node5 -->
<g id="edge4" class="edge"><title>Node4&#45;&gt;Node5</title>
<path fill="none" stroke="midnightblue" d="M997.893,-611.5C989.3,-611.5 980.637,-611.5 972.132,-611.5"/>
<polygon fill="midnightblue" stroke="midnightblue" points="997.935,-615 1007.93,-611.5 997.935,-608 997.935,-615"/>
</g>
<!-- Node5&#45;&gt;Node6 -->
<g id="edge5" class="edge"><title>Node5&#45;&gt;Node6</title>
<path fill="none" stroke="midnightblue" d="M783.962,-605.747C711.664,-601.504 614.136,-595.78 544.261,-591.68"/>
<polygon fill="midnightblue" stroke="midnightblue" points="783.803,-609.243 793.991,-606.335 784.213,-602.255 783.803,-609.243"/>
</g>
<!-- Node7 -->
<g id="node7" class="node"><title>Node7</title>
<g id="a_node7"><a xlink:href="../../d2/d61/class_obj_1_1_c_skater_core_physics_component.html#ab33036e6e0db072615c967ea6392832e" target="_top" xlink:title=" ">
<polygon fill="white" stroke="black" points="152,-402.5 152,-432.5 330,-432.5 330,-402.5 152,-402.5"/>
<text text-anchor="start" x="160" y="-420.5" font-family="Helvetica,sans-Serif" font-size="10.00">Obj::CSkaterCorePhysicsComponent</text>
<text text-anchor="middle" x="241" y="-409.5" font-family="Helvetica,sans-Serif" font-size="10.00">::Update</text>
</a>
</g>
</g>
<!-- Node6&#45;&gt;Node7 -->
<g id="edge6" class="edge"><title>Node6&#45;&gt;Node7</title>
<path fill="none" stroke="midnightblue" d="M412.216,-566.706C397.101,-558.783 380.258,-549.033 366,-538.5 321.242,-505.436 276.417,-456.97 254.995,-432.629"/>
<polygon fill="midnightblue" stroke="midnightblue" points="410.869,-569.948 421.364,-571.393 414.061,-563.718 410.869,-569.948"/>
</g>
<!-- Node8&#45;&gt;Node5 -->
<g id="edge13" class="edge"><title>Node8&#45;&gt;Node5</title>
<path fill="none" stroke="midnightblue" d="M1021.02,-579.831C997.48,-585.271 971.705,-591.229 948.925,-596.494"/>
<polygon fill="midnightblue" stroke="midnightblue" points="1022,-583.197 1030.95,-577.535 1020.42,-576.377 1022,-583.197"/>
</g>
<!-- Node9 -->
<g id="node9" class="node"><title>Node9</title>
<g id="a_node9"><a xlink:href="../../d2/d61/class_obj_1_1_c_skater_core_physics_component.html#a1b0540b5e643e86d12e76afee9d792bd" target="_top" xlink:title=" ">
<polygon fill="white" stroke="black" points="794,-547.5 794,-577.5 972,-577.5 972,-547.5 794,-547.5"/>
<text text-anchor="start" x="802" y="-565.5" font-family="Helvetica,sans-Serif" font-size="10.00">Obj::CSkaterCorePhysicsComponent</text>
<text text-anchor="middle" x="883" y="-554.5" font-family="Helvetica,sans-Serif" font-size="10.00">::check_side</text>
</a>
</g>
</g>
<!-- Node8&#45;&gt;Node9 -->
<g id="edge8" class="edge"><title>Node8&#45;&gt;Node9</title>
<path fill="none" stroke="midnightblue" d="M997.893,-562.5C989.3,-562.5 980.637,-562.5 972.132,-562.5"/>
<polygon fill="midnightblue" stroke="midnightblue" points="997.935,-566 1007.93,-562.5 997.935,-559 997.935,-566"/>
</g>
<!-- Node10 -->
<g id="node10" class="node"><title>Node10</title>
<g id="a_node10"><a xlink:href="../../d2/d61/class_obj_1_1_c_skater_core_physics_component.html#a32542d56566881052d6ab68e631e9f6d" target="_top" xlink:title=" ">
<polygon fill="white" stroke="black" points="580,-548.5 580,-578.5 758,-578.5 758,-548.5 580,-548.5"/>
<text text-anchor="start" x="588" y="-566.5" font-family="Helvetica,sans-Serif" font-size="10.00">Obj::CSkaterCorePhysicsComponent</text>
<text text-anchor="middle" x="669" y="-555.5" font-family="Helvetica,sans-Serif" font-size="10.00">::check_side_collisions</text>
</a>
</g>
</g>
<!-- Node9&#45;&gt;Node10 -->
<g id="edge9" class="edge"><title>Node9&#45;&gt;Node10</title>
<path fill="none" stroke="midnightblue" d="M783.893,-562.963C775.3,-563.003 766.637,-563.044 758.132,-563.084"/>
<polygon fill="midnightblue" stroke="midnightblue" points="783.951,-566.463 793.935,-562.915 783.918,-559.463 783.951,-566.463"/>
</g>
<!-- Node10&#45;&gt;Node6 -->
<g id="edge10" class="edge"><title>Node10&#45;&gt;Node6</title>
<path fill="none" stroke="midnightblue" d="M569.893,-574.144C561.3,-575.076 552.637,-576.016 544.132,-576.938"/>
<polygon fill="midnightblue" stroke="midnightblue" points="570.371,-577.613 579.935,-573.054 569.615,-570.653 570.371,-577.613"/>
</g>
<!-- Node11 -->
<g id="node11" class="node"><title>Node11</title>
<g id="a_node11"><a xlink:href="../../d2/d61/class_obj_1_1_c_skater_core_physics_component.html#ac0a7b3aab2a95b3824bf411253578223" target="_top" xlink:title=" ">
<polygon fill="white" stroke="black" points="366,-499.5 366,-529.5 544,-529.5 544,-499.5 366,-499.5"/>
<text text-anchor="start" x="374" y="-517.5" font-family="Helvetica,sans-Serif" font-size="10.00">Obj::CSkaterCorePhysicsComponent</text>
<text text-anchor="middle" x="455" y="-506.5" font-family="Helvetica,sans-Serif" font-size="10.00">::do_on_ground_physics</text>
</a>
</g>
</g>
<!-- Node10&#45;&gt;Node11 -->
<g id="edge11" class="edge"><title>Node10&#45;&gt;Node11</title>
<path fill="none" stroke="midnightblue" d="M593.017,-546.169C569.48,-540.729 543.705,-534.771 520.925,-529.506"/>
<polygon fill="midnightblue" stroke="midnightblue" points="592.421,-549.623 602.952,-548.465 593.997,-542.803 592.421,-549.623"/>
</g>
<!-- Node11&#45;&gt;Node7 -->
<g id="edge12" class="edge"><title>Node11&#45;&gt;Node7</title>
<path fill="none" stroke="midnightblue" d="M411.589,-495.095C371.334,-476.676 311.668,-449.376 274.892,-432.55"/>
<polygon fill="midnightblue" stroke="midnightblue" points="410.325,-498.366 420.875,-499.344 413.238,-492 410.325,-498.366"/>
</g>
<!-- Node13 -->
<g id="node13" class="node"><title>Node13</title>
<g id="a_node13"><a xlink:href="../../d1/dee/class_obj_1_1_c_skater_adjust_physics_component.html#a6a91a5c66a486de3eddd395c41dcc0f3" target="_top" xlink:title=" ">
<polygon fill="white" stroke="black" points="815,-184.5 815,-214.5 951,-214.5 951,-184.5 815,-184.5"/>
<text text-anchor="start" x="823" y="-202.5" font-family="Helvetica,sans-Serif" font-size="10.00">Obj::CSkaterAdjustPhysics</text>
<text text-anchor="middle" x="883" y="-191.5" font-family="Helvetica,sans-Serif" font-size="10.00">Component::Update</text>
</a>
</g>
</g>
<!-- Node12&#45;&gt;Node13 -->
<g id="edge15" class="edge"><title>Node12&#45;&gt;Node13</title>
<path fill="none" stroke="midnightblue" d="M1018.85,-210.95C996.625,-209.063 972.565,-207.02 951.005,-205.189"/>
<polygon fill="midnightblue" stroke="midnightblue" points="1018.66,-214.446 1028.92,-211.805 1019.25,-207.471 1018.66,-214.446"/>
</g>
<!-- Node15 -->
<g id="node15" class="node"><title>Node15</title>
<g id="a_node15"><a xlink:href="../../d7/df7/class_obj_1_1_c_skater_state_history_component.html#aa9121ccf51f6773ab75dde0cf64efcfa" target="_top" xlink:title=" ">
<polygon fill="white" stroke="black" points="811,-110.5 811,-140.5 955,-140.5 955,-110.5 811,-110.5"/>
<text text-anchor="start" x="819" y="-128.5" font-family="Helvetica,sans-Serif" font-size="10.00">Obj::CSkaterStateHistory</text>
<text text-anchor="middle" x="883" y="-117.5" font-family="Helvetica,sans-Serif" font-size="10.00">Component::sHandleCollision</text>
</a>
</g>
</g>
<!-- Node14&#45;&gt;Node15 -->
<g id="edge17" class="edge"><title>Node14&#45;&gt;Node15</title>
<path fill="none" stroke="midnightblue" d="M997.54,-119.073C983.198,-119.885 968.672,-120.707 955.018,-121.48"/>
<polygon fill="midnightblue" stroke="midnightblue" points="998.148,-122.544 1007.93,-118.485 997.753,-115.556 998.148,-122.544"/>
</g>
<!-- Node17 -->
<g id="node17" class="node"><title>Node17</title>
<g id="a_node17"><a xlink:href="../../d7/df7/class_obj_1_1_c_skater_state_history_component.html#a316df23ec84ae55ddca190f22fd3cde7" target="_top" xlink:title=" ">
<polygon fill="white" stroke="black" points="803,-61.5 803,-91.5 963,-91.5 963,-61.5 803,-61.5"/>
<text text-anchor="start" x="811" y="-79.5" font-family="Helvetica,sans-Serif" font-size="10.00">Obj::CSkaterStateHistory</text>
<text text-anchor="middle" x="883" y="-68.5" font-family="Helvetica,sans-Serif" font-size="10.00">Component::sHandleProjectileHit</text>
</a>
</g>
</g>
<!-- Node14&#45;&gt;Node17 -->
<g id="edge19" class="edge"><title>Node14&#45;&gt;Node17</title>
<path fill="none" stroke="midnightblue" d="M999.622,-96.6794C987.476,-94.5595 975.159,-92.4099 963.318,-90.3432"/>
<polygon fill="midnightblue" stroke="midnightblue" points="999.319,-100.179 1009.77,-98.4507 1000.52,-93.2834 999.319,-100.179"/>
</g>
<!-- Node16 -->
<g id="node16" class="node"><title>Node16</title>
<g id="a_node16"><a xlink:href="../../d6/df1/class_mdl_1_1_skate.html#a9c40b8686dad1a5f716eacf9a8e31e53" target="_top" xlink:title=" ">
<polygon fill="white" stroke="black" points="598.5,-86.5 598.5,-116.5 739.5,-116.5 739.5,-86.5 598.5,-86.5"/>
<text text-anchor="start" x="606.5" y="-104.5" font-family="Helvetica,sans-Serif" font-size="10.00">Mdl::Skate::AddNetworkMsg</text>
<text text-anchor="middle" x="669" y="-93.5" font-family="Helvetica,sans-Serif" font-size="10.00">Handlers</text>
</a>
</g>
</g>
<!-- Node15&#45;&gt;Node16 -->
<g id="edge18" class="edge"><title>Node15&#45;&gt;Node16</title>
<path fill="none" stroke="midnightblue" d="M800.717,-116.298C780.545,-114.015 759.108,-111.588 739.555,-109.374"/>
<polygon fill="midnightblue" stroke="midnightblue" points="800.487,-119.794 810.817,-117.442 801.275,-112.839 800.487,-119.794"/>
</g>
<!-- Node17&#45;&gt;Node16 -->
<g id="edge20" class="edge"><title>Node17&#45;&gt;Node16</title>
<path fill="none" stroke="midnightblue" d="M792.467,-87.0581C774.842,-89.1365 756.595,-91.2884 739.738,-93.2762"/>
<polygon fill="midnightblue" stroke="midnightblue" points="793.236,-90.4918 802.758,-85.8446 792.416,-83.5399 793.236,-90.4918"/>
</g>
<!-- Node18&#45;&gt;Node3 -->
<g id="edge23" class="edge"><title>Node18&#45;&gt;Node3</title>
<path fill="none" stroke="midnightblue" d="M997.893,-709.681C989.3,-710.573 980.637,-711.472 972.132,-712.354"/>
<polygon fill="midnightblue" stroke="midnightblue" points="998.349,-713.152 1007.93,-708.639 997.627,-706.19 998.349,-713.152"/>
</g>
<!-- Node19&#45;&gt;Node7 -->
<g id="edge25" class="edge"><title>Node19&#45;&gt;Node7</title>
<path fill="none" stroke="midnightblue" d="M783.448,-436.112C659.604,-431.855 448.931,-424.613 330.181,-420.531"/>
<polygon fill="midnightblue" stroke="midnightblue" points="783.568,-439.618 793.683,-436.464 783.809,-432.623 783.568,-439.618"/>
</g>
<!-- Node20&#45;&gt;Node7 -->
<g id="edge27" class="edge"><title>Node20&#45;&gt;Node7</title>
<path fill="none" stroke="midnightblue" d="M355.893,-405.681C347.3,-406.573 338.637,-407.472 330.132,-408.354"/>
<polygon fill="midnightblue" stroke="midnightblue" points="356.349,-409.152 365.935,-404.639 355.627,-402.19 356.349,-409.152"/>
</g>
<!-- Node21&#45;&gt;Node7 -->
<g id="edge29" class="edge"><title>Node21&#45;&gt;Node7</title>
<path fill="none" stroke="midnightblue" d="M569.676,-350.295C510.128,-351.385 432.99,-356.042 366,-370.5 333.594,-377.494 298.41,-391.491 273.827,-402.399"/>
<polygon fill="midnightblue" stroke="midnightblue" points="569.883,-353.792 579.828,-350.14 569.776,-346.793 569.883,-353.792"/>
</g>
<!-- Node23 -->
<g id="node23" class="node"><title>Node23</title>
<g id="a_node23"><a xlink:href="../../d2/d61/class_obj_1_1_c_skater_core_physics_component.html#a4f4d1859d6587049485c9d03b7973a0f" target="_top" xlink:title=" ">
<polygon fill="white" stroke="black" points="794,-295.5 794,-325.5 972,-325.5 972,-295.5 794,-295.5"/>
<text text-anchor="start" x="802" y="-313.5" font-family="Helvetica,sans-Serif" font-size="10.00">Obj::CSkaterCorePhysicsComponent</text>
<text text-anchor="middle" x="883" y="-302.5" font-family="Helvetica,sans-Serif" font-size="10.00">::maybe_stick_to_rail</text>
</a>
</g>
</g>
<!-- Node22&#45;&gt;Node23 -->
<g id="edge31" class="edge"><title>Node22&#45;&gt;Node23</title>
<path fill="none" stroke="midnightblue" d="M997.893,-310.5C989.3,-310.5 980.637,-310.5 972.132,-310.5"/>
<polygon fill="midnightblue" stroke="midnightblue" points="997.935,-314 1007.93,-310.5 997.935,-307 997.935,-314"/>
</g>
<!-- Node22&#45;&gt;Node24 -->
<g id="edge34" class="edge"><title>Node22&#45;&gt;Node24</title>
<path fill="none" stroke="midnightblue" d="M1021.02,-293.169C997.48,-287.729 971.705,-281.771 948.925,-276.506"/>
<polygon fill="midnightblue" stroke="midnightblue" points="1020.42,-296.623 1030.95,-295.465 1022,-289.803 1020.42,-296.623"/>
</g>
<!-- Node23&#45;&gt;Node7 -->
<g id="edge33" class="edge"><title>Node23&#45;&gt;Node7</title>
<path fill="none" stroke="midnightblue" d="M783.85,-304.197C678.13,-300.446 506.216,-303.223 366,-347.5 326.868,-359.857 286.347,-385.622 262.692,-402.21"/>
<polygon fill="midnightblue" stroke="midnightblue" points="783.745,-307.695 793.871,-304.579 784.012,-300.7 783.745,-307.695"/>
</g>
<!-- Node23&#45;&gt;Node21 -->
<g id="edge32" class="edge"><title>Node23&#45;&gt;Node21</title>
<path fill="none" stroke="midnightblue" d="M794.22,-327.476C778.8,-330.458 762.85,-333.543 747.728,-336.468"/>
<polygon fill="midnightblue" stroke="midnightblue" points="795.109,-330.869 804.263,-325.534 793.78,-323.997 795.109,-330.869"/>
</g>
<!-- Node25 -->
<g id="node25" class="node"><title>Node25</title>
<g id="a_node25"><a xlink:href="../../d4/deb/class_obj_1_1_c_skater_physics_control_component.html#a44609b986e63e8ea74b0717d229b122e" target="_top" xlink:title=" ">
<polygon fill="white" stroke="black" points="599.5,-238 599.5,-279 738.5,-279 738.5,-238 599.5,-238"/>
<text text-anchor="start" x="607.5" y="-267" font-family="Helvetica,sans-Serif" font-size="10.00">Obj::CSkaterPhysicsControl</text>
<text text-anchor="start" x="607.5" y="-256" font-family="Helvetica,sans-Serif" font-size="10.00">Component::switch_walking</text>
<text text-anchor="middle" x="669" y="-245" font-family="Helvetica,sans-Serif" font-size="10.00">_to_skating</text>
</a>
</g>
</g>
<!-- Node24&#45;&gt;Node25 -->
<g id="edge35" class="edge"><title>Node24&#45;&gt;Node25</title>
<path fill="none" stroke="midnightblue" d="M783.505,-260.106C768.37,-259.892 753.03,-259.675 738.727,-259.473"/>
<polygon fill="midnightblue" stroke="midnightblue" points="783.886,-263.612 793.935,-260.254 783.985,-256.613 783.886,-263.612"/>
</g>
<!-- Node26 -->
<g id="node26" class="node"><title>Node26</title>
<g id="a_node26"><a xlink:href="../../d4/deb/class_obj_1_1_c_skater_physics_control_component.html#a464204726957c78800bcfd2798040994" target="_top" xlink:title=" ">
<polygon fill="white" stroke="black" points="374.5,-243.5 374.5,-273.5 535.5,-273.5 535.5,-243.5 374.5,-243.5"/>
<text text-anchor="start" x="382.5" y="-261.5" font-family="Helvetica,sans-Serif" font-size="10.00">Obj::CSkaterPhysicsControl</text>
<text text-anchor="middle" x="455" y="-250.5" font-family="Helvetica,sans-Serif" font-size="10.00">Component::CallMemberFunction</text>
</a>
</g>
</g>
<!-- Node25&#45;&gt;Node26 -->
<g id="edge36" class="edge"><title>Node25&#45;&gt;Node26</title>
<path fill="none" stroke="midnightblue" d="M589.305,-258.5C571.818,-258.5 553.266,-258.5 535.738,-258.5"/>
<polygon fill="midnightblue" stroke="midnightblue" points="589.462,-262 599.462,-258.5 589.462,-255 589.462,-262"/>
</g>
<!-- Node27 -->
<g id="node27" class="node"><title>Node27</title>
<g id="a_node27"><a xlink:href="../../dd/d52/class_obj_1_1_c_walk_component.html#a0ac69c034862c775af90cd21b01d2182" target="_top" xlink:title=" ">
<polygon fill="white" stroke="black" points="183,-268.5 183,-298.5 299,-298.5 299,-268.5 183,-268.5"/>
<text text-anchor="start" x="191" y="-286.5" font-family="Helvetica,sans-Serif" font-size="10.00">Obj::CWalkComponent</text>
<text text-anchor="middle" x="241" y="-275.5" font-family="Helvetica,sans-Serif" font-size="10.00">::go_on_ground_state</text>
</a>
</g>
</g>
<!-- Node26&#45;&gt;Node27 -->
<g id="edge37" class="edge"><title>Node26&#45;&gt;Node27</title>
<path fill="none" stroke="midnightblue" d="M364.388,-269.067C342.295,-271.673 319.228,-274.393 299.153,-276.76"/>
<polygon fill="midnightblue" stroke="midnightblue" points="364.935,-272.527 374.456,-267.88 364.115,-265.576 364.935,-272.527"/>
</g>
<!-- Node29 -->
<g id="node29" class="node"><title>Node29</title>
<g id="a_node29"><a xlink:href="../../d5/d58/class_obj_1_1_c_rider_component.html#a27a1ea808a1b1a8bc9dee48df31d020e" target="_top" xlink:title=" ">
<polygon fill="white" stroke="black" points="183,-219.5 183,-249.5 299,-249.5 299,-219.5 183,-219.5"/>
<text text-anchor="start" x="191" y="-237.5" font-family="Helvetica,sans-Serif" font-size="10.00">Obj::CRiderComponent</text>
<text text-anchor="middle" x="241" y="-226.5" font-family="Helvetica,sans-Serif" font-size="10.00">::go_on_horse_state</text>
</a>
</g>
</g>
<!-- Node26&#45;&gt;Node29 -->
<g id="edge39" class="edge"><title>Node26&#45;&gt;Node29</title>
<path fill="none" stroke="midnightblue" d="M364.388,-248.355C342.295,-245.854 319.228,-243.243 299.153,-240.97"/>
<polygon fill="midnightblue" stroke="midnightblue" points="364.126,-251.848 374.456,-249.495 364.913,-244.892 364.126,-251.848"/>
</g>
<!-- Node28 -->
<g id="node28" class="node"><title>Node28</title>
<g id="a_node28"><a xlink:href="../../dd/d52/class_obj_1_1_c_walk_component.html#a93a603eb6f32522550b740ce8d56900d" target="_top" xlink:title=" ">
<polygon fill="white" stroke="black" points="0,-268.5 0,-298.5 116,-298.5 116,-268.5 0,-268.5"/>
<text text-anchor="start" x="8" y="-286.5" font-family="Helvetica,sans-Serif" font-size="10.00">Obj::CWalkComponent</text>
<text text-anchor="middle" x="58" y="-275.5" font-family="Helvetica,sans-Serif" font-size="10.00">::Update</text>
</a>
</g>
</g>
<!-- Node27&#45;&gt;Node28 -->
<g id="edge38" class="edge"><title>Node27&#45;&gt;Node28</title>
<path fill="none" stroke="midnightblue" d="M172.592,-283.5C154.048,-283.5 134.117,-283.5 116.207,-283.5"/>
<polygon fill="midnightblue" stroke="midnightblue" points="172.731,-287 182.73,-283.5 172.73,-280 172.731,-287"/>
</g>
<!-- Node30 -->
<g id="node30" class="node"><title>Node30</title>
<g id="a_node30"><a xlink:href="../../d5/d58/class_obj_1_1_c_rider_component.html#a541e39cf0541919fede6f6048d9ee72d" target="_top" xlink:title=" ">
<polygon fill="white" stroke="black" points="0,-219.5 0,-249.5 116,-249.5 116,-219.5 0,-219.5"/>
<text text-anchor="start" x="8" y="-237.5" font-family="Helvetica,sans-Serif" font-size="10.00">Obj::CRiderComponent</text>
<text text-anchor="middle" x="58" y="-226.5" font-family="Helvetica,sans-Serif" font-size="10.00">::Update</text>
</a>
</g>
</g>
<!-- Node29&#45;&gt;Node30 -->
<g id="edge40" class="edge"><title>Node29&#45;&gt;Node30</title>
<path fill="none" stroke="midnightblue" d="M172.592,-234.5C154.048,-234.5 134.117,-234.5 116.207,-234.5"/>
<polygon fill="midnightblue" stroke="midnightblue" points="172.731,-238 182.73,-234.5 172.73,-231 172.731,-238"/>
</g>
<!-- Node32&#45;&gt;Node19 -->
<g id="edge44" class="edge"><title>Node32&#45;&gt;Node19</title>
<path fill="none" stroke="midnightblue" d="M997.893,-437.888C989.3,-438.01 980.637,-438.132 972.132,-438.253"/>
<polygon fill="midnightblue" stroke="midnightblue" points="997.985,-441.387 1007.93,-437.746 997.886,-434.388 997.985,-441.387"/>
</g>
<!-- Node33&#45;&gt;Node11 -->
<g id="edge46" class="edge"><title>Node33&#45;&gt;Node11</title>
<path fill="none" stroke="midnightblue" d="M569.893,-514.5C561.3,-514.5 552.637,-514.5 544.132,-514.5"/>
<polygon fill="midnightblue" stroke="midnightblue" points="569.935,-518 579.935,-514.5 569.935,-511 569.935,-518"/>
</g>
<!-- Node34&#45;&gt;Node13 -->
<g id="edge48" class="edge"><title>Node34&#45;&gt;Node13</title>
<path fill="none" stroke="midnightblue" d="M1018.85,-175.964C996.625,-179.844 972.565,-184.043 951.005,-187.806"/>
<polygon fill="midnightblue" stroke="midnightblue" points="1019.67,-179.374 1028.92,-174.207 1018.47,-172.479 1019.67,-179.374"/>
</g>
<!-- Node36 -->
<g id="node36" class="node"><title>Node36</title>
<g id="a_node36"><a xlink:href="../../d1/dcb/class_obj_1_1_c_ped_logic_component.html#aa2c62baf1ffba4ebce5263c0a07bff18" target="_top" xlink:title=" ">
<polygon fill="white" stroke="black" points="1030,-0.5 1030,-30.5 1164,-30.5 1164,-0.5 1030,-0.5"/>
<text text-anchor="start" x="1038" y="-18.5" font-family="Helvetica,sans-Serif" font-size="10.00">Obj::CPedLogicComponent</text>
<text text-anchor="middle" x="1097" y="-7.5" font-family="Helvetica,sans-Serif" font-size="10.00">::GenericSkaterUpdate</text>
</a>
</g>
</g>
<!-- Node35&#45;&gt;Node36 -->
<g id="edge50" class="edge"><title>Node35&#45;&gt;Node36</title>
<path fill="none" stroke="midnightblue" d="M1278.61,-88.8911C1254.18,-73.5732 1218.99,-53.0634 1186,-39.5 1177.94,-36.188 1169.29,-33.1913 1160.66,-30.5274"/>
<polygon fill="midnightblue" stroke="midnightblue" points="1276.78,-91.8761 1287.1,-94.2772 1280.53,-85.965 1276.78,-91.8761"/>
</g>
<!-- Node37 -->
<g id="node37" class="node"><title>Node37</title>
<g id="a_node37"><a xlink:href="../../d1/dcb/class_obj_1_1_c_ped_logic_component.html#a84e225759509cdc85d7be0839dc1862b" target="_top" xlink:title=" ">
<polygon fill="white" stroke="black" points="816,-0.5 816,-30.5 950,-30.5 950,-0.5 816,-0.5"/>
<text text-anchor="start" x="824" y="-18.5" font-family="Helvetica,sans-Serif" font-size="10.00">Obj::CPedLogicComponent</text>
<text text-anchor="middle" x="883" y="-7.5" font-family="Helvetica,sans-Serif" font-size="10.00">::Update</text>
</a>
</g>
</g>
<!-- Node36&#45;&gt;Node37 -->
<g id="edge51" class="edge"><title>Node36&#45;&gt;Node37</title>
<path fill="none" stroke="midnightblue" d="M1019.51,-15.5C996.774,-15.5 972.076,-15.5 950.068,-15.5"/>
<polygon fill="midnightblue" stroke="midnightblue" points="1019.79,-19.0001 1029.79,-15.5 1019.79,-12.0001 1019.79,-19.0001"/>
</g>
</g>
</svg>
