<?xml version="1.0" encoding="UTF-8" standalone="no"?>
<!DOCTYPE svg PUBLIC "-//W3C//DTD SVG 1.1//EN"
 "http://www.w3.org/Graphics/SVG/1.1/DTD/svg11.dtd">
<!-- Generated by graphviz version 2.38.0 (20140413.2041)
 -->
<!-- Title: Mth::Matrix::GetUp Pages: 1 -->
<!--zoomable 476 -->
<svg id="main" version="1.1" xmlns="http://www.w3.org/2000/svg" xmlns:xlink="http://www.w3.org/1999/xlink" xml:space="preserve" onload="init(evt)">
<style type="text/css"><![CDATA[
.edge:hover path { stroke: red; }
.edge:hover polygon { stroke: red; fill: red; }
]]></style>
<script type="text/javascript"><![CDATA[
var edges = document.getElementsByTagName('g');
if (edges && edges.length) {
  for (var i=0;i<edges.length;i++) {
    if (edges[i].id.substr(0,4)=='edge') {
      edges[i].setAttribute('class','edge');
    }
  }
}
]]></script>
        <defs>
                <circle id="rim" cx="0" cy="0" r="7"/>
                <circle id="rim2" cx="0" cy="0" r="3.5"/>
                <g id="zoomPlus">
                        <use xlink:href="#rim" fill="#404040">
                                <set attributeName="fill" to="#808080" begin="zoomplus.mouseover" end="zoomplus.mouseout"/>
                        </use>
                        <path d="M-4,0h8M0,-4v8" fill="none" stroke="white" stroke-width="1.5" pointer-events="none"/>
                </g>
                <g id="zoomMin">
                        <use xlink:href="#rim" fill="#404040">
                                <set attributeName="fill" to="#808080" begin="zoomminus.mouseover" end="zoomminus.mouseout"/>
                        </use>
                        <path d="M-4,0h8" fill="none" stroke="white" stroke-width="1.5" pointer-events="none"/>
                </g>
                <g id="dirArrow">
                        <path fill="none" stroke="white" stroke-width="1.5" d="M0,-3.0v7 M-2.5,-0.5L0,-3.0L2.5,-0.5"/>
                </g>
               <g id="resetDef">
                       <use xlink:href="#rim2" fill="#404040">
                               <set attributeName="fill" to="#808080" begin="reset.mouseover" end="reset.mouseout"/>
                       </use>
               </g>
        </defs>

<script type="text/javascript">
var viewWidth = 1343;
var viewHeight = 476;
var sectionId = 'dynsection-42';
</script>
<script xlink:href="../../svgpan.js"/>
<svg id="graph" class="graph">
<g id="viewport">
<title>Mth::Matrix::GetUp</title>
<polygon fill="white" stroke="none" points="-4,4 -4,-472 1339,-472 1339,4 -4,4"/>
<!-- Node1 -->
<g id="node1" class="node"><title>Node1</title>
<g id="a_node1"><a xlink:title=" ">
<polygon fill="#bfbfbf" stroke="black" points="1235,-206 1235,-225 1335,-225 1335,-206 1235,-206"/>
<text text-anchor="middle" x="1285" y="-213" font-family="Helvetica,sans-Serif" font-size="10.00">Mth::Matrix::GetUp</text>
</a>
</g>
</g>
<!-- Node2 -->
<g id="node2" class="node"><title>Node2</title>
<g id="a_node2"><a xlink:href="../../d1/dd7/class_nx_1_1_c_particle.html#a0632cb6e48fcb84a68f333fb04340755" target="_top" xlink:title=" ">
<polygon fill="white" stroke="black" points="1073.5,-400 1073.5,-419 1172.5,-419 1172.5,-400 1073.5,-400"/>
<text text-anchor="middle" x="1123" y="-407" font-family="Helvetica,sans-Serif" font-size="10.00">Nx::CParticle::emit</text>
</a>
</g>
</g>
<!-- Node1&#45;&gt;Node2 -->
<g id="edge1" class="edge"><title>Node1&#45;&gt;Node2</title>
<path fill="none" stroke="midnightblue" d="M1280.16,-235.095C1271.99,-271.487 1249.32,-349.526 1199,-390.5 1191.4,-396.691 1182.03,-400.897 1172.53,-403.745"/>
<polygon fill="midnightblue" stroke="midnightblue" points="1283.61,-235.733 1282.25,-225.225 1276.76,-234.284 1283.61,-235.733"/>
</g>
<!-- Node5 -->
<g id="node5" class="node"><title>Node5</title>
<g id="a_node5"><a xlink:href="../../de/dc7/class_nx_1_1_c_ngc_geom.html#a2a33b7d5d2c82a926cacfa23c34cdb67" target="_top" xlink:title=" ">
<polygon fill="white" stroke="black" points="1069.5,-350.5 1069.5,-380.5 1176.5,-380.5 1176.5,-350.5 1069.5,-350.5"/>
<text text-anchor="start" x="1077.5" y="-368.5" font-family="Helvetica,sans-Serif" font-size="10.00">Nx::CNgcGeom::plat</text>
<text text-anchor="middle" x="1123" y="-357.5" font-family="Helvetica,sans-Serif" font-size="10.00">_set_orientation</text>
</a>
</g>
</g>
<!-- Node1&#45;&gt;Node5 -->
<g id="edge4" class="edge"><title>Node1&#45;&gt;Node5</title>
<path fill="none" stroke="midnightblue" d="M1275.94,-234.472C1263.39,-261.777 1236.67,-311.999 1199,-340.5 1192.32,-345.551 1184.57,-349.615 1176.63,-352.875"/>
<polygon fill="midnightblue" stroke="midnightblue" points="1279.18,-235.782 1280.04,-225.222 1272.79,-232.941 1279.18,-235.782"/>
</g>
<!-- Node6 -->
<g id="node6" class="node"><title>Node6</title>
<g id="a_node6"><a xlink:href="../../d8/d5a/class_nx_xbox_1_1_c_instance.html#af4f8c3af9a44b5bf9954ed7b93fda4f5" target="_top" xlink:title=" ">
<polygon fill="white" stroke="black" points="1070.5,-301.5 1070.5,-331.5 1175.5,-331.5 1175.5,-301.5 1070.5,-301.5"/>
<text text-anchor="start" x="1078.5" y="-319.5" font-family="Helvetica,sans-Serif" font-size="10.00">NxXbox::CInstance::</text>
<text text-anchor="middle" x="1123" y="-308.5" font-family="Helvetica,sans-Serif" font-size="10.00">Render</text>
</a>
</g>
</g>
<!-- Node1&#45;&gt;Node6 -->
<g id="edge5" class="edge"><title>Node1&#45;&gt;Node6</title>
<path fill="none" stroke="midnightblue" d="M1267.14,-232.377C1250.82,-248.003 1224.82,-271.085 1199,-286.5 1189.49,-292.179 1178.7,-297.21 1168.34,-301.452"/>
<polygon fill="midnightblue" stroke="midnightblue" points="1269.61,-234.857 1274.33,-225.371 1264.73,-229.843 1269.61,-234.857"/>
</g>
<!-- Node10 -->
<g id="node10" class="node"><title>Node10</title>
<g id="a_node10"><a xlink:href="../../da/d63/namespace_nx_ngc.html#a46b5ffe2d958df4c5e41b2412403054c" target="_top" xlink:title=" ">
<polygon fill="white" stroke="black" points="553.5,-201.5 553.5,-231.5 670.5,-231.5 670.5,-201.5 553.5,-201.5"/>
<text text-anchor="start" x="561.5" y="-219.5" font-family="Helvetica,sans-Serif" font-size="10.00">NxNgc::render_shadow</text>
<text text-anchor="middle" x="612" y="-208.5" font-family="Helvetica,sans-Serif" font-size="10.00">_targets</text>
</a>
</g>
</g>
<!-- Node1&#45;&gt;Node10 -->
<g id="edge9" class="edge"><title>Node1&#45;&gt;Node10</title>
<path fill="none" stroke="midnightblue" d="M1224.57,-215.589C1096.81,-215.779 797.351,-216.225 670.937,-216.414"/>
<polygon fill="midnightblue" stroke="midnightblue" points="1224.94,-219.088 1234.93,-215.573 1224.93,-212.088 1224.94,-219.088"/>
</g>
<!-- Node15 -->
<g id="node15" class="node"><title>Node15</title>
<g id="a_node15"><a xlink:href="../../da/d63/namespace_nx_ngc.html#a0fdb0ad8ec686e2de5123c67ddcd3c8d" target="_top" xlink:title=" ">
<polygon fill="white" stroke="black" points="560.5,-260 560.5,-279 663.5,-279 663.5,-260 560.5,-260"/>
<text text-anchor="middle" x="612" y="-267" font-family="Helvetica,sans-Serif" font-size="10.00">NxNgc::set_camera</text>
</a>
</g>
</g>
<!-- Node1&#45;&gt;Node15 -->
<g id="edge14" class="edge"><title>Node1&#45;&gt;Node15</title>
<path fill="none" stroke="midnightblue" d="M1225.04,-226.754C1216.33,-228.169 1207.45,-229.477 1199,-230.5 1001.87,-254.382 765.536,-264.498 663.73,-267.972"/>
<polygon fill="midnightblue" stroke="midnightblue" points="1225.86,-230.165 1235.14,-225.054 1224.7,-223.262 1225.86,-230.165"/>
</g>
<!-- Node16 -->
<g id="node16" class="node"><title>Node16</title>
<g id="a_node16"><a xlink:href="../../d4/ddf/namespace_nx_xbox.html#a6a92f82281a908490cb7062ab4bfd162" target="_top" xlink:title=" ">
<polygon fill="white" stroke="black" points="1069.5,-187 1069.5,-206 1176.5,-206 1176.5,-187 1069.5,-187"/>
<text text-anchor="middle" x="1123" y="-194" font-family="Helvetica,sans-Serif" font-size="10.00">NxXbox::set_camera</text>
</a>
</g>
</g>
<!-- Node1&#45;&gt;Node16 -->
<g id="edge16" class="edge"><title>Node1&#45;&gt;Node16</title>
<path fill="none" stroke="midnightblue" d="M1224.57,-208.443C1208.88,-206.58 1192.07,-204.583 1176.76,-202.765"/>
<polygon fill="midnightblue" stroke="midnightblue" points="1224.35,-211.941 1234.69,-209.644 1225.17,-204.989 1224.35,-211.941"/>
</g>
<!-- Node17 -->
<g id="node17" class="node"><title>Node17</title>
<g id="a_node17"><a xlink:href="../../dc/dc6/class_obj_1_1_c_skeleton_component.html#a55b2d430d928f673aaea2adce94ca71a" target="_top" xlink:title=" ">
<polygon fill="white" stroke="black" points="1057,-137.5 1057,-167.5 1189,-167.5 1189,-137.5 1057,-137.5"/>
<text text-anchor="start" x="1065" y="-155.5" font-family="Helvetica,sans-Serif" font-size="10.00">Obj::CSkeletonComponent</text>
<text text-anchor="middle" x="1123" y="-144.5" font-family="Helvetica,sans-Serif" font-size="10.00">::SpawnTextureSplat</text>
</a>
</g>
</g>
<!-- Node1&#45;&gt;Node17 -->
<g id="edge17" class="edge"><title>Node1&#45;&gt;Node17</title>
<path fill="none" stroke="midnightblue" d="M1254.49,-201.447C1238.28,-193.943 1217.71,-184.781 1199,-177.5 1190.17,-174.066 1180.66,-170.667 1171.46,-167.533"/>
<polygon fill="midnightblue" stroke="midnightblue" points="1253.43,-204.813 1263.97,-205.872 1256.39,-198.47 1253.43,-204.813"/>
</g>
<!-- Node19 -->
<g id="node19" class="node"><title>Node19</title>
<g id="a_node19"><a xlink:href="../../da/d63/namespace_nx_ngc.html#a5ae1c29dedccdd63897a4bb0041ecd42" target="_top" xlink:title=" ">
<polygon fill="white" stroke="black" points="1068,-99 1068,-118 1178,-118 1178,-99 1068,-99"/>
<text text-anchor="middle" x="1123" y="-106" font-family="Helvetica,sans-Serif" font-size="10.00">NxNgc::submit_mesh</text>
</a>
</g>
</g>
<!-- Node1&#45;&gt;Node19 -->
<g id="edge19" class="edge"><title>Node1&#45;&gt;Node19</title>
<path fill="none" stroke="midnightblue" d="M1271.55,-197.571C1256.63,-177.461 1229.76,-145.331 1199,-127.5 1192.26,-123.592 1184.72,-120.48 1177.1,-118.003"/>
<polygon fill="midnightblue" stroke="midnightblue" points="1268.85,-199.807 1277.53,-205.871 1274.52,-195.713 1268.85,-199.807"/>
</g>
<!-- Node23 -->
<g id="node23" class="node"><title>Node23</title>
<g id="a_node23"><a xlink:href="../../d2/d71/class_obj_1_1_c_skater_non_local_net_logic_component.html#a7c0d00c9d29cf76c90925be41288bf6e" target="_top" xlink:title=" ">
<polygon fill="white" stroke="black" points="1047,-49.5 1047,-79.5 1199,-79.5 1199,-49.5 1047,-49.5"/>
<text text-anchor="start" x="1055" y="-67.5" font-family="Helvetica,sans-Serif" font-size="10.00">Obj::CSkaterNonLocalNetLogic</text>
<text text-anchor="middle" x="1123" y="-56.5" font-family="Helvetica,sans-Serif" font-size="10.00">Component::Update</text>
</a>
</g>
</g>
<!-- Node1&#45;&gt;Node23 -->
<g id="edge26" class="edge"><title>Node1&#45;&gt;Node23</title>
<path fill="none" stroke="midnightblue" d="M1275.98,-196.376C1263.48,-168.851 1236.83,-118.228 1199,-89.5 1193.97,-85.6814 1188.33,-82.428 1182.46,-79.6599"/>
<polygon fill="midnightblue" stroke="midnightblue" points="1272.84,-197.947 1280.06,-205.7 1279.25,-195.136 1272.84,-197.947"/>
</g>
<!-- Node24 -->
<g id="node24" class="node"><title>Node24</title>
<g id="a_node24"><a xlink:href="../../dc/dd7/class_obj_1_1_c_shadow_component.html#a7141ff760218137cf0fb6198b7738488" target="_top" xlink:title=" ">
<polygon fill="white" stroke="black" points="1059,-0.5 1059,-30.5 1187,-30.5 1187,-0.5 1059,-0.5"/>
<text text-anchor="start" x="1067" y="-18.5" font-family="Helvetica,sans-Serif" font-size="10.00">Obj::CShadowComponent</text>
<text text-anchor="middle" x="1123" y="-7.5" font-family="Helvetica,sans-Serif" font-size="10.00">::update_shadow</text>
</a>
</g>
</g>
<!-- Node1&#45;&gt;Node24 -->
<g id="edge27" class="edge"><title>Node1&#45;&gt;Node24</title>
<path fill="none" stroke="midnightblue" d="M1279.96,-196.082C1271.43,-159.965 1248.21,-82.2557 1199,-39.5 1195.08,-36.0929 1190.67,-33.1684 1186,-30.6585"/>
<polygon fill="midnightblue" stroke="midnightblue" points="1276.55,-196.874 1282.14,-205.871 1283.38,-195.348 1276.55,-196.874"/>
</g>
<!-- Node3 -->
<g id="node3" class="node"><title>Node3</title>
<g id="a_node3"><a xlink:href="../../d1/dd7/class_nx_1_1_c_particle.html#aeb404c8005586e38c470c158e21f852d" target="_top" xlink:title=" ">
<polygon fill="white" stroke="black" points="879,-388.5 879,-418.5 1011,-418.5 1011,-388.5 879,-388.5"/>
<text text-anchor="start" x="887" y="-406.5" font-family="Helvetica,sans-Serif" font-size="10.00">Nx::CParticle::CallMember</text>
<text text-anchor="middle" x="945" y="-395.5" font-family="Helvetica,sans-Serif" font-size="10.00">Function</text>
</a>
</g>
</g>
<!-- Node2&#45;&gt;Node3 -->
<g id="edge2" class="edge"><title>Node2&#45;&gt;Node3</title>
<path fill="none" stroke="midnightblue" d="M1063.27,-407.498C1046.56,-406.928 1028.27,-406.305 1011.2,-405.723"/>
<polygon fill="midnightblue" stroke="midnightblue" points="1063.33,-411.002 1073.44,-407.845 1063.57,-404.006 1063.33,-411.002"/>
</g>
<!-- Node4 -->
<g id="node4" class="node"><title>Node4</title>
<g id="a_node4"><a xlink:href="../../d1/dd0/class_nx_1_1_c_xbox_particle_flat.html#a775cc7085ed8250be056b55b569b5133" target="_top" xlink:title=" ">
<polygon fill="white" stroke="black" points="889,-437.5 889,-467.5 1001,-467.5 1001,-437.5 889,-437.5"/>
<text text-anchor="start" x="897" y="-455.5" font-family="Helvetica,sans-Serif" font-size="10.00">Nx::CXboxParticleFlat</text>
<text text-anchor="middle" x="945" y="-444.5" font-family="Helvetica,sans-Serif" font-size="10.00">::plat_render</text>
</a>
</g>
</g>
<!-- Node2&#45;&gt;Node4 -->
<g id="edge3" class="edge"><title>Node2&#45;&gt;Node4</title>
<path fill="none" stroke="midnightblue" d="M1073.03,-421.465C1050.75,-426.907 1024.29,-433.371 1001.31,-438.988"/>
<polygon fill="midnightblue" stroke="midnightblue" points="1074.06,-424.817 1082.94,-419.043 1072.39,-418.017 1074.06,-424.817"/>
</g>
<!-- Node7 -->
<g id="node7" class="node"><title>Node7</title>
<g id="a_node7"><a xlink:href="../../d4/ddf/namespace_nx_xbox.html#a91b8baea31ab13e2cfc7a29edeccc56d" target="_top" xlink:title=" ">
<polygon fill="white" stroke="black" points="882.5,-307 882.5,-326 1007.5,-326 1007.5,-307 882.5,-307"/>
<text text-anchor="middle" x="945" y="-314" font-family="Helvetica,sans-Serif" font-size="10.00">NxXbox::render_instance</text>
</a>
</g>
</g>
<!-- Node6&#45;&gt;Node7 -->
<g id="edge6" class="edge"><title>Node6&#45;&gt;Node7</title>
<path fill="none" stroke="midnightblue" d="M1059.82,-316.5C1042.92,-316.5 1024.62,-316.5 1007.73,-316.5"/>
<polygon fill="midnightblue" stroke="midnightblue" points="1060.15,-320 1070.15,-316.5 1060.15,-313 1060.15,-320"/>
</g>
<!-- Node9 -->
<g id="node9" class="node"><title>Node9</title>
<g id="a_node9"><a xlink:href="../../d4/ddf/namespace_nx_xbox.html#a89d339689c1b2b21b0c02e078a15aaae" target="_top" xlink:title=" ">
<polygon fill="white" stroke="black" points="880,-345 880,-364 1010,-364 1010,-345 880,-345"/>
<text text-anchor="middle" x="945" y="-352" font-family="Helvetica,sans-Serif" font-size="10.00">NxXbox::render_instances</text>
</a>
</g>
</g>
<!-- Node6&#45;&gt;Node9 -->
<g id="edge8" class="edge"><title>Node6&#45;&gt;Node9</title>
<path fill="none" stroke="midnightblue" d="M1060.08,-329.868C1036.98,-334.858 1011.23,-340.417 990.05,-344.989"/>
<polygon fill="midnightblue" stroke="midnightblue" points="1061.11,-333.227 1070.15,-327.696 1059.63,-326.385 1061.11,-333.227"/>
</g>
<!-- Node8 -->
<g id="node8" class="node"><title>Node8</title>
<g id="a_node8"><a xlink:href="../../d4/ddf/namespace_nx_xbox.html#aee13fac116b7ebed7014e72e74e591b8" target="_top" xlink:title=" ">
<polygon fill="white" stroke="black" points="716.5,-301.5 716.5,-331.5 837.5,-331.5 837.5,-301.5 716.5,-301.5"/>
<text text-anchor="start" x="724.5" y="-319.5" font-family="Helvetica,sans-Serif" font-size="10.00">NxXbox::render_shadow</text>
<text text-anchor="middle" x="777" y="-308.5" font-family="Helvetica,sans-Serif" font-size="10.00">_targets</text>
</a>
</g>
</g>
<!-- Node7&#45;&gt;Node8 -->
<g id="edge7" class="edge"><title>Node7&#45;&gt;Node8</title>
<path fill="none" stroke="midnightblue" d="M872.168,-316.5C860.654,-316.5 848.848,-316.5 837.659,-316.5"/>
<polygon fill="midnightblue" stroke="midnightblue" points="872.188,-320 882.188,-316.5 872.188,-313 872.188,-320"/>
</g>
<!-- Node11 -->
<g id="node11" class="node"><title>Node11</title>
<g id="a_node11"><a xlink:href="../../d9/d8c/class_nx_1_1_c_engine.html#ab07e94b0d679732290471b10cd1ef1b6" target="_top" xlink:title=" ">
<polygon fill="white" stroke="black" points="409,-179.5 409,-209.5 513,-209.5 513,-179.5 409,-179.5"/>
<text text-anchor="start" x="417" y="-197.5" font-family="Helvetica,sans-Serif" font-size="10.00">Nx::CEngine::s_plat</text>
<text text-anchor="middle" x="461" y="-186.5" font-family="Helvetica,sans-Serif" font-size="10.00">_render_world</text>
</a>
</g>
</g>
<!-- Node10&#45;&gt;Node11 -->
<g id="edge10" class="edge"><title>Node10&#45;&gt;Node11</title>
<path fill="none" stroke="midnightblue" d="M543.33,-206.508C533.182,-205.01 522.863,-203.486 513.136,-202.05"/>
<polygon fill="midnightblue" stroke="midnightblue" points="542.989,-209.996 553.393,-207.994 544.011,-203.071 542.989,-209.996"/>
</g>
<!-- Node12 -->
<g id="node12" class="node"><title>Node12</title>
<g id="a_node12"><a xlink:href="../../d9/d8c/class_nx_1_1_c_engine.html#ace274d6d74746eb2398ce51e6c5a5f30" target="_top" xlink:title=" ">
<polygon fill="white" stroke="black" points="234,-185 234,-204 373,-204 373,-185 234,-185"/>
<text text-anchor="middle" x="303.5" y="-192" font-family="Helvetica,sans-Serif" font-size="10.00">Nx::CEngine::sRenderWorld</text>
</a>
</g>
</g>
<!-- Node11&#45;&gt;Node12 -->
<g id="edge11" class="edge"><title>Node11&#45;&gt;Node12</title>
<path fill="none" stroke="midnightblue" d="M398.648,-194.5C390.316,-194.5 381.722,-194.5 373.27,-194.5"/>
<polygon fill="midnightblue" stroke="midnightblue" points="398.653,-198 408.653,-194.5 398.652,-191 398.653,-198"/>
</g>
<!-- Node13 -->
<g id="node13" class="node"><title>Node13</title>
<g id="a_node13"><a xlink:href="../../d3/d66/class_mlp_1_1_manager.html#a118bb3db98dd133cea15b15c288b29f0" target="_top" xlink:title=" ">
<polygon fill="white" stroke="black" points="74,-185 74,-204 198,-204 198,-185 74,-185"/>
<text text-anchor="middle" x="136" y="-192" font-family="Helvetica,sans-Serif" font-size="10.00">Mlp::Manager::MainLoop</text>
</a>
</g>
</g>
<!-- Node12&#45;&gt;Node13 -->
<g id="edge12" class="edge"><title>Node12&#45;&gt;Node13</title>
<path fill="none" stroke="midnightblue" d="M223.714,-194.5C215.123,-194.5 206.474,-194.5 198.14,-194.5"/>
<polygon fill="midnightblue" stroke="midnightblue" points="223.751,-198 233.751,-194.5 223.751,-191 223.751,-198"/>
</g>
<!-- Node14 -->
<g id="node14" class="node"><title>Node14</title>
<g id="a_node14"><a xlink:href="../../d5/d12/_main_8cpp.html#a0e18e794c708408ef1dec237965cb73d" target="_top" xlink:title=" ">
<polygon fill="white" stroke="black" points="0,-185 0,-204 38,-204 38,-185 0,-185"/>
<text text-anchor="middle" x="19" y="-192" font-family="Helvetica,sans-Serif" font-size="10.00">main</text>
</a>
</g>
</g>
<!-- Node13&#45;&gt;Node14 -->
<g id="edge13" class="edge"><title>Node13&#45;&gt;Node14</title>
<path fill="none" stroke="midnightblue" d="M63.7713,-194.5C54.2902,-194.5 45.3381,-194.5 38.03,-194.5"/>
<polygon fill="midnightblue" stroke="midnightblue" points="63.7963,-198 73.7962,-194.5 63.7962,-191 63.7963,-198"/>
</g>
<!-- Node15&#45;&gt;Node11 -->
<g id="edge15" class="edge"><title>Node15&#45;&gt;Node11</title>
<path fill="none" stroke="midnightblue" d="M580.661,-255.67C570.541,-250.961 559.238,-245.597 549,-240.5 528.964,-230.525 506.652,-218.713 489.64,-209.557"/>
<polygon fill="midnightblue" stroke="midnightblue" points="579.382,-258.934 589.928,-259.954 582.32,-252.58 579.382,-258.934"/>
</g>
<!-- Node18 -->
<g id="node18" class="node"><title>Node18</title>
<g id="a_node18"><a xlink:href="../../dc/dc6/class_obj_1_1_c_skeleton_component.html#a101bccf6fe01f58080817fb1151aa1c2" target="_top" xlink:title=" ">
<polygon fill="white" stroke="black" points="879,-139.5 879,-169.5 1011,-169.5 1011,-139.5 879,-139.5"/>
<text text-anchor="start" x="887" y="-157.5" font-family="Helvetica,sans-Serif" font-size="10.00">Obj::CSkeletonComponent</text>
<text text-anchor="middle" x="945" y="-146.5" font-family="Helvetica,sans-Serif" font-size="10.00">::CallMemberFunction</text>
</a>
</g>
</g>
<!-- Node17&#45;&gt;Node18 -->
<g id="edge18" class="edge"><title>Node17&#45;&gt;Node18</title>
<path fill="none" stroke="midnightblue" d="M1046.66,-153.356C1034.81,-153.491 1022.65,-153.629 1011.06,-153.761"/>
<polygon fill="midnightblue" stroke="midnightblue" points="1047,-156.853 1056.96,-153.239 1046.92,-149.853 1047,-156.853"/>
</g>
<!-- Node20 -->
<g id="node20" class="node"><title>Node20</title>
<g id="a_node20"><a xlink:href="../../da/d63/namespace_nx_ngc.html#a2ac4d6736640c6e498384d5dcb534f25" target="_top" xlink:title=" ">
<polygon fill="white" stroke="black" points="890,-101 890,-120 1000,-120 1000,-101 890,-101"/>
<text text-anchor="middle" x="945" y="-108" font-family="Helvetica,sans-Serif" font-size="10.00">NxNgc::render_scene</text>
</a>
</g>
</g>
<!-- Node19&#45;&gt;Node20 -->
<g id="edge20" class="edge"><title>Node19&#45;&gt;Node20</title>
<path fill="none" stroke="midnightblue" d="M1057.73,-109.23C1038.8,-109.445 1018.28,-109.679 1000.06,-109.886"/>
<polygon fill="midnightblue" stroke="midnightblue" points="1057.8,-112.73 1067.76,-109.116 1057.72,-105.73 1057.8,-112.73"/>
</g>
<!-- Node20&#45;&gt;Node11 -->
<g id="edge25" class="edge"><title>Node20&#45;&gt;Node11</title>
<path fill="none" stroke="midnightblue" d="M879.595,-111.008C800.368,-113.104 662.432,-121.567 549,-153.5 527.623,-159.518 504.976,-170.349 488.148,-179.368"/>
<polygon fill="midnightblue" stroke="midnightblue" points="879.989,-114.5 889.903,-110.763 879.823,-107.502 879.989,-114.5"/>
</g>
<!-- Node21 -->
<g id="node21" class="node"><title>Node21</title>
<g id="a_node21"><a xlink:href="../../da/d78/class_nx_ngc_1_1_c_instance.html#ae8f235a087ae559bf2cd8c1315601edb" target="_top" xlink:title=" ">
<polygon fill="white" stroke="black" points="711,-163 711,-182 843,-182 843,-163 711,-163"/>
<text text-anchor="middle" x="777" y="-170" font-family="Helvetica,sans-Serif" font-size="10.00">NxNgc::CInstance::Render</text>
</a>
</g>
</g>
<!-- Node20&#45;&gt;Node21 -->
<g id="edge21" class="edge"><title>Node20&#45;&gt;Node21</title>
<path fill="none" stroke="midnightblue" d="M898.944,-122.919C892.217,-124.99 885.397,-127.212 879,-129.5 850.647,-139.639 818.819,-153.643 798.606,-162.878"/>
<polygon fill="midnightblue" stroke="midnightblue" points="900.098,-126.227 908.673,-120.004 898.089,-119.521 900.098,-126.227"/>
</g>
<!-- Node21&#45;&gt;Node10 -->
<g id="edge24" class="edge"><title>Node21&#45;&gt;Node10</title>
<path fill="none" stroke="midnightblue" d="M730.92,-184.669C711.699,-189.857 689.074,-195.965 668.81,-201.435"/>
<polygon fill="midnightblue" stroke="midnightblue" points="731.889,-188.033 740.631,-182.047 730.065,-181.274 731.889,-188.033"/>
</g>
<!-- Node22 -->
<g id="node22" class="node"><title>Node22</title>
<g id="a_node22"><a xlink:href="../../da/d63/namespace_nx_ngc.html#a2109727dab89700c051ae95bbcc25415" target="_top" xlink:title=" ">
<polygon fill="white" stroke="black" points="549,-163 549,-182 675,-182 675,-163 549,-163"/>
<text text-anchor="middle" x="612" y="-170" font-family="Helvetica,sans-Serif" font-size="10.00">NxNgc::render_instances</text>
</a>
</g>
</g>
<!-- Node21&#45;&gt;Node22 -->
<g id="edge22" class="edge"><title>Node21&#45;&gt;Node22</title>
<path fill="none" stroke="midnightblue" d="M700.411,-172.5C691.97,-172.5 683.444,-172.5 675.197,-172.5"/>
<polygon fill="midnightblue" stroke="midnightblue" points="700.641,-176 710.641,-172.5 700.641,-169 700.641,-176"/>
</g>
<!-- Node22&#45;&gt;Node11 -->
<g id="edge23" class="edge"><title>Node22&#45;&gt;Node11</title>
<path fill="none" stroke="midnightblue" d="M538.644,-183.184C530.061,-184.451 521.441,-185.724 513.238,-186.935"/>
<polygon fill="midnightblue" stroke="midnightblue" points="539.292,-186.626 548.674,-181.703 538.27,-179.701 539.292,-186.626"/>
</g>
<!-- Node25 -->
<g id="node25" class="node"><title>Node25</title>
<g id="a_node25"><a xlink:href="../../dc/dd7/class_obj_1_1_c_shadow_component.html#a08e771885d84bfb22a0085a98ece53bd" target="_top" xlink:title=" ">
<polygon fill="white" stroke="black" points="881,-0.5 881,-30.5 1009,-30.5 1009,-0.5 881,-0.5"/>
<text text-anchor="start" x="889" y="-18.5" font-family="Helvetica,sans-Serif" font-size="10.00">Obj::CShadowComponent</text>
<text text-anchor="middle" x="945" y="-7.5" font-family="Helvetica,sans-Serif" font-size="10.00">::Update</text>
</a>
</g>
</g>
<!-- Node24&#45;&gt;Node25 -->
<g id="edge28" class="edge"><title>Node24&#45;&gt;Node25</title>
<path fill="none" stroke="midnightblue" d="M1048.58,-15.5C1035.49,-15.5 1021.96,-15.5 1009.19,-15.5"/>
<polygon fill="midnightblue" stroke="midnightblue" points="1048.96,-19.0001 1058.96,-15.5 1048.96,-12.0001 1048.96,-19.0001"/>
</g>
<!-- Node26 -->
<g id="node26" class="node"><title>Node26</title>
<g id="a_node26"><a xlink:href="../../dc/dd7/class_obj_1_1_c_shadow_component.html#a898366272c675c9ec4afa6d801a26874" target="_top" xlink:title=" ">
<polygon fill="white" stroke="black" points="713,-0.5 713,-30.5 841,-30.5 841,-0.5 713,-0.5"/>
<text text-anchor="start" x="721" y="-18.5" font-family="Helvetica,sans-Serif" font-size="10.00">Obj::CShadowComponent</text>
<text text-anchor="middle" x="777" y="-7.5" font-family="Helvetica,sans-Serif" font-size="10.00">::Teleport</text>
</a>
</g>
</g>
<!-- Node25&#45;&gt;Node26 -->
<g id="edge29" class="edge"><title>Node25&#45;&gt;Node26</title>
<path fill="none" stroke="midnightblue" d="M870.593,-15.5C860.741,-15.5 850.707,-15.5 841.055,-15.5"/>
<polygon fill="midnightblue" stroke="midnightblue" points="870.769,-19.0001 880.769,-15.5 870.769,-12.0001 870.769,-19.0001"/>
</g>
</g>
</svg>
        <g id="navigator" transform="translate(0 0)" fill="#404254">
                <rect fill="#f2f5e9" fill-opacity="0.5" stroke="#606060" stroke-width=".5" x="0" y="0" width="60" height="60"/>
                <use id="zoomplus" xlink:href="#zoomPlus" x="17" y="9" onmousedown="handleZoom(evt,'in')"/>
                <use id="zoomminus" xlink:href="#zoomMin" x="42" y="9" onmousedown="handleZoom(evt,'out')"/>
                <use id="reset" xlink:href="#resetDef" x="30" y="36" onmousedown="handleReset()"/>
                <g id="arrowUp" xlink:href="#dirArrow" transform="translate(30 24)" onmousedown="handlePan(0,-1)">
                  <use xlink:href="#rim" fill="#404040">
                        <set attributeName="fill" to="#808080" begin="arrowUp.mouseover" end="arrowUp.mouseout"/>
                  </use>
                  <path fill="none" stroke="white" stroke-width="1.5" d="M0,-3.0v7 M-2.5,-0.5L0,-3.0L2.5,-0.5"/>
                </g>
                <g id="arrowRight" xlink:href="#dirArrow" transform="rotate(90) translate(36 -43)" onmousedown="handlePan(1,0)">
                  <use xlink:href="#rim" fill="#404040">
                        <set attributeName="fill" to="#808080" begin="arrowRight.mouseover" end="arrowRight.mouseout"/>
                  </use>
                  <path fill="none" stroke="white" stroke-width="1.5" d="M0,-3.0v7 M-2.5,-0.5L0,-3.0L2.5,-0.5"/>
                </g>
                <g id="arrowDown" xlink:href="#dirArrow" transform="rotate(180) translate(-30 -48)" onmousedown="handlePan(0,1)">
                  <use xlink:href="#rim" fill="#404040">
                        <set attributeName="fill" to="#808080" begin="arrowDown.mouseover" end="arrowDown.mouseout"/>
                  </use>
                  <path fill="none" stroke="white" stroke-width="1.5" d="M0,-3.0v7 M-2.5,-0.5L0,-3.0L2.5,-0.5"/>
                </g>
                <g id="arrowLeft" xlink:href="#dirArrow" transform="rotate(270) translate(-36 17)" onmousedown="handlePan(-1,0)">
                  <use xlink:href="#rim" fill="#404040">
                        <set attributeName="fill" to="#808080" begin="arrowLeft.mouseover" end="arrowLeft.mouseout"/>
                  </use>
                  <path fill="none" stroke="white" stroke-width="1.5" d="M0,-3.0v7 M-2.5,-0.5L0,-3.0L2.5,-0.5"/>
                </g>
        </g>
        <svg viewBox="0 0 15 15" width="100%" height="30px" preserveAspectRatio="xMaxYMin meet">
         <g id="arrow_out" transform="scale(0.3 0.3)">
          <a xlink:href="class_mth_1_1_matrix_a20cd2a0264b2acbaea886a0387477a3f_icgraph_org.svg" target="_base">
           <rect id="button" ry="5" rx="5" y="6" x="6" height="38" width="38"
                fill="#f2f5e9" fill-opacity="0.5" stroke="#606060" stroke-width="1.0"/>
           <path id="arrow"
             d="M 11.500037,31.436501 C 11.940474,20.09759 22.043105,11.32322 32.158766,21.979434 L 37.068811,17.246167 C 37.068811,17.246167 37.088388,32 37.088388,32 L 22.160133,31.978069 C 22.160133,31.978069 26.997745,27.140456 26.997745,27.140456 C 18.528582,18.264221 13.291696,25.230495 11.500037,31.436501 z"
             style="fill:#404040;"/>
          </a>
         </g>
        </svg>
</svg>
