<?xml version="1.0" encoding="UTF-8" standalone="no"?>
<!DOCTYPE svg PUBLIC "-//W3C//DTD SVG 1.1//EN"
 "http://www.w3.org/Graphics/SVG/1.1/DTD/svg11.dtd">
<!-- Generated by graphviz version 2.38.0 (20140413.2041)
 -->
<!-- Title: Gfx::DefineSingletonClass Pages: 1 -->
<svg width="375pt" height="47pt"
 viewBox="0.00 0.00 375.00 47.00" xmlns="http://www.w3.org/2000/svg" xmlns:xlink="http://www.w3.org/1999/xlink">
<g id="graph0" class="graph" transform="scale(1 1) rotate(0) translate(4 43)">
<title>Gfx::DefineSingletonClass</title>
<polygon fill="white" stroke="none" points="-4,4 -4,-43 371,-43 371,4 -4,4"/>
<!-- Node1 -->
<g id="node1" class="node"><title>Node1</title>
<g id="a_node1"><a xlink:title=" ">
<polygon fill="#bfbfbf" stroke="black" points="0,-19.5 0,-38.5 130,-38.5 130,-19.5 0,-19.5"/>
<text text-anchor="middle" x="65" y="-26.5" font-family="Helvetica,sans-Serif" font-size="10.00">Gfx::DefineSingletonClass</text>
</a>
</g>
</g>
<!-- Node2 -->
<g id="node2" class="node"><title>Node2</title>
<g id="a_node2"><a xlink:href="../../d0/d31/namespace_config.html#a0840a3dbfad8b39255623eb38c8b0559" target="_top" xlink:title=" ">
<polygon fill="white" stroke="black" points="298,-19.5 298,-38.5 367,-38.5 367,-19.5 298,-19.5"/>
<text text-anchor="middle" x="332.5" y="-26.5" font-family="Helvetica,sans-Serif" font-size="10.00">Config::FPS</text>
</a>
</g>
</g>
<!-- Node1&#45;&gt;Node2 -->
<g id="edge1" class="edge"><title>Node1&#45;&gt;Node2</title>
<path fill="none" stroke="midnightblue" d="M130.27,-29C179.042,-29 244.795,-29 287.66,-29"/>
<polygon fill="midnightblue" stroke="midnightblue" points="287.773,-32.5001 297.773,-29 287.773,-25.5001 287.773,-32.5001"/>
</g>
<!-- Node3 -->
<g id="node3" class="node"><title>Node3</title>
<g id="a_node3"><a xlink:href="../../d1/d0d/namespace_tmr.html#a3560bd3134b7b29bed7013950d91ad06" target="_top" xlink:title=" ">
<polygon fill="white" stroke="black" points="166,-0.5 166,-19.5 262,-19.5 262,-0.5 166,-0.5"/>
<text text-anchor="middle" x="214" y="-7.5" font-family="Helvetica,sans-Serif" font-size="10.00">Tmr::FrameLength</text>
</a>
</g>
</g>
<!-- Node1&#45;&gt;Node3 -->
<g id="edge2" class="edge"><title>Node1&#45;&gt;Node3</title>
<path fill="none" stroke="midnightblue" d="M130.049,-20.7216C138.63,-19.6125 147.385,-18.4808 155.837,-17.3884"/>
<polygon fill="midnightblue" stroke="midnightblue" points="156.495,-20.8326 165.964,-16.0795 155.598,-13.8903 156.495,-20.8326"/>
</g>
<!-- Node3&#45;&gt;Node2 -->
<g id="edge3" class="edge"><title>Node3&#45;&gt;Node2</title>
<path fill="none" stroke="midnightblue" d="M262.049,-17.6733C270.579,-19.0645 279.443,-20.51 287.87,-21.8843"/>
<polygon fill="midnightblue" stroke="midnightblue" points="287.447,-25.3616 297.88,-23.517 288.574,-18.4529 287.447,-25.3616"/>
</g>
</g>
</svg>
