<?xml version="1.0" encoding="UTF-8" standalone="no"?>
<!DOCTYPE svg PUBLIC "-//W3C//DTD SVG 1.1//EN"
 "http://www.w3.org/Graphics/SVG/1.1/DTD/svg11.dtd">
<!-- Generated by graphviz version 2.38.0 (20140413.2041)
 -->
<!-- Title: CFeeler::GetCollision Pages: 1 -->
<svg width="475pt" height="445pt"
 viewBox="0.00 0.00 475.00 445.00" xmlns="http://www.w3.org/2000/svg" xmlns:xlink="http://www.w3.org/1999/xlink">
<g id="graph0" class="graph" transform="scale(1 1) rotate(0) translate(4 441)">
<title>CFeeler::GetCollision</title>
<polygon fill="white" stroke="none" points="-4,4 -4,-441 471,-441 471,4 -4,4"/>
<!-- Node1 -->
<g id="node1" class="node"><title>Node1</title>
<g id="a_node1"><a xlink:title=" ">
<polygon fill="#bfbfbf" stroke="black" points="0,-197 0,-216 109,-216 109,-197 0,-197"/>
<text text-anchor="middle" x="54.5" y="-204" font-family="Helvetica,sans-Serif" font-size="10.00">CFeeler::GetCollision</text>
</a>
</g>
</g>
<!-- Node2 -->
<g id="node2" class="node"><title>Node2</title>
<g id="a_node2"><a xlink:href="../../de/d47/namespace_gfx.html#a1f9f2c8b6d5def6b6112dab8ed4f00b8" target="_top" xlink:title=" ">
<polygon fill="white" stroke="black" points="170.5,-349 170.5,-368 271.5,-368 271.5,-349 170.5,-349"/>
<text text-anchor="middle" x="221" y="-356" font-family="Helvetica,sans-Serif" font-size="10.00">Gfx::AddDebugLine</text>
</a>
</g>
</g>
<!-- Node1&#45;&gt;Node2 -->
<g id="edge1" class="edge"><title>Node1&#45;&gt;Node2</title>
<path fill="none" stroke="midnightblue" d="M59.5664,-216.136C70.0769,-239.886 100.471,-301.681 145,-334.5 150.826,-338.794 157.449,-342.338 164.291,-345.259"/>
<polygon fill="midnightblue" stroke="midnightblue" points="163.113,-348.556 173.703,-348.868 165.619,-342.02 163.113,-348.556"/>
</g>
<!-- Node7 -->
<g id="node7" class="node"><title>Node7</title>
<g id="a_node7"><a xlink:href="../../df/de2/_messages_8h.html#a701d7b9cdd94e5f87bc47f4e770492e6" target="_top" xlink:title=" ">
<polygon fill="white" stroke="black" points="360.5,-162 360.5,-181 439.5,-181 439.5,-162 360.5,-162"/>
<text text-anchor="middle" x="400" y="-169" font-family="Helvetica,sans-Serif" font-size="10.00">Dbg_Message</text>
</a>
</g>
</g>
<!-- Node1&#45;&gt;Node7 -->
<g id="edge6" class="edge"><title>Node1&#45;&gt;Node7</title>
<path fill="none" stroke="midnightblue" d="M60.8576,-216.181C72.7962,-236.612 103.81,-283.715 145,-301.5 207.021,-328.279 236.251,-331.052 297,-301.5 344.768,-278.263 376.798,-220.628 390.866,-190.513"/>
<polygon fill="midnightblue" stroke="midnightblue" points="394.185,-191.666 395.089,-181.11 387.799,-188.798 394.185,-191.666"/>
</g>
<!-- Node8 -->
<g id="node8" class="node"><title>Node8</title>
<g id="a_node8"><a xlink:href="../../df/dde/class_obj_1_1_c_object.html#ad39f6409df17fb6ee459d1071258c645" target="_top" xlink:title=" ">
<polygon fill="white" stroke="black" points="169,-273 169,-292 273,-292 273,-273 169,-273"/>
<text text-anchor="middle" x="221" y="-280" font-family="Helvetica,sans-Serif" font-size="10.00">Obj::CObject::GetID</text>
</a>
</g>
</g>
<!-- Node1&#45;&gt;Node8 -->
<g id="edge7" class="edge"><title>Node1&#45;&gt;Node8</title>
<path fill="none" stroke="midnightblue" d="M67.8211,-216.17C84.4472,-228.777 115.403,-250.721 145,-263.5 150.746,-265.981 156.885,-268.188 163.083,-270.139"/>
<polygon fill="midnightblue" stroke="midnightblue" points="162.243,-273.54 172.824,-272.997 164.214,-266.823 162.243,-273.54"/>
</g>
<!-- Node9 -->
<g id="node9" class="node"><title>Node9</title>
<g id="a_node9"><a xlink:href="../../d1/d0d/namespace_tmr.html#a6163e1388aae2a02f767bcccbdbd6aa4" target="_top" xlink:title=" ">
<polygon fill="white" stroke="black" points="157,-235 157,-254 285,-254 285,-235 157,-235"/>
<text text-anchor="middle" x="221" y="-242" font-family="Helvetica,sans-Serif" font-size="10.00">Tmr::GetTimeInUSeconds</text>
</a>
</g>
</g>
<!-- Node1&#45;&gt;Node9 -->
<g id="edge8" class="edge"><title>Node1&#45;&gt;Node9</title>
<path fill="none" stroke="midnightblue" d="M97.0103,-216.089C118.816,-221.126 145.732,-227.344 168.819,-232.677"/>
<polygon fill="midnightblue" stroke="midnightblue" points="168.257,-236.139 178.788,-234.98 169.833,-229.319 168.257,-236.139"/>
</g>
<!-- Node10 -->
<g id="node10" class="node"><title>Node10</title>
<g id="a_node10"><a xlink:href="../../da/df1/feeler_8cpp.html#a7239e185d2b51ca6301fc16af6fda1b6" target="_top" xlink:title=" ">
<polygon fill="white" stroke="black" points="158.5,-197 158.5,-216 283.5,-216 283.5,-197 158.5,-197"/>
<text text-anchor="middle" x="221" y="-204" font-family="Helvetica,sans-Serif" font-size="10.00">s_feeler_collide_callback</text>
</a>
</g>
</g>
<!-- Node1&#45;&gt;Node10 -->
<g id="edge9" class="edge"><title>Node1&#45;&gt;Node10</title>
<path fill="none" stroke="midnightblue" d="M109.363,-206.5C121.711,-206.5 135.031,-206.5 148.005,-206.5"/>
<polygon fill="midnightblue" stroke="midnightblue" points="148.311,-210 158.311,-206.5 148.311,-203 148.311,-210"/>
</g>
<!-- Node11 -->
<g id="node11" class="node"><title>Node11</title>
<g id="a_node11"><a xlink:href="../../d7/d8e/class_nx_1_1_c_coll_obj.html#ab03d6cf2944faf33a9bcbef325fde87f" target="_top" xlink:title=" ">
<polygon fill="white" stroke="black" points="145,-147.5 145,-177.5 297,-177.5 297,-147.5 145,-147.5"/>
<text text-anchor="start" x="153" y="-165.5" font-family="Helvetica,sans-Serif" font-size="10.00">Nx::CCollObj::sFindFarMovable</text>
<text text-anchor="middle" x="221" y="-154.5" font-family="Helvetica,sans-Serif" font-size="10.00">Collision</text>
</a>
</g>
</g>
<!-- Node1&#45;&gt;Node11 -->
<g id="edge10" class="edge"><title>Node1&#45;&gt;Node11</title>
<path fill="none" stroke="midnightblue" d="M91.1941,-196.953C109.549,-192.043 132.517,-185.9 153.956,-180.165"/>
<polygon fill="midnightblue" stroke="midnightblue" points="154.92,-183.531 163.676,-177.565 153.111,-176.768 154.92,-183.531"/>
</g>
<!-- Node12 -->
<g id="node12" class="node"><title>Node12</title>
<g id="a_node12"><a xlink:href="../../d7/d8e/class_nx_1_1_c_coll_obj.html#ac0d385220fbd944ad78ffefd3dec31e2" target="_top" xlink:title=" ">
<polygon fill="white" stroke="black" points="149.5,-98.5 149.5,-128.5 292.5,-128.5 292.5,-98.5 149.5,-98.5"/>
<text text-anchor="start" x="157.5" y="-116.5" font-family="Helvetica,sans-Serif" font-size="10.00">Nx::CCollObj::sFindFarStatic</text>
<text text-anchor="middle" x="221" y="-105.5" font-family="Helvetica,sans-Serif" font-size="10.00">Collision</text>
</a>
</g>
</g>
<!-- Node1&#45;&gt;Node12 -->
<g id="edge11" class="edge"><title>Node1&#45;&gt;Node12</title>
<path fill="none" stroke="midnightblue" d="M65.4267,-196.937C81.1334,-182.274 113.207,-154.183 145,-137.5 148.443,-135.694 152.046,-133.992 155.732,-132.395"/>
<polygon fill="midnightblue" stroke="midnightblue" points="157.06,-135.633 165.019,-128.639 154.436,-129.144 157.06,-135.633"/>
</g>
<!-- Node13 -->
<g id="node13" class="node"><title>Node13</title>
<g id="a_node13"><a xlink:href="../../d7/d8e/class_nx_1_1_c_coll_obj.html#aadcf172983631232f883c9f472439980" target="_top" xlink:title=" ">
<polygon fill="white" stroke="black" points="152.5,-49.5 152.5,-79.5 289.5,-79.5 289.5,-49.5 152.5,-49.5"/>
<text text-anchor="start" x="160.5" y="-67.5" font-family="Helvetica,sans-Serif" font-size="10.00">Nx::CCollObj::sFindNearest</text>
<text text-anchor="middle" x="221" y="-56.5" font-family="Helvetica,sans-Serif" font-size="10.00">MovableCollision</text>
</a>
</g>
</g>
<!-- Node1&#45;&gt;Node13 -->
<g id="edge12" class="edge"><title>Node1&#45;&gt;Node13</title>
<path fill="none" stroke="midnightblue" d="M60.1073,-196.968C71.3888,-174.625 102.602,-118.5 145,-88.5 147.099,-87.0144 149.295,-85.6176 151.562,-84.3045"/>
<polygon fill="midnightblue" stroke="midnightblue" points="153.318,-87.3369 160.603,-79.6441 150.111,-81.1149 153.318,-87.3369"/>
</g>
<!-- Node14 -->
<g id="node14" class="node"><title>Node14</title>
<g id="a_node14"><a xlink:href="../../d7/d8e/class_nx_1_1_c_coll_obj.html#a7d135c1904fe94958a0d745ce69d015e" target="_top" xlink:title=" ">
<polygon fill="white" stroke="black" points="152.5,-0.5 152.5,-30.5 289.5,-30.5 289.5,-0.5 152.5,-0.5"/>
<text text-anchor="start" x="160.5" y="-18.5" font-family="Helvetica,sans-Serif" font-size="10.00">Nx::CCollObj::sFindNearest</text>
<text text-anchor="middle" x="221" y="-7.5" font-family="Helvetica,sans-Serif" font-size="10.00">StaticCollision</text>
</a>
</g>
</g>
<!-- Node1&#45;&gt;Node14 -->
<g id="edge13" class="edge"><title>Node1&#45;&gt;Node14</title>
<path fill="none" stroke="midnightblue" d="M57.8796,-196.95C65.4467,-168.561 91.659,-83.9078 145,-39.5 146.537,-38.2207 148.142,-37.0093 149.805,-35.8621"/>
<polygon fill="midnightblue" stroke="midnightblue" points="151.74,-38.7829 158.524,-30.6453 148.146,-32.7759 151.74,-38.7829"/>
</g>
<!-- Node3 -->
<g id="node3" class="node"><title>Node3</title>
<g id="a_node3"><a xlink:href="../../de/d47/namespace_gfx.html#a8f357fbd8752fc156448d9ef1aa4df0f" target="_top" xlink:title=" ">
<polygon fill="white" stroke="black" points="346.5,-406.5 346.5,-436.5 453.5,-436.5 453.5,-406.5 346.5,-406.5"/>
<text text-anchor="start" x="354.5" y="-424.5" font-family="Helvetica,sans-Serif" font-size="10.00">Gfx::DebuggeryLines</text>
<text text-anchor="middle" x="400" y="-413.5" font-family="Helvetica,sans-Serif" font-size="10.00">_CleanUp</text>
</a>
</g>
</g>
<!-- Node2&#45;&gt;Node3 -->
<g id="edge2" class="edge"><title>Node2&#45;&gt;Node3</title>
<path fill="none" stroke="midnightblue" d="M248.882,-368.068C274.825,-377.302 314.79,-391.527 346.964,-402.979"/>
<polygon fill="midnightblue" stroke="midnightblue" points="346.08,-406.379 356.674,-406.435 348.427,-399.784 346.08,-406.379"/>
</g>
<!-- Node4 -->
<g id="node4" class="node"><title>Node4</title>
<g id="a_node4"><a xlink:href="../../d0/d31/namespace_config.html#a709cc81780d49900157e3476b63aa25d" target="_top" xlink:title=" ">
<polygon fill="white" stroke="black" points="338,-368 338,-387 462,-387 462,-368 338,-368"/>
<text text-anchor="middle" x="400" y="-375" font-family="Helvetica,sans-Serif" font-size="10.00">Config::GotExtraMemory</text>
</a>
</g>
</g>
<!-- Node2&#45;&gt;Node4 -->
<g id="edge3" class="edge"><title>Node2&#45;&gt;Node4</title>
<path fill="none" stroke="midnightblue" d="M271.775,-363.843C289.197,-365.713 309.112,-367.851 327.932,-369.871"/>
<polygon fill="midnightblue" stroke="midnightblue" points="327.636,-373.359 337.952,-370.947 328.383,-366.399 327.636,-373.359"/>
</g>
<!-- Node5 -->
<g id="node5" class="node"><title>Node5</title>
<g id="a_node5"><a xlink:href="../../db/dc4/namespace_mem.html#a10246603d03405159c82320b96e3efbf" target="_top" xlink:title=" ">
<polygon fill="white" stroke="black" points="363.5,-330 363.5,-349 436.5,-349 436.5,-330 363.5,-330"/>
<text text-anchor="middle" x="400" y="-337" font-family="Helvetica,sans-Serif" font-size="10.00">Mem::Malloc</text>
</a>
</g>
</g>
<!-- Node2&#45;&gt;Node5 -->
<g id="edge4" class="edge"><title>Node2&#45;&gt;Node5</title>
<path fill="none" stroke="midnightblue" d="M271.775,-353.157C297.388,-350.408 328.391,-347.08 353.379,-344.397"/>
<polygon fill="midnightblue" stroke="midnightblue" points="353.766,-347.876 363.335,-343.328 353.019,-340.916 353.766,-347.876"/>
</g>
<!-- Node6 -->
<g id="node6" class="node"><title>Node6</title>
<g id="a_node6"><a xlink:href="../../d2/d0a/class_mem_1_1_manager.html#a3aefd91781b7f41d35e6df6a32d379d0" target="_top" xlink:title=" ">
<polygon fill="white" stroke="black" points="338.5,-292 338.5,-311 461.5,-311 461.5,-292 338.5,-292"/>
<text text-anchor="middle" x="400" y="-299" font-family="Helvetica,sans-Serif" font-size="10.00">Mem::Manager::sHandle</text>
</a>
</g>
</g>
<!-- Node2&#45;&gt;Node6 -->
<g id="edge5" class="edge"><title>Node2&#45;&gt;Node6</title>
<path fill="none" stroke="midnightblue" d="M253.159,-348.998C266.695,-344.75 282.695,-339.565 297,-334.5 313.183,-328.77 316.735,-325.991 333,-320.5 339.604,-318.271 346.632,-316.069 353.548,-313.998"/>
<polygon fill="midnightblue" stroke="midnightblue" points="354.925,-317.242 363.537,-311.07 352.956,-310.524 354.925,-317.242"/>
</g>
<!-- Node14&#45;&gt;Node7 -->
<g id="edge14" class="edge"><title>Node14&#45;&gt;Node7</title>
<path fill="none" stroke="midnightblue" d="M280.98,-30.5138C286.626,-33.0729 292.074,-36.0476 297,-39.5 340.491,-69.9812 374.013,-124.525 389.532,-153.018"/>
<polygon fill="midnightblue" stroke="midnightblue" points="386.48,-154.733 394.257,-161.928 392.664,-151.454 386.48,-154.733"/>
</g>
<!-- Node15 -->
<g id="node15" class="node"><title>Node15</title>
<g id="a_node15"><a xlink:href="../../d3/d8f/class_nx_1_1_c_coll_cache_manager.html#a4587097ce2771875db3d4922d06363b4" target="_top" xlink:title=" ">
<polygon fill="white" stroke="black" points="333,-0.5 333,-30.5 467,-30.5 467,-0.5 333,-0.5"/>
<text text-anchor="start" x="341" y="-18.5" font-family="Helvetica,sans-Serif" font-size="10.00">Nx::CCollCacheManager</text>
<text text-anchor="middle" x="400" y="-7.5" font-family="Helvetica,sans-Serif" font-size="10.00">::sGetAssertOnCacheMiss</text>
</a>
</g>
</g>
<!-- Node14&#45;&gt;Node15 -->
<g id="edge15" class="edge"><title>Node14&#45;&gt;Node15</title>
<path fill="none" stroke="midnightblue" d="M289.674,-15.5C300.508,-15.5 311.784,-15.5 322.801,-15.5"/>
<polygon fill="midnightblue" stroke="midnightblue" points="322.825,-19.0001 332.825,-15.5 322.825,-12.0001 322.825,-19.0001"/>
</g>
</g>
</svg>
