<?xml version="1.0" encoding="UTF-8" standalone="no"?>
<!DOCTYPE svg PUBLIC "-//W3C//DTD SVG 1.1//EN"
 "http://www.w3.org/Graphics/SVG/1.1/DTD/svg11.dtd">
<!-- Generated by graphviz version 2.38.0 (20140413.2041)
 -->
<!-- Title: CFeeler::GetSector Pages: 1 -->
<svg width="965pt" height="382pt"
 viewBox="0.00 0.00 965.00 382.00" xmlns="http://www.w3.org/2000/svg" xmlns:xlink="http://www.w3.org/1999/xlink">
<g id="graph0" class="graph" transform="scale(1 1) rotate(0) translate(4 378)">
<title>CFeeler::GetSector</title>
<polygon fill="white" stroke="none" points="-4,4 -4,-378 961,-378 961,4 -4,4"/>
<!-- Node1 -->
<g id="node1" class="node"><title>Node1</title>
<g id="a_node1"><a xlink:title=" ">
<polygon fill="#bfbfbf" stroke="black" points="856,-202 856,-221 957,-221 957,-202 856,-202"/>
<text text-anchor="middle" x="906.5" y="-209" font-family="Helvetica,sans-Serif" font-size="10.00">CFeeler::GetSector</text>
</a>
</g>
</g>
<!-- Node2 -->
<g id="node2" class="node"><title>Node2</title>
<g id="a_node2"><a xlink:href="../../d1/dcb/class_obj_1_1_c_ped_logic_component.html#ab14a3661e484c1df343a9c54d00452c2" target="_top" xlink:title=" ">
<polygon fill="white" stroke="black" points="664,-341.5 664,-371.5 798,-371.5 798,-341.5 664,-341.5"/>
<text text-anchor="start" x="672" y="-359.5" font-family="Helvetica,sans-Serif" font-size="10.00">Obj::CPedLogicComponent</text>
<text text-anchor="middle" x="731" y="-348.5" font-family="Helvetica,sans-Serif" font-size="10.00">::do_collision_check</text>
</a>
</g>
</g>
<!-- Node1&#45;&gt;Node2 -->
<g id="edge1" class="edge"><title>Node1&#45;&gt;Node2</title>
<path fill="none" stroke="midnightblue" d="M896.878,-230.462C883.933,-256.817 856.987,-304.232 820,-330.5 813.376,-335.204 805.898,-339.066 798.171,-342.234"/>
<polygon fill="midnightblue" stroke="midnightblue" points="900.159,-231.714 901.285,-221.179 893.835,-228.712 900.159,-231.714"/>
</g>
<!-- Node6 -->
<g id="node6" class="node"><title>Node6</title>
<g id="a_node6"><a xlink:href="../../d2/d61/class_obj_1_1_c_skater_core_physics_component.html#aa340242d36f0580b9d16d3748b70313c" target="_top" xlink:title=" ">
<polygon fill="white" stroke="black" points="428,-245.5 428,-275.5 606,-275.5 606,-245.5 428,-245.5"/>
<text text-anchor="start" x="436" y="-263.5" font-family="Helvetica,sans-Serif" font-size="10.00">Obj::CSkaterCorePhysicsComponent</text>
<text text-anchor="middle" x="517" y="-252.5" font-family="Helvetica,sans-Serif" font-size="10.00">::do_wallride_physics</text>
</a>
</g>
</g>
<!-- Node1&#45;&gt;Node6 -->
<g id="edge5" class="edge"><title>Node1&#45;&gt;Node6</title>
<path fill="none" stroke="midnightblue" d="M866.866,-224.034C852.317,-228.305 835.534,-232.703 820,-235.5 748.677,-248.341 666.669,-254.601 606.127,-257.645"/>
<polygon fill="midnightblue" stroke="midnightblue" points="867.974,-227.356 876.539,-221.118 865.954,-220.653 867.974,-227.356"/>
</g>
<!-- Node8 -->
<g id="node8" class="node"><title>Node8</title>
<g id="a_node8"><a xlink:href="../../dd/d52/class_obj_1_1_c_walk_component.html#a28f469e9766438223c23b8b53ffb7b13" target="_top" xlink:title=" ">
<polygon fill="white" stroke="black" points="673,-290.5 673,-320.5 789,-320.5 789,-290.5 673,-290.5"/>
<text text-anchor="start" x="681" y="-308.5" font-family="Helvetica,sans-Serif" font-size="10.00">Obj::CWalkComponent</text>
<text text-anchor="middle" x="731" y="-297.5" font-family="Helvetica,sans-Serif" font-size="10.00">::respond_to_ground</text>
</a>
</g>
</g>
<!-- Node1&#45;&gt;Node8 -->
<g id="edge7" class="edge"><title>Node1&#45;&gt;Node8</title>
<path fill="none" stroke="midnightblue" d="M885.963,-227.286C869.184,-240.324 843.977,-258.702 820,-271.5 806.562,-278.673 791.275,-285.121 777.254,-290.425"/>
<polygon fill="midnightblue" stroke="midnightblue" points="888.234,-229.954 893.919,-221.013 883.899,-224.457 888.234,-229.954"/>
</g>
<!-- Node11 -->
<g id="node11" class="node"><title>Node11</title>
<g id="a_node11"><a xlink:href="../../d6/db5/class_obj_1_1_c_horse_component.html#a234b7c94fe4c16fc0f7c48e5315336a3" target="_top" xlink:title=" ">
<polygon fill="white" stroke="black" points="671.5,-147.5 671.5,-177.5 790.5,-177.5 790.5,-147.5 671.5,-147.5"/>
<text text-anchor="start" x="679.5" y="-165.5" font-family="Helvetica,sans-Serif" font-size="10.00">Obj::CHorseComponent</text>
<text text-anchor="middle" x="731" y="-154.5" font-family="Helvetica,sans-Serif" font-size="10.00">::respond_to_ground</text>
</a>
</g>
</g>
<!-- Node1&#45;&gt;Node11 -->
<g id="edge10" class="edge"><title>Node1&#45;&gt;Node11</title>
<path fill="none" stroke="midnightblue" d="M863.69,-199.11C849.804,-195.039 834.251,-190.527 820,-186.5 809.637,-183.572 798.571,-180.506 787.906,-177.583"/>
<polygon fill="midnightblue" stroke="midnightblue" points="862.884,-202.521 873.465,-201.983 864.858,-195.805 862.884,-202.521"/>
</g>
<!-- Node14 -->
<g id="node14" class="node"><title>Node14</title>
<g id="a_node14"><a xlink:href="../../d2/d10/namespace_obj.html#a9d1644877f956fa8c00f119fa27625c5" target="_top" xlink:title=" ">
<polygon fill="white" stroke="black" points="681.5,-98.5 681.5,-128.5 780.5,-128.5 780.5,-98.5 681.5,-98.5"/>
<text text-anchor="start" x="689.5" y="-116.5" font-family="Helvetica,sans-Serif" font-size="10.00">Obj::s_do_collision</text>
<text text-anchor="middle" x="731" y="-105.5" font-family="Helvetica,sans-Serif" font-size="10.00">_check</text>
</a>
</g>
</g>
<!-- Node1&#45;&gt;Node14 -->
<g id="edge13" class="edge"><title>Node1&#45;&gt;Node14</title>
<path fill="none" stroke="midnightblue" d="M890.093,-194.271C874.134,-177.44 847.689,-152.263 820,-137.5 807.843,-131.018 793.785,-126.17 780.523,-122.594"/>
<polygon fill="midnightblue" stroke="midnightblue" points="887.683,-196.82 897.045,-201.781 892.82,-192.065 887.683,-196.82"/>
</g>
<!-- Node21 -->
<g id="node21" class="node"><title>Node21</title>
<g id="a_node21"><a xlink:href="../../d2/d61/class_obj_1_1_c_skater_core_physics_component.html#a57ea07a7343241be3e72bc19a81744aa" target="_top" xlink:title=" ">
<polygon fill="white" stroke="black" points="642,-196.5 642,-226.5 820,-226.5 820,-196.5 642,-196.5"/>
<text text-anchor="start" x="650" y="-214.5" font-family="Helvetica,sans-Serif" font-size="10.00">Obj::CSkaterCorePhysicsComponent</text>
<text text-anchor="middle" x="731" y="-203.5" font-family="Helvetica,sans-Serif" font-size="10.00">::snap_to_ground</text>
</a>
</g>
</g>
<!-- Node1&#45;&gt;Node21 -->
<g id="edge21" class="edge"><title>Node1&#45;&gt;Node21</title>
<path fill="none" stroke="midnightblue" d="M845.55,-211.5C837.301,-211.5 828.693,-211.5 820.068,-211.5"/>
<polygon fill="midnightblue" stroke="midnightblue" points="845.782,-215 855.782,-211.5 845.782,-208 845.782,-215"/>
</g>
<!-- Node23 -->
<g id="node23" class="node"><title>Node23</title>
<g id="a_node23"><a xlink:href="../../d3/d33/class_obj_1_1_c_vehicle_component.html#a463c663df1b354680975fbaa0143cb65" target="_top" xlink:title=" ">
<polygon fill="white" stroke="black" points="668,-36.5 668,-66.5 794,-66.5 794,-36.5 668,-36.5"/>
<text text-anchor="start" x="676" y="-54.5" font-family="Helvetica,sans-Serif" font-size="10.00">Obj::CVehicleComponent</text>
<text text-anchor="middle" x="731" y="-43.5" font-family="Helvetica,sans-Serif" font-size="10.00">::update_wheel_heights</text>
</a>
</g>
</g>
<!-- Node1&#45;&gt;Node23 -->
<g id="edge24" class="edge"><title>Node1&#45;&gt;Node23</title>
<path fill="none" stroke="midnightblue" d="M896.617,-192.463C883.359,-165.895 856.041,-117.686 820,-88.5 808.666,-79.3216 794.725,-72.0813 781.31,-66.5312"/>
<polygon fill="midnightblue" stroke="midnightblue" points="893.632,-194.329 901.142,-201.803 899.932,-191.278 893.632,-194.329"/>
</g>
<!-- Node3 -->
<g id="node3" class="node"><title>Node3</title>
<g id="a_node3"><a xlink:href="../../d1/dcb/class_obj_1_1_c_ped_logic_component.html#a50333d87b3f2b0e5447521cd53546169" target="_top" xlink:title=" ">
<polygon fill="white" stroke="black" points="450,-343.5 450,-373.5 584,-373.5 584,-343.5 450,-343.5"/>
<text text-anchor="start" x="458" y="-361.5" font-family="Helvetica,sans-Serif" font-size="10.00">Obj::CPedLogicComponent</text>
<text text-anchor="middle" x="517" y="-350.5" font-family="Helvetica,sans-Serif" font-size="10.00">::StickToGround</text>
</a>
</g>
</g>
<!-- Node2&#45;&gt;Node3 -->
<g id="edge2" class="edge"><title>Node2&#45;&gt;Node3</title>
<path fill="none" stroke="midnightblue" d="M653.505,-357.222C630.774,-357.436 606.076,-357.669 584.068,-357.877"/>
<polygon fill="midnightblue" stroke="midnightblue" points="653.827,-360.719 663.794,-357.125 653.761,-353.719 653.827,-360.719"/>
</g>
<!-- Node4 -->
<g id="node4" class="node"><title>Node4</title>
<g id="a_node4"><a xlink:href="../../d1/dcb/class_obj_1_1_c_ped_logic_component.html#aa2c62baf1ffba4ebce5263c0a07bff18" target="_top" xlink:title=" ">
<polygon fill="white" stroke="black" points="236,-343.5 236,-373.5 370,-373.5 370,-343.5 236,-343.5"/>
<text text-anchor="start" x="244" y="-361.5" font-family="Helvetica,sans-Serif" font-size="10.00">Obj::CPedLogicComponent</text>
<text text-anchor="middle" x="303" y="-350.5" font-family="Helvetica,sans-Serif" font-size="10.00">::GenericSkaterUpdate</text>
</a>
</g>
</g>
<!-- Node3&#45;&gt;Node4 -->
<g id="edge3" class="edge"><title>Node3&#45;&gt;Node4</title>
<path fill="none" stroke="midnightblue" d="M439.505,-358.5C416.774,-358.5 392.076,-358.5 370.068,-358.5"/>
<polygon fill="midnightblue" stroke="midnightblue" points="439.794,-362 449.794,-358.5 439.794,-355 439.794,-362"/>
</g>
<!-- Node5 -->
<g id="node5" class="node"><title>Node5</title>
<g id="a_node5"><a xlink:href="../../d1/dcb/class_obj_1_1_c_ped_logic_component.html#a84e225759509cdc85d7be0839dc1862b" target="_top" xlink:title=" ">
<polygon fill="white" stroke="black" points="22,-245.5 22,-275.5 156,-275.5 156,-245.5 22,-245.5"/>
<text text-anchor="start" x="30" y="-263.5" font-family="Helvetica,sans-Serif" font-size="10.00">Obj::CPedLogicComponent</text>
<text text-anchor="middle" x="89" y="-252.5" font-family="Helvetica,sans-Serif" font-size="10.00">::Update</text>
</a>
</g>
</g>
<!-- Node4&#45;&gt;Node5 -->
<g id="edge4" class="edge"><title>Node4&#45;&gt;Node5</title>
<path fill="none" stroke="midnightblue" d="M228.63,-340.135C223.626,-338.38 218.706,-336.502 214,-334.5 175.935,-318.31 135.426,-292.249 111.436,-275.767"/>
<polygon fill="midnightblue" stroke="midnightblue" points="227.73,-343.524 238.323,-343.357 229.937,-336.881 227.73,-343.524"/>
</g>
<!-- Node7 -->
<g id="node7" class="node"><title>Node7</title>
<g id="a_node7"><a xlink:href="../../d2/d61/class_obj_1_1_c_skater_core_physics_component.html#ab33036e6e0db072615c967ea6392832e" target="_top" xlink:title=" ">
<polygon fill="white" stroke="black" points="214,-245.5 214,-275.5 392,-275.5 392,-245.5 214,-245.5"/>
<text text-anchor="start" x="222" y="-263.5" font-family="Helvetica,sans-Serif" font-size="10.00">Obj::CSkaterCorePhysicsComponent</text>
<text text-anchor="middle" x="303" y="-252.5" font-family="Helvetica,sans-Serif" font-size="10.00">::Update</text>
</a>
</g>
</g>
<!-- Node6&#45;&gt;Node7 -->
<g id="edge6" class="edge"><title>Node6&#45;&gt;Node7</title>
<path fill="none" stroke="midnightblue" d="M417.893,-260.5C409.3,-260.5 400.637,-260.5 392.132,-260.5"/>
<polygon fill="midnightblue" stroke="midnightblue" points="417.935,-264 427.935,-260.5 417.935,-257 417.935,-264"/>
</g>
<!-- Node9 -->
<g id="node9" class="node"><title>Node9</title>
<g id="a_node9"><a xlink:href="../../dd/d52/class_obj_1_1_c_walk_component.html#a0ac69c034862c775af90cd21b01d2182" target="_top" xlink:title=" ">
<polygon fill="white" stroke="black" points="459,-294.5 459,-324.5 575,-324.5 575,-294.5 459,-294.5"/>
<text text-anchor="start" x="467" y="-312.5" font-family="Helvetica,sans-Serif" font-size="10.00">Obj::CWalkComponent</text>
<text text-anchor="middle" x="517" y="-301.5" font-family="Helvetica,sans-Serif" font-size="10.00">::go_on_ground_state</text>
</a>
</g>
</g>
<!-- Node8&#45;&gt;Node9 -->
<g id="edge8" class="edge"><title>Node8&#45;&gt;Node9</title>
<path fill="none" stroke="midnightblue" d="M662.742,-306.769C634.579,-307.3 602.185,-307.912 575.193,-308.421"/>
<polygon fill="midnightblue" stroke="midnightblue" points="662.977,-310.265 672.909,-306.577 662.845,-303.267 662.977,-310.265"/>
</g>
<!-- Node10 -->
<g id="node10" class="node"><title>Node10</title>
<g id="a_node10"><a xlink:href="../../dd/d52/class_obj_1_1_c_walk_component.html#a93a603eb6f32522550b740ce8d56900d" target="_top" xlink:title=" ">
<polygon fill="white" stroke="black" points="245,-294.5 245,-324.5 361,-324.5 361,-294.5 245,-294.5"/>
<text text-anchor="start" x="253" y="-312.5" font-family="Helvetica,sans-Serif" font-size="10.00">Obj::CWalkComponent</text>
<text text-anchor="middle" x="303" y="-301.5" font-family="Helvetica,sans-Serif" font-size="10.00">::Update</text>
</a>
</g>
</g>
<!-- Node9&#45;&gt;Node10 -->
<g id="edge9" class="edge"><title>Node9&#45;&gt;Node10</title>
<path fill="none" stroke="midnightblue" d="M448.742,-309.5C420.579,-309.5 388.185,-309.5 361.193,-309.5"/>
<polygon fill="midnightblue" stroke="midnightblue" points="448.909,-313 458.909,-309.5 448.909,-306 448.909,-313"/>
</g>
<!-- Node12 -->
<g id="node12" class="node"><title>Node12</title>
<g id="a_node12"><a xlink:href="../../d6/db5/class_obj_1_1_c_horse_component.html#acb4ca5507c65a1b5b968552d62cb6490" target="_top" xlink:title=" ">
<polygon fill="white" stroke="black" points="457.5,-147.5 457.5,-177.5 576.5,-177.5 576.5,-147.5 457.5,-147.5"/>
<text text-anchor="start" x="465.5" y="-165.5" font-family="Helvetica,sans-Serif" font-size="10.00">Obj::CHorseComponent</text>
<text text-anchor="middle" x="517" y="-154.5" font-family="Helvetica,sans-Serif" font-size="10.00">::go_on_ground_state</text>
</a>
</g>
</g>
<!-- Node11&#45;&gt;Node12 -->
<g id="edge11" class="edge"><title>Node11&#45;&gt;Node12</title>
<path fill="none" stroke="midnightblue" d="M660.973,-162.5C633.691,-162.5 602.674,-162.5 576.519,-162.5"/>
<polygon fill="midnightblue" stroke="midnightblue" points="661.228,-166 671.228,-162.5 661.228,-159 661.228,-166"/>
</g>
<!-- Node13 -->
<g id="node13" class="node"><title>Node13</title>
<g id="a_node13"><a xlink:href="../../d6/db5/class_obj_1_1_c_horse_component.html#a8b02ae16feb2fafb4a25635c856801c6" target="_top" xlink:title=" ">
<polygon fill="white" stroke="black" points="243.5,-196.5 243.5,-226.5 362.5,-226.5 362.5,-196.5 243.5,-196.5"/>
<text text-anchor="start" x="251.5" y="-214.5" font-family="Helvetica,sans-Serif" font-size="10.00">Obj::CHorseComponent</text>
<text text-anchor="middle" x="303" y="-203.5" font-family="Helvetica,sans-Serif" font-size="10.00">::Update</text>
</a>
</g>
</g>
<!-- Node12&#45;&gt;Node13 -->
<g id="edge12" class="edge"><title>Node12&#45;&gt;Node13</title>
<path fill="none" stroke="midnightblue" d="M447.333,-178.371C419.965,-184.697 388.79,-191.902 362.519,-197.974"/>
<polygon fill="midnightblue" stroke="midnightblue" points="448.273,-181.746 457.228,-176.084 446.696,-174.926 448.273,-181.746"/>
</g>
<!-- Node15 -->
<g id="node15" class="node"><title>Node15</title>
<g id="a_node15"><a xlink:href="../../d2/d98/class_obj_1_1_c_motion_component.html#a58e27a582c6ff3439fb211447c7eac6d" target="_top" xlink:title=" ">
<polygon fill="white" stroke="black" points="455.5,-98.5 455.5,-128.5 578.5,-128.5 578.5,-98.5 455.5,-98.5"/>
<text text-anchor="start" x="463.5" y="-116.5" font-family="Helvetica,sans-Serif" font-size="10.00">Obj::CMotionComponent</text>
<text text-anchor="middle" x="517" y="-105.5" font-family="Helvetica,sans-Serif" font-size="10.00">::StickToGround</text>
</a>
</g>
</g>
<!-- Node14&#45;&gt;Node15 -->
<g id="edge14" class="edge"><title>Node14&#45;&gt;Node15</title>
<path fill="none" stroke="midnightblue" d="M671.029,-113.5C642.209,-113.5 607.572,-113.5 578.545,-113.5"/>
<polygon fill="midnightblue" stroke="midnightblue" points="671.363,-117 681.363,-113.5 671.363,-110 671.363,-117"/>
</g>
<!-- Node16 -->
<g id="node16" class="node"><title>Node16</title>
<g id="a_node16"><a xlink:href="../../d2/d98/class_obj_1_1_c_motion_component.html#af240ac53f79695f2bca6d71c704f0d3b" target="_top" xlink:title=" ">
<polygon fill="white" stroke="black" points="241.5,-98.5 241.5,-128.5 364.5,-128.5 364.5,-98.5 241.5,-98.5"/>
<text text-anchor="start" x="249.5" y="-116.5" font-family="Helvetica,sans-Serif" font-size="10.00">Obj::CMotionComponent</text>
<text text-anchor="middle" x="303" y="-105.5" font-family="Helvetica,sans-Serif" font-size="10.00">::CallMemberFunction</text>
</a>
</g>
</g>
<!-- Node15&#45;&gt;Node16 -->
<g id="edge15" class="edge"><title>Node15&#45;&gt;Node16</title>
<path fill="none" stroke="midnightblue" d="M445.067,-113.5C419.034,-113.5 389.82,-113.5 364.76,-113.5"/>
<polygon fill="midnightblue" stroke="midnightblue" points="445.249,-117 455.249,-113.5 445.249,-110 445.249,-117"/>
</g>
<!-- Node18 -->
<g id="node18" class="node"><title>Node18</title>
<g id="a_node18"><a xlink:href="../../d2/d98/class_obj_1_1_c_motion_component.html#af9a549edb90bf00afc8c63a33a793960" target="_top" xlink:title=" ">
<polygon fill="white" stroke="black" points="241.5,-49.5 241.5,-79.5 364.5,-79.5 364.5,-49.5 241.5,-49.5"/>
<text text-anchor="start" x="249.5" y="-67.5" font-family="Helvetica,sans-Serif" font-size="10.00">Obj::CMotionComponent</text>
<text text-anchor="middle" x="303" y="-56.5" font-family="Helvetica,sans-Serif" font-size="10.00">::FollowPath</text>
</a>
</g>
</g>
<!-- Node15&#45;&gt;Node18 -->
<g id="edge17" class="edge"><title>Node15&#45;&gt;Node18</title>
<path fill="none" stroke="midnightblue" d="M445.413,-97.185C419.293,-91.1478 389.931,-84.3615 364.76,-78.5435"/>
<polygon fill="midnightblue" stroke="midnightblue" points="444.718,-100.617 455.249,-99.4586 446.294,-93.7964 444.718,-100.617"/>
</g>
<!-- Node20 -->
<g id="node20" class="node"><title>Node20</title>
<g id="a_node20"><a xlink:href="../../d1/dcb/class_obj_1_1_c_ped_logic_component.html#a90d5e8a2276091a627351e7680b39e51" target="_top" xlink:title=" ">
<polygon fill="white" stroke="black" points="236,-147.5 236,-177.5 370,-177.5 370,-147.5 236,-147.5"/>
<text text-anchor="start" x="244" y="-165.5" font-family="Helvetica,sans-Serif" font-size="10.00">Obj::CPedLogicComponent</text>
<text text-anchor="middle" x="303" y="-154.5" font-family="Helvetica,sans-Serif" font-size="10.00">::GenericPedUpdate</text>
</a>
</g>
</g>
<!-- Node15&#45;&gt;Node20 -->
<g id="edge19" class="edge"><title>Node15&#45;&gt;Node20</title>
<path fill="none" stroke="midnightblue" d="M445.276,-129.847C420.714,-135.524 393.301,-141.86 369.206,-147.429"/>
<polygon fill="midnightblue" stroke="midnightblue" points="446.294,-133.204 455.249,-127.541 444.718,-126.383 446.294,-133.204"/>
</g>
<!-- Node17 -->
<g id="node17" class="node"><title>Node17</title>
<g id="a_node17"><a xlink:href="../../d2/d61/class_obj_1_1_c_skater_core_physics_component.html#a8a203adc7b9d259c8374d3632e38b74f" target="_top" xlink:title=" ">
<polygon fill="white" stroke="black" points="0,-98.5 0,-128.5 178,-128.5 178,-98.5 0,-98.5"/>
<text text-anchor="start" x="8" y="-116.5" font-family="Helvetica,sans-Serif" font-size="10.00">Obj::CSkaterCorePhysicsComponent</text>
<text text-anchor="middle" x="89" y="-105.5" font-family="Helvetica,sans-Serif" font-size="10.00">::CallMemberFunction</text>
</a>
</g>
</g>
<!-- Node16&#45;&gt;Node17 -->
<g id="edge16" class="edge"><title>Node16&#45;&gt;Node17</title>
<path fill="none" stroke="midnightblue" d="M230.883,-113.5C213.926,-113.5 195.628,-113.5 178.014,-113.5"/>
<polygon fill="midnightblue" stroke="midnightblue" points="231.249,-117 241.249,-113.5 231.249,-110 231.249,-117"/>
</g>
<!-- Node19 -->
<g id="node19" class="node"><title>Node19</title>
<g id="a_node19"><a xlink:href="../../d2/d98/class_obj_1_1_c_motion_component.html#aff35c84007eba9a1abce9ee113dfa3ff" target="_top" xlink:title=" ">
<polygon fill="white" stroke="black" points="27.5,-49.5 27.5,-79.5 150.5,-79.5 150.5,-49.5 27.5,-49.5"/>
<text text-anchor="start" x="35.5" y="-67.5" font-family="Helvetica,sans-Serif" font-size="10.00">Obj::CMotionComponent</text>
<text text-anchor="middle" x="89" y="-56.5" font-family="Helvetica,sans-Serif" font-size="10.00">::Update</text>
</a>
</g>
</g>
<!-- Node18&#45;&gt;Node19 -->
<g id="edge18" class="edge"><title>Node18&#45;&gt;Node19</title>
<path fill="none" stroke="midnightblue" d="M231.067,-64.5C205.034,-64.5 175.82,-64.5 150.76,-64.5"/>
<polygon fill="midnightblue" stroke="midnightblue" points="231.249,-68.0001 241.249,-64.5 231.249,-61.0001 231.249,-68.0001"/>
</g>
<!-- Node20&#45;&gt;Node5 -->
<g id="edge20" class="edge"><title>Node20&#45;&gt;Node5</title>
<path fill="none" stroke="midnightblue" d="M228.63,-180.865C223.626,-182.62 218.706,-184.498 214,-186.5 175.935,-202.69 135.426,-228.751 111.436,-245.233"/>
<polygon fill="midnightblue" stroke="midnightblue" points="229.937,-184.119 238.323,-177.643 227.73,-177.476 229.937,-184.119"/>
</g>
<!-- Node22 -->
<g id="node22" class="node"><title>Node22</title>
<g id="a_node22"><a xlink:href="../../d2/d61/class_obj_1_1_c_skater_core_physics_component.html#ac0a7b3aab2a95b3824bf411253578223" target="_top" xlink:title=" ">
<polygon fill="white" stroke="black" points="428,-196.5 428,-226.5 606,-226.5 606,-196.5 428,-196.5"/>
<text text-anchor="start" x="436" y="-214.5" font-family="Helvetica,sans-Serif" font-size="10.00">Obj::CSkaterCorePhysicsComponent</text>
<text text-anchor="middle" x="517" y="-203.5" font-family="Helvetica,sans-Serif" font-size="10.00">::do_on_ground_physics</text>
</a>
</g>
</g>
<!-- Node21&#45;&gt;Node22 -->
<g id="edge22" class="edge"><title>Node21&#45;&gt;Node22</title>
<path fill="none" stroke="midnightblue" d="M631.893,-211.5C623.3,-211.5 614.637,-211.5 606.132,-211.5"/>
<polygon fill="midnightblue" stroke="midnightblue" points="631.935,-215 641.935,-211.5 631.935,-208 631.935,-215"/>
</g>
<!-- Node22&#45;&gt;Node7 -->
<g id="edge23" class="edge"><title>Node22&#45;&gt;Node7</title>
<path fill="none" stroke="midnightblue" d="M441.017,-228.831C417.48,-234.271 391.705,-240.229 368.925,-245.494"/>
<polygon fill="midnightblue" stroke="midnightblue" points="441.997,-232.197 450.952,-226.535 440.421,-225.377 441.997,-232.197"/>
</g>
<!-- Node24 -->
<g id="node24" class="node"><title>Node24</title>
<g id="a_node24"><a xlink:href="../../d3/d33/class_obj_1_1_c_vehicle_component.html#a174e63b24d7419e62ae9932449258d90" target="_top" xlink:title=" ">
<polygon fill="white" stroke="black" points="454,-12.5 454,-42.5 580,-42.5 580,-12.5 454,-12.5"/>
<text text-anchor="start" x="462" y="-30.5" font-family="Helvetica,sans-Serif" font-size="10.00">Obj::CVehicleComponent</text>
<text text-anchor="middle" x="517" y="-19.5" font-family="Helvetica,sans-Serif" font-size="10.00">::Update</text>
</a>
</g>
</g>
<!-- Node23&#45;&gt;Node24 -->
<g id="edge25" class="edge"><title>Node23&#45;&gt;Node24</title>
<path fill="none" stroke="midnightblue" d="M657.6,-43.3037C632.43,-40.4544 604.442,-37.2859 580.173,-34.5385"/>
<polygon fill="midnightblue" stroke="midnightblue" points="657.495,-46.8142 667.825,-44.4614 658.283,-39.8586 657.495,-46.8142"/>
</g>
<!-- Node25 -->
<g id="node25" class="node"><title>Node25</title>
<g id="a_node25"><a xlink:href="../../d3/d33/class_obj_1_1_c_vehicle_component.html#aa7c7152e6c9cb6038a43e5c18ffd14b6" target="_top" xlink:title=" ">
<polygon fill="white" stroke="black" points="240,-0.5 240,-30.5 366,-30.5 366,-0.5 240,-0.5"/>
<text text-anchor="start" x="248" y="-18.5" font-family="Helvetica,sans-Serif" font-size="10.00">Obj::CVehicleComponent</text>
<text text-anchor="middle" x="303" y="-7.5" font-family="Helvetica,sans-Serif" font-size="10.00">::MoveToNode</text>
</a>
</g>
</g>
<!-- Node24&#45;&gt;Node25 -->
<g id="edge26" class="edge"><title>Node24&#45;&gt;Node25</title>
<path fill="none" stroke="midnightblue" d="M443.6,-23.4019C418.43,-21.9772 390.442,-20.3929 366.173,-19.0193"/>
<polygon fill="midnightblue" stroke="midnightblue" points="443.644,-26.9099 453.825,-23.9807 444.039,-19.9211 443.644,-26.9099"/>
</g>
<!-- Node26 -->
<g id="node26" class="node"><title>Node26</title>
<g id="a_node26"><a xlink:href="../../d3/d33/class_obj_1_1_c_vehicle_component.html#ab8ee378c39a65030254d4e40cda273c8" target="_top" xlink:title=" ">
<polygon fill="white" stroke="black" points="26,-0.5 26,-30.5 152,-30.5 152,-0.5 26,-0.5"/>
<text text-anchor="start" x="34" y="-18.5" font-family="Helvetica,sans-Serif" font-size="10.00">Obj::CVehicleComponent</text>
<text text-anchor="middle" x="89" y="-7.5" font-family="Helvetica,sans-Serif" font-size="10.00">::CallMemberFunction</text>
</a>
</g>
</g>
<!-- Node25&#45;&gt;Node26 -->
<g id="edge27" class="edge"><title>Node25&#45;&gt;Node26</title>
<path fill="none" stroke="midnightblue" d="M229.6,-15.5C204.43,-15.5 176.442,-15.5 152.173,-15.5"/>
<polygon fill="midnightblue" stroke="midnightblue" points="229.825,-19.0001 239.825,-15.5 229.825,-12.0001 229.825,-19.0001"/>
</g>
</g>
</svg>
