<?xml version="1.0" encoding="UTF-8" standalone="no"?>
<!DOCTYPE svg PUBLIC "-//W3C//DTD SVG 1.1//EN"
 "http://www.w3.org/Graphics/SVG/1.1/DTD/svg11.dtd">
<!-- Generated by graphviz version 2.38.0 (20140413.2041)
 -->
<!-- Title: CFeeler::sSetDefaultCache Pages: 1 -->
<!--zoomable 235 -->
<svg id="main" version="1.1" xmlns="http://www.w3.org/2000/svg" xmlns:xlink="http://www.w3.org/1999/xlink" xml:space="preserve" onload="init(evt)">
<style type="text/css"><![CDATA[
.edge:hover path { stroke: red; }
.edge:hover polygon { stroke: red; fill: red; }
]]></style>
<script type="text/javascript"><![CDATA[
var edges = document.getElementsByTagName('g');
if (edges && edges.length) {
  for (var i=0;i<edges.length;i++) {
    if (edges[i].id.substr(0,4)=='edge') {
      edges[i].setAttribute('class','edge');
    }
  }
}
]]></script>
        <defs>
                <circle id="rim" cx="0" cy="0" r="7"/>
                <circle id="rim2" cx="0" cy="0" r="3.5"/>
                <g id="zoomPlus">
                        <use xlink:href="#rim" fill="#404040">
                                <set attributeName="fill" to="#808080" begin="zoomplus.mouseover" end="zoomplus.mouseout"/>
                        </use>
                        <path d="M-4,0h8M0,-4v8" fill="none" stroke="white" stroke-width="1.5" pointer-events="none"/>
                </g>
                <g id="zoomMin">
                        <use xlink:href="#rim" fill="#404040">
                                <set attributeName="fill" to="#808080" begin="zoomminus.mouseover" end="zoomminus.mouseout"/>
                        </use>
                        <path d="M-4,0h8" fill="none" stroke="white" stroke-width="1.5" pointer-events="none"/>
                </g>
                <g id="dirArrow">
                        <path fill="none" stroke="white" stroke-width="1.5" d="M0,-3.0v7 M-2.5,-0.5L0,-3.0L2.5,-0.5"/>
                </g>
               <g id="resetDef">
                       <use xlink:href="#rim2" fill="#404040">
                               <set attributeName="fill" to="#808080" begin="reset.mouseover" end="reset.mouseout"/>
                       </use>
               </g>
        </defs>

<script type="text/javascript">
var viewWidth = 725;
var viewHeight = 235;
var sectionId = 'dynsection-45';
</script>
<script xlink:href="../../svgpan.js"/>
<svg id="graph" class="graph">
<g id="viewport">
<title>CFeeler::sSetDefaultCache</title>
<polygon fill="white" stroke="none" points="-4,4 -4,-231 721,-231 721,4 -4,4"/>
<!-- Node1 -->
<g id="node1" class="node"><title>Node1</title>
<g id="a_node1"><a xlink:title=" ">
<polygon fill="#bfbfbf" stroke="black" points="583,-92 583,-111 717,-111 717,-92 583,-92"/>
<text text-anchor="middle" x="650" y="-99" font-family="Helvetica,sans-Serif" font-size="10.00">CFeeler::sSetDefaultCache</text>
</a>
</g>
</g>
<!-- Node2 -->
<g id="node2" class="node"><title>Node2</title>
<g id="a_node2"><a xlink:href="../../dd/d52/class_obj_1_1_c_walk_component.html#ad766498be574d6be90a574cb45d0e5b9" target="_top" xlink:title=" ">
<polygon fill="white" stroke="black" points="398.5,-147.5 398.5,-177.5 517.5,-177.5 517.5,-147.5 398.5,-147.5"/>
<text text-anchor="start" x="406.5" y="-165.5" font-family="Helvetica,sans-Serif" font-size="10.00">Obj::CWalkComponent</text>
<text text-anchor="middle" x="458" y="-154.5" font-family="Helvetica,sans-Serif" font-size="10.00">::setup_collision_cache</text>
</a>
</g>
</g>
<!-- Node1&#45;&gt;Node2 -->
<g id="edge1" class="edge"><title>Node1&#45;&gt;Node2</title>
<path fill="none" stroke="midnightblue" d="M609.555,-114.164C579.391,-123.848 537.705,-137.231 505.844,-147.46"/>
<polygon fill="midnightblue" stroke="midnightblue" points="610.861,-117.421 619.313,-111.031 608.721,-110.756 610.861,-117.421"/>
</g>
<!-- Node6 -->
<g id="node6" class="node"><title>Node6</title>
<g id="a_node6"><a xlink:href="../../d6/db5/class_obj_1_1_c_horse_component.html#a88cee941aabec65a2afb8c0febbba98e" target="_top" xlink:title=" ">
<polygon fill="white" stroke="black" points="398.5,-86.5 398.5,-116.5 517.5,-116.5 517.5,-86.5 398.5,-86.5"/>
<text text-anchor="start" x="406.5" y="-104.5" font-family="Helvetica,sans-Serif" font-size="10.00">Obj::CHorseComponent</text>
<text text-anchor="middle" x="458" y="-93.5" font-family="Helvetica,sans-Serif" font-size="10.00">::setup_collision_cache</text>
</a>
</g>
</g>
<!-- Node1&#45;&gt;Node6 -->
<g id="edge6" class="edge"><title>Node1&#45;&gt;Node6</title>
<path fill="none" stroke="midnightblue" d="M572.737,-101.5C554.387,-101.5 535.065,-101.5 517.659,-101.5"/>
<polygon fill="midnightblue" stroke="midnightblue" points="572.814,-105 582.814,-101.5 572.814,-98.0001 572.814,-105"/>
</g>
<!-- Node10 -->
<g id="node10" class="node"><title>Node10</title>
<g id="a_node10"><a xlink:href="../../d2/d61/class_obj_1_1_c_skater_core_physics_component.html#a7082d2c1c7328d240f8f0a73c51f6cdc" target="_top" xlink:title=" ">
<polygon fill="white" stroke="black" points="369,-13.5 369,-43.5 547,-43.5 547,-13.5 369,-13.5"/>
<text text-anchor="start" x="377" y="-31.5" font-family="Helvetica,sans-Serif" font-size="10.00">Obj::CSkaterCorePhysicsComponent</text>
<text text-anchor="middle" x="458" y="-20.5" font-family="Helvetica,sans-Serif" font-size="10.00">::setup_default_collision_cache</text>
</a>
</g>
</g>
<!-- Node1&#45;&gt;Node10 -->
<g id="edge11" class="edge"><title>Node1&#45;&gt;Node10</title>
<path fill="none" stroke="midnightblue" d="M614.567,-88.2704C581.839,-75.6962 532.663,-56.802 498.39,-43.634"/>
<polygon fill="midnightblue" stroke="midnightblue" points="613.571,-91.6371 624.161,-91.9565 616.081,-85.1028 613.571,-91.6371"/>
</g>
<!-- Node3 -->
<g id="node3" class="node"><title>Node3</title>
<g id="a_node3"><a xlink:href="../../dd/d52/class_obj_1_1_c_walk_component.html#a40ceeaea9d8d11dd084f85e5f1a9c6b1" target="_top" xlink:title=" ">
<polygon fill="white" stroke="black" points="186,-196.5 186,-226.5 302,-226.5 302,-196.5 186,-196.5"/>
<text text-anchor="start" x="194" y="-214.5" font-family="Helvetica,sans-Serif" font-size="10.00">Obj::CWalkComponent</text>
<text text-anchor="middle" x="244" y="-203.5" font-family="Helvetica,sans-Serif" font-size="10.00">::go_in_air_state</text>
</a>
</g>
</g>
<!-- Node2&#45;&gt;Node3 -->
<g id="edge2" class="edge"><title>Node2&#45;&gt;Node3</title>
<path fill="none" stroke="midnightblue" d="M388.166,-178.41C360.327,-184.844 328.573,-192.184 302.056,-198.313"/>
<polygon fill="midnightblue" stroke="midnightblue" points="389.273,-181.746 398.228,-176.084 387.696,-174.926 389.273,-181.746"/>
</g>
<!-- Node5 -->
<g id="node5" class="node"><title>Node5</title>
<g id="a_node5"><a xlink:href="../../dd/d52/class_obj_1_1_c_walk_component.html#a0ac69c034862c775af90cd21b01d2182" target="_top" xlink:title=" ">
<polygon fill="white" stroke="black" points="186,-147.5 186,-177.5 302,-177.5 302,-147.5 186,-147.5"/>
<text text-anchor="start" x="194" y="-165.5" font-family="Helvetica,sans-Serif" font-size="10.00">Obj::CWalkComponent</text>
<text text-anchor="middle" x="244" y="-154.5" font-family="Helvetica,sans-Serif" font-size="10.00">::go_on_ground_state</text>
</a>
</g>
</g>
<!-- Node2&#45;&gt;Node5 -->
<g id="edge4" class="edge"><title>Node2&#45;&gt;Node5</title>
<path fill="none" stroke="midnightblue" d="M388.166,-162.5C360.327,-162.5 328.573,-162.5 302.056,-162.5"/>
<polygon fill="midnightblue" stroke="midnightblue" points="388.228,-166 398.228,-162.5 388.228,-159 388.228,-166"/>
</g>
<!-- Node4 -->
<g id="node4" class="node"><title>Node4</title>
<g id="a_node4"><a xlink:href="../../dd/d52/class_obj_1_1_c_walk_component.html#a93a603eb6f32522550b740ce8d56900d" target="_top" xlink:title=" ">
<polygon fill="white" stroke="black" points="1.5,-159.5 1.5,-189.5 117.5,-189.5 117.5,-159.5 1.5,-159.5"/>
<text text-anchor="start" x="9.5" y="-177.5" font-family="Helvetica,sans-Serif" font-size="10.00">Obj::CWalkComponent</text>
<text text-anchor="middle" x="59.5" y="-166.5" font-family="Helvetica,sans-Serif" font-size="10.00">::Update</text>
</a>
</g>
</g>
<!-- Node3&#45;&gt;Node4 -->
<g id="edge3" class="edge"><title>Node3&#45;&gt;Node4</title>
<path fill="none" stroke="midnightblue" d="M175.895,-197.895C156.733,-194.01 136.04,-189.815 117.54,-186.064"/>
<polygon fill="midnightblue" stroke="midnightblue" points="175.261,-201.338 185.757,-199.894 176.651,-194.477 175.261,-201.338"/>
</g>
<!-- Node5&#45;&gt;Node4 -->
<g id="edge5" class="edge"><title>Node5&#45;&gt;Node4</title>
<path fill="none" stroke="midnightblue" d="M175.631,-166.93C156.543,-168.185 135.955,-169.539 117.54,-170.749"/>
<polygon fill="midnightblue" stroke="midnightblue" points="176.008,-170.413 185.757,-166.264 175.548,-163.428 176.008,-170.413"/>
</g>
<!-- Node7 -->
<g id="node7" class="node"><title>Node7</title>
<g id="a_node7"><a xlink:href="../../d6/db5/class_obj_1_1_c_horse_component.html#a19d622352d277c36ae1b44ac1690f430" target="_top" xlink:title=" ">
<polygon fill="white" stroke="black" points="184.5,-98.5 184.5,-128.5 303.5,-128.5 303.5,-98.5 184.5,-98.5"/>
<text text-anchor="start" x="192.5" y="-116.5" font-family="Helvetica,sans-Serif" font-size="10.00">Obj::CHorseComponent</text>
<text text-anchor="middle" x="244" y="-105.5" font-family="Helvetica,sans-Serif" font-size="10.00">::go_in_air_state</text>
</a>
</g>
</g>
<!-- Node6&#45;&gt;Node7 -->
<g id="edge7" class="edge"><title>Node6&#45;&gt;Node7</title>
<path fill="none" stroke="midnightblue" d="M387.973,-105.407C360.691,-106.951 329.674,-108.707 303.519,-110.188"/>
<polygon fill="midnightblue" stroke="midnightblue" points="388.442,-108.886 398.228,-104.827 388.046,-101.898 388.442,-108.886"/>
</g>
<!-- Node9 -->
<g id="node9" class="node"><title>Node9</title>
<g id="a_node9"><a xlink:href="../../d6/db5/class_obj_1_1_c_horse_component.html#acb4ca5507c65a1b5b968552d62cb6490" target="_top" xlink:title=" ">
<polygon fill="white" stroke="black" points="184.5,-49.5 184.5,-79.5 303.5,-79.5 303.5,-49.5 184.5,-49.5"/>
<text text-anchor="start" x="192.5" y="-67.5" font-family="Helvetica,sans-Serif" font-size="10.00">Obj::CHorseComponent</text>
<text text-anchor="middle" x="244" y="-56.5" font-family="Helvetica,sans-Serif" font-size="10.00">::go_on_ground_state</text>
</a>
</g>
</g>
<!-- Node6&#45;&gt;Node9 -->
<g id="edge9" class="edge"><title>Node6&#45;&gt;Node9</title>
<path fill="none" stroke="midnightblue" d="M388.333,-89.5157C360.965,-84.7391 329.79,-79.2982 303.519,-74.7132"/>
<polygon fill="midnightblue" stroke="midnightblue" points="387.775,-92.9711 398.228,-91.2426 388.978,-86.0753 387.775,-92.9711"/>
</g>
<!-- Node8 -->
<g id="node8" class="node"><title>Node8</title>
<g id="a_node8"><a xlink:href="../../d6/db5/class_obj_1_1_c_horse_component.html#a8b02ae16feb2fafb4a25635c856801c6" target="_top" xlink:title=" ">
<polygon fill="white" stroke="black" points="0,-86.5 0,-116.5 119,-116.5 119,-86.5 0,-86.5"/>
<text text-anchor="start" x="8" y="-104.5" font-family="Helvetica,sans-Serif" font-size="10.00">Obj::CHorseComponent</text>
<text text-anchor="middle" x="59.5" y="-93.5" font-family="Helvetica,sans-Serif" font-size="10.00">::Update</text>
</a>
</g>
</g>
<!-- Node7&#45;&gt;Node8 -->
<g id="edge8" class="edge"><title>Node7&#45;&gt;Node8</title>
<path fill="none" stroke="midnightblue" d="M174.06,-108.967C155.97,-107.777 136.633,-106.506 119.139,-105.356"/>
<polygon fill="midnightblue" stroke="midnightblue" points="174.043,-112.473 184.251,-109.637 174.503,-105.488 174.043,-112.473"/>
</g>
<!-- Node9&#45;&gt;Node8 -->
<g id="edge10" class="edge"><title>Node9&#45;&gt;Node8</title>
<path fill="none" stroke="midnightblue" d="M174.312,-78.4258C156.149,-82.1081 136.715,-86.0483 119.139,-89.6116"/>
<polygon fill="midnightblue" stroke="midnightblue" points="175.146,-81.828 184.251,-76.4107 173.755,-74.9675 175.146,-81.828"/>
</g>
<!-- Node11 -->
<g id="node11" class="node"><title>Node11</title>
<g id="a_node11"><a xlink:href="../../d2/d61/class_obj_1_1_c_skater_core_physics_component.html#ab33036e6e0db072615c967ea6392832e" target="_top" xlink:title=" ">
<polygon fill="white" stroke="black" points="155,-0.5 155,-30.5 333,-30.5 333,-0.5 155,-0.5"/>
<text text-anchor="start" x="163" y="-18.5" font-family="Helvetica,sans-Serif" font-size="10.00">Obj::CSkaterCorePhysicsComponent</text>
<text text-anchor="middle" x="244" y="-7.5" font-family="Helvetica,sans-Serif" font-size="10.00">::Update</text>
</a>
</g>
</g>
<!-- Node10&#45;&gt;Node11 -->
<g id="edge12" class="edge"><title>Node10&#45;&gt;Node11</title>
<path fill="none" stroke="midnightblue" d="M358.893,-22.484C350.3,-21.9571 341.637,-21.4259 333.132,-20.9043"/>
<polygon fill="midnightblue" stroke="midnightblue" points="358.739,-25.9811 368.935,-23.0998 359.168,-18.9942 358.739,-25.9811"/>
</g>
</g>
</svg>
        <g id="navigator" transform="translate(0 0)" fill="#404254">
                <rect fill="#f2f5e9" fill-opacity="0.5" stroke="#606060" stroke-width=".5" x="0" y="0" width="60" height="60"/>
                <use id="zoomplus" xlink:href="#zoomPlus" x="17" y="9" onmousedown="handleZoom(evt,'in')"/>
                <use id="zoomminus" xlink:href="#zoomMin" x="42" y="9" onmousedown="handleZoom(evt,'out')"/>
                <use id="reset" xlink:href="#resetDef" x="30" y="36" onmousedown="handleReset()"/>
                <g id="arrowUp" xlink:href="#dirArrow" transform="translate(30 24)" onmousedown="handlePan(0,-1)">
                  <use xlink:href="#rim" fill="#404040">
                        <set attributeName="fill" to="#808080" begin="arrowUp.mouseover" end="arrowUp.mouseout"/>
                  </use>
                  <path fill="none" stroke="white" stroke-width="1.5" d="M0,-3.0v7 M-2.5,-0.5L0,-3.0L2.5,-0.5"/>
                </g>
                <g id="arrowRight" xlink:href="#dirArrow" transform="rotate(90) translate(36 -43)" onmousedown="handlePan(1,0)">
                  <use xlink:href="#rim" fill="#404040">
                        <set attributeName="fill" to="#808080" begin="arrowRight.mouseover" end="arrowRight.mouseout"/>
                  </use>
                  <path fill="none" stroke="white" stroke-width="1.5" d="M0,-3.0v7 M-2.5,-0.5L0,-3.0L2.5,-0.5"/>
                </g>
                <g id="arrowDown" xlink:href="#dirArrow" transform="rotate(180) translate(-30 -48)" onmousedown="handlePan(0,1)">
                  <use xlink:href="#rim" fill="#404040">
                        <set attributeName="fill" to="#808080" begin="arrowDown.mouseover" end="arrowDown.mouseout"/>
                  </use>
                  <path fill="none" stroke="white" stroke-width="1.5" d="M0,-3.0v7 M-2.5,-0.5L0,-3.0L2.5,-0.5"/>
                </g>
                <g id="arrowLeft" xlink:href="#dirArrow" transform="rotate(270) translate(-36 17)" onmousedown="handlePan(-1,0)">
                  <use xlink:href="#rim" fill="#404040">
                        <set attributeName="fill" to="#808080" begin="arrowLeft.mouseover" end="arrowLeft.mouseout"/>
                  </use>
                  <path fill="none" stroke="white" stroke-width="1.5" d="M0,-3.0v7 M-2.5,-0.5L0,-3.0L2.5,-0.5"/>
                </g>
        </g>
        <svg viewBox="0 0 15 15" width="100%" height="30px" preserveAspectRatio="xMaxYMin meet">
         <g id="arrow_out" transform="scale(0.3 0.3)">
          <a xlink:href="class_c_feeler_a8d9be0465b6dbdbe506ed1b4a38886a3_icgraph_org.svg" target="_base">
           <rect id="button" ry="5" rx="5" y="6" x="6" height="38" width="38"
                fill="#f2f5e9" fill-opacity="0.5" stroke="#606060" stroke-width="1.0"/>
           <path id="arrow"
             d="M 11.500037,31.436501 C 11.940474,20.09759 22.043105,11.32322 32.158766,21.979434 L 37.068811,17.246167 C 37.068811,17.246167 37.088388,32 37.088388,32 L 22.160133,31.978069 C 22.160133,31.978069 26.997745,27.140456 26.997745,27.140456 C 18.528582,18.264221 13.291696,25.230495 11.500037,31.436501 z"
             style="fill:#404040;"/>
          </a>
         </g>
        </svg>
</svg>
