<?xml version="1.0" encoding="UTF-8" standalone="no"?>
<!DOCTYPE svg PUBLIC "-//W3C//DTD SVG 1.1//EN"
 "http://www.w3.org/Graphics/SVG/1.1/DTD/svg11.dtd">
<!-- Generated by graphviz version 2.38.0 (20140413.2041)
 -->
<!-- Title: Ed::RailSet::FreeAllocators Pages: 1 -->
<!--zoomable 158 -->
<svg id="main" version="1.1" xmlns="http://www.w3.org/2000/svg" xmlns:xlink="http://www.w3.org/1999/xlink" xml:space="preserve" onload="init(evt)">
<style type="text/css"><![CDATA[
.edge:hover path { stroke: red; }
.edge:hover polygon { stroke: red; fill: red; }
]]></style>
<script type="text/javascript"><![CDATA[
var edges = document.getElementsByTagName('g');
if (edges && edges.length) {
  for (var i=0;i<edges.length;i++) {
    if (edges[i].id.substr(0,4)=='edge') {
      edges[i].setAttribute('class','edge');
    }
  }
}
]]></script>
        <defs>
                <circle id="rim" cx="0" cy="0" r="7"/>
                <circle id="rim2" cx="0" cy="0" r="3.5"/>
                <g id="zoomPlus">
                        <use xlink:href="#rim" fill="#404040">
                                <set attributeName="fill" to="#808080" begin="zoomplus.mouseover" end="zoomplus.mouseout"/>
                        </use>
                        <path d="M-4,0h8M0,-4v8" fill="none" stroke="white" stroke-width="1.5" pointer-events="none"/>
                </g>
                <g id="zoomMin">
                        <use xlink:href="#rim" fill="#404040">
                                <set attributeName="fill" to="#808080" begin="zoomminus.mouseover" end="zoomminus.mouseout"/>
                        </use>
                        <path d="M-4,0h8" fill="none" stroke="white" stroke-width="1.5" pointer-events="none"/>
                </g>
                <g id="dirArrow">
                        <path fill="none" stroke="white" stroke-width="1.5" d="M0,-3.0v7 M-2.5,-0.5L0,-3.0L2.5,-0.5"/>
                </g>
               <g id="resetDef">
                       <use xlink:href="#rim2" fill="#404040">
                               <set attributeName="fill" to="#808080" begin="reset.mouseover" end="reset.mouseout"/>
                       </use>
               </g>
        </defs>

<script type="text/javascript">
var viewWidth = 982;
var viewHeight = 158;
var sectionId = 'dynsection-8';
</script>
<script xlink:href="../../svgpan.js"/>
<svg id="graph" class="graph">
<g id="viewport">
<title>Ed::RailSet::FreeAllocators</title>
<polygon fill="white" stroke="none" points="-4,4 -4,-154 978,-154 978,4 -4,4"/>
<!-- Node1 -->
<g id="node1" class="node"><title>Node1</title>
<g id="a_node1"><a xlink:title=" ">
<polygon fill="#bfbfbf" stroke="black" points="839,-50 839,-69 974,-69 974,-50 839,-50"/>
<text text-anchor="middle" x="906.5" y="-57" font-family="Helvetica,sans-Serif" font-size="10.00">Ed::RailSet::FreeAllocators</text>
</a>
</g>
</g>
<!-- Node2 -->
<g id="node2" class="node"><title>Node2</title>
<g id="a_node2"><a xlink:href="../../de/d42/class_ed_1_1_c_park_generator.html#a0c2a884c6a0cc8bc4e80d03f102d74a1" target="_top" xlink:title=" ">
<polygon fill="white" stroke="black" points="696,-73.5 696,-103.5 803,-103.5 803,-73.5 696,-73.5"/>
<text text-anchor="start" x="704" y="-91.5" font-family="Helvetica,sans-Serif" font-size="10.00">Ed::CParkGenerator</text>
<text text-anchor="middle" x="749.5" y="-80.5" font-family="Helvetica,sans-Serif" font-size="10.00">::CleanUpOutRailSet</text>
</a>
</g>
</g>
<!-- Node1&#45;&gt;Node2 -->
<g id="edge1" class="edge"><title>Node1&#45;&gt;Node2</title>
<path fill="none" stroke="midnightblue" d="M844.131,-70.9819C830.597,-73.514 816.377,-76.1747 803.221,-78.6361"/>
<polygon fill="midnightblue" stroke="midnightblue" points="845.132,-74.3555 854.318,-69.0761 843.844,-67.4749 845.132,-74.3555"/>
</g>
<!-- Node8 -->
<g id="node8" class="node"><title>Node8</title>
<g id="a_node8"><a xlink:href="../../de/d42/class_ed_1_1_c_park_generator.html#a4e73ec6340f9fb57c6f94948dcf74985" target="_top" xlink:title=" ">
<polygon fill="white" stroke="black" points="697.5,-16.5 697.5,-46.5 801.5,-46.5 801.5,-16.5 697.5,-16.5"/>
<text text-anchor="start" x="705.5" y="-34.5" font-family="Helvetica,sans-Serif" font-size="10.00">Ed::CParkGenerator</text>
<text text-anchor="middle" x="749.5" y="-23.5" font-family="Helvetica,sans-Serif" font-size="10.00">::DestroyRailInfo</text>
</a>
</g>
</g>
<!-- Node1&#45;&gt;Node8 -->
<g id="edge9" class="edge"><title>Node1&#45;&gt;Node8</title>
<path fill="none" stroke="midnightblue" d="M842.368,-48.0955C828.806,-45.6456 814.636,-43.0859 801.598,-40.7307"/>
<polygon fill="midnightblue" stroke="midnightblue" points="842.128,-51.6088 852.591,-49.9423 843.373,-44.7203 842.128,-51.6088"/>
</g>
<!-- Node3 -->
<g id="node3" class="node"><title>Node3</title>
<g id="a_node3"><a xlink:href="../../de/d42/class_ed_1_1_c_park_generator.html#aa09527e9552236975be71ab5aa2bda14" target="_top" xlink:title=" ">
<polygon fill="white" stroke="black" points="362.5,-119.5 362.5,-149.5 466.5,-149.5 466.5,-119.5 362.5,-119.5"/>
<text text-anchor="start" x="370.5" y="-137.5" font-family="Helvetica,sans-Serif" font-size="10.00">Ed::CParkGenerator</text>
<text text-anchor="middle" x="414.5" y="-126.5" font-family="Helvetica,sans-Serif" font-size="10.00">::GenerateNodeInfo</text>
</a>
</g>
</g>
<!-- Node2&#45;&gt;Node3 -->
<g id="edge2" class="edge"><title>Node2&#45;&gt;Node3</title>
<path fill="none" stroke="midnightblue" d="M707.209,-107.484C692.6,-113.356 675.853,-119.155 660,-122.5 594.298,-136.361 516.562,-137.683 466.673,-136.665"/>
<polygon fill="midnightblue" stroke="midnightblue" points="708.576,-110.706 716.47,-103.64 705.892,-104.241 708.576,-110.706"/>
</g>
<!-- Node6 -->
<g id="node6" class="node"><title>Node6</title>
<g id="a_node6"><a xlink:href="../../de/d42/class_ed_1_1_c_park_generator.html#a6fe4c8aa7ca841a3772e521064853a76" target="_top" xlink:title=" ">
<polygon fill="white" stroke="black" points="535.5,-82.5 535.5,-112.5 645.5,-112.5 645.5,-82.5 535.5,-82.5"/>
<text text-anchor="start" x="543.5" y="-100.5" font-family="Helvetica,sans-Serif" font-size="10.00">Ed::CParkGenerator</text>
<text text-anchor="middle" x="590.5" y="-89.5" font-family="Helvetica,sans-Serif" font-size="10.00">::GenerateOutRailSet</text>
</a>
</g>
</g>
<!-- Node2&#45;&gt;Node6 -->
<g id="edge5" class="edge"><title>Node2&#45;&gt;Node6</title>
<path fill="none" stroke="midnightblue" d="M685.783,-92.0952C672.51,-92.8561 658.609,-93.653 645.684,-94.3939"/>
<polygon fill="midnightblue" stroke="midnightblue" points="686.001,-95.5886 695.785,-91.5219 685.601,-88.6 686.001,-95.5886"/>
</g>
<!-- Node7 -->
<g id="node7" class="node"><title>Node7</title>
<g id="a_node7"><a xlink:href="../../dc/d9e/class_obj_1_1_c_rail_editor_component.html#a1c9cbe3132bad09cfcab8f889e424770" target="_top" xlink:title=" ">
<polygon fill="white" stroke="black" points="346.5,-63.5 346.5,-93.5 482.5,-93.5 482.5,-63.5 346.5,-63.5"/>
<text text-anchor="start" x="354.5" y="-81.5" font-family="Helvetica,sans-Serif" font-size="10.00">Obj::CRailEditorComponent</text>
<text text-anchor="middle" x="414.5" y="-70.5" font-family="Helvetica,sans-Serif" font-size="10.00">::Hide</text>
</a>
</g>
</g>
<!-- Node2&#45;&gt;Node7 -->
<g id="edge8" class="edge"><title>Node2&#45;&gt;Node7</title>
<path fill="none" stroke="midnightblue" d="M685.793,-75.7349C677.16,-74.3963 668.383,-73.2517 660,-72.5 600.158,-67.1341 531.771,-69.5331 482.568,-72.7525"/>
<polygon fill="midnightblue" stroke="midnightblue" points="685.394,-79.2162 695.829,-77.3836 686.528,-72.3088 685.394,-79.2162"/>
</g>
<!-- Node4 -->
<g id="node4" class="node"><title>Node4</title>
<g id="a_node4"><a xlink:href="../../d0/d5c/class_ed_1_1_c_park_manager.html#afe3b49be10db3c24e7a68e400f00ade5" target="_top" xlink:title=" ">
<polygon fill="white" stroke="black" points="171,-119.5 171,-149.5 308,-149.5 308,-119.5 171,-119.5"/>
<text text-anchor="start" x="179" y="-137.5" font-family="Helvetica,sans-Serif" font-size="10.00">Ed::CParkManager::Rebuild</text>
<text text-anchor="middle" x="239.5" y="-126.5" font-family="Helvetica,sans-Serif" font-size="10.00">NodeArray</text>
</a>
</g>
</g>
<!-- Node3&#45;&gt;Node4 -->
<g id="edge3" class="edge"><title>Node3&#45;&gt;Node4</title>
<path fill="none" stroke="midnightblue" d="M351.919,-134.5C337.717,-134.5 322.535,-134.5 308.093,-134.5"/>
<polygon fill="midnightblue" stroke="midnightblue" points="352.063,-138 362.063,-134.5 352.063,-131 352.063,-138"/>
</g>
<!-- Node5 -->
<g id="node5" class="node"><title>Node5</title>
<g id="a_node5"><a xlink:href="../../d2/d84/namespace_ed.html#a22ced855b40e383b19535536b3cbefab" target="_top" xlink:title=" ">
<polygon fill="white" stroke="black" points="0,-119.5 0,-149.5 135,-149.5 135,-119.5 0,-119.5"/>
<text text-anchor="start" x="8" y="-137.5" font-family="Helvetica,sans-Serif" font-size="10.00">Ed::ScriptRebuildParkNode</text>
<text text-anchor="middle" x="67.5" y="-126.5" font-family="Helvetica,sans-Serif" font-size="10.00">Array</text>
</a>
</g>
</g>
<!-- Node4&#45;&gt;Node5 -->
<g id="edge4" class="edge"><title>Node4&#45;&gt;Node5</title>
<path fill="none" stroke="midnightblue" d="M160.813,-134.5C152.228,-134.5 143.543,-134.5 135.112,-134.5"/>
<polygon fill="midnightblue" stroke="midnightblue" points="160.823,-138 170.823,-134.5 160.823,-131 160.823,-138"/>
</g>
<!-- Node6&#45;&gt;Node3 -->
<g id="edge6" class="edge"><title>Node6&#45;&gt;Node3</title>
<path fill="none" stroke="midnightblue" d="M525.431,-111.124C506.042,-115.247 485.017,-119.718 466.596,-123.635"/>
<polygon fill="midnightblue" stroke="midnightblue" points="526.346,-114.508 535.399,-109.004 524.89,-107.661 526.346,-114.508"/>
</g>
<!-- Node6&#45;&gt;Node7 -->
<g id="edge7" class="edge"><title>Node6&#45;&gt;Node7</title>
<path fill="none" stroke="midnightblue" d="M525.444,-90.5053C511.536,-88.9867 496.786,-87.3761 482.759,-85.8444"/>
<polygon fill="midnightblue" stroke="midnightblue" points="525.078,-93.9862 535.399,-91.5924 525.838,-87.0275 525.078,-93.9862"/>
</g>
<!-- Node9 -->
<g id="node9" class="node"><title>Node9</title>
<g id="a_node9"><a xlink:href="../../d0/d5c/class_ed_1_1_c_park_manager.html#a294b6088fc662e0f95d45feea3cfda70" target="_top" xlink:title=" ">
<polygon fill="white" stroke="black" points="521,-6 521,-25 660,-25 660,-6 521,-6"/>
<text text-anchor="middle" x="590.5" y="-13" font-family="Helvetica,sans-Serif" font-size="10.00">Ed::CParkManager::Destroy</text>
</a>
</g>
</g>
<!-- Node8&#45;&gt;Node9 -->
<g id="edge10" class="edge"><title>Node8&#45;&gt;Node9</title>
<path fill="none" stroke="midnightblue" d="M686.939,-25.2263C678.15,-24.3306 669.063,-23.4045 660.148,-22.496"/>
<polygon fill="midnightblue" stroke="midnightblue" points="686.789,-28.729 697.092,-26.261 687.499,-21.7651 686.789,-28.729"/>
</g>
<!-- Node10 -->
<g id="node10" class="node"><title>Node10</title>
<g id="a_node10"><a xlink:href="../../d2/d84/namespace_ed.html#a193edd746832f7fa49f8496c9804d8e8" target="_top" xlink:title=" ">
<polygon fill="white" stroke="black" points="344,-0.5 344,-30.5 485,-30.5 485,-0.5 344,-0.5"/>
<text text-anchor="start" x="352" y="-18.5" font-family="Helvetica,sans-Serif" font-size="10.00">Ed::ScriptFreeUpMemoryFor</text>
<text text-anchor="middle" x="414.5" y="-7.5" font-family="Helvetica,sans-Serif" font-size="10.00">PlayingPark</text>
</a>
</g>
</g>
<!-- Node9&#45;&gt;Node10 -->
<g id="edge11" class="edge"><title>Node9&#45;&gt;Node10</title>
<path fill="none" stroke="midnightblue" d="M510.505,-15.5C502.063,-15.5 493.519,-15.5 485.196,-15.5"/>
<polygon fill="midnightblue" stroke="midnightblue" points="510.731,-19.0001 520.731,-15.5 510.731,-12.0001 510.731,-19.0001"/>
</g>
</g>
</svg>
        <g id="navigator" transform="translate(0 0)" fill="#404254">
                <rect fill="#f2f5e9" fill-opacity="0.5" stroke="#606060" stroke-width=".5" x="0" y="0" width="60" height="60"/>
                <use id="zoomplus" xlink:href="#zoomPlus" x="17" y="9" onmousedown="handleZoom(evt,'in')"/>
                <use id="zoomminus" xlink:href="#zoomMin" x="42" y="9" onmousedown="handleZoom(evt,'out')"/>
                <use id="reset" xlink:href="#resetDef" x="30" y="36" onmousedown="handleReset()"/>
                <g id="arrowUp" xlink:href="#dirArrow" transform="translate(30 24)" onmousedown="handlePan(0,-1)">
                  <use xlink:href="#rim" fill="#404040">
                        <set attributeName="fill" to="#808080" begin="arrowUp.mouseover" end="arrowUp.mouseout"/>
                  </use>
                  <path fill="none" stroke="white" stroke-width="1.5" d="M0,-3.0v7 M-2.5,-0.5L0,-3.0L2.5,-0.5"/>
                </g>
                <g id="arrowRight" xlink:href="#dirArrow" transform="rotate(90) translate(36 -43)" onmousedown="handlePan(1,0)">
                  <use xlink:href="#rim" fill="#404040">
                        <set attributeName="fill" to="#808080" begin="arrowRight.mouseover" end="arrowRight.mouseout"/>
                  </use>
                  <path fill="none" stroke="white" stroke-width="1.5" d="M0,-3.0v7 M-2.5,-0.5L0,-3.0L2.5,-0.5"/>
                </g>
                <g id="arrowDown" xlink:href="#dirArrow" transform="rotate(180) translate(-30 -48)" onmousedown="handlePan(0,1)">
                  <use xlink:href="#rim" fill="#404040">
                        <set attributeName="fill" to="#808080" begin="arrowDown.mouseover" end="arrowDown.mouseout"/>
                  </use>
                  <path fill="none" stroke="white" stroke-width="1.5" d="M0,-3.0v7 M-2.5,-0.5L0,-3.0L2.5,-0.5"/>
                </g>
                <g id="arrowLeft" xlink:href="#dirArrow" transform="rotate(270) translate(-36 17)" onmousedown="handlePan(-1,0)">
                  <use xlink:href="#rim" fill="#404040">
                        <set attributeName="fill" to="#808080" begin="arrowLeft.mouseover" end="arrowLeft.mouseout"/>
                  </use>
                  <path fill="none" stroke="white" stroke-width="1.5" d="M0,-3.0v7 M-2.5,-0.5L0,-3.0L2.5,-0.5"/>
                </g>
        </g>
        <svg viewBox="0 0 15 15" width="100%" height="30px" preserveAspectRatio="xMaxYMin meet">
         <g id="arrow_out" transform="scale(0.3 0.3)">
          <a xlink:href="class_ed_1_1_rail_set_ae68eb24640c15847d36ff9a10497681e_icgraph_org.svg" target="_base">
           <rect id="button" ry="5" rx="5" y="6" x="6" height="38" width="38"
                fill="#f2f5e9" fill-opacity="0.5" stroke="#606060" stroke-width="1.0"/>
           <path id="arrow"
             d="M 11.500037,31.436501 C 11.940474,20.09759 22.043105,11.32322 32.158766,21.979434 L 37.068811,17.246167 C 37.068811,17.246167 37.088388,32 37.088388,32 L 22.160133,31.978069 C 22.160133,31.978069 26.997745,27.140456 26.997745,27.140456 C 18.528582,18.264221 13.291696,25.230495 11.500037,31.436501 z"
             style="fill:#404040;"/>
          </a>
         </g>
        </svg>
</svg>
