<?xml version="1.0" encoding="UTF-8" standalone="no"?>
<!DOCTYPE svg PUBLIC "-//W3C//DTD SVG 1.1//EN"
 "http://www.w3.org/Graphics/SVG/1.1/DTD/svg11.dtd">
<!-- Generated by graphviz version 2.38.0 (20140413.2041)
 -->
<!-- Title: Nx::CNgcSector::LoadFromFile Pages: 1 -->
<svg width="514pt" height="154pt"
 viewBox="0.00 0.00 514.00 154.00" xmlns="http://www.w3.org/2000/svg" xmlns:xlink="http://www.w3.org/1999/xlink">
<g id="graph0" class="graph" transform="scale(1 1) rotate(0) translate(4 150)">
<title>Nx::CNgcSector::LoadFromFile</title>
<polygon fill="white" stroke="none" points="-4,4 -4,-150 510,-150 510,4 -4,4"/>
<!-- Node1 -->
<g id="node1" class="node"><title>Node1</title>
<g id="a_node1"><a xlink:title=" ">
<polygon fill="#bfbfbf" stroke="black" points="0,-44.5 0,-63.5 152,-63.5 152,-44.5 0,-44.5"/>
<text text-anchor="middle" x="76" y="-51.5" font-family="Helvetica,sans-Serif" font-size="10.00">Nx::CNgcSector::LoadFromFile</text>
</a>
</g>
</g>
<!-- Node2 -->
<g id="node2" class="node"><title>Node2</title>
<g id="a_node2"><a xlink:href="../../de/dc7/class_nx_1_1_c_ngc_geom.html#a9fcf285f56eb729b6a30d7ba40919957" target="_top" xlink:title=" ">
<polygon fill="white" stroke="black" points="191,-88.5 191,-107.5 323,-107.5 323,-88.5 191,-88.5"/>
<text text-anchor="middle" x="257" y="-95.5" font-family="Helvetica,sans-Serif" font-size="10.00">Nx::CNgcGeom::AddMesh</text>
</a>
</g>
</g>
<!-- Node1&#45;&gt;Node2 -->
<g id="edge1" class="edge"><title>Node1&#45;&gt;Node2</title>
<path fill="none" stroke="midnightblue" d="M115.84,-63.5473C142.698,-70.1492 178.631,-78.9819 207.389,-86.051"/>
<polygon fill="midnightblue" stroke="midnightblue" points="206.689,-89.483 217.235,-88.4713 208.36,-82.6853 206.689,-89.483"/>
</g>
<!-- Node6 -->
<g id="node6" class="node"><title>Node6</title>
<g id="a_node6"><a xlink:href="../../d5/da4/class_nx_1_1_c_ngc_scene.html#aa5f47c07e889152b428639515cb2c98c" target="_top" xlink:title=" ">
<polygon fill="white" stroke="black" points="188,-39 188,-69 326,-69 326,-39 188,-39"/>
<text text-anchor="start" x="196" y="-57" font-family="Helvetica,sans-Serif" font-size="10.00">Nx::CNgcScene::GetEngine</text>
<text text-anchor="middle" x="257" y="-46" font-family="Helvetica,sans-Serif" font-size="10.00">Scene</text>
</a>
</g>
</g>
<!-- Node1&#45;&gt;Node6 -->
<g id="edge5" class="edge"><title>Node1&#45;&gt;Node6</title>
<path fill="none" stroke="midnightblue" d="M152.134,-54C160.568,-54 169.177,-54 177.651,-54"/>
<polygon fill="midnightblue" stroke="midnightblue" points="177.899,-57.5001 187.899,-54 177.899,-50.5001 177.899,-57.5001"/>
</g>
<!-- Node7 -->
<g id="node7" class="node"><title>Node7</title>
<g id="a_node7"><a xlink:href="../../d3/d55/class_nx_1_1_c_sector.html#a6da0d71528a80e92b386584ffed5dee5" target="_top" xlink:title=" ">
<polygon fill="white" stroke="black" points="188.5,-0.5 188.5,-19.5 325.5,-19.5 325.5,-0.5 188.5,-0.5"/>
<text text-anchor="middle" x="257" y="-7.5" font-family="Helvetica,sans-Serif" font-size="10.00">Nx::CSector::SetChecksum</text>
</a>
</g>
</g>
<!-- Node1&#45;&gt;Node7 -->
<g id="edge6" class="edge"><title>Node1&#45;&gt;Node7</title>
<path fill="none" stroke="midnightblue" d="M115.84,-44.4527C142.698,-37.8508 178.631,-29.0181 207.389,-21.949"/>
<polygon fill="midnightblue" stroke="midnightblue" points="208.36,-25.3147 217.235,-19.5287 206.689,-18.517 208.36,-25.3147"/>
</g>
<!-- Node3 -->
<g id="node3" class="node"><title>Node3</title>
<g id="a_node3"><a xlink:href="../../d2/d0a/class_mem_1_1_manager.html#a7c4cba14870f002aee0243e16114f443" target="_top" xlink:title=" ">
<polygon fill="white" stroke="black" points="364.5,-126.5 364.5,-145.5 503.5,-145.5 503.5,-126.5 364.5,-126.5"/>
<text text-anchor="middle" x="434" y="-133.5" font-family="Helvetica,sans-Serif" font-size="10.00">Mem::Manager::PopContext</text>
</a>
</g>
</g>
<!-- Node2&#45;&gt;Node3 -->
<g id="edge2" class="edge"><title>Node2&#45;&gt;Node3</title>
<path fill="none" stroke="midnightblue" d="M302.16,-107.589C325.565,-112.671 354.505,-118.955 379.212,-124.32"/>
<polygon fill="midnightblue" stroke="midnightblue" points="378.643,-127.778 389.158,-126.48 380.128,-120.938 378.643,-127.778"/>
</g>
<!-- Node4 -->
<g id="node4" class="node"><title>Node4</title>
<g id="a_node4"><a xlink:href="../../d2/d0a/class_mem_1_1_manager.html#aaf8e36abc36eecabe46bf2582035192a" target="_top" xlink:title=" ">
<polygon fill="white" stroke="black" points="362,-88.5 362,-107.5 506,-107.5 506,-88.5 362,-88.5"/>
<text text-anchor="middle" x="434" y="-95.5" font-family="Helvetica,sans-Serif" font-size="10.00">Mem::Manager::PushContext</text>
</a>
</g>
</g>
<!-- Node2&#45;&gt;Node4 -->
<g id="edge3" class="edge"><title>Node2&#45;&gt;Node4</title>
<path fill="none" stroke="midnightblue" d="M323.164,-98C332.441,-98 342.077,-98 351.616,-98"/>
<polygon fill="midnightblue" stroke="midnightblue" points="351.908,-101.5 361.908,-98 351.908,-94.5001 351.908,-101.5"/>
</g>
<!-- Node5 -->
<g id="node5" class="node"><title>Node5</title>
<g id="a_node5"><a xlink:href="../../d2/d0a/class_mem_1_1_manager.html#a3aefd91781b7f41d35e6df6a32d379d0" target="_top" xlink:title=" ">
<polygon fill="white" stroke="black" points="372.5,-50.5 372.5,-69.5 495.5,-69.5 495.5,-50.5 372.5,-50.5"/>
<text text-anchor="middle" x="434" y="-57.5" font-family="Helvetica,sans-Serif" font-size="10.00">Mem::Manager::sHandle</text>
</a>
</g>
</g>
<!-- Node2&#45;&gt;Node5 -->
<g id="edge4" class="edge"><title>Node2&#45;&gt;Node5</title>
<path fill="none" stroke="midnightblue" d="M302.16,-88.411C325.565,-83.3287 354.505,-77.0446 379.212,-71.6797"/>
<polygon fill="midnightblue" stroke="midnightblue" points="380.128,-75.0624 389.158,-69.5201 378.643,-68.2218 380.128,-75.0624"/>
</g>
</g>
</svg>
