<?xml version="1.0" encoding="UTF-8" standalone="no"?>
<!DOCTYPE svg PUBLIC "-//W3C//DTD SVG 1.1//EN"
 "http://www.w3.org/Graphics/SVG/1.1/DTD/svg11.dtd">
<!-- Generated by graphviz version 2.38.0 (20140413.2041)
 -->
<!-- Title: Inp::Manager::AddHandler Pages: 1 -->
<svg width="534pt" height="330pt"
 viewBox="0.00 0.00 534.00 329.50" xmlns="http://www.w3.org/2000/svg" xmlns:xlink="http://www.w3.org/1999/xlink">
<g id="graph0" class="graph" transform="scale(1 1) rotate(0) translate(4 325.5)">
<title>Inp::Manager::AddHandler</title>
<polygon fill="white" stroke="none" points="-4,4 -4,-325.5 530,-325.5 530,4 -4,4"/>
<!-- Node1 -->
<g id="node1" class="node"><title>Node1</title>
<g id="a_node1"><a xlink:title=" ">
<polygon fill="#bfbfbf" stroke="black" points="397,-154 397,-173 526,-173 526,-154 397,-154"/>
<text text-anchor="middle" x="461.5" y="-161" font-family="Helvetica,sans-Serif" font-size="10.00">Inp::Manager::AddHandler</text>
</a>
</g>
</g>
<!-- Node2 -->
<g id="node2" class="node"><title>Node2</title>
<g id="a_node2"><a xlink:href="../../d6/d1b/class_obj_1_1_c_skater_cam.html#a336b9849d8736250ba8b0a8602fe84ad" target="_top" xlink:title=" ">
<polygon fill="white" stroke="black" points="187,-302 187,-321 342,-321 342,-302 187,-302"/>
<text text-anchor="middle" x="264.5" y="-309" font-family="Helvetica,sans-Serif" font-size="10.00">Obj::CSkaterCam::CSkaterCam</text>
</a>
</g>
</g>
<!-- Node1&#45;&gt;Node2 -->
<g id="edge1" class="edge"><title>Node1&#45;&gt;Node2</title>
<path fill="none" stroke="midnightblue" d="M451.663,-182.154C437.064,-210.799 405.079,-265.165 361,-292.5 354.822,-296.331 348.026,-299.411 340.992,-301.884"/>
<polygon fill="midnightblue" stroke="midnightblue" points="454.805,-183.697 456.094,-173.181 448.528,-180.598 454.805,-183.697"/>
</g>
<!-- Node3 -->
<g id="node3" class="node"><title>Node3</title>
<g id="a_node3"><a xlink:href="../../d6/dbf/class_obj_1_1_c_viewer_object.html#a1824338ef1d958fdbd1bede9585246b3" target="_top" xlink:title=" ">
<polygon fill="white" stroke="black" points="213.5,-252.5 213.5,-282.5 315.5,-282.5 315.5,-252.5 213.5,-252.5"/>
<text text-anchor="start" x="221.5" y="-270.5" font-family="Helvetica,sans-Serif" font-size="10.00">Obj::CViewerObject</text>
<text text-anchor="middle" x="264.5" y="-259.5" font-family="Helvetica,sans-Serif" font-size="10.00">::CViewerObject</text>
</a>
</g>
</g>
<!-- Node1&#45;&gt;Node3 -->
<g id="edge2" class="edge"><title>Node1&#45;&gt;Node3</title>
<path fill="none" stroke="midnightblue" d="M443.938,-180.3C425.337,-198.237 393.482,-226.263 361,-242.5 347.05,-249.473 330.95,-254.648 315.992,-258.422"/>
<polygon fill="midnightblue" stroke="midnightblue" points="446.611,-182.58 451.284,-173.071 441.701,-177.591 446.611,-182.58"/>
</g>
<!-- Node4 -->
<g id="node4" class="node"><title>Node4</title>
<g id="a_node4"><a xlink:href="../../d2/d8e/class_game_net_1_1_manager.html#a89978e410ac60206ddcdb6bfc6cddb78" target="_top" xlink:title=" ">
<polygon fill="white" stroke="black" points="168,-214 168,-233 361,-233 361,-214 168,-214"/>
<text text-anchor="middle" x="264.5" y="-221" font-family="Helvetica,sans-Serif" font-size="10.00">GameNet::Manager::EnterObserverMode</text>
</a>
</g>
</g>
<!-- Node1&#45;&gt;Node4 -->
<g id="edge3" class="edge"><title>Node1&#45;&gt;Node4</title>
<path fill="none" stroke="midnightblue" d="M431.079,-177.396C411.557,-186.171 385.172,-197.191 361,-204.5 348.783,-208.194 335.466,-211.362 322.76,-213.992"/>
<polygon fill="midnightblue" stroke="midnightblue" points="432.698,-180.504 440.342,-173.169 429.792,-174.136 432.698,-180.504"/>
</g>
<!-- Node5 -->
<g id="node5" class="node"><title>Node5</title>
<g id="a_node5"><a xlink:href="../../d2/d8e/class_game_net_1_1_manager.html#ab7105b82dd3952541aea30d1428a268d" target="_top" xlink:title=" ">
<polygon fill="white" stroke="black" points="187.5,-176 187.5,-195 341.5,-195 341.5,-176 187.5,-176"/>
<text text-anchor="middle" x="264.5" y="-183" font-family="Helvetica,sans-Serif" font-size="10.00">GameNet::Manager::NewPlayer</text>
</a>
</g>
</g>
<!-- Node1&#45;&gt;Node5 -->
<g id="edge4" class="edge"><title>Node1&#45;&gt;Node5</title>
<path fill="none" stroke="midnightblue" d="M386.818,-171.813C372.022,-173.482 356.445,-175.24 341.569,-176.918"/>
<polygon fill="midnightblue" stroke="midnightblue" points="387.375,-175.272 396.92,-170.673 386.59,-168.316 387.375,-175.272"/>
</g>
<!-- Node7 -->
<g id="node7" class="node"><title>Node7</title>
<g id="a_node7"><a xlink:href="../../d2/d8e/class_game_net_1_1_manager.html#a513da23c18ef2f6e88c2889ef0e0fd78" target="_top" xlink:title=" ">
<polygon fill="white" stroke="black" points="198,-126.5 198,-156.5 331,-156.5 331,-126.5 198,-126.5"/>
<text text-anchor="start" x="206" y="-144.5" font-family="Helvetica,sans-Serif" font-size="10.00">GameNet::Manager::Script</text>
<text text-anchor="middle" x="264.5" y="-133.5" font-family="Helvetica,sans-Serif" font-size="10.00">EnterSurveyorMode</text>
</a>
</g>
</g>
<!-- Node1&#45;&gt;Node7 -->
<g id="edge6" class="edge"><title>Node1&#45;&gt;Node7</title>
<path fill="none" stroke="midnightblue" d="M386.861,-155.192C368.501,-153.121 348.939,-150.914 331.001,-148.89"/>
<polygon fill="midnightblue" stroke="midnightblue" points="386.59,-158.684 396.92,-156.327 387.375,-151.728 386.59,-158.684"/>
</g>
<!-- Node8 -->
<g id="node8" class="node"><title>Node8</title>
<g id="a_node8"><a xlink:href="../../dc/d29/class_mdl_1_1_c_viewer.html#a6fd00aceab1b63a8412b2efd8649bc28" target="_top" xlink:title=" ">
<polygon fill="white" stroke="black" points="202,-88 202,-107 327,-107 327,-88 202,-88"/>
<text text-anchor="middle" x="264.5" y="-95" font-family="Helvetica,sans-Serif" font-size="10.00">Mdl::CViewer::v_start_cb</text>
</a>
</g>
</g>
<!-- Node1&#45;&gt;Node8 -->
<g id="edge7" class="edge"><title>Node1&#45;&gt;Node8</title>
<path fill="none" stroke="midnightblue" d="M434.057,-149.268C414.383,-139.181 386.618,-125.982 361,-117.5 348.457,-113.347 334.691,-109.868 321.613,-107.038"/>
<polygon fill="midnightblue" stroke="midnightblue" points="432.535,-152.422 443.021,-153.936 435.768,-146.213 432.535,-152.422"/>
</g>
<!-- Node9 -->
<g id="node9" class="node"><title>Node9</title>
<g id="a_node9"><a xlink:href="../../dc/dd3/class_mdl_1_1_front_end.html#a69cf711ab4a2094caf077a7a219e0f94" target="_top" xlink:title=" ">
<polygon fill="white" stroke="black" points="200.5,-50 200.5,-69 328.5,-69 328.5,-50 200.5,-50"/>
<text text-anchor="middle" x="264.5" y="-57" font-family="Helvetica,sans-Serif" font-size="10.00">Mdl::FrontEnd::v_start_cb</text>
</a>
</g>
</g>
<!-- Node1&#45;&gt;Node9 -->
<g id="edge8" class="edge"><title>Node1&#45;&gt;Node9</title>
<path fill="none" stroke="midnightblue" d="M445.485,-146.179C427.46,-126.56 395.341,-95.1597 361,-78.5 350.962,-73.6302 339.752,-70.0084 328.642,-67.315"/>
<polygon fill="midnightblue" stroke="midnightblue" points="443.029,-148.683 452.312,-153.789 448.239,-144.008 443.029,-148.683"/>
</g>
<!-- Node10 -->
<g id="node10" class="node"><title>Node10</title>
<g id="a_node10"><a xlink:href="../../d8/d13/class_ed_1_1_c_park_editor.html#ab57e926c67b4093cdf59f85f727aec17" target="_top" xlink:title=" ">
<polygon fill="white" stroke="black" points="216,-0.5 216,-30.5 313,-30.5 313,-0.5 216,-0.5"/>
<text text-anchor="start" x="224" y="-18.5" font-family="Helvetica,sans-Serif" font-size="10.00">Ed::CParkEditor::v</text>
<text text-anchor="middle" x="264.5" y="-7.5" font-family="Helvetica,sans-Serif" font-size="10.00">_start_cb</text>
</a>
</g>
</g>
<!-- Node1&#45;&gt;Node10 -->
<g id="edge9" class="edge"><title>Node1&#45;&gt;Node10</title>
<path fill="none" stroke="midnightblue" d="M450.586,-144.866C435.138,-117.675 402.718,-67.4363 361,-40.5 346.746,-31.2965 329.234,-25.4725 313.116,-21.7906"/>
<polygon fill="midnightblue" stroke="midnightblue" points="447.597,-146.694 455.495,-153.756 453.724,-143.31 447.597,-146.694"/>
</g>
<!-- Node6 -->
<g id="node6" class="node"><title>Node6</title>
<g id="a_node6"><a xlink:href="../../d2/d8e/class_game_net_1_1_manager.html#a69c50fe6e70eaaff4082694c14034b78" target="_top" xlink:title=" ">
<polygon fill="white" stroke="black" points="0,-170.5 0,-200.5 132,-200.5 132,-170.5 0,-170.5"/>
<text text-anchor="start" x="8" y="-188.5" font-family="Helvetica,sans-Serif" font-size="10.00">GameNet::Manager::Client</text>
<text text-anchor="middle" x="66" y="-177.5" font-family="Helvetica,sans-Serif" font-size="10.00">AddNewPlayer</text>
</a>
</g>
</g>
<!-- Node5&#45;&gt;Node6 -->
<g id="edge5" class="edge"><title>Node5&#45;&gt;Node6</title>
<path fill="none" stroke="midnightblue" d="M176.897,-185.5C161.836,-185.5 146.404,-185.5 132.045,-185.5"/>
<polygon fill="midnightblue" stroke="midnightblue" points="177.247,-189 187.247,-185.5 177.247,-182 177.247,-189"/>
</g>
</g>
</svg>
