<?xml version="1.0" encoding="UTF-8" standalone="no"?>
<!DOCTYPE svg PUBLIC "-//W3C//DTD SVG 1.1//EN"
 "http://www.w3.org/Graphics/SVG/1.1/DTD/svg11.dtd">
<!-- Generated by graphviz version 2.38.0 (20140413.2041)
 -->
<!-- Title: Obj::CTracker::RegisterEventListener Pages: 1 -->
<svg width="490pt" height="127pt"
 viewBox="0.00 0.00 490.00 127.00" xmlns="http://www.w3.org/2000/svg" xmlns:xlink="http://www.w3.org/1999/xlink">
<g id="graph0" class="graph" transform="scale(1 1) rotate(0) translate(4 123)">
<title>Obj::CTracker::RegisterEventListener</title>
<polygon fill="white" stroke="none" points="-4,4 -4,-123 486,-123 486,4 -4,4"/>
<!-- Node1 -->
<g id="node1" class="node"><title>Node1</title>
<g id="a_node1"><a xlink:title=" ">
<polygon fill="#bfbfbf" stroke="black" points="339,-44.5 339,-74.5 482,-74.5 482,-44.5 339,-44.5"/>
<text text-anchor="start" x="347" y="-62.5" font-family="Helvetica,sans-Serif" font-size="10.00">Obj::CTracker::RegisterEvent</text>
<text text-anchor="middle" x="410.5" y="-51.5" font-family="Helvetica,sans-Serif" font-size="10.00">Listener</text>
</a>
</g>
</g>
<!-- Node2 -->
<g id="node2" class="node"><title>Node2</title>
<g id="a_node2"><a xlink:href="../../d7/dd6/class_obj_1_1_c_event_listener.html#af08138c318816ef8a97325da179a9833" target="_top" xlink:title=" ">
<polygon fill="white" stroke="black" points="192,-44.5 192,-74.5 303,-74.5 303,-44.5 192,-44.5"/>
<text text-anchor="start" x="200" y="-62.5" font-family="Helvetica,sans-Serif" font-size="10.00">Obj::CEventListener</text>
<text text-anchor="middle" x="247.5" y="-51.5" font-family="Helvetica,sans-Serif" font-size="10.00">::RegisterWithTracker</text>
</a>
</g>
</g>
<!-- Node1&#45;&gt;Node2 -->
<g id="edge1" class="edge"><title>Node1&#45;&gt;Node2</title>
<path fill="none" stroke="midnightblue" d="M328.714,-59.5C320.032,-59.5 311.355,-59.5 303.086,-59.5"/>
<polygon fill="midnightblue" stroke="midnightblue" points="328.883,-63.0001 338.883,-59.5 328.883,-56.0001 328.883,-63.0001"/>
</g>
<!-- Node3 -->
<g id="node3" class="node"><title>Node3</title>
<g id="a_node3"><a xlink:href="../../d9/db2/class_front_1_1_c_base_scrolling_menu.html#a9b3a4f1eac56a8fb0998e8c9fccf42e0" target="_top" xlink:title=" ">
<polygon fill="white" stroke="black" points="10,-88.5 10,-118.5 146,-118.5 146,-88.5 10,-88.5"/>
<text text-anchor="start" x="18" y="-106.5" font-family="Helvetica,sans-Serif" font-size="10.00">Front::CBaseScrollingMenu</text>
<text text-anchor="middle" x="78" y="-95.5" font-family="Helvetica,sans-Serif" font-size="10.00">::CBaseScrollingMenu</text>
</a>
</g>
</g>
<!-- Node2&#45;&gt;Node3 -->
<g id="edge2" class="edge"><title>Node2&#45;&gt;Node3</title>
<path fill="none" stroke="midnightblue" d="M181.919,-76.4647C166.879,-80.4153 150.969,-84.5948 136.271,-88.4558"/>
<polygon fill="midnightblue" stroke="midnightblue" points="182.872,-79.8331 191.654,-73.9072 181.093,-73.0628 182.872,-79.8331"/>
</g>
<!-- Node4 -->
<g id="node4" class="node"><title>Node4</title>
<g id="a_node4"><a xlink:href="../../d8/d13/class_ed_1_1_c_park_editor.html#a4c8a0a45ad22fcca58aff1a67e1e3682" target="_top" xlink:title=" ">
<polygon fill="white" stroke="black" points="5,-50 5,-69 151,-69 151,-50 5,-50"/>
<text text-anchor="middle" x="78" y="-57" font-family="Helvetica,sans-Serif" font-size="10.00">Ed::CParkEditor::CParkEditor</text>
</a>
</g>
</g>
<!-- Node2&#45;&gt;Node4 -->
<g id="edge3" class="edge"><title>Node2&#45;&gt;Node4</title>
<path fill="none" stroke="midnightblue" d="M181.433,-59.5C171.472,-59.5 161.139,-59.5 151.038,-59.5"/>
<polygon fill="midnightblue" stroke="midnightblue" points="181.654,-63.0001 191.654,-59.5 181.654,-56.0001 181.654,-63.0001"/>
</g>
<!-- Node5 -->
<g id="node5" class="node"><title>Node5</title>
<g id="a_node5"><a xlink:href="../../d8/d59/class_front_1_1_c_screen_element_manager.html#aa2dd2c62fcb068668ae6b97aca041fe4" target="_top" xlink:title=" ">
<polygon fill="white" stroke="black" points="0,-0.5 0,-30.5 156,-30.5 156,-0.5 0,-0.5"/>
<text text-anchor="start" x="8" y="-18.5" font-family="Helvetica,sans-Serif" font-size="10.00">Front::CScreenElementManager</text>
<text text-anchor="middle" x="78" y="-7.5" font-family="Helvetica,sans-Serif" font-size="10.00">::CScreenElementManager</text>
</a>
</g>
</g>
<!-- Node2&#45;&gt;Node5 -->
<g id="edge4" class="edge"><title>Node2&#45;&gt;Node5</title>
<path fill="none" stroke="midnightblue" d="M181.919,-42.5353C166.879,-38.5847 150.969,-34.4052 136.271,-30.5442"/>
<polygon fill="midnightblue" stroke="midnightblue" points="181.093,-45.9372 191.654,-45.0928 182.872,-39.1669 181.093,-45.9372"/>
</g>
</g>
</svg>
