<?xml version="1.0" encoding="UTF-8" standalone="no"?>
<!DOCTYPE svg PUBLIC "-//W3C//DTD SVG 1.1//EN"
 "http://www.w3.org/Graphics/SVG/1.1/DTD/svg11.dtd">
<!-- Generated by graphviz version 2.38.0 (20140413.2041)
 -->
<!-- Title: Obj::CPlayerProfileManager::GetProfile Pages: 1 -->
<svg width="356pt" height="362pt"
 viewBox="0.00 0.00 356.00 362.00" xmlns="http://www.w3.org/2000/svg" xmlns:xlink="http://www.w3.org/1999/xlink">
<g id="graph0" class="graph" transform="scale(1 1) rotate(0) translate(4 358)">
<title>Obj::CPlayerProfileManager::GetProfile</title>
<polygon fill="white" stroke="none" points="-4,4 -4,-358 352,-358 352,4 -4,4"/>
<!-- Node1 -->
<g id="node1" class="node"><title>Node1</title>
<g id="a_node1"><a xlink:title=" ">
<polygon fill="#bfbfbf" stroke="black" points="211,-161.5 211,-191.5 348,-191.5 348,-161.5 211,-161.5"/>
<text text-anchor="start" x="219" y="-179.5" font-family="Helvetica,sans-Serif" font-size="10.00">Obj::CPlayerProfileManager</text>
<text text-anchor="middle" x="279.5" y="-168.5" font-family="Helvetica,sans-Serif" font-size="10.00">::GetProfile</text>
</a>
</g>
</g>
<!-- Node2 -->
<g id="node2" class="node"><title>Node2</title>
<g id="a_node2"><a xlink:href="../../db/d54/namespace_c_funcs.html#a2086d68723019205950a58cf453e3084" target="_top" xlink:title=" ">
<polygon fill="white" stroke="black" points="19.5,-323.5 19.5,-353.5 155.5,-353.5 155.5,-323.5 19.5,-323.5"/>
<text text-anchor="start" x="27.5" y="-341.5" font-family="Helvetica,sans-Serif" font-size="10.00">CFuncs::ScriptGetNumStat</text>
<text text-anchor="middle" x="87.5" y="-330.5" font-family="Helvetica,sans-Serif" font-size="10.00">PointsAvailable</text>
</a>
</g>
</g>
<!-- Node1&#45;&gt;Node2 -->
<g id="edge1" class="edge"><title>Node1&#45;&gt;Node2</title>
<path fill="none" stroke="midnightblue" d="M266.386,-201.014C249.91,-231.831 217.549,-284.23 175,-313.5 169.076,-317.575 162.488,-320.993 155.665,-323.859"/>
<polygon fill="midnightblue" stroke="midnightblue" points="269.657,-202.31 271.169,-191.824 263.448,-199.078 269.657,-202.31"/>
</g>
<!-- Node3 -->
<g id="node3" class="node"><title>Node3</title>
<g id="a_node3"><a xlink:href="../../db/d54/namespace_c_funcs.html#a517bd1e3fb6bd2097b704d9e8c2ab5fe" target="_top" xlink:title=" ">
<polygon fill="white" stroke="black" points="3.5,-285 3.5,-304 171.5,-304 171.5,-285 3.5,-285"/>
<text text-anchor="middle" x="87.5" y="-292" font-family="Helvetica,sans-Serif" font-size="10.00">CFuncs::ScriptGetSkaterProfileInfo</text>
</a>
</g>
</g>
<!-- Node1&#45;&gt;Node3 -->
<g id="edge2" class="edge"><title>Node1&#45;&gt;Node3</title>
<path fill="none" stroke="midnightblue" d="M260.985,-199.416C242.237,-222.281 210.373,-256.646 175,-275.5 167.673,-279.405 159.588,-282.508 151.392,-284.974"/>
<polygon fill="midnightblue" stroke="midnightblue" points="263.757,-201.554 267.282,-191.562 258.296,-197.175 263.757,-201.554"/>
</g>
<!-- Node4 -->
<g id="node4" class="node"><title>Node4</title>
<g id="a_node4"><a xlink:href="../../db/d54/namespace_c_funcs.html#a95c798e3e6e1300bcd801a8a126448cc" target="_top" xlink:title=" ">
<polygon fill="white" stroke="black" points="22,-235.5 22,-265.5 153,-265.5 153,-235.5 22,-235.5"/>
<text text-anchor="start" x="30" y="-253.5" font-family="Helvetica,sans-Serif" font-size="10.00">CFuncs::ScriptPrintSkater</text>
<text text-anchor="middle" x="87.5" y="-242.5" font-family="Helvetica,sans-Serif" font-size="10.00">Stats2</text>
</a>
</g>
</g>
<!-- Node1&#45;&gt;Node4 -->
<g id="edge3" class="edge"><title>Node1&#45;&gt;Node4</title>
<path fill="none" stroke="midnightblue" d="M241.443,-196.404C222.023,-206.317 197.628,-217.974 175,-226.5 166.396,-229.742 157.163,-232.765 148.048,-235.496"/>
<polygon fill="midnightblue" stroke="midnightblue" points="243.27,-199.399 250.547,-191.698 240.056,-193.18 243.27,-199.399"/>
</g>
<!-- Node5 -->
<g id="node5" class="node"><title>Node5</title>
<g id="a_node5"><a xlink:href="../../db/d54/namespace_c_funcs.html#a2120378aeda278fe0dbf258645de7a9b" target="_top" xlink:title=" ">
<polygon fill="white" stroke="black" points="0,-186.5 0,-216.5 175,-216.5 175,-186.5 0,-186.5"/>
<text text-anchor="start" x="8" y="-204.5" font-family="Helvetica,sans-Serif" font-size="10.00">CFuncs::ScriptRememberTemporary</text>
<text text-anchor="middle" x="87.5" y="-193.5" font-family="Helvetica,sans-Serif" font-size="10.00">Appearance</text>
</a>
</g>
</g>
<!-- Node1&#45;&gt;Node5 -->
<g id="edge4" class="edge"><title>Node1&#45;&gt;Node5</title>
<path fill="none" stroke="midnightblue" d="M201.043,-186.692C192.489,-187.817 183.737,-188.969 175.08,-190.108"/>
<polygon fill="midnightblue" stroke="midnightblue" points="201.52,-190.159 210.978,-185.384 200.607,-183.219 201.52,-190.159"/>
</g>
<!-- Node6 -->
<g id="node6" class="node"><title>Node6</title>
<g id="a_node6"><a xlink:href="../../db/d54/namespace_c_funcs.html#a25f9a5ae6eda76ff56eff40d4727ff18" target="_top" xlink:title=" ">
<polygon fill="white" stroke="black" points="7,-137.5 7,-167.5 168,-167.5 168,-137.5 7,-137.5"/>
<text text-anchor="start" x="15" y="-155.5" font-family="Helvetica,sans-Serif" font-size="10.00">CFuncs::ScriptRestoreTemporary</text>
<text text-anchor="middle" x="87.5" y="-144.5" font-family="Helvetica,sans-Serif" font-size="10.00">Appearance</text>
</a>
</g>
</g>
<!-- Node1&#45;&gt;Node6 -->
<g id="edge5" class="edge"><title>Node1&#45;&gt;Node6</title>
<path fill="none" stroke="midnightblue" d="M200.772,-166.682C190.009,-165.322 178.941,-163.924 168.144,-162.56"/>
<polygon fill="midnightblue" stroke="midnightblue" points="200.618,-170.19 210.978,-167.971 201.496,-163.245 200.618,-170.19"/>
</g>
<!-- Node7 -->
<g id="node7" class="node"><title>Node7</title>
<g id="a_node7"><a xlink:href="../../db/d54/namespace_c_funcs.html#aee4959a7a88fd721b69584dfb2b0aefa" target="_top" xlink:title=" ">
<polygon fill="white" stroke="black" points="4,-99 4,-118 171,-118 171,-99 4,-99"/>
<text text-anchor="middle" x="87.5" y="-106" font-family="Helvetica,sans-Serif" font-size="10.00">CFuncs::ScriptSetSkaterProfileInfo</text>
</a>
</g>
</g>
<!-- Node1&#45;&gt;Node7 -->
<g id="edge6" class="edge"><title>Node1&#45;&gt;Node7</title>
<path fill="none" stroke="midnightblue" d="M241.089,-156.863C221.753,-147.305 197.539,-136.239 175,-128.5 163.192,-124.446 150.196,-120.955 137.947,-118.077"/>
<polygon fill="midnightblue" stroke="midnightblue" points="239.653,-160.058 250.161,-161.412 242.791,-153.8 239.653,-160.058"/>
</g>
<!-- Node8 -->
<g id="node8" class="node"><title>Node8</title>
<g id="a_node8"><a xlink:href="../../db/d54/namespace_c_funcs.html#a5e5a3e4b9be03d59b8d380cb6abe5ed0" target="_top" xlink:title=" ">
<polygon fill="white" stroke="black" points="11.5,-49.5 11.5,-79.5 163.5,-79.5 163.5,-49.5 11.5,-49.5"/>
<text text-anchor="start" x="19.5" y="-67.5" font-family="Helvetica,sans-Serif" font-size="10.00">CFuncs::ScriptSetSkaterProfile</text>
<text text-anchor="middle" x="87.5" y="-56.5" font-family="Helvetica,sans-Serif" font-size="10.00">Property</text>
</a>
</g>
</g>
<!-- Node1&#45;&gt;Node8 -->
<g id="edge7" class="edge"><title>Node1&#45;&gt;Node8</title>
<path fill="none" stroke="midnightblue" d="M257.34,-154.027C237.712,-134.403 206.812,-106.475 175,-89.5 167.829,-85.6732 160.001,-82.3695 152.081,-79.5344"/>
<polygon fill="midnightblue" stroke="midnightblue" points="255.034,-156.674 264.537,-161.358 260.029,-151.77 255.034,-156.674"/>
</g>
<!-- Node9 -->
<g id="node9" class="node"><title>Node9</title>
<g id="a_node9"><a xlink:href="../../db/d54/namespace_c_funcs.html#ab422d3016d9eb039c635c5da6f4fedab" target="_top" xlink:title=" ">
<polygon fill="white" stroke="black" points="20.5,-0.5 20.5,-30.5 154.5,-30.5 154.5,-0.5 20.5,-0.5"/>
<text text-anchor="start" x="28.5" y="-18.5" font-family="Helvetica,sans-Serif" font-size="10.00">CFuncs::ScriptUpdateTrick</text>
<text text-anchor="middle" x="87.5" y="-7.5" font-family="Helvetica,sans-Serif" font-size="10.00">Mappings</text>
</a>
</g>
</g>
<!-- Node1&#45;&gt;Node9 -->
<g id="edge8" class="edge"><title>Node1&#45;&gt;Node9</title>
<path fill="none" stroke="midnightblue" d="M266.34,-152.165C249.816,-121.575 217.403,-69.5598 175,-40.5 168.811,-36.2583 161.901,-32.7283 154.76,-29.7922"/>
<polygon fill="midnightblue" stroke="midnightblue" points="263.386,-154.068 271.139,-161.288 269.581,-150.809 263.386,-154.068"/>
</g>
</g>
</svg>
