<?xml version="1.0" encoding="UTF-8" standalone="no"?>
<!DOCTYPE svg PUBLIC "-//W3C//DTD SVG 1.1//EN"
 "http://www.w3.org/Graphics/SVG/1.1/DTD/svg11.dtd">
<!-- Generated by graphviz version 2.38.0 (20140413.2041)
 -->
<!-- Title: Obj::CPlayerProfileManager::AddCASProfileInfo Pages: 1 -->
<svg width="1158pt" height="364pt"
 viewBox="0.00 0.00 1158.00 364.00" xmlns="http://www.w3.org/2000/svg" xmlns:xlink="http://www.w3.org/1999/xlink">
<g id="graph0" class="graph" transform="scale(1 1) rotate(0) translate(4 360)">
<title>Obj::CPlayerProfileManager::AddCASProfileInfo</title>
<polygon fill="white" stroke="none" points="-4,4 -4,-360 1154,-360 1154,4 -4,4"/>
<!-- Node1 -->
<g id="node1" class="node"><title>Node1</title>
<g id="a_node1"><a xlink:title=" ">
<polygon fill="#bfbfbf" stroke="black" points="0,-68.5 0,-98.5 137,-98.5 137,-68.5 0,-68.5"/>
<text text-anchor="start" x="8" y="-86.5" font-family="Helvetica,sans-Serif" font-size="10.00">Obj::CPlayerProfileManager</text>
<text text-anchor="middle" x="68.5" y="-75.5" font-family="Helvetica,sans-Serif" font-size="10.00">::AddCASProfileInfo</text>
</a>
</g>
</g>
<!-- Node2 -->
<g id="node2" class="node"><title>Node2</title>
<g id="a_node2"><a xlink:href="../../d5/d28/class_obj_1_1_c_skater_profile.html#af83f2e85205ed4d9dd259a5bf0dc730d" target="_top" xlink:title=" ">
<polygon fill="white" stroke="black" points="173.5,-93.5 173.5,-123.5 273.5,-123.5 273.5,-93.5 173.5,-93.5"/>
<text text-anchor="start" x="181.5" y="-111.5" font-family="Helvetica,sans-Serif" font-size="10.00">Obj::CSkaterProfile</text>
<text text-anchor="middle" x="223.5" y="-100.5" font-family="Helvetica,sans-Serif" font-size="10.00">::IsPro</text>
</a>
</g>
</g>
<!-- Node1&#45;&gt;Node2 -->
<g id="edge1" class="edge"><title>Node1&#45;&gt;Node2</title>
<path fill="none" stroke="midnightblue" d="M137.053,-94.5381C145.799,-95.9672 154.703,-97.422 163.299,-98.8267"/>
<polygon fill="midnightblue" stroke="midnightblue" points="162.788,-102.289 173.221,-100.448 163.917,-95.381 162.788,-102.289"/>
</g>
<!-- Node3 -->
<g id="node3" class="node"><title>Node3</title>
<g id="a_node3"><a xlink:href="../../d5/d28/class_obj_1_1_c_skater_profile.html#a09bb640bd73bffb519d2ea62cd0094aa" target="_top" xlink:title=" ">
<polygon fill="white" stroke="black" points="173,-44.5 173,-74.5 274,-74.5 274,-44.5 173,-44.5"/>
<text text-anchor="start" x="181" y="-62.5" font-family="Helvetica,sans-Serif" font-size="10.00">Obj::CSkaterProfile</text>
<text text-anchor="middle" x="223.5" y="-51.5" font-family="Helvetica,sans-Serif" font-size="10.00">::WriteIntoStructure</text>
</a>
</g>
</g>
<!-- Node1&#45;&gt;Node3 -->
<g id="edge2" class="edge"><title>Node1&#45;&gt;Node3</title>
<path fill="none" stroke="midnightblue" d="M137.053,-72.9034C145.59,-71.5643 154.278,-70.2015 162.683,-68.8831"/>
<polygon fill="midnightblue" stroke="midnightblue" points="163.429,-72.3089 172.766,-67.3014 162.344,-65.3935 163.429,-72.3089"/>
</g>
<!-- Node4 -->
<g id="node4" class="node"><title>Node4</title>
<g id="a_node4"><a xlink:href="../../d2/df7/class_script_1_1_c_struct.html#a3872f7f0a9ebcc695745aabeefab2796" target="_top" xlink:title=" ">
<polygon fill="white" stroke="black" points="313,-88 313,-107 467,-107 467,-88 313,-88"/>
<text text-anchor="middle" x="390" y="-95" font-family="Helvetica,sans-Serif" font-size="10.00">Script::CStruct::AddComponent</text>
</a>
</g>
</g>
<!-- Node3&#45;&gt;Node4 -->
<g id="edge3" class="edge"><title>Node3&#45;&gt;Node4</title>
<path fill="none" stroke="midnightblue" d="M274.302,-71.0044C294.364,-75.6388 317.494,-80.9819 337.704,-85.6505"/>
<polygon fill="midnightblue" stroke="midnightblue" points="337.138,-89.1117 347.669,-87.9524 338.713,-82.2914 337.138,-89.1117"/>
</g>
<!-- Node18 -->
<g id="node18" class="node"><title>Node18</title>
<g id="a_node18"><a xlink:href="../../d2/df7/class_script_1_1_c_struct.html#a69e53f2893ce3cb95bc68264d92ce39e" target="_top" xlink:title=" ">
<polygon fill="white" stroke="black" points="310,-50 310,-69 470,-69 470,-50 310,-50"/>
<text text-anchor="middle" x="390" y="-57" font-family="Helvetica,sans-Serif" font-size="10.00">Script::CStruct::AppendStructure</text>
</a>
</g>
</g>
<!-- Node3&#45;&gt;Node18 -->
<g id="edge21" class="edge"><title>Node3&#45;&gt;Node18</title>
<path fill="none" stroke="midnightblue" d="M274.302,-59.5C282.39,-59.5 290.977,-59.5 299.67,-59.5"/>
<polygon fill="midnightblue" stroke="midnightblue" points="299.9,-63.0001 309.9,-59.5 299.9,-56.0001 299.9,-63.0001"/>
</g>
<!-- Node19 -->
<g id="node19" class="node"><title>Node19</title>
<g id="a_node19"><a xlink:href="../../d1/d92/class_gfx_1_1_c_model_appearance.html#af4004e3b345f09397dddbdf6ef4d9816" target="_top" xlink:title=" ">
<polygon fill="white" stroke="black" points="329,-0.5 329,-30.5 451,-30.5 451,-0.5 329,-0.5"/>
<text text-anchor="start" x="337" y="-18.5" font-family="Helvetica,sans-Serif" font-size="10.00">Gfx::CModelAppearance</text>
<text text-anchor="middle" x="390" y="-7.5" font-family="Helvetica,sans-Serif" font-size="10.00">::GetStructure</text>
</a>
</g>
</g>
<!-- Node3&#45;&gt;Node19 -->
<g id="edge22" class="edge"><title>Node3&#45;&gt;Node19</title>
<path fill="none" stroke="midnightblue" d="M274.302,-46.1791C289.572,-42.0946 306.62,-37.5347 322.805,-33.2057"/>
<polygon fill="midnightblue" stroke="midnightblue" points="323.991,-36.5115 332.747,-30.5464 322.182,-29.7493 323.991,-36.5115"/>
</g>
<!-- Node5 -->
<g id="node5" class="node"><title>Node5</title>
<g id="a_node5"><a xlink:href="../../d1/d54/namespace_script.html#a1dd030523ebaecb95103d181f6fd382e" target="_top" xlink:title=" ">
<polygon fill="white" stroke="black" points="508.5,-116 508.5,-135 642.5,-135 642.5,-116 508.5,-116"/>
<text text-anchor="middle" x="575.5" y="-123" font-family="Helvetica,sans-Serif" font-size="10.00">Script::CleanUpComponent</text>
</a>
</g>
</g>
<!-- Node4&#45;&gt;Node5 -->
<g id="edge4" class="edge"><title>Node4&#45;&gt;Node5</title>
<path fill="none" stroke="midnightblue" d="M453.381,-107.019C469.04,-109.408 485.976,-111.992 502.08,-114.45"/>
<polygon fill="midnightblue" stroke="midnightblue" points="501.567,-117.912 511.98,-115.96 502.622,-110.992 501.567,-117.912"/>
</g>
<!-- Node14 -->
<g id="node14" class="node"><title>Node14</title>
<g id="a_node14"><a xlink:href="../../d1/d54/namespace_script.html#ae80ed69ea4edcbcbbbd4985a6efdcd6e" target="_top" xlink:title=" ">
<polygon fill="white" stroke="black" points="506,-59 506,-78 645,-78 645,-59 506,-59"/>
<text text-anchor="middle" x="575.5" y="-66" font-family="Helvetica,sans-Serif" font-size="10.00">Script::FindChecksumName</text>
</a>
</g>
</g>
<!-- Node4&#45;&gt;Node14 -->
<g id="edge17" class="edge"><title>Node4&#45;&gt;Node14</title>
<path fill="none" stroke="midnightblue" d="M451.339,-87.9641C468.192,-85.3007 486.653,-82.3832 504.035,-79.6361"/>
<polygon fill="midnightblue" stroke="midnightblue" points="504.794,-83.0598 514.125,-78.0416 503.701,-76.1456 504.794,-83.0598"/>
</g>
<!-- Node6 -->
<g id="node6" class="node"><title>Node6</title>
<g id="a_node6"><a xlink:href="../../d1/d54/namespace_script.html#a3dd60f29ada8a33fda9f4e842f1cabc1" target="_top" xlink:title=" ">
<polygon fill="white" stroke="black" points="708.5,-211 708.5,-230 816.5,-230 816.5,-211 708.5,-211"/>
<text text-anchor="middle" x="762.5" y="-218" font-family="Helvetica,sans-Serif" font-size="10.00">Script::CleanUpArray</text>
</a>
</g>
</g>
<!-- Node5&#45;&gt;Node6 -->
<g id="edge5" class="edge"><title>Node5&#45;&gt;Node6</title>
<path fill="none" stroke="midnightblue" d="M595.257,-135.132C628.029,-151.961 695.848,-186.787 733.959,-206.357"/>
<polygon fill="midnightblue" stroke="midnightblue" points="732.474,-209.529 742.969,-210.984 735.672,-203.302 732.474,-209.529"/>
</g>
<!-- Node8 -->
<g id="node8" class="node"><title>Node8</title>
<g id="a_node8"><a xlink:href="../../db/dc4/namespace_mem.html#aeedb606ea94a3398fdcfa3101c5ea8d9" target="_top" xlink:title=" ">
<polygon fill="white" stroke="black" points="1063,-135 1063,-154 1127,-154 1127,-135 1063,-135"/>
<text text-anchor="middle" x="1095" y="-142" font-family="Helvetica,sans-Serif" font-size="10.00">Mem::Free</text>
</a>
</g>
</g>
<!-- Node5&#45;&gt;Node8 -->
<g id="edge16" class="edge"><title>Node5&#45;&gt;Node8</title>
<path fill="none" stroke="midnightblue" d="M642.633,-121.257C726.83,-116.827 876.665,-112.206 1004,-125.5 1020,-127.171 1037.35,-130.469 1052.5,-133.855"/>
<polygon fill="midnightblue" stroke="midnightblue" points="1052.07,-137.347 1062.6,-136.195 1053.65,-130.528 1052.07,-137.347"/>
</g>
<!-- Node10 -->
<g id="node10" class="node"><title>Node10</title>
<g id="a_node10"><a xlink:href="../../d1/d54/namespace_script.html#a99857fb30343d0c999af4db73344cece" target="_top" xlink:title=" ">
<polygon fill="white" stroke="black" points="891.5,-135 891.5,-154 992.5,-154 992.5,-135 891.5,-135"/>
<text text-anchor="middle" x="942" y="-142" font-family="Helvetica,sans-Serif" font-size="10.00">Script::DeleteString</text>
</a>
</g>
</g>
<!-- Node5&#45;&gt;Node10 -->
<g id="edge15" class="edge"><title>Node5&#45;&gt;Node10</title>
<path fill="none" stroke="midnightblue" d="M642.508,-128.941C710.471,-132.483 815.448,-137.955 881.088,-141.377"/>
<polygon fill="midnightblue" stroke="midnightblue" points="881.105,-144.883 891.274,-141.908 881.47,-137.892 881.105,-144.883"/>
</g>
<!-- Node7 -->
<g id="node7" class="node"><title>Node7</title>
<g id="a_node7"><a xlink:href="../../d0/d0b/class_script_1_1_c_array.html#a4b347b8b448dd652473dd6afe9aba2c2" target="_top" xlink:title=" ">
<polygon fill="white" stroke="black" points="888.5,-173 888.5,-192 995.5,-192 995.5,-173 888.5,-173"/>
<text text-anchor="middle" x="942" y="-180" font-family="Helvetica,sans-Serif" font-size="10.00">Script::CArray::Clear</text>
</a>
</g>
</g>
<!-- Node6&#45;&gt;Node7 -->
<g id="edge6" class="edge"><title>Node6&#45;&gt;Node7</title>
<path fill="none" stroke="midnightblue" d="M808.291,-210.911C832.03,-205.829 861.384,-199.545 886.444,-194.18"/>
<polygon fill="midnightblue" stroke="midnightblue" points="887.486,-197.536 896.531,-192.02 886.02,-190.691 887.486,-197.536"/>
</g>
<!-- Node9 -->
<g id="node9" class="node"><title>Node9</title>
<g id="a_node9"><a xlink:href="../../d1/d54/namespace_script.html#af32f99ba26ca0f255240413a4e23a754" target="_top" xlink:title=" ">
<polygon fill="white" stroke="black" points="1040,-192 1040,-211 1150,-211 1150,-192 1040,-192"/>
<text text-anchor="middle" x="1095" y="-199" font-family="Helvetica,sans-Serif" font-size="10.00">Script::GetTypeName</text>
</a>
</g>
</g>
<!-- Node6&#45;&gt;Node9 -->
<g id="edge14" class="edge"><title>Node6&#45;&gt;Node9</title>
<path fill="none" stroke="midnightblue" d="M816.601,-217.447C874.677,-214.109 967.746,-208.758 1029.86,-205.187"/>
<polygon fill="midnightblue" stroke="midnightblue" points="1030.15,-208.676 1039.93,-204.608 1029.75,-201.688 1030.15,-208.676"/>
</g>
<!-- Node6&#45;&gt;Node10 -->
<g id="edge9" class="edge"><title>Node6&#45;&gt;Node10</title>
<path fill="none" stroke="midnightblue" d="M780.883,-210.949C803.325,-198.865 843.803,-177.894 880,-163.5 885.546,-161.294 891.457,-159.176 897.332,-157.207"/>
<polygon fill="midnightblue" stroke="midnightblue" points="898.68,-160.45 907.118,-154.043 896.526,-153.789 898.68,-160.45"/>
</g>
<!-- Node11 -->
<g id="node11" class="node"><title>Node11</title>
<g id="a_node11"><a xlink:href="../../d0/d0b/class_script_1_1_c_array.html#a600fcbd0b8fd9d1df2ee87d77494db7a" target="_top" xlink:title=" ">
<polygon fill="white" stroke="black" points="880.5,-325.5 880.5,-355.5 1003.5,-355.5 1003.5,-325.5 880.5,-325.5"/>
<text text-anchor="start" x="888.5" y="-343.5" font-family="Helvetica,sans-Serif" font-size="10.00">Script::CArray::GetArray</text>
<text text-anchor="middle" x="942" y="-332.5" font-family="Helvetica,sans-Serif" font-size="10.00">Pointer</text>
</a>
</g>
</g>
<!-- Node6&#45;&gt;Node11 -->
<g id="edge11" class="edge"><title>Node6&#45;&gt;Node11</title>
<path fill="none" stroke="midnightblue" d="M773.328,-230.251C792.477,-248.832 836.708,-289.754 880,-315.5 883.335,-317.484 886.857,-319.38 890.458,-321.178"/>
<polygon fill="midnightblue" stroke="midnightblue" points="888.97,-324.346 899.508,-325.438 891.951,-318.013 888.97,-324.346"/>
</g>
<!-- Node12 -->
<g id="node12" class="node"><title>Node12</title>
<g id="a_node12"><a xlink:href="../../d0/d0b/class_script_1_1_c_array.html#a71c761bdce14193b10bf3c88372ba5a0" target="_top" xlink:title=" ">
<polygon fill="white" stroke="black" points="882.5,-287 882.5,-306 1001.5,-306 1001.5,-287 882.5,-287"/>
<text text-anchor="middle" x="942" y="-294" font-family="Helvetica,sans-Serif" font-size="10.00">Script::CArray::GetSize</text>
</a>
</g>
</g>
<!-- Node6&#45;&gt;Node12 -->
<g id="edge12" class="edge"><title>Node6&#45;&gt;Node12</title>
<path fill="none" stroke="midnightblue" d="M780.883,-230.051C803.325,-242.135 843.803,-263.106 880,-277.5 885.546,-279.706 891.457,-281.824 897.332,-283.793"/>
<polygon fill="midnightblue" stroke="midnightblue" points="896.526,-287.211 907.118,-286.957 898.68,-280.55 896.526,-287.211"/>
</g>
<!-- Node13 -->
<g id="node13" class="node"><title>Node13</title>
<g id="a_node13"><a xlink:href="../../d0/d0b/class_script_1_1_c_array.html#a68067b67ca9aae7b9214c0add1d8934e" target="_top" xlink:title=" ">
<polygon fill="white" stroke="black" points="881.5,-249 881.5,-268 1002.5,-268 1002.5,-249 881.5,-249"/>
<text text-anchor="middle" x="942" y="-256" font-family="Helvetica,sans-Serif" font-size="10.00">Script::CArray::GetType</text>
</a>
</g>
</g>
<!-- Node6&#45;&gt;Node13 -->
<g id="edge13" class="edge"><title>Node6&#45;&gt;Node13</title>
<path fill="none" stroke="midnightblue" d="M808.291,-230.089C832.03,-235.171 861.384,-241.455 886.444,-246.82"/>
<polygon fill="midnightblue" stroke="midnightblue" points="886.02,-250.309 896.531,-248.98 887.486,-243.464 886.02,-250.309"/>
</g>
<!-- Node7&#45;&gt;Node8 -->
<g id="edge7" class="edge"><title>Node7&#45;&gt;Node8</title>
<path fill="none" stroke="midnightblue" d="M981.104,-172.911C1002.92,-167.42 1030.32,-160.526 1052.66,-154.904"/>
<polygon fill="midnightblue" stroke="midnightblue" points="1053.69,-158.255 1062.53,-152.42 1051.98,-151.466 1053.69,-158.255"/>
</g>
<!-- Node7&#45;&gt;Node9 -->
<g id="edge8" class="edge"><title>Node7&#45;&gt;Node9</title>
<path fill="none" stroke="midnightblue" d="M995.812,-189.145C1006.75,-190.522 1018.39,-191.986 1029.69,-193.408"/>
<polygon fill="midnightblue" stroke="midnightblue" points="1029.58,-196.922 1039.94,-194.698 1030.45,-189.976 1029.58,-196.922"/>
</g>
<!-- Node10&#45;&gt;Node8 -->
<g id="edge10" class="edge"><title>Node10&#45;&gt;Node8</title>
<path fill="none" stroke="midnightblue" d="M992.862,-144.5C1012.2,-144.5 1034.08,-144.5 1052.53,-144.5"/>
<polygon fill="midnightblue" stroke="midnightblue" points="1052.67,-148 1062.67,-144.5 1052.67,-141 1052.67,-148"/>
</g>
<!-- Node15 -->
<g id="node15" class="node"><title>Node15</title>
<g id="a_node15"><a xlink:href="../../d1/d54/namespace_script.html#a5cc52c4ff5ea5bb27681d819212dfdca" target="_top" xlink:title=" ">
<polygon fill="white" stroke="black" points="681,-21 681,-40 844,-40 844,-21 681,-21"/>
<text text-anchor="middle" x="762.5" y="-28" font-family="Helvetica,sans-Serif" font-size="10.00">Script::FindChecksumNameNULL</text>
</a>
</g>
</g>
<!-- Node14&#45;&gt;Node15 -->
<g id="edge18" class="edge"><title>Node14&#45;&gt;Node15</title>
<path fill="none" stroke="midnightblue" d="M623.183,-58.911C648.146,-53.7835 679.064,-47.4328 705.334,-42.0368"/>
<polygon fill="midnightblue" stroke="midnightblue" points="706.061,-45.4606 715.152,-40.0201 704.653,-38.6038 706.061,-45.4606"/>
</g>
<!-- Node17 -->
<g id="node17" class="node"><title>Node17</title>
<g id="a_node17"><a xlink:href="../../da/d37/namespace_dbg.html#ab406a8cc16de5046c7d9fd09c9de5e22" target="_top" xlink:title=" ">
<polygon fill="white" stroke="black" points="729.5,-59 729.5,-78 795.5,-78 795.5,-59 729.5,-59"/>
<text text-anchor="middle" x="762.5" y="-66" font-family="Helvetica,sans-Serif" font-size="10.00">Dbg::sprintf</text>
</a>
</g>
</g>
<!-- Node14&#45;&gt;Node17 -->
<g id="edge20" class="edge"><title>Node14&#45;&gt;Node17</title>
<path fill="none" stroke="midnightblue" d="M645.124,-68.5C669.868,-68.5 697.058,-68.5 718.93,-68.5"/>
<polygon fill="midnightblue" stroke="midnightblue" points="719.206,-72.0001 729.206,-68.5 719.206,-65.0001 719.206,-72.0001"/>
</g>
<!-- Node16 -->
<g id="node16" class="node"><title>Node16</title>
<g id="a_node16"><a xlink:href="../../d0/d31/namespace_config.html#a709cc81780d49900157e3476b63aa25d" target="_top" xlink:title=" ">
<polygon fill="white" stroke="black" points="880,-21 880,-40 1004,-40 1004,-21 880,-21"/>
<text text-anchor="middle" x="942" y="-28" font-family="Helvetica,sans-Serif" font-size="10.00">Config::GotExtraMemory</text>
</a>
</g>
</g>
<!-- Node15&#45;&gt;Node16 -->
<g id="edge19" class="edge"><title>Node15&#45;&gt;Node16</title>
<path fill="none" stroke="midnightblue" d="M844.2,-30.5C852.729,-30.5 861.358,-30.5 869.768,-30.5"/>
<polygon fill="midnightblue" stroke="midnightblue" points="869.898,-34.0001 879.898,-30.5 869.898,-27.0001 869.898,-34.0001"/>
</g>
</g>
</svg>
