<?xml version="1.0" encoding="UTF-8" standalone="no"?>
<!DOCTYPE svg PUBLIC "-//W3C//DTD SVG 1.1//EN"
 "http://www.w3.org/Graphics/SVG/1.1/DTD/svg11.dtd">
<!-- Generated by graphviz version 2.38.0 (20140413.2041)
 -->
<!-- Title: Nx::CScene::ToggleAddScene Pages: 1 -->
<!--zoomable 575 -->
<svg id="main" version="1.1" xmlns="http://www.w3.org/2000/svg" xmlns:xlink="http://www.w3.org/1999/xlink" xml:space="preserve" onload="init(evt)">
<style type="text/css"><![CDATA[
.edge:hover path { stroke: red; }
.edge:hover polygon { stroke: red; fill: red; }
]]></style>
<script type="text/javascript"><![CDATA[
var edges = document.getElementsByTagName('g');
if (edges && edges.length) {
  for (var i=0;i<edges.length;i++) {
    if (edges[i].id.substr(0,4)=='edge') {
      edges[i].setAttribute('class','edge');
    }
  }
}
]]></script>
        <defs>
                <circle id="rim" cx="0" cy="0" r="7"/>
                <circle id="rim2" cx="0" cy="0" r="3.5"/>
                <g id="zoomPlus">
                        <use xlink:href="#rim" fill="#404040">
                                <set attributeName="fill" to="#808080" begin="zoomplus.mouseover" end="zoomplus.mouseout"/>
                        </use>
                        <path d="M-4,0h8M0,-4v8" fill="none" stroke="white" stroke-width="1.5" pointer-events="none"/>
                </g>
                <g id="zoomMin">
                        <use xlink:href="#rim" fill="#404040">
                                <set attributeName="fill" to="#808080" begin="zoomminus.mouseover" end="zoomminus.mouseout"/>
                        </use>
                        <path d="M-4,0h8" fill="none" stroke="white" stroke-width="1.5" pointer-events="none"/>
                </g>
                <g id="dirArrow">
                        <path fill="none" stroke="white" stroke-width="1.5" d="M0,-3.0v7 M-2.5,-0.5L0,-3.0L2.5,-0.5"/>
                </g>
               <g id="resetDef">
                       <use xlink:href="#rim2" fill="#404040">
                               <set attributeName="fill" to="#808080" begin="reset.mouseover" end="reset.mouseout"/>
                       </use>
               </g>
        </defs>

<script type="text/javascript">
var viewWidth = 867;
var viewHeight = 575;
var sectionId = 'dynsection-13';
</script>
<script xlink:href="../../svgpan.js"/>
<svg id="graph" class="graph">
<g id="viewport">
<title>Nx::CScene::ToggleAddScene</title>
<polygon fill="white" stroke="none" points="-4,4 -4,-570.5 863,-570.5 863,4 -4,4"/>
<!-- Node1 -->
<g id="node1" class="node"><title>Node1</title>
<g id="a_node1"><a xlink:title=" ">
<polygon fill="#bfbfbf" stroke="black" points="0,-443 0,-462 149,-462 149,-443 0,-443"/>
<text text-anchor="middle" x="74.5" y="-450" font-family="Helvetica,sans-Serif" font-size="10.00">Nx::CScene::ToggleAddScene</text>
</a>
</g>
</g>
<!-- Node2 -->
<g id="node2" class="node"><title>Node2</title>
<g id="a_node2"><a xlink:href="../../de/d7a/class_nx_1_1_c_scene.html#afe389f00a45051e690f2003e3f7cedff" target="_top" xlink:title=" ">
<polygon fill="white" stroke="black" points="207,-506 207,-525 328,-525 328,-506 207,-506"/>
<text text-anchor="middle" x="267.5" y="-513" font-family="Helvetica,sans-Serif" font-size="10.00">Nx::CScene::AddSector</text>
</a>
</g>
</g>
<!-- Node1&#45;&gt;Node2 -->
<g id="edge1" class="edge"><title>Node1&#45;&gt;Node2</title>
<path fill="none" stroke="midnightblue" d="M104.509,-462.068C137.418,-472.923 191.241,-490.676 227.731,-502.712"/>
<polygon fill="midnightblue" stroke="midnightblue" points="226.939,-506.136 237.532,-505.945 229.131,-499.489 226.939,-506.136"/>
</g>
<!-- Node3 -->
<g id="node3" class="node"><title>Node3</title>
<g id="a_node3"><a xlink:href="../../d3/d55/class_nx_1_1_c_sector.html#aed2289e8b95c608b604531bc4970b36e" target="_top" xlink:title=" ">
<polygon fill="white" stroke="black" points="396,-547 396,-566 534,-566 534,-547 396,-547"/>
<text text-anchor="middle" x="465" y="-554" font-family="Helvetica,sans-Serif" font-size="10.00">Nx::CSector::GetChecksum</text>
</a>
</g>
</g>
<!-- Node1&#45;&gt;Node3 -->
<g id="edge3" class="edge"><title>Node1&#45;&gt;Node3</title>
<path fill="none" stroke="midnightblue" d="M84.3386,-462.015C101.654,-479.93 142.113,-518.321 185,-534.5 249.543,-558.848 328.309,-562.956 385.67,-561.785"/>
<polygon fill="midnightblue" stroke="midnightblue" points="385.858,-565.282 395.763,-561.521 385.674,-558.284 385.858,-565.282"/>
</g>
<!-- Node4 -->
<g id="node4" class="node"><title>Node4</title>
<g id="a_node4"><a xlink:href="../../de/d7a/class_nx_1_1_c_scene.html#a19f0a3a02fef677c342e2221b7ac6159" target="_top" xlink:title=" ">
<polygon fill="white" stroke="black" points="214.5,-371.5 214.5,-401.5 320.5,-401.5 320.5,-371.5 214.5,-371.5"/>
<text text-anchor="start" x="222.5" y="-389.5" font-family="Helvetica,sans-Serif" font-size="10.00">Nx::CScene::remove</text>
<text text-anchor="middle" x="267.5" y="-378.5" font-family="Helvetica,sans-Serif" font-size="10.00">_sector_from_table</text>
</a>
</g>
</g>
<!-- Node1&#45;&gt;Node4 -->
<g id="edge4" class="edge"><title>Node1&#45;&gt;Node4</title>
<path fill="none" stroke="midnightblue" d="M99.703,-442.956C121.791,-434.361 155.405,-421.569 185,-411.5 191.743,-409.206 198.831,-406.891 205.896,-404.644"/>
<polygon fill="midnightblue" stroke="midnightblue" points="206.991,-407.968 215.481,-401.63 204.891,-401.29 206.991,-407.968"/>
</g>
<!-- Node5 -->
<g id="node5" class="node"><title>Node5</title>
<g id="a_node5"><a xlink:href="../../d3/d55/class_nx_1_1_c_sector.html#aa90561ececfa68fe5c4f9e1bfea278e4" target="_top" xlink:title=" ">
<polygon fill="white" stroke="black" points="407.5,-509 407.5,-528 522.5,-528 522.5,-509 407.5,-509"/>
<text text-anchor="middle" x="465" y="-516" font-family="Helvetica,sans-Serif" font-size="10.00">Nx::CSector::set_flags</text>
</a>
</g>
</g>
<!-- Node1&#45;&gt;Node5 -->
<g id="edge5" class="edge"><title>Node1&#45;&gt;Node5</title>
<path fill="none" stroke="midnightblue" d="M138.557,-462.026C194.256,-470.579 277.637,-483.721 350,-496.5 368.338,-499.738 388.286,-503.504 406.295,-506.996"/>
<polygon fill="midnightblue" stroke="midnightblue" points="405.877,-510.48 416.361,-508.957 407.216,-503.609 405.877,-510.48"/>
</g>
<!-- Node6 -->
<g id="node6" class="node"><title>Node6</title>
<g id="a_node6"><a xlink:href="../../d3/d55/class_nx_1_1_c_sector.html#a67c11cd2e04a8e25e864500cff2d0d90" target="_top" xlink:title=" ">
<polygon fill="white" stroke="black" points="209,-116 209,-135 326,-135 326,-116 209,-116"/>
<text text-anchor="middle" x="267.5" y="-123" font-family="Helvetica,sans-Serif" font-size="10.00">Nx::CSector::SetActive</text>
</a>
</g>
</g>
<!-- Node1&#45;&gt;Node6 -->
<g id="edge6" class="edge"><title>Node1&#45;&gt;Node6</title>
<path fill="none" stroke="midnightblue" d="M81.2163,-442.714C107.851,-397.113 219.988,-205.13 255.598,-144.164"/>
<polygon fill="midnightblue" stroke="midnightblue" points="258.785,-145.649 260.806,-135.248 252.74,-142.118 258.785,-145.649"/>
</g>
<!-- Node17 -->
<g id="node17" class="node"><title>Node17</title>
<g id="a_node17"><a xlink:href="../../de/d7a/class_nx_1_1_c_scene.html#aac9fc3daa60c4ef1743df068ad929489" target="_top" xlink:title=" ">
<polygon fill="white" stroke="black" points="185,-421 185,-440 350,-440 350,-421 185,-421"/>
<text text-anchor="middle" x="267.5" y="-428" font-family="Helvetica,sans-Serif" font-size="10.00">Nx::CScene::UpdateSuperSectors</text>
</a>
</g>
</g>
<!-- Node1&#45;&gt;Node17 -->
<g id="edge18" class="edge"><title>Node1&#45;&gt;Node17</title>
<path fill="none" stroke="midnightblue" d="M149.072,-444.026C157.456,-443.06 166.079,-442.067 174.662,-441.078"/>
<polygon fill="midnightblue" stroke="midnightblue" points="175.169,-444.543 184.703,-439.922 174.368,-437.589 175.169,-444.543"/>
</g>
<!-- Node2&#45;&gt;Node3 -->
<g id="edge2" class="edge"><title>Node2&#45;&gt;Node3</title>
<path fill="none" stroke="midnightblue" d="M313.843,-525.009C342.117,-530.939 378.697,-538.61 408.674,-544.897"/>
<polygon fill="midnightblue" stroke="midnightblue" points="408.059,-548.344 418.565,-546.971 409.496,-541.493 408.059,-548.344"/>
</g>
<!-- Node7 -->
<g id="node7" class="node"><title>Node7</title>
<g id="a_node7"><a xlink:href="../../d7/d8e/class_nx_1_1_c_coll_obj.html#aaa7f8a6902cfd84b25efddb0be9ab25f" target="_top" xlink:title=" ">
<polygon fill="white" stroke="black" points="400,-88.5 400,-118.5 530,-118.5 530,-88.5 400,-88.5"/>
<text text-anchor="start" x="408" y="-106.5" font-family="Helvetica,sans-Serif" font-size="10.00">Nx::CCollObj::ClearObject</text>
<text text-anchor="middle" x="465" y="-95.5" font-family="Helvetica,sans-Serif" font-size="10.00">Flags</text>
</a>
</g>
</g>
<!-- Node6&#45;&gt;Node7 -->
<g id="edge7" class="edge"><title>Node6&#45;&gt;Node7</title>
<path fill="none" stroke="midnightblue" d="M326.099,-119.018C346.038,-116.774 368.676,-114.227 389.761,-111.854"/>
<polygon fill="midnightblue" stroke="midnightblue" points="390.423,-115.302 399.969,-110.706 389.64,-108.346 390.423,-115.302"/>
</g>
<!-- Node8 -->
<g id="node8" class="node"><title>Node8</title>
<g id="a_node8"><a xlink:href="../../d8/dd6/class_nx_1_1_c_geom.html#a18298b96937afeeb2df194766535f357" target="_top" xlink:title=" ">
<polygon fill="white" stroke="black" points="411.5,-50 411.5,-69 518.5,-69 518.5,-50 411.5,-50"/>
<text text-anchor="middle" x="465" y="-57" font-family="Helvetica,sans-Serif" font-size="10.00">Nx::CGeom::IsActive</text>
</a>
</g>
</g>
<!-- Node6&#45;&gt;Node8 -->
<g id="edge8" class="edge"><title>Node6&#45;&gt;Node8</title>
<path fill="none" stroke="midnightblue" d="M289.822,-115.908C313.112,-105.682 351.682,-89.4823 386,-78.5 393.739,-76.0235 401.998,-73.6896 410.139,-71.5618"/>
<polygon fill="midnightblue" stroke="midnightblue" points="411.133,-74.9206 419.967,-69.0728 409.414,-68.1348 411.133,-74.9206"/>
</g>
<!-- Node11 -->
<g id="node11" class="node"><title>Node11</title>
<g id="a_node11"><a xlink:href="../../d8/dd6/class_nx_1_1_c_geom.html#aed04f5a37589cb462ff52b35ddc769a7" target="_top" xlink:title=" ">
<polygon fill="white" stroke="black" points="407.5,-138 407.5,-157 522.5,-157 522.5,-138 407.5,-138"/>
<text text-anchor="middle" x="465" y="-145" font-family="Helvetica,sans-Serif" font-size="10.00">Nx::CGeom::SetActive</text>
</a>
</g>
</g>
<!-- Node6&#45;&gt;Node11 -->
<g id="edge11" class="edge"><title>Node6&#45;&gt;Node11</title>
<path fill="none" stroke="midnightblue" d="M326.099,-131.982C348.469,-134.499 374.234,-137.398 397.395,-140.005"/>
<polygon fill="midnightblue" stroke="midnightblue" points="397.157,-143.5 407.486,-141.14 397.94,-136.544 397.157,-143.5"/>
</g>
<!-- Node13 -->
<g id="node13" class="node"><title>Node13</title>
<g id="a_node13"><a xlink:href="../../d7/d8e/class_nx_1_1_c_coll_obj.html#afe156bb2d862491aac142e3676c65a3e" target="_top" xlink:title=" ">
<polygon fill="white" stroke="black" points="392,-176 392,-195 538,-195 538,-176 392,-176"/>
<text text-anchor="middle" x="465" y="-183" font-family="Helvetica,sans-Serif" font-size="10.00">Nx::CCollObj::SetObjectFlags</text>
</a>
</g>
</g>
<!-- Node6&#45;&gt;Node13 -->
<g id="edge14" class="edge"><title>Node6&#45;&gt;Node13</title>
<path fill="none" stroke="midnightblue" d="M293.484,-135.008C317.116,-143.813 353.677,-156.948 386,-166.5 394.352,-168.968 403.273,-171.363 411.989,-173.574"/>
<polygon fill="midnightblue" stroke="midnightblue" points="411.152,-176.972 421.701,-175.986 412.839,-170.179 411.152,-176.972"/>
</g>
<!-- Node14 -->
<g id="node14" class="node"><title>Node14</title>
<g id="a_node14"><a xlink:href="../../d9/d29/namespace_replay.html#ac611f920d680241e92aa4d46f21f7b91" target="_top" xlink:title=" ">
<polygon fill="white" stroke="black" points="399.5,-0.5 399.5,-30.5 530.5,-30.5 530.5,-0.5 399.5,-0.5"/>
<text text-anchor="start" x="407.5" y="-18.5" font-family="Helvetica,sans-Serif" font-size="10.00">Replay::WriteSectorActive</text>
<text text-anchor="middle" x="465" y="-7.5" font-family="Helvetica,sans-Serif" font-size="10.00">Status</text>
</a>
</g>
</g>
<!-- Node6&#45;&gt;Node14 -->
<g id="edge15" class="edge"><title>Node6&#45;&gt;Node14</title>
<path fill="none" stroke="midnightblue" d="M279.391,-115.769C299.265,-98.4532 343.311,-62.0885 386,-40.5 390.485,-38.2318 395.218,-36.1134 400.046,-34.1466"/>
<polygon fill="midnightblue" stroke="midnightblue" points="401.325,-37.4046 409.406,-30.5519 398.816,-30.87 401.325,-37.4046"/>
</g>
<!-- Node9 -->
<g id="node9" class="node"><title>Node9</title>
<g id="a_node9"><a xlink:href="../../d8/dd6/class_nx_1_1_c_geom.html#a40d5ab68bcb70299920f65776c5e8446" target="_top" xlink:title=" ">
<polygon fill="white" stroke="black" points="599.5,-44.5 599.5,-74.5 701.5,-74.5 701.5,-44.5 599.5,-44.5"/>
<text text-anchor="start" x="607.5" y="-62.5" font-family="Helvetica,sans-Serif" font-size="10.00">Nx::CGeom::plat_is</text>
<text text-anchor="middle" x="650.5" y="-51.5" font-family="Helvetica,sans-Serif" font-size="10.00">_active</text>
</a>
</g>
</g>
<!-- Node8&#45;&gt;Node9 -->
<g id="edge9" class="edge"><title>Node8&#45;&gt;Node9</title>
<path fill="none" stroke="midnightblue" d="M518.584,-59.5C540.625,-59.5 566.38,-59.5 589.186,-59.5"/>
<polygon fill="midnightblue" stroke="midnightblue" points="589.434,-63.0001 599.434,-59.5 589.434,-56.0001 589.434,-63.0001"/>
</g>
<!-- Node10 -->
<g id="node10" class="node"><title>Node10</title>
<g id="a_node10"><a xlink:href="../../df/d92/standard_8cpp.html#a5fc8fd1788f18ada61dfda9f171c5a1a" target="_top" xlink:title=" ">
<polygon fill="white" stroke="black" points="789,-74 789,-93 827,-93 827,-74 789,-74"/>
<text text-anchor="middle" x="808" y="-81" font-family="Helvetica,sans-Serif" font-size="10.00">printf</text>
</a>
</g>
</g>
<!-- Node9&#45;&gt;Node10 -->
<g id="edge10" class="edge"><title>Node9&#45;&gt;Node10</title>
<path fill="none" stroke="midnightblue" d="M701.557,-67.2259C727.077,-71.1646 757.176,-75.8101 778.669,-79.1274"/>
<polygon fill="midnightblue" stroke="midnightblue" points="778.345,-82.6188 788.762,-80.6852 779.413,-75.7007 778.345,-82.6188"/>
</g>
<!-- Node12 -->
<g id="node12" class="node"><title>Node12</title>
<g id="a_node12"><a xlink:href="../../d8/dd6/class_nx_1_1_c_geom.html#af39e30fa1f6f6ff5b7d173fc5fd09f37" target="_top" xlink:title=" ">
<polygon fill="white" stroke="black" points="596.5,-93.5 596.5,-123.5 704.5,-123.5 704.5,-93.5 596.5,-93.5"/>
<text text-anchor="start" x="604.5" y="-111.5" font-family="Helvetica,sans-Serif" font-size="10.00">Nx::CGeom::plat_set</text>
<text text-anchor="middle" x="650.5" y="-100.5" font-family="Helvetica,sans-Serif" font-size="10.00">_active</text>
</a>
</g>
</g>
<!-- Node11&#45;&gt;Node12 -->
<g id="edge12" class="edge"><title>Node11&#45;&gt;Node12</title>
<path fill="none" stroke="midnightblue" d="M510.889,-137.96C533.55,-133.143 561.424,-127.219 586.22,-121.949"/>
<polygon fill="midnightblue" stroke="midnightblue" points="587.217,-125.315 596.271,-119.813 585.762,-118.468 587.217,-125.315"/>
</g>
<!-- Node12&#45;&gt;Node10 -->
<g id="edge13" class="edge"><title>Node12&#45;&gt;Node10</title>
<path fill="none" stroke="midnightblue" d="M704.579,-99.9663C729.454,-95.9672 758.086,-91.3639 778.743,-88.043"/>
<polygon fill="midnightblue" stroke="midnightblue" points="779.438,-91.4763 788.755,-86.4333 778.326,-84.565 779.438,-91.4763"/>
</g>
<!-- Node15 -->
<g id="node15" class="node"><title>Node15</title>
<g id="a_node15"><a xlink:href="../../d9/d29/namespace_replay.html#ac96941574d420bacdbf78bb9e89b1d90" target="_top" xlink:title=" ">
<polygon fill="white" stroke="black" points="596,-6 596,-25 705,-25 705,-6 596,-6"/>
<text text-anchor="middle" x="650.5" y="-13" font-family="Helvetica,sans-Serif" font-size="10.00">Replay::sWriteUint32</text>
</a>
</g>
</g>
<!-- Node14&#45;&gt;Node15 -->
<g id="edge16" class="edge"><title>Node14&#45;&gt;Node15</title>
<path fill="none" stroke="midnightblue" d="M530.695,-15.5C548.55,-15.5 567.907,-15.5 585.71,-15.5"/>
<polygon fill="midnightblue" stroke="midnightblue" points="585.99,-19.0001 595.99,-15.5 585.99,-12.0001 585.99,-19.0001"/>
</g>
<!-- Node16 -->
<g id="node16" class="node"><title>Node16</title>
<g id="a_node16"><a xlink:href="../../d1/d54/namespace_script.html#a8f645576233ac57731b814dbe06a7aa8" target="_top" xlink:title=" ">
<polygon fill="white" stroke="black" points="757,-6 757,-25 859,-25 859,-6 757,-6"/>
<text text-anchor="middle" x="808" y="-13" font-family="Helvetica,sans-Serif" font-size="10.00">Script::Write4Bytes</text>
</a>
</g>
</g>
<!-- Node15&#45;&gt;Node16 -->
<g id="edge17" class="edge"><title>Node15&#45;&gt;Node16</title>
<path fill="none" stroke="midnightblue" d="M705.014,-15.5C718.386,-15.5 732.82,-15.5 746.503,-15.5"/>
<polygon fill="midnightblue" stroke="midnightblue" points="746.79,-19.0001 756.79,-15.5 746.79,-12.0001 746.79,-19.0001"/>
</g>
<!-- Node17&#45;&gt;Node3 -->
<g id="edge21" class="edge"><title>Node17&#45;&gt;Node3</title>
<path fill="none" stroke="midnightblue" d="M281.772,-440.146C298.391,-452.467 327.419,-474.802 350,-496.5 367.485,-513.302 365.258,-524.937 386,-537.5 389.621,-539.693 393.481,-541.634 397.472,-543.35"/>
<polygon fill="midnightblue" stroke="midnightblue" points="396.381,-546.68 406.972,-546.963 398.869,-540.137 396.381,-546.68"/>
</g>
<!-- Node17&#45;&gt;Node5 -->
<g id="edge25" class="edge"><title>Node17&#45;&gt;Node5</title>
<path fill="none" stroke="midnightblue" d="M305.556,-440.05C320.147,-444.826 336.586,-451.537 350,-460.5 369.614,-473.605 365.673,-487.531 386,-499.5 389.716,-501.688 393.672,-503.624 397.758,-505.338"/>
<polygon fill="midnightblue" stroke="midnightblue" points="396.878,-508.745 407.47,-508.947 399.316,-502.183 396.878,-508.745"/>
</g>
<!-- Node18 -->
<g id="node18" class="node"><title>Node18</title>
<g id="a_node18"><a xlink:href="../../d3/d55/class_nx_1_1_c_sector.html#a22357fcc9ed667a9079f9d30d1988fae" target="_top" xlink:title=" ">
<polygon fill="white" stroke="black" points="416.5,-459.5 416.5,-489.5 513.5,-489.5 513.5,-459.5 416.5,-459.5"/>
<text text-anchor="start" x="424.5" y="-477.5" font-family="Helvetica,sans-Serif" font-size="10.00">Nx::CSector::clear</text>
<text text-anchor="middle" x="465" y="-466.5" font-family="Helvetica,sans-Serif" font-size="10.00">_flags</text>
</a>
</g>
</g>
<!-- Node17&#45;&gt;Node18 -->
<g id="edge19" class="edge"><title>Node17&#45;&gt;Node18</title>
<path fill="none" stroke="midnightblue" d="M310.921,-440.047C338.768,-446.315 375.548,-454.593 406.076,-461.463"/>
<polygon fill="midnightblue" stroke="midnightblue" points="405.643,-464.953 416.168,-463.735 407.18,-458.124 405.643,-464.953"/>
</g>
<!-- Node19 -->
<g id="node19" class="node"><title>Node19</title>
<g id="a_node19"><a xlink:href="../../d3/d55/class_nx_1_1_c_sector.html#a33503885e3452d10732d494011ecbb2b" target="_top" xlink:title=" ">
<polygon fill="white" stroke="black" points="407.5,-421 407.5,-440 522.5,-440 522.5,-421 407.5,-421"/>
<text text-anchor="middle" x="465" y="-428" font-family="Helvetica,sans-Serif" font-size="10.00">Nx::CSector::get_flags</text>
</a>
</g>
</g>
<!-- Node17&#45;&gt;Node19 -->
<g id="edge20" class="edge"><title>Node17&#45;&gt;Node19</title>
<path fill="none" stroke="midnightblue" d="M350.277,-430.5C365.919,-430.5 382.123,-430.5 397.226,-430.5"/>
<polygon fill="midnightblue" stroke="midnightblue" points="397.486,-434 407.486,-430.5 397.486,-427 397.486,-434"/>
</g>
<!-- Node20 -->
<g id="node20" class="node"><title>Node20</title>
<g id="a_node20"><a xlink:href="../../d3/d55/class_nx_1_1_c_sector.html#a8bbde705ae0e09ff93f63cb737b10fe3" target="_top" xlink:title=" ">
<polygon fill="white" stroke="black" points="396.5,-383 396.5,-402 533.5,-402 533.5,-383 396.5,-383"/>
<text text-anchor="middle" x="465" y="-390" font-family="Helvetica,sans-Serif" font-size="10.00">Nx::CSector::GetCollSector</text>
</a>
</g>
</g>
<!-- Node17&#45;&gt;Node20 -->
<g id="edge22" class="edge"><title>Node17&#45;&gt;Node20</title>
<path fill="none" stroke="midnightblue" d="M317.581,-420.96C344.074,-415.81 376.972,-409.416 404.869,-403.994"/>
<polygon fill="midnightblue" stroke="midnightblue" points="405.751,-407.388 414.899,-402.044 404.415,-400.516 405.751,-407.388"/>
</g>
<!-- Node21 -->
<g id="node21" class="node"><title>Node21</title>
<g id="a_node21"><a xlink:href="../../d2/d0a/class_mem_1_1_manager.html#a7c4cba14870f002aee0243e16114f443" target="_top" xlink:title=" ">
<polygon fill="white" stroke="black" points="395.5,-345 395.5,-364 534.5,-364 534.5,-345 395.5,-345"/>
<text text-anchor="middle" x="465" y="-352" font-family="Helvetica,sans-Serif" font-size="10.00">Mem::Manager::PopContext</text>
</a>
</g>
</g>
<!-- Node17&#45;&gt;Node21 -->
<g id="edge23" class="edge"><title>Node17&#45;&gt;Node21</title>
<path fill="none" stroke="midnightblue" d="M327.939,-420.97C335.634,-418.505 343.194,-415.403 350,-411.5 370.181,-399.926 365.877,-385.174 386,-373.5 389.73,-371.336 393.697,-369.418 397.79,-367.718"/>
<polygon fill="midnightblue" stroke="midnightblue" points="399.345,-370.875 407.517,-364.132 396.923,-364.307 399.345,-370.875"/>
</g>
<!-- Node22 -->
<g id="node22" class="node"><title>Node22</title>
<g id="a_node22"><a xlink:href="../../d2/d0a/class_mem_1_1_manager.html#aaf8e36abc36eecabe46bf2582035192a" target="_top" xlink:title=" ">
<polygon fill="white" stroke="black" points="393,-307 393,-326 537,-326 537,-307 393,-307"/>
<text text-anchor="middle" x="465" y="-314" font-family="Helvetica,sans-Serif" font-size="10.00">Mem::Manager::PushContext</text>
</a>
</g>
</g>
<!-- Node17&#45;&gt;Node22 -->
<g id="edge24" class="edge"><title>Node17&#45;&gt;Node22</title>
<path fill="none" stroke="midnightblue" d="M334.182,-420.897C339.865,-418.416 345.25,-415.331 350,-411.5 379.092,-388.035 357.024,-359.108 386,-335.5 388.08,-333.805 390.288,-332.258 392.594,-330.846"/>
<polygon fill="midnightblue" stroke="midnightblue" points="394.622,-333.737 401.902,-326.04 391.411,-327.517 394.622,-333.737"/>
</g>
<!-- Node23 -->
<g id="node23" class="node"><title>Node23</title>
<g id="a_node23"><a xlink:href="../../d2/d0a/class_mem_1_1_manager.html#a3aefd91781b7f41d35e6df6a32d379d0" target="_top" xlink:title=" ">
<polygon fill="white" stroke="black" points="403.5,-269 403.5,-288 526.5,-288 526.5,-269 403.5,-269"/>
<text text-anchor="middle" x="465" y="-276" font-family="Helvetica,sans-Serif" font-size="10.00">Mem::Manager::sHandle</text>
</a>
</g>
</g>
<!-- Node17&#45;&gt;Node23 -->
<g id="edge26" class="edge"><title>Node17&#45;&gt;Node23</title>
<path fill="none" stroke="midnightblue" d="M335.94,-420.987C341.06,-418.468 345.842,-415.35 350,-411.5 388.986,-375.4 347.193,-333.792 386,-297.5 388.494,-295.168 391.225,-293.108 394.125,-291.289"/>
<polygon fill="midnightblue" stroke="midnightblue" points="396.012,-294.253 403.263,-286.528 392.777,-288.045 396.012,-294.253"/>
</g>
<!-- Node24 -->
<g id="node24" class="node"><title>Node24</title>
<g id="a_node24"><a xlink:href="../../de/d6d/class_s_sec_1_1_manager.html#a167c0df995656afaa3f64b44b32e839b" target="_top" xlink:title=" ">
<polygon fill="white" stroke="black" points="386,-219.5 386,-249.5 544,-249.5 544,-219.5 386,-219.5"/>
<text text-anchor="start" x="394" y="-237.5" font-family="Helvetica,sans-Serif" font-size="10.00">SSec::Manager::UpdateCollision</text>
<text text-anchor="middle" x="465" y="-226.5" font-family="Helvetica,sans-Serif" font-size="10.00">SuperSectors</text>
</a>
</g>
</g>
<!-- Node17&#45;&gt;Node24 -->
<g id="edge27" class="edge"><title>Node17&#45;&gt;Node24</title>
<path fill="none" stroke="midnightblue" d="M337.025,-420.907C341.783,-418.389 346.192,-415.294 350,-411.5 399.177,-362.496 338.851,-310.458 386,-259.5 387.228,-258.172 388.527,-256.915 389.886,-255.724"/>
<polygon fill="midnightblue" stroke="midnightblue" points="392.252,-258.331 398.262,-249.605 388.123,-252.678 392.252,-258.331"/>
</g>
<!-- Node25 -->
<g id="node25" class="node"><title>Node25</title>
<g id="a_node25"><a xlink:href="../../d9/d78/class_nx_1_1_c_coll_obj_tri_data.html#aab7b6e851d35ed7486015c4af2927e9a" target="_top" xlink:title=" ">
<polygon fill="white" stroke="black" points="598.5,-219.5 598.5,-249.5 702.5,-249.5 702.5,-219.5 598.5,-219.5"/>
<text text-anchor="start" x="606.5" y="-237.5" font-family="Helvetica,sans-Serif" font-size="10.00">Nx::CCollObjTriData</text>
<text text-anchor="middle" x="650.5" y="-226.5" font-family="Helvetica,sans-Serif" font-size="10.00">::GetBBox</text>
</a>
</g>
</g>
<!-- Node24&#45;&gt;Node25 -->
<g id="edge28" class="edge"><title>Node24&#45;&gt;Node25</title>
<path fill="none" stroke="midnightblue" d="M544.087,-234.5C558.844,-234.5 574.083,-234.5 588.231,-234.5"/>
<polygon fill="midnightblue" stroke="midnightblue" points="588.318,-238 598.318,-234.5 588.318,-231 588.318,-238"/>
</g>
<!-- Node26 -->
<g id="node26" class="node"><title>Node26</title>
<g id="a_node26"><a xlink:href="../../d7/d8e/class_nx_1_1_c_coll_obj.html#a9ffc5dbbf4a5dc899ea1b06f4cb8716b" target="_top" xlink:title=" ">
<polygon fill="white" stroke="black" points="580,-181 580,-200 721,-200 721,-181 580,-181"/>
<text text-anchor="middle" x="650.5" y="-188" font-family="Helvetica,sans-Serif" font-size="10.00">Nx::CCollObj::GetChecksum</text>
</a>
</g>
</g>
<!-- Node24&#45;&gt;Node26 -->
<g id="edge29" class="edge"><title>Node24&#45;&gt;Node26</title>
<path fill="none" stroke="midnightblue" d="M528.637,-219.481C551.956,-213.889 578.075,-207.626 600.049,-202.357"/>
<polygon fill="midnightblue" stroke="midnightblue" points="600.921,-205.748 609.829,-200.012 599.288,-198.941 600.921,-205.748"/>
</g>
<!-- Node27 -->
<g id="node27" class="node"><title>Node27</title>
<g id="a_node27"><a xlink:href="../../d7/d8e/class_nx_1_1_c_coll_obj.html#af8c8598e4523a4b7835a8905e6236644" target="_top" xlink:title=" ">
<polygon fill="white" stroke="black" points="582,-143 582,-162 719,-162 719,-143 582,-143"/>
<text text-anchor="middle" x="650.5" y="-150" font-family="Helvetica,sans-Serif" font-size="10.00">Nx::CCollObj::GetGeometry</text>
</a>
</g>
</g>
<!-- Node24&#45;&gt;Node27 -->
<g id="edge30" class="edge"><title>Node24&#45;&gt;Node27</title>
<path fill="none" stroke="midnightblue" d="M513.555,-219.474C523.943,-215.309 534.626,-210.306 544,-204.5 562.452,-193.071 560.998,-181.99 580,-171.5 584.161,-169.203 588.619,-167.169 593.192,-165.371"/>
<polygon fill="midnightblue" stroke="midnightblue" points="594.432,-168.645 602.686,-162.002 592.092,-162.048 594.432,-168.645"/>
</g>
<!-- Node28 -->
<g id="node28" class="node"><title>Node28</title>
<g id="a_node28"><a xlink:href="../../dc/d50/class_mth_1_1_c_b_box.html#a8e5c4a5a7592c61383b6c21ca7e02255" target="_top" xlink:title=" ">
<polygon fill="white" stroke="black" points="594,-367 594,-386 707,-386 707,-367 594,-367"/>
<text text-anchor="middle" x="650.5" y="-374" font-family="Helvetica,sans-Serif" font-size="10.00">Mth::CBBox::Intersect</text>
</a>
</g>
</g>
<!-- Node24&#45;&gt;Node28 -->
<g id="edge31" class="edge"><title>Node24&#45;&gt;Node28</title>
<path fill="none" stroke="midnightblue" d="M530.493,-249.662C535.404,-252.412 539.997,-255.661 544,-259.5 577.49,-291.617 545.822,-326.116 580,-357.5 581.722,-359.081 583.563,-360.532 585.496,-361.865"/>
<polygon fill="midnightblue" stroke="midnightblue" points="584.059,-365.074 594.481,-366.976 587.52,-358.99 584.059,-365.074"/>
</g>
<!-- Node29 -->
<g id="node29" class="node"><title>Node29</title>
<g id="a_node29"><a xlink:href="../../dc/dfb/class_s_sec_1_1_sector.html#a265dbab9ab639d1fe3cb7fc322ee530f" target="_top" xlink:title=" ">
<polygon fill="white" stroke="black" points="594.5,-317.5 594.5,-347.5 706.5,-347.5 706.5,-317.5 594.5,-317.5"/>
<text text-anchor="start" x="602.5" y="-335.5" font-family="Helvetica,sans-Serif" font-size="10.00">SSec::Sector::remove</text>
<text text-anchor="middle" x="650.5" y="-324.5" font-family="Helvetica,sans-Serif" font-size="10.00">_collision</text>
</a>
</g>
</g>
<!-- Node24&#45;&gt;Node29 -->
<g id="edge32" class="edge"><title>Node24&#45;&gt;Node29</title>
<path fill="none" stroke="midnightblue" d="M526.631,-249.656C532.77,-252.425 538.69,-255.68 544,-259.5 565.936,-275.282 558.241,-292.474 580,-308.5 581.879,-309.884 583.844,-311.193 585.873,-312.43"/>
<polygon fill="midnightblue" stroke="midnightblue" points="584.65,-315.746 595.114,-317.407 587.969,-309.583 584.65,-315.746"/>
</g>
<!-- Node30 -->
<g id="node30" class="node"><title>Node30</title>
<g id="a_node30"><a xlink:href="../../de/d6d/class_s_sec_1_1_manager.html#a84e374a91f27c8a934f764a584fe03eb" target="_top" xlink:title=" ">
<polygon fill="white" stroke="black" points="590,-268.5 590,-298.5 711,-298.5 711,-268.5 590,-268.5"/>
<text text-anchor="start" x="598" y="-286.5" font-family="Helvetica,sans-Serif" font-size="10.00">SSec::Manager::remove</text>
<text text-anchor="middle" x="650.5" y="-275.5" font-family="Helvetica,sans-Serif" font-size="10.00">_from_super_sector</text>
</a>
</g>
</g>
<!-- Node24&#45;&gt;Node30 -->
<g id="edge33" class="edge"><title>Node24&#45;&gt;Node30</title>
<path fill="none" stroke="midnightblue" d="M522.303,-249.535C541.678,-254.708 563.545,-260.548 583.614,-265.907"/>
<polygon fill="midnightblue" stroke="midnightblue" points="582.739,-269.295 593.303,-268.494 584.545,-262.532 582.739,-269.295"/>
</g>
</g>
</svg>
        <g id="navigator" transform="translate(0 0)" fill="#404254">
                <rect fill="#f2f5e9" fill-opacity="0.5" stroke="#606060" stroke-width=".5" x="0" y="0" width="60" height="60"/>
                <use id="zoomplus" xlink:href="#zoomPlus" x="17" y="9" onmousedown="handleZoom(evt,'in')"/>
                <use id="zoomminus" xlink:href="#zoomMin" x="42" y="9" onmousedown="handleZoom(evt,'out')"/>
                <use id="reset" xlink:href="#resetDef" x="30" y="36" onmousedown="handleReset()"/>
                <g id="arrowUp" xlink:href="#dirArrow" transform="translate(30 24)" onmousedown="handlePan(0,-1)">
                  <use xlink:href="#rim" fill="#404040">
                        <set attributeName="fill" to="#808080" begin="arrowUp.mouseover" end="arrowUp.mouseout"/>
                  </use>
                  <path fill="none" stroke="white" stroke-width="1.5" d="M0,-3.0v7 M-2.5,-0.5L0,-3.0L2.5,-0.5"/>
                </g>
                <g id="arrowRight" xlink:href="#dirArrow" transform="rotate(90) translate(36 -43)" onmousedown="handlePan(1,0)">
                  <use xlink:href="#rim" fill="#404040">
                        <set attributeName="fill" to="#808080" begin="arrowRight.mouseover" end="arrowRight.mouseout"/>
                  </use>
                  <path fill="none" stroke="white" stroke-width="1.5" d="M0,-3.0v7 M-2.5,-0.5L0,-3.0L2.5,-0.5"/>
                </g>
                <g id="arrowDown" xlink:href="#dirArrow" transform="rotate(180) translate(-30 -48)" onmousedown="handlePan(0,1)">
                  <use xlink:href="#rim" fill="#404040">
                        <set attributeName="fill" to="#808080" begin="arrowDown.mouseover" end="arrowDown.mouseout"/>
                  </use>
                  <path fill="none" stroke="white" stroke-width="1.5" d="M0,-3.0v7 M-2.5,-0.5L0,-3.0L2.5,-0.5"/>
                </g>
                <g id="arrowLeft" xlink:href="#dirArrow" transform="rotate(270) translate(-36 17)" onmousedown="handlePan(-1,0)">
                  <use xlink:href="#rim" fill="#404040">
                        <set attributeName="fill" to="#808080" begin="arrowLeft.mouseover" end="arrowLeft.mouseout"/>
                  </use>
                  <path fill="none" stroke="white" stroke-width="1.5" d="M0,-3.0v7 M-2.5,-0.5L0,-3.0L2.5,-0.5"/>
                </g>
        </g>
        <svg viewBox="0 0 15 15" width="100%" height="30px" preserveAspectRatio="xMaxYMin meet">
         <g id="arrow_out" transform="scale(0.3 0.3)">
          <a xlink:href="class_nx_1_1_c_scene_a5fa9e8f6e991649a90d8e43855108b7b_cgraph_org.svg" target="_base">
           <rect id="button" ry="5" rx="5" y="6" x="6" height="38" width="38"
                fill="#f2f5e9" fill-opacity="0.5" stroke="#606060" stroke-width="1.0"/>
           <path id="arrow"
             d="M 11.500037,31.436501 C 11.940474,20.09759 22.043105,11.32322 32.158766,21.979434 L 37.068811,17.246167 C 37.068811,17.246167 37.088388,32 37.088388,32 L 22.160133,31.978069 C 22.160133,31.978069 26.997745,27.140456 26.997745,27.140456 C 18.528582,18.264221 13.291696,25.230495 11.500037,31.436501 z"
             style="fill:#404040;"/>
          </a>
         </g>
        </svg>
</svg>
