<?xml version="1.0" encoding="UTF-8" standalone="no"?>
<!DOCTYPE svg PUBLIC "-//W3C//DTD SVG 1.1//EN"
 "http://www.w3.org/Graphics/SVG/1.1/DTD/svg11.dtd">
<!-- Generated by graphviz version 2.38.0 (20140413.2041)
 -->
<!-- Title: Game::ScriptUnPauseGoal Pages: 1 -->
<svg width="1040pt" height="230pt"
 viewBox="0.00 0.00 1040.00 230.00" xmlns="http://www.w3.org/2000/svg" xmlns:xlink="http://www.w3.org/1999/xlink">
<g id="graph0" class="graph" transform="scale(1 1) rotate(0) translate(4 226)">
<title>Game::ScriptUnPauseGoal</title>
<polygon fill="white" stroke="none" points="-4,4 -4,-226 1036,-226 1036,4 -4,4"/>
<!-- Node1 -->
<g id="node1" class="node"><title>Node1</title>
<g id="a_node1"><a xlink:title=" ">
<polygon fill="#bfbfbf" stroke="black" points="0,-88.5 0,-107.5 134,-107.5 134,-88.5 0,-88.5"/>
<text text-anchor="middle" x="67" y="-95.5" font-family="Helvetica,sans-Serif" font-size="10.00">Game::ScriptUnPauseGoal</text>
</a>
</g>
</g>
<!-- Node2 -->
<g id="node2" class="node"><title>Node2</title>
<g id="a_node2"><a xlink:href="../../d2/df7/class_script_1_1_c_struct.html#aa39e6fe5fdf1d6c48136ae26a7ad511e" target="_top" xlink:title=" ">
<polygon fill="white" stroke="black" points="170,-145.5 170,-164.5 319,-164.5 319,-145.5 170,-145.5"/>
<text text-anchor="middle" x="244.5" y="-152.5" font-family="Helvetica,sans-Serif" font-size="10.00">Script::CStruct::GetChecksum</text>
</a>
</g>
</g>
<!-- Node1&#45;&gt;Node2 -->
<g id="edge1" class="edge"><title>Node1&#45;&gt;Node2</title>
<path fill="none" stroke="midnightblue" d="M97.3748,-107.541C126.734,-117.076 172.049,-131.794 204.428,-142.31"/>
<polygon fill="midnightblue" stroke="midnightblue" points="203.437,-145.668 214.029,-145.428 205.6,-139.01 203.437,-145.668"/>
</g>
<!-- Node10 -->
<g id="node10" class="node"><title>Node10</title>
<g id="a_node10"><a xlink:href="../../d2/d97/namespace_game.html#ae5106e88e5082c716b56a2111a888616" target="_top" xlink:title=" ">
<polygon fill="white" stroke="black" points="183.5,-88.5 183.5,-107.5 305.5,-107.5 305.5,-88.5 183.5,-88.5"/>
<text text-anchor="middle" x="244.5" y="-95.5" font-family="Helvetica,sans-Serif" font-size="10.00">Game::GetGoalManager</text>
</a>
</g>
</g>
<!-- Node1&#45;&gt;Node10 -->
<g id="edge11" class="edge"><title>Node1&#45;&gt;Node10</title>
<path fill="none" stroke="midnightblue" d="M134.349,-98C147.063,-98 160.416,-98 173.248,-98"/>
<polygon fill="midnightblue" stroke="midnightblue" points="173.406,-101.5 183.406,-98 173.406,-94.5001 173.406,-101.5"/>
</g>
<!-- Node12 -->
<g id="node12" class="node"><title>Node12</title>
<g id="a_node12"><a xlink:href="../../d9/dda/class_game_1_1_c_goal_manager.html#a79fcd7406d001aa270651dc453b435f0" target="_top" xlink:title=" ">
<polygon fill="white" stroke="black" points="188,-39 188,-69 301,-69 301,-39 188,-39"/>
<text text-anchor="start" x="196" y="-57" font-family="Helvetica,sans-Serif" font-size="10.00">Game::CGoalManager</text>
<text text-anchor="middle" x="244.5" y="-46" font-family="Helvetica,sans-Serif" font-size="10.00">::UnPauseGoal</text>
</a>
</g>
</g>
<!-- Node1&#45;&gt;Node12 -->
<g id="edge13" class="edge"><title>Node1&#45;&gt;Node12</title>
<path fill="none" stroke="midnightblue" d="M106.081,-88.4527C127.08,-83.1879 153.738,-76.5044 177.975,-70.428"/>
<polygon fill="midnightblue" stroke="midnightblue" points="178.985,-73.7832 187.833,-67.9563 177.282,-66.9933 178.985,-73.7832"/>
</g>
<!-- Node2&#45;&gt;Node2 -->
<g id="edge6" class="edge"><title>Node2&#45;&gt;Node2</title>
<path fill="none" stroke="midnightblue" d="M217.373,-164.757C204.177,-173.565 213.219,-183 244.5,-183 266.006,-183 277,-178.541 277.483,-172.891"/>
<polygon fill="midnightblue" stroke="midnightblue" points="280.31,-170.827 271.627,-164.757 274.629,-174.917 280.31,-170.827"/>
</g>
<!-- Node3 -->
<g id="node3" class="node"><title>Node3</title>
<g id="a_node3"><a xlink:href="../../d1/d54/namespace_script.html#ae80ed69ea4edcbcbbbd4985a6efdcd6e" target="_top" xlink:title=" ">
<polygon fill="white" stroke="black" points="534,-126.5 534,-145.5 673,-145.5 673,-126.5 534,-126.5"/>
<text text-anchor="middle" x="603.5" y="-133.5" font-family="Helvetica,sans-Serif" font-size="10.00">Script::FindChecksumName</text>
</a>
</g>
</g>
<!-- Node2&#45;&gt;Node3 -->
<g id="edge2" class="edge"><title>Node2&#45;&gt;Node3</title>
<path fill="none" stroke="midnightblue" d="M319.038,-151.086C378.66,-147.913 462.514,-143.45 523.545,-140.202"/>
<polygon fill="midnightblue" stroke="midnightblue" points="524.099,-143.678 533.899,-139.651 523.727,-136.688 524.099,-143.678"/>
</g>
<!-- Node7 -->
<g id="node7" class="node"><title>Node7</title>
<g id="a_node7"><a xlink:href="../../d1/d54/namespace_script.html#a0d003ee93577e31adb6597bce0002009" target="_top" xlink:title=" ">
<polygon fill="white" stroke="black" points="373,-164.5 373,-183.5 480,-183.5 480,-164.5 373,-164.5"/>
<text text-anchor="middle" x="426.5" y="-171.5" font-family="Helvetica,sans-Serif" font-size="10.00">Script::PrintContents</text>
</a>
</g>
</g>
<!-- Node2&#45;&gt;Node7 -->
<g id="edge7" class="edge"><title>Node2&#45;&gt;Node7</title>
<path fill="none" stroke="midnightblue" d="M319.232,-162.783C333.686,-164.308 348.718,-165.895 362.771,-167.379"/>
<polygon fill="midnightblue" stroke="midnightblue" points="362.496,-170.869 372.808,-168.438 363.231,-163.908 362.496,-170.869"/>
</g>
<!-- Node8 -->
<g id="node8" class="node"><title>Node8</title>
<g id="a_node8"><a xlink:href="../../d1/d54/namespace_script.html#a43181580ea5d38e4bf1aa19ccd5e9e85" target="_top" xlink:title=" ">
<polygon fill="white" stroke="black" points="385.5,-202.5 385.5,-221.5 467.5,-221.5 467.5,-202.5 385.5,-202.5"/>
<text text-anchor="middle" x="426.5" y="-209.5" font-family="Helvetica,sans-Serif" font-size="10.00">Script::Resolve</text>
</a>
</g>
</g>
<!-- Node2&#45;&gt;Node8 -->
<g id="edge8" class="edge"><title>Node2&#45;&gt;Node8</title>
<path fill="none" stroke="midnightblue" d="M271.436,-164.582C293.516,-172.599 326.152,-184.119 355,-193 362.496,-195.308 370.487,-197.61 378.296,-199.774"/>
<polygon fill="midnightblue" stroke="midnightblue" points="377.47,-203.177 388.039,-202.432 379.313,-196.424 377.47,-203.177"/>
</g>
<!-- Node4 -->
<g id="node4" class="node"><title>Node4</title>
<g id="a_node4"><a xlink:href="../../d1/d54/namespace_script.html#a5cc52c4ff5ea5bb27681d819212dfdca" target="_top" xlink:title=" ">
<polygon fill="white" stroke="black" points="709,-145.5 709,-164.5 872,-164.5 872,-145.5 709,-145.5"/>
<text text-anchor="middle" x="790.5" y="-152.5" font-family="Helvetica,sans-Serif" font-size="10.00">Script::FindChecksumNameNULL</text>
</a>
</g>
</g>
<!-- Node3&#45;&gt;Node4 -->
<g id="edge3" class="edge"><title>Node3&#45;&gt;Node4</title>
<path fill="none" stroke="midnightblue" d="M673.124,-143.048C681.476,-143.906 690.107,-144.792 698.717,-145.676"/>
<polygon fill="midnightblue" stroke="midnightblue" points="698.493,-149.172 708.798,-146.712 699.208,-142.208 698.493,-149.172"/>
</g>
<!-- Node6 -->
<g id="node6" class="node"><title>Node6</title>
<g id="a_node6"><a xlink:href="../../da/d37/namespace_dbg.html#ab406a8cc16de5046c7d9fd09c9de5e22" target="_top" xlink:title=" ">
<polygon fill="white" stroke="black" points="757.5,-107.5 757.5,-126.5 823.5,-126.5 823.5,-107.5 757.5,-107.5"/>
<text text-anchor="middle" x="790.5" y="-114.5" font-family="Helvetica,sans-Serif" font-size="10.00">Dbg::sprintf</text>
</a>
</g>
</g>
<!-- Node3&#45;&gt;Node6 -->
<g id="edge5" class="edge"><title>Node3&#45;&gt;Node6</title>
<path fill="none" stroke="midnightblue" d="M673.124,-128.952C697.98,-126.399 725.305,-123.593 747.228,-121.341"/>
<polygon fill="midnightblue" stroke="midnightblue" points="747.616,-124.82 757.206,-120.317 746.901,-117.857 747.616,-124.82"/>
</g>
<!-- Node5 -->
<g id="node5" class="node"><title>Node5</title>
<g id="a_node5"><a xlink:href="../../d0/d31/namespace_config.html#a709cc81780d49900157e3476b63aa25d" target="_top" xlink:title=" ">
<polygon fill="white" stroke="black" points="908,-145.5 908,-164.5 1032,-164.5 1032,-145.5 908,-145.5"/>
<text text-anchor="middle" x="970" y="-152.5" font-family="Helvetica,sans-Serif" font-size="10.00">Config::GotExtraMemory</text>
</a>
</g>
</g>
<!-- Node4&#45;&gt;Node5 -->
<g id="edge4" class="edge"><title>Node4&#45;&gt;Node5</title>
<path fill="none" stroke="midnightblue" d="M872.2,-155C880.729,-155 889.358,-155 897.768,-155"/>
<polygon fill="midnightblue" stroke="midnightblue" points="897.898,-158.5 907.898,-155 897.898,-151.5 897.898,-158.5"/>
</g>
<!-- Node8&#45;&gt;Node3 -->
<g id="edge9" class="edge"><title>Node8&#45;&gt;Node3</title>
<path fill="none" stroke="midnightblue" d="M467.562,-202.96C477.651,-200.208 488.352,-196.868 498,-193 526.943,-181.396 558.072,-163.669 578.754,-151.068"/>
<polygon fill="midnightblue" stroke="midnightblue" points="580.809,-153.913 587.477,-145.679 577.13,-147.958 580.809,-153.913"/>
</g>
<!-- Node9 -->
<g id="node9" class="node"><title>Node9</title>
<g id="a_node9"><a xlink:href="../../d1/d54/namespace_script.html#af293a36c230b10de7d8151c2990b233b" target="_top" xlink:title=" ">
<polygon fill="white" stroke="black" points="546.5,-202.5 546.5,-221.5 660.5,-221.5 660.5,-202.5 546.5,-202.5"/>
<text text-anchor="middle" x="603.5" y="-209.5" font-family="Helvetica,sans-Serif" font-size="10.00">Script::LookUpSymbol</text>
</a>
</g>
</g>
<!-- Node8&#45;&gt;Node9 -->
<g id="edge10" class="edge"><title>Node8&#45;&gt;Node9</title>
<path fill="none" stroke="midnightblue" d="M467.649,-212C487.954,-212 513.128,-212 536.207,-212"/>
<polygon fill="midnightblue" stroke="midnightblue" points="536.293,-215.5 546.293,-212 536.293,-208.5 536.293,-215.5"/>
</g>
<!-- Node11 -->
<g id="node11" class="node"><title>Node11</title>
<g id="a_node11"><a xlink:href="../../d6/df1/class_mdl_1_1_skate.html#adcda740605d63a59544a0d8e8f9ee78b" target="_top" xlink:title=" ">
<polygon fill="white" stroke="black" points="355,-88.5 355,-107.5 498,-107.5 498,-88.5 355,-88.5"/>
<text text-anchor="middle" x="426.5" y="-95.5" font-family="Helvetica,sans-Serif" font-size="10.00">Mdl::Skate::GetGoalManager</text>
</a>
</g>
</g>
<!-- Node10&#45;&gt;Node11 -->
<g id="edge12" class="edge"><title>Node10&#45;&gt;Node11</title>
<path fill="none" stroke="midnightblue" d="M305.688,-98C318.107,-98 331.38,-98 344.402,-98"/>
<polygon fill="midnightblue" stroke="midnightblue" points="344.77,-101.5 354.77,-98 344.77,-94.5001 344.77,-101.5"/>
</g>
<!-- Node13 -->
<g id="node13" class="node"><title>Node13</title>
<g id="a_node13"><a xlink:href="../../d9/dda/class_game_1_1_c_goal_manager.html#ad38cfcd14218068547a93faa1d2c5d6f" target="_top" xlink:title=" ">
<polygon fill="white" stroke="black" points="370,-39 370,-69 483,-69 483,-39 370,-39"/>
<text text-anchor="start" x="378" y="-57" font-family="Helvetica,sans-Serif" font-size="10.00">Game::CGoalManager</text>
<text text-anchor="middle" x="426.5" y="-46" font-family="Helvetica,sans-Serif" font-size="10.00">::GetGoal</text>
</a>
</g>
</g>
<!-- Node12&#45;&gt;Node13 -->
<g id="edge14" class="edge"><title>Node12&#45;&gt;Node13</title>
<path fill="none" stroke="midnightblue" d="M301.466,-54C319.925,-54 340.623,-54 359.743,-54"/>
<polygon fill="midnightblue" stroke="midnightblue" points="359.878,-57.5001 369.878,-54 359.877,-50.5001 359.878,-57.5001"/>
</g>
<!-- Node14 -->
<g id="node14" class="node"><title>Node14</title>
<g id="a_node14"><a xlink:href="../../d1/d04/class_game_1_1_c_goal.html#a1bb532a83b9a9b0c9b818fe44a6df57b" target="_top" xlink:title=" ">
<polygon fill="white" stroke="black" points="355.5,-0.5 355.5,-19.5 497.5,-19.5 497.5,-0.5 355.5,-0.5"/>
<text text-anchor="middle" x="426.5" y="-7.5" font-family="Helvetica,sans-Serif" font-size="10.00">Game::CGoal::UnPauseGoal</text>
</a>
</g>
</g>
<!-- Node12&#45;&gt;Node14 -->
<g id="edge16" class="edge"><title>Node12&#45;&gt;Node14</title>
<path fill="none" stroke="midnightblue" d="M301.466,-40.3193C325.469,-34.4519 353.26,-27.6587 376.444,-21.9915"/>
<polygon fill="midnightblue" stroke="midnightblue" points="377.523,-25.3307 386.406,-19.5562 375.861,-18.5309 377.523,-25.3307"/>
</g>
<!-- Node13&#45;&gt;Node3 -->
<g id="edge15" class="edge"><title>Node13&#45;&gt;Node3</title>
<path fill="none" stroke="midnightblue" d="M473.426,-69.0955C481.698,-72.1498 490.174,-75.5046 498,-79 526.145,-91.5706 556.967,-108.843 577.793,-121.07"/>
<polygon fill="midnightblue" stroke="midnightblue" points="576.226,-124.21 586.613,-126.299 579.796,-118.189 576.226,-124.21"/>
</g>
</g>
</svg>
