<?xml version="1.0" encoding="UTF-8" standalone="no"?>
<!DOCTYPE svg PUBLIC "-//W3C//DTD SVG 1.1//EN"
 "http://www.w3.org/Graphics/SVG/1.1/DTD/svg11.dtd">
<!-- Generated by graphviz version 2.38.0 (20140413.2041)
 -->
<!-- Title: Game::ScriptInitTrickObjects Pages: 1 -->
<!--zoomable 286 -->
<svg id="main" version="1.1" xmlns="http://www.w3.org/2000/svg" xmlns:xlink="http://www.w3.org/1999/xlink" xml:space="preserve" onload="init(evt)">
<style type="text/css"><![CDATA[
.edge:hover path { stroke: red; }
.edge:hover polygon { stroke: red; fill: red; }
]]></style>
<script type="text/javascript"><![CDATA[
var edges = document.getElementsByTagName('g');
if (edges && edges.length) {
  for (var i=0;i<edges.length;i++) {
    if (edges[i].id.substr(0,4)=='edge') {
      edges[i].setAttribute('class','edge');
    }
  }
}
]]></script>
        <defs>
                <circle id="rim" cx="0" cy="0" r="7"/>
                <circle id="rim2" cx="0" cy="0" r="3.5"/>
                <g id="zoomPlus">
                        <use xlink:href="#rim" fill="#404040">
                                <set attributeName="fill" to="#808080" begin="zoomplus.mouseover" end="zoomplus.mouseout"/>
                        </use>
                        <path d="M-4,0h8M0,-4v8" fill="none" stroke="white" stroke-width="1.5" pointer-events="none"/>
                </g>
                <g id="zoomMin">
                        <use xlink:href="#rim" fill="#404040">
                                <set attributeName="fill" to="#808080" begin="zoomminus.mouseover" end="zoomminus.mouseout"/>
                        </use>
                        <path d="M-4,0h8" fill="none" stroke="white" stroke-width="1.5" pointer-events="none"/>
                </g>
                <g id="dirArrow">
                        <path fill="none" stroke="white" stroke-width="1.5" d="M0,-3.0v7 M-2.5,-0.5L0,-3.0L2.5,-0.5"/>
                </g>
               <g id="resetDef">
                       <use xlink:href="#rim2" fill="#404040">
                               <set attributeName="fill" to="#808080" begin="reset.mouseover" end="reset.mouseout"/>
                       </use>
               </g>
        </defs>

<script type="text/javascript">
var viewWidth = 1537;
var viewHeight = 286;
var sectionId = 'dynsection-65';
</script>
<script xlink:href="../../svgpan.js"/>
<svg id="graph" class="graph">
<g id="viewport">
<title>Game::ScriptInitTrickObjects</title>
<polygon fill="white" stroke="none" points="-4,4 -4,-281.5 1533,-281.5 1533,4 -4,4"/>
<!-- Node1 -->
<g id="node1" class="node"><title>Node1</title>
<g id="a_node1"><a xlink:title=" ">
<polygon fill="#bfbfbf" stroke="black" points="0,-44.5 0,-63.5 142,-63.5 142,-44.5 0,-44.5"/>
<text text-anchor="middle" x="71" y="-51.5" font-family="Helvetica,sans-Serif" font-size="10.00">Game::ScriptInitTrickObjects</text>
</a>
</g>
</g>
<!-- Node2 -->
<g id="node2" class="node"><title>Node2</title>
<g id="a_node2"><a xlink:href="../../d2/df7/class_script_1_1_c_struct.html#aa39e6fe5fdf1d6c48136ae26a7ad511e" target="_top" xlink:title=" ">
<polygon fill="white" stroke="black" points="521,-0.5 521,-19.5 670,-19.5 670,-0.5 521,-0.5"/>
<text text-anchor="middle" x="595.5" y="-7.5" font-family="Helvetica,sans-Serif" font-size="10.00">Script::CStruct::GetChecksum</text>
</a>
</g>
</g>
<!-- Node1&#45;&gt;Node2 -->
<g id="edge1" class="edge"><title>Node1&#45;&gt;Node2</title>
<path fill="none" stroke="midnightblue" d="M142.13,-54.5716C224.572,-54.3676 365.337,-51.2799 485,-35 506.554,-32.0676 530.116,-26.9437 549.843,-22.095"/>
<polygon fill="midnightblue" stroke="midnightblue" points="550.933,-25.4299 559.778,-19.5976 549.227,-18.6411 550.933,-25.4299"/>
</g>
<!-- Node10 -->
<g id="node10" class="node"><title>Node10</title>
<g id="a_node10"><a xlink:href="../../d2/d97/namespace_game.html#ae5106e88e5082c716b56a2111a888616" target="_top" xlink:title=" ">
<polygon fill="white" stroke="black" points="178,-6.5 178,-25.5 300,-25.5 300,-6.5 178,-6.5"/>
<text text-anchor="middle" x="239" y="-13.5" font-family="Helvetica,sans-Serif" font-size="10.00">Game::GetGoalManager</text>
</a>
</g>
</g>
<!-- Node1&#45;&gt;Node10 -->
<g id="edge11" class="edge"><title>Node1&#45;&gt;Node10</title>
<path fill="none" stroke="midnightblue" d="M113.889,-44.411C135.893,-39.3739 163.055,-33.1562 186.352,-27.8229"/>
<polygon fill="midnightblue" stroke="midnightblue" points="187.446,-31.1633 196.412,-25.5201 185.884,-24.3398 187.446,-31.1633"/>
</g>
<!-- Node12 -->
<g id="node12" class="node"><title>Node12</title>
<g id="a_node12"><a xlink:href="../../d9/dda/class_game_1_1_c_goal_manager.html#a0f59c2d0bbd70eb2d99232719a4c6b47" target="_top" xlink:title=" ">
<polygon fill="white" stroke="black" points="182.5,-128 182.5,-158 295.5,-158 295.5,-128 182.5,-128"/>
<text text-anchor="start" x="190.5" y="-146" font-family="Helvetica,sans-Serif" font-size="10.00">Game::CGoalManager</text>
<text text-anchor="middle" x="239" y="-135" font-family="Helvetica,sans-Serif" font-size="10.00">::InitTrickObjects</text>
</a>
</g>
</g>
<!-- Node1&#45;&gt;Node12 -->
<g id="edge13" class="edge"><title>Node1&#45;&gt;Node12</title>
<path fill="none" stroke="midnightblue" d="M89.7649,-63.5246C116.177,-77.6851 166.397,-104.61 201.01,-123.168"/>
<polygon fill="midnightblue" stroke="midnightblue" points="199.42,-126.287 209.887,-127.928 202.728,-120.118 199.42,-126.287"/>
</g>
<!-- Node2&#45;&gt;Node2 -->
<g id="edge6" class="edge"><title>Node2&#45;&gt;Node2</title>
<path fill="none" stroke="midnightblue" d="M567.757,-19.7571C554.26,-28.5653 563.508,-38 595.5,-38 617.495,-38 628.739,-33.5406 629.233,-27.8913"/>
<polygon fill="midnightblue" stroke="midnightblue" points="631.991,-25.7341 623.243,-19.7571 626.354,-29.8848 631.991,-25.7341"/>
</g>
<!-- Node3 -->
<g id="node3" class="node"><title>Node3</title>
<g id="a_node3"><a xlink:href="../../d1/d54/namespace_script.html#ae80ed69ea4edcbcbbbd4985a6efdcd6e" target="_top" xlink:title=" ">
<polygon fill="white" stroke="black" points="1031,-116.5 1031,-135.5 1170,-135.5 1170,-116.5 1031,-116.5"/>
<text text-anchor="middle" x="1100.5" y="-123.5" font-family="Helvetica,sans-Serif" font-size="10.00">Script::FindChecksumName</text>
</a>
</g>
</g>
<!-- Node2&#45;&gt;Node3 -->
<g id="edge2" class="edge"><title>Node2&#45;&gt;Node3</title>
<path fill="none" stroke="midnightblue" d="M670.164,-5.12124C754.431,-2.942 893.802,-9.99006 995,-69 1015.1,-80.719 1011.06,-95.0091 1031,-107 1034.63,-109.183 1038.52,-111.121 1042.53,-112.843"/>
<polygon fill="midnightblue" stroke="midnightblue" points="1041.45,-116.18 1052.04,-116.476 1043.95,-109.64 1041.45,-116.18"/>
</g>
<!-- Node7 -->
<g id="node7" class="node"><title>Node7</title>
<g id="a_node7"><a xlink:href="../../d1/d54/namespace_script.html#a0d003ee93577e31adb6597bce0002009" target="_top" xlink:title=" ">
<polygon fill="white" stroke="black" points="722.5,-94.5 722.5,-113.5 829.5,-113.5 829.5,-94.5 722.5,-94.5"/>
<text text-anchor="middle" x="776" y="-101.5" font-family="Helvetica,sans-Serif" font-size="10.00">Script::PrintContents</text>
</a>
</g>
</g>
<!-- Node2&#45;&gt;Node7 -->
<g id="edge7" class="edge"><title>Node2&#45;&gt;Node7</title>
<path fill="none" stroke="midnightblue" d="M617.948,-19.5648C632.904,-26.5283 653.122,-36.5373 670,-47 686.999,-57.5377 688.712,-63.9444 706,-74 716.567,-80.1463 728.629,-85.8081 739.682,-90.5181"/>
<polygon fill="midnightblue" stroke="midnightblue" points="738.492,-93.8138 749.071,-94.4005 741.167,-87.345 738.492,-93.8138"/>
</g>
<!-- Node8 -->
<g id="node8" class="node"><title>Node8</title>
<g id="a_node8"><a xlink:href="../../d1/d54/namespace_script.html#a43181580ea5d38e4bf1aa19ccd5e9e85" target="_top" xlink:title=" ">
<polygon fill="white" stroke="black" points="897.5,-78.5 897.5,-97.5 979.5,-97.5 979.5,-78.5 897.5,-78.5"/>
<text text-anchor="middle" x="938.5" y="-85.5" font-family="Helvetica,sans-Serif" font-size="10.00">Script::Resolve</text>
</a>
</g>
</g>
<!-- Node2&#45;&gt;Node8 -->
<g id="edge8" class="edge"><title>Node2&#45;&gt;Node8</title>
<path fill="none" stroke="midnightblue" d="M638.313,-19.5643C701.241,-33.9584 820.083,-61.1423 887.502,-76.5636"/>
<polygon fill="midnightblue" stroke="midnightblue" points="886.935,-80.0242 897.464,-78.8422 888.496,-73.2005 886.935,-80.0242"/>
</g>
<!-- Node4 -->
<g id="node4" class="node"><title>Node4</title>
<g id="a_node4"><a xlink:href="../../d1/d54/namespace_script.html#a5cc52c4ff5ea5bb27681d819212dfdca" target="_top" xlink:title=" ">
<polygon fill="white" stroke="black" points="1206,-135.5 1206,-154.5 1369,-154.5 1369,-135.5 1206,-135.5"/>
<text text-anchor="middle" x="1287.5" y="-142.5" font-family="Helvetica,sans-Serif" font-size="10.00">Script::FindChecksumNameNULL</text>
</a>
</g>
</g>
<!-- Node3&#45;&gt;Node4 -->
<g id="edge3" class="edge"><title>Node3&#45;&gt;Node4</title>
<path fill="none" stroke="midnightblue" d="M1170.12,-133.048C1178.48,-133.906 1187.11,-134.792 1195.72,-135.676"/>
<polygon fill="midnightblue" stroke="midnightblue" points="1195.49,-139.172 1205.8,-136.712 1196.21,-132.208 1195.49,-139.172"/>
</g>
<!-- Node6 -->
<g id="node6" class="node"><title>Node6</title>
<g id="a_node6"><a xlink:href="../../da/d37/namespace_dbg.html#ab406a8cc16de5046c7d9fd09c9de5e22" target="_top" xlink:title=" ">
<polygon fill="white" stroke="black" points="1254.5,-97.5 1254.5,-116.5 1320.5,-116.5 1320.5,-97.5 1254.5,-97.5"/>
<text text-anchor="middle" x="1287.5" y="-104.5" font-family="Helvetica,sans-Serif" font-size="10.00">Dbg::sprintf</text>
</a>
</g>
</g>
<!-- Node3&#45;&gt;Node6 -->
<g id="edge5" class="edge"><title>Node3&#45;&gt;Node6</title>
<path fill="none" stroke="midnightblue" d="M1170.12,-118.952C1194.98,-116.399 1222.31,-113.593 1244.23,-111.341"/>
<polygon fill="midnightblue" stroke="midnightblue" points="1244.62,-114.82 1254.21,-110.317 1243.9,-107.857 1244.62,-114.82"/>
</g>
<!-- Node5 -->
<g id="node5" class="node"><title>Node5</title>
<g id="a_node5"><a xlink:href="../../d0/d31/namespace_config.html#a709cc81780d49900157e3476b63aa25d" target="_top" xlink:title=" ">
<polygon fill="white" stroke="black" points="1405,-135.5 1405,-154.5 1529,-154.5 1529,-135.5 1405,-135.5"/>
<text text-anchor="middle" x="1467" y="-142.5" font-family="Helvetica,sans-Serif" font-size="10.00">Config::GotExtraMemory</text>
</a>
</g>
</g>
<!-- Node4&#45;&gt;Node5 -->
<g id="edge4" class="edge"><title>Node4&#45;&gt;Node5</title>
<path fill="none" stroke="midnightblue" d="M1369.2,-145C1377.73,-145 1386.36,-145 1394.77,-145"/>
<polygon fill="midnightblue" stroke="midnightblue" points="1394.9,-148.5 1404.9,-145 1394.9,-141.5 1394.9,-148.5"/>
</g>
<!-- Node8&#45;&gt;Node3 -->
<g id="edge9" class="edge"><title>Node8&#45;&gt;Node3</title>
<path fill="none" stroke="midnightblue" d="M979.875,-97.589C1000.99,-102.604 1027.03,-108.788 1049.42,-114.105"/>
<polygon fill="midnightblue" stroke="midnightblue" points="1048.88,-117.574 1059.42,-116.48 1050.49,-110.764 1048.88,-117.574"/>
</g>
<!-- Node9 -->
<g id="node9" class="node"><title>Node9</title>
<g id="a_node9"><a xlink:href="../../d1/d54/namespace_script.html#af293a36c230b10de7d8151c2990b233b" target="_top" xlink:title=" ">
<polygon fill="white" stroke="black" points="1043.5,-78.5 1043.5,-97.5 1157.5,-97.5 1157.5,-78.5 1043.5,-78.5"/>
<text text-anchor="middle" x="1100.5" y="-85.5" font-family="Helvetica,sans-Serif" font-size="10.00">Script::LookUpSymbol</text>
</a>
</g>
</g>
<!-- Node8&#45;&gt;Node9 -->
<g id="edge10" class="edge"><title>Node8&#45;&gt;Node9</title>
<path fill="none" stroke="midnightblue" d="M979.875,-88C996.047,-88 1015.11,-88 1033.21,-88"/>
<polygon fill="midnightblue" stroke="midnightblue" points="1033.43,-91.5001 1043.43,-88 1033.43,-84.5001 1033.43,-91.5001"/>
</g>
<!-- Node11 -->
<g id="node11" class="node"><title>Node11</title>
<g id="a_node11"><a xlink:href="../../d6/df1/class_mdl_1_1_skate.html#adcda740605d63a59544a0d8e8f9ee78b" target="_top" xlink:title=" ">
<polygon fill="white" stroke="black" points="339,-6.5 339,-25.5 482,-25.5 482,-6.5 339,-6.5"/>
<text text-anchor="middle" x="410.5" y="-13.5" font-family="Helvetica,sans-Serif" font-size="10.00">Mdl::Skate::GetGoalManager</text>
</a>
</g>
</g>
<!-- Node10&#45;&gt;Node11 -->
<g id="edge12" class="edge"><title>Node10&#45;&gt;Node11</title>
<path fill="none" stroke="midnightblue" d="M300.237,-16C309.391,-16 318.962,-16 328.472,-16"/>
<polygon fill="midnightblue" stroke="midnightblue" points="328.743,-19.5001 338.743,-16 328.743,-12.5001 328.743,-19.5001"/>
</g>
<!-- Node13 -->
<g id="node13" class="node"><title>Node13</title>
<g id="a_node13"><a xlink:href="../../d9/dda/class_game_1_1_c_goal_manager.html#ad38cfcd14218068547a93faa1d2c5d6f" target="_top" xlink:title=" ">
<polygon fill="white" stroke="black" points="882,-247 882,-277 995,-277 995,-247 882,-247"/>
<text text-anchor="start" x="890" y="-265" font-family="Helvetica,sans-Serif" font-size="10.00">Game::CGoalManager</text>
<text text-anchor="middle" x="938.5" y="-254" font-family="Helvetica,sans-Serif" font-size="10.00">::GetGoal</text>
</a>
</g>
</g>
<!-- Node12&#45;&gt;Node13 -->
<g id="edge14" class="edge"><title>Node12&#45;&gt;Node13</title>
<path fill="none" stroke="midnightblue" d="M271.115,-158.089C321.998,-181.963 426.794,-227.804 521,-248 601.564,-265.272 623.66,-256.976 706,-260 761.825,-262.05 825.271,-262.464 871.607,-262.413"/>
<polygon fill="midnightblue" stroke="midnightblue" points="871.823,-265.913 881.816,-262.394 871.81,-258.913 871.823,-265.913"/>
</g>
<!-- Node14 -->
<g id="node14" class="node"><title>Node14</title>
<g id="a_node14"><a xlink:href="../../d1/d04/class_game_1_1_c_goal.html#a41b59f5ee9d079ba92201f15df80b399" target="_top" xlink:title=" ">
<polygon fill="white" stroke="black" points="336,-133.5 336,-152.5 485,-152.5 485,-133.5 336,-133.5"/>
<text text-anchor="middle" x="410.5" y="-140.5" font-family="Helvetica,sans-Serif" font-size="10.00">Game::CGoal::InitTrickObjects</text>
</a>
</g>
</g>
<!-- Node12&#45;&gt;Node14 -->
<g id="edge16" class="edge"><title>Node12&#45;&gt;Node14</title>
<path fill="none" stroke="midnightblue" d="M295.501,-143C305.204,-143 315.49,-143 325.757,-143"/>
<polygon fill="midnightblue" stroke="midnightblue" points="325.994,-146.5 335.994,-143 325.994,-139.5 325.994,-146.5"/>
</g>
<!-- Node13&#45;&gt;Node3 -->
<g id="edge15" class="edge"><title>Node13&#45;&gt;Node3</title>
<path fill="none" stroke="midnightblue" d="M957.82,-246.962C968.672,-238.018 982.668,-226.419 995,-216 1025.22,-190.467 1059.96,-160.4 1080.8,-142.289"/>
<polygon fill="midnightblue" stroke="midnightblue" points="1083.33,-144.731 1088.58,-135.528 1078.73,-139.45 1083.33,-144.731"/>
</g>
<!-- Node14&#45;&gt;Node2 -->
<g id="edge25" class="edge"><title>Node14&#45;&gt;Node2</title>
<path fill="none" stroke="midnightblue" d="M420.779,-133.375C438.849,-114.987 480.539,-74.2719 521,-47 533.964,-38.2617 549.276,-30.2328 562.56,-23.9037"/>
<polygon fill="midnightblue" stroke="midnightblue" points="564.214,-26.9946 571.811,-19.6097 561.267,-20.6452 564.214,-26.9946"/>
</g>
<!-- Node15 -->
<g id="node15" class="node"><title>Node15</title>
<g id="a_node15"><a xlink:href="../../d2/df7/class_script_1_1_c_struct.html#af0638a7b3a0ea5a15b3f4ee0536869c9" target="_top" xlink:title=" ">
<polygon fill="white" stroke="black" points="532.5,-155.5 532.5,-174.5 658.5,-174.5 658.5,-155.5 532.5,-155.5"/>
<text text-anchor="middle" x="595.5" y="-162.5" font-family="Helvetica,sans-Serif" font-size="10.00">Script::CStruct::GetArray</text>
</a>
</g>
</g>
<!-- Node14&#45;&gt;Node15 -->
<g id="edge17" class="edge"><title>Node14&#45;&gt;Node15</title>
<path fill="none" stroke="midnightblue" d="M485.142,-151.853C497.402,-153.327 510.106,-154.854 522.329,-156.324"/>
<polygon fill="midnightblue" stroke="midnightblue" points="522.115,-159.823 532.462,-157.542 522.951,-152.873 522.115,-159.823"/>
</g>
<!-- Node18 -->
<g id="node18" class="node"><title>Node18</title>
<g id="a_node18"><a xlink:href="../../d0/d0b/class_script_1_1_c_array.html#a71c761bdce14193b10bf3c88372ba5a0" target="_top" xlink:title=" ">
<polygon fill="white" stroke="black" points="536,-193.5 536,-212.5 655,-212.5 655,-193.5 536,-193.5"/>
<text text-anchor="middle" x="595.5" y="-200.5" font-family="Helvetica,sans-Serif" font-size="10.00">Script::CArray::GetSize</text>
</a>
</g>
</g>
<!-- Node14&#45;&gt;Node18 -->
<g id="edge26" class="edge"><title>Node14&#45;&gt;Node18</title>
<path fill="none" stroke="midnightblue" d="M434.747,-152.519C456.745,-161.331 490.8,-174.472 521,-184 528.512,-186.37 536.523,-188.669 544.389,-190.801"/>
<polygon fill="midnightblue" stroke="midnightblue" points="543.666,-194.23 554.229,-193.405 545.457,-187.463 543.666,-194.23"/>
</g>
<!-- Node19 -->
<g id="node19" class="node"><title>Node19</title>
<g id="a_node19"><a xlink:href="../../d0/d0b/class_script_1_1_c_array.html#af335b83cb06ac2934f891089c295bdf9" target="_top" xlink:title=" ">
<polygon fill="white" stroke="black" points="706,-231.5 706,-250.5 846,-250.5 846,-231.5 706,-231.5"/>
<text text-anchor="middle" x="776" y="-238.5" font-family="Helvetica,sans-Serif" font-size="10.00">Script::CArray::GetStructure</text>
</a>
</g>
</g>
<!-- Node14&#45;&gt;Node19 -->
<g id="edge27" class="edge"><title>Node14&#45;&gt;Node19</title>
<path fill="none" stroke="midnightblue" d="M420.958,-152.725C438.687,-170.232 478.938,-206.655 521,-222 576.984,-242.425 644.416,-246.611 695.727,-245.995"/>
<polygon fill="midnightblue" stroke="midnightblue" points="695.832,-249.493 705.766,-245.811 695.703,-242.494 695.832,-249.493"/>
</g>
<!-- Node20 -->
<g id="node20" class="node"><title>Node20</title>
<g id="a_node20"><a xlink:href="../../d6/df1/class_mdl_1_1_skate.html#af46933aea92a4cf25c4e6b0450930853" target="_top" xlink:title=" ">
<polygon fill="white" stroke="black" points="528,-106 528,-136 663,-136 663,-106 528,-106"/>
<text text-anchor="start" x="536" y="-124" font-family="Helvetica,sans-Serif" font-size="10.00">Mdl::Skate::GetTrickObject</text>
<text text-anchor="middle" x="595.5" y="-113" font-family="Helvetica,sans-Serif" font-size="10.00">Manager</text>
</a>
</g>
</g>
<!-- Node14&#45;&gt;Node20 -->
<g id="edge29" class="edge"><title>Node14&#45;&gt;Node20</title>
<path fill="none" stroke="midnightblue" d="M485.142,-134.147C495.83,-132.862 506.855,-131.537 517.605,-130.244"/>
<polygon fill="midnightblue" stroke="midnightblue" points="518.296,-133.686 527.807,-129.018 517.461,-126.736 518.296,-133.686"/>
</g>
<!-- Node21 -->
<g id="node21" class="node"><title>Node21</title>
<g id="a_node21"><a xlink:href="../../d4/d3e/class_obj_1_1_c_trick_object_manager.html#a7f4eddb8685286e5eb8512fe1c3d33bf" target="_top" xlink:title=" ">
<polygon fill="white" stroke="black" points="528.5,-57 528.5,-87 662.5,-87 662.5,-57 528.5,-57"/>
<text text-anchor="start" x="536.5" y="-75" font-family="Helvetica,sans-Serif" font-size="10.00">Obj::CTrickObjectManager</text>
<text text-anchor="middle" x="595.5" y="-64" font-family="Helvetica,sans-Serif" font-size="10.00">::ModulateTrickObjectColor</text>
</a>
</g>
</g>
<!-- Node14&#45;&gt;Node21 -->
<g id="edge30" class="edge"><title>Node14&#45;&gt;Node21</title>
<path fill="none" stroke="midnightblue" d="M432.264,-133.425C454.121,-123.504 489.641,-107.823 521,-96 526.103,-94.0762 531.437,-92.1587 536.8,-90.2938"/>
<polygon fill="midnightblue" stroke="midnightblue" points="538.109,-93.5455 546.443,-87.0038 535.849,-86.9204 538.109,-93.5455"/>
</g>
<!-- Node15&#45;&gt;Node3 -->
<g id="edge18" class="edge"><title>Node15&#45;&gt;Node3</title>
<path fill="none" stroke="midnightblue" d="M637.168,-174.516C710.16,-189.917 867.664,-215.47 995,-183 1026.26,-175.029 1058.25,-155.587 1078.46,-141.626"/>
<polygon fill="midnightblue" stroke="midnightblue" points="1080.74,-144.299 1086.87,-135.658 1076.69,-138.59 1080.74,-144.299"/>
</g>
<!-- Node15&#45;&gt;Node7 -->
<g id="edge19" class="edge"><title>Node15&#45;&gt;Node7</title>
<path fill="none" stroke="midnightblue" d="M637.842,-155.461C648.473,-152.545 659.789,-149.027 670,-145 686.83,-138.363 689.316,-132.997 706,-126 714,-122.644 722.701,-119.5 731.142,-116.695"/>
<polygon fill="midnightblue" stroke="midnightblue" points="732.426,-119.959 740.876,-113.568 730.285,-113.295 732.426,-119.959"/>
</g>
<!-- Node16 -->
<g id="node16" class="node"><title>Node16</title>
<g id="a_node16"><a xlink:href="../../d2/df7/class_script_1_1_c_struct.html#a1e05f0a66cff4a700fb67fdc117d2d7f" target="_top" xlink:title=" ">
<polygon fill="white" stroke="black" points="710,-135.5 710,-154.5 842,-154.5 842,-135.5 710,-135.5"/>
<text text-anchor="middle" x="776" y="-142.5" font-family="Helvetica,sans-Serif" font-size="10.00">Script::CStruct::search_for</text>
</a>
</g>
</g>
<!-- Node15&#45;&gt;Node16 -->
<g id="edge20" class="edge"><title>Node15&#45;&gt;Node16</title>
<path fill="none" stroke="midnightblue" d="M658.68,-158.033C671.829,-156.56 685.844,-154.989 699.426,-153.468"/>
<polygon fill="midnightblue" stroke="midnightblue" points="700.159,-156.908 709.707,-152.316 699.379,-149.951 700.159,-156.908"/>
</g>
<!-- Node16&#45;&gt;Node3 -->
<g id="edge21" class="edge"><title>Node16&#45;&gt;Node3</title>
<path fill="none" stroke="midnightblue" d="M842.263,-141.155C893.897,-138.113 966.177,-133.855 1020.98,-130.626"/>
<polygon fill="midnightblue" stroke="midnightblue" points="1021.22,-134.118 1031,-130.036 1020.81,-127.13 1021.22,-134.118"/>
</g>
<!-- Node16&#45;&gt;Node8 -->
<g id="edge23" class="edge"><title>Node16&#45;&gt;Node8</title>
<path fill="none" stroke="midnightblue" d="M808.382,-135.407C820.221,-131.68 833.778,-127.282 846,-123 865.322,-116.23 886.704,-108.089 903.936,-101.362"/>
<polygon fill="midnightblue" stroke="midnightblue" points="905.526,-104.498 913.556,-97.5857 902.968,-97.9817 905.526,-104.498"/>
</g>
<!-- Node16&#45;&gt;Node16 -->
<g id="edge24" class="edge"><title>Node16&#45;&gt;Node16</title>
<path fill="none" stroke="midnightblue" d="M751.031,-154.757C738.884,-163.565 747.207,-173 776,-173 795.345,-173 805.45,-168.741 806.314,-163.275"/>
<polygon fill="midnightblue" stroke="midnightblue" points="809.249,-161.367 800.969,-154.757 803.32,-165.088 809.249,-161.367"/>
</g>
<!-- Node17 -->
<g id="node17" class="node"><title>Node17</title>
<g id="a_node17"><a xlink:href="../../d1/d54/namespace_script.html#af32f99ba26ca0f255240413a4e23a754" target="_top" xlink:title=" ">
<polygon fill="white" stroke="black" points="883.5,-154.5 883.5,-173.5 993.5,-173.5 993.5,-154.5 883.5,-154.5"/>
<text text-anchor="middle" x="938.5" y="-161.5" font-family="Helvetica,sans-Serif" font-size="10.00">Script::GetTypeName</text>
</a>
</g>
</g>
<!-- Node16&#45;&gt;Node17 -->
<g id="edge22" class="edge"><title>Node16&#45;&gt;Node17</title>
<path fill="none" stroke="midnightblue" d="M842.281,-152.728C852.501,-153.938 863.056,-155.187 873.252,-156.394"/>
<polygon fill="midnightblue" stroke="midnightblue" points="872.96,-159.884 883.302,-157.584 873.783,-152.933 872.96,-159.884"/>
</g>
<!-- Node19&#45;&gt;Node17 -->
<g id="edge28" class="edge"><title>Node19&#45;&gt;Node17</title>
<path fill="none" stroke="midnightblue" d="M797.003,-231.404C824.952,-217.995 875.876,-193.564 908.133,-178.089"/>
<polygon fill="midnightblue" stroke="midnightblue" points="909.996,-181.077 917.498,-173.596 906.968,-174.766 909.996,-181.077"/>
</g>
</g>
</svg>
        <g id="navigator" transform="translate(0 0)" fill="#404254">
                <rect fill="#f2f5e9" fill-opacity="0.5" stroke="#606060" stroke-width=".5" x="0" y="0" width="60" height="60"/>
                <use id="zoomplus" xlink:href="#zoomPlus" x="17" y="9" onmousedown="handleZoom(evt,'in')"/>
                <use id="zoomminus" xlink:href="#zoomMin" x="42" y="9" onmousedown="handleZoom(evt,'out')"/>
                <use id="reset" xlink:href="#resetDef" x="30" y="36" onmousedown="handleReset()"/>
                <g id="arrowUp" xlink:href="#dirArrow" transform="translate(30 24)" onmousedown="handlePan(0,-1)">
                  <use xlink:href="#rim" fill="#404040">
                        <set attributeName="fill" to="#808080" begin="arrowUp.mouseover" end="arrowUp.mouseout"/>
                  </use>
                  <path fill="none" stroke="white" stroke-width="1.5" d="M0,-3.0v7 M-2.5,-0.5L0,-3.0L2.5,-0.5"/>
                </g>
                <g id="arrowRight" xlink:href="#dirArrow" transform="rotate(90) translate(36 -43)" onmousedown="handlePan(1,0)">
                  <use xlink:href="#rim" fill="#404040">
                        <set attributeName="fill" to="#808080" begin="arrowRight.mouseover" end="arrowRight.mouseout"/>
                  </use>
                  <path fill="none" stroke="white" stroke-width="1.5" d="M0,-3.0v7 M-2.5,-0.5L0,-3.0L2.5,-0.5"/>
                </g>
                <g id="arrowDown" xlink:href="#dirArrow" transform="rotate(180) translate(-30 -48)" onmousedown="handlePan(0,1)">
                  <use xlink:href="#rim" fill="#404040">
                        <set attributeName="fill" to="#808080" begin="arrowDown.mouseover" end="arrowDown.mouseout"/>
                  </use>
                  <path fill="none" stroke="white" stroke-width="1.5" d="M0,-3.0v7 M-2.5,-0.5L0,-3.0L2.5,-0.5"/>
                </g>
                <g id="arrowLeft" xlink:href="#dirArrow" transform="rotate(270) translate(-36 17)" onmousedown="handlePan(-1,0)">
                  <use xlink:href="#rim" fill="#404040">
                        <set attributeName="fill" to="#808080" begin="arrowLeft.mouseover" end="arrowLeft.mouseout"/>
                  </use>
                  <path fill="none" stroke="white" stroke-width="1.5" d="M0,-3.0v7 M-2.5,-0.5L0,-3.0L2.5,-0.5"/>
                </g>
        </g>
        <svg viewBox="0 0 15 15" width="100%" height="30px" preserveAspectRatio="xMaxYMin meet">
         <g id="arrow_out" transform="scale(0.3 0.3)">
          <a xlink:href="namespace_game_ac63bd477175e3176cbbaa019067bed46_cgraph_org.svg" target="_base">
           <rect id="button" ry="5" rx="5" y="6" x="6" height="38" width="38"
                fill="#f2f5e9" fill-opacity="0.5" stroke="#606060" stroke-width="1.0"/>
           <path id="arrow"
             d="M 11.500037,31.436501 C 11.940474,20.09759 22.043105,11.32322 32.158766,21.979434 L 37.068811,17.246167 C 37.068811,17.246167 37.088388,32 37.088388,32 L 22.160133,31.978069 C 22.160133,31.978069 26.997745,27.140456 26.997745,27.140456 C 18.528582,18.264221 13.291696,25.230495 11.500037,31.436501 z"
             style="fill:#404040;"/>
          </a>
         </g>
        </svg>
</svg>
