<?xml version="1.0" encoding="UTF-8" standalone="no"?>
<!DOCTYPE svg PUBLIC "-//W3C//DTD SVG 1.1//EN"
 "http://www.w3.org/Graphics/SVG/1.1/DTD/svg11.dtd">
<!-- Generated by graphviz version 2.38.0 (20140413.2041)
 -->
<!-- Title: Game::ScriptAddTime Pages: 1 -->
<!--zoomable 312 -->
<svg id="main" version="1.1" xmlns="http://www.w3.org/2000/svg" xmlns:xlink="http://www.w3.org/1999/xlink" xml:space="preserve" onload="init(evt)">
<style type="text/css"><![CDATA[
.edge:hover path { stroke: red; }
.edge:hover polygon { stroke: red; fill: red; }
]]></style>
<script type="text/javascript"><![CDATA[
var edges = document.getElementsByTagName('g');
if (edges && edges.length) {
  for (var i=0;i<edges.length;i++) {
    if (edges[i].id.substr(0,4)=='edge') {
      edges[i].setAttribute('class','edge');
    }
  }
}
]]></script>
        <defs>
                <circle id="rim" cx="0" cy="0" r="7"/>
                <circle id="rim2" cx="0" cy="0" r="3.5"/>
                <g id="zoomPlus">
                        <use xlink:href="#rim" fill="#404040">
                                <set attributeName="fill" to="#808080" begin="zoomplus.mouseover" end="zoomplus.mouseout"/>
                        </use>
                        <path d="M-4,0h8M0,-4v8" fill="none" stroke="white" stroke-width="1.5" pointer-events="none"/>
                </g>
                <g id="zoomMin">
                        <use xlink:href="#rim" fill="#404040">
                                <set attributeName="fill" to="#808080" begin="zoomminus.mouseover" end="zoomminus.mouseout"/>
                        </use>
                        <path d="M-4,0h8" fill="none" stroke="white" stroke-width="1.5" pointer-events="none"/>
                </g>
                <g id="dirArrow">
                        <path fill="none" stroke="white" stroke-width="1.5" d="M0,-3.0v7 M-2.5,-0.5L0,-3.0L2.5,-0.5"/>
                </g>
               <g id="resetDef">
                       <use xlink:href="#rim2" fill="#404040">
                               <set attributeName="fill" to="#808080" begin="reset.mouseover" end="reset.mouseout"/>
                       </use>
               </g>
        </defs>

<script type="text/javascript">
var viewWidth = 1168;
var viewHeight = 312;
var sectionId = 'dynsection-133';
</script>
<script xlink:href="../../svgpan.js"/>
<svg id="graph" class="graph">
<g id="viewport">
<title>Game::ScriptAddTime</title>
<polygon fill="white" stroke="none" points="-4,4 -4,-308 1164,-308 1164,4 -4,4"/>
<!-- Node1 -->
<g id="node1" class="node"><title>Node1</title>
<g id="a_node1"><a xlink:title=" ">
<polygon fill="#bfbfbf" stroke="black" points="0,-152.5 0,-171.5 113,-171.5 113,-152.5 0,-152.5"/>
<text text-anchor="middle" x="56.5" y="-159.5" font-family="Helvetica,sans-Serif" font-size="10.00">Game::ScriptAddTime</text>
</a>
</g>
</g>
<!-- Node2 -->
<g id="node2" class="node"><title>Node2</title>
<g id="a_node2"><a xlink:href="../../d1/d04/class_game_1_1_c_goal.html#a15a02745dbaca1013ef7a3799c8c7c0c" target="_top" xlink:title=" ">
<polygon fill="white" stroke="black" points="163.5,-284.5 163.5,-303.5 283.5,-303.5 283.5,-284.5 163.5,-284.5"/>
<text text-anchor="middle" x="223.5" y="-291.5" font-family="Helvetica,sans-Serif" font-size="10.00">Game::CGoal::AddTime</text>
</a>
</g>
</g>
<!-- Node1&#45;&gt;Node2 -->
<g id="edge1" class="edge"><title>Node1&#45;&gt;Node2</title>
<path fill="none" stroke="midnightblue" d="M63.052,-171.621C75.6357,-192.592 108.412,-242.72 149,-270 155.502,-274.37 162.859,-277.995 170.343,-280.987"/>
<polygon fill="midnightblue" stroke="midnightblue" points="169.243,-284.311 179.837,-284.447 171.64,-277.734 169.243,-284.311"/>
</g>
<!-- Node3 -->
<g id="node3" class="node"><title>Node3</title>
<g id="a_node3"><a xlink:href="../../d2/df7/class_script_1_1_c_struct.html#aa39e6fe5fdf1d6c48136ae26a7ad511e" target="_top" xlink:title=" ">
<polygon fill="white" stroke="black" points="149,-86.5 149,-105.5 298,-105.5 298,-86.5 149,-86.5"/>
<text text-anchor="middle" x="223.5" y="-93.5" font-family="Helvetica,sans-Serif" font-size="10.00">Script::CStruct::GetChecksum</text>
</a>
</g>
</g>
<!-- Node1&#45;&gt;Node3 -->
<g id="edge2" class="edge"><title>Node1&#45;&gt;Node3</title>
<path fill="none" stroke="midnightblue" d="M81.4924,-152.403C109.924,-141.031 157.454,-122.018 189.378,-109.249"/>
<polygon fill="midnightblue" stroke="midnightblue" points="190.761,-112.465 198.746,-105.501 188.162,-105.966 190.761,-112.465"/>
</g>
<!-- Node11 -->
<g id="node11" class="node"><title>Node11</title>
<g id="a_node11"><a xlink:href="../../d9/dda/class_game_1_1_c_goal_manager.html#ad38cfcd14218068547a93faa1d2c5d6f" target="_top" xlink:title=" ">
<polygon fill="white" stroke="black" points="513,-247 513,-277 626,-277 626,-247 513,-247"/>
<text text-anchor="start" x="521" y="-265" font-family="Helvetica,sans-Serif" font-size="10.00">Game::CGoalManager</text>
<text text-anchor="middle" x="569.5" y="-254" font-family="Helvetica,sans-Serif" font-size="10.00">::GetGoal</text>
</a>
</g>
</g>
<!-- Node1&#45;&gt;Node11 -->
<g id="edge12" class="edge"><title>Node1&#45;&gt;Node11</title>
<path fill="none" stroke="midnightblue" d="M98.6053,-171.522C152.509,-183.87 250.089,-205.748 334,-222 390.851,-233.011 455.772,-243.96 502.869,-251.611"/>
<polygon fill="midnightblue" stroke="midnightblue" points="502.507,-255.098 512.938,-253.241 503.626,-248.188 502.507,-255.098"/>
</g>
<!-- Node12 -->
<g id="node12" class="node"><title>Node12</title>
<g id="a_node12"><a xlink:href="../../d2/d97/namespace_game.html#ae5106e88e5082c716b56a2111a888616" target="_top" xlink:title=" ">
<polygon fill="white" stroke="black" points="162.5,-19.5 162.5,-38.5 284.5,-38.5 284.5,-19.5 162.5,-19.5"/>
<text text-anchor="middle" x="223.5" y="-26.5" font-family="Helvetica,sans-Serif" font-size="10.00">Game::GetGoalManager</text>
</a>
</g>
</g>
<!-- Node1&#45;&gt;Node12 -->
<g id="edge14" class="edge"><title>Node1&#45;&gt;Node12</title>
<path fill="none" stroke="midnightblue" d="M66.8969,-152.246C82.9582,-135.817 117.058,-101.973 149,-77 164.365,-64.9876 182.734,-52.9906 197.266,-43.9951"/>
<polygon fill="midnightblue" stroke="midnightblue" points="199.478,-46.745 206.19,-38.5473 195.831,-40.7702 199.478,-46.745"/>
</g>
<!-- Node14 -->
<g id="node14" class="node"><title>Node14</title>
<g id="a_node14"><a xlink:href="../../d2/df7/class_script_1_1_c_struct.html#a1e85eee5e600de8358db26f6c777e42d" target="_top" xlink:title=" ">
<polygon fill="white" stroke="black" points="157.5,-152.5 157.5,-171.5 289.5,-171.5 289.5,-152.5 157.5,-152.5"/>
<text text-anchor="middle" x="223.5" y="-159.5" font-family="Helvetica,sans-Serif" font-size="10.00">Script::CStruct::GetInteger</text>
</a>
</g>
</g>
<!-- Node1&#45;&gt;Node14 -->
<g id="edge16" class="edge"><title>Node1&#45;&gt;Node14</title>
<path fill="none" stroke="midnightblue" d="M113.361,-162C124.17,-162 135.662,-162 146.977,-162"/>
<polygon fill="midnightblue" stroke="midnightblue" points="147.295,-165.5 157.295,-162 147.295,-158.5 147.295,-165.5"/>
</g>
<!-- Node3&#45;&gt;Node3 -->
<g id="edge7" class="edge"><title>Node3&#45;&gt;Node3</title>
<path fill="none" stroke="midnightblue" d="M197.915,-105.757C185.468,-114.565 193.996,-124 223.5,-124 243.323,-124 253.677,-119.741 254.563,-114.275"/>
<polygon fill="midnightblue" stroke="midnightblue" points="257.438,-112.275 249.085,-105.757 251.551,-116.061 257.438,-112.275"/>
</g>
<!-- Node4 -->
<g id="node4" class="node"><title>Node4</title>
<g id="a_node4"><a xlink:href="../../d1/d54/namespace_script.html#ae80ed69ea4edcbcbbbd4985a6efdcd6e" target="_top" xlink:title=" ">
<polygon fill="white" stroke="black" points="662,-123.5 662,-142.5 801,-142.5 801,-123.5 662,-123.5"/>
<text text-anchor="middle" x="731.5" y="-130.5" font-family="Helvetica,sans-Serif" font-size="10.00">Script::FindChecksumName</text>
</a>
</g>
</g>
<!-- Node3&#45;&gt;Node4 -->
<g id="edge3" class="edge"><title>Node3&#45;&gt;Node4</title>
<path fill="none" stroke="midnightblue" d="M298.053,-97.1793C348.468,-98.3412 416.846,-100.612 477,-105 535.666,-109.28 601.711,-116.658 651.677,-122.766"/>
<polygon fill="midnightblue" stroke="midnightblue" points="651.415,-126.26 661.768,-124.009 652.271,-119.313 651.415,-126.26"/>
</g>
<!-- Node8 -->
<g id="node8" class="node"><title>Node8</title>
<g id="a_node8"><a xlink:href="../../d1/d54/namespace_script.html#a0d003ee93577e31adb6597bce0002009" target="_top" xlink:title=" ">
<polygon fill="white" stroke="black" points="352,-114.5 352,-133.5 459,-133.5 459,-114.5 352,-114.5"/>
<text text-anchor="middle" x="405.5" y="-121.5" font-family="Helvetica,sans-Serif" font-size="10.00">Script::PrintContents</text>
</a>
</g>
</g>
<!-- Node3&#45;&gt;Node8 -->
<g id="edge8" class="edge"><title>Node3&#45;&gt;Node8</title>
<path fill="none" stroke="midnightblue" d="M285.691,-105.519C303.836,-108.341 323.727,-111.435 341.956,-114.271"/>
<polygon fill="midnightblue" stroke="midnightblue" points="341.472,-117.738 351.891,-115.816 342.548,-110.821 341.472,-117.738"/>
</g>
<!-- Node9 -->
<g id="node9" class="node"><title>Node9</title>
<g id="a_node9"><a xlink:href="../../d1/d54/namespace_script.html#a43181580ea5d38e4bf1aa19ccd5e9e85" target="_top" xlink:title=" ">
<polygon fill="white" stroke="black" points="528.5,-38.5 528.5,-57.5 610.5,-57.5 610.5,-38.5 528.5,-38.5"/>
<text text-anchor="middle" x="569.5" y="-45.5" font-family="Helvetica,sans-Serif" font-size="10.00">Script::Resolve</text>
</a>
</g>
</g>
<!-- Node3&#45;&gt;Node9 -->
<g id="edge9" class="edge"><title>Node3&#45;&gt;Node9</title>
<path fill="none" stroke="midnightblue" d="M262.81,-86.483C283.736,-81.5682 310.171,-75.818 334,-72 397.246,-61.8661 470.812,-55.1526 518.437,-51.4651"/>
<polygon fill="midnightblue" stroke="midnightblue" points="518.781,-54.9492 528.487,-50.7021 518.251,-47.9693 518.781,-54.9492"/>
</g>
<!-- Node5 -->
<g id="node5" class="node"><title>Node5</title>
<g id="a_node5"><a xlink:href="../../d1/d54/namespace_script.html#a5cc52c4ff5ea5bb27681d819212dfdca" target="_top" xlink:title=" ">
<polygon fill="white" stroke="black" points="837,-142.5 837,-161.5 1000,-161.5 1000,-142.5 837,-142.5"/>
<text text-anchor="middle" x="918.5" y="-149.5" font-family="Helvetica,sans-Serif" font-size="10.00">Script::FindChecksumNameNULL</text>
</a>
</g>
</g>
<!-- Node4&#45;&gt;Node5 -->
<g id="edge4" class="edge"><title>Node4&#45;&gt;Node5</title>
<path fill="none" stroke="midnightblue" d="M801.124,-140.048C809.476,-140.906 818.107,-141.792 826.717,-142.676"/>
<polygon fill="midnightblue" stroke="midnightblue" points="826.493,-146.172 836.798,-143.712 827.208,-139.208 826.493,-146.172"/>
</g>
<!-- Node7 -->
<g id="node7" class="node"><title>Node7</title>
<g id="a_node7"><a xlink:href="../../da/d37/namespace_dbg.html#ab406a8cc16de5046c7d9fd09c9de5e22" target="_top" xlink:title=" ">
<polygon fill="white" stroke="black" points="885.5,-104.5 885.5,-123.5 951.5,-123.5 951.5,-104.5 885.5,-104.5"/>
<text text-anchor="middle" x="918.5" y="-111.5" font-family="Helvetica,sans-Serif" font-size="10.00">Dbg::sprintf</text>
</a>
</g>
</g>
<!-- Node4&#45;&gt;Node7 -->
<g id="edge6" class="edge"><title>Node4&#45;&gt;Node7</title>
<path fill="none" stroke="midnightblue" d="M801.124,-125.952C825.98,-123.399 853.305,-120.593 875.228,-118.341"/>
<polygon fill="midnightblue" stroke="midnightblue" points="875.616,-121.82 885.206,-117.317 874.901,-114.857 875.616,-121.82"/>
</g>
<!-- Node6 -->
<g id="node6" class="node"><title>Node6</title>
<g id="a_node6"><a xlink:href="../../d0/d31/namespace_config.html#a709cc81780d49900157e3476b63aa25d" target="_top" xlink:title=" ">
<polygon fill="white" stroke="black" points="1036,-142.5 1036,-161.5 1160,-161.5 1160,-142.5 1036,-142.5"/>
<text text-anchor="middle" x="1098" y="-149.5" font-family="Helvetica,sans-Serif" font-size="10.00">Config::GotExtraMemory</text>
</a>
</g>
</g>
<!-- Node5&#45;&gt;Node6 -->
<g id="edge5" class="edge"><title>Node5&#45;&gt;Node6</title>
<path fill="none" stroke="midnightblue" d="M1000.2,-152C1008.73,-152 1017.36,-152 1025.77,-152"/>
<polygon fill="midnightblue" stroke="midnightblue" points="1025.9,-155.5 1035.9,-152 1025.9,-148.5 1025.9,-155.5"/>
</g>
<!-- Node9&#45;&gt;Node4 -->
<g id="edge10" class="edge"><title>Node9&#45;&gt;Node4</title>
<path fill="none" stroke="midnightblue" d="M594.283,-57.5437C604.212,-61.718 615.789,-66.8356 626,-72 654.413,-86.3708 685.813,-105.108 706.703,-118.003"/>
<polygon fill="midnightblue" stroke="midnightblue" points="704.902,-121.005 715.243,-123.311 708.598,-115.06 704.902,-121.005"/>
</g>
<!-- Node10 -->
<g id="node10" class="node"><title>Node10</title>
<g id="a_node10"><a xlink:href="../../d1/d54/namespace_script.html#af293a36c230b10de7d8151c2990b233b" target="_top" xlink:title=" ">
<polygon fill="white" stroke="black" points="674.5,-38.5 674.5,-57.5 788.5,-57.5 788.5,-38.5 674.5,-38.5"/>
<text text-anchor="middle" x="731.5" y="-45.5" font-family="Helvetica,sans-Serif" font-size="10.00">Script::LookUpSymbol</text>
</a>
</g>
</g>
<!-- Node9&#45;&gt;Node10 -->
<g id="edge11" class="edge"><title>Node9&#45;&gt;Node10</title>
<path fill="none" stroke="midnightblue" d="M610.875,-48C627.047,-48 646.109,-48 664.206,-48"/>
<polygon fill="midnightblue" stroke="midnightblue" points="664.427,-51.5001 674.427,-48 664.427,-44.5001 664.427,-51.5001"/>
</g>
<!-- Node11&#45;&gt;Node4 -->
<g id="edge13" class="edge"><title>Node11&#45;&gt;Node4</title>
<path fill="none" stroke="midnightblue" d="M601.905,-246.88C610.013,-242.483 618.549,-237.398 626,-232 660.661,-206.889 695.716,-171.067 715.125,-150.105"/>
<polygon fill="midnightblue" stroke="midnightblue" points="717.821,-152.343 721.989,-142.603 712.657,-147.618 717.821,-152.343"/>
</g>
<!-- Node13 -->
<g id="node13" class="node"><title>Node13</title>
<g id="a_node13"><a xlink:href="../../d6/df1/class_mdl_1_1_skate.html#adcda740605d63a59544a0d8e8f9ee78b" target="_top" xlink:title=" ">
<polygon fill="white" stroke="black" points="334,-0.5 334,-19.5 477,-19.5 477,-0.5 334,-0.5"/>
<text text-anchor="middle" x="405.5" y="-7.5" font-family="Helvetica,sans-Serif" font-size="10.00">Mdl::Skate::GetGoalManager</text>
</a>
</g>
</g>
<!-- Node12&#45;&gt;Node13 -->
<g id="edge15" class="edge"><title>Node12&#45;&gt;Node13</title>
<path fill="none" stroke="midnightblue" d="M284.688,-22.6469C297.23,-21.323 310.643,-19.9072 323.788,-18.5196"/>
<polygon fill="midnightblue" stroke="midnightblue" points="324.193,-21.9964 333.77,-17.4659 323.458,-15.0351 324.193,-21.9964"/>
</g>
<!-- Node14&#45;&gt;Node4 -->
<g id="edge17" class="edge"><title>Node14&#45;&gt;Node4</title>
<path fill="none" stroke="midnightblue" d="M245.781,-171.51C267.466,-180.641 302.319,-193.792 334,-199 462.12,-220.061 501.211,-225.862 626,-190 656.831,-181.14 688.694,-162.068 709.002,-148.425"/>
<polygon fill="midnightblue" stroke="midnightblue" points="711.22,-151.147 717.474,-142.595 707.252,-145.381 711.22,-151.147"/>
</g>
<!-- Node14&#45;&gt;Node8 -->
<g id="edge18" class="edge"><title>Node14&#45;&gt;Node8</title>
<path fill="none" stroke="midnightblue" d="M269.922,-152.411C294.103,-147.306 324.027,-140.989 349.514,-135.608"/>
<polygon fill="midnightblue" stroke="midnightblue" points="350.344,-139.01 359.405,-133.52 348.898,-132.161 350.344,-139.01"/>
</g>
<!-- Node15 -->
<g id="node15" class="node"><title>Node15</title>
<g id="a_node15"><a xlink:href="../../d2/df7/class_script_1_1_c_struct.html#a1e05f0a66cff4a700fb67fdc117d2d7f" target="_top" xlink:title=" ">
<polygon fill="white" stroke="black" points="339.5,-152.5 339.5,-171.5 471.5,-171.5 471.5,-152.5 339.5,-152.5"/>
<text text-anchor="middle" x="405.5" y="-159.5" font-family="Helvetica,sans-Serif" font-size="10.00">Script::CStruct::search_for</text>
</a>
</g>
</g>
<!-- Node14&#45;&gt;Node15 -->
<g id="edge19" class="edge"><title>Node14&#45;&gt;Node15</title>
<path fill="none" stroke="midnightblue" d="M289.739,-162C302.52,-162 316.024,-162 329.105,-162"/>
<polygon fill="midnightblue" stroke="midnightblue" points="329.484,-165.5 339.484,-162 329.484,-158.5 329.484,-165.5"/>
</g>
<!-- Node15&#45;&gt;Node4 -->
<g id="edge20" class="edge"><title>Node15&#45;&gt;Node4</title>
<path fill="none" stroke="midnightblue" d="M471.544,-155.825C485.235,-154.544 499.591,-153.215 513,-152 559.034,-147.828 610.564,-143.32 651.908,-139.742"/>
<polygon fill="midnightblue" stroke="midnightblue" points="652.257,-143.225 661.919,-138.876 651.654,-136.251 652.257,-143.225"/>
</g>
<!-- Node15&#45;&gt;Node9 -->
<g id="edge22" class="edge"><title>Node15&#45;&gt;Node9</title>
<path fill="none" stroke="midnightblue" d="M455.682,-152.446C463.101,-149.969 470.452,-146.869 477,-143 510.638,-123.123 540.083,-87.5407 555.981,-66.0182"/>
<polygon fill="midnightblue" stroke="midnightblue" points="558.937,-67.9027 561.938,-57.7418 553.256,-63.8135 558.937,-67.9027"/>
</g>
<!-- Node15&#45;&gt;Node15 -->
<g id="edge23" class="edge"><title>Node15&#45;&gt;Node15</title>
<path fill="none" stroke="midnightblue" d="M380.223,-171.757C367.926,-180.565 376.352,-190 405.5,-190 425.084,-190 435.314,-185.741 436.189,-180.275"/>
<polygon fill="midnightblue" stroke="midnightblue" points="439.094,-178.321 430.777,-171.757 433.186,-182.075 439.094,-178.321"/>
</g>
<!-- Node16 -->
<g id="node16" class="node"><title>Node16</title>
<g id="a_node16"><a xlink:href="../../d1/d54/namespace_script.html#af32f99ba26ca0f255240413a4e23a754" target="_top" xlink:title=" ">
<polygon fill="white" stroke="black" points="514.5,-161.5 514.5,-180.5 624.5,-180.5 624.5,-161.5 514.5,-161.5"/>
<text text-anchor="middle" x="569.5" y="-168.5" font-family="Helvetica,sans-Serif" font-size="10.00">Script::GetTypeName</text>
</a>
</g>
</g>
<!-- Node15&#45;&gt;Node16 -->
<g id="edge21" class="edge"><title>Node15&#45;&gt;Node16</title>
<path fill="none" stroke="midnightblue" d="M471.925,-165.635C482.572,-166.226 493.593,-166.838 504.213,-167.428"/>
<polygon fill="midnightblue" stroke="midnightblue" points="504.068,-170.926 514.247,-167.986 504.456,-163.937 504.068,-170.926"/>
</g>
</g>
</svg>
        <g id="navigator" transform="translate(0 0)" fill="#404254">
                <rect fill="#f2f5e9" fill-opacity="0.5" stroke="#606060" stroke-width=".5" x="0" y="0" width="60" height="60"/>
                <use id="zoomplus" xlink:href="#zoomPlus" x="17" y="9" onmousedown="handleZoom(evt,'in')"/>
                <use id="zoomminus" xlink:href="#zoomMin" x="42" y="9" onmousedown="handleZoom(evt,'out')"/>
                <use id="reset" xlink:href="#resetDef" x="30" y="36" onmousedown="handleReset()"/>
                <g id="arrowUp" xlink:href="#dirArrow" transform="translate(30 24)" onmousedown="handlePan(0,-1)">
                  <use xlink:href="#rim" fill="#404040">
                        <set attributeName="fill" to="#808080" begin="arrowUp.mouseover" end="arrowUp.mouseout"/>
                  </use>
                  <path fill="none" stroke="white" stroke-width="1.5" d="M0,-3.0v7 M-2.5,-0.5L0,-3.0L2.5,-0.5"/>
                </g>
                <g id="arrowRight" xlink:href="#dirArrow" transform="rotate(90) translate(36 -43)" onmousedown="handlePan(1,0)">
                  <use xlink:href="#rim" fill="#404040">
                        <set attributeName="fill" to="#808080" begin="arrowRight.mouseover" end="arrowRight.mouseout"/>
                  </use>
                  <path fill="none" stroke="white" stroke-width="1.5" d="M0,-3.0v7 M-2.5,-0.5L0,-3.0L2.5,-0.5"/>
                </g>
                <g id="arrowDown" xlink:href="#dirArrow" transform="rotate(180) translate(-30 -48)" onmousedown="handlePan(0,1)">
                  <use xlink:href="#rim" fill="#404040">
                        <set attributeName="fill" to="#808080" begin="arrowDown.mouseover" end="arrowDown.mouseout"/>
                  </use>
                  <path fill="none" stroke="white" stroke-width="1.5" d="M0,-3.0v7 M-2.5,-0.5L0,-3.0L2.5,-0.5"/>
                </g>
                <g id="arrowLeft" xlink:href="#dirArrow" transform="rotate(270) translate(-36 17)" onmousedown="handlePan(-1,0)">
                  <use xlink:href="#rim" fill="#404040">
                        <set attributeName="fill" to="#808080" begin="arrowLeft.mouseover" end="arrowLeft.mouseout"/>
                  </use>
                  <path fill="none" stroke="white" stroke-width="1.5" d="M0,-3.0v7 M-2.5,-0.5L0,-3.0L2.5,-0.5"/>
                </g>
        </g>
        <svg viewBox="0 0 15 15" width="100%" height="30px" preserveAspectRatio="xMaxYMin meet">
         <g id="arrow_out" transform="scale(0.3 0.3)">
          <a xlink:href="namespace_game_a9d38fc7646fc84a271f6b1ce30c61d3c_cgraph_org.svg" target="_base">
           <rect id="button" ry="5" rx="5" y="6" x="6" height="38" width="38"
                fill="#f2f5e9" fill-opacity="0.5" stroke="#606060" stroke-width="1.0"/>
           <path id="arrow"
             d="M 11.500037,31.436501 C 11.940474,20.09759 22.043105,11.32322 32.158766,21.979434 L 37.068811,17.246167 C 37.068811,17.246167 37.088388,32 37.088388,32 L 22.160133,31.978069 C 22.160133,31.978069 26.997745,27.140456 26.997745,27.140456 C 18.528582,18.264221 13.291696,25.230495 11.500037,31.436501 z"
             style="fill:#404040;"/>
          </a>
         </g>
        </svg>
</svg>
