<?xml version="1.0" encoding="UTF-8" standalone="no"?>
<!DOCTYPE svg PUBLIC "-//W3C//DTD SVG 1.1//EN"
 "http://www.w3.org/Graphics/SVG/1.1/DTD/svg11.dtd">
<!-- Generated by graphviz version 2.38.0 (20140413.2041)
 -->
<!-- Title: Game::ScriptIsPro Pages: 1 -->
<svg width="442pt" height="78pt"
 viewBox="0.00 0.00 442.00 77.50" xmlns="http://www.w3.org/2000/svg" xmlns:xlink="http://www.w3.org/1999/xlink">
<g id="graph0" class="graph" transform="scale(1 1) rotate(0) translate(4 73.5)">
<title>Game::ScriptIsPro</title>
<polygon fill="white" stroke="none" points="-4,4 -4,-73.5 438,-73.5 438,4 -4,4"/>
<!-- Node1 -->
<g id="node1" class="node"><title>Node1</title>
<g id="a_node1"><a xlink:title=" ">
<polygon fill="#bfbfbf" stroke="black" points="0,-28 0,-47 97,-47 97,-28 0,-28"/>
<text text-anchor="middle" x="48.5" y="-35" font-family="Helvetica,sans-Serif" font-size="10.00">Game::ScriptIsPro</text>
</a>
</g>
</g>
<!-- Node2 -->
<g id="node2" class="node"><title>Node2</title>
<g id="a_node2"><a xlink:href="../../d2/d97/namespace_game.html#ae5106e88e5082c716b56a2111a888616" target="_top" xlink:title=" ">
<polygon fill="white" stroke="black" points="133,-50 133,-69 255,-69 255,-50 133,-50"/>
<text text-anchor="middle" x="194" y="-57" font-family="Helvetica,sans-Serif" font-size="10.00">Game::GetGoalManager</text>
</a>
</g>
</g>
<!-- Node1&#45;&gt;Node2 -->
<g id="edge1" class="edge"><title>Node1&#45;&gt;Node2</title>
<path fill="none" stroke="midnightblue" d="M97.2834,-44.8257C105.488,-46.0835 114.164,-47.4136 122.81,-48.7392"/>
<polygon fill="midnightblue" stroke="midnightblue" points="122.501,-52.2326 132.916,-50.2885 123.562,-45.3135 122.501,-52.2326"/>
</g>
<!-- Node4 -->
<g id="node4" class="node"><title>Node4</title>
<g id="a_node4"><a xlink:href="../../d9/dda/class_game_1_1_c_goal_manager.html#a907961cf59f216484dfe69ae02fed42a" target="_top" xlink:title=" ">
<polygon fill="white" stroke="black" points="137.5,-0.5 137.5,-30.5 250.5,-30.5 250.5,-0.5 137.5,-0.5"/>
<text text-anchor="start" x="145.5" y="-18.5" font-family="Helvetica,sans-Serif" font-size="10.00">Game::CGoalManager</text>
<text text-anchor="middle" x="194" y="-7.5" font-family="Helvetica,sans-Serif" font-size="10.00">::IsPro</text>
</a>
</g>
</g>
<!-- Node1&#45;&gt;Node4 -->
<g id="edge3" class="edge"><title>Node1&#45;&gt;Node4</title>
<path fill="none" stroke="midnightblue" d="M97.2834,-30.1743C106.945,-28.6931 117.261,-27.1115 127.412,-25.5553"/>
<polygon fill="midnightblue" stroke="midnightblue" points="128.123,-28.9872 137.477,-24.0122 127.063,-22.0681 128.123,-28.9872"/>
</g>
<!-- Node3 -->
<g id="node3" class="node"><title>Node3</title>
<g id="a_node3"><a xlink:href="../../d6/df1/class_mdl_1_1_skate.html#adcda740605d63a59544a0d8e8f9ee78b" target="_top" xlink:title=" ">
<polygon fill="white" stroke="black" points="291,-50 291,-69 434,-69 434,-50 291,-50"/>
<text text-anchor="middle" x="362.5" y="-57" font-family="Helvetica,sans-Serif" font-size="10.00">Mdl::Skate::GetGoalManager</text>
</a>
</g>
</g>
<!-- Node2&#45;&gt;Node3 -->
<g id="edge2" class="edge"><title>Node2&#45;&gt;Node3</title>
<path fill="none" stroke="midnightblue" d="M255.11,-59.5C263.479,-59.5 272.187,-59.5 280.857,-59.5"/>
<polygon fill="midnightblue" stroke="midnightblue" points="280.995,-63.0001 290.995,-59.5 280.995,-56.0001 280.995,-63.0001"/>
</g>
</g>
</svg>
