<?xml version="1.0" encoding="UTF-8" standalone="no"?>
<!DOCTYPE svg PUBLIC "-//W3C//DTD SVG 1.1//EN"
 "http://www.w3.org/Graphics/SVG/1.1/DTD/svg11.dtd">
<!-- Generated by graphviz version 2.38.0 (20140413.2041)
 -->
<!-- Title: SkateScript::sNewTempNode Pages: 1 -->
<!--zoomable 88 -->
<svg id="main" version="1.1" xmlns="http://www.w3.org/2000/svg" xmlns:xlink="http://www.w3.org/1999/xlink" xml:space="preserve" onload="init(evt)">
<style type="text/css"><![CDATA[
.edge:hover path { stroke: red; }
.edge:hover polygon { stroke: red; fill: red; }
]]></style>
<script type="text/javascript"><![CDATA[
var edges = document.getElementsByTagName('g');
if (edges && edges.length) {
  for (var i=0;i<edges.length;i++) {
    if (edges[i].id.substr(0,4)=='edge') {
      edges[i].setAttribute('class','edge');
    }
  }
}
]]></script>
        <defs>
                <circle id="rim" cx="0" cy="0" r="7"/>
                <circle id="rim2" cx="0" cy="0" r="3.5"/>
                <g id="zoomPlus">
                        <use xlink:href="#rim" fill="#404040">
                                <set attributeName="fill" to="#808080" begin="zoomplus.mouseover" end="zoomplus.mouseout"/>
                        </use>
                        <path d="M-4,0h8M0,-4v8" fill="none" stroke="white" stroke-width="1.5" pointer-events="none"/>
                </g>
                <g id="zoomMin">
                        <use xlink:href="#rim" fill="#404040">
                                <set attributeName="fill" to="#808080" begin="zoomminus.mouseover" end="zoomminus.mouseout"/>
                        </use>
                        <path d="M-4,0h8" fill="none" stroke="white" stroke-width="1.5" pointer-events="none"/>
                </g>
                <g id="dirArrow">
                        <path fill="none" stroke="white" stroke-width="1.5" d="M0,-3.0v7 M-2.5,-0.5L0,-3.0L2.5,-0.5"/>
                </g>
               <g id="resetDef">
                       <use xlink:href="#rim2" fill="#404040">
                               <set attributeName="fill" to="#808080" begin="reset.mouseover" end="reset.mouseout"/>
                       </use>
               </g>
        </defs>

<script type="text/javascript">
var viewWidth = 1063;
var viewHeight = 88;
var sectionId = 'dynsection-26';
</script>
<script xlink:href="../../svgpan.js"/>
<svg id="graph" class="graph">
<g id="viewport">
<title>SkateScript::sNewTempNode</title>
<polygon fill="white" stroke="none" points="-4,4 -4,-84 1059,-84 1059,4 -4,4"/>
<!-- Node1 -->
<g id="node1" class="node"><title>Node1</title>
<g id="a_node1"><a xlink:title=" ">
<polygon fill="#bfbfbf" stroke="black" points="911,-30 911,-49 1055,-49 1055,-30 911,-30"/>
<text text-anchor="middle" x="983" y="-37" font-family="Helvetica,sans-Serif" font-size="10.00">SkateScript::sNewTempNode</text>
</a>
</g>
</g>
<!-- Node2 -->
<g id="node2" class="node"><title>Node2</title>
<g id="a_node2"><a xlink:href="../../de/dd2/namespace_skate_script.html#a626a21ea355fa1326ca9dbc7c3fd0c66" target="_top" xlink:title=" ">
<polygon fill="white" stroke="black" points="735,-30 735,-49 875,-49 875,-30 735,-30"/>
<text text-anchor="middle" x="805" y="-37" font-family="Helvetica,sans-Serif" font-size="10.00">SkateScript::sAddNewPrefix</text>
</a>
</g>
</g>
<!-- Node1&#45;&gt;Node2 -->
<g id="edge1" class="edge"><title>Node1&#45;&gt;Node2</title>
<path fill="none" stroke="midnightblue" d="M900.859,-39.5C892.236,-39.5 883.525,-39.5 875.059,-39.5"/>
<polygon fill="midnightblue" stroke="midnightblue" points="900.921,-43.0001 910.921,-39.5 900.921,-36.0001 900.921,-43.0001"/>
</g>
<!-- Node3 -->
<g id="node3" class="node"><title>Node3</title>
<g id="a_node3"><a xlink:href="../../de/dd2/namespace_skate_script.html#aa7583c1cb50249a858f525497d69a3dc" target="_top" xlink:title=" ">
<polygon fill="white" stroke="black" points="546,-30 546,-49 699,-49 699,-30 546,-30"/>
<text text-anchor="middle" x="622.5" y="-37" font-family="Helvetica,sans-Serif" font-size="10.00">SkateScript::GeneratePrefixInfo</text>
</a>
</g>
</g>
<!-- Node2&#45;&gt;Node3 -->
<g id="edge2" class="edge"><title>Node2&#45;&gt;Node3</title>
<path fill="none" stroke="midnightblue" d="M724.978,-39.5C716.38,-39.5 707.644,-39.5 699.089,-39.5"/>
<polygon fill="midnightblue" stroke="midnightblue" points="724.988,-43.0001 734.988,-39.5 724.988,-36.0001 724.988,-43.0001"/>
</g>
<!-- Node4 -->
<g id="node4" class="node"><title>Node4</title>
<g id="a_node4"><a xlink:href="../../de/dd2/namespace_skate_script.html#a6823057ecc0dd3e195ea41c6cf618126" target="_top" xlink:title=" ">
<polygon fill="white" stroke="black" points="401,-30 401,-49 510,-49 510,-30 401,-30"/>
<text text-anchor="middle" x="455.5" y="-37" font-family="Helvetica,sans-Serif" font-size="10.00">SkateScript::LoadQB</text>
</a>
</g>
</g>
<!-- Node3&#45;&gt;Node4 -->
<g id="edge3" class="edge"><title>Node3&#45;&gt;Node4</title>
<path fill="none" stroke="midnightblue" d="M535.588,-39.5C526.922,-39.5 518.306,-39.5 510.124,-39.5"/>
<polygon fill="midnightblue" stroke="midnightblue" points="535.761,-43.0001 545.761,-39.5 535.761,-36.0001 535.761,-43.0001"/>
</g>
<!-- Node5 -->
<g id="node5" class="node"><title>Node5</title>
<g id="a_node5"><a xlink:href="../../d5/df1/class_ass_1_1_c_node_array_asset.html#a33c337bec8dcdcb1a41eda7869010858" target="_top" xlink:title=" ">
<polygon fill="white" stroke="black" points="237.5,-49.5 237.5,-79.5 355.5,-79.5 355.5,-49.5 237.5,-49.5"/>
<text text-anchor="start" x="245.5" y="-67.5" font-family="Helvetica,sans-Serif" font-size="10.00">Ass::CNodeArrayAsset</text>
<text text-anchor="middle" x="296.5" y="-56.5" font-family="Helvetica,sans-Serif" font-size="10.00">::Load</text>
</a>
</g>
</g>
<!-- Node4&#45;&gt;Node5 -->
<g id="edge4" class="edge"><title>Node4&#45;&gt;Node5</title>
<path fill="none" stroke="midnightblue" d="M390.837,-49.6374C379.214,-51.4883 367.14,-53.4109 355.686,-55.2348"/>
<polygon fill="midnightblue" stroke="midnightblue" points="391.583,-53.0627 400.909,-48.0337 390.483,-46.1498 391.583,-53.0627"/>
</g>
<!-- Node7 -->
<g id="node7" class="node"><title>Node7</title>
<g id="a_node7"><a xlink:href="../../de/dd2/namespace_skate_script.html#a7076d5e485f4461d13ff2bb16cd93776" target="_top" xlink:title=" ">
<polygon fill="white" stroke="black" points="228,-0.5 228,-30.5 365,-30.5 365,-0.5 228,-0.5"/>
<text text-anchor="start" x="236" y="-18.5" font-family="Helvetica,sans-Serif" font-size="10.00">SkateScript::LoadAllStartup</text>
<text text-anchor="middle" x="296.5" y="-7.5" font-family="Helvetica,sans-Serif" font-size="10.00">QBFiles</text>
</a>
</g>
</g>
<!-- Node4&#45;&gt;Node7 -->
<g id="edge6" class="edge"><title>Node4&#45;&gt;Node7</title>
<path fill="none" stroke="midnightblue" d="M391,-29.793C382.441,-28.4846 373.635,-27.1385 365.009,-25.8199"/>
<polygon fill="midnightblue" stroke="midnightblue" points="390.495,-33.2563 400.909,-31.3077 391.552,-26.3367 390.495,-33.2563"/>
</g>
<!-- Node6 -->
<g id="node6" class="node"><title>Node6</title>
<g id="a_node6"><a xlink:href="../../d5/df1/class_ass_1_1_c_node_array_asset.html#ac062d540158b11537c7f5f53ad90f01d" target="_top" xlink:title=" ">
<polygon fill="white" stroke="black" points="74,-49.5 74,-79.5 192,-79.5 192,-49.5 74,-49.5"/>
<text text-anchor="start" x="82" y="-67.5" font-family="Helvetica,sans-Serif" font-size="10.00">Ass::CNodeArrayAsset</text>
<text text-anchor="middle" x="133" y="-56.5" font-family="Helvetica,sans-Serif" font-size="10.00">::Reload</text>
</a>
</g>
</g>
<!-- Node5&#45;&gt;Node6 -->
<g id="edge5" class="edge"><title>Node5&#45;&gt;Node6</title>
<path fill="none" stroke="midnightblue" d="M227.107,-64.5C215.496,-64.5 203.537,-64.5 192.22,-64.5"/>
<polygon fill="midnightblue" stroke="midnightblue" points="227.195,-68.0001 237.195,-64.5 227.195,-61.0001 227.195,-68.0001"/>
</g>
<!-- Node8 -->
<g id="node8" class="node"><title>Node8</title>
<g id="a_node8"><a xlink:href="../../de/dd2/namespace_skate_script.html#a93d1a92c9a67596f9fe25dafd66b47a1" target="_top" xlink:title=" ">
<polygon fill="white" stroke="black" points="79.5,-6 79.5,-25 186.5,-25 186.5,-6 79.5,-6"/>
<text text-anchor="middle" x="133" y="-13" font-family="Helvetica,sans-Serif" font-size="10.00">SkateScript::Preload</text>
</a>
</g>
</g>
<!-- Node7&#45;&gt;Node8 -->
<g id="edge7" class="edge"><title>Node7&#45;&gt;Node8</title>
<path fill="none" stroke="midnightblue" d="M217.828,-15.5C207.227,-15.5 196.556,-15.5 186.546,-15.5"/>
<polygon fill="midnightblue" stroke="midnightblue" points="217.945,-19.0001 227.945,-15.5 217.945,-12.0001 217.945,-19.0001"/>
</g>
<!-- Node9 -->
<g id="node9" class="node"><title>Node9</title>
<g id="a_node9"><a xlink:href="../../d5/d12/_main_8cpp.html#a0e18e794c708408ef1dec237965cb73d" target="_top" xlink:title=" ">
<polygon fill="white" stroke="black" points="0,-6 0,-25 38,-25 38,-6 0,-6"/>
<text text-anchor="middle" x="19" y="-13" font-family="Helvetica,sans-Serif" font-size="10.00">main</text>
</a>
</g>
</g>
<!-- Node8&#45;&gt;Node9 -->
<g id="edge8" class="edge"><title>Node8&#45;&gt;Node9</title>
<path fill="none" stroke="midnightblue" d="M69.254,-15.5C57.9011,-15.5 46.9236,-15.5 38.2245,-15.5"/>
<polygon fill="midnightblue" stroke="midnightblue" points="69.2796,-19.0001 79.2796,-15.5 69.2795,-12.0001 69.2796,-19.0001"/>
</g>
</g>
</svg>
        <g id="navigator" transform="translate(0 0)" fill="#404254">
                <rect fill="#f2f5e9" fill-opacity="0.5" stroke="#606060" stroke-width=".5" x="0" y="0" width="60" height="60"/>
                <use id="zoomplus" xlink:href="#zoomPlus" x="17" y="9" onmousedown="handleZoom(evt,'in')"/>
                <use id="zoomminus" xlink:href="#zoomMin" x="42" y="9" onmousedown="handleZoom(evt,'out')"/>
                <use id="reset" xlink:href="#resetDef" x="30" y="36" onmousedown="handleReset()"/>
                <g id="arrowUp" xlink:href="#dirArrow" transform="translate(30 24)" onmousedown="handlePan(0,-1)">
                  <use xlink:href="#rim" fill="#404040">
                        <set attributeName="fill" to="#808080" begin="arrowUp.mouseover" end="arrowUp.mouseout"/>
                  </use>
                  <path fill="none" stroke="white" stroke-width="1.5" d="M0,-3.0v7 M-2.5,-0.5L0,-3.0L2.5,-0.5"/>
                </g>
                <g id="arrowRight" xlink:href="#dirArrow" transform="rotate(90) translate(36 -43)" onmousedown="handlePan(1,0)">
                  <use xlink:href="#rim" fill="#404040">
                        <set attributeName="fill" to="#808080" begin="arrowRight.mouseover" end="arrowRight.mouseout"/>
                  </use>
                  <path fill="none" stroke="white" stroke-width="1.5" d="M0,-3.0v7 M-2.5,-0.5L0,-3.0L2.5,-0.5"/>
                </g>
                <g id="arrowDown" xlink:href="#dirArrow" transform="rotate(180) translate(-30 -48)" onmousedown="handlePan(0,1)">
                  <use xlink:href="#rim" fill="#404040">
                        <set attributeName="fill" to="#808080" begin="arrowDown.mouseover" end="arrowDown.mouseout"/>
                  </use>
                  <path fill="none" stroke="white" stroke-width="1.5" d="M0,-3.0v7 M-2.5,-0.5L0,-3.0L2.5,-0.5"/>
                </g>
                <g id="arrowLeft" xlink:href="#dirArrow" transform="rotate(270) translate(-36 17)" onmousedown="handlePan(-1,0)">
                  <use xlink:href="#rim" fill="#404040">
                        <set attributeName="fill" to="#808080" begin="arrowLeft.mouseover" end="arrowLeft.mouseout"/>
                  </use>
                  <path fill="none" stroke="white" stroke-width="1.5" d="M0,-3.0v7 M-2.5,-0.5L0,-3.0L2.5,-0.5"/>
                </g>
        </g>
        <svg viewBox="0 0 15 15" width="100%" height="30px" preserveAspectRatio="xMaxYMin meet">
         <g id="arrow_out" transform="scale(0.3 0.3)">
          <a xlink:href="namespace_skate_script_aa6977429689ce003828397dcc4860206_icgraph_org.svg" target="_base">
           <rect id="button" ry="5" rx="5" y="6" x="6" height="38" width="38"
                fill="#f2f5e9" fill-opacity="0.5" stroke="#606060" stroke-width="1.0"/>
           <path id="arrow"
             d="M 11.500037,31.436501 C 11.940474,20.09759 22.043105,11.32322 32.158766,21.979434 L 37.068811,17.246167 C 37.068811,17.246167 37.088388,32 37.088388,32 L 22.160133,31.978069 C 22.160133,31.978069 26.997745,27.140456 26.997745,27.140456 C 18.528582,18.264221 13.291696,25.230495 11.500037,31.436501 z"
             style="fill:#404040;"/>
          </a>
         </g>
        </svg>
</svg>
