<?xml version="1.0" encoding="UTF-8" standalone="no"?>
<!DOCTYPE svg PUBLIC "-//W3C//DTD SVG 1.1//EN"
 "http://www.w3.org/Graphics/SVG/1.1/DTD/svg11.dtd">
<!-- Generated by graphviz version 2.38.0 (20140413.2041)
 -->
<!-- Title: SkateScript::CreateNodeNameHashTable Pages: 1 -->
<svg width="721pt" height="137pt"
 viewBox="0.00 0.00 721.00 137.00" xmlns="http://www.w3.org/2000/svg" xmlns:xlink="http://www.w3.org/1999/xlink">
<g id="graph0" class="graph" transform="scale(1 1) rotate(0) translate(4 133)">
<title>SkateScript::CreateNodeNameHashTable</title>
<polygon fill="white" stroke="none" points="-4,4 -4,-133 717,-133 717,4 -4,4"/>
<!-- Node1 -->
<g id="node1" class="node"><title>Node1</title>
<g id="a_node1"><a xlink:title=" ">
<polygon fill="#bfbfbf" stroke="black" points="563,-72.5 563,-102.5 713,-102.5 713,-72.5 563,-72.5"/>
<text text-anchor="start" x="571" y="-90.5" font-family="Helvetica,sans-Serif" font-size="10.00">SkateScript::CreateNodeName</text>
<text text-anchor="middle" x="638" y="-79.5" font-family="Helvetica,sans-Serif" font-size="10.00">HashTable</text>
</a>
</g>
</g>
<!-- Node2 -->
<g id="node2" class="node"><title>Node2</title>
<g id="a_node2"><a xlink:href="../../de/d42/class_ed_1_1_c_park_generator.html#aa09527e9552236975be71ab5aa2bda14" target="_top" xlink:title=" ">
<polygon fill="white" stroke="black" points="420.5,-95.5 420.5,-125.5 524.5,-125.5 524.5,-95.5 420.5,-95.5"/>
<text text-anchor="start" x="428.5" y="-113.5" font-family="Helvetica,sans-Serif" font-size="10.00">Ed::CParkGenerator</text>
<text text-anchor="middle" x="472.5" y="-102.5" font-family="Helvetica,sans-Serif" font-size="10.00">::GenerateNodeInfo</text>
</a>
</g>
</g>
<!-- Node1&#45;&gt;Node2 -->
<g id="edge1" class="edge"><title>Node1&#45;&gt;Node2</title>
<path fill="none" stroke="midnightblue" d="M552.942,-99.3246C543.376,-100.67 533.853,-102.01 524.896,-103.27"/>
<polygon fill="midnightblue" stroke="midnightblue" points="553.489,-102.782 562.904,-97.9233 552.514,-95.8505 553.489,-102.782"/>
</g>
<!-- Node5 -->
<g id="node5" class="node"><title>Node5</title>
<g id="a_node5"><a xlink:href="../../de/dd2/namespace_skate_script.html#a6823057ecc0dd3e195ea41c6cf618126" target="_top" xlink:title=" ">
<polygon fill="white" stroke="black" points="418,-55 418,-74 527,-74 527,-55 418,-55"/>
<text text-anchor="middle" x="472.5" y="-62" font-family="Helvetica,sans-Serif" font-size="10.00">SkateScript::LoadQB</text>
</a>
</g>
</g>
<!-- Node1&#45;&gt;Node5 -->
<g id="edge4" class="edge"><title>Node1&#45;&gt;Node5</title>
<path fill="none" stroke="midnightblue" d="M552.751,-75.6485C544.098,-74.4312 535.481,-73.2191 527.291,-72.0669"/>
<polygon fill="midnightblue" stroke="midnightblue" points="552.514,-79.1495 562.904,-77.0767 553.489,-72.2177 552.514,-79.1495"/>
</g>
<!-- Node3 -->
<g id="node3" class="node"><title>Node3</title>
<g id="a_node3"><a xlink:href="../../d0/d5c/class_ed_1_1_c_park_manager.html#afe3b49be10db3c24e7a68e400f00ade5" target="_top" xlink:title=" ">
<polygon fill="white" stroke="black" points="245,-98.5 245,-128.5 382,-128.5 382,-98.5 245,-98.5"/>
<text text-anchor="start" x="253" y="-116.5" font-family="Helvetica,sans-Serif" font-size="10.00">Ed::CParkManager::Rebuild</text>
<text text-anchor="middle" x="313.5" y="-105.5" font-family="Helvetica,sans-Serif" font-size="10.00">NodeArray</text>
</a>
</g>
</g>
<!-- Node2&#45;&gt;Node3 -->
<g id="edge2" class="edge"><title>Node2&#45;&gt;Node3</title>
<path fill="none" stroke="midnightblue" d="M409.922,-111.677C400.767,-111.852 391.29,-112.033 382.022,-112.21"/>
<polygon fill="midnightblue" stroke="midnightblue" points="410.161,-115.173 420.092,-111.482 410.027,-108.174 410.161,-115.173"/>
</g>
<!-- Node4 -->
<g id="node4" class="node"><title>Node4</title>
<g id="a_node4"><a xlink:href="../../d2/d84/namespace_ed.html#a22ced855b40e383b19535536b3cbefab" target="_top" xlink:title=" ">
<polygon fill="white" stroke="black" points="74,-98.5 74,-128.5 209,-128.5 209,-98.5 74,-98.5"/>
<text text-anchor="start" x="82" y="-116.5" font-family="Helvetica,sans-Serif" font-size="10.00">Ed::ScriptRebuildParkNode</text>
<text text-anchor="middle" x="141.5" y="-105.5" font-family="Helvetica,sans-Serif" font-size="10.00">Array</text>
</a>
</g>
</g>
<!-- Node3&#45;&gt;Node4 -->
<g id="edge3" class="edge"><title>Node3&#45;&gt;Node4</title>
<path fill="none" stroke="midnightblue" d="M234.813,-113.5C226.228,-113.5 217.543,-113.5 209.112,-113.5"/>
<polygon fill="midnightblue" stroke="midnightblue" points="234.823,-117 244.823,-113.5 234.823,-110 234.823,-117"/>
</g>
<!-- Node6 -->
<g id="node6" class="node"><title>Node6</title>
<g id="a_node6"><a xlink:href="../../d5/df1/class_ass_1_1_c_node_array_asset.html#a33c337bec8dcdcb1a41eda7869010858" target="_top" xlink:title=" ">
<polygon fill="white" stroke="black" points="254.5,-49.5 254.5,-79.5 372.5,-79.5 372.5,-49.5 254.5,-49.5"/>
<text text-anchor="start" x="262.5" y="-67.5" font-family="Helvetica,sans-Serif" font-size="10.00">Ass::CNodeArrayAsset</text>
<text text-anchor="middle" x="313.5" y="-56.5" font-family="Helvetica,sans-Serif" font-size="10.00">::Load</text>
</a>
</g>
</g>
<!-- Node5&#45;&gt;Node6 -->
<g id="edge5" class="edge"><title>Node5&#45;&gt;Node6</title>
<path fill="none" stroke="midnightblue" d="M407.837,-64.5C396.214,-64.5 384.14,-64.5 372.686,-64.5"/>
<polygon fill="midnightblue" stroke="midnightblue" points="407.909,-68.0001 417.909,-64.5 407.909,-61.0001 407.909,-68.0001"/>
</g>
<!-- Node8 -->
<g id="node8" class="node"><title>Node8</title>
<g id="a_node8"><a xlink:href="../../de/dd2/namespace_skate_script.html#a7076d5e485f4461d13ff2bb16cd93776" target="_top" xlink:title=" ">
<polygon fill="white" stroke="black" points="245,-0.5 245,-30.5 382,-30.5 382,-0.5 245,-0.5"/>
<text text-anchor="start" x="253" y="-18.5" font-family="Helvetica,sans-Serif" font-size="10.00">SkateScript::LoadAllStartup</text>
<text text-anchor="middle" x="313.5" y="-7.5" font-family="Helvetica,sans-Serif" font-size="10.00">QBFiles</text>
</a>
</g>
</g>
<!-- Node5&#45;&gt;Node8 -->
<g id="edge7" class="edge"><title>Node5&#45;&gt;Node8</title>
<path fill="none" stroke="midnightblue" d="M431.028,-51.8687C410.159,-45.3554 384.562,-37.3666 362.68,-30.537"/>
<polygon fill="midnightblue" stroke="midnightblue" points="430.267,-55.2977 440.856,-54.936 432.353,-48.6156 430.267,-55.2977"/>
</g>
<!-- Node7 -->
<g id="node7" class="node"><title>Node7</title>
<g id="a_node7"><a xlink:href="../../d5/df1/class_ass_1_1_c_node_array_asset.html#ac062d540158b11537c7f5f53ad90f01d" target="_top" xlink:title=" ">
<polygon fill="white" stroke="black" points="82.5,-49.5 82.5,-79.5 200.5,-79.5 200.5,-49.5 82.5,-49.5"/>
<text text-anchor="start" x="90.5" y="-67.5" font-family="Helvetica,sans-Serif" font-size="10.00">Ass::CNodeArrayAsset</text>
<text text-anchor="middle" x="141.5" y="-56.5" font-family="Helvetica,sans-Serif" font-size="10.00">::Reload</text>
</a>
</g>
</g>
<!-- Node6&#45;&gt;Node7 -->
<g id="edge6" class="edge"><title>Node6&#45;&gt;Node7</title>
<path fill="none" stroke="midnightblue" d="M244.102,-64.5C229.667,-64.5 214.567,-64.5 200.556,-64.5"/>
<polygon fill="midnightblue" stroke="midnightblue" points="244.471,-68.0001 254.471,-64.5 244.471,-61.0001 244.471,-68.0001"/>
</g>
<!-- Node9 -->
<g id="node9" class="node"><title>Node9</title>
<g id="a_node9"><a xlink:href="../../de/dd2/namespace_skate_script.html#a93d1a92c9a67596f9fe25dafd66b47a1" target="_top" xlink:title=" ">
<polygon fill="white" stroke="black" points="88,-6 88,-25 195,-25 195,-6 88,-6"/>
<text text-anchor="middle" x="141.5" y="-13" font-family="Helvetica,sans-Serif" font-size="10.00">SkateScript::Preload</text>
</a>
</g>
</g>
<!-- Node8&#45;&gt;Node9 -->
<g id="edge8" class="edge"><title>Node8&#45;&gt;Node9</title>
<path fill="none" stroke="midnightblue" d="M234.632,-15.5C221.215,-15.5 207.56,-15.5 195.015,-15.5"/>
<polygon fill="midnightblue" stroke="midnightblue" points="234.823,-19.0001 244.823,-15.5 234.823,-12.0001 234.823,-19.0001"/>
</g>
<!-- Node10 -->
<g id="node10" class="node"><title>Node10</title>
<g id="a_node10"><a xlink:href="../../d5/d12/_main_8cpp.html#a0e18e794c708408ef1dec237965cb73d" target="_top" xlink:title=" ">
<polygon fill="white" stroke="black" points="0,-6 0,-25 38,-25 38,-6 0,-6"/>
<text text-anchor="middle" x="19" y="-13" font-family="Helvetica,sans-Serif" font-size="10.00">main</text>
</a>
</g>
</g>
<!-- Node9&#45;&gt;Node10 -->
<g id="edge9" class="edge"><title>Node9&#45;&gt;Node10</title>
<path fill="none" stroke="midnightblue" d="M77.8819,-15.5C63.2522,-15.5 48.8089,-15.5 38.0095,-15.5"/>
<polygon fill="midnightblue" stroke="midnightblue" points="77.9975,-19.0001 87.9975,-15.5 77.9974,-12.0001 77.9975,-19.0001"/>
</g>
</g>
</svg>
