<?xml version="1.0" encoding="UTF-8" standalone="no"?>
<!DOCTYPE svg PUBLIC "-//W3C//DTD SVG 1.1//EN"
 "http://www.w3.org/Graphics/SVG/1.1/DTD/svg11.dtd">
<!-- Generated by graphviz version 2.38.0 (20140413.2041)
 -->
<!-- Title: Obj::CShadowComponent::Teleport Pages: 1 -->
<svg width="882pt" height="481pt"
 viewBox="0.00 0.00 882.00 480.50" xmlns="http://www.w3.org/2000/svg" xmlns:xlink="http://www.w3.org/1999/xlink">
<g id="graph0" class="graph" transform="scale(1 1) rotate(0) translate(4 476.5)">
<title>Obj::CShadowComponent::Teleport</title>
<polygon fill="white" stroke="none" points="-4,4 -4,-476.5 878,-476.5 878,4 -4,4"/>
<!-- Node1 -->
<g id="node1" class="node"><title>Node1</title>
<g id="a_node1"><a xlink:title=" ">
<polygon fill="#bfbfbf" stroke="black" points="0,-404 0,-434 128,-434 128,-404 0,-404"/>
<text text-anchor="start" x="8" y="-422" font-family="Helvetica,sans-Serif" font-size="10.00">Obj::CShadowComponent</text>
<text text-anchor="middle" x="64" y="-411" font-family="Helvetica,sans-Serif" font-size="10.00">::Teleport</text>
</a>
</g>
</g>
<!-- Node2 -->
<g id="node2" class="node"><title>Node2</title>
<g id="a_node2"><a xlink:href="../../d0/d7e/class_obj_1_1_c_base_component.html#a952f40d99323d28b3ca2f55567edfa85" target="_top" xlink:title=" ">
<polygon fill="white" stroke="black" points="512,-442 512,-472 628,-472 628,-442 512,-442"/>
<text text-anchor="start" x="520" y="-460" font-family="Helvetica,sans-Serif" font-size="10.00">Obj::CBaseComponent</text>
<text text-anchor="middle" x="570" y="-449" font-family="Helvetica,sans-Serif" font-size="10.00">::GetObject</text>
</a>
</g>
</g>
<!-- Node1&#45;&gt;Node2 -->
<g id="edge1" class="edge"><title>Node1&#45;&gt;Node2</title>
<path fill="none" stroke="midnightblue" d="M128.067,-423.755C223.476,-430.949 403.729,-444.539 501.623,-451.92"/>
<polygon fill="midnightblue" stroke="midnightblue" points="501.465,-455.418 511.699,-452.68 501.991,-448.438 501.465,-455.418"/>
</g>
<!-- Node3 -->
<g id="node3" class="node"><title>Node3</title>
<g id="a_node3"><a xlink:href="../../dc/dd7/class_obj_1_1_c_shadow_component.html#a08e771885d84bfb22a0085a98ece53bd" target="_top" xlink:title=" ">
<polygon fill="white" stroke="black" points="164,-366 164,-396 292,-396 292,-366 164,-366"/>
<text text-anchor="start" x="172" y="-384" font-family="Helvetica,sans-Serif" font-size="10.00">Obj::CShadowComponent</text>
<text text-anchor="middle" x="228" y="-373" font-family="Helvetica,sans-Serif" font-size="10.00">::Update</text>
</a>
</g>
</g>
<!-- Node1&#45;&gt;Node3 -->
<g id="edge2" class="edge"><title>Node1&#45;&gt;Node3</title>
<path fill="none" stroke="midnightblue" d="M128.097,-404.199C136.526,-402.222 145.227,-400.181 153.81,-398.168"/>
<polygon fill="midnightblue" stroke="midnightblue" points="154.872,-401.514 163.808,-395.823 153.273,-394.699 154.872,-401.514"/>
</g>
<!-- Node3&#45;&gt;Node2 -->
<g id="edge3" class="edge"><title>Node3&#45;&gt;Node2</title>
<path fill="none" stroke="midnightblue" d="M292.155,-395.117C351.823,-408.454 441.023,-428.393 501.939,-442.01"/>
<polygon fill="midnightblue" stroke="midnightblue" points="501.317,-445.457 511.84,-444.223 502.844,-438.626 501.317,-445.457"/>
</g>
<!-- Node4 -->
<g id="node4" class="node"><title>Node4</title>
<g id="a_node4"><a xlink:href="../../dd/df4/matrix_8h.html#ad393a55b0cd17b6dea798c49863e8de4" target="_top" xlink:title=" ">
<polygon fill="white" stroke="black" points="367,-371.5 367,-390.5 417,-390.5 417,-371.5 367,-371.5"/>
<text text-anchor="middle" x="392" y="-378.5" font-family="Helvetica,sans-Serif" font-size="10.00">GetPos</text>
</a>
</g>
</g>
<!-- Node3&#45;&gt;Node4 -->
<g id="edge4" class="edge"><title>Node3&#45;&gt;Node4</title>
<path fill="none" stroke="midnightblue" d="M292.097,-381C314.034,-381 337.814,-381 356.558,-381"/>
<polygon fill="midnightblue" stroke="midnightblue" points="356.684,-384.5 366.684,-381 356.684,-377.5 356.684,-384.5"/>
</g>
<!-- Node5 -->
<g id="node5" class="node"><title>Node5</title>
<g id="a_node5"><a xlink:href="../../dc/dd7/class_obj_1_1_c_shadow_component.html#a7b1502556bdf7b10ee1096b166636592" target="_top" xlink:title=" ">
<polygon fill="white" stroke="black" points="328,-322 328,-352 456,-352 456,-322 328,-322"/>
<text text-anchor="start" x="336" y="-340" font-family="Helvetica,sans-Serif" font-size="10.00">Obj::CShadowComponent</text>
<text text-anchor="middle" x="392" y="-329" font-family="Helvetica,sans-Serif" font-size="10.00">::SetShadowPos</text>
</a>
</g>
</g>
<!-- Node3&#45;&gt;Node5 -->
<g id="edge5" class="edge"><title>Node3&#45;&gt;Node5</title>
<path fill="none" stroke="midnightblue" d="M284.298,-365.981C297.648,-362.355 312.038,-358.447 325.795,-354.71"/>
<polygon fill="midnightblue" stroke="midnightblue" points="326.943,-358.025 335.676,-352.026 325.108,-351.27 326.943,-358.025"/>
</g>
<!-- Node6 -->
<g id="node6" class="node"><title>Node6</title>
<g id="a_node6"><a xlink:href="../../dc/dd7/class_obj_1_1_c_shadow_component.html#a7141ff760218137cf0fb6198b7738488" target="_top" xlink:title=" ">
<polygon fill="white" stroke="black" points="328,-223 328,-253 456,-253 456,-223 328,-223"/>
<text text-anchor="start" x="336" y="-241" font-family="Helvetica,sans-Serif" font-size="10.00">Obj::CShadowComponent</text>
<text text-anchor="middle" x="392" y="-230" font-family="Helvetica,sans-Serif" font-size="10.00">::update_shadow</text>
</a>
</g>
</g>
<!-- Node3&#45;&gt;Node6 -->
<g id="edge6" class="edge"><title>Node3&#45;&gt;Node6</title>
<path fill="none" stroke="midnightblue" d="M246.031,-365.967C274.638,-340.714 332.475,-289.661 365.799,-260.246"/>
<polygon fill="midnightblue" stroke="midnightblue" points="368.529,-262.504 373.71,-253.262 363.897,-257.256 368.529,-262.504"/>
</g>
<!-- Node6&#45;&gt;Node2 -->
<g id="edge13" class="edge"><title>Node6&#45;&gt;Node2</title>
<path fill="none" stroke="midnightblue" d="M409.096,-253.263C423.266,-267.508 443.532,-289.971 456,-313 482.307,-361.592 453.324,-392.536 492,-432 495.242,-435.308 498.925,-438.178 502.882,-440.669"/>
<polygon fill="midnightblue" stroke="midnightblue" points="501.454,-443.876 511.917,-445.539 504.775,-437.713 501.454,-443.876"/>
</g>
<!-- Node7 -->
<g id="node7" class="node"><title>Node7</title>
<g id="a_node7"><a xlink:href="../../d0/dea/class_nx_1_1_c_model.html#ac9018f528ee094e831e64a76cb41041f" target="_top" xlink:title=" ">
<polygon fill="white" stroke="black" points="512,-403.5 512,-422.5 628,-422.5 628,-403.5 512,-403.5"/>
<text text-anchor="middle" x="570" y="-410.5" font-family="Helvetica,sans-Serif" font-size="10.00">Nx::CModel::GetActive</text>
</a>
</g>
</g>
<!-- Node6&#45;&gt;Node7 -->
<g id="edge7" class="edge"><title>Node6&#45;&gt;Node7</title>
<path fill="none" stroke="midnightblue" d="M407.895,-253.093C421.624,-267.573 441.944,-290.502 456,-313 476.874,-346.411 461.799,-368.704 492,-394 495.266,-396.735 498.866,-399.087 502.674,-401.108"/>
<polygon fill="midnightblue" stroke="midnightblue" points="501.317,-404.335 511.872,-405.247 504.189,-397.952 501.317,-404.335"/>
</g>
<!-- Node8 -->
<g id="node8" class="node"><title>Node8</title>
<g id="a_node8"><a xlink:href="../../d2/d32/class_nx_1_1_c_model_lights.html#a9ccca2fcf35b39e9a193841f142a2e64" target="_top" xlink:title=" ">
<polygon fill="white" stroke="black" points="501.5,-354 501.5,-384 638.5,-384 638.5,-354 501.5,-354"/>
<text text-anchor="start" x="509.5" y="-372" font-family="Helvetica,sans-Serif" font-size="10.00">Nx::CModelLights::GetLight</text>
<text text-anchor="middle" x="570" y="-361" font-family="Helvetica,sans-Serif" font-size="10.00">Direction</text>
</a>
</g>
</g>
<!-- Node6&#45;&gt;Node8 -->
<g id="edge8" class="edge"><title>Node6&#45;&gt;Node8</title>
<path fill="none" stroke="midnightblue" d="M405.294,-253.109C426.984,-279.441 471.671,-332.164 492,-345 494.638,-346.666 497.4,-348.223 500.245,-349.679"/>
<polygon fill="midnightblue" stroke="midnightblue" points="499.014,-352.966 509.56,-353.988 501.954,-346.613 499.014,-352.966"/>
</g>
<!-- Node11 -->
<g id="node11" class="node"><title>Node11</title>
<g id="a_node11"><a xlink:href="../../df/d52/class_obj_1_1_c_model_component.html#a8ed12fa8e2a0c911029c771d085f3c92" target="_top" xlink:title=" ">
<polygon fill="white" stroke="black" points="510,-305 510,-335 630,-335 630,-305 510,-305"/>
<text text-anchor="start" x="518" y="-323" font-family="Helvetica,sans-Serif" font-size="10.00">Obj::CModelComponent</text>
<text text-anchor="middle" x="570" y="-312" font-family="Helvetica,sans-Serif" font-size="10.00">::GetModel</text>
</a>
</g>
</g>
<!-- Node6&#45;&gt;Node11 -->
<g id="edge11" class="edge"><title>Node6&#45;&gt;Node11</title>
<path fill="none" stroke="midnightblue" d="M415.881,-253.011C435.498,-265.426 464.814,-282.919 492,-295 497.057,-297.247 502.38,-299.395 507.768,-301.42"/>
<polygon fill="midnightblue" stroke="midnightblue" points="506.898,-304.827 517.492,-304.928 509.273,-298.242 506.898,-304.827"/>
</g>
<!-- Node12 -->
<g id="node12" class="node"><title>Node12</title>
<g id="a_node12"><a xlink:href="../../d0/dea/class_nx_1_1_c_model.html#a99f6c91e9c8cb1e752d8b9cf251aa49c" target="_top" xlink:title=" ">
<polygon fill="white" stroke="black" points="499,-266.5 499,-285.5 641,-285.5 641,-266.5 499,-266.5"/>
<text text-anchor="middle" x="570" y="-273.5" font-family="Helvetica,sans-Serif" font-size="10.00">Nx::CModel::GetModelLights</text>
</a>
</g>
</g>
<!-- Node6&#45;&gt;Node12 -->
<g id="edge12" class="edge"><title>Node6&#45;&gt;Node12</title>
<path fill="none" stroke="midnightblue" d="M456.043,-251.612C475.357,-255.782 496.419,-260.329 515.067,-264.355"/>
<polygon fill="midnightblue" stroke="midnightblue" points="514.35,-267.781 524.864,-266.471 515.828,-260.939 514.35,-267.781"/>
</g>
<!-- Node13 -->
<g id="node13" class="node"><title>Node13</title>
<g id="a_node13"><a xlink:href="../../d0/dea/class_nx_1_1_c_model.html#aaa89a219766d23cfe4a817f9845f5531" target="_top" xlink:title=" ">
<polygon fill="white" stroke="black" points="513,-228.5 513,-247.5 627,-247.5 627,-228.5 513,-228.5"/>
<text text-anchor="middle" x="570" y="-235.5" font-family="Helvetica,sans-Serif" font-size="10.00">Nx::CModel::GetScale</text>
</a>
</g>
</g>
<!-- Node6&#45;&gt;Node13 -->
<g id="edge14" class="edge"><title>Node6&#45;&gt;Node13</title>
<path fill="none" stroke="midnightblue" d="M456.043,-238C471.109,-238 487.24,-238 502.459,-238"/>
<polygon fill="midnightblue" stroke="midnightblue" points="502.825,-241.5 512.825,-238 502.825,-234.5 502.825,-241.5"/>
</g>
<!-- Node14 -->
<g id="node14" class="node"><title>Node14</title>
<g id="a_node14"><a xlink:href="../../db/d3f/class_gfx_1_1_c_shadow.html#a2d65939d0e6e732a9b62df82389b31a6" target="_top" xlink:title=" ">
<polygon fill="white" stroke="black" points="492,-190.5 492,-209.5 648,-209.5 648,-190.5 492,-190.5"/>
<text text-anchor="middle" x="570" y="-197.5" font-family="Helvetica,sans-Serif" font-size="10.00">Gfx::CShadow::GetShadowType</text>
</a>
</g>
</g>
<!-- Node6&#45;&gt;Node14 -->
<g id="edge15" class="edge"><title>Node6&#45;&gt;Node14</title>
<path fill="none" stroke="midnightblue" d="M456.043,-224.388C475.357,-220.218 496.419,-215.671 515.067,-211.645"/>
<polygon fill="midnightblue" stroke="midnightblue" points="515.828,-215.061 524.864,-209.529 514.35,-208.219 515.828,-215.061"/>
</g>
<!-- Node15 -->
<g id="node15" class="node"><title>Node15</title>
<g id="a_node15"><a xlink:href="../../d9/d37/class_mth_1_1_matrix.html#a20cd2a0264b2acbaea886a0387477a3f" target="_top" xlink:title=" ">
<polygon fill="white" stroke="black" points="520,-152.5 520,-171.5 620,-171.5 620,-152.5 520,-152.5"/>
<text text-anchor="middle" x="570" y="-159.5" font-family="Helvetica,sans-Serif" font-size="10.00">Mth::Matrix::GetUp</text>
</a>
</g>
</g>
<!-- Node6&#45;&gt;Node15 -->
<g id="edge16" class="edge"><title>Node6&#45;&gt;Node15</title>
<path fill="none" stroke="midnightblue" d="M414.892,-222.988C434.372,-210.229 464.029,-192.242 492,-181 498.18,-178.516 504.774,-176.292 511.405,-174.319"/>
<polygon fill="midnightblue" stroke="midnightblue" points="512.415,-177.671 521.102,-171.607 510.529,-170.93 512.415,-177.671"/>
</g>
<!-- Node16 -->
<g id="node16" class="node"><title>Node16</title>
<g id="a_node16"><a xlink:href="../../d1/d08/class_mth_1_1_vector.html#aa5879c6e3b01b313acdc899265a46247" target="_top" xlink:title=" ">
<polygon fill="white" stroke="black" points="522.5,-114.5 522.5,-133.5 617.5,-133.5 617.5,-114.5 522.5,-114.5"/>
<text text-anchor="middle" x="570" y="-121.5" font-family="Helvetica,sans-Serif" font-size="10.00">Mth::Vector::GetX</text>
</a>
</g>
</g>
<!-- Node6&#45;&gt;Node16 -->
<g id="edge17" class="edge"><title>Node6&#45;&gt;Node16</title>
<path fill="none" stroke="midnightblue" d="M404.344,-222.969C421.129,-201.819 454.649,-163.568 492,-143 498.385,-139.484 505.422,-136.61 512.568,-134.262"/>
<polygon fill="midnightblue" stroke="midnightblue" points="513.732,-137.568 522.33,-131.376 511.748,-130.855 513.732,-137.568"/>
</g>
<!-- Node17 -->
<g id="node17" class="node"><title>Node17</title>
<g id="a_node17"><a xlink:href="../../db/d3f/class_gfx_1_1_c_shadow.html#acc456cf3749b71633198f95c8d7271b7" target="_top" xlink:title=" ">
<polygon fill="white" stroke="black" points="518,-76.5 518,-95.5 622,-95.5 622,-76.5 518,-76.5"/>
<text text-anchor="middle" x="570" y="-83.5" font-family="Helvetica,sans-Serif" font-size="10.00">Gfx::CShadow::Hide</text>
</a>
</g>
</g>
<!-- Node6&#45;&gt;Node17 -->
<g id="edge18" class="edge"><title>Node6&#45;&gt;Node17</title>
<path fill="none" stroke="midnightblue" d="M399.837,-222.953C413.296,-195.104 445.967,-135.584 492,-105 496.923,-101.73 502.359,-99.0217 507.999,-96.7797"/>
<polygon fill="midnightblue" stroke="midnightblue" points="509.332,-100.021 517.627,-93.4292 507.032,-93.4103 509.332,-100.021"/>
</g>
<!-- Node18 -->
<g id="node18" class="node"><title>Node18</title>
<g id="a_node18"><a xlink:href="../../db/d3f/class_gfx_1_1_c_shadow.html#a44ae9cad0f2d3e5032fbf6371645dd99" target="_top" xlink:title=" ">
<polygon fill="white" stroke="black" points="512,-38.5 512,-57.5 628,-57.5 628,-38.5 512,-38.5"/>
<text text-anchor="middle" x="570" y="-45.5" font-family="Helvetica,sans-Serif" font-size="10.00">Gfx::CShadow::UnHide</text>
</a>
</g>
</g>
<!-- Node6&#45;&gt;Node18 -->
<g id="edge19" class="edge"><title>Node6&#45;&gt;Node18</title>
<path fill="none" stroke="midnightblue" d="M397.263,-222.945C407.571,-189.391 437.133,-108.19 492,-67 495.252,-64.5588 498.778,-62.428 502.472,-60.5684"/>
<polygon fill="midnightblue" stroke="midnightblue" points="504.145,-63.6586 511.939,-56.4825 501.371,-57.2316 504.145,-63.6586"/>
</g>
<!-- Node19 -->
<g id="node19" class="node"><title>Node19</title>
<g id="a_node19"><a xlink:href="../../db/d3f/class_gfx_1_1_c_shadow.html#a7c337c45ed373c49ea7de0f78866aeb4" target="_top" xlink:title=" ">
<polygon fill="white" stroke="black" points="494.5,-0.5 494.5,-19.5 645.5,-19.5 645.5,-0.5 494.5,-0.5"/>
<text text-anchor="middle" x="570" y="-7.5" font-family="Helvetica,sans-Serif" font-size="10.00">Gfx::CShadow::UpdatePosition</text>
</a>
</g>
</g>
<!-- Node6&#45;&gt;Node19 -->
<g id="edge20" class="edge"><title>Node6&#45;&gt;Node19</title>
<path fill="none" stroke="midnightblue" d="M395.579,-222.905C403.001,-184.275 428.114,-81.2112 492,-29 494.052,-27.3227 496.231,-25.7903 498.507,-24.3903"/>
<polygon fill="midnightblue" stroke="midnightblue" points="500.43,-27.3352 507.693,-19.6216 497.205,-21.1224 500.43,-27.3352"/>
</g>
<!-- Node9 -->
<g id="node9" class="node"><title>Node9</title>
<g id="a_node9"><a xlink:href="../../d2/d32/class_nx_1_1_c_model_lights.html#ac359fe47b8d1750879002fc383473056" target="_top" xlink:title=" ">
<polygon fill="white" stroke="black" points="684,-354 684,-384 800,-384 800,-354 684,-354"/>
<text text-anchor="start" x="692" y="-372" font-family="Helvetica,sans-Serif" font-size="10.00">Nx::CModelLights::plat</text>
<text text-anchor="middle" x="742" y="-361" font-family="Helvetica,sans-Serif" font-size="10.00">_get_light_direction</text>
</a>
</g>
</g>
<!-- Node8&#45;&gt;Node9 -->
<g id="edge9" class="edge"><title>Node8&#45;&gt;Node9</title>
<path fill="none" stroke="midnightblue" d="M638.677,-369C650.279,-369 662.33,-369 673.916,-369"/>
<polygon fill="midnightblue" stroke="midnightblue" points="673.955,-372.5 683.955,-369 673.955,-365.5 673.955,-372.5"/>
</g>
<!-- Node10 -->
<g id="node10" class="node"><title>Node10</title>
<g id="a_node10"><a xlink:href="../../df/d92/standard_8cpp.html#a5fc8fd1788f18ada61dfda9f171c5a1a" target="_top" xlink:title=" ">
<polygon fill="white" stroke="black" points="836,-359.5 836,-378.5 874,-378.5 874,-359.5 836,-359.5"/>
<text text-anchor="middle" x="855" y="-366.5" font-family="Helvetica,sans-Serif" font-size="10.00">printf</text>
</a>
</g>
</g>
<!-- Node9&#45;&gt;Node10 -->
<g id="edge10" class="edge"><title>Node9&#45;&gt;Node10</title>
<path fill="none" stroke="midnightblue" d="M800.126,-369C809.037,-369 817.892,-369 825.771,-369"/>
<polygon fill="midnightblue" stroke="midnightblue" points="825.824,-372.5 835.824,-369 825.824,-365.5 825.824,-372.5"/>
</g>
</g>
</svg>
