<?xml version="1.0" encoding="UTF-8" standalone="no"?>
<!DOCTYPE svg PUBLIC "-//W3C//DTD SVG 1.1//EN"
 "http://www.w3.org/Graphics/SVG/1.1/DTD/svg11.dtd">
<!-- Generated by graphviz version 2.38.0 (20140413.2041)
 -->
<!-- Title: Mdl::Score::TweakTrick Pages: 1 -->
<svg width="555pt" height="88pt"
 viewBox="0.00 0.00 555.00 88.00" xmlns="http://www.w3.org/2000/svg" xmlns:xlink="http://www.w3.org/1999/xlink">
<g id="graph0" class="graph" transform="scale(1 1) rotate(0) translate(4 84)">
<title>Mdl::Score::TweakTrick</title>
<polygon fill="white" stroke="none" points="-4,4 -4,-84 551,-84 551,4 -4,4"/>
<!-- Node1 -->
<g id="node1" class="node"><title>Node1</title>
<g id="a_node1"><a xlink:title=" ">
<polygon fill="#bfbfbf" stroke="black" points="428,-30 428,-49 547,-49 547,-30 428,-30"/>
<text text-anchor="middle" x="487.5" y="-37" font-family="Helvetica,sans-Serif" font-size="10.00">Mdl::Score::TweakTrick</text>
</a>
</g>
</g>
<!-- Node2 -->
<g id="node2" class="node"><title>Node2</title>
<g id="a_node2"><a xlink:href="../../d2/d2f/class_obj_1_1_c_skater_score_component.html#a8d9a16578f8d2d1b931313fef6252b69" target="_top" xlink:title=" ">
<polygon fill="white" stroke="black" points="229,-49.5 229,-79.5 377,-79.5 377,-49.5 229,-49.5"/>
<text text-anchor="start" x="237" y="-67.5" font-family="Helvetica,sans-Serif" font-size="10.00">Obj::CSkaterScoreComponent</text>
<text text-anchor="middle" x="303" y="-56.5" font-family="Helvetica,sans-Serif" font-size="10.00">::CallMemberFunction</text>
</a>
</g>
</g>
<!-- Node1&#45;&gt;Node2 -->
<g id="edge1" class="edge"><title>Node1&#45;&gt;Node2</title>
<path fill="none" stroke="midnightblue" d="M417.736,-48.9197C404.44,-50.7411 390.464,-52.6556 377.037,-54.495"/>
<polygon fill="midnightblue" stroke="midnightblue" points="418.319,-52.3727 427.751,-47.5478 417.369,-45.4374 418.319,-52.3727"/>
</g>
<!-- Node3 -->
<g id="node3" class="node"><title>Node3</title>
<g id="a_node3"><a xlink:href="../../d2/d61/class_obj_1_1_c_skater_core_physics_component.html#a4a19f752bea38dcfe2507160bf6dce74" target="_top" xlink:title=" ">
<polygon fill="white" stroke="black" points="214,-0.5 214,-30.5 392,-30.5 392,-0.5 214,-0.5"/>
<text text-anchor="start" x="222" y="-18.5" font-family="Helvetica,sans-Serif" font-size="10.00">Obj::CSkaterCorePhysicsComponent</text>
<text text-anchor="middle" x="303" y="-7.5" font-family="Helvetica,sans-Serif" font-size="10.00">::do_rail_physics</text>
</a>
</g>
</g>
<!-- Node1&#45;&gt;Node3 -->
<g id="edge2" class="edge"><title>Node1&#45;&gt;Node3</title>
<path fill="none" stroke="midnightblue" d="M417.729,-30.4561C409.386,-29.359 400.777,-28.2268 392.203,-27.0993"/>
<polygon fill="midnightblue" stroke="midnightblue" points="417.38,-33.9403 427.751,-31.7741 418.293,-27.0001 417.38,-33.9403"/>
</g>
<!-- Node4 -->
<g id="node4" class="node"><title>Node4</title>
<g id="a_node4"><a xlink:href="../../d2/d61/class_obj_1_1_c_skater_core_physics_component.html#ab33036e6e0db072615c967ea6392832e" target="_top" xlink:title=" ">
<polygon fill="white" stroke="black" points="0,-0.5 0,-30.5 178,-30.5 178,-0.5 0,-0.5"/>
<text text-anchor="start" x="8" y="-18.5" font-family="Helvetica,sans-Serif" font-size="10.00">Obj::CSkaterCorePhysicsComponent</text>
<text text-anchor="middle" x="89" y="-7.5" font-family="Helvetica,sans-Serif" font-size="10.00">::Update</text>
</a>
</g>
</g>
<!-- Node3&#45;&gt;Node4 -->
<g id="edge3" class="edge"><title>Node3&#45;&gt;Node4</title>
<path fill="none" stroke="midnightblue" d="M203.893,-15.5C195.3,-15.5 186.637,-15.5 178.132,-15.5"/>
<polygon fill="midnightblue" stroke="midnightblue" points="203.935,-19.0001 213.935,-15.5 203.935,-12.0001 203.935,-19.0001"/>
</g>
</g>
</svg>
