<?xml version="1.0" encoding="UTF-8" standalone="no"?>
<!DOCTYPE svg PUBLIC "-//W3C//DTD SVG 1.1//EN"
 "http://www.w3.org/Graphics/SVG/1.1/DTD/svg11.dtd">
<!-- Generated by graphviz version 2.38.0 (20140413.2041)
 -->
<!-- Title: Obj::CWeaponComponent::GetSpinModulator Pages: 1 -->
<!--zoomable 394 -->
<svg id="main" version="1.1" xmlns="http://www.w3.org/2000/svg" xmlns:xlink="http://www.w3.org/1999/xlink" xml:space="preserve" onload="init(evt)">
<style type="text/css"><![CDATA[
.edge:hover path { stroke: red; }
.edge:hover polygon { stroke: red; fill: red; }
]]></style>
<script type="text/javascript"><![CDATA[
var edges = document.getElementsByTagName('g');
if (edges && edges.length) {
  for (var i=0;i<edges.length;i++) {
    if (edges[i].id.substr(0,4)=='edge') {
      edges[i].setAttribute('class','edge');
    }
  }
}
]]></script>
        <defs>
                <circle id="rim" cx="0" cy="0" r="7"/>
                <circle id="rim2" cx="0" cy="0" r="3.5"/>
                <g id="zoomPlus">
                        <use xlink:href="#rim" fill="#404040">
                                <set attributeName="fill" to="#808080" begin="zoomplus.mouseover" end="zoomplus.mouseout"/>
                        </use>
                        <path d="M-4,0h8M0,-4v8" fill="none" stroke="white" stroke-width="1.5" pointer-events="none"/>
                </g>
                <g id="zoomMin">
                        <use xlink:href="#rim" fill="#404040">
                                <set attributeName="fill" to="#808080" begin="zoomminus.mouseover" end="zoomminus.mouseout"/>
                        </use>
                        <path d="M-4,0h8" fill="none" stroke="white" stroke-width="1.5" pointer-events="none"/>
                </g>
                <g id="dirArrow">
                        <path fill="none" stroke="white" stroke-width="1.5" d="M0,-3.0v7 M-2.5,-0.5L0,-3.0L2.5,-0.5"/>
                </g>
               <g id="resetDef">
                       <use xlink:href="#rim2" fill="#404040">
                               <set attributeName="fill" to="#808080" begin="reset.mouseover" end="reset.mouseout"/>
                       </use>
               </g>
        </defs>

<script type="text/javascript">
var viewWidth = 1506;
var viewHeight = 394;
var sectionId = 'dynsection-18';
</script>
<script xlink:href="../../svgpan.js"/>
<svg id="graph" class="graph">
<g id="viewport">
<title>Obj::CWeaponComponent::GetSpinModulator</title>
<polygon fill="white" stroke="none" points="-4,4 -4,-390 1502,-390 1502,4 -4,4"/>
<!-- Node1 -->
<g id="node1" class="node"><title>Node1</title>
<g id="a_node1"><a xlink:title=" ">
<polygon fill="#bfbfbf" stroke="black" points="1368,-117.5 1368,-147.5 1498,-147.5 1498,-117.5 1368,-117.5"/>
<text text-anchor="start" x="1376" y="-135.5" font-family="Helvetica,sans-Serif" font-size="10.00">Obj::CWeaponComponent</text>
<text text-anchor="middle" x="1433" y="-124.5" font-family="Helvetica,sans-Serif" font-size="10.00">::GetSpinModulator</text>
</a>
</g>
</g>
<!-- Node2 -->
<g id="node2" class="node"><title>Node2</title>
<g id="a_node2"><a xlink:href="../../df/dc1/class_obj_1_1_c_horse_camera_component.html#abfc8a9a9b2f23d1f7750e93bff2688a8" target="_top" xlink:title=" ">
<polygon fill="white" stroke="black" points="1179,-142.5 1179,-172.5 1332,-172.5 1332,-142.5 1179,-142.5"/>
<text text-anchor="start" x="1187" y="-160.5" font-family="Helvetica,sans-Serif" font-size="10.00">Obj::CHorseCameraComponent</text>
<text text-anchor="middle" x="1255.5" y="-149.5" font-family="Helvetica,sans-Serif" font-size="10.00">::do_reticle</text>
</a>
</g>
</g>
<!-- Node1&#45;&gt;Node2 -->
<g id="edge1" class="edge"><title>Node1&#45;&gt;Node2</title>
<path fill="none" stroke="midnightblue" d="M1357.51,-143.111C1349.12,-144.307 1340.56,-145.526 1332.15,-146.724"/>
<polygon fill="midnightblue" stroke="midnightblue" points="1358.24,-146.542 1367.65,-141.667 1357.25,-139.612 1358.24,-146.542"/>
</g>
<!-- Node4 -->
<g id="node4" class="node"><title>Node4</title>
<g id="a_node4"><a xlink:href="../../d9/d82/class_obj_1_1_c_walk_camera_component.html#a09b7ccee34fbc30175e9cd5897682609" target="_top" xlink:title=" ">
<polygon fill="white" stroke="black" points="1180.5,-93.5 1180.5,-123.5 1330.5,-123.5 1330.5,-93.5 1180.5,-93.5"/>
<text text-anchor="start" x="1188.5" y="-111.5" font-family="Helvetica,sans-Serif" font-size="10.00">Obj::CWalkCameraComponent</text>
<text text-anchor="middle" x="1255.5" y="-100.5" font-family="Helvetica,sans-Serif" font-size="10.00">::Update</text>
</a>
</g>
</g>
<!-- Node1&#45;&gt;Node4 -->
<g id="edge3" class="edge"><title>Node1&#45;&gt;Node4</title>
<path fill="none" stroke="midnightblue" d="M1357.65,-122.333C1348.71,-121.111 1339.58,-119.862 1330.65,-118.64"/>
<polygon fill="midnightblue" stroke="midnightblue" points="1357.26,-125.812 1367.65,-123.7 1358.21,-118.877 1357.26,-125.812"/>
</g>
<!-- Node3 -->
<g id="node3" class="node"><title>Node3</title>
<g id="a_node3"><a xlink:href="../../df/dc1/class_obj_1_1_c_horse_camera_component.html#a253837dfacaf05e9df845902ac087e4b" target="_top" xlink:title=" ">
<polygon fill="white" stroke="black" points="990,-142.5 990,-172.5 1143,-172.5 1143,-142.5 990,-142.5"/>
<text text-anchor="start" x="998" y="-160.5" font-family="Helvetica,sans-Serif" font-size="10.00">Obj::CHorseCameraComponent</text>
<text text-anchor="middle" x="1066.5" y="-149.5" font-family="Helvetica,sans-Serif" font-size="10.00">::Update</text>
</a>
</g>
</g>
<!-- Node2&#45;&gt;Node3 -->
<g id="edge2" class="edge"><title>Node2&#45;&gt;Node3</title>
<path fill="none" stroke="midnightblue" d="M1168.7,-157.5C1160.23,-157.5 1151.67,-157.5 1143.3,-157.5"/>
<polygon fill="midnightblue" stroke="midnightblue" points="1168.98,-161 1178.98,-157.5 1168.98,-154 1168.98,-161"/>
</g>
<!-- Node5 -->
<g id="node5" class="node"><title>Node5</title>
<g id="a_node5"><a xlink:href="../../d9/d82/class_obj_1_1_c_walk_camera_component.html#a15069c09c05567ea09e57217a4f06d6f" target="_top" xlink:title=" ">
<polygon fill="white" stroke="black" points="991.5,-93.5 991.5,-123.5 1141.5,-123.5 1141.5,-93.5 991.5,-93.5"/>
<text text-anchor="start" x="999.5" y="-111.5" font-family="Helvetica,sans-Serif" font-size="10.00">Obj::CWalkCameraComponent</text>
<text text-anchor="middle" x="1066.5" y="-100.5" font-family="Helvetica,sans-Serif" font-size="10.00">::Reset</text>
</a>
</g>
</g>
<!-- Node4&#45;&gt;Node5 -->
<g id="edge4" class="edge"><title>Node4&#45;&gt;Node5</title>
<path fill="none" stroke="midnightblue" d="M1170.08,-108.5C1160.58,-108.5 1150.95,-108.5 1141.59,-108.5"/>
<polygon fill="midnightblue" stroke="midnightblue" points="1170.32,-112 1180.32,-108.5 1170.32,-105 1170.32,-112"/>
</g>
<!-- Node6 -->
<g id="node6" class="node"><title>Node6</title>
<g id="a_node6"><a xlink:href="../../d2/d8e/class_game_net_1_1_manager.html#a5d97c66761369fbf5c68e2af4139d220" target="_top" xlink:title=" ">
<polygon fill="white" stroke="black" points="811,-93.5 811,-123.5 954,-123.5 954,-93.5 811,-93.5"/>
<text text-anchor="start" x="819" y="-111.5" font-family="Helvetica,sans-Serif" font-size="10.00">GameNet::Manager::Observe</text>
<text text-anchor="middle" x="882.5" y="-100.5" font-family="Helvetica,sans-Serif" font-size="10.00">Player</text>
</a>
</g>
</g>
<!-- Node5&#45;&gt;Node6 -->
<g id="edge5" class="edge"><title>Node5&#45;&gt;Node6</title>
<path fill="none" stroke="midnightblue" d="M981.305,-108.5C972.248,-108.5 963.101,-108.5 954.224,-108.5"/>
<polygon fill="midnightblue" stroke="midnightblue" points="981.474,-112 991.474,-108.5 981.474,-105 981.474,-112"/>
</g>
<!-- Node7 -->
<g id="node7" class="node"><title>Node7</title>
<g id="a_node7"><a xlink:href="../../d2/d8e/class_game_net_1_1_manager.html#a0271f80b729889949805d9da19492472" target="_top" xlink:title=" ">
<polygon fill="white" stroke="black" points="627.5,-227.5 627.5,-257.5 768.5,-257.5 768.5,-227.5 627.5,-227.5"/>
<text text-anchor="start" x="635.5" y="-245.5" font-family="Helvetica,sans-Serif" font-size="10.00">GameNet::Manager::Destroy</text>
<text text-anchor="middle" x="698" y="-234.5" font-family="Helvetica,sans-Serif" font-size="10.00">Player</text>
</a>
</g>
</g>
<!-- Node6&#45;&gt;Node7 -->
<g id="edge6" class="edge"><title>Node6&#45;&gt;Node7</title>
<path fill="none" stroke="midnightblue" d="M852.529,-129.772C815.409,-157.027 751.993,-203.59 719.505,-227.444"/>
<polygon fill="midnightblue" stroke="midnightblue" points="854.931,-132.351 860.92,-123.611 850.788,-126.708 854.931,-132.351"/>
</g>
<!-- Node16 -->
<g id="node16" class="node"><title>Node16</title>
<g id="a_node16"><a xlink:href="../../d2/d8e/class_game_net_1_1_manager.html#a89978e410ac60206ddcdb6bfc6cddb78" target="_top" xlink:title=" ">
<polygon fill="white" stroke="black" points="192,-31 192,-50 385,-50 385,-31 192,-31"/>
<text text-anchor="middle" x="288.5" y="-38" font-family="Helvetica,sans-Serif" font-size="10.00">GameNet::Manager::EnterObserverMode</text>
</a>
</g>
</g>
<!-- Node6&#45;&gt;Node16 -->
<g id="edge23" class="edge"><title>Node6&#45;&gt;Node16</title>
<path fill="none" stroke="midnightblue" d="M800.821,-103.708C749.299,-100.302 681.123,-95.1532 621,-88.5 524.619,-77.8346 413.149,-60.698 347.138,-50.0455"/>
<polygon fill="midnightblue" stroke="midnightblue" points="800.689,-107.207 810.896,-104.366 801.145,-100.222 800.689,-107.207"/>
</g>
<!-- Node24 -->
<g id="node24" class="node"><title>Node24</title>
<g id="a_node24"><a xlink:href="../../d2/d8e/class_game_net_1_1_manager.html#ab7105b82dd3952541aea30d1428a268d" target="_top" xlink:title=" ">
<polygon fill="white" stroke="black" points="621,-328 621,-347 775,-347 775,-328 621,-328"/>
<text text-anchor="middle" x="698" y="-335" font-family="Helvetica,sans-Serif" font-size="10.00">GameNet::Manager::NewPlayer</text>
</a>
</g>
</g>
<!-- Node6&#45;&gt;Node24 -->
<g id="edge24" class="edge"><title>Node6&#45;&gt;Node24</title>
<path fill="none" stroke="midnightblue" d="M867.835,-132.554C848.974,-164.818 812.968,-223.177 775,-267.5 754.694,-291.205 726.882,-315.024 711.147,-327.851"/>
<polygon fill="midnightblue" stroke="midnightblue" points="870.921,-134.208 872.904,-123.801 864.864,-130.7 870.921,-134.208"/>
</g>
<!-- Node25 -->
<g id="node25" class="node"><title>Node25</title>
<g id="a_node25"><a xlink:href="../../d2/d8e/class_game_net_1_1_manager.html#adef56da47de9c9502b3770007c246ba8" target="_top" xlink:title=" ">
<polygon fill="white" stroke="black" points="631.5,-49.5 631.5,-79.5 764.5,-79.5 764.5,-49.5 631.5,-49.5"/>
<text text-anchor="start" x="639.5" y="-67.5" font-family="Helvetica,sans-Serif" font-size="10.00">GameNet::Manager::Script</text>
<text text-anchor="middle" x="698" y="-56.5" font-family="Helvetica,sans-Serif" font-size="10.00">ExitSurveyorMode</text>
</a>
</g>
</g>
<!-- Node6&#45;&gt;Node25 -->
<g id="edge26" class="edge"><title>Node6&#45;&gt;Node25</title>
<path fill="none" stroke="midnightblue" d="M809.425,-91.1231C793.522,-87.2888 776.804,-83.2582 761.325,-79.5262"/>
<polygon fill="midnightblue" stroke="midnightblue" points="808.662,-94.5394 819.204,-93.4808 810.303,-87.7344 808.662,-94.5394"/>
</g>
<!-- Node26 -->
<g id="node26" class="node"><title>Node26</title>
<g id="a_node26"><a xlink:href="../../d3/d76/class_game_net_1_1_player_info.html#adcae25271385a368a77410cb5d0b7225" target="_top" xlink:title=" ">
<polygon fill="white" stroke="black" points="644.5,-0.5 644.5,-30.5 751.5,-30.5 751.5,-0.5 644.5,-0.5"/>
<text text-anchor="start" x="652.5" y="-18.5" font-family="Helvetica,sans-Serif" font-size="10.00">GameNet::PlayerInfo</text>
<text text-anchor="middle" x="698" y="-7.5" font-family="Helvetica,sans-Serif" font-size="10.00">::~PlayerInfo</text>
</a>
</g>
</g>
<!-- Node6&#45;&gt;Node26 -->
<g id="edge27" class="edge"><title>Node6&#45;&gt;Node26</title>
<path fill="none" stroke="midnightblue" d="M853.291,-87.2147C832.502,-72.2943 803.075,-52.7303 775,-39.5 767.615,-36.0199 759.598,-32.8692 751.631,-30.0808"/>
<polygon fill="midnightblue" stroke="midnightblue" points="851.497,-90.2383 861.642,-93.2929 855.616,-84.5785 851.497,-90.2383"/>
</g>
<!-- Node8 -->
<g id="node8" class="node"><title>Node8</title>
<g id="a_node8"><a xlink:href="../../da/d57/class_game_net_1_1_server_info.html#a07e44ce925310f4f0fc84b7a7da1cc3d" target="_top" xlink:title=" ">
<polygon fill="white" stroke="black" points="450,-202.5 450,-232.5 556,-232.5 556,-202.5 450,-202.5"/>
<text text-anchor="start" x="458" y="-220.5" font-family="Helvetica,sans-Serif" font-size="10.00">GameNet::ServerInfo</text>
<text text-anchor="middle" x="503" y="-209.5" font-family="Helvetica,sans-Serif" font-size="10.00">::ClearPlayerNames</text>
</a>
</g>
</g>
<!-- Node7&#45;&gt;Node8 -->
<g id="edge7" class="edge"><title>Node7&#45;&gt;Node8</title>
<path fill="none" stroke="midnightblue" d="M617.272,-232.173C596.591,-229.494 574.85,-226.677 556.006,-224.237"/>
<polygon fill="midnightblue" stroke="midnightblue" points="616.956,-235.661 627.323,-233.474 617.855,-228.719 616.956,-235.661"/>
</g>
<!-- Node12 -->
<g id="node12" class="node"><title>Node12</title>
<g id="a_node12"><a xlink:href="../../d2/d8e/class_game_net_1_1_manager.html#a69c50fe6e70eaaff4082694c14034b78" target="_top" xlink:title=" ">
<polygon fill="white" stroke="black" points="437,-349.5 437,-379.5 569,-379.5 569,-349.5 437,-349.5"/>
<text text-anchor="start" x="445" y="-367.5" font-family="Helvetica,sans-Serif" font-size="10.00">GameNet::Manager::Client</text>
<text text-anchor="middle" x="503" y="-356.5" font-family="Helvetica,sans-Serif" font-size="10.00">AddNewPlayer</text>
</a>
</g>
</g>
<!-- Node7&#45;&gt;Node12 -->
<g id="edge11" class="edge"><title>Node7&#45;&gt;Node12</title>
<path fill="none" stroke="midnightblue" d="M676.886,-265.044C655.96,-287.21 621.238,-320.541 585,-340.5 578.833,-343.896 572.132,-346.863 565.312,-349.441"/>
<polygon fill="midnightblue" stroke="midnightblue" points="679.456,-267.42 683.692,-257.709 674.325,-262.658 679.456,-267.42"/>
</g>
<!-- Node13 -->
<g id="node13" class="node"><title>Node13</title>
<g id="a_node13"><a xlink:href="../../d2/d8e/class_game_net_1_1_manager.html#afe2b8603d40d7478b9823af386524641" target="_top" xlink:title=" ">
<polygon fill="white" stroke="black" points="425.5,-137 425.5,-156 580.5,-156 580.5,-137 425.5,-137"/>
<text text-anchor="middle" x="503" y="-144" font-family="Helvetica,sans-Serif" font-size="10.00">GameNet::Manager::DropPlayer</text>
</a>
</g>
</g>
<!-- Node7&#45;&gt;Node13 -->
<g id="edge12" class="edge"><title>Node7&#45;&gt;Node13</title>
<path fill="none" stroke="midnightblue" d="M657.275,-222.74C616.4,-202.409 554.435,-171.587 523.296,-156.098"/>
<polygon fill="midnightblue" stroke="midnightblue" points="655.906,-225.969 666.419,-227.289 659.024,-219.701 655.906,-225.969"/>
</g>
<!-- Node19 -->
<g id="node19" class="node"><title>Node19</title>
<g id="a_node19"><a xlink:href="../../d2/d8e/class_game_net_1_1_manager.html#a23f65b1f3223e83ab74672bfdc6f0772" target="_top" xlink:title=" ">
<polygon fill="white" stroke="black" points="441.5,-300.5 441.5,-330.5 564.5,-330.5 564.5,-300.5 441.5,-300.5"/>
<text text-anchor="start" x="449.5" y="-318.5" font-family="Helvetica,sans-Serif" font-size="10.00">GameNet::Manager::free</text>
<text text-anchor="middle" x="503" y="-307.5" font-family="Helvetica,sans-Serif" font-size="10.00">_all_players</text>
</a>
</g>
</g>
<!-- Node7&#45;&gt;Node19 -->
<g id="edge18" class="edge"><title>Node7&#45;&gt;Node19</title>
<path fill="none" stroke="midnightblue" d="M656.294,-261.766C635.262,-271.347 609.03,-282.722 585,-291.5 576.459,-294.62 567.303,-297.637 558.333,-300.417"/>
<polygon fill="midnightblue" stroke="midnightblue" points="657.94,-264.862 665.565,-257.507 655.017,-258.501 657.94,-264.862"/>
</g>
<!-- Node23 -->
<g id="node23" class="node"><title>Node23</title>
<g id="a_node23"><a xlink:href="../../d2/d8e/class_game_net_1_1_manager.html#ae3e7598416472836a80ca316a5ba25e9" target="_top" xlink:title=" ">
<polygon fill="white" stroke="black" points="421,-251.5 421,-281.5 585,-281.5 585,-251.5 421,-251.5"/>
<text text-anchor="start" x="429" y="-269.5" font-family="Helvetica,sans-Serif" font-size="10.00">GameNet::Manager::LoadPending</text>
<text text-anchor="middle" x="503" y="-258.5" font-family="Helvetica,sans-Serif" font-size="10.00">Players</text>
</a>
</g>
</g>
<!-- Node7&#45;&gt;Node23 -->
<g id="edge22" class="edge"><title>Node7&#45;&gt;Node23</title>
<path fill="none" stroke="midnightblue" d="M617.239,-252.418C606.614,-253.74 595.71,-255.096 585.063,-256.42"/>
<polygon fill="midnightblue" stroke="midnightblue" points="617.831,-255.872 627.323,-251.165 616.967,-248.925 617.831,-255.872"/>
</g>
<!-- Node9 -->
<g id="node9" class="node"><title>Node9</title>
<g id="a_node9"><a xlink:href="../../d2/d8e/class_game_net_1_1_manager.html#a287c15a22c6434097c2a3245e866202c" target="_top" xlink:title=" ">
<polygon fill="white" stroke="black" points="232,-265.5 232,-295.5 345,-295.5 345,-265.5 232,-265.5"/>
<text text-anchor="start" x="240" y="-283.5" font-family="Helvetica,sans-Serif" font-size="10.00">GameNet::Manager::s</text>
<text text-anchor="middle" x="288.5" y="-272.5" font-family="Helvetica,sans-Serif" font-size="10.00">_server_list_callback</text>
</a>
</g>
</g>
<!-- Node8&#45;&gt;Node9 -->
<g id="edge8" class="edge"><title>Node8&#45;&gt;Node9</title>
<path fill="none" stroke="midnightblue" d="M441.263,-235.728C434.405,-237.94 427.537,-240.224 421,-242.5 404.788,-248.146 401.357,-251.287 385,-256.5 372.214,-260.575 358.29,-264.408 345.127,-267.764"/>
<polygon fill="midnightblue" stroke="midnightblue" points="442.794,-238.914 451.264,-232.549 440.674,-232.243 442.794,-238.914"/>
</g>
<!-- Node11 -->
<g id="node11" class="node"><title>Node11</title>
<g id="a_node11"><a xlink:href="../../da/d57/class_game_net_1_1_server_info.html#a944c80046f0c6233af499ce17f2df5bc" target="_top" xlink:title=" ">
<polygon fill="white" stroke="black" points="235.5,-216.5 235.5,-246.5 341.5,-246.5 341.5,-216.5 235.5,-216.5"/>
<text text-anchor="start" x="243.5" y="-234.5" font-family="Helvetica,sans-Serif" font-size="10.00">GameNet::ServerInfo</text>
<text text-anchor="middle" x="288.5" y="-223.5" font-family="Helvetica,sans-Serif" font-size="10.00">::~ServerInfo</text>
</a>
</g>
</g>
<!-- Node8&#45;&gt;Node11 -->
<g id="edge10" class="edge"><title>Node8&#45;&gt;Node11</title>
<path fill="none" stroke="midnightblue" d="M439.438,-221.622C408.303,-223.673 371.108,-226.123 341.553,-228.071"/>
<polygon fill="midnightblue" stroke="midnightblue" points="439.996,-225.093 449.744,-220.943 439.536,-218.108 439.996,-225.093"/>
</g>
<!-- Node10 -->
<g id="node10" class="node"><title>Node10</title>
<g id="a_node10"><a xlink:href="../../d2/d8e/class_game_net_1_1_manager.html#a377cde344864735bd5593ff895005482" target="_top" xlink:title=" ">
<polygon fill="white" stroke="black" points="8,-265.5 8,-295.5 148,-295.5 148,-265.5 8,-265.5"/>
<text text-anchor="start" x="16" y="-283.5" font-family="Helvetica,sans-Serif" font-size="10.00">GameNet::Manager::Refresh</text>
<text text-anchor="middle" x="78" y="-272.5" font-family="Helvetica,sans-Serif" font-size="10.00">ServerList</text>
</a>
</g>
</g>
<!-- Node9&#45;&gt;Node10 -->
<g id="edge9" class="edge"><title>Node9&#45;&gt;Node10</title>
<path fill="none" stroke="midnightblue" d="M221.728,-280.5C198.329,-280.5 171.922,-280.5 148.241,-280.5"/>
<polygon fill="midnightblue" stroke="midnightblue" points="221.9,-284 231.9,-280.5 221.9,-277 221.9,-284"/>
</g>
<!-- Node14 -->
<g id="node14" class="node"><title>Node14</title>
<g id="a_node14"><a xlink:href="../../d2/d8e/class_game_net_1_1_manager.html#a50b612961c727c2ca79d50653b3986c2" target="_top" xlink:title=" ">
<polygon fill="white" stroke="black" points="207,-167.5 207,-197.5 370,-197.5 370,-167.5 207,-167.5"/>
<text text-anchor="start" x="215" y="-185.5" font-family="Helvetica,sans-Serif" font-size="10.00">GameNet::Manager::DropPartially</text>
<text text-anchor="middle" x="288.5" y="-174.5" font-family="Helvetica,sans-Serif" font-size="10.00">LoadedPlayers</text>
</a>
</g>
</g>
<!-- Node13&#45;&gt;Node14 -->
<g id="edge13" class="edge"><title>Node13&#45;&gt;Node14</title>
<path fill="none" stroke="midnightblue" d="M435.911,-157.696C415.156,-161.212 392.003,-165.135 370.346,-168.804"/>
<polygon fill="midnightblue" stroke="midnightblue" points="436.615,-161.127 445.89,-156.006 435.446,-154.225 436.615,-161.127"/>
</g>
<!-- Node13&#45;&gt;Node16 -->
<g id="edge15" class="edge"><title>Node13&#45;&gt;Node16</title>
<path fill="none" stroke="midnightblue" d="M439.006,-133.194C432.562,-130.302 426.407,-126.783 421,-122.5 395.72,-102.478 411.171,-78.3432 385,-59.5 379.65,-55.6478 373.713,-52.5283 367.493,-50.0077"/>
<polygon fill="midnightblue" stroke="midnightblue" points="438.016,-136.566 448.602,-136.997 440.596,-130.058 438.016,-136.566"/>
</g>
<!-- Node17 -->
<g id="node17" class="node"><title>Node17</title>
<g id="a_node17"><a xlink:href="../../d2/d8e/class_game_net_1_1_manager.html#a4eb962fbf1198b58f50def3f28bdd37d" target="_top" xlink:title=" ">
<polygon fill="white" stroke="black" points="222,-118.5 222,-148.5 355,-148.5 355,-118.5 222,-118.5"/>
<text text-anchor="start" x="230" y="-136.5" font-family="Helvetica,sans-Serif" font-size="10.00">GameNet::Manager::Script</text>
<text text-anchor="middle" x="288.5" y="-125.5" font-family="Helvetica,sans-Serif" font-size="10.00">BanPlayer</text>
</a>
</g>
</g>
<!-- Node13&#45;&gt;Node17 -->
<g id="edge16" class="edge"><title>Node13&#45;&gt;Node17</title>
<path fill="none" stroke="midnightblue" d="M415.223,-141.191C395.187,-139.966 374.193,-138.681 355.227,-137.521"/>
<polygon fill="midnightblue" stroke="midnightblue" points="415.088,-144.689 425.283,-141.807 415.515,-137.703 415.088,-144.689"/>
</g>
<!-- Node18 -->
<g id="node18" class="node"><title>Node18</title>
<g id="a_node18"><a xlink:href="../../d2/d8e/class_game_net_1_1_manager.html#a250b8749b2e4409df54555e0c50924aa" target="_top" xlink:title=" ">
<polygon fill="white" stroke="black" points="222,-69.5 222,-99.5 355,-99.5 355,-69.5 222,-69.5"/>
<text text-anchor="start" x="230" y="-87.5" font-family="Helvetica,sans-Serif" font-size="10.00">GameNet::Manager::Script</text>
<text text-anchor="middle" x="288.5" y="-76.5" font-family="Helvetica,sans-Serif" font-size="10.00">KickPlayer</text>
</a>
</g>
</g>
<!-- Node13&#45;&gt;Node18 -->
<g id="edge17" class="edge"><title>Node13&#45;&gt;Node18</title>
<path fill="none" stroke="midnightblue" d="M457.715,-134.099C445.736,-130.549 432.818,-126.541 421,-122.5 404.756,-116.946 401.357,-113.713 385,-108.5 375.064,-105.333 364.441,-102.313 354.023,-99.5491"/>
<polygon fill="midnightblue" stroke="midnightblue" points="456.932,-137.517 467.512,-136.964 458.896,-130.798 456.932,-137.517"/>
</g>
<!-- Node15 -->
<g id="node15" class="node"><title>Node15</title>
<g id="a_node15"><a xlink:href="../../d2/d8e/class_game_net_1_1_manager.html#a0f1d80906babafc9c3e4da5ac5497936" target="_top" xlink:title=" ">
<polygon fill="white" stroke="black" points="11.5,-167.5 11.5,-197.5 144.5,-197.5 144.5,-167.5 11.5,-167.5"/>
<text text-anchor="start" x="19.5" y="-185.5" font-family="Helvetica,sans-Serif" font-size="10.00">GameNet::Manager::Script</text>
<text text-anchor="middle" x="78" y="-174.5" font-family="Helvetica,sans-Serif" font-size="10.00">DropPendingPlayers</text>
</a>
</g>
</g>
<!-- Node14&#45;&gt;Node15 -->
<g id="edge14" class="edge"><title>Node14&#45;&gt;Node15</title>
<path fill="none" stroke="midnightblue" d="M196.646,-182.5C179.124,-182.5 161.088,-182.5 144.564,-182.5"/>
<polygon fill="midnightblue" stroke="midnightblue" points="196.888,-186 206.888,-182.5 196.888,-179 196.888,-186"/>
</g>
<!-- Node20 -->
<g id="node20" class="node"><title>Node20</title>
<g id="a_node20"><a xlink:href="../../d2/d8e/class_game_net_1_1_manager.html#aa7e48fe50a1d0f8edd499d1871fe7ced" target="_top" xlink:title=" ">
<polygon fill="white" stroke="black" points="217,-314.5 217,-344.5 360,-344.5 360,-314.5 217,-314.5"/>
<text text-anchor="start" x="225" y="-332.5" font-family="Helvetica,sans-Serif" font-size="10.00">GameNet::Manager::Cleanup</text>
<text text-anchor="middle" x="288.5" y="-321.5" font-family="Helvetica,sans-Serif" font-size="10.00">Players</text>
</a>
</g>
</g>
<!-- Node19&#45;&gt;Node20 -->
<g id="edge19" class="edge"><title>Node19&#45;&gt;Node20</title>
<path fill="none" stroke="midnightblue" d="M431.114,-320.17C408.335,-321.671 383.108,-323.333 360.332,-324.833"/>
<polygon fill="midnightblue" stroke="midnightblue" points="431.642,-323.643 441.39,-319.493 431.182,-316.658 431.642,-323.643"/>
</g>
<!-- Node21 -->
<g id="node21" class="node"><title>Node21</title>
<g id="a_node21"><a xlink:href="../../d2/d8e/class_game_net_1_1_manager.html#a68f3440c541cd98cf65f0add7bcc4041" target="_top" xlink:title=" ">
<polygon fill="white" stroke="black" points="0,-355.5 0,-385.5 156,-385.5 156,-355.5 0,-355.5"/>
<text text-anchor="start" x="8" y="-373.5" font-family="Helvetica,sans-Serif" font-size="10.00">GameNet::Manager::Disconnect</text>
<text text-anchor="middle" x="78" y="-362.5" font-family="Helvetica,sans-Serif" font-size="10.00">FromServer</text>
</a>
</g>
</g>
<!-- Node20&#45;&gt;Node21 -->
<g id="edge20" class="edge"><title>Node20&#45;&gt;Node21</title>
<path fill="none" stroke="midnightblue" d="M207.07,-345.316C190.157,-348.642 172.36,-352.141 155.592,-355.439"/>
<polygon fill="midnightblue" stroke="midnightblue" points="207.775,-348.745 216.911,-343.381 206.424,-341.876 207.775,-348.745"/>
</g>
<!-- Node22 -->
<g id="node22" class="node"><title>Node22</title>
<g id="a_node22"><a xlink:href="../../d4/d0a/namespace_mdl.html#abe544560fa8622c6524275e45c8753a1" target="_top" xlink:title=" ">
<polygon fill="white" stroke="black" points="9.5,-317 9.5,-336 146.5,-336 146.5,-317 9.5,-317"/>
<text text-anchor="middle" x="78" y="-324" font-family="Helvetica,sans-Serif" font-size="10.00">Mdl::HostQuitDialogHandler</text>
</a>
</g>
</g>
<!-- Node20&#45;&gt;Node22 -->
<g id="edge21" class="edge"><title>Node20&#45;&gt;Node22</title>
<path fill="none" stroke="midnightblue" d="M206.669,-328.337C186.845,-328.052 165.829,-327.749 146.694,-327.474"/>
<polygon fill="midnightblue" stroke="midnightblue" points="206.862,-331.84 216.911,-328.484 206.963,-324.841 206.862,-331.84"/>
</g>
<!-- Node24&#45;&gt;Node12 -->
<g id="edge25" class="edge"><title>Node24&#45;&gt;Node12</title>
<path fill="none" stroke="midnightblue" d="M618.807,-348.439C602.326,-350.745 585.105,-353.154 569.163,-355.384"/>
<polygon fill="midnightblue" stroke="midnightblue" points="619.537,-351.871 628.955,-347.019 618.567,-344.939 619.537,-351.871"/>
</g>
</g>
</svg>
        <g id="navigator" transform="translate(0 0)" fill="#404254">
                <rect fill="#f2f5e9" fill-opacity="0.5" stroke="#606060" stroke-width=".5" x="0" y="0" width="60" height="60"/>
                <use id="zoomplus" xlink:href="#zoomPlus" x="17" y="9" onmousedown="handleZoom(evt,'in')"/>
                <use id="zoomminus" xlink:href="#zoomMin" x="42" y="9" onmousedown="handleZoom(evt,'out')"/>
                <use id="reset" xlink:href="#resetDef" x="30" y="36" onmousedown="handleReset()"/>
                <g id="arrowUp" xlink:href="#dirArrow" transform="translate(30 24)" onmousedown="handlePan(0,-1)">
                  <use xlink:href="#rim" fill="#404040">
                        <set attributeName="fill" to="#808080" begin="arrowUp.mouseover" end="arrowUp.mouseout"/>
                  </use>
                  <path fill="none" stroke="white" stroke-width="1.5" d="M0,-3.0v7 M-2.5,-0.5L0,-3.0L2.5,-0.5"/>
                </g>
                <g id="arrowRight" xlink:href="#dirArrow" transform="rotate(90) translate(36 -43)" onmousedown="handlePan(1,0)">
                  <use xlink:href="#rim" fill="#404040">
                        <set attributeName="fill" to="#808080" begin="arrowRight.mouseover" end="arrowRight.mouseout"/>
                  </use>
                  <path fill="none" stroke="white" stroke-width="1.5" d="M0,-3.0v7 M-2.5,-0.5L0,-3.0L2.5,-0.5"/>
                </g>
                <g id="arrowDown" xlink:href="#dirArrow" transform="rotate(180) translate(-30 -48)" onmousedown="handlePan(0,1)">
                  <use xlink:href="#rim" fill="#404040">
                        <set attributeName="fill" to="#808080" begin="arrowDown.mouseover" end="arrowDown.mouseout"/>
                  </use>
                  <path fill="none" stroke="white" stroke-width="1.5" d="M0,-3.0v7 M-2.5,-0.5L0,-3.0L2.5,-0.5"/>
                </g>
                <g id="arrowLeft" xlink:href="#dirArrow" transform="rotate(270) translate(-36 17)" onmousedown="handlePan(-1,0)">
                  <use xlink:href="#rim" fill="#404040">
                        <set attributeName="fill" to="#808080" begin="arrowLeft.mouseover" end="arrowLeft.mouseout"/>
                  </use>
                  <path fill="none" stroke="white" stroke-width="1.5" d="M0,-3.0v7 M-2.5,-0.5L0,-3.0L2.5,-0.5"/>
                </g>
        </g>
        <svg viewBox="0 0 15 15" width="100%" height="30px" preserveAspectRatio="xMaxYMin meet">
         <g id="arrow_out" transform="scale(0.3 0.3)">
          <a xlink:href="class_obj_1_1_c_weapon_component_a41efe3b9a373e43872db65d243d91afb_icgraph_org.svg" target="_base">
           <rect id="button" ry="5" rx="5" y="6" x="6" height="38" width="38"
                fill="#f2f5e9" fill-opacity="0.5" stroke="#606060" stroke-width="1.0"/>
           <path id="arrow"
             d="M 11.500037,31.436501 C 11.940474,20.09759 22.043105,11.32322 32.158766,21.979434 L 37.068811,17.246167 C 37.068811,17.246167 37.088388,32 37.088388,32 L 22.160133,31.978069 C 22.160133,31.978069 26.997745,27.140456 26.997745,27.140456 C 18.528582,18.264221 13.291696,25.230495 11.500037,31.436501 z"
             style="fill:#404040;"/>
          </a>
         </g>
        </svg>
</svg>
