<?xml version="1.0" encoding="UTF-8" standalone="no"?>
<!DOCTYPE svg PUBLIC "-//W3C//DTD SVG 1.1//EN"
 "http://www.w3.org/Graphics/SVG/1.1/DTD/svg11.dtd">
<!-- Generated by graphviz version 2.38.0 (20140413.2041)
 -->
<!-- Title: Sfx::CSfxManager::RemovePositionalSoundFromList Pages: 1 -->
<svg width="488pt" height="137pt"
 viewBox="0.00 0.00 488.00 137.00" xmlns="http://www.w3.org/2000/svg" xmlns:xlink="http://www.w3.org/1999/xlink">
<g id="graph0" class="graph" transform="scale(1 1) rotate(0) translate(4 133)">
<title>Sfx::CSfxManager::RemovePositionalSoundFromList</title>
<polygon fill="white" stroke="none" points="-4,4 -4,-133 484,-133 484,4 -4,4"/>
<!-- Node1 -->
<g id="node1" class="node"><title>Node1</title>
<g id="a_node1"><a xlink:title=" ">
<polygon fill="#bfbfbf" stroke="black" points="344,-49.5 344,-79.5 480,-79.5 480,-49.5 344,-49.5"/>
<text text-anchor="start" x="352" y="-67.5" font-family="Helvetica,sans-Serif" font-size="10.00">Sfx::CSfxManager::Remove</text>
<text text-anchor="middle" x="412" y="-56.5" font-family="Helvetica,sans-Serif" font-size="10.00">PositionalSoundFromList</text>
</a>
</g>
</g>
<!-- Node2 -->
<g id="node2" class="node"><title>Node2</title>
<g id="a_node2"><a xlink:href="../../d2/d5f/class_sfx_1_1_c_sfx_manager.html#a0d69eeea52d28d0e0452d747fe5758e5" target="_top" xlink:title=" ">
<polygon fill="white" stroke="black" points="168,-98.5 168,-128.5 298,-128.5 298,-98.5 168,-98.5"/>
<text text-anchor="start" x="176" y="-116.5" font-family="Helvetica,sans-Serif" font-size="10.00">Sfx::CSfxManager::Object</text>
<text text-anchor="middle" x="233" y="-105.5" font-family="Helvetica,sans-Serif" font-size="10.00">BeingRemoved</text>
</a>
</g>
</g>
<!-- Node1&#45;&gt;Node2 -->
<g id="edge1" class="edge"><title>Node1&#45;&gt;Node2</title>
<path fill="none" stroke="midnightblue" d="M346.625,-82.3212C327.515,-87.6118 306.779,-93.3522 288.37,-98.4484"/>
<polygon fill="midnightblue" stroke="midnightblue" points="347.746,-85.6427 356.45,-79.6014 345.879,-78.8964 347.746,-85.6427"/>
</g>
<!-- Node3 -->
<g id="node3" class="node"><title>Node3</title>
<g id="a_node3"><a xlink:href="../../d2/d5f/class_sfx_1_1_c_sfx_manager.html#a50f71b3631e03b514c52e093b34827bb" target="_top" xlink:title=" ">
<polygon fill="white" stroke="black" points="158,-49.5 158,-79.5 308,-79.5 308,-49.5 158,-49.5"/>
<text text-anchor="start" x="166" y="-67.5" font-family="Helvetica,sans-Serif" font-size="10.00">Sfx::CSfxManager::StopObject</text>
<text text-anchor="middle" x="233" y="-56.5" font-family="Helvetica,sans-Serif" font-size="10.00">Sound</text>
</a>
</g>
</g>
<!-- Node1&#45;&gt;Node3 -->
<g id="edge2" class="edge"><title>Node1&#45;&gt;Node3</title>
<path fill="none" stroke="midnightblue" d="M333.629,-64.5C325.192,-64.5 316.618,-64.5 308.22,-64.5"/>
<polygon fill="midnightblue" stroke="midnightblue" points="333.832,-68.0001 343.832,-64.5 333.831,-61.0001 333.832,-68.0001"/>
</g>
<!-- Node5 -->
<g id="node5" class="node"><title>Node5</title>
<g id="a_node5"><a xlink:href="../../d2/d5f/class_sfx_1_1_c_sfx_manager.html#a8696d270bc31eabbf73b0690bc9886bb" target="_top" xlink:title=" ">
<polygon fill="white" stroke="black" points="167,-0.5 167,-30.5 299,-30.5 299,-0.5 167,-0.5"/>
<text text-anchor="start" x="175" y="-18.5" font-family="Helvetica,sans-Serif" font-size="10.00">Sfx::CSfxManager::Update</text>
<text text-anchor="middle" x="233" y="-7.5" font-family="Helvetica,sans-Serif" font-size="10.00">PositionalSounds</text>
</a>
</g>
</g>
<!-- Node1&#45;&gt;Node5 -->
<g id="edge4" class="edge"><title>Node1&#45;&gt;Node5</title>
<path fill="none" stroke="midnightblue" d="M346.625,-46.6788C327.515,-41.3882 306.779,-35.6478 288.37,-30.5516"/>
<polygon fill="midnightblue" stroke="midnightblue" points="345.879,-50.1036 356.45,-49.3986 347.746,-43.3573 345.879,-50.1036"/>
</g>
<!-- Node4 -->
<g id="node4" class="node"><title>Node4</title>
<g id="a_node4"><a xlink:href="../../dd/dc2/class_obj_1_1_c_sound_component.html#a999fef0d94165d45df432c4a148ce4c2" target="_top" xlink:title=" ">
<polygon fill="white" stroke="black" points="0,-49.5 0,-79.5 122,-79.5 122,-49.5 0,-49.5"/>
<text text-anchor="start" x="8" y="-67.5" font-family="Helvetica,sans-Serif" font-size="10.00">Obj::CSoundComponent</text>
<text text-anchor="middle" x="61" y="-56.5" font-family="Helvetica,sans-Serif" font-size="10.00">::CallMemberFunction</text>
</a>
</g>
</g>
<!-- Node3&#45;&gt;Node4 -->
<g id="edge3" class="edge"><title>Node3&#45;&gt;Node4</title>
<path fill="none" stroke="midnightblue" d="M147.765,-64.5C139.084,-64.5 130.392,-64.5 122.051,-64.5"/>
<polygon fill="midnightblue" stroke="midnightblue" points="147.93,-68.0001 157.93,-64.5 147.93,-61.0001 147.93,-68.0001"/>
</g>
<!-- Node6 -->
<g id="node6" class="node"><title>Node6</title>
<g id="a_node6"><a xlink:href="../../dc/dd3/class_mdl_1_1_front_end.html#a2909c78542c4a9a518d5025f2ed312de" target="_top" xlink:title=" ">
<polygon fill="white" stroke="black" points="4.5,-6 4.5,-25 117.5,-25 117.5,-6 4.5,-6"/>
<text text-anchor="middle" x="61" y="-13" font-family="Helvetica,sans-Serif" font-size="10.00">Mdl::FrontEnd::update</text>
</a>
</g>
</g>
<!-- Node5&#45;&gt;Node6 -->
<g id="edge5" class="edge"><title>Node5&#45;&gt;Node6</title>
<path fill="none" stroke="midnightblue" d="M156.397,-15.5C143.367,-15.5 130.039,-15.5 117.657,-15.5"/>
<polygon fill="midnightblue" stroke="midnightblue" points="156.76,-19.0001 166.76,-15.5 156.76,-12.0001 156.76,-19.0001"/>
</g>
</g>
</svg>
