<?xml version="1.0" encoding="UTF-8" standalone="no"?>
<!DOCTYPE svg PUBLIC "-//W3C//DTD SVG 1.1//EN"
 "http://www.w3.org/Graphics/SVG/1.1/DTD/svg11.dtd">
<!-- Generated by graphviz version 2.38.0 (20140413.2041)
 -->
<!-- Title: Ass::CRefAsset::LoadFinished Pages: 1 -->
<svg width="480pt" height="66pt"
 viewBox="0.00 0.00 480.00 66.00" xmlns="http://www.w3.org/2000/svg" xmlns:xlink="http://www.w3.org/1999/xlink">
<g id="graph0" class="graph" transform="scale(1 1) rotate(0) translate(4 62)">
<title>Ass::CRefAsset::LoadFinished</title>
<polygon fill="white" stroke="none" points="-4,4 -4,-62 476,-62 476,4 -4,4"/>
<!-- Node1 -->
<g id="node1" class="node"><title>Node1</title>
<g id="a_node1"><a xlink:title=" ">
<polygon fill="#bfbfbf" stroke="black" points="0,-19.5 0,-38.5 150,-38.5 150,-19.5 0,-19.5"/>
<text text-anchor="middle" x="75" y="-26.5" font-family="Helvetica,sans-Serif" font-size="10.00">Ass::CRefAsset::LoadFinished</text>
</a>
</g>
</g>
<!-- Node2 -->
<g id="node2" class="node"><title>Node2</title>
<g id="a_node2"><a xlink:href="../../da/d90/class_ass_1_1_c_ref_asset.html#a40cd6daaa0f7b3f13f60c951cd48866d" target="_top" xlink:title=" ">
<polygon fill="white" stroke="black" points="190,-38.5 190,-57.5 318,-57.5 318,-38.5 190,-38.5"/>
<text text-anchor="middle" x="254" y="-45.5" font-family="Helvetica,sans-Serif" font-size="10.00">Ass::CRefAsset::GetData</text>
</a>
</g>
</g>
<!-- Node1&#45;&gt;Node2 -->
<g id="edge1" class="edge"><title>Node1&#45;&gt;Node2</title>
<path fill="none" stroke="midnightblue" d="M150.038,-36.9476C159.882,-38.0042 169.97,-39.0872 179.799,-40.1423"/>
<polygon fill="midnightblue" stroke="midnightblue" points="179.61,-43.642 189.927,-41.2294 180.357,-36.682 179.61,-43.642"/>
</g>
<!-- Node4 -->
<g id="node4" class="node"><title>Node4</title>
<g id="a_node4"><a xlink:href="../../d3/da4/class_ass_1_1_c_asset.html#abf9b41d5ec85fb7323095cec1d3e15df" target="_top" xlink:title=" ">
<polygon fill="white" stroke="black" points="186,-0.5 186,-19.5 322,-19.5 322,-0.5 186,-0.5"/>
<text text-anchor="middle" x="254" y="-7.5" font-family="Helvetica,sans-Serif" font-size="10.00">Ass::CAsset::LoadFinished</text>
</a>
</g>
</g>
<!-- Node1&#45;&gt;Node4 -->
<g id="edge3" class="edge"><title>Node1&#45;&gt;Node4</title>
<path fill="none" stroke="midnightblue" d="M150.038,-21.0524C158.549,-20.1388 167.244,-19.2055 175.795,-18.2875"/>
<polygon fill="midnightblue" stroke="midnightblue" points="176.179,-21.7665 185.749,-17.2191 175.432,-14.8065 176.179,-21.7665"/>
</g>
<!-- Node3 -->
<g id="node3" class="node"><title>Node3</title>
<g id="a_node3"><a xlink:href="../../d3/da4/class_ass_1_1_c_asset.html#aa215e424295979ccde82a3873886961c" target="_top" xlink:title=" ">
<polygon fill="white" stroke="black" points="358,-38.5 358,-57.5 472,-57.5 472,-38.5 358,-38.5"/>
<text text-anchor="middle" x="415" y="-45.5" font-family="Helvetica,sans-Serif" font-size="10.00">Ass::CAsset::GetData</text>
</a>
</g>
</g>
<!-- Node2&#45;&gt;Node3 -->
<g id="edge2" class="edge"><title>Node2&#45;&gt;Node3</title>
<path fill="none" stroke="midnightblue" d="M318.298,-48C328.003,-48 338.045,-48 347.811,-48"/>
<polygon fill="midnightblue" stroke="midnightblue" points="347.863,-51.5001 357.863,-48 347.863,-44.5001 347.863,-51.5001"/>
</g>
</g>
</svg>
