<?xml version="1.0" encoding="UTF-8" standalone="no"?>
<!DOCTYPE svg PUBLIC "-//W3C//DTD SVG 1.1//EN"
 "http://www.w3.org/Graphics/SVG/1.1/DTD/svg11.dtd">
<!-- Generated by graphviz version 2.38.0 (20140413.2041)
 -->
<!-- Title: Obj::CSkaterProfile::GetStatValue Pages: 1 -->
<svg width="450pt" height="127pt"
 viewBox="0.00 0.00 450.00 127.00" xmlns="http://www.w3.org/2000/svg" xmlns:xlink="http://www.w3.org/1999/xlink">
<g id="graph0" class="graph" transform="scale(1 1) rotate(0) translate(4 123)">
<title>Obj::CSkaterProfile::GetStatValue</title>
<polygon fill="white" stroke="none" points="-4,4 -4,-123 446,-123 446,4 -4,4"/>
<!-- Node1 -->
<g id="node1" class="node"><title>Node1</title>
<g id="a_node1"><a xlink:title=" ">
<polygon fill="#bfbfbf" stroke="black" points="342,-44.5 342,-74.5 442,-74.5 442,-44.5 342,-44.5"/>
<text text-anchor="start" x="350" y="-62.5" font-family="Helvetica,sans-Serif" font-size="10.00">Obj::CSkaterProfile</text>
<text text-anchor="middle" x="392" y="-51.5" font-family="Helvetica,sans-Serif" font-size="10.00">::GetStatValue</text>
</a>
</g>
</g>
<!-- Node2 -->
<g id="node2" class="node"><title>Node2</title>
<g id="a_node2"><a xlink:href="../../d1/dff/class_obj_1_1_c_stats_manager_component.html#ae91be93a0b08671cddcac956ca1782c0" target="_top" xlink:title=" ">
<polygon fill="white" stroke="black" points="151,-88.5 151,-118.5 306,-118.5 306,-88.5 151,-88.5"/>
<text text-anchor="start" x="159" y="-106.5" font-family="Helvetica,sans-Serif" font-size="10.00">Obj::CStatsManagerComponent</text>
<text text-anchor="middle" x="228.5" y="-95.5" font-family="Helvetica,sans-Serif" font-size="10.00">::Land</text>
</a>
</g>
</g>
<!-- Node1&#45;&gt;Node2 -->
<g id="edge1" class="edge"><title>Node1&#45;&gt;Node2</title>
<path fill="none" stroke="midnightblue" d="M331.753,-75.6415C316.382,-79.8294 299.889,-84.3228 284.733,-88.4519"/>
<polygon fill="midnightblue" stroke="midnightblue" points="332.939,-78.9462 341.667,-72.9405 331.099,-72.1923 332.939,-78.9462"/>
</g>
<!-- Node4 -->
<g id="node4" class="node"><title>Node4</title>
<g id="a_node4"><a xlink:href="../../db/d54/namespace_c_funcs.html#ad07e86a7996049ae1a7146dfbe04eb43" target="_top" xlink:title=" ">
<polygon fill="white" stroke="black" points="158.5,-50 158.5,-69 298.5,-69 298.5,-50 158.5,-50"/>
<text text-anchor="middle" x="228.5" y="-57" font-family="Helvetica,sans-Serif" font-size="10.00">CFuncs::ScriptGetStatValue</text>
</a>
</g>
</g>
<!-- Node1&#45;&gt;Node4 -->
<g id="edge3" class="edge"><title>Node1&#45;&gt;Node4</title>
<path fill="none" stroke="midnightblue" d="M331.608,-59.5C320.917,-59.5 309.687,-59.5 298.745,-59.5"/>
<polygon fill="midnightblue" stroke="midnightblue" points="331.667,-63.0001 341.667,-59.5 331.667,-56.0001 331.667,-63.0001"/>
</g>
<!-- Node5 -->
<g id="node5" class="node"><title>Node5</title>
<g id="a_node5"><a xlink:href="../../db/d54/namespace_c_funcs.html#a95c798e3e6e1300bcd801a8a126448cc" target="_top" xlink:title=" ">
<polygon fill="white" stroke="black" points="163,-0.5 163,-30.5 294,-30.5 294,-0.5 163,-0.5"/>
<text text-anchor="start" x="171" y="-18.5" font-family="Helvetica,sans-Serif" font-size="10.00">CFuncs::ScriptPrintSkater</text>
<text text-anchor="middle" x="228.5" y="-7.5" font-family="Helvetica,sans-Serif" font-size="10.00">Stats2</text>
</a>
</g>
</g>
<!-- Node1&#45;&gt;Node5 -->
<g id="edge4" class="edge"><title>Node1&#45;&gt;Node5</title>
<path fill="none" stroke="midnightblue" d="M331.753,-43.3585C316.382,-39.1706 299.889,-34.6772 284.733,-30.5481"/>
<polygon fill="midnightblue" stroke="midnightblue" points="331.099,-46.8077 341.667,-46.0595 332.939,-40.0538 331.099,-46.8077"/>
</g>
<!-- Node3 -->
<g id="node3" class="node"><title>Node3</title>
<g id="a_node3"><a xlink:href="../../df/d3f/class_obj_1_1_c_trick_component.html#ac5ca1bf03fa9f5cceab427060798cace" target="_top" xlink:title=" ">
<polygon fill="white" stroke="black" points="0,-88.5 0,-118.5 115,-118.5 115,-88.5 0,-88.5"/>
<text text-anchor="start" x="8" y="-106.5" font-family="Helvetica,sans-Serif" font-size="10.00">Obj::CTrickComponent</text>
<text text-anchor="middle" x="57.5" y="-95.5" font-family="Helvetica,sans-Serif" font-size="10.00">::CallMemberFunction</text>
</a>
</g>
</g>
<!-- Node2&#45;&gt;Node3 -->
<g id="edge2" class="edge"><title>Node2&#45;&gt;Node3</title>
<path fill="none" stroke="midnightblue" d="M140.713,-103.5C132.02,-103.5 123.358,-103.5 115.098,-103.5"/>
<polygon fill="midnightblue" stroke="midnightblue" points="140.912,-107 150.912,-103.5 140.912,-100 140.912,-107"/>
</g>
</g>
</svg>
