<?xml version="1.0" encoding="UTF-8" standalone="no"?>
<!DOCTYPE svg PUBLIC "-//W3C//DTD SVG 1.1//EN"
 "http://www.w3.org/Graphics/SVG/1.1/DTD/svg11.dtd">
<!-- Generated by graphviz version 2.38.0 (20140413.2041)
 -->
<!-- Title: GX::SetFog Pages: 1 -->
<svg width="1413pt" height="242pt"
 viewBox="0.00 0.00 1413.00 241.50" xmlns="http://www.w3.org/2000/svg" xmlns:xlink="http://www.w3.org/1999/xlink">
<g id="graph0" class="graph" transform="scale(1 1) rotate(0) translate(4 237.5)">
<title>GX::SetFog</title>
<polygon fill="white" stroke="none" points="-4,4 -4,-237.5 1409,-237.5 1409,4 -4,4"/>
<!-- Node1 -->
<g id="node1" class="node"><title>Node1</title>
<g id="a_node1"><a xlink:title=" ">
<polygon fill="#bfbfbf" stroke="black" points="1338,-50 1338,-69 1405,-69 1405,-50 1338,-50"/>
<text text-anchor="middle" x="1371.5" y="-57" font-family="Helvetica,sans-Serif" font-size="10.00">GX::SetFog</text>
</a>
</g>
</g>
<!-- Node2 -->
<g id="node2" class="node"><title>Node2</title>
<g id="a_node2"><a xlink:href="../../da/d63/namespace_nx_ngc.html#a88922011160e3b3f37196de34a5dbbb0" target="_top" xlink:title=" ">
<polygon fill="white" stroke="black" points="1185,-147 1185,-166 1302,-166 1302,-147 1185,-147"/>
<text text-anchor="middle" x="1243.5" y="-154" font-family="Helvetica,sans-Serif" font-size="10.00">NxNgc::MaterialSubmit</text>
</a>
</g>
</g>
<!-- Node1&#45;&gt;Node2 -->
<g id="edge1" class="edge"><title>Node1&#45;&gt;Node2</title>
<path fill="none" stroke="midnightblue" d="M1349.78,-75.4545C1323.4,-95.7627 1278.65,-130.207 1256.99,-146.884"/>
<polygon fill="midnightblue" stroke="midnightblue" points="1352.17,-78.0289 1357.96,-69.1554 1347.9,-72.4822 1352.17,-78.0289"/>
</g>
<!-- Node5 -->
<g id="node5" class="node"><title>Node5</title>
<g id="a_node5"><a xlink:href="../../d9/d8c/class_nx_1_1_c_engine.html#ab07e94b0d679732290471b10cd1ef1b6" target="_top" xlink:title=" ">
<polygon fill="white" stroke="black" points="409,-110.5 409,-140.5 513,-140.5 513,-110.5 409,-110.5"/>
<text text-anchor="start" x="417" y="-128.5" font-family="Helvetica,sans-Serif" font-size="10.00">Nx::CEngine::s_plat</text>
<text text-anchor="middle" x="461" y="-117.5" font-family="Helvetica,sans-Serif" font-size="10.00">_render_world</text>
</a>
</g>
</g>
<!-- Node1&#45;&gt;Node5 -->
<g id="edge19" class="edge"><title>Node1&#45;&gt;Node5</title>
<path fill="none" stroke="midnightblue" d="M1327.75,-59.5C1272.92,-59.5 1174.88,-59.5 1091,-59.5 1091,-59.5 1091,-59.5 776,-59.5 674.758,-59.5 646.031,-49.6071 549,-78.5 525.307,-85.555 500.741,-99.5442 483.781,-110.434"/>
<polygon fill="midnightblue" stroke="midnightblue" points="1327.8,-63.0001 1337.8,-59.5 1327.8,-56.0001 1327.8,-63.0001"/>
</g>
<!-- Node14 -->
<g id="node14" class="node"><title>Node14</title>
<g id="a_node14"><a xlink:href="../../d6/dbc/class_nx_1_1_c_fog.html#aa568b405a738a4927c57eb64aec81d4d" target="_top" xlink:title=" ">
<polygon fill="white" stroke="black" points="1189.5,-0.5 1189.5,-30.5 1297.5,-30.5 1297.5,-0.5 1189.5,-0.5"/>
<text text-anchor="start" x="1197.5" y="-18.5" font-family="Helvetica,sans-Serif" font-size="10.00">Nx::CFog::s_plat_fog</text>
<text text-anchor="middle" x="1243.5" y="-7.5" font-family="Helvetica,sans-Serif" font-size="10.00">_update</text>
</a>
</g>
</g>
<!-- Node1&#45;&gt;Node14 -->
<g id="edge16" class="edge"><title>Node1&#45;&gt;Node14</title>
<path fill="none" stroke="midnightblue" d="M1333.59,-46.6116C1319.19,-41.5837 1302.59,-35.7845 1287.64,-30.5654"/>
<polygon fill="midnightblue" stroke="midnightblue" points="1332.57,-49.9601 1343.16,-49.9527 1334.87,-43.3514 1332.57,-49.9601"/>
</g>
<!-- Node3 -->
<g id="node3" class="node"><title>Node3</title>
<g id="a_node3"><a xlink:href="../../d1/d06/namespace_nx.html#a035b931248e4eab90d94ad0f30ea300b" target="_top" xlink:title=" ">
<polygon fill="white" stroke="black" points="1031,-204 1031,-223 1149,-223 1149,-204 1031,-204"/>
<text text-anchor="middle" x="1090" y="-211" font-family="Helvetica,sans-Serif" font-size="10.00">Nx::plat_shatter_render</text>
</a>
</g>
</g>
<!-- Node2&#45;&gt;Node3 -->
<g id="edge2" class="edge"><title>Node2&#45;&gt;Node3</title>
<path fill="none" stroke="midnightblue" d="M1207.77,-169.565C1179.93,-180.043 1141.49,-194.505 1116.44,-203.928"/>
<polygon fill="midnightblue" stroke="midnightblue" points="1209.02,-172.838 1217.14,-166.041 1206.55,-166.286 1209.02,-172.838"/>
</g>
<!-- Node9 -->
<g id="node9" class="node"><title>Node9</title>
<g id="a_node9"><a xlink:href="../../da/d63/namespace_nx_ngc.html#a5ae1c29dedccdd63897a4bb0041ecd42" target="_top" xlink:title=" ">
<polygon fill="white" stroke="black" points="1035,-147 1035,-166 1145,-166 1145,-147 1035,-147"/>
<text text-anchor="middle" x="1090" y="-154" font-family="Helvetica,sans-Serif" font-size="10.00">NxNgc::submit_mesh</text>
</a>
</g>
</g>
<!-- Node2&#45;&gt;Node9 -->
<g id="edge8" class="edge"><title>Node2&#45;&gt;Node9</title>
<path fill="none" stroke="midnightblue" d="M1174.58,-156.5C1164.69,-156.5 1154.62,-156.5 1145.06,-156.5"/>
<polygon fill="midnightblue" stroke="midnightblue" points="1174.79,-160 1184.79,-156.5 1174.79,-153 1174.79,-160"/>
</g>
<!-- Node4 -->
<g id="node4" class="node"><title>Node4</title>
<g id="a_node4"><a xlink:href="../../d1/d06/namespace_nx.html#a62f249103edc2215068ba52a6c89189e" target="_top" xlink:title=" ">
<polygon fill="white" stroke="black" points="728.5,-214 728.5,-233 825.5,-233 825.5,-214 728.5,-214"/>
<text text-anchor="middle" x="777" y="-221" font-family="Helvetica,sans-Serif" font-size="10.00">Nx::ShatterRender</text>
</a>
</g>
</g>
<!-- Node3&#45;&gt;Node4 -->
<g id="edge3" class="edge"><title>Node3&#45;&gt;Node4</title>
<path fill="none" stroke="midnightblue" d="M1020.51,-215.702C961.448,-217.601 877.692,-220.294 825.665,-221.967"/>
<polygon fill="midnightblue" stroke="midnightblue" points="1020.99,-219.189 1030.87,-215.369 1020.76,-212.192 1020.99,-219.189"/>
</g>
<!-- Node4&#45;&gt;Node5 -->
<g id="edge4" class="edge"><title>Node4&#45;&gt;Node5</title>
<path fill="none" stroke="midnightblue" d="M718.238,-226.626C670.896,-227.059 603.122,-222.707 549,-199.5 518.201,-186.294 490.151,-158.274 474.643,-140.755"/>
<polygon fill="midnightblue" stroke="midnightblue" points="718.375,-230.124 728.316,-226.459 718.259,-223.125 718.375,-230.124"/>
</g>
<!-- Node6 -->
<g id="node6" class="node"><title>Node6</title>
<g id="a_node6"><a xlink:href="../../d9/d8c/class_nx_1_1_c_engine.html#ace274d6d74746eb2398ce51e6c5a5f30" target="_top" xlink:title=" ">
<polygon fill="white" stroke="black" points="234,-116 234,-135 373,-135 373,-116 234,-116"/>
<text text-anchor="middle" x="303.5" y="-123" font-family="Helvetica,sans-Serif" font-size="10.00">Nx::CEngine::sRenderWorld</text>
</a>
</g>
</g>
<!-- Node5&#45;&gt;Node6 -->
<g id="edge5" class="edge"><title>Node5&#45;&gt;Node6</title>
<path fill="none" stroke="midnightblue" d="M398.648,-125.5C390.316,-125.5 381.722,-125.5 373.27,-125.5"/>
<polygon fill="midnightblue" stroke="midnightblue" points="398.653,-129 408.653,-125.5 398.652,-122 398.653,-129"/>
</g>
<!-- Node7 -->
<g id="node7" class="node"><title>Node7</title>
<g id="a_node7"><a xlink:href="../../d3/d66/class_mlp_1_1_manager.html#a118bb3db98dd133cea15b15c288b29f0" target="_top" xlink:title=" ">
<polygon fill="white" stroke="black" points="74,-116 74,-135 198,-135 198,-116 74,-116"/>
<text text-anchor="middle" x="136" y="-123" font-family="Helvetica,sans-Serif" font-size="10.00">Mlp::Manager::MainLoop</text>
</a>
</g>
</g>
<!-- Node6&#45;&gt;Node7 -->
<g id="edge6" class="edge"><title>Node6&#45;&gt;Node7</title>
<path fill="none" stroke="midnightblue" d="M223.714,-125.5C215.123,-125.5 206.474,-125.5 198.14,-125.5"/>
<polygon fill="midnightblue" stroke="midnightblue" points="223.751,-129 233.751,-125.5 223.751,-122 223.751,-129"/>
</g>
<!-- Node8 -->
<g id="node8" class="node"><title>Node8</title>
<g id="a_node8"><a xlink:href="../../d5/d12/_main_8cpp.html#a0e18e794c708408ef1dec237965cb73d" target="_top" xlink:title=" ">
<polygon fill="white" stroke="black" points="0,-116 0,-135 38,-135 38,-116 0,-116"/>
<text text-anchor="middle" x="19" y="-123" font-family="Helvetica,sans-Serif" font-size="10.00">main</text>
</a>
</g>
</g>
<!-- Node7&#45;&gt;Node8 -->
<g id="edge7" class="edge"><title>Node7&#45;&gt;Node8</title>
<path fill="none" stroke="midnightblue" d="M63.7713,-125.5C54.2902,-125.5 45.3381,-125.5 38.03,-125.5"/>
<polygon fill="midnightblue" stroke="midnightblue" points="63.7963,-129 73.7962,-125.5 63.7962,-122 63.7963,-129"/>
</g>
<!-- Node10 -->
<g id="node10" class="node"><title>Node10</title>
<g id="a_node10"><a xlink:href="../../da/d63/namespace_nx_ngc.html#a2ac4d6736640c6e498384d5dcb534f25" target="_top" xlink:title=" ">
<polygon fill="white" stroke="black" points="882,-147 882,-166 992,-166 992,-147 882,-147"/>
<text text-anchor="middle" x="937" y="-154" font-family="Helvetica,sans-Serif" font-size="10.00">NxNgc::render_scene</text>
</a>
</g>
</g>
<!-- Node9&#45;&gt;Node10 -->
<g id="edge9" class="edge"><title>Node9&#45;&gt;Node10</title>
<path fill="none" stroke="midnightblue" d="M1024.67,-156.5C1013.86,-156.5 1002.74,-156.5 992.218,-156.5"/>
<polygon fill="midnightblue" stroke="midnightblue" points="1024.91,-160 1034.91,-156.5 1024.91,-153 1024.91,-160"/>
</g>
<!-- Node10&#45;&gt;Node5 -->
<g id="edge15" class="edge"><title>Node10&#45;&gt;Node5</title>
<path fill="none" stroke="midnightblue" d="M872.223,-167.554C794.749,-178.841 660.572,-191.473 549,-166.5 526.677,-161.503 503.33,-150.113 486.449,-140.603"/>
<polygon fill="midnightblue" stroke="midnightblue" points="872.936,-170.987 882.308,-166.046 871.9,-164.064 872.936,-170.987"/>
</g>
<!-- Node11 -->
<g id="node11" class="node"><title>Node11</title>
<g id="a_node11"><a xlink:href="../../da/d78/class_nx_ngc_1_1_c_instance.html#ae8f235a087ae559bf2cd8c1315601edb" target="_top" xlink:title=" ">
<polygon fill="white" stroke="black" points="711,-138 711,-157 843,-157 843,-138 711,-138"/>
<text text-anchor="middle" x="777" y="-145" font-family="Helvetica,sans-Serif" font-size="10.00">NxNgc::CInstance::Render</text>
</a>
</g>
</g>
<!-- Node10&#45;&gt;Node11 -->
<g id="edge10" class="edge"><title>Node10&#45;&gt;Node11</title>
<path fill="none" stroke="midnightblue" d="M871.574,-152.83C862.183,-152.295 852.508,-151.744 843.104,-151.208"/>
<polygon fill="midnightblue" stroke="midnightblue" points="871.442,-156.328 881.625,-153.403 871.841,-149.34 871.442,-156.328"/>
</g>
<!-- Node12 -->
<g id="node12" class="node"><title>Node12</title>
<g id="a_node12"><a xlink:href="../../da/d63/namespace_nx_ngc.html#a2109727dab89700c051ae95bbcc25415" target="_top" xlink:title=" ">
<polygon fill="white" stroke="black" points="549,-138 549,-157 675,-157 675,-138 549,-138"/>
<text text-anchor="middle" x="612" y="-145" font-family="Helvetica,sans-Serif" font-size="10.00">NxNgc::render_instances</text>
</a>
</g>
</g>
<!-- Node11&#45;&gt;Node12 -->
<g id="edge11" class="edge"><title>Node11&#45;&gt;Node12</title>
<path fill="none" stroke="midnightblue" d="M700.411,-147.5C691.97,-147.5 683.444,-147.5 675.197,-147.5"/>
<polygon fill="midnightblue" stroke="midnightblue" points="700.641,-151 710.641,-147.5 700.641,-144 700.641,-151"/>
</g>
<!-- Node13 -->
<g id="node13" class="node"><title>Node13</title>
<g id="a_node13"><a xlink:href="../../da/d63/namespace_nx_ngc.html#a46b5ffe2d958df4c5e41b2412403054c" target="_top" xlink:title=" ">
<polygon fill="white" stroke="black" points="553.5,-88.5 553.5,-118.5 670.5,-118.5 670.5,-88.5 553.5,-88.5"/>
<text text-anchor="start" x="561.5" y="-106.5" font-family="Helvetica,sans-Serif" font-size="10.00">NxNgc::render_shadow</text>
<text text-anchor="middle" x="612" y="-95.5" font-family="Helvetica,sans-Serif" font-size="10.00">_targets</text>
</a>
</g>
</g>
<!-- Node11&#45;&gt;Node13 -->
<g id="edge13" class="edge"><title>Node11&#45;&gt;Node13</title>
<path fill="none" stroke="midnightblue" d="M730.92,-135.331C711.699,-130.143 689.074,-124.035 668.81,-118.565"/>
<polygon fill="midnightblue" stroke="midnightblue" points="730.065,-138.726 740.631,-137.953 731.889,-131.967 730.065,-138.726"/>
</g>
<!-- Node12&#45;&gt;Node5 -->
<g id="edge12" class="edge"><title>Node12&#45;&gt;Node5</title>
<path fill="none" stroke="midnightblue" d="M538.644,-136.816C530.061,-135.549 521.441,-134.276 513.238,-133.065"/>
<polygon fill="midnightblue" stroke="midnightblue" points="538.27,-140.299 548.674,-138.297 539.292,-133.374 538.27,-140.299"/>
</g>
<!-- Node13&#45;&gt;Node5 -->
<g id="edge14" class="edge"><title>Node13&#45;&gt;Node5</title>
<path fill="none" stroke="midnightblue" d="M543.33,-113.492C533.182,-114.99 522.863,-116.514 513.136,-117.95"/>
<polygon fill="midnightblue" stroke="midnightblue" points="544.011,-116.929 553.393,-112.006 542.989,-110.004 544.011,-116.929"/>
</g>
<!-- Node15 -->
<g id="node15" class="node"><title>Node15</title>
<g id="a_node15"><a xlink:href="../../d6/dbc/class_nx_1_1_c_fog.html#ae877907fcac23bb059f40285d5df2d99" target="_top" xlink:title=" ">
<polygon fill="white" stroke="black" points="879,-10 879,-29 995,-29 995,-10 879,-10"/>
<text text-anchor="middle" x="937" y="-17" font-family="Helvetica,sans-Serif" font-size="10.00">Nx::CFog::sFogUpdate</text>
</a>
</g>
</g>
<!-- Node14&#45;&gt;Node15 -->
<g id="edge17" class="edge"><title>Node14&#45;&gt;Node15</title>
<path fill="none" stroke="midnightblue" d="M1179.27,-16.3306C1125.01,-17.0434 1047.49,-18.0617 995.084,-18.7501"/>
<polygon fill="midnightblue" stroke="midnightblue" points="1179.51,-19.8279 1189.46,-16.1967 1179.42,-12.8285 1179.51,-19.8279"/>
</g>
<!-- Node15&#45;&gt;Node5 -->
<g id="edge18" class="edge"><title>Node15&#45;&gt;Node5</title>
<path fill="none" stroke="midnightblue" d="M868.408,-10.9097C788.607,-3.66759 653.531,-0.651034 549,-45.5 516.189,-59.5775 487.789,-91.4764 472.961,-110.467"/>
<polygon fill="midnightblue" stroke="midnightblue" points="868.527,-14.437 878.815,-11.9067 869.194,-7.46887 868.527,-14.437"/>
</g>
</g>
</svg>
