<?xml version="1.0" encoding="UTF-8" standalone="no"?>
<!DOCTYPE svg PUBLIC "-//W3C//DTD SVG 1.1//EN"
 "http://www.w3.org/Graphics/SVG/1.1/DTD/svg11.dtd">
<!-- Generated by graphviz version 2.38.0 (20140413.2041)
 -->
<!-- Title: GX::SetTevAlphaInOpSwap Pages: 1 -->
<svg width="2132pt" height="1107pt"
 viewBox="0.00 0.00 2132.00 1107.00" xmlns="http://www.w3.org/2000/svg" xmlns:xlink="http://www.w3.org/1999/xlink">
<g id="graph0" class="graph" transform="scale(1 1) rotate(0) translate(4 1103)">
<title>GX::SetTevAlphaInOpSwap</title>
<polygon fill="white" stroke="none" points="-4,4 -4,-1103 2128,-1103 2128,4 -4,4"/>
<!-- Node1 -->
<g id="node1" class="node"><title>Node1</title>
<g id="a_node1"><a xlink:title=" ">
<polygon fill="#bfbfbf" stroke="black" points="1990,-319 1990,-338 2124,-338 2124,-319 1990,-319"/>
<text text-anchor="middle" x="2057" y="-326" font-family="Helvetica,sans-Serif" font-size="10.00">GX::SetTevAlphaInOpSwap</text>
</a>
</g>
</g>
<!-- Node2 -->
<g id="node2" class="node"><title>Node2</title>
<g id="a_node2"><a xlink:href="../../da/d63/namespace_nx_ngc.html#a5277fcfcf095926ad35432647d7d6a55" target="_top" xlink:title=" ">
<polygon fill="white" stroke="black" points="1516.5,-547 1516.5,-566 1623.5,-566 1623.5,-547 1516.5,-547"/>
<text text-anchor="middle" x="1570" y="-554" font-family="Helvetica,sans-Serif" font-size="10.00">NxNgc::_multi_mesh</text>
</a>
</g>
</g>
<!-- Node1&#45;&gt;Node2 -->
<g id="edge1" class="edge"><title>Node1&#45;&gt;Node2</title>
<path fill="none" stroke="midnightblue" d="M2044.8,-346.622C2028.29,-371.622 1994.9,-416.031 1954,-437.5 1839.41,-497.651 1784.62,-428.737 1666,-480.5 1629.41,-496.466 1595.07,-530.282 1579.6,-546.889"/>
<polygon fill="midnightblue" stroke="midnightblue" points="2047.83,-348.385 2050.29,-338.079 2041.94,-344.605 2047.83,-348.385"/>
</g>
<!-- Node5 -->
<g id="node5" class="node"><title>Node5</title>
<g id="a_node5"><a xlink:href="../../da/d63/namespace_nx_ngc.html#a88922011160e3b3f37196de34a5dbbb0" target="_top" xlink:title=" ">
<polygon fill="white" stroke="black" points="1200,-414 1200,-433 1317,-433 1317,-414 1200,-414"/>
<text text-anchor="middle" x="1258.5" y="-421" font-family="Helvetica,sans-Serif" font-size="10.00">NxNgc::MaterialSubmit</text>
</a>
</g>
</g>
<!-- Node1&#45;&gt;Node5 -->
<g id="edge42" class="edge"><title>Node1&#45;&gt;Node5</title>
<path fill="none" stroke="midnightblue" d="M2038.4,-344.954C2019.24,-361.792 1986.92,-387.18 1954,-399.5 1861.47,-434.132 1831.8,-423.5 1733,-423.5 1733,-423.5 1733,-423.5 1569,-423.5 1481.15,-423.5 1379.27,-423.5 1317.11,-423.5"/>
<polygon fill="midnightblue" stroke="midnightblue" points="2040.91,-347.404 2046,-338.111 2036.23,-342.202 2040.91,-347.404"/>
</g>
<!-- Node8 -->
<g id="node8" class="node"><title>Node8</title>
<g id="a_node8"><a xlink:href="../../d9/d8c/class_nx_1_1_c_engine.html#ab07e94b0d679732290471b10cd1ef1b6" target="_top" xlink:title=" ">
<polygon fill="white" stroke="black" points="409,-376.5 409,-406.5 513,-406.5 513,-376.5 409,-376.5"/>
<text text-anchor="start" x="417" y="-394.5" font-family="Helvetica,sans-Serif" font-size="10.00">Nx::CEngine::s_plat</text>
<text text-anchor="middle" x="461" y="-383.5" font-family="Helvetica,sans-Serif" font-size="10.00">_render_world</text>
</a>
</g>
</g>
<!-- Node1&#45;&gt;Node8 -->
<g id="edge62" class="edge"><title>Node1&#45;&gt;Node8</title>
<path fill="none" stroke="midnightblue" d="M1979.65,-321.474C1914.25,-316.062 1817.51,-309.5 1733,-309.5 1733,-309.5 1733,-309.5 776,-309.5 674.758,-309.5 643.925,-293.298 549,-328.5 520.849,-338.94 493.696,-361.166 477.421,-376.225"/>
<polygon fill="midnightblue" stroke="midnightblue" points="1979.62,-324.983 1989.88,-322.331 1980.2,-318.007 1979.62,-324.983"/>
</g>
<!-- Node13 -->
<g id="node13" class="node"><title>Node13</title>
<g id="a_node13"><a xlink:href="../../da/d63/namespace_nx_ngc.html#a2ac4d6736640c6e498384d5dcb534f25" target="_top" xlink:title=" ">
<polygon fill="white" stroke="black" points="879,-401 879,-420 989,-420 989,-401 879,-401"/>
<text text-anchor="middle" x="934" y="-408" font-family="Helvetica,sans-Serif" font-size="10.00">NxNgc::render_scene</text>
</a>
</g>
</g>
<!-- Node1&#45;&gt;Node13 -->
<g id="edge61" class="edge"><title>Node1&#45;&gt;Node13</title>
<path fill="none" stroke="midnightblue" d="M2014.1,-340.726C1952.9,-357.474 1835.22,-385.5 1733,-385.5 1733,-385.5 1733,-385.5 1257.5,-385.5 1162.87,-385.5 1053.1,-396.331 989.109,-403.735"/>
<polygon fill="midnightblue" stroke="midnightblue" points="2015.08,-344.086 2023.78,-338.041 2013.21,-337.34 2015.08,-344.086"/>
</g>
<!-- Node30 -->
<g id="node30" class="node"><title>Node30</title>
<g id="a_node30"><a xlink:href="../../dc/d9a/p__display_8cpp.html#a2ceacd9b469113c58b2d95ef51905f1f" target="_top" xlink:title=" ">
<polygon fill="white" stroke="black" points="1852.5,-224 1852.5,-243 1935.5,-243 1935.5,-224 1852.5,-224"/>
<text text-anchor="middle" x="1894" y="-231" font-family="Helvetica,sans-Serif" font-size="10.00">bg_thread_func</text>
</a>
</g>
</g>
<!-- Node1&#45;&gt;Node30 -->
<g id="edge33" class="edge"><title>Node1&#45;&gt;Node30</title>
<path fill="none" stroke="midnightblue" d="M2035.98,-312.558C2016.01,-297.153 1984.06,-273.816 1954,-257.5 1943.89,-252.015 1932.26,-247.025 1922.01,-243.034"/>
<polygon fill="midnightblue" stroke="midnightblue" points="2033.97,-315.433 2044.01,-318.827 2038.28,-309.915 2033.97,-315.433"/>
</g>
<!-- Node34 -->
<g id="node34" class="node"><title>Node34</title>
<g id="a_node34"><a xlink:href="../../da/d63/namespace_nx_ngc.html#a2f74e7e3aa4d1f06c6cf1e684519d7ae" target="_top" xlink:title=" ">
<polygon fill="white" stroke="black" points="879,-345.5 879,-375.5 989,-375.5 989,-345.5 879,-345.5"/>
<text text-anchor="start" x="887" y="-363.5" font-family="Helvetica,sans-Serif" font-size="10.00">NxNgc::debug_render</text>
<text text-anchor="middle" x="934" y="-352.5" font-family="Helvetica,sans-Serif" font-size="10.00">_sphere</text>
</a>
</g>
</g>
<!-- Node1&#45;&gt;Node34 -->
<g id="edge37" class="edge"><title>Node1&#45;&gt;Node34</title>
<path fill="none" stroke="midnightblue" d="M1979.65,-335.526C1914.25,-340.938 1817.51,-347.5 1733,-347.5 1733,-347.5 1733,-347.5 1257.5,-347.5 1163.08,-347.5 1053.24,-353.132 989.182,-356.982"/>
<polygon fill="midnightblue" stroke="midnightblue" points="1980.2,-338.993 1989.88,-334.669 1979.62,-332.017 1980.2,-338.993"/>
</g>
<!-- Node35 -->
<g id="node35" class="node"><title>Node35</title>
<g id="a_node35"><a xlink:href="../../d4/d5b/struct_nx_ngc_1_1s_sprite.html#abfb6ec0d12c05f38b40c8fba5661772d" target="_top" xlink:title=" ">
<polygon fill="white" stroke="black" points="1839,-186 1839,-205 1949,-205 1949,-186 1839,-186"/>
<text text-anchor="middle" x="1894" y="-193" font-family="Helvetica,sans-Serif" font-size="10.00">NxNgc::sSprite::Draw</text>
</a>
</g>
</g>
<!-- Node1&#45;&gt;Node35 -->
<g id="edge39" class="edge"><title>Node1&#45;&gt;Node35</title>
<path fill="none" stroke="midnightblue" d="M2044.21,-310.095C2027.22,-284.978 1993.49,-240.162 1954,-214.5 1948.13,-210.689 1941.44,-207.588 1934.73,-205.083"/>
<polygon fill="midnightblue" stroke="midnightblue" points="2041.45,-312.264 2049.89,-318.676 2047.29,-308.404 2041.45,-312.264"/>
</g>
<!-- Node36 -->
<g id="node36" class="node"><title>Node36</title>
<g id="a_node36"><a xlink:href="../../d1/d14/struct_nx_ngc_1_1_s_text.html#a77ada917dfb3bc900c1149e568c7f0bc" target="_top" xlink:title=" ">
<polygon fill="white" stroke="black" points="1841.5,-148 1841.5,-167 1946.5,-167 1946.5,-148 1841.5,-148"/>
<text text-anchor="middle" x="1894" y="-155" font-family="Helvetica,sans-Serif" font-size="10.00">NxNgc::SText::Draw</text>
</a>
</g>
</g>
<!-- Node1&#45;&gt;Node36 -->
<g id="edge40" class="edge"><title>Node1&#45;&gt;Node36</title>
<path fill="none" stroke="midnightblue" d="M2048.08,-309.054C2033.97,-276.795 2001.43,-212.235 1954,-176.5 1948.84,-172.615 1942.86,-169.507 1936.73,-167.026"/>
<polygon fill="midnightblue" stroke="midnightblue" points="2045.03,-310.826 2052.16,-318.668 2051.48,-308.095 2045.03,-310.826"/>
</g>
<!-- Node38 -->
<g id="node38" class="node"><title>Node38</title>
<g id="a_node38"><a xlink:href="../../da/d63/namespace_nx_ngc.html#ae0f08e6e763524648a1fa244304875e2" target="_top" xlink:title=" ">
<polygon fill="white" stroke="black" points="1834,-566 1834,-585 1954,-585 1954,-566 1834,-566"/>
<text text-anchor="middle" x="1894" y="-573" font-family="Helvetica,sans-Serif" font-size="10.00">NxNgc::multi_add_layer</text>
</a>
</g>
</g>
<!-- Node1&#45;&gt;Node38 -->
<g id="edge43" class="edge"><title>Node1&#45;&gt;Node38</title>
<path fill="none" stroke="midnightblue" d="M2052.08,-348.49C2042.67,-391.385 2014.95,-493.097 1954,-551.5 1947.53,-557.697 1939.25,-562.375 1930.95,-565.875"/>
<polygon fill="midnightblue" stroke="midnightblue" points="2055.55,-348.976 2054.17,-338.472 2048.7,-347.545 2055.55,-348.976"/>
</g>
<!-- Node39 -->
<g id="node39" class="node"><title>Node39</title>
<g id="a_node39"><a xlink:href="../../da/d63/namespace_nx_ngc.html#a7ba1f1ae33bc1ba28d8bcd5f8db75d2b" target="_top" xlink:title=" ">
<polygon fill="white" stroke="black" points="1667.5,-604 1667.5,-623 1796.5,-623 1796.5,-604 1667.5,-604"/>
<text text-anchor="middle" x="1732" y="-611" font-family="Helvetica,sans-Serif" font-size="10.00">NxNgc::multi_add_texture</text>
</a>
</g>
</g>
<!-- Node1&#45;&gt;Node39 -->
<g id="edge47" class="edge"><title>Node1&#45;&gt;Node39</title>
<path fill="none" stroke="midnightblue" d="M2055.14,-348.339C2051.76,-398.989 2035.21,-533.381 1954,-594.5 1904.62,-631.669 1830.29,-629.7 1781.7,-623.058"/>
<polygon fill="midnightblue" stroke="midnightblue" points="2058.65,-348.281 2055.71,-338.101 2051.66,-347.89 2058.65,-348.281"/>
</g>
<!-- Node40 -->
<g id="node40" class="node"><title>Node40</title>
<g id="a_node40"><a xlink:href="../../da/d63/namespace_nx_ngc.html#a5ce06ce312c3b72f8e492980d199fcc6" target="_top" xlink:title=" ">
<polygon fill="white" stroke="black" points="1685,-528 1685,-547 1779,-547 1779,-528 1685,-528"/>
<text text-anchor="middle" x="1732" y="-535" font-family="Helvetica,sans-Serif" font-size="10.00">NxNgc::multi_end</text>
</a>
</g>
</g>
<!-- Node1&#45;&gt;Node40 -->
<g id="edge48" class="edge"><title>Node1&#45;&gt;Node40</title>
<path fill="none" stroke="midnightblue" d="M2050.95,-347.901C2040.12,-385.262 2010.91,-466.91 1954,-505.5 1901.86,-540.858 1826.87,-544.222 1779.04,-541.962"/>
<polygon fill="midnightblue" stroke="midnightblue" points="2054.33,-348.786 2053.63,-338.215 2047.59,-346.921 2054.33,-348.786"/>
</g>
<!-- Node41 -->
<g id="node41" class="node"><title>Node41</title>
<g id="a_node41"><a xlink:href="../../da/d63/namespace_nx_ngc.html#a1e7eba37a3664c5f10e770410c44dc22" target="_top" xlink:title=" ">
<polygon fill="white" stroke="black" points="1683,-490 1683,-509 1781,-509 1781,-490 1683,-490"/>
<text text-anchor="middle" x="1732" y="-497" font-family="Helvetica,sans-Serif" font-size="10.00">NxNgc::multi_start</text>
</a>
</g>
</g>
<!-- Node1&#45;&gt;Node41 -->
<g id="edge50" class="edge"><title>Node1&#45;&gt;Node41</title>
<path fill="none" stroke="midnightblue" d="M2048.81,-347.909C2035.6,-380.53 2004.14,-445.703 1954,-475.5 1901.25,-506.848 1828.77,-508.514 1781.42,-505.276"/>
<polygon fill="midnightblue" stroke="midnightblue" points="2052.23,-348.78 2052.59,-338.192 2045.7,-346.242 2052.23,-348.78"/>
</g>
<!-- Node42 -->
<g id="node42" class="node"><title>Node42</title>
<g id="a_node42"><a xlink:href="../../d9/d17/class_nx_1_1_c_ngc_weather.html#a238a9cfcbff8c0dca911b9305874d238" target="_top" xlink:title=" ">
<polygon fill="white" stroke="black" points="1835.5,-49.5 1835.5,-79.5 1952.5,-79.5 1952.5,-49.5 1835.5,-49.5"/>
<text text-anchor="start" x="1843.5" y="-67.5" font-family="Helvetica,sans-Serif" font-size="10.00">Nx::CNgcWeather::plat</text>
<text text-anchor="middle" x="1894" y="-56.5" font-family="Helvetica,sans-Serif" font-size="10.00">_render_rain</text>
</a>
</g>
</g>
<!-- Node1&#45;&gt;Node42 -->
<g id="edge52" class="edge"><title>Node1&#45;&gt;Node42</title>
<path fill="none" stroke="midnightblue" d="M2052.87,-308.846C2044.73,-263.852 2018.83,-152.335 1954,-88.5 1950.53,-85.0864 1946.51,-82.1372 1942.24,-79.5936"/>
<polygon fill="midnightblue" stroke="midnightblue" points="2049.44,-309.516 2054.57,-318.783 2056.34,-308.336 2049.44,-309.516"/>
</g>
<!-- Node44 -->
<g id="node44" class="node"><title>Node44</title>
<g id="a_node44"><a xlink:href="../../d9/d17/class_nx_1_1_c_ngc_weather.html#a96f759f92b223aa2485b6406cb986680" target="_top" xlink:title=" ">
<polygon fill="white" stroke="black" points="1835.5,-0.5 1835.5,-30.5 1952.5,-30.5 1952.5,-0.5 1835.5,-0.5"/>
<text text-anchor="start" x="1843.5" y="-18.5" font-family="Helvetica,sans-Serif" font-size="10.00">Nx::CNgcWeather::plat</text>
<text text-anchor="middle" x="1894" y="-7.5" font-family="Helvetica,sans-Serif" font-size="10.00">_render_snow</text>
</a>
</g>
</g>
<!-- Node1&#45;&gt;Node44 -->
<g id="edge54" class="edge"><title>Node1&#45;&gt;Node44</title>
<path fill="none" stroke="midnightblue" d="M2054.5,-308.753C2049.59,-257.512 2029.63,-118.776 1954,-39.5 1950.72,-36.0596 1946.87,-33.0978 1942.75,-30.5509"/>
<polygon fill="midnightblue" stroke="midnightblue" points="2051.02,-309.155 2055.37,-318.815 2058,-308.549 2051.02,-309.155"/>
</g>
<!-- Node45 -->
<g id="node45" class="node"><title>Node45</title>
<g id="a_node45"><a xlink:href="../../d9/d17/class_nx_1_1_c_ngc_weather.html#ae41919b0b62f72c475207881cab6a81a" target="_top" xlink:title=" ">
<polygon fill="white" stroke="black" points="1835.5,-98.5 1835.5,-128.5 1952.5,-128.5 1952.5,-98.5 1835.5,-98.5"/>
<text text-anchor="start" x="1843.5" y="-116.5" font-family="Helvetica,sans-Serif" font-size="10.00">Nx::CNgcWeather::plat</text>
<text text-anchor="middle" x="1894" y="-105.5" font-family="Helvetica,sans-Serif" font-size="10.00">_render_splashes</text>
</a>
</g>
</g>
<!-- Node1&#45;&gt;Node45 -->
<g id="edge56" class="edge"><title>Node1&#45;&gt;Node45</title>
<path fill="none" stroke="midnightblue" d="M2050.37,-308.998C2038.53,-271.203 2007.62,-187.411 1954,-138.5 1949.81,-134.677 1944.94,-131.384 1939.84,-128.564"/>
<polygon fill="midnightblue" stroke="midnightblue" points="2047.08,-310.208 2053.32,-318.768 2053.78,-308.183 2047.08,-310.208"/>
</g>
<!-- Node46 -->
<g id="node46" class="node"><title>Node46</title>
<g id="a_node46"><a xlink:href="../../d1/d06/namespace_nx.html#a038350c4e2876e234b31dd7eac1f020f" target="_top" xlink:title=" ">
<polygon fill="white" stroke="black" points="1676,-250.5 1676,-280.5 1788,-280.5 1788,-250.5 1676,-250.5"/>
<text text-anchor="start" x="1684" y="-268.5" font-family="Helvetica,sans-Serif" font-size="10.00">Nx::plat_texture_splat</text>
<text text-anchor="middle" x="1732" y="-257.5" font-family="Helvetica,sans-Serif" font-size="10.00">_render</text>
</a>
</g>
</g>
<!-- Node1&#45;&gt;Node46 -->
<g id="edge58" class="edge"><title>Node1&#45;&gt;Node46</title>
<path fill="none" stroke="midnightblue" d="M2021.11,-315.508C2001.61,-308.678 1976.72,-300.673 1954,-295.5 1898.31,-282.819 1833.43,-274.791 1788.44,-270.265"/>
<polygon fill="midnightblue" stroke="midnightblue" points="2020.19,-318.893 2030.78,-318.951 2022.53,-312.299 2020.19,-318.893"/>
</g>
<!-- Node3 -->
<g id="node3" class="node"><title>Node3</title>
<g id="a_node3"><a xlink:href="../../da/d63/namespace_nx_ngc.html#abd06c3a3323a6eab2c3c386947f9ca9c" target="_top" xlink:title=" ">
<polygon fill="white" stroke="black" points="1372,-727 1372,-746 1474,-746 1474,-727 1372,-727"/>
<text text-anchor="middle" x="1423" y="-734" font-family="Helvetica,sans-Serif" font-size="10.00">NxNgc::multi_mesh</text>
</a>
</g>
</g>
<!-- Node2&#45;&gt;Node3 -->
<g id="edge2" class="edge"><title>Node2&#45;&gt;Node3</title>
<path fill="none" stroke="midnightblue" d="M1554.75,-574.185C1524.6,-611.614 1455.19,-697.777 1431.83,-726.775"/>
<polygon fill="midnightblue" stroke="midnightblue" points="1557.66,-576.161 1561.2,-566.178 1552.21,-571.769 1557.66,-576.161"/>
</g>
<!-- Node4 -->
<g id="node4" class="node"><title>Node4</title>
<g id="a_node4"><a xlink:href="../../da/d63/namespace_nx_ngc.html#a35ce1ef7047d26cb247a9c44fcbe982c" target="_top" xlink:title=" ">
<polygon fill="white" stroke="black" points="1204.5,-834 1204.5,-853 1312.5,-853 1312.5,-834 1204.5,-834"/>
<text text-anchor="middle" x="1258.5" y="-841" font-family="Helvetica,sans-Serif" font-size="10.00">NxNgc::MaterialBuild</text>
</a>
</g>
</g>
<!-- Node3&#45;&gt;Node4 -->
<g id="edge3" class="edge"><title>Node3&#45;&gt;Node4</title>
<path fill="none" stroke="midnightblue" d="M1408.22,-753.961C1392.58,-772.677 1365.4,-802.045 1336,-819.5 1325.71,-825.612 1313.7,-830.326 1302.28,-833.891"/>
<polygon fill="midnightblue" stroke="midnightblue" points="1410.95,-756.152 1414.56,-746.192 1405.52,-751.726 1410.95,-756.152"/>
</g>
<!-- Node3&#45;&gt;Node5 -->
<g id="edge4" class="edge"><title>Node3&#45;&gt;Node5</title>
<path fill="none" stroke="midnightblue" d="M1422.48,-716.909C1422.65,-664.311 1415.54,-518.83 1336,-442.5 1330.67,-437.383 1324.18,-433.58 1317.27,-430.763"/>
<polygon fill="midnightblue" stroke="midnightblue" points="1418.98,-716.879 1422.35,-726.923 1425.98,-716.969 1418.98,-716.879"/>
</g>
<!-- Node3&#45;&gt;Node8 -->
<g id="edge32" class="edge"><title>Node3&#45;&gt;Node8</title>
<path fill="none" stroke="midnightblue" d="M1401.34,-752.125C1384.65,-763.814 1360.07,-779.02 1336,-786.5 1229.59,-819.562 1197.43,-805.5 1086,-805.5 1086,-805.5 1086,-805.5 776,-805.5 571.675,-805.5 483.107,-481.417 465.408,-406.725"/>
<polygon fill="midnightblue" stroke="midnightblue" points="1403.68,-754.753 1409.74,-746.064 1399.58,-749.076 1403.68,-754.753"/>
</g>
<!-- Node17 -->
<g id="node17" class="node"><title>Node17</title>
<g id="a_node17"><a xlink:href="../../d1/df2/class_nx_1_1_c_ngc_particle_glow.html#aac55bd1c5613151913fac33d9f3638e9" target="_top" xlink:title=" ">
<polygon fill="white" stroke="black" points="1202,-746.5 1202,-776.5 1315,-776.5 1315,-746.5 1202,-746.5"/>
<text text-anchor="start" x="1210" y="-764.5" font-family="Helvetica,sans-Serif" font-size="10.00">Nx::CNgcParticleGlow</text>
<text text-anchor="middle" x="1258.5" y="-753.5" font-family="Helvetica,sans-Serif" font-size="10.00">::plat_render</text>
</a>
</g>
</g>
<!-- Node3&#45;&gt;Node17 -->
<g id="edge19" class="edge"><title>Node3&#45;&gt;Node17</title>
<path fill="none" stroke="midnightblue" d="M1362.01,-745.729C1346.65,-748.092 1330.2,-750.622 1315.08,-752.949"/>
<polygon fill="midnightblue" stroke="midnightblue" points="1362.57,-749.185 1371.92,-744.205 1361.5,-742.266 1362.57,-749.185"/>
</g>
<!-- Node18 -->
<g id="node18" class="node"><title>Node18</title>
<g id="a_node18"><a xlink:href="../../db/d18/class_nx_1_1_c_ngc_particle_smooth_star.html#abdf17def66803ced7b6b1751b6cf9d5a" target="_top" xlink:title=" ">
<polygon fill="white" stroke="black" points="1187,-697.5 1187,-727.5 1330,-727.5 1330,-697.5 1187,-697.5"/>
<text text-anchor="start" x="1195" y="-715.5" font-family="Helvetica,sans-Serif" font-size="10.00">Nx::CNgcParticleSmoothStar</text>
<text text-anchor="middle" x="1258.5" y="-704.5" font-family="Helvetica,sans-Serif" font-size="10.00">::plat_render</text>
</a>
</g>
</g>
<!-- Node3&#45;&gt;Node18 -->
<g id="edge20" class="edge"><title>Node3&#45;&gt;Node18</title>
<path fill="none" stroke="midnightblue" d="M1361.77,-727.605C1351.43,-726.078 1340.61,-724.479 1330.03,-722.916"/>
<polygon fill="midnightblue" stroke="midnightblue" points="1361.51,-731.105 1371.92,-729.103 1362.54,-724.18 1361.51,-731.105"/>
</g>
<!-- Node19 -->
<g id="node19" class="node"><title>Node19</title>
<g id="a_node19"><a xlink:href="../../dc/d18/class_nx_1_1_c_ngc_particle_star.html#a80d79a5f4881242d23af9f1fba4f5908" target="_top" xlink:title=" ">
<polygon fill="white" stroke="black" points="1203.5,-648.5 1203.5,-678.5 1313.5,-678.5 1313.5,-648.5 1203.5,-648.5"/>
<text text-anchor="start" x="1211.5" y="-666.5" font-family="Helvetica,sans-Serif" font-size="10.00">Nx::CNgcParticleStar</text>
<text text-anchor="middle" x="1258.5" y="-655.5" font-family="Helvetica,sans-Serif" font-size="10.00">::plat_render</text>
</a>
</g>
</g>
<!-- Node3&#45;&gt;Node19 -->
<g id="edge21" class="edge"><title>Node3&#45;&gt;Node19</title>
<path fill="none" stroke="midnightblue" d="M1398.25,-721.604C1381.33,-711.402 1357.81,-698.043 1336,-688.5 1327.81,-684.915 1318.93,-681.56 1310.22,-678.545"/>
<polygon fill="midnightblue" stroke="midnightblue" points="1396.57,-724.675 1406.92,-726.904 1400.22,-718.702 1396.57,-724.675"/>
</g>
<!-- Node20 -->
<g id="node20" class="node"><title>Node20</title>
<g id="a_node20"><a xlink:href="../../d4/d08/class_nx_1_1_c_ngc_particle_shaded.html#a8d27e689b7388d56fde9d13175fbd860" target="_top" xlink:title=" ">
<polygon fill="white" stroke="black" points="1196,-599.5 1196,-629.5 1321,-629.5 1321,-599.5 1196,-599.5"/>
<text text-anchor="start" x="1204" y="-617.5" font-family="Helvetica,sans-Serif" font-size="10.00">Nx::CNgcParticleShaded</text>
<text text-anchor="middle" x="1258.5" y="-606.5" font-family="Helvetica,sans-Serif" font-size="10.00">::plat_render</text>
</a>
</g>
</g>
<!-- Node3&#45;&gt;Node20 -->
<g id="edge22" class="edge"><title>Node3&#45;&gt;Node20</title>
<path fill="none" stroke="midnightblue" d="M1410.4,-718.359C1395.62,-696.64 1368.11,-660.565 1336,-639.5 1330.16,-635.668 1323.68,-632.379 1317.04,-629.567"/>
<polygon fill="midnightblue" stroke="midnightblue" points="1407.49,-720.302 1415.93,-726.703 1413.32,-716.434 1407.49,-720.302"/>
</g>
<!-- Node21 -->
<g id="node21" class="node"><title>Node21</title>
<g id="a_node21"><a xlink:href="../../d9/d0d/class_nx_1_1_c_ngc_particle_ribbon_trail.html#a820420d87c32affd1a2919a2194e0766" target="_top" xlink:title=" ">
<polygon fill="white" stroke="black" points="1188.5,-550.5 1188.5,-580.5 1328.5,-580.5 1328.5,-550.5 1188.5,-550.5"/>
<text text-anchor="start" x="1196.5" y="-568.5" font-family="Helvetica,sans-Serif" font-size="10.00">Nx::CNgcParticleRibbonTrail</text>
<text text-anchor="middle" x="1258.5" y="-557.5" font-family="Helvetica,sans-Serif" font-size="10.00">::plat_render</text>
</a>
</g>
</g>
<!-- Node3&#45;&gt;Node21 -->
<g id="edge23" class="edge"><title>Node3&#45;&gt;Node21</title>
<path fill="none" stroke="midnightblue" d="M1415.64,-716.993C1404.49,-685.772 1378.45,-624.632 1336,-590.5 1331.21,-586.648 1325.8,-583.381 1320.14,-580.613"/>
<polygon fill="midnightblue" stroke="midnightblue" points="1412.41,-718.371 1418.97,-726.695 1419.04,-716.1 1412.41,-718.371"/>
</g>
<!-- Node22 -->
<g id="node22" class="node"><title>Node22</title>
<g id="a_node22"><a xlink:href="../../db/d65/class_nx_1_1_c_ngc_particle_line.html#ae25f39b7fa2a283368b06e88a2655d57" target="_top" xlink:title=" ">
<polygon fill="white" stroke="black" points="1203.5,-501.5 1203.5,-531.5 1313.5,-531.5 1313.5,-501.5 1203.5,-501.5"/>
<text text-anchor="start" x="1211.5" y="-519.5" font-family="Helvetica,sans-Serif" font-size="10.00">Nx::CNgcParticleLine</text>
<text text-anchor="middle" x="1258.5" y="-508.5" font-family="Helvetica,sans-Serif" font-size="10.00">::plat_render</text>
</a>
</g>
</g>
<!-- Node3&#45;&gt;Node22 -->
<g id="edge24" class="edge"><title>Node3&#45;&gt;Node22</title>
<path fill="none" stroke="midnightblue" d="M1418.76,-716.672C1411.34,-677.512 1389.43,-589.862 1336,-541.5 1329.58,-535.687 1321.78,-531.223 1313.65,-527.796"/>
<polygon fill="midnightblue" stroke="midnightblue" points="1415.36,-717.532 1420.56,-726.767 1422.25,-716.309 1415.36,-717.532"/>
</g>
<!-- Node23 -->
<g id="node23" class="node"><title>Node23</title>
<g id="a_node23"><a xlink:href="../../d8/d10/class_nx_1_1_c_ngc_particle_ribbon.html#ad6866cd5d067bd104e2a980c9ea72c23" target="_top" xlink:title=" ">
<polygon fill="white" stroke="black" points="1197.5,-452.5 1197.5,-482.5 1319.5,-482.5 1319.5,-452.5 1197.5,-452.5"/>
<text text-anchor="start" x="1205.5" y="-470.5" font-family="Helvetica,sans-Serif" font-size="10.00">Nx::CNgcParticleRibbon</text>
<text text-anchor="middle" x="1258.5" y="-459.5" font-family="Helvetica,sans-Serif" font-size="10.00">::plat_render</text>
</a>
</g>
</g>
<!-- Node3&#45;&gt;Node23 -->
<g id="edge25" class="edge"><title>Node3&#45;&gt;Node23</title>
<path fill="none" stroke="midnightblue" d="M1420.87,-716.77C1417.14,-670.62 1401.43,-554.764 1336,-491.5 1331.3,-486.952 1325.74,-483.266 1319.81,-480.277"/>
<polygon fill="midnightblue" stroke="midnightblue" points="1417.39,-717.195 1421.58,-726.926 1424.37,-716.706 1417.39,-717.195"/>
</g>
<!-- Node24 -->
<g id="node24" class="node"><title>Node24</title>
<g id="a_node24"><a xlink:href="../../d6/d36/class_nx_1_1_c_ngc_particle_glow_ribbon_trail.html#a51b98a4247872da51b0ea9494d425fcb" target="_top" xlink:title=" ">
<polygon fill="white" stroke="black" points="1187,-1068.5 1187,-1098.5 1330,-1098.5 1330,-1068.5 1187,-1068.5"/>
<text text-anchor="start" x="1195" y="-1086.5" font-family="Helvetica,sans-Serif" font-size="10.00">Nx::CNgcParticleGlowRibbon</text>
<text text-anchor="middle" x="1258.5" y="-1075.5" font-family="Helvetica,sans-Serif" font-size="10.00">Trail::plat_render</text>
</a>
</g>
</g>
<!-- Node3&#45;&gt;Node24 -->
<g id="edge26" class="edge"><title>Node3&#45;&gt;Node24</title>
<path fill="none" stroke="midnightblue" d="M1419.24,-756.374C1410.1,-819.621 1378.87,-1014.71 1336,-1059.5 1332.73,-1062.92 1328.98,-1065.85 1324.93,-1068.37"/>
<polygon fill="midnightblue" stroke="midnightblue" points="1422.75,-756.557 1420.69,-746.164 1415.82,-755.573 1422.75,-756.557"/>
</g>
<!-- Node25 -->
<g id="node25" class="node"><title>Node25</title>
<g id="a_node25"><a xlink:href="../../d1/d07/class_nx_1_1_c_ngc_particle_smooth.html#a09270664670d36dbaefb5a08319d4446" target="_top" xlink:title=" ">
<polygon fill="white" stroke="black" points="1196,-1019.5 1196,-1049.5 1321,-1049.5 1321,-1019.5 1196,-1019.5"/>
<text text-anchor="start" x="1204" y="-1037.5" font-family="Helvetica,sans-Serif" font-size="10.00">Nx::CNgcParticleSmooth</text>
<text text-anchor="middle" x="1258.5" y="-1026.5" font-family="Helvetica,sans-Serif" font-size="10.00">::plat_render</text>
</a>
</g>
</g>
<!-- Node3&#45;&gt;Node25 -->
<g id="edge27" class="edge"><title>Node3&#45;&gt;Node25</title>
<path fill="none" stroke="midnightblue" d="M1421.73,-756.165C1419.95,-805.966 1408.29,-938.222 1336,-1010.5 1331.67,-1014.83 1326.57,-1018.38 1321.09,-1021.29"/>
<polygon fill="midnightblue" stroke="midnightblue" points="1425.23,-756.183 1421.99,-746.096 1418.23,-756.002 1425.23,-756.183"/>
</g>
<!-- Node26 -->
<g id="node26" class="node"><title>Node26</title>
<g id="a_node26"><a xlink:href="../../de/dfe/class_nx_1_1_c_ngc_particle_flat.html#a9bcb7453126e00a1d9975f7165dcf932" target="_top" xlink:title=" ">
<polygon fill="white" stroke="black" points="1204.5,-970.5 1204.5,-1000.5 1312.5,-1000.5 1312.5,-970.5 1204.5,-970.5"/>
<text text-anchor="start" x="1212.5" y="-988.5" font-family="Helvetica,sans-Serif" font-size="10.00">Nx::CNgcParticleFlat</text>
<text text-anchor="middle" x="1258.5" y="-977.5" font-family="Helvetica,sans-Serif" font-size="10.00">::plat_render</text>
</a>
</g>
</g>
<!-- Node3&#45;&gt;Node26 -->
<g id="edge28" class="edge"><title>Node3&#45;&gt;Node26</title>
<path fill="none" stroke="midnightblue" d="M1420.14,-756.385C1415,-799.94 1396.68,-904.423 1336,-961.5 1329.41,-967.699 1321.23,-972.298 1312.7,-975.709"/>
<polygon fill="midnightblue" stroke="midnightblue" points="1423.64,-756.561 1421.22,-746.246 1416.68,-755.817 1423.64,-756.561"/>
</g>
<!-- Node27 -->
<g id="node27" class="node"><title>Node27</title>
<g id="a_node27"><a xlink:href="../../df/d89/class_nx_1_1_c_ngc_particle_smooth_ribbon.html#ac49181de98bd0c4cac7bfa2c4478d227" target="_top" xlink:title=" ">
<polygon fill="white" stroke="black" points="1181,-921.5 1181,-951.5 1336,-951.5 1336,-921.5 1181,-921.5"/>
<text text-anchor="start" x="1189" y="-939.5" font-family="Helvetica,sans-Serif" font-size="10.00">Nx::CNgcParticleSmoothRibbon</text>
<text text-anchor="middle" x="1258.5" y="-928.5" font-family="Helvetica,sans-Serif" font-size="10.00">::plat_render</text>
</a>
</g>
</g>
<!-- Node3&#45;&gt;Node27 -->
<g id="edge29" class="edge"><title>Node3&#45;&gt;Node27</title>
<path fill="none" stroke="midnightblue" d="M1417.86,-755.948C1409.16,-792.114 1385.54,-869.903 1336,-912.5 1331.99,-915.948 1327.48,-918.902 1322.72,-921.431"/>
<polygon fill="midnightblue" stroke="midnightblue" points="1421.29,-756.673 1420.1,-746.145 1414.46,-755.117 1421.29,-756.673"/>
</g>
<!-- Node28 -->
<g id="node28" class="node"><title>Node28</title>
<g id="a_node28"><a xlink:href="../../d1/d06/namespace_nx.html#af62673c1b360f57efd3adfe84aa6b1c1" target="_top" xlink:title=" ">
<polygon fill="white" stroke="black" points="1203.5,-872.5 1203.5,-902.5 1313.5,-902.5 1313.5,-872.5 1203.5,-872.5"/>
<text text-anchor="start" x="1211.5" y="-890.5" font-family="Helvetica,sans-Serif" font-size="10.00">Nx::plat_screen_flash</text>
<text text-anchor="middle" x="1258.5" y="-879.5" font-family="Helvetica,sans-Serif" font-size="10.00">_render</text>
</a>
</g>
</g>
<!-- Node3&#45;&gt;Node28 -->
<g id="edge30" class="edge"><title>Node3&#45;&gt;Node28</title>
<path fill="none" stroke="midnightblue" d="M1413.84,-755.653C1401.16,-783.214 1374.13,-833.882 1336,-862.5 1329.3,-867.533 1321.53,-871.579 1313.57,-874.826"/>
<polygon fill="midnightblue" stroke="midnightblue" points="1417.13,-756.875 1418,-746.316 1410.73,-754.03 1417.13,-756.875"/>
</g>
<!-- Node6 -->
<g id="node6" class="node"><title>Node6</title>
<g id="a_node6"><a xlink:href="../../d1/d06/namespace_nx.html#a035b931248e4eab90d94ad0f30ea300b" target="_top" xlink:title=" ">
<polygon fill="white" stroke="black" points="1026,-455 1026,-474 1144,-474 1144,-455 1026,-455"/>
<text text-anchor="middle" x="1085" y="-462" font-family="Helvetica,sans-Serif" font-size="10.00">Nx::plat_shatter_render</text>
</a>
</g>
</g>
<!-- Node5&#45;&gt;Node6 -->
<g id="edge5" class="edge"><title>Node5&#45;&gt;Node6</title>
<path fill="none" stroke="midnightblue" d="M1207.67,-435.412C1181.65,-441.632 1150.25,-449.141 1125.86,-454.971"/>
<polygon fill="midnightblue" stroke="midnightblue" points="1208.81,-438.739 1217.72,-433.009 1207.18,-431.93 1208.81,-438.739"/>
</g>
<!-- Node12 -->
<g id="node12" class="node"><title>Node12</title>
<g id="a_node12"><a xlink:href="../../da/d63/namespace_nx_ngc.html#a5ae1c29dedccdd63897a4bb0041ecd42" target="_top" xlink:title=" ">
<polygon fill="white" stroke="black" points="1030,-414 1030,-433 1140,-433 1140,-414 1030,-414"/>
<text text-anchor="middle" x="1085" y="-421" font-family="Helvetica,sans-Serif" font-size="10.00">NxNgc::submit_mesh</text>
</a>
</g>
</g>
<!-- Node5&#45;&gt;Node12 -->
<g id="edge11" class="edge"><title>Node5&#45;&gt;Node12</title>
<path fill="none" stroke="midnightblue" d="M1189.82,-423.5C1173.36,-423.5 1155.98,-423.5 1140.24,-423.5"/>
<polygon fill="midnightblue" stroke="midnightblue" points="1189.92,-427 1199.92,-423.5 1189.92,-420 1189.92,-427"/>
</g>
<!-- Node7 -->
<g id="node7" class="node"><title>Node7</title>
<g id="a_node7"><a xlink:href="../../d1/d06/namespace_nx.html#a62f249103edc2215068ba52a6c89189e" target="_top" xlink:title=" ">
<polygon fill="white" stroke="black" points="728.5,-464 728.5,-483 825.5,-483 825.5,-464 728.5,-464"/>
<text text-anchor="middle" x="777" y="-471" font-family="Helvetica,sans-Serif" font-size="10.00">Nx::ShatterRender</text>
</a>
</g>
</g>
<!-- Node6&#45;&gt;Node7 -->
<g id="edge6" class="edge"><title>Node6&#45;&gt;Node7</title>
<path fill="none" stroke="midnightblue" d="M1015.58,-466.512C957.76,-468.213 876.45,-470.604 825.52,-472.102"/>
<polygon fill="midnightblue" stroke="midnightblue" points="1015.83,-470.007 1025.72,-466.214 1015.62,-463.01 1015.83,-470.007"/>
</g>
<!-- Node7&#45;&gt;Node8 -->
<g id="edge7" class="edge"><title>Node7&#45;&gt;Node8</title>
<path fill="none" stroke="midnightblue" d="M718.167,-474.928C671.25,-474.324 604.095,-469.404 549,-449.5 522.366,-439.878 495.886,-420.445 479.262,-406.732"/>
<polygon fill="midnightblue" stroke="midnightblue" points="718.428,-478.429 728.451,-474.995 718.474,-471.429 718.428,-478.429"/>
</g>
<!-- Node9 -->
<g id="node9" class="node"><title>Node9</title>
<g id="a_node9"><a xlink:href="../../d9/d8c/class_nx_1_1_c_engine.html#ace274d6d74746eb2398ce51e6c5a5f30" target="_top" xlink:title=" ">
<polygon fill="white" stroke="black" points="234,-382 234,-401 373,-401 373,-382 234,-382"/>
<text text-anchor="middle" x="303.5" y="-389" font-family="Helvetica,sans-Serif" font-size="10.00">Nx::CEngine::sRenderWorld</text>
</a>
</g>
</g>
<!-- Node8&#45;&gt;Node9 -->
<g id="edge8" class="edge"><title>Node8&#45;&gt;Node9</title>
<path fill="none" stroke="midnightblue" d="M398.648,-391.5C390.316,-391.5 381.722,-391.5 373.27,-391.5"/>
<polygon fill="midnightblue" stroke="midnightblue" points="398.653,-395 408.653,-391.5 398.652,-388 398.653,-395"/>
</g>
<!-- Node10 -->
<g id="node10" class="node"><title>Node10</title>
<g id="a_node10"><a xlink:href="../../d3/d66/class_mlp_1_1_manager.html#a118bb3db98dd133cea15b15c288b29f0" target="_top" xlink:title=" ">
<polygon fill="white" stroke="black" points="74,-382 74,-401 198,-401 198,-382 74,-382"/>
<text text-anchor="middle" x="136" y="-389" font-family="Helvetica,sans-Serif" font-size="10.00">Mlp::Manager::MainLoop</text>
</a>
</g>
</g>
<!-- Node9&#45;&gt;Node10 -->
<g id="edge9" class="edge"><title>Node9&#45;&gt;Node10</title>
<path fill="none" stroke="midnightblue" d="M223.714,-391.5C215.123,-391.5 206.474,-391.5 198.14,-391.5"/>
<polygon fill="midnightblue" stroke="midnightblue" points="223.751,-395 233.751,-391.5 223.751,-388 223.751,-395"/>
</g>
<!-- Node11 -->
<g id="node11" class="node"><title>Node11</title>
<g id="a_node11"><a xlink:href="../../d5/d12/_main_8cpp.html#a0e18e794c708408ef1dec237965cb73d" target="_top" xlink:title=" ">
<polygon fill="white" stroke="black" points="0,-382 0,-401 38,-401 38,-382 0,-382"/>
<text text-anchor="middle" x="19" y="-389" font-family="Helvetica,sans-Serif" font-size="10.00">main</text>
</a>
</g>
</g>
<!-- Node10&#45;&gt;Node11 -->
<g id="edge10" class="edge"><title>Node10&#45;&gt;Node11</title>
<path fill="none" stroke="midnightblue" d="M63.7713,-391.5C54.2902,-391.5 45.3381,-391.5 38.03,-391.5"/>
<polygon fill="midnightblue" stroke="midnightblue" points="63.7963,-395 73.7962,-391.5 63.7962,-388 63.7963,-395"/>
</g>
<!-- Node12&#45;&gt;Node13 -->
<g id="edge12" class="edge"><title>Node12&#45;&gt;Node13</title>
<path fill="none" stroke="midnightblue" d="M1019.72,-417.892C1009.54,-417.003 999.095,-416.092 989.174,-415.227"/>
<polygon fill="midnightblue" stroke="midnightblue" points="1019.52,-421.387 1029.79,-418.77 1020.13,-414.414 1019.52,-421.387"/>
</g>
<!-- Node13&#45;&gt;Node8 -->
<g id="edge18" class="edge"><title>Node13&#45;&gt;Node8</title>
<path fill="none" stroke="midnightblue" d="M868.993,-417.06C792.484,-423.584 660.76,-430.633 549,-415.5 535.337,-413.65 520.786,-410.236 507.574,-406.552"/>
<polygon fill="midnightblue" stroke="midnightblue" points="869.302,-420.547 878.958,-416.187 868.69,-413.573 869.302,-420.547"/>
</g>
<!-- Node14 -->
<g id="node14" class="node"><title>Node14</title>
<g id="a_node14"><a xlink:href="../../da/d78/class_nx_ngc_1_1_c_instance.html#ae8f235a087ae559bf2cd8c1315601edb" target="_top" xlink:title=" ">
<polygon fill="white" stroke="black" points="711,-366 711,-385 843,-385 843,-366 711,-366"/>
<text text-anchor="middle" x="777" y="-373" font-family="Helvetica,sans-Serif" font-size="10.00">NxNgc::CInstance::Render</text>
</a>
</g>
</g>
<!-- Node13&#45;&gt;Node14 -->
<g id="edge13" class="edge"><title>Node13&#45;&gt;Node14</title>
<path fill="none" stroke="midnightblue" d="M880.624,-398.673C860.98,-394.237 838.921,-389.256 820.303,-385.052"/>
<polygon fill="midnightblue" stroke="midnightblue" points="880.12,-402.147 890.646,-400.936 881.662,-395.319 880.12,-402.147"/>
</g>
<!-- Node15 -->
<g id="node15" class="node"><title>Node15</title>
<g id="a_node15"><a xlink:href="../../da/d63/namespace_nx_ngc.html#a2109727dab89700c051ae95bbcc25415" target="_top" xlink:title=" ">
<polygon fill="white" stroke="black" points="549,-338 549,-357 675,-357 675,-338 549,-338"/>
<text text-anchor="middle" x="612" y="-345" font-family="Helvetica,sans-Serif" font-size="10.00">NxNgc::render_instances</text>
</a>
</g>
</g>
<!-- Node14&#45;&gt;Node15 -->
<g id="edge14" class="edge"><title>Node14&#45;&gt;Node15</title>
<path fill="none" stroke="midnightblue" d="M710.363,-364.225C696.444,-361.834 681.882,-359.333 668.389,-357.015"/>
<polygon fill="midnightblue" stroke="midnightblue" points="709.912,-367.699 720.361,-365.942 711.097,-360.8 709.912,-367.699"/>
</g>
<!-- Node16 -->
<g id="node16" class="node"><title>Node16</title>
<g id="a_node16"><a xlink:href="../../da/d63/namespace_nx_ngc.html#a46b5ffe2d958df4c5e41b2412403054c" target="_top" xlink:title=" ">
<polygon fill="white" stroke="black" points="553.5,-376.5 553.5,-406.5 670.5,-406.5 670.5,-376.5 553.5,-376.5"/>
<text text-anchor="start" x="561.5" y="-394.5" font-family="Helvetica,sans-Serif" font-size="10.00">NxNgc::render_shadow</text>
<text text-anchor="middle" x="612" y="-383.5" font-family="Helvetica,sans-Serif" font-size="10.00">_targets</text>
</a>
</g>
</g>
<!-- Node14&#45;&gt;Node16 -->
<g id="edge16" class="edge"><title>Node14&#45;&gt;Node16</title>
<path fill="none" stroke="midnightblue" d="M700.656,-382.896C690.606,-383.882 680.43,-384.881 670.745,-385.832"/>
<polygon fill="midnightblue" stroke="midnightblue" points="701.031,-386.376 710.641,-381.916 700.347,-379.409 701.031,-386.376"/>
</g>
<!-- Node15&#45;&gt;Node8 -->
<g id="edge15" class="edge"><title>Node15&#45;&gt;Node8</title>
<path fill="none" stroke="midnightblue" d="M568.822,-359.955C551.463,-365.081 531.201,-371.065 513.017,-376.435"/>
<polygon fill="midnightblue" stroke="midnightblue" points="570.07,-363.236 578.669,-357.047 568.087,-356.523 570.07,-363.236"/>
</g>
<!-- Node16&#45;&gt;Node8 -->
<g id="edge17" class="edge"><title>Node16&#45;&gt;Node8</title>
<path fill="none" stroke="midnightblue" d="M543.33,-391.5C533.182,-391.5 522.863,-391.5 513.136,-391.5"/>
<polygon fill="midnightblue" stroke="midnightblue" points="543.393,-395 553.393,-391.5 543.393,-388 543.393,-395"/>
</g>
<!-- Node29 -->
<g id="node29" class="node"><title>Node29</title>
<g id="a_node29"><a xlink:href="../../d1/d06/namespace_nx.html#aadbfadb55fd60440becd6a27cba414ea" target="_top" xlink:title=" ">
<polygon fill="white" stroke="black" points="1025,-878 1025,-897 1145,-897 1145,-878 1025,-878"/>
<text text-anchor="middle" x="1085" y="-885" font-family="Helvetica,sans-Serif" font-size="10.00">Nx::ScreenFlashRender</text>
</a>
</g>
</g>
<!-- Node28&#45;&gt;Node29 -->
<g id="edge31" class="edge"><title>Node28&#45;&gt;Node29</title>
<path fill="none" stroke="midnightblue" d="M1193.1,-887.5C1177.41,-887.5 1160.7,-887.5 1145.26,-887.5"/>
<polygon fill="midnightblue" stroke="midnightblue" points="1193.24,-891 1203.24,-887.5 1193.24,-884 1193.24,-891"/>
</g>
<!-- Node31 -->
<g id="node31" class="node"><title>Node31</title>
<g id="a_node31"><a xlink:href="../../dd/d18/namespace_ns_display.html#ae5ae2f4ff6f504fd3ae35484e50f2156" target="_top" xlink:title=" ">
<polygon fill="white" stroke="black" points="1692,-212 1692,-231 1772,-231 1772,-212 1692,-212"/>
<text text-anchor="middle" x="1732" y="-219" font-family="Helvetica,sans-Serif" font-size="10.00">NsDisplay::init</text>
</a>
</g>
</g>
<!-- Node30&#45;&gt;Node31 -->
<g id="edge34" class="edge"><title>Node30&#45;&gt;Node31</title>
<path fill="none" stroke="midnightblue" d="M1842.08,-229.681C1819.41,-227.981 1793.14,-226.011 1772.06,-224.429"/>
<polygon fill="midnightblue" stroke="midnightblue" points="1841.98,-233.183 1852.21,-230.441 1842.5,-226.203 1841.98,-233.183"/>
</g>
<!-- Node32 -->
<g id="node32" class="node"><title>Node32</title>
<g id="a_node32"><a xlink:href="../../d5/d12/_main_8cpp.html#a40f141c93fa7d71ee57c708d7a7768db" target="_top" xlink:title=" ">
<polygon fill="white" stroke="black" points="1542,-212 1542,-231 1598,-231 1598,-212 1542,-212"/>
<text text-anchor="middle" x="1570" y="-219" font-family="Helvetica,sans-Serif" font-size="10.00">pre_main</text>
</a>
</g>
</g>
<!-- Node31&#45;&gt;Node32 -->
<g id="edge35" class="edge"><title>Node31&#45;&gt;Node32</title>
<path fill="none" stroke="midnightblue" d="M1681.64,-221.5C1654.17,-221.5 1621.02,-221.5 1598.21,-221.5"/>
<polygon fill="midnightblue" stroke="midnightblue" points="1681.86,-225 1691.86,-221.5 1681.86,-218 1681.86,-225"/>
</g>
<!-- Node33 -->
<g id="node33" class="node"><title>Node33</title>
<g id="a_node33"><a xlink:href="../../d5/d12/_main_8cpp.html#afc8c067a13bf9d67fc7611045a4b138a" target="_top" xlink:title=" ">
<polygon fill="white" stroke="black" points="1374.5,-212 1374.5,-231 1471.5,-231 1471.5,-212 1374.5,-212"/>
<text text-anchor="middle" x="1423" y="-219" font-family="Helvetica,sans-Serif" font-size="10.00">Dbg_DefineProject</text>
</a>
</g>
</g>
<!-- Node32&#45;&gt;Node33 -->
<g id="edge36" class="edge"><title>Node32&#45;&gt;Node33</title>
<path fill="none" stroke="midnightblue" d="M1531.49,-221.5C1513.25,-221.5 1491.13,-221.5 1471.7,-221.5"/>
<polygon fill="midnightblue" stroke="midnightblue" points="1531.73,-225 1541.73,-221.5 1531.73,-218 1531.73,-225"/>
</g>
<!-- Node34&#45;&gt;Node14 -->
<g id="edge38" class="edge"><title>Node34&#45;&gt;Node14</title>
<path fill="none" stroke="midnightblue" d="M868.634,-366.729C860.198,-367.545 851.55,-368.382 843.102,-369.2"/>
<polygon fill="midnightblue" stroke="midnightblue" points="869.172,-370.193 878.789,-365.746 868.498,-363.226 869.172,-370.193"/>
</g>
<!-- Node37 -->
<g id="node37" class="node"><title>Node37</title>
<g id="a_node37"><a xlink:href="../../d1/d14/struct_nx_ngc_1_1_s_text.html#a62916444545ef18400f63366124ddd4e" target="_top" xlink:title=" ">
<polygon fill="white" stroke="black" points="1666,-148 1666,-167 1798,-167 1798,-148 1666,-148"/>
<text text-anchor="middle" x="1732" y="-155" font-family="Helvetica,sans-Serif" font-size="10.00">NxNgc::SText::DrawSingle</text>
</a>
</g>
</g>
<!-- Node36&#45;&gt;Node37 -->
<g id="edge41" class="edge"><title>Node36&#45;&gt;Node37</title>
<path fill="none" stroke="midnightblue" d="M1831.27,-157.5C1820.43,-157.5 1809.11,-157.5 1798.18,-157.5"/>
<polygon fill="midnightblue" stroke="midnightblue" points="1831.49,-161 1841.49,-157.5 1831.49,-154 1831.49,-161"/>
</g>
<!-- Node38&#45;&gt;Node2 -->
<g id="edge44" class="edge"><title>Node38&#45;&gt;Node2</title>
<path fill="none" stroke="midnightblue" d="M1823.79,-571.416C1763.74,-567.873 1678.12,-562.821 1623.56,-559.601"/>
<polygon fill="midnightblue" stroke="midnightblue" points="1823.75,-574.92 1833.94,-572.015 1824.16,-567.932 1823.75,-574.92"/>
</g>
<!-- Node38&#45;&gt;Node39 -->
<g id="edge45" class="edge"><title>Node38&#45;&gt;Node39</title>
<path fill="none" stroke="midnightblue" d="M1842.61,-587.468C1820.19,-592.793 1794.15,-598.976 1773.08,-603.98"/>
<polygon fill="midnightblue" stroke="midnightblue" points="1843.7,-590.805 1852.63,-585.089 1842.09,-583.995 1843.7,-590.805"/>
</g>
<!-- Node39&#45;&gt;Node2 -->
<g id="edge46" class="edge"><title>Node39&#45;&gt;Node2</title>
<path fill="none" stroke="midnightblue" d="M1694.71,-600.572C1665.27,-590.084 1624.43,-575.536 1597.87,-566.072"/>
<polygon fill="midnightblue" stroke="midnightblue" points="1693.62,-603.901 1704.22,-603.959 1695.97,-597.306 1693.62,-603.901"/>
</g>
<!-- Node40&#45;&gt;Node2 -->
<g id="edge49" class="edge"><title>Node40&#45;&gt;Node2</title>
<path fill="none" stroke="midnightblue" d="M1674.62,-544.195C1658.04,-546.163 1639.98,-548.308 1623.65,-550.248"/>
<polygon fill="midnightblue" stroke="midnightblue" points="1675.2,-547.65 1684.72,-542.996 1674.38,-540.699 1675.2,-547.65"/>
</g>
<!-- Node41&#45;&gt;Node2 -->
<g id="edge51" class="edge"><title>Node41&#45;&gt;Node2</title>
<path fill="none" stroke="midnightblue" d="M1686.22,-511.974C1679.41,-514.048 1672.5,-516.257 1666,-518.5 1640.65,-527.254 1612.15,-538.902 1593.04,-546.984"/>
<polygon fill="midnightblue" stroke="midnightblue" points="1687.47,-515.253 1696.06,-509.044 1685.48,-508.545 1687.47,-515.253"/>
</g>
<!-- Node43 -->
<g id="node43" class="node"><title>Node43</title>
<g id="a_node43"><a xlink:href="../../d9/d17/class_nx_1_1_c_ngc_weather.html#a772b3b5f1d4a9b80a41cac67ca0ae4ba" target="_top" xlink:title=" ">
<polygon fill="white" stroke="black" points="1673.5,-49.5 1673.5,-79.5 1790.5,-79.5 1790.5,-49.5 1673.5,-49.5"/>
<text text-anchor="start" x="1681.5" y="-67.5" font-family="Helvetica,sans-Serif" font-size="10.00">Nx::CNgcWeather::plat</text>
<text text-anchor="middle" x="1732" y="-56.5" font-family="Helvetica,sans-Serif" font-size="10.00">_render</text>
</a>
</g>
</g>
<!-- Node42&#45;&gt;Node43 -->
<g id="edge53" class="edge"><title>Node42&#45;&gt;Node43</title>
<path fill="none" stroke="midnightblue" d="M1824.89,-64.5C1813.5,-64.5 1801.78,-64.5 1790.68,-64.5"/>
<polygon fill="midnightblue" stroke="midnightblue" points="1825.24,-68.0001 1835.24,-64.5 1825.24,-61.0001 1825.24,-68.0001"/>
</g>
<!-- Node44&#45;&gt;Node43 -->
<g id="edge55" class="edge"><title>Node44&#45;&gt;Node43</title>
<path fill="none" stroke="midnightblue" d="M1833.86,-33.6129C1816.85,-38.8222 1798.48,-44.4457 1782.15,-49.4484"/>
<polygon fill="midnightblue" stroke="midnightblue" points="1835.15,-36.8763 1843.69,-30.6014 1833.1,-30.1832 1835.15,-36.8763"/>
</g>
<!-- Node45&#45;&gt;Node43 -->
<g id="edge57" class="edge"><title>Node45&#45;&gt;Node43</title>
<path fill="none" stroke="midnightblue" d="M1833.86,-95.3871C1816.85,-90.1778 1798.48,-84.5543 1782.15,-79.5516"/>
<polygon fill="midnightblue" stroke="midnightblue" points="1833.1,-98.8168 1843.69,-98.3986 1835.15,-92.1237 1833.1,-98.8168"/>
</g>
<!-- Node47 -->
<g id="node47" class="node"><title>Node47</title>
<g id="a_node47"><a xlink:href="../../d1/d06/namespace_nx.html#aa0d6e9ef70a72c842646ce53acff7b50" target="_top" xlink:title=" ">
<polygon fill="white" stroke="black" points="1510,-257 1510,-276 1630,-276 1630,-257 1510,-257"/>
<text text-anchor="middle" x="1570" y="-264" font-family="Helvetica,sans-Serif" font-size="10.00">Nx::TextureSplatRender</text>
</a>
</g>
</g>
<!-- Node46&#45;&gt;Node47 -->
<g id="edge59" class="edge"><title>Node46&#45;&gt;Node47</title>
<path fill="none" stroke="midnightblue" d="M1665.76,-265.908C1654.01,-265.981 1641.83,-266.057 1630.26,-266.13"/>
<polygon fill="midnightblue" stroke="midnightblue" points="1665.96,-269.407 1675.94,-265.844 1665.92,-262.407 1665.96,-269.407"/>
</g>
<!-- Node47&#45;&gt;Node8 -->
<g id="edge60" class="edge"><title>Node47&#45;&gt;Node8</title>
<path fill="none" stroke="midnightblue" d="M1499.79,-267.203C1437.06,-267.779 1342.09,-268.5 1259.5,-268.5 1259.5,-268.5 1259.5,-268.5 776,-268.5 674.4,-268.5 639.284,-248.902 549,-295.5 512.823,-314.172 484.312,-354.43 470.711,-376.417"/>
<polygon fill="midnightblue" stroke="midnightblue" points="1499.99,-270.701 1509.96,-267.108 1499.92,-263.702 1499.99,-270.701"/>
</g>
</g>
</svg>
