<?xml version="1.0" encoding="UTF-8" standalone="no"?>
<!DOCTYPE svg PUBLIC "-//W3C//DTD SVG 1.1//EN"
 "http://www.w3.org/Graphics/SVG/1.1/DTD/svg11.dtd">
<!-- Generated by graphviz version 2.38.0 (20140413.2041)
 -->
<!-- Title: GX::PokeARGB Pages: 1 -->
<svg width="2038pt" height="765pt"
 viewBox="0.00 0.00 2038.00 765.00" xmlns="http://www.w3.org/2000/svg" xmlns:xlink="http://www.w3.org/1999/xlink">
<g id="graph0" class="graph" transform="scale(1 1) rotate(0) translate(4 761)">
<title>GX::PokeARGB</title>
<polygon fill="white" stroke="none" points="-4,4 -4,-761 2034,-761 2034,4 -4,4"/>
<!-- Node1 -->
<g id="node1" class="node"><title>Node1</title>
<g id="a_node1"><a xlink:title=" ">
<polygon fill="#bfbfbf" stroke="black" points="1944,-122 1944,-141 2030,-141 2030,-122 1944,-122"/>
<text text-anchor="middle" x="1987" y="-129" font-family="Helvetica,sans-Serif" font-size="10.00">GX::PokeARGB</text>
</a>
</g>
</g>
<!-- Node2 -->
<g id="node2" class="node"><title>Node2</title>
<g id="a_node2"><a xlink:href="../../dd/d46/p__dvd_8h.html#a5631ef8041fb98b594a160bf813168d8" target="_top" xlink:title=" ">
<polygon fill="white" stroke="black" points="1813.5,-149 1813.5,-168 1898.5,-168 1898.5,-149 1813.5,-149"/>
<text text-anchor="middle" x="1856" y="-156" font-family="Helvetica,sans-Serif" font-size="10.00">DVDWaitAsync</text>
</a>
</g>
</g>
<!-- Node1&#45;&gt;Node2 -->
<g id="edge1" class="edge"><title>Node1&#45;&gt;Node2</title>
<path fill="none" stroke="midnightblue" d="M1933.75,-142.436C1922.16,-144.863 1910.01,-147.405 1898.89,-149.732"/>
<polygon fill="midnightblue" stroke="midnightblue" points="1934.69,-145.815 1943.76,-140.341 1933.26,-138.964 1934.69,-145.815"/>
</g>
<!-- Node42 -->
<g id="node42" class="node"><title>Node42</title>
<g id="a_node42"><a xlink:href="../../d9/df7/class_nx_1_1_c_load_screen.html#ae9b68bbc0445ae8b08de25f41c2a325e" target="_top" xlink:title=" ">
<polygon fill="white" stroke="black" points="1804,-90.5 1804,-120.5 1908,-120.5 1908,-90.5 1804,-90.5"/>
<text text-anchor="start" x="1812" y="-108.5" font-family="Helvetica,sans-Serif" font-size="10.00">Nx::CLoadScreen::s</text>
<text text-anchor="middle" x="1856" y="-97.5" font-family="Helvetica,sans-Serif" font-size="10.00">_plat_display</text>
</a>
</g>
</g>
<!-- Node1&#45;&gt;Node42 -->
<g id="edge51" class="edge"><title>Node1&#45;&gt;Node42</title>
<path fill="none" stroke="midnightblue" d="M1933.73,-120.964C1925.35,-119.276 1916.69,-117.531 1908.34,-115.847"/>
<polygon fill="midnightblue" stroke="midnightblue" points="1933.27,-124.442 1943.76,-122.987 1934.65,-117.58 1933.27,-124.442"/>
</g>
<!-- Node3 -->
<g id="node3" class="node"><title>Node3</title>
<g id="a_node3"><a xlink:href="../../de/d1e/p__dvd_8cpp.html#af915797811ad0d00496596d2fa55708c" target="_top" xlink:title=" ">
<polygon fill="white" stroke="black" points="1660.5,-149 1660.5,-168 1738.5,-168 1738.5,-149 1660.5,-149"/>
<text text-anchor="middle" x="1699.5" y="-156" font-family="Helvetica,sans-Serif" font-size="10.00">dvd_read_safe</text>
</a>
</g>
</g>
<!-- Node2&#45;&gt;Node3 -->
<g id="edge2" class="edge"><title>Node2&#45;&gt;Node3</title>
<path fill="none" stroke="midnightblue" d="M1803.1,-158.5C1782,-158.5 1758.08,-158.5 1738.64,-158.5"/>
<polygon fill="midnightblue" stroke="midnightblue" points="1803.19,-162 1813.19,-158.5 1803.19,-155 1803.19,-162"/>
</g>
<!-- Node10 -->
<g id="node10" class="node"><title>Node10</title>
<g id="a_node10"><a xlink:href="../../dd/d46/p__dvd_8h.html#ae6f7ca6cd23e5143185f3152d2470135" target="_top" xlink:title=" ">
<polygon fill="white" stroke="black" points="1653.5,-268 1653.5,-287 1745.5,-287 1745.5,-268 1653.5,-268"/>
<text text-anchor="middle" x="1699.5" y="-275" font-family="Helvetica,sans-Serif" font-size="10.00">DVDCheckAsync</text>
</a>
</g>
</g>
<!-- Node2&#45;&gt;Node10 -->
<g id="edge12" class="edge"><title>Node2&#45;&gt;Node10</title>
<path fill="none" stroke="midnightblue" d="M1834.68,-174.15C1802.2,-199.165 1739.55,-247.422 1712.94,-267.917"/>
<polygon fill="midnightblue" stroke="midnightblue" points="1836.83,-176.912 1842.62,-168.037 1832.56,-171.366 1836.83,-176.912"/>
</g>
<!-- Node4 -->
<g id="node4" class="node"><title>Node4</title>
<g id="a_node4"><a xlink:href="../../de/d1e/p__dvd_8cpp.html#ad747fd8ccd45f0a07b9c17a1e400e6e0" target="_top" xlink:title=" ">
<polygon fill="white" stroke="black" points="1473,-149 1473,-168 1592,-168 1592,-149 1473,-149"/>
<text text-anchor="middle" x="1532.5" y="-156" font-family="Helvetica,sans-Serif" font-size="10.00">dvd_file_read_anywhere</text>
</a>
</g>
</g>
<!-- Node3&#45;&gt;Node4 -->
<g id="edge3" class="edge"><title>Node3&#45;&gt;Node4</title>
<path fill="none" stroke="midnightblue" d="M1650.18,-158.5C1632.04,-158.5 1611.23,-158.5 1592.25,-158.5"/>
<polygon fill="midnightblue" stroke="midnightblue" points="1650.23,-162 1660.23,-158.5 1650.23,-155 1650.23,-162"/>
</g>
<!-- Node5 -->
<g id="node5" class="node"><title>Node5</title>
<g id="a_node5"><a xlink:href="../../de/d1e/p__dvd_8cpp.html#a5588e22b628da0d382b2f568c0d37937" target="_top" xlink:title=" ">
<polygon fill="white" stroke="black" points="1315.5,-137 1315.5,-156 1409.5,-156 1409.5,-137 1315.5,-137"/>
<text text-anchor="middle" x="1362.5" y="-144" font-family="Helvetica,sans-Serif" font-size="10.00">dvd_file_fill_cache</text>
</a>
</g>
</g>
<!-- Node4&#45;&gt;Node5 -->
<g id="edge4" class="edge"><title>Node4&#45;&gt;Node5</title>
<path fill="none" stroke="midnightblue" d="M1462.39,-153.563C1444.57,-152.291 1425.84,-150.953 1409.52,-149.787"/>
<polygon fill="midnightblue" stroke="midnightblue" points="1462.52,-157.082 1472.74,-154.303 1463.02,-150.099 1462.52,-157.082"/>
</g>
<!-- Node6 -->
<g id="node6" class="node"><title>Node6</title>
<g id="a_node6"><a xlink:href="../../de/d1e/p__dvd_8cpp.html#a2d0cba811e59739915f30ca17445dfb9" target="_top" xlink:title=" ">
<polygon fill="white" stroke="black" points="1142.5,-137 1142.5,-156 1214.5,-156 1214.5,-137 1142.5,-137"/>
<text text-anchor="middle" x="1178.5" y="-144" font-family="Helvetica,sans-Serif" font-size="10.00">dvd_file_read</text>
</a>
</g>
</g>
<!-- Node4&#45;&gt;Node6 -->
<g id="edge11" class="edge"><title>Node4&#45;&gt;Node6</title>
<path fill="none" stroke="midnightblue" d="M1462.78,-164.054C1453.12,-164.653 1443.31,-165.166 1434,-165.5 1370.49,-167.777 1354.33,-170.857 1291,-165.5 1265.27,-163.323 1236.55,-158.37 1214.71,-154.066"/>
<polygon fill="midnightblue" stroke="midnightblue" points="1463.01,-167.546 1472.76,-163.401 1462.55,-160.561 1463.01,-167.546"/>
</g>
<!-- Node5&#45;&gt;Node6 -->
<g id="edge5" class="edge"><title>Node5&#45;&gt;Node6</title>
<path fill="none" stroke="midnightblue" d="M1304.92,-146.5C1275.39,-146.5 1240.19,-146.5 1214.61,-146.5"/>
<polygon fill="midnightblue" stroke="midnightblue" points="1305.1,-150 1315.1,-146.5 1305.1,-143 1305.1,-150"/>
</g>
<!-- Node7 -->
<g id="node7" class="node"><title>Node7</title>
<g id="a_node7"><a xlink:href="../../de/d1e/p__dvd_8cpp.html#adccca3cc52084b81293785dd7701205a" target="_top" xlink:title=" ">
<polygon fill="white" stroke="black" points="944,-137 944,-156 1051,-156 1051,-137 944,-137"/>
<text text-anchor="middle" x="997.5" y="-144" font-family="Helvetica,sans-Serif" font-size="10.00">dvd_file_getcharacter</text>
</a>
</g>
</g>
<!-- Node6&#45;&gt;Node7 -->
<g id="edge6" class="edge"><title>Node6&#45;&gt;Node7</title>
<path fill="none" stroke="midnightblue" d="M1131.97,-146.5C1107.32,-146.5 1076.76,-146.5 1051.1,-146.5"/>
<polygon fill="midnightblue" stroke="midnightblue" points="1132.14,-150 1142.14,-146.5 1132.14,-143 1132.14,-150"/>
</g>
<!-- Node9 -->
<g id="node9" class="node"><title>Node9</title>
<g id="a_node9"><a xlink:href="../../dd/d46/p__dvd_8h.html#a3f7e754a2f99a517f16bc88a00e329d1" target="_top" xlink:title=" ">
<polygon fill="white" stroke="black" points="587,-137 587,-156 673,-156 673,-137 587,-137"/>
<text text-anchor="middle" x="630" y="-144" font-family="Helvetica,sans-Serif" font-size="10.00">DVDFileAccess</text>
</a>
</g>
</g>
<!-- Node6&#45;&gt;Node9 -->
<g id="edge10" class="edge"><title>Node6&#45;&gt;Node9</title>
<path fill="none" stroke="midnightblue" d="M1132.42,-137.038C1112.21,-133.256 1088.01,-129.362 1066,-127.5 922.132,-115.33 750.796,-131.896 673.065,-141.094"/>
<polygon fill="midnightblue" stroke="midnightblue" points="1131.81,-140.485 1142.29,-138.934 1133.13,-133.61 1131.81,-140.485"/>
</g>
<!-- Node8 -->
<g id="node8" class="node"><title>Node8</title>
<g id="a_node8"><a xlink:href="../../de/d1e/p__dvd_8cpp.html#a7843ac1c76a3a92251438fb42a65669c" target="_top" xlink:title=" ">
<polygon fill="white" stroke="black" points="781,-175 781,-194 853,-194 853,-175 781,-175"/>
<text text-anchor="middle" x="817" y="-182" font-family="Helvetica,sans-Serif" font-size="10.00">dvd_file_gets</text>
</a>
</g>
</g>
<!-- Node7&#45;&gt;Node8 -->
<g id="edge7" class="edge"><title>Node7&#45;&gt;Node8</title>
<path fill="none" stroke="midnightblue" d="M941.534,-158.201C912.751,-164.329 878.358,-171.651 853.179,-177.011"/>
<polygon fill="midnightblue" stroke="midnightblue" points="942.405,-161.595 951.457,-156.089 940.947,-154.748 942.405,-161.595"/>
</g>
<!-- Node7&#45;&gt;Node9 -->
<g id="edge9" class="edge"><title>Node7&#45;&gt;Node9</title>
<path fill="none" stroke="midnightblue" d="M933.562,-146.5C859.1,-146.5 737.19,-146.5 673.217,-146.5"/>
<polygon fill="midnightblue" stroke="midnightblue" points="933.744,-150 943.744,-146.5 933.743,-143 933.744,-150"/>
</g>
<!-- Node8&#45;&gt;Node9 -->
<g id="edge8" class="edge"><title>Node8&#45;&gt;Node9</title>
<path fill="none" stroke="midnightblue" d="M770.651,-175.185C740.92,-169.078 702.318,-161.149 673.236,-155.176"/>
<polygon fill="midnightblue" stroke="midnightblue" points="770.268,-178.679 780.767,-177.263 771.676,-171.822 770.268,-178.679"/>
</g>
<!-- Node11 -->
<g id="node11" class="node"><title>Node11</title>
<g id="a_node11"><a xlink:href="../../de/d3e/namespace_pcm.html#a8488310aee3f720c9b123abd9c270402" target="_top" xlink:title=" ">
<polygon fill="white" stroke="black" points="1470,-368 1470,-387 1595,-387 1595,-368 1470,-368"/>
<text text-anchor="middle" x="1532.5" y="-375" font-family="Helvetica,sans-Serif" font-size="10.00">Pcm::PCMAudio_Update</text>
</a>
</g>
</g>
<!-- Node10&#45;&gt;Node11 -->
<g id="edge13" class="edge"><title>Node10&#45;&gt;Node11</title>
<path fill="none" stroke="midnightblue" d="M1673.76,-292.493C1639.46,-313.282 1578.41,-350.279 1549.52,-367.794"/>
<polygon fill="midnightblue" stroke="midnightblue" points="1675.94,-295.265 1682.68,-287.088 1672.31,-289.278 1675.94,-295.265"/>
</g>
<!-- Node12 -->
<g id="node12" class="node"><title>Node12</title>
<g id="a_node12"><a xlink:href="../../da/d63/namespace_nx_ngc.html#a253d74fc19d3a41519642cbeee6f96f6" target="_top" xlink:title=" ">
<polygon fill="white" stroke="black" points="1300,-389 1300,-408 1425,-408 1425,-389 1300,-389"/>
<text text-anchor="middle" x="1362.5" y="-396" font-family="Helvetica,sans-Serif" font-size="10.00">NxNgc::do_audio_update</text>
</a>
</g>
</g>
<!-- Node11&#45;&gt;Node12 -->
<g id="edge14" class="edge"><title>Node11&#45;&gt;Node12</title>
<path fill="none" stroke="midnightblue" d="M1459.84,-386.457C1448.28,-387.903 1436.39,-389.388 1425.1,-390.801"/>
<polygon fill="midnightblue" stroke="midnightblue" points="1460.41,-389.914 1469.9,-385.2 1459.54,-382.968 1460.41,-389.914"/>
</g>
<!-- Node16 -->
<g id="node16" class="node"><title>Node16</title>
<g id="a_node16"><a xlink:href="../../d1/d06/namespace_nx.html#a3f259ea8efce4da7e2c65cdcc583e037" target="_top" xlink:title=" ">
<polygon fill="white" stroke="black" points="1308.5,-297 1308.5,-316 1416.5,-316 1416.5,-297 1308.5,-297"/>
<text text-anchor="middle" x="1362.5" y="-304" font-family="Helvetica,sans-Serif" font-size="10.00">Nx::do_audio_update</text>
</a>
</g>
</g>
<!-- Node11&#45;&gt;Node16 -->
<g id="edge18" class="edge"><title>Node11&#45;&gt;Node16</title>
<path fill="none" stroke="midnightblue" d="M1499.58,-364.008C1466.39,-349.982 1415.29,-328.385 1386.07,-316.037"/>
<polygon fill="midnightblue" stroke="midnightblue" points="1498.27,-367.256 1508.84,-367.925 1500.99,-360.808 1498.27,-367.256"/>
</g>
<!-- Node25 -->
<g id="node25" class="node"><title>Node25</title>
<g id="a_node25"><a xlink:href="../../de/d3e/namespace_pcm.html#af405ca6aedfbd64805e40505bd0004ab" target="_top" xlink:title=" ">
<polygon fill="white" stroke="black" points="1325.5,-462 1325.5,-481 1399.5,-481 1399.5,-462 1325.5,-462"/>
<text text-anchor="middle" x="1362.5" y="-469" font-family="Helvetica,sans-Serif" font-size="10.00">Pcm::Update</text>
</a>
</g>
</g>
<!-- Node11&#45;&gt;Node25 -->
<g id="edge33" class="edge"><title>Node11&#45;&gt;Node25</title>
<path fill="none" stroke="midnightblue" d="M1505.39,-392.111C1470.6,-411.573 1410.04,-445.458 1380.58,-461.944"/>
<polygon fill="midnightblue" stroke="midnightblue" points="1507.45,-394.968 1514.47,-387.031 1504.03,-388.859 1507.45,-394.968"/>
</g>
<!-- Node13 -->
<g id="node13" class="node"><title>Node13</title>
<g id="a_node13"><a xlink:href="../../da/d63/namespace_nx_ngc.html#a7377a034ee1b279a116a22780e81cba9" target="_top" xlink:title=" ">
<polygon fill="white" stroke="black" points="1129,-421 1129,-440 1228,-440 1228,-421 1129,-421"/>
<text text-anchor="middle" x="1178.5" y="-428" font-family="Helvetica,sans-Serif" font-size="10.00">NxNgc::hide_mesh</text>
</a>
</g>
</g>
<!-- Node12&#45;&gt;Node13 -->
<g id="edge15" class="edge"><title>Node12&#45;&gt;Node13</title>
<path fill="none" stroke="midnightblue" d="M1297.46,-409.76C1274.68,-413.766 1249.42,-418.207 1228.14,-421.948"/>
<polygon fill="midnightblue" stroke="midnightblue" points="1298.14,-413.193 1307.39,-408.014 1296.93,-406.299 1298.14,-413.193"/>
</g>
<!-- Node14 -->
<g id="node14" class="node"><title>Node14</title>
<g id="a_node14"><a xlink:href="../../d7/df2/struct_nx_ngc_1_1s_scene.html#aef277fe95ac12d8bbaf3a4c36045e6a5" target="_top" xlink:title=" ">
<polygon fill="white" stroke="black" points="930,-420 930,-439 1065,-439 1065,-420 930,-420"/>
<text text-anchor="middle" x="997.5" y="-427" font-family="Helvetica,sans-Serif" font-size="10.00">NxNgc::sScene::HidePolys</text>
</a>
</g>
</g>
<!-- Node13&#45;&gt;Node14 -->
<g id="edge16" class="edge"><title>Node13&#45;&gt;Node14</title>
<path fill="none" stroke="midnightblue" d="M1118.23,-430.169C1101.22,-430.074 1082.56,-429.97 1065.14,-429.872"/>
<polygon fill="midnightblue" stroke="midnightblue" points="1118.57,-433.671 1128.59,-430.227 1118.61,-426.671 1118.57,-433.671"/>
</g>
<!-- Node15 -->
<g id="node15" class="node"><title>Node15</title>
<g id="a_node15"><a xlink:href="../../de/dc7/class_nx_1_1_c_ngc_geom.html#a057ff249f27275f1a91ce3132340928b" target="_top" xlink:title=" ">
<polygon fill="white" stroke="black" points="763.5,-413.5 763.5,-443.5 870.5,-443.5 870.5,-413.5 763.5,-413.5"/>
<text text-anchor="start" x="771.5" y="-431.5" font-family="Helvetica,sans-Serif" font-size="10.00">Nx::CNgcGeom::plat</text>
<text text-anchor="middle" x="817" y="-420.5" font-family="Helvetica,sans-Serif" font-size="10.00">_hide_polys</text>
</a>
</g>
</g>
<!-- Node14&#45;&gt;Node15 -->
<g id="edge17" class="edge"><title>Node14&#45;&gt;Node15</title>
<path fill="none" stroke="midnightblue" d="M919.605,-429.069C903.112,-428.977 886.046,-428.881 870.717,-428.795"/>
<polygon fill="midnightblue" stroke="midnightblue" points="919.76,-432.57 929.779,-429.126 919.799,-425.57 919.76,-432.57"/>
</g>
<!-- Node17 -->
<g id="node17" class="node"><title>Node17</title>
<g id="a_node17"><a xlink:href="../../de/dc7/class_nx_1_1_c_ngc_geom.html#a501b43f26595047755b77ddd402d7300" target="_top" xlink:title=" ">
<polygon fill="white" stroke="black" points="1120,-371.5 1120,-401.5 1237,-401.5 1237,-371.5 1120,-371.5"/>
<text text-anchor="start" x="1128" y="-389.5" font-family="Helvetica,sans-Serif" font-size="10.00">Nx::CNgcGeom::plat</text>
<text text-anchor="middle" x="1178.5" y="-378.5" font-family="Helvetica,sans-Serif" font-size="10.00">_get_num_render_verts</text>
</a>
</g>
</g>
<!-- Node16&#45;&gt;Node17 -->
<g id="edge19" class="edge"><title>Node16&#45;&gt;Node17</title>
<path fill="none" stroke="midnightblue" d="M1336.2,-321.002C1314.95,-332.826 1283.57,-349.479 1255,-361.5 1246.6,-365.034 1237.51,-368.407 1228.65,-371.468"/>
<polygon fill="midnightblue" stroke="midnightblue" points="1337.92,-324.05 1344.92,-316.1 1334.49,-317.947 1337.92,-324.05"/>
</g>
<!-- Node21 -->
<g id="node21" class="node"><title>Node21</title>
<g id="a_node21"><a xlink:href="../../de/dc7/class_nx_1_1_c_ngc_geom.html#a6a86400de3b2d0b1d6f782935dacaf9f" target="_top" xlink:title=" ">
<polygon fill="white" stroke="black" points="1125,-322.5 1125,-352.5 1232,-352.5 1232,-322.5 1125,-322.5"/>
<text text-anchor="start" x="1133" y="-340.5" font-family="Helvetica,sans-Serif" font-size="10.00">Nx::CNgcGeom::plat</text>
<text text-anchor="middle" x="1178.5" y="-329.5" font-family="Helvetica,sans-Serif" font-size="10.00">_get_render_colors</text>
</a>
</g>
</g>
<!-- Node16&#45;&gt;Node21 -->
<g id="edge23" class="edge"><title>Node16&#45;&gt;Node21</title>
<path fill="none" stroke="midnightblue" d="M1298.3,-317.266C1276.68,-320.947 1252.75,-325.023 1232.07,-328.546"/>
<polygon fill="midnightblue" stroke="midnightblue" points="1299.1,-320.679 1308.37,-315.55 1297.92,-313.779 1299.1,-320.679"/>
</g>
<!-- Node22 -->
<g id="node22" class="node"><title>Node22</title>
<g id="a_node22"><a xlink:href="../../de/dc7/class_nx_1_1_c_ngc_geom.html#a81b62b52115b11f92730f6dc10bfd886" target="_top" xlink:title=" ">
<polygon fill="white" stroke="black" points="1125,-224.5 1125,-254.5 1232,-254.5 1232,-224.5 1125,-224.5"/>
<text text-anchor="start" x="1133" y="-242.5" font-family="Helvetica,sans-Serif" font-size="10.00">Nx::CNgcGeom::plat</text>
<text text-anchor="middle" x="1178.5" y="-231.5" font-family="Helvetica,sans-Serif" font-size="10.00">_get_render_verts</text>
</a>
</g>
</g>
<!-- Node16&#45;&gt;Node22 -->
<g id="edge24" class="edge"><title>Node16&#45;&gt;Node22</title>
<path fill="none" stroke="midnightblue" d="M1329.84,-292.981C1308.78,-284.173 1280.43,-272.659 1255,-263.5 1246.59,-260.47 1237.58,-257.432 1228.82,-254.584"/>
<polygon fill="midnightblue" stroke="midnightblue" points="1328.68,-296.29 1339.25,-296.942 1331.39,-289.837 1328.68,-296.29"/>
</g>
<!-- Node23 -->
<g id="node23" class="node"><title>Node23</title>
<g id="a_node23"><a xlink:href="../../de/dc7/class_nx_1_1_c_ngc_geom.html#a2d968043e64af6d07c42c0ee1e06c942" target="_top" xlink:title=" ">
<polygon fill="white" stroke="black" points="1125,-273.5 1125,-303.5 1232,-303.5 1232,-273.5 1125,-273.5"/>
<text text-anchor="start" x="1133" y="-291.5" font-family="Helvetica,sans-Serif" font-size="10.00">Nx::CNgcGeom::plat</text>
<text text-anchor="middle" x="1178.5" y="-280.5" font-family="Helvetica,sans-Serif" font-size="10.00">_set_render_colors</text>
</a>
</g>
</g>
<!-- Node16&#45;&gt;Node23 -->
<g id="edge28" class="edge"><title>Node16&#45;&gt;Node23</title>
<path fill="none" stroke="midnightblue" d="M1298.3,-300.249C1276.68,-298.111 1252.75,-295.745 1232.07,-293.699"/>
<polygon fill="midnightblue" stroke="midnightblue" points="1298.07,-303.744 1308.37,-301.245 1298.76,-296.778 1298.07,-303.744"/>
</g>
<!-- Node24 -->
<g id="node24" class="node"><title>Node24</title>
<g id="a_node24"><a xlink:href="../../de/dc7/class_nx_1_1_c_ngc_geom.html#aeb147ead8994129c101051928526b7bd" target="_top" xlink:title=" ">
<polygon fill="white" stroke="black" points="1125,-175.5 1125,-205.5 1232,-205.5 1232,-175.5 1125,-175.5"/>
<text text-anchor="start" x="1133" y="-193.5" font-family="Helvetica,sans-Serif" font-size="10.00">Nx::CNgcGeom::plat</text>
<text text-anchor="middle" x="1178.5" y="-182.5" font-family="Helvetica,sans-Serif" font-size="10.00">_set_render_verts</text>
</a>
</g>
</g>
<!-- Node16&#45;&gt;Node24 -->
<g id="edge29" class="edge"><title>Node16&#45;&gt;Node24</title>
<path fill="none" stroke="midnightblue" d="M1346.22,-289.65C1326.84,-269.203 1291.52,-234.933 1255,-214.5 1247.92,-210.538 1240.09,-207.127 1232.24,-204.224"/>
<polygon fill="midnightblue" stroke="midnightblue" points="1343.69,-292.064 1353.06,-296.998 1348.81,-287.294 1343.69,-292.064"/>
</g>
<!-- Node18 -->
<g id="node18" class="node"><title>Node18</title>
<g id="a_node18"><a xlink:href="../../de/dc7/class_nx_1_1_c_ngc_geom.html#a35cae1ad9bed8916c1328ee08c2fbd54" target="_top" xlink:title=" ">
<polygon fill="white" stroke="black" points="944,-224.5 944,-254.5 1051,-254.5 1051,-224.5 944,-224.5"/>
<text text-anchor="start" x="952" y="-242.5" font-family="Helvetica,sans-Serif" font-size="10.00">Nx::CNgcGeom::plat</text>
<text text-anchor="middle" x="997.5" y="-231.5" font-family="Helvetica,sans-Serif" font-size="10.00">_rotate_y</text>
</a>
</g>
</g>
<!-- Node17&#45;&gt;Node18 -->
<g id="edge20" class="edge"><title>Node17&#45;&gt;Node18</title>
<path fill="none" stroke="midnightblue" d="M1110.99,-368.645C1107.77,-366.525 1104.74,-364.153 1102,-361.5 1068.66,-329.223 1098.98,-296.139 1066,-263.5 1061.67,-259.213 1056.52,-255.688 1051.03,-252.79"/>
<polygon fill="midnightblue" stroke="midnightblue" points="1109.48,-371.812 1119.91,-373.69 1112.93,-365.719 1109.48,-371.812"/>
</g>
<!-- Node19 -->
<g id="node19" class="node"><title>Node19</title>
<g id="a_node19"><a xlink:href="../../de/dc7/class_nx_1_1_c_ngc_geom.html#a5184d28913c9d4a89c381b559d99dac8" target="_top" xlink:title=" ">
<polygon fill="white" stroke="black" points="944,-175.5 944,-205.5 1051,-205.5 1051,-175.5 944,-175.5"/>
<text text-anchor="start" x="952" y="-193.5" font-family="Helvetica,sans-Serif" font-size="10.00">Nx::CNgcGeom::plat</text>
<text text-anchor="middle" x="997.5" y="-182.5" font-family="Helvetica,sans-Serif" font-size="10.00">_set_scale</text>
</a>
</g>
</g>
<!-- Node17&#45;&gt;Node19 -->
<g id="edge21" class="edge"><title>Node17&#45;&gt;Node19</title>
<path fill="none" stroke="midnightblue" d="M1111.09,-369.325C1107.78,-367.035 1104.72,-364.44 1102,-361.5 1056.37,-312.083 1111.09,-264.413 1066,-214.5 1061.83,-209.885 1056.72,-206.158 1051.18,-203.147"/>
<polygon fill="midnightblue" stroke="midnightblue" points="1109.34,-372.357 1119.73,-374.413 1112.89,-366.324 1109.34,-372.357"/>
</g>
<!-- Node20 -->
<g id="node20" class="node"><title>Node20</title>
<g id="a_node20"><a xlink:href="../../de/dc7/class_nx_1_1_c_ngc_geom.html#adc11b6f35c9e5c01e220c8211103c337" target="_top" xlink:title=" ">
<polygon fill="white" stroke="black" points="944,-273.5 944,-303.5 1051,-303.5 1051,-273.5 944,-273.5"/>
<text text-anchor="start" x="952" y="-291.5" font-family="Helvetica,sans-Serif" font-size="10.00">Nx::CNgcGeom::plat</text>
<text text-anchor="middle" x="997.5" y="-280.5" font-family="Helvetica,sans-Serif" font-size="10.00">_set_world_position</text>
</a>
</g>
</g>
<!-- Node17&#45;&gt;Node20 -->
<g id="edge22" class="edge"><title>Node17&#45;&gt;Node20</title>
<path fill="none" stroke="midnightblue" d="M1115.51,-367.644C1110.87,-365.728 1106.32,-363.678 1102,-361.5 1069.8,-345.264 1036.38,-319.871 1016.52,-303.717"/>
<polygon fill="midnightblue" stroke="midnightblue" points="1114.52,-371.014 1125.1,-371.388 1117.06,-364.493 1114.52,-371.014"/>
</g>
<!-- Node22&#45;&gt;Node18 -->
<g id="edge25" class="edge"><title>Node22&#45;&gt;Node18</title>
<path fill="none" stroke="midnightblue" d="M1114.76,-239.5C1093.99,-239.5 1071.1,-239.5 1051.17,-239.5"/>
<polygon fill="midnightblue" stroke="midnightblue" points="1114.76,-243 1124.76,-239.5 1114.76,-236 1114.76,-243"/>
</g>
<!-- Node22&#45;&gt;Node19 -->
<g id="edge26" class="edge"><title>Node22&#45;&gt;Node19</title>
<path fill="none" stroke="midnightblue" d="M1115.04,-222.403C1094.2,-216.697 1071.19,-210.4 1051.17,-204.918"/>
<polygon fill="midnightblue" stroke="midnightblue" points="1114.19,-225.799 1124.76,-225.063 1116.04,-219.047 1114.19,-225.799"/>
</g>
<!-- Node22&#45;&gt;Node20 -->
<g id="edge27" class="edge"><title>Node22&#45;&gt;Node20</title>
<path fill="none" stroke="midnightblue" d="M1115.04,-256.597C1094.2,-262.303 1071.19,-268.6 1051.17,-274.082"/>
<polygon fill="midnightblue" stroke="midnightblue" points="1116.04,-259.953 1124.76,-253.937 1114.19,-253.201 1116.04,-259.953"/>
</g>
<!-- Node24&#45;&gt;Node18 -->
<g id="edge30" class="edge"><title>Node24&#45;&gt;Node18</title>
<path fill="none" stroke="midnightblue" d="M1115.04,-207.597C1094.2,-213.303 1071.19,-219.6 1051.17,-225.082"/>
<polygon fill="midnightblue" stroke="midnightblue" points="1116.04,-210.953 1124.76,-204.937 1114.19,-204.201 1116.04,-210.953"/>
</g>
<!-- Node24&#45;&gt;Node19 -->
<g id="edge31" class="edge"><title>Node24&#45;&gt;Node19</title>
<path fill="none" stroke="midnightblue" d="M1114.76,-190.5C1093.99,-190.5 1071.1,-190.5 1051.17,-190.5"/>
<polygon fill="midnightblue" stroke="midnightblue" points="1114.76,-194 1124.76,-190.5 1114.76,-187 1114.76,-194"/>
</g>
<!-- Node24&#45;&gt;Node20 -->
<g id="edge32" class="edge"><title>Node24&#45;&gt;Node20</title>
<path fill="none" stroke="midnightblue" d="M1115.42,-206.595C1110.69,-208.898 1106.15,-211.519 1102,-214.5 1080.04,-230.256 1087.58,-247.233 1066,-263.5 1060.91,-267.336 1055.17,-270.636 1049.24,-273.462"/>
<polygon fill="midnightblue" stroke="midnightblue" points="1116.92,-209.758 1124.68,-202.547 1114.12,-203.344 1116.92,-209.758"/>
</g>
<!-- Node26 -->
<g id="node26" class="node"><title>Node26</title>
<g id="a_node26"><a xlink:href="../../d0/d5c/class_ed_1_1_c_park_manager.html#a897030eed0d8e64a5af4d363405f77be" target="_top" xlink:title=" ">
<polygon fill="white" stroke="black" points="1102,-501.5 1102,-531.5 1255,-531.5 1255,-501.5 1102,-501.5"/>
<text text-anchor="start" x="1110" y="-519.5" font-family="Helvetica,sans-Serif" font-size="10.00">Ed::CParkManager::generate</text>
<text text-anchor="middle" x="1178.5" y="-508.5" font-family="Helvetica,sans-Serif" font-size="10.00">_floor_pieces_from_height_map</text>
</a>
</g>
</g>
<!-- Node25&#45;&gt;Node26 -->
<g id="edge34" class="edge"><title>Node25&#45;&gt;Node26</title>
<path fill="none" stroke="midnightblue" d="M1315.34,-482.914C1292.53,-488.554 1264.71,-495.433 1240.2,-501.493"/>
<polygon fill="midnightblue" stroke="midnightblue" points="1316.24,-486.296 1325.11,-480.498 1314.56,-479.501 1316.24,-486.296"/>
</g>
<!-- Node41 -->
<g id="node41" class="node"><title>Node41</title>
<g id="a_node41"><a xlink:href="../../dc/dd3/class_mdl_1_1_front_end.html#a2909c78542c4a9a518d5025f2ed312de" target="_top" xlink:title=" ">
<polygon fill="white" stroke="black" points="1122,-462 1122,-481 1235,-481 1235,-462 1122,-462"/>
<text text-anchor="middle" x="1178.5" y="-469" font-family="Helvetica,sans-Serif" font-size="10.00">Mdl::FrontEnd::update</text>
</a>
</g>
</g>
<!-- Node25&#45;&gt;Node41 -->
<g id="edge50" class="edge"><title>Node25&#45;&gt;Node41</title>
<path fill="none" stroke="midnightblue" d="M1315.06,-471.5C1290.73,-471.5 1260.76,-471.5 1235.2,-471.5"/>
<polygon fill="midnightblue" stroke="midnightblue" points="1315.11,-475 1325.11,-471.5 1315.11,-468 1315.11,-475"/>
</g>
<!-- Node27 -->
<g id="node27" class="node"><title>Node27</title>
<g id="a_node27"><a xlink:href="../../d0/d5c/class_ed_1_1_c_park_manager.html#ae25f8da3eb72427f1321dc50d4d90e15" target="_top" xlink:title=" ">
<polygon fill="white" stroke="black" points="929,-638.5 929,-668.5 1066,-668.5 1066,-638.5 929,-638.5"/>
<text text-anchor="start" x="937" y="-656.5" font-family="Helvetica,sans-Serif" font-size="10.00">Ed::CParkManager::Rebuild</text>
<text text-anchor="middle" x="997.5" y="-645.5" font-family="Helvetica,sans-Serif" font-size="10.00">Floor</text>
</a>
</g>
</g>
<!-- Node26&#45;&gt;Node27 -->
<g id="edge35" class="edge"><title>Node26&#45;&gt;Node27</title>
<path fill="none" stroke="midnightblue" d="M1149.41,-537.998C1112.88,-565.961 1049.97,-614.103 1018.16,-638.456"/>
<polygon fill="midnightblue" stroke="midnightblue" points="1151.85,-540.542 1157.66,-531.685 1147.59,-534.983 1151.85,-540.542"/>
</g>
<!-- Node33 -->
<g id="node33" class="node"><title>Node33</title>
<g id="a_node33"><a xlink:href="../../d0/d5c/class_ed_1_1_c_park_manager.html#a99f4c81a0f4c7285d6667c7480d732ba" target="_top" xlink:title=" ">
<polygon fill="white" stroke="black" points="929,-501.5 929,-531.5 1066,-531.5 1066,-501.5 929,-501.5"/>
<text text-anchor="start" x="937" y="-519.5" font-family="Helvetica,sans-Serif" font-size="10.00">Ed::CParkManager::Rebuild</text>
<text text-anchor="middle" x="997.5" y="-508.5" font-family="Helvetica,sans-Serif" font-size="10.00">WholePark</text>
</a>
</g>
</g>
<!-- Node26&#45;&gt;Node33 -->
<g id="edge41" class="edge"><title>Node26&#45;&gt;Node33</title>
<path fill="none" stroke="midnightblue" d="M1091.8,-516.5C1083.22,-516.5 1074.58,-516.5 1066.21,-516.5"/>
<polygon fill="midnightblue" stroke="midnightblue" points="1091.85,-520 1101.85,-516.5 1091.85,-513 1091.85,-520"/>
</g>
<!-- Node28 -->
<g id="node28" class="node"><title>Node28</title>
<g id="a_node28"><a xlink:href="../../d0/d5c/class_ed_1_1_c_park_manager.html#af3606842ce6881d602a97a4b940f4db3" target="_top" xlink:title=" ">
<polygon fill="white" stroke="black" points="748,-638.5 748,-668.5 886,-668.5 886,-638.5 748,-638.5"/>
<text text-anchor="start" x="756" y="-656.5" font-family="Helvetica,sans-Serif" font-size="10.00">Ed::CParkManager::Change</text>
<text text-anchor="middle" x="817" y="-645.5" font-family="Helvetica,sans-Serif" font-size="10.00">FloorHeight</text>
</a>
</g>
</g>
<!-- Node27&#45;&gt;Node28 -->
<g id="edge36" class="edge"><title>Node27&#45;&gt;Node28</title>
<path fill="none" stroke="midnightblue" d="M918.549,-653.5C907.804,-653.5 896.836,-653.5 886.284,-653.5"/>
<polygon fill="midnightblue" stroke="midnightblue" points="918.762,-657 928.762,-653.5 918.762,-650 918.762,-657"/>
</g>
<!-- Node29 -->
<g id="node29" class="node"><title>Node29</title>
<g id="a_node29"><a xlink:href="../../d0/d5c/class_ed_1_1_c_park_manager.html#ade3a39b0d9543b7a036317bc25214e51" target="_top" xlink:title=" ">
<polygon fill="white" stroke="black" points="747.5,-589.5 747.5,-619.5 886.5,-619.5 886.5,-589.5 747.5,-589.5"/>
<text text-anchor="start" x="755.5" y="-607.5" font-family="Helvetica,sans-Serif" font-size="10.00">Ed::CParkManager::Destroy</text>
<text text-anchor="middle" x="817" y="-596.5" font-family="Helvetica,sans-Serif" font-size="10.00">MetasInArea</text>
</a>
</g>
</g>
<!-- Node27&#45;&gt;Node29 -->
<g id="edge37" class="edge"><title>Node27&#45;&gt;Node29</title>
<path fill="none" stroke="midnightblue" d="M931.58,-635.679C912.307,-630.388 891.396,-624.648 872.831,-619.552"/>
<polygon fill="midnightblue" stroke="midnightblue" points="930.918,-639.126 941.488,-638.399 932.771,-632.376 930.918,-639.126"/>
</g>
<!-- Node30 -->
<g id="node30" class="node"><title>Node30</title>
<g id="a_node30"><a xlink:href="../../d0/d5c/class_ed_1_1_c_park_manager.html#a2c07eca44d2c7c8cbf9983734f760677" target="_top" xlink:title=" ">
<polygon fill="white" stroke="black" points="741,-726.5 741,-756.5 893,-756.5 893,-726.5 741,-726.5"/>
<text text-anchor="start" x="749" y="-744.5" font-family="Helvetica,sans-Serif" font-size="10.00">Ed::CParkManager::ResetFloor</text>
<text text-anchor="middle" x="817" y="-733.5" font-family="Helvetica,sans-Serif" font-size="10.00">Heights</text>
</a>
</g>
</g>
<!-- Node27&#45;&gt;Node30 -->
<g id="edge38" class="edge"><title>Node27&#45;&gt;Node30</title>
<path fill="none" stroke="midnightblue" d="M966.654,-674.148C946.497,-687.462 918.932,-704.473 893,-716.5 885.28,-720.08 876.901,-723.393 868.634,-726.357"/>
<polygon fill="midnightblue" stroke="midnightblue" points="968.721,-676.977 975.087,-668.508 964.829,-671.158 968.721,-676.977"/>
</g>
<!-- Node31 -->
<g id="node31" class="node"><title>Node31</title>
<g id="a_node31"><a xlink:href="../../d2/d84/namespace_ed.html#a18e01a46dde64d90411ab5c2e68344ad" target="_top" xlink:title=" ">
<polygon fill="white" stroke="black" points="774.5,-688 774.5,-707 859.5,-707 859.5,-688 774.5,-688"/>
<text text-anchor="middle" x="817" y="-695" font-family="Helvetica,sans-Serif" font-size="10.00">Ed::ResizePark</text>
</a>
</g>
</g>
<!-- Node27&#45;&gt;Node31 -->
<g id="edge39" class="edge"><title>Node27&#45;&gt;Node31</title>
<path fill="none" stroke="midnightblue" d="M925.611,-670.974C902.072,-676.776 876.753,-683.018 856.59,-687.988"/>
<polygon fill="midnightblue" stroke="midnightblue" points="926.698,-674.311 935.57,-668.519 925.023,-667.514 926.698,-674.311"/>
</g>
<!-- Node32 -->
<g id="node32" class="node"><title>Node32</title>
<g id="a_node32"><a xlink:href="../../d2/d84/namespace_ed.html#ab4c4bf774b1e68db92ab0e79d634bf57" target="_top" xlink:title=" ">
<polygon fill="white" stroke="black" points="575,-688 575,-707 685,-707 685,-688 575,-688"/>
<text text-anchor="middle" x="630" y="-695" font-family="Helvetica,sans-Serif" font-size="10.00">Ed::ScriptResizePark</text>
</a>
</g>
</g>
<!-- Node31&#45;&gt;Node32 -->
<g id="edge40" class="edge"><title>Node31&#45;&gt;Node32</title>
<path fill="none" stroke="midnightblue" d="M764.224,-697.5C739.533,-697.5 710.005,-697.5 685.03,-697.5"/>
<polygon fill="midnightblue" stroke="midnightblue" points="764.482,-701 774.482,-697.5 764.482,-694 764.482,-701"/>
</g>
<!-- Node34 -->
<g id="node34" class="node"><title>Node34</title>
<g id="a_node34"><a xlink:href="../../d8/d13/class_ed_1_1_c_park_editor.html#a960413265bc65b3f6ca5d6288ae4c8bd" target="_top" xlink:title=" ">
<polygon fill="white" stroke="black" points="179,-530 179,-549 325,-549 325,-530 179,-530"/>
<text text-anchor="middle" x="252" y="-537" font-family="Helvetica,sans-Serif" font-size="10.00">Ed::CParkEditor::AccessDisk</text>
</a>
</g>
</g>
<!-- Node33&#45;&gt;Node34 -->
<g id="edge42" class="edge"><title>Node33&#45;&gt;Node34</title>
<path fill="none" stroke="midnightblue" d="M935.001,-533.883C921.287,-537.049 906.737,-539.864 893,-541.5 688.333,-565.868 444.236,-553.871 325.313,-545.416"/>
<polygon fill="midnightblue" stroke="midnightblue" points="935.909,-537.264 944.816,-531.527 934.275,-530.458 935.909,-537.264"/>
</g>
<!-- Node37 -->
<g id="node37" class="node"><title>Node37</title>
<g id="a_node37"><a xlink:href="../../d0/d5c/class_ed_1_1_c_park_manager.html#a129890ee1132f04f2c98e6777431e2a4" target="_top" xlink:title=" ">
<polygon fill="white" stroke="black" points="747,-463 747,-482 887,-482 887,-463 747,-463"/>
<text text-anchor="middle" x="817" y="-470" font-family="Helvetica,sans-Serif" font-size="10.00">Ed::CParkManager::Initialize</text>
</a>
</g>
</g>
<!-- Node33&#45;&gt;Node37 -->
<g id="edge45" class="edge"><title>Node33&#45;&gt;Node37</title>
<path fill="none" stroke="midnightblue" d="M925.611,-499.026C902.072,-493.224 876.753,-486.982 856.59,-482.012"/>
<polygon fill="midnightblue" stroke="midnightblue" points="925.023,-502.486 935.57,-501.481 926.698,-495.689 925.023,-502.486"/>
</g>
<!-- Node38 -->
<g id="node38" class="node"><title>Node38</title>
<g id="a_node38"><a xlink:href="../../d8/d13/class_ed_1_1_c_park_editor.html#a7d21742d7c45dad9428d67cbcdeccd02" target="_top" xlink:title=" ">
<polygon fill="white" stroke="black" points="742.5,-501.5 742.5,-531.5 891.5,-531.5 891.5,-501.5 742.5,-501.5"/>
<text text-anchor="start" x="750.5" y="-519.5" font-family="Helvetica,sans-Serif" font-size="10.00">Ed::CParkEditor::PostMemory</text>
<text text-anchor="middle" x="817" y="-508.5" font-family="Helvetica,sans-Serif" font-size="10.00">CardLoad</text>
</a>
</g>
</g>
<!-- Node33&#45;&gt;Node38 -->
<g id="edge46" class="edge"><title>Node33&#45;&gt;Node38</title>
<path fill="none" stroke="midnightblue" d="M918.704,-516.5C909.719,-516.5 900.577,-516.5 891.649,-516.5"/>
<polygon fill="midnightblue" stroke="midnightblue" points="918.762,-520 928.762,-516.5 918.762,-513 918.762,-520"/>
</g>
<!-- Node35 -->
<g id="node35" class="node"><title>Node35</title>
<g id="a_node35"><a xlink:href="../../d2/d84/namespace_ed.html#ad60f3a0d186b2da60f26277074f39c2d" target="_top" xlink:title=" ">
<polygon fill="white" stroke="black" points="0,-549 0,-568 143,-568 143,-549 0,-549"/>
<text text-anchor="middle" x="71.5" y="-556" font-family="Helvetica,sans-Serif" font-size="10.00">Ed::ScriptLoadParkFromDisk</text>
</a>
</g>
</g>
<!-- Node34&#45;&gt;Node35 -->
<g id="edge43" class="edge"><title>Node34&#45;&gt;Node35</title>
<path fill="none" stroke="midnightblue" d="M168.872,-548.242C160.269,-549.158 151.577,-550.083 143.118,-550.983"/>
<polygon fill="midnightblue" stroke="midnightblue" points="169.338,-551.712 178.912,-547.173 168.597,-544.751 169.338,-551.712"/>
</g>
<!-- Node36 -->
<g id="node36" class="node"><title>Node36</title>
<g id="a_node36"><a xlink:href="../../d2/d84/namespace_ed.html#a16094dc8a2ec4512d21b7a524c913812" target="_top" xlink:title=" ">
<polygon fill="white" stroke="black" points="6,-511 6,-530 137,-530 137,-511 6,-511"/>
<text text-anchor="middle" x="71.5" y="-518" font-family="Helvetica,sans-Serif" font-size="10.00">Ed::ScriptSaveParkToDisk</text>
</a>
</g>
</g>
<!-- Node34&#45;&gt;Node36 -->
<g id="edge44" class="edge"><title>Node34&#45;&gt;Node36</title>
<path fill="none" stroke="midnightblue" d="M168.778,-530.748C158.145,-529.616 147.378,-528.47 137.086,-527.375"/>
<polygon fill="midnightblue" stroke="midnightblue" points="168.597,-534.249 178.912,-531.827 169.338,-527.288 168.597,-534.249"/>
</g>
<!-- Node39 -->
<g id="node39" class="node"><title>Node39</title>
<g id="a_node39"><a xlink:href="../../d0/d5c/class_ed_1_1_c_park_manager.html#af06ffb35bd29d3823932e27fe231c7ea" target="_top" xlink:title=" ">
<polygon fill="white" stroke="black" points="555,-501.5 555,-531.5 705,-531.5 705,-501.5 555,-501.5"/>
<text text-anchor="start" x="563" y="-519.5" font-family="Helvetica,sans-Serif" font-size="10.00">Ed::CParkManager::ReadFrom</text>
<text text-anchor="middle" x="630" y="-508.5" font-family="Helvetica,sans-Serif" font-size="10.00">Structure</text>
</a>
</g>
</g>
<!-- Node38&#45;&gt;Node39 -->
<g id="edge47" class="edge"><title>Node38&#45;&gt;Node39</title>
<path fill="none" stroke="midnightblue" d="M732.266,-516.5C723.275,-516.5 714.172,-516.5 705.302,-516.5"/>
<polygon fill="midnightblue" stroke="midnightblue" points="732.352,-520 742.352,-516.5 732.351,-513 732.352,-520"/>
</g>
<!-- Node40 -->
<g id="node40" class="node"><title>Node40</title>
<g id="a_node40"><a xlink:href="../../d0/d5c/class_ed_1_1_c_park_manager.html#aab29f1a394b0f9b7aeb1a4bd2a969efd" target="_top" xlink:title=" ">
<polygon fill="white" stroke="black" points="361,-510 361,-529 519,-529 519,-510 361,-510"/>
<text text-anchor="middle" x="440" y="-517" font-family="Helvetica,sans-Serif" font-size="10.00">Ed::CParkManager::AccessDisk</text>
</a>
</g>
</g>
<!-- Node39&#45;&gt;Node40 -->
<g id="edge48" class="edge"><title>Node39&#45;&gt;Node40</title>
<path fill="none" stroke="midnightblue" d="M544.719,-517.845C536.259,-517.98 527.693,-518.117 519.299,-518.251"/>
<polygon fill="midnightblue" stroke="midnightblue" points="545.024,-521.341 554.967,-517.681 544.913,-514.341 545.024,-521.341"/>
</g>
<!-- Node40&#45;&gt;Node34 -->
<g id="edge49" class="edge"><title>Node40&#45;&gt;Node34</title>
<path fill="none" stroke="midnightblue" d="M350.885,-528.975C342.293,-529.899 333.645,-530.828 325.236,-531.733"/>
<polygon fill="midnightblue" stroke="midnightblue" points="351.359,-532.444 360.928,-527.895 350.611,-525.484 351.359,-532.444"/>
</g>
<!-- Node43 -->
<g id="node43" class="node"><title>Node43</title>
<g id="a_node43"><a xlink:href="../../d9/df7/class_nx_1_1_c_load_screen.html#ab239c5bc9a4641f20d8cc3cd3fc832bd" target="_top" xlink:title=" ">
<polygon fill="white" stroke="black" points="1631,-86 1631,-105 1768,-105 1768,-86 1631,-86"/>
<text text-anchor="middle" x="1699.5" y="-93" font-family="Helvetica,sans-Serif" font-size="10.00">Nx::CLoadScreen::sDisplay</text>
</a>
</g>
</g>
<!-- Node42&#45;&gt;Node43 -->
<g id="edge52" class="edge"><title>Node42&#45;&gt;Node43</title>
<path fill="none" stroke="midnightblue" d="M1793.88,-101.544C1785.47,-101 1776.8,-100.438 1768.27,-99.8867"/>
<polygon fill="midnightblue" stroke="midnightblue" points="1793.78,-105.045 1803.98,-102.198 1794.23,-98.0592 1793.78,-105.045"/>
</g>
<!-- Node44 -->
<g id="node44" class="node"><title>Node44</title>
<g id="a_node44"><a xlink:href="../../d5/d02/class_obj_1_1_c_movie_manager.html#a178e04942724693bad5e9970fdb72f5d" target="_top" xlink:title=" ">
<polygon fill="white" stroke="black" points="1479,-80.5 1479,-110.5 1586,-110.5 1586,-80.5 1479,-80.5"/>
<text text-anchor="start" x="1487" y="-98.5" font-family="Helvetica,sans-Serif" font-size="10.00">Obj::CMovieManager</text>
<text text-anchor="middle" x="1532.5" y="-87.5" font-family="Helvetica,sans-Serif" font-size="10.00">::AddMovieToQueue</text>
</a>
</g>
</g>
<!-- Node43&#45;&gt;Node44 -->
<g id="edge53" class="edge"><title>Node43&#45;&gt;Node44</title>
<path fill="none" stroke="midnightblue" d="M1620.67,-95.5C1608.95,-95.5 1597.1,-95.5 1586.08,-95.5"/>
<polygon fill="midnightblue" stroke="midnightblue" points="1620.91,-99.0001 1630.91,-95.5 1620.91,-92.0001 1620.91,-99.0001"/>
</g>
<!-- Node48 -->
<g id="node48" class="node"><title>Node48</title>
<g id="a_node48"><a xlink:href="../../d5/d12/_main_8cpp.html#a0e18e794c708408ef1dec237965cb73d" target="_top" xlink:title=" ">
<polygon fill="white" stroke="black" points="1513.5,-42 1513.5,-61 1551.5,-61 1551.5,-42 1513.5,-42"/>
<text text-anchor="middle" x="1532.5" y="-49" font-family="Helvetica,sans-Serif" font-size="10.00">main</text>
</a>
</g>
</g>
<!-- Node43&#45;&gt;Node48 -->
<g id="edge57" class="edge"><title>Node43&#45;&gt;Node48</title>
<path fill="none" stroke="midnightblue" d="M1652.71,-83.2905C1619.4,-74.4078 1576.06,-62.8501 1551.88,-56.4007"/>
<polygon fill="midnightblue" stroke="midnightblue" points="1652.13,-86.7578 1662.7,-85.9527 1653.94,-79.9941 1652.13,-86.7578"/>
</g>
<!-- Node45 -->
<g id="node45" class="node"><title>Node45</title>
<g id="a_node45"><a xlink:href="../../db/d54/namespace_c_funcs.html#a5f901adbe37559921d24d62261f50b79" target="_top" xlink:title=" ">
<polygon fill="white" stroke="black" points="1291,-99 1291,-118 1434,-118 1434,-99 1291,-99"/>
<text text-anchor="middle" x="1362.5" y="-106" font-family="Helvetica,sans-Serif" font-size="10.00">CFuncs::ScriptPlayCutscene</text>
</a>
</g>
</g>
<!-- Node44&#45;&gt;Node45 -->
<g id="edge54" class="edge"><title>Node44&#45;&gt;Node45</title>
<path fill="none" stroke="midnightblue" d="M1468.66,-100.363C1457.41,-101.233 1445.63,-102.145 1434.18,-103.031"/>
<polygon fill="midnightblue" stroke="midnightblue" points="1469.1,-103.839 1478.8,-99.5776 1468.56,-96.8596 1469.1,-103.839"/>
</g>
<!-- Node46 -->
<g id="node46" class="node"><title>Node46</title>
<g id="a_node46"><a xlink:href="../../db/d54/namespace_c_funcs.html#aefe15140c78d4d703ba10395a25ae04b" target="_top" xlink:title=" ">
<polygon fill="white" stroke="black" points="1297,-49.5 1297,-79.5 1428,-79.5 1428,-49.5 1297,-49.5"/>
<text text-anchor="start" x="1305" y="-67.5" font-family="Helvetica,sans-Serif" font-size="10.00">CFuncs::ScriptPlayMoving</text>
<text text-anchor="middle" x="1362.5" y="-56.5" font-family="Helvetica,sans-Serif" font-size="10.00">ObjectAnim</text>
</a>
</g>
</g>
<!-- Node44&#45;&gt;Node46 -->
<g id="edge55" class="edge"><title>Node44&#45;&gt;Node46</title>
<path fill="none" stroke="midnightblue" d="M1468.82,-83.9332C1455.53,-81.4811 1441.48,-78.8883 1428.12,-76.4232"/>
<polygon fill="midnightblue" stroke="midnightblue" points="1468.34,-87.4037 1478.8,-85.7765 1469.61,-80.5199 1468.34,-87.4037"/>
</g>
<!-- Node47 -->
<g id="node47" class="node"><title>Node47</title>
<g id="a_node47"><a xlink:href="../../db/d54/namespace_c_funcs.html#aee67faec954bbc0d41fe51588192bbc8" target="_top" xlink:title=" ">
<polygon fill="white" stroke="black" points="1297.5,-0.5 1297.5,-30.5 1427.5,-30.5 1427.5,-0.5 1297.5,-0.5"/>
<text text-anchor="start" x="1305.5" y="-18.5" font-family="Helvetica,sans-Serif" font-size="10.00">CFuncs::ScriptPlaySkater</text>
<text text-anchor="middle" x="1362.5" y="-7.5" font-family="Helvetica,sans-Serif" font-size="10.00">CamAnim</text>
</a>
</g>
</g>
<!-- Node44&#45;&gt;Node47 -->
<g id="edge56" class="edge"><title>Node44&#45;&gt;Node47</title>
<path fill="none" stroke="midnightblue" d="M1480,-76.0573C1476.55,-74.3025 1473.19,-72.4475 1470,-70.5 1451.98,-59.4906 1452.33,-49.9825 1434,-39.5 1428.16,-36.1622 1421.79,-33.1901 1415.34,-30.5729"/>
<polygon fill="midnightblue" stroke="midnightblue" points="1478.72,-79.3241 1489.25,-80.4628 1481.73,-73.0039 1478.72,-79.3241"/>
</g>
</g>
</svg>
