<?xml version="1.0" encoding="UTF-8" standalone="no"?>
<!DOCTYPE svg PUBLIC "-//W3C//DTD SVG 1.1//EN"
 "http://www.w3.org/Graphics/SVG/1.1/DTD/svg11.dtd">
<!-- Generated by graphviz version 2.38.0 (20140413.2041)
 -->
<!-- Title: Obj::CEventHandlerTable::GetDebugInfo Pages: 1 -->
<svg width="1210pt" height="550pt"
 viewBox="0.00 0.00 1210.00 549.87" xmlns="http://www.w3.org/2000/svg" xmlns:xlink="http://www.w3.org/1999/xlink">
<g id="graph0" class="graph" transform="scale(1 1) rotate(0) translate(4 545.866)">
<title>Obj::CEventHandlerTable::GetDebugInfo</title>
<polygon fill="white" stroke="none" points="-4,4 -4,-545.866 1206,-545.866 1206,4 -4,4"/>
<!-- Node1 -->
<g id="node1" class="node"><title>Node1</title>
<g id="a_node1"><a xlink:title=" ">
<polygon fill="#bfbfbf" stroke="black" points="0,-207.553 0,-237.553 125,-237.553 125,-207.553 0,-207.553"/>
<text text-anchor="start" x="8" y="-225.553" font-family="Helvetica,sans-Serif" font-size="10.00">Obj::CEventHandlerTable</text>
<text text-anchor="middle" x="62.5" y="-214.553" font-family="Helvetica,sans-Serif" font-size="10.00">::GetDebugInfo</text>
</a>
</g>
</g>
<!-- Node2 -->
<g id="node2" class="node"><title>Node2</title>
<g id="a_node2"><a xlink:href="../../d2/df7/class_script_1_1_c_struct.html#a8d7d01e3e97039001e1039ebf7bc830a" target="_top" xlink:title=" ">
<polygon fill="white" stroke="black" points="172.5,-290.553 172.5,-320.553 300.5,-320.553 300.5,-290.553 172.5,-290.553"/>
<text text-anchor="start" x="180.5" y="-308.553" font-family="Helvetica,sans-Serif" font-size="10.00">Script::CStruct::AddArray</text>
<text text-anchor="middle" x="236.5" y="-297.553" font-family="Helvetica,sans-Serif" font-size="10.00">Pointer</text>
</a>
</g>
</g>
<!-- Node1&#45;&gt;Node2 -->
<g id="edge1" class="edge"><title>Node1&#45;&gt;Node2</title>
<path fill="none" stroke="midnightblue" d="M94.6479,-237.584C122.81,-251.173 164.44,-271.263 195.143,-286.078"/>
<polygon fill="midnightblue" stroke="midnightblue" points="193.766,-289.3 204.294,-290.494 196.809,-282.996 193.766,-289.3"/>
</g>
<!-- Node17 -->
<g id="node17" class="node"><title>Node17</title>
<g id="a_node17"><a xlink:href="../../d2/df7/class_script_1_1_c_struct.html#a148f8f6bc239cff60340c410df449c71" target="_top" xlink:title=" ">
<polygon fill="white" stroke="black" points="161,-236.053 161,-255.053 312,-255.053 312,-236.053 161,-236.053"/>
<text text-anchor="middle" x="236.5" y="-243.053" font-family="Helvetica,sans-Serif" font-size="10.00">Script::CStruct::AddChecksum</text>
</a>
</g>
</g>
<!-- Node1&#45;&gt;Node17 -->
<g id="edge20" class="edge"><title>Node1&#45;&gt;Node17</title>
<path fill="none" stroke="midnightblue" d="M125.11,-230.792C134.554,-232.054 144.425,-233.374 154.215,-234.683"/>
<polygon fill="midnightblue" stroke="midnightblue" points="153.99,-238.184 164.365,-236.041 154.918,-231.246 153.99,-238.184"/>
</g>
<!-- Node18 -->
<g id="node18" class="node"><title>Node18</title>
<g id="a_node18"><a xlink:href="../../d0/d0b/class_script_1_1_c_array.html#a54248747f1372c9247b71703853e5bfc" target="_top" xlink:title=" ">
<polygon fill="white" stroke="black" points="716,-189.053 716,-208.053 873,-208.053 873,-189.053 716,-189.053"/>
<text text-anchor="middle" x="794.5" y="-196.053" font-family="Helvetica,sans-Serif" font-size="10.00">Script::CArray::SetSizeAndType</text>
</a>
</g>
</g>
<!-- Node1&#45;&gt;Node18 -->
<g id="edge22" class="edge"><title>Node1&#45;&gt;Node18</title>
<path fill="none" stroke="midnightblue" d="M125.11,-220.527C254.729,-216.266 555.972,-206.362 705.73,-201.439"/>
<polygon fill="midnightblue" stroke="midnightblue" points="705.93,-204.934 715.809,-201.107 705.699,-197.938 705.93,-204.934"/>
</g>
<!-- Node23 -->
<g id="node23" class="node"><title>Node23</title>
<g id="a_node23"><a xlink:href="../../d0/d0b/class_script_1_1_c_array.html#a3f62675cdb3323f37f239a94dc814898" target="_top" xlink:title=" ">
<polygon fill="white" stroke="black" points="355.5,-61.0529 355.5,-80.0529 494.5,-80.0529 494.5,-61.0529 355.5,-61.0529"/>
<text text-anchor="middle" x="425" y="-68.0529" font-family="Helvetica,sans-Serif" font-size="10.00">Script::CArray::SetStructure</text>
</a>
</g>
</g>
<!-- Node1&#45;&gt;Node23 -->
<g id="edge29" class="edge"><title>Node1&#45;&gt;Node23</title>
<path fill="none" stroke="midnightblue" d="M99.3841,-207.423C169.829,-177.721 325.172,-112.222 392.192,-83.9642"/>
<polygon fill="midnightblue" stroke="midnightblue" points="393.565,-87.1841 401.419,-80.0738 390.845,-80.734 393.565,-87.1841"/>
</g>
<!-- Node3 -->
<g id="node3" class="node"><title>Node3</title>
<g id="a_node3"><a xlink:href="../../d2/df7/class_script_1_1_c_struct.html#a3872f7f0a9ebcc695745aabeefab2796" target="_top" xlink:title=" ">
<polygon fill="white" stroke="black" points="348,-300.053 348,-319.053 502,-319.053 502,-300.053 348,-300.053"/>
<text text-anchor="middle" x="425" y="-307.053" font-family="Helvetica,sans-Serif" font-size="10.00">Script::CStruct::AddComponent</text>
</a>
</g>
</g>
<!-- Node2&#45;&gt;Node3 -->
<g id="edge2" class="edge"><title>Node2&#45;&gt;Node3</title>
<path fill="none" stroke="midnightblue" d="M300.64,-306.907C312.446,-307.16 324.973,-307.429 337.345,-307.694"/>
<polygon fill="midnightblue" stroke="midnightblue" points="337.608,-311.201 347.681,-307.916 337.758,-304.202 337.608,-311.201"/>
</g>
<!-- Node4 -->
<g id="node4" class="node"><title>Node4</title>
<g id="a_node4"><a xlink:href="../../d1/d54/namespace_script.html#a1dd030523ebaecb95103d181f6fd382e" target="_top" xlink:title=" ">
<polygon fill="white" stroke="black" points="540.5,-464.053 540.5,-483.053 674.5,-483.053 674.5,-464.053 540.5,-464.053"/>
<text text-anchor="middle" x="607.5" y="-471.053" font-family="Helvetica,sans-Serif" font-size="10.00">Script::CleanUpComponent</text>
</a>
</g>
</g>
<!-- Node3&#45;&gt;Node4 -->
<g id="edge3" class="edge"><title>Node3&#45;&gt;Node4</title>
<path fill="none" stroke="midnightblue" d="M436.485,-319.079C466.143,-346.027 550.909,-423.044 588.348,-457.06"/>
<polygon fill="midnightblue" stroke="midnightblue" points="586.231,-459.866 595.986,-464 590.939,-454.685 586.231,-459.866"/>
</g>
<!-- Node13 -->
<g id="node13" class="node"><title>Node13</title>
<g id="a_node13"><a xlink:href="../../d1/d54/namespace_script.html#ae80ed69ea4edcbcbbbd4985a6efdcd6e" target="_top" xlink:title=" ">
<polygon fill="white" stroke="black" points="538,-302.053 538,-321.053 677,-321.053 677,-302.053 538,-302.053"/>
<text text-anchor="middle" x="607.5" y="-309.053" font-family="Helvetica,sans-Serif" font-size="10.00">Script::FindChecksumName</text>
</a>
</g>
</g>
<!-- Node3&#45;&gt;Node13 -->
<g id="edge16" class="edge"><title>Node3&#45;&gt;Node13</title>
<path fill="none" stroke="midnightblue" d="M502.025,-310.395C510.45,-310.489 519.045,-310.584 527.506,-310.678"/>
<polygon fill="midnightblue" stroke="midnightblue" points="527.701,-314.18 537.739,-310.791 527.778,-307.18 527.701,-314.18"/>
</g>
<!-- Node5 -->
<g id="node5" class="node"><title>Node5</title>
<g id="a_node5"><a xlink:href="../../d1/d54/namespace_script.html#a3dd60f29ada8a33fda9f4e842f1cabc1" target="_top" xlink:title=" ">
<polygon fill="white" stroke="black" points="740.5,-423.053 740.5,-442.053 848.5,-442.053 848.5,-423.053 740.5,-423.053"/>
<text text-anchor="middle" x="794.5" y="-430.053" font-family="Helvetica,sans-Serif" font-size="10.00">Script::CleanUpArray</text>
</a>
</g>
</g>
<!-- Node4&#45;&gt;Node5 -->
<g id="edge4" class="edge"><title>Node4&#45;&gt;Node5</title>
<path fill="none" stroke="midnightblue" d="M651.408,-464.044C677.931,-458.166 712.178,-450.576 740.404,-444.32"/>
<polygon fill="midnightblue" stroke="midnightblue" points="741.499,-447.662 750.505,-442.082 739.984,-440.828 741.499,-447.662"/>
</g>
<!-- Node7 -->
<g id="node7" class="node"><title>Node7</title>
<g id="a_node7"><a xlink:href="../../db/dc4/namespace_mem.html#aeedb606ea94a3398fdcfa3101c5ea8d9" target="_top" xlink:title=" ">
<polygon fill="white" stroke="black" points="1115,-505.053 1115,-524.053 1179,-524.053 1179,-505.053 1115,-505.053"/>
<text text-anchor="middle" x="1147" y="-512.053" font-family="Helvetica,sans-Serif" font-size="10.00">Mem::Free</text>
</a>
</g>
</g>
<!-- Node4&#45;&gt;Node7 -->
<g id="edge15" class="edge"><title>Node4&#45;&gt;Node7</title>
<path fill="none" stroke="midnightblue" d="M633.475,-483.123C654.421,-490.797 685.272,-501.287 713,-507.553 862.122,-541.25 903.945,-549.428 1056,-533.553 1072,-531.882 1089.35,-528.584 1104.5,-525.197"/>
<polygon fill="midnightblue" stroke="midnightblue" points="1105.65,-528.525 1114.6,-522.858 1104.07,-521.705 1105.65,-528.525"/>
</g>
<!-- Node9 -->
<g id="node9" class="node"><title>Node9</title>
<g id="a_node9"><a xlink:href="../../d1/d54/namespace_script.html#a99857fb30343d0c999af4db73344cece" target="_top" xlink:title=" ">
<polygon fill="white" stroke="black" points="933.5,-505.053 933.5,-524.053 1034.5,-524.053 1034.5,-505.053 933.5,-505.053"/>
<text text-anchor="middle" x="984" y="-512.053" font-family="Helvetica,sans-Serif" font-size="10.00">Script::DeleteString</text>
</a>
</g>
</g>
<!-- Node4&#45;&gt;Node9 -->
<g id="edge14" class="edge"><title>Node4&#45;&gt;Node9</title>
<path fill="none" stroke="midnightblue" d="M674.591,-480.789C744.996,-488.496 855.449,-500.589 923.305,-508.018"/>
<polygon fill="midnightblue" stroke="midnightblue" points="923.086,-511.514 933.407,-509.124 923.848,-504.556 923.086,-511.514"/>
</g>
<!-- Node6 -->
<g id="node6" class="node"><title>Node6</title>
<g id="a_node6"><a xlink:href="../../d0/d0b/class_script_1_1_c_array.html#a4b347b8b448dd652473dd6afe9aba2c2" target="_top" xlink:title=" ">
<polygon fill="white" stroke="black" points="930.5,-265.053 930.5,-284.053 1037.5,-284.053 1037.5,-265.053 930.5,-265.053"/>
<text text-anchor="middle" x="984" y="-272.053" font-family="Helvetica,sans-Serif" font-size="10.00">Script::CArray::Clear</text>
</a>
</g>
</g>
<!-- Node5&#45;&gt;Node6 -->
<g id="edge5" class="edge"><title>Node5&#45;&gt;Node6</title>
<path fill="none" stroke="midnightblue" d="M811.5,-422.976C829.157,-411.755 857.518,-391.723 876,-368.553 899.056,-339.648 883.54,-317.156 912,-293.553 914.87,-291.173 918.009,-289.089 921.32,-287.264"/>
<polygon fill="midnightblue" stroke="midnightblue" points="922.837,-290.418 930.414,-283.013 919.873,-284.077 922.837,-290.418"/>
</g>
<!-- Node8 -->
<g id="node8" class="node"><title>Node8</title>
<g id="a_node8"><a xlink:href="../../d1/d54/namespace_script.html#af32f99ba26ca0f255240413a4e23a754" target="_top" xlink:title=" ">
<polygon fill="white" stroke="black" points="1092,-246.053 1092,-265.053 1202,-265.053 1202,-246.053 1092,-246.053"/>
<text text-anchor="middle" x="1147" y="-253.053" font-family="Helvetica,sans-Serif" font-size="10.00">Script::GetTypeName</text>
</a>
</g>
</g>
<!-- Node5&#45;&gt;Node8 -->
<g id="edge13" class="edge"><title>Node5&#45;&gt;Node8</title>
<path fill="none" stroke="midnightblue" d="M810.392,-422.994C832.02,-409.466 873.73,-384.7 912,-369.553 973.546,-345.194 997.278,-362.097 1056,-331.553 1085.16,-316.387 1113.17,-290.313 1129.99,-273.002"/>
<polygon fill="midnightblue" stroke="midnightblue" points="1132.96,-274.958 1137.3,-265.294 1127.88,-270.14 1132.96,-274.958"/>
</g>
<!-- Node5&#45;&gt;Node9 -->
<g id="edge8" class="edge"><title>Node5&#45;&gt;Node9</title>
<path fill="none" stroke="midnightblue" d="M810.399,-442.094C832.036,-455.6 873.756,-480.34 912,-495.553 917.991,-497.936 924.384,-500.119 930.785,-502.087"/>
<polygon fill="midnightblue" stroke="midnightblue" points="930.217,-505.567 940.796,-505.002 932.174,-498.846 930.217,-505.567"/>
</g>
<!-- Node10 -->
<g id="node10" class="node"><title>Node10</title>
<g id="a_node10"><a xlink:href="../../d0/d0b/class_script_1_1_c_array.html#a600fcbd0b8fd9d1df2ee87d77494db7a" target="_top" xlink:title=" ">
<polygon fill="white" stroke="black" points="922.5,-417.553 922.5,-447.553 1045.5,-447.553 1045.5,-417.553 922.5,-417.553"/>
<text text-anchor="start" x="930.5" y="-435.553" font-family="Helvetica,sans-Serif" font-size="10.00">Script::CArray::GetArray</text>
<text text-anchor="middle" x="984" y="-424.553" font-family="Helvetica,sans-Serif" font-size="10.00">Pointer</text>
</a>
</g>
</g>
<!-- Node5&#45;&gt;Node10 -->
<g id="edge10" class="edge"><title>Node5&#45;&gt;Node10</title>
<path fill="none" stroke="midnightblue" d="M848.728,-432.553C868.454,-432.553 891.142,-432.553 912.188,-432.553"/>
<polygon fill="midnightblue" stroke="midnightblue" points="912.367,-436.053 922.367,-432.553 912.367,-429.053 912.367,-436.053"/>
</g>
<!-- Node11 -->
<g id="node11" class="node"><title>Node11</title>
<g id="a_node11"><a xlink:href="../../d0/d0b/class_script_1_1_c_array.html#a71c761bdce14193b10bf3c88372ba5a0" target="_top" xlink:title=" ">
<polygon fill="white" stroke="black" points="924.5,-379.053 924.5,-398.053 1043.5,-398.053 1043.5,-379.053 924.5,-379.053"/>
<text text-anchor="middle" x="984" y="-386.053" font-family="Helvetica,sans-Serif" font-size="10.00">Script::CArray::GetSize</text>
</a>
</g>
</g>
<!-- Node5&#45;&gt;Node11 -->
<g id="edge11" class="edge"><title>Node5&#45;&gt;Node11</title>
<path fill="none" stroke="midnightblue" d="M836.185,-423.006C864.441,-416.375 902.286,-407.494 932.475,-400.409"/>
<polygon fill="midnightblue" stroke="midnightblue" points="933.459,-403.774 942.395,-398.082 931.86,-396.959 933.459,-403.774"/>
</g>
<!-- Node12 -->
<g id="node12" class="node"><title>Node12</title>
<g id="a_node12"><a xlink:href="../../d0/d0b/class_script_1_1_c_array.html#a68067b67ca9aae7b9214c0add1d8934e" target="_top" xlink:title=" ">
<polygon fill="white" stroke="black" points="923.5,-467.053 923.5,-486.053 1044.5,-486.053 1044.5,-467.053 923.5,-467.053"/>
<text text-anchor="middle" x="984" y="-474.053" font-family="Helvetica,sans-Serif" font-size="10.00">Script::CArray::GetType</text>
</a>
</g>
</g>
<!-- Node5&#45;&gt;Node12 -->
<g id="edge12" class="edge"><title>Node5&#45;&gt;Node12</title>
<path fill="none" stroke="midnightblue" d="M836.185,-442.1C864.441,-448.731 902.286,-457.612 932.475,-464.696"/>
<polygon fill="midnightblue" stroke="midnightblue" points="931.86,-468.147 942.395,-467.024 933.459,-461.332 931.86,-468.147"/>
</g>
<!-- Node6&#45;&gt;Node7 -->
<g id="edge6" class="edge"><title>Node6&#45;&gt;Node7</title>
<path fill="none" stroke="midnightblue" d="M1037.84,-282.713C1044.46,-285.386 1050.74,-288.911 1056,-293.553 1117.89,-348.139 1137.96,-451.586 1143.81,-494.803"/>
<polygon fill="midnightblue" stroke="midnightblue" points="1140.36,-495.376 1145.06,-504.869 1147.31,-494.514 1140.36,-495.376"/>
</g>
<!-- Node6&#45;&gt;Node8 -->
<g id="edge7" class="edge"><title>Node6&#45;&gt;Node8</title>
<path fill="none" stroke="midnightblue" d="M1037.72,-268.332C1051.8,-266.67 1067.18,-264.855 1081.8,-263.129"/>
<polygon fill="midnightblue" stroke="midnightblue" points="1082.26,-266.599 1091.78,-261.951 1081.44,-259.647 1082.26,-266.599"/>
</g>
<!-- Node9&#45;&gt;Node7 -->
<g id="edge9" class="edge"><title>Node9&#45;&gt;Node7</title>
<path fill="none" stroke="midnightblue" d="M1034.62,-514.553C1057.01,-514.553 1083.16,-514.553 1104.49,-514.553"/>
<polygon fill="midnightblue" stroke="midnightblue" points="1104.54,-518.053 1114.54,-514.553 1104.54,-511.053 1104.54,-518.053"/>
</g>
<!-- Node14 -->
<g id="node14" class="node"><title>Node14</title>
<g id="a_node14"><a xlink:href="../../d1/d54/namespace_script.html#a5cc52c4ff5ea5bb27681d819212dfdca" target="_top" xlink:title=" ">
<polygon fill="white" stroke="black" points="713,-302.053 713,-321.053 876,-321.053 876,-302.053 713,-302.053"/>
<text text-anchor="middle" x="794.5" y="-309.053" font-family="Helvetica,sans-Serif" font-size="10.00">Script::FindChecksumNameNULL</text>
</a>
</g>
</g>
<!-- Node13&#45;&gt;Node14 -->
<g id="edge17" class="edge"><title>Node13&#45;&gt;Node14</title>
<path fill="none" stroke="midnightblue" d="M677.124,-311.553C685.476,-311.553 694.107,-311.553 702.717,-311.553"/>
<polygon fill="midnightblue" stroke="midnightblue" points="702.798,-315.053 712.798,-311.553 702.798,-308.053 702.798,-315.053"/>
</g>
<!-- Node16 -->
<g id="node16" class="node"><title>Node16</title>
<g id="a_node16"><a xlink:href="../../da/d37/namespace_dbg.html#ab406a8cc16de5046c7d9fd09c9de5e22" target="_top" xlink:title=" ">
<polygon fill="white" stroke="black" points="761.5,-340.053 761.5,-359.053 827.5,-359.053 827.5,-340.053 761.5,-340.053"/>
<text text-anchor="middle" x="794.5" y="-347.053" font-family="Helvetica,sans-Serif" font-size="10.00">Dbg::sprintf</text>
</a>
</g>
</g>
<!-- Node13&#45;&gt;Node16 -->
<g id="edge19" class="edge"><title>Node13&#45;&gt;Node16</title>
<path fill="none" stroke="midnightblue" d="M655.183,-321.142C684.737,-327.212 722.637,-334.997 751.289,-340.883"/>
<polygon fill="midnightblue" stroke="midnightblue" points="750.895,-344.375 761.394,-342.958 752.303,-337.518 750.895,-344.375"/>
</g>
<!-- Node15 -->
<g id="node15" class="node"><title>Node15</title>
<g id="a_node15"><a xlink:href="../../d0/d31/namespace_config.html#a709cc81780d49900157e3476b63aa25d" target="_top" xlink:title=" ">
<polygon fill="white" stroke="black" points="922,-303.053 922,-322.053 1046,-322.053 1046,-303.053 922,-303.053"/>
<text text-anchor="middle" x="984" y="-310.053" font-family="Helvetica,sans-Serif" font-size="10.00">Config::GotExtraMemory</text>
</a>
</g>
</g>
<!-- Node14&#45;&gt;Node15 -->
<g id="edge18" class="edge"><title>Node14&#45;&gt;Node15</title>
<path fill="none" stroke="midnightblue" d="M876.105,-311.983C887.927,-312.046 900.034,-312.11 911.653,-312.172"/>
<polygon fill="midnightblue" stroke="midnightblue" points="911.7,-315.673 921.719,-312.226 911.738,-308.673 911.7,-315.673"/>
</g>
<!-- Node17&#45;&gt;Node3 -->
<g id="edge21" class="edge"><title>Node17&#45;&gt;Node3</title>
<path fill="none" stroke="midnightblue" d="M265.421,-255.134C297.651,-266.195 350.807,-284.436 386.592,-296.716"/>
<polygon fill="midnightblue" stroke="midnightblue" points="385.599,-300.075 396.193,-300.011 387.871,-293.454 385.599,-300.075"/>
</g>
<!-- Node18&#45;&gt;Node6 -->
<g id="edge23" class="edge"><title>Node18&#45;&gt;Node6</title>
<path fill="none" stroke="midnightblue" d="M815.461,-208.152C838.472,-219.055 877.553,-237.077 912,-250.553 922.009,-254.468 932.951,-258.356 943.182,-261.826"/>
<polygon fill="midnightblue" stroke="midnightblue" points="942.125,-265.163 952.719,-265.012 944.343,-258.523 942.125,-265.163"/>
</g>
<!-- Node18&#45;&gt;Node8 -->
<g id="edge24" class="edge"><title>Node18&#45;&gt;Node8</title>
<path fill="none" stroke="midnightblue" d="M853.869,-208.08C872.45,-211.111 893.088,-214.475 912,-217.553 969.336,-226.884 1034.58,-237.477 1081.58,-245.104"/>
<polygon fill="midnightblue" stroke="midnightblue" points="1081.19,-248.586 1091.62,-246.733 1082.31,-241.677 1081.19,-248.586"/>
</g>
<!-- Node19 -->
<g id="node19" class="node"><title>Node19</title>
<g id="a_node19"><a xlink:href="../../db/dc4/namespace_mem.html#a10246603d03405159c82320b96e3efbf" target="_top" xlink:title=" ">
<polygon fill="white" stroke="black" points="947.5,-189.053 947.5,-208.053 1020.5,-208.053 1020.5,-189.053 947.5,-189.053"/>
<text text-anchor="middle" x="984" y="-196.053" font-family="Helvetica,sans-Serif" font-size="10.00">Mem::Malloc</text>
</a>
</g>
</g>
<!-- Node18&#45;&gt;Node19 -->
<g id="edge25" class="edge"><title>Node18&#45;&gt;Node19</title>
<path fill="none" stroke="midnightblue" d="M873.117,-198.553C894.979,-198.553 918.048,-198.553 937.374,-198.553"/>
<polygon fill="midnightblue" stroke="midnightblue" points="937.402,-202.053 947.402,-198.553 937.402,-195.053 937.402,-202.053"/>
</g>
<!-- Node20 -->
<g id="node20" class="node"><title>Node20</title>
<g id="a_node20"><a xlink:href="../../d2/d0a/class_mem_1_1_manager.html#a7c4cba14870f002aee0243e16114f443" target="_top" xlink:title=" ">
<polygon fill="white" stroke="black" points="914.5,-151.053 914.5,-170.053 1053.5,-170.053 1053.5,-151.053 914.5,-151.053"/>
<text text-anchor="middle" x="984" y="-158.053" font-family="Helvetica,sans-Serif" font-size="10.00">Mem::Manager::PopContext</text>
</a>
</g>
</g>
<!-- Node18&#45;&gt;Node20 -->
<g id="edge26" class="edge"><title>Node18&#45;&gt;Node20</title>
<path fill="none" stroke="midnightblue" d="M842.814,-188.964C868.114,-183.836 899.45,-177.486 926.075,-172.09"/>
<polygon fill="midnightblue" stroke="midnightblue" points="926.921,-175.49 936.026,-170.073 925.53,-168.629 926.921,-175.49"/>
</g>
<!-- Node21 -->
<g id="node21" class="node"><title>Node21</title>
<g id="a_node21"><a xlink:href="../../d2/d0a/class_mem_1_1_manager.html#aaf8e36abc36eecabe46bf2582035192a" target="_top" xlink:title=" ">
<polygon fill="white" stroke="black" points="912,-113.053 912,-132.053 1056,-132.053 1056,-113.053 912,-113.053"/>
<text text-anchor="middle" x="984" y="-120.053" font-family="Helvetica,sans-Serif" font-size="10.00">Mem::Manager::PushContext</text>
</a>
</g>
</g>
<!-- Node18&#45;&gt;Node21 -->
<g id="edge27" class="edge"><title>Node18&#45;&gt;Node21</title>
<path fill="none" stroke="midnightblue" d="M812.408,-188.983C834.674,-176.686 875.308,-155.291 912,-141.553 918.423,-139.148 925.279,-136.915 932.103,-134.889"/>
<polygon fill="midnightblue" stroke="midnightblue" points="933.36,-138.17 942.023,-132.071 931.447,-131.437 933.36,-138.17"/>
</g>
<!-- Node22 -->
<g id="node22" class="node"><title>Node22</title>
<g id="a_node22"><a xlink:href="../../d2/d0a/class_mem_1_1_manager.html#a3aefd91781b7f41d35e6df6a32d379d0" target="_top" xlink:title=" ">
<polygon fill="white" stroke="black" points="922.5,-75.0529 922.5,-94.0529 1045.5,-94.0529 1045.5,-75.0529 922.5,-75.0529"/>
<text text-anchor="middle" x="984" y="-82.0529" font-family="Helvetica,sans-Serif" font-size="10.00">Mem::Manager::sHandle</text>
</a>
</g>
</g>
<!-- Node18&#45;&gt;Node22 -->
<g id="edge28" class="edge"><title>Node18&#45;&gt;Node22</title>
<path fill="none" stroke="midnightblue" d="M804.474,-188.889C822.813,-169.717 866.692,-126.727 912,-103.553 916.569,-101.216 921.455,-99.1444 926.445,-97.3125"/>
<polygon fill="midnightblue" stroke="midnightblue" points="927.741,-100.57 936.115,-94.0781 925.521,-93.9311 927.741,-100.57"/>
</g>
<!-- Node23&#45;&gt;Node8 -->
<g id="edge30" class="edge"><title>Node23&#45;&gt;Node8</title>
<path fill="none" stroke="midnightblue" d="M452.714,-60.9716C545.107,-29.6317 856.36,60.7856 1056,-65.5529 1116.61,-103.911 1137.2,-195.346 1143.5,-235.763"/>
<polygon fill="midnightblue" stroke="midnightblue" points="1140.04,-236.316 1144.92,-245.723 1146.97,-235.329 1140.04,-236.316"/>
</g>
</g>
</svg>
