<?xml version="1.0" encoding="UTF-8" standalone="no"?>
<!DOCTYPE svg PUBLIC "-//W3C//DTD SVG 1.1//EN"
 "http://www.w3.org/Graphics/SVG/1.1/DTD/svg11.dtd">
<!-- Generated by graphviz version 2.38.0 (20140413.2041)
 -->
<!-- Title: GameNet::Manager::ResetPlayers Pages: 1 -->
<svg width="400pt" height="78pt"
 viewBox="0.00 0.00 400.00 77.50" xmlns="http://www.w3.org/2000/svg" xmlns:xlink="http://www.w3.org/1999/xlink">
<g id="graph0" class="graph" transform="scale(1 1) rotate(0) translate(4 73.5)">
<title>GameNet::Manager::ResetPlayers</title>
<polygon fill="white" stroke="none" points="-4,4 -4,-73.5 396,-73.5 396,4 -4,4"/>
<!-- Node1 -->
<g id="node1" class="node"><title>Node1</title>
<g id="a_node1"><a xlink:title=" ">
<polygon fill="#bfbfbf" stroke="black" points="226,-28 226,-47 392,-47 392,-28 226,-28"/>
<text text-anchor="middle" x="309" y="-35" font-family="Helvetica,sans-Serif" font-size="10.00">GameNet::Manager::ResetPlayers</text>
</a>
</g>
</g>
<!-- Node2 -->
<g id="node2" class="node"><title>Node2</title>
<g id="a_node2"><a xlink:href="../../d2/d8e/class_game_net_1_1_manager.html#a25cee310b01e8a3406142fd90f709209" target="_top" xlink:title=" ">
<polygon fill="white" stroke="black" points="0,-50 0,-69 190,-69 190,-50 0,-50"/>
<text text-anchor="middle" x="95" y="-57" font-family="Helvetica,sans-Serif" font-size="10.00">GameNet::Manager::StartNetworkGame</text>
</a>
</g>
</g>
<!-- Node1&#45;&gt;Node2 -->
<g id="edge1" class="edge"><title>Node1&#45;&gt;Node2</title>
<path fill="none" stroke="midnightblue" d="M215.724,-47.0758C206.437,-48.0396 197.007,-49.0182 187.725,-49.9814"/>
<polygon fill="midnightblue" stroke="midnightblue" points="216.147,-50.5508 225.732,-46.0373 215.424,-43.5882 216.147,-50.5508"/>
</g>
<!-- Node3 -->
<g id="node3" class="node"><title>Node3</title>
<g id="a_node3"><a xlink:href="../../d2/d8e/class_game_net_1_1_manager.html#a304701d0db032a04d30ce9f781351e67" target="_top" xlink:title=" ">
<polygon fill="white" stroke="black" points="13,-0.5 13,-30.5 177,-30.5 177,-0.5 13,-0.5"/>
<text text-anchor="start" x="21" y="-18.5" font-family="Helvetica,sans-Serif" font-size="10.00">GameNet::Manager::StartNetwork</text>
<text text-anchor="middle" x="95" y="-7.5" font-family="Helvetica,sans-Serif" font-size="10.00">Lobby</text>
</a>
</g>
</g>
<!-- Node1&#45;&gt;Node3 -->
<g id="edge2" class="edge"><title>Node1&#45;&gt;Node3</title>
<path fill="none" stroke="midnightblue" d="M215.555,-27.9067C202.776,-26.5805 189.73,-25.2267 177.176,-23.9239"/>
<polygon fill="midnightblue" stroke="midnightblue" points="215.424,-31.4118 225.732,-28.9627 216.147,-24.4492 215.424,-31.4118"/>
</g>
</g>
</svg>
