<?xml version="1.0" encoding="UTF-8" standalone="no"?>
<!DOCTYPE svg PUBLIC "-//W3C//DTD SVG 1.1//EN"
 "http://www.w3.org/Graphics/SVG/1.1/DTD/svg11.dtd">
<!-- Generated by graphviz version 2.38.0 (20140413.2041)
 -->
<!-- Title: GameNet::Manager::SetServerListState Pages: 1 -->
<svg width="536pt" height="301pt"
 viewBox="0.00 0.00 536.00 301.00" xmlns="http://www.w3.org/2000/svg" xmlns:xlink="http://www.w3.org/1999/xlink">
<g id="graph0" class="graph" transform="scale(1 1) rotate(0) translate(4 297)">
<title>GameNet::Manager::SetServerListState</title>
<polygon fill="white" stroke="none" points="-4,4 -4,-297 532,-297 532,4 -4,4"/>
<!-- Node1 -->
<g id="node1" class="node"><title>Node1</title>
<g id="a_node1"><a xlink:title=" ">
<polygon fill="#bfbfbf" stroke="black" points="379,-142.5 379,-172.5 528,-172.5 528,-142.5 379,-142.5"/>
<text text-anchor="start" x="387" y="-160.5" font-family="Helvetica,sans-Serif" font-size="10.00">GameNet::Manager::SetServer</text>
<text text-anchor="middle" x="453.5" y="-149.5" font-family="Helvetica,sans-Serif" font-size="10.00">ListState</text>
</a>
</g>
</g>
<!-- Node2 -->
<g id="node2" class="node"><title>Node2</title>
<g id="a_node2"><a xlink:href="../../d2/d8e/class_game_net_1_1_manager.html#ab5f72c00faa8e00954961723cb680703" target="_top" xlink:title=" ">
<polygon fill="white" stroke="black" points="180,-262.5 180,-292.5 336,-292.5 336,-262.5 180,-262.5"/>
<text text-anchor="start" x="188" y="-280.5" font-family="Helvetica,sans-Serif" font-size="10.00">GameNet::Manager::Disconnect</text>
<text text-anchor="middle" x="258" y="-269.5" font-family="Helvetica,sans-Serif" font-size="10.00">FromInternet</text>
</a>
</g>
</g>
<!-- Node1&#45;&gt;Node2 -->
<g id="edge1" class="edge"><title>Node1&#45;&gt;Node2</title>
<path fill="none" stroke="midnightblue" d="M432.178,-179.979C411.626,-201.451 377.977,-233.304 343,-252.5 336.064,-256.307 328.48,-259.598 320.797,-262.427"/>
<polygon fill="midnightblue" stroke="midnightblue" points="434.835,-182.263 439.136,-172.581 429.736,-177.468 434.835,-182.263"/>
</g>
<!-- Node4 -->
<g id="node4" class="node"><title>Node4</title>
<g id="a_node4"><a xlink:href="../../d2/d8e/class_game_net_1_1_manager.html#a7f6cf30861a527c6a28ba5ba25e819ef" target="_top" xlink:title=" ">
<polygon fill="white" stroke="black" points="173,-224 173,-243 343,-243 343,-224 173,-224"/>
<text text-anchor="middle" x="258" y="-231" font-family="Helvetica,sans-Serif" font-size="10.00">GameNet::Manager::MotdComplete</text>
</a>
</g>
</g>
<!-- Node1&#45;&gt;Node4 -->
<g id="edge3" class="edge"><title>Node1&#45;&gt;Node4</title>
<path fill="none" stroke="midnightblue" d="M415.098,-177.149C394.243,-187.622 367.588,-200.222 343,-209.5 328.384,-215.015 311.931,-219.978 297.486,-223.939"/>
<polygon fill="midnightblue" stroke="midnightblue" points="416.911,-180.154 424.243,-172.507 413.742,-173.912 416.911,-180.154"/>
</g>
<!-- Node5 -->
<g id="node5" class="node"><title>Node5</title>
<g id="a_node5"><a xlink:href="../../d2/d8e/class_game_net_1_1_manager.html#a4ed0ccf0188480b499d1bf60f8897587" target="_top" xlink:title=" ">
<polygon fill="white" stroke="black" points="7,-188 7,-229 130,-229 130,-188 7,-188"/>
<text text-anchor="start" x="15" y="-217" font-family="Helvetica,sans-Serif" font-size="10.00">GameNet::Manager::s</text>
<text text-anchor="start" x="15" y="-206" font-family="Helvetica,sans-Serif" font-size="10.00">_threaded_get_message</text>
<text text-anchor="middle" x="68.5" y="-195" font-family="Helvetica,sans-Serif" font-size="10.00">_of_the_day</text>
</a>
</g>
</g>
<!-- Node1&#45;&gt;Node5 -->
<g id="edge5" class="edge"><title>Node1&#45;&gt;Node5</title>
<path fill="none" stroke="midnightblue" d="M368.699,-168.659C296.687,-178.248 194.566,-191.846 130.201,-200.417"/>
<polygon fill="midnightblue" stroke="midnightblue" points="369.203,-172.123 378.654,-167.333 368.279,-165.184 369.203,-172.123"/>
</g>
<!-- Node6 -->
<g id="node6" class="node"><title>Node6</title>
<g id="a_node6"><a xlink:href="../../d2/d8e/class_game_net_1_1_manager.html#aad03282e67fd899dd8e2bf17a2db68fb" target="_top" xlink:title=" ">
<polygon fill="white" stroke="black" points="9.5,-87.5 9.5,-117.5 127.5,-117.5 127.5,-87.5 9.5,-87.5"/>
<text text-anchor="start" x="17.5" y="-105.5" font-family="Helvetica,sans-Serif" font-size="10.00">GameNet::Manager::s</text>
<text text-anchor="middle" x="68.5" y="-94.5" font-family="Helvetica,sans-Serif" font-size="10.00">_threaded_track_usage</text>
</a>
</g>
</g>
<!-- Node1&#45;&gt;Node6 -->
<g id="edge6" class="edge"><title>Node1&#45;&gt;Node6</title>
<path fill="none" stroke="midnightblue" d="M368.629,-157.049C312.724,-155.395 237.875,-150.567 173,-137.5 150.5,-132.968 126.147,-124.901 106.72,-117.653"/>
<polygon fill="midnightblue" stroke="midnightblue" points="368.751,-160.554 378.841,-157.322 368.938,-153.556 368.751,-160.554"/>
</g>
<!-- Node7 -->
<g id="node7" class="node"><title>Node7</title>
<g id="a_node7"><a xlink:href="../../d2/d8e/class_game_net_1_1_manager.html#a3223ffbe082f931e86e4e0bb80f0f51d" target="_top" xlink:title=" ">
<polygon fill="white" stroke="black" points="191.5,-98.5 191.5,-128.5 324.5,-128.5 324.5,-98.5 191.5,-98.5"/>
<text text-anchor="start" x="199.5" y="-116.5" font-family="Helvetica,sans-Serif" font-size="10.00">GameNet::Manager::Script</text>
<text text-anchor="middle" x="258" y="-105.5" font-family="Helvetica,sans-Serif" font-size="10.00">DownloadMotd</text>
</a>
</g>
</g>
<!-- Node1&#45;&gt;Node7 -->
<g id="edge7" class="edge"><title>Node1&#45;&gt;Node7</title>
<path fill="none" stroke="midnightblue" d="M376.503,-140.219C359.402,-136.33 341.393,-132.235 324.753,-128.452"/>
<polygon fill="midnightblue" stroke="midnightblue" points="375.922,-143.676 386.449,-142.481 377.474,-136.851 375.922,-143.676"/>
</g>
<!-- Node8 -->
<g id="node8" class="node"><title>Node8</title>
<g id="a_node8"><a xlink:href="../../d7/d5d/class_game_net_1_1_lobby_man.html#a720789f37b9f515ad37e330212856685" target="_top" xlink:title=" ">
<polygon fill="white" stroke="black" points="200.5,-0.5 200.5,-30.5 315.5,-30.5 315.5,-0.5 200.5,-0.5"/>
<text text-anchor="start" x="208.5" y="-18.5" font-family="Helvetica,sans-Serif" font-size="10.00">GameNet::LobbyMan::</text>
<text text-anchor="middle" x="258" y="-7.5" font-family="Helvetica,sans-Serif" font-size="10.00">StopReportingGame</text>
</a>
</g>
</g>
<!-- Node1&#45;&gt;Node8 -->
<g id="edge8" class="edge"><title>Node1&#45;&gt;Node8</title>
<path fill="none" stroke="midnightblue" d="M436.766,-133.967C417.671,-107.209 383.017,-64.0633 343,-39.5 334.727,-34.4221 325.341,-30.3831 315.915,-27.181"/>
<polygon fill="midnightblue" stroke="midnightblue" points="434.035,-136.169 442.631,-142.362 439.774,-132.16 434.035,-136.169"/>
</g>
<!-- Node10 -->
<g id="node10" class="node"><title>Node10</title>
<g id="a_node10"><a xlink:href="../../d2/d8e/class_game_net_1_1_manager.html#aa92357865c361e7a9fbbc470658480e0" target="_top" xlink:title=" ">
<polygon fill="white" stroke="black" points="178.5,-49.5 178.5,-79.5 337.5,-79.5 337.5,-49.5 178.5,-49.5"/>
<text text-anchor="start" x="186.5" y="-67.5" font-family="Helvetica,sans-Serif" font-size="10.00">GameNet::Manager::TrackUsage</text>
<text text-anchor="middle" x="258" y="-56.5" font-family="Helvetica,sans-Serif" font-size="10.00">Complete</text>
</a>
</g>
</g>
<!-- Node1&#45;&gt;Node10 -->
<g id="edge10" class="edge"><title>Node1&#45;&gt;Node10</title>
<path fill="none" stroke="midnightblue" d="M424.199,-136.504C402.799,-121.432 372.209,-101.554 343,-88.5 335.523,-85.1582 327.462,-82.1584 319.398,-79.5049"/>
<polygon fill="midnightblue" stroke="midnightblue" points="422.322,-139.465 432.494,-142.43 426.392,-133.769 422.322,-139.465"/>
</g>
<!-- Node3 -->
<g id="node3" class="node"><title>Node3</title>
<g id="a_node3"><a xlink:href="../../d2/d8e/class_game_net_1_1_manager.html#ab5797efa060867e6b8fadde7f011c0e8" target="_top" xlink:title=" ">
<polygon fill="white" stroke="black" points="0,-262.5 0,-292.5 137,-292.5 137,-262.5 0,-262.5"/>
<text text-anchor="start" x="8" y="-280.5" font-family="Helvetica,sans-Serif" font-size="10.00">GameNet::Manager::Cancel</text>
<text text-anchor="middle" x="68.5" y="-269.5" font-family="Helvetica,sans-Serif" font-size="10.00">ConnectToInternet</text>
</a>
</g>
</g>
<!-- Node2&#45;&gt;Node3 -->
<g id="edge2" class="edge"><title>Node2&#45;&gt;Node3</title>
<path fill="none" stroke="midnightblue" d="M169.913,-277.5C158.955,-277.5 147.876,-277.5 137.277,-277.5"/>
<polygon fill="midnightblue" stroke="midnightblue" points="169.925,-281 179.925,-277.5 169.925,-274 169.925,-281"/>
</g>
<!-- Node4&#45;&gt;Node5 -->
<g id="edge4" class="edge"><title>Node4&#45;&gt;Node5</title>
<path fill="none" stroke="midnightblue" d="M175.605,-222.647C160.303,-220.607 144.554,-218.507 130.027,-216.57"/>
<polygon fill="midnightblue" stroke="midnightblue" points="175.205,-226.125 185.579,-223.977 176.13,-219.186 175.205,-226.125"/>
</g>
<!-- Node9 -->
<g id="node9" class="node"><title>Node9</title>
<g id="a_node9"><a xlink:href="../../d2/d8e/class_game_net_1_1_manager.html#ae9e1f1255e7932924c89856298e65872" target="_top" xlink:title=" ">
<polygon fill="white" stroke="black" points="1.5,-0.5 1.5,-30.5 135.5,-30.5 135.5,-0.5 1.5,-0.5"/>
<text text-anchor="start" x="9.5" y="-18.5" font-family="Helvetica,sans-Serif" font-size="10.00">GameNet::Manager::Server</text>
<text text-anchor="middle" x="68.5" y="-7.5" font-family="Helvetica,sans-Serif" font-size="10.00">Shutdown</text>
</a>
</g>
</g>
<!-- Node8&#45;&gt;Node9 -->
<g id="edge9" class="edge"><title>Node8&#45;&gt;Node9</title>
<path fill="none" stroke="midnightblue" d="M190.254,-15.5C172.558,-15.5 153.459,-15.5 135.787,-15.5"/>
<polygon fill="midnightblue" stroke="midnightblue" points="190.49,-19.0001 200.49,-15.5 190.49,-12.0001 190.49,-19.0001"/>
</g>
<!-- Node10&#45;&gt;Node6 -->
<g id="edge11" class="edge"><title>Node10&#45;&gt;Node6</title>
<path fill="none" stroke="midnightblue" d="M172.934,-81.5375C157.673,-84.6303 142.066,-87.7933 127.754,-90.6938"/>
<polygon fill="midnightblue" stroke="midnightblue" points="173.79,-84.9352 182.895,-79.5186 172.399,-78.0747 173.79,-84.9352"/>
</g>
</g>
</svg>
