<?xml version="1.0" encoding="UTF-8" standalone="no"?>
<!DOCTYPE svg PUBLIC "-//W3C//DTD SVG 1.1//EN"
 "http://www.w3.org/Graphics/SVG/1.1/DTD/svg11.dtd">
<!-- Generated by graphviz version 2.38.0 (20140413.2041)
 -->
<!-- Title: GameNet::Manager::ScriptDownloadMotd Pages: 1 -->
<svg width="505pt" height="110pt"
 viewBox="0.00 0.00 505.00 110.00" xmlns="http://www.w3.org/2000/svg" xmlns:xlink="http://www.w3.org/1999/xlink">
<g id="graph0" class="graph" transform="scale(1 1) rotate(0) translate(4 106)">
<title>GameNet::Manager::ScriptDownloadMotd</title>
<polygon fill="white" stroke="none" points="-4,4 -4,-106 501,-106 501,4 -4,4"/>
<!-- Node1 -->
<g id="node1" class="node"><title>Node1</title>
<g id="a_node1"><a xlink:title=" ">
<polygon fill="#bfbfbf" stroke="black" points="0,-46.5 0,-76.5 133,-76.5 133,-46.5 0,-46.5"/>
<text text-anchor="start" x="8" y="-64.5" font-family="Helvetica,sans-Serif" font-size="10.00">GameNet::Manager::Script</text>
<text text-anchor="middle" x="66.5" y="-53.5" font-family="Helvetica,sans-Serif" font-size="10.00">DownloadMotd</text>
</a>
</g>
</g>
<!-- Node2 -->
<g id="node2" class="node"><title>Node2</title>
<g id="a_node2"><a xlink:href="../../d2/d8e/class_game_net_1_1_manager.html#a6b3bfd20cff59e536c62634e866cb247" target="_top" xlink:title=" ">
<polygon fill="white" stroke="black" points="172,-71.5 172,-101.5 315,-101.5 315,-71.5 172,-71.5"/>
<text text-anchor="start" x="180" y="-89.5" font-family="Helvetica,sans-Serif" font-size="10.00">GameNet::Manager::SetNext</text>
<text text-anchor="middle" x="243.5" y="-78.5" font-family="Helvetica,sans-Serif" font-size="10.00">ServerListState</text>
</a>
</g>
</g>
<!-- Node1&#45;&gt;Node2 -->
<g id="edge1" class="edge"><title>Node1&#45;&gt;Node2</title>
<path fill="none" stroke="midnightblue" d="M133.161,-70.8802C142.519,-72.217 152.233,-73.6047 161.836,-74.9766"/>
<polygon fill="midnightblue" stroke="midnightblue" points="161.389,-78.4482 171.784,-76.3977 162.379,-71.5186 161.389,-78.4482"/>
</g>
<!-- Node3 -->
<g id="node3" class="node"><title>Node3</title>
<g id="a_node3"><a xlink:href="../../d2/d8e/class_game_net_1_1_manager.html#a9a69ae76f492bf63c58b33f43291da65" target="_top" xlink:title=" ">
<polygon fill="white" stroke="black" points="169,-22.5 169,-52.5 318,-52.5 318,-22.5 169,-22.5"/>
<text text-anchor="start" x="177" y="-40.5" font-family="Helvetica,sans-Serif" font-size="10.00">GameNet::Manager::SetServer</text>
<text text-anchor="middle" x="243.5" y="-29.5" font-family="Helvetica,sans-Serif" font-size="10.00">ListState</text>
</a>
</g>
</g>
<!-- Node1&#45;&gt;Node3 -->
<g id="edge2" class="edge"><title>Node1&#45;&gt;Node3</title>
<path fill="none" stroke="midnightblue" d="M133.161,-52.495C141.526,-51.3478 150.176,-50.1616 158.777,-48.982"/>
<polygon fill="midnightblue" stroke="midnightblue" points="159.399,-52.4295 168.831,-47.6032 158.448,-45.4944 159.399,-52.4295"/>
</g>
<!-- Node4 -->
<g id="node4" class="node"><title>Node4</title>
<g id="a_node4"><a xlink:href="../../d3/d66/class_mlp_1_1_manager.html#aa7a0728da054658606de57081696f746" target="_top" xlink:title=" ">
<polygon fill="white" stroke="black" points="354,-50 354,-69 497,-69 497,-50 354,-50"/>
<text text-anchor="middle" x="425.5" y="-57" font-family="Helvetica,sans-Serif" font-size="10.00">Mlp::Manager::AddLogicTask</text>
</a>
</g>
</g>
<!-- Node3&#45;&gt;Node4 -->
<g id="edge3" class="edge"><title>Node3&#45;&gt;Node4</title>
<path fill="none" stroke="midnightblue" d="M318.232,-46.5117C326.676,-47.5437 335.317,-48.5999 343.845,-49.6422"/>
<polygon fill="midnightblue" stroke="midnightblue" points="343.435,-53.1181 353.786,-50.8572 344.285,-46.1698 343.435,-53.1181"/>
</g>
<!-- Node5 -->
<g id="node5" class="node"><title>Node5</title>
<g id="a_node5"><a xlink:href="../../d2/d8e/class_game_net_1_1_manager.html#a4ecc593e77e7f16c272d9e45cb9a16d6" target="_top" xlink:title=" ">
<polygon fill="white" stroke="black" points="354,-0.5 354,-30.5 497,-30.5 497,-0.5 354,-0.5"/>
<text text-anchor="start" x="362" y="-18.5" font-family="Helvetica,sans-Serif" font-size="10.00">GameNet::Manager::GetNext</text>
<text text-anchor="middle" x="425.5" y="-7.5" font-family="Helvetica,sans-Serif" font-size="10.00">ServerListState</text>
</a>
</g>
</g>
<!-- Node3&#45;&gt;Node5 -->
<g id="edge4" class="edge"><title>Node3&#45;&gt;Node5</title>
<path fill="none" stroke="midnightblue" d="M318.232,-28.4883C326.676,-27.4563 335.317,-26.4001 343.845,-25.3578"/>
<polygon fill="midnightblue" stroke="midnightblue" points="344.285,-28.8302 353.786,-24.1428 343.435,-21.8819 344.285,-28.8302"/>
</g>
</g>
</svg>
