<?xml version="1.0" encoding="UTF-8" standalone="no"?>
<!DOCTYPE svg PUBLIC "-//W3C//DTD SVG 1.1//EN"
 "http://www.w3.org/Graphics/SVG/1.1/DTD/svg11.dtd">
<!-- Generated by graphviz version 2.38.0 (20140413.2041)
 -->
<!-- Title: GameNet::Manager::GetNumPlayers Pages: 1 -->
<svg width="515pt" height="132pt"
 viewBox="0.00 0.00 515.00 131.50" xmlns="http://www.w3.org/2000/svg" xmlns:xlink="http://www.w3.org/1999/xlink">
<g id="graph0" class="graph" transform="scale(1 1) rotate(0) translate(4 127.5)">
<title>GameNet::Manager::GetNumPlayers</title>
<polygon fill="white" stroke="none" points="-4,4 -4,-127.5 511,-127.5 511,4 -4,4"/>
<!-- Node1 -->
<g id="node1" class="node"><title>Node1</title>
<g id="a_node1"><a xlink:title=" ">
<polygon fill="#bfbfbf" stroke="black" points="364,-60.5 364,-90.5 507,-90.5 507,-60.5 364,-60.5"/>
<text text-anchor="start" x="372" y="-78.5" font-family="Helvetica,sans-Serif" font-size="10.00">GameNet::Manager::GetNum</text>
<text text-anchor="middle" x="435.5" y="-67.5" font-family="Helvetica,sans-Serif" font-size="10.00">Players</text>
</a>
</g>
</g>
<!-- Node2 -->
<g id="node2" class="node"><title>Node2</title>
<g id="a_node2"><a xlink:href="../../d3/d2b/class_game_1_1_c_net_goal.html#a95c5b191ce7f389bc55f609a868687b0" target="_top" xlink:title=" ">
<polygon fill="white" stroke="black" points="189.5,-104 189.5,-123 326.5,-123 326.5,-104 189.5,-104"/>
<text text-anchor="middle" x="258" y="-111" font-family="Helvetica,sans-Serif" font-size="10.00">Game::CNetGoal::IsExpired</text>
</a>
</g>
</g>
<!-- Node1&#45;&gt;Node2 -->
<g id="edge1" class="edge"><title>Node1&#45;&gt;Node2</title>
<path fill="none" stroke="midnightblue" d="M355.214,-92.6673C337.228,-96.5618 318.763,-100.56 302.879,-103.999"/>
<polygon fill="midnightblue" stroke="midnightblue" points="356.105,-96.0556 365.138,-90.5186 354.624,-89.2142 356.105,-96.0556"/>
</g>
<!-- Node3 -->
<g id="node3" class="node"><title>Node3</title>
<g id="a_node3"><a xlink:href="../../d1/d04/class_game_1_1_c_goal.html#aeec6e349d5347b2bd5afa1271f913593" target="_top" xlink:title=" ">
<polygon fill="white" stroke="black" points="197,-66 197,-85 319,-85 319,-66 197,-66"/>
<text text-anchor="middle" x="258" y="-73" font-family="Helvetica,sans-Serif" font-size="10.00">Game::CGoal::IsExpired</text>
</a>
</g>
</g>
<!-- Node1&#45;&gt;Node3 -->
<g id="edge2" class="edge"><title>Node1&#45;&gt;Node3</title>
<path fill="none" stroke="midnightblue" d="M353.693,-75.5C342.033,-75.5 330.208,-75.5 319.05,-75.5"/>
<polygon fill="midnightblue" stroke="midnightblue" points="353.876,-79.0001 363.876,-75.5 353.876,-72.0001 353.876,-79.0001"/>
</g>
<!-- Node4 -->
<g id="node4" class="node"><title>Node4</title>
<g id="a_node4"><a xlink:href="../../d1/d04/class_game_1_1_c_goal.html#a17bb6729656839f52ae03ce89ea24a6e" target="_top" xlink:title=" ">
<polygon fill="white" stroke="black" points="188,-28 188,-47 328,-47 328,-28 188,-28"/>
<text text-anchor="middle" x="258" y="-35" font-family="Helvetica,sans-Serif" font-size="10.00">Game::CGoal::ShouldExpire</text>
</a>
</g>
</g>
<!-- Node1&#45;&gt;Node4 -->
<g id="edge3" class="edge"><title>Node1&#45;&gt;Node4</title>
<path fill="none" stroke="midnightblue" d="M355.214,-58.3327C337.228,-54.4382 318.763,-50.44 302.879,-47.0009"/>
<polygon fill="midnightblue" stroke="midnightblue" points="354.624,-61.7858 365.138,-60.4814 356.105,-54.9444 354.624,-61.7858"/>
</g>
<!-- Node5 -->
<g id="node5" class="node"><title>Node5</title>
<g id="a_node5"><a xlink:href="../../d2/d97/namespace_game.html#a81eca122dc8c843511b4e91b5ab5bd04" target="_top" xlink:title=" ">
<polygon fill="white" stroke="black" points="0,-50 0,-69 152,-69 152,-50 0,-50"/>
<text text-anchor="middle" x="76" y="-57" font-family="Helvetica,sans-Serif" font-size="10.00">Game::ScriptGoalShouldExpire</text>
</a>
</g>
</g>
<!-- Node4&#45;&gt;Node5 -->
<g id="edge4" class="edge"><title>Node4&#45;&gt;Node5</title>
<path fill="none" stroke="midnightblue" d="M177.952,-47.1615C169.39,-48.2079 160.694,-49.2708 152.179,-50.3114"/>
<polygon fill="midnightblue" stroke="midnightblue" points="178.421,-50.6303 187.922,-45.9429 177.571,-43.682 178.421,-50.6303"/>
</g>
<!-- Node6 -->
<g id="node6" class="node"><title>Node6</title>
<g id="a_node6"><a xlink:href="../../dd/dfc/class_game_1_1_c_horse_goal.html#a1017f6fd1c9df1fe082543de8582cbeb" target="_top" xlink:title=" ">
<polygon fill="white" stroke="black" points="7.5,-0.5 7.5,-30.5 144.5,-30.5 144.5,-0.5 7.5,-0.5"/>
<text text-anchor="start" x="15.5" y="-18.5" font-family="Helvetica,sans-Serif" font-size="10.00">Game::CHorseGoal::Should</text>
<text text-anchor="middle" x="76" y="-7.5" font-family="Helvetica,sans-Serif" font-size="10.00">Expire</text>
</a>
</g>
</g>
<!-- Node4&#45;&gt;Node6 -->
<g id="edge5" class="edge"><title>Node4&#45;&gt;Node6</title>
<path fill="none" stroke="midnightblue" d="M177.852,-27.8264C166.798,-26.4753 155.523,-25.0972 144.706,-23.7751"/>
<polygon fill="midnightblue" stroke="midnightblue" points="177.571,-31.318 187.922,-29.0571 178.421,-24.3697 177.571,-31.318"/>
</g>
</g>
</svg>
