<?xml version="1.0" encoding="UTF-8" standalone="no"?>
<!DOCTYPE svg PUBLIC "-//W3C//DTD SVG 1.1//EN"
 "http://www.w3.org/Graphics/SVG/1.1/DTD/svg11.dtd">
<!-- Generated by graphviz version 2.38.0 (20140413.2041)
 -->
<!-- Title: GameNet::Manager::ToggleScores Pages: 1 -->
<svg width="374pt" height="78pt"
 viewBox="0.00 0.00 374.00 77.50" xmlns="http://www.w3.org/2000/svg" xmlns:xlink="http://www.w3.org/1999/xlink">
<g id="graph0" class="graph" transform="scale(1 1) rotate(0) translate(4 73.5)">
<title>GameNet::Manager::ToggleScores</title>
<polygon fill="white" stroke="none" points="-4,4 -4,-73.5 370,-73.5 370,4 -4,4"/>
<!-- Node1 -->
<g id="node1" class="node"><title>Node1</title>
<g id="a_node1"><a xlink:title=" ">
<polygon fill="#bfbfbf" stroke="black" points="0,-22.5 0,-52.5 136,-52.5 136,-22.5 0,-22.5"/>
<text text-anchor="start" x="8" y="-40.5" font-family="Helvetica,sans-Serif" font-size="10.00">GameNet::Manager::Toggle</text>
<text text-anchor="middle" x="68" y="-29.5" font-family="Helvetica,sans-Serif" font-size="10.00">Scores</text>
</a>
</g>
</g>
<!-- Node2 -->
<g id="node2" class="node"><title>Node2</title>
<g id="a_node2"><a xlink:href="../../d6/df1/class_mdl_1_1_skate.html#a5a90b89a9816fe8fc4e8083510f22d3e" target="_top" xlink:title=" ">
<polygon fill="white" stroke="black" points="201,-50 201,-69 337,-69 337,-50 201,-50"/>
<text text-anchor="middle" x="269" y="-57" font-family="Helvetica,sans-Serif" font-size="10.00">Mdl::Skate::GetGameMode</text>
</a>
</g>
</g>
<!-- Node1&#45;&gt;Node2 -->
<g id="edge1" class="edge"><title>Node1&#45;&gt;Node2</title>
<path fill="none" stroke="midnightblue" d="M136.095,-44.9175C153.626,-46.8557 172.664,-48.9604 190.68,-50.9521"/>
<polygon fill="midnightblue" stroke="midnightblue" points="190.534,-54.4572 200.858,-52.0773 191.303,-47.4995 190.534,-54.4572"/>
</g>
<!-- Node3 -->
<g id="node3" class="node"><title>Node3</title>
<g id="a_node3"><a xlink:href="../../d0/d21/class_game_1_1_c_game_mode.html#a127048dbfd2164dda974bc704f4f5d5c" target="_top" xlink:title=" ">
<polygon fill="white" stroke="black" points="172,-0.5 172,-30.5 366,-30.5 366,-0.5 172,-0.5"/>
<text text-anchor="start" x="180" y="-18.5" font-family="Helvetica,sans-Serif" font-size="10.00">Game::CGameMode::ShouldAccumulate</text>
<text text-anchor="middle" x="269" y="-7.5" font-family="Helvetica,sans-Serif" font-size="10.00">Score</text>
</a>
</g>
</g>
<!-- Node1&#45;&gt;Node3 -->
<g id="edge2" class="edge"><title>Node1&#45;&gt;Node3</title>
<path fill="none" stroke="midnightblue" d="M136.095,-30.0825C144.367,-29.168 152.975,-28.2163 161.652,-27.257"/>
<polygon fill="midnightblue" stroke="midnightblue" points="162.3,-30.7068 171.855,-26.1291 161.531,-23.7492 162.3,-30.7068"/>
</g>
</g>
</svg>
