<?xml version="1.0" encoding="UTF-8" standalone="no"?>
<!DOCTYPE svg PUBLIC "-//W3C//DTD SVG 1.1//EN"
 "http://www.w3.org/Graphics/SVG/1.1/DTD/svg11.dtd">
<!-- Generated by graphviz version 2.38.0 (20140413.2041)
 -->
<!-- Title: GameNet::Manager::GetPlayerByObjectID Pages: 1 -->
<svg width="571pt" height="53pt"
 viewBox="0.00 0.00 571.00 52.50" xmlns="http://www.w3.org/2000/svg" xmlns:xlink="http://www.w3.org/1999/xlink">
<g id="graph0" class="graph" transform="scale(1 1) rotate(0) translate(4 48.5)">
<title>GameNet::Manager::GetPlayerByObjectID</title>
<polygon fill="white" stroke="none" points="-4,4 -4,-48.5 567,-48.5 567,4 -4,4"/>
<!-- Node1 -->
<g id="node1" class="node"><title>Node1</title>
<g id="a_node1"><a xlink:title=" ">
<polygon fill="#bfbfbf" stroke="black" points="0,-0.5 0,-30.5 151,-30.5 151,-0.5 0,-0.5"/>
<text text-anchor="start" x="8" y="-18.5" font-family="Helvetica,sans-Serif" font-size="10.00">GameNet::Manager::GetPlayer</text>
<text text-anchor="middle" x="75.5" y="-7.5" font-family="Helvetica,sans-Serif" font-size="10.00">ByObjectID</text>
</a>
</g>
</g>
<!-- Node2 -->
<g id="node2" class="node"><title>Node2</title>
<g id="a_node2"><a xlink:href="../../d2/d8e/class_game_net_1_1_manager.html#a6ca6bf8a3416f7ef9a81a47930c0cf1b" target="_top" xlink:title=" ">
<polygon fill="white" stroke="black" points="187,-25 187,-44 357,-44 357,-25 187,-25"/>
<text text-anchor="middle" x="272" y="-32" font-family="Helvetica,sans-Serif" font-size="10.00">GameNet::Manager::FirstPlayerInfo</text>
</a>
</g>
</g>
<!-- Node1&#45;&gt;Node2 -->
<g id="edge1" class="edge"><title>Node1&#45;&gt;Node2</title>
<path fill="none" stroke="midnightblue" d="M151.143,-22.7916C159.535,-23.6114 168.166,-24.4545 176.765,-25.2946"/>
<polygon fill="midnightblue" stroke="midnightblue" points="176.537,-28.7888 186.83,-26.2777 177.217,-21.8219 176.537,-28.7888"/>
</g>
<!-- Node3 -->
<g id="node3" class="node"><title>Node3</title>
<g id="a_node3"><a xlink:href="../../d2/d8e/class_game_net_1_1_manager.html#a37db82ef9a4c53446d7d92cbe07daa8f" target="_top" xlink:title=" ">
<polygon fill="white" stroke="black" points="393,-6 393,-25 563,-25 563,-6 393,-6"/>
<text text-anchor="middle" x="478" y="-13" font-family="Helvetica,sans-Serif" font-size="10.00">GameNet::Manager::NextPlayerInfo</text>
</a>
</g>
</g>
<!-- Node1&#45;&gt;Node3 -->
<g id="edge3" class="edge"><title>Node1&#45;&gt;Node3</title>
<path fill="none" stroke="midnightblue" d="M151.361,-15.5C216.746,-15.5 311.975,-15.5 382.577,-15.5"/>
<polygon fill="midnightblue" stroke="midnightblue" points="382.808,-19.0001 392.808,-15.5 382.808,-12.0001 382.808,-19.0001"/>
</g>
<!-- Node2&#45;&gt;Node3 -->
<g id="edge2" class="edge"><title>Node2&#45;&gt;Node3</title>
<path fill="none" stroke="midnightblue" d="M357.152,-26.6623C365.593,-25.8761 374.202,-25.0743 382.739,-24.2792"/>
<polygon fill="midnightblue" stroke="midnightblue" points="383.079,-27.7627 392.712,-23.3504 382.43,-20.7929 383.079,-27.7627"/>
</g>
</g>
</svg>
