<?xml version="1.0" encoding="UTF-8" standalone="no"?>
<!DOCTYPE svg PUBLIC "-//W3C//DTD SVG 1.1//EN"
 "http://www.w3.org/Graphics/SVG/1.1/DTD/svg11.dtd">
<!-- Generated by graphviz version 2.38.0 (20140413.2041)
 -->
<!-- Title: GameNet::Manager::GetSkaterByConnection Pages: 1 -->
<svg width="572pt" height="53pt"
 viewBox="0.00 0.00 572.00 52.50" xmlns="http://www.w3.org/2000/svg" xmlns:xlink="http://www.w3.org/1999/xlink">
<g id="graph0" class="graph" transform="scale(1 1) rotate(0) translate(4 48.5)">
<title>GameNet::Manager::GetSkaterByConnection</title>
<polygon fill="white" stroke="none" points="-4,4 -4,-48.5 568,-48.5 568,4 -4,4"/>
<!-- Node1 -->
<g id="node1" class="node"><title>Node1</title>
<g id="a_node1"><a xlink:title=" ">
<polygon fill="#bfbfbf" stroke="black" points="0,-0.5 0,-30.5 152,-30.5 152,-0.5 0,-0.5"/>
<text text-anchor="start" x="8" y="-18.5" font-family="Helvetica,sans-Serif" font-size="10.00">GameNet::Manager::GetSkater</text>
<text text-anchor="middle" x="76" y="-7.5" font-family="Helvetica,sans-Serif" font-size="10.00">ByConnection</text>
</a>
</g>
</g>
<!-- Node2 -->
<g id="node2" class="node"><title>Node2</title>
<g id="a_node2"><a xlink:href="../../d2/d8e/class_game_net_1_1_manager.html#a6ca6bf8a3416f7ef9a81a47930c0cf1b" target="_top" xlink:title=" ">
<polygon fill="white" stroke="black" points="188,-25 188,-44 358,-44 358,-25 188,-25"/>
<text text-anchor="middle" x="273" y="-32" font-family="Helvetica,sans-Serif" font-size="10.00">GameNet::Manager::FirstPlayerInfo</text>
</a>
</g>
</g>
<!-- Node1&#45;&gt;Node2 -->
<g id="edge1" class="edge"><title>Node1&#45;&gt;Node2</title>
<path fill="none" stroke="midnightblue" d="M152.113,-22.8187C160.519,-23.6377 169.159,-24.4796 177.765,-25.3181"/>
<polygon fill="midnightblue" stroke="midnightblue" points="177.544,-28.8131 187.836,-26.2994 178.223,-21.8461 177.544,-28.8131"/>
</g>
<!-- Node3 -->
<g id="node3" class="node"><title>Node3</title>
<g id="a_node3"><a xlink:href="../../d2/d8e/class_game_net_1_1_manager.html#a37db82ef9a4c53446d7d92cbe07daa8f" target="_top" xlink:title=" ">
<polygon fill="white" stroke="black" points="394,-6 394,-25 564,-25 564,-6 394,-6"/>
<text text-anchor="middle" x="479" y="-13" font-family="Helvetica,sans-Serif" font-size="10.00">GameNet::Manager::NextPlayerInfo</text>
</a>
</g>
</g>
<!-- Node1&#45;&gt;Node3 -->
<g id="edge3" class="edge"><title>Node1&#45;&gt;Node3</title>
<path fill="none" stroke="midnightblue" d="M152.425,-15.5C217.946,-15.5 313.137,-15.5 383.68,-15.5"/>
<polygon fill="midnightblue" stroke="midnightblue" points="383.903,-19.0001 393.903,-15.5 383.903,-12.0001 383.903,-19.0001"/>
</g>
<!-- Node2&#45;&gt;Node3 -->
<g id="edge2" class="edge"><title>Node2&#45;&gt;Node3</title>
<path fill="none" stroke="midnightblue" d="M358.152,-26.6623C366.593,-25.8761 375.202,-25.0743 383.739,-24.2792"/>
<polygon fill="midnightblue" stroke="midnightblue" points="384.079,-27.7627 393.712,-23.3504 383.43,-20.7929 384.079,-27.7627"/>
</g>
</g>
</svg>
