<?xml version="1.0" encoding="UTF-8" standalone="no"?>
<!DOCTYPE svg PUBLIC "-//W3C//DTD SVG 1.1//EN"
 "http://www.w3.org/Graphics/SVG/1.1/DTD/svg11.dtd">
<!-- Generated by graphviz version 2.38.0 (20140413.2041)
 -->
<!-- Title: GameNet::Manager::RequestObserverMode Pages: 1 -->
<svg width="745pt" height="176pt"
 viewBox="0.00 0.00 745.00 175.50" xmlns="http://www.w3.org/2000/svg" xmlns:xlink="http://www.w3.org/1999/xlink">
<g id="graph0" class="graph" transform="scale(1 1) rotate(0) translate(4 171.5)">
<title>GameNet::Manager::RequestObserverMode</title>
<polygon fill="white" stroke="none" points="-4,4 -4,-171.5 741,-171.5 741,4 -4,4"/>
<!-- Node1 -->
<g id="node1" class="node"><title>Node1</title>
<g id="a_node1"><a xlink:title=" ">
<polygon fill="#bfbfbf" stroke="black" points="0,-73.5 0,-103.5 143,-103.5 143,-73.5 0,-73.5"/>
<text text-anchor="start" x="8" y="-91.5" font-family="Helvetica,sans-Serif" font-size="10.00">GameNet::Manager::Request</text>
<text text-anchor="middle" x="71.5" y="-80.5" font-family="Helvetica,sans-Serif" font-size="10.00">ObserverMode</text>
</a>
</g>
</g>
<!-- Node2 -->
<g id="node2" class="node"><title>Node2</title>
<g id="a_node2"><a xlink:href="../../df/de2/_messages_8h.html#a03fb230ad9263a5f6126da49d67feac0" target="_top" xlink:title=" ">
<polygon fill="white" stroke="black" points="221,-148 221,-167 283,-167 283,-148 221,-148"/>
<text text-anchor="middle" x="252" y="-155" font-family="Helvetica,sans-Serif" font-size="10.00">Dbg_Printf</text>
</a>
</g>
</g>
<!-- Node1&#45;&gt;Node2 -->
<g id="edge1" class="edge"><title>Node1&#45;&gt;Node2</title>
<path fill="none" stroke="midnightblue" d="M100.83,-103.523C121.953,-114.295 151.739,-128.596 179,-138.5 189.221,-142.213 200.499,-145.538 211.035,-148.328"/>
<polygon fill="midnightblue" stroke="midnightblue" points="210.296,-151.751 220.851,-150.835 212.028,-144.969 210.296,-151.751"/>
</g>
<!-- Node3 -->
<g id="node3" class="node"><title>Node3</title>
<g id="a_node3"><a xlink:href="../../d5/d7d/class_net_1_1_app.html#ab733378173d8bd5e5902f1124907d62b" target="_top" xlink:title=" ">
<polygon fill="white" stroke="black" points="182.5,-98.5 182.5,-128.5 321.5,-128.5 321.5,-98.5 182.5,-98.5"/>
<text text-anchor="start" x="190.5" y="-116.5" font-family="Helvetica,sans-Serif" font-size="10.00">Net::App::EnqueueMessage</text>
<text text-anchor="middle" x="252" y="-105.5" font-family="Helvetica,sans-Serif" font-size="10.00">ToServer</text>
</a>
</g>
</g>
<!-- Node1&#45;&gt;Node3 -->
<g id="edge2" class="edge"><title>Node1&#45;&gt;Node3</title>
<path fill="none" stroke="midnightblue" d="M143.048,-98.3807C152.667,-99.7279 162.59,-101.118 172.342,-102.483"/>
<polygon fill="midnightblue" stroke="midnightblue" points="172.033,-105.974 182.422,-103.895 173.004,-99.042 172.033,-105.974"/>
</g>
<!-- Node5 -->
<g id="node5" class="node"><title>Node5</title>
<g id="a_node5"><a xlink:href="../../d2/d8e/class_game_net_1_1_manager.html#a8ceec77c20b7a2ec49fe7cc0e31c0f7c" target="_top" xlink:title=" ">
<polygon fill="white" stroke="black" points="179,-49.5 179,-79.5 325,-79.5 325,-49.5 179,-49.5"/>
<text text-anchor="start" x="187" y="-67.5" font-family="Helvetica,sans-Serif" font-size="10.00">GameNet::Manager::GetLocal</text>
<text text-anchor="middle" x="252" y="-56.5" font-family="Helvetica,sans-Serif" font-size="10.00">Player</text>
</a>
</g>
</g>
<!-- Node1&#45;&gt;Node5 -->
<g id="edge4" class="edge"><title>Node1&#45;&gt;Node5</title>
<path fill="none" stroke="midnightblue" d="M143.048,-79.0146C151.523,-77.8751 160.234,-76.7039 168.855,-75.5447"/>
<polygon fill="midnightblue" stroke="midnightblue" points="169.471,-78.9934 178.916,-74.192 168.539,-72.0558 169.471,-78.9934"/>
</g>
<!-- Node8 -->
<g id="node8" class="node"><title>Node8</title>
<g id="a_node8"><a xlink:href="../../d3/d76/class_game_net_1_1_player_info.html#abdf026338c89c7a4d518964ebbba1f9d" target="_top" xlink:title=" ">
<polygon fill="white" stroke="black" points="198.5,-0.5 198.5,-30.5 305.5,-30.5 305.5,-0.5 198.5,-0.5"/>
<text text-anchor="start" x="206.5" y="-18.5" font-family="Helvetica,sans-Serif" font-size="10.00">GameNet::PlayerInfo</text>
<text text-anchor="middle" x="252" y="-7.5" font-family="Helvetica,sans-Serif" font-size="10.00">::IsObserving</text>
</a>
</g>
</g>
<!-- Node1&#45;&gt;Node8 -->
<g id="edge8" class="edge"><title>Node1&#45;&gt;Node8</title>
<path fill="none" stroke="midnightblue" d="M103.872,-73.471C124.918,-63.6098 153.374,-50.7004 179,-40.5 184.434,-38.3369 190.139,-36.1754 195.858,-34.0796"/>
<polygon fill="midnightblue" stroke="midnightblue" points="197.228,-37.3062 205.451,-30.6255 194.857,-30.72 197.228,-37.3062"/>
</g>
<!-- Node4 -->
<g id="node4" class="node"><title>Node4</title>
<g id="a_node4"><a xlink:href="../../d5/d7d/class_net_1_1_app.html#aa796b3a0b2e06ff0096c509490961388" target="_top" xlink:title=" ">
<polygon fill="white" stroke="black" points="376.5,-104 376.5,-123 515.5,-123 515.5,-104 376.5,-104"/>
<text text-anchor="middle" x="446" y="-111" font-family="Helvetica,sans-Serif" font-size="10.00">Net::App::EnqueueMessage</text>
</a>
</g>
</g>
<!-- Node3&#45;&gt;Node4 -->
<g id="edge3" class="edge"><title>Node3&#45;&gt;Node4</title>
<path fill="none" stroke="midnightblue" d="M321.503,-113.5C335.941,-113.5 351.285,-113.5 366.071,-113.5"/>
<polygon fill="midnightblue" stroke="midnightblue" points="366.2,-117 376.2,-113.5 366.2,-110 366.2,-117"/>
</g>
<!-- Node6 -->
<g id="node6" class="node"><title>Node6</title>
<g id="a_node6"><a xlink:href="../../d2/d8e/class_game_net_1_1_manager.html#a6ca6bf8a3416f7ef9a81a47930c0cf1b" target="_top" xlink:title=" ">
<polygon fill="white" stroke="black" points="361,-60 361,-79 531,-79 531,-60 361,-60"/>
<text text-anchor="middle" x="446" y="-67" font-family="Helvetica,sans-Serif" font-size="10.00">GameNet::Manager::FirstPlayerInfo</text>
</a>
</g>
</g>
<!-- Node5&#45;&gt;Node6 -->
<g id="edge5" class="edge"><title>Node5&#45;&gt;Node6</title>
<path fill="none" stroke="midnightblue" d="M325.04,-66.376C333.453,-66.5951 342.128,-66.821 350.784,-67.0465"/>
<polygon fill="midnightblue" stroke="midnightblue" points="350.831,-70.5488 360.919,-67.3104 351.014,-63.5512 350.831,-70.5488"/>
</g>
<!-- Node7 -->
<g id="node7" class="node"><title>Node7</title>
<g id="a_node7"><a xlink:href="../../d2/d8e/class_game_net_1_1_manager.html#a37db82ef9a4c53446d7d92cbe07daa8f" target="_top" xlink:title=" ">
<polygon fill="white" stroke="black" points="567,-41 567,-60 737,-60 737,-41 567,-41"/>
<text text-anchor="middle" x="652" y="-48" font-family="Helvetica,sans-Serif" font-size="10.00">GameNet::Manager::NextPlayerInfo</text>
</a>
</g>
</g>
<!-- Node5&#45;&gt;Node7 -->
<g id="edge7" class="edge"><title>Node5&#45;&gt;Node7</title>
<path fill="none" stroke="midnightblue" d="M325.202,-53.8327C337.135,-52.446 349.396,-51.249 361,-50.5 426.289,-46.2859 500.019,-46.35 556.797,-47.4349"/>
<polygon fill="midnightblue" stroke="midnightblue" points="556.766,-50.9349 566.836,-47.6406 556.91,-43.9364 556.766,-50.9349"/>
</g>
<!-- Node6&#45;&gt;Node7 -->
<g id="edge6" class="edge"><title>Node6&#45;&gt;Node7</title>
<path fill="none" stroke="midnightblue" d="M531.152,-61.6623C539.593,-60.8761 548.202,-60.0743 556.739,-59.2792"/>
<polygon fill="midnightblue" stroke="midnightblue" points="557.079,-62.7627 566.712,-58.3504 556.43,-55.7929 557.079,-62.7627"/>
</g>
</g>
</svg>
