<?xml version="1.0" encoding="UTF-8" standalone="no"?>
<!DOCTYPE svg PUBLIC "-//W3C//DTD SVG 1.1//EN"
 "http://www.w3.org/Graphics/SVG/1.1/DTD/svg11.dtd">
<!-- Generated by graphviz version 2.38.0 (20140413.2041)
 -->
<!-- Title: GameNet::Manager::SpawnClient Pages: 1 -->
<!--zoomable 534 -->
<svg id="main" version="1.1" xmlns="http://www.w3.org/2000/svg" xmlns:xlink="http://www.w3.org/1999/xlink" xml:space="preserve" onload="init(evt)">
<style type="text/css"><![CDATA[
.edge:hover path { stroke: red; }
.edge:hover polygon { stroke: red; fill: red; }
]]></style>
<script type="text/javascript"><![CDATA[
var edges = document.getElementsByTagName('g');
if (edges && edges.length) {
  for (var i=0;i<edges.length;i++) {
    if (edges[i].id.substr(0,4)=='edge') {
      edges[i].setAttribute('class','edge');
    }
  }
}
]]></script>
        <defs>
                <circle id="rim" cx="0" cy="0" r="7"/>
                <circle id="rim2" cx="0" cy="0" r="3.5"/>
                <g id="zoomPlus">
                        <use xlink:href="#rim" fill="#404040">
                                <set attributeName="fill" to="#808080" begin="zoomplus.mouseover" end="zoomplus.mouseout"/>
                        </use>
                        <path d="M-4,0h8M0,-4v8" fill="none" stroke="white" stroke-width="1.5" pointer-events="none"/>
                </g>
                <g id="zoomMin">
                        <use xlink:href="#rim" fill="#404040">
                                <set attributeName="fill" to="#808080" begin="zoomminus.mouseover" end="zoomminus.mouseout"/>
                        </use>
                        <path d="M-4,0h8" fill="none" stroke="white" stroke-width="1.5" pointer-events="none"/>
                </g>
                <g id="dirArrow">
                        <path fill="none" stroke="white" stroke-width="1.5" d="M0,-3.0v7 M-2.5,-0.5L0,-3.0L2.5,-0.5"/>
                </g>
               <g id="resetDef">
                       <use xlink:href="#rim2" fill="#404040">
                               <set attributeName="fill" to="#808080" begin="reset.mouseover" end="reset.mouseout"/>
                       </use>
               </g>
        </defs>

<script type="text/javascript">
var viewWidth = 666;
var viewHeight = 534;
var sectionId = 'dynsection-5';
</script>
<script xlink:href="../../svgpan.js"/>
<svg id="graph" class="graph">
<g id="viewport">
<title>GameNet::Manager::SpawnClient</title>
<polygon fill="white" stroke="none" points="-4,4 -4,-530 662,-530 662,4 -4,4"/>
<!-- Node1 -->
<g id="node1" class="node"><title>Node1</title>
<g id="a_node1"><a xlink:title=" ">
<polygon fill="#bfbfbf" stroke="black" points="0,-260.5 0,-279.5 161,-279.5 161,-260.5 0,-260.5"/>
<text text-anchor="middle" x="80.5" y="-267.5" font-family="Helvetica,sans-Serif" font-size="10.00">GameNet::Manager::SpawnClient</text>
</a>
</g>
</g>
<!-- Node2 -->
<g id="node2" class="node"><title>Node2</title>
<g id="a_node2"><a xlink:href="../../df/d02/class_net_1_1_manager.html#abe90602409ae6f9167030a39a894a7b8" target="_top" xlink:title=" ">
<polygon fill="white" stroke="black" points="199,-318 199,-348 345,-348 345,-318 199,-318"/>
<text text-anchor="start" x="207" y="-336" font-family="Helvetica,sans-Serif" font-size="10.00">Net::Manager::CreateNewApp</text>
<text text-anchor="middle" x="272" y="-325" font-family="Helvetica,sans-Serif" font-size="10.00">Client</text>
</a>
</g>
</g>
<!-- Node1&#45;&gt;Node2 -->
<g id="edge1" class="edge"><title>Node1&#45;&gt;Node2</title>
<path fill="none" stroke="midnightblue" d="M110.281,-279.568C138.295,-288.882 181.582,-303.273 216.178,-314.774"/>
<polygon fill="midnightblue" stroke="midnightblue" points="215.092,-318.101 225.685,-317.935 217.3,-311.459 215.092,-318.101"/>
</g>
<!-- Node6 -->
<g id="node6" class="node"><title>Node6</title>
<g id="a_node6"><a xlink:href="../../df/de2/_messages_8h.html#a03fb230ad9263a5f6126da49d67feac0" target="_top" xlink:title=" ">
<polygon fill="white" stroke="black" points="429.5,-506.5 429.5,-525.5 491.5,-525.5 491.5,-506.5 429.5,-506.5"/>
<text text-anchor="middle" x="460.5" y="-513.5" font-family="Helvetica,sans-Serif" font-size="10.00">Dbg_Printf</text>
</a>
</g>
</g>
<!-- Node1&#45;&gt;Node6 -->
<g id="edge13" class="edge"><title>Node1&#45;&gt;Node6</title>
<path fill="none" stroke="midnightblue" d="M91.4147,-279.96C127.22,-315.342 254.52,-436.104 383,-497 394.4,-502.403 407.51,-506.379 419.62,-509.254"/>
<polygon fill="midnightblue" stroke="midnightblue" points="418.98,-512.697 429.497,-511.418 420.478,-505.859 418.98,-512.697"/>
</g>
<!-- Node14 -->
<g id="node14" class="node"><title>Node14</title>
<g id="a_node14"><a xlink:href="../../da/d37/namespace_dbg.html#ab965bfe9e8b1a49dab55d103b1e1a9f9" target="_top" xlink:title=" ">
<polygon fill="white" stroke="black" points="242.5,-279.5 242.5,-298.5 301.5,-298.5 301.5,-279.5 242.5,-279.5"/>
<text text-anchor="middle" x="272" y="-286.5" font-family="Helvetica,sans-Serif" font-size="10.00">Dbg::error</text>
</a>
</g>
</g>
<!-- Node1&#45;&gt;Node14 -->
<g id="edge14" class="edge"><title>Node1&#45;&gt;Node14</title>
<path fill="none" stroke="midnightblue" d="M161.041,-277.975C185.537,-280.431 211.425,-283.027 231.925,-285.082"/>
<polygon fill="midnightblue" stroke="midnightblue" points="231.818,-288.589 242.118,-286.104 232.517,-281.624 231.818,-288.589"/>
</g>
<!-- Node15 -->
<g id="node15" class="node"><title>Node15</title>
<g id="a_node15"><a xlink:href="../../df/d02/class_net_1_1_manager.html#a149d50aab4f713f2c54fc884558f5d32" target="_top" xlink:title=" ">
<polygon fill="white" stroke="black" points="203.5,-241.5 203.5,-260.5 340.5,-260.5 340.5,-241.5 203.5,-241.5"/>
<text text-anchor="middle" x="272" y="-248.5" font-family="Helvetica,sans-Serif" font-size="10.00">Net::Manager::GetLastError</text>
</a>
</g>
</g>
<!-- Node1&#45;&gt;Node15 -->
<g id="edge15" class="edge"><title>Node1&#45;&gt;Node15</title>
<path fill="none" stroke="midnightblue" d="M161.041,-262.025C171.711,-260.955 182.644,-259.859 193.281,-258.792"/>
<polygon fill="midnightblue" stroke="midnightblue" points="193.77,-262.261 203.37,-257.781 193.071,-255.296 193.77,-262.261"/>
</g>
<!-- Node16 -->
<g id="node16" class="node"><title>Node16</title>
<g id="a_node16"><a xlink:href="../../df/d02/class_net_1_1_manager.html#a9f16a7b133f3b95c2f4d0cfa6e981e79" target="_top" xlink:title=" ">
<polygon fill="white" stroke="black" points="207.5,-203.5 207.5,-222.5 336.5,-222.5 336.5,-203.5 207.5,-203.5"/>
<text text-anchor="middle" x="272" y="-210.5" font-family="Helvetica,sans-Serif" font-size="10.00">Net::Manager::GetLocalIP</text>
</a>
</g>
</g>
<!-- Node1&#45;&gt;Node16 -->
<g id="edge16" class="edge"><title>Node1&#45;&gt;Node16</title>
<path fill="none" stroke="midnightblue" d="M108.877,-260.423C132.179,-252.408 166.609,-240.89 197,-232 205.052,-229.645 213.642,-227.293 222.014,-225.088"/>
<polygon fill="midnightblue" stroke="midnightblue" points="222.895,-228.475 231.695,-222.574 221.136,-221.7 222.895,-228.475"/>
</g>
<!-- Node17 -->
<g id="node17" class="node"><title>Node17</title>
<g id="a_node17"><a xlink:href="../../d2/d8e/class_game_net_1_1_manager.html#ac4dd1a2de52f62e00412375093e7e29e" target="_top" xlink:title=" ">
<polygon fill="white" stroke="black" points="197,-71 197,-101 347,-101 347,-71 197,-71"/>
<text text-anchor="start" x="205" y="-89" font-family="Helvetica,sans-Serif" font-size="10.00">GameNet::Manager::SetReady</text>
<text text-anchor="middle" x="272" y="-78" font-family="Helvetica,sans-Serif" font-size="10.00">ToPlay</text>
</a>
</g>
</g>
<!-- Node1&#45;&gt;Node17 -->
<g id="edge17" class="edge"><title>Node1&#45;&gt;Node17</title>
<path fill="none" stroke="midnightblue" d="M91.4215,-260.366C120.6,-232.035 206.675,-148.458 248.149,-108.187"/>
<polygon fill="midnightblue" stroke="midnightblue" points="250.614,-110.672 255.351,-101.195 245.738,-105.65 250.614,-110.672"/>
</g>
<!-- Node3 -->
<g id="node3" class="node"><title>Node3</title>
<g id="a_node3"><a xlink:href="../../df/d02/class_net_1_1_manager.html#a7677b2450b0266dccfe12cd47b982c42" target="_top" xlink:title=" ">
<polygon fill="white" stroke="black" points="386.5,-468.5 386.5,-487.5 534.5,-487.5 534.5,-468.5 386.5,-468.5"/>
<text text-anchor="middle" x="460.5" y="-475.5" font-family="Helvetica,sans-Serif" font-size="10.00">Net::Manager::AddLogicTasks</text>
</a>
</g>
</g>
<!-- Node2&#45;&gt;Node3 -->
<g id="edge2" class="edge"><title>Node2&#45;&gt;Node3</title>
<path fill="none" stroke="midnightblue" d="M281.775,-348.072C298.129,-374.766 335.914,-430.244 383,-459 386.449,-461.106 390.12,-462.98 393.916,-464.645"/>
<polygon fill="midnightblue" stroke="midnightblue" points="392.966,-468.03 403.555,-468.374 395.492,-461.502 392.966,-468.03"/>
</g>
<!-- Node4 -->
<g id="node4" class="node"><title>Node4</title>
<g id="a_node4"><a xlink:href="../../d5/d7d/class_net_1_1_app.html#a7184ffe6fbb6a8202486b6d6a607bfc4" target="_top" xlink:title=" ">
<polygon fill="white" stroke="black" points="410.5,-419 410.5,-449 510.5,-449 510.5,-419 410.5,-419"/>
<text text-anchor="start" x="418.5" y="-437" font-family="Helvetica,sans-Serif" font-size="10.00">Net::App::bind_app</text>
<text text-anchor="middle" x="460.5" y="-426" font-family="Helvetica,sans-Serif" font-size="10.00">_socket</text>
</a>
</g>
</g>
<!-- Node2&#45;&gt;Node4 -->
<g id="edge3" class="edge"><title>Node2&#45;&gt;Node4</title>
<path fill="none" stroke="midnightblue" d="M291.427,-348.23C312.474,-365.011 348.477,-391.886 383,-409 388.586,-411.769 394.55,-414.333 400.589,-416.678"/>
<polygon fill="midnightblue" stroke="midnightblue" points="399.505,-420.009 410.098,-420.182 401.925,-413.44 399.505,-420.009"/>
</g>
<!-- Node5 -->
<g id="node5" class="node"><title>Node5</title>
<g id="a_node5"><a xlink:href="../../da/de4/class_net_1_1_client.html#af8cf7ce9d41672fae0b59956aa8ad025" target="_top" xlink:title=" ">
<polygon fill="white" stroke="black" points="392.5,-380.5 392.5,-399.5 528.5,-399.5 528.5,-380.5 392.5,-380.5"/>
<text text-anchor="middle" x="460.5" y="-387.5" font-family="Helvetica,sans-Serif" font-size="10.00">Net::Client::ClearAliasTable</text>
</a>
</g>
</g>
<!-- Node2&#45;&gt;Node5 -->
<g id="edge4" class="edge"><title>Node2&#45;&gt;Node5</title>
<path fill="none" stroke="midnightblue" d="M313.726,-348.04C334.344,-355.406 359.85,-364.141 383,-371 391.11,-373.403 399.764,-375.753 408.226,-377.936"/>
<polygon fill="midnightblue" stroke="midnightblue" points="407.475,-381.356 418.028,-380.415 409.191,-374.57 407.475,-381.356"/>
</g>
<!-- Node2&#45;&gt;Node6 -->
<g id="edge5" class="edge"><title>Node2&#45;&gt;Node6</title>
<path fill="none" stroke="midnightblue" d="M283.376,-348.11C297.765,-369.103 324.544,-408.315 347,-442 363.205,-466.309 359.177,-480.088 383,-497 393.549,-504.488 406.738,-509.037 419.179,-511.796"/>
<polygon fill="midnightblue" stroke="midnightblue" points="418.905,-515.306 429.38,-513.718 420.201,-508.427 418.905,-515.306"/>
</g>
<!-- Node7 -->
<g id="node7" class="node"><title>Node7</title>
<g id="a_node7"><a xlink:href="../../da/de4/class_net_1_1_client.html#a6b6f8f2c20bd141d9dd65e528a781fa0" target="_top" xlink:title=" ">
<polygon fill="white" stroke="black" points="420,-342.5 420,-361.5 501,-361.5 501,-342.5 420,-342.5"/>
<text text-anchor="middle" x="460.5" y="-349.5" font-family="Helvetica,sans-Serif" font-size="10.00">Net::Client::init</text>
</a>
</g>
</g>
<!-- Node2&#45;&gt;Node7 -->
<g id="edge6" class="edge"><title>Node2&#45;&gt;Node7</title>
<path fill="none" stroke="midnightblue" d="M345.106,-340.346C366.753,-342.551 390.005,-344.92 409.855,-346.942"/>
<polygon fill="midnightblue" stroke="midnightblue" points="409.595,-350.434 419.898,-347.966 410.304,-343.47 409.595,-350.434"/>
</g>
<!-- Node9 -->
<g id="node9" class="node"><title>Node9</title>
<g id="a_node9"><a xlink:href="../../d5/d7d/class_net_1_1_app.html#ab9b195337369cd68da26019ef37e66c7" target="_top" xlink:title=" ">
<polygon fill="white" stroke="black" points="414.5,-304.5 414.5,-323.5 506.5,-323.5 506.5,-304.5 414.5,-304.5"/>
<text text-anchor="middle" x="460.5" y="-311.5" font-family="Helvetica,sans-Serif" font-size="10.00">Net::App::IsLocal</text>
</a>
</g>
</g>
<!-- Node2&#45;&gt;Node9 -->
<g id="edge8" class="edge"><title>Node2&#45;&gt;Node9</title>
<path fill="none" stroke="midnightblue" d="M345.106,-325.654C364.738,-323.654 385.69,-321.519 404.228,-319.631"/>
<polygon fill="midnightblue" stroke="midnightblue" points="404.66,-323.105 414.254,-318.61 403.951,-316.141 404.66,-323.105"/>
</g>
<!-- Node10 -->
<g id="node10" class="node"><title>Node10</title>
<g id="a_node10"><a xlink:href="../../d2/d0a/class_mem_1_1_manager.html#a7c4cba14870f002aee0243e16114f443" target="_top" xlink:title=" ">
<polygon fill="white" stroke="black" points="391,-266.5 391,-285.5 530,-285.5 530,-266.5 391,-266.5"/>
<text text-anchor="middle" x="460.5" y="-273.5" font-family="Helvetica,sans-Serif" font-size="10.00">Mem::Manager::PopContext</text>
</a>
</g>
</g>
<!-- Node2&#45;&gt;Node10 -->
<g id="edge9" class="edge"><title>Node2&#45;&gt;Node10</title>
<path fill="none" stroke="midnightblue" d="M318.054,-317.945C327.622,-314.701 337.655,-311.265 347,-308 363.059,-302.388 366.724,-299.946 383,-295 390.999,-292.569 399.538,-290.217 407.902,-288.043"/>
<polygon fill="midnightblue" stroke="midnightblue" points="408.768,-291.435 417.598,-285.58 407.044,-284.65 408.768,-291.435"/>
</g>
<!-- Node11 -->
<g id="node11" class="node"><title>Node11</title>
<g id="a_node11"><a xlink:href="../../d2/d0a/class_mem_1_1_manager.html#aaf8e36abc36eecabe46bf2582035192a" target="_top" xlink:title=" ">
<polygon fill="white" stroke="black" points="388.5,-228.5 388.5,-247.5 532.5,-247.5 532.5,-228.5 388.5,-228.5"/>
<text text-anchor="middle" x="460.5" y="-235.5" font-family="Helvetica,sans-Serif" font-size="10.00">Mem::Manager::PushContext</text>
</a>
</g>
</g>
<!-- Node2&#45;&gt;Node11 -->
<g id="edge10" class="edge"><title>Node2&#45;&gt;Node11</title>
<path fill="none" stroke="midnightblue" d="M330.218,-317.839C336.165,-315.066 341.892,-311.811 347,-308 369.238,-291.409 360.098,-272.661 383,-257 385.912,-255.009 389.014,-253.225 392.237,-251.629"/>
<polygon fill="midnightblue" stroke="midnightblue" points="393.784,-254.774 401.587,-247.606 391.017,-248.344 393.784,-254.774"/>
</g>
<!-- Node12 -->
<g id="node12" class="node"><title>Node12</title>
<g id="a_node12"><a xlink:href="../../d2/d0a/class_mem_1_1_manager.html#a3aefd91781b7f41d35e6df6a32d379d0" target="_top" xlink:title=" ">
<polygon fill="white" stroke="black" points="399,-190.5 399,-209.5 522,-209.5 522,-190.5 399,-190.5"/>
<text text-anchor="middle" x="460.5" y="-197.5" font-family="Helvetica,sans-Serif" font-size="10.00">Mem::Manager::sHandle</text>
</a>
</g>
</g>
<!-- Node2&#45;&gt;Node12 -->
<g id="edge11" class="edge"><title>Node2&#45;&gt;Node12</title>
<path fill="none" stroke="midnightblue" d="M332.992,-317.99C338.081,-315.206 342.857,-311.908 347,-308 378.042,-278.725 350.779,-246.972 383,-219 385.034,-217.234 387.208,-215.627 389.489,-214.165"/>
<polygon fill="midnightblue" stroke="midnightblue" points="391.571,-217.021 398.738,-209.218 388.269,-210.848 391.571,-217.021"/>
</g>
<!-- Node13 -->
<g id="node13" class="node"><title>Node13</title>
<g id="a_node13"><a xlink:href="../../df/d02/class_net_1_1_manager.html#a5d5d0603e96e28d3a4dd53d074d732f3" target="_top" xlink:title=" ">
<polygon fill="white" stroke="black" points="383,-152.5 383,-171.5 538,-171.5 538,-152.5 383,-152.5"/>
<text text-anchor="middle" x="460.5" y="-159.5" font-family="Helvetica,sans-Serif" font-size="10.00">Net::Manager::ShouldUseDHCP</text>
</a>
</g>
</g>
<!-- Node2&#45;&gt;Node13 -->
<g id="edge12" class="edge"><title>Node2&#45;&gt;Node13</title>
<path fill="none" stroke="midnightblue" d="M334.512,-317.822C339.102,-315.075 343.354,-311.831 347,-308 387.444,-265.5 340.841,-221.799 383,-181 384.475,-179.572 386.04,-178.247 387.679,-177.017"/>
<polygon fill="midnightblue" stroke="midnightblue" points="389.748,-179.853 396.42,-171.623 386.072,-173.895 389.748,-179.853"/>
</g>
<!-- Node8 -->
<g id="node8" class="node"><title>Node8</title>
<g id="a_node8"><a xlink:href="../../d5/d7d/class_net_1_1_app.html#af4e117c90bd7b423f26409e96ea911ab" target="_top" xlink:title=" ">
<polygon fill="white" stroke="black" points="574,-342.5 574,-361.5 658,-361.5 658,-342.5 574,-342.5"/>
<text text-anchor="middle" x="616" y="-349.5" font-family="Helvetica,sans-Serif" font-size="10.00">Net::App::deinit</text>
</a>
</g>
</g>
<!-- Node7&#45;&gt;Node8 -->
<g id="edge7" class="edge"><title>Node7&#45;&gt;Node8</title>
<path fill="none" stroke="midnightblue" d="M501.03,-352C520.18,-352 543.409,-352 563.886,-352"/>
<polygon fill="midnightblue" stroke="midnightblue" points="563.997,-355.5 573.997,-352 563.997,-348.5 563.997,-355.5"/>
</g>
<!-- Node18 -->
<g id="node18" class="node"><title>Node18</title>
<g id="a_node18"><a xlink:href="../../d6/df1/class_mdl_1_1_skate.html#a712eaf5d2b8045dcb7c0cf45a20410c4" target="_top" xlink:title=" ">
<polygon fill="white" stroke="black" points="390.5,-114.5 390.5,-133.5 530.5,-133.5 530.5,-114.5 390.5,-114.5"/>
<text text-anchor="middle" x="460.5" y="-121.5" font-family="Helvetica,sans-Serif" font-size="10.00">Mdl::Skate::GetNumSkaters</text>
</a>
</g>
</g>
<!-- Node17&#45;&gt;Node18 -->
<g id="edge18" class="edge"><title>Node17&#45;&gt;Node18</title>
<path fill="none" stroke="midnightblue" d="M346.71,-101.019C365.349,-104.816 385.079,-108.837 402.737,-112.434"/>
<polygon fill="midnightblue" stroke="midnightblue" points="402.373,-115.932 412.87,-114.499 403.771,-109.073 402.373,-115.932"/>
</g>
<!-- Node19 -->
<g id="node19" class="node"><title>Node19</title>
<g id="a_node19"><a xlink:href="../../d6/df1/class_mdl_1_1_skate.html#a7bd64af5fee9a48c92ad23263cc92cde" target="_top" xlink:title=" ">
<polygon fill="white" stroke="black" points="403.5,-76.5 403.5,-95.5 517.5,-95.5 517.5,-76.5 403.5,-76.5"/>
<text text-anchor="middle" x="460.5" y="-83.5" font-family="Helvetica,sans-Serif" font-size="10.00">Mdl::Skate::GetSkater</text>
</a>
</g>
</g>
<!-- Node17&#45;&gt;Node19 -->
<g id="edge19" class="edge"><title>Node17&#45;&gt;Node19</title>
<path fill="none" stroke="midnightblue" d="M347.246,-86C362.432,-86 378.32,-86 393.206,-86"/>
<polygon fill="midnightblue" stroke="midnightblue" points="393.331,-89.5001 403.33,-86 393.33,-82.5001 393.331,-89.5001"/>
</g>
<!-- Node20 -->
<g id="node20" class="node"><title>Node20</title>
<g id="a_node20"><a xlink:href="../../d4/d1c/class_obj_1_1_c_skater.html#a94337b6af3c079c6e05b9a1da2c53e79" target="_top" xlink:title=" ">
<polygon fill="white" stroke="black" points="407,-38.5 407,-57.5 514,-57.5 514,-38.5 407,-38.5"/>
<text text-anchor="middle" x="460.5" y="-45.5" font-family="Helvetica,sans-Serif" font-size="10.00">Obj::CSkater::Pause</text>
</a>
</g>
</g>
<!-- Node17&#45;&gt;Node20 -->
<g id="edge20" class="edge"><title>Node17&#45;&gt;Node20</title>
<path fill="none" stroke="midnightblue" d="M346.71,-70.9814C365.349,-67.1835 385.079,-63.1634 402.737,-59.5656"/>
<polygon fill="midnightblue" stroke="midnightblue" points="403.771,-62.927 412.87,-57.5009 402.373,-56.068 403.771,-62.927"/>
</g>
<!-- Node21 -->
<g id="node21" class="node"><title>Node21</title>
<g id="a_node21"><a xlink:href="../../d4/d1c/class_obj_1_1_c_skater.html#af1e9532b856b9c894a8a6e91db0eb241" target="_top" xlink:title=" ">
<polygon fill="white" stroke="black" points="401,-0.5 401,-19.5 520,-19.5 520,-0.5 401,-0.5"/>
<text text-anchor="middle" x="460.5" y="-7.5" font-family="Helvetica,sans-Serif" font-size="10.00">Obj::CSkater::UnPause</text>
</a>
</g>
</g>
<!-- Node17&#45;&gt;Node21 -->
<g id="edge21" class="edge"><title>Node17&#45;&gt;Node21</title>
<path fill="none" stroke="midnightblue" d="M297.999,-70.8849C319.802,-58.2357 352.612,-40.4645 383,-29 389.69,-26.476 396.836,-24.1909 403.973,-22.1522"/>
<polygon fill="midnightblue" stroke="midnightblue" points="404.921,-25.5215 413.656,-19.5256 403.089,-18.7656 404.921,-25.5215"/>
</g>
</g>
</svg>
        <g id="navigator" transform="translate(0 0)" fill="#404254">
                <rect fill="#f2f5e9" fill-opacity="0.5" stroke="#606060" stroke-width=".5" x="0" y="0" width="60" height="60"/>
                <use id="zoomplus" xlink:href="#zoomPlus" x="17" y="9" onmousedown="handleZoom(evt,'in')"/>
                <use id="zoomminus" xlink:href="#zoomMin" x="42" y="9" onmousedown="handleZoom(evt,'out')"/>
                <use id="reset" xlink:href="#resetDef" x="30" y="36" onmousedown="handleReset()"/>
                <g id="arrowUp" xlink:href="#dirArrow" transform="translate(30 24)" onmousedown="handlePan(0,-1)">
                  <use xlink:href="#rim" fill="#404040">
                        <set attributeName="fill" to="#808080" begin="arrowUp.mouseover" end="arrowUp.mouseout"/>
                  </use>
                  <path fill="none" stroke="white" stroke-width="1.5" d="M0,-3.0v7 M-2.5,-0.5L0,-3.0L2.5,-0.5"/>
                </g>
                <g id="arrowRight" xlink:href="#dirArrow" transform="rotate(90) translate(36 -43)" onmousedown="handlePan(1,0)">
                  <use xlink:href="#rim" fill="#404040">
                        <set attributeName="fill" to="#808080" begin="arrowRight.mouseover" end="arrowRight.mouseout"/>
                  </use>
                  <path fill="none" stroke="white" stroke-width="1.5" d="M0,-3.0v7 M-2.5,-0.5L0,-3.0L2.5,-0.5"/>
                </g>
                <g id="arrowDown" xlink:href="#dirArrow" transform="rotate(180) translate(-30 -48)" onmousedown="handlePan(0,1)">
                  <use xlink:href="#rim" fill="#404040">
                        <set attributeName="fill" to="#808080" begin="arrowDown.mouseover" end="arrowDown.mouseout"/>
                  </use>
                  <path fill="none" stroke="white" stroke-width="1.5" d="M0,-3.0v7 M-2.5,-0.5L0,-3.0L2.5,-0.5"/>
                </g>
                <g id="arrowLeft" xlink:href="#dirArrow" transform="rotate(270) translate(-36 17)" onmousedown="handlePan(-1,0)">
                  <use xlink:href="#rim" fill="#404040">
                        <set attributeName="fill" to="#808080" begin="arrowLeft.mouseover" end="arrowLeft.mouseout"/>
                  </use>
                  <path fill="none" stroke="white" stroke-width="1.5" d="M0,-3.0v7 M-2.5,-0.5L0,-3.0L2.5,-0.5"/>
                </g>
        </g>
        <svg viewBox="0 0 15 15" width="100%" height="30px" preserveAspectRatio="xMaxYMin meet">
         <g id="arrow_out" transform="scale(0.3 0.3)">
          <a xlink:href="class_game_net_1_1_manager_a8b463a336ad1c5cad2908178ddc117cd_cgraph_org.svg" target="_base">
           <rect id="button" ry="5" rx="5" y="6" x="6" height="38" width="38"
                fill="#f2f5e9" fill-opacity="0.5" stroke="#606060" stroke-width="1.0"/>
           <path id="arrow"
             d="M 11.500037,31.436501 C 11.940474,20.09759 22.043105,11.32322 32.158766,21.979434 L 37.068811,17.246167 C 37.068811,17.246167 37.088388,32 37.088388,32 L 22.160133,31.978069 C 22.160133,31.978069 26.997745,27.140456 26.997745,27.140456 C 18.528582,18.264221 13.291696,25.230495 11.500037,31.436501 z"
             style="fill:#404040;"/>
          </a>
         </g>
        </svg>
</svg>
