<?xml version="1.0" encoding="UTF-8" standalone="no"?>
<!DOCTYPE svg PUBLIC "-//W3C//DTD SVG 1.1//EN"
 "http://www.w3.org/Graphics/SVG/1.1/DTD/svg11.dtd">
<!-- Generated by graphviz version 2.38.0 (20140413.2041)
 -->
<!-- Title: Obj::CRiderComponent::s_create Pages: 1 -->
<svg width="435pt" height="88pt"
 viewBox="0.00 0.00 435.00 88.00" xmlns="http://www.w3.org/2000/svg" xmlns:xlink="http://www.w3.org/1999/xlink">
<g id="graph0" class="graph" transform="scale(1 1) rotate(0) translate(4 84)">
<title>Obj::CRiderComponent::s_create</title>
<polygon fill="white" stroke="none" points="-4,4 -4,-84 431,-84 431,4 -4,4"/>
<!-- Node1 -->
<g id="node1" class="node"><title>Node1</title>
<g id="a_node1"><a xlink:title=" ">
<polygon fill="#bfbfbf" stroke="black" points="0,-24.5 0,-54.5 116,-54.5 116,-24.5 0,-24.5"/>
<text text-anchor="start" x="8" y="-42.5" font-family="Helvetica,sans-Serif" font-size="10.00">Obj::CRiderComponent</text>
<text text-anchor="middle" x="58" y="-31.5" font-family="Helvetica,sans-Serif" font-size="10.00">::s_create</text>
</a>
</g>
</g>
<!-- Node2 -->
<g id="node2" class="node"><title>Node2</title>
<g id="a_node2"><a xlink:href="../../d5/d58/class_obj_1_1_c_rider_component.html#a8b2ed26b9480d856f961b76864cd573a" target="_top" xlink:title=" ">
<polygon fill="white" stroke="black" points="152,-24.5 152,-54.5 268,-54.5 268,-24.5 152,-24.5"/>
<text text-anchor="start" x="160" y="-42.5" font-family="Helvetica,sans-Serif" font-size="10.00">Obj::CRiderComponent</text>
<text text-anchor="middle" x="210" y="-31.5" font-family="Helvetica,sans-Serif" font-size="10.00">::CRiderComponent</text>
</a>
</g>
</g>
<!-- Node1&#45;&gt;Node2 -->
<g id="edge1" class="edge"><title>Node1&#45;&gt;Node2</title>
<path fill="none" stroke="midnightblue" d="M116.136,-39.5C124.377,-39.5 132.923,-39.5 141.344,-39.5"/>
<polygon fill="midnightblue" stroke="midnightblue" points="141.526,-43.0001 151.525,-39.5 141.525,-36.0001 141.526,-43.0001"/>
</g>
<!-- Node3 -->
<g id="node3" class="node"><title>Node3</title>
<g id="a_node3"><a xlink:href="../../d3/d8f/class_nx_1_1_c_coll_cache_manager.html#ae2812510fb736b3f4b87690a2fa23a37" target="_top" xlink:title=" ">
<polygon fill="white" stroke="black" points="304,-49.5 304,-79.5 427,-79.5 427,-49.5 304,-49.5"/>
<text text-anchor="start" x="312" y="-67.5" font-family="Helvetica,sans-Serif" font-size="10.00">Nx::CCollCacheManager</text>
<text text-anchor="middle" x="365.5" y="-56.5" font-family="Helvetica,sans-Serif" font-size="10.00">::sCreateCollCache</text>
</a>
</g>
</g>
<!-- Node2&#45;&gt;Node3 -->
<g id="edge2" class="edge"><title>Node2&#45;&gt;Node3</title>
<path fill="none" stroke="midnightblue" d="M268.158,-48.8091C276.551,-50.1761 285.279,-51.5976 293.904,-53.0022"/>
<polygon fill="midnightblue" stroke="midnightblue" points="293.521,-56.4859 303.953,-54.639 294.646,-49.5769 293.521,-56.4859"/>
</g>
<!-- Node4 -->
<g id="node4" class="node"><title>Node4</title>
<g id="a_node4"><a xlink:href="../../d0/d7e/class_obj_1_1_c_base_component.html#a880a8b9b7ec5b22563c6821ae0f1903e" target="_top" xlink:title=" ">
<polygon fill="white" stroke="black" points="307.5,-0.5 307.5,-30.5 423.5,-30.5 423.5,-0.5 307.5,-0.5"/>
<text text-anchor="start" x="315.5" y="-18.5" font-family="Helvetica,sans-Serif" font-size="10.00">Obj::CBaseComponent</text>
<text text-anchor="middle" x="365.5" y="-7.5" font-family="Helvetica,sans-Serif" font-size="10.00">::SetType</text>
</a>
</g>
</g>
<!-- Node2&#45;&gt;Node4 -->
<g id="edge3" class="edge"><title>Node2&#45;&gt;Node4</title>
<path fill="none" stroke="midnightblue" d="M268.158,-30.5633C277.647,-29.0796 287.565,-27.5289 297.276,-26.0106"/>
<polygon fill="midnightblue" stroke="midnightblue" points="297.955,-29.447 307.295,-24.4442 296.874,-22.531 297.955,-29.447"/>
</g>
</g>
</svg>
