<?xml version="1.0" encoding="UTF-8" standalone="no"?>
<!DOCTYPE svg PUBLIC "-//W3C//DTD SVG 1.1//EN"
 "http://www.w3.org/Graphics/SVG/1.1/DTD/svg11.dtd">
<!-- Generated by graphviz version 2.38.0 (20140413.2041)
 -->
<!-- Title: NxXbox::SText::EndDraw Pages: 1 -->
<svg width="429pt" height="47pt"
 viewBox="0.00 0.00 429.00 47.00" xmlns="http://www.w3.org/2000/svg" xmlns:xlink="http://www.w3.org/1999/xlink">
<g id="graph0" class="graph" transform="scale(1 1) rotate(0) translate(4 43)">
<title>NxXbox::SText::EndDraw</title>
<polygon fill="white" stroke="none" points="-4,4 -4,-43 425,-43 425,4 -4,4"/>
<!-- Node1 -->
<g id="node1" class="node"><title>Node1</title>
<g id="a_node1"><a xlink:title=" ">
<polygon fill="#bfbfbf" stroke="black" points="295,-0.5 295,-19.5 421,-19.5 421,-0.5 295,-0.5"/>
<text text-anchor="middle" x="358" y="-7.5" font-family="Helvetica,sans-Serif" font-size="10.00">NxXbox::SText::EndDraw</text>
</a>
</g>
</g>
<!-- Node2 -->
<g id="node2" class="node"><title>Node2</title>
<g id="a_node2"><a xlink:href="../../d1/d80/struct_nx_xbox_1_1_s_text.html#af276f18313f897bb216363523eee0b24" target="_top" xlink:title=" ">
<polygon fill="white" stroke="black" points="150,-19.5 150,-38.5 259,-38.5 259,-19.5 150,-19.5"/>
<text text-anchor="middle" x="204.5" y="-26.5" font-family="Helvetica,sans-Serif" font-size="10.00">NxXbox::SText::Draw</text>
</a>
</g>
</g>
<!-- Node1&#45;&gt;Node2 -->
<g id="edge1" class="edge"><title>Node1&#45;&gt;Node2</title>
<path fill="none" stroke="midnightblue" d="M284.932,-19.0383C276.357,-20.1136 267.72,-21.1969 259.46,-22.2328"/>
<polygon fill="midnightblue" stroke="midnightblue" points="285.455,-22.5001 294.942,-17.7828 284.584,-15.5545 285.455,-22.5001"/>
</g>
<!-- Node3 -->
<g id="node3" class="node"><title>Node3</title>
<g id="a_node3"><a xlink:href="../../d4/ddf/namespace_nx_xbox.html#a2b49860eff3e20cbfdf56e150e222e61" target="_top" xlink:title=" ">
<polygon fill="white" stroke="black" points="0,-0.5 0,-19.5 114,-19.5 114,-0.5 0,-0.5"/>
<text text-anchor="middle" x="57" y="-7.5" font-family="Helvetica,sans-Serif" font-size="10.00">NxXbox::FatalFileError</text>
</a>
</g>
</g>
<!-- Node1&#45;&gt;Node3 -->
<g id="edge3" class="edge"><title>Node1&#45;&gt;Node3</title>
<path fill="none" stroke="midnightblue" d="M284.45,-10C232.066,-10 162.353,-10 114.181,-10"/>
<polygon fill="midnightblue" stroke="midnightblue" points="284.684,-13.5001 294.684,-10 284.684,-6.5001 284.684,-13.5001"/>
</g>
<!-- Node2&#45;&gt;Node3 -->
<g id="edge2" class="edge"><title>Node2&#45;&gt;Node3</title>
<path fill="none" stroke="midnightblue" d="M139.626,-20.6591C131.249,-19.5652 122.713,-18.4505 114.47,-17.3742"/>
<polygon fill="midnightblue" stroke="midnightblue" points="139.366,-24.1547 149.735,-21.9791 140.272,-17.2136 139.366,-24.1547"/>
</g>
</g>
</svg>
