<?xml version="1.0" encoding="UTF-8" standalone="no"?>
<!DOCTYPE svg PUBLIC "-//W3C//DTD SVG 1.1//EN"
 "http://www.w3.org/Graphics/SVG/1.1/DTD/svg11.dtd">
<!-- Generated by graphviz version 2.38.0 (20140413.2041)
 -->
<!-- Title: Ed::RailString::GetNext Pages: 1 -->
<svg width="791pt" height="88pt"
 viewBox="0.00 0.00 791.00 88.00" xmlns="http://www.w3.org/2000/svg" xmlns:xlink="http://www.w3.org/1999/xlink">
<g id="graph0" class="graph" transform="scale(1 1) rotate(0) translate(4 84)">
<title>Ed::RailString::GetNext</title>
<polygon fill="white" stroke="none" points="-4,4 -4,-84 787,-84 787,4 -4,4"/>
<!-- Node1 -->
<g id="node1" class="node"><title>Node1</title>
<g id="a_node1"><a xlink:title=" ">
<polygon fill="#bfbfbf" stroke="black" points="664,-30 664,-49 783,-49 783,-30 664,-30"/>
<text text-anchor="middle" x="723.5" y="-37" font-family="Helvetica,sans-Serif" font-size="10.00">Ed::RailString::GetNext</text>
</a>
</g>
</g>
<!-- Node2 -->
<g id="node2" class="node"><title>Node2</title>
<g id="a_node2"><a xlink:href="../../de/d42/class_ed_1_1_c_park_generator.html#a6e1e2c2c25806eb64a4aeb4afe9eafdc" target="_top" xlink:title=" ">
<polygon fill="white" stroke="black" points="514,-49.5 514,-79.5 628,-79.5 628,-49.5 514,-49.5"/>
<text text-anchor="start" x="522" y="-67.5" font-family="Helvetica,sans-Serif" font-size="10.00">Ed::CParkGenerator</text>
<text text-anchor="middle" x="571" y="-56.5" font-family="Helvetica,sans-Serif" font-size="10.00">::FindNearestRailPoint</text>
</a>
</g>
</g>
<!-- Node1&#45;&gt;Node2 -->
<g id="edge1" class="edge"><title>Node1&#45;&gt;Node2</title>
<path fill="none" stroke="midnightblue" d="M655.104,-50.6953C646.104,-52.1903 636.953,-53.7105 628.173,-55.169"/>
<polygon fill="midnightblue" stroke="midnightblue" points="655.882,-54.1142 665.173,-49.0227 654.735,-47.2088 655.882,-54.1142"/>
</g>
<!-- Node4 -->
<g id="node4" class="node"><title>Node4</title>
<g id="a_node4"><a xlink:href="../../de/d42/class_ed_1_1_c_park_generator.html#a34a02e63ff230da9ebb7c255c8f52e49" target="_top" xlink:title=" ">
<polygon fill="white" stroke="black" points="519,-0.5 519,-30.5 623,-30.5 623,-0.5 519,-0.5"/>
<text text-anchor="start" x="527" y="-18.5" font-family="Helvetica,sans-Serif" font-size="10.00">Ed::CParkGenerator</text>
<text text-anchor="middle" x="571" y="-7.5" font-family="Helvetica,sans-Serif" font-size="10.00">::set_up_rail_nodes</text>
</a>
</g>
</g>
<!-- Node1&#45;&gt;Node4 -->
<g id="edge3" class="edge"><title>Node1&#45;&gt;Node4</title>
<path fill="none" stroke="midnightblue" d="M653.744,-28.5356C643.524,-26.9058 633.143,-25.2504 623.363,-23.6907"/>
<polygon fill="midnightblue" stroke="midnightblue" points="653.455,-32.0337 663.882,-30.1523 654.558,-25.1211 653.455,-32.0337"/>
</g>
<!-- Node3 -->
<g id="node3" class="node"><title>Node3</title>
<g id="a_node3"><a xlink:href="../../db/d54/namespace_c_funcs.html#a17e3001a40dbeb47c0329af4f06f6175" target="_top" xlink:title=" ">
<polygon fill="white" stroke="black" points="344,-49.5 344,-79.5 478,-79.5 478,-49.5 344,-49.5"/>
<text text-anchor="start" x="352" y="-67.5" font-family="Helvetica,sans-Serif" font-size="10.00">CFuncs::ScriptFindNearest</text>
<text text-anchor="middle" x="411" y="-56.5" font-family="Helvetica,sans-Serif" font-size="10.00">RailPoint</text>
</a>
</g>
</g>
<!-- Node2&#45;&gt;Node3 -->
<g id="edge2" class="edge"><title>Node2&#45;&gt;Node3</title>
<path fill="none" stroke="midnightblue" d="M503.699,-64.5C495.275,-64.5 486.653,-64.5 478.23,-64.5"/>
<polygon fill="midnightblue" stroke="midnightblue" points="503.85,-68.0001 513.85,-64.5 503.85,-61.0001 503.85,-68.0001"/>
</g>
<!-- Node5 -->
<g id="node5" class="node"><title>Node5</title>
<g id="a_node5"><a xlink:href="../../de/d42/class_ed_1_1_c_park_generator.html#aa09527e9552236975be71ab5aa2bda14" target="_top" xlink:title=" ">
<polygon fill="white" stroke="black" points="359,-0.5 359,-30.5 463,-30.5 463,-0.5 359,-0.5"/>
<text text-anchor="start" x="367" y="-18.5" font-family="Helvetica,sans-Serif" font-size="10.00">Ed::CParkGenerator</text>
<text text-anchor="middle" x="411" y="-7.5" font-family="Helvetica,sans-Serif" font-size="10.00">::GenerateNodeInfo</text>
</a>
</g>
</g>
<!-- Node4&#45;&gt;Node5 -->
<g id="edge4" class="edge"><title>Node4&#45;&gt;Node5</title>
<path fill="none" stroke="midnightblue" d="M508.467,-15.5C493.437,-15.5 477.52,-15.5 463.041,-15.5"/>
<polygon fill="midnightblue" stroke="midnightblue" points="508.702,-19.0001 518.702,-15.5 508.702,-12.0001 508.702,-19.0001"/>
</g>
<!-- Node6 -->
<g id="node6" class="node"><title>Node6</title>
<g id="a_node6"><a xlink:href="../../d0/d5c/class_ed_1_1_c_park_manager.html#afe3b49be10db3c24e7a68e400f00ade5" target="_top" xlink:title=" ">
<polygon fill="white" stroke="black" points="171,-0.5 171,-30.5 308,-30.5 308,-0.5 171,-0.5"/>
<text text-anchor="start" x="179" y="-18.5" font-family="Helvetica,sans-Serif" font-size="10.00">Ed::CParkManager::Rebuild</text>
<text text-anchor="middle" x="239.5" y="-7.5" font-family="Helvetica,sans-Serif" font-size="10.00">NodeArray</text>
</a>
</g>
</g>
<!-- Node5&#45;&gt;Node6 -->
<g id="edge5" class="edge"><title>Node5&#45;&gt;Node6</title>
<path fill="none" stroke="midnightblue" d="M348.411,-15.5C335.356,-15.5 321.507,-15.5 308.238,-15.5"/>
<polygon fill="midnightblue" stroke="midnightblue" points="348.684,-19.0001 358.684,-15.5 348.684,-12.0001 348.684,-19.0001"/>
</g>
<!-- Node7 -->
<g id="node7" class="node"><title>Node7</title>
<g id="a_node7"><a xlink:href="../../d2/d84/namespace_ed.html#a22ced855b40e383b19535536b3cbefab" target="_top" xlink:title=" ">
<polygon fill="white" stroke="black" points="0,-0.5 0,-30.5 135,-30.5 135,-0.5 0,-0.5"/>
<text text-anchor="start" x="8" y="-18.5" font-family="Helvetica,sans-Serif" font-size="10.00">Ed::ScriptRebuildParkNode</text>
<text text-anchor="middle" x="67.5" y="-7.5" font-family="Helvetica,sans-Serif" font-size="10.00">Array</text>
</a>
</g>
</g>
<!-- Node6&#45;&gt;Node7 -->
<g id="edge6" class="edge"><title>Node6&#45;&gt;Node7</title>
<path fill="none" stroke="midnightblue" d="M160.813,-15.5C152.228,-15.5 143.543,-15.5 135.112,-15.5"/>
<polygon fill="midnightblue" stroke="midnightblue" points="160.823,-19.0001 170.823,-15.5 160.823,-12.0001 160.823,-19.0001"/>
</g>
</g>
</svg>
