<?xml version="1.0" encoding="UTF-8" standalone="no"?>
<!DOCTYPE svg PUBLIC "-//W3C//DTD SVG 1.1//EN"
 "http://www.w3.org/Graphics/SVG/1.1/DTD/svg11.dtd">
<!-- Generated by graphviz version 2.38.0 (20140413.2041)
 -->
<!-- Title: Obj::CPathObjectTracker::StopTrackingObject Pages: 1 -->
<svg width="824pt" height="137pt"
 viewBox="0.00 0.00 824.00 137.00" xmlns="http://www.w3.org/2000/svg" xmlns:xlink="http://www.w3.org/1999/xlink">
<g id="graph0" class="graph" transform="scale(1 1) rotate(0) translate(4 133)">
<title>Obj::CPathObjectTracker::StopTrackingObject</title>
<polygon fill="white" stroke="none" points="-4,4 -4,-133 820,-133 820,4 -4,4"/>
<!-- Node1 -->
<g id="node1" class="node"><title>Node1</title>
<g id="a_node1"><a xlink:title=" ">
<polygon fill="#bfbfbf" stroke="black" points="691,-49.5 691,-79.5 816,-79.5 816,-49.5 691,-49.5"/>
<text text-anchor="start" x="699" y="-67.5" font-family="Helvetica,sans-Serif" font-size="10.00">Obj::CPathObjectTracker</text>
<text text-anchor="middle" x="753.5" y="-56.5" font-family="Helvetica,sans-Serif" font-size="10.00">::StopTrackingObject</text>
</a>
</g>
</g>
<!-- Node2 -->
<g id="node2" class="node"><title>Node2</title>
<g id="a_node2"><a xlink:href="../../d2/d98/class_obj_1_1_c_motion_component.html#a4c2d7f7b9ddf249682efd4f081ef720c" target="_top" xlink:title=" ">
<polygon fill="white" stroke="black" points="532,-49.5 532,-79.5 655,-79.5 655,-49.5 532,-49.5"/>
<text text-anchor="start" x="540" y="-67.5" font-family="Helvetica,sans-Serif" font-size="10.00">Obj::CMotionComponent</text>
<text text-anchor="middle" x="593.5" y="-56.5" font-family="Helvetica,sans-Serif" font-size="10.00">::InitPath</text>
</a>
</g>
</g>
<!-- Node1&#45;&gt;Node2 -->
<g id="edge1" class="edge"><title>Node1&#45;&gt;Node2</title>
<path fill="none" stroke="midnightblue" d="M680.913,-64.5C672.287,-64.5 663.541,-64.5 655.093,-64.5"/>
<polygon fill="midnightblue" stroke="midnightblue" points="680.961,-68.0001 690.961,-64.5 680.961,-61.0001 680.961,-68.0001"/>
</g>
<!-- Node3 -->
<g id="node3" class="node"><title>Node3</title>
<g id="a_node3"><a xlink:href="../../d2/d98/class_obj_1_1_c_motion_component.html#afad6bb57501ead40142787bbcff9aa07" target="_top" xlink:title=" ">
<polygon fill="white" stroke="black" points="373,-98.5 373,-128.5 496,-128.5 496,-98.5 373,-98.5"/>
<text text-anchor="start" x="381" y="-116.5" font-family="Helvetica,sans-Serif" font-size="10.00">Obj::CMotionComponent</text>
<text text-anchor="middle" x="434.5" y="-105.5" font-family="Helvetica,sans-Serif" font-size="10.00">::FollowPath_Init</text>
</a>
</g>
</g>
<!-- Node2&#45;&gt;Node3 -->
<g id="edge2" class="edge"><title>Node2&#45;&gt;Node3</title>
<path fill="none" stroke="midnightblue" d="M534.465,-82.6129C517.774,-87.8222 499.756,-93.4457 483.726,-98.4484"/>
<polygon fill="midnightblue" stroke="midnightblue" points="535.611,-85.9219 544.114,-79.6014 533.525,-79.2397 535.611,-85.9219"/>
</g>
<!-- Node6 -->
<g id="node6" class="node"><title>Node6</title>
<g id="a_node6"><a xlink:href="../../d2/d98/class_obj_1_1_c_motion_component.html#ae5816cedf94da61efc3a06e2b44c3b87" target="_top" xlink:title=" ">
<polygon fill="white" stroke="black" points="373,-49.5 373,-79.5 496,-79.5 496,-49.5 373,-49.5"/>
<text text-anchor="start" x="381" y="-67.5" font-family="Helvetica,sans-Serif" font-size="10.00">Obj::CMotionComponent</text>
<text text-anchor="middle" x="434.5" y="-56.5" font-family="Helvetica,sans-Serif" font-size="10.00">::FollowPathLinked_Init</text>
</a>
</g>
</g>
<!-- Node2&#45;&gt;Node6 -->
<g id="edge5" class="edge"><title>Node2&#45;&gt;Node6</title>
<path fill="none" stroke="midnightblue" d="M521.79,-64.5C513.193,-64.5 504.47,-64.5 496.039,-64.5"/>
<polygon fill="midnightblue" stroke="midnightblue" points="521.8,-68.0001 531.8,-64.5 521.8,-61.0001 521.8,-68.0001"/>
</g>
<!-- Node7 -->
<g id="node7" class="node"><title>Node7</title>
<g id="a_node7"><a xlink:href="../../d2/d98/class_obj_1_1_c_motion_component.html#ab5c06e98238008ca5458ba8e61c241bf" target="_top" xlink:title=" ">
<polygon fill="white" stroke="black" points="373,-0.5 373,-30.5 496,-30.5 496,-0.5 373,-0.5"/>
<text text-anchor="start" x="381" y="-18.5" font-family="Helvetica,sans-Serif" font-size="10.00">Obj::CMotionComponent</text>
<text text-anchor="middle" x="434.5" y="-7.5" font-family="Helvetica,sans-Serif" font-size="10.00">::FollowStoredPath_Init</text>
</a>
</g>
</g>
<!-- Node2&#45;&gt;Node7 -->
<g id="edge7" class="edge"><title>Node2&#45;&gt;Node7</title>
<path fill="none" stroke="midnightblue" d="M534.465,-46.3871C517.774,-41.1778 499.756,-35.5543 483.726,-30.5516"/>
<polygon fill="midnightblue" stroke="midnightblue" points="533.525,-49.7603 544.114,-49.3986 535.611,-43.0781 533.525,-49.7603"/>
</g>
<!-- Node4 -->
<g id="node4" class="node"><title>Node4</title>
<g id="a_node4"><a xlink:href="../../d2/d98/class_obj_1_1_c_motion_component.html#af240ac53f79695f2bca6d71c704f0d3b" target="_top" xlink:title=" ">
<polygon fill="white" stroke="black" points="214,-49.5 214,-79.5 337,-79.5 337,-49.5 214,-49.5"/>
<text text-anchor="start" x="222" y="-67.5" font-family="Helvetica,sans-Serif" font-size="10.00">Obj::CMotionComponent</text>
<text text-anchor="middle" x="275.5" y="-56.5" font-family="Helvetica,sans-Serif" font-size="10.00">::CallMemberFunction</text>
</a>
</g>
</g>
<!-- Node3&#45;&gt;Node4 -->
<g id="edge3" class="edge"><title>Node3&#45;&gt;Node4</title>
<path fill="none" stroke="midnightblue" d="M375.465,-95.3871C358.774,-90.1778 340.756,-84.5543 324.726,-79.5516"/>
<polygon fill="midnightblue" stroke="midnightblue" points="374.525,-98.7603 385.114,-98.3986 376.611,-92.0781 374.525,-98.7603"/>
</g>
<!-- Node5 -->
<g id="node5" class="node"><title>Node5</title>
<g id="a_node5"><a xlink:href="../../d2/d61/class_obj_1_1_c_skater_core_physics_component.html#a8a203adc7b9d259c8374d3632e38b74f" target="_top" xlink:title=" ">
<polygon fill="white" stroke="black" points="0,-49.5 0,-79.5 178,-79.5 178,-49.5 0,-49.5"/>
<text text-anchor="start" x="8" y="-67.5" font-family="Helvetica,sans-Serif" font-size="10.00">Obj::CSkaterCorePhysicsComponent</text>
<text text-anchor="middle" x="89" y="-56.5" font-family="Helvetica,sans-Serif" font-size="10.00">::CallMemberFunction</text>
</a>
</g>
</g>
<!-- Node4&#45;&gt;Node5 -->
<g id="edge4" class="edge"><title>Node4&#45;&gt;Node5</title>
<path fill="none" stroke="midnightblue" d="M203.74,-64.5C195.347,-64.5 186.703,-64.5 178.107,-64.5"/>
<polygon fill="midnightblue" stroke="midnightblue" points="203.832,-68.0001 213.832,-64.5 203.832,-61.0001 203.832,-68.0001"/>
</g>
<!-- Node6&#45;&gt;Node4 -->
<g id="edge6" class="edge"><title>Node6&#45;&gt;Node4</title>
<path fill="none" stroke="midnightblue" d="M362.79,-64.5C354.193,-64.5 345.47,-64.5 337.039,-64.5"/>
<polygon fill="midnightblue" stroke="midnightblue" points="362.8,-68.0001 372.8,-64.5 362.8,-61.0001 362.8,-68.0001"/>
</g>
<!-- Node7&#45;&gt;Node4 -->
<g id="edge8" class="edge"><title>Node7&#45;&gt;Node4</title>
<path fill="none" stroke="midnightblue" d="M375.465,-33.6129C358.774,-38.8222 340.756,-44.4457 324.726,-49.4484"/>
<polygon fill="midnightblue" stroke="midnightblue" points="376.611,-36.9219 385.114,-30.6014 374.525,-30.2397 376.611,-36.9219"/>
</g>
</g>
</svg>
