<?xml version="1.0" encoding="UTF-8" standalone="no"?>
<!DOCTYPE svg PUBLIC "-//W3C//DTD SVG 1.1//EN"
 "http://www.w3.org/Graphics/SVG/1.1/DTD/svg11.dtd">
<!-- Generated by graphviz version 2.38.0 (20140413.2041)
 -->
<!-- Title: Mlp::Manager::service_system Pages: 1 -->
<svg width="288pt" height="104pt"
 viewBox="0.00 0.00 288.00 104.00" xmlns="http://www.w3.org/2000/svg" xmlns:xlink="http://www.w3.org/1999/xlink">
<g id="graph0" class="graph" transform="scale(1 1) rotate(0) translate(4 100)">
<title>Mlp::Manager::service_system</title>
<polygon fill="white" stroke="none" points="-4,4 -4,-100 284,-100 284,4 -4,4"/>
<!-- Node1 -->
<g id="node1" class="node"><title>Node1</title>
<g id="a_node1"><a xlink:title=" ">
<polygon fill="#bfbfbf" stroke="black" points="0,-33 0,-63 112,-63 112,-33 0,-33"/>
<text text-anchor="start" x="8" y="-51" font-family="Helvetica,sans-Serif" font-size="10.00">Mlp::Manager::service</text>
<text text-anchor="middle" x="56" y="-40" font-family="Helvetica,sans-Serif" font-size="10.00">_system</text>
</a>
</g>
</g>
<!-- Node2 -->
<g id="node2" class="node"><title>Node2</title>
<g id="a_node2"><a xlink:href="../../da/d21/class_sys_1_1_profiler.html#a6251971d921454ca6bbeab5d685a8d97" target="_top" xlink:title=" ">
<polygon fill="white" stroke="black" points="150.5,-76.5 150.5,-95.5 277.5,-95.5 277.5,-76.5 150.5,-76.5"/>
<text text-anchor="middle" x="214" y="-83.5" font-family="Helvetica,sans-Serif" font-size="10.00">Sys::Profiler::PopContext</text>
</a>
</g>
</g>
<!-- Node1&#45;&gt;Node2 -->
<g id="edge1" class="edge"><title>Node1&#45;&gt;Node2</title>
<path fill="none" stroke="midnightblue" d="M112.439,-61.5044C129.265,-65.6029 147.623,-70.0747 163.994,-74.0626"/>
<polygon fill="midnightblue" stroke="midnightblue" points="163.355,-77.5092 173.899,-76.4754 165.011,-70.708 163.355,-77.5092"/>
</g>
<!-- Node3 -->
<g id="node3" class="node"><title>Node3</title>
<g id="a_node3"><a xlink:href="../../d8/d8c/class_tsk_1_1_stack.html#a752c6034dc3458c7808848d12d9088ad" target="_top" xlink:title=" ">
<polygon fill="white" stroke="black" points="161,-38.5 161,-57.5 267,-57.5 267,-38.5 161,-38.5"/>
<text text-anchor="middle" x="214" y="-45.5" font-family="Helvetica,sans-Serif" font-size="10.00">Tsk::Stack::Process</text>
</a>
</g>
</g>
<!-- Node1&#45;&gt;Node3 -->
<g id="edge2" class="edge"><title>Node1&#45;&gt;Node3</title>
<path fill="none" stroke="midnightblue" d="M112.439,-48C124.878,-48 138.154,-48 150.845,-48"/>
<polygon fill="midnightblue" stroke="midnightblue" points="150.871,-51.5001 160.871,-48 150.871,-44.5001 150.871,-51.5001"/>
</g>
<!-- Node4 -->
<g id="node4" class="node"><title>Node4</title>
<g id="a_node4"><a xlink:href="../../da/d21/class_sys_1_1_profiler.html#a465bd1eebac4ba1e45cdb2bce604d67a" target="_top" xlink:title=" ">
<polygon fill="white" stroke="black" points="148,-0.5 148,-19.5 280,-19.5 280,-0.5 148,-0.5"/>
<text text-anchor="middle" x="214" y="-7.5" font-family="Helvetica,sans-Serif" font-size="10.00">Sys::Profiler::PushContext</text>
</a>
</g>
</g>
<!-- Node1&#45;&gt;Node4 -->
<g id="edge3" class="edge"><title>Node1&#45;&gt;Node4</title>
<path fill="none" stroke="midnightblue" d="M112.439,-34.4956C129.265,-30.3971 147.623,-25.9253 163.994,-21.9374"/>
<polygon fill="midnightblue" stroke="midnightblue" points="165.011,-25.292 173.899,-19.5246 163.355,-18.4908 165.011,-25.292"/>
</g>
</g>
</svg>
