<?xml version="1.0" encoding="UTF-8" standalone="no"?>
<!DOCTYPE svg PUBLIC "-//W3C//DTD SVG 1.1//EN"
 "http://www.w3.org/Graphics/SVG/1.1/DTD/svg11.dtd">
<!-- Generated by graphviz version 2.38.0 (20140413.2041)
 -->
<!-- Title: Mth::GetAngle Pages: 1 -->
<!--zoomable 676 -->
<svg id="main" version="1.1" xmlns="http://www.w3.org/2000/svg" xmlns:xlink="http://www.w3.org/1999/xlink" xml:space="preserve" onload="init(evt)">
<style type="text/css"><![CDATA[
.edge:hover path { stroke: red; }
.edge:hover polygon { stroke: red; fill: red; }
]]></style>
<script type="text/javascript"><![CDATA[
var edges = document.getElementsByTagName('g');
if (edges && edges.length) {
  for (var i=0;i<edges.length;i++) {
    if (edges[i].id.substr(0,4)=='edge') {
      edges[i].setAttribute('class','edge');
    }
  }
}
]]></script>
        <defs>
                <circle id="rim" cx="0" cy="0" r="7"/>
                <circle id="rim2" cx="0" cy="0" r="3.5"/>
                <g id="zoomPlus">
                        <use xlink:href="#rim" fill="#404040">
                                <set attributeName="fill" to="#808080" begin="zoomplus.mouseover" end="zoomplus.mouseout"/>
                        </use>
                        <path d="M-4,0h8M0,-4v8" fill="none" stroke="white" stroke-width="1.5" pointer-events="none"/>
                </g>
                <g id="zoomMin">
                        <use xlink:href="#rim" fill="#404040">
                                <set attributeName="fill" to="#808080" begin="zoomminus.mouseover" end="zoomminus.mouseout"/>
                        </use>
                        <path d="M-4,0h8" fill="none" stroke="white" stroke-width="1.5" pointer-events="none"/>
                </g>
                <g id="dirArrow">
                        <path fill="none" stroke="white" stroke-width="1.5" d="M0,-3.0v7 M-2.5,-0.5L0,-3.0L2.5,-0.5"/>
                </g>
               <g id="resetDef">
                       <use xlink:href="#rim2" fill="#404040">
                               <set attributeName="fill" to="#808080" begin="reset.mouseover" end="reset.mouseout"/>
                       </use>
               </g>
        </defs>

<script type="text/javascript">
var viewWidth = 1349;
var viewHeight = 676;
var sectionId = 'dynsection-61';
</script>
<script xlink:href="../../svgpan.js"/>
<svg id="graph" class="graph">
<g id="viewport">
<title>Mth::GetAngle</title>
<polygon fill="white" stroke="none" points="-4,4 -4,-671.662 1345,-671.662 1345,4 -4,4"/>
<!-- Node1 -->
<g id="node1" class="node"><title>Node1</title>
<g id="a_node1"><a xlink:title=" ">
<polygon fill="#bfbfbf" stroke="black" points="1261,-341 1261,-360 1341,-360 1341,-341 1261,-341"/>
<text text-anchor="middle" x="1301" y="-348" font-family="Helvetica,sans-Serif" font-size="10.00">Mth::GetAngle</text>
</a>
</g>
</g>
<!-- Node2 -->
<g id="node2" class="node"><title>Node2</title>
<g id="a_node2"><a xlink:href="../../d1/dcb/class_obj_1_1_c_ped_logic_component.html#a7d723ca5f0fd68588fbdf70741a242b3" target="_top" xlink:title=" ">
<polygon fill="white" stroke="black" points="554,-568.5 554,-598.5 688,-598.5 688,-568.5 554,-568.5"/>
<text text-anchor="start" x="562" y="-586.5" font-family="Helvetica,sans-Serif" font-size="10.00">Obj::CPedLogicComponent</text>
<text text-anchor="middle" x="621" y="-575.5" font-family="Helvetica,sans-Serif" font-size="10.00">::AddTargetBias</text>
</a>
</g>
</g>
<!-- Node1&#45;&gt;Node2 -->
<g id="edge1" class="edge"><title>Node1&#45;&gt;Node2</title>
<path fill="none" stroke="midnightblue" d="M1295.06,-369.936C1286.17,-401.082 1264.64,-462.242 1225,-497.5 1073.49,-632.259 810.644,-613.392 688.251,-595.433"/>
<polygon fill="midnightblue" stroke="midnightblue" points="1298.44,-370.83 1297.68,-360.263 1291.68,-368.998 1298.44,-370.83"/>
</g>
<!-- Node3 -->
<g id="node3" class="node"><title>Node3</title>
<g id="a_node3"><a xlink:href="../../d1/dcb/class_obj_1_1_c_ped_logic_component.html#aea233d11a91e6cc7dd30c99dda97ab76" target="_top" xlink:title=" ">
<polygon fill="white" stroke="black" points="362,-568.5 362,-598.5 496,-598.5 496,-568.5 362,-568.5"/>
<text text-anchor="start" x="370" y="-586.5" font-family="Helvetica,sans-Serif" font-size="10.00">Obj::CPedLogicComponent</text>
<text text-anchor="middle" x="429" y="-575.5" font-family="Helvetica,sans-Serif" font-size="10.00">::UpdateTargetBias</text>
</a>
</g>
</g>
<!-- Node1&#45;&gt;Node3 -->
<g id="edge44" class="edge"><title>Node1&#45;&gt;Node3</title>
<path fill="none" stroke="midnightblue" d="M1298.37,-370.239C1294,-410.43 1278.4,-502.203 1225,-552.5 1136.52,-635.837 1083.55,-627.5 962,-627.5 962,-627.5 962,-627.5 790,-627.5 684.772,-627.5 658.204,-623.146 554,-608.5 535.08,-605.841 514.698,-602.102 496.034,-598.324"/>
<polygon fill="midnightblue" stroke="midnightblue" points="1301.87,-370.431 1299.35,-360.141 1294.9,-369.758 1301.87,-370.431"/>
</g>
<!-- Node7 -->
<g id="node7" class="node"><title>Node7</title>
<g id="a_node7"><a xlink:href="../../db/dfc/class_obj_1_1_c_skater_matrix_queries_component.html#a101fcf88bece88c72623a1ac64afe0ec" target="_top" xlink:title=" ">
<polygon fill="white" stroke="black" points="1064,-357.5 1064,-387.5 1225,-387.5 1225,-357.5 1064,-357.5"/>
<text text-anchor="start" x="1072" y="-375.5" font-family="Helvetica,sans-Serif" font-size="10.00">Obj::CSkaterMatrixQueries</text>
<text text-anchor="middle" x="1144.5" y="-364.5" font-family="Helvetica,sans-Serif" font-size="10.00">Component::CallMemberFunction</text>
</a>
</g>
</g>
<!-- Node1&#45;&gt;Node7 -->
<g id="edge7" class="edge"><title>Node1&#45;&gt;Node7</title>
<path fill="none" stroke="midnightblue" d="M1250.58,-357.537C1242.43,-358.698 1233.8,-359.926 1225.13,-361.16"/>
<polygon fill="midnightblue" stroke="midnightblue" points="1251.21,-360.983 1260.61,-356.108 1250.22,-354.053 1251.21,-360.983"/>
</g>
<!-- Node8 -->
<g id="node8" class="node"><title>Node8</title>
<g id="a_node8"><a xlink:href="../../d5/dc9/class_obj_1_1_c_avoid_component.html#abfe466456192af89a9d7285ad94013f6" target="_top" xlink:title=" ">
<polygon fill="white" stroke="black" points="902.5,-291.5 902.5,-321.5 1019.5,-321.5 1019.5,-291.5 902.5,-291.5"/>
<text text-anchor="start" x="910.5" y="-309.5" font-family="Helvetica,sans-Serif" font-size="10.00">Obj::CAvoidComponent</text>
<text text-anchor="middle" x="961" y="-298.5" font-family="Helvetica,sans-Serif" font-size="10.00">::CallMemberFunction</text>
</a>
</g>
</g>
<!-- Node1&#45;&gt;Node8 -->
<g id="edge8" class="edge"><title>Node1&#45;&gt;Node8</title>
<path fill="none" stroke="midnightblue" d="M1250.69,-344.081C1189.31,-336.091 1084.64,-322.465 1019.62,-314.001"/>
<polygon fill="midnightblue" stroke="midnightblue" points="1250.53,-347.589 1260.9,-345.41 1251.43,-340.648 1250.53,-347.589"/>
</g>
<!-- Node9 -->
<g id="node9" class="node"><title>Node9</title>
<g id="a_node9"><a xlink:href="../../d7/d39/class_obj_1_1_c_skater_rotate_component.html#a24e64c41310510f4c9336694731c39f7" target="_top" xlink:title=" ">
<polygon fill="white" stroke="black" points="1069,-220.5 1069,-250.5 1220,-250.5 1220,-220.5 1069,-220.5"/>
<text text-anchor="start" x="1077" y="-238.5" font-family="Helvetica,sans-Serif" font-size="10.00">Obj::CSkaterRotateComponent</text>
<text text-anchor="middle" x="1144.5" y="-227.5" font-family="Helvetica,sans-Serif" font-size="10.00">::CallMemberFunction</text>
</a>
</g>
</g>
<!-- Node1&#45;&gt;Node9 -->
<g id="edge9" class="edge"><title>Node1&#45;&gt;Node9</title>
<path fill="none" stroke="midnightblue" d="M1289.54,-332.197C1276.84,-311.587 1253.54,-278.5 1225,-259.5 1219.84,-256.065 1214.17,-253.106 1208.31,-250.561"/>
<polygon fill="midnightblue" stroke="midnightblue" points="1286.62,-334.148 1294.75,-340.945 1292.64,-330.564 1286.62,-334.148"/>
</g>
<!-- Node10 -->
<g id="node10" class="node"><title>Node10</title>
<g id="a_node10"><a xlink:href="../../df/d19/class_obj_1_1_c_moving_object.html#a1ffce31f636249b991e638d66a89f0ee" target="_top" xlink:title=" ">
<polygon fill="white" stroke="black" points="1088.5,-171.5 1088.5,-201.5 1200.5,-201.5 1200.5,-171.5 1088.5,-171.5"/>
<text text-anchor="start" x="1096.5" y="-189.5" font-family="Helvetica,sans-Serif" font-size="10.00">Obj::CMovingObject</text>
<text text-anchor="middle" x="1144.5" y="-178.5" font-family="Helvetica,sans-Serif" font-size="10.00">::CallMemberFunction</text>
</a>
</g>
</g>
<!-- Node1&#45;&gt;Node10 -->
<g id="edge10" class="edge"><title>Node1&#45;&gt;Node10</title>
<path fill="none" stroke="midnightblue" d="M1294.78,-330.871C1285.7,-300.568 1264.14,-242.549 1225,-210.5 1217.86,-204.655 1209.32,-200.232 1200.53,-196.886"/>
<polygon fill="midnightblue" stroke="midnightblue" points="1291.46,-332.02 1297.56,-340.683 1298.2,-330.107 1291.46,-332.02"/>
</g>
<!-- Node14 -->
<g id="node14" class="node"><title>Node14</title>
<g id="a_node14"><a xlink:href="../../d5/dc9/class_obj_1_1_c_avoid_component.html#aae7153ed354a9c094d357feeb86b8b00" target="_top" xlink:title=" ">
<polygon fill="white" stroke="black" points="1086,-269.5 1086,-299.5 1203,-299.5 1203,-269.5 1086,-269.5"/>
<text text-anchor="start" x="1094" y="-287.5" font-family="Helvetica,sans-Serif" font-size="10.00">Obj::CAvoidComponent</text>
<text text-anchor="middle" x="1144.5" y="-276.5" font-family="Helvetica,sans-Serif" font-size="10.00">::get_ideal_heading</text>
</a>
</g>
</g>
<!-- Node1&#45;&gt;Node14 -->
<g id="edge14" class="edge"><title>Node1&#45;&gt;Node14</title>
<path fill="none" stroke="midnightblue" d="M1272,-336.347C1258.01,-329.461 1240.75,-321.238 1225,-314.5 1212.93,-309.337 1199.64,-304.138 1187.44,-299.552"/>
<polygon fill="midnightblue" stroke="midnightblue" points="1270.58,-339.553 1281.1,-340.865 1273.7,-333.283 1270.58,-339.553"/>
</g>
<!-- Node15 -->
<g id="node15" class="node"><title>Node15</title>
<g id="a_node15"><a xlink:href="../../d1/dcb/class_obj_1_1_c_ped_logic_component.html#a44e68f2daf8f9dfac8304ed5756cc245" target="_top" xlink:title=" ">
<polygon fill="white" stroke="black" points="1077.5,-457.5 1077.5,-487.5 1211.5,-487.5 1211.5,-457.5 1077.5,-457.5"/>
<text text-anchor="start" x="1085.5" y="-475.5" font-family="Helvetica,sans-Serif" font-size="10.00">Obj::CPedLogicComponent</text>
<text text-anchor="middle" x="1144.5" y="-464.5" font-family="Helvetica,sans-Serif" font-size="10.00">::GetJumpParams</text>
</a>
</g>
</g>
<!-- Node1&#45;&gt;Node15 -->
<g id="edge16" class="edge"><title>Node1&#45;&gt;Node15</title>
<path fill="none" stroke="midnightblue" d="M1286.29,-368.264C1272.24,-385.643 1249.1,-412.109 1225,-430.5 1211.23,-441.011 1194.45,-450.304 1179.87,-457.458"/>
<polygon fill="midnightblue" stroke="midnightblue" points="1289.29,-370.107 1292.76,-360.095 1283.81,-365.759 1289.29,-370.107"/>
</g>
<!-- Node22 -->
<g id="node22" class="node"><title>Node22</title>
<g id="a_node22"><a xlink:href="../../d2/d98/class_obj_1_1_c_motion_component.html#a470ff053864815022154f8158977958d" target="_top" xlink:title=" ">
<polygon fill="white" stroke="black" points="1083,-122.5 1083,-152.5 1206,-152.5 1206,-122.5 1083,-122.5"/>
<text text-anchor="start" x="1091" y="-140.5" font-family="Helvetica,sans-Serif" font-size="10.00">Obj::CMotionComponent</text>
<text text-anchor="middle" x="1144.5" y="-129.5" font-family="Helvetica,sans-Serif" font-size="10.00">::RotateToFacePos</text>
</a>
</g>
</g>
<!-- Node1&#45;&gt;Node22 -->
<g id="edge27" class="edge"><title>Node1&#45;&gt;Node22</title>
<path fill="none" stroke="midnightblue" d="M1297.73,-330.189C1292.33,-291.638 1275.18,-207.604 1225,-161.5 1219.59,-156.525 1213.17,-152.58 1206.38,-149.452"/>
<polygon fill="midnightblue" stroke="midnightblue" points="1294.32,-331.121 1299.05,-340.6 1301.26,-330.239 1294.32,-331.121"/>
</g>
<!-- Node23 -->
<g id="node23" class="node"><title>Node23</title>
<g id="a_node23"><a xlink:href="../../d1/dcb/class_obj_1_1_c_ped_logic_component.html#ad74df21d709ec030a644c7543953c306" target="_top" xlink:title=" ">
<polygon fill="white" stroke="black" points="724,-451.5 724,-481.5 858,-481.5 858,-451.5 724,-451.5"/>
<text text-anchor="start" x="732" y="-469.5" font-family="Helvetica,sans-Serif" font-size="10.00">Obj::CPedLogicComponent</text>
<text text-anchor="middle" x="791" y="-458.5" font-family="Helvetica,sans-Serif" font-size="10.00">::SelectNextWaypoint</text>
</a>
</g>
</g>
<!-- Node1&#45;&gt;Node23 -->
<g id="edge28" class="edge"><title>Node1&#45;&gt;Node23</title>
<path fill="none" stroke="midnightblue" d="M1280.01,-366.401C1265.6,-376.916 1245.21,-389.931 1225,-396.5 1084.66,-442.116 1037.24,-387.019 894,-422.5 867.979,-428.946 840.144,-441.364 820.137,-451.368"/>
<polygon fill="midnightblue" stroke="midnightblue" points="1282.28,-369.074 1288.16,-360.258 1278.07,-363.486 1282.28,-369.074"/>
</g>
<!-- Node24 -->
<g id="node24" class="node"><title>Node24</title>
<g id="a_node24"><a xlink:href="../../d2/d98/class_obj_1_1_c_motion_component.html#ab690d473a8bf466ffbd6973bac77bbe7" target="_top" xlink:title=" ">
<polygon fill="white" stroke="black" points="1083,-73.5 1083,-103.5 1206,-103.5 1206,-73.5 1083,-73.5"/>
<text text-anchor="start" x="1091" y="-91.5" font-family="Helvetica,sans-Serif" font-size="10.00">Obj::CMotionComponent</text>
<text text-anchor="middle" x="1144.5" y="-80.5" font-family="Helvetica,sans-Serif" font-size="10.00">::SetUpLookAtPos</text>
</a>
</g>
</g>
<!-- Node1&#45;&gt;Node24 -->
<g id="edge31" class="edge"><title>Node1&#45;&gt;Node24</title>
<path fill="none" stroke="midnightblue" d="M1299.67,-330.429C1297.8,-285.009 1286.8,-173.561 1225,-112.5 1219.67,-107.231 1213.22,-103.112 1206.33,-99.8939"/>
<polygon fill="midnightblue" stroke="midnightblue" points="1296.18,-330.821 1299.97,-340.712 1303.17,-330.612 1296.18,-330.821"/>
</g>
<!-- Node31 -->
<g id="node31" class="node"><title>Node31</title>
<g id="a_node31"><a xlink:href="../../d1/dcb/class_obj_1_1_c_ped_logic_component.html#adfbc22a0e37fb5c9bd0f52f4f6584d70" target="_top" xlink:title=" ">
<polygon fill="white" stroke="black" points="362,-617.5 362,-647.5 496,-647.5 496,-617.5 362,-617.5"/>
<text text-anchor="start" x="370" y="-635.5" font-family="Helvetica,sans-Serif" font-size="10.00">Obj::CPedLogicComponent</text>
<text text-anchor="middle" x="429" y="-624.5" font-family="Helvetica,sans-Serif" font-size="10.00">::UpdatePathBias</text>
</a>
</g>
</g>
<!-- Node1&#45;&gt;Node31 -->
<g id="edge41" class="edge"><title>Node1&#45;&gt;Node31</title>
<path fill="none" stroke="midnightblue" d="M1300.34,-370.391C1300,-417.919 1292.2,-538.845 1225,-602.5 1137.74,-685.159 1082.2,-665.5 962,-665.5 962,-665.5 962,-665.5 790,-665.5 687.07,-665.5 568.275,-651.957 496.185,-642.223"/>
<polygon fill="midnightblue" stroke="midnightblue" points="1303.84,-370.192 1300.3,-360.205 1296.84,-370.219 1303.84,-370.192"/>
</g>
<!-- Node2&#45;&gt;Node3 -->
<g id="edge2" class="edge"><title>Node2&#45;&gt;Node3</title>
<path fill="none" stroke="midnightblue" d="M543.629,-583.5C527.948,-583.5 511.561,-583.5 496.27,-583.5"/>
<polygon fill="midnightblue" stroke="midnightblue" points="543.814,-587 553.814,-583.5 543.814,-580 543.814,-587"/>
</g>
<!-- Node4 -->
<g id="node4" class="node"><title>Node4</title>
<g id="a_node4"><a xlink:href="../../d1/dcb/class_obj_1_1_c_ped_logic_component.html#a90d5e8a2276091a627351e7680b39e51" target="_top" xlink:title=" ">
<polygon fill="white" stroke="black" points="170,-617.5 170,-647.5 304,-647.5 304,-617.5 170,-617.5"/>
<text text-anchor="start" x="178" y="-635.5" font-family="Helvetica,sans-Serif" font-size="10.00">Obj::CPedLogicComponent</text>
<text text-anchor="middle" x="237" y="-624.5" font-family="Helvetica,sans-Serif" font-size="10.00">::GenericPedUpdate</text>
</a>
</g>
</g>
<!-- Node3&#45;&gt;Node4 -->
<g id="edge3" class="edge"><title>Node3&#45;&gt;Node4</title>
<path fill="none" stroke="midnightblue" d="M359.95,-601.05C339.085,-606.431 316.33,-612.299 296.187,-617.494"/>
<polygon fill="midnightblue" stroke="midnightblue" points="360.893,-604.421 369.703,-598.535 359.145,-597.643 360.893,-604.421"/>
</g>
<!-- Node6 -->
<g id="node6" class="node"><title>Node6</title>
<g id="a_node6"><a xlink:href="../../d1/dcb/class_obj_1_1_c_ped_logic_component.html#aa2c62baf1ffba4ebce5263c0a07bff18" target="_top" xlink:title=" ">
<polygon fill="white" stroke="black" points="170,-568.5 170,-598.5 304,-598.5 304,-568.5 170,-568.5"/>
<text text-anchor="start" x="178" y="-586.5" font-family="Helvetica,sans-Serif" font-size="10.00">Obj::CPedLogicComponent</text>
<text text-anchor="middle" x="237" y="-575.5" font-family="Helvetica,sans-Serif" font-size="10.00">::GenericSkaterUpdate</text>
</a>
</g>
</g>
<!-- Node3&#45;&gt;Node6 -->
<g id="edge5" class="edge"><title>Node3&#45;&gt;Node6</title>
<path fill="none" stroke="midnightblue" d="M351.629,-583.5C335.948,-583.5 319.561,-583.5 304.27,-583.5"/>
<polygon fill="midnightblue" stroke="midnightblue" points="351.814,-587 361.814,-583.5 351.814,-580 351.814,-587"/>
</g>
<!-- Node5 -->
<g id="node5" class="node"><title>Node5</title>
<g id="a_node5"><a xlink:href="../../d1/dcb/class_obj_1_1_c_ped_logic_component.html#a84e225759509cdc85d7be0839dc1862b" target="_top" xlink:title=" ">
<polygon fill="white" stroke="black" points="0,-592.5 0,-622.5 134,-622.5 134,-592.5 0,-592.5"/>
<text text-anchor="start" x="8" y="-610.5" font-family="Helvetica,sans-Serif" font-size="10.00">Obj::CPedLogicComponent</text>
<text text-anchor="middle" x="67" y="-599.5" font-family="Helvetica,sans-Serif" font-size="10.00">::Update</text>
</a>
</g>
</g>
<!-- Node4&#45;&gt;Node5 -->
<g id="edge4" class="edge"><title>Node4&#45;&gt;Node5</title>
<path fill="none" stroke="midnightblue" d="M159.683,-621.143C151.174,-619.877 142.559,-618.595 134.191,-617.35"/>
<polygon fill="midnightblue" stroke="midnightblue" points="159.196,-624.609 169.602,-622.619 160.226,-617.685 159.196,-624.609"/>
</g>
<!-- Node6&#45;&gt;Node5 -->
<g id="edge6" class="edge"><title>Node6&#45;&gt;Node5</title>
<path fill="none" stroke="midnightblue" d="M159.683,-594.402C151.174,-595.618 142.559,-596.849 134.191,-598.044"/>
<polygon fill="midnightblue" stroke="midnightblue" points="160.197,-597.865 169.602,-592.985 159.207,-590.935 160.197,-597.865"/>
</g>
<!-- Node11 -->
<g id="node11" class="node"><title>Node11</title>
<g id="a_node11"><a xlink:href="../../d4/d1c/class_obj_1_1_c_skater.html#a72e3d9eeda69a41c7667370a5d892d0f" target="_top" xlink:title=" ">
<polygon fill="white" stroke="black" points="899.5,-216 899.5,-235 1022.5,-235 1022.5,-216 899.5,-216"/>
<text text-anchor="middle" x="961" y="-223" font-family="Helvetica,sans-Serif" font-size="10.00">Obj::CSkater::_function1</text>
</a>
</g>
</g>
<!-- Node10&#45;&gt;Node11 -->
<g id="edge11" class="edge"><title>Node10&#45;&gt;Node11</title>
<path fill="none" stroke="midnightblue" d="M1078.05,-200.564C1054.29,-205.67 1028.01,-211.316 1006.48,-215.943"/>
<polygon fill="midnightblue" stroke="midnightblue" points="1079.02,-203.936 1088.06,-198.413 1077.55,-197.092 1079.02,-203.936"/>
</g>
<!-- Node13 -->
<g id="node13" class="node"><title>Node13</title>
<g id="a_node13"><a xlink:href="../../d1/dd7/class_nx_1_1_c_particle.html#aeb404c8005586e38c470c158e21f852d" target="_top" xlink:title=" ">
<polygon fill="white" stroke="black" points="895,-166.5 895,-196.5 1027,-196.5 1027,-166.5 895,-166.5"/>
<text text-anchor="start" x="903" y="-184.5" font-family="Helvetica,sans-Serif" font-size="10.00">Nx::CParticle::CallMember</text>
<text text-anchor="middle" x="961" y="-173.5" font-family="Helvetica,sans-Serif" font-size="10.00">Function</text>
</a>
</g>
</g>
<!-- Node10&#45;&gt;Node13 -->
<g id="edge13" class="edge"><title>Node10&#45;&gt;Node13</title>
<path fill="none" stroke="midnightblue" d="M1077.97,-184.695C1061.48,-184.24 1043.78,-183.753 1027.3,-183.299"/>
<polygon fill="midnightblue" stroke="midnightblue" points="1077.97,-188.196 1088.06,-184.973 1078.16,-181.199 1077.97,-188.196"/>
</g>
<!-- Node12 -->
<g id="node12" class="node"><title>Node12</title>
<g id="a_node12"><a xlink:href="../../d4/d1c/class_obj_1_1_c_skater.html#aedfbfc4184686ba16386dfcd9b75c1ee" target="_top" xlink:title=" ">
<polygon fill="white" stroke="black" points="729.5,-216 729.5,-235 852.5,-235 852.5,-216 729.5,-216"/>
<text text-anchor="middle" x="791" y="-223" font-family="Helvetica,sans-Serif" font-size="10.00">Obj::CSkater::_function0</text>
</a>
</g>
</g>
<!-- Node11&#45;&gt;Node12 -->
<g id="edge12" class="edge"><title>Node11&#45;&gt;Node12</title>
<path fill="none" stroke="midnightblue" d="M889.22,-225.5C877.028,-225.5 864.455,-225.5 852.563,-225.5"/>
<polygon fill="midnightblue" stroke="midnightblue" points="889.348,-229 899.348,-225.5 889.348,-222 889.348,-229"/>
</g>
<!-- Node14&#45;&gt;Node8 -->
<g id="edge15" class="edge"><title>Node14&#45;&gt;Node8</title>
<path fill="none" stroke="midnightblue" d="M1075.71,-292.716C1057.23,-294.957 1037.38,-297.363 1019.53,-299.527"/>
<polygon fill="midnightblue" stroke="midnightblue" points="1076.32,-296.169 1085.82,-291.491 1075.47,-289.22 1076.32,-296.169"/>
</g>
<!-- Node16 -->
<g id="node16" class="node"><title>Node16</title>
<g id="a_node16"><a xlink:href="../../d1/dcb/class_obj_1_1_c_ped_logic_component.html#a0b7b855cd75a803c0dc2695823753bbf" target="_top" xlink:title=" ">
<polygon fill="white" stroke="black" points="894,-481.5 894,-511.5 1028,-511.5 1028,-481.5 894,-481.5"/>
<text text-anchor="start" x="902" y="-499.5" font-family="Helvetica,sans-Serif" font-size="10.00">Obj::CPedLogicComponent</text>
<text text-anchor="middle" x="961" y="-488.5" font-family="Helvetica,sans-Serif" font-size="10.00">::DoFlipTrick</text>
</a>
</g>
</g>
<!-- Node15&#45;&gt;Node16 -->
<g id="edge17" class="edge"><title>Node15&#45;&gt;Node16</title>
<path fill="none" stroke="midnightblue" d="M1067.2,-482.589C1054.27,-484.299 1040.94,-486.062 1028.29,-487.734"/>
<polygon fill="midnightblue" stroke="midnightblue" points="1068.01,-486.013 1077.46,-481.232 1067.09,-479.074 1068.01,-486.013"/>
</g>
<!-- Node20 -->
<g id="node20" class="node"><title>Node20</title>
<g id="a_node20"><a xlink:href="../../d1/dcb/class_obj_1_1_c_ped_logic_component.html#a8931f1e9aa9132cffc2c3ff128989995" target="_top" xlink:title=" ">
<polygon fill="white" stroke="black" points="894,-432.5 894,-462.5 1028,-462.5 1028,-432.5 894,-432.5"/>
<text text-anchor="start" x="902" y="-450.5" font-family="Helvetica,sans-Serif" font-size="10.00">Obj::CPedLogicComponent</text>
<text text-anchor="middle" x="961" y="-439.5" font-family="Helvetica,sans-Serif" font-size="10.00">::DoGrab</text>
</a>
</g>
</g>
<!-- Node15&#45;&gt;Node20 -->
<g id="edge23" class="edge"><title>Node15&#45;&gt;Node20</title>
<path fill="none" stroke="midnightblue" d="M1067.2,-461.99C1054.27,-460.209 1040.94,-458.373 1028.29,-456.631"/>
<polygon fill="midnightblue" stroke="midnightblue" points="1067.08,-465.506 1077.46,-463.404 1068.03,-458.572 1067.08,-465.506"/>
</g>
<!-- Node21 -->
<g id="node21" class="node"><title>Node21</title>
<g id="a_node21"><a xlink:href="../../d1/dcb/class_obj_1_1_c_ped_logic_component.html#a321e2b517b97fcf5d57dd80caacd3ee3" target="_top" xlink:title=" ">
<polygon fill="white" stroke="black" points="894,-530.5 894,-560.5 1028,-560.5 1028,-530.5 894,-530.5"/>
<text text-anchor="start" x="902" y="-548.5" font-family="Helvetica,sans-Serif" font-size="10.00">Obj::CPedLogicComponent</text>
<text text-anchor="middle" x="961" y="-537.5" font-family="Helvetica,sans-Serif" font-size="10.00">::DoJump</text>
</a>
</g>
</g>
<!-- Node15&#45;&gt;Node21 -->
<g id="edge25" class="edge"><title>Node15&#45;&gt;Node21</title>
<path fill="none" stroke="midnightblue" d="M1100.1,-491.548C1078.53,-500.851 1052.01,-512.048 1028,-521.5 1020.4,-524.492 1012.26,-527.562 1004.37,-530.464"/>
<polygon fill="midnightblue" stroke="midnightblue" points="1101.54,-494.739 1109.33,-487.554 1098.76,-488.315 1101.54,-494.739"/>
</g>
<!-- Node17 -->
<g id="node17" class="node"><title>Node17</title>
<g id="a_node17"><a xlink:href="../../d1/dcb/class_obj_1_1_c_ped_logic_component.html#a0b77f38d9fd8c1d72d779a39ceb7d694" target="_top" xlink:title=" ">
<polygon fill="white" stroke="black" points="724,-500.5 724,-530.5 858,-530.5 858,-500.5 724,-500.5"/>
<text text-anchor="start" x="732" y="-518.5" font-family="Helvetica,sans-Serif" font-size="10.00">Obj::CPedLogicComponent</text>
<text text-anchor="middle" x="791" y="-507.5" font-family="Helvetica,sans-Serif" font-size="10.00">::DoSkateActions</text>
</a>
</g>
</g>
<!-- Node16&#45;&gt;Node17 -->
<g id="edge18" class="edge"><title>Node16&#45;&gt;Node17</title>
<path fill="none" stroke="midnightblue" d="M883.405,-505.162C874.987,-506.115 866.468,-507.078 858.191,-508.014"/>
<polygon fill="midnightblue" stroke="midnightblue" points="884.059,-508.611 893.602,-504.009 883.272,-501.655 884.059,-508.611"/>
</g>
<!-- Node18 -->
<g id="node18" class="node"><title>Node18</title>
<g id="a_node18"><a xlink:href="../../d1/dcb/class_obj_1_1_c_ped_logic_component.html#a60c75deb5e76d5ff49bd92cdf20240ea" target="_top" xlink:title=" ">
<polygon fill="white" stroke="black" points="554,-500.5 554,-530.5 688,-530.5 688,-500.5 554,-500.5"/>
<text text-anchor="start" x="562" y="-518.5" font-family="Helvetica,sans-Serif" font-size="10.00">Obj::CPedLogicComponent</text>
<text text-anchor="middle" x="621" y="-507.5" font-family="Helvetica,sans-Serif" font-size="10.00">::HitWaypoint</text>
</a>
</g>
</g>
<!-- Node17&#45;&gt;Node18 -->
<g id="edge19" class="edge"><title>Node17&#45;&gt;Node18</title>
<path fill="none" stroke="midnightblue" d="M713.405,-515.5C704.987,-515.5 696.468,-515.5 688.191,-515.5"/>
<polygon fill="midnightblue" stroke="midnightblue" points="713.602,-519 723.602,-515.5 713.602,-512 713.602,-519"/>
</g>
<!-- Node18&#45;&gt;Node3 -->
<g id="edge22" class="edge"><title>Node18&#45;&gt;Node3</title>
<path fill="none" stroke="midnightblue" d="M568.305,-534.001C538.088,-544.816 500.435,-558.292 472.049,-568.451"/>
<polygon fill="midnightblue" stroke="midnightblue" points="569.597,-537.256 577.833,-530.591 567.238,-530.666 569.597,-537.256"/>
</g>
<!-- Node18&#45;&gt;Node6 -->
<g id="edge21" class="edge"><title>Node18&#45;&gt;Node6</title>
<path fill="none" stroke="midnightblue" d="M543.923,-525.876C487.455,-533.961 408.673,-546.045 340,-559.5 326.521,-562.141 312.121,-565.312 298.515,-568.47"/>
<polygon fill="midnightblue" stroke="midnightblue" points="544.439,-529.338 553.846,-524.464 543.452,-522.408 544.439,-529.338"/>
</g>
<!-- Node19 -->
<g id="node19" class="node"><title>Node19</title>
<g id="a_node19"><a xlink:href="../../d1/dcb/class_obj_1_1_c_ped_logic_component.html#a5d26ffb552c1bde3fb4551b7e0e70509" target="_top" xlink:title=" ">
<polygon fill="white" stroke="black" points="362,-461.5 362,-491.5 496,-491.5 496,-461.5 362,-461.5"/>
<text text-anchor="start" x="370" y="-479.5" font-family="Helvetica,sans-Serif" font-size="10.00">Obj::CPedLogicComponent</text>
<text text-anchor="middle" x="429" y="-468.5" font-family="Helvetica,sans-Serif" font-size="10.00">::CallMemberFunction</text>
</a>
</g>
</g>
<!-- Node18&#45;&gt;Node19 -->
<g id="edge20" class="edge"><title>Node18&#45;&gt;Node19</title>
<path fill="none" stroke="midnightblue" d="M543.629,-499.824C527.948,-496.605 511.561,-493.241 496.27,-490.103"/>
<polygon fill="midnightblue" stroke="midnightblue" points="543.314,-503.332 553.814,-501.914 544.722,-496.475 543.314,-503.332"/>
</g>
<!-- Node20&#45;&gt;Node17 -->
<g id="edge24" class="edge"><title>Node20&#45;&gt;Node17</title>
<path fill="none" stroke="midnightblue" d="M908.381,-466.346C903.487,-468.345 898.628,-470.412 894,-472.5 877.509,-479.941 874.54,-484.169 858,-491.5 850.978,-494.612 843.414,-497.646 836.002,-500.452"/>
<polygon fill="midnightblue" stroke="midnightblue" points="909.789,-469.553 917.784,-462.601 907.198,-463.05 909.789,-469.553"/>
</g>
<!-- Node21&#45;&gt;Node17 -->
<g id="edge26" class="edge"><title>Node21&#45;&gt;Node17</title>
<path fill="none" stroke="midnightblue" d="M883.683,-531.872C875.174,-530.352 866.559,-528.814 858.191,-527.32"/>
<polygon fill="midnightblue" stroke="midnightblue" points="883.142,-535.331 893.602,-533.643 884.373,-528.44 883.142,-535.331"/>
</g>
<!-- Node23&#45;&gt;Node18 -->
<g id="edge30" class="edge"><title>Node23&#45;&gt;Node18</title>
<path fill="none" stroke="midnightblue" d="M728.399,-484.467C710.399,-489.717 690.918,-495.399 673.605,-500.448"/>
<polygon fill="midnightblue" stroke="midnightblue" points="729.604,-487.762 738.224,-481.601 727.644,-481.042 729.604,-487.762"/>
</g>
<!-- Node23&#45;&gt;Node19 -->
<g id="edge29" class="edge"><title>Node23&#45;&gt;Node19</title>
<path fill="none" stroke="midnightblue" d="M713.856,-468.615C649.332,-470.407 557.746,-472.952 496.22,-474.661"/>
<polygon fill="midnightblue" stroke="midnightblue" points="714.072,-472.111 723.97,-468.334 713.877,-465.113 714.072,-472.111"/>
</g>
<!-- Node25 -->
<g id="node25" class="node"><title>Node25</title>
<g id="a_node25"><a xlink:href="../../d2/d98/class_obj_1_1_c_motion_component.html#a7a475a4b8fe05f0826c07987a128cb3c" target="_top" xlink:title=" ">
<polygon fill="white" stroke="black" points="899.5,-73.5 899.5,-103.5 1022.5,-103.5 1022.5,-73.5 899.5,-73.5"/>
<text text-anchor="start" x="907.5" y="-91.5" font-family="Helvetica,sans-Serif" font-size="10.00">Obj::CMotionComponent</text>
<text text-anchor="middle" x="961" y="-80.5" font-family="Helvetica,sans-Serif" font-size="10.00">::LookAt_Init</text>
</a>
</g>
</g>
<!-- Node24&#45;&gt;Node25 -->
<g id="edge32" class="edge"><title>Node24&#45;&gt;Node25</title>
<path fill="none" stroke="midnightblue" d="M1072.66,-88.5C1056.13,-88.5 1038.67,-88.5 1022.63,-88.5"/>
<polygon fill="midnightblue" stroke="midnightblue" points="1072.81,-92.0001 1082.81,-88.5 1072.81,-85.0001 1072.81,-92.0001"/>
</g>
<!-- Node26 -->
<g id="node26" class="node"><title>Node26</title>
<g id="a_node26"><a xlink:href="../../d2/d98/class_obj_1_1_c_motion_component.html#af240ac53f79695f2bca6d71c704f0d3b" target="_top" xlink:title=" ">
<polygon fill="white" stroke="black" points="559.5,-73.5 559.5,-103.5 682.5,-103.5 682.5,-73.5 559.5,-73.5"/>
<text text-anchor="start" x="567.5" y="-91.5" font-family="Helvetica,sans-Serif" font-size="10.00">Obj::CMotionComponent</text>
<text text-anchor="middle" x="621" y="-80.5" font-family="Helvetica,sans-Serif" font-size="10.00">::CallMemberFunction</text>
</a>
</g>
</g>
<!-- Node25&#45;&gt;Node26 -->
<g id="edge33" class="edge"><title>Node25&#45;&gt;Node26</title>
<path fill="none" stroke="midnightblue" d="M927.674,-108.652C908.269,-119.546 882.639,-131.889 858,-137.5 799.931,-150.724 782.069,-150.724 724,-137.5 695.459,-131 665.588,-115.467 645.604,-103.618"/>
<polygon fill="midnightblue" stroke="midnightblue" points="929.485,-111.648 936.396,-103.618 925.986,-105.586 929.485,-111.648"/>
</g>
<!-- Node28 -->
<g id="node28" class="node"><title>Node28</title>
<g id="a_node28"><a xlink:href="../../d2/d98/class_obj_1_1_c_motion_component.html#adafda9e13687fc5eab75a9f51b85a7b0" target="_top" xlink:title=" ">
<polygon fill="white" stroke="black" points="729.5,-98.5 729.5,-128.5 852.5,-128.5 852.5,-98.5 729.5,-98.5"/>
<text text-anchor="start" x="737.5" y="-116.5" font-family="Helvetica,sans-Serif" font-size="10.00">Obj::CMotionComponent</text>
<text text-anchor="middle" x="791" y="-105.5" font-family="Helvetica,sans-Serif" font-size="10.00">::LookAtNode_Init</text>
</a>
</g>
</g>
<!-- Node25&#45;&gt;Node28 -->
<g id="edge35" class="edge"><title>Node25&#45;&gt;Node28</title>
<path fill="none" stroke="midnightblue" d="M889.22,-99.0328C877.028,-100.847 864.455,-102.718 852.563,-104.488"/>
<polygon fill="midnightblue" stroke="midnightblue" points="889.972,-102.459 899.348,-97.5256 888.942,-95.5357 889.972,-102.459"/>
</g>
<!-- Node29 -->
<g id="node29" class="node"><title>Node29</title>
<g id="a_node29"><a xlink:href="../../d2/d98/class_obj_1_1_c_motion_component.html#af8060a9dc3956bc40bd38fac14996a10" target="_top" xlink:title=" ">
<polygon fill="white" stroke="black" points="729.5,-49.5 729.5,-79.5 852.5,-79.5 852.5,-49.5 729.5,-49.5"/>
<text text-anchor="start" x="737.5" y="-67.5" font-family="Helvetica,sans-Serif" font-size="10.00">Obj::CMotionComponent</text>
<text text-anchor="middle" x="791" y="-56.5" font-family="Helvetica,sans-Serif" font-size="10.00">::LookAtNodeLinked_Init</text>
</a>
</g>
</g>
<!-- Node25&#45;&gt;Node29 -->
<g id="edge37" class="edge"><title>Node25&#45;&gt;Node29</title>
<path fill="none" stroke="midnightblue" d="M889.22,-78.3885C877.028,-76.6468 864.455,-74.8507 852.563,-73.1518"/>
<polygon fill="midnightblue" stroke="midnightblue" points="888.954,-81.886 899.348,-79.8354 889.944,-74.9563 888.954,-81.886"/>
</g>
<!-- Node30 -->
<g id="node30" class="node"><title>Node30</title>
<g id="a_node30"><a xlink:href="../../d2/d98/class_obj_1_1_c_motion_component.html#a5c0ec9893ef08c6183bd0ab8333692bb" target="_top" xlink:title=" ">
<polygon fill="white" stroke="black" points="729.5,-0.5 729.5,-30.5 852.5,-30.5 852.5,-0.5 729.5,-0.5"/>
<text text-anchor="start" x="737.5" y="-18.5" font-family="Helvetica,sans-Serif" font-size="10.00">Obj::CMotionComponent</text>
<text text-anchor="middle" x="791" y="-7.5" font-family="Helvetica,sans-Serif" font-size="10.00">::LookAtPos_Init</text>
</a>
</g>
</g>
<!-- Node25&#45;&gt;Node30 -->
<g id="edge39" class="edge"><title>Node25&#45;&gt;Node30</title>
<path fill="none" stroke="midnightblue" d="M921.276,-68.782C902.391,-59.4537 879.222,-48.4302 858,-39.5 850.695,-36.4262 842.845,-33.3661 835.197,-30.5109"/>
<polygon fill="midnightblue" stroke="midnightblue" points="919.939,-72.026 930.451,-73.3467 923.057,-65.7588 919.939,-72.026"/>
</g>
<!-- Node27 -->
<g id="node27" class="node"><title>Node27</title>
<g id="a_node27"><a xlink:href="../../d2/d61/class_obj_1_1_c_skater_core_physics_component.html#a8a203adc7b9d259c8374d3632e38b74f" target="_top" xlink:title=" ">
<polygon fill="white" stroke="black" points="340,-73.5 340,-103.5 518,-103.5 518,-73.5 340,-73.5"/>
<text text-anchor="start" x="348" y="-91.5" font-family="Helvetica,sans-Serif" font-size="10.00">Obj::CSkaterCorePhysicsComponent</text>
<text text-anchor="middle" x="429" y="-80.5" font-family="Helvetica,sans-Serif" font-size="10.00">::CallMemberFunction</text>
</a>
</g>
</g>
<!-- Node26&#45;&gt;Node27 -->
<g id="edge34" class="edge"><title>Node26&#45;&gt;Node27</title>
<path fill="none" stroke="midnightblue" d="M549.334,-88.5C539.155,-88.5 528.576,-88.5 518.109,-88.5"/>
<polygon fill="midnightblue" stroke="midnightblue" points="549.36,-92.0001 559.36,-88.5 549.36,-85.0001 549.36,-92.0001"/>
</g>
<!-- Node28&#45;&gt;Node26 -->
<g id="edge36" class="edge"><title>Node28&#45;&gt;Node26</title>
<path fill="none" stroke="midnightblue" d="M719.22,-102.967C707.028,-101.153 694.455,-99.282 682.563,-97.5123"/>
<polygon fill="midnightblue" stroke="midnightblue" points="718.942,-106.464 729.348,-104.474 719.972,-99.5406 718.942,-106.464"/>
</g>
<!-- Node29&#45;&gt;Node26 -->
<g id="edge38" class="edge"><title>Node29&#45;&gt;Node26</title>
<path fill="none" stroke="midnightblue" d="M719.22,-74.6115C707.028,-76.3532 694.455,-78.1493 682.563,-79.8482"/>
<polygon fill="midnightblue" stroke="midnightblue" points="719.944,-78.0437 729.348,-73.1646 718.954,-71.114 719.944,-78.0437"/>
</g>
<!-- Node30&#45;&gt;Node26 -->
<g id="edge40" class="edge"><title>Node30&#45;&gt;Node26</title>
<path fill="none" stroke="midnightblue" d="M737.432,-34.0793C732.867,-35.8547 728.337,-37.6749 724,-39.5 699.192,-49.939 671.725,-63.2382 651.549,-73.3467"/>
<polygon fill="midnightblue" stroke="midnightblue" points="738.703,-37.3405 746.803,-30.5109 736.212,-30.7988 738.703,-37.3405"/>
</g>
<!-- Node31&#45;&gt;Node4 -->
<g id="edge42" class="edge"><title>Node31&#45;&gt;Node4</title>
<path fill="none" stroke="midnightblue" d="M351.629,-632.5C335.948,-632.5 319.561,-632.5 304.27,-632.5"/>
<polygon fill="midnightblue" stroke="midnightblue" points="351.814,-636 361.814,-632.5 351.814,-629 351.814,-636"/>
</g>
<!-- Node31&#45;&gt;Node6 -->
<g id="edge43" class="edge"><title>Node31&#45;&gt;Node6</title>
<path fill="none" stroke="midnightblue" d="M359.95,-614.95C339.085,-609.569 316.33,-603.701 296.187,-598.506"/>
<polygon fill="midnightblue" stroke="midnightblue" points="359.145,-618.357 369.703,-617.465 360.893,-611.579 359.145,-618.357"/>
</g>
</g>
</svg>
        <g id="navigator" transform="translate(0 0)" fill="#404254">
                <rect fill="#f2f5e9" fill-opacity="0.5" stroke="#606060" stroke-width=".5" x="0" y="0" width="60" height="60"/>
                <use id="zoomplus" xlink:href="#zoomPlus" x="17" y="9" onmousedown="handleZoom(evt,'in')"/>
                <use id="zoomminus" xlink:href="#zoomMin" x="42" y="9" onmousedown="handleZoom(evt,'out')"/>
                <use id="reset" xlink:href="#resetDef" x="30" y="36" onmousedown="handleReset()"/>
                <g id="arrowUp" xlink:href="#dirArrow" transform="translate(30 24)" onmousedown="handlePan(0,-1)">
                  <use xlink:href="#rim" fill="#404040">
                        <set attributeName="fill" to="#808080" begin="arrowUp.mouseover" end="arrowUp.mouseout"/>
                  </use>
                  <path fill="none" stroke="white" stroke-width="1.5" d="M0,-3.0v7 M-2.5,-0.5L0,-3.0L2.5,-0.5"/>
                </g>
                <g id="arrowRight" xlink:href="#dirArrow" transform="rotate(90) translate(36 -43)" onmousedown="handlePan(1,0)">
                  <use xlink:href="#rim" fill="#404040">
                        <set attributeName="fill" to="#808080" begin="arrowRight.mouseover" end="arrowRight.mouseout"/>
                  </use>
                  <path fill="none" stroke="white" stroke-width="1.5" d="M0,-3.0v7 M-2.5,-0.5L0,-3.0L2.5,-0.5"/>
                </g>
                <g id="arrowDown" xlink:href="#dirArrow" transform="rotate(180) translate(-30 -48)" onmousedown="handlePan(0,1)">
                  <use xlink:href="#rim" fill="#404040">
                        <set attributeName="fill" to="#808080" begin="arrowDown.mouseover" end="arrowDown.mouseout"/>
                  </use>
                  <path fill="none" stroke="white" stroke-width="1.5" d="M0,-3.0v7 M-2.5,-0.5L0,-3.0L2.5,-0.5"/>
                </g>
                <g id="arrowLeft" xlink:href="#dirArrow" transform="rotate(270) translate(-36 17)" onmousedown="handlePan(-1,0)">
                  <use xlink:href="#rim" fill="#404040">
                        <set attributeName="fill" to="#808080" begin="arrowLeft.mouseover" end="arrowLeft.mouseout"/>
                  </use>
                  <path fill="none" stroke="white" stroke-width="1.5" d="M0,-3.0v7 M-2.5,-0.5L0,-3.0L2.5,-0.5"/>
                </g>
        </g>
        <svg viewBox="0 0 15 15" width="100%" height="30px" preserveAspectRatio="xMaxYMin meet">
         <g id="arrow_out" transform="scale(0.3 0.3)">
          <a xlink:href="namespace_mth_ab20a7a389d2a6388ef6825d61b3b2322_icgraph_org.svg" target="_base">
           <rect id="button" ry="5" rx="5" y="6" x="6" height="38" width="38"
                fill="#f2f5e9" fill-opacity="0.5" stroke="#606060" stroke-width="1.0"/>
           <path id="arrow"
             d="M 11.500037,31.436501 C 11.940474,20.09759 22.043105,11.32322 32.158766,21.979434 L 37.068811,17.246167 C 37.068811,17.246167 37.088388,32 37.088388,32 L 22.160133,31.978069 C 22.160133,31.978069 26.997745,27.140456 26.997745,27.140456 C 18.528582,18.264221 13.291696,25.230495 11.500037,31.436501 z"
             style="fill:#404040;"/>
          </a>
         </g>
        </svg>
</svg>
