<?xml version="1.0" encoding="UTF-8" standalone="no"?>
<!DOCTYPE svg PUBLIC "-//W3C//DTD SVG 1.1//EN"
 "http://www.w3.org/Graphics/SVG/1.1/DTD/svg11.dtd">
<!-- Generated by graphviz version 2.38.0 (20140413.2041)
 -->
<!-- Title: NxNgc::CInstance::GetTransform Pages: 1 -->
<svg width="1047pt" height="317pt"
 viewBox="0.00 0.00 1047.00 317.00" xmlns="http://www.w3.org/2000/svg" xmlns:xlink="http://www.w3.org/1999/xlink">
<g id="graph0" class="graph" transform="scale(1 1) rotate(0) translate(4 313)">
<title>NxNgc::CInstance::GetTransform</title>
<polygon fill="white" stroke="none" points="-4,4 -4,-313 1043,-313 1043,4 -4,4"/>
<!-- Node1 -->
<g id="node1" class="node"><title>Node1</title>
<g id="a_node1"><a xlink:title=" ">
<polygon fill="#bfbfbf" stroke="black" points="879,-137 879,-156 1039,-156 1039,-137 879,-137"/>
<text text-anchor="middle" x="959" y="-144" font-family="Helvetica,sans-Serif" font-size="10.00">NxNgc::CInstance::GetTransform</text>
</a>
</g>
</g>
<!-- Node2 -->
<g id="node2" class="node"><title>Node2</title>
<g id="a_node2"><a xlink:href="../../de/dc7/class_nx_1_1_c_ngc_geom.html#a4628ecde08785a219ba5099173055ebe" target="_top" xlink:title=" ">
<polygon fill="white" stroke="black" points="723.5,-278.5 723.5,-308.5 830.5,-308.5 830.5,-278.5 723.5,-278.5"/>
<text text-anchor="start" x="731.5" y="-296.5" font-family="Helvetica,sans-Serif" font-size="10.00">Nx::CNgcGeom::plat</text>
<text text-anchor="middle" x="777" y="-285.5" font-family="Helvetica,sans-Serif" font-size="10.00">_get_transform</text>
</a>
</g>
</g>
<!-- Node1&#45;&gt;Node2 -->
<g id="edge1" class="edge"><title>Node1&#45;&gt;Node2</title>
<path fill="none" stroke="midnightblue" d="M945.424,-164.58C926.181,-191.024 887.001,-240.271 843,-269.5 837.99,-272.828 832.457,-275.772 826.798,-278.354"/>
<polygon fill="midnightblue" stroke="midnightblue" points="948.411,-166.42 951.374,-156.248 942.714,-162.352 948.411,-166.42"/>
</g>
<!-- Node3 -->
<g id="node3" class="node"><title>Node3</title>
<g id="a_node3"><a xlink:href="../../de/dc7/class_nx_1_1_c_ngc_geom.html#a35cae1ad9bed8916c1328ee08c2fbd54" target="_top" xlink:title=" ">
<polygon fill="white" stroke="black" points="723.5,-229.5 723.5,-259.5 830.5,-259.5 830.5,-229.5 723.5,-229.5"/>
<text text-anchor="start" x="731.5" y="-247.5" font-family="Helvetica,sans-Serif" font-size="10.00">Nx::CNgcGeom::plat</text>
<text text-anchor="middle" x="777" y="-236.5" font-family="Helvetica,sans-Serif" font-size="10.00">_rotate_y</text>
</a>
</g>
</g>
<!-- Node1&#45;&gt;Node3 -->
<g id="edge2" class="edge"><title>Node1&#45;&gt;Node3</title>
<path fill="none" stroke="midnightblue" d="M936.974,-162.03C914.526,-178.122 877.509,-203.284 843,-220.5 836.649,-223.668 829.773,-226.651 822.951,-229.365"/>
<polygon fill="midnightblue" stroke="midnightblue" points="939.058,-164.842 945.103,-156.14 934.952,-159.173 939.058,-164.842"/>
</g>
<!-- Node4 -->
<g id="node4" class="node"><title>Node4</title>
<g id="a_node4"><a xlink:href="../../de/dc7/class_nx_1_1_c_ngc_geom.html#a2a33b7d5d2c82a926cacfa23c34cdb67" target="_top" xlink:title=" ">
<polygon fill="white" stroke="black" points="723.5,-180.5 723.5,-210.5 830.5,-210.5 830.5,-180.5 723.5,-180.5"/>
<text text-anchor="start" x="731.5" y="-198.5" font-family="Helvetica,sans-Serif" font-size="10.00">Nx::CNgcGeom::plat</text>
<text text-anchor="middle" x="777" y="-187.5" font-family="Helvetica,sans-Serif" font-size="10.00">_set_orientation</text>
</a>
</g>
</g>
<!-- Node1&#45;&gt;Node4 -->
<g id="edge3" class="edge"><title>Node1&#45;&gt;Node4</title>
<path fill="none" stroke="midnightblue" d="M912.94,-158.766C888,-165.556 856.866,-174.031 830.79,-181.129"/>
<polygon fill="midnightblue" stroke="midnightblue" points="914.137,-162.068 922.867,-156.064 912.299,-155.314 914.137,-162.068"/>
</g>
<!-- Node5 -->
<g id="node5" class="node"><title>Node5</title>
<g id="a_node5"><a xlink:href="../../de/dc7/class_nx_1_1_c_ngc_geom.html#a2e13c1ddffd378a582e25e8976f91bed" target="_top" xlink:title=" ">
<polygon fill="white" stroke="black" points="723.5,-131.5 723.5,-161.5 830.5,-161.5 830.5,-131.5 723.5,-131.5"/>
<text text-anchor="start" x="731.5" y="-149.5" font-family="Helvetica,sans-Serif" font-size="10.00">Nx::CNgcGeom::plat</text>
<text text-anchor="middle" x="777" y="-138.5" font-family="Helvetica,sans-Serif" font-size="10.00">_set_transform</text>
</a>
</g>
</g>
<!-- Node1&#45;&gt;Node5 -->
<g id="edge4" class="edge"><title>Node1&#45;&gt;Node5</title>
<path fill="none" stroke="midnightblue" d="M868.418,-146.5C855.46,-146.5 842.49,-146.5 830.583,-146.5"/>
<polygon fill="midnightblue" stroke="midnightblue" points="868.787,-150 878.787,-146.5 868.787,-143 868.787,-150"/>
</g>
<!-- Node6 -->
<g id="node6" class="node"><title>Node6</title>
<g id="a_node6"><a xlink:href="../../de/dc7/class_nx_1_1_c_ngc_geom.html#adc11b6f35c9e5c01e220c8211103c337" target="_top" xlink:title=" ">
<polygon fill="white" stroke="black" points="723.5,-82.5 723.5,-112.5 830.5,-112.5 830.5,-82.5 723.5,-82.5"/>
<text text-anchor="start" x="731.5" y="-100.5" font-family="Helvetica,sans-Serif" font-size="10.00">Nx::CNgcGeom::plat</text>
<text text-anchor="middle" x="777" y="-89.5" font-family="Helvetica,sans-Serif" font-size="10.00">_set_world_position</text>
</a>
</g>
</g>
<!-- Node1&#45;&gt;Node6 -->
<g id="edge5" class="edge"><title>Node1&#45;&gt;Node6</title>
<path fill="none" stroke="midnightblue" d="M912.94,-134.234C888,-127.444 856.866,-118.969 830.79,-111.871"/>
<polygon fill="midnightblue" stroke="midnightblue" points="912.299,-137.686 922.867,-136.936 914.137,-130.932 912.299,-137.686"/>
</g>
<!-- Node7 -->
<g id="node7" class="node"><title>Node7</title>
<g id="a_node7"><a xlink:href="../../da/d78/class_nx_ngc_1_1_c_instance.html#ae8f235a087ae559bf2cd8c1315601edb" target="_top" xlink:title=" ">
<polygon fill="white" stroke="black" points="711,-44 711,-63 843,-63 843,-44 711,-44"/>
<text text-anchor="middle" x="777" y="-51" font-family="Helvetica,sans-Serif" font-size="10.00">NxNgc::CInstance::Render</text>
</a>
</g>
</g>
<!-- Node1&#45;&gt;Node7 -->
<g id="edge6" class="edge"><title>Node1&#45;&gt;Node7</title>
<path fill="none" stroke="midnightblue" d="M937.19,-130.868C914.872,-114.698 877.918,-89.6009 843,-73.5 834.208,-69.446 824.379,-65.9371 815.08,-63.04"/>
<polygon fill="midnightblue" stroke="midnightblue" points="935.405,-133.9 945.537,-136.997 939.548,-128.257 935.405,-133.9"/>
</g>
<!-- Node13 -->
<g id="node13" class="node"><title>Node13</title>
<g id="a_node13"><a xlink:href="../../da/d63/namespace_nx_ngc.html#a46b5ffe2d958df4c5e41b2412403054c" target="_top" xlink:title=" ">
<polygon fill="white" stroke="black" points="553.5,-0.5 553.5,-30.5 670.5,-30.5 670.5,-0.5 553.5,-0.5"/>
<text text-anchor="start" x="561.5" y="-18.5" font-family="Helvetica,sans-Serif" font-size="10.00">NxNgc::render_shadow</text>
<text text-anchor="middle" x="612" y="-7.5" font-family="Helvetica,sans-Serif" font-size="10.00">_targets</text>
</a>
</g>
</g>
<!-- Node1&#45;&gt;Node13 -->
<g id="edge14" class="edge"><title>Node1&#45;&gt;Node13</title>
<path fill="none" stroke="midnightblue" d="M945.899,-128.545C927.257,-102.578 888.831,-55.3694 843,-34.5 788.304,-9.59359 718.741,-7.35124 670.511,-9.76445"/>
<polygon fill="midnightblue" stroke="midnightblue" points="943.048,-130.577 951.647,-136.766 948.785,-126.565 943.048,-130.577"/>
</g>
<!-- Node8 -->
<g id="node8" class="node"><title>Node8</title>
<g id="a_node8"><a xlink:href="../../da/d63/namespace_nx_ngc.html#a2109727dab89700c051ae95bbcc25415" target="_top" xlink:title=" ">
<polygon fill="white" stroke="black" points="549,-50 549,-69 675,-69 675,-50 549,-50"/>
<text text-anchor="middle" x="612" y="-57" font-family="Helvetica,sans-Serif" font-size="10.00">NxNgc::render_instances</text>
</a>
</g>
</g>
<!-- Node7&#45;&gt;Node8 -->
<g id="edge7" class="edge"><title>Node7&#45;&gt;Node8</title>
<path fill="none" stroke="midnightblue" d="M700.411,-56.2824C691.97,-56.5931 683.444,-56.907 675.197,-57.2105"/>
<polygon fill="midnightblue" stroke="midnightblue" points="700.776,-59.7714 710.641,-55.9059 700.519,-52.7762 700.776,-59.7714"/>
</g>
<!-- Node7&#45;&gt;Node13 -->
<g id="edge12" class="edge"><title>Node7&#45;&gt;Node13</title>
<path fill="none" stroke="midnightblue" d="M725.004,-41.6113C707.785,-37.5971 688.443,-33.0879 670.74,-28.9609"/>
<polygon fill="midnightblue" stroke="midnightblue" points="724.335,-45.0491 734.868,-43.911 725.924,-38.2319 724.335,-45.0491"/>
</g>
<!-- Node9 -->
<g id="node9" class="node"><title>Node9</title>
<g id="a_node9"><a xlink:href="../../d9/d8c/class_nx_1_1_c_engine.html#ab07e94b0d679732290471b10cd1ef1b6" target="_top" xlink:title=" ">
<polygon fill="white" stroke="black" points="409,-22.5 409,-52.5 513,-52.5 513,-22.5 409,-22.5"/>
<text text-anchor="start" x="417" y="-40.5" font-family="Helvetica,sans-Serif" font-size="10.00">Nx::CEngine::s_plat</text>
<text text-anchor="middle" x="461" y="-29.5" font-family="Helvetica,sans-Serif" font-size="10.00">_render_world</text>
</a>
</g>
</g>
<!-- Node8&#45;&gt;Node9 -->
<g id="edge8" class="edge"><title>Node8&#45;&gt;Node9</title>
<path fill="none" stroke="midnightblue" d="M538.644,-48.8165C530.061,-47.5493 521.441,-46.2765 513.238,-45.0654"/>
<polygon fill="midnightblue" stroke="midnightblue" points="538.27,-52.2992 548.674,-50.2975 539.292,-45.3743 538.27,-52.2992"/>
</g>
<!-- Node10 -->
<g id="node10" class="node"><title>Node10</title>
<g id="a_node10"><a xlink:href="../../d9/d8c/class_nx_1_1_c_engine.html#ace274d6d74746eb2398ce51e6c5a5f30" target="_top" xlink:title=" ">
<polygon fill="white" stroke="black" points="234,-28 234,-47 373,-47 373,-28 234,-28"/>
<text text-anchor="middle" x="303.5" y="-35" font-family="Helvetica,sans-Serif" font-size="10.00">Nx::CEngine::sRenderWorld</text>
</a>
</g>
</g>
<!-- Node9&#45;&gt;Node10 -->
<g id="edge9" class="edge"><title>Node9&#45;&gt;Node10</title>
<path fill="none" stroke="midnightblue" d="M398.648,-37.5C390.316,-37.5 381.722,-37.5 373.27,-37.5"/>
<polygon fill="midnightblue" stroke="midnightblue" points="398.653,-41.0001 408.653,-37.5 398.652,-34.0001 398.653,-41.0001"/>
</g>
<!-- Node11 -->
<g id="node11" class="node"><title>Node11</title>
<g id="a_node11"><a xlink:href="../../d3/d66/class_mlp_1_1_manager.html#a118bb3db98dd133cea15b15c288b29f0" target="_top" xlink:title=" ">
<polygon fill="white" stroke="black" points="74,-28 74,-47 198,-47 198,-28 74,-28"/>
<text text-anchor="middle" x="136" y="-35" font-family="Helvetica,sans-Serif" font-size="10.00">Mlp::Manager::MainLoop</text>
</a>
</g>
</g>
<!-- Node10&#45;&gt;Node11 -->
<g id="edge10" class="edge"><title>Node10&#45;&gt;Node11</title>
<path fill="none" stroke="midnightblue" d="M223.714,-37.5C215.123,-37.5 206.474,-37.5 198.14,-37.5"/>
<polygon fill="midnightblue" stroke="midnightblue" points="223.751,-41.0001 233.751,-37.5 223.751,-34.0001 223.751,-41.0001"/>
</g>
<!-- Node12 -->
<g id="node12" class="node"><title>Node12</title>
<g id="a_node12"><a xlink:href="../../d5/d12/_main_8cpp.html#a0e18e794c708408ef1dec237965cb73d" target="_top" xlink:title=" ">
<polygon fill="white" stroke="black" points="0,-28 0,-47 38,-47 38,-28 0,-28"/>
<text text-anchor="middle" x="19" y="-35" font-family="Helvetica,sans-Serif" font-size="10.00">main</text>
</a>
</g>
</g>
<!-- Node11&#45;&gt;Node12 -->
<g id="edge11" class="edge"><title>Node11&#45;&gt;Node12</title>
<path fill="none" stroke="midnightblue" d="M63.7713,-37.5C54.2902,-37.5 45.3381,-37.5 38.03,-37.5"/>
<polygon fill="midnightblue" stroke="midnightblue" points="63.7963,-41.0001 73.7962,-37.5 63.7962,-34.0001 63.7963,-41.0001"/>
</g>
<!-- Node13&#45;&gt;Node9 -->
<g id="edge13" class="edge"><title>Node13&#45;&gt;Node9</title>
<path fill="none" stroke="midnightblue" d="M543.33,-25.4916C533.182,-26.99 522.863,-28.5135 513.136,-29.9498"/>
<polygon fill="midnightblue" stroke="midnightblue" points="544.011,-28.929 553.393,-24.0058 542.989,-22.0041 544.011,-28.929"/>
</g>
</g>
</svg>
