<?xml version="1.0" encoding="UTF-8" standalone="no"?>
<!DOCTYPE svg PUBLIC "-//W3C//DTD SVG 1.1//EN"
 "http://www.w3.org/Graphics/SVG/1.1/DTD/svg11.dtd">
<!-- Generated by graphviz version 2.38.0 (20140413.2041)
 -->
<!-- Title: Nx::CTexDictManager Pages: 1 -->
<svg width="399pt" height="496pt"
 viewBox="0.00 0.00 398.50 496.00" xmlns="http://www.w3.org/2000/svg" xmlns:xlink="http://www.w3.org/1999/xlink">
<g id="graph0" class="graph" transform="scale(1 1) rotate(0) translate(4 492)">
<title>Nx::CTexDictManager</title>
<polygon fill="white" stroke="none" points="-4,4 -4,-492 394.5,-492 394.5,4 -4,4"/>
<!-- Node1 -->
<g id="node1" class="node"><title>Node1</title>
<g id="a_node1"><a xlink:title=" ">
<polygon fill="#bfbfbf" stroke="black" points="97.5,-0.5 97.5,-19.5 209.5,-19.5 209.5,-0.5 97.5,-0.5"/>
<text text-anchor="middle" x="153.5" y="-7.5" font-family="Helvetica,sans-Serif" font-size="10.00">Nx::CTexDictManager</text>
</a>
</g>
</g>
<!-- Node2 -->
<g id="node2" class="node"><title>Node2</title>
<g id="a_node2"><a xlink:href="../../d1/d37/class_nx_1_1_c_tex_dict.html" target="_top" xlink:title=" ">
<polygon fill="white" stroke="black" points="159.5,-234.5 159.5,-253.5 233.5,-253.5 233.5,-234.5 159.5,-234.5"/>
<text text-anchor="middle" x="196.5" y="-241.5" font-family="Helvetica,sans-Serif" font-size="10.00">Nx::CTexDict</text>
</a>
</g>
</g>
<!-- Node2&#45;&gt;Node1 -->
<g id="edge1" class="edge"><title>Node2&#45;&gt;Node1</title>
<path fill="none" stroke="#9a32cd" stroke-dasharray="5,2" d="M200.797,-224.051C208.339,-186.219 220.323,-99.672 188.5,-38 184.488,-30.2253 177.109,-24.0207 170.157,-19.5297"/>
<polygon fill="#9a32cd" stroke="#9a32cd" points="197.307,-223.637 198.652,-234.146 204.154,-225.092 197.307,-223.637"/>
<text text-anchor="middle" x="253.5" y="-130" font-family="Helvetica,sans-Serif" font-size="10.00"> sp_sprite_tex_dict</text>
<text text-anchor="middle" x="253.5" y="-119" font-family="Helvetica,sans-Serif" font-size="10.00">sp_particle_tex_dict</text>
</g>
<!-- Node9 -->
<g id="node9" class="node"><title>Node9</title>
<g id="a_node9"><a xlink:href="../../d8/d1b/class_lst_1_1_hash_item.html" target="_top" xlink:title=" ">
<polygon fill="white" stroke="black" points="11.5,-156.5 11.5,-186.5 115.5,-186.5 115.5,-156.5 11.5,-156.5"/>
<text text-anchor="start" x="19.5" y="-174.5" font-family="Helvetica,sans-Serif" font-size="10.00">Lst::HashItem&lt; Nx::</text>
<text text-anchor="middle" x="63.5" y="-163.5" font-family="Helvetica,sans-Serif" font-size="10.00">CTexDict &gt;</text>
</a>
</g>
</g>
<!-- Node2&#45;&gt;Node9 -->
<g id="edge11" class="edge"><title>Node2&#45;&gt;Node9</title>
<path fill="none" stroke="#9a32cd" stroke-dasharray="5,2" d="M170.662,-229.674C162.301,-225.338 152.996,-220.487 144.5,-216 126.01,-206.235 105.233,-195.073 89.3511,-186.501"/>
<polygon fill="#9a32cd" stroke="#9a32cd" points="169.118,-232.816 179.607,-234.304 172.335,-226.599 169.118,-232.816"/>
<text text-anchor="middle" x="166.5" y="-208" font-family="Helvetica,sans-Serif" font-size="10.00"> mp_value</text>
</g>
<!-- Node3 -->
<g id="node3" class="node"><title>Node3</title>
<g id="a_node3"><a xlink:href="../../db/d67/class_lst_1_1_hash_table.html" target="_top" xlink:title=" ">
<polygon fill="white" stroke="black" points="145,-301.5 145,-331.5 248,-331.5 248,-301.5 145,-301.5"/>
<text text-anchor="start" x="153" y="-319.5" font-family="Helvetica,sans-Serif" font-size="10.00">Lst::HashTable&lt; Nx</text>
<text text-anchor="middle" x="196.5" y="-308.5" font-family="Helvetica,sans-Serif" font-size="10.00">::CTexture &gt;</text>
</a>
</g>
</g>
<!-- Node3&#45;&gt;Node2 -->
<g id="edge2" class="edge"><title>Node3&#45;&gt;Node2</title>
<path fill="none" stroke="#9a32cd" stroke-dasharray="5,2" d="M196.5,-291.091C196.5,-278.214 196.5,-263.197 196.5,-253.893"/>
<polygon fill="#9a32cd" stroke="#9a32cd" points="193,-291.233 196.5,-301.233 200,-291.233 193,-291.233"/>
<text text-anchor="middle" x="239.5" y="-275" font-family="Helvetica,sans-Serif" font-size="10.00"> mp_texture_lookup</text>
</g>
<!-- Node4 -->
<g id="node4" class="node"><title>Node4</title>
<g id="a_node4"><a xlink:href="../../d8/d1b/class_lst_1_1_hash_item.html" target="_top" xlink:title=" ">
<polygon fill="white" stroke="black" points="68.5,-390.5 68.5,-420.5 172.5,-420.5 172.5,-390.5 68.5,-390.5"/>
<text text-anchor="start" x="76.5" y="-408.5" font-family="Helvetica,sans-Serif" font-size="10.00">Lst::HashItem&lt; Nx::</text>
<text text-anchor="middle" x="120.5" y="-397.5" font-family="Helvetica,sans-Serif" font-size="10.00">CTexture &gt;</text>
</a>
</g>
</g>
<!-- Node4&#45;&gt;Node3 -->
<g id="edge3" class="edge"><title>Node4&#45;&gt;Node3</title>
<path fill="none" stroke="#9a32cd" stroke-dasharray="5,2" d="M114.323,-380.368C113.107,-370.23 113.676,-358.779 119.5,-350 125.596,-340.81 134.859,-334.213 144.871,-329.478"/>
<polygon fill="#9a32cd" stroke="#9a32cd" points="110.891,-381.06 116.092,-390.29 117.783,-379.831 110.891,-381.06"/>
<text text-anchor="middle" x="157.5" y="-364" font-family="Helvetica,sans-Serif" font-size="10.00"> mp_iterator_item</text>
<text text-anchor="middle" x="157.5" y="-353" font-family="Helvetica,sans-Serif" font-size="10.00">mp_hash_table</text>
</g>
<!-- Node4&#45;&gt;Node4 -->
<g id="edge4" class="edge"><title>Node4&#45;&gt;Node4</title>
<path fill="none" stroke="#9a32cd" stroke-dasharray="5,2" d="M182.899,-410.83C187.606,-409.642 190.5,-407.866 190.5,-405.5 190.5,-401.715 183.092,-399.438 172.702,-398.669"/>
<polygon fill="#9a32cd" stroke="#9a32cd" points="182.086,-407.412 172.702,-412.331 183.106,-414.337 182.086,-407.412"/>
<text text-anchor="middle" x="211" y="-403" font-family="Helvetica,sans-Serif" font-size="10.00"> mp_next</text>
</g>
<!-- Node5 -->
<g id="node5" class="node"><title>Node5</title>
<g id="a_node5"><a xlink:href="../../da/df1/class_nx_1_1_c_texture.html" target="_top" xlink:title=" ">
<polygon fill="white" stroke="black" points="138.5,-468.5 138.5,-487.5 212.5,-487.5 212.5,-468.5 138.5,-468.5"/>
<text text-anchor="middle" x="175.5" y="-475.5" font-family="Helvetica,sans-Serif" font-size="10.00">Nx::CTexture</text>
</a>
</g>
</g>
<!-- Node5&#45;&gt;Node4 -->
<g id="edge5" class="edge"><title>Node5&#45;&gt;Node4</title>
<path fill="none" stroke="#9a32cd" stroke-dasharray="5,2" d="M166.662,-459.504C162.966,-452.832 158.392,-445.317 153.5,-439 148.478,-432.515 142.219,-426.038 136.506,-420.593"/>
<polygon fill="#9a32cd" stroke="#9a32cd" points="163.618,-461.233 171.385,-468.439 169.806,-457.962 163.618,-461.233"/>
<text text-anchor="middle" x="183.5" y="-442" font-family="Helvetica,sans-Serif" font-size="10.00"> mp_value</text>
</g>
<!-- Node6 -->
<g id="node6" class="node"><title>Node6</title>
<g id="a_node6"><a xlink:href="../../d8/d1b/class_lst_1_1_hash_item.html" target="_top" xlink:title=" ">
<polygon fill="white" stroke="black" points="0,-468.5 0,-487.5 107,-487.5 107,-468.5 0,-468.5"/>
<text text-anchor="middle" x="53.5" y="-475.5" font-family="Helvetica,sans-Serif" font-size="10.00">Lst::HashItem&lt; _V &gt;</text>
</a>
</g>
</g>
<!-- Node6&#45;&gt;Node4 -->
<g id="edge6" class="edge"><title>Node6&#45;&gt;Node4</title>
<path fill="none" stroke="orange" stroke-dasharray="5,2" d="M59.22,-458.7C61.9153,-452.011 65.6293,-444.695 70.5,-439 76.6909,-431.761 84.8896,-425.528 92.8535,-420.513"/>
<polygon fill="orange" stroke="orange" points="55.8338,-457.778 55.8034,-468.373 62.4342,-460.109 55.8338,-457.778"/>
<text text-anchor="middle" x="110" y="-442" font-family="Helvetica,sans-Serif" font-size="10.00"> &lt; Nx::CTexture &gt;</text>
</g>
<!-- Node6&#45;&gt;Node9 -->
<g id="edge12" class="edge"><title>Node6&#45;&gt;Node9</title>
<path fill="none" stroke="orange" stroke-dasharray="5,2" d="M48.1831,-458.501C44.591,-444.38 40.5,-424.374 40.5,-406.5 40.5,-406.5 40.5,-406.5 40.5,-243 40.5,-222.658 49.2612,-200.571 55.9689,-186.641"/>
<polygon fill="orange" stroke="orange" points="44.875,-459.675 50.8693,-468.411 51.6312,-457.844 44.875,-459.675"/>
<text text-anchor="middle" x="80" y="-314" font-family="Helvetica,sans-Serif" font-size="10.00"> &lt; Nx::CTexDict &gt;</text>
</g>
<!-- Node7 -->
<g id="node7" class="node"><title>Node7</title>
<g id="a_node7"><a xlink:href="../../db/d67/class_lst_1_1_hash_table.html" target="_top" xlink:title=" ">
<polygon fill="white" stroke="black" points="251.5,-396 251.5,-415 363.5,-415 363.5,-396 251.5,-396"/>
<text text-anchor="middle" x="307.5" y="-403" font-family="Helvetica,sans-Serif" font-size="10.00">Lst::HashTable&lt; _V &gt;</text>
</a>
</g>
</g>
<!-- Node7&#45;&gt;Node3 -->
<g id="edge7" class="edge"><title>Node7&#45;&gt;Node3</title>
<path fill="none" stroke="orange" stroke-dasharray="5,2" d="M252.78,-392.595C240.347,-387.832 228.017,-381.203 218.5,-372 207.351,-361.219 201.685,-344.027 198.922,-331.838"/>
<polygon fill="orange" stroke="orange" points="251.669,-395.914 262.264,-395.886 253.964,-389.301 251.669,-395.914"/>
<text text-anchor="middle" x="258" y="-358.5" font-family="Helvetica,sans-Serif" font-size="10.00"> &lt; Nx::CTexture &gt;</text>
</g>
<!-- Node8 -->
<g id="node8" class="node"><title>Node8</title>
<g id="a_node8"><a xlink:href="../../db/d67/class_lst_1_1_hash_table.html" target="_top" xlink:title=" ">
<polygon fill="white" stroke="black" points="54,-67.5 54,-97.5 157,-97.5 157,-67.5 54,-67.5"/>
<text text-anchor="start" x="62" y="-85.5" font-family="Helvetica,sans-Serif" font-size="10.00">Lst::HashTable&lt; Nx</text>
<text text-anchor="middle" x="105.5" y="-74.5" font-family="Helvetica,sans-Serif" font-size="10.00">::CTexDict &gt;</text>
</a>
</g>
</g>
<!-- Node7&#45;&gt;Node8 -->
<g id="edge13" class="edge"><title>Node7&#45;&gt;Node8</title>
<path fill="none" stroke="orange" stroke-dasharray="5,2" d="M308.857,-385.796C310.017,-368.185 311.5,-341.066 311.5,-317.5 311.5,-317.5 311.5,-317.5 311.5,-170.5 311.5,-145.491 315.909,-132.928 297.5,-116 277.529,-97.6359 207.131,-89.5239 157.386,-86.0272"/>
<polygon fill="orange" stroke="orange" points="305.36,-385.644 308.161,-395.862 312.343,-386.128 305.36,-385.644"/>
<text text-anchor="middle" x="351" y="-241.5" font-family="Helvetica,sans-Serif" font-size="10.00"> &lt; Nx::CTexDict &gt;</text>
</g>
<!-- Node8&#45;&gt;Node1 -->
<g id="edge8" class="edge"><title>Node8&#45;&gt;Node1</title>
<path fill="none" stroke="#9a32cd" stroke-dasharray="5,2" d="M101.848,-56.7821C101.984,-50.302 103.187,-43.5747 106.5,-38 111.403,-29.7485 119.861,-23.786 128.262,-19.5986"/>
<polygon fill="#9a32cd" stroke="#9a32cd" points="98.3782,-57.4225 102.442,-67.2071 105.367,-57.0242 98.3782,-57.4225"/>
<text text-anchor="middle" x="147.5" y="-41" font-family="Helvetica,sans-Serif" font-size="10.00"> s_tex_dict_lookup</text>
</g>
<!-- Node9&#45;&gt;Node8 -->
<g id="edge9" class="edge"><title>Node9&#45;&gt;Node8</title>
<path fill="none" stroke="#9a32cd" stroke-dasharray="5,2" d="M74.8505,-146.988C82.4698,-131.205 92.2549,-110.936 98.6936,-97.599"/>
<polygon fill="#9a32cd" stroke="#9a32cd" points="71.6311,-145.607 70.4354,-156.134 77.9349,-148.65 71.6311,-145.607"/>
<text text-anchor="middle" x="127.5" y="-130" font-family="Helvetica,sans-Serif" font-size="10.00"> mp_iterator_item</text>
<text text-anchor="middle" x="127.5" y="-119" font-family="Helvetica,sans-Serif" font-size="10.00">mp_hash_table</text>
</g>
<!-- Node9&#45;&gt;Node9 -->
<g id="edge10" class="edge"><title>Node9&#45;&gt;Node9</title>
<path fill="none" stroke="#9a32cd" stroke-dasharray="5,2" d="M125.899,-176.83C130.606,-175.642 133.5,-173.866 133.5,-171.5 133.5,-167.715 126.092,-165.438 115.702,-164.669"/>
<polygon fill="#9a32cd" stroke="#9a32cd" points="125.086,-173.412 115.702,-178.331 126.106,-180.337 125.086,-173.412"/>
<text text-anchor="middle" x="154" y="-169" font-family="Helvetica,sans-Serif" font-size="10.00"> mp_next</text>
</g>
</g>
</svg>
