<?xml version="1.0" encoding="UTF-8" standalone="no"?>
<!DOCTYPE svg PUBLIC "-//W3C//DTD SVG 1.1//EN"
 "http://www.w3.org/Graphics/SVG/1.1/DTD/svg11.dtd">
<!-- Generated by graphviz version 2.38.0 (20140413.2041)
 -->
<!-- Title: NxXbox::sMesh::SetPosition Pages: 1 -->
<svg width="290pt" height="142pt"
 viewBox="0.00 0.00 290.00 142.00" xmlns="http://www.w3.org/2000/svg" xmlns:xlink="http://www.w3.org/1999/xlink">
<g id="graph0" class="graph" transform="scale(1 1) rotate(0) translate(4 138)">
<title>NxXbox::sMesh::SetPosition</title>
<polygon fill="white" stroke="none" points="-4,4 -4,-138 286,-138 286,4 -4,4"/>
<!-- Node1 -->
<g id="node1" class="node"><title>Node1</title>
<g id="a_node1"><a xlink:title=" ">
<polygon fill="#bfbfbf" stroke="black" points="0,-57.5 0,-76.5 141,-76.5 141,-57.5 0,-57.5"/>
<text text-anchor="middle" x="70.5" y="-64.5" font-family="Helvetica,sans-Serif" font-size="10.00">NxXbox::sMesh::SetPosition</text>
</a>
</g>
</g>
<!-- Node2 -->
<g id="node2" class="node"><title>Node2</title>
<g id="a_node2"><a xlink:href="../../d9/d37/class_mth_1_1_matrix.html#a269ae2fa628a2a388f98cd852619875e" target="_top" xlink:title=" ">
<polygon fill="white" stroke="black" points="177,-114.5 177,-133.5 282,-133.5 282,-114.5 177,-114.5"/>
<text text-anchor="middle" x="229.5" y="-121.5" font-family="Helvetica,sans-Serif" font-size="10.00">Mth::Matrix::GetPos</text>
</a>
</g>
</g>
<!-- Node1&#45;&gt;Node2 -->
<g id="edge1" class="edge"><title>Node1&#45;&gt;Node2</title>
<path fill="none" stroke="midnightblue" d="M97.7783,-76.5405C123.703,-85.9527 163.535,-100.414 192.417,-110.9"/>
<polygon fill="midnightblue" stroke="midnightblue" points="191.542,-114.306 202.136,-114.428 193.931,-107.726 191.542,-114.306"/>
</g>
<!-- Node3 -->
<g id="node3" class="node"><title>Node3</title>
<g id="a_node3"><a xlink:href="../../d9/d37/class_mth_1_1_matrix.html#a06a07c27b6ed6a037b5dfaaeb5ba6cb2" target="_top" xlink:title=" ">
<polygon fill="white" stroke="black" points="183,-76.5 183,-95.5 276,-95.5 276,-76.5 183,-76.5"/>
<text text-anchor="middle" x="229.5" y="-83.5" font-family="Helvetica,sans-Serif" font-size="10.00">Mth::Matrix::Ident</text>
</a>
</g>
</g>
<!-- Node1&#45;&gt;Node3 -->
<g id="edge2" class="edge"><title>Node1&#45;&gt;Node3</title>
<path fill="none" stroke="midnightblue" d="M141.277,-75.4443C151.841,-76.7228 162.619,-78.0272 172.833,-79.2632"/>
<polygon fill="midnightblue" stroke="midnightblue" points="172.481,-82.746 182.829,-80.4729 173.322,-75.7967 172.481,-82.746"/>
</g>
<!-- Node4 -->
<g id="node4" class="node"><title>Node4</title>
<g id="a_node4"><a xlink:href="../../dd/df4/matrix_8h.html#ad912b0c45adbb44d927b09685cbfe062" target="_top" xlink:title=" ">
<polygon fill="white" stroke="black" points="207.5,-38.5 207.5,-57.5 251.5,-57.5 251.5,-38.5 207.5,-38.5"/>
<text text-anchor="middle" x="229.5" y="-45.5" font-family="Helvetica,sans-Serif" font-size="10.00">Matrix</text>
</a>
</g>
</g>
<!-- Node1&#45;&gt;Node4 -->
<g id="edge3" class="edge"><title>Node1&#45;&gt;Node4</title>
<path fill="none" stroke="midnightblue" d="M141.277,-58.5557C160.707,-56.2043 180.858,-53.7656 196.891,-51.8253"/>
<polygon fill="midnightblue" stroke="midnightblue" points="197.766,-55.2451 207.273,-50.5689 196.925,-48.2958 197.766,-55.2451"/>
</g>
<!-- Node5 -->
<g id="node5" class="node"><title>Node5</title>
<g id="a_node5"><a xlink:href="../../d9/d37/class_mth_1_1_matrix.html#a019eca0aefed8bdfd54629c6dfcc81fb" target="_top" xlink:title=" ">
<polygon fill="white" stroke="black" points="177.5,-0.5 177.5,-19.5 281.5,-19.5 281.5,-0.5 177.5,-0.5"/>
<text text-anchor="middle" x="229.5" y="-7.5" font-family="Helvetica,sans-Serif" font-size="10.00">Mth::Matrix::SetPos</text>
</a>
</g>
</g>
<!-- Node1&#45;&gt;Node5 -->
<g id="edge4" class="edge"><title>Node1&#45;&gt;Node5</title>
<path fill="none" stroke="midnightblue" d="M97.7783,-57.4595C123.703,-48.0473 163.535,-33.5862 192.417,-23.1001"/>
<polygon fill="midnightblue" stroke="midnightblue" points="193.931,-26.2742 202.136,-19.5716 191.542,-19.6944 193.931,-26.2742"/>
</g>
</g>
</svg>
