<?xml version="1.0" encoding="UTF-8" standalone="no"?>
<!DOCTYPE svg PUBLIC "-//W3C//DTD SVG 1.1//EN"
 "http://www.w3.org/Graphics/SVG/1.1/DTD/svg11.dtd">
<!-- Generated by graphviz version 2.38.0 (20140413.2041)
 -->
<!-- Title: Net::Conn::SetForceSendThisFrame Pages: 1 -->
<!--zoomable 174 -->
<svg id="main" version="1.1" xmlns="http://www.w3.org/2000/svg" xmlns:xlink="http://www.w3.org/1999/xlink" xml:space="preserve" onload="init(evt)">
<style type="text/css"><![CDATA[
.edge:hover path { stroke: red; }
.edge:hover polygon { stroke: red; fill: red; }
]]></style>
<script type="text/javascript"><![CDATA[
var edges = document.getElementsByTagName('g');
if (edges && edges.length) {
  for (var i=0;i<edges.length;i++) {
    if (edges[i].id.substr(0,4)=='edge') {
      edges[i].setAttribute('class','edge');
    }
  }
}
]]></script>
        <defs>
                <circle id="rim" cx="0" cy="0" r="7"/>
                <circle id="rim2" cx="0" cy="0" r="3.5"/>
                <g id="zoomPlus">
                        <use xlink:href="#rim" fill="#404040">
                                <set attributeName="fill" to="#808080" begin="zoomplus.mouseover" end="zoomplus.mouseout"/>
                        </use>
                        <path d="M-4,0h8M0,-4v8" fill="none" stroke="white" stroke-width="1.5" pointer-events="none"/>
                </g>
                <g id="zoomMin">
                        <use xlink:href="#rim" fill="#404040">
                                <set attributeName="fill" to="#808080" begin="zoomminus.mouseover" end="zoomminus.mouseout"/>
                        </use>
                        <path d="M-4,0h8" fill="none" stroke="white" stroke-width="1.5" pointer-events="none"/>
                </g>
                <g id="dirArrow">
                        <path fill="none" stroke="white" stroke-width="1.5" d="M0,-3.0v7 M-2.5,-0.5L0,-3.0L2.5,-0.5"/>
                </g>
               <g id="resetDef">
                       <use xlink:href="#rim2" fill="#404040">
                               <set attributeName="fill" to="#808080" begin="reset.mouseover" end="reset.mouseout"/>
                       </use>
               </g>
        </defs>

<script type="text/javascript">
var viewWidth = 669;
var viewHeight = 174;
var sectionId = 'dynsection-21';
</script>
<script xlink:href="../../svgpan.js"/>
<svg id="graph" class="graph">
<g id="viewport">
<title>Net::Conn::SetForceSendThisFrame</title>
<polygon fill="white" stroke="none" points="-4,4 -4,-170 665,-170 665,4 -4,4"/>
<!-- Node1 -->
<g id="node1" class="node"><title>Node1</title>
<g id="a_node1"><a xlink:title=" ">
<polygon fill="#bfbfbf" stroke="black" points="515,-66.5 515,-96.5 661,-96.5 661,-66.5 515,-66.5"/>
<text text-anchor="start" x="523" y="-84.5" font-family="Helvetica,sans-Serif" font-size="10.00">Net::Conn::SetForceSendThis</text>
<text text-anchor="middle" x="588" y="-73.5" font-family="Helvetica,sans-Serif" font-size="10.00">Frame</text>
</a>
</g>
</g>
<!-- Node2 -->
<g id="node2" class="node"><title>Node2</title>
<g id="a_node2"><a xlink:href="../../d5/d7d/class_net_1_1_app.html#a955ad44364552b26fcf8faf5abe1903e" target="_top" xlink:title=" ">
<polygon fill="white" stroke="black" points="375,-72 375,-91 479,-91 479,-72 375,-72"/>
<text text-anchor="middle" x="427" y="-79" font-family="Helvetica,sans-Serif" font-size="10.00">Net::App::SendData</text>
</a>
</g>
</g>
<!-- Node1&#45;&gt;Node2 -->
<g id="edge1" class="edge"><title>Node1&#45;&gt;Node2</title>
<path fill="none" stroke="midnightblue" d="M504.792,-81.5C496.14,-81.5 487.531,-81.5 479.376,-81.5"/>
<polygon fill="midnightblue" stroke="midnightblue" points="504.943,-85.0001 514.943,-81.5 504.943,-78.0001 504.943,-85.0001"/>
</g>
<!-- Node3 -->
<g id="node3" class="node"><title>Node3</title>
<g id="a_node3"><a xlink:href="../../d2/d8e/class_game_net_1_1_manager.html#a666689ccc0e4e5b55a1cfa2f2da87c8c" target="_top" xlink:title=" ">
<polygon fill="white" stroke="black" points="185.5,-134.5 185.5,-164.5 322.5,-164.5 322.5,-134.5 185.5,-134.5"/>
<text text-anchor="start" x="193.5" y="-152.5" font-family="Helvetica,sans-Serif" font-size="10.00">GameNet::Manager::Cancel</text>
<text text-anchor="middle" x="254" y="-141.5" font-family="Helvetica,sans-Serif" font-size="10.00">JoinServer</text>
</a>
</g>
</g>
<!-- Node2&#45;&gt;Node3 -->
<g id="edge2" class="edge"><title>Node2&#45;&gt;Node3</title>
<path fill="none" stroke="midnightblue" d="M398.352,-95.6531C381.45,-104.022 359.256,-114.511 339,-122.5 328.313,-126.715 316.678,-130.778 305.568,-134.416"/>
<polygon fill="midnightblue" stroke="midnightblue" points="400.262,-98.6113 407.638,-91.0056 397.129,-92.3516 400.262,-98.6113"/>
</g>
<!-- Node5 -->
<g id="node5" class="node"><title>Node5</title>
<g id="a_node5"><a xlink:href="../../d2/d8e/class_game_net_1_1_manager.html#a6d48c61f80cb69190c515be6bfa87283" target="_top" xlink:title=" ">
<polygon fill="white" stroke="black" points="178,-94 178,-113 330,-113 330,-94 178,-94"/>
<text text-anchor="middle" x="254" y="-101" font-family="Helvetica,sans-Serif" font-size="10.00">GameNet::Manager::JoinServer</text>
</a>
</g>
</g>
<!-- Node2&#45;&gt;Node5 -->
<g id="edge4" class="edge"><title>Node2&#45;&gt;Node5</title>
<path fill="none" stroke="midnightblue" d="M364.718,-89.3842C353.151,-90.8724 340.938,-92.4436 329.028,-93.9759"/>
<polygon fill="midnightblue" stroke="midnightblue" points="365.223,-92.8482 374.694,-88.1007 364.329,-85.9055 365.223,-92.8482"/>
</g>
<!-- Node7 -->
<g id="node7" class="node"><title>Node7</title>
<g id="a_node7"><a xlink:href="../../d2/d8e/class_game_net_1_1_manager.html#ae3e7598416472836a80ca316a5ba25e9" target="_top" xlink:title=" ">
<polygon fill="white" stroke="black" points="172,-44.5 172,-74.5 336,-74.5 336,-44.5 172,-44.5"/>
<text text-anchor="start" x="180" y="-62.5" font-family="Helvetica,sans-Serif" font-size="10.00">GameNet::Manager::LoadPending</text>
<text text-anchor="middle" x="254" y="-51.5" font-family="Helvetica,sans-Serif" font-size="10.00">Players</text>
</a>
</g>
</g>
<!-- Node2&#45;&gt;Node7 -->
<g id="edge6" class="edge"><title>Node2&#45;&gt;Node7</title>
<path fill="none" stroke="midnightblue" d="M364.762,-73.6214C355.434,-72.4214 345.687,-71.1673 336.017,-69.9232"/>
<polygon fill="midnightblue" stroke="midnightblue" points="364.329,-77.0945 374.694,-74.8993 365.223,-70.1518 364.329,-77.0945"/>
</g>
<!-- Node8 -->
<g id="node8" class="node"><title>Node8</title>
<g id="a_node8"><a xlink:href="../../d2/d8e/class_game_net_1_1_manager.html#a9dd695636bd284d5a25fb862c5639ae5" target="_top" xlink:title=" ">
<polygon fill="white" stroke="black" points="169,-6 169,-25 339,-25 339,-6 169,-6"/>
<text text-anchor="middle" x="254" y="-13" font-family="Helvetica,sans-Serif" font-size="10.00">GameNet::Manager::ReattemptJoin</text>
</a>
</g>
</g>
<!-- Node2&#45;&gt;Node8 -->
<g id="edge7" class="edge"><title>Node2&#45;&gt;Node8</title>
<path fill="none" stroke="midnightblue" d="M402.483,-66.5084C385.434,-56.2183 361.513,-42.9452 339,-34.5 329.061,-30.7715 318.173,-27.6497 307.628,-25.0848"/>
<polygon fill="midnightblue" stroke="midnightblue" points="400.844,-69.6094 411.195,-71.8687 404.512,-63.6475 400.844,-69.6094"/>
</g>
<!-- Node4 -->
<g id="node4" class="node"><title>Node4</title>
<g id="a_node4"><a xlink:href="../../d2/d8e/class_game_net_1_1_manager.html#a87095c85d93f67d0426774b00dfef190" target="_top" xlink:title=" ">
<polygon fill="white" stroke="black" points="0,-135.5 0,-165.5 133,-165.5 133,-135.5 0,-135.5"/>
<text text-anchor="start" x="8" y="-153.5" font-family="Helvetica,sans-Serif" font-size="10.00">GameNet::Manager::Script</text>
<text text-anchor="middle" x="66.5" y="-142.5" font-family="Helvetica,sans-Serif" font-size="10.00">CancelJoinServer</text>
</a>
</g>
</g>
<!-- Node3&#45;&gt;Node4 -->
<g id="edge3" class="edge"><title>Node3&#45;&gt;Node4</title>
<path fill="none" stroke="midnightblue" d="M175.178,-149.92C161.217,-149.995 146.794,-150.073 133.217,-150.146"/>
<polygon fill="midnightblue" stroke="midnightblue" points="175.262,-153.419 185.243,-149.865 175.224,-146.419 175.262,-153.419"/>
</g>
<!-- Node6 -->
<g id="node6" class="node"><title>Node6</title>
<g id="a_node6"><a xlink:href="../../d7/d5d/class_game_net_1_1_lobby_man.html#ac62056b8a7c63fcef38216b9c9bdb814" target="_top" xlink:title=" ">
<polygon fill="white" stroke="black" points="9,-86.5 9,-116.5 124,-116.5 124,-86.5 9,-86.5"/>
<text text-anchor="start" x="17" y="-104.5" font-family="Helvetica,sans-Serif" font-size="10.00">GameNet::LobbyMan::</text>
<text text-anchor="middle" x="66.5" y="-93.5" font-family="Helvetica,sans-Serif" font-size="10.00">IsLobbyOfficial</text>
</a>
</g>
</g>
<!-- Node5&#45;&gt;Node6 -->
<g id="edge5" class="edge"><title>Node5&#45;&gt;Node6</title>
<path fill="none" stroke="midnightblue" d="M167.685,-102.58C152.965,-102.421 137.993,-102.26 124.266,-102.112"/>
<polygon fill="midnightblue" stroke="midnightblue" points="167.78,-106.081 177.817,-102.689 167.856,-99.0817 167.78,-106.081"/>
</g>
<!-- Node9 -->
<g id="node9" class="node"><title>Node9</title>
<g id="a_node9"><a xlink:href="../../d2/d8e/class_game_net_1_1_manager.html#aacb48860ec8c2ad760ae4934ce8d94c8" target="_top" xlink:title=" ">
<polygon fill="white" stroke="black" points="0,-0.5 0,-30.5 133,-30.5 133,-0.5 0,-0.5"/>
<text text-anchor="start" x="8" y="-18.5" font-family="Helvetica,sans-Serif" font-size="10.00">GameNet::Manager::Script</text>
<text text-anchor="middle" x="66.5" y="-7.5" font-family="Helvetica,sans-Serif" font-size="10.00">ReattemptJoinServer</text>
</a>
</g>
</g>
<!-- Node8&#45;&gt;Node9 -->
<g id="edge8" class="edge"><title>Node8&#45;&gt;Node9</title>
<path fill="none" stroke="midnightblue" d="M158.795,-15.5C150.15,-15.5 141.521,-15.5 133.21,-15.5"/>
<polygon fill="midnightblue" stroke="midnightblue" points="158.934,-19.0001 168.934,-15.5 158.934,-12.0001 158.934,-19.0001"/>
</g>
</g>
</svg>
        <g id="navigator" transform="translate(0 0)" fill="#404254">
                <rect fill="#f2f5e9" fill-opacity="0.5" stroke="#606060" stroke-width=".5" x="0" y="0" width="60" height="60"/>
                <use id="zoomplus" xlink:href="#zoomPlus" x="17" y="9" onmousedown="handleZoom(evt,'in')"/>
                <use id="zoomminus" xlink:href="#zoomMin" x="42" y="9" onmousedown="handleZoom(evt,'out')"/>
                <use id="reset" xlink:href="#resetDef" x="30" y="36" onmousedown="handleReset()"/>
                <g id="arrowUp" xlink:href="#dirArrow" transform="translate(30 24)" onmousedown="handlePan(0,-1)">
                  <use xlink:href="#rim" fill="#404040">
                        <set attributeName="fill" to="#808080" begin="arrowUp.mouseover" end="arrowUp.mouseout"/>
                  </use>
                  <path fill="none" stroke="white" stroke-width="1.5" d="M0,-3.0v7 M-2.5,-0.5L0,-3.0L2.5,-0.5"/>
                </g>
                <g id="arrowRight" xlink:href="#dirArrow" transform="rotate(90) translate(36 -43)" onmousedown="handlePan(1,0)">
                  <use xlink:href="#rim" fill="#404040">
                        <set attributeName="fill" to="#808080" begin="arrowRight.mouseover" end="arrowRight.mouseout"/>
                  </use>
                  <path fill="none" stroke="white" stroke-width="1.5" d="M0,-3.0v7 M-2.5,-0.5L0,-3.0L2.5,-0.5"/>
                </g>
                <g id="arrowDown" xlink:href="#dirArrow" transform="rotate(180) translate(-30 -48)" onmousedown="handlePan(0,1)">
                  <use xlink:href="#rim" fill="#404040">
                        <set attributeName="fill" to="#808080" begin="arrowDown.mouseover" end="arrowDown.mouseout"/>
                  </use>
                  <path fill="none" stroke="white" stroke-width="1.5" d="M0,-3.0v7 M-2.5,-0.5L0,-3.0L2.5,-0.5"/>
                </g>
                <g id="arrowLeft" xlink:href="#dirArrow" transform="rotate(270) translate(-36 17)" onmousedown="handlePan(-1,0)">
                  <use xlink:href="#rim" fill="#404040">
                        <set attributeName="fill" to="#808080" begin="arrowLeft.mouseover" end="arrowLeft.mouseout"/>
                  </use>
                  <path fill="none" stroke="white" stroke-width="1.5" d="M0,-3.0v7 M-2.5,-0.5L0,-3.0L2.5,-0.5"/>
                </g>
        </g>
        <svg viewBox="0 0 15 15" width="100%" height="30px" preserveAspectRatio="xMaxYMin meet">
         <g id="arrow_out" transform="scale(0.3 0.3)">
          <a xlink:href="class_net_1_1_conn_a2467b17bb9406e067603fc4a13a619f8_icgraph_org.svg" target="_base">
           <rect id="button" ry="5" rx="5" y="6" x="6" height="38" width="38"
                fill="#f2f5e9" fill-opacity="0.5" stroke="#606060" stroke-width="1.0"/>
           <path id="arrow"
             d="M 11.500037,31.436501 C 11.940474,20.09759 22.043105,11.32322 32.158766,21.979434 L 37.068811,17.246167 C 37.068811,17.246167 37.088388,32 37.088388,32 L 22.160133,31.978069 C 22.160133,31.978069 26.997745,27.140456 26.997745,27.140456 C 18.528582,18.264221 13.291696,25.230495 11.500037,31.436501 z"
             style="fill:#404040;"/>
          </a>
         </g>
        </svg>
</svg>
