<?xml version="1.0" encoding="UTF-8" standalone="no"?>
<!DOCTYPE svg PUBLIC "-//W3C//DTD SVG 1.1//EN"
 "http://www.w3.org/Graphics/SVG/1.1/DTD/svg11.dtd">
<!-- Generated by graphviz version 2.38.0 (20140413.2041)
 -->
<!-- Title: Nx::CXboxTexture::SetEngineTexture Pages: 1 -->
<svg width="351pt" height="66pt"
 viewBox="0.00 0.00 351.00 66.00" xmlns="http://www.w3.org/2000/svg" xmlns:xlink="http://www.w3.org/1999/xlink">
<g id="graph0" class="graph" transform="scale(1 1) rotate(0) translate(4 62)">
<title>Nx::CXboxTexture::SetEngineTexture</title>
<polygon fill="white" stroke="none" points="-4,4 -4,-62 347,-62 347,4 -4,4"/>
<!-- Node1 -->
<g id="node1" class="node"><title>Node1</title>
<g id="a_node1"><a xlink:title=" ">
<polygon fill="#bfbfbf" stroke="black" points="197,-14 197,-44 343,-44 343,-14 197,-14"/>
<text text-anchor="start" x="205" y="-32" font-family="Helvetica,sans-Serif" font-size="10.00">Nx::CXboxTexture::SetEngine</text>
<text text-anchor="middle" x="270" y="-21" font-family="Helvetica,sans-Serif" font-size="10.00">Texture</text>
</a>
</g>
</g>
<!-- Node2 -->
<g id="node2" class="node"><title>Node2</title>
<g id="a_node2"><a xlink:href="../../d1/d06/namespace_nx.html#a5e57e83f2d4210ca51ab055361ce49df" target="_top" xlink:title=" ">
<polygon fill="white" stroke="black" points="28.5,-38.5 28.5,-57.5 132.5,-57.5 132.5,-38.5 28.5,-38.5"/>
<text text-anchor="middle" x="80.5" y="-45.5" font-family="Helvetica,sans-Serif" font-size="10.00">Nx::LoadTextureFile</text>
</a>
</g>
</g>
<!-- Node1&#45;&gt;Node2 -->
<g id="edge1" class="edge"><title>Node1&#45;&gt;Node2</title>
<path fill="none" stroke="midnightblue" d="M186.669,-37.3429C168.333,-39.2009 149.407,-41.1188 132.75,-42.8066"/>
<polygon fill="midnightblue" stroke="midnightblue" points="187.18,-40.8091 196.776,-36.3187 186.474,-33.8448 187.18,-40.8091"/>
</g>
<!-- Node3 -->
<g id="node3" class="node"><title>Node3</title>
<g id="a_node3"><a xlink:href="../../d1/d06/namespace_nx.html#aa3a8bca1f7450214099567801c740c04" target="_top" xlink:title=" ">
<polygon fill="white" stroke="black" points="0,-0.5 0,-19.5 161,-19.5 161,-0.5 0,-0.5"/>
<text text-anchor="middle" x="80.5" y="-7.5" font-family="Helvetica,sans-Serif" font-size="10.00">Nx::LoadTextureFileFromMemory</text>
</a>
</g>
</g>
<!-- Node1&#45;&gt;Node3 -->
<g id="edge2" class="edge"><title>Node1&#45;&gt;Node3</title>
<path fill="none" stroke="midnightblue" d="M186.568,-20.6469C178.133,-19.7922 169.574,-18.9249 161.17,-18.0733"/>
<polygon fill="midnightblue" stroke="midnightblue" points="186.474,-24.1552 196.776,-21.6813 187.18,-17.1909 186.474,-24.1552"/>
</g>
</g>
</svg>
