<?xml version="1.0" encoding="UTF-8" standalone="no"?>
<!DOCTYPE svg PUBLIC "-//W3C//DTD SVG 1.1//EN"
 "http://www.w3.org/Graphics/SVG/1.1/DTD/svg11.dtd">
<!-- Generated by graphviz version 2.38.0 (20140413.2041)
 -->
<!-- Title: sceNetGlueRecvfrom Pages: 1 -->
<svg width="671pt" height="85pt"
 viewBox="0.00 0.00 671.00 85.28" xmlns="http://www.w3.org/2000/svg" xmlns:xlink="http://www.w3.org/1999/xlink">
<g id="graph0" class="graph" transform="scale(1 1) rotate(0) translate(4 81.2817)">
<title>sceNetGlueRecvfrom</title>
<polygon fill="white" stroke="none" points="-4,4 -4,-81.2817 667,-81.2817 667,4 -4,4"/>
<!-- Node1 -->
<g id="node1" class="node"><title>Node1</title>
<g id="a_node1"><a xlink:title=" ">
<polygon fill="#bfbfbf" stroke="black" points="0,-38.5 0,-57.5 107,-57.5 107,-38.5 0,-38.5"/>
<text text-anchor="middle" x="53.5" y="-45.5" font-family="Helvetica,sans-Serif" font-size="10.00">sceNetGlueRecvfrom</text>
</a>
</g>
</g>
<!-- Node2 -->
<g id="node2" class="node"><title>Node2</title>
<g id="a_node2"><a xlink:href="../../df/d92/standard_8cpp.html#a5fc8fd1788f18ada61dfda9f171c5a1a" target="_top" xlink:title=" ">
<polygon fill="white" stroke="black" points="563.5,-38.5 563.5,-57.5 601.5,-57.5 601.5,-38.5 563.5,-38.5"/>
<text text-anchor="middle" x="582.5" y="-45.5" font-family="Helvetica,sans-Serif" font-size="10.00">printf</text>
</a>
</g>
</g>
<!-- Node1&#45;&gt;Node2 -->
<g id="edge1" class="edge"><title>Node1&#45;&gt;Node2</title>
<path fill="none" stroke="midnightblue" d="M90.3903,-57.5087C106.371,-61.2735 125.498,-65.1424 143,-67 285.754,-82.1512 322.921,-78.6898 466,-67 496.035,-64.5461 530.028,-58.5599 553.317,-53.957"/>
<polygon fill="midnightblue" stroke="midnightblue" points="554.102,-57.369 563.211,-51.9571 552.715,-50.5078 554.102,-57.369"/>
</g>
<!-- Node3 -->
<g id="node3" class="node"><title>Node3</title>
<g id="a_node3"><a xlink:href="../../da/dd5/snglue_8cpp.html#afbf5940037aab1a745c56a87ce040c8a" target="_top" xlink:title=" ">
<polygon fill="white" stroke="black" points="144,-38.5 144,-57.5 281,-57.5 281,-38.5 144,-38.5"/>
<text text-anchor="middle" x="212.5" y="-45.5" font-family="Helvetica,sans-Serif" font-size="10.00">snConvNdkToGlueSockaddr</text>
</a>
</g>
</g>
<!-- Node1&#45;&gt;Node3 -->
<g id="edge2" class="edge"><title>Node1&#45;&gt;Node3</title>
<path fill="none" stroke="midnightblue" d="M107.215,-48C115.759,-48 124.761,-48 133.75,-48"/>
<polygon fill="midnightblue" stroke="midnightblue" points="133.868,-51.5001 143.868,-48 133.868,-44.5001 133.868,-51.5001"/>
</g>
<!-- Node4 -->
<g id="node4" class="node"><title>Node4</title>
<g id="a_node4"><a xlink:href="../../da/dd5/snglue_8cpp.html#a0e0bfef76e60c62b9702ad9ee60af99e" target="_top" xlink:title=" ">
<polygon fill="white" stroke="black" points="143,-0.5 143,-19.5 282,-19.5 282,-0.5 143,-0.5"/>
<text text-anchor="middle" x="212.5" y="-7.5" font-family="Helvetica,sans-Serif" font-size="10.00">snGetConvStoreSocketError</text>
</a>
</g>
</g>
<!-- Node1&#45;&gt;Node4 -->
<g id="edge3" class="edge"><title>Node1&#45;&gt;Node4</title>
<path fill="none" stroke="midnightblue" d="M94.1177,-38.411C114.836,-33.3965 140.388,-27.2119 162.356,-21.8947"/>
<polygon fill="midnightblue" stroke="midnightblue" points="163.271,-25.2744 172.167,-19.5201 161.624,-18.4708 163.271,-25.2744"/>
</g>
<!-- Node5 -->
<g id="node5" class="node"><title>Node5</title>
<g id="a_node5"><a xlink:href="../../da/dd5/snglue_8cpp.html#aa6f348074b31d4c0f89ff3476f0b16e4" target="_top" xlink:title=" ">
<polygon fill="white" stroke="black" points="318,-38.5 318,-57.5 466,-57.5 466,-38.5 318,-38.5"/>
<text text-anchor="middle" x="392" y="-45.5" font-family="Helvetica,sans-Serif" font-size="10.00">snConvertNdkErrToNetGlueErr</text>
</a>
</g>
</g>
<!-- Node4&#45;&gt;Node5 -->
<g id="edge4" class="edge"><title>Node4&#45;&gt;Node5</title>
<path fill="none" stroke="midnightblue" d="M258.291,-19.589C282.03,-24.6713 311.384,-30.9554 336.444,-36.3203"/>
<polygon fill="midnightblue" stroke="midnightblue" points="336.02,-39.8089 346.531,-38.4799 337.486,-32.964 336.02,-39.8089"/>
</g>
<!-- Node6 -->
<g id="node6" class="node"><title>Node6</title>
<g id="a_node6"><a xlink:href="../../da/dd5/snglue_8cpp.html#a85bbf7ba5c9e721f86ac27cbdf960031" target="_top" xlink:title=" ">
<polygon fill="white" stroke="black" points="355,-0.5 355,-19.5 429,-19.5 429,-0.5 355,-0.5"/>
<text text-anchor="middle" x="392" y="-7.5" font-family="Helvetica,sans-Serif" font-size="10.00">snStoreErrno</text>
</a>
</g>
</g>
<!-- Node4&#45;&gt;Node6 -->
<g id="edge6" class="edge"><title>Node4&#45;&gt;Node6</title>
<path fill="none" stroke="midnightblue" d="M282.126,-10C303.034,-10 325.514,-10 344.587,-10"/>
<polygon fill="midnightblue" stroke="midnightblue" points="344.801,-13.5001 354.801,-10 344.801,-6.5001 344.801,-13.5001"/>
</g>
<!-- Node5&#45;&gt;Node2 -->
<g id="edge5" class="edge"><title>Node5&#45;&gt;Node2</title>
<path fill="none" stroke="midnightblue" d="M466.149,-48C496.703,-48 530.376,-48 553.411,-48"/>
<polygon fill="midnightblue" stroke="midnightblue" points="553.5,-51.5001 563.5,-48 553.5,-44.5001 553.5,-51.5001"/>
</g>
<!-- Node6&#45;&gt;Node2 -->
<g id="edge7" class="edge"><title>Node6&#45;&gt;Node2</title>
<path fill="none" stroke="midnightblue" d="M429.345,-17.3268C465.449,-24.6052 520.063,-35.6149 553.101,-42.2749"/>
<polygon fill="midnightblue" stroke="midnightblue" points="552.523,-45.7289 563.018,-44.2742 553.907,-38.867 552.523,-45.7289"/>
</g>
<!-- Node7 -->
<g id="node7" class="node"><title>Node7</title>
<g id="a_node7"><a xlink:href="../../da/dd5/snglue_8cpp.html#af057f5d4f2fda08e8179e6eefeda9119" target="_top" xlink:title=" ">
<polygon fill="white" stroke="black" points="502,-0.5 502,-19.5 663,-19.5 663,-0.5 502,-0.5"/>
<text text-anchor="middle" x="582.5" y="-7.5" font-family="Helvetica,sans-Serif" font-size="10.00">snGetThreadInfoIndexForThreadId</text>
</a>
</g>
</g>
<!-- Node6&#45;&gt;Node7 -->
<g id="edge8" class="edge"><title>Node6&#45;&gt;Node7</title>
<path fill="none" stroke="midnightblue" d="M429.345,-10C447.25,-10 469.708,-10 491.829,-10"/>
<polygon fill="midnightblue" stroke="midnightblue" points="491.952,-13.5001 501.952,-10 491.952,-6.5001 491.952,-13.5001"/>
</g>
</g>
</svg>
