<?xml version="1.0" encoding="UTF-8" standalone="no"?>
<!DOCTYPE svg PUBLIC "-//W3C//DTD SVG 1.1//EN"
 "http://www.w3.org/Graphics/SVG/1.1/DTD/svg11.dtd">
<!-- Generated by graphviz version 2.38.0 (20140413.2041)
 -->
<!-- Title: sceNetGlueGetpeername Pages: 1 -->
<svg width="690pt" height="85pt"
 viewBox="0.00 0.00 690.00 85.00" xmlns="http://www.w3.org/2000/svg" xmlns:xlink="http://www.w3.org/1999/xlink">
<g id="graph0" class="graph" transform="scale(1 1) rotate(0) translate(4 81)">
<title>sceNetGlueGetpeername</title>
<polygon fill="white" stroke="none" points="-4,4 -4,-81 686,-81 686,4 -4,4"/>
<!-- Node1 -->
<g id="node1" class="node"><title>Node1</title>
<g id="a_node1"><a xlink:title=" ">
<polygon fill="#bfbfbf" stroke="black" points="0,-38.5 0,-57.5 126,-57.5 126,-38.5 0,-38.5"/>
<text text-anchor="middle" x="63" y="-45.5" font-family="Helvetica,sans-Serif" font-size="10.00">sceNetGlueGetpeername</text>
</a>
</g>
</g>
<!-- Node2 -->
<g id="node2" class="node"><title>Node2</title>
<g id="a_node2"><a xlink:href="../../da/dd5/snglue_8cpp.html#afbf5940037aab1a745c56a87ce040c8a" target="_top" xlink:title=" ">
<polygon fill="white" stroke="black" points="163,-57.5 163,-76.5 300,-76.5 300,-57.5 163,-57.5"/>
<text text-anchor="middle" x="231.5" y="-64.5" font-family="Helvetica,sans-Serif" font-size="10.00">snConvNdkToGlueSockaddr</text>
</a>
</g>
</g>
<!-- Node1&#45;&gt;Node2 -->
<g id="edge1" class="edge"><title>Node1&#45;&gt;Node2</title>
<path fill="none" stroke="midnightblue" d="M126.472,-55.129C135.121,-56.1159 144.089,-57.1393 152.97,-58.1528"/>
<polygon fill="midnightblue" stroke="midnightblue" points="152.606,-61.6338 162.938,-59.2903 153.4,-54.679 152.606,-61.6338"/>
</g>
<!-- Node3 -->
<g id="node3" class="node"><title>Node3</title>
<g id="a_node3"><a xlink:href="../../da/dd5/snglue_8cpp.html#a0e0bfef76e60c62b9702ad9ee60af99e" target="_top" xlink:title=" ">
<polygon fill="white" stroke="black" points="162,-19.5 162,-38.5 301,-38.5 301,-19.5 162,-19.5"/>
<text text-anchor="middle" x="231.5" y="-26.5" font-family="Helvetica,sans-Serif" font-size="10.00">snGetConvStoreSocketError</text>
</a>
</g>
</g>
<!-- Node1&#45;&gt;Node3 -->
<g id="edge2" class="edge"><title>Node1&#45;&gt;Node3</title>
<path fill="none" stroke="midnightblue" d="M126.472,-40.871C134.763,-39.925 143.347,-38.9454 151.866,-37.9732"/>
<polygon fill="midnightblue" stroke="midnightblue" points="152.277,-41.4491 161.816,-36.8378 151.483,-34.4943 152.277,-41.4491"/>
</g>
<!-- Node4 -->
<g id="node4" class="node"><title>Node4</title>
<g id="a_node4"><a xlink:href="../../da/dd5/snglue_8cpp.html#aa6f348074b31d4c0f89ff3476f0b16e4" target="_top" xlink:title=" ">
<polygon fill="white" stroke="black" points="337,-38.5 337,-57.5 485,-57.5 485,-38.5 337,-38.5"/>
<text text-anchor="middle" x="411" y="-45.5" font-family="Helvetica,sans-Serif" font-size="10.00">snConvertNdkErrToNetGlueErr</text>
</a>
</g>
</g>
<!-- Node3&#45;&gt;Node4 -->
<g id="edge3" class="edge"><title>Node3&#45;&gt;Node4</title>
<path fill="none" stroke="midnightblue" d="M301.126,-36.3459C309.54,-37.2466 318.209,-38.1745 326.808,-39.095"/>
<polygon fill="midnightblue" stroke="midnightblue" points="326.536,-42.5857 336.851,-40.17 327.281,-35.6254 326.536,-42.5857"/>
</g>
<!-- Node6 -->
<g id="node6" class="node"><title>Node6</title>
<g id="a_node6"><a xlink:href="../../da/dd5/snglue_8cpp.html#a85bbf7ba5c9e721f86ac27cbdf960031" target="_top" xlink:title=" ">
<polygon fill="white" stroke="black" points="374,-0.5 374,-19.5 448,-19.5 448,-0.5 374,-0.5"/>
<text text-anchor="middle" x="411" y="-7.5" font-family="Helvetica,sans-Serif" font-size="10.00">snStoreErrno</text>
</a>
</g>
</g>
<!-- Node3&#45;&gt;Node6 -->
<g id="edge5" class="edge"><title>Node3&#45;&gt;Node6</title>
<path fill="none" stroke="midnightblue" d="M301.126,-21.6541C322.13,-19.4058 344.722,-16.9875 363.852,-14.9398"/>
<polygon fill="midnightblue" stroke="midnightblue" points="364.23,-18.4194 373.801,-13.8748 363.485,-11.4591 364.23,-18.4194"/>
</g>
<!-- Node5 -->
<g id="node5" class="node"><title>Node5</title>
<g id="a_node5"><a xlink:href="../../df/d92/standard_8cpp.html#a5fc8fd1788f18ada61dfda9f171c5a1a" target="_top" xlink:title=" ">
<polygon fill="white" stroke="black" points="582.5,-38.5 582.5,-57.5 620.5,-57.5 620.5,-38.5 582.5,-38.5"/>
<text text-anchor="middle" x="601.5" y="-45.5" font-family="Helvetica,sans-Serif" font-size="10.00">printf</text>
</a>
</g>
</g>
<!-- Node4&#45;&gt;Node5 -->
<g id="edge4" class="edge"><title>Node4&#45;&gt;Node5</title>
<path fill="none" stroke="midnightblue" d="M485.149,-48C515.703,-48 549.376,-48 572.411,-48"/>
<polygon fill="midnightblue" stroke="midnightblue" points="572.5,-51.5001 582.5,-48 572.5,-44.5001 572.5,-51.5001"/>
</g>
<!-- Node6&#45;&gt;Node5 -->
<g id="edge6" class="edge"><title>Node6&#45;&gt;Node5</title>
<path fill="none" stroke="midnightblue" d="M448.345,-17.3268C484.449,-24.6052 539.063,-35.6149 572.101,-42.2749"/>
<polygon fill="midnightblue" stroke="midnightblue" points="571.523,-45.7289 582.018,-44.2742 572.907,-38.867 571.523,-45.7289"/>
</g>
<!-- Node7 -->
<g id="node7" class="node"><title>Node7</title>
<g id="a_node7"><a xlink:href="../../da/dd5/snglue_8cpp.html#af057f5d4f2fda08e8179e6eefeda9119" target="_top" xlink:title=" ">
<polygon fill="white" stroke="black" points="521,-0.5 521,-19.5 682,-19.5 682,-0.5 521,-0.5"/>
<text text-anchor="middle" x="601.5" y="-7.5" font-family="Helvetica,sans-Serif" font-size="10.00">snGetThreadInfoIndexForThreadId</text>
</a>
</g>
</g>
<!-- Node6&#45;&gt;Node7 -->
<g id="edge7" class="edge"><title>Node6&#45;&gt;Node7</title>
<path fill="none" stroke="midnightblue" d="M448.345,-10C466.25,-10 488.708,-10 510.829,-10"/>
<polygon fill="midnightblue" stroke="midnightblue" points="510.952,-13.5001 520.952,-10 510.952,-6.5001 510.952,-13.5001"/>
</g>
</g>
</svg>
