<?xml version="1.0" encoding="UTF-8" standalone="no"?>
<!DOCTYPE svg PUBLIC "-//W3C//DTD SVG 1.1//EN"
 "http://www.w3.org/Graphics/SVG/1.1/DTD/svg11.dtd">
<!-- Generated by graphviz version 2.38.0 (20140413.2041)
 -->
<!-- Title: Nx::CXboxGeom::plat_set_scale Pages: 1 -->
<svg width="437pt" height="39pt"
 viewBox="0.00 0.00 437.00 39.00" xmlns="http://www.w3.org/2000/svg" xmlns:xlink="http://www.w3.org/1999/xlink">
<g id="graph0" class="graph" transform="scale(1 1) rotate(0) translate(4 35)">
<title>Nx::CXboxGeom::plat_set_scale</title>
<polygon fill="white" stroke="none" points="-4,4 -4,-35 433,-35 433,4 -4,4"/>
<!-- Node1 -->
<g id="node1" class="node"><title>Node1</title>
<g id="a_node1"><a xlink:title=" ">
<polygon fill="#bfbfbf" stroke="black" points="0,-0.5 0,-30.5 110,-30.5 110,-0.5 0,-0.5"/>
<text text-anchor="start" x="8" y="-18.5" font-family="Helvetica,sans-Serif" font-size="10.00">Nx::CXboxGeom::plat</text>
<text text-anchor="middle" x="55" y="-7.5" font-family="Helvetica,sans-Serif" font-size="10.00">_set_scale</text>
</a>
</g>
</g>
<!-- Node2 -->
<g id="node2" class="node"><title>Node2</title>
<g id="a_node2"><a xlink:href="../../d6/d5e/struct_nx_xbox_1_1s_mesh.html#a023bd4bda66e4763398d1b29e3edc426" target="_top" xlink:title=" ">
<polygon fill="white" stroke="black" points="146,-6 146,-25 288,-25 288,-6 146,-6"/>
<text text-anchor="middle" x="217" y="-13" font-family="Helvetica,sans-Serif" font-size="10.00">NxXbox::sMesh::GetPosition</text>
</a>
</g>
</g>
<!-- Node1&#45;&gt;Node2 -->
<g id="edge1" class="edge"><title>Node1&#45;&gt;Node2</title>
<path fill="none" stroke="midnightblue" d="M110.169,-15.5C118.379,-15.5 126.996,-15.5 135.619,-15.5"/>
<polygon fill="midnightblue" stroke="midnightblue" points="135.72,-19.0001 145.72,-15.5 135.72,-12.0001 135.72,-19.0001"/>
</g>
<!-- Node3 -->
<g id="node3" class="node"><title>Node3</title>
<g id="a_node3"><a xlink:href="../../d9/d37/class_mth_1_1_matrix.html#a269ae2fa628a2a388f98cd852619875e" target="_top" xlink:title=" ">
<polygon fill="white" stroke="black" points="324,-6 324,-25 429,-25 429,-6 324,-6"/>
<text text-anchor="middle" x="376.5" y="-13" font-family="Helvetica,sans-Serif" font-size="10.00">Mth::Matrix::GetPos</text>
</a>
</g>
</g>
<!-- Node2&#45;&gt;Node3 -->
<g id="edge2" class="edge"><title>Node2&#45;&gt;Node3</title>
<path fill="none" stroke="midnightblue" d="M288.458,-15.5C296.959,-15.5 305.591,-15.5 313.951,-15.5"/>
<polygon fill="midnightblue" stroke="midnightblue" points="313.987,-19.0001 323.987,-15.5 313.986,-12.0001 313.987,-19.0001"/>
</g>
</g>
</svg>
