<?xml version="1.0" encoding="UTF-8" standalone="no"?>
<!DOCTYPE svg PUBLIC "-//W3C//DTD SVG 1.1//EN"
 "http://www.w3.org/Graphics/SVG/1.1/DTD/svg11.dtd">
<!-- Generated by graphviz version 2.38.0 (20140413.2041)
 -->
<!-- Title: Obj::CObjectHookManagerComponent::GetDebugInfo Pages: 1 -->
<!--zoomable 344 -->
<svg id="main" version="1.1" xmlns="http://www.w3.org/2000/svg" xmlns:xlink="http://www.w3.org/1999/xlink" xml:space="preserve" onload="init(evt)">
<style type="text/css"><![CDATA[
.edge:hover path { stroke: red; }
.edge:hover polygon { stroke: red; fill: red; }
]]></style>
<script type="text/javascript"><![CDATA[
var edges = document.getElementsByTagName('g');
if (edges && edges.length) {
  for (var i=0;i<edges.length;i++) {
    if (edges[i].id.substr(0,4)=='edge') {
      edges[i].setAttribute('class','edge');
    }
  }
}
]]></script>
        <defs>
                <circle id="rim" cx="0" cy="0" r="7"/>
                <circle id="rim2" cx="0" cy="0" r="3.5"/>
                <g id="zoomPlus">
                        <use xlink:href="#rim" fill="#404040">
                                <set attributeName="fill" to="#808080" begin="zoomplus.mouseover" end="zoomplus.mouseout"/>
                        </use>
                        <path d="M-4,0h8M0,-4v8" fill="none" stroke="white" stroke-width="1.5" pointer-events="none"/>
                </g>
                <g id="zoomMin">
                        <use xlink:href="#rim" fill="#404040">
                                <set attributeName="fill" to="#808080" begin="zoomminus.mouseover" end="zoomminus.mouseout"/>
                        </use>
                        <path d="M-4,0h8" fill="none" stroke="white" stroke-width="1.5" pointer-events="none"/>
                </g>
                <g id="dirArrow">
                        <path fill="none" stroke="white" stroke-width="1.5" d="M0,-3.0v7 M-2.5,-0.5L0,-3.0L2.5,-0.5"/>
                </g>
               <g id="resetDef">
                       <use xlink:href="#rim2" fill="#404040">
                               <set attributeName="fill" to="#808080" begin="reset.mouseover" end="reset.mouseout"/>
                       </use>
               </g>
        </defs>

<script type="text/javascript">
var viewWidth = 1426;
var viewHeight = 344;
var sectionId = 'dynsection-8';
</script>
<script xlink:href="../../svgpan.js"/>
<svg id="graph" class="graph">
<g id="viewport">
<title>Obj::CObjectHookManagerComponent::GetDebugInfo</title>
<polygon fill="white" stroke="none" points="-4,4 -4,-339.5 1422,-339.5 1422,4 -4,4"/>
<!-- Node1 -->
<g id="node1" class="node"><title>Node1</title>
<g id="a_node1"><a xlink:title=" ">
<polygon fill="#bfbfbf" stroke="black" points="0,-90 0,-120 182,-120 182,-90 0,-90"/>
<text text-anchor="start" x="8" y="-108" font-family="Helvetica,sans-Serif" font-size="10.00">Obj::CObjectHookManagerComponent</text>
<text text-anchor="middle" x="91" y="-97" font-family="Helvetica,sans-Serif" font-size="10.00">::GetDebugInfo</text>
</a>
</g>
</g>
<!-- Node2 -->
<g id="node2" class="node"><title>Node2</title>
<g id="a_node2"><a xlink:href="../../d2/df7/class_script_1_1_c_struct.html#acda26adf5923c837328ef8089d99463f" target="_top" xlink:title=" ">
<polygon fill="white" stroke="black" points="219.5,-139.5 219.5,-158.5 349.5,-158.5 349.5,-139.5 219.5,-139.5"/>
<text text-anchor="middle" x="284.5" y="-146.5" font-family="Helvetica,sans-Serif" font-size="10.00">Script::CStruct::AddString</text>
</a>
</g>
</g>
<!-- Node1&#45;&gt;Node2 -->
<g id="edge1" class="edge"><title>Node1&#45;&gt;Node2</title>
<path fill="none" stroke="midnightblue" d="M157.368,-120.019C181.813,-125.636 209.207,-131.93 232.203,-137.214"/>
<polygon fill="midnightblue" stroke="midnightblue" points="231.57,-140.659 242.099,-139.488 233.137,-133.837 231.57,-140.659"/>
</g>
<!-- Node24 -->
<g id="node24" class="node"><title>Node24</title>
<g id="a_node24"><a xlink:href="../../d0/d7e/class_obj_1_1_c_base_component.html#acb60b78cb120aaaa883df1fd4d4d15bf" target="_top" xlink:title=" ">
<polygon fill="white" stroke="black" points="226.5,-90 226.5,-120 342.5,-120 342.5,-90 226.5,-90"/>
<text text-anchor="start" x="234.5" y="-108" font-family="Helvetica,sans-Serif" font-size="10.00">Obj::CBaseComponent</text>
<text text-anchor="middle" x="284.5" y="-97" font-family="Helvetica,sans-Serif" font-size="10.00">::GetDebugInfo</text>
</a>
</g>
</g>
<!-- Node1&#45;&gt;Node24 -->
<g id="edge27" class="edge"><title>Node1&#45;&gt;Node24</title>
<path fill="none" stroke="midnightblue" d="M182.143,-105C193.537,-105 205.039,-105 215.998,-105"/>
<polygon fill="midnightblue" stroke="midnightblue" points="216.317,-108.5 226.317,-105 216.317,-101.5 216.317,-108.5"/>
</g>
<!-- Node26 -->
<g id="node26" class="node"><title>Node26</title>
<g id="a_node26"><a xlink:href="../../d8/df8/class_obj_1_1_c_object_hook_manager.html#a3188f28efa112dded5e1bbac47d231b3" target="_top" xlink:title=" ">
<polygon fill="white" stroke="black" points="218,-41 218,-71 351,-71 351,-41 218,-41"/>
<text text-anchor="start" x="226" y="-59" font-family="Helvetica,sans-Serif" font-size="10.00">Obj::CObjectHookManager</text>
<text text-anchor="middle" x="284.5" y="-48" font-family="Helvetica,sans-Serif" font-size="10.00">::IsMoving</text>
</a>
</g>
</g>
<!-- Node1&#45;&gt;Node26 -->
<g id="edge30" class="edge"><title>Node1&#45;&gt;Node26</title>
<path fill="none" stroke="midnightblue" d="M150.758,-89.9654C171.069,-84.7682 194.005,-78.8994 215.028,-73.5204"/>
<polygon fill="midnightblue" stroke="midnightblue" points="216.033,-76.8759 224.853,-71.0062 214.298,-70.0944 216.033,-76.8759"/>
</g>
<!-- Node3 -->
<g id="node3" class="node"><title>Node3</title>
<g id="a_node3"><a xlink:href="../../d2/df7/class_script_1_1_c_struct.html#a3872f7f0a9ebcc695745aabeefab2796" target="_top" xlink:title=" ">
<polygon fill="white" stroke="black" points="560.5,-95.5 560.5,-114.5 714.5,-114.5 714.5,-95.5 560.5,-95.5"/>
<text text-anchor="middle" x="637.5" y="-102.5" font-family="Helvetica,sans-Serif" font-size="10.00">Script::CStruct::AddComponent</text>
</a>
</g>
</g>
<!-- Node2&#45;&gt;Node3 -->
<g id="edge2" class="edge"><title>Node2&#45;&gt;Node3</title>
<path fill="none" stroke="midnightblue" d="M349.589,-143.197C397.013,-138.66 463.143,-131.823 521,-124 537.677,-121.745 555.651,-118.961 572.337,-116.225"/>
<polygon fill="midnightblue" stroke="midnightblue" points="573.245,-119.623 582.537,-114.534 572.1,-112.717 573.245,-119.623"/>
</g>
<!-- Node17 -->
<g id="node17" class="node"><title>Node17</title>
<g id="a_node17"><a xlink:href="../../d1/d54/namespace_script.html#a0bd06d53a8bc5c49aa4561a3ccbbd13a" target="_top" xlink:title=" ">
<polygon fill="white" stroke="black" points="403,-171.5 403,-190.5 505,-190.5 505,-171.5 403,-171.5"/>
<text text-anchor="middle" x="454" y="-178.5" font-family="Helvetica,sans-Serif" font-size="10.00">Script::CreateString</text>
</a>
</g>
</g>
<!-- Node2&#45;&gt;Node17 -->
<g id="edge20" class="edge"><title>Node2&#45;&gt;Node17</title>
<path fill="none" stroke="midnightblue" d="M335.302,-158.514C353.449,-161.981 374.156,-165.937 393.089,-169.554"/>
<polygon fill="midnightblue" stroke="midnightblue" points="392.621,-173.028 403.101,-171.467 393.935,-166.153 392.621,-173.028"/>
</g>
<!-- Node4 -->
<g id="node4" class="node"><title>Node4</title>
<g id="a_node4"><a xlink:href="../../d1/d54/namespace_script.html#a1dd030523ebaecb95103d181f6fd382e" target="_top" xlink:title=" ">
<polygon fill="white" stroke="black" points="766.5,-95.5 766.5,-114.5 900.5,-114.5 900.5,-95.5 766.5,-95.5"/>
<text text-anchor="middle" x="833.5" y="-102.5" font-family="Helvetica,sans-Serif" font-size="10.00">Script::CleanUpComponent</text>
</a>
</g>
</g>
<!-- Node3&#45;&gt;Node4 -->
<g id="edge3" class="edge"><title>Node3&#45;&gt;Node4</title>
<path fill="none" stroke="midnightblue" d="M714.617,-105C728.236,-105 742.432,-105 756.06,-105"/>
<polygon fill="midnightblue" stroke="midnightblue" points="756.352,-108.5 766.352,-105 756.352,-101.5 756.352,-108.5"/>
</g>
<!-- Node13 -->
<g id="node13" class="node"><title>Node13</title>
<g id="a_node13"><a xlink:href="../../d1/d54/namespace_script.html#ae80ed69ea4edcbcbbbd4985a6efdcd6e" target="_top" xlink:title=" ">
<polygon fill="white" stroke="black" points="764,-38.5 764,-57.5 903,-57.5 903,-38.5 764,-38.5"/>
<text text-anchor="middle" x="833.5" y="-45.5" font-family="Helvetica,sans-Serif" font-size="10.00">Script::FindChecksumName</text>
</a>
</g>
</g>
<!-- Node3&#45;&gt;Node13 -->
<g id="edge16" class="edge"><title>Node3&#45;&gt;Node13</title>
<path fill="none" stroke="midnightblue" d="M670.971,-95.4595C703.705,-85.8418 754.382,-70.9523 790.232,-60.419"/>
<polygon fill="midnightblue" stroke="midnightblue" points="791.315,-63.7488 799.923,-57.5716 789.342,-57.0326 791.315,-63.7488"/>
</g>
<!-- Node5 -->
<g id="node5" class="node"><title>Node5</title>
<g id="a_node5"><a xlink:href="../../d1/d54/namespace_script.html#a3dd60f29ada8a33fda9f4e842f1cabc1" target="_top" xlink:title=" ">
<polygon fill="white" stroke="black" points="976.5,-190.5 976.5,-209.5 1084.5,-209.5 1084.5,-190.5 976.5,-190.5"/>
<text text-anchor="middle" x="1030.5" y="-197.5" font-family="Helvetica,sans-Serif" font-size="10.00">Script::CleanUpArray</text>
</a>
</g>
</g>
<!-- Node4&#45;&gt;Node5 -->
<g id="edge4" class="edge"><title>Node4&#45;&gt;Node5</title>
<path fill="none" stroke="midnightblue" d="M885.164,-114.573C894.605,-117.106 904.247,-120.219 913,-124 949.598,-139.809 987.441,-166.833 1009.7,-184.034"/>
<polygon fill="midnightblue" stroke="midnightblue" points="1007.68,-186.894 1017.71,-190.316 1012,-181.388 1007.68,-186.894"/>
</g>
<!-- Node7 -->
<g id="node7" class="node"><title>Node7</title>
<g id="a_node7"><a xlink:href="../../db/dc4/namespace_mem.html#aeedb606ea94a3398fdcfa3101c5ea8d9" target="_top" xlink:title=" ">
<polygon fill="white" stroke="black" points="1331,-114.5 1331,-133.5 1395,-133.5 1395,-114.5 1331,-114.5"/>
<text text-anchor="middle" x="1363" y="-121.5" font-family="Helvetica,sans-Serif" font-size="10.00">Mem::Free</text>
</a>
</g>
</g>
<!-- Node4&#45;&gt;Node7 -->
<g id="edge15" class="edge"><title>Node4&#45;&gt;Node7</title>
<path fill="none" stroke="midnightblue" d="M900.688,-100.736C986.568,-96.1801 1140.93,-91.3157 1272,-105 1288,-106.671 1305.35,-109.969 1320.5,-113.355"/>
<polygon fill="midnightblue" stroke="midnightblue" points="1320.07,-116.847 1330.6,-115.695 1321.65,-110.028 1320.07,-116.847"/>
</g>
<!-- Node9 -->
<g id="node9" class="node"><title>Node9</title>
<g id="a_node9"><a xlink:href="../../d1/d54/namespace_script.html#a99857fb30343d0c999af4db73344cece" target="_top" xlink:title=" ">
<polygon fill="white" stroke="black" points="1159.5,-114.5 1159.5,-133.5 1260.5,-133.5 1260.5,-114.5 1159.5,-114.5"/>
<text text-anchor="middle" x="1210" y="-121.5" font-family="Helvetica,sans-Serif" font-size="10.00">Script::DeleteString</text>
</a>
</g>
</g>
<!-- Node4&#45;&gt;Node9 -->
<g id="edge14" class="edge"><title>Node4&#45;&gt;Node9</title>
<path fill="none" stroke="midnightblue" d="M900.591,-108.353C970.996,-111.925 1081.45,-117.529 1149.31,-120.971"/>
<polygon fill="midnightblue" stroke="midnightblue" points="1149.24,-124.473 1159.41,-121.484 1149.6,-117.482 1149.24,-124.473"/>
</g>
<!-- Node6 -->
<g id="node6" class="node"><title>Node6</title>
<g id="a_node6"><a xlink:href="../../d0/d0b/class_script_1_1_c_array.html#a4b347b8b448dd652473dd6afe9aba2c2" target="_top" xlink:title=" ">
<polygon fill="white" stroke="black" points="1156.5,-152.5 1156.5,-171.5 1263.5,-171.5 1263.5,-152.5 1156.5,-152.5"/>
<text text-anchor="middle" x="1210" y="-159.5" font-family="Helvetica,sans-Serif" font-size="10.00">Script::CArray::Clear</text>
</a>
</g>
</g>
<!-- Node5&#45;&gt;Node6 -->
<g id="edge5" class="edge"><title>Node5&#45;&gt;Node6</title>
<path fill="none" stroke="midnightblue" d="M1076.29,-190.411C1100.03,-185.329 1129.38,-179.045 1154.44,-173.68"/>
<polygon fill="midnightblue" stroke="midnightblue" points="1155.49,-177.036 1164.53,-171.52 1154.02,-170.191 1155.49,-177.036"/>
</g>
<!-- Node8 -->
<g id="node8" class="node"><title>Node8</title>
<g id="a_node8"><a xlink:href="../../d1/d54/namespace_script.html#af32f99ba26ca0f255240413a4e23a754" target="_top" xlink:title=" ">
<polygon fill="white" stroke="black" points="1308,-171.5 1308,-190.5 1418,-190.5 1418,-171.5 1308,-171.5"/>
<text text-anchor="middle" x="1363" y="-178.5" font-family="Helvetica,sans-Serif" font-size="10.00">Script::GetTypeName</text>
</a>
</g>
</g>
<!-- Node5&#45;&gt;Node8 -->
<g id="edge13" class="edge"><title>Node5&#45;&gt;Node8</title>
<path fill="none" stroke="midnightblue" d="M1084.6,-196.947C1142.68,-193.609 1235.75,-188.258 1297.86,-184.687"/>
<polygon fill="midnightblue" stroke="midnightblue" points="1298.15,-188.176 1307.93,-184.108 1297.75,-181.188 1298.15,-188.176"/>
</g>
<!-- Node5&#45;&gt;Node9 -->
<g id="edge8" class="edge"><title>Node5&#45;&gt;Node9</title>
<path fill="none" stroke="midnightblue" d="M1048.88,-190.449C1071.33,-178.365 1111.8,-157.394 1148,-143 1153.55,-140.794 1159.46,-138.676 1165.33,-136.707"/>
<polygon fill="midnightblue" stroke="midnightblue" points="1166.68,-139.95 1175.12,-133.543 1164.53,-133.289 1166.68,-139.95"/>
</g>
<!-- Node10 -->
<g id="node10" class="node"><title>Node10</title>
<g id="a_node10"><a xlink:href="../../d0/d0b/class_script_1_1_c_array.html#a600fcbd0b8fd9d1df2ee87d77494db7a" target="_top" xlink:title=" ">
<polygon fill="white" stroke="black" points="1148.5,-305 1148.5,-335 1271.5,-335 1271.5,-305 1148.5,-305"/>
<text text-anchor="start" x="1156.5" y="-323" font-family="Helvetica,sans-Serif" font-size="10.00">Script::CArray::GetArray</text>
<text text-anchor="middle" x="1210" y="-312" font-family="Helvetica,sans-Serif" font-size="10.00">Pointer</text>
</a>
</g>
</g>
<!-- Node5&#45;&gt;Node10 -->
<g id="edge10" class="edge"><title>Node5&#45;&gt;Node10</title>
<path fill="none" stroke="midnightblue" d="M1041.33,-209.751C1060.48,-228.332 1104.71,-269.254 1148,-295 1151.34,-296.984 1154.86,-298.88 1158.46,-300.678"/>
<polygon fill="midnightblue" stroke="midnightblue" points="1156.97,-303.846 1167.51,-304.938 1159.95,-297.513 1156.97,-303.846"/>
</g>
<!-- Node11 -->
<g id="node11" class="node"><title>Node11</title>
<g id="a_node11"><a xlink:href="../../d0/d0b/class_script_1_1_c_array.html#a71c761bdce14193b10bf3c88372ba5a0" target="_top" xlink:title=" ">
<polygon fill="white" stroke="black" points="1150.5,-266.5 1150.5,-285.5 1269.5,-285.5 1269.5,-266.5 1150.5,-266.5"/>
<text text-anchor="middle" x="1210" y="-273.5" font-family="Helvetica,sans-Serif" font-size="10.00">Script::CArray::GetSize</text>
</a>
</g>
</g>
<!-- Node5&#45;&gt;Node11 -->
<g id="edge11" class="edge"><title>Node5&#45;&gt;Node11</title>
<path fill="none" stroke="midnightblue" d="M1048.88,-209.551C1071.33,-221.635 1111.8,-242.606 1148,-257 1153.55,-259.206 1159.46,-261.324 1165.33,-263.293"/>
<polygon fill="midnightblue" stroke="midnightblue" points="1164.53,-266.711 1175.12,-266.457 1166.68,-260.05 1164.53,-266.711"/>
</g>
<!-- Node12 -->
<g id="node12" class="node"><title>Node12</title>
<g id="a_node12"><a xlink:href="../../d0/d0b/class_script_1_1_c_array.html#a68067b67ca9aae7b9214c0add1d8934e" target="_top" xlink:title=" ">
<polygon fill="white" stroke="black" points="1149.5,-228.5 1149.5,-247.5 1270.5,-247.5 1270.5,-228.5 1149.5,-228.5"/>
<text text-anchor="middle" x="1210" y="-235.5" font-family="Helvetica,sans-Serif" font-size="10.00">Script::CArray::GetType</text>
</a>
</g>
</g>
<!-- Node5&#45;&gt;Node12 -->
<g id="edge12" class="edge"><title>Node5&#45;&gt;Node12</title>
<path fill="none" stroke="midnightblue" d="M1076.29,-209.589C1100.03,-214.671 1129.38,-220.955 1154.44,-226.32"/>
<polygon fill="midnightblue" stroke="midnightblue" points="1154.02,-229.809 1164.53,-228.48 1155.49,-222.964 1154.02,-229.809"/>
</g>
<!-- Node6&#45;&gt;Node7 -->
<g id="edge6" class="edge"><title>Node6&#45;&gt;Node7</title>
<path fill="none" stroke="midnightblue" d="M1249.1,-152.411C1270.92,-146.92 1298.32,-140.026 1320.66,-134.404"/>
<polygon fill="midnightblue" stroke="midnightblue" points="1321.69,-137.755 1330.53,-131.92 1319.98,-130.966 1321.69,-137.755"/>
</g>
<!-- Node6&#45;&gt;Node8 -->
<g id="edge7" class="edge"><title>Node6&#45;&gt;Node8</title>
<path fill="none" stroke="midnightblue" d="M1263.81,-168.645C1274.75,-170.022 1286.39,-171.486 1297.69,-172.908"/>
<polygon fill="midnightblue" stroke="midnightblue" points="1297.58,-176.422 1307.94,-174.198 1298.45,-169.476 1297.58,-176.422"/>
</g>
<!-- Node9&#45;&gt;Node7 -->
<g id="edge9" class="edge"><title>Node9&#45;&gt;Node7</title>
<path fill="none" stroke="midnightblue" d="M1260.86,-124C1280.2,-124 1302.08,-124 1320.53,-124"/>
<polygon fill="midnightblue" stroke="midnightblue" points="1320.67,-127.5 1330.67,-124 1320.67,-120.5 1320.67,-127.5"/>
</g>
<!-- Node14 -->
<g id="node14" class="node"><title>Node14</title>
<g id="a_node14"><a xlink:href="../../d1/d54/namespace_script.html#a5cc52c4ff5ea5bb27681d819212dfdca" target="_top" xlink:title=" ">
<polygon fill="white" stroke="black" points="949,-0.5 949,-19.5 1112,-19.5 1112,-0.5 949,-0.5"/>
<text text-anchor="middle" x="1030.5" y="-7.5" font-family="Helvetica,sans-Serif" font-size="10.00">Script::FindChecksumNameNULL</text>
</a>
</g>
</g>
<!-- Node13&#45;&gt;Node14 -->
<g id="edge17" class="edge"><title>Node13&#45;&gt;Node14</title>
<path fill="none" stroke="midnightblue" d="M883.455,-38.46C909.881,-33.3104 942.694,-26.916 970.52,-21.4935"/>
<polygon fill="midnightblue" stroke="midnightblue" points="971.379,-24.8921 980.525,-19.5439 970.04,-18.0213 971.379,-24.8921"/>
</g>
<!-- Node16 -->
<g id="node16" class="node"><title>Node16</title>
<g id="a_node16"><a xlink:href="../../da/d37/namespace_dbg.html#ab406a8cc16de5046c7d9fd09c9de5e22" target="_top" xlink:title=" ">
<polygon fill="white" stroke="black" points="997.5,-38.5 997.5,-57.5 1063.5,-57.5 1063.5,-38.5 997.5,-38.5"/>
<text text-anchor="middle" x="1030.5" y="-45.5" font-family="Helvetica,sans-Serif" font-size="10.00">Dbg::sprintf</text>
</a>
</g>
</g>
<!-- Node13&#45;&gt;Node16 -->
<g id="edge19" class="edge"><title>Node13&#45;&gt;Node16</title>
<path fill="none" stroke="midnightblue" d="M903.25,-48C931.266,-48 962.76,-48 987.284,-48"/>
<polygon fill="midnightblue" stroke="midnightblue" points="987.337,-51.5001 997.337,-48 987.337,-44.5001 987.337,-51.5001"/>
</g>
<!-- Node15 -->
<g id="node15" class="node"><title>Node15</title>
<g id="a_node15"><a xlink:href="../../d0/d31/namespace_config.html#a709cc81780d49900157e3476b63aa25d" target="_top" xlink:title=" ">
<polygon fill="white" stroke="black" points="1148,-0.5 1148,-19.5 1272,-19.5 1272,-0.5 1148,-0.5"/>
<text text-anchor="middle" x="1210" y="-7.5" font-family="Helvetica,sans-Serif" font-size="10.00">Config::GotExtraMemory</text>
</a>
</g>
</g>
<!-- Node14&#45;&gt;Node15 -->
<g id="edge18" class="edge"><title>Node14&#45;&gt;Node15</title>
<path fill="none" stroke="midnightblue" d="M1112.2,-10C1120.73,-10 1129.36,-10 1137.77,-10"/>
<polygon fill="midnightblue" stroke="midnightblue" points="1137.9,-13.5001 1147.9,-10 1137.9,-6.5001 1137.9,-13.5001"/>
</g>
<!-- Node18 -->
<g id="node18" class="node"><title>Node18</title>
<g id="a_node18"><a xlink:href="../../db/dc4/namespace_mem.html#a10246603d03405159c82320b96e3efbf" target="_top" xlink:title=" ">
<polygon fill="white" stroke="black" points="601,-247.5 601,-266.5 674,-266.5 674,-247.5 601,-247.5"/>
<text text-anchor="middle" x="637.5" y="-254.5" font-family="Helvetica,sans-Serif" font-size="10.00">Mem::Malloc</text>
</a>
</g>
</g>
<!-- Node17&#45;&gt;Node18 -->
<g id="edge21" class="edge"><title>Node17&#45;&gt;Node18</title>
<path fill="none" stroke="midnightblue" d="M469.24,-190.632C488.408,-203.196 523.929,-225.093 557,-238 567.627,-242.148 579.42,-245.564 590.598,-248.299"/>
<polygon fill="midnightblue" stroke="midnightblue" points="590.108,-251.778 600.639,-250.621 591.685,-244.958 590.108,-251.778"/>
</g>
<!-- Node19 -->
<g id="node19" class="node"><title>Node19</title>
<g id="a_node19"><a xlink:href="../../d2/d0a/class_mem_1_1_manager.html#a7c4cba14870f002aee0243e16114f443" target="_top" xlink:title=" ">
<polygon fill="white" stroke="black" points="568,-209.5 568,-228.5 707,-228.5 707,-209.5 568,-209.5"/>
<text text-anchor="middle" x="637.5" y="-216.5" font-family="Helvetica,sans-Serif" font-size="10.00">Mem::Manager::PopContext</text>
</a>
</g>
</g>
<!-- Node17&#45;&gt;Node19 -->
<g id="edge22" class="edge"><title>Node17&#45;&gt;Node19</title>
<path fill="none" stroke="midnightblue" d="M500.8,-190.589C525.183,-195.694 555.357,-202.011 581.056,-207.392"/>
<polygon fill="midnightblue" stroke="midnightblue" points="580.524,-210.856 591.029,-209.48 581.959,-204.005 580.524,-210.856"/>
</g>
<!-- Node20 -->
<g id="node20" class="node"><title>Node20</title>
<g id="a_node20"><a xlink:href="../../d2/d0a/class_mem_1_1_manager.html#aaf8e36abc36eecabe46bf2582035192a" target="_top" xlink:title=" ">
<polygon fill="white" stroke="black" points="565.5,-171.5 565.5,-190.5 709.5,-190.5 709.5,-171.5 565.5,-171.5"/>
<text text-anchor="middle" x="637.5" y="-178.5" font-family="Helvetica,sans-Serif" font-size="10.00">Mem::Manager::PushContext</text>
</a>
</g>
</g>
<!-- Node17&#45;&gt;Node20 -->
<g id="edge23" class="edge"><title>Node17&#45;&gt;Node20</title>
<path fill="none" stroke="midnightblue" d="M505.076,-181C520.456,-181 537.802,-181 554.726,-181"/>
<polygon fill="midnightblue" stroke="midnightblue" points="555.189,-184.5 565.189,-181 555.189,-177.5 555.189,-184.5"/>
</g>
<!-- Node21 -->
<g id="node21" class="node"><title>Node21</title>
<g id="a_node21"><a xlink:href="../../d1/d54/namespace_script.html#a095cc885af5d5c378020ceb75f2d587f" target="_top" xlink:title=" ">
<polygon fill="white" stroke="black" points="557,-133.5 557,-152.5 718,-152.5 718,-133.5 557,-133.5"/>
<text text-anchor="middle" x="637.5" y="-140.5" font-family="Helvetica,sans-Serif" font-size="10.00">Script::sAddToSpecialStringHeap</text>
</a>
</g>
</g>
<!-- Node17&#45;&gt;Node21 -->
<g id="edge24" class="edge"><title>Node17&#45;&gt;Node21</title>
<path fill="none" stroke="midnightblue" d="M500.8,-171.411C525.183,-166.306 555.357,-159.989 581.056,-154.608"/>
<polygon fill="midnightblue" stroke="midnightblue" points="581.959,-157.995 591.029,-152.52 580.524,-151.144 581.959,-157.995"/>
</g>
<!-- Node23 -->
<g id="node23" class="node"><title>Node23</title>
<g id="a_node23"><a xlink:href="../../d2/d0a/class_mem_1_1_manager.html#a3aefd91781b7f41d35e6df6a32d379d0" target="_top" xlink:title=" ">
<polygon fill="white" stroke="black" points="576,-285.5 576,-304.5 699,-304.5 699,-285.5 576,-285.5"/>
<text text-anchor="middle" x="637.5" y="-292.5" font-family="Helvetica,sans-Serif" font-size="10.00">Mem::Manager::sHandle</text>
</a>
</g>
</g>
<!-- Node17&#45;&gt;Node23 -->
<g id="edge26" class="edge"><title>Node17&#45;&gt;Node23</title>
<path fill="none" stroke="midnightblue" d="M462.294,-190.515C477.616,-209.805 515.2,-253.584 557,-276 561.307,-278.31 565.893,-280.342 570.607,-282.129"/>
<polygon fill="midnightblue" stroke="midnightblue" points="569.816,-285.557 580.41,-285.465 572.071,-278.93 569.816,-285.557"/>
</g>
<!-- Node22 -->
<g id="node22" class="node"><title>Node22</title>
<g id="a_node22"><a xlink:href="../../d3/d9b/namespace_crc.html#a60ea952dd05dcbab6d54f8f922f35872" target="_top" xlink:title=" ">
<polygon fill="white" stroke="black" points="754,-133.5 754,-152.5 913,-152.5 913,-133.5 754,-133.5"/>
<text text-anchor="middle" x="833.5" y="-140.5" font-family="Helvetica,sans-Serif" font-size="10.00">Crc::GenerateCRCCaseSensitive</text>
</a>
</g>
</g>
<!-- Node21&#45;&gt;Node22 -->
<g id="edge25" class="edge"><title>Node21&#45;&gt;Node22</title>
<path fill="none" stroke="midnightblue" d="M718.247,-143C726.568,-143 735.065,-143 743.481,-143"/>
<polygon fill="midnightblue" stroke="midnightblue" points="743.689,-146.5 753.689,-143 743.689,-139.5 743.689,-146.5"/>
</g>
<!-- Node25 -->
<g id="node25" class="node"><title>Node25</title>
<g id="a_node25"><a xlink:href="../../d2/df7/class_script_1_1_c_struct.html#ab6805f805d22e3876bcd47552a663f1a" target="_top" xlink:title=" ">
<polygon fill="white" stroke="black" points="387,-95.5 387,-114.5 521,-114.5 521,-95.5 387,-95.5"/>
<text text-anchor="middle" x="454" y="-102.5" font-family="Helvetica,sans-Serif" font-size="10.00">Script::CStruct::AddInteger</text>
</a>
</g>
</g>
<!-- Node24&#45;&gt;Node25 -->
<g id="edge28" class="edge"><title>Node24&#45;&gt;Node25</title>
<path fill="none" stroke="midnightblue" d="M342.676,-105C353.671,-105 365.347,-105 376.832,-105"/>
<polygon fill="midnightblue" stroke="midnightblue" points="376.854,-108.5 386.854,-105 376.854,-101.5 376.854,-108.5"/>
</g>
<!-- Node25&#45;&gt;Node3 -->
<g id="edge29" class="edge"><title>Node25&#45;&gt;Node3</title>
<path fill="none" stroke="midnightblue" d="M521.039,-105C530.518,-105 540.386,-105 550.184,-105"/>
<polygon fill="midnightblue" stroke="midnightblue" points="550.351,-108.5 560.351,-105 550.351,-101.5 550.351,-108.5"/>
</g>
</g>
</svg>
        <g id="navigator" transform="translate(0 0)" fill="#404254">
                <rect fill="#f2f5e9" fill-opacity="0.5" stroke="#606060" stroke-width=".5" x="0" y="0" width="60" height="60"/>
                <use id="zoomplus" xlink:href="#zoomPlus" x="17" y="9" onmousedown="handleZoom(evt,'in')"/>
                <use id="zoomminus" xlink:href="#zoomMin" x="42" y="9" onmousedown="handleZoom(evt,'out')"/>
                <use id="reset" xlink:href="#resetDef" x="30" y="36" onmousedown="handleReset()"/>
                <g id="arrowUp" xlink:href="#dirArrow" transform="translate(30 24)" onmousedown="handlePan(0,-1)">
                  <use xlink:href="#rim" fill="#404040">
                        <set attributeName="fill" to="#808080" begin="arrowUp.mouseover" end="arrowUp.mouseout"/>
                  </use>
                  <path fill="none" stroke="white" stroke-width="1.5" d="M0,-3.0v7 M-2.5,-0.5L0,-3.0L2.5,-0.5"/>
                </g>
                <g id="arrowRight" xlink:href="#dirArrow" transform="rotate(90) translate(36 -43)" onmousedown="handlePan(1,0)">
                  <use xlink:href="#rim" fill="#404040">
                        <set attributeName="fill" to="#808080" begin="arrowRight.mouseover" end="arrowRight.mouseout"/>
                  </use>
                  <path fill="none" stroke="white" stroke-width="1.5" d="M0,-3.0v7 M-2.5,-0.5L0,-3.0L2.5,-0.5"/>
                </g>
                <g id="arrowDown" xlink:href="#dirArrow" transform="rotate(180) translate(-30 -48)" onmousedown="handlePan(0,1)">
                  <use xlink:href="#rim" fill="#404040">
                        <set attributeName="fill" to="#808080" begin="arrowDown.mouseover" end="arrowDown.mouseout"/>
                  </use>
                  <path fill="none" stroke="white" stroke-width="1.5" d="M0,-3.0v7 M-2.5,-0.5L0,-3.0L2.5,-0.5"/>
                </g>
                <g id="arrowLeft" xlink:href="#dirArrow" transform="rotate(270) translate(-36 17)" onmousedown="handlePan(-1,0)">
                  <use xlink:href="#rim" fill="#404040">
                        <set attributeName="fill" to="#808080" begin="arrowLeft.mouseover" end="arrowLeft.mouseout"/>
                  </use>
                  <path fill="none" stroke="white" stroke-width="1.5" d="M0,-3.0v7 M-2.5,-0.5L0,-3.0L2.5,-0.5"/>
                </g>
        </g>
        <svg viewBox="0 0 15 15" width="100%" height="30px" preserveAspectRatio="xMaxYMin meet">
         <g id="arrow_out" transform="scale(0.3 0.3)">
          <a xlink:href="class_obj_1_1_c_object_hook_manager_component_a206f255af9eb7083a449da4024165040_cgraph_org.svg" target="_base">
           <rect id="button" ry="5" rx="5" y="6" x="6" height="38" width="38"
                fill="#f2f5e9" fill-opacity="0.5" stroke="#606060" stroke-width="1.0"/>
           <path id="arrow"
             d="M 11.500037,31.436501 C 11.940474,20.09759 22.043105,11.32322 32.158766,21.979434 L 37.068811,17.246167 C 37.068811,17.246167 37.088388,32 37.088388,32 L 22.160133,31.978069 C 22.160133,31.978069 26.997745,27.140456 26.997745,27.140456 C 18.528582,18.264221 13.291696,25.230495 11.500037,31.436501 z"
             style="fill:#404040;"/>
          </a>
         </g>
        </svg>
</svg>
