<?xml version="1.0" encoding="UTF-8" standalone="no"?>
<!DOCTYPE svg PUBLIC "-//W3C//DTD SVG 1.1//EN"
 "http://www.w3.org/Graphics/SVG/1.1/DTD/svg11.dtd">
<!-- Generated by graphviz version 2.38.0 (20140413.2041)
 -->
<!-- Title: NxXbox::sBillboardMaterialBatch Pages: 1 -->
<svg width="1092pt" height="130pt"
 viewBox="0.00 0.00 1092.00 130.00" xmlns="http://www.w3.org/2000/svg" xmlns:xlink="http://www.w3.org/1999/xlink">
<g id="graph0" class="graph" transform="scale(1 1) rotate(0) translate(4 126)">
<title>NxXbox::sBillboardMaterialBatch</title>
<polygon fill="white" stroke="none" points="-4,4 -4,-126 1088,-126 1088,4 -4,4"/>
<!-- Node1 -->
<g id="node1" class="node"><title>Node1</title>
<g id="a_node1"><a xlink:title=" ">
<polygon fill="#bfbfbf" stroke="black" points="951,-51 951,-81 1084,-81 1084,-51 951,-51"/>
<text text-anchor="start" x="959" y="-69" font-family="Helvetica,sans-Serif" font-size="10.00">NxXbox::sBillboardMaterial</text>
<text text-anchor="middle" x="1017.5" y="-58" font-family="Helvetica,sans-Serif" font-size="10.00">Batch</text>
</a>
</g>
</g>
<!-- Node2 -->
<g id="node2" class="node"><title>Node2</title>
<g id="a_node2"><a xlink:href="../../da/df5/struct_nx_xbox_1_1s_material.html" target="_top" xlink:title=" ">
<polygon fill="white" stroke="black" points="763,-56.5 763,-75.5 858,-75.5 858,-56.5 763,-56.5"/>
<text text-anchor="middle" x="810.5" y="-63.5" font-family="Helvetica,sans-Serif" font-size="10.00">NxXbox::sMaterial</text>
</a>
</g>
</g>
<!-- Node2&#45;&gt;Node1 -->
<g id="edge1" class="edge"><title>Node2&#45;&gt;Node1</title>
<path fill="none" stroke="#9a32cd" stroke-dasharray="5,2" d="M868.29,-66C893.855,-66 924.191,-66 950.738,-66"/>
<polygon fill="#9a32cd" stroke="#9a32cd" points="868.018,-62.5001 858.018,-66 868.018,-69.5001 868.018,-62.5001"/>
<text text-anchor="middle" x="904.5" y="-69" font-family="Helvetica,sans-Serif" font-size="10.00"> mp_material</text>
</g>
<!-- Node3 -->
<g id="node3" class="node"><title>Node3</title>
<g id="a_node3"><a xlink:href="../../d6/dd9/struct_nx_xbox_1_1s_texture.html" target="_top" xlink:title=" ">
<polygon fill="white" stroke="black" points="0,-101.5 0,-120.5 93,-120.5 93,-101.5 0,-101.5"/>
<text text-anchor="middle" x="46.5" y="-108.5" font-family="Helvetica,sans-Serif" font-size="10.00">NxXbox::sTexture</text>
</a>
</g>
</g>
<!-- Node3&#45;&gt;Node2 -->
<g id="edge2" class="edge"><title>Node3&#45;&gt;Node2</title>
<path fill="none" stroke="#9a32cd" stroke-dasharray="5,2" d="M103.274,-111.788C203.685,-112.896 421.516,-113.889 605,-105 667.377,-101.978 684.354,-107.904 745,-93 761.15,-89.031 778.487,-81.5775 791.115,-75.5057"/>
<polygon fill="#9a32cd" stroke="#9a32cd" points="103.101,-108.285 93.0614,-111.67 103.02,-115.285 103.101,-108.285"/>
<text text-anchor="middle" x="396.5" y="-114" font-family="Helvetica,sans-Serif" font-size="10.00"> mp_tex</text>
</g>
<!-- Node9 -->
<g id="node9" class="node"><title>Node9</title>
<g id="a_node9"><a xlink:href="../../d5/d06/struct_nx_xbox_1_1s_texture_wibble_keyframe.html" target="_top" xlink:title=" ">
<polygon fill="white" stroke="black" points="181,-76.5 181,-95.5 345,-95.5 345,-76.5 181,-76.5"/>
<text text-anchor="middle" x="263" y="-83.5" font-family="Helvetica,sans-Serif" font-size="10.00">NxXbox::sTextureWibbleKeyframe</text>
</a>
</g>
</g>
<!-- Node3&#45;&gt;Node9 -->
<g id="edge9" class="edge"><title>Node3&#45;&gt;Node9</title>
<path fill="none" stroke="#9a32cd" stroke-dasharray="5,2" d="M103.287,-100.131C105.89,-99.7269 108.471,-99.3469 111,-99 133.549,-95.9068 158.099,-93.4197 180.724,-91.4823"/>
<polygon fill="#9a32cd" stroke="#9a32cd" points="102.491,-96.7152 93.1934,-101.795 103.629,-103.622 102.491,-96.7152"/>
<text text-anchor="middle" x="137" y="-102" font-family="Helvetica,sans-Serif" font-size="10.00"> mp_texture</text>
</g>
<!-- Node4 -->
<g id="node4" class="node"><title>Node4</title>
<g id="a_node4"><a xlink:href="../../d9/d8f/struct_nx_xbox_1_1s_v_c_wibble_params.html" target="_top" xlink:title=" ">
<polygon fill="white" stroke="black" points="457.5,-38.5 457.5,-57.5 595.5,-57.5 595.5,-38.5 457.5,-38.5"/>
<text text-anchor="middle" x="526.5" y="-45.5" font-family="Helvetica,sans-Serif" font-size="10.00">NxXbox::sVCWibbleParams</text>
</a>
</g>
</g>
<!-- Node4&#45;&gt;Node2 -->
<g id="edge3" class="edge"><title>Node4&#45;&gt;Node2</title>
<path fill="none" stroke="#9a32cd" stroke-dasharray="5,2" d="M605.885,-45.0344C647.381,-44.4837 699.113,-45.4137 745,-51 754.701,-52.181 765.07,-54.2314 774.595,-56.4436"/>
<polygon fill="#9a32cd" stroke="#9a32cd" points="605.779,-41.5355 595.838,-45.199 605.894,-48.5346 605.779,-41.5355"/>
<text text-anchor="middle" x="684" y="-54" font-family="Helvetica,sans-Serif" font-size="10.00"> mp_wibble_vc_params</text>
</g>
<!-- Node5 -->
<g id="node5" class="node"><title>Node5</title>
<g id="a_node5"><a xlink:href="../../dd/d57/struct_nx_xbox_1_1s_v_c_wibble_keyframe.html" target="_top" xlink:title=" ">
<polygon fill="white" stroke="black" points="190,-38.5 190,-57.5 336,-57.5 336,-38.5 190,-38.5"/>
<text text-anchor="middle" x="263" y="-45.5" font-family="Helvetica,sans-Serif" font-size="10.00">NxXbox::sVCWibbleKeyframe</text>
</a>
</g>
</g>
<!-- Node5&#45;&gt;Node4 -->
<g id="edge4" class="edge"><title>Node5&#45;&gt;Node4</title>
<path fill="none" stroke="#9a32cd" stroke-dasharray="5,2" d="M346.522,-48C382.142,-48 423.317,-48 457.186,-48"/>
<polygon fill="#9a32cd" stroke="#9a32cd" points="346.148,-44.5001 336.148,-48 346.148,-51.5001 346.148,-44.5001"/>
<text text-anchor="middle" x="396.5" y="-51" font-family="Helvetica,sans-Serif" font-size="10.00"> mp_keyframes</text>
</g>
<!-- Node6 -->
<g id="node6" class="node"><title>Node6</title>
<g id="a_node6"><a xlink:href="../../da/d6c/struct_image_1_1_r_g_b_a.html" target="_top" xlink:title=" ">
<polygon fill="white" stroke="black" points="8,-38.5 8,-57.5 85,-57.5 85,-38.5 8,-38.5"/>
<text text-anchor="middle" x="46.5" y="-45.5" font-family="Helvetica,sans-Serif" font-size="10.00">Image::RGBA</text>
</a>
</g>
</g>
<!-- Node6&#45;&gt;Node5 -->
<g id="edge5" class="edge"><title>Node6&#45;&gt;Node5</title>
<path fill="none" stroke="#9a32cd" stroke-dasharray="5,2" d="M95.5913,-48C123.35,-48 158.803,-48 189.847,-48"/>
<polygon fill="#9a32cd" stroke="#9a32cd" points="95.3546,-44.5001 85.3545,-48 95.3545,-51.5001 95.3546,-44.5001"/>
<text text-anchor="middle" x="137" y="-51" font-family="Helvetica,sans-Serif" font-size="10.00"> m_color</text>
</g>
<!-- Node7 -->
<g id="node7" class="node"><title>Node7</title>
<g id="a_node7"><a xlink:href="../../d2/d75/struct_nx_xbox_1_1s_u_v_wibble_params.html" target="_top" xlink:title=" ">
<polygon fill="white" stroke="black" points="457.5,-0.5 457.5,-19.5 595.5,-19.5 595.5,-0.5 457.5,-0.5"/>
<text text-anchor="middle" x="526.5" y="-7.5" font-family="Helvetica,sans-Serif" font-size="10.00">NxXbox::sUVWibbleParams</text>
</a>
</g>
</g>
<!-- Node7&#45;&gt;Node2 -->
<g id="edge6" class="edge"><title>Node7&#45;&gt;Node2</title>
<path fill="none" stroke="#9a32cd" stroke-dasharray="5,2" d="M605.733,-9.37969C647.827,-10.9773 700.16,-16.1105 745,-30 763.865,-35.8435 783.374,-47.6841 795.925,-56.1919"/>
<polygon fill="#9a32cd" stroke="#9a32cd" points="605.646,-5.87522 595.539,-9.05371 605.422,-12.8716 605.646,-5.87522"/>
<text text-anchor="middle" x="684" y="-33" font-family="Helvetica,sans-Serif" font-size="10.00"> mp_UVWibbleParams</text>
</g>
<!-- Node8 -->
<g id="node8" class="node"><title>Node8</title>
<g id="a_node8"><a xlink:href="../../d6/da3/struct_nx_xbox_1_1s_texture_wibble_params.html" target="_top" xlink:title=" ">
<polygon fill="white" stroke="black" points="448,-76.5 448,-95.5 605,-95.5 605,-76.5 448,-76.5"/>
<text text-anchor="middle" x="526.5" y="-83.5" font-family="Helvetica,sans-Serif" font-size="10.00">NxXbox::sTextureWibbleParams</text>
</a>
</g>
</g>
<!-- Node8&#45;&gt;Node2 -->
<g id="edge7" class="edge"><title>Node8&#45;&gt;Node2</title>
<path fill="none" stroke="#9a32cd" stroke-dasharray="5,2" d="M615.543,-79.7558C664.275,-76.2997 722.88,-72.1432 762.827,-69.3101"/>
<polygon fill="#9a32cd" stroke="#9a32cd" points="615.032,-76.2832 605.304,-80.482 615.527,-83.2657 615.032,-76.2832"/>
<text text-anchor="middle" x="684" y="-81" font-family="Helvetica,sans-Serif" font-size="10.00"> mp_wibble_texture_params</text>
</g>
<!-- Node9&#45;&gt;Node8 -->
<g id="edge8" class="edge"><title>Node9&#45;&gt;Node8</title>
<path fill="none" stroke="#9a32cd" stroke-dasharray="5,2" d="M355.404,-86C385.559,-86 418.792,-86 447.821,-86"/>
<polygon fill="#9a32cd" stroke="#9a32cd" points="355.307,-82.5001 345.307,-86 355.307,-89.5001 355.307,-82.5001"/>
<text text-anchor="middle" x="396.5" y="-89" font-family="Helvetica,sans-Serif" font-size="10.00"> mp_keyframes</text>
</g>
</g>
</svg>
