<?xml version="1.0" encoding="UTF-8" standalone="no"?>
<!DOCTYPE svg PUBLIC "-//W3C//DTD SVG 1.1//EN"
 "http://www.w3.org/Graphics/SVG/1.1/DTD/svg11.dtd">
<!-- Generated by graphviz version 2.38.0 (20140413.2041)
 -->
<!-- Title: Obj::CModelComponent::SetModelLODDistance Pages: 1 -->
<svg width="664pt" height="116pt"
 viewBox="0.00 0.00 664.00 115.50" xmlns="http://www.w3.org/2000/svg" xmlns:xlink="http://www.w3.org/1999/xlink">
<g id="graph0" class="graph" transform="scale(1 1) rotate(0) translate(4 111.5)">
<title>Obj::CModelComponent::SetModelLODDistance</title>
<polygon fill="white" stroke="none" points="-4,4 -4,-111.5 660,-111.5 660,4 -4,4"/>
<!-- Node1 -->
<g id="node1" class="node"><title>Node1</title>
<g id="a_node1"><a xlink:title=" ">
<polygon fill="#bfbfbf" stroke="black" points="0,-44.5 0,-74.5 122,-74.5 122,-44.5 0,-44.5"/>
<text text-anchor="start" x="8" y="-62.5" font-family="Helvetica,sans-Serif" font-size="10.00">Obj::CModelComponent</text>
<text text-anchor="middle" x="61" y="-51.5" font-family="Helvetica,sans-Serif" font-size="10.00">::SetModelLODDistance</text>
</a>
</g>
</g>
<!-- Node2 -->
<g id="node2" class="node"><title>Node2</title>
<g id="a_node2"><a xlink:href="../../df/de2/_messages_8h.html#a701d7b9cdd94e5f87bc47f4e770492e6" target="_top" xlink:title=" ">
<polygon fill="white" stroke="black" points="188,-88 188,-107 267,-107 267,-88 188,-88"/>
<text text-anchor="middle" x="227.5" y="-95" font-family="Helvetica,sans-Serif" font-size="10.00">Dbg_Message</text>
</a>
</g>
</g>
<!-- Node1&#45;&gt;Node2 -->
<g id="edge1" class="edge"><title>Node1&#45;&gt;Node2</title>
<path fill="none" stroke="midnightblue" d="M122.32,-73.434C140.563,-77.6482 160.359,-82.2212 177.746,-86.2377"/>
<polygon fill="midnightblue" stroke="midnightblue" points="177.144,-89.6907 187.675,-88.5314 178.72,-82.8703 177.144,-89.6907"/>
</g>
<!-- Node3 -->
<g id="node3" class="node"><title>Node3</title>
<g id="a_node3"><a xlink:href="../../d1/d54/namespace_script.html#ae80ed69ea4edcbcbbbd4985a6efdcd6e" target="_top" xlink:title=" ">
<polygon fill="white" stroke="black" points="158,-50 158,-69 297,-69 297,-50 158,-50"/>
<text text-anchor="middle" x="227.5" y="-57" font-family="Helvetica,sans-Serif" font-size="10.00">Script::FindChecksumName</text>
</a>
</g>
</g>
<!-- Node1&#45;&gt;Node3 -->
<g id="edge2" class="edge"><title>Node1&#45;&gt;Node3</title>
<path fill="none" stroke="midnightblue" d="M122.32,-59.5C130.624,-59.5 139.25,-59.5 147.824,-59.5"/>
<polygon fill="midnightblue" stroke="midnightblue" points="147.843,-63.0001 157.843,-59.5 147.843,-56.0001 147.843,-63.0001"/>
</g>
<!-- Node7 -->
<g id="node7" class="node"><title>Node7</title>
<g id="a_node7"><a xlink:href="../../d0/d7e/class_obj_1_1_c_base_component.html#a952f40d99323d28b3ca2f55567edfa85" target="_top" xlink:title=" ">
<polygon fill="white" stroke="black" points="169.5,-0.5 169.5,-30.5 285.5,-30.5 285.5,-0.5 169.5,-0.5"/>
<text text-anchor="start" x="177.5" y="-18.5" font-family="Helvetica,sans-Serif" font-size="10.00">Obj::CBaseComponent</text>
<text text-anchor="middle" x="227.5" y="-7.5" font-family="Helvetica,sans-Serif" font-size="10.00">::GetObject</text>
</a>
</g>
</g>
<!-- Node1&#45;&gt;Node7 -->
<g id="edge6" class="edge"><title>Node1&#45;&gt;Node7</title>
<path fill="none" stroke="midnightblue" d="M118.151,-44.4808C131.708,-40.8548 146.319,-36.9466 160.288,-33.2101"/>
<polygon fill="midnightblue" stroke="midnightblue" points="161.566,-36.4914 170.322,-30.5262 159.758,-29.7291 161.566,-36.4914"/>
</g>
<!-- Node4 -->
<g id="node4" class="node"><title>Node4</title>
<g id="a_node4"><a xlink:href="../../d1/d54/namespace_script.html#a5cc52c4ff5ea5bb27681d819212dfdca" target="_top" xlink:title=" ">
<polygon fill="white" stroke="black" points="333,-69 333,-88 496,-88 496,-69 333,-69"/>
<text text-anchor="middle" x="414.5" y="-76" font-family="Helvetica,sans-Serif" font-size="10.00">Script::FindChecksumNameNULL</text>
</a>
</g>
</g>
<!-- Node3&#45;&gt;Node4 -->
<g id="edge3" class="edge"><title>Node3&#45;&gt;Node4</title>
<path fill="none" stroke="midnightblue" d="M297.124,-66.5479C305.476,-67.4056 314.107,-68.292 322.717,-69.1764"/>
<polygon fill="midnightblue" stroke="midnightblue" points="322.493,-72.6717 332.798,-70.2117 323.208,-65.7083 322.493,-72.6717"/>
</g>
<!-- Node6 -->
<g id="node6" class="node"><title>Node6</title>
<g id="a_node6"><a xlink:href="../../da/d37/namespace_dbg.html#ab406a8cc16de5046c7d9fd09c9de5e22" target="_top" xlink:title=" ">
<polygon fill="white" stroke="black" points="381.5,-31 381.5,-50 447.5,-50 447.5,-31 381.5,-31"/>
<text text-anchor="middle" x="414.5" y="-38" font-family="Helvetica,sans-Serif" font-size="10.00">Dbg::sprintf</text>
</a>
</g>
</g>
<!-- Node3&#45;&gt;Node6 -->
<g id="edge5" class="edge"><title>Node3&#45;&gt;Node6</title>
<path fill="none" stroke="midnightblue" d="M297.124,-52.4521C321.98,-49.8993 349.305,-47.093 371.228,-44.8414"/>
<polygon fill="midnightblue" stroke="midnightblue" points="371.616,-48.3201 381.206,-43.8167 370.901,-41.3567 371.616,-48.3201"/>
</g>
<!-- Node5 -->
<g id="node5" class="node"><title>Node5</title>
<g id="a_node5"><a xlink:href="../../d0/d31/namespace_config.html#a709cc81780d49900157e3476b63aa25d" target="_top" xlink:title=" ">
<polygon fill="white" stroke="black" points="532,-69 532,-88 656,-88 656,-69 532,-69"/>
<text text-anchor="middle" x="594" y="-76" font-family="Helvetica,sans-Serif" font-size="10.00">Config::GotExtraMemory</text>
</a>
</g>
</g>
<!-- Node4&#45;&gt;Node5 -->
<g id="edge4" class="edge"><title>Node4&#45;&gt;Node5</title>
<path fill="none" stroke="midnightblue" d="M496.2,-78.5C504.729,-78.5 513.358,-78.5 521.768,-78.5"/>
<polygon fill="midnightblue" stroke="midnightblue" points="521.898,-82.0001 531.898,-78.5 521.898,-75.0001 521.898,-82.0001"/>
</g>
</g>
</svg>
