<?xml version="1.0" encoding="UTF-8" standalone="no"?>
<!DOCTYPE svg PUBLIC "-//W3C//DTD SVG 1.1//EN"
 "http://www.w3.org/Graphics/SVG/1.1/DTD/svg11.dtd">
<!-- Generated by graphviz version 2.38.0 (20140413.2041)
 -->
<!-- Title: Obj::CModelComponent::CModelComponent Pages: 1 -->
<svg width="477pt" height="39pt"
 viewBox="0.00 0.00 477.00 39.00" xmlns="http://www.w3.org/2000/svg" xmlns:xlink="http://www.w3.org/1999/xlink">
<g id="graph0" class="graph" transform="scale(1 1) rotate(0) translate(4 35)">
<title>Obj::CModelComponent::CModelComponent</title>
<polygon fill="white" stroke="none" points="-4,4 -4,-35 473,-35 473,4 -4,4"/>
<!-- Node1 -->
<g id="node1" class="node"><title>Node1</title>
<g id="a_node1"><a xlink:title=" ">
<polygon fill="#bfbfbf" stroke="black" points="349,-0.5 349,-30.5 469,-30.5 469,-0.5 349,-0.5"/>
<text text-anchor="start" x="357" y="-18.5" font-family="Helvetica,sans-Serif" font-size="10.00">Obj::CModelComponent</text>
<text text-anchor="middle" x="409" y="-7.5" font-family="Helvetica,sans-Serif" font-size="10.00">::CModelComponent</text>
</a>
</g>
</g>
<!-- Node2 -->
<g id="node2" class="node"><title>Node2</title>
<g id="a_node2"><a xlink:href="../../df/d52/class_obj_1_1_c_model_component.html#ab8aa637fbe7eab2b8979fef52da3b324" target="_top" xlink:title=" ">
<polygon fill="white" stroke="black" points="193,-0.5 193,-30.5 313,-30.5 313,-0.5 193,-0.5"/>
<text text-anchor="start" x="201" y="-18.5" font-family="Helvetica,sans-Serif" font-size="10.00">Obj::CModelComponent</text>
<text text-anchor="middle" x="253" y="-7.5" font-family="Helvetica,sans-Serif" font-size="10.00">::s_create</text>
</a>
</g>
</g>
<!-- Node1&#45;&gt;Node2 -->
<g id="edge1" class="edge"><title>Node1&#45;&gt;Node2</title>
<path fill="none" stroke="midnightblue" d="M338.631,-15.5C330.138,-15.5 321.52,-15.5 313.196,-15.5"/>
<polygon fill="midnightblue" stroke="midnightblue" points="338.9,-19.0001 348.9,-15.5 338.9,-12.0001 338.9,-19.0001"/>
</g>
<!-- Node3 -->
<g id="node3" class="node"><title>Node3</title>
<g id="a_node3"><a xlink:href="../../d0/db0/class_obj_1_1_c_composite_object_manager.html#a2599f2c37a76d03666be819fb1087f3b" target="_top" xlink:title=" ">
<polygon fill="white" stroke="black" points="0,-0.5 0,-30.5 157,-30.5 157,-0.5 0,-0.5"/>
<text text-anchor="start" x="8" y="-18.5" font-family="Helvetica,sans-Serif" font-size="10.00">Obj::CCompositeObjectManager</text>
<text text-anchor="middle" x="78.5" y="-7.5" font-family="Helvetica,sans-Serif" font-size="10.00">::CCompositeObjectManager</text>
</a>
</g>
</g>
<!-- Node2&#45;&gt;Node3 -->
<g id="edge2" class="edge"><title>Node2&#45;&gt;Node3</title>
<path fill="none" stroke="midnightblue" d="M182.595,-15.5C174.256,-15.5 165.699,-15.5 157.252,-15.5"/>
<polygon fill="midnightblue" stroke="midnightblue" points="182.635,-19.0001 192.635,-15.5 182.635,-12.0001 182.635,-19.0001"/>
</g>
</g>
</svg>
