<?xml version="1.0" encoding="UTF-8" standalone="no"?>
<!DOCTYPE svg PUBLIC "-//W3C//DTD SVG 1.1//EN"
 "http://www.w3.org/Graphics/SVG/1.1/DTD/svg11.dtd">
<!-- Generated by graphviz version 2.38.0 (20140413.2041)
 -->
<!-- Title: Ed::CParkManager::WriteCompressedMapBuffer Pages: 1 -->
<!--zoomable 800 -->
<svg id="main" version="1.1" xmlns="http://www.w3.org/2000/svg" xmlns:xlink="http://www.w3.org/1999/xlink" xml:space="preserve" onload="init(evt)">
<style type="text/css"><![CDATA[
.edge:hover path { stroke: red; }
.edge:hover polygon { stroke: red; fill: red; }
]]></style>
<script type="text/javascript"><![CDATA[
var edges = document.getElementsByTagName('g');
if (edges && edges.length) {
  for (var i=0;i<edges.length;i++) {
    if (edges[i].id.substr(0,4)=='edge') {
      edges[i].setAttribute('class','edge');
    }
  }
}
]]></script>
        <defs>
                <circle id="rim" cx="0" cy="0" r="7"/>
                <circle id="rim2" cx="0" cy="0" r="3.5"/>
                <g id="zoomPlus">
                        <use xlink:href="#rim" fill="#404040">
                                <set attributeName="fill" to="#808080" begin="zoomplus.mouseover" end="zoomplus.mouseout"/>
                        </use>
                        <path d="M-4,0h8M0,-4v8" fill="none" stroke="white" stroke-width="1.5" pointer-events="none"/>
                </g>
                <g id="zoomMin">
                        <use xlink:href="#rim" fill="#404040">
                                <set attributeName="fill" to="#808080" begin="zoomminus.mouseover" end="zoomminus.mouseout"/>
                        </use>
                        <path d="M-4,0h8" fill="none" stroke="white" stroke-width="1.5" pointer-events="none"/>
                </g>
                <g id="dirArrow">
                        <path fill="none" stroke="white" stroke-width="1.5" d="M0,-3.0v7 M-2.5,-0.5L0,-3.0L2.5,-0.5"/>
                </g>
               <g id="resetDef">
                       <use xlink:href="#rim2" fill="#404040">
                               <set attributeName="fill" to="#808080" begin="reset.mouseover" end="reset.mouseout"/>
                       </use>
               </g>
        </defs>

<script type="text/javascript">
var viewWidth = 1328;
var viewHeight = 800;
var sectionId = 'dynsection-9';
</script>
<script xlink:href="../../svgpan.js"/>
<svg id="graph" class="graph">
<g id="viewport">
<title>Ed::CParkManager::WriteCompressedMapBuffer</title>
<polygon fill="white" stroke="none" points="-4,4 -4,-796 1324,-796 1324,4 -4,4"/>
<!-- Node1 -->
<g id="node1" class="node"><title>Node1</title>
<g id="a_node1"><a xlink:title=" ">
<polygon fill="#bfbfbf" stroke="black" points="0,-375 0,-405 183,-405 183,-375 0,-375"/>
<text text-anchor="start" x="8" y="-393" font-family="Helvetica,sans-Serif" font-size="10.00">Ed::CParkManager::WriteCompressed</text>
<text text-anchor="middle" x="91.5" y="-382" font-family="Helvetica,sans-Serif" font-size="10.00">MapBuffer</text>
</a>
</g>
</g>
<!-- Node2 -->
<g id="node2" class="node"><title>Node2</title>
<g id="a_node2"><a xlink:href="../../d0/d5c/class_ed_1_1_c_park_manager.html#ad0ef32b9d0a3cb11c5bea809bf3b477e" target="_top" xlink:title=" ">
<polygon fill="white" stroke="black" points="219,-375 219,-405 347,-405 347,-375 219,-375"/>
<text text-anchor="start" x="227" y="-393" font-family="Helvetica,sans-Serif" font-size="10.00">Ed::CParkManager::write</text>
<text text-anchor="middle" x="283" y="-382" font-family="Helvetica,sans-Serif" font-size="10.00">_compressed_map_buffer</text>
</a>
</g>
</g>
<!-- Node1&#45;&gt;Node2 -->
<g id="edge1" class="edge"><title>Node1&#45;&gt;Node2</title>
<path fill="none" stroke="midnightblue" d="M183.087,-390C191.679,-390 200.317,-390 208.717,-390"/>
<polygon fill="midnightblue" stroke="midnightblue" points="208.826,-393.5 218.826,-390 208.826,-386.5 208.826,-393.5"/>
</g>
<!-- Node3 -->
<g id="node3" class="node"><title>Node3</title>
<g id="a_node3"><a xlink:href="../../d3/d9b/namespace_crc.html#a60ea952dd05dcbab6d54f8f922f35872" target="_top" xlink:title=" ">
<polygon fill="white" stroke="black" points="394.5,-772.5 394.5,-791.5 553.5,-791.5 553.5,-772.5 394.5,-772.5"/>
<text text-anchor="middle" x="474" y="-779.5" font-family="Helvetica,sans-Serif" font-size="10.00">Crc::GenerateCRCCaseSensitive</text>
</a>
</g>
</g>
<!-- Node2&#45;&gt;Node3 -->
<g id="edge2" class="edge"><title>Node2&#45;&gt;Node3</title>
<path fill="none" stroke="midnightblue" d="M285.922,-405.28C294.228,-468.894 329.08,-711.781 383,-763 384.476,-764.402 386.029,-765.712 387.646,-766.935"/>
<polygon fill="midnightblue" stroke="midnightblue" points="385.899,-769.971 396.222,-772.353 389.637,-764.053 385.899,-769.971"/>
</g>
<!-- Node4 -->
<g id="node4" class="node"><title>Node4</title>
<g id="a_node4"><a xlink:href="../../da/d0e/class_ed_1_1_c_meta_piece.html#a779a762e95c114cc0a329b12dc20c55d" target="_top" xlink:title=" ">
<polygon fill="white" stroke="black" points="409,-734.5 409,-753.5 539,-753.5 539,-734.5 409,-734.5"/>
<text text-anchor="middle" x="474" y="-741.5" font-family="Helvetica,sans-Serif" font-size="10.00">Ed::CMetaPiece::GetArea</text>
</a>
</g>
</g>
<!-- Node2&#45;&gt;Node4 -->
<g id="edge3" class="edge"><title>Node2&#45;&gt;Node4</title>
<path fill="none" stroke="midnightblue" d="M283.455,-405.102C282.43,-457.911 286.551,-635.91 383,-725 387.773,-729.409 393.302,-732.896 399.227,-735.643"/>
<polygon fill="midnightblue" stroke="midnightblue" points="398.222,-739.008 408.81,-739.378 400.763,-732.486 398.222,-739.008"/>
</g>
<!-- Node5 -->
<g id="node5" class="node"><title>Node5</title>
<g id="a_node5"><a xlink:href="../../d1/d54/namespace_script.html#aacb275494688d5b51c565c932f27f76c" target="_top" xlink:title=" ">
<polygon fill="white" stroke="black" points="430.5,-696.5 430.5,-715.5 517.5,-715.5 517.5,-696.5 430.5,-696.5"/>
<text text-anchor="middle" x="474" y="-703.5" font-family="Helvetica,sans-Serif" font-size="10.00">Script::GetArray</text>
</a>
</g>
</g>
<!-- Node2&#45;&gt;Node5 -->
<g id="edge4" class="edge"><title>Node2&#45;&gt;Node5</title>
<path fill="none" stroke="midnightblue" d="M284.112,-405.106C285.343,-454.049 296.215,-609.56 383,-687 393.255,-696.15 406.786,-701.296 420.232,-704.095"/>
<polygon fill="midnightblue" stroke="midnightblue" points="420.001,-707.605 430.442,-705.805 421.158,-700.701 420.001,-707.605"/>
</g>
<!-- Node13 -->
<g id="node13" class="node"><title>Node13</title>
<g id="a_node13"><a xlink:href="../../d0/d0b/class_script_1_1_c_array.html#a5fbc2c9d1db2c87fb4633333ef989559" target="_top" xlink:title=" ">
<polygon fill="white" stroke="black" points="401,-658.5 401,-677.5 547,-677.5 547,-658.5 401,-658.5"/>
<text text-anchor="middle" x="474" y="-665.5" font-family="Helvetica,sans-Serif" font-size="10.00">Script::CArray::GetChecksum</text>
</a>
</g>
</g>
<!-- Node2&#45;&gt;Node13 -->
<g id="edge13" class="edge"><title>Node2&#45;&gt;Node13</title>
<path fill="none" stroke="midnightblue" d="M284.942,-405.08C288.593,-449.86 305.765,-583.033 383,-649 385.692,-651.3 388.593,-653.343 391.647,-655.158"/>
<polygon fill="midnightblue" stroke="midnightblue" points="390.105,-658.301 400.609,-659.69 393.264,-652.054 390.105,-658.301"/>
</g>
<!-- Node14 -->
<g id="node14" class="node"><title>Node14</title>
<g id="a_node14"><a xlink:href="../../d0/dd9/class_ed_1_1_c_map_list_node.html#aa319b53c1f547128d8269d7c1c437f26" target="_top" xlink:title=" ">
<polygon fill="white" stroke="black" points="383.5,-620.5 383.5,-639.5 564.5,-639.5 564.5,-620.5 383.5,-620.5"/>
<text text-anchor="middle" x="474" y="-627.5" font-family="Helvetica,sans-Serif" font-size="10.00">Ed::CMapListNode::GetConcreteMeta</text>
</a>
</g>
</g>
<!-- Node2&#45;&gt;Node14 -->
<g id="edge15" class="edge"><title>Node2&#45;&gt;Node14</title>
<path fill="none" stroke="midnightblue" d="M286.048,-405.185C292.343,-445.587 315.267,-556.356 383,-611 385.066,-612.667 387.244,-614.198 389.509,-615.603"/>
<polygon fill="midnightblue" stroke="midnightblue" points="388.158,-618.847 398.635,-620.421 391.426,-612.657 388.158,-618.847"/>
</g>
<!-- Node17 -->
<g id="node17" class="node"><title>Node17</title>
<g id="a_node17"><a xlink:href="../../d8/d62/class_ed_1_1_c_gap_manager.html#a6e7c6c26972006b4b54f696ff08f750e" target="_top" xlink:title=" ">
<polygon fill="white" stroke="black" points="383.5,-582.5 383.5,-601.5 564.5,-601.5 564.5,-582.5 383.5,-582.5"/>
<text text-anchor="middle" x="474" y="-589.5" font-family="Helvetica,sans-Serif" font-size="10.00">Ed::CGapManager::GetGapDescriptor</text>
</a>
</g>
</g>
<!-- Node2&#45;&gt;Node17 -->
<g id="edge18" class="edge"><title>Node2&#45;&gt;Node17</title>
<path fill="none" stroke="midnightblue" d="M287.553,-405.164C296.697,-440.641 324.539,-529.338 383,-573 385.479,-574.851 388.098,-576.531 390.822,-578.055"/>
<polygon fill="midnightblue" stroke="midnightblue" points="389.309,-581.211 399.836,-582.41 392.354,-574.908 389.309,-581.211"/>
</g>
<!-- Node18 -->
<g id="node18" class="node"><title>Node18</title>
<g id="a_node18"><a xlink:href="../../d0/d5c/class_ed_1_1_c_park_manager.html#ad22855adba0684ae2c95f3be81621a53" target="_top" xlink:title=" ">
<polygon fill="white" stroke="black" points="392,-544.5 392,-563.5 556,-563.5 556,-544.5 392,-544.5"/>
<text text-anchor="middle" x="474" y="-551.5" font-family="Helvetica,sans-Serif" font-size="10.00">Ed::CParkManager::GetGenerator</text>
</a>
</g>
</g>
<!-- Node2&#45;&gt;Node18 -->
<g id="edge19" class="edge"><title>Node2&#45;&gt;Node18</title>
<path fill="none" stroke="midnightblue" d="M289.771,-405.143C302.02,-435.112 333.606,-501.936 383,-535 385.942,-536.97 389.05,-538.741 392.273,-540.333"/>
<polygon fill="midnightblue" stroke="midnightblue" points="391.047,-543.616 401.616,-544.361 393.819,-537.188 391.047,-543.616"/>
</g>
<!-- Node19 -->
<g id="node19" class="node"><title>Node19</title>
<g id="a_node19"><a xlink:href="../../da/d40/class_ed_1_1_grid_dims.html#aa217013df258b0b0f48a7440fc962894" target="_top" xlink:title=" ">
<polygon fill="white" stroke="black" points="423,-506.5 423,-525.5 525,-525.5 525,-506.5 423,-506.5"/>
<text text-anchor="middle" x="474" y="-513.5" font-family="Helvetica,sans-Serif" font-size="10.00">Ed::GridDims::GetL</text>
</a>
</g>
</g>
<!-- Node2&#45;&gt;Node19 -->
<g id="edge20" class="edge"><title>Node2&#45;&gt;Node19</title>
<path fill="none" stroke="midnightblue" d="M293.477,-405.177C309.075,-428.796 342.499,-474.018 383,-497 392.157,-502.196 402.567,-505.976 412.977,-508.724"/>
<polygon fill="midnightblue" stroke="midnightblue" points="412.381,-512.18 422.917,-511.056 413.98,-505.365 412.381,-512.18"/>
</g>
<!-- Node20 -->
<g id="node20" class="node"><title>Node20</title>
<g id="a_node20"><a xlink:href="../../de/d42/class_ed_1_1_c_park_generator.html#a9d754a17af088d27a2312d2d48d0ad83" target="_top" xlink:title=" ">
<polygon fill="white" stroke="black" points="422,-457 422,-487 526,-487 526,-457 422,-457"/>
<text text-anchor="start" x="430" y="-475" font-family="Helvetica,sans-Serif" font-size="10.00">Ed::CParkGenerator</text>
<text text-anchor="middle" x="474" y="-464" font-family="Helvetica,sans-Serif" font-size="10.00">::GetMaxPlayers</text>
</a>
</g>
</g>
<!-- Node2&#45;&gt;Node20 -->
<g id="edge21" class="edge"><title>Node2&#45;&gt;Node20</title>
<path fill="none" stroke="midnightblue" d="M306.361,-405.062C325.898,-417.678 355.378,-435.43 383,-447 392.199,-450.853 402.172,-454.298 412.017,-457.308"/>
<polygon fill="midnightblue" stroke="midnightblue" points="411.204,-460.717 421.785,-460.172 413.174,-454 411.204,-460.717"/>
</g>
<!-- Node21 -->
<g id="node21" class="node"><title>Node21</title>
<g id="a_node21"><a xlink:href="../../da/d0e/class_ed_1_1_c_meta_piece.html#a5dc06726540952954198c06c4b57d5e4" target="_top" xlink:title=" ">
<polygon fill="white" stroke="black" points="383,-418.5 383,-437.5 565,-437.5 565,-418.5 383,-418.5"/>
<text text-anchor="middle" x="474" y="-425.5" font-family="Helvetica,sans-Serif" font-size="10.00">Ed::CMetaPiece::GetNameChecksum</text>
</a>
</g>
</g>
<!-- Node2&#45;&gt;Node21 -->
<g id="edge22" class="edge"><title>Node2&#45;&gt;Node21</title>
<path fill="none" stroke="midnightblue" d="M347.197,-402.706C369.338,-407.158 394.064,-412.129 415.695,-416.478"/>
<polygon fill="midnightblue" stroke="midnightblue" points="415.224,-419.954 425.717,-418.493 416.603,-413.091 415.224,-419.954"/>
</g>
<!-- Node22 -->
<g id="node22" class="node"><title>Node22</title>
<g id="a_node22"><a xlink:href="../../d0/dd9/class_ed_1_1_c_map_list_node.html#aba7a13d6c044e9d0b77963dff8a6f4fe" target="_top" xlink:title=" ">
<polygon fill="white" stroke="black" points="404,-380.5 404,-399.5 544,-399.5 544,-380.5 404,-380.5"/>
<text text-anchor="middle" x="474" y="-387.5" font-family="Helvetica,sans-Serif" font-size="10.00">Ed::CMapListNode::GetNext</text>
</a>
</g>
</g>
<!-- Node2&#45;&gt;Node22 -->
<g id="edge23" class="edge"><title>Node2&#45;&gt;Node22</title>
<path fill="none" stroke="midnightblue" d="M347.197,-390C362.074,-390 378.118,-390 393.606,-390"/>
<polygon fill="midnightblue" stroke="midnightblue" points="393.686,-393.5 403.686,-390 393.686,-386.5 393.686,-393.5"/>
</g>
<!-- Node23 -->
<g id="node23" class="node"><title>Node23</title>
<g id="a_node23"><a xlink:href="../../da/d0e/class_ed_1_1_c_meta_piece.html#a86d8b76a63b14fbe84d4eede0e6249ca" target="_top" xlink:title=" ">
<polygon fill="white" stroke="black" points="411.5,-342.5 411.5,-361.5 536.5,-361.5 536.5,-342.5 411.5,-342.5"/>
<text text-anchor="middle" x="474" y="-349.5" font-family="Helvetica,sans-Serif" font-size="10.00">Ed::CMetaPiece::GetRot</text>
</a>
</g>
</g>
<!-- Node2&#45;&gt;Node23 -->
<g id="edge24" class="edge"><title>Node2&#45;&gt;Node23</title>
<path fill="none" stroke="midnightblue" d="M347.197,-377.294C369.338,-372.842 394.064,-367.871 415.695,-363.522"/>
<polygon fill="midnightblue" stroke="midnightblue" points="416.603,-366.909 425.717,-361.507 415.224,-360.046 416.603,-366.909"/>
</g>
<!-- Node24 -->
<g id="node24" class="node"><title>Node24</title>
<g id="a_node24"><a xlink:href="../../d0/d0b/class_script_1_1_c_array.html#a71c761bdce14193b10bf3c88372ba5a0" target="_top" xlink:title=" ">
<polygon fill="white" stroke="black" points="414.5,-304.5 414.5,-323.5 533.5,-323.5 533.5,-304.5 414.5,-304.5"/>
<text text-anchor="middle" x="474" y="-311.5" font-family="Helvetica,sans-Serif" font-size="10.00">Script::CArray::GetSize</text>
</a>
</g>
</g>
<!-- Node2&#45;&gt;Node24 -->
<g id="edge25" class="edge"><title>Node2&#45;&gt;Node24</title>
<path fill="none" stroke="midnightblue" d="M305.8,-374.753C325.221,-361.843 354.843,-343.767 383,-333 389.949,-330.343 397.349,-328.024 404.806,-326.007"/>
<polygon fill="midnightblue" stroke="midnightblue" points="405.772,-329.373 414.609,-323.528 404.056,-322.587 405.772,-329.373"/>
</g>
<!-- Node25 -->
<g id="node25" class="node"><title>Node25</title>
<g id="a_node25"><a xlink:href="../../da/d40/class_ed_1_1_grid_dims.html#aa466bafadbcc9108699d380b7436d774" target="_top" xlink:title=" ">
<polygon fill="white" stroke="black" points="420.5,-266.5 420.5,-285.5 527.5,-285.5 527.5,-266.5 420.5,-266.5"/>
<text text-anchor="middle" x="474" y="-273.5" font-family="Helvetica,sans-Serif" font-size="10.00">Ed::GridDims::GetW</text>
</a>
</g>
</g>
<!-- Node2&#45;&gt;Node25 -->
<g id="edge26" class="edge"><title>Node2&#45;&gt;Node25</title>
<path fill="none" stroke="midnightblue" d="M295.251,-374.796C311.923,-353.437 345.306,-314.932 383,-295 391.487,-290.512 400.951,-287.084 410.465,-284.466"/>
<polygon fill="midnightblue" stroke="midnightblue" points="411.491,-287.818 420.359,-282.02 409.812,-281.022 411.491,-287.818"/>
</g>
<!-- Node26 -->
<g id="node26" class="node"><title>Node26</title>
<g id="a_node26"><a xlink:href="../../da/d40/class_ed_1_1_grid_dims.html#a4e9259b675305e05c438df2c7c6b6623" target="_top" xlink:title=" ">
<polygon fill="white" stroke="black" points="423,-228.5 423,-247.5 525,-247.5 525,-228.5 423,-228.5"/>
<text text-anchor="middle" x="474" y="-235.5" font-family="Helvetica,sans-Serif" font-size="10.00">Ed::GridDims::GetX</text>
</a>
</g>
</g>
<!-- Node2&#45;&gt;Node26 -->
<g id="edge27" class="edge"><title>Node2&#45;&gt;Node26</title>
<path fill="none" stroke="midnightblue" d="M290.742,-374.806C304.04,-346.712 336.455,-286.8 383,-257 391.969,-251.258 402.372,-247.218 412.854,-244.383"/>
<polygon fill="midnightblue" stroke="midnightblue" points="413.954,-247.72 422.884,-242.018 412.348,-240.907 413.954,-247.72"/>
</g>
<!-- Node27 -->
<g id="node27" class="node"><title>Node27</title>
<g id="a_node27"><a xlink:href="../../da/d40/class_ed_1_1_grid_dims.html#ae56ca588726bbd9f9488b7d918921dd5" target="_top" xlink:title=" ">
<polygon fill="white" stroke="black" points="422,-190.5 422,-209.5 526,-209.5 526,-190.5 422,-190.5"/>
<text text-anchor="middle" x="474" y="-197.5" font-family="Helvetica,sans-Serif" font-size="10.00">Ed::GridDims::GetY</text>
</a>
</g>
</g>
<!-- Node2&#45;&gt;Node27 -->
<g id="edge28" class="edge"><title>Node2&#45;&gt;Node27</title>
<path fill="none" stroke="midnightblue" d="M288.164,-374.811C298.269,-340.982 327.443,-259.255 383,-219 391.526,-212.822 401.629,-208.567 411.933,-205.652"/>
<polygon fill="midnightblue" stroke="midnightblue" points="412.935,-209.011 421.827,-203.251 411.284,-202.208 412.935,-209.011"/>
</g>
<!-- Node28 -->
<g id="node28" class="node"><title>Node28</title>
<g id="a_node28"><a xlink:href="../../da/d40/class_ed_1_1_grid_dims.html#a06968ecf1786f6998b51088d4a5becc8" target="_top" xlink:title=" ">
<polygon fill="white" stroke="black" points="423,-152.5 423,-171.5 525,-171.5 525,-152.5 423,-152.5"/>
<text text-anchor="middle" x="474" y="-159.5" font-family="Helvetica,sans-Serif" font-size="10.00">Ed::GridDims::GetZ</text>
</a>
</g>
</g>
<!-- Node2&#45;&gt;Node28 -->
<g id="edge29" class="edge"><title>Node2&#45;&gt;Node28</title>
<path fill="none" stroke="midnightblue" d="M286.477,-374.778C293.656,-335.845 318.239,-232.122 383,-181 391.637,-174.182 402.145,-169.658 412.891,-166.686"/>
<polygon fill="midnightblue" stroke="midnightblue" points="413.84,-170.059 422.78,-164.373 412.245,-163.243 413.84,-170.059"/>
</g>
<!-- Node29 -->
<g id="node29" class="node"><title>Node29</title>
<g id="a_node29"><a xlink:href="../../da/d0e/class_ed_1_1_c_meta_piece.html#adc0893aa1b81d3131b52a2db9544c096" target="_top" xlink:title=" ">
<polygon fill="white" stroke="black" points="402,-114.5 402,-133.5 546,-133.5 546,-114.5 402,-114.5"/>
<text text-anchor="middle" x="474" y="-121.5" font-family="Helvetica,sans-Serif" font-size="10.00">Ed::CMetaPiece::IsInnerShell</text>
</a>
</g>
</g>
<!-- Node2&#45;&gt;Node29 -->
<g id="edge30" class="edge"><title>Node2&#45;&gt;Node29</title>
<path fill="none" stroke="midnightblue" d="M285.246,-374.986C289.689,-331.639 308.725,-205.412 383,-143 385.923,-140.544 389.085,-138.381 392.415,-136.478"/>
<polygon fill="midnightblue" stroke="midnightblue" points="394.114,-139.543 401.578,-132.023 391.054,-133.248 394.114,-139.543"/>
</g>
<!-- Node30 -->
<g id="node30" class="node"><title>Node30</title>
<g id="a_node30"><a xlink:href="../../da/d0e/class_ed_1_1_c_meta_piece.html#a3fef4af6f589d591e507df93c039793e" target="_top" xlink:title=" ">
<polygon fill="white" stroke="black" points="409.5,-76.5 409.5,-95.5 538.5,-95.5 538.5,-76.5 409.5,-76.5"/>
<text text-anchor="middle" x="474" y="-83.5" font-family="Helvetica,sans-Serif" font-size="10.00">Ed::CMetaPiece::IsInPark</text>
</a>
</g>
</g>
<!-- Node2&#45;&gt;Node30 -->
<g id="edge31" class="edge"><title>Node2&#45;&gt;Node30</title>
<path fill="none" stroke="midnightblue" d="M284.356,-374.821C286.343,-327.076 299.289,-178.756 383,-105 387.875,-100.705 393.474,-97.2946 399.444,-94.5971"/>
<polygon fill="midnightblue" stroke="midnightblue" points="400.984,-97.7556 409.079,-90.9198 398.488,-91.2157 400.984,-97.7556"/>
</g>
<!-- Node31 -->
<g id="node31" class="node"><title>Node31</title>
<g id="a_node31"><a xlink:href="../../da/d0e/class_ed_1_1_c_meta_piece.html#a9c273fa6f8cfd6890d6e7b0c1e2c8ab0" target="_top" xlink:title=" ">
<polygon fill="white" stroke="black" points="412,-38.5 412,-57.5 536,-57.5 536,-38.5 412,-38.5"/>
<text text-anchor="middle" x="474" y="-45.5" font-family="Helvetica,sans-Serif" font-size="10.00">Ed::CMetaPiece::IsRiser</text>
</a>
</g>
</g>
<!-- Node2&#45;&gt;Node31 -->
<g id="edge32" class="edge"><title>Node2&#45;&gt;Node31</title>
<path fill="none" stroke="midnightblue" d="M283.646,-374.71C283.333,-322.872 289.724,-152.293 383,-67 388.51,-61.962 395.008,-58.1304 401.951,-55.2326"/>
<polygon fill="midnightblue" stroke="midnightblue" points="403.364,-58.4462 411.643,-51.8343 401.048,-51.8405 403.364,-58.4462"/>
</g>
<!-- Node32 -->
<g id="node32" class="node"><title>Node32</title>
<g id="a_node32"><a xlink:href="../../d6/d71/_park_gen_8h.html#a659b9a568467738a77e1c327b0da801e" target="_top" xlink:title=" ">
<polygon fill="white" stroke="black" points="449.5,-0.5 449.5,-19.5 498.5,-19.5 498.5,-0.5 449.5,-0.5"/>
<text text-anchor="middle" x="474" y="-7.5" font-family="Helvetica,sans-Serif" font-size="10.00">ParkEd</text>
</a>
</g>
</g>
<!-- Node2&#45;&gt;Node32 -->
<g id="edge33" class="edge"><title>Node2&#45;&gt;Node32</title>
<path fill="none" stroke="midnightblue" d="M286.055,-374.787C294.766,-312.558 330.613,-78.3541 383,-29 397.838,-15.0209 420.257,-10.2588 439.007,-8.99755"/>
<polygon fill="midnightblue" stroke="midnightblue" points="439.392,-12.4858 449.256,-8.61826 439.133,-5.49059 439.392,-12.4858"/>
</g>
<!-- Node6 -->
<g id="node6" class="node"><title>Node6</title>
<g id="a_node6"><a xlink:href="../../d1/d54/namespace_script.html#ae80ed69ea4edcbcbbbd4985a6efdcd6e" target="_top" xlink:title=" ">
<polygon fill="white" stroke="black" points="822,-734.5 822,-753.5 961,-753.5 961,-734.5 822,-734.5"/>
<text text-anchor="middle" x="891.5" y="-741.5" font-family="Helvetica,sans-Serif" font-size="10.00">Script::FindChecksumName</text>
</a>
</g>
</g>
<!-- Node5&#45;&gt;Node6 -->
<g id="edge5" class="edge"><title>Node5&#45;&gt;Node6</title>
<path fill="none" stroke="midnightblue" d="M517.748,-713.36C542.085,-717.32 573.177,-721.995 601,-725 672.097,-732.68 753.377,-737.685 811.677,-740.62"/>
<polygon fill="midnightblue" stroke="midnightblue" points="811.762,-744.129 821.923,-741.127 812.108,-737.137 811.762,-744.129"/>
</g>
<!-- Node10 -->
<g id="node10" class="node"><title>Node10</title>
<g id="a_node10"><a xlink:href="../../d1/d54/namespace_script.html#af32f99ba26ca0f255240413a4e23a754" target="_top" xlink:title=" ">
<polygon fill="white" stroke="black" points="638.5,-658.5 638.5,-677.5 748.5,-677.5 748.5,-658.5 638.5,-658.5"/>
<text text-anchor="middle" x="693.5" y="-665.5" font-family="Helvetica,sans-Serif" font-size="10.00">Script::GetTypeName</text>
</a>
</g>
</g>
<!-- Node5&#45;&gt;Node10 -->
<g id="edge9" class="edge"><title>Node5&#45;&gt;Node10</title>
<path fill="none" stroke="midnightblue" d="M517.711,-698.538C549.127,-693.049 592.375,-685.493 627.991,-679.271"/>
<polygon fill="midnightblue" stroke="midnightblue" points="629.048,-682.639 638.296,-677.47 627.843,-675.743 629.048,-682.639"/>
</g>
<!-- Node11 -->
<g id="node11" class="node"><title>Node11</title>
<g id="a_node11"><a xlink:href="../../d1/d54/namespace_script.html#a43181580ea5d38e4bf1aa19ccd5e9e85" target="_top" xlink:title=" ">
<polygon fill="white" stroke="black" points="652.5,-696.5 652.5,-715.5 734.5,-715.5 734.5,-696.5 652.5,-696.5"/>
<text text-anchor="middle" x="693.5" y="-703.5" font-family="Helvetica,sans-Serif" font-size="10.00">Script::Resolve</text>
</a>
</g>
</g>
<!-- Node5&#45;&gt;Node11 -->
<g id="edge10" class="edge"><title>Node5&#45;&gt;Node11</title>
<path fill="none" stroke="midnightblue" d="M517.711,-706C553.446,-706 604.49,-706 642.197,-706"/>
<polygon fill="midnightblue" stroke="midnightblue" points="642.455,-709.5 652.455,-706 642.455,-702.5 642.455,-709.5"/>
</g>
<!-- Node7 -->
<g id="node7" class="node"><title>Node7</title>
<g id="a_node7"><a xlink:href="../../d1/d54/namespace_script.html#a5cc52c4ff5ea5bb27681d819212dfdca" target="_top" xlink:title=" ">
<polygon fill="white" stroke="black" points="997,-753.5 997,-772.5 1160,-772.5 1160,-753.5 997,-753.5"/>
<text text-anchor="middle" x="1078.5" y="-760.5" font-family="Helvetica,sans-Serif" font-size="10.00">Script::FindChecksumNameNULL</text>
</a>
</g>
</g>
<!-- Node6&#45;&gt;Node7 -->
<g id="edge6" class="edge"><title>Node6&#45;&gt;Node7</title>
<path fill="none" stroke="midnightblue" d="M961.124,-751.048C969.476,-751.906 978.107,-752.792 986.717,-753.676"/>
<polygon fill="midnightblue" stroke="midnightblue" points="986.493,-757.172 996.798,-754.712 987.208,-750.208 986.493,-757.172"/>
</g>
<!-- Node9 -->
<g id="node9" class="node"><title>Node9</title>
<g id="a_node9"><a xlink:href="../../da/d37/namespace_dbg.html#ab406a8cc16de5046c7d9fd09c9de5e22" target="_top" xlink:title=" ">
<polygon fill="white" stroke="black" points="1045.5,-715.5 1045.5,-734.5 1111.5,-734.5 1111.5,-715.5 1045.5,-715.5"/>
<text text-anchor="middle" x="1078.5" y="-722.5" font-family="Helvetica,sans-Serif" font-size="10.00">Dbg::sprintf</text>
</a>
</g>
</g>
<!-- Node6&#45;&gt;Node9 -->
<g id="edge8" class="edge"><title>Node6&#45;&gt;Node9</title>
<path fill="none" stroke="midnightblue" d="M961.124,-736.952C985.98,-734.399 1013.31,-731.593 1035.23,-729.341"/>
<polygon fill="midnightblue" stroke="midnightblue" points="1035.62,-732.82 1045.21,-728.317 1034.9,-725.857 1035.62,-732.82"/>
</g>
<!-- Node8 -->
<g id="node8" class="node"><title>Node8</title>
<g id="a_node8"><a xlink:href="../../d0/d31/namespace_config.html#a709cc81780d49900157e3476b63aa25d" target="_top" xlink:title=" ">
<polygon fill="white" stroke="black" points="1196,-753.5 1196,-772.5 1320,-772.5 1320,-753.5 1196,-753.5"/>
<text text-anchor="middle" x="1258" y="-760.5" font-family="Helvetica,sans-Serif" font-size="10.00">Config::GotExtraMemory</text>
</a>
</g>
</g>
<!-- Node7&#45;&gt;Node8 -->
<g id="edge7" class="edge"><title>Node7&#45;&gt;Node8</title>
<path fill="none" stroke="midnightblue" d="M1160.2,-763C1168.73,-763 1177.36,-763 1185.77,-763"/>
<polygon fill="midnightblue" stroke="midnightblue" points="1185.9,-766.5 1195.9,-763 1185.9,-759.5 1185.9,-766.5"/>
</g>
<!-- Node11&#45;&gt;Node6 -->
<g id="edge11" class="edge"><title>Node11&#45;&gt;Node6</title>
<path fill="none" stroke="midnightblue" d="M734.636,-713.782C762.529,-719.189 800.164,-726.486 831.465,-732.554"/>
<polygon fill="midnightblue" stroke="midnightblue" points="830.901,-736.01 841.385,-734.478 832.234,-729.138 830.901,-736.01"/>
</g>
<!-- Node12 -->
<g id="node12" class="node"><title>Node12</title>
<g id="a_node12"><a xlink:href="../../d1/d54/namespace_script.html#af293a36c230b10de7d8151c2990b233b" target="_top" xlink:title=" ">
<polygon fill="white" stroke="black" points="834.5,-696.5 834.5,-715.5 948.5,-715.5 948.5,-696.5 834.5,-696.5"/>
<text text-anchor="middle" x="891.5" y="-703.5" font-family="Helvetica,sans-Serif" font-size="10.00">Script::LookUpSymbol</text>
</a>
</g>
</g>
<!-- Node11&#45;&gt;Node12 -->
<g id="edge12" class="edge"><title>Node11&#45;&gt;Node12</title>
<path fill="none" stroke="midnightblue" d="M734.636,-706C760.384,-706 794.434,-706 824.139,-706"/>
<polygon fill="midnightblue" stroke="midnightblue" points="824.444,-709.5 834.444,-706 824.444,-702.5 824.444,-709.5"/>
</g>
<!-- Node13&#45;&gt;Node10 -->
<g id="edge14" class="edge"><title>Node13&#45;&gt;Node10</title>
<path fill="none" stroke="midnightblue" d="M547.122,-668C573.315,-668 602.717,-668 628.19,-668"/>
<polygon fill="midnightblue" stroke="midnightblue" points="628.477,-671.5 638.477,-668 628.477,-664.5 628.477,-671.5"/>
</g>
<!-- Node15 -->
<g id="node15" class="node"><title>Node15</title>
<g id="a_node15"><a xlink:href="../../da/d0e/class_ed_1_1_c_meta_piece.html#a6d64288efc48c87c86b7e028a052aecb" target="_top" xlink:title=" ">
<polygon fill="white" stroke="black" points="601,-620.5 601,-639.5 786,-639.5 786,-620.5 601,-620.5"/>
<text text-anchor="middle" x="693.5" y="-627.5" font-family="Helvetica,sans-Serif" font-size="10.00">Ed::CMetaPiece::CastToConcreteMeta</text>
</a>
</g>
</g>
<!-- Node14&#45;&gt;Node15 -->
<g id="edge16" class="edge"><title>Node14&#45;&gt;Node15</title>
<path fill="none" stroke="midnightblue" d="M564.721,-630C573.3,-630 582.042,-630 590.724,-630"/>
<polygon fill="midnightblue" stroke="midnightblue" points="590.876,-633.5 600.876,-630 590.876,-626.5 590.876,-633.5"/>
</g>
<!-- Node16 -->
<g id="node16" class="node"><title>Node16</title>
<g id="a_node16"><a xlink:href="../../d0/dd9/class_ed_1_1_c_map_list_node.html#ae05673d59a4b45cd6e5cafbaa4095e09" target="_top" xlink:title=" ">
<polygon fill="white" stroke="black" points="622.5,-582.5 622.5,-601.5 764.5,-601.5 764.5,-582.5 622.5,-582.5"/>
<text text-anchor="middle" x="693.5" y="-589.5" font-family="Helvetica,sans-Serif" font-size="10.00">Ed::CMapListNode::GetMeta</text>
</a>
</g>
</g>
<!-- Node14&#45;&gt;Node16 -->
<g id="edge17" class="edge"><title>Node14&#45;&gt;Node16</title>
<path fill="none" stroke="midnightblue" d="M529.604,-620.46C559.466,-615.243 596.643,-608.747 627.937,-603.28"/>
<polygon fill="midnightblue" stroke="midnightblue" points="628.625,-606.713 637.874,-601.544 627.421,-599.817 628.625,-606.713"/>
</g>
</g>
</svg>
        <g id="navigator" transform="translate(0 0)" fill="#404254">
                <rect fill="#f2f5e9" fill-opacity="0.5" stroke="#606060" stroke-width=".5" x="0" y="0" width="60" height="60"/>
                <use id="zoomplus" xlink:href="#zoomPlus" x="17" y="9" onmousedown="handleZoom(evt,'in')"/>
                <use id="zoomminus" xlink:href="#zoomMin" x="42" y="9" onmousedown="handleZoom(evt,'out')"/>
                <use id="reset" xlink:href="#resetDef" x="30" y="36" onmousedown="handleReset()"/>
                <g id="arrowUp" xlink:href="#dirArrow" transform="translate(30 24)" onmousedown="handlePan(0,-1)">
                  <use xlink:href="#rim" fill="#404040">
                        <set attributeName="fill" to="#808080" begin="arrowUp.mouseover" end="arrowUp.mouseout"/>
                  </use>
                  <path fill="none" stroke="white" stroke-width="1.5" d="M0,-3.0v7 M-2.5,-0.5L0,-3.0L2.5,-0.5"/>
                </g>
                <g id="arrowRight" xlink:href="#dirArrow" transform="rotate(90) translate(36 -43)" onmousedown="handlePan(1,0)">
                  <use xlink:href="#rim" fill="#404040">
                        <set attributeName="fill" to="#808080" begin="arrowRight.mouseover" end="arrowRight.mouseout"/>
                  </use>
                  <path fill="none" stroke="white" stroke-width="1.5" d="M0,-3.0v7 M-2.5,-0.5L0,-3.0L2.5,-0.5"/>
                </g>
                <g id="arrowDown" xlink:href="#dirArrow" transform="rotate(180) translate(-30 -48)" onmousedown="handlePan(0,1)">
                  <use xlink:href="#rim" fill="#404040">
                        <set attributeName="fill" to="#808080" begin="arrowDown.mouseover" end="arrowDown.mouseout"/>
                  </use>
                  <path fill="none" stroke="white" stroke-width="1.5" d="M0,-3.0v7 M-2.5,-0.5L0,-3.0L2.5,-0.5"/>
                </g>
                <g id="arrowLeft" xlink:href="#dirArrow" transform="rotate(270) translate(-36 17)" onmousedown="handlePan(-1,0)">
                  <use xlink:href="#rim" fill="#404040">
                        <set attributeName="fill" to="#808080" begin="arrowLeft.mouseover" end="arrowLeft.mouseout"/>
                  </use>
                  <path fill="none" stroke="white" stroke-width="1.5" d="M0,-3.0v7 M-2.5,-0.5L0,-3.0L2.5,-0.5"/>
                </g>
        </g>
        <svg viewBox="0 0 15 15" width="100%" height="30px" preserveAspectRatio="xMaxYMin meet">
         <g id="arrow_out" transform="scale(0.3 0.3)">
          <a xlink:href="class_ed_1_1_c_park_manager_a534da0c8b079c89533660449eb0124a0_cgraph_org.svg" target="_base">
           <rect id="button" ry="5" rx="5" y="6" x="6" height="38" width="38"
                fill="#f2f5e9" fill-opacity="0.5" stroke="#606060" stroke-width="1.0"/>
           <path id="arrow"
             d="M 11.500037,31.436501 C 11.940474,20.09759 22.043105,11.32322 32.158766,21.979434 L 37.068811,17.246167 C 37.068811,17.246167 37.088388,32 37.088388,32 L 22.160133,31.978069 C 22.160133,31.978069 26.997745,27.140456 26.997745,27.140456 C 18.528582,18.264221 13.291696,25.230495 11.500037,31.436501 z"
             style="fill:#404040;"/>
          </a>
         </g>
        </svg>
</svg>
