<?xml version="1.0" encoding="UTF-8" standalone="no"?>
<!DOCTYPE svg PUBLIC "-//W3C//DTD SVG 1.1//EN"
 "http://www.w3.org/Graphics/SVG/1.1/DTD/svg11.dtd">
<!-- Generated by graphviz version 2.38.0 (20140413.2041)
 -->
<!-- Title: Ed::CParkManager::RebuildFloor Pages: 1 -->
<svg width="479pt" height="176pt"
 viewBox="0.00 0.00 479.00 175.50" xmlns="http://www.w3.org/2000/svg" xmlns:xlink="http://www.w3.org/1999/xlink">
<g id="graph0" class="graph" transform="scale(1 1) rotate(0) translate(4 171.5)">
<title>Ed::CParkManager::RebuildFloor</title>
<polygon fill="white" stroke="none" points="-4,4 -4,-171.5 475,-171.5 475,4 -4,4"/>
<!-- Node1 -->
<g id="node1" class="node"><title>Node1</title>
<g id="a_node1"><a xlink:title=" ">
<polygon fill="#bfbfbf" stroke="black" points="334,-63 334,-93 471,-93 471,-63 334,-63"/>
<text text-anchor="start" x="342" y="-81" font-family="Helvetica,sans-Serif" font-size="10.00">Ed::CParkManager::Rebuild</text>
<text text-anchor="middle" x="402.5" y="-70" font-family="Helvetica,sans-Serif" font-size="10.00">Floor</text>
</a>
</g>
</g>
<!-- Node2 -->
<g id="node2" class="node"><title>Node2</title>
<g id="a_node2"><a xlink:href="../../d0/d5c/class_ed_1_1_c_park_manager.html#af3606842ce6881d602a97a4b940f4db3" target="_top" xlink:title=" ">
<polygon fill="white" stroke="black" points="153,-137 153,-167 291,-167 291,-137 153,-137"/>
<text text-anchor="start" x="161" y="-155" font-family="Helvetica,sans-Serif" font-size="10.00">Ed::CParkManager::Change</text>
<text text-anchor="middle" x="222" y="-144" font-family="Helvetica,sans-Serif" font-size="10.00">FloorHeight</text>
</a>
</g>
</g>
<!-- Node1&#45;&gt;Node2 -->
<g id="edge1" class="edge"><title>Node1&#45;&gt;Node2</title>
<path fill="none" stroke="midnightblue" d="M363.886,-97.7465C344.497,-107.519 320.298,-119.097 298,-128 290.128,-131.143 281.67,-134.171 273.371,-136.956"/>
<polygon fill="midnightblue" stroke="midnightblue" points="365.664,-100.769 372.988,-93.1137 362.488,-94.5305 365.664,-100.769"/>
</g>
<!-- Node3 -->
<g id="node3" class="node"><title>Node3</title>
<g id="a_node3"><a xlink:href="../../d0/d5c/class_ed_1_1_c_park_manager.html#ade3a39b0d9543b7a036317bc25214e51" target="_top" xlink:title=" ">
<polygon fill="white" stroke="black" points="152.5,-88 152.5,-118 291.5,-118 291.5,-88 152.5,-88"/>
<text text-anchor="start" x="160.5" y="-106" font-family="Helvetica,sans-Serif" font-size="10.00">Ed::CParkManager::Destroy</text>
<text text-anchor="middle" x="222" y="-95" font-family="Helvetica,sans-Serif" font-size="10.00">MetasInArea</text>
</a>
</g>
</g>
<!-- Node1&#45;&gt;Node3 -->
<g id="edge2" class="edge"><title>Node1&#45;&gt;Node3</title>
<path fill="none" stroke="midnightblue" d="M323.622,-88.9073C312.954,-90.4014 302.066,-91.9264 291.58,-93.395"/>
<polygon fill="midnightblue" stroke="midnightblue" points="324.344,-92.3404 333.762,-87.4871 323.373,-85.408 324.344,-92.3404"/>
</g>
<!-- Node4 -->
<g id="node4" class="node"><title>Node4</title>
<g id="a_node4"><a xlink:href="../../d0/d5c/class_ed_1_1_c_park_manager.html#a2c07eca44d2c7c8cbf9983734f760677" target="_top" xlink:title=" ">
<polygon fill="white" stroke="black" points="146,-39 146,-69 298,-69 298,-39 146,-39"/>
<text text-anchor="start" x="154" y="-57" font-family="Helvetica,sans-Serif" font-size="10.00">Ed::CParkManager::ResetFloor</text>
<text text-anchor="middle" x="222" y="-46" font-family="Helvetica,sans-Serif" font-size="10.00">Heights</text>
</a>
</g>
</g>
<!-- Node1&#45;&gt;Node4 -->
<g id="edge3" class="edge"><title>Node1&#45;&gt;Node4</title>
<path fill="none" stroke="midnightblue" d="M323.839,-67.5582C315.313,-66.4118 306.644,-65.2462 298.149,-64.1041"/>
<polygon fill="midnightblue" stroke="midnightblue" points="323.385,-71.0286 333.762,-68.8924 324.318,-64.091 323.385,-71.0286"/>
</g>
<!-- Node5 -->
<g id="node5" class="node"><title>Node5</title>
<g id="a_node5"><a xlink:href="../../d2/d84/namespace_ed.html#a18e01a46dde64d90411ab5c2e68344ad" target="_top" xlink:title=" ">
<polygon fill="white" stroke="black" points="179.5,-0.5 179.5,-19.5 264.5,-19.5 264.5,-0.5 179.5,-0.5"/>
<text text-anchor="middle" x="222" y="-7.5" font-family="Helvetica,sans-Serif" font-size="10.00">Ed::ResizePark</text>
</a>
</g>
</g>
<!-- Node1&#45;&gt;Node5 -->
<g id="edge4" class="edge"><title>Node1&#45;&gt;Node5</title>
<path fill="none" stroke="midnightblue" d="M363.562,-58.4753C344.267,-49.0446 320.247,-38.0557 298,-30 287.103,-26.0541 275.064,-22.5023 263.879,-19.5251"/>
<polygon fill="midnightblue" stroke="midnightblue" points="362.111,-61.6624 372.626,-62.9601 365.215,-55.3884 362.111,-61.6624"/>
</g>
<!-- Node6 -->
<g id="node6" class="node"><title>Node6</title>
<g id="a_node6"><a xlink:href="../../d2/d84/namespace_ed.html#ab4c4bf774b1e68db92ab0e79d634bf57" target="_top" xlink:title=" ">
<polygon fill="white" stroke="black" points="0,-0.5 0,-19.5 110,-19.5 110,-0.5 0,-0.5"/>
<text text-anchor="middle" x="55" y="-7.5" font-family="Helvetica,sans-Serif" font-size="10.00">Ed::ScriptResizePark</text>
</a>
</g>
</g>
<!-- Node5&#45;&gt;Node6 -->
<g id="edge5" class="edge"><title>Node5&#45;&gt;Node6</title>
<path fill="none" stroke="midnightblue" d="M169.202,-10C150.398,-10 129.112,-10 110.113,-10"/>
<polygon fill="midnightblue" stroke="midnightblue" points="169.364,-13.5001 179.364,-10 169.363,-6.5001 169.364,-13.5001"/>
</g>
</g>
</svg>
