<?xml version="1.0" encoding="UTF-8" standalone="no"?>
<!DOCTYPE svg PUBLIC "-//W3C//DTD SVG 1.1//EN"
 "http://www.w3.org/Graphics/SVG/1.1/DTD/svg11.dtd">
<!-- Generated by graphviz version 2.38.0 (20140413.2041)
 -->
<!-- Title: Obj::CObjectAnimDetails::set_movie_length Pages: 1 -->
<svg width="670pt" height="127pt"
 viewBox="0.00 0.00 670.00 127.00" xmlns="http://www.w3.org/2000/svg" xmlns:xlink="http://www.w3.org/1999/xlink">
<g id="graph0" class="graph" transform="scale(1 1) rotate(0) translate(4 123)">
<title>Obj::CObjectAnimDetails::set_movie_length</title>
<polygon fill="white" stroke="none" points="-4,4 -4,-123 666,-123 666,4 -4,4"/>
<!-- Node1 -->
<g id="node1" class="node"><title>Node1</title>
<g id="a_node1"><a xlink:title=" ">
<polygon fill="#bfbfbf" stroke="black" points="0,-44.5 0,-74.5 125,-74.5 125,-44.5 0,-44.5"/>
<text text-anchor="start" x="8" y="-62.5" font-family="Helvetica,sans-Serif" font-size="10.00">Obj::CObjectAnimDetails</text>
<text text-anchor="middle" x="62.5" y="-51.5" font-family="Helvetica,sans-Serif" font-size="10.00">::set_movie_length</text>
</a>
</g>
</g>
<!-- Node2 -->
<g id="node2" class="node"><title>Node2</title>
<g id="a_node2"><a xlink:href="../../d3/dd9/class_gfx_1_1_c_boned_anim_frame_data.html#a37d6d7df08f133bae1a89b9c01359393" target="_top" xlink:title=" ">
<polygon fill="white" stroke="black" points="161,-44.5 161,-74.5 304,-74.5 304,-44.5 161,-44.5"/>
<text text-anchor="start" x="169" y="-62.5" font-family="Helvetica,sans-Serif" font-size="10.00">Gfx::CBonedAnimFrameData</text>
<text text-anchor="middle" x="232.5" y="-51.5" font-family="Helvetica,sans-Serif" font-size="10.00">::ResetCustomKeys</text>
</a>
</g>
</g>
<!-- Node1&#45;&gt;Node2 -->
<g id="edge1" class="edge"><title>Node1&#45;&gt;Node2</title>
<path fill="none" stroke="midnightblue" d="M125.103,-59.5C133.449,-59.5 142.114,-59.5 150.733,-59.5"/>
<polygon fill="midnightblue" stroke="midnightblue" points="150.808,-63.0001 160.808,-59.5 150.808,-56.0001 150.808,-63.0001"/>
</g>
<!-- Node3 -->
<g id="node3" class="node"><title>Node3</title>
<g id="a_node3"><a xlink:href="../../d3/dd9/class_gfx_1_1_c_boned_anim_frame_data.html#a2be553def87c17f445801790b6f08ecf" target="_top" xlink:title=" ">
<polygon fill="white" stroke="black" points="340,-88.5 340,-118.5 483,-118.5 483,-88.5 340,-88.5"/>
<text text-anchor="start" x="348" y="-106.5" font-family="Helvetica,sans-Serif" font-size="10.00">Gfx::CBonedAnimFrameData</text>
<text text-anchor="middle" x="411.5" y="-95.5" font-family="Helvetica,sans-Serif" font-size="10.00">::get_custom_key</text>
</a>
</g>
</g>
<!-- Node2&#45;&gt;Node3 -->
<g id="edge2" class="edge"><title>Node2&#45;&gt;Node3</title>
<path fill="none" stroke="midnightblue" d="M293.918,-74.5192C308.788,-78.2156 324.837,-82.2053 340.132,-86.0074"/>
<polygon fill="midnightblue" stroke="midnightblue" points="339.505,-89.4579 350.054,-88.4738 341.193,-82.6646 339.505,-89.4579"/>
</g>
<!-- Node4 -->
<g id="node4" class="node"><title>Node4</title>
<g id="a_node4"><a xlink:href="../../d3/dd9/class_gfx_1_1_c_boned_anim_frame_data.html#a14d30f96282d185d5fd55e88623f5a17" target="_top" xlink:title=" ">
<polygon fill="white" stroke="black" points="519,-66.5 519,-96.5 662,-96.5 662,-66.5 519,-66.5"/>
<text text-anchor="start" x="527" y="-84.5" font-family="Helvetica,sans-Serif" font-size="10.00">Gfx::CBonedAnimFrameData</text>
<text text-anchor="middle" x="590.5" y="-73.5" font-family="Helvetica,sans-Serif" font-size="10.00">::get_num_customkeys</text>
</a>
</g>
</g>
<!-- Node2&#45;&gt;Node4 -->
<g id="edge4" class="edge"><title>Node2&#45;&gt;Node4</title>
<path fill="none" stroke="midnightblue" d="M304.26,-63.8728C363.229,-67.5169 447.232,-72.7082 508.807,-76.5134"/>
<polygon fill="midnightblue" stroke="midnightblue" points="508.677,-80.0119 518.874,-77.1355 509.109,-73.0253 508.677,-80.0119"/>
</g>
<!-- Node5 -->
<g id="node5" class="node"><title>Node5</title>
<g id="a_node5"><a xlink:href="../../d7/dea/class_gfx_1_1_c_custom_anim_key.html#a010cab7b66f03630cef78a034961012d" target="_top" xlink:title=" ">
<polygon fill="white" stroke="black" points="352.5,-0.5 352.5,-30.5 470.5,-30.5 470.5,-0.5 352.5,-0.5"/>
<text text-anchor="start" x="360.5" y="-18.5" font-family="Helvetica,sans-Serif" font-size="10.00">Gfx::CCustomAnimKey</text>
<text text-anchor="middle" x="411.5" y="-7.5" font-family="Helvetica,sans-Serif" font-size="10.00">::SetActive</text>
</a>
</g>
</g>
<!-- Node2&#45;&gt;Node5 -->
<g id="edge5" class="edge"><title>Node2&#45;&gt;Node5</title>
<path fill="none" stroke="midnightblue" d="M293.918,-44.4808C309.593,-40.5842 326.579,-36.3618 342.609,-32.3768"/>
<polygon fill="midnightblue" stroke="midnightblue" points="343.587,-35.7404 352.447,-29.9313 341.898,-28.9472 343.587,-35.7404"/>
</g>
<!-- Node3&#45;&gt;Node4 -->
<g id="edge3" class="edge"><title>Node3&#45;&gt;Node4</title>
<path fill="none" stroke="midnightblue" d="M483.218,-94.7102C491.662,-93.6607 500.331,-92.5832 508.9,-91.5181"/>
<polygon fill="midnightblue" stroke="midnightblue" points="509.402,-94.9827 518.894,-90.2759 508.539,-88.0361 509.402,-94.9827"/>
</g>
</g>
</svg>
