<?xml version="1.0" encoding="UTF-8" standalone="no"?>
<!DOCTYPE svg PUBLIC "-//W3C//DTD SVG 1.1//EN"
 "http://www.w3.org/Graphics/SVG/1.1/DTD/svg11.dtd">
<!-- Generated by graphviz version 2.38.0 (20140413.2041)
 -->
<!-- Title: Obj::CSkaterCorePhysicsComponent::GetRailNode Pages: 1 -->
<svg width="865pt" height="166pt"
 viewBox="0.00 0.00 865.00 166.00" xmlns="http://www.w3.org/2000/svg" xmlns:xlink="http://www.w3.org/1999/xlink">
<g id="graph0" class="graph" transform="scale(1 1) rotate(0) translate(4 162)">
<title>Obj::CSkaterCorePhysicsComponent::GetRailNode</title>
<polygon fill="white" stroke="none" points="-4,4 -4,-162 861,-162 861,4 -4,4"/>
<!-- Node1 -->
<g id="node1" class="node"><title>Node1</title>
<g id="a_node1"><a xlink:title=" ">
<polygon fill="#bfbfbf" stroke="black" points="679,-83.5 679,-113.5 857,-113.5 857,-83.5 679,-83.5"/>
<text text-anchor="start" x="687" y="-101.5" font-family="Helvetica,sans-Serif" font-size="10.00">Obj::CSkaterCorePhysicsComponent</text>
<text text-anchor="middle" x="768" y="-90.5" font-family="Helvetica,sans-Serif" font-size="10.00">::GetRailNode</text>
</a>
</g>
</g>
<!-- Node2 -->
<g id="node2" class="node"><title>Node2</title>
<g id="a_node2"><a xlink:href="../../de/ddf/class_obj_1_1_c_skater_local_net_logic_component.html#a1c1f78837111c089e5930ae000135b07" target="_top" xlink:title=" ">
<polygon fill="white" stroke="black" points="497,-127.5 497,-157.5 643,-157.5 643,-127.5 497,-127.5"/>
<text text-anchor="start" x="505" y="-145.5" font-family="Helvetica,sans-Serif" font-size="10.00">Obj::CSkaterLocalNetLogic</text>
<text text-anchor="middle" x="570" y="-134.5" font-family="Helvetica,sans-Serif" font-size="10.00">Component::get_update_flags</text>
</a>
</g>
</g>
<!-- Node1&#45;&gt;Node2 -->
<g id="edge1" class="edge"><title>Node1&#45;&gt;Node2</title>
<path fill="none" stroke="midnightblue" d="M690.077,-115.768C672.852,-119.635 654.716,-123.707 637.935,-127.474"/>
<polygon fill="midnightblue" stroke="midnightblue" points="691.106,-119.125 700.096,-113.519 689.572,-112.295 691.106,-119.125"/>
</g>
<!-- Node3 -->
<g id="node3" class="node"><title>Node3</title>
<g id="a_node3"><a xlink:href="../../de/ddf/class_obj_1_1_c_skater_local_net_logic_component.html#a4a8b7502e23950e3a18516e7a269239a" target="_top" xlink:title=" ">
<polygon fill="white" stroke="black" points="321,-108.5 321,-138.5 461,-138.5 461,-108.5 321,-108.5"/>
<text text-anchor="start" x="329" y="-126.5" font-family="Helvetica,sans-Serif" font-size="10.00">Obj::CSkaterLocalNetLogic</text>
<text text-anchor="middle" x="391" y="-115.5" font-family="Helvetica,sans-Serif" font-size="10.00">Component::network_update</text>
</a>
</g>
</g>
<!-- Node1&#45;&gt;Node3 -->
<g id="edge4" class="edge"><title>Node1&#45;&gt;Node3</title>
<path fill="none" stroke="midnightblue" d="M668.304,-105.08C603.082,-109.428 519.218,-115.019 461.075,-118.895"/>
<polygon fill="midnightblue" stroke="midnightblue" points="668.86,-108.551 678.605,-104.393 668.394,-101.566 668.86,-108.551"/>
</g>
<!-- Node5 -->
<g id="node5" class="node"><title>Node5</title>
<g id="a_node5"><a xlink:href="../../df/d3f/class_obj_1_1_c_trick_component.html#ae8fb406d42d068c53de57f3ea0f496ca" target="_top" xlink:title=" ">
<polygon fill="white" stroke="black" points="512.5,-39.5 512.5,-69.5 627.5,-69.5 627.5,-39.5 512.5,-39.5"/>
<text text-anchor="start" x="520.5" y="-57.5" font-family="Helvetica,sans-Serif" font-size="10.00">Obj::CTrickComponent</text>
<text text-anchor="middle" x="570" y="-46.5" font-family="Helvetica,sans-Serif" font-size="10.00">::RunTrick</text>
</a>
</g>
</g>
<!-- Node1&#45;&gt;Node5 -->
<g id="edge5" class="edge"><title>Node1&#45;&gt;Node5</title>
<path fill="none" stroke="midnightblue" d="M690.32,-81.2861C669.496,-76.6113 647.322,-71.6334 627.811,-67.2534"/>
<polygon fill="midnightblue" stroke="midnightblue" points="689.572,-84.7053 700.096,-83.4808 691.106,-77.8753 689.572,-84.7053"/>
</g>
<!-- Node2&#45;&gt;Node3 -->
<g id="edge2" class="edge"><title>Node2&#45;&gt;Node3</title>
<path fill="none" stroke="midnightblue" d="M486.757,-133.672C478.195,-132.753 469.555,-131.825 461.159,-130.924"/>
<polygon fill="midnightblue" stroke="midnightblue" points="486.436,-137.157 496.752,-134.745 487.183,-130.197 486.436,-137.157"/>
</g>
<!-- Node4 -->
<g id="node4" class="node"><title>Node4</title>
<g id="a_node4"><a xlink:href="../../de/ddf/class_obj_1_1_c_skater_local_net_logic_component.html#a13d2a350f21704fbe1b772d27cd4cb6f" target="_top" xlink:title=" ">
<polygon fill="white" stroke="black" points="151,-108.5 151,-138.5 285,-138.5 285,-108.5 151,-108.5"/>
<text text-anchor="start" x="159" y="-126.5" font-family="Helvetica,sans-Serif" font-size="10.00">Obj::CSkaterLocalNetLogic</text>
<text text-anchor="middle" x="218" y="-115.5" font-family="Helvetica,sans-Serif" font-size="10.00">Component::Update</text>
</a>
</g>
</g>
<!-- Node3&#45;&gt;Node4 -->
<g id="edge3" class="edge"><title>Node3&#45;&gt;Node4</title>
<path fill="none" stroke="midnightblue" d="M310.926,-123.5C302.344,-123.5 293.675,-123.5 285.267,-123.5"/>
<polygon fill="midnightblue" stroke="midnightblue" points="310.941,-127 320.941,-123.5 310.941,-120 310.941,-127"/>
</g>
<!-- Node6 -->
<g id="node6" class="node"><title>Node6</title>
<g id="a_node6"><a xlink:href="../../df/d3f/class_obj_1_1_c_trick_component.html#a13dabe5a661c87181deaf08960522bcc" target="_top" xlink:title=" ">
<polygon fill="white" stroke="black" points="333.5,-49.5 333.5,-79.5 448.5,-79.5 448.5,-49.5 333.5,-49.5"/>
<text text-anchor="start" x="341.5" y="-67.5" font-family="Helvetica,sans-Serif" font-size="10.00">Obj::CTrickComponent</text>
<text text-anchor="middle" x="391" y="-56.5" font-family="Helvetica,sans-Serif" font-size="10.00">::TriggerAnyExtraTrick</text>
</a>
</g>
</g>
<!-- Node5&#45;&gt;Node6 -->
<g id="edge6" class="edge"><title>Node5&#45;&gt;Node6</title>
<path fill="none" stroke="midnightblue" d="M501.841,-58.2943C484.277,-59.2866 465.52,-60.3463 448.569,-61.304"/>
<polygon fill="midnightblue" stroke="midnightblue" points="502.235,-61.7777 512.022,-57.7191 501.84,-54.7888 502.235,-61.7777"/>
</g>
<!-- Node9 -->
<g id="node9" class="node"><title>Node9</title>
<g id="a_node9"><a xlink:href="../../df/d3f/class_obj_1_1_c_trick_component.html#a1d1aabe8909b39b6f58f45fcefba8e90" target="_top" xlink:title=" ">
<polygon fill="white" stroke="black" points="327.5,-0.5 327.5,-30.5 454.5,-30.5 454.5,-0.5 327.5,-0.5"/>
<text text-anchor="start" x="335.5" y="-18.5" font-family="Helvetica,sans-Serif" font-size="10.00">Obj::CTrickComponent</text>
<text text-anchor="middle" x="391" y="-7.5" font-family="Helvetica,sans-Serif" font-size="10.00">::TriggerNextQueuedTrick</text>
</a>
</g>
</g>
<!-- Node5&#45;&gt;Node9 -->
<g id="edge9" class="edge"><title>Node5&#45;&gt;Node9</title>
<path fill="none" stroke="midnightblue" d="M501.983,-39.7335C486.468,-36.315 470.015,-32.6898 454.694,-29.3138"/>
<polygon fill="midnightblue" stroke="midnightblue" points="501.503,-43.2116 512.022,-41.9455 503.009,-36.3756 501.503,-43.2116"/>
</g>
<!-- Node7 -->
<g id="node7" class="node"><title>Node7</title>
<g id="a_node7"><a xlink:href="../../df/d3f/class_obj_1_1_c_trick_component.html#aa8d0ce99526fff6b7326b16ddf199598" target="_top" xlink:title=" ">
<polygon fill="white" stroke="black" points="158.5,-49.5 158.5,-79.5 277.5,-79.5 277.5,-49.5 158.5,-49.5"/>
<text text-anchor="start" x="166.5" y="-67.5" font-family="Helvetica,sans-Serif" font-size="10.00">Obj::CTrickComponent</text>
<text text-anchor="middle" x="218" y="-56.5" font-family="Helvetica,sans-Serif" font-size="10.00">::TriggerAnyExtraTricks</text>
</a>
</g>
</g>
<!-- Node6&#45;&gt;Node7 -->
<g id="edge7" class="edge"><title>Node6&#45;&gt;Node7</title>
<path fill="none" stroke="midnightblue" d="M322.886,-64.5C307.976,-64.5 292.282,-64.5 277.738,-64.5"/>
<polygon fill="midnightblue" stroke="midnightblue" points="323.06,-68.0001 333.059,-64.5 323.059,-61.0001 323.06,-68.0001"/>
</g>
<!-- Node8 -->
<g id="node8" class="node"><title>Node8</title>
<g id="a_node8"><a xlink:href="../../df/d3f/class_obj_1_1_c_trick_component.html#a28a7240923f3b985510be24c448c7a12" target="_top" xlink:title=" ">
<polygon fill="white" stroke="black" points="0,-49.5 0,-79.5 115,-79.5 115,-49.5 0,-49.5"/>
<text text-anchor="start" x="8" y="-67.5" font-family="Helvetica,sans-Serif" font-size="10.00">Obj::CTrickComponent</text>
<text text-anchor="middle" x="57.5" y="-56.5" font-family="Helvetica,sans-Serif" font-size="10.00">::Update</text>
</a>
</g>
</g>
<!-- Node7&#45;&gt;Node8 -->
<g id="edge8" class="edge"><title>Node7&#45;&gt;Node8</title>
<path fill="none" stroke="midnightblue" d="M148.38,-64.5C137.323,-64.5 125.984,-64.5 115.246,-64.5"/>
<polygon fill="midnightblue" stroke="midnightblue" points="148.431,-68.0001 158.431,-64.5 148.431,-61.0001 148.431,-68.0001"/>
</g>
<!-- Node10 -->
<g id="node10" class="node"><title>Node10</title>
<g id="a_node10"><a xlink:href="../../d2/d10/namespace_obj.html#af1f23a955d55c092f488fe19dd1379f2" target="_top" xlink:title=" ">
<polygon fill="white" stroke="black" points="160,-6 160,-25 276,-25 276,-6 160,-6"/>
<text text-anchor="middle" x="218" y="-13" font-family="Helvetica,sans-Serif" font-size="10.00">Obj::ScriptDoNextTrick</text>
</a>
</g>
</g>
<!-- Node9&#45;&gt;Node10 -->
<g id="edge10" class="edge"><title>Node9&#45;&gt;Node10</title>
<path fill="none" stroke="midnightblue" d="M316.941,-15.5C303.258,-15.5 289.14,-15.5 276.03,-15.5"/>
<polygon fill="midnightblue" stroke="midnightblue" points="317.297,-19.0001 327.297,-15.5 317.297,-12.0001 317.297,-19.0001"/>
</g>
</g>
</svg>
