<?xml version="1.0" encoding="UTF-8" standalone="no"?>
<!DOCTYPE svg PUBLIC "-//W3C//DTD SVG 1.1//EN"
 "http://www.w3.org/Graphics/SVG/1.1/DTD/svg11.dtd">
<!-- Generated by graphviz version 2.38.0 (20140413.2041)
 -->
<!-- Title: Obj::CSkaterCorePhysicsComponent::ReverseFacing Pages: 1 -->
<!--zoomable 253 -->
<svg id="main" version="1.1" xmlns="http://www.w3.org/2000/svg" xmlns:xlink="http://www.w3.org/1999/xlink" xml:space="preserve" onload="init(evt)">
<style type="text/css"><![CDATA[
.edge:hover path { stroke: red; }
.edge:hover polygon { stroke: red; fill: red; }
]]></style>
<script type="text/javascript"><![CDATA[
var edges = document.getElementsByTagName('g');
if (edges && edges.length) {
  for (var i=0;i<edges.length;i++) {
    if (edges[i].id.substr(0,4)=='edge') {
      edges[i].setAttribute('class','edge');
    }
  }
}
]]></script>
        <defs>
                <circle id="rim" cx="0" cy="0" r="7"/>
                <circle id="rim2" cx="0" cy="0" r="3.5"/>
                <g id="zoomPlus">
                        <use xlink:href="#rim" fill="#404040">
                                <set attributeName="fill" to="#808080" begin="zoomplus.mouseover" end="zoomplus.mouseout"/>
                        </use>
                        <path d="M-4,0h8M0,-4v8" fill="none" stroke="white" stroke-width="1.5" pointer-events="none"/>
                </g>
                <g id="zoomMin">
                        <use xlink:href="#rim" fill="#404040">
                                <set attributeName="fill" to="#808080" begin="zoomminus.mouseover" end="zoomminus.mouseout"/>
                        </use>
                        <path d="M-4,0h8" fill="none" stroke="white" stroke-width="1.5" pointer-events="none"/>
                </g>
                <g id="dirArrow">
                        <path fill="none" stroke="white" stroke-width="1.5" d="M0,-3.0v7 M-2.5,-0.5L0,-3.0L2.5,-0.5"/>
                </g>
               <g id="resetDef">
                       <use xlink:href="#rim2" fill="#404040">
                               <set attributeName="fill" to="#808080" begin="reset.mouseover" end="reset.mouseout"/>
                       </use>
               </g>
        </defs>

<script type="text/javascript">
var viewWidth = 552;
var viewHeight = 253;
var sectionId = 'dynsection-40';
</script>
<script xlink:href="../../svgpan.js"/>
<svg id="graph" class="graph">
<g id="viewport">
<title>Obj::CSkaterCorePhysicsComponent::ReverseFacing</title>
<polygon fill="white" stroke="none" points="-4,4 -4,-249 548,-249 548,4 -4,4"/>
<!-- Node1 -->
<g id="node1" class="node"><title>Node1</title>
<g id="a_node1"><a xlink:title=" ">
<polygon fill="#bfbfbf" stroke="black" points="0,-110.5 0,-140.5 178,-140.5 178,-110.5 0,-110.5"/>
<text text-anchor="start" x="8" y="-128.5" font-family="Helvetica,sans-Serif" font-size="10.00">Obj::CSkaterCorePhysicsComponent</text>
<text text-anchor="middle" x="89" y="-117.5" font-family="Helvetica,sans-Serif" font-size="10.00">::ReverseFacing</text>
</a>
</g>
</g>
<!-- Node2 -->
<g id="node2" class="node"><title>Node2</title>
<g id="a_node2"><a xlink:href="../../d2/d61/class_obj_1_1_c_skater_core_physics_component.html#ac9d3eadad829ac8e6f555abcda765c7a" target="_top" xlink:title=" ">
<polygon fill="white" stroke="black" points="214,-214.5 214,-244.5 392,-244.5 392,-214.5 214,-214.5"/>
<text text-anchor="start" x="222" y="-232.5" font-family="Helvetica,sans-Serif" font-size="10.00">Obj::CSkaterCorePhysicsComponent</text>
<text text-anchor="middle" x="303" y="-221.5" font-family="Helvetica,sans-Serif" font-size="10.00">::GetMatrix</text>
</a>
</g>
</g>
<!-- Node1&#45;&gt;Node2 -->
<g id="edge1" class="edge"><title>Node1&#45;&gt;Node2</title>
<path fill="none" stroke="midnightblue" d="M112.076,-140.614C136.29,-156.723 176.685,-182.237 214,-199.5 223.009,-203.668 232.769,-207.565 242.398,-211.08"/>
<polygon fill="midnightblue" stroke="midnightblue" points="241.356,-214.424 251.951,-214.464 243.694,-207.826 241.356,-214.424"/>
</g>
<!-- Node3 -->
<g id="node3" class="node"><title>Node3</title>
<g id="a_node3"><a xlink:href="../../d0/d7e/class_obj_1_1_c_base_component.html#a952f40d99323d28b3ca2f55567edfa85" target="_top" xlink:title=" ">
<polygon fill="white" stroke="black" points="428,-170.5 428,-200.5 544,-200.5 544,-170.5 428,-170.5"/>
<text text-anchor="start" x="436" y="-188.5" font-family="Helvetica,sans-Serif" font-size="10.00">Obj::CBaseComponent</text>
<text text-anchor="middle" x="486" y="-177.5" font-family="Helvetica,sans-Serif" font-size="10.00">::GetObject</text>
</a>
</g>
</g>
<!-- Node1&#45;&gt;Node3 -->
<g id="edge3" class="edge"><title>Node1&#45;&gt;Node3</title>
<path fill="none" stroke="midnightblue" d="M127.334,-140.555C151.614,-149.665 184.191,-160.623 214,-166.5 282.61,-180.027 362.653,-184.258 417.869,-185.424"/>
<polygon fill="midnightblue" stroke="midnightblue" points="417.82,-188.924 427.882,-185.608 417.948,-181.925 417.82,-188.924"/>
</g>
<!-- Node4 -->
<g id="node4" class="node"><title>Node4</title>
<g id="a_node4"><a xlink:href="../../d1/d0d/namespace_tmr.html#ac753b199dc166fdd9758ca5d04725d95" target="_top" xlink:title=" ">
<polygon fill="white" stroke="black" points="246.5,-138 246.5,-157 359.5,-157 359.5,-138 246.5,-138"/>
<text text-anchor="middle" x="303" y="-145" font-family="Helvetica,sans-Serif" font-size="10.00">Tmr::GetRenderFrame</text>
</a>
</g>
</g>
<!-- Node1&#45;&gt;Node4 -->
<g id="edge4" class="edge"><title>Node1&#45;&gt;Node4</title>
<path fill="none" stroke="midnightblue" d="M178.065,-134.639C197.551,-136.661 217.869,-138.769 236.282,-140.68"/>
<polygon fill="midnightblue" stroke="midnightblue" points="235.991,-144.169 246.298,-141.72 236.713,-137.206 235.991,-144.169"/>
</g>
<!-- Node5 -->
<g id="node5" class="node"><title>Node5</title>
<g id="a_node5"><a xlink:href="../../d0/d7e/class_obj_1_1_c_base_component.html#a66ac6129be0d4e05999499433e9ec590" target="_top" xlink:title=" ">
<polygon fill="white" stroke="black" points="245,-88.5 245,-118.5 361,-118.5 361,-88.5 245,-88.5"/>
<text text-anchor="start" x="253" y="-106.5" font-family="Helvetica,sans-Serif" font-size="10.00">Obj::CBaseComponent</text>
<text text-anchor="middle" x="303" y="-95.5" font-family="Helvetica,sans-Serif" font-size="10.00">::GetType</text>
</a>
</g>
</g>
<!-- Node1&#45;&gt;Node5 -->
<g id="edge5" class="edge"><title>Node1&#45;&gt;Node5</title>
<path fill="none" stroke="midnightblue" d="M178.065,-116.361C196.983,-114.398 216.685,-112.353 234.667,-110.487"/>
<polygon fill="midnightblue" stroke="midnightblue" points="235.165,-113.955 244.75,-109.441 234.442,-106.992 235.165,-113.955"/>
</g>
<!-- Node6 -->
<g id="node6" class="node"><title>Node6</title>
<g id="a_node6"><a xlink:href="../../df/d92/standard_8cpp.html#a5fc8fd1788f18ada61dfda9f171c5a1a" target="_top" xlink:title=" ">
<polygon fill="white" stroke="black" points="284,-50 284,-69 322,-69 322,-50 284,-50"/>
<text text-anchor="middle" x="303" y="-57" font-family="Helvetica,sans-Serif" font-size="10.00">printf</text>
</a>
</g>
</g>
<!-- Node1&#45;&gt;Node6 -->
<g id="edge6" class="edge"><title>Node1&#45;&gt;Node6</title>
<path fill="none" stroke="midnightblue" d="M126.737,-110.42C151.189,-100.744 184.181,-88.3775 214,-79.5 233.772,-73.6137 256.485,-68.4916 273.883,-64.9048"/>
<polygon fill="midnightblue" stroke="midnightblue" points="274.843,-68.2818 283.955,-62.8767 273.461,-61.4196 274.843,-68.2818"/>
</g>
<!-- Node7 -->
<g id="node7" class="node"><title>Node7</title>
<g id="a_node7"><a xlink:href="../../d2/d61/class_obj_1_1_c_skater_core_physics_component.html#a3350ef5824570db6dbec49ca6c8065dd" target="_top" xlink:title=" ">
<polygon fill="white" stroke="black" points="214,-0.5 214,-30.5 392,-30.5 392,-0.5 214,-0.5"/>
<text text-anchor="start" x="222" y="-18.5" font-family="Helvetica,sans-Serif" font-size="10.00">Obj::CSkaterCorePhysicsComponent</text>
<text text-anchor="middle" x="303" y="-7.5" font-family="Helvetica,sans-Serif" font-size="10.00">::ResetLerpingMatrix</text>
</a>
</g>
</g>
<!-- Node1&#45;&gt;Node7 -->
<g id="edge7" class="edge"><title>Node1&#45;&gt;Node7</title>
<path fill="none" stroke="midnightblue" d="M108.164,-110.212C131.356,-91.3883 173.362,-59.5749 214,-40.5 219.032,-38.138 224.333,-35.9546 229.735,-33.9451"/>
<polygon fill="midnightblue" stroke="midnightblue" points="231.251,-37.1227 239.533,-30.5147 228.938,-30.516 231.251,-37.1227"/>
</g>
<!-- Node2&#45;&gt;Node3 -->
<g id="edge2" class="edge"><title>Node2&#45;&gt;Node3</title>
<path fill="none" stroke="midnightblue" d="M365.784,-214.481C382.563,-210.402 400.812,-205.966 417.871,-201.819"/>
<polygon fill="midnightblue" stroke="midnightblue" points="418.867,-205.178 427.758,-199.415 417.214,-198.377 418.867,-205.178"/>
</g>
<!-- Node7&#45;&gt;Node3 -->
<g id="edge8" class="edge"><title>Node7&#45;&gt;Node3</title>
<path fill="none" stroke="midnightblue" d="M374.888,-30.5678C380.961,-33.3386 386.772,-36.6183 392,-40.5 434.034,-71.7082 462.068,-128.036 475.593,-160.538"/>
<polygon fill="midnightblue" stroke="midnightblue" points="472.497,-162.218 479.475,-170.191 478.991,-159.607 472.497,-162.218"/>
</g>
</g>
</svg>
        <g id="navigator" transform="translate(0 0)" fill="#404254">
                <rect fill="#f2f5e9" fill-opacity="0.5" stroke="#606060" stroke-width=".5" x="0" y="0" width="60" height="60"/>
                <use id="zoomplus" xlink:href="#zoomPlus" x="17" y="9" onmousedown="handleZoom(evt,'in')"/>
                <use id="zoomminus" xlink:href="#zoomMin" x="42" y="9" onmousedown="handleZoom(evt,'out')"/>
                <use id="reset" xlink:href="#resetDef" x="30" y="36" onmousedown="handleReset()"/>
                <g id="arrowUp" xlink:href="#dirArrow" transform="translate(30 24)" onmousedown="handlePan(0,-1)">
                  <use xlink:href="#rim" fill="#404040">
                        <set attributeName="fill" to="#808080" begin="arrowUp.mouseover" end="arrowUp.mouseout"/>
                  </use>
                  <path fill="none" stroke="white" stroke-width="1.5" d="M0,-3.0v7 M-2.5,-0.5L0,-3.0L2.5,-0.5"/>
                </g>
                <g id="arrowRight" xlink:href="#dirArrow" transform="rotate(90) translate(36 -43)" onmousedown="handlePan(1,0)">
                  <use xlink:href="#rim" fill="#404040">
                        <set attributeName="fill" to="#808080" begin="arrowRight.mouseover" end="arrowRight.mouseout"/>
                  </use>
                  <path fill="none" stroke="white" stroke-width="1.5" d="M0,-3.0v7 M-2.5,-0.5L0,-3.0L2.5,-0.5"/>
                </g>
                <g id="arrowDown" xlink:href="#dirArrow" transform="rotate(180) translate(-30 -48)" onmousedown="handlePan(0,1)">
                  <use xlink:href="#rim" fill="#404040">
                        <set attributeName="fill" to="#808080" begin="arrowDown.mouseover" end="arrowDown.mouseout"/>
                  </use>
                  <path fill="none" stroke="white" stroke-width="1.5" d="M0,-3.0v7 M-2.5,-0.5L0,-3.0L2.5,-0.5"/>
                </g>
                <g id="arrowLeft" xlink:href="#dirArrow" transform="rotate(270) translate(-36 17)" onmousedown="handlePan(-1,0)">
                  <use xlink:href="#rim" fill="#404040">
                        <set attributeName="fill" to="#808080" begin="arrowLeft.mouseover" end="arrowLeft.mouseout"/>
                  </use>
                  <path fill="none" stroke="white" stroke-width="1.5" d="M0,-3.0v7 M-2.5,-0.5L0,-3.0L2.5,-0.5"/>
                </g>
        </g>
        <svg viewBox="0 0 15 15" width="100%" height="30px" preserveAspectRatio="xMaxYMin meet">
         <g id="arrow_out" transform="scale(0.3 0.3)">
          <a xlink:href="class_obj_1_1_c_skater_core_physics_component_af9037425b2a4e6471c5782e651500562_cgraph_org.svg" target="_base">
           <rect id="button" ry="5" rx="5" y="6" x="6" height="38" width="38"
                fill="#f2f5e9" fill-opacity="0.5" stroke="#606060" stroke-width="1.0"/>
           <path id="arrow"
             d="M 11.500037,31.436501 C 11.940474,20.09759 22.043105,11.32322 32.158766,21.979434 L 37.068811,17.246167 C 37.068811,17.246167 37.088388,32 37.088388,32 L 22.160133,31.978069 C 22.160133,31.978069 26.997745,27.140456 26.997745,27.140456 C 18.528582,18.264221 13.291696,25.230495 11.500037,31.436501 z"
             style="fill:#404040;"/>
          </a>
         </g>
        </svg>
</svg>
