<?xml version="1.0" encoding="UTF-8" standalone="no"?>
<!DOCTYPE svg PUBLIC "-//W3C//DTD SVG 1.1//EN"
 "http://www.w3.org/Graphics/SVG/1.1/DTD/svg11.dtd">
<!-- Generated by graphviz version 2.38.0 (20140413.2041)
 -->
<!-- Title: Obj::CSkaterCorePhysicsComponent::set_last_ground_feeler Pages: 1 -->
<!--zoomable 194 -->
<svg id="main" version="1.1" xmlns="http://www.w3.org/2000/svg" xmlns:xlink="http://www.w3.org/1999/xlink" xml:space="preserve" onload="init(evt)">
<style type="text/css"><![CDATA[
.edge:hover path { stroke: red; }
.edge:hover polygon { stroke: red; fill: red; }
]]></style>
<script type="text/javascript"><![CDATA[
var edges = document.getElementsByTagName('g');
if (edges && edges.length) {
  for (var i=0;i<edges.length;i++) {
    if (edges[i].id.substr(0,4)=='edge') {
      edges[i].setAttribute('class','edge');
    }
  }
}
]]></script>
        <defs>
                <circle id="rim" cx="0" cy="0" r="7"/>
                <circle id="rim2" cx="0" cy="0" r="3.5"/>
                <g id="zoomPlus">
                        <use xlink:href="#rim" fill="#404040">
                                <set attributeName="fill" to="#808080" begin="zoomplus.mouseover" end="zoomplus.mouseout"/>
                        </use>
                        <path d="M-4,0h8M0,-4v8" fill="none" stroke="white" stroke-width="1.5" pointer-events="none"/>
                </g>
                <g id="zoomMin">
                        <use xlink:href="#rim" fill="#404040">
                                <set attributeName="fill" to="#808080" begin="zoomminus.mouseover" end="zoomminus.mouseout"/>
                        </use>
                        <path d="M-4,0h8" fill="none" stroke="white" stroke-width="1.5" pointer-events="none"/>
                </g>
                <g id="dirArrow">
                        <path fill="none" stroke="white" stroke-width="1.5" d="M0,-3.0v7 M-2.5,-0.5L0,-3.0L2.5,-0.5"/>
                </g>
               <g id="resetDef">
                       <use xlink:href="#rim2" fill="#404040">
                               <set attributeName="fill" to="#808080" begin="reset.mouseover" end="reset.mouseout"/>
                       </use>
               </g>
        </defs>

<script type="text/javascript">
var viewWidth = 1256;
var viewHeight = 194;
var sectionId = 'dynsection-203';
</script>
<script xlink:href="../../svgpan.js"/>
<svg id="graph" class="graph">
<g id="viewport">
<title>Obj::CSkaterCorePhysicsComponent::set_last_ground_feeler</title>
<polygon fill="white" stroke="none" points="-4,4 -4,-189.724 1252,-189.724 1252,4 -4,4"/>
<!-- Node1 -->
<g id="node1" class="node"><title>Node1</title>
<g id="a_node1"><a xlink:title=" ">
<polygon fill="#bfbfbf" stroke="black" points="1070,-66.5 1070,-96.5 1248,-96.5 1248,-66.5 1070,-66.5"/>
<text text-anchor="start" x="1078" y="-84.5" font-family="Helvetica,sans-Serif" font-size="10.00">Obj::CSkaterCorePhysicsComponent</text>
<text text-anchor="middle" x="1159" y="-73.5" font-family="Helvetica,sans-Serif" font-size="10.00">::set_last_ground_feeler</text>
</a>
</g>
</g>
<!-- Node2 -->
<g id="node2" class="node"><title>Node2</title>
<g id="a_node2"><a xlink:href="../../d2/d61/class_obj_1_1_c_skater_core_physics_component.html#adf51713ad92e95712944004b518048ca" target="_top" xlink:title=" ">
<polygon fill="white" stroke="black" points="856,-88.5 856,-118.5 1034,-118.5 1034,-88.5 856,-88.5"/>
<text text-anchor="start" x="864" y="-106.5" font-family="Helvetica,sans-Serif" font-size="10.00">Obj::CSkaterCorePhysicsComponent</text>
<text text-anchor="middle" x="945" y="-95.5" font-family="Helvetica,sans-Serif" font-size="10.00">::check_for_wallride</text>
</a>
</g>
</g>
<!-- Node1&#45;&gt;Node2 -->
<g id="edge1" class="edge"><title>Node1&#45;&gt;Node2</title>
<path fill="none" stroke="midnightblue" d="M1059.89,-91.6809C1051.3,-92.5727 1042.64,-93.4716 1034.13,-94.3542"/>
<polygon fill="midnightblue" stroke="midnightblue" points="1060.35,-95.1524 1069.93,-90.6389 1059.63,-88.1898 1060.35,-95.1524"/>
</g>
<!-- Node5 -->
<g id="node5" class="node"><title>Node5</title>
<g id="a_node5"><a xlink:href="../../d2/d61/class_obj_1_1_c_skater_core_physics_component.html#ac8680b0cbdb8dbcc8af0e9246b939d53" target="_top" xlink:title=" ">
<polygon fill="white" stroke="black" points="214,-126.5 214,-156.5 392,-156.5 392,-126.5 214,-126.5"/>
<text text-anchor="start" x="222" y="-144.5" font-family="Helvetica,sans-Serif" font-size="10.00">Obj::CSkaterCorePhysicsComponent</text>
<text text-anchor="middle" x="303" y="-133.5" font-family="Helvetica,sans-Serif" font-size="10.00">::do_in_air_physics</text>
</a>
</g>
</g>
<!-- Node1&#45;&gt;Node5 -->
<g id="edge10" class="edge"><title>Node1&#45;&gt;Node5</title>
<path fill="none" stroke="midnightblue" d="M1111.71,-100.304C1088.61,-109.27 1060.09,-119.711 1034,-127.5 775.52,-204.679 695.977,-192.439 428,-161.5 415.978,-160.112 403.34,-158.386 390.919,-156.533"/>
<polygon fill="midnightblue" stroke="midnightblue" points="1113.22,-103.471 1121.26,-96.5641 1110.67,-96.9528 1113.22,-103.471"/>
</g>
<!-- Node9 -->
<g id="node9" class="node"><title>Node9</title>
<g id="a_node9"><a xlink:href="../../d2/d61/class_obj_1_1_c_skater_core_physics_component.html#aa340242d36f0580b9d16d3748b70313c" target="_top" xlink:title=" ">
<polygon fill="white" stroke="black" points="856,-0.5 856,-30.5 1034,-30.5 1034,-0.5 856,-0.5"/>
<text text-anchor="start" x="864" y="-18.5" font-family="Helvetica,sans-Serif" font-size="10.00">Obj::CSkaterCorePhysicsComponent</text>
<text text-anchor="middle" x="945" y="-7.5" font-family="Helvetica,sans-Serif" font-size="10.00">::do_wallride_physics</text>
</a>
</g>
</g>
<!-- Node1&#45;&gt;Node9 -->
<g id="edge11" class="edge"><title>Node1&#45;&gt;Node9</title>
<path fill="none" stroke="midnightblue" d="M1100.07,-63.4665C1066.97,-53.1604 1025.93,-40.3835 994.53,-30.6084"/>
<polygon fill="midnightblue" stroke="midnightblue" points="1099.04,-66.8102 1109.63,-66.441 1101.12,-60.1266 1099.04,-66.8102"/>
</g>
<!-- Node10 -->
<g id="node10" class="node"><title>Node10</title>
<g id="a_node10"><a xlink:href="../../d2/d61/class_obj_1_1_c_skater_core_physics_component.html#a57ea07a7343241be3e72bc19a81744aa" target="_top" xlink:title=" ">
<polygon fill="white" stroke="black" points="428,-44.5 428,-74.5 606,-74.5 606,-44.5 428,-44.5"/>
<text text-anchor="start" x="436" y="-62.5" font-family="Helvetica,sans-Serif" font-size="10.00">Obj::CSkaterCorePhysicsComponent</text>
<text text-anchor="middle" x="517" y="-51.5" font-family="Helvetica,sans-Serif" font-size="10.00">::snap_to_ground</text>
</a>
</g>
</g>
<!-- Node1&#45;&gt;Node10 -->
<g id="edge13" class="edge"><title>Node1&#45;&gt;Node10</title>
<path fill="none" stroke="midnightblue" d="M1059.45,-78.1123C935.604,-73.8551 724.931,-66.6132 606.181,-62.5312"/>
<polygon fill="midnightblue" stroke="midnightblue" points="1059.57,-81.6184 1069.68,-78.4641 1059.81,-74.6225 1059.57,-81.6184"/>
</g>
<!-- Node3 -->
<g id="node3" class="node"><title>Node3</title>
<g id="a_node3"><a xlink:href="../../d2/d61/class_obj_1_1_c_skater_core_physics_component.html#a1b0540b5e643e86d12e76afee9d792bd" target="_top" xlink:title=" ">
<polygon fill="white" stroke="black" points="642,-88.5 642,-118.5 820,-118.5 820,-88.5 642,-88.5"/>
<text text-anchor="start" x="650" y="-106.5" font-family="Helvetica,sans-Serif" font-size="10.00">Obj::CSkaterCorePhysicsComponent</text>
<text text-anchor="middle" x="731" y="-95.5" font-family="Helvetica,sans-Serif" font-size="10.00">::check_side</text>
</a>
</g>
</g>
<!-- Node2&#45;&gt;Node3 -->
<g id="edge2" class="edge"><title>Node2&#45;&gt;Node3</title>
<path fill="none" stroke="midnightblue" d="M845.893,-103.5C837.3,-103.5 828.637,-103.5 820.132,-103.5"/>
<polygon fill="midnightblue" stroke="midnightblue" points="845.935,-107 855.935,-103.5 845.935,-100 845.935,-107"/>
</g>
<!-- Node8 -->
<g id="node8" class="node"><title>Node8</title>
<g id="a_node8"><a xlink:href="../../d2/d61/class_obj_1_1_c_skater_core_physics_component.html#ac72697bca83c340810eaff189de6e7ce" target="_top" xlink:title=" ">
<polygon fill="white" stroke="black" points="642,-137.5 642,-167.5 820,-167.5 820,-137.5 642,-137.5"/>
<text text-anchor="start" x="650" y="-155.5" font-family="Helvetica,sans-Serif" font-size="10.00">Obj::CSkaterCorePhysicsComponent</text>
<text text-anchor="middle" x="731" y="-144.5" font-family="Helvetica,sans-Serif" font-size="10.00">::handle_forward_collision_in_air</text>
</a>
</g>
</g>
<!-- Node2&#45;&gt;Node8 -->
<g id="edge8" class="edge"><title>Node2&#45;&gt;Node8</title>
<path fill="none" stroke="midnightblue" d="M869.017,-120.831C845.48,-126.271 819.705,-132.229 796.925,-137.494"/>
<polygon fill="midnightblue" stroke="midnightblue" points="869.997,-124.197 878.952,-118.535 868.421,-117.377 869.997,-124.197"/>
</g>
<!-- Node4 -->
<g id="node4" class="node"><title>Node4</title>
<g id="a_node4"><a xlink:href="../../d2/d61/class_obj_1_1_c_skater_core_physics_component.html#a32542d56566881052d6ab68e631e9f6d" target="_top" xlink:title=" ">
<polygon fill="white" stroke="black" points="428,-93.5 428,-123.5 606,-123.5 606,-93.5 428,-93.5"/>
<text text-anchor="start" x="436" y="-111.5" font-family="Helvetica,sans-Serif" font-size="10.00">Obj::CSkaterCorePhysicsComponent</text>
<text text-anchor="middle" x="517" y="-100.5" font-family="Helvetica,sans-Serif" font-size="10.00">::check_side_collisions</text>
</a>
</g>
</g>
<!-- Node3&#45;&gt;Node4 -->
<g id="edge3" class="edge"><title>Node3&#45;&gt;Node4</title>
<path fill="none" stroke="midnightblue" d="M631.893,-105.814C623.3,-106.017 614.637,-106.221 606.132,-106.421"/>
<polygon fill="midnightblue" stroke="midnightblue" points="632.02,-109.312 641.935,-105.577 631.855,-102.314 632.02,-109.312"/>
</g>
<!-- Node4&#45;&gt;Node5 -->
<g id="edge4" class="edge"><title>Node4&#45;&gt;Node5</title>
<path fill="none" stroke="midnightblue" d="M417.893,-123.771C409.3,-125.109 400.637,-126.457 392.132,-127.781"/>
<polygon fill="midnightblue" stroke="midnightblue" points="418.592,-127.205 427.935,-122.208 417.515,-120.288 418.592,-127.205"/>
</g>
<!-- Node7 -->
<g id="node7" class="node"><title>Node7</title>
<g id="a_node7"><a xlink:href="../../d2/d61/class_obj_1_1_c_skater_core_physics_component.html#ac0a7b3aab2a95b3824bf411253578223" target="_top" xlink:title=" ">
<polygon fill="white" stroke="black" points="214,-55.5 214,-85.5 392,-85.5 392,-55.5 214,-55.5"/>
<text text-anchor="start" x="222" y="-73.5" font-family="Helvetica,sans-Serif" font-size="10.00">Obj::CSkaterCorePhysicsComponent</text>
<text text-anchor="middle" x="303" y="-62.5" font-family="Helvetica,sans-Serif" font-size="10.00">::do_on_ground_physics</text>
</a>
</g>
</g>
<!-- Node4&#45;&gt;Node7 -->
<g id="edge6" class="edge"><title>Node4&#45;&gt;Node7</title>
<path fill="none" stroke="midnightblue" d="M422.223,-91.691C410.785,-89.6407 399.154,-87.556 387.874,-85.534"/>
<polygon fill="midnightblue" stroke="midnightblue" points="421.751,-95.1621 432.212,-93.4814 422.986,-88.2719 421.751,-95.1621"/>
</g>
<!-- Node6 -->
<g id="node6" class="node"><title>Node6</title>
<g id="a_node6"><a xlink:href="../../d2/d61/class_obj_1_1_c_skater_core_physics_component.html#ab33036e6e0db072615c967ea6392832e" target="_top" xlink:title=" ">
<polygon fill="white" stroke="black" points="0,-55.5 0,-85.5 178,-85.5 178,-55.5 0,-55.5"/>
<text text-anchor="start" x="8" y="-73.5" font-family="Helvetica,sans-Serif" font-size="10.00">Obj::CSkaterCorePhysicsComponent</text>
<text text-anchor="middle" x="89" y="-62.5" font-family="Helvetica,sans-Serif" font-size="10.00">::Update</text>
</a>
</g>
</g>
<!-- Node5&#45;&gt;Node6 -->
<g id="edge5" class="edge"><title>Node5&#45;&gt;Node6</title>
<path fill="none" stroke="midnightblue" d="M247.468,-123.237C212.539,-111.539 167.765,-96.5438 134.895,-85.5356"/>
<polygon fill="midnightblue" stroke="midnightblue" points="246.446,-126.586 257.04,-126.443 248.669,-119.948 246.446,-126.586"/>
</g>
<!-- Node7&#45;&gt;Node6 -->
<g id="edge7" class="edge"><title>Node7&#45;&gt;Node6</title>
<path fill="none" stroke="midnightblue" d="M203.893,-70.5C195.3,-70.5 186.637,-70.5 178.132,-70.5"/>
<polygon fill="midnightblue" stroke="midnightblue" points="203.935,-74.0001 213.935,-70.5 203.935,-67.0001 203.935,-74.0001"/>
</g>
<!-- Node8&#45;&gt;Node5 -->
<g id="edge9" class="edge"><title>Node8&#45;&gt;Node5</title>
<path fill="none" stroke="midnightblue" d="M631.962,-149.969C559.664,-148.102 462.136,-145.583 392.261,-143.779"/>
<polygon fill="midnightblue" stroke="midnightblue" points="631.904,-153.468 641.991,-150.227 632.085,-146.47 631.904,-153.468"/>
</g>
<!-- Node9&#45;&gt;Node6 -->
<g id="edge12" class="edge"><title>Node9&#45;&gt;Node6</title>
<path fill="none" stroke="midnightblue" d="M845.639,-14.3134C705.022,-13.8015 438.685,-17.2327 214,-45.5 194.826,-47.9123 174.181,-51.6203 155.343,-55.4481"/>
<polygon fill="midnightblue" stroke="midnightblue" points="845.942,-17.8146 855.957,-14.3589 845.973,-10.8147 845.942,-17.8146"/>
</g>
<!-- Node10&#45;&gt;Node7 -->
<g id="edge14" class="edge"><title>Node10&#45;&gt;Node7</title>
<path fill="none" stroke="midnightblue" d="M417.893,-64.5905C409.3,-65.0363 400.637,-65.4858 392.132,-65.9271"/>
<polygon fill="midnightblue" stroke="midnightblue" points="418.129,-68.083 427.935,-64.0694 417.767,-61.0924 418.129,-68.083"/>
</g>
</g>
</svg>
        <g id="navigator" transform="translate(0 0)" fill="#404254">
                <rect fill="#f2f5e9" fill-opacity="0.5" stroke="#606060" stroke-width=".5" x="0" y="0" width="60" height="60"/>
                <use id="zoomplus" xlink:href="#zoomPlus" x="17" y="9" onmousedown="handleZoom(evt,'in')"/>
                <use id="zoomminus" xlink:href="#zoomMin" x="42" y="9" onmousedown="handleZoom(evt,'out')"/>
                <use id="reset" xlink:href="#resetDef" x="30" y="36" onmousedown="handleReset()"/>
                <g id="arrowUp" xlink:href="#dirArrow" transform="translate(30 24)" onmousedown="handlePan(0,-1)">
                  <use xlink:href="#rim" fill="#404040">
                        <set attributeName="fill" to="#808080" begin="arrowUp.mouseover" end="arrowUp.mouseout"/>
                  </use>
                  <path fill="none" stroke="white" stroke-width="1.5" d="M0,-3.0v7 M-2.5,-0.5L0,-3.0L2.5,-0.5"/>
                </g>
                <g id="arrowRight" xlink:href="#dirArrow" transform="rotate(90) translate(36 -43)" onmousedown="handlePan(1,0)">
                  <use xlink:href="#rim" fill="#404040">
                        <set attributeName="fill" to="#808080" begin="arrowRight.mouseover" end="arrowRight.mouseout"/>
                  </use>
                  <path fill="none" stroke="white" stroke-width="1.5" d="M0,-3.0v7 M-2.5,-0.5L0,-3.0L2.5,-0.5"/>
                </g>
                <g id="arrowDown" xlink:href="#dirArrow" transform="rotate(180) translate(-30 -48)" onmousedown="handlePan(0,1)">
                  <use xlink:href="#rim" fill="#404040">
                        <set attributeName="fill" to="#808080" begin="arrowDown.mouseover" end="arrowDown.mouseout"/>
                  </use>
                  <path fill="none" stroke="white" stroke-width="1.5" d="M0,-3.0v7 M-2.5,-0.5L0,-3.0L2.5,-0.5"/>
                </g>
                <g id="arrowLeft" xlink:href="#dirArrow" transform="rotate(270) translate(-36 17)" onmousedown="handlePan(-1,0)">
                  <use xlink:href="#rim" fill="#404040">
                        <set attributeName="fill" to="#808080" begin="arrowLeft.mouseover" end="arrowLeft.mouseout"/>
                  </use>
                  <path fill="none" stroke="white" stroke-width="1.5" d="M0,-3.0v7 M-2.5,-0.5L0,-3.0L2.5,-0.5"/>
                </g>
        </g>
        <svg viewBox="0 0 15 15" width="100%" height="30px" preserveAspectRatio="xMaxYMin meet">
         <g id="arrow_out" transform="scale(0.3 0.3)">
          <a xlink:href="class_obj_1_1_c_skater_core_physics_component_a6b0c657362b065e082146a6fa13d4767_icgraph_org.svg" target="_base">
           <rect id="button" ry="5" rx="5" y="6" x="6" height="38" width="38"
                fill="#f2f5e9" fill-opacity="0.5" stroke="#606060" stroke-width="1.0"/>
           <path id="arrow"
             d="M 11.500037,31.436501 C 11.940474,20.09759 22.043105,11.32322 32.158766,21.979434 L 37.068811,17.246167 C 37.068811,17.246167 37.088388,32 37.088388,32 L 22.160133,31.978069 C 22.160133,31.978069 26.997745,27.140456 26.997745,27.140456 C 18.528582,18.264221 13.291696,25.230495 11.500037,31.436501 z"
             style="fill:#404040;"/>
          </a>
         </g>
        </svg>
</svg>
