<?xml version="1.0" encoding="UTF-8" standalone="no"?>
<!DOCTYPE svg PUBLIC "-//W3C//DTD SVG 1.1//EN"
 "http://www.w3.org/Graphics/SVG/1.1/DTD/svg11.dtd">
<!-- Generated by graphviz version 2.38.0 (20140413.2041)
 -->
<!-- Title: Obj::CWalkCameraComponent::CWalkCameraComponent Pages: 1 -->
<svg width="310pt" height="116pt"
 viewBox="0.00 0.00 310.00 115.50" xmlns="http://www.w3.org/2000/svg" xmlns:xlink="http://www.w3.org/1999/xlink">
<g id="graph0" class="graph" transform="scale(1 1) rotate(0) translate(4 111.5)">
<title>Obj::CWalkCameraComponent::CWalkCameraComponent</title>
<polygon fill="white" stroke="none" points="-4,4 -4,-111.5 306,-111.5 306,4 -4,4"/>
<!-- Node1 -->
<g id="node1" class="node"><title>Node1</title>
<g id="a_node1"><a xlink:title=" ">
<polygon fill="#bfbfbf" stroke="black" points="0,-44.5 0,-74.5 150,-74.5 150,-44.5 0,-44.5"/>
<text text-anchor="start" x="8" y="-62.5" font-family="Helvetica,sans-Serif" font-size="10.00">Obj::CWalkCameraComponent</text>
<text text-anchor="middle" x="75" y="-51.5" font-family="Helvetica,sans-Serif" font-size="10.00">::CWalkCameraComponent</text>
</a>
</g>
</g>
<!-- Node2 -->
<g id="node2" class="node"><title>Node2</title>
<g id="a_node2"><a xlink:href="../../d9/d37/class_mth_1_1_matrix.html#a06a07c27b6ed6a037b5dfaaeb5ba6cb2" target="_top" xlink:title=" ">
<polygon fill="white" stroke="black" points="197.5,-88 197.5,-107 290.5,-107 290.5,-88 197.5,-88"/>
<text text-anchor="middle" x="244" y="-95" font-family="Helvetica,sans-Serif" font-size="10.00">Mth::Matrix::Ident</text>
</a>
</g>
</g>
<!-- Node1&#45;&gt;Node2 -->
<g id="edge1" class="edge"><title>Node1&#45;&gt;Node2</title>
<path fill="none" stroke="midnightblue" d="M142.003,-74.5186C158.307,-78.2285 175.542,-82.1504 191.07,-85.6836"/>
<polygon fill="midnightblue" stroke="midnightblue" points="190.473,-89.1371 201,-87.9432 192.026,-82.3116 190.473,-89.1371"/>
</g>
<!-- Node3 -->
<g id="node3" class="node"><title>Node3</title>
<g id="a_node3"><a xlink:href="../../d1/d08/class_mth_1_1_vector.html#aeb3fc85704c5e3811b7dd4bebff78b3f" target="_top" xlink:title=" ">
<polygon fill="white" stroke="black" points="199.5,-50 199.5,-69 288.5,-69 288.5,-50 199.5,-50"/>
<text text-anchor="middle" x="244" y="-57" font-family="Helvetica,sans-Serif" font-size="10.00">Mth::Vector::Set</text>
</a>
</g>
</g>
<!-- Node1&#45;&gt;Node3 -->
<g id="edge2" class="edge"><title>Node1&#45;&gt;Node3</title>
<path fill="none" stroke="midnightblue" d="M150.221,-59.5C163.288,-59.5 176.662,-59.5 189.041,-59.5"/>
<polygon fill="midnightblue" stroke="midnightblue" points="189.177,-63.0001 199.177,-59.5 189.177,-56.0001 189.177,-63.0001"/>
</g>
<!-- Node4 -->
<g id="node4" class="node"><title>Node4</title>
<g id="a_node4"><a xlink:href="../../d0/d7e/class_obj_1_1_c_base_component.html#a880a8b9b7ec5b22563c6821ae0f1903e" target="_top" xlink:title=" ">
<polygon fill="white" stroke="black" points="186,-0.5 186,-30.5 302,-30.5 302,-0.5 186,-0.5"/>
<text text-anchor="start" x="194" y="-18.5" font-family="Helvetica,sans-Serif" font-size="10.00">Obj::CBaseComponent</text>
<text text-anchor="middle" x="244" y="-7.5" font-family="Helvetica,sans-Serif" font-size="10.00">::SetType</text>
</a>
</g>
</g>
<!-- Node1&#45;&gt;Node4 -->
<g id="edge3" class="edge"><title>Node1&#45;&gt;Node4</title>
<path fill="none" stroke="midnightblue" d="M133.005,-44.4808C146.901,-40.8196 161.889,-36.8706 176.195,-33.1013"/>
<polygon fill="midnightblue" stroke="midnightblue" points="177.19,-36.4586 185.969,-30.5262 175.407,-29.6896 177.19,-36.4586"/>
</g>
</g>
</svg>
