<?xml version="1.0" encoding="UTF-8" standalone="no"?>
<!DOCTYPE svg PUBLIC "-//W3C//DTD SVG 1.1//EN"
 "http://www.w3.org/Graphics/SVG/1.1/DTD/svg11.dtd">
<!-- Generated by graphviz version 2.38.0 (20140413.2041)
 -->
<!-- Title: Nx::addvolume Pages: 1 -->
<svg width="854pt" height="118pt"
 viewBox="0.00 0.00 854.00 118.06" xmlns="http://www.w3.org/2000/svg" xmlns:xlink="http://www.w3.org/1999/xlink">
<g id="graph0" class="graph" transform="scale(1 1) rotate(0) translate(4 114.057)">
<title>Nx::addvolume</title>
<polygon fill="white" stroke="none" points="-4,4 -4,-114.057 850,-114.057 850,4 -4,4"/>
<!-- Node1 -->
<g id="node1" class="node"><title>Node1</title>
<g id="a_node1"><a xlink:title=" ">
<polygon fill="#bfbfbf" stroke="black" points="766,-57.5 766,-76.5 846,-76.5 846,-57.5 766,-57.5"/>
<text text-anchor="middle" x="806" y="-64.5" font-family="Helvetica,sans-Serif" font-size="10.00">Nx::addvolume</text>
</a>
</g>
</g>
<!-- Node2 -->
<g id="node2" class="node"><title>Node2</title>
<g id="a_node2"><a xlink:href="../../d1/d06/namespace_nx.html#ade83ab2238064fcb2e14b9812ee4e9c4" target="_top" xlink:title=" ">
<polygon fill="white" stroke="black" points="676,-57.5 676,-76.5 730,-76.5 730,-57.5 676,-57.5"/>
<text text-anchor="middle" x="703" y="-64.5" font-family="Helvetica,sans-Serif" font-size="10.00">Nx::nVol</text>
</a>
</g>
</g>
<!-- Node1&#45;&gt;Node2 -->
<g id="edge1" class="edge"><title>Node1&#45;&gt;Node2</title>
<path fill="none" stroke="midnightblue" d="M755.683,-67C746.862,-67 737.993,-67 730.154,-67"/>
<polygon fill="midnightblue" stroke="midnightblue" points="755.951,-70.5001 765.951,-67 755.951,-63.5001 755.951,-70.5001"/>
</g>
<!-- Node3 -->
<g id="node3" class="node"><title>Node3</title>
<g id="a_node3"><a xlink:href="../../d1/d06/namespace_nx.html#a7a0bee49f9e319d7bc9958be5b385814" target="_top" xlink:title=" ">
<polygon fill="white" stroke="black" points="467,-76.5 467,-95.5 522,-95.5 522,-76.5 467,-76.5"/>
<text text-anchor="middle" x="494.5" y="-83.5" font-family="Helvetica,sans-Serif" font-size="10.00">Nx::nCut</text>
</a>
</g>
</g>
<!-- Node2&#45;&gt;Node3 -->
<g id="edge2" class="edge"><title>Node2&#45;&gt;Node3</title>
<path fill="none" stroke="midnightblue" d="M682.528,-82.8083C670.932,-91.1872 655.492,-100.63 640,-105 599.453,-116.437 550.524,-104.96 521.268,-95.5369"/>
<polygon fill="midnightblue" stroke="midnightblue" points="684.724,-85.5362 690.584,-76.71 680.499,-79.9549 684.724,-85.5362"/>
</g>
<!-- Node4 -->
<g id="node4" class="node"><title>Node4</title>
<g id="a_node4"><a xlink:href="../../d1/d06/namespace_nx.html#a30d0a5e42383f642c6621e34ba25d1a1" target="_top" xlink:title=" ">
<polygon fill="white" stroke="black" points="291,-38.5 291,-57.5 431,-57.5 431,-38.5 291,-38.5"/>
<text text-anchor="middle" x="361" y="-45.5" font-family="Helvetica,sans-Serif" font-size="10.00">Nx::PalQuantResolvePalette</text>
</a>
</g>
</g>
<!-- Node2&#45;&gt;Node4 -->
<g id="edge11" class="edge"><title>Node2&#45;&gt;Node4</title>
<path fill="none" stroke="midnightblue" d="M665.784,-64.9762C610.064,-61.8624 502.325,-55.8417 431.283,-51.8717"/>
<polygon fill="midnightblue" stroke="midnightblue" points="665.706,-68.4772 675.885,-65.5407 666.096,-61.4881 665.706,-68.4772"/>
</g>
<!-- Node8 -->
<g id="node8" class="node"><title>Node8</title>
<g id="a_node8"><a xlink:href="../../d1/d06/namespace_nx.html#a6b07c463f462a4726b03c6861d14ab5a" target="_top" xlink:title=" ">
<polygon fill="white" stroke="black" points="558,-76.5 558,-95.5 640,-95.5 640,-76.5 558,-76.5"/>
<text text-anchor="middle" x="599" y="-83.5" font-family="Helvetica,sans-Serif" font-size="10.00">Nx::nMaximize</text>
</a>
</g>
</g>
<!-- Node2&#45;&gt;Node8 -->
<g id="edge7" class="edge"><title>Node2&#45;&gt;Node8</title>
<path fill="none" stroke="midnightblue" d="M666.144,-73.679C657.767,-75.2395 648.789,-76.9118 640.235,-78.5052"/>
<polygon fill="midnightblue" stroke="midnightblue" points="666.807,-77.1158 675.997,-71.8437 665.525,-70.2342 666.807,-77.1158"/>
</g>
<!-- Node9 -->
<g id="node9" class="node"><title>Node9</title>
<g id="a_node9"><a xlink:href="../../d1/d06/namespace_nx.html#a23da922450c8fb1a50c78b2f112c7954" target="_top" xlink:title=" ">
<polygon fill="white" stroke="black" points="467,-0.5 467,-19.5 522,-19.5 522,-0.5 467,-0.5"/>
<text text-anchor="middle" x="494.5" y="-7.5" font-family="Helvetica,sans-Serif" font-size="10.00">Nx::nVar</text>
</a>
</g>
</g>
<!-- Node2&#45;&gt;Node9 -->
<g id="edge9" class="edge"><title>Node2&#45;&gt;Node9</title>
<path fill="none" stroke="midnightblue" d="M678.563,-52.1978C667.291,-45.6962 653.352,-38.5267 640,-34 600.261,-20.528 551.72,-14.4522 522.231,-11.8349"/>
<polygon fill="midnightblue" stroke="midnightblue" points="676.951,-55.3118 687.332,-57.4294 680.537,-49.3003 676.951,-55.3118"/>
</g>
<!-- Node3&#45;&gt;Node4 -->
<g id="edge3" class="edge"><title>Node3&#45;&gt;Node4</title>
<path fill="none" stroke="midnightblue" d="M457.175,-75.503C437.754,-69.8909 414.018,-63.0319 395.109,-57.5675"/>
<polygon fill="midnightblue" stroke="midnightblue" points="456.31,-78.8963 466.889,-78.3101 458.254,-72.1715 456.31,-78.8963"/>
</g>
<!-- Node5 -->
<g id="node5" class="node"><title>Node5</title>
<g id="a_node5"><a xlink:href="../../d1/d06/namespace_nx.html#ae5ea3854160ca7a8cfdeb4b8817cb572" target="_top" xlink:title=" ">
<polygon fill="white" stroke="black" points="150,-38.5 150,-57.5 255,-57.5 255,-38.5 150,-38.5"/>
<text text-anchor="middle" x="202.5" y="-45.5" font-family="Helvetica,sans-Serif" font-size="10.00">Nx::GeneratePalette</text>
</a>
</g>
</g>
<!-- Node4&#45;&gt;Node5 -->
<g id="edge4" class="edge"><title>Node4&#45;&gt;Node5</title>
<path fill="none" stroke="midnightblue" d="M280.771,-48C272.126,-48 263.497,-48 255.307,-48"/>
<polygon fill="midnightblue" stroke="midnightblue" points="280.901,-51.5001 290.901,-48 280.901,-44.5001 280.901,-51.5001"/>
</g>
<!-- Node6 -->
<g id="node6" class="node"><title>Node6</title>
<g id="a_node6"><a xlink:href="../../d6/d18/class_nx_1_1_c_ps2_texture.html#a7463b4a7609dcbceed55603c814010dd" target="_top" xlink:title=" ">
<polygon fill="white" stroke="black" points="0.5,-61 0.5,-91 113.5,-91 113.5,-61 0.5,-61"/>
<text text-anchor="start" x="8.5" y="-79" font-family="Helvetica,sans-Serif" font-size="10.00">Nx::CPs2Texture::plat</text>
<text text-anchor="middle" x="57" y="-68" font-family="Helvetica,sans-Serif" font-size="10.00">_combine_textures</text>
</a>
</g>
</g>
<!-- Node5&#45;&gt;Node6 -->
<g id="edge5" class="edge"><title>Node5&#45;&gt;Node6</title>
<path fill="none" stroke="midnightblue" d="M142.671,-59.4789C133.083,-61.3496 123.177,-63.2825 113.669,-65.1378"/>
<polygon fill="midnightblue" stroke="midnightblue" points="143.372,-62.9081 152.517,-57.5577 142.032,-56.0377 143.372,-62.9081"/>
</g>
<!-- Node7 -->
<g id="node7" class="node"><title>Node7</title>
<g id="a_node7"><a xlink:href="../../d6/d18/class_nx_1_1_c_ps2_texture.html#ab9fa2309e580481a8a41dfba120bce92" target="_top" xlink:title=" ">
<polygon fill="white" stroke="black" points="0,-0.5 0,-41.5 114,-41.5 114,-0.5 0,-0.5"/>
<text text-anchor="start" x="8" y="-29.5" font-family="Helvetica,sans-Serif" font-size="10.00">Nx::CPs2Texture::plat</text>
<text text-anchor="start" x="8" y="-18.5" font-family="Helvetica,sans-Serif" font-size="10.00">_put_32bit_image_into</text>
<text text-anchor="middle" x="57" y="-7.5" font-family="Helvetica,sans-Serif" font-size="10.00">_texture</text>
</a>
</g>
</g>
<!-- Node5&#45;&gt;Node7 -->
<g id="edge6" class="edge"><title>Node5&#45;&gt;Node7</title>
<path fill="none" stroke="midnightblue" d="M140.801,-36.5792C132.077,-34.9378 123.129,-33.2543 114.491,-31.629"/>
<polygon fill="midnightblue" stroke="midnightblue" points="140.433,-40.0713 150.907,-38.4808 141.727,-33.192 140.433,-40.0713"/>
</g>
<!-- Node8&#45;&gt;Node3 -->
<g id="edge8" class="edge"><title>Node8&#45;&gt;Node3</title>
<path fill="none" stroke="midnightblue" d="M547.518,-86C538.708,-86 529.868,-86 522.039,-86"/>
<polygon fill="midnightblue" stroke="midnightblue" points="547.784,-89.5001 557.783,-86 547.783,-82.5001 547.784,-89.5001"/>
</g>
<!-- Node9&#45;&gt;Node4 -->
<g id="edge10" class="edge"><title>Node9&#45;&gt;Node4</title>
<path fill="none" stroke="midnightblue" d="M457.175,-20.497C437.754,-26.1091 414.018,-32.9681 395.109,-38.4325"/>
<polygon fill="midnightblue" stroke="midnightblue" points="458.254,-23.8285 466.889,-17.6899 456.31,-17.1037 458.254,-23.8285"/>
</g>
</g>
</svg>
