<?xml version="1.0" encoding="UTF-8" standalone="no"?>
<!DOCTYPE svg PUBLIC "-//W3C//DTD SVG 1.1//EN"
 "http://www.w3.org/Graphics/SVG/1.1/DTD/svg11.dtd">
<!-- Generated by graphviz version 2.38.0 (20140413.2041)
 -->
<!-- Title: Nx::render_particles Pages: 1 -->
<svg width="485pt" height="116pt"
 viewBox="0.00 0.00 485.00 115.50" xmlns="http://www.w3.org/2000/svg" xmlns:xlink="http://www.w3.org/1999/xlink">
<g id="graph0" class="graph" transform="scale(1 1) rotate(0) translate(4 111.5)">
<title>Nx::render_particles</title>
<polygon fill="white" stroke="none" points="-4,4 -4,-111.5 481,-111.5 481,4 -4,4"/>
<!-- Node1 -->
<g id="node1" class="node"><title>Node1</title>
<g id="a_node1"><a xlink:title=" ">
<polygon fill="#bfbfbf" stroke="black" points="0,-50 0,-69 104,-69 104,-50 0,-50"/>
<text text-anchor="middle" x="52" y="-57" font-family="Helvetica,sans-Serif" font-size="10.00">Nx::render_particles</text>
</a>
</g>
</g>
<!-- Node2 -->
<g id="node2" class="node"><title>Node2</title>
<g id="a_node2"><a xlink:href="../../d1/dd7/class_nx_1_1_c_particle.html#a90c2d200a0a1364430649c8c7642da81" target="_top" xlink:title=" ">
<polygon fill="white" stroke="black" points="148.5,-88 148.5,-107 262.5,-107 262.5,-88 148.5,-88"/>
<text text-anchor="middle" x="205.5" y="-95" font-family="Helvetica,sans-Serif" font-size="10.00">Nx::CParticle::IsActive</text>
</a>
</g>
</g>
<!-- Node1&#45;&gt;Node2 -->
<g id="edge1" class="edge"><title>Node1&#45;&gt;Node2</title>
<path fill="none" stroke="midnightblue" d="M91.2298,-69.089C111.132,-74.0809 135.657,-80.2324 156.791,-85.5334"/>
<polygon fill="midnightblue" stroke="midnightblue" points="155.994,-88.9418 166.545,-87.9799 157.697,-82.1521 155.994,-88.9418"/>
</g>
<!-- Node3 -->
<g id="node3" class="node"><title>Node3</title>
<g id="a_node3"><a xlink:href="../../d1/dd7/class_nx_1_1_c_particle.html#a7514930c7654e458751e01d4d414bdb1" target="_top" xlink:title=" ">
<polygon fill="white" stroke="black" points="152,-50 152,-69 259,-69 259,-50 152,-50"/>
<text text-anchor="middle" x="205.5" y="-57" font-family="Helvetica,sans-Serif" font-size="10.00">Nx::CParticle::render</text>
</a>
</g>
</g>
<!-- Node1&#45;&gt;Node3 -->
<g id="edge2" class="edge"><title>Node1&#45;&gt;Node3</title>
<path fill="none" stroke="midnightblue" d="M104.291,-59.5C116.296,-59.5 129.218,-59.5 141.662,-59.5"/>
<polygon fill="midnightblue" stroke="midnightblue" points="141.971,-63.0001 151.971,-59.5 141.971,-56.0001 141.971,-63.0001"/>
</g>
<!-- Node6 -->
<g id="node6" class="node"><title>Node6</title>
<g id="a_node6"><a xlink:href="../../d9/d8c/class_nx_1_1_c_engine.html#ae7c6dccf951abdc7cc20c333d29959d6" target="_top" xlink:title=" ">
<polygon fill="white" stroke="black" points="140,-0.5 140,-30.5 271,-30.5 271,-0.5 140,-0.5"/>
<text text-anchor="start" x="148" y="-18.5" font-family="Helvetica,sans-Serif" font-size="10.00">Nx::CEngine::sGetParticle</text>
<text text-anchor="middle" x="205.5" y="-7.5" font-family="Helvetica,sans-Serif" font-size="10.00">Table</text>
</a>
</g>
</g>
<!-- Node1&#45;&gt;Node6 -->
<g id="edge5" class="edge"><title>Node1&#45;&gt;Node6</title>
<path fill="none" stroke="midnightblue" d="M85.8732,-49.9527C102.55,-45.1094 123.36,-39.0654 142.874,-33.398"/>
<polygon fill="midnightblue" stroke="midnightblue" points="144,-36.7156 152.627,-30.5654 142.048,-29.9934 144,-36.7156"/>
</g>
<!-- Node4 -->
<g id="node4" class="node"><title>Node4</title>
<g id="a_node4"><a xlink:href="../../d1/dd7/class_nx_1_1_c_particle.html#a1e00f4cd8a42d5b70092e67a3bf02bc1" target="_top" xlink:title=" ">
<polygon fill="white" stroke="black" points="307,-44.5 307,-74.5 403,-74.5 403,-44.5 307,-44.5"/>
<text text-anchor="start" x="315" y="-62.5" font-family="Helvetica,sans-Serif" font-size="10.00">Nx::CParticle::plat</text>
<text text-anchor="middle" x="355" y="-51.5" font-family="Helvetica,sans-Serif" font-size="10.00">_render</text>
</a>
</g>
</g>
<!-- Node3&#45;&gt;Node4 -->
<g id="edge3" class="edge"><title>Node3&#45;&gt;Node4</title>
<path fill="none" stroke="midnightblue" d="M259.334,-59.5C271.475,-59.5 284.441,-59.5 296.759,-59.5"/>
<polygon fill="midnightblue" stroke="midnightblue" points="296.921,-63.0001 306.921,-59.5 296.921,-56.0001 296.921,-63.0001"/>
</g>
<!-- Node5 -->
<g id="node5" class="node"><title>Node5</title>
<g id="a_node5"><a xlink:href="../../df/d92/standard_8cpp.html#a5fc8fd1788f18ada61dfda9f171c5a1a" target="_top" xlink:title=" ">
<polygon fill="white" stroke="black" points="439,-50 439,-69 477,-69 477,-50 439,-50"/>
<text text-anchor="middle" x="458" y="-57" font-family="Helvetica,sans-Serif" font-size="10.00">printf</text>
</a>
</g>
</g>
<!-- Node4&#45;&gt;Node5 -->
<g id="edge4" class="edge"><title>Node4&#45;&gt;Node5</title>
<path fill="none" stroke="midnightblue" d="M403.247,-59.5C411.859,-59.5 420.599,-59.5 428.457,-59.5"/>
<polygon fill="midnightblue" stroke="midnightblue" points="428.532,-63.0001 438.532,-59.5 428.532,-56.0001 428.532,-63.0001"/>
</g>
</g>
</svg>
