<?xml version="1.0" encoding="UTF-8" standalone="no"?>
<!DOCTYPE svg PUBLIC "-//W3C//DTD SVG 1.1//EN"
 "http://www.w3.org/Graphics/SVG/1.1/DTD/svg11.dtd">
<!-- Generated by graphviz version 2.38.0 (20140413.2041)
 -->
<!-- Title: Nx::ScriptAdjustTextureBrightness Pages: 1 -->
<svg width="724pt" height="154pt"
 viewBox="0.00 0.00 724.00 153.50" xmlns="http://www.w3.org/2000/svg" xmlns:xlink="http://www.w3.org/1999/xlink">
<g id="graph0" class="graph" transform="scale(1 1) rotate(0) translate(4 149.5)">
<title>Nx::ScriptAdjustTextureBrightness</title>
<polygon fill="white" stroke="none" points="-4,4 -4,-149.5 720,-149.5 720,4 -4,4"/>
<!-- Node1 -->
<g id="node1" class="node"><title>Node1</title>
<g id="a_node1"><a xlink:title=" ">
<polygon fill="#bfbfbf" stroke="black" points="0,-66.5 0,-85.5 167,-85.5 167,-66.5 0,-66.5"/>
<text text-anchor="middle" x="83.5" y="-73.5" font-family="Helvetica,sans-Serif" font-size="10.00">Nx::ScriptAdjustTextureBrightness</text>
</a>
</g>
</g>
<!-- Node2 -->
<g id="node2" class="node"><title>Node2</title>
<g id="a_node2"><a xlink:href="../../da/df1/class_nx_1_1_c_texture.html#a2a301fb94573ea2db1831b3f163d9824" target="_top" xlink:title=" ">
<polygon fill="white" stroke="black" points="203,-112.5 203,-131.5 357,-131.5 357,-112.5 203,-112.5"/>
<text text-anchor="middle" x="280" y="-119.5" font-family="Helvetica,sans-Serif" font-size="10.00">Nx::CTexture::AdjustBrightness</text>
</a>
</g>
</g>
<!-- Node1&#45;&gt;Node2 -->
<g id="edge1" class="edge"><title>Node1&#45;&gt;Node2</title>
<path fill="none" stroke="midnightblue" d="M124.801,-85.5312C154.922,-92.655 196.297,-102.44 228.606,-110.082"/>
<polygon fill="midnightblue" stroke="midnightblue" points="228.214,-113.585 238.751,-112.481 229.825,-106.773 228.214,-113.585"/>
</g>
<!-- Node5 -->
<g id="node5" class="node"><title>Node5</title>
<g id="a_node5"><a xlink:href="../../d1/d54/namespace_script.html#ae80ed69ea4edcbcbbbd4985a6efdcd6e" target="_top" xlink:title=" ">
<polygon fill="white" stroke="black" points="210.5,-66.5 210.5,-85.5 349.5,-85.5 349.5,-66.5 210.5,-66.5"/>
<text text-anchor="middle" x="280" y="-73.5" font-family="Helvetica,sans-Serif" font-size="10.00">Script::FindChecksumName</text>
</a>
</g>
</g>
<!-- Node1&#45;&gt;Node5 -->
<g id="edge4" class="edge"><title>Node1&#45;&gt;Node5</title>
<path fill="none" stroke="midnightblue" d="M167.268,-76C178.159,-76 189.298,-76 200.122,-76"/>
<polygon fill="midnightblue" stroke="midnightblue" points="200.384,-79.5001 210.384,-76 200.384,-72.5001 200.384,-79.5001"/>
</g>
<!-- Node9 -->
<g id="node9" class="node"><title>Node9</title>
<g id="a_node9"><a xlink:href="../../d1/d37/class_nx_1_1_c_tex_dict.html#ae580a961a82318c752e4ed1b4b1163d6" target="_top" xlink:title=" ">
<polygon fill="white" stroke="black" points="216,-19.5 216,-38.5 344,-38.5 344,-19.5 216,-19.5"/>
<text text-anchor="middle" x="280" y="-26.5" font-family="Helvetica,sans-Serif" font-size="10.00">Nx::CTexDict::GetTexture</text>
</a>
</g>
</g>
<!-- Node1&#45;&gt;Node9 -->
<g id="edge8" class="edge"><title>Node1&#45;&gt;Node9</title>
<path fill="none" stroke="midnightblue" d="M123.86,-66.4888C154.341,-59.1233 196.75,-48.8752 229.527,-40.955"/>
<polygon fill="midnightblue" stroke="midnightblue" points="230.467,-44.3286 239.365,-38.5776 228.823,-37.5244 230.467,-44.3286"/>
</g>
<!-- Node3 -->
<g id="node3" class="node"><title>Node3</title>
<g id="a_node3"><a xlink:href="../../da/df1/class_nx_1_1_c_texture.html#aea46db4de920e06d49e2b2ae18046fbe" target="_top" xlink:title=" ">
<polygon fill="white" stroke="black" points="425.5,-115 425.5,-145 523.5,-145 523.5,-115 425.5,-115"/>
<text text-anchor="start" x="433.5" y="-133" font-family="Helvetica,sans-Serif" font-size="10.00">Nx::CTexture::plat</text>
<text text-anchor="middle" x="474.5" y="-122" font-family="Helvetica,sans-Serif" font-size="10.00">_adjust_brightness</text>
</a>
</g>
</g>
<!-- Node2&#45;&gt;Node3 -->
<g id="edge2" class="edge"><title>Node2&#45;&gt;Node3</title>
<path fill="none" stroke="midnightblue" d="M357.081,-125.162C376.41,-125.965 396.876,-126.816 415.166,-127.576"/>
<polygon fill="midnightblue" stroke="midnightblue" points="415.234,-131.081 425.37,-128 415.524,-124.088 415.234,-131.081"/>
</g>
<!-- Node4 -->
<g id="node4" class="node"><title>Node4</title>
<g id="a_node4"><a xlink:href="../../df/d92/standard_8cpp.html#a5fc8fd1788f18ada61dfda9f171c5a1a" target="_top" xlink:title=" ">
<polygon fill="white" stroke="black" points="635,-120.5 635,-139.5 673,-139.5 673,-120.5 635,-120.5"/>
<text text-anchor="middle" x="654" y="-127.5" font-family="Helvetica,sans-Serif" font-size="10.00">printf</text>
</a>
</g>
</g>
<!-- Node3&#45;&gt;Node4 -->
<g id="edge3" class="edge"><title>Node3&#45;&gt;Node4</title>
<path fill="none" stroke="midnightblue" d="M523.534,-130C555.983,-130 597.703,-130 624.884,-130"/>
<polygon fill="midnightblue" stroke="midnightblue" points="624.884,-133.5 634.884,-130 624.884,-126.5 624.884,-133.5"/>
</g>
<!-- Node6 -->
<g id="node6" class="node"><title>Node6</title>
<g id="a_node6"><a xlink:href="../../d1/d54/namespace_script.html#a5cc52c4ff5ea5bb27681d819212dfdca" target="_top" xlink:title=" ">
<polygon fill="white" stroke="black" points="393,-76.5 393,-95.5 556,-95.5 556,-76.5 393,-76.5"/>
<text text-anchor="middle" x="474.5" y="-83.5" font-family="Helvetica,sans-Serif" font-size="10.00">Script::FindChecksumNameNULL</text>
</a>
</g>
</g>
<!-- Node5&#45;&gt;Node6 -->
<g id="edge5" class="edge"><title>Node5&#45;&gt;Node6</title>
<path fill="none" stroke="midnightblue" d="M349.682,-79.5679C360.346,-80.1219 371.503,-80.7015 382.567,-81.2762"/>
<polygon fill="midnightblue" stroke="midnightblue" points="382.515,-84.7782 392.684,-81.8017 382.879,-77.7876 382.515,-84.7782"/>
</g>
<!-- Node8 -->
<g id="node8" class="node"><title>Node8</title>
<g id="a_node8"><a xlink:href="../../da/d37/namespace_dbg.html#ab406a8cc16de5046c7d9fd09c9de5e22" target="_top" xlink:title=" ">
<polygon fill="white" stroke="black" points="441.5,-38.5 441.5,-57.5 507.5,-57.5 507.5,-38.5 441.5,-38.5"/>
<text text-anchor="middle" x="474.5" y="-45.5" font-family="Helvetica,sans-Serif" font-size="10.00">Dbg::sprintf</text>
</a>
</g>
</g>
<!-- Node5&#45;&gt;Node8 -->
<g id="edge7" class="edge"><title>Node5&#45;&gt;Node8</title>
<path fill="none" stroke="midnightblue" d="M346.44,-66.4814C374.48,-62.403 406.419,-57.7573 431.26,-54.144"/>
<polygon fill="midnightblue" stroke="midnightblue" points="432.048,-57.5663 441.44,-52.6633 431.04,-50.6392 432.048,-57.5663"/>
</g>
<!-- Node7 -->
<g id="node7" class="node"><title>Node7</title>
<g id="a_node7"><a xlink:href="../../d0/d31/namespace_config.html#a709cc81780d49900157e3476b63aa25d" target="_top" xlink:title=" ">
<polygon fill="white" stroke="black" points="592,-76.5 592,-95.5 716,-95.5 716,-76.5 592,-76.5"/>
<text text-anchor="middle" x="654" y="-83.5" font-family="Helvetica,sans-Serif" font-size="10.00">Config::GotExtraMemory</text>
</a>
</g>
</g>
<!-- Node6&#45;&gt;Node7 -->
<g id="edge6" class="edge"><title>Node6&#45;&gt;Node7</title>
<path fill="none" stroke="midnightblue" d="M556.2,-86C564.729,-86 573.358,-86 581.768,-86"/>
<polygon fill="midnightblue" stroke="midnightblue" points="581.898,-89.5001 591.898,-86 581.898,-82.5001 581.898,-89.5001"/>
</g>
<!-- Node10 -->
<g id="node10" class="node"><title>Node10</title>
<g id="a_node10"><a xlink:href="../../df/de2/_messages_8h.html#a771b760c9d0250da6766f107453b9c60" target="_top" xlink:title=" ">
<polygon fill="white" stroke="black" points="444.5,-0.5 444.5,-19.5 504.5,-19.5 504.5,-0.5 444.5,-0.5"/>
<text text-anchor="middle" x="474.5" y="-7.5" font-family="Helvetica,sans-Serif" font-size="10.00">Dbg_Error</text>
</a>
</g>
</g>
<!-- Node9&#45;&gt;Node10 -->
<g id="edge9" class="edge"><title>Node9&#45;&gt;Node10</title>
<path fill="none" stroke="midnightblue" d="M344.032,-22.7787C373.714,-19.849 408.201,-16.4451 434.115,-13.8874"/>
<polygon fill="midnightblue" stroke="midnightblue" points="434.695,-17.3472 444.303,-12.8818 434.007,-10.3811 434.695,-17.3472"/>
</g>
</g>
</svg>
