<?xml version="1.0" encoding="UTF-8" standalone="no"?>
<!DOCTYPE svg PUBLIC "-//W3C//DTD SVG 1.1//EN"
 "http://www.w3.org/Graphics/SVG/1.1/DTD/svg11.dtd">
<!-- Generated by graphviz version 2.38.0 (20140413.2041)
 -->
<!-- Title: Nx::Shatter Pages: 1 -->
<svg width="223pt" height="137pt"
 viewBox="0.00 0.00 223.00 137.00" xmlns="http://www.w3.org/2000/svg" xmlns:xlink="http://www.w3.org/1999/xlink">
<g id="graph0" class="graph" transform="scale(1 1) rotate(0) translate(4 133)">
<title>Nx::Shatter</title>
<polygon fill="white" stroke="none" points="-4,4 -4,-133 219,-133 219,4 -4,4"/>
<!-- Node1 -->
<g id="node1" class="node"><title>Node1</title>
<g id="a_node1"><a xlink:title=" ">
<polygon fill="#bfbfbf" stroke="black" points="149,-55 149,-74 215,-74 215,-55 149,-55"/>
<text text-anchor="middle" x="182" y="-62" font-family="Helvetica,sans-Serif" font-size="10.00">Nx::Shatter</text>
</a>
</g>
</g>
<!-- Node2 -->
<g id="node2" class="node"><title>Node2</title>
<g id="a_node2"><a xlink:href="../../d5/d44/class_nx_1_1_c_xbox_sector.html#a8412266fdc5735acbaab73c2bc37ae54" target="_top" xlink:title=" ">
<polygon fill="white" stroke="black" points="0,-98.5 0,-128.5 113,-128.5 113,-98.5 0,-98.5"/>
<text text-anchor="start" x="8" y="-116.5" font-family="Helvetica,sans-Serif" font-size="10.00">Nx::CXboxSector::plat</text>
<text text-anchor="middle" x="56.5" y="-105.5" font-family="Helvetica,sans-Serif" font-size="10.00">_set_shatter</text>
</a>
</g>
</g>
<!-- Node1&#45;&gt;Node2 -->
<g id="edge1" class="edge"><title>Node1&#45;&gt;Node2</title>
<path fill="none" stroke="midnightblue" d="M147.399,-77.8317C131.397,-84.1804 112.188,-91.802 95.6408,-98.3672"/>
<polygon fill="midnightblue" stroke="midnightblue" points="148.89,-81.0053 156.895,-74.064 146.309,-74.4987 148.89,-81.0053"/>
</g>
<!-- Node3 -->
<g id="node3" class="node"><title>Node3</title>
<g id="a_node3"><a xlink:href="../../d3/d9e/class_nx_1_1_c_ngc_sector.html#a7d43e190943b9efea5682f7c6c2a7b6a" target="_top" xlink:title=" ">
<polygon fill="white" stroke="black" points="2,-49.5 2,-79.5 111,-79.5 111,-49.5 2,-49.5"/>
<text text-anchor="start" x="10" y="-67.5" font-family="Helvetica,sans-Serif" font-size="10.00">Nx::CNgcSector::plat</text>
<text text-anchor="middle" x="56.5" y="-56.5" font-family="Helvetica,sans-Serif" font-size="10.00">_set_shatter</text>
</a>
</g>
</g>
<!-- Node1&#45;&gt;Node3 -->
<g id="edge2" class="edge"><title>Node1&#45;&gt;Node3</title>
<path fill="none" stroke="midnightblue" d="M138.854,-64.5C130.043,-64.5 120.639,-64.5 111.467,-64.5"/>
<polygon fill="midnightblue" stroke="midnightblue" points="138.874,-68.0001 148.874,-64.5 138.874,-61.0001 138.874,-68.0001"/>
</g>
<!-- Node4 -->
<g id="node4" class="node"><title>Node4</title>
<g id="a_node4"><a xlink:href="../../d6/da8/class_nx_1_1_c_ps2_sector.html#a93be1bc31916c7ac2586f2bb90202cf4" target="_top" xlink:title=" ">
<polygon fill="white" stroke="black" points="2,-0.5 2,-30.5 111,-30.5 111,-0.5 2,-0.5"/>
<text text-anchor="start" x="10" y="-18.5" font-family="Helvetica,sans-Serif" font-size="10.00">Nx::CPs2Sector::plat</text>
<text text-anchor="middle" x="56.5" y="-7.5" font-family="Helvetica,sans-Serif" font-size="10.00">_set_shatter</text>
</a>
</g>
</g>
<!-- Node1&#45;&gt;Node4 -->
<g id="edge3" class="edge"><title>Node1&#45;&gt;Node4</title>
<path fill="none" stroke="midnightblue" d="M147.399,-51.1683C131.397,-44.8196 112.188,-37.198 95.6408,-30.6328"/>
<polygon fill="midnightblue" stroke="midnightblue" points="146.309,-54.5013 156.895,-54.936 148.89,-47.9947 146.309,-54.5013"/>
</g>
</g>
</svg>
