<?xml version="1.0" encoding="UTF-8" standalone="no"?>
<!DOCTYPE svg PUBLIC "-//W3C//DTD SVG 1.1//EN"
 "http://www.w3.org/Graphics/SVG/1.1/DTD/svg11.dtd">
<!-- Generated by graphviz version 2.38.0 (20140413.2041)
 -->
<!-- Title: Nx::ScriptUnloadFont Pages: 1 -->
<svg width="641pt" height="78pt"
 viewBox="0.00 0.00 641.00 77.50" xmlns="http://www.w3.org/2000/svg" xmlns:xlink="http://www.w3.org/1999/xlink">
<g id="graph0" class="graph" transform="scale(1 1) rotate(0) translate(4 73.5)">
<title>Nx::ScriptUnloadFont</title>
<polygon fill="white" stroke="none" points="-4,4 -4,-73.5 637,-73.5 637,4 -4,4"/>
<!-- Node1 -->
<g id="node1" class="node"><title>Node1</title>
<g id="a_node1"><a xlink:title=" ">
<polygon fill="#bfbfbf" stroke="black" points="0,-28 0,-47 110,-47 110,-28 0,-28"/>
<text text-anchor="middle" x="55" y="-35" font-family="Helvetica,sans-Serif" font-size="10.00">Nx::ScriptUnloadFont</text>
</a>
</g>
</g>
<!-- Node2 -->
<g id="node2" class="node"><title>Node2</title>
<g id="a_node2"><a xlink:href="../../df/d77/class_nx_1_1_c_font_manager.html#af7595b8bfe2c95476153a65f75e6b24a" target="_top" xlink:title=" ">
<polygon fill="white" stroke="black" points="146,-28 146,-47 305,-47 305,-28 146,-28"/>
<text text-anchor="middle" x="225.5" y="-35" font-family="Helvetica,sans-Serif" font-size="10.00">Nx::CFontManager::sUnloadFont</text>
</a>
</g>
</g>
<!-- Node1&#45;&gt;Node2 -->
<g id="edge1" class="edge"><title>Node1&#45;&gt;Node2</title>
<path fill="none" stroke="midnightblue" d="M110.242,-37.5C118.402,-37.5 126.993,-37.5 135.649,-37.5"/>
<polygon fill="midnightblue" stroke="midnightblue" points="135.819,-41.0001 145.819,-37.5 135.819,-34.0001 135.819,-41.0001"/>
</g>
<!-- Node3 -->
<g id="node3" class="node"><title>Node3</title>
<g id="a_node3"><a xlink:href="../../d1/d54/namespace_script.html#aa331360f088c15972ac441ecb8b40cd9" target="_top" xlink:title=" ">
<polygon fill="white" stroke="black" points="342,-50 342,-69 450,-69 450,-50 342,-50"/>
<text text-anchor="middle" x="396" y="-57" font-family="Helvetica,sans-Serif" font-size="10.00">Script::GenerateCRC</text>
</a>
</g>
</g>
<!-- Node2&#45;&gt;Node3 -->
<g id="edge2" class="edge"><title>Node2&#45;&gt;Node3</title>
<path fill="none" stroke="midnightblue" d="M299.427,-47.0216C310.211,-48.4296 321.247,-49.8706 331.812,-51.2499"/>
<polygon fill="midnightblue" stroke="midnightblue" points="331.403,-54.7262 341.772,-52.5504 332.31,-47.7851 331.403,-54.7262"/>
</g>
<!-- Node5 -->
<g id="node5" class="node"><title>Node5</title>
<g id="a_node5"><a xlink:href="../../df/d77/class_nx_1_1_c_font_manager.html#ad3b0347fa007a9e06f50d8165d3b3d49" target="_top" xlink:title=" ">
<polygon fill="white" stroke="black" points="341,-0.5 341,-30.5 451,-30.5 451,-0.5 341,-0.5"/>
<text text-anchor="start" x="349" y="-18.5" font-family="Helvetica,sans-Serif" font-size="10.00">Nx::CFontManager::s</text>
<text text-anchor="middle" x="396" y="-7.5" font-family="Helvetica,sans-Serif" font-size="10.00">_plat_unload_font</text>
</a>
</g>
</g>
<!-- Node2&#45;&gt;Node5 -->
<g id="edge4" class="edge"><title>Node2&#45;&gt;Node5</title>
<path fill="none" stroke="midnightblue" d="M299.427,-27.9784C309.833,-26.6197 320.474,-25.2304 330.699,-23.8954"/>
<polygon fill="midnightblue" stroke="midnightblue" points="331.299,-27.3468 340.762,-22.5816 330.393,-20.4058 331.299,-27.3468"/>
</g>
<!-- Node4 -->
<g id="node4" class="node"><title>Node4</title>
<g id="a_node4"><a xlink:href="../../d3/d9b/namespace_crc.html#aed1b5ad21f682b39b09782ec29f5c5cc" target="_top" xlink:title=" ">
<polygon fill="white" stroke="black" points="487,-50 487,-69 633,-69 633,-50 487,-50"/>
<text text-anchor="middle" x="560" y="-57" font-family="Helvetica,sans-Serif" font-size="10.00">Crc::GenerateCRCFromString</text>
</a>
</g>
</g>
<!-- Node3&#45;&gt;Node4 -->
<g id="edge3" class="edge"><title>Node3&#45;&gt;Node4</title>
<path fill="none" stroke="midnightblue" d="M450.045,-59.5C458.56,-59.5 467.544,-59.5 476.553,-59.5"/>
<polygon fill="midnightblue" stroke="midnightblue" points="476.71,-63.0001 486.71,-59.5 476.71,-56.0001 476.71,-63.0001"/>
</g>
</g>
</svg>
