<?xml version="1.0" encoding="UTF-8" standalone="no"?>
<!DOCTYPE svg PUBLIC "-//W3C//DTD SVG 1.1//EN"
 "http://www.w3.org/Graphics/SVG/1.1/DTD/svg11.dtd">
<!-- Generated by graphviz version 2.38.0 (20140413.2041)
 -->
<!-- Title: Nx::ScriptGenerate32BitImage Pages: 1 -->
<svg width="691pt" height="154pt"
 viewBox="0.00 0.00 691.00 154.00" xmlns="http://www.w3.org/2000/svg" xmlns:xlink="http://www.w3.org/1999/xlink">
<g id="graph0" class="graph" transform="scale(1 1) rotate(0) translate(4 150)">
<title>Nx::ScriptGenerate32BitImage</title>
<polygon fill="white" stroke="none" points="-4,4 -4,-150 687,-150 687,4 -4,4"/>
<!-- Node1 -->
<g id="node1" class="node"><title>Node1</title>
<g id="a_node1"><a xlink:title=" ">
<polygon fill="#bfbfbf" stroke="black" points="0,-44.5 0,-63.5 149,-63.5 149,-44.5 0,-44.5"/>
<text text-anchor="middle" x="74.5" y="-51.5" font-family="Helvetica,sans-Serif" font-size="10.00">Nx::ScriptGenerate32BitImage</text>
</a>
</g>
</g>
<!-- Node2 -->
<g id="node2" class="node"><title>Node2</title>
<g id="a_node2"><a xlink:href="../../d1/d54/namespace_script.html#ae80ed69ea4edcbcbbbd4985a6efdcd6e" target="_top" xlink:title=" ">
<polygon fill="white" stroke="black" points="185,-88.5 185,-107.5 324,-107.5 324,-88.5 185,-88.5"/>
<text text-anchor="middle" x="254.5" y="-95.5" font-family="Helvetica,sans-Serif" font-size="10.00">Script::FindChecksumName</text>
</a>
</g>
</g>
<!-- Node1&#45;&gt;Node2 -->
<g id="edge1" class="edge"><title>Node1&#45;&gt;Node2</title>
<path fill="none" stroke="midnightblue" d="M114.123,-63.5473C140.831,-70.1492 176.563,-78.9819 205.161,-86.051"/>
<polygon fill="midnightblue" stroke="midnightblue" points="204.404,-89.4693 214.952,-88.4713 206.084,-82.6738 204.404,-89.4693"/>
</g>
<!-- Node6 -->
<g id="node6" class="node"><title>Node6</title>
<g id="a_node6"><a xlink:href="../../da/df1/class_nx_1_1_c_texture.html#afc10c6526c379183c71a00742a69e69c" target="_top" xlink:title=" ">
<polygon fill="white" stroke="black" points="189.5,-39 189.5,-69 319.5,-69 319.5,-39 189.5,-39"/>
<text text-anchor="start" x="197.5" y="-57" font-family="Helvetica,sans-Serif" font-size="10.00">Nx::CTexture::Generate32</text>
<text text-anchor="middle" x="254.5" y="-46" font-family="Helvetica,sans-Serif" font-size="10.00">BitImage</text>
</a>
</g>
</g>
<!-- Node1&#45;&gt;Node6 -->
<g id="edge5" class="edge"><title>Node1&#45;&gt;Node6</title>
<path fill="none" stroke="midnightblue" d="M149.184,-54C159.051,-54 169.177,-54 179.057,-54"/>
<polygon fill="midnightblue" stroke="midnightblue" points="179.242,-57.5001 189.242,-54 179.242,-50.5001 179.242,-57.5001"/>
</g>
<!-- Node9 -->
<g id="node9" class="node"><title>Node9</title>
<g id="a_node9"><a xlink:href="../../d1/d37/class_nx_1_1_c_tex_dict.html#ae580a961a82318c752e4ed1b4b1163d6" target="_top" xlink:title=" ">
<polygon fill="white" stroke="black" points="190.5,-0.5 190.5,-19.5 318.5,-19.5 318.5,-0.5 190.5,-0.5"/>
<text text-anchor="middle" x="254.5" y="-7.5" font-family="Helvetica,sans-Serif" font-size="10.00">Nx::CTexDict::GetTexture</text>
</a>
</g>
</g>
<!-- Node1&#45;&gt;Node9 -->
<g id="edge8" class="edge"><title>Node1&#45;&gt;Node9</title>
<path fill="none" stroke="midnightblue" d="M114.123,-44.4527C140.831,-37.8508 176.563,-29.0181 205.161,-21.949"/>
<polygon fill="midnightblue" stroke="midnightblue" points="206.084,-25.3262 214.952,-19.5287 204.404,-18.5307 206.084,-25.3262"/>
</g>
<!-- Node3 -->
<g id="node3" class="node"><title>Node3</title>
<g id="a_node3"><a xlink:href="../../d1/d54/namespace_script.html#a5cc52c4ff5ea5bb27681d819212dfdca" target="_top" xlink:title=" ">
<polygon fill="white" stroke="black" points="360,-126.5 360,-145.5 523,-145.5 523,-126.5 360,-126.5"/>
<text text-anchor="middle" x="441.5" y="-133.5" font-family="Helvetica,sans-Serif" font-size="10.00">Script::FindChecksumNameNULL</text>
</a>
</g>
</g>
<!-- Node2&#45;&gt;Node3 -->
<g id="edge2" class="edge"><title>Node2&#45;&gt;Node3</title>
<path fill="none" stroke="midnightblue" d="M302.183,-107.589C327.146,-112.716 358.064,-119.067 384.334,-124.463"/>
<polygon fill="midnightblue" stroke="midnightblue" points="383.653,-127.896 394.152,-126.48 385.061,-121.039 383.653,-127.896"/>
</g>
<!-- Node5 -->
<g id="node5" class="node"><title>Node5</title>
<g id="a_node5"><a xlink:href="../../da/d37/namespace_dbg.html#ab406a8cc16de5046c7d9fd09c9de5e22" target="_top" xlink:title=" ">
<polygon fill="white" stroke="black" points="408.5,-88.5 408.5,-107.5 474.5,-107.5 474.5,-88.5 408.5,-88.5"/>
<text text-anchor="middle" x="441.5" y="-95.5" font-family="Helvetica,sans-Serif" font-size="10.00">Dbg::sprintf</text>
</a>
</g>
</g>
<!-- Node2&#45;&gt;Node5 -->
<g id="edge4" class="edge"><title>Node2&#45;&gt;Node5</title>
<path fill="none" stroke="midnightblue" d="M324.124,-98C348.868,-98 376.058,-98 397.93,-98"/>
<polygon fill="midnightblue" stroke="midnightblue" points="398.206,-101.5 408.206,-98 398.206,-94.5001 398.206,-101.5"/>
</g>
<!-- Node4 -->
<g id="node4" class="node"><title>Node4</title>
<g id="a_node4"><a xlink:href="../../d0/d31/namespace_config.html#a709cc81780d49900157e3476b63aa25d" target="_top" xlink:title=" ">
<polygon fill="white" stroke="black" points="559,-126.5 559,-145.5 683,-145.5 683,-126.5 559,-126.5"/>
<text text-anchor="middle" x="621" y="-133.5" font-family="Helvetica,sans-Serif" font-size="10.00">Config::GotExtraMemory</text>
</a>
</g>
</g>
<!-- Node3&#45;&gt;Node4 -->
<g id="edge3" class="edge"><title>Node3&#45;&gt;Node4</title>
<path fill="none" stroke="midnightblue" d="M523.2,-136C531.729,-136 540.358,-136 548.768,-136"/>
<polygon fill="midnightblue" stroke="midnightblue" points="548.898,-139.5 558.898,-136 548.898,-132.5 548.898,-139.5"/>
</g>
<!-- Node7 -->
<g id="node7" class="node"><title>Node7</title>
<g id="a_node7"><a xlink:href="../../da/df1/class_nx_1_1_c_texture.html#a649a2f9aa7b99e40d4a99d89e5a44b10" target="_top" xlink:title=" ">
<polygon fill="white" stroke="black" points="383,-39 383,-69 500,-69 500,-39 383,-39"/>
<text text-anchor="start" x="391" y="-57" font-family="Helvetica,sans-Serif" font-size="10.00">Nx::CTexture::plat</text>
<text text-anchor="middle" x="441.5" y="-46" font-family="Helvetica,sans-Serif" font-size="10.00">_generate_32bit_image</text>
</a>
</g>
</g>
<!-- Node6&#45;&gt;Node7 -->
<g id="edge6" class="edge"><title>Node6&#45;&gt;Node7</title>
<path fill="none" stroke="midnightblue" d="M319.685,-54C336.871,-54 355.5,-54 372.866,-54"/>
<polygon fill="midnightblue" stroke="midnightblue" points="372.925,-57.5001 382.925,-54 372.925,-50.5001 372.925,-57.5001"/>
</g>
<!-- Node8 -->
<g id="node8" class="node"><title>Node8</title>
<g id="a_node8"><a xlink:href="../../df/d92/standard_8cpp.html#a5fc8fd1788f18ada61dfda9f171c5a1a" target="_top" xlink:title=" ">
<polygon fill="white" stroke="black" points="602,-44.5 602,-63.5 640,-63.5 640,-44.5 602,-44.5"/>
<text text-anchor="middle" x="621" y="-51.5" font-family="Helvetica,sans-Serif" font-size="10.00">printf</text>
</a>
</g>
</g>
<!-- Node7&#45;&gt;Node8 -->
<g id="edge7" class="edge"><title>Node7&#45;&gt;Node8</title>
<path fill="none" stroke="midnightblue" d="M500.129,-54C530.816,-54 567.185,-54 591.752,-54"/>
<polygon fill="midnightblue" stroke="midnightblue" points="591.826,-57.5001 601.826,-54 591.826,-50.5001 591.826,-57.5001"/>
</g>
<!-- Node10 -->
<g id="node10" class="node"><title>Node10</title>
<g id="a_node10"><a xlink:href="../../df/de2/_messages_8h.html#a771b760c9d0250da6766f107453b9c60" target="_top" xlink:title=" ">
<polygon fill="white" stroke="black" points="411.5,-0.5 411.5,-19.5 471.5,-19.5 471.5,-0.5 411.5,-0.5"/>
<text text-anchor="middle" x="441.5" y="-7.5" font-family="Helvetica,sans-Serif" font-size="10.00">Dbg_Error</text>
</a>
</g>
</g>
<!-- Node9&#45;&gt;Node10 -->
<g id="edge9" class="edge"><title>Node9&#45;&gt;Node10</title>
<path fill="none" stroke="midnightblue" d="M318.649,-10C346.003,-10 377.178,-10 401.147,-10"/>
<polygon fill="midnightblue" stroke="midnightblue" points="401.279,-13.5001 411.279,-10 401.279,-6.5001 401.279,-13.5001"/>
</g>
</g>
</svg>
