<?xml version="1.0" encoding="UTF-8" standalone="no"?>
<!DOCTYPE svg PUBLIC "-//W3C//DTD SVG 1.1//EN"
 "http://www.w3.org/Graphics/SVG/1.1/DTD/svg11.dtd">
<!-- Generated by graphviz version 2.38.0 (20140413.2041)
 -->
<!-- Title: Nx::CSector::SetActive Pages: 1 -->
<svg width="590pt" height="203pt"
 viewBox="0.00 0.00 590.00 203.00" xmlns="http://www.w3.org/2000/svg" xmlns:xlink="http://www.w3.org/1999/xlink">
<g id="graph0" class="graph" transform="scale(1 1) rotate(0) translate(4 199)">
<title>Nx::CSector::SetActive</title>
<polygon fill="white" stroke="none" points="-4,4 -4,-199 586,-199 586,4 -4,4"/>
<!-- Node1 -->
<g id="node1" class="node"><title>Node1</title>
<g id="a_node1"><a xlink:title=" ">
<polygon fill="#bfbfbf" stroke="black" points="0,-88 0,-107 117,-107 117,-88 0,-88"/>
<text text-anchor="middle" x="58.5" y="-95" font-family="Helvetica,sans-Serif" font-size="10.00">Nx::CSector::SetActive</text>
</a>
</g>
</g>
<!-- Node2 -->
<g id="node2" class="node"><title>Node2</title>
<g id="a_node2"><a xlink:href="../../d7/d8e/class_nx_1_1_c_coll_obj.html#aaa7f8a6902cfd84b25efddb0be9ab25f" target="_top" xlink:title=" ">
<polygon fill="white" stroke="black" points="161,-164.5 161,-194.5 291,-194.5 291,-164.5 161,-164.5"/>
<text text-anchor="start" x="169" y="-182.5" font-family="Helvetica,sans-Serif" font-size="10.00">Nx::CCollObj::ClearObject</text>
<text text-anchor="middle" x="226" y="-171.5" font-family="Helvetica,sans-Serif" font-size="10.00">Flags</text>
</a>
</g>
</g>
<!-- Node1&#45;&gt;Node2 -->
<g id="edge1" class="edge"><title>Node1&#45;&gt;Node2</title>
<path fill="none" stroke="midnightblue" d="M73.2322,-107.164C91.0126,-119.369 123.255,-140.466 153,-154.5 157.594,-156.668 162.43,-158.747 167.331,-160.717"/>
<polygon fill="midnightblue" stroke="midnightblue" points="166.201,-164.032 176.791,-164.362 168.718,-157.5 166.201,-164.032"/>
</g>
<!-- Node3 -->
<g id="node3" class="node"><title>Node3</title>
<g id="a_node3"><a xlink:href="../../d8/dd6/class_nx_1_1_c_geom.html#a18298b96937afeeb2df194766535f357" target="_top" xlink:title=" ">
<polygon fill="white" stroke="black" points="172.5,-126 172.5,-145 279.5,-145 279.5,-126 172.5,-126"/>
<text text-anchor="middle" x="226" y="-133" font-family="Helvetica,sans-Serif" font-size="10.00">Nx::CGeom::IsActive</text>
</a>
</g>
</g>
<!-- Node1&#45;&gt;Node3 -->
<g id="edge2" class="edge"><title>Node1&#45;&gt;Node3</title>
<path fill="none" stroke="midnightblue" d="M101.263,-107.089C123.201,-112.126 150.28,-118.344 173.508,-123.677"/>
<polygon fill="midnightblue" stroke="midnightblue" points="173.008,-127.153 183.538,-125.98 174.575,-120.331 173.008,-127.153"/>
</g>
<!-- Node6 -->
<g id="node6" class="node"><title>Node6</title>
<g id="a_node6"><a xlink:href="../../d8/dd6/class_nx_1_1_c_geom.html#aed04f5a37589cb462ff52b35ddc769a7" target="_top" xlink:title=" ">
<polygon fill="white" stroke="black" points="168.5,-88 168.5,-107 283.5,-107 283.5,-88 168.5,-88"/>
<text text-anchor="middle" x="226" y="-95" font-family="Helvetica,sans-Serif" font-size="10.00">Nx::CGeom::SetActive</text>
</a>
</g>
</g>
<!-- Node1&#45;&gt;Node6 -->
<g id="edge5" class="edge"><title>Node1&#45;&gt;Node6</title>
<path fill="none" stroke="midnightblue" d="M117.384,-97.5C130.531,-97.5 144.602,-97.5 158.09,-97.5"/>
<polygon fill="midnightblue" stroke="midnightblue" points="158.265,-101 168.265,-97.5 158.265,-94.0001 158.265,-101"/>
</g>
<!-- Node8 -->
<g id="node8" class="node"><title>Node8</title>
<g id="a_node8"><a xlink:href="../../d7/d8e/class_nx_1_1_c_coll_obj.html#afe156bb2d862491aac142e3676c65a3e" target="_top" xlink:title=" ">
<polygon fill="white" stroke="black" points="153,-50 153,-69 299,-69 299,-50 153,-50"/>
<text text-anchor="middle" x="226" y="-57" font-family="Helvetica,sans-Serif" font-size="10.00">Nx::CCollObj::SetObjectFlags</text>
</a>
</g>
</g>
<!-- Node1&#45;&gt;Node8 -->
<g id="edge8" class="edge"><title>Node1&#45;&gt;Node8</title>
<path fill="none" stroke="midnightblue" d="M101.263,-87.911C123.201,-82.8739 150.28,-76.6562 173.508,-71.3229"/>
<polygon fill="midnightblue" stroke="midnightblue" points="174.575,-74.6692 183.538,-69.0201 173.008,-67.8467 174.575,-74.6692"/>
</g>
<!-- Node9 -->
<g id="node9" class="node"><title>Node9</title>
<g id="a_node9"><a xlink:href="../../d9/d29/namespace_replay.html#ac611f920d680241e92aa4d46f21f7b91" target="_top" xlink:title=" ">
<polygon fill="white" stroke="black" points="160.5,-0.5 160.5,-30.5 291.5,-30.5 291.5,-0.5 160.5,-0.5"/>
<text text-anchor="start" x="168.5" y="-18.5" font-family="Helvetica,sans-Serif" font-size="10.00">Replay::WriteSectorActive</text>
<text text-anchor="middle" x="226" y="-7.5" font-family="Helvetica,sans-Serif" font-size="10.00">Status</text>
</a>
</g>
</g>
<!-- Node1&#45;&gt;Node9 -->
<g id="edge9" class="edge"><title>Node1&#45;&gt;Node9</title>
<path fill="none" stroke="midnightblue" d="M73.2322,-87.8357C91.0126,-75.6307 123.255,-54.5337 153,-40.5 157.594,-38.3325 162.43,-36.2528 167.331,-34.2834"/>
<polygon fill="midnightblue" stroke="midnightblue" points="168.718,-37.4998 176.791,-30.6379 166.201,-30.968 168.718,-37.4998"/>
</g>
<!-- Node4 -->
<g id="node4" class="node"><title>Node4</title>
<g id="a_node4"><a xlink:href="../../d8/dd6/class_nx_1_1_c_geom.html#a40d5ab68bcb70299920f65776c5e8446" target="_top" xlink:title=" ">
<polygon fill="white" stroke="black" points="338.5,-125.5 338.5,-155.5 440.5,-155.5 440.5,-125.5 338.5,-125.5"/>
<text text-anchor="start" x="346.5" y="-143.5" font-family="Helvetica,sans-Serif" font-size="10.00">Nx::CGeom::plat_is</text>
<text text-anchor="middle" x="389.5" y="-132.5" font-family="Helvetica,sans-Serif" font-size="10.00">_active</text>
</a>
</g>
</g>
<!-- Node3&#45;&gt;Node4 -->
<g id="edge3" class="edge"><title>Node3&#45;&gt;Node4</title>
<path fill="none" stroke="midnightblue" d="M279.881,-137.137C295.276,-137.614 312.21,-138.138 328.034,-138.628"/>
<polygon fill="midnightblue" stroke="midnightblue" points="328.141,-142.133 338.244,-138.944 328.357,-135.136 328.141,-142.133"/>
</g>
<!-- Node5 -->
<g id="node5" class="node"><title>Node5</title>
<g id="a_node5"><a xlink:href="../../df/d92/standard_8cpp.html#a5fc8fd1788f18ada61dfda9f171c5a1a" target="_top" xlink:title=" ">
<polygon fill="white" stroke="black" points="512,-106 512,-125 550,-125 550,-106 512,-106"/>
<text text-anchor="middle" x="531" y="-113" font-family="Helvetica,sans-Serif" font-size="10.00">printf</text>
</a>
</g>
</g>
<!-- Node4&#45;&gt;Node5 -->
<g id="edge4" class="edge"><title>Node4&#45;&gt;Node5</title>
<path fill="none" stroke="midnightblue" d="M440.863,-131.474C461.415,-127.791 484.406,-123.671 501.891,-120.537"/>
<polygon fill="midnightblue" stroke="midnightblue" points="502.769,-123.936 511.995,-118.727 501.534,-117.046 502.769,-123.936"/>
</g>
<!-- Node7 -->
<g id="node7" class="node"><title>Node7</title>
<g id="a_node7"><a xlink:href="../../d8/dd6/class_nx_1_1_c_geom.html#af39e30fa1f6f6ff5b7d173fc5fd09f37" target="_top" xlink:title=" ">
<polygon fill="white" stroke="black" points="335.5,-76.5 335.5,-106.5 443.5,-106.5 443.5,-76.5 335.5,-76.5"/>
<text text-anchor="start" x="343.5" y="-94.5" font-family="Helvetica,sans-Serif" font-size="10.00">Nx::CGeom::plat_set</text>
<text text-anchor="middle" x="389.5" y="-83.5" font-family="Helvetica,sans-Serif" font-size="10.00">_active</text>
</a>
</g>
</g>
<!-- Node6&#45;&gt;Node7 -->
<g id="edge6" class="edge"><title>Node6&#45;&gt;Node7</title>
<path fill="none" stroke="midnightblue" d="M283.939,-95.3846C297.254,-94.8899 311.519,-94.36 325.096,-93.8556"/>
<polygon fill="midnightblue" stroke="midnightblue" points="325.455,-97.3447 335.318,-93.4758 325.195,-90.3496 325.455,-97.3447"/>
</g>
<!-- Node7&#45;&gt;Node5 -->
<g id="edge7" class="edge"><title>Node7&#45;&gt;Node5</title>
<path fill="none" stroke="midnightblue" d="M443.637,-100.642C463.343,-104.032 484.928,-107.746 501.59,-110.612"/>
<polygon fill="midnightblue" stroke="midnightblue" points="501.31,-114.115 511.758,-112.362 502.497,-107.217 501.31,-114.115"/>
</g>
<!-- Node10 -->
<g id="node10" class="node"><title>Node10</title>
<g id="a_node10"><a xlink:href="../../d9/d29/namespace_replay.html#ac96941574d420bacdbf78bb9e89b1d90" target="_top" xlink:title=" ">
<polygon fill="white" stroke="black" points="335,-6 335,-25 444,-25 444,-6 335,-6"/>
<text text-anchor="middle" x="389.5" y="-13" font-family="Helvetica,sans-Serif" font-size="10.00">Replay::sWriteUint32</text>
</a>
</g>
</g>
<!-- Node9&#45;&gt;Node10 -->
<g id="edge10" class="edge"><title>Node9&#45;&gt;Node10</title>
<path fill="none" stroke="midnightblue" d="M291.758,-15.5C302.597,-15.5 313.838,-15.5 324.654,-15.5"/>
<polygon fill="midnightblue" stroke="midnightblue" points="324.868,-19.0001 334.868,-15.5 324.868,-12.0001 324.868,-19.0001"/>
</g>
<!-- Node11 -->
<g id="node11" class="node"><title>Node11</title>
<g id="a_node11"><a xlink:href="../../d1/d54/namespace_script.html#a8f645576233ac57731b814dbe06a7aa8" target="_top" xlink:title=" ">
<polygon fill="white" stroke="black" points="480,-6 480,-25 582,-25 582,-6 480,-6"/>
<text text-anchor="middle" x="531" y="-13" font-family="Helvetica,sans-Serif" font-size="10.00">Script::Write4Bytes</text>
</a>
</g>
</g>
<!-- Node10&#45;&gt;Node11 -->
<g id="edge11" class="edge"><title>Node10&#45;&gt;Node11</title>
<path fill="none" stroke="midnightblue" d="M444.035,-15.5C452.338,-15.5 460.966,-15.5 469.411,-15.5"/>
<polygon fill="midnightblue" stroke="midnightblue" points="469.588,-19.0001 479.588,-15.5 469.588,-12.0001 469.588,-19.0001"/>
</g>
</g>
</svg>
