<?xml version="1.0" encoding="UTF-8" standalone="no"?>
<!DOCTYPE svg PUBLIC "-//W3C//DTD SVG 1.1//EN"
 "http://www.w3.org/Graphics/SVG/1.1/DTD/svg11.dtd">
<!-- Generated by graphviz version 2.38.0 (20140413.2041)
 -->
<!-- Title: Nx::CSector::SetScale Pages: 1 -->
<svg width="716pt" height="116pt"
 viewBox="0.00 0.00 716.00 116.00" xmlns="http://www.w3.org/2000/svg" xmlns:xlink="http://www.w3.org/1999/xlink">
<g id="graph0" class="graph" transform="scale(1 1) rotate(0) translate(4 112)">
<title>Nx::CSector::SetScale</title>
<polygon fill="white" stroke="none" points="-4,4 -4,-112 712,-112 712,4 -4,4"/>
<!-- Node1 -->
<g id="node1" class="node"><title>Node1</title>
<g id="a_node1"><a xlink:title=" ">
<polygon fill="#bfbfbf" stroke="black" points="0,-38.5 0,-57.5 116,-57.5 116,-38.5 0,-38.5"/>
<text text-anchor="middle" x="58" y="-45.5" font-family="Helvetica,sans-Serif" font-size="10.00">Nx::CSector::SetScale</text>
</a>
</g>
</g>
<!-- Node2 -->
<g id="node2" class="node"><title>Node2</title>
<g id="a_node2"><a xlink:href="../../d3/d55/class_nx_1_1_c_sector.html#af76921da8a2593c5a9a7076716156340" target="_top" xlink:title=" ">
<polygon fill="white" stroke="black" points="152,-76.5 152,-95.5 304,-95.5 304,-76.5 152,-76.5"/>
<text text-anchor="middle" x="228" y="-83.5" font-family="Helvetica,sans-Serif" font-size="10.00">Nx::CSector::GetWorldPosition</text>
</a>
</g>
</g>
<!-- Node1&#45;&gt;Node2 -->
<g id="edge1" class="edge"><title>Node1&#45;&gt;Node2</title>
<path fill="none" stroke="midnightblue" d="M101.393,-57.589C123.763,-62.6487 151.398,-68.8996 175.047,-74.2488"/>
<polygon fill="midnightblue" stroke="midnightblue" points="174.386,-77.6875 184.911,-76.4799 175.93,-70.8599 174.386,-77.6875"/>
</g>
<!-- Node7 -->
<g id="node7" class="node"><title>Node7</title>
<g id="a_node7"><a xlink:href="../../d0/dec/class_nx_1_1_c_coll_static.html#ae8baa476498af05567a9586ad56e893d" target="_top" xlink:title=" ">
<polygon fill="white" stroke="black" points="171,-38.5 171,-57.5 285,-57.5 285,-38.5 171,-38.5"/>
<text text-anchor="middle" x="228" y="-45.5" font-family="Helvetica,sans-Serif" font-size="10.00">Nx::CCollStatic::Scale</text>
</a>
</g>
</g>
<!-- Node1&#45;&gt;Node7 -->
<g id="edge6" class="edge"><title>Node1&#45;&gt;Node7</title>
<path fill="none" stroke="midnightblue" d="M116.346,-48C130.634,-48 146.07,-48 160.748,-48"/>
<polygon fill="midnightblue" stroke="midnightblue" points="160.766,-51.5001 170.766,-48 160.765,-44.5001 160.766,-51.5001"/>
</g>
<!-- Node8 -->
<g id="node8" class="node"><title>Node8</title>
<g id="a_node8"><a xlink:href="../../d8/dd6/class_nx_1_1_c_geom.html#a9e143a2bfe627f0d0920e57db6bd256d" target="_top" xlink:title=" ">
<polygon fill="white" stroke="black" points="358.5,-0.5 358.5,-19.5 471.5,-19.5 471.5,-0.5 358.5,-0.5"/>
<text text-anchor="middle" x="415" y="-7.5" font-family="Helvetica,sans-Serif" font-size="10.00">Nx::CGeom::SetScale</text>
</a>
</g>
</g>
<!-- Node1&#45;&gt;Node8 -->
<g id="edge7" class="edge"><title>Node1&#45;&gt;Node8</title>
<path fill="none" stroke="midnightblue" d="M100.007,-38.4328C116.133,-34.9833 134.859,-31.3625 152,-29 218.391,-19.8498 294.894,-14.9438 348.023,-12.4246"/>
<polygon fill="midnightblue" stroke="midnightblue" points="348.498,-15.9066 358.327,-11.952 348.177,-8.91394 348.498,-15.9066"/>
</g>
<!-- Node3 -->
<g id="node3" class="node"><title>Node3</title>
<g id="a_node3"><a xlink:href="../../d8/dd6/class_nx_1_1_c_geom.html#af3ef637d41462e1d2868be76d3c1178d" target="_top" xlink:title=" ">
<polygon fill="white" stroke="black" points="340,-88.5 340,-107.5 490,-107.5 490,-88.5 340,-88.5"/>
<text text-anchor="middle" x="415" y="-95.5" font-family="Helvetica,sans-Serif" font-size="10.00">Nx::CGeom::GetWorldPosition</text>
</a>
</g>
</g>
<!-- Node2&#45;&gt;Node3 -->
<g id="edge2" class="edge"><title>Node2&#45;&gt;Node3</title>
<path fill="none" stroke="midnightblue" d="M304.247,-90.8809C312.568,-91.4206 321.082,-91.9729 329.506,-92.5193"/>
<polygon fill="midnightblue" stroke="midnightblue" points="329.514,-96.0271 339.72,-93.1818 329.967,-89.0418 329.514,-96.0271"/>
</g>
<!-- Node6 -->
<g id="node6" class="node"><title>Node6</title>
<g id="a_node6"><a xlink:href="../../d0/dec/class_nx_1_1_c_coll_static.html#a6244a193e5de426c8393a959337c500c" target="_top" xlink:title=" ">
<polygon fill="white" stroke="black" points="349.5,-39 349.5,-69 480.5,-69 480.5,-39 349.5,-39"/>
<text text-anchor="start" x="357.5" y="-57" font-family="Helvetica,sans-Serif" font-size="10.00">Nx::CCollStatic::GetWorld</text>
<text text-anchor="middle" x="415" y="-46" font-family="Helvetica,sans-Serif" font-size="10.00">Position</text>
</a>
</g>
</g>
<!-- Node2&#45;&gt;Node6 -->
<g id="edge5" class="edge"><title>Node2&#45;&gt;Node6</title>
<path fill="none" stroke="midnightblue" d="M284.005,-76.4856C301.43,-73.4716 320.991,-70.088 339.545,-66.8787"/>
<polygon fill="midnightblue" stroke="midnightblue" points="340.176,-70.3216 349.433,-65.1684 338.983,-63.4241 340.176,-70.3216"/>
</g>
<!-- Node4 -->
<g id="node4" class="node"><title>Node4</title>
<g id="a_node4"><a xlink:href="../../d8/dd6/class_nx_1_1_c_geom.html#a5e476ebe315f3fdee08cb36ee4e0c2a3" target="_top" xlink:title=" ">
<polygon fill="white" stroke="black" points="526,-73 526,-103 634,-103 634,-73 526,-73"/>
<text text-anchor="start" x="534" y="-91" font-family="Helvetica,sans-Serif" font-size="10.00">Nx::CGeom::plat_get</text>
<text text-anchor="middle" x="580" y="-80" font-family="Helvetica,sans-Serif" font-size="10.00">_world_position</text>
</a>
</g>
</g>
<!-- Node3&#45;&gt;Node4 -->
<g id="edge3" class="edge"><title>Node3&#45;&gt;Node4</title>
<path fill="none" stroke="midnightblue" d="M490.345,-93.439C498.822,-92.9189 507.402,-92.3925 515.716,-91.8825"/>
<polygon fill="midnightblue" stroke="midnightblue" points="515.933,-95.3758 525.7,-91.2699 515.504,-88.3889 515.933,-95.3758"/>
</g>
<!-- Node5 -->
<g id="node5" class="node"><title>Node5</title>
<g id="a_node5"><a xlink:href="../../df/d92/standard_8cpp.html#a5fc8fd1788f18ada61dfda9f171c5a1a" target="_top" xlink:title=" ">
<polygon fill="white" stroke="black" points="670,-48.5 670,-67.5 708,-67.5 708,-48.5 670,-48.5"/>
<text text-anchor="middle" x="689" y="-55.5" font-family="Helvetica,sans-Serif" font-size="10.00">printf</text>
</a>
</g>
</g>
<!-- Node4&#45;&gt;Node5 -->
<g id="edge4" class="edge"><title>Node4&#45;&gt;Node5</title>
<path fill="none" stroke="midnightblue" d="M634.187,-73.0879C643.085,-70.593 651.995,-68.0949 659.932,-65.8696"/>
<polygon fill="midnightblue" stroke="midnightblue" points="661.038,-69.1944 669.722,-63.1247 659.148,-62.4544 661.038,-69.1944"/>
</g>
<!-- Node9 -->
<g id="node9" class="node"><title>Node9</title>
<g id="a_node9"><a xlink:href="../../d8/dd6/class_nx_1_1_c_geom.html#a9ee6bed0c0c40da3f9f020d04a0ad1ae" target="_top" xlink:title=" ">
<polygon fill="white" stroke="black" points="526,-14 526,-44 634,-44 634,-14 526,-14"/>
<text text-anchor="start" x="534" y="-32" font-family="Helvetica,sans-Serif" font-size="10.00">Nx::CGeom::plat_set</text>
<text text-anchor="middle" x="580" y="-21" font-family="Helvetica,sans-Serif" font-size="10.00">_scale</text>
</a>
</g>
</g>
<!-- Node8&#45;&gt;Node9 -->
<g id="edge8" class="edge"><title>Node8&#45;&gt;Node9</title>
<path fill="none" stroke="midnightblue" d="M471.639,-16.4856C485.877,-18.1452 501.289,-19.9417 515.873,-21.6416"/>
<polygon fill="midnightblue" stroke="midnightblue" points="515.475,-25.1188 525.813,-22.8003 516.285,-18.1659 515.475,-25.1188"/>
</g>
<!-- Node9&#45;&gt;Node5 -->
<g id="edge9" class="edge"><title>Node9&#45;&gt;Node5</title>
<path fill="none" stroke="midnightblue" d="M634.187,-43.415C643.085,-45.8267 651.995,-48.2416 659.932,-50.3927"/>
<polygon fill="midnightblue" stroke="midnightblue" points="659.155,-53.8083 669.722,-53.0461 660.986,-47.052 659.155,-53.8083"/>
</g>
</g>
</svg>
