<?xml version="1.0" encoding="UTF-8" standalone="no"?>
<!DOCTYPE svg PUBLIC "-//W3C//DTD SVG 1.1//EN"
 "http://www.w3.org/Graphics/SVG/1.1/DTD/svg11.dtd">
<!-- Generated by graphviz version 2.38.0 (20140413.2041)
 -->
<!-- Title: Nx::CSector::GetBoundingBox Pages: 1 -->
<svg width="558pt" height="116pt"
 viewBox="0.00 0.00 558.00 115.50" xmlns="http://www.w3.org/2000/svg" xmlns:xlink="http://www.w3.org/1999/xlink">
<g id="graph0" class="graph" transform="scale(1 1) rotate(0) translate(4 111.5)">
<title>Nx::CSector::GetBoundingBox</title>
<polygon fill="white" stroke="none" points="-4,4 -4,-111.5 554,-111.5 554,4 -4,4"/>
<!-- Node1 -->
<g id="node1" class="node"><title>Node1</title>
<g id="a_node1"><a xlink:title=" ">
<polygon fill="#bfbfbf" stroke="black" points="0,-38.5 0,-57.5 149,-57.5 149,-38.5 0,-38.5"/>
<text text-anchor="middle" x="74.5" y="-45.5" font-family="Helvetica,sans-Serif" font-size="10.00">Nx::CSector::GetBoundingBox</text>
</a>
</g>
</g>
<!-- Node2 -->
<g id="node2" class="node"><title>Node2</title>
<g id="a_node2"><a xlink:href="../../d9/d78/class_nx_1_1_c_coll_obj_tri_data.html#aab7b6e851d35ed7486015c4af2927e9a" target="_top" xlink:title=" ">
<polygon fill="white" stroke="black" points="206.5,-77 206.5,-107 310.5,-107 310.5,-77 206.5,-77"/>
<text text-anchor="start" x="214.5" y="-95" font-family="Helvetica,sans-Serif" font-size="10.00">Nx::CCollObjTriData</text>
<text text-anchor="middle" x="258.5" y="-84" font-family="Helvetica,sans-Serif" font-size="10.00">::GetBBox</text>
</a>
</g>
</g>
<!-- Node1&#45;&gt;Node2 -->
<g id="edge1" class="edge"><title>Node1&#45;&gt;Node2</title>
<path fill="none" stroke="midnightblue" d="M114.991,-57.5473C138.723,-63.2847 169.424,-70.707 196.25,-77.1922"/>
<polygon fill="midnightblue" stroke="midnightblue" points="195.776,-80.6785 206.319,-79.6265 197.421,-73.8745 195.776,-80.6785"/>
</g>
<!-- Node3 -->
<g id="node3" class="node"><title>Node3</title>
<g id="a_node3"><a xlink:href="../../d8/dd6/class_nx_1_1_c_geom.html#aec691205a247fdf5e911430e413b6294" target="_top" xlink:title=" ">
<polygon fill="white" stroke="black" points="185,-38.5 185,-57.5 332,-57.5 332,-38.5 185,-38.5"/>
<text text-anchor="middle" x="258.5" y="-45.5" font-family="Helvetica,sans-Serif" font-size="10.00">Nx::CGeom::GetBoundingBox</text>
</a>
</g>
</g>
<!-- Node1&#45;&gt;Node3 -->
<g id="edge2" class="edge"><title>Node1&#45;&gt;Node3</title>
<path fill="none" stroke="midnightblue" d="M149.002,-48C157.511,-48 166.232,-48 174.852,-48"/>
<polygon fill="midnightblue" stroke="midnightblue" points="174.907,-51.5001 184.907,-48 174.907,-44.5001 174.907,-51.5001"/>
</g>
<!-- Node6 -->
<g id="node6" class="node"><title>Node6</title>
<g id="a_node6"><a xlink:href="../../d7/d8e/class_nx_1_1_c_coll_obj.html#af8c8598e4523a4b7835a8905e6236644" target="_top" xlink:title=" ">
<polygon fill="white" stroke="black" points="190,-0.5 190,-19.5 327,-19.5 327,-0.5 190,-0.5"/>
<text text-anchor="middle" x="258.5" y="-7.5" font-family="Helvetica,sans-Serif" font-size="10.00">Nx::CCollObj::GetGeometry</text>
</a>
</g>
</g>
<!-- Node1&#45;&gt;Node6 -->
<g id="edge5" class="edge"><title>Node1&#45;&gt;Node6</title>
<path fill="none" stroke="midnightblue" d="M121.426,-38.411C145.876,-33.3061 176.133,-26.9887 201.903,-21.6082"/>
<polygon fill="midnightblue" stroke="midnightblue" points="202.83,-24.9901 211.904,-19.5201 201.4,-18.1378 202.83,-24.9901"/>
</g>
<!-- Node4 -->
<g id="node4" class="node"><title>Node4</title>
<g id="a_node4"><a xlink:href="../../d8/dd6/class_nx_1_1_c_geom.html#a499e8e77649e0ffbfa42c43f8f926622" target="_top" xlink:title=" ">
<polygon fill="white" stroke="black" points="368,-33 368,-63 476,-63 476,-33 368,-33"/>
<text text-anchor="start" x="376" y="-51" font-family="Helvetica,sans-Serif" font-size="10.00">Nx::CGeom::plat_get</text>
<text text-anchor="middle" x="422" y="-40" font-family="Helvetica,sans-Serif" font-size="10.00">_bounding_box</text>
</a>
</g>
</g>
<!-- Node3&#45;&gt;Node4 -->
<g id="edge3" class="edge"><title>Node3&#45;&gt;Node4</title>
<path fill="none" stroke="midnightblue" d="M332.218,-48C340.578,-48 349.053,-48 357.281,-48"/>
<polygon fill="midnightblue" stroke="midnightblue" points="357.544,-51.5001 367.543,-48 357.543,-44.5001 357.544,-51.5001"/>
</g>
<!-- Node5 -->
<g id="node5" class="node"><title>Node5</title>
<g id="a_node5"><a xlink:href="../../df/d92/standard_8cpp.html#a5fc8fd1788f18ada61dfda9f171c5a1a" target="_top" xlink:title=" ">
<polygon fill="white" stroke="black" points="512,-38.5 512,-57.5 550,-57.5 550,-38.5 512,-38.5"/>
<text text-anchor="middle" x="531" y="-45.5" font-family="Helvetica,sans-Serif" font-size="10.00">printf</text>
</a>
</g>
</g>
<!-- Node4&#45;&gt;Node5 -->
<g id="edge4" class="edge"><title>Node4&#45;&gt;Node5</title>
<path fill="none" stroke="midnightblue" d="M476.187,-48C484.985,-48 493.795,-48 501.664,-48"/>
<polygon fill="midnightblue" stroke="midnightblue" points="501.722,-51.5001 511.722,-48 501.722,-44.5001 501.722,-51.5001"/>
</g>
</g>
</svg>
