<?xml version="1.0" encoding="UTF-8" standalone="no"?>
<!DOCTYPE svg PUBLIC "-//W3C//DTD SVG 1.1//EN"
 "http://www.w3.org/Graphics/SVG/1.1/DTD/svg11.dtd">
<!-- Generated by graphviz version 2.38.0 (20140413.2041)
 -->
<!-- Title: Obj::CObjectHookManager::DebugRender Pages: 1 -->
<svg width="292pt" height="142pt"
 viewBox="0.00 0.00 292.00 142.00" xmlns="http://www.w3.org/2000/svg" xmlns:xlink="http://www.w3.org/1999/xlink">
<g id="graph0" class="graph" transform="scale(1 1) rotate(0) translate(4 138)">
<title>Obj::CObjectHookManager::DebugRender</title>
<polygon fill="white" stroke="none" points="-4,4 -4,-138 288,-138 288,4 -4,4"/>
<!-- Node1 -->
<g id="node1" class="node"><title>Node1</title>
<g id="a_node1"><a xlink:title=" ">
<polygon fill="#bfbfbf" stroke="black" points="0,-52 0,-82 133,-82 133,-52 0,-52"/>
<text text-anchor="start" x="8" y="-70" font-family="Helvetica,sans-Serif" font-size="10.00">Obj::CObjectHookManager</text>
<text text-anchor="middle" x="66.5" y="-59" font-family="Helvetica,sans-Serif" font-size="10.00">::DebugRender</text>
</a>
</g>
</g>
<!-- Node2 -->
<g id="node2" class="node"><title>Node2</title>
<g id="a_node2"><a xlink:href="../../d8/d79/namespace_nx_ps2.html#a599fa70d638561851fd4aeab050a1183" target="_top" xlink:title=" ">
<polygon fill="white" stroke="black" points="170.5,-114.5 170.5,-133.5 282.5,-133.5 282.5,-114.5 170.5,-114.5"/>
<text text-anchor="middle" x="226.5" y="-121.5" font-family="Helvetica,sans-Serif" font-size="10.00">NxPs2::BeginLines3D</text>
</a>
</g>
</g>
<!-- Node1&#45;&gt;Node2 -->
<g id="edge1" class="edge"><title>Node1&#45;&gt;Node2</title>
<path fill="none" stroke="midnightblue" d="M106.912,-82.109C125.664,-89.2069 148.433,-97.694 169,-105 174.685,-107.019 180.711,-109.104 186.627,-111.12"/>
<polygon fill="midnightblue" stroke="midnightblue" points="185.807,-114.538 196.402,-114.424 188.049,-107.906 185.807,-114.538"/>
</g>
<!-- Node3 -->
<g id="node3" class="node"><title>Node3</title>
<g id="a_node3"><a xlink:href="../../d8/d79/namespace_nx_ps2.html#a1967c8a81f66a13bdb03d2105159b3b0" target="_top" xlink:title=" ">
<polygon fill="white" stroke="black" points="174.5,-76.5 174.5,-95.5 278.5,-95.5 278.5,-76.5 174.5,-76.5"/>
<text text-anchor="middle" x="226.5" y="-83.5" font-family="Helvetica,sans-Serif" font-size="10.00">NxPs2::DrawLine3D</text>
</a>
</g>
</g>
<!-- Node1&#45;&gt;Node3 -->
<g id="edge2" class="edge"><title>Node1&#45;&gt;Node3</title>
<path fill="none" stroke="midnightblue" d="M133.134,-74.8926C143.435,-76.1314 154.049,-77.4078 164.247,-78.6341"/>
<polygon fill="midnightblue" stroke="midnightblue" points="163.932,-82.1214 174.279,-79.8405 164.768,-75.1715 163.932,-82.1214"/>
</g>
<!-- Node4 -->
<g id="node4" class="node"><title>Node4</title>
<g id="a_node4"><a xlink:href="../../d8/d79/namespace_nx_ps2.html#ac11151839ab407a9588ccec23c1c3caa" target="_top" xlink:title=" ">
<polygon fill="white" stroke="black" points="174.5,-38.5 174.5,-57.5 278.5,-57.5 278.5,-38.5 174.5,-38.5"/>
<text text-anchor="middle" x="226.5" y="-45.5" font-family="Helvetica,sans-Serif" font-size="10.00">NxPs2::EndLines3D</text>
</a>
</g>
</g>
<!-- Node1&#45;&gt;Node4 -->
<g id="edge3" class="edge"><title>Node1&#45;&gt;Node4</title>
<path fill="none" stroke="midnightblue" d="M133.134,-59.1074C143.435,-57.8686 154.049,-56.5922 164.247,-55.3659"/>
<polygon fill="midnightblue" stroke="midnightblue" points="164.768,-58.8285 174.279,-54.1595 163.932,-51.8786 164.768,-58.8285"/>
</g>
<!-- Node5 -->
<g id="node5" class="node"><title>Node5</title>
<g id="a_node5"><a xlink:href="../../d9/d37/class_mth_1_1_matrix.html#a71fb23705a61063b9866647a420a80a6" target="_top" xlink:title=" ">
<polygon fill="white" stroke="black" points="169,-0.5 169,-19.5 284,-19.5 284,-0.5 169,-0.5"/>
<text text-anchor="middle" x="226.5" y="-7.5" font-family="Helvetica,sans-Serif" font-size="10.00">Mth::Matrix::Transform</text>
</a>
</g>
</g>
<!-- Node1&#45;&gt;Node5 -->
<g id="edge4" class="edge"><title>Node1&#45;&gt;Node5</title>
<path fill="none" stroke="midnightblue" d="M106.912,-51.891C125.664,-44.7931 148.433,-36.306 169,-29 174.685,-26.9806 180.711,-24.8956 186.627,-22.8796"/>
<polygon fill="midnightblue" stroke="midnightblue" points="188.049,-26.0937 196.402,-19.5759 185.807,-19.4623 188.049,-26.0937"/>
</g>
</g>
</svg>
