<?xml version="1.0" encoding="UTF-8" standalone="no"?>
<!DOCTYPE svg PUBLIC "-//W3C//DTD SVG 1.1//EN"
 "http://www.w3.org/Graphics/SVG/1.1/DTD/svg11.dtd">
<!-- Generated by graphviz version 2.38.0 (20140413.2041)
 -->
<!-- Title: Nx::CPs2Scene::~CPs2Scene Pages: 1 -->
<svg width="343pt" height="78pt"
 viewBox="0.00 0.00 343.00 77.50" xmlns="http://www.w3.org/2000/svg" xmlns:xlink="http://www.w3.org/1999/xlink">
<g id="graph0" class="graph" transform="scale(1 1) rotate(0) translate(4 73.5)">
<title>Nx::CPs2Scene::~CPs2Scene</title>
<polygon fill="white" stroke="none" points="-4,4 -4,-73.5 339,-73.5 339,4 -4,4"/>
<!-- Node1 -->
<g id="node1" class="node"><title>Node1</title>
<g id="a_node1"><a xlink:title=" ">
<polygon fill="#bfbfbf" stroke="black" points="0,-28 0,-47 150,-47 150,-28 0,-28"/>
<text text-anchor="middle" x="75" y="-35" font-family="Helvetica,sans-Serif" font-size="10.00">Nx::CPs2Scene::~CPs2Scene</text>
</a>
</g>
</g>
<!-- Node2 -->
<g id="node2" class="node"><title>Node2</title>
<g id="a_node2"><a xlink:href="../../d6/da9/class_nx_ps2_1_1_c_geom_node.html#aa30fa82eb390598af9e3f925fccd0e46" target="_top" xlink:title=" ">
<polygon fill="white" stroke="black" points="186,-50 186,-69 335,-69 335,-50 186,-50"/>
<text text-anchor="middle" x="260.5" y="-57" font-family="Helvetica,sans-Serif" font-size="10.00">NxPs2::CGeomNode::Cleanup</text>
</a>
</g>
</g>
<!-- Node1&#45;&gt;Node2 -->
<g id="edge1" class="edge"><title>Node1&#45;&gt;Node2</title>
<path fill="none" stroke="midnightblue" d="M150.108,-46.3848C158.544,-47.3963 167.187,-48.4325 175.737,-49.4575"/>
<polygon fill="midnightblue" stroke="midnightblue" points="175.367,-52.9382 185.712,-50.6535 176.2,-45.9879 175.367,-52.9382"/>
</g>
<!-- Node3 -->
<g id="node3" class="node"><title>Node3</title>
<g id="a_node3"><a xlink:href="../../d3/d55/class_nx_1_1_c_sector.html#a22357fcc9ed667a9079f9d30d1988fae" target="_top" xlink:title=" ">
<polygon fill="white" stroke="black" points="212,-0.5 212,-30.5 309,-30.5 309,-0.5 212,-0.5"/>
<text text-anchor="start" x="220" y="-18.5" font-family="Helvetica,sans-Serif" font-size="10.00">Nx::CSector::clear</text>
<text text-anchor="middle" x="260.5" y="-7.5" font-family="Helvetica,sans-Serif" font-size="10.00">_flags</text>
</a>
</g>
</g>
<!-- Node1&#45;&gt;Node3 -->
<g id="edge2" class="edge"><title>Node1&#45;&gt;Node3</title>
<path fill="none" stroke="midnightblue" d="M150.108,-28.6152C167.323,-26.5511 185.4,-24.3839 201.789,-22.419"/>
<polygon fill="midnightblue" stroke="midnightblue" points="202.24,-25.8901 211.753,-21.2245 201.407,-18.9398 202.24,-25.8901"/>
</g>
</g>
</svg>
