<?xml version="1.0" encoding="UTF-8" standalone="no"?>
<!DOCTYPE svg PUBLIC "-//W3C//DTD SVG 1.1//EN"
 "http://www.w3.org/Graphics/SVG/1.1/DTD/svg11.dtd">
<!-- Generated by graphviz version 2.38.0 (20140413.2041)
 -->
<!-- Title: Nx::CNgcText::plat_update_hidden Pages: 1 -->
<svg width="492pt" height="66pt"
 viewBox="0.00 0.00 492.00 66.00" xmlns="http://www.w3.org/2000/svg" xmlns:xlink="http://www.w3.org/1999/xlink">
<g id="graph0" class="graph" transform="scale(1 1) rotate(0) translate(4 62)">
<title>Nx::CNgcText::plat_update_hidden</title>
<polygon fill="white" stroke="none" points="-4,4 -4,-62 488,-62 488,4 -4,4"/>
<!-- Node1 -->
<g id="node1" class="node"><title>Node1</title>
<g id="a_node1"><a xlink:title=" ">
<polygon fill="#bfbfbf" stroke="black" points="0,-14 0,-44 99,-44 99,-14 0,-14"/>
<text text-anchor="start" x="8" y="-32" font-family="Helvetica,sans-Serif" font-size="10.00">Nx::CNgcText::plat</text>
<text text-anchor="middle" x="49.5" y="-21" font-family="Helvetica,sans-Serif" font-size="10.00">_update_hidden</text>
</a>
</g>
</g>
<!-- Node2 -->
<g id="node2" class="node"><title>Node2</title>
<g id="a_node2"><a xlink:href="../../d5/d91/struct_nx_ngc_1_1_s_draw2_d.html#ac3dd02e439f255c5426eab0d391e4871" target="_top" xlink:title=" ">
<polygon fill="white" stroke="black" points="135,-19.5 135,-38.5 278,-38.5 278,-19.5 135,-19.5"/>
<text text-anchor="middle" x="206.5" y="-26.5" font-family="Helvetica,sans-Serif" font-size="10.00">NxNgc::SDraw2D::SetHidden</text>
</a>
</g>
</g>
<!-- Node1&#45;&gt;Node2 -->
<g id="edge1" class="edge"><title>Node1&#45;&gt;Node2</title>
<path fill="none" stroke="midnightblue" d="M99.1177,-29C107.286,-29 115.953,-29 124.677,-29"/>
<polygon fill="midnightblue" stroke="midnightblue" points="124.917,-32.5001 134.917,-29 124.917,-25.5001 124.917,-32.5001"/>
</g>
<!-- Node3 -->
<g id="node3" class="node"><title>Node3</title>
<g id="a_node3"><a xlink:href="../../d5/d91/struct_nx_ngc_1_1_s_draw2_d.html#afea064bb7ac1862f97401a4226f56b31" target="_top" xlink:title=" ">
<polygon fill="white" stroke="black" points="319,-38.5 319,-57.5 479,-57.5 479,-38.5 319,-38.5"/>
<text text-anchor="middle" x="399" y="-45.5" font-family="Helvetica,sans-Serif" font-size="10.00">NxNgc::SDraw2D::InsertDrawList</text>
</a>
</g>
</g>
<!-- Node2&#45;&gt;Node3 -->
<g id="edge2" class="edge"><title>Node2&#45;&gt;Node3</title>
<path fill="none" stroke="midnightblue" d="M278.164,-36.0479C288.091,-37.038 298.401,-38.0662 308.62,-39.0854"/>
<polygon fill="midnightblue" stroke="midnightblue" points="308.493,-42.5901 318.791,-40.0999 309.188,-35.6246 308.493,-42.5901"/>
</g>
<!-- Node4 -->
<g id="node4" class="node"><title>Node4</title>
<g id="a_node4"><a xlink:href="../../d5/d91/struct_nx_ngc_1_1_s_draw2_d.html#a4aad79007fc73defb20e79c32cadb1b9" target="_top" xlink:title=" ">
<polygon fill="white" stroke="black" points="314,-0.5 314,-19.5 484,-19.5 484,-0.5 314,-0.5"/>
<text text-anchor="middle" x="399" y="-7.5" font-family="Helvetica,sans-Serif" font-size="10.00">NxNgc::SDraw2D::RemoveDrawList</text>
</a>
</g>
</g>
<!-- Node2&#45;&gt;Node4 -->
<g id="edge3" class="edge"><title>Node2&#45;&gt;Node4</title>
<path fill="none" stroke="midnightblue" d="M278.164,-21.9521C286.536,-21.1171 295.18,-20.255 303.812,-19.3941"/>
<polygon fill="midnightblue" stroke="midnightblue" points="304.32,-22.8609 313.923,-18.3856 303.625,-15.8955 304.32,-22.8609"/>
</g>
</g>
</svg>
