<?xml version="1.0" encoding="UTF-8" standalone="no"?>
<!DOCTYPE svg PUBLIC "-//W3C//DTD SVG 1.1//EN"
 "http://www.w3.org/Graphics/SVG/1.1/DTD/svg11.dtd">
<!-- Generated by graphviz version 2.38.0 (20140413.2041)
 -->
<!-- Title: Nx::CNgcText::plat_initialize Pages: 1 -->
<!--zoomable 137 -->
<svg id="main" version="1.1" xmlns="http://www.w3.org/2000/svg" xmlns:xlink="http://www.w3.org/1999/xlink" xml:space="preserve" onload="init(evt)">
<style type="text/css"><![CDATA[
.edge:hover path { stroke: red; }
.edge:hover polygon { stroke: red; fill: red; }
]]></style>
<script type="text/javascript"><![CDATA[
var edges = document.getElementsByTagName('g');
if (edges && edges.length) {
  for (var i=0;i<edges.length;i++) {
    if (edges[i].id.substr(0,4)=='edge') {
      edges[i].setAttribute('class','edge');
    }
  }
}
]]></script>
        <defs>
                <circle id="rim" cx="0" cy="0" r="7"/>
                <circle id="rim2" cx="0" cy="0" r="3.5"/>
                <g id="zoomPlus">
                        <use xlink:href="#rim" fill="#404040">
                                <set attributeName="fill" to="#808080" begin="zoomplus.mouseover" end="zoomplus.mouseout"/>
                        </use>
                        <path d="M-4,0h8M0,-4v8" fill="none" stroke="white" stroke-width="1.5" pointer-events="none"/>
                </g>
                <g id="zoomMin">
                        <use xlink:href="#rim" fill="#404040">
                                <set attributeName="fill" to="#808080" begin="zoomminus.mouseover" end="zoomminus.mouseout"/>
                        </use>
                        <path d="M-4,0h8" fill="none" stroke="white" stroke-width="1.5" pointer-events="none"/>
                </g>
                <g id="dirArrow">
                        <path fill="none" stroke="white" stroke-width="1.5" d="M0,-3.0v7 M-2.5,-0.5L0,-3.0L2.5,-0.5"/>
                </g>
               <g id="resetDef">
                       <use xlink:href="#rim2" fill="#404040">
                               <set attributeName="fill" to="#808080" begin="reset.mouseover" end="reset.mouseout"/>
                       </use>
               </g>
        </defs>

<script type="text/javascript">
var viewWidth = 633;
var viewHeight = 137;
var sectionId = 'dynsection-3';
</script>
<script xlink:href="../../svgpan.js"/>
<svg id="graph" class="graph">
<g id="viewport">
<title>Nx::CNgcText::plat_initialize</title>
<polygon fill="white" stroke="none" points="-4,4 -4,-133 629,-133 629,4 -4,4"/>
<!-- Node1 -->
<g id="node1" class="node"><title>Node1</title>
<g id="a_node1"><a xlink:title=" ">
<polygon fill="#bfbfbf" stroke="black" points="0,-49.5 0,-79.5 99,-79.5 99,-49.5 0,-49.5"/>
<text text-anchor="start" x="8" y="-67.5" font-family="Helvetica,sans-Serif" font-size="10.00">Nx::CNgcText::plat</text>
<text text-anchor="middle" x="49.5" y="-56.5" font-family="Helvetica,sans-Serif" font-size="10.00">_initialize</text>
</a>
</g>
</g>
<!-- Node2 -->
<g id="node2" class="node"><title>Node2</title>
<g id="a_node2"><a xlink:href="../../d8/dac/class_nx_1_1_c_ngc_text.html#ade67bcbd361b182a7900c55bdd72a076" target="_top" xlink:title=" ">
<polygon fill="white" stroke="black" points="135,-98.5 135,-128.5 234,-128.5 234,-98.5 135,-98.5"/>
<text text-anchor="start" x="143" y="-116.5" font-family="Helvetica,sans-Serif" font-size="10.00">Nx::CNgcText::plat</text>
<text text-anchor="middle" x="184.5" y="-105.5" font-family="Helvetica,sans-Serif" font-size="10.00">_update_engine</text>
</a>
</g>
</g>
<!-- Node1&#45;&gt;Node2 -->
<g id="edge1" class="edge"><title>Node1&#45;&gt;Node2</title>
<path fill="none" stroke="midnightblue" d="M91.4896,-79.6014C104.51,-84.3985 119.069,-89.7622 132.695,-94.7823"/>
<polygon fill="midnightblue" stroke="midnightblue" points="131.823,-98.1912 142.417,-98.3641 134.243,-91.6228 131.823,-98.1912"/>
</g>
<!-- Node4 -->
<g id="node4" class="node"><title>Node4</title>
<g id="a_node4"><a xlink:href="../../d8/dac/class_nx_1_1_c_ngc_text.html#a2d922d416bb97465eddca874b05883f3" target="_top" xlink:title=" ">
<polygon fill="white" stroke="black" points="135,-0.5 135,-30.5 234,-30.5 234,-0.5 135,-0.5"/>
<text text-anchor="start" x="143" y="-18.5" font-family="Helvetica,sans-Serif" font-size="10.00">Nx::CNgcText::plat</text>
<text text-anchor="middle" x="184.5" y="-7.5" font-family="Helvetica,sans-Serif" font-size="10.00">_update_hidden</text>
</a>
</g>
</g>
<!-- Node1&#45;&gt;Node4 -->
<g id="edge3" class="edge"><title>Node1&#45;&gt;Node4</title>
<path fill="none" stroke="midnightblue" d="M91.4896,-49.3986C104.51,-44.6015 119.069,-39.2378 132.695,-34.2177"/>
<polygon fill="midnightblue" stroke="midnightblue" points="134.243,-37.3772 142.417,-30.6359 131.823,-30.8088 134.243,-37.3772"/>
</g>
<!-- Node8 -->
<g id="node8" class="node"><title>Node8</title>
<g id="a_node8"><a xlink:href="../../d8/dac/class_nx_1_1_c_ngc_text.html#a0428245f17994ef41f28a8939026288b" target="_top" xlink:title=" ">
<polygon fill="white" stroke="black" points="135,-49.5 135,-79.5 234,-79.5 234,-49.5 135,-49.5"/>
<text text-anchor="start" x="143" y="-67.5" font-family="Helvetica,sans-Serif" font-size="10.00">Nx::CNgcText::plat</text>
<text text-anchor="middle" x="184.5" y="-56.5" font-family="Helvetica,sans-Serif" font-size="10.00">_update_priority</text>
</a>
</g>
</g>
<!-- Node1&#45;&gt;Node8 -->
<g id="edge7" class="edge"><title>Node1&#45;&gt;Node8</title>
<path fill="none" stroke="midnightblue" d="M99.2691,-64.5C107.491,-64.5 116.104,-64.5 124.551,-64.5"/>
<polygon fill="midnightblue" stroke="midnightblue" points="124.737,-68.0001 134.737,-64.5 124.737,-61.0001 124.737,-68.0001"/>
</g>
<!-- Node3 -->
<g id="node3" class="node"><title>Node3</title>
<g id="a_node3"><a xlink:href="../../db/d3e/class_nx_1_1_c_ngc_font.html#aa52a573a8e1c5c486815e7f5dddd4e59" target="_top" xlink:title=" ">
<polygon fill="white" stroke="black" points="270,-104 270,-123 419,-123 419,-104 270,-104"/>
<text text-anchor="middle" x="344.5" y="-111" font-family="Helvetica,sans-Serif" font-size="10.00">Nx::CNgcFont::GetEngineFont</text>
</a>
</g>
</g>
<!-- Node2&#45;&gt;Node3 -->
<g id="edge2" class="edge"><title>Node2&#45;&gt;Node3</title>
<path fill="none" stroke="midnightblue" d="M234.194,-113.5C242.341,-113.5 250.994,-113.5 259.725,-113.5"/>
<polygon fill="midnightblue" stroke="midnightblue" points="259.985,-117 269.985,-113.5 259.985,-110 259.985,-117"/>
</g>
<!-- Node5 -->
<g id="node5" class="node"><title>Node5</title>
<g id="a_node5"><a xlink:href="../../d5/d91/struct_nx_ngc_1_1_s_draw2_d.html#ac3dd02e439f255c5426eab0d391e4871" target="_top" xlink:title=" ">
<polygon fill="white" stroke="black" points="273,-11 273,-30 416,-30 416,-11 273,-11"/>
<text text-anchor="middle" x="344.5" y="-18" font-family="Helvetica,sans-Serif" font-size="10.00">NxNgc::SDraw2D::SetHidden</text>
</a>
</g>
</g>
<!-- Node4&#45;&gt;Node5 -->
<g id="edge4" class="edge"><title>Node4&#45;&gt;Node5</title>
<path fill="none" stroke="midnightblue" d="M234.194,-17.041C243.279,-17.3285 252.995,-17.6359 262.745,-17.9445"/>
<polygon fill="midnightblue" stroke="midnightblue" points="262.789,-21.4475 272.895,-18.2657 263.011,-14.451 262.789,-21.4475"/>
</g>
<!-- Node6 -->
<g id="node6" class="node"><title>Node6</title>
<g id="a_node6"><a xlink:href="../../d5/d91/struct_nx_ngc_1_1_s_draw2_d.html#afea064bb7ac1862f97401a4226f56b31" target="_top" xlink:title=" ">
<polygon fill="white" stroke="black" points="460,-49 460,-68 620,-68 620,-49 460,-49"/>
<text text-anchor="middle" x="540" y="-56" font-family="Helvetica,sans-Serif" font-size="10.00">NxNgc::SDraw2D::InsertDrawList</text>
</a>
</g>
</g>
<!-- Node5&#45;&gt;Node6 -->
<g id="edge5" class="edge"><title>Node5&#45;&gt;Node6</title>
<path fill="none" stroke="midnightblue" d="M394.328,-30.089C420.553,-35.239 453.062,-41.6232 480.616,-47.0344"/>
<polygon fill="midnightblue" stroke="midnightblue" points="480.036,-50.4873 490.523,-48.9799 481.385,-43.6185 480.036,-50.4873"/>
</g>
<!-- Node7 -->
<g id="node7" class="node"><title>Node7</title>
<g id="a_node7"><a xlink:href="../../d5/d91/struct_nx_ngc_1_1_s_draw2_d.html#a4aad79007fc73defb20e79c32cadb1b9" target="_top" xlink:title=" ">
<polygon fill="white" stroke="black" points="455,-11 455,-30 625,-30 625,-11 455,-11"/>
<text text-anchor="middle" x="540" y="-18" font-family="Helvetica,sans-Serif" font-size="10.00">NxNgc::SDraw2D::RemoveDrawList</text>
</a>
</g>
</g>
<!-- Node5&#45;&gt;Node7 -->
<g id="edge6" class="edge"><title>Node5&#45;&gt;Node7</title>
<path fill="none" stroke="midnightblue" d="M416.179,-20.5C425.376,-20.5 434.913,-20.5 444.421,-20.5"/>
<polygon fill="midnightblue" stroke="midnightblue" points="444.711,-24.0001 454.711,-20.5 444.711,-17.0001 444.711,-24.0001"/>
</g>
<!-- Node9 -->
<g id="node9" class="node"><title>Node9</title>
<g id="a_node9"><a xlink:href="../../d5/d91/struct_nx_ngc_1_1_s_draw2_d.html#a9a55b7a70f03fdb4a54d8b07b9678f9f" target="_top" xlink:title=" ">
<polygon fill="white" stroke="black" points="272.5,-49 272.5,-68 416.5,-68 416.5,-49 272.5,-49"/>
<text text-anchor="middle" x="344.5" y="-56" font-family="Helvetica,sans-Serif" font-size="10.00">NxNgc::SDraw2D::SetPriority</text>
</a>
</g>
</g>
<!-- Node8&#45;&gt;Node9 -->
<g id="edge8" class="edge"><title>Node8&#45;&gt;Node9</title>
<path fill="none" stroke="midnightblue" d="M234.194,-62.6508C243.145,-62.311 252.707,-61.9478 262.312,-61.5831"/>
<polygon fill="midnightblue" stroke="midnightblue" points="262.454,-65.0803 272.313,-61.2033 262.188,-58.0854 262.454,-65.0803"/>
</g>
<!-- Node9&#45;&gt;Node6 -->
<g id="edge9" class="edge"><title>Node9&#45;&gt;Node6</title>
<path fill="none" stroke="midnightblue" d="M416.728,-58.5C427.453,-58.5 438.63,-58.5 449.676,-58.5"/>
<polygon fill="midnightblue" stroke="midnightblue" points="449.767,-62.0001 459.767,-58.5 449.767,-55.0001 449.767,-62.0001"/>
</g>
<!-- Node9&#45;&gt;Node7 -->
<g id="edge10" class="edge"><title>Node9&#45;&gt;Node7</title>
<path fill="none" stroke="midnightblue" d="M394.328,-48.911C420.553,-43.761 453.062,-37.3768 480.616,-31.9656"/>
<polygon fill="midnightblue" stroke="midnightblue" points="481.385,-35.3815 490.523,-30.0201 480.036,-28.5127 481.385,-35.3815"/>
</g>
</g>
</svg>
        <g id="navigator" transform="translate(0 0)" fill="#404254">
                <rect fill="#f2f5e9" fill-opacity="0.5" stroke="#606060" stroke-width=".5" x="0" y="0" width="60" height="60"/>
                <use id="zoomplus" xlink:href="#zoomPlus" x="17" y="9" onmousedown="handleZoom(evt,'in')"/>
                <use id="zoomminus" xlink:href="#zoomMin" x="42" y="9" onmousedown="handleZoom(evt,'out')"/>
                <use id="reset" xlink:href="#resetDef" x="30" y="36" onmousedown="handleReset()"/>
                <g id="arrowUp" xlink:href="#dirArrow" transform="translate(30 24)" onmousedown="handlePan(0,-1)">
                  <use xlink:href="#rim" fill="#404040">
                        <set attributeName="fill" to="#808080" begin="arrowUp.mouseover" end="arrowUp.mouseout"/>
                  </use>
                  <path fill="none" stroke="white" stroke-width="1.5" d="M0,-3.0v7 M-2.5,-0.5L0,-3.0L2.5,-0.5"/>
                </g>
                <g id="arrowRight" xlink:href="#dirArrow" transform="rotate(90) translate(36 -43)" onmousedown="handlePan(1,0)">
                  <use xlink:href="#rim" fill="#404040">
                        <set attributeName="fill" to="#808080" begin="arrowRight.mouseover" end="arrowRight.mouseout"/>
                  </use>
                  <path fill="none" stroke="white" stroke-width="1.5" d="M0,-3.0v7 M-2.5,-0.5L0,-3.0L2.5,-0.5"/>
                </g>
                <g id="arrowDown" xlink:href="#dirArrow" transform="rotate(180) translate(-30 -48)" onmousedown="handlePan(0,1)">
                  <use xlink:href="#rim" fill="#404040">
                        <set attributeName="fill" to="#808080" begin="arrowDown.mouseover" end="arrowDown.mouseout"/>
                  </use>
                  <path fill="none" stroke="white" stroke-width="1.5" d="M0,-3.0v7 M-2.5,-0.5L0,-3.0L2.5,-0.5"/>
                </g>
                <g id="arrowLeft" xlink:href="#dirArrow" transform="rotate(270) translate(-36 17)" onmousedown="handlePan(-1,0)">
                  <use xlink:href="#rim" fill="#404040">
                        <set attributeName="fill" to="#808080" begin="arrowLeft.mouseover" end="arrowLeft.mouseout"/>
                  </use>
                  <path fill="none" stroke="white" stroke-width="1.5" d="M0,-3.0v7 M-2.5,-0.5L0,-3.0L2.5,-0.5"/>
                </g>
        </g>
        <svg viewBox="0 0 15 15" width="100%" height="30px" preserveAspectRatio="xMaxYMin meet">
         <g id="arrow_out" transform="scale(0.3 0.3)">
          <a xlink:href="class_nx_1_1_c_ngc_text_a4baa6c40f9d4b586448376c55ca40caf_cgraph_org.svg" target="_base">
           <rect id="button" ry="5" rx="5" y="6" x="6" height="38" width="38"
                fill="#f2f5e9" fill-opacity="0.5" stroke="#606060" stroke-width="1.0"/>
           <path id="arrow"
             d="M 11.500037,31.436501 C 11.940474,20.09759 22.043105,11.32322 32.158766,21.979434 L 37.068811,17.246167 C 37.068811,17.246167 37.088388,32 37.088388,32 L 22.160133,31.978069 C 22.160133,31.978069 26.997745,27.140456 26.997745,27.140456 C 18.528582,18.264221 13.291696,25.230495 11.500037,31.436501 z"
             style="fill:#404040;"/>
          </a>
         </g>
        </svg>
</svg>
