<?xml version="1.0" encoding="UTF-8" standalone="no"?>
<!DOCTYPE svg PUBLIC "-//W3C//DTD SVG 1.1//EN"
 "http://www.w3.org/Graphics/SVG/1.1/DTD/svg11.dtd">
<!-- Generated by graphviz version 2.38.0 (20140413.2041)
 -->
<!-- Title: Obj::CLockObjComponent::CallMemberFunction Pages: 1 -->
<!--zoomable 562 -->
<svg id="main" version="1.1" xmlns="http://www.w3.org/2000/svg" xmlns:xlink="http://www.w3.org/1999/xlink" xml:space="preserve" onload="init(evt)">
<style type="text/css"><![CDATA[
.edge:hover path { stroke: red; }
.edge:hover polygon { stroke: red; fill: red; }
]]></style>
<script type="text/javascript"><![CDATA[
var edges = document.getElementsByTagName('g');
if (edges && edges.length) {
  for (var i=0;i<edges.length;i++) {
    if (edges[i].id.substr(0,4)=='edge') {
      edges[i].setAttribute('class','edge');
    }
  }
}
]]></script>
        <defs>
                <circle id="rim" cx="0" cy="0" r="7"/>
                <circle id="rim2" cx="0" cy="0" r="3.5"/>
                <g id="zoomPlus">
                        <use xlink:href="#rim" fill="#404040">
                                <set attributeName="fill" to="#808080" begin="zoomplus.mouseover" end="zoomplus.mouseout"/>
                        </use>
                        <path d="M-4,0h8M0,-4v8" fill="none" stroke="white" stroke-width="1.5" pointer-events="none"/>
                </g>
                <g id="zoomMin">
                        <use xlink:href="#rim" fill="#404040">
                                <set attributeName="fill" to="#808080" begin="zoomminus.mouseover" end="zoomminus.mouseout"/>
                        </use>
                        <path d="M-4,0h8" fill="none" stroke="white" stroke-width="1.5" pointer-events="none"/>
                </g>
                <g id="dirArrow">
                        <path fill="none" stroke="white" stroke-width="1.5" d="M0,-3.0v7 M-2.5,-0.5L0,-3.0L2.5,-0.5"/>
                </g>
               <g id="resetDef">
                       <use xlink:href="#rim2" fill="#404040">
                               <set attributeName="fill" to="#808080" begin="reset.mouseover" end="reset.mouseout"/>
                       </use>
               </g>
        </defs>

<script type="text/javascript">
var viewWidth = 1382;
var viewHeight = 562;
var sectionId = 'dynsection-7';
</script>
<script xlink:href="../../svgpan.js"/>
<svg id="graph" class="graph">
<g id="viewport">
<title>Obj::CLockObjComponent::CallMemberFunction</title>
<polygon fill="white" stroke="none" points="-4,4 -4,-558 1378,-558 1378,4 -4,4"/>
<!-- Node1 -->
<g id="node1" class="node"><title>Node1</title>
<g id="a_node1"><a xlink:title=" ">
<polygon fill="#bfbfbf" stroke="black" points="0,-416 0,-446 130,-446 130,-416 0,-416"/>
<text text-anchor="start" x="8" y="-434" font-family="Helvetica,sans-Serif" font-size="10.00">Obj::CLockObjComponent</text>
<text text-anchor="middle" x="65" y="-423" font-family="Helvetica,sans-Serif" font-size="10.00">::CallMemberFunction</text>
</a>
</g>
</g>
<!-- Node2 -->
<g id="node2" class="node"><title>Node2</title>
<g id="a_node2"><a xlink:href="../../d2/df7/class_script_1_1_c_struct.html#aa39e6fe5fdf1d6c48136ae26a7ad511e" target="_top" xlink:title=" ">
<polygon fill="white" stroke="black" points="332,-421.5 332,-440.5 481,-440.5 481,-421.5 332,-421.5"/>
<text text-anchor="middle" x="406.5" y="-428.5" font-family="Helvetica,sans-Serif" font-size="10.00">Script::CStruct::GetChecksum</text>
</a>
</g>
</g>
<!-- Node1&#45;&gt;Node2 -->
<g id="edge1" class="edge"><title>Node1&#45;&gt;Node2</title>
<path fill="none" stroke="midnightblue" d="M130.256,-431C184.501,-431 262.556,-431 321.701,-431"/>
<polygon fill="midnightblue" stroke="midnightblue" points="321.768,-434.5 331.768,-431 321.768,-427.5 321.768,-434.5"/>
</g>
<!-- Node10 -->
<g id="node10" class="node"><title>Node10</title>
<g id="a_node10"><a xlink:href="../../db/df2/class_script_1_1_c_script.html#a79524e82741fa32e53faf43cd84bcef3" target="_top" xlink:title=" ">
<polygon fill="white" stroke="black" points="697,-515.5 697,-534.5 840,-534.5 840,-515.5 697,-515.5"/>
<text text-anchor="middle" x="768.5" y="-522.5" font-family="Helvetica,sans-Serif" font-size="10.00">Script::CScript::GetScriptInfo</text>
</a>
</g>
</g>
<!-- Node1&#45;&gt;Node10 -->
<g id="edge11" class="edge"><title>Node1&#45;&gt;Node10</title>
<path fill="none" stroke="midnightblue" d="M130.014,-439.976C141.973,-441.649 154.367,-443.38 166,-445 239.771,-455.275 258.184,-458.056 332,-468 455.758,-484.672 599.397,-503.34 686.835,-514.627"/>
<polygon fill="midnightblue" stroke="midnightblue" points="686.586,-518.124 696.952,-515.932 687.482,-511.181 686.586,-518.124"/>
</g>
<!-- Node14 -->
<g id="node14" class="node"><title>Node14</title>
<g id="a_node14"><a xlink:href="../../d5/d5b/class_obj_1_1_c_lock_obj_component.html#abf5fc85079ba69be46c74ed6147caf55" target="_top" xlink:title=" ">
<polygon fill="white" stroke="black" points="166,-227 166,-257 296,-257 296,-227 166,-227"/>
<text text-anchor="start" x="174" y="-245" font-family="Helvetica,sans-Serif" font-size="10.00">Obj::CLockObjComponent</text>
<text text-anchor="middle" x="231" y="-234" font-family="Helvetica,sans-Serif" font-size="10.00">::InitFromStructure</text>
</a>
</g>
</g>
<!-- Node1&#45;&gt;Node14 -->
<g id="edge18" class="edge"><title>Node1&#45;&gt;Node14</title>
<path fill="none" stroke="midnightblue" d="M79.1436,-415.853C107.812,-382.814 176.108,-304.107 210.09,-264.945"/>
<polygon fill="midnightblue" stroke="midnightblue" points="212.883,-267.066 216.794,-257.219 207.596,-262.478 212.883,-267.066"/>
</g>
<!-- Node2&#45;&gt;Node2 -->
<g id="edge6" class="edge"><title>Node2&#45;&gt;Node2</title>
<path fill="none" stroke="midnightblue" d="M379.682,-440.757C366.635,-449.565 375.574,-459 406.5,-459 427.278,-459 438.132,-454.741 439.06,-449.275"/>
<polygon fill="midnightblue" stroke="midnightblue" points="441.81,-447.093 433.318,-440.757 436.006,-451.005 441.81,-447.093"/>
</g>
<!-- Node3 -->
<g id="node3" class="node"><title>Node3</title>
<g id="a_node3"><a xlink:href="../../d1/d54/namespace_script.html#ae80ed69ea4edcbcbbbd4985a6efdcd6e" target="_top" xlink:title=" ">
<polygon fill="white" stroke="black" points="876,-383.5 876,-402.5 1015,-402.5 1015,-383.5 876,-383.5"/>
<text text-anchor="middle" x="945.5" y="-390.5" font-family="Helvetica,sans-Serif" font-size="10.00">Script::FindChecksumName</text>
</a>
</g>
</g>
<!-- Node2&#45;&gt;Node3 -->
<g id="edge2" class="edge"><title>Node2&#45;&gt;Node3</title>
<path fill="none" stroke="midnightblue" d="M437.742,-440.51C510.269,-461.614 698.57,-506.229 840,-450 860.451,-441.869 857.128,-427.322 876,-416 882.36,-412.184 889.436,-408.904 896.559,-406.116"/>
<polygon fill="midnightblue" stroke="midnightblue" points="898.024,-409.308 906.236,-402.614 895.642,-402.725 898.024,-409.308"/>
</g>
<!-- Node7 -->
<g id="node7" class="node"><title>Node7</title>
<g id="a_node7"><a xlink:href="../../d1/d54/namespace_script.html#a0d003ee93577e31adb6597bce0002009" target="_top" xlink:title=" ">
<polygon fill="white" stroke="black" points="535.5,-307.5 535.5,-326.5 642.5,-326.5 642.5,-307.5 535.5,-307.5"/>
<text text-anchor="middle" x="589" y="-314.5" font-family="Helvetica,sans-Serif" font-size="10.00">Script::PrintContents</text>
</a>
</g>
</g>
<!-- Node2&#45;&gt;Node7 -->
<g id="edge7" class="edge"><title>Node2&#45;&gt;Node7</title>
<path fill="none" stroke="midnightblue" d="M422.579,-421.477C453.901,-401.694 526.228,-356.014 564.019,-332.146"/>
<polygon fill="midnightblue" stroke="midnightblue" points="566.251,-334.876 572.837,-326.577 562.513,-328.957 566.251,-334.876"/>
</g>
<!-- Node8 -->
<g id="node8" class="node"><title>Node8</title>
<g id="a_node8"><a xlink:href="../../d1/d54/namespace_script.html#a43181580ea5d38e4bf1aa19ccd5e9e85" target="_top" xlink:title=" ">
<polygon fill="white" stroke="black" points="727.5,-421.5 727.5,-440.5 809.5,-440.5 809.5,-421.5 727.5,-421.5"/>
<text text-anchor="middle" x="768.5" y="-428.5" font-family="Helvetica,sans-Serif" font-size="10.00">Script::Resolve</text>
</a>
</g>
</g>
<!-- Node2&#45;&gt;Node8 -->
<g id="edge8" class="edge"><title>Node2&#45;&gt;Node8</title>
<path fill="none" stroke="midnightblue" d="M481.22,-431C551.614,-431 655.795,-431 717.153,-431"/>
<polygon fill="midnightblue" stroke="midnightblue" points="717.357,-434.5 727.357,-431 717.357,-427.5 717.357,-434.5"/>
</g>
<!-- Node4 -->
<g id="node4" class="node"><title>Node4</title>
<g id="a_node4"><a xlink:href="../../d1/d54/namespace_script.html#a5cc52c4ff5ea5bb27681d819212dfdca" target="_top" xlink:title=" ">
<polygon fill="white" stroke="black" points="1051,-383.5 1051,-402.5 1214,-402.5 1214,-383.5 1051,-383.5"/>
<text text-anchor="middle" x="1132.5" y="-390.5" font-family="Helvetica,sans-Serif" font-size="10.00">Script::FindChecksumNameNULL</text>
</a>
</g>
</g>
<!-- Node3&#45;&gt;Node4 -->
<g id="edge3" class="edge"><title>Node3&#45;&gt;Node4</title>
<path fill="none" stroke="midnightblue" d="M1015.12,-393C1023.48,-393 1032.11,-393 1040.72,-393"/>
<polygon fill="midnightblue" stroke="midnightblue" points="1040.8,-396.5 1050.8,-393 1040.8,-389.5 1040.8,-396.5"/>
</g>
<!-- Node6 -->
<g id="node6" class="node"><title>Node6</title>
<g id="a_node6"><a xlink:href="../../da/d37/namespace_dbg.html#ab406a8cc16de5046c7d9fd09c9de5e22" target="_top" xlink:title=" ">
<polygon fill="white" stroke="black" points="1099.5,-439.5 1099.5,-458.5 1165.5,-458.5 1165.5,-439.5 1099.5,-439.5"/>
<text text-anchor="middle" x="1132.5" y="-446.5" font-family="Helvetica,sans-Serif" font-size="10.00">Dbg::sprintf</text>
</a>
</g>
</g>
<!-- Node3&#45;&gt;Node6 -->
<g id="edge5" class="edge"><title>Node3&#45;&gt;Node6</title>
<path fill="none" stroke="midnightblue" d="M978.303,-402.627C1009.33,-412.019 1056.68,-426.35 1090.51,-436.594"/>
<polygon fill="midnightblue" stroke="midnightblue" points="1089.53,-439.951 1100.11,-439.499 1091.56,-433.252 1089.53,-439.951"/>
</g>
<!-- Node5 -->
<g id="node5" class="node"><title>Node5</title>
<g id="a_node5"><a xlink:href="../../d0/d31/namespace_config.html#a709cc81780d49900157e3476b63aa25d" target="_top" xlink:title=" ">
<polygon fill="white" stroke="black" points="1250,-383.5 1250,-402.5 1374,-402.5 1374,-383.5 1250,-383.5"/>
<text text-anchor="middle" x="1312" y="-390.5" font-family="Helvetica,sans-Serif" font-size="10.00">Config::GotExtraMemory</text>
</a>
</g>
</g>
<!-- Node4&#45;&gt;Node5 -->
<g id="edge4" class="edge"><title>Node4&#45;&gt;Node5</title>
<path fill="none" stroke="midnightblue" d="M1214.2,-393C1222.73,-393 1231.36,-393 1239.77,-393"/>
<polygon fill="midnightblue" stroke="midnightblue" points="1239.9,-396.5 1249.9,-393 1239.9,-389.5 1239.9,-396.5"/>
</g>
<!-- Node8&#45;&gt;Node3 -->
<g id="edge9" class="edge"><title>Node8&#45;&gt;Node3</title>
<path fill="none" stroke="midnightblue" d="M809.649,-422.282C833.612,-417.078 864.357,-410.402 890.437,-404.739"/>
<polygon fill="midnightblue" stroke="midnightblue" points="891.52,-408.086 900.549,-402.544 890.034,-401.245 891.52,-408.086"/>
</g>
<!-- Node9 -->
<g id="node9" class="node"><title>Node9</title>
<g id="a_node9"><a xlink:href="../../d1/d54/namespace_script.html#af293a36c230b10de7d8151c2990b233b" target="_top" xlink:title=" ">
<polygon fill="white" stroke="black" points="888.5,-425.5 888.5,-444.5 1002.5,-444.5 1002.5,-425.5 888.5,-425.5"/>
<text text-anchor="middle" x="945.5" y="-432.5" font-family="Helvetica,sans-Serif" font-size="10.00">Script::LookUpSymbol</text>
</a>
</g>
</g>
<!-- Node8&#45;&gt;Node9 -->
<g id="edge10" class="edge"><title>Node8&#45;&gt;Node9</title>
<path fill="none" stroke="midnightblue" d="M809.649,-431.918C829.954,-432.382 855.128,-432.957 878.207,-433.485"/>
<polygon fill="midnightblue" stroke="midnightblue" points="878.215,-436.986 888.293,-433.715 878.375,-429.988 878.215,-436.986"/>
</g>
<!-- Node10&#45;&gt;Node3 -->
<g id="edge12" class="edge"><title>Node10&#45;&gt;Node3</title>
<path fill="none" stroke="midnightblue" d="M815.842,-515.453C824.624,-512.012 833.183,-507.34 840,-501 870.042,-473.061 845.899,-443.877 876,-416 879.814,-412.468 884.188,-409.477 888.841,-406.944"/>
<polygon fill="midnightblue" stroke="midnightblue" points="890.494,-410.034 898.058,-402.616 887.519,-403.698 890.494,-410.034"/>
</g>
<!-- Node10&#45;&gt;Node6 -->
<g id="edge17" class="edge"><title>Node10&#45;&gt;Node6</title>
<path fill="none" stroke="midnightblue" d="M814.981,-515.452C885.604,-500.625 1020.63,-472.276 1089.24,-457.872"/>
<polygon fill="midnightblue" stroke="midnightblue" points="1090.19,-461.248 1099.26,-455.768 1088.76,-454.398 1090.19,-461.248"/>
</g>
<!-- Node10&#45;&gt;Node9 -->
<g id="edge16" class="edge"><title>Node10&#45;&gt;Node9</title>
<path fill="none" stroke="midnightblue" d="M808.309,-515.411C819.046,-511.814 830.382,-507.078 840,-501 859.395,-488.742 857.061,-476.951 876,-464 884.967,-457.868 895.437,-452.635 905.454,-448.372"/>
<polygon fill="midnightblue" stroke="midnightblue" points="906.888,-451.568 914.855,-444.584 904.272,-445.075 906.888,-451.568"/>
</g>
<!-- Node11 -->
<g id="node11" class="node"><title>Node11</title>
<g id="a_node11"><a xlink:href="../../d1/d54/namespace_script.html#ade6b00de97e28d9883fd40fd39b49e75" target="_top" xlink:title=" ">
<polygon fill="white" stroke="black" points="887.5,-515.5 887.5,-534.5 1003.5,-534.5 1003.5,-515.5 887.5,-515.5"/>
<text text-anchor="middle" x="945.5" y="-522.5" font-family="Helvetica,sans-Serif" font-size="10.00">Script::GetLineNumber</text>
</a>
</g>
</g>
<!-- Node10&#45;&gt;Node11 -->
<g id="edge13" class="edge"><title>Node10&#45;&gt;Node11</title>
<path fill="none" stroke="midnightblue" d="M840.175,-525C852.403,-525 865.087,-525 877.222,-525"/>
<polygon fill="midnightblue" stroke="midnightblue" points="877.264,-528.5 887.264,-525 877.264,-521.5 877.264,-528.5"/>
</g>
<!-- Node12 -->
<g id="node12" class="node"><title>Node12</title>
<g id="a_node12"><a xlink:href="../../d1/d54/namespace_script.html#a13f53c2ad11266b0280c0c1937902bb9" target="_top" xlink:title=" ">
<polygon fill="white" stroke="black" points="1082,-534.5 1082,-553.5 1183,-553.5 1183,-534.5 1082,-534.5"/>
<text text-anchor="middle" x="1132.5" y="-541.5" font-family="Helvetica,sans-Serif" font-size="10.00">Script::Read4Bytes</text>
</a>
</g>
</g>
<!-- Node11&#45;&gt;Node12 -->
<g id="edge14" class="edge"><title>Node11&#45;&gt;Node12</title>
<path fill="none" stroke="midnightblue" d="M1003.52,-530.856C1025.15,-533.077 1049.83,-535.612 1071.71,-537.859"/>
<polygon fill="midnightblue" stroke="midnightblue" points="1071.56,-541.362 1081.87,-538.902 1072.28,-534.399 1071.56,-541.362"/>
</g>
<!-- Node13 -->
<g id="node13" class="node"><title>Node13</title>
<g id="a_node13"><a xlink:href="../../d1/d54/namespace_script.html#a557f2b1ab2abd381a311d1deab276873" target="_top" xlink:title=" ">
<polygon fill="white" stroke="black" points="1085.5,-496.5 1085.5,-515.5 1179.5,-515.5 1179.5,-496.5 1085.5,-496.5"/>
<text text-anchor="middle" x="1132.5" y="-503.5" font-family="Helvetica,sans-Serif" font-size="10.00">Script::SkipToken</text>
</a>
</g>
</g>
<!-- Node11&#45;&gt;Node13 -->
<g id="edge15" class="edge"><title>Node11&#45;&gt;Node13</title>
<path fill="none" stroke="midnightblue" d="M1003.52,-519.144C1026.26,-516.809 1052.37,-514.127 1075.05,-511.797"/>
<polygon fill="midnightblue" stroke="midnightblue" points="1075.62,-515.258 1085.21,-510.754 1074.9,-508.294 1075.62,-515.258"/>
</g>
<!-- Node14&#45;&gt;Node2 -->
<g id="edge27" class="edge"><title>Node14&#45;&gt;Node2</title>
<path fill="none" stroke="midnightblue" d="M238.234,-257.375C251.334,-287.968 284.483,-357.044 332,-398 341.436,-406.133 353.203,-412.602 364.536,-417.579"/>
<polygon fill="midnightblue" stroke="midnightblue" points="363.313,-420.86 373.893,-421.413 365.967,-414.383 363.313,-420.86"/>
</g>
<!-- Node14&#45;&gt;Node3 -->
<g id="edge26" class="edge"><title>Node14&#45;&gt;Node3</title>
<path fill="none" stroke="midnightblue" d="M251.419,-226.984C270.703,-212.967 301.692,-192.787 332,-183 471.333,-138.009 515.788,-147.254 661,-166 742.575,-176.531 774.559,-163.171 840,-213 895.734,-255.438 926.983,-336.826 938.87,-373.835"/>
<polygon fill="midnightblue" stroke="midnightblue" points="935.534,-374.895 941.829,-383.417 942.222,-372.83 935.534,-374.895"/>
</g>
<!-- Node15 -->
<g id="node15" class="node"><title>Node15</title>
<g id="a_node15"><a xlink:href="../../d2/df7/class_script_1_1_c_struct.html#aa27bdd009eb62b22c75dac7b9398a902" target="_top" xlink:title=" ">
<polygon fill="white" stroke="black" points="517,-383.5 517,-402.5 661,-402.5 661,-383.5 517,-383.5"/>
<text text-anchor="middle" x="589" y="-390.5" font-family="Helvetica,sans-Serif" font-size="10.00">Script::CStruct::ContainsFlag</text>
</a>
</g>
</g>
<!-- Node14&#45;&gt;Node15 -->
<g id="edge19" class="edge"><title>Node14&#45;&gt;Node15</title>
<path fill="none" stroke="midnightblue" d="M240.447,-257.264C255.315,-282.515 288.728,-332.521 332,-356 385.378,-384.962 453.8,-393.65 506.476,-395.402"/>
<polygon fill="midnightblue" stroke="midnightblue" points="506.706,-398.909 516.792,-395.664 506.884,-391.911 506.706,-398.909"/>
</g>
<!-- Node16 -->
<g id="node16" class="node"><title>Node16</title>
<g id="a_node16"><a xlink:href="../../d1/d0d/namespace_tmr.html#aeede2bf5e4d84e9aae6110f582389a96" target="_top" xlink:title=" ">
<polygon fill="white" stroke="black" points="359,-0.5 359,-19.5 454,-19.5 454,-0.5 359,-0.5"/>
<text text-anchor="middle" x="406.5" y="-7.5" font-family="Helvetica,sans-Serif" font-size="10.00">Tmr::ElapsedTime</text>
</a>
</g>
</g>
<!-- Node14&#45;&gt;Node16 -->
<g id="edge23" class="edge"><title>Node14&#45;&gt;Node16</title>
<path fill="none" stroke="midnightblue" d="M234.541,-226.946C241.945,-187.908 267.225,-82.724 332,-29 336.993,-24.8587 342.783,-21.6076 348.879,-19.0573"/>
<polygon fill="midnightblue" stroke="midnightblue" points="350.382,-22.2379 358.64,-15.5995 348.045,-15.6397 350.382,-22.2379"/>
</g>
<!-- Node18 -->
<g id="node18" class="node"><title>Node18</title>
<g id="a_node18"><a xlink:href="../../d5/d5b/class_obj_1_1_c_lock_obj_component.html#a59dc72f8beea6f36850dd0e9e9e389f7" target="_top" xlink:title=" ">
<polygon fill="white" stroke="black" points="341.5,-88 341.5,-118 471.5,-118 471.5,-88 341.5,-88"/>
<text text-anchor="start" x="349.5" y="-106" font-family="Helvetica,sans-Serif" font-size="10.00">Obj::CLockObjComponent</text>
<text text-anchor="middle" x="406.5" y="-95" font-family="Helvetica,sans-Serif" font-size="10.00">::EnableLock</text>
</a>
</g>
</g>
<!-- Node14&#45;&gt;Node18 -->
<g id="edge25" class="edge"><title>Node14&#45;&gt;Node18</title>
<path fill="none" stroke="midnightblue" d="M242.62,-226.635C259.278,-203.527 293.636,-159.698 332,-133 337.625,-129.086 343.837,-125.56 350.196,-122.42"/>
<polygon fill="midnightblue" stroke="midnightblue" points="351.954,-125.464 359.567,-118.095 349.021,-119.108 351.954,-125.464"/>
</g>
<!-- Node19 -->
<g id="node19" class="node"><title>Node19</title>
<g id="a_node19"><a xlink:href="../../d0/d7e/class_obj_1_1_c_base_component.html#a952f40d99323d28b3ca2f55567edfa85" target="_top" xlink:title=" ">
<polygon fill="white" stroke="black" points="348.5,-39 348.5,-69 464.5,-69 464.5,-39 348.5,-39"/>
<text text-anchor="start" x="356.5" y="-57" font-family="Helvetica,sans-Serif" font-size="10.00">Obj::CBaseComponent</text>
<text text-anchor="middle" x="406.5" y="-46" font-family="Helvetica,sans-Serif" font-size="10.00">::GetObject</text>
</a>
</g>
</g>
<!-- Node14&#45;&gt;Node19 -->
<g id="edge28" class="edge"><title>Node14&#45;&gt;Node19</title>
<path fill="none" stroke="midnightblue" d="M237.1,-226.869C248.717,-194.672 280.222,-118.973 332,-78 334.319,-76.1649 336.783,-74.4678 339.351,-72.8987"/>
<polygon fill="midnightblue" stroke="midnightblue" points="341.254,-75.8499 348.415,-68.0419 337.948,-69.6797 341.254,-75.8499"/>
</g>
<!-- Node20 -->
<g id="node20" class="node"><title>Node20</title>
<g id="a_node20"><a xlink:href="../../d2/df7/class_script_1_1_c_struct.html#a72c2f2084bde06653913a8f1ea930f54" target="_top" xlink:title=" ">
<polygon fill="white" stroke="black" points="346.5,-289.5 346.5,-308.5 466.5,-308.5 466.5,-289.5 346.5,-289.5"/>
<text text-anchor="middle" x="406.5" y="-296.5" font-family="Helvetica,sans-Serif" font-size="10.00">Script::CStruct::GetPair</text>
</a>
</g>
</g>
<!-- Node14&#45;&gt;Node20 -->
<g id="edge29" class="edge"><title>Node14&#45;&gt;Node20</title>
<path fill="none" stroke="midnightblue" d="M268.7,-257.057C287.462,-264.471 310.762,-273.242 332,-280 339.506,-282.388 347.514,-284.697 355.379,-286.833"/>
<polygon fill="midnightblue" stroke="midnightblue" points="354.655,-290.262 365.218,-289.44 356.448,-283.496 354.655,-290.262"/>
</g>
<!-- Node23 -->
<g id="node23" class="node"><title>Node23</title>
<g id="a_node23"><a xlink:href="../../d2/df7/class_script_1_1_c_struct.html#a40dfb370c37d6da857f33157b2b3bfc7" target="_top" xlink:title=" ">
<polygon fill="white" stroke="black" points="341,-213.5 341,-232.5 472,-232.5 472,-213.5 341,-213.5"/>
<text text-anchor="middle" x="406.5" y="-220.5" font-family="Helvetica,sans-Serif" font-size="10.00">Script::CStruct::GetVector</text>
</a>
</g>
</g>
<!-- Node14&#45;&gt;Node23 -->
<g id="edge37" class="edge"><title>Node14&#45;&gt;Node23</title>
<path fill="none" stroke="midnightblue" d="M296.112,-234.979C307.386,-233.744 319.208,-232.45 330.742,-231.187"/>
<polygon fill="midnightblue" stroke="midnightblue" points="331.223,-234.655 340.782,-230.087 330.461,-227.697 331.223,-234.655"/>
</g>
<!-- Node24 -->
<g id="node24" class="node"><title>Node24</title>
<g id="a_node24"><a xlink:href="../../d1/d08/class_mth_1_1_vector.html#aeb3fc85704c5e3811b7dd4bebff78b3f" target="_top" xlink:title=" ">
<polygon fill="white" stroke="black" points="544.5,-175.5 544.5,-194.5 633.5,-194.5 633.5,-175.5 544.5,-175.5"/>
<text text-anchor="middle" x="589" y="-182.5" font-family="Helvetica,sans-Serif" font-size="10.00">Mth::Vector::Set</text>
</a>
</g>
</g>
<!-- Node14&#45;&gt;Node24 -->
<g id="edge44" class="edge"><title>Node14&#45;&gt;Node24</title>
<path fill="none" stroke="midnightblue" d="M264.595,-226.867C283.793,-218.656 308.793,-209.156 332,-204 400.726,-188.731 482.112,-185.072 534.365,-184.508"/>
<polygon fill="midnightblue" stroke="midnightblue" points="534.441,-188.007 544.415,-184.434 534.39,-181.008 534.441,-188.007"/>
</g>
<!-- Node25 -->
<g id="node25" class="node"><title>Node25</title>
<g id="a_node25"><a xlink:href="../../df/d92/standard_8cpp.html#a5fc8fd1788f18ada61dfda9f171c5a1a" target="_top" xlink:title=" ">
<polygon fill="white" stroke="black" points="387.5,-327.5 387.5,-346.5 425.5,-346.5 425.5,-327.5 387.5,-327.5"/>
<text text-anchor="middle" x="406.5" y="-334.5" font-family="Helvetica,sans-Serif" font-size="10.00">printf</text>
</a>
</g>
</g>
<!-- Node14&#45;&gt;Node25 -->
<g id="edge42" class="edge"><title>Node14&#45;&gt;Node25</title>
<path fill="none" stroke="midnightblue" d="M247.64,-257.102C266.271,-274.282 299.036,-302.019 332,-318 346.176,-324.873 363.138,-329.47 377.194,-332.418"/>
<polygon fill="midnightblue" stroke="midnightblue" points="376.8,-335.906 387.281,-334.361 378.124,-329.032 376.8,-335.906"/>
</g>
<!-- Node26 -->
<g id="node26" class="node"><title>Node26</title>
<g id="a_node26"><a xlink:href="../../d5/db9/namespace_mth.html#ad62429ac906222803b02da8cc801b1bb" target="_top" xlink:title=" ">
<polygon fill="white" stroke="black" points="378.5,-251.5 378.5,-270.5 434.5,-270.5 434.5,-251.5 378.5,-251.5"/>
<text text-anchor="middle" x="406.5" y="-258.5" font-family="Helvetica,sans-Serif" font-size="10.00">Mth::Rnd</text>
</a>
</g>
</g>
<!-- Node14&#45;&gt;Node26 -->
<g id="edge43" class="edge"><title>Node14&#45;&gt;Node26</title>
<path fill="none" stroke="midnightblue" d="M296.112,-249.021C320.39,-251.68 347.212,-254.617 368.22,-256.917"/>
<polygon fill="midnightblue" stroke="midnightblue" points="368.008,-260.415 378.33,-258.025 368.77,-253.457 368.008,-260.415"/>
</g>
<!-- Node15&#45;&gt;Node3 -->
<g id="edge21" class="edge"><title>Node15&#45;&gt;Node3</title>
<path fill="none" stroke="midnightblue" d="M661.312,-393C720.371,-393 804.215,-393 865.341,-393"/>
<polygon fill="midnightblue" stroke="midnightblue" points="865.713,-396.5 875.713,-393 865.713,-389.5 865.713,-396.5"/>
</g>
<!-- Node15&#45;&gt;Node8 -->
<g id="edge22" class="edge"><title>Node15&#45;&gt;Node8</title>
<path fill="none" stroke="midnightblue" d="M634.791,-402.589C659.905,-407.966 691.303,-414.687 717.252,-420.243"/>
<polygon fill="midnightblue" stroke="midnightblue" points="716.76,-423.717 727.271,-422.388 718.225,-416.872 716.76,-423.717"/>
</g>
<!-- Node15&#45;&gt;Node15 -->
<g id="edge20" class="edge"><title>Node15&#45;&gt;Node15</title>
<path fill="none" stroke="midnightblue" d="M561.565,-402.757C548.218,-411.565 557.363,-421 589,-421 610.75,-421 621.87,-416.541 622.358,-410.891"/>
<polygon fill="midnightblue" stroke="midnightblue" points="625.151,-408.781 616.435,-402.757 619.492,-412.901 625.151,-408.781"/>
</g>
<!-- Node17 -->
<g id="node17" class="node"><title>Node17</title>
<g id="a_node17"><a xlink:href="../../d1/d0d/namespace_tmr.html#a73fa70536cd356e6914161cb7737fd65" target="_top" xlink:title=" ">
<polygon fill="white" stroke="black" points="551,-0.5 551,-19.5 627,-19.5 627,-0.5 551,-0.5"/>
<text text-anchor="middle" x="589" y="-7.5" font-family="Helvetica,sans-Serif" font-size="10.00">Tmr::GetTime</text>
</a>
</g>
</g>
<!-- Node16&#45;&gt;Node17 -->
<g id="edge24" class="edge"><title>Node16&#45;&gt;Node17</title>
<path fill="none" stroke="midnightblue" d="M454.453,-10C481.011,-10 514.124,-10 540.734,-10"/>
<polygon fill="midnightblue" stroke="midnightblue" points="540.956,-13.5001 550.956,-10 540.956,-6.5001 540.956,-13.5001"/>
</g>
<!-- Node20&#45;&gt;Node3 -->
<g id="edge30" class="edge"><title>Node20&#45;&gt;Node3</title>
<path fill="none" stroke="midnightblue" d="M450.725,-308.554C460.789,-311.223 471.373,-314.395 481,-318 497.752,-324.273 499.9,-330.746 517,-336 635.073,-372.279 778.496,-385.471 865.566,-390.265"/>
<polygon fill="midnightblue" stroke="midnightblue" points="865.468,-393.765 875.638,-390.796 865.837,-386.775 865.468,-393.765"/>
</g>
<!-- Node20&#45;&gt;Node7 -->
<g id="edge31" class="edge"><title>Node20&#45;&gt;Node7</title>
<path fill="none" stroke="midnightblue" d="M466.602,-304.894C485.427,-306.771 506.313,-308.854 525.378,-310.755"/>
<polygon fill="midnightblue" stroke="midnightblue" points="525.16,-314.251 535.458,-311.76 525.855,-307.285 525.16,-314.251"/>
</g>
<!-- Node21 -->
<g id="node21" class="node"><title>Node21</title>
<g id="a_node21"><a xlink:href="../../d2/df7/class_script_1_1_c_struct.html#a1e05f0a66cff4a700fb67fdc117d2d7f" target="_top" xlink:title=" ">
<polygon fill="white" stroke="black" points="523,-251.5 523,-270.5 655,-270.5 655,-251.5 523,-251.5"/>
<text text-anchor="middle" x="589" y="-258.5" font-family="Helvetica,sans-Serif" font-size="10.00">Script::CStruct::search_for</text>
</a>
</g>
</g>
<!-- Node20&#45;&gt;Node21 -->
<g id="edge32" class="edge"><title>Node20&#45;&gt;Node21</title>
<path fill="none" stroke="midnightblue" d="M453.048,-289.411C477.296,-284.306 507.304,-277.989 532.861,-272.608"/>
<polygon fill="midnightblue" stroke="midnightblue" points="533.715,-276.005 542.78,-270.52 532.273,-269.155 533.715,-276.005"/>
</g>
<!-- Node21&#45;&gt;Node3 -->
<g id="edge33" class="edge"><title>Node21&#45;&gt;Node3</title>
<path fill="none" stroke="midnightblue" d="M625.794,-270.599C674.878,-284.178 765.477,-310.739 840,-341 867.354,-352.107 897.418,-367.413 918.248,-378.542"/>
<polygon fill="midnightblue" stroke="midnightblue" points="916.664,-381.664 927.127,-383.331 919.987,-375.503 916.664,-381.664"/>
</g>
<!-- Node21&#45;&gt;Node8 -->
<g id="edge35" class="edge"><title>Node21&#45;&gt;Node8</title>
<path fill="none" stroke="midnightblue" d="M614.191,-270.58C628.671,-277.02 646.934,-286.438 661,-298 702.496,-332.109 738.709,-384.749 756.255,-412.468"/>
<polygon fill="midnightblue" stroke="midnightblue" points="753.408,-414.517 761.661,-421.162 759.353,-410.821 753.408,-414.517"/>
</g>
<!-- Node21&#45;&gt;Node21 -->
<g id="edge36" class="edge"><title>Node21&#45;&gt;Node21</title>
<path fill="none" stroke="midnightblue" d="M561.565,-270.757C548.218,-279.565 557.363,-289 589,-289 610.75,-289 621.87,-284.541 622.358,-278.891"/>
<polygon fill="midnightblue" stroke="midnightblue" points="625.151,-276.781 616.435,-270.757 619.492,-280.901 625.151,-276.781"/>
</g>
<!-- Node22 -->
<g id="node22" class="node"><title>Node22</title>
<g id="a_node22"><a xlink:href="../../d1/d54/namespace_script.html#af32f99ba26ca0f255240413a4e23a754" target="_top" xlink:title=" ">
<polygon fill="white" stroke="black" points="713.5,-251.5 713.5,-270.5 823.5,-270.5 823.5,-251.5 713.5,-251.5"/>
<text text-anchor="middle" x="768.5" y="-258.5" font-family="Helvetica,sans-Serif" font-size="10.00">Script::GetTypeName</text>
</a>
</g>
</g>
<!-- Node21&#45;&gt;Node22 -->
<g id="edge34" class="edge"><title>Node21&#45;&gt;Node22</title>
<path fill="none" stroke="midnightblue" d="M655.087,-261C670.832,-261 687.65,-261 703.352,-261"/>
<polygon fill="midnightblue" stroke="midnightblue" points="703.487,-264.5 713.487,-261 703.487,-257.5 703.487,-264.5"/>
</g>
<!-- Node23&#45;&gt;Node3 -->
<g id="edge38" class="edge"><title>Node23&#45;&gt;Node3</title>
<path fill="none" stroke="midnightblue" d="M472.258,-218.948C577.147,-213.516 778.651,-208.113 840,-242 892.881,-271.21 924.732,-339.91 937.713,-373.635"/>
<polygon fill="midnightblue" stroke="midnightblue" points="934.52,-375.093 941.267,-383.261 941.087,-372.668 934.52,-375.093"/>
</g>
<!-- Node23&#45;&gt;Node7 -->
<g id="edge39" class="edge"><title>Node23&#45;&gt;Node7</title>
<path fill="none" stroke="midnightblue" d="M463.311,-232.606C469.603,-235.059 475.66,-238.138 481,-242 504.974,-259.341 493.1,-280.557 517,-298 519.817,-300.056 522.841,-301.889 525.997,-303.524"/>
<polygon fill="midnightblue" stroke="midnightblue" points="524.617,-306.741 535.174,-307.627 527.473,-300.35 524.617,-306.741"/>
</g>
<!-- Node23&#45;&gt;Node21 -->
<g id="edge40" class="edge"><title>Node23&#45;&gt;Node21</title>
<path fill="none" stroke="midnightblue" d="M453.048,-232.589C477.296,-237.694 507.304,-244.011 532.861,-249.392"/>
<polygon fill="midnightblue" stroke="midnightblue" points="532.273,-252.845 542.78,-251.48 533.715,-245.995 532.273,-252.845"/>
</g>
<!-- Node23&#45;&gt;Node24 -->
<g id="edge41" class="edge"><title>Node23&#45;&gt;Node24</title>
<path fill="none" stroke="midnightblue" d="M453.048,-213.411C477.757,-208.209 508.447,-201.748 534.314,-196.302"/>
<polygon fill="midnightblue" stroke="midnightblue" points="535.27,-199.678 544.335,-194.193 533.828,-192.828 535.27,-199.678"/>
</g>
</g>
</svg>
        <g id="navigator" transform="translate(0 0)" fill="#404254">
                <rect fill="#f2f5e9" fill-opacity="0.5" stroke="#606060" stroke-width=".5" x="0" y="0" width="60" height="60"/>
                <use id="zoomplus" xlink:href="#zoomPlus" x="17" y="9" onmousedown="handleZoom(evt,'in')"/>
                <use id="zoomminus" xlink:href="#zoomMin" x="42" y="9" onmousedown="handleZoom(evt,'out')"/>
                <use id="reset" xlink:href="#resetDef" x="30" y="36" onmousedown="handleReset()"/>
                <g id="arrowUp" xlink:href="#dirArrow" transform="translate(30 24)" onmousedown="handlePan(0,-1)">
                  <use xlink:href="#rim" fill="#404040">
                        <set attributeName="fill" to="#808080" begin="arrowUp.mouseover" end="arrowUp.mouseout"/>
                  </use>
                  <path fill="none" stroke="white" stroke-width="1.5" d="M0,-3.0v7 M-2.5,-0.5L0,-3.0L2.5,-0.5"/>
                </g>
                <g id="arrowRight" xlink:href="#dirArrow" transform="rotate(90) translate(36 -43)" onmousedown="handlePan(1,0)">
                  <use xlink:href="#rim" fill="#404040">
                        <set attributeName="fill" to="#808080" begin="arrowRight.mouseover" end="arrowRight.mouseout"/>
                  </use>
                  <path fill="none" stroke="white" stroke-width="1.5" d="M0,-3.0v7 M-2.5,-0.5L0,-3.0L2.5,-0.5"/>
                </g>
                <g id="arrowDown" xlink:href="#dirArrow" transform="rotate(180) translate(-30 -48)" onmousedown="handlePan(0,1)">
                  <use xlink:href="#rim" fill="#404040">
                        <set attributeName="fill" to="#808080" begin="arrowDown.mouseover" end="arrowDown.mouseout"/>
                  </use>
                  <path fill="none" stroke="white" stroke-width="1.5" d="M0,-3.0v7 M-2.5,-0.5L0,-3.0L2.5,-0.5"/>
                </g>
                <g id="arrowLeft" xlink:href="#dirArrow" transform="rotate(270) translate(-36 17)" onmousedown="handlePan(-1,0)">
                  <use xlink:href="#rim" fill="#404040">
                        <set attributeName="fill" to="#808080" begin="arrowLeft.mouseover" end="arrowLeft.mouseout"/>
                  </use>
                  <path fill="none" stroke="white" stroke-width="1.5" d="M0,-3.0v7 M-2.5,-0.5L0,-3.0L2.5,-0.5"/>
                </g>
        </g>
        <svg viewBox="0 0 15 15" width="100%" height="30px" preserveAspectRatio="xMaxYMin meet">
         <g id="arrow_out" transform="scale(0.3 0.3)">
          <a xlink:href="class_obj_1_1_c_lock_obj_component_a59748df570b87c625df95290308dbeb0_cgraph_org.svg" target="_base">
           <rect id="button" ry="5" rx="5" y="6" x="6" height="38" width="38"
                fill="#f2f5e9" fill-opacity="0.5" stroke="#606060" stroke-width="1.0"/>
           <path id="arrow"
             d="M 11.500037,31.436501 C 11.940474,20.09759 22.043105,11.32322 32.158766,21.979434 L 37.068811,17.246167 C 37.068811,17.246167 37.088388,32 37.088388,32 L 22.160133,31.978069 C 22.160133,31.978069 26.997745,27.140456 26.997745,27.140456 C 18.528582,18.264221 13.291696,25.230495 11.500037,31.436501 z"
             style="fill:#404040;"/>
          </a>
         </g>
        </svg>
</svg>
