<?xml version="1.0" encoding="UTF-8" standalone="no"?>
<!DOCTYPE svg PUBLIC "-//W3C//DTD SVG 1.1//EN"
 "http://www.w3.org/Graphics/SVG/1.1/DTD/svg11.dtd">
<!-- Generated by graphviz version 2.38.0 (20140413.2041)
 -->
<!-- Title: Nx::CWindow2D::SetPos Pages: 1 -->
<svg width="354pt" height="39pt"
 viewBox="0.00 0.00 354.00 39.00" xmlns="http://www.w3.org/2000/svg" xmlns:xlink="http://www.w3.org/1999/xlink">
<g id="graph0" class="graph" transform="scale(1 1) rotate(0) translate(4 35)">
<title>Nx::CWindow2D::SetPos</title>
<polygon fill="white" stroke="none" points="-4,4 -4,-35 350,-35 350,4 -4,4"/>
<!-- Node1 -->
<g id="node1" class="node"><title>Node1</title>
<g id="a_node1"><a xlink:title=" ">
<polygon fill="#bfbfbf" stroke="black" points="0,-6 0,-25 126,-25 126,-6 0,-6"/>
<text text-anchor="middle" x="63" y="-13" font-family="Helvetica,sans-Serif" font-size="10.00">Nx::CWindow2D::SetPos</text>
</a>
</g>
</g>
<!-- Node2 -->
<g id="node2" class="node"><title>Node2</title>
<g id="a_node2"><a xlink:href="../../d4/dce/class_nx_1_1_c_window2_d.html#a8828c7fe10e0afff0e1833044f154e42" target="_top" xlink:title=" ">
<polygon fill="white" stroke="black" points="162,-0.5 162,-30.5 272,-30.5 272,-0.5 162,-0.5"/>
<text text-anchor="start" x="170" y="-18.5" font-family="Helvetica,sans-Serif" font-size="10.00">Nx::CWindow2D::plat</text>
<text text-anchor="middle" x="217" y="-7.5" font-family="Helvetica,sans-Serif" font-size="10.00">_update_engine</text>
</a>
</g>
</g>
<!-- Node1&#45;&gt;Node2 -->
<g id="edge1" class="edge"><title>Node1&#45;&gt;Node2</title>
<path fill="none" stroke="midnightblue" d="M126.263,-15.5C134.656,-15.5 143.281,-15.5 151.708,-15.5"/>
<polygon fill="midnightblue" stroke="midnightblue" points="151.862,-19.0001 161.862,-15.5 151.862,-12.0001 151.862,-19.0001"/>
</g>
<!-- Node3 -->
<g id="node3" class="node"><title>Node3</title>
<g id="a_node3"><a xlink:href="../../df/d92/standard_8cpp.html#a5fc8fd1788f18ada61dfda9f171c5a1a" target="_top" xlink:title=" ">
<polygon fill="white" stroke="black" points="308,-6 308,-25 346,-25 346,-6 308,-6"/>
<text text-anchor="middle" x="327" y="-13" font-family="Helvetica,sans-Serif" font-size="10.00">printf</text>
</a>
</g>
</g>
<!-- Node2&#45;&gt;Node3 -->
<g id="edge2" class="edge"><title>Node2&#45;&gt;Node3</title>
<path fill="none" stroke="midnightblue" d="M272.316,-15.5C281.128,-15.5 289.928,-15.5 297.779,-15.5"/>
<polygon fill="midnightblue" stroke="midnightblue" points="297.807,-19.0001 307.807,-15.5 297.807,-12.0001 297.807,-19.0001"/>
</g>
</g>
</svg>
