<?xml version="1.0" encoding="UTF-8" standalone="no"?>
<!DOCTYPE svg PUBLIC "-//W3C//DTD SVG 1.1//EN"
 "http://www.w3.org/Graphics/SVG/1.1/DTD/svg11.dtd">
<!-- Generated by graphviz version 2.38.0 (20140413.2041)
 -->
<!-- Title: Script::CStruct::AddLocalString Pages: 1 -->
<!--zoomable 370 -->
<svg id="main" version="1.1" xmlns="http://www.w3.org/2000/svg" xmlns:xlink="http://www.w3.org/1999/xlink" xml:space="preserve" onload="init(evt)">
<style type="text/css"><![CDATA[
.edge:hover path { stroke: red; }
.edge:hover polygon { stroke: red; fill: red; }
]]></style>
<script type="text/javascript"><![CDATA[
var edges = document.getElementsByTagName('g');
if (edges && edges.length) {
  for (var i=0;i<edges.length;i++) {
    if (edges[i].id.substr(0,4)=='edge') {
      edges[i].setAttribute('class','edge');
    }
  }
}
]]></script>
        <defs>
                <circle id="rim" cx="0" cy="0" r="7"/>
                <circle id="rim2" cx="0" cy="0" r="3.5"/>
                <g id="zoomPlus">
                        <use xlink:href="#rim" fill="#404040">
                                <set attributeName="fill" to="#808080" begin="zoomplus.mouseover" end="zoomplus.mouseout"/>
                        </use>
                        <path d="M-4,0h8M0,-4v8" fill="none" stroke="white" stroke-width="1.5" pointer-events="none"/>
                </g>
                <g id="zoomMin">
                        <use xlink:href="#rim" fill="#404040">
                                <set attributeName="fill" to="#808080" begin="zoomminus.mouseover" end="zoomminus.mouseout"/>
                        </use>
                        <path d="M-4,0h8" fill="none" stroke="white" stroke-width="1.5" pointer-events="none"/>
                </g>
                <g id="dirArrow">
                        <path fill="none" stroke="white" stroke-width="1.5" d="M0,-3.0v7 M-2.5,-0.5L0,-3.0L2.5,-0.5"/>
                </g>
               <g id="resetDef">
                       <use xlink:href="#rim2" fill="#404040">
                               <set attributeName="fill" to="#808080" begin="reset.mouseover" end="reset.mouseout"/>
                       </use>
               </g>
        </defs>

<script type="text/javascript">
var viewWidth = 1210;
var viewHeight = 370;
var sectionId = 'dynsection-30';
</script>
<script xlink:href="../../svgpan.js"/>
<svg id="graph" class="graph">
<g id="viewport">
<title>Script::CStruct::AddLocalString</title>
<polygon fill="white" stroke="none" points="-4,4 -4,-366 1206,-366 1206,4 -4,4"/>
<!-- Node1 -->
<g id="node1" class="node"><title>Node1</title>
<g id="a_node1"><a xlink:title=" ">
<polygon fill="#bfbfbf" stroke="black" points="0,-125 0,-155 128,-155 128,-125 0,-125"/>
<text text-anchor="start" x="8" y="-143" font-family="Helvetica,sans-Serif" font-size="10.00">Script::CStruct::AddLocal</text>
<text text-anchor="middle" x="64" y="-132" font-family="Helvetica,sans-Serif" font-size="10.00">String</text>
</a>
</g>
</g>
<!-- Node2 -->
<g id="node2" class="node"><title>Node2</title>
<g id="a_node2"><a xlink:href="../../d2/df7/class_script_1_1_c_struct.html#a069786f1d244e9daf85bb8cb3d215e9c" target="_top" xlink:title=" ">
<polygon fill="white" stroke="black" points="173,-147 173,-177 301,-177 301,-147 173,-147"/>
<text text-anchor="start" x="181" y="-165" font-family="Helvetica,sans-Serif" font-size="10.00">Script::CStruct::AddLocal</text>
<text text-anchor="middle" x="237" y="-154" font-family="Helvetica,sans-Serif" font-size="10.00">String</text>
</a>
</g>
</g>
<!-- Node1&#45;&gt;Node2 -->
<g id="edge1" class="edge"><title>Node1&#45;&gt;Node2</title>
<path fill="none" stroke="midnightblue" d="M128.188,-148.129C139.447,-149.578 151.26,-151.098 162.77,-152.579"/>
<polygon fill="midnightblue" stroke="midnightblue" points="162.421,-156.062 172.786,-153.867 163.315,-149.12 162.421,-156.062"/>
</g>
<!-- Node24 -->
<g id="node24" class="node"><title>Node24</title>
<g id="a_node24"><a xlink:href="../../d3/d9b/namespace_crc.html#aed1b5ad21f682b39b09782ec29f5c5cc" target="_top" xlink:title=" ">
<polygon fill="white" stroke="black" points="164,-108.5 164,-127.5 310,-127.5 310,-108.5 164,-108.5"/>
<text text-anchor="middle" x="237" y="-115.5" font-family="Helvetica,sans-Serif" font-size="10.00">Crc::GenerateCRCFromString</text>
</a>
</g>
</g>
<!-- Node1&#45;&gt;Node24 -->
<g id="edge27" class="edge"><title>Node1&#45;&gt;Node24</title>
<path fill="none" stroke="midnightblue" d="M128.188,-131.871C136.531,-130.797 145.178,-129.685 153.781,-128.578"/>
<polygon fill="midnightblue" stroke="midnightblue" points="154.367,-132.031 163.839,-127.284 153.474,-125.089 154.367,-132.031"/>
</g>
<!-- Node3 -->
<g id="node3" class="node"><title>Node3</title>
<g id="a_node3"><a xlink:href="../../d2/df7/class_script_1_1_c_struct.html#a3872f7f0a9ebcc695745aabeefab2796" target="_top" xlink:title=" ">
<polygon fill="white" stroke="black" points="346,-228.5 346,-247.5 500,-247.5 500,-228.5 346,-228.5"/>
<text text-anchor="middle" x="423" y="-235.5" font-family="Helvetica,sans-Serif" font-size="10.00">Script::CStruct::AddComponent</text>
</a>
</g>
</g>
<!-- Node2&#45;&gt;Node3 -->
<g id="edge2" class="edge"><title>Node2&#45;&gt;Node3</title>
<path fill="none" stroke="midnightblue" d="M274.352,-177.015C307.857,-190.854 357.134,-211.208 389.394,-224.532"/>
<polygon fill="midnightblue" stroke="midnightblue" points="388.244,-227.844 398.823,-228.427 390.917,-221.374 388.244,-227.844"/>
</g>
<!-- Node17 -->
<g id="node17" class="node"><title>Node17</title>
<g id="a_node17"><a xlink:href="../../d1/d54/namespace_script.html#a0bd06d53a8bc5c49aa4561a3ccbbd13a" target="_top" xlink:title=" ">
<polygon fill="white" stroke="black" points="372,-95.5 372,-114.5 474,-114.5 474,-95.5 372,-95.5"/>
<text text-anchor="middle" x="423" y="-102.5" font-family="Helvetica,sans-Serif" font-size="10.00">Script::CreateString</text>
</a>
</g>
</g>
<!-- Node2&#45;&gt;Node17 -->
<g id="edge20" class="edge"><title>Node2&#45;&gt;Node17</title>
<path fill="none" stroke="midnightblue" d="M286.826,-146.875C316.315,-137.739 353.459,-126.233 381.344,-117.594"/>
<polygon fill="midnightblue" stroke="midnightblue" points="382.651,-120.854 391.168,-114.551 380.58,-114.167 382.651,-120.854"/>
</g>
<!-- Node4 -->
<g id="node4" class="node"><title>Node4</title>
<g id="a_node4"><a xlink:href="../../d1/d54/namespace_script.html#a1dd030523ebaecb95103d181f6fd382e" target="_top" xlink:title=" ">
<polygon fill="white" stroke="black" points="549.5,-228.5 549.5,-247.5 683.5,-247.5 683.5,-228.5 549.5,-228.5"/>
<text text-anchor="middle" x="616.5" y="-235.5" font-family="Helvetica,sans-Serif" font-size="10.00">Script::CleanUpComponent</text>
</a>
</g>
</g>
<!-- Node3&#45;&gt;Node4 -->
<g id="edge3" class="edge"><title>Node3&#45;&gt;Node4</title>
<path fill="none" stroke="midnightblue" d="M500.236,-238C513.075,-238 526.403,-238 539.243,-238"/>
<polygon fill="midnightblue" stroke="midnightblue" points="539.416,-241.5 549.416,-238 539.416,-234.5 539.416,-241.5"/>
</g>
<!-- Node13 -->
<g id="node13" class="node"><title>Node13</title>
<g id="a_node13"><a xlink:href="../../d1/d54/namespace_script.html#ae80ed69ea4edcbcbbbd4985a6efdcd6e" target="_top" xlink:title=" ">
<polygon fill="white" stroke="black" points="547,-304.5 547,-323.5 686,-323.5 686,-304.5 547,-304.5"/>
<text text-anchor="middle" x="616.5" y="-311.5" font-family="Helvetica,sans-Serif" font-size="10.00">Script::FindChecksumName</text>
</a>
</g>
</g>
<!-- Node3&#45;&gt;Node13 -->
<g id="edge16" class="edge"><title>Node3&#45;&gt;Node13</title>
<path fill="none" stroke="midnightblue" d="M448.254,-247.625C482.068,-261.045 543.521,-285.434 581.779,-300.617"/>
<polygon fill="midnightblue" stroke="midnightblue" points="580.857,-304.017 591.443,-304.453 583.44,-297.511 580.857,-304.017"/>
</g>
<!-- Node5 -->
<g id="node5" class="node"><title>Node5</title>
<g id="a_node5"><a xlink:href="../../d1/d54/namespace_script.html#a3dd60f29ada8a33fda9f4e842f1cabc1" target="_top" xlink:title=" ">
<polygon fill="white" stroke="black" points="760.5,-171.5 760.5,-190.5 868.5,-190.5 868.5,-171.5 760.5,-171.5"/>
<text text-anchor="middle" x="814.5" y="-178.5" font-family="Helvetica,sans-Serif" font-size="10.00">Script::CleanUpArray</text>
</a>
</g>
</g>
<!-- Node4&#45;&gt;Node5 -->
<g id="edge4" class="edge"><title>Node4&#45;&gt;Node5</title>
<path fill="none" stroke="midnightblue" d="M650.306,-228.459C683.377,-218.842 734.576,-203.952 770.796,-193.419"/>
<polygon fill="midnightblue" stroke="midnightblue" points="771.962,-196.725 780.587,-190.572 770.007,-190.003 771.962,-196.725"/>
</g>
<!-- Node7 -->
<g id="node7" class="node"><title>Node7</title>
<g id="a_node7"><a xlink:href="../../db/dc4/namespace_mem.html#aeedb606ea94a3398fdcfa3101c5ea8d9" target="_top" xlink:title=" ">
<polygon fill="white" stroke="black" points="1115,-228.5 1115,-247.5 1179,-247.5 1179,-228.5 1115,-228.5"/>
<text text-anchor="middle" x="1147" y="-235.5" font-family="Helvetica,sans-Serif" font-size="10.00">Mem::Free</text>
</a>
</g>
</g>
<!-- Node4&#45;&gt;Node7 -->
<g id="edge15" class="edge"><title>Node4&#45;&gt;Node7</title>
<path fill="none" stroke="midnightblue" d="M683.663,-247.121C699.777,-249.038 716.985,-250.831 733,-252 876.192,-262.453 913.203,-271.909 1056,-257 1072,-255.329 1089.35,-252.031 1104.5,-248.645"/>
<polygon fill="midnightblue" stroke="midnightblue" points="1105.65,-251.972 1114.6,-246.305 1104.07,-245.153 1105.65,-251.972"/>
</g>
<!-- Node9 -->
<g id="node9" class="node"><title>Node9</title>
<g id="a_node9"><a xlink:href="../../d1/d54/namespace_script.html#a99857fb30343d0c999af4db73344cece" target="_top" xlink:title=" ">
<polygon fill="white" stroke="black" points="943.5,-228.5 943.5,-247.5 1044.5,-247.5 1044.5,-228.5 943.5,-228.5"/>
<text text-anchor="middle" x="994" y="-235.5" font-family="Helvetica,sans-Serif" font-size="10.00">Script::DeleteString</text>
</a>
</g>
</g>
<!-- Node4&#45;&gt;Node9 -->
<g id="edge14" class="edge"><title>Node4&#45;&gt;Node9</title>
<path fill="none" stroke="midnightblue" d="M683.767,-238C754.36,-238 865.108,-238 933.146,-238"/>
<polygon fill="midnightblue" stroke="midnightblue" points="933.275,-241.5 943.275,-238 933.275,-234.5 933.275,-241.5"/>
</g>
<!-- Node6 -->
<g id="node6" class="node"><title>Node6</title>
<g id="a_node6"><a xlink:href="../../d0/d0b/class_script_1_1_c_array.html#a4b347b8b448dd652473dd6afe9aba2c2" target="_top" xlink:title=" ">
<polygon fill="white" stroke="black" points="940.5,-152.5 940.5,-171.5 1047.5,-171.5 1047.5,-152.5 940.5,-152.5"/>
<text text-anchor="middle" x="994" y="-159.5" font-family="Helvetica,sans-Serif" font-size="10.00">Script::CArray::Clear</text>
</a>
</g>
</g>
<!-- Node5&#45;&gt;Node6 -->
<g id="edge5" class="edge"><title>Node5&#45;&gt;Node6</title>
<path fill="none" stroke="midnightblue" d="M868.756,-175.299C888.149,-173.223 910.25,-170.858 930.381,-168.703"/>
<polygon fill="midnightblue" stroke="midnightblue" points="930.823,-172.176 940.393,-167.631 930.078,-165.215 930.823,-172.176"/>
</g>
<!-- Node8 -->
<g id="node8" class="node"><title>Node8</title>
<g id="a_node8"><a xlink:href="../../d1/d54/namespace_script.html#af32f99ba26ca0f255240413a4e23a754" target="_top" xlink:title=" ">
<polygon fill="white" stroke="black" points="1092,-133.5 1092,-152.5 1202,-152.5 1202,-133.5 1092,-133.5"/>
<text text-anchor="middle" x="1147" y="-140.5" font-family="Helvetica,sans-Serif" font-size="10.00">Script::GetTypeName</text>
</a>
</g>
</g>
<!-- Node5&#45;&gt;Node8 -->
<g id="edge13" class="edge"><title>Node5&#45;&gt;Node8</title>
<path fill="none" stroke="midnightblue" d="M865.049,-171.395C875.421,-168.806 886.185,-165.68 896,-162 912.94,-155.649 914.439,-147.35 932,-143 981.245,-130.802 1038.84,-131.617 1081.87,-135.033"/>
<polygon fill="midnightblue" stroke="midnightblue" points="1081.66,-138.528 1091.93,-135.9 1082.26,-131.554 1081.66,-138.528"/>
</g>
<!-- Node5&#45;&gt;Node9 -->
<g id="edge8" class="edge"><title>Node5&#45;&gt;Node9</title>
<path fill="none" stroke="midnightblue" d="M844.671,-190.634C868.214,-198.381 902.204,-209.501 932,-219 938.532,-221.083 945.467,-223.267 952.228,-225.383"/>
<polygon fill="midnightblue" stroke="midnightblue" points="951.354,-228.777 961.943,-228.414 953.439,-222.095 951.354,-228.777"/>
</g>
<!-- Node10 -->
<g id="node10" class="node"><title>Node10</title>
<g id="a_node10"><a xlink:href="../../d0/d0b/class_script_1_1_c_array.html#a600fcbd0b8fd9d1df2ee87d77494db7a" target="_top" xlink:title=" ">
<polygon fill="white" stroke="black" points="932.5,-65 932.5,-95 1055.5,-95 1055.5,-65 932.5,-65"/>
<text text-anchor="start" x="940.5" y="-83" font-family="Helvetica,sans-Serif" font-size="10.00">Script::CArray::GetArray</text>
<text text-anchor="middle" x="994" y="-72" font-family="Helvetica,sans-Serif" font-size="10.00">Pointer</text>
</a>
</g>
</g>
<!-- Node5&#45;&gt;Node10 -->
<g id="edge10" class="edge"><title>Node5&#45;&gt;Node10</title>
<path fill="none" stroke="midnightblue" d="M868.505,-174.333C878.193,-171.536 887.814,-167.582 896,-162 919.223,-146.163 910.704,-128.347 932,-110 936.191,-106.389 940.893,-103.095 945.777,-100.122"/>
<polygon fill="midnightblue" stroke="midnightblue" points="947.686,-103.064 954.696,-95.1198 944.262,-96.9591 947.686,-103.064"/>
</g>
<!-- Node11 -->
<g id="node11" class="node"><title>Node11</title>
<g id="a_node11"><a xlink:href="../../d0/d0b/class_script_1_1_c_array.html#a71c761bdce14193b10bf3c88372ba5a0" target="_top" xlink:title=" ">
<polygon fill="white" stroke="black" points="934.5,-26.5 934.5,-45.5 1053.5,-45.5 1053.5,-26.5 934.5,-26.5"/>
<text text-anchor="middle" x="994" y="-33.5" font-family="Helvetica,sans-Serif" font-size="10.00">Script::CArray::GetSize</text>
</a>
</g>
</g>
<!-- Node5&#45;&gt;Node11 -->
<g id="edge11" class="edge"><title>Node5&#45;&gt;Node11</title>
<path fill="none" stroke="midnightblue" d="M868.635,-176.456C878.647,-173.514 888.358,-168.964 896,-162 933.086,-128.204 896.122,-90.0759 932,-55 933.487,-53.5461 935.084,-52.2032 936.766,-50.963"/>
<polygon fill="midnightblue" stroke="midnightblue" points="938.988,-53.7122 945.776,-45.5772 935.396,-47.7038 938.988,-53.7122"/>
</g>
<!-- Node12 -->
<g id="node12" class="node"><title>Node12</title>
<g id="a_node12"><a xlink:href="../../d0/d0b/class_script_1_1_c_array.html#a68067b67ca9aae7b9214c0add1d8934e" target="_top" xlink:title=" ">
<polygon fill="white" stroke="black" points="933.5,-190.5 933.5,-209.5 1054.5,-209.5 1054.5,-190.5 933.5,-190.5"/>
<text text-anchor="middle" x="994" y="-197.5" font-family="Helvetica,sans-Serif" font-size="10.00">Script::CArray::GetType</text>
</a>
</g>
</g>
<!-- Node5&#45;&gt;Node12 -->
<g id="edge12" class="edge"><title>Node5&#45;&gt;Node12</title>
<path fill="none" stroke="midnightblue" d="M868.756,-186.701C885.902,-188.536 905.164,-190.598 923.31,-192.54"/>
<polygon fill="midnightblue" stroke="midnightblue" points="922.941,-196.021 933.256,-193.605 923.686,-189.06 922.941,-196.021"/>
</g>
<!-- Node6&#45;&gt;Node7 -->
<g id="edge6" class="edge"><title>Node6&#45;&gt;Node7</title>
<path fill="none" stroke="midnightblue" d="M1031.07,-171.515C1039.42,-174.185 1048.15,-177.368 1056,-181 1080.87,-192.505 1107.1,-209.787 1124.79,-222.305"/>
<polygon fill="midnightblue" stroke="midnightblue" points="1123.04,-225.361 1133.2,-228.361 1127.13,-219.679 1123.04,-225.361"/>
</g>
<!-- Node6&#45;&gt;Node8 -->
<g id="edge7" class="edge"><title>Node6&#45;&gt;Node8</title>
<path fill="none" stroke="midnightblue" d="M1047.81,-155.355C1058.75,-153.978 1070.39,-152.514 1081.69,-151.092"/>
<polygon fill="midnightblue" stroke="midnightblue" points="1082.45,-154.524 1091.94,-149.802 1081.58,-147.578 1082.45,-154.524"/>
</g>
<!-- Node9&#45;&gt;Node7 -->
<g id="edge9" class="edge"><title>Node9&#45;&gt;Node7</title>
<path fill="none" stroke="midnightblue" d="M1044.86,-238C1064.2,-238 1086.08,-238 1104.53,-238"/>
<polygon fill="midnightblue" stroke="midnightblue" points="1104.67,-241.5 1114.67,-238 1104.67,-234.5 1104.67,-241.5"/>
</g>
<!-- Node14 -->
<g id="node14" class="node"><title>Node14</title>
<g id="a_node14"><a xlink:href="../../d1/d54/namespace_script.html#a5cc52c4ff5ea5bb27681d819212dfdca" target="_top" xlink:title=" ">
<polygon fill="white" stroke="black" points="733,-342.5 733,-361.5 896,-361.5 896,-342.5 733,-342.5"/>
<text text-anchor="middle" x="814.5" y="-349.5" font-family="Helvetica,sans-Serif" font-size="10.00">Script::FindChecksumNameNULL</text>
</a>
</g>
</g>
<!-- Node13&#45;&gt;Node14 -->
<g id="edge17" class="edge"><title>Node13&#45;&gt;Node14</title>
<path fill="none" stroke="midnightblue" d="M666.706,-323.54C693.267,-328.69 726.249,-335.084 754.218,-340.506"/>
<polygon fill="midnightblue" stroke="midnightblue" points="753.79,-343.989 764.274,-342.456 755.123,-337.117 753.79,-343.989"/>
</g>
<!-- Node16 -->
<g id="node16" class="node"><title>Node16</title>
<g id="a_node16"><a xlink:href="../../da/d37/namespace_dbg.html#ab406a8cc16de5046c7d9fd09c9de5e22" target="_top" xlink:title=" ">
<polygon fill="white" stroke="black" points="781.5,-304.5 781.5,-323.5 847.5,-323.5 847.5,-304.5 781.5,-304.5"/>
<text text-anchor="middle" x="814.5" y="-311.5" font-family="Helvetica,sans-Serif" font-size="10.00">Dbg::sprintf</text>
</a>
</g>
</g>
<!-- Node13&#45;&gt;Node16 -->
<g id="edge19" class="edge"><title>Node13&#45;&gt;Node16</title>
<path fill="none" stroke="midnightblue" d="M686.051,-314C714.353,-314 746.267,-314 771.08,-314"/>
<polygon fill="midnightblue" stroke="midnightblue" points="771.248,-317.5 781.248,-314 771.248,-310.5 771.248,-317.5"/>
</g>
<!-- Node15 -->
<g id="node15" class="node"><title>Node15</title>
<g id="a_node15"><a xlink:href="../../d0/d31/namespace_config.html#a709cc81780d49900157e3476b63aa25d" target="_top" xlink:title=" ">
<polygon fill="white" stroke="black" points="932,-342.5 932,-361.5 1056,-361.5 1056,-342.5 932,-342.5"/>
<text text-anchor="middle" x="994" y="-349.5" font-family="Helvetica,sans-Serif" font-size="10.00">Config::GotExtraMemory</text>
</a>
</g>
</g>
<!-- Node14&#45;&gt;Node15 -->
<g id="edge18" class="edge"><title>Node14&#45;&gt;Node15</title>
<path fill="none" stroke="midnightblue" d="M896.2,-352C904.729,-352 913.358,-352 921.768,-352"/>
<polygon fill="midnightblue" stroke="midnightblue" points="921.898,-355.5 931.898,-352 921.898,-348.5 921.898,-355.5"/>
</g>
<!-- Node18 -->
<g id="node18" class="node"><title>Node18</title>
<g id="a_node18"><a xlink:href="../../db/dc4/namespace_mem.html#a10246603d03405159c82320b96e3efbf" target="_top" xlink:title=" ">
<polygon fill="white" stroke="black" points="580,-76.5 580,-95.5 653,-95.5 653,-76.5 580,-76.5"/>
<text text-anchor="middle" x="616.5" y="-83.5" font-family="Helvetica,sans-Serif" font-size="10.00">Mem::Malloc</text>
</a>
</g>
</g>
<!-- Node17&#45;&gt;Node18 -->
<g id="edge21" class="edge"><title>Node17&#45;&gt;Node18</title>
<path fill="none" stroke="midnightblue" d="M474.314,-100.008C503.825,-97.0801 540.83,-93.4085 569.552,-90.5588"/>
<polygon fill="midnightblue" stroke="midnightblue" points="570.124,-94.0193 579.73,-89.549 569.433,-87.0535 570.124,-94.0193"/>
</g>
<!-- Node19 -->
<g id="node19" class="node"><title>Node19</title>
<g id="a_node19"><a xlink:href="../../d2/d0a/class_mem_1_1_manager.html#a7c4cba14870f002aee0243e16114f443" target="_top" xlink:title=" ">
<polygon fill="white" stroke="black" points="547,-38.5 547,-57.5 686,-57.5 686,-38.5 547,-38.5"/>
<text text-anchor="middle" x="616.5" y="-45.5" font-family="Helvetica,sans-Serif" font-size="10.00">Mem::Manager::PopContext</text>
</a>
</g>
</g>
<!-- Node17&#45;&gt;Node19 -->
<g id="edge22" class="edge"><title>Node17&#45;&gt;Node19</title>
<path fill="none" stroke="midnightblue" d="M450.034,-95.403C472.596,-87.2702 506.21,-75.5936 536,-67 544.52,-64.5423 553.617,-62.1525 562.501,-59.9438"/>
<polygon fill="midnightblue" stroke="midnightblue" points="563.513,-63.2999 572.4,-57.533 561.856,-56.4987 563.513,-63.2999"/>
</g>
<!-- Node20 -->
<g id="node20" class="node"><title>Node20</title>
<g id="a_node20"><a xlink:href="../../d2/d0a/class_mem_1_1_manager.html#aaf8e36abc36eecabe46bf2582035192a" target="_top" xlink:title=" ">
<polygon fill="white" stroke="black" points="544.5,-0.5 544.5,-19.5 688.5,-19.5 688.5,-0.5 544.5,-0.5"/>
<text text-anchor="middle" x="616.5" y="-7.5" font-family="Helvetica,sans-Serif" font-size="10.00">Mem::Manager::PushContext</text>
</a>
</g>
</g>
<!-- Node17&#45;&gt;Node20 -->
<g id="edge23" class="edge"><title>Node17&#45;&gt;Node20</title>
<path fill="none" stroke="midnightblue" d="M435.261,-95.2775C454.565,-79.1116 495.795,-46.733 536,-29 541.709,-26.482 547.802,-24.2685 553.979,-22.3292"/>
<polygon fill="midnightblue" stroke="midnightblue" points="555.084,-25.6529 563.711,-19.5029 553.132,-18.9306 555.084,-25.6529"/>
</g>
<!-- Node21 -->
<g id="node21" class="node"><title>Node21</title>
<g id="a_node21"><a xlink:href="../../d1/d54/namespace_script.html#a095cc885af5d5c378020ceb75f2d587f" target="_top" xlink:title=" ">
<polygon fill="white" stroke="black" points="536,-152.5 536,-171.5 697,-171.5 697,-152.5 536,-152.5"/>
<text text-anchor="middle" x="616.5" y="-159.5" font-family="Helvetica,sans-Serif" font-size="10.00">Script::sAddToSpecialStringHeap</text>
</a>
</g>
</g>
<!-- Node17&#45;&gt;Node21 -->
<g id="edge24" class="edge"><title>Node17&#45;&gt;Node21</title>
<path fill="none" stroke="midnightblue" d="M450.034,-114.597C472.596,-122.73 506.21,-134.406 536,-143 544.52,-145.458 553.617,-147.848 562.501,-150.056"/>
<polygon fill="midnightblue" stroke="midnightblue" points="561.856,-153.501 572.4,-152.467 563.513,-146.7 561.856,-153.501"/>
</g>
<!-- Node23 -->
<g id="node23" class="node"><title>Node23</title>
<g id="a_node23"><a xlink:href="../../d2/d0a/class_mem_1_1_manager.html#a3aefd91781b7f41d35e6df6a32d379d0" target="_top" xlink:title=" ">
<polygon fill="white" stroke="black" points="555,-114.5 555,-133.5 678,-133.5 678,-114.5 555,-114.5"/>
<text text-anchor="middle" x="616.5" y="-121.5" font-family="Helvetica,sans-Serif" font-size="10.00">Mem::Manager::sHandle</text>
</a>
</g>
</g>
<!-- Node17&#45;&gt;Node23 -->
<g id="edge26" class="edge"><title>Node17&#45;&gt;Node23</title>
<path fill="none" stroke="midnightblue" d="M474.314,-109.992C495.841,-112.128 521.356,-114.659 544.735,-116.979"/>
<polygon fill="midnightblue" stroke="midnightblue" points="544.657,-120.488 554.953,-117.993 545.348,-113.522 544.657,-120.488"/>
</g>
<!-- Node22 -->
<g id="node22" class="node"><title>Node22</title>
<g id="a_node22"><a xlink:href="../../d3/d9b/namespace_crc.html#a60ea952dd05dcbab6d54f8f922f35872" target="_top" xlink:title=" ">
<polygon fill="white" stroke="black" points="735,-133.5 735,-152.5 894,-152.5 894,-133.5 735,-133.5"/>
<text text-anchor="middle" x="814.5" y="-140.5" font-family="Helvetica,sans-Serif" font-size="10.00">Crc::GenerateCRCCaseSensitive</text>
</a>
</g>
</g>
<!-- Node21&#45;&gt;Node22 -->
<g id="edge25" class="edge"><title>Node21&#45;&gt;Node22</title>
<path fill="none" stroke="midnightblue" d="M697.221,-154.272C706.23,-153.399 715.453,-152.505 724.571,-151.621"/>
<polygon fill="midnightblue" stroke="midnightblue" points="725.187,-155.077 734.803,-150.629 724.512,-148.11 725.187,-155.077"/>
</g>
</g>
</svg>
        <g id="navigator" transform="translate(0 0)" fill="#404254">
                <rect fill="#f2f5e9" fill-opacity="0.5" stroke="#606060" stroke-width=".5" x="0" y="0" width="60" height="60"/>
                <use id="zoomplus" xlink:href="#zoomPlus" x="17" y="9" onmousedown="handleZoom(evt,'in')"/>
                <use id="zoomminus" xlink:href="#zoomMin" x="42" y="9" onmousedown="handleZoom(evt,'out')"/>
                <use id="reset" xlink:href="#resetDef" x="30" y="36" onmousedown="handleReset()"/>
                <g id="arrowUp" xlink:href="#dirArrow" transform="translate(30 24)" onmousedown="handlePan(0,-1)">
                  <use xlink:href="#rim" fill="#404040">
                        <set attributeName="fill" to="#808080" begin="arrowUp.mouseover" end="arrowUp.mouseout"/>
                  </use>
                  <path fill="none" stroke="white" stroke-width="1.5" d="M0,-3.0v7 M-2.5,-0.5L0,-3.0L2.5,-0.5"/>
                </g>
                <g id="arrowRight" xlink:href="#dirArrow" transform="rotate(90) translate(36 -43)" onmousedown="handlePan(1,0)">
                  <use xlink:href="#rim" fill="#404040">
                        <set attributeName="fill" to="#808080" begin="arrowRight.mouseover" end="arrowRight.mouseout"/>
                  </use>
                  <path fill="none" stroke="white" stroke-width="1.5" d="M0,-3.0v7 M-2.5,-0.5L0,-3.0L2.5,-0.5"/>
                </g>
                <g id="arrowDown" xlink:href="#dirArrow" transform="rotate(180) translate(-30 -48)" onmousedown="handlePan(0,1)">
                  <use xlink:href="#rim" fill="#404040">
                        <set attributeName="fill" to="#808080" begin="arrowDown.mouseover" end="arrowDown.mouseout"/>
                  </use>
                  <path fill="none" stroke="white" stroke-width="1.5" d="M0,-3.0v7 M-2.5,-0.5L0,-3.0L2.5,-0.5"/>
                </g>
                <g id="arrowLeft" xlink:href="#dirArrow" transform="rotate(270) translate(-36 17)" onmousedown="handlePan(-1,0)">
                  <use xlink:href="#rim" fill="#404040">
                        <set attributeName="fill" to="#808080" begin="arrowLeft.mouseover" end="arrowLeft.mouseout"/>
                  </use>
                  <path fill="none" stroke="white" stroke-width="1.5" d="M0,-3.0v7 M-2.5,-0.5L0,-3.0L2.5,-0.5"/>
                </g>
        </g>
        <svg viewBox="0 0 15 15" width="100%" height="30px" preserveAspectRatio="xMaxYMin meet">
         <g id="arrow_out" transform="scale(0.3 0.3)">
          <a xlink:href="class_script_1_1_c_struct_a95ce1f7ab1697e0043f3b4e768402c7e_cgraph_org.svg" target="_base">
           <rect id="button" ry="5" rx="5" y="6" x="6" height="38" width="38"
                fill="#f2f5e9" fill-opacity="0.5" stroke="#606060" stroke-width="1.0"/>
           <path id="arrow"
             d="M 11.500037,31.436501 C 11.940474,20.09759 22.043105,11.32322 32.158766,21.979434 L 37.068811,17.246167 C 37.068811,17.246167 37.088388,32 37.088388,32 L 22.160133,31.978069 C 22.160133,31.978069 26.997745,27.140456 26.997745,27.140456 C 18.528582,18.264221 13.291696,25.230495 11.500037,31.436501 z"
             style="fill:#404040;"/>
          </a>
         </g>
        </svg>
</svg>
