<?xml version="1.0" encoding="UTF-8" standalone="no"?>
<!DOCTYPE svg PUBLIC "-//W3C//DTD SVG 1.1//EN"
 "http://www.w3.org/Graphics/SVG/1.1/DTD/svg11.dtd">
<!-- Generated by graphviz version 2.38.0 (20140413.2041)
 -->
<!-- Title: Script::CStruct::GetChecksumOrStringChecksum Pages: 1 -->
<!--zoomable 193 -->
<svg id="main" version="1.1" xmlns="http://www.w3.org/2000/svg" xmlns:xlink="http://www.w3.org/1999/xlink" xml:space="preserve" onload="init(evt)">
<style type="text/css"><![CDATA[
.edge:hover path { stroke: red; }
.edge:hover polygon { stroke: red; fill: red; }
]]></style>
<script type="text/javascript"><![CDATA[
var edges = document.getElementsByTagName('g');
if (edges && edges.length) {
  for (var i=0;i<edges.length;i++) {
    if (edges[i].id.substr(0,4)=='edge') {
      edges[i].setAttribute('class','edge');
    }
  }
}
]]></script>
        <defs>
                <circle id="rim" cx="0" cy="0" r="7"/>
                <circle id="rim2" cx="0" cy="0" r="3.5"/>
                <g id="zoomPlus">
                        <use xlink:href="#rim" fill="#404040">
                                <set attributeName="fill" to="#808080" begin="zoomplus.mouseover" end="zoomplus.mouseout"/>
                        </use>
                        <path d="M-4,0h8M0,-4v8" fill="none" stroke="white" stroke-width="1.5" pointer-events="none"/>
                </g>
                <g id="zoomMin">
                        <use xlink:href="#rim" fill="#404040">
                                <set attributeName="fill" to="#808080" begin="zoomminus.mouseover" end="zoomminus.mouseout"/>
                        </use>
                        <path d="M-4,0h8" fill="none" stroke="white" stroke-width="1.5" pointer-events="none"/>
                </g>
                <g id="dirArrow">
                        <path fill="none" stroke="white" stroke-width="1.5" d="M0,-3.0v7 M-2.5,-0.5L0,-3.0L2.5,-0.5"/>
                </g>
               <g id="resetDef">
                       <use xlink:href="#rim2" fill="#404040">
                               <set attributeName="fill" to="#808080" begin="reset.mouseover" end="reset.mouseout"/>
                       </use>
               </g>
        </defs>

<script type="text/javascript">
var viewWidth = 1375;
var viewHeight = 193;
var sectionId = 'dynsection-100';
</script>
<script xlink:href="../../svgpan.js"/>
<svg id="graph" class="graph">
<g id="viewport">
<title>Script::CStruct::GetChecksumOrStringChecksum</title>
<polygon fill="white" stroke="none" points="-4,4 -4,-189.447 1371,-189.447 1371,4 -4,4"/>
<!-- Node1 -->
<g id="node1" class="node"><title>Node1</title>
<g id="a_node1"><a xlink:title=" ">
<polygon fill="#bfbfbf" stroke="black" points="0,-131.447 0,-161.447 149,-161.447 149,-131.447 0,-131.447"/>
<text text-anchor="start" x="8" y="-149.447" font-family="Helvetica,sans-Serif" font-size="10.00">Script::CStruct::GetChecksum</text>
<text text-anchor="middle" x="74.5" y="-138.447" font-family="Helvetica,sans-Serif" font-size="10.00">OrStringChecksum</text>
</a>
</g>
</g>
<!-- Node2 -->
<g id="node2" class="node"><title>Node2</title>
<g id="a_node2"><a xlink:href="../../d3/d9b/namespace_crc.html#aed1b5ad21f682b39b09782ec29f5c5cc" target="_top" xlink:title=" ">
<polygon fill="white" stroke="black" points="371.5,-164.947 371.5,-183.947 517.5,-183.947 517.5,-164.947 371.5,-164.947"/>
<text text-anchor="middle" x="444.5" y="-171.947" font-family="Helvetica,sans-Serif" font-size="10.00">Crc::GenerateCRCFromString</text>
</a>
</g>
</g>
<!-- Node1&#45;&gt;Node2 -->
<g id="edge1" class="edge"><title>Node1&#45;&gt;Node2</title>
<path fill="none" stroke="midnightblue" d="M149.086,-152.046C210.408,-156.712 297.694,-163.353 361.299,-168.193"/>
<polygon fill="midnightblue" stroke="midnightblue" points="361.059,-171.685 371.296,-168.953 361.59,-164.705 361.059,-171.685"/>
</g>
<!-- Node3 -->
<g id="node3" class="node"><title>Node3</title>
<g id="a_node3"><a xlink:href="../../d2/df7/class_script_1_1_c_struct.html#af2a967ca4e030ae59846913ecb8a3d96" target="_top" xlink:title=" ">
<polygon fill="white" stroke="black" points="185,-106.447 185,-136.447 334,-136.447 334,-106.447 185,-106.447"/>
<text text-anchor="start" x="193" y="-124.447" font-family="Helvetica,sans-Serif" font-size="10.00">Script::CStruct::GetChecksum</text>
<text text-anchor="middle" x="259.5" y="-113.447" font-family="Helvetica,sans-Serif" font-size="10.00">OrStringChecksum</text>
</a>
</g>
</g>
<!-- Node1&#45;&gt;Node3 -->
<g id="edge2" class="edge"><title>Node1&#45;&gt;Node3</title>
<path fill="none" stroke="midnightblue" d="M149.142,-136.387C157.565,-135.236 166.199,-134.057 174.742,-132.89"/>
<polygon fill="midnightblue" stroke="midnightblue" points="175.277,-136.349 184.711,-131.528 174.329,-129.414 175.277,-136.349"/>
</g>
<!-- Node3&#45;&gt;Node2 -->
<g id="edge3" class="edge"><title>Node3&#45;&gt;Node2</title>
<path fill="none" stroke="midnightblue" d="M307.243,-136.504C326.602,-142.598 349.321,-149.568 370,-155.447 378.201,-157.779 386.95,-160.145 395.447,-162.38"/>
<polygon fill="midnightblue" stroke="midnightblue" points="394.699,-165.802 405.258,-164.933 396.462,-159.027 394.699,-165.802"/>
</g>
<!-- Node4 -->
<g id="node4" class="node"><title>Node4</title>
<g id="a_node4"><a xlink:href="../../d2/df7/class_script_1_1_c_struct.html#aa39e6fe5fdf1d6c48136ae26a7ad511e" target="_top" xlink:title=" ">
<polygon fill="white" stroke="black" points="370,-108.947 370,-127.947 519,-127.947 519,-108.947 370,-108.947"/>
<text text-anchor="middle" x="444.5" y="-115.947" font-family="Helvetica,sans-Serif" font-size="10.00">Script::CStruct::GetChecksum</text>
</a>
</g>
</g>
<!-- Node3&#45;&gt;Node4 -->
<g id="edge4" class="edge"><title>Node3&#45;&gt;Node4</title>
<path fill="none" stroke="midnightblue" d="M334.142,-120.24C342.474,-120.103 351.011,-119.963 359.463,-119.825"/>
<polygon fill="midnightblue" stroke="midnightblue" points="359.769,-123.32 369.711,-119.657 359.655,-116.321 359.769,-123.32"/>
</g>
<!-- Node12 -->
<g id="node12" class="node"><title>Node12</title>
<g id="a_node12"><a xlink:href="../../d2/df7/class_script_1_1_c_struct.html#a42a803452add452cf735c191a1816b14" target="_top" xlink:title=" ">
<polygon fill="white" stroke="black" points="380.5,-51.9472 380.5,-70.9472 508.5,-70.9472 508.5,-51.9472 380.5,-51.9472"/>
<text text-anchor="middle" x="444.5" y="-58.9472" font-family="Helvetica,sans-Serif" font-size="10.00">Script::CStruct::GetString</text>
</a>
</g>
</g>
<!-- Node3&#45;&gt;Node12 -->
<g id="edge14" class="edge"><title>Node3&#45;&gt;Node12</title>
<path fill="none" stroke="midnightblue" d="M306.679,-106.307C336.988,-96.3692 376.173,-83.5216 404.835,-74.1241"/>
<polygon fill="midnightblue" stroke="midnightblue" points="406.091,-77.3957 414.503,-70.9544 403.91,-70.7441 406.091,-77.3957"/>
</g>
<!-- Node4&#45;&gt;Node4 -->
<g id="edge9" class="edge"><title>Node4&#45;&gt;Node4</title>
<path fill="none" stroke="midnightblue" d="M417.373,-128.204C404.177,-137.012 413.219,-146.447 444.5,-146.447 466.006,-146.447 477,-141.988 477.483,-136.338"/>
<polygon fill="midnightblue" stroke="midnightblue" points="480.31,-134.275 471.627,-128.204 474.629,-138.365 480.31,-134.275"/>
</g>
<!-- Node5 -->
<g id="node5" class="node"><title>Node5</title>
<g id="a_node5"><a xlink:href="../../d1/d54/namespace_script.html#ae80ed69ea4edcbcbbbd4985a6efdcd6e" target="_top" xlink:title=" ">
<polygon fill="white" stroke="black" points="869,-103.947 869,-122.947 1008,-122.947 1008,-103.947 869,-103.947"/>
<text text-anchor="middle" x="938.5" y="-110.947" font-family="Helvetica,sans-Serif" font-size="10.00">Script::FindChecksumName</text>
</a>
</g>
</g>
<!-- Node4&#45;&gt;Node5 -->
<g id="edge5" class="edge"><title>Node4&#45;&gt;Node5</title>
<path fill="none" stroke="midnightblue" d="M519.222,-118.828C567.049,-118.981 630.716,-119.009 687,-118.447 744.46,-117.874 809.322,-116.561 858.647,-115.424"/>
<polygon fill="midnightblue" stroke="midnightblue" points="859.013,-118.917 868.928,-115.185 858.849,-111.919 859.013,-118.917"/>
</g>
<!-- Node9 -->
<g id="node9" class="node"><title>Node9</title>
<g id="a_node9"><a xlink:href="../../d1/d54/namespace_script.html#a0d003ee93577e31adb6597bce0002009" target="_top" xlink:title=" ">
<polygon fill="white" stroke="black" points="567.5,-89.9472 567.5,-108.947 674.5,-108.947 674.5,-89.9472 567.5,-89.9472"/>
<text text-anchor="middle" x="621" y="-96.9472" font-family="Helvetica,sans-Serif" font-size="10.00">Script::PrintContents</text>
</a>
</g>
</g>
<!-- Node4&#45;&gt;Node9 -->
<g id="edge10" class="edge"><title>Node4&#45;&gt;Node9</title>
<path fill="none" stroke="midnightblue" d="M519.251,-110.417C531.895,-109.04 544.928,-107.621 557.25,-106.28"/>
<polygon fill="midnightblue" stroke="midnightblue" points="557.848,-109.735 567.41,-105.173 557.09,-102.776 557.848,-109.735"/>
</g>
<!-- Node10 -->
<g id="node10" class="node"><title>Node10</title>
<g id="a_node10"><a xlink:href="../../d1/d54/namespace_script.html#a43181580ea5d38e4bf1aa19ccd5e9e85" target="_top" xlink:title=" ">
<polygon fill="white" stroke="black" points="737,-165.947 737,-184.947 819,-184.947 819,-165.947 737,-165.947"/>
<text text-anchor="middle" x="778" y="-172.947" font-family="Helvetica,sans-Serif" font-size="10.00">Script::Resolve</text>
</a>
</g>
</g>
<!-- Node4&#45;&gt;Node10 -->
<g id="edge11" class="edge"><title>Node4&#45;&gt;Node10</title>
<path fill="none" stroke="midnightblue" d="M472.146,-127.991C494.103,-135.487 526.202,-145.603 555,-151.447 613.333,-163.284 681.551,-169.556 726.814,-172.679"/>
<polygon fill="midnightblue" stroke="midnightblue" points="726.747,-176.183 736.957,-173.353 727.211,-169.198 726.747,-176.183"/>
</g>
<!-- Node6 -->
<g id="node6" class="node"><title>Node6</title>
<g id="a_node6"><a xlink:href="../../d1/d54/namespace_script.html#a5cc52c4ff5ea5bb27681d819212dfdca" target="_top" xlink:title=" ">
<polygon fill="white" stroke="black" points="1044,-122.947 1044,-141.947 1207,-141.947 1207,-122.947 1044,-122.947"/>
<text text-anchor="middle" x="1125.5" y="-129.947" font-family="Helvetica,sans-Serif" font-size="10.00">Script::FindChecksumNameNULL</text>
</a>
</g>
</g>
<!-- Node5&#45;&gt;Node6 -->
<g id="edge6" class="edge"><title>Node5&#45;&gt;Node6</title>
<path fill="none" stroke="midnightblue" d="M1008.12,-120.495C1016.48,-121.353 1025.11,-122.239 1033.72,-123.124"/>
<polygon fill="midnightblue" stroke="midnightblue" points="1033.49,-126.619 1043.8,-124.159 1034.21,-119.655 1033.49,-126.619"/>
</g>
<!-- Node8 -->
<g id="node8" class="node"><title>Node8</title>
<g id="a_node8"><a xlink:href="../../da/d37/namespace_dbg.html#ab406a8cc16de5046c7d9fd09c9de5e22" target="_top" xlink:title=" ">
<polygon fill="white" stroke="black" points="1092.5,-84.9472 1092.5,-103.947 1158.5,-103.947 1158.5,-84.9472 1092.5,-84.9472"/>
<text text-anchor="middle" x="1125.5" y="-91.9472" font-family="Helvetica,sans-Serif" font-size="10.00">Dbg::sprintf</text>
</a>
</g>
</g>
<!-- Node5&#45;&gt;Node8 -->
<g id="edge8" class="edge"><title>Node5&#45;&gt;Node8</title>
<path fill="none" stroke="midnightblue" d="M1008.12,-106.399C1032.98,-103.847 1060.31,-101.04 1082.23,-98.7886"/>
<polygon fill="midnightblue" stroke="midnightblue" points="1082.62,-102.267 1092.21,-97.7639 1081.9,-95.3039 1082.62,-102.267"/>
</g>
<!-- Node7 -->
<g id="node7" class="node"><title>Node7</title>
<g id="a_node7"><a xlink:href="../../d0/d31/namespace_config.html#a709cc81780d49900157e3476b63aa25d" target="_top" xlink:title=" ">
<polygon fill="white" stroke="black" points="1243,-122.947 1243,-141.947 1367,-141.947 1367,-122.947 1243,-122.947"/>
<text text-anchor="middle" x="1305" y="-129.947" font-family="Helvetica,sans-Serif" font-size="10.00">Config::GotExtraMemory</text>
</a>
</g>
</g>
<!-- Node6&#45;&gt;Node7 -->
<g id="edge7" class="edge"><title>Node6&#45;&gt;Node7</title>
<path fill="none" stroke="midnightblue" d="M1207.2,-132.447C1215.73,-132.447 1224.36,-132.447 1232.77,-132.447"/>
<polygon fill="midnightblue" stroke="midnightblue" points="1232.9,-135.947 1242.9,-132.447 1232.9,-128.947 1232.9,-135.947"/>
</g>
<!-- Node10&#45;&gt;Node5 -->
<g id="edge12" class="edge"><title>Node10&#45;&gt;Node5</title>
<path fill="none" stroke="midnightblue" d="M803.418,-165.896C830.178,-155.428 873.298,-138.561 903.391,-126.79"/>
<polygon fill="midnightblue" stroke="midnightblue" points="905.016,-129.912 913.054,-123.01 902.466,-123.393 905.016,-129.912"/>
</g>
<!-- Node11 -->
<g id="node11" class="node"><title>Node11</title>
<g id="a_node11"><a xlink:href="../../d1/d54/namespace_script.html#af293a36c230b10de7d8151c2990b233b" target="_top" xlink:title=" ">
<polygon fill="white" stroke="black" points="881.5,-165.947 881.5,-184.947 995.5,-184.947 995.5,-165.947 881.5,-165.947"/>
<text text-anchor="middle" x="938.5" y="-172.947" font-family="Helvetica,sans-Serif" font-size="10.00">Script::LookUpSymbol</text>
</a>
</g>
</g>
<!-- Node10&#45;&gt;Node11 -->
<g id="edge13" class="edge"><title>Node10&#45;&gt;Node11</title>
<path fill="none" stroke="midnightblue" d="M819.406,-175.447C835.124,-175.447 853.549,-175.447 871.11,-175.447"/>
<polygon fill="midnightblue" stroke="midnightblue" points="871.322,-178.947 881.322,-175.447 871.322,-171.947 871.322,-178.947"/>
</g>
<!-- Node12&#45;&gt;Node5 -->
<g id="edge15" class="edge"><title>Node12&#45;&gt;Node5</title>
<path fill="none" stroke="midnightblue" d="M466.781,-51.9372C488.466,-42.8062 523.319,-29.655 555,-24.4472 676.919,-4.40557 717.051,18.2368 833,-24.4472 871.695,-38.6921 905.822,-74.3399 923.879,-95.9503"/>
<polygon fill="midnightblue" stroke="midnightblue" points="921.174,-98.1716 930.193,-103.731 926.61,-93.7608 921.174,-98.1716"/>
</g>
<!-- Node12&#45;&gt;Node9 -->
<g id="edge16" class="edge"><title>Node12&#45;&gt;Node9</title>
<path fill="none" stroke="midnightblue" d="M489.534,-71.0362C512.872,-76.1185 541.73,-82.4026 566.366,-87.7675"/>
<polygon fill="midnightblue" stroke="midnightblue" points="565.767,-91.2191 576.283,-89.9271 567.257,-84.3794 565.767,-91.2191"/>
</g>
<!-- Node13 -->
<g id="node13" class="node"><title>Node13</title>
<g id="a_node13"><a xlink:href="../../d2/df7/class_script_1_1_c_struct.html#a1e05f0a66cff4a700fb67fdc117d2d7f" target="_top" xlink:title=" ">
<polygon fill="white" stroke="black" points="555,-33.9472 555,-52.9472 687,-52.9472 687,-33.9472 555,-33.9472"/>
<text text-anchor="middle" x="621" y="-40.9472" font-family="Helvetica,sans-Serif" font-size="10.00">Script::CStruct::search_for</text>
</a>
</g>
</g>
<!-- Node12&#45;&gt;Node13 -->
<g id="edge17" class="edge"><title>Node12&#45;&gt;Node13</title>
<path fill="none" stroke="midnightblue" d="M508.992,-54.8979C520.524,-53.7083 532.655,-52.457 544.492,-51.2359"/>
<polygon fill="midnightblue" stroke="midnightblue" points="545.209,-54.6807 554.797,-50.173 544.49,-47.7177 545.209,-54.6807"/>
</g>
<!-- Node13&#45;&gt;Node5 -->
<g id="edge18" class="edge"><title>Node13&#45;&gt;Node5</title>
<path fill="none" stroke="midnightblue" d="M664.878,-52.9606C721.935,-65.6197 822.78,-87.9943 884.528,-101.694"/>
<polygon fill="midnightblue" stroke="midnightblue" points="883.942,-105.149 894.463,-103.899 885.458,-98.3155 883.942,-105.149"/>
</g>
<!-- Node13&#45;&gt;Node10 -->
<g id="edge20" class="edge"><title>Node13&#45;&gt;Node10</title>
<path fill="none" stroke="midnightblue" d="M642.296,-53.0325C655.627,-59.7895 673.103,-69.5509 687,-80.4472 717.193,-104.121 746.716,-137.901 763.314,-158.152"/>
<polygon fill="midnightblue" stroke="midnightblue" points="760.594,-160.355 769.6,-165.934 766.039,-155.956 760.594,-160.355"/>
</g>
<!-- Node13&#45;&gt;Node13 -->
<g id="edge21" class="edge"><title>Node13&#45;&gt;Node13</title>
<path fill="none" stroke="midnightblue" d="M596.956,-53.2042C585.259,-62.0125 593.273,-71.4472 621,-71.4472 639.196,-71.4472 648.902,-67.384 650.119,-62.1011"/>
<polygon fill="midnightblue" stroke="midnightblue" points="653.039,-60.1563 645.044,-53.2042 646.959,-63.6247 653.039,-60.1563"/>
</g>
<!-- Node14 -->
<g id="node14" class="node"><title>Node14</title>
<g id="a_node14"><a xlink:href="../../d1/d54/namespace_script.html#af32f99ba26ca0f255240413a4e23a754" target="_top" xlink:title=" ">
<polygon fill="white" stroke="black" points="723,-33.9472 723,-52.9472 833,-52.9472 833,-33.9472 723,-33.9472"/>
<text text-anchor="middle" x="778" y="-40.9472" font-family="Helvetica,sans-Serif" font-size="10.00">Script::GetTypeName</text>
</a>
</g>
</g>
<!-- Node13&#45;&gt;Node14 -->
<g id="edge19" class="edge"><title>Node13&#45;&gt;Node14</title>
<path fill="none" stroke="midnightblue" d="M687.285,-43.4472C695.637,-43.4472 704.184,-43.4472 712.523,-43.4472"/>
<polygon fill="midnightblue" stroke="midnightblue" points="712.566,-46.9473 722.566,-43.4472 712.566,-39.9473 712.566,-46.9473"/>
</g>
</g>
</svg>
        <g id="navigator" transform="translate(0 0)" fill="#404254">
                <rect fill="#f2f5e9" fill-opacity="0.5" stroke="#606060" stroke-width=".5" x="0" y="0" width="60" height="60"/>
                <use id="zoomplus" xlink:href="#zoomPlus" x="17" y="9" onmousedown="handleZoom(evt,'in')"/>
                <use id="zoomminus" xlink:href="#zoomMin" x="42" y="9" onmousedown="handleZoom(evt,'out')"/>
                <use id="reset" xlink:href="#resetDef" x="30" y="36" onmousedown="handleReset()"/>
                <g id="arrowUp" xlink:href="#dirArrow" transform="translate(30 24)" onmousedown="handlePan(0,-1)">
                  <use xlink:href="#rim" fill="#404040">
                        <set attributeName="fill" to="#808080" begin="arrowUp.mouseover" end="arrowUp.mouseout"/>
                  </use>
                  <path fill="none" stroke="white" stroke-width="1.5" d="M0,-3.0v7 M-2.5,-0.5L0,-3.0L2.5,-0.5"/>
                </g>
                <g id="arrowRight" xlink:href="#dirArrow" transform="rotate(90) translate(36 -43)" onmousedown="handlePan(1,0)">
                  <use xlink:href="#rim" fill="#404040">
                        <set attributeName="fill" to="#808080" begin="arrowRight.mouseover" end="arrowRight.mouseout"/>
                  </use>
                  <path fill="none" stroke="white" stroke-width="1.5" d="M0,-3.0v7 M-2.5,-0.5L0,-3.0L2.5,-0.5"/>
                </g>
                <g id="arrowDown" xlink:href="#dirArrow" transform="rotate(180) translate(-30 -48)" onmousedown="handlePan(0,1)">
                  <use xlink:href="#rim" fill="#404040">
                        <set attributeName="fill" to="#808080" begin="arrowDown.mouseover" end="arrowDown.mouseout"/>
                  </use>
                  <path fill="none" stroke="white" stroke-width="1.5" d="M0,-3.0v7 M-2.5,-0.5L0,-3.0L2.5,-0.5"/>
                </g>
                <g id="arrowLeft" xlink:href="#dirArrow" transform="rotate(270) translate(-36 17)" onmousedown="handlePan(-1,0)">
                  <use xlink:href="#rim" fill="#404040">
                        <set attributeName="fill" to="#808080" begin="arrowLeft.mouseover" end="arrowLeft.mouseout"/>
                  </use>
                  <path fill="none" stroke="white" stroke-width="1.5" d="M0,-3.0v7 M-2.5,-0.5L0,-3.0L2.5,-0.5"/>
                </g>
        </g>
        <svg viewBox="0 0 15 15" width="100%" height="30px" preserveAspectRatio="xMaxYMin meet">
         <g id="arrow_out" transform="scale(0.3 0.3)">
          <a xlink:href="class_script_1_1_c_struct_a20b4150957cb8b9e0f087bd435760af9_cgraph_org.svg" target="_base">
           <rect id="button" ry="5" rx="5" y="6" x="6" height="38" width="38"
                fill="#f2f5e9" fill-opacity="0.5" stroke="#606060" stroke-width="1.0"/>
           <path id="arrow"
             d="M 11.500037,31.436501 C 11.940474,20.09759 22.043105,11.32322 32.158766,21.979434 L 37.068811,17.246167 C 37.068811,17.246167 37.088388,32 37.088388,32 L 22.160133,31.978069 C 22.160133,31.978069 26.997745,27.140456 26.997745,27.140456 C 18.528582,18.264221 13.291696,25.230495 11.500037,31.436501 z"
             style="fill:#404040;"/>
          </a>
         </g>
        </svg>
</svg>
