<?xml version="1.0" encoding="UTF-8" standalone="no"?>
<!DOCTYPE svg PUBLIC "-//W3C//DTD SVG 1.1//EN"
 "http://www.w3.org/Graphics/SVG/1.1/DTD/svg11.dtd">
<!-- Generated by graphviz version 2.38.0 (20140413.2041)
 -->
<!-- Title: Script::CStruct::GetPair Pages: 1 -->
<svg width="1132pt" height="126pt"
 viewBox="0.00 0.00 1132.00 125.88" xmlns="http://www.w3.org/2000/svg" xmlns:xlink="http://www.w3.org/1999/xlink">
<g id="graph0" class="graph" transform="scale(1 1) rotate(0) translate(4 121.876)">
<title>Script::CStruct::GetPair</title>
<polygon fill="white" stroke="none" points="-4,4 -4,-121.876 1128,-121.876 1128,4 -4,4"/>
<!-- Node1 -->
<g id="node1" class="node"><title>Node1</title>
<g id="a_node1"><a xlink:title=" ">
<polygon fill="#bfbfbf" stroke="black" points="0,-85.5 0,-104.5 120,-104.5 120,-85.5 0,-85.5"/>
<text text-anchor="middle" x="60" y="-92.5" font-family="Helvetica,sans-Serif" font-size="10.00">Script::CStruct::GetPair</text>
</a>
</g>
</g>
<!-- Node2 -->
<g id="node2" class="node"><title>Node2</title>
<g id="a_node2"><a xlink:href="../../d2/df7/class_script_1_1_c_struct.html#a72c2f2084bde06653913a8f1ea930f54" target="_top" xlink:title=" ">
<polygon fill="white" stroke="black" points="156,-85.5 156,-104.5 276,-104.5 276,-85.5 156,-85.5"/>
<text text-anchor="middle" x="216" y="-92.5" font-family="Helvetica,sans-Serif" font-size="10.00">Script::CStruct::GetPair</text>
</a>
</g>
</g>
<!-- Node1&#45;&gt;Node2 -->
<g id="edge1" class="edge"><title>Node1&#45;&gt;Node2</title>
<path fill="none" stroke="midnightblue" d="M120.1,-95C128.422,-95 137.039,-95 145.533,-95"/>
<polygon fill="midnightblue" stroke="midnightblue" points="145.804,-98.5001 155.804,-95 145.804,-91.5001 145.804,-98.5001"/>
</g>
<!-- Node3 -->
<g id="node3" class="node"><title>Node3</title>
<g id="a_node3"><a xlink:href="../../d1/d54/namespace_script.html#ae80ed69ea4edcbcbbbd4985a6efdcd6e" target="_top" xlink:title=" ">
<polygon fill="white" stroke="black" points="626,-76.5 626,-95.5 765,-95.5 765,-76.5 626,-76.5"/>
<text text-anchor="middle" x="695.5" y="-83.5" font-family="Helvetica,sans-Serif" font-size="10.00">Script::FindChecksumName</text>
</a>
</g>
</g>
<!-- Node2&#45;&gt;Node3 -->
<g id="edge2" class="edge"><title>Node2&#45;&gt;Node3</title>
<path fill="none" stroke="midnightblue" d="M255.565,-104.51C272.727,-108.275 293.254,-112.144 312,-114 424.486,-125.138 555.992,-109.191 631.824,-97.1827"/>
<polygon fill="midnightblue" stroke="midnightblue" points="632.832,-100.565 642.148,-95.5177 631.718,-93.6548 632.832,-100.565"/>
</g>
<!-- Node7 -->
<g id="node7" class="node"><title>Node7</title>
<g id="a_node7"><a xlink:href="../../d1/d54/namespace_script.html#a0d003ee93577e31adb6597bce0002009" target="_top" xlink:title=" ">
<polygon fill="white" stroke="black" points="324.5,-85.5 324.5,-104.5 431.5,-104.5 431.5,-85.5 324.5,-85.5"/>
<text text-anchor="middle" x="378" y="-92.5" font-family="Helvetica,sans-Serif" font-size="10.00">Script::PrintContents</text>
</a>
</g>
</g>
<!-- Node2&#45;&gt;Node7 -->
<g id="edge6" class="edge"><title>Node2&#45;&gt;Node7</title>
<path fill="none" stroke="midnightblue" d="M276.124,-95C288.503,-95 301.599,-95 314.11,-95"/>
<polygon fill="midnightblue" stroke="midnightblue" points="314.453,-98.5001 324.452,-95 314.452,-91.5001 314.453,-98.5001"/>
</g>
<!-- Node8 -->
<g id="node8" class="node"><title>Node8</title>
<g id="a_node8"><a xlink:href="../../d2/df7/class_script_1_1_c_struct.html#a1e05f0a66cff4a700fb67fdc117d2d7f" target="_top" xlink:title=" ">
<polygon fill="white" stroke="black" points="312,-29.5 312,-48.5 444,-48.5 444,-29.5 312,-29.5"/>
<text text-anchor="middle" x="378" y="-36.5" font-family="Helvetica,sans-Serif" font-size="10.00">Script::CStruct::search_for</text>
</a>
</g>
</g>
<!-- Node2&#45;&gt;Node8 -->
<g id="edge7" class="edge"><title>Node2&#45;&gt;Node8</title>
<path fill="none" stroke="midnightblue" d="M244.505,-85.3733C270.88,-76.1419 310.885,-62.1402 340.036,-51.9375"/>
<polygon fill="midnightblue" stroke="midnightblue" points="341.572,-55.1082 349.854,-48.5011 339.259,-48.5012 341.572,-55.1082"/>
</g>
<!-- Node4 -->
<g id="node4" class="node"><title>Node4</title>
<g id="a_node4"><a xlink:href="../../d1/d54/namespace_script.html#a5cc52c4ff5ea5bb27681d819212dfdca" target="_top" xlink:title=" ">
<polygon fill="white" stroke="black" points="801,-95.5 801,-114.5 964,-114.5 964,-95.5 801,-95.5"/>
<text text-anchor="middle" x="882.5" y="-102.5" font-family="Helvetica,sans-Serif" font-size="10.00">Script::FindChecksumNameNULL</text>
</a>
</g>
</g>
<!-- Node3&#45;&gt;Node4 -->
<g id="edge3" class="edge"><title>Node3&#45;&gt;Node4</title>
<path fill="none" stroke="midnightblue" d="M765.124,-93.0479C773.476,-93.9056 782.107,-94.792 790.717,-95.6764"/>
<polygon fill="midnightblue" stroke="midnightblue" points="790.493,-99.1717 800.798,-96.7117 791.208,-92.2083 790.493,-99.1717"/>
</g>
<!-- Node6 -->
<g id="node6" class="node"><title>Node6</title>
<g id="a_node6"><a xlink:href="../../da/d37/namespace_dbg.html#ab406a8cc16de5046c7d9fd09c9de5e22" target="_top" xlink:title=" ">
<polygon fill="white" stroke="black" points="849.5,-57.5 849.5,-76.5 915.5,-76.5 915.5,-57.5 849.5,-57.5"/>
<text text-anchor="middle" x="882.5" y="-64.5" font-family="Helvetica,sans-Serif" font-size="10.00">Dbg::sprintf</text>
</a>
</g>
</g>
<!-- Node3&#45;&gt;Node6 -->
<g id="edge5" class="edge"><title>Node3&#45;&gt;Node6</title>
<path fill="none" stroke="midnightblue" d="M765.124,-78.9521C789.98,-76.3993 817.305,-73.593 839.228,-71.3414"/>
<polygon fill="midnightblue" stroke="midnightblue" points="839.616,-74.8201 849.206,-70.3167 838.901,-67.8567 839.616,-74.8201"/>
</g>
<!-- Node5 -->
<g id="node5" class="node"><title>Node5</title>
<g id="a_node5"><a xlink:href="../../d0/d31/namespace_config.html#a709cc81780d49900157e3476b63aa25d" target="_top" xlink:title=" ">
<polygon fill="white" stroke="black" points="1000,-95.5 1000,-114.5 1124,-114.5 1124,-95.5 1000,-95.5"/>
<text text-anchor="middle" x="1062" y="-102.5" font-family="Helvetica,sans-Serif" font-size="10.00">Config::GotExtraMemory</text>
</a>
</g>
</g>
<!-- Node4&#45;&gt;Node5 -->
<g id="edge4" class="edge"><title>Node4&#45;&gt;Node5</title>
<path fill="none" stroke="midnightblue" d="M964.2,-105C972.729,-105 981.358,-105 989.768,-105"/>
<polygon fill="midnightblue" stroke="midnightblue" points="989.898,-108.5 999.898,-105 989.898,-101.5 989.898,-108.5"/>
</g>
<!-- Node8&#45;&gt;Node3 -->
<g id="edge8" class="edge"><title>Node8&#45;&gt;Node3</title>
<path fill="none" stroke="midnightblue" d="M407.846,-48.5069C427.873,-54.7331 455.292,-62.5195 480,-67 524.594,-75.0867 575.053,-79.7752 615.823,-82.4705"/>
<polygon fill="midnightblue" stroke="midnightblue" points="615.769,-85.974 625.971,-83.1137 616.212,-78.988 615.769,-85.974"/>
</g>
<!-- Node8&#45;&gt;Node8 -->
<g id="edge13" class="edge"><title>Node8&#45;&gt;Node8</title>
<path fill="none" stroke="midnightblue" d="M353.956,-48.7571C342.259,-57.5653 350.273,-67 378,-67 396.196,-67 405.902,-62.9368 407.119,-57.6539"/>
<polygon fill="midnightblue" stroke="midnightblue" points="410.039,-55.7091 402.044,-48.7571 403.959,-59.1775 410.039,-55.7091"/>
</g>
<!-- Node9 -->
<g id="node9" class="node"><title>Node9</title>
<g id="a_node9"><a xlink:href="../../d1/d54/namespace_script.html#af32f99ba26ca0f255240413a4e23a754" target="_top" xlink:title=" ">
<polygon fill="white" stroke="black" points="480,-38.5 480,-57.5 590,-57.5 590,-38.5 480,-38.5"/>
<text text-anchor="middle" x="535" y="-45.5" font-family="Helvetica,sans-Serif" font-size="10.00">Script::GetTypeName</text>
</a>
</g>
</g>
<!-- Node8&#45;&gt;Node9 -->
<g id="edge9" class="edge"><title>Node8&#45;&gt;Node9</title>
<path fill="none" stroke="midnightblue" d="M444.285,-42.7907C452.637,-43.2757 461.184,-43.772 469.523,-44.2562"/>
<polygon fill="midnightblue" stroke="midnightblue" points="469.38,-47.7536 479.566,-44.8393 469.785,-40.7654 469.38,-47.7536"/>
</g>
<!-- Node10 -->
<g id="node10" class="node"><title>Node10</title>
<g id="a_node10"><a xlink:href="../../d1/d54/namespace_script.html#a43181580ea5d38e4bf1aa19ccd5e9e85" target="_top" xlink:title=" ">
<polygon fill="white" stroke="black" points="494,-0.5 494,-19.5 576,-19.5 576,-0.5 494,-0.5"/>
<text text-anchor="middle" x="535" y="-7.5" font-family="Helvetica,sans-Serif" font-size="10.00">Script::Resolve</text>
</a>
</g>
</g>
<!-- Node8&#45;&gt;Node10 -->
<g id="edge10" class="edge"><title>Node8&#45;&gt;Node10</title>
<path fill="none" stroke="midnightblue" d="M430.182,-29.4239C447.431,-26.1967 466.654,-22.6003 483.824,-19.3878"/>
<polygon fill="midnightblue" stroke="midnightblue" points="484.48,-22.8258 493.666,-17.5464 483.193,-15.9452 484.48,-22.8258"/>
</g>
<!-- Node10&#45;&gt;Node3 -->
<g id="edge11" class="edge"><title>Node10&#45;&gt;Node3</title>
<path fill="none" stroke="midnightblue" d="M565.764,-19.5083C573.737,-22.3156 582.283,-25.5644 590,-29 618.324,-41.609 649.339,-59.015 670.164,-71.2654"/>
<polygon fill="midnightblue" stroke="midnightblue" points="668.583,-74.3976 678.968,-76.4954 672.158,-68.3792 668.583,-74.3976"/>
</g>
<!-- Node11 -->
<g id="node11" class="node"><title>Node11</title>
<g id="a_node11"><a xlink:href="../../d1/d54/namespace_script.html#af293a36c230b10de7d8151c2990b233b" target="_top" xlink:title=" ">
<polygon fill="white" stroke="black" points="638.5,-0.5 638.5,-19.5 752.5,-19.5 752.5,-0.5 638.5,-0.5"/>
<text text-anchor="middle" x="695.5" y="-7.5" font-family="Helvetica,sans-Serif" font-size="10.00">Script::LookUpSymbol</text>
</a>
</g>
</g>
<!-- Node10&#45;&gt;Node11 -->
<g id="edge12" class="edge"><title>Node10&#45;&gt;Node11</title>
<path fill="none" stroke="midnightblue" d="M576.406,-10C592.124,-10 610.549,-10 628.11,-10"/>
<polygon fill="midnightblue" stroke="midnightblue" points="628.322,-13.5001 638.322,-10 628.322,-6.5001 628.322,-13.5001"/>
</g>
</g>
</svg>
