<?xml version="1.0" encoding="UTF-8" standalone="no"?>
<!DOCTYPE svg PUBLIC "-//W3C//DTD SVG 1.1//EN"
 "http://www.w3.org/Graphics/SVG/1.1/DTD/svg11.dtd">
<!-- Generated by graphviz version 2.38.0 (20140413.2041)
 -->
<!-- Title: Script::CStruct::AddInteger Pages: 1 -->
<svg width="1012pt" height="344pt"
 viewBox="0.00 0.00 1012.00 343.50" xmlns="http://www.w3.org/2000/svg" xmlns:xlink="http://www.w3.org/1999/xlink">
<g id="graph0" class="graph" transform="scale(1 1) rotate(0) translate(4 339.5)">
<title>Script::CStruct::AddInteger</title>
<polygon fill="white" stroke="none" points="-4,4 -4,-339.5 1008,-339.5 1008,4 -4,4"/>
<!-- Node1 -->
<g id="node1" class="node"><title>Node1</title>
<g id="a_node1"><a xlink:title=" ">
<polygon fill="#bfbfbf" stroke="black" points="0,-66.5 0,-85.5 134,-85.5 134,-66.5 0,-66.5"/>
<text text-anchor="middle" x="67" y="-73.5" font-family="Helvetica,sans-Serif" font-size="10.00">Script::CStruct::AddInteger</text>
</a>
</g>
</g>
<!-- Node2 -->
<g id="node2" class="node"><title>Node2</title>
<g id="a_node2"><a xlink:href="../../d2/df7/class_script_1_1_c_struct.html#a3872f7f0a9ebcc695745aabeefab2796" target="_top" xlink:title=" ">
<polygon fill="white" stroke="black" points="170,-66.5 170,-85.5 324,-85.5 324,-66.5 170,-66.5"/>
<text text-anchor="middle" x="247" y="-73.5" font-family="Helvetica,sans-Serif" font-size="10.00">Script::CStruct::AddComponent</text>
</a>
</g>
</g>
<!-- Node1&#45;&gt;Node2 -->
<g id="edge1" class="edge"><title>Node1&#45;&gt;Node2</title>
<path fill="none" stroke="midnightblue" d="M134.028,-76C142.419,-76 151.103,-76 159.752,-76"/>
<polygon fill="midnightblue" stroke="midnightblue" points="159.87,-79.5001 169.87,-76 159.87,-72.5001 159.87,-79.5001"/>
</g>
<!-- Node3 -->
<g id="node3" class="node"><title>Node3</title>
<g id="a_node3"><a xlink:href="../../d1/d54/namespace_script.html#a1dd030523ebaecb95103d181f6fd382e" target="_top" xlink:title=" ">
<polygon fill="white" stroke="black" points="362.5,-95.5 362.5,-114.5 496.5,-114.5 496.5,-95.5 362.5,-95.5"/>
<text text-anchor="middle" x="429.5" y="-102.5" font-family="Helvetica,sans-Serif" font-size="10.00">Script::CleanUpComponent</text>
</a>
</g>
</g>
<!-- Node2&#45;&gt;Node3 -->
<g id="edge2" class="edge"><title>Node2&#45;&gt;Node3</title>
<path fill="none" stroke="midnightblue" d="M307.352,-85.5359C323.93,-88.1993 342.089,-91.1168 359.187,-93.8639"/>
<polygon fill="midnightblue" stroke="midnightblue" points="358.683,-97.3277 369.112,-95.4584 359.794,-90.4163 358.683,-97.3277"/>
</g>
<!-- Node12 -->
<g id="node12" class="node"><title>Node12</title>
<g id="a_node12"><a xlink:href="../../d1/d54/namespace_script.html#ae80ed69ea4edcbcbbbd4985a6efdcd6e" target="_top" xlink:title=" ">
<polygon fill="white" stroke="black" points="360,-38.5 360,-57.5 499,-57.5 499,-38.5 360,-38.5"/>
<text text-anchor="middle" x="429.5" y="-45.5" font-family="Helvetica,sans-Serif" font-size="10.00">Script::FindChecksumName</text>
</a>
</g>
</g>
<!-- Node2&#45;&gt;Node12 -->
<g id="edge15" class="edge"><title>Node2&#45;&gt;Node12</title>
<path fill="none" stroke="midnightblue" d="M309.361,-66.4814C324.619,-64.1145 341.109,-61.5565 356.815,-59.1201"/>
<polygon fill="midnightblue" stroke="midnightblue" points="357.657,-62.5315 367.002,-57.5398 356.584,-55.6142 357.657,-62.5315"/>
</g>
<!-- Node4 -->
<g id="node4" class="node"><title>Node4</title>
<g id="a_node4"><a xlink:href="../../d1/d54/namespace_script.html#a3dd60f29ada8a33fda9f4e842f1cabc1" target="_top" xlink:title=" ">
<polygon fill="white" stroke="black" points="562.5,-190.5 562.5,-209.5 670.5,-209.5 670.5,-190.5 562.5,-190.5"/>
<text text-anchor="middle" x="616.5" y="-197.5" font-family="Helvetica,sans-Serif" font-size="10.00">Script::CleanUpArray</text>
</a>
</g>
</g>
<!-- Node3&#45;&gt;Node4 -->
<g id="edge3" class="edge"><title>Node3&#45;&gt;Node4</title>
<path fill="none" stroke="midnightblue" d="M449.257,-114.632C482.029,-131.461 549.848,-166.287 587.959,-185.857"/>
<polygon fill="midnightblue" stroke="midnightblue" points="586.474,-189.029 596.969,-190.484 589.672,-182.802 586.474,-189.029"/>
</g>
<!-- Node6 -->
<g id="node6" class="node"><title>Node6</title>
<g id="a_node6"><a xlink:href="../../db/dc4/namespace_mem.html#aeedb606ea94a3398fdcfa3101c5ea8d9" target="_top" xlink:title=" ">
<polygon fill="white" stroke="black" points="917,-114.5 917,-133.5 981,-133.5 981,-114.5 917,-114.5"/>
<text text-anchor="middle" x="949" y="-121.5" font-family="Helvetica,sans-Serif" font-size="10.00">Mem::Free</text>
</a>
</g>
</g>
<!-- Node3&#45;&gt;Node6 -->
<g id="edge14" class="edge"><title>Node3&#45;&gt;Node6</title>
<path fill="none" stroke="midnightblue" d="M496.633,-100.757C580.83,-96.3275 730.665,-91.7056 858,-105 874.002,-106.671 891.349,-109.969 906.503,-113.355"/>
<polygon fill="midnightblue" stroke="midnightblue" points="906.068,-116.847 916.6,-115.695 907.648,-110.028 906.068,-116.847"/>
</g>
<!-- Node8 -->
<g id="node8" class="node"><title>Node8</title>
<g id="a_node8"><a xlink:href="../../d1/d54/namespace_script.html#a99857fb30343d0c999af4db73344cece" target="_top" xlink:title=" ">
<polygon fill="white" stroke="black" points="745.5,-114.5 745.5,-133.5 846.5,-133.5 846.5,-114.5 745.5,-114.5"/>
<text text-anchor="middle" x="796" y="-121.5" font-family="Helvetica,sans-Serif" font-size="10.00">Script::DeleteString</text>
</a>
</g>
</g>
<!-- Node3&#45;&gt;Node8 -->
<g id="edge13" class="edge"><title>Node3&#45;&gt;Node8</title>
<path fill="none" stroke="midnightblue" d="M496.508,-108.441C564.471,-111.983 669.448,-117.455 735.088,-120.877"/>
<polygon fill="midnightblue" stroke="midnightblue" points="735.105,-124.383 745.274,-121.408 735.47,-117.392 735.105,-124.383"/>
</g>
<!-- Node5 -->
<g id="node5" class="node"><title>Node5</title>
<g id="a_node5"><a xlink:href="../../d0/d0b/class_script_1_1_c_array.html#a4b347b8b448dd652473dd6afe9aba2c2" target="_top" xlink:title=" ">
<polygon fill="white" stroke="black" points="742.5,-152.5 742.5,-171.5 849.5,-171.5 849.5,-152.5 742.5,-152.5"/>
<text text-anchor="middle" x="796" y="-159.5" font-family="Helvetica,sans-Serif" font-size="10.00">Script::CArray::Clear</text>
</a>
</g>
</g>
<!-- Node4&#45;&gt;Node5 -->
<g id="edge4" class="edge"><title>Node4&#45;&gt;Node5</title>
<path fill="none" stroke="midnightblue" d="M662.291,-190.411C686.03,-185.329 715.384,-179.045 740.444,-173.68"/>
<polygon fill="midnightblue" stroke="midnightblue" points="741.486,-177.036 750.531,-171.52 740.02,-170.191 741.486,-177.036"/>
</g>
<!-- Node7 -->
<g id="node7" class="node"><title>Node7</title>
<g id="a_node7"><a xlink:href="../../d1/d54/namespace_script.html#af32f99ba26ca0f255240413a4e23a754" target="_top" xlink:title=" ">
<polygon fill="white" stroke="black" points="894,-171.5 894,-190.5 1004,-190.5 1004,-171.5 894,-171.5"/>
<text text-anchor="middle" x="949" y="-178.5" font-family="Helvetica,sans-Serif" font-size="10.00">Script::GetTypeName</text>
</a>
</g>
</g>
<!-- Node4&#45;&gt;Node7 -->
<g id="edge12" class="edge"><title>Node4&#45;&gt;Node7</title>
<path fill="none" stroke="midnightblue" d="M670.601,-196.947C728.677,-193.609 821.746,-188.258 883.859,-184.687"/>
<polygon fill="midnightblue" stroke="midnightblue" points="884.151,-188.176 893.933,-184.108 883.749,-181.188 884.151,-188.176"/>
</g>
<!-- Node4&#45;&gt;Node8 -->
<g id="edge7" class="edge"><title>Node4&#45;&gt;Node8</title>
<path fill="none" stroke="midnightblue" d="M634.883,-190.449C657.325,-178.365 697.803,-157.394 734,-143 739.546,-140.794 745.457,-138.676 751.332,-136.707"/>
<polygon fill="midnightblue" stroke="midnightblue" points="752.68,-139.95 761.118,-133.543 750.526,-133.289 752.68,-139.95"/>
</g>
<!-- Node9 -->
<g id="node9" class="node"><title>Node9</title>
<g id="a_node9"><a xlink:href="../../d0/d0b/class_script_1_1_c_array.html#a600fcbd0b8fd9d1df2ee87d77494db7a" target="_top" xlink:title=" ">
<polygon fill="white" stroke="black" points="734.5,-305 734.5,-335 857.5,-335 857.5,-305 734.5,-305"/>
<text text-anchor="start" x="742.5" y="-323" font-family="Helvetica,sans-Serif" font-size="10.00">Script::CArray::GetArray</text>
<text text-anchor="middle" x="796" y="-312" font-family="Helvetica,sans-Serif" font-size="10.00">Pointer</text>
</a>
</g>
</g>
<!-- Node4&#45;&gt;Node9 -->
<g id="edge9" class="edge"><title>Node4&#45;&gt;Node9</title>
<path fill="none" stroke="midnightblue" d="M627.328,-209.751C646.477,-228.332 690.708,-269.254 734,-295 737.335,-296.984 740.857,-298.88 744.458,-300.678"/>
<polygon fill="midnightblue" stroke="midnightblue" points="742.97,-303.846 753.508,-304.938 745.951,-297.513 742.97,-303.846"/>
</g>
<!-- Node10 -->
<g id="node10" class="node"><title>Node10</title>
<g id="a_node10"><a xlink:href="../../d0/d0b/class_script_1_1_c_array.html#a71c761bdce14193b10bf3c88372ba5a0" target="_top" xlink:title=" ">
<polygon fill="white" stroke="black" points="736.5,-266.5 736.5,-285.5 855.5,-285.5 855.5,-266.5 736.5,-266.5"/>
<text text-anchor="middle" x="796" y="-273.5" font-family="Helvetica,sans-Serif" font-size="10.00">Script::CArray::GetSize</text>
</a>
</g>
</g>
<!-- Node4&#45;&gt;Node10 -->
<g id="edge10" class="edge"><title>Node4&#45;&gt;Node10</title>
<path fill="none" stroke="midnightblue" d="M634.883,-209.551C657.325,-221.635 697.803,-242.606 734,-257 739.546,-259.206 745.457,-261.324 751.332,-263.293"/>
<polygon fill="midnightblue" stroke="midnightblue" points="750.526,-266.711 761.118,-266.457 752.68,-260.05 750.526,-266.711"/>
</g>
<!-- Node11 -->
<g id="node11" class="node"><title>Node11</title>
<g id="a_node11"><a xlink:href="../../d0/d0b/class_script_1_1_c_array.html#a68067b67ca9aae7b9214c0add1d8934e" target="_top" xlink:title=" ">
<polygon fill="white" stroke="black" points="735.5,-228.5 735.5,-247.5 856.5,-247.5 856.5,-228.5 735.5,-228.5"/>
<text text-anchor="middle" x="796" y="-235.5" font-family="Helvetica,sans-Serif" font-size="10.00">Script::CArray::GetType</text>
</a>
</g>
</g>
<!-- Node4&#45;&gt;Node11 -->
<g id="edge11" class="edge"><title>Node4&#45;&gt;Node11</title>
<path fill="none" stroke="midnightblue" d="M662.291,-209.589C686.03,-214.671 715.384,-220.955 740.444,-226.32"/>
<polygon fill="midnightblue" stroke="midnightblue" points="740.02,-229.809 750.531,-228.48 741.486,-222.964 740.02,-229.809"/>
</g>
<!-- Node5&#45;&gt;Node6 -->
<g id="edge5" class="edge"><title>Node5&#45;&gt;Node6</title>
<path fill="none" stroke="midnightblue" d="M835.104,-152.411C856.924,-146.92 884.319,-140.026 906.659,-134.404"/>
<polygon fill="midnightblue" stroke="midnightblue" points="907.686,-137.755 916.529,-131.92 905.977,-130.966 907.686,-137.755"/>
</g>
<!-- Node5&#45;&gt;Node7 -->
<g id="edge6" class="edge"><title>Node5&#45;&gt;Node7</title>
<path fill="none" stroke="midnightblue" d="M849.812,-168.645C860.752,-170.022 872.391,-171.486 883.689,-172.908"/>
<polygon fill="midnightblue" stroke="midnightblue" points="883.58,-176.422 893.939,-174.198 884.454,-169.476 883.58,-176.422"/>
</g>
<!-- Node8&#45;&gt;Node6 -->
<g id="edge8" class="edge"><title>Node8&#45;&gt;Node6</title>
<path fill="none" stroke="midnightblue" d="M846.862,-124C866.197,-124 888.077,-124 906.529,-124"/>
<polygon fill="midnightblue" stroke="midnightblue" points="906.67,-127.5 916.67,-124 906.67,-120.5 906.67,-127.5"/>
</g>
<!-- Node13 -->
<g id="node13" class="node"><title>Node13</title>
<g id="a_node13"><a xlink:href="../../d1/d54/namespace_script.html#a5cc52c4ff5ea5bb27681d819212dfdca" target="_top" xlink:title=" ">
<polygon fill="white" stroke="black" points="535,-0.5 535,-19.5 698,-19.5 698,-0.5 535,-0.5"/>
<text text-anchor="middle" x="616.5" y="-7.5" font-family="Helvetica,sans-Serif" font-size="10.00">Script::FindChecksumNameNULL</text>
</a>
</g>
</g>
<!-- Node12&#45;&gt;Node13 -->
<g id="edge16" class="edge"><title>Node12&#45;&gt;Node13</title>
<path fill="none" stroke="midnightblue" d="M477.183,-38.411C502.146,-33.2835 533.064,-26.9328 559.334,-21.5368"/>
<polygon fill="midnightblue" stroke="midnightblue" points="560.061,-24.9606 569.152,-19.5201 558.653,-18.1038 560.061,-24.9606"/>
</g>
<!-- Node15 -->
<g id="node15" class="node"><title>Node15</title>
<g id="a_node15"><a xlink:href="../../da/d37/namespace_dbg.html#ab406a8cc16de5046c7d9fd09c9de5e22" target="_top" xlink:title=" ">
<polygon fill="white" stroke="black" points="583.5,-38.5 583.5,-57.5 649.5,-57.5 649.5,-38.5 583.5,-38.5"/>
<text text-anchor="middle" x="616.5" y="-45.5" font-family="Helvetica,sans-Serif" font-size="10.00">Dbg::sprintf</text>
</a>
</g>
</g>
<!-- Node12&#45;&gt;Node15 -->
<g id="edge18" class="edge"><title>Node12&#45;&gt;Node15</title>
<path fill="none" stroke="midnightblue" d="M499.124,-48C523.868,-48 551.058,-48 572.93,-48"/>
<polygon fill="midnightblue" stroke="midnightblue" points="573.206,-51.5001 583.206,-48 573.206,-44.5001 573.206,-51.5001"/>
</g>
<!-- Node14 -->
<g id="node14" class="node"><title>Node14</title>
<g id="a_node14"><a xlink:href="../../d0/d31/namespace_config.html#a709cc81780d49900157e3476b63aa25d" target="_top" xlink:title=" ">
<polygon fill="white" stroke="black" points="734,-0.5 734,-19.5 858,-19.5 858,-0.5 734,-0.5"/>
<text text-anchor="middle" x="796" y="-7.5" font-family="Helvetica,sans-Serif" font-size="10.00">Config::GotExtraMemory</text>
</a>
</g>
</g>
<!-- Node13&#45;&gt;Node14 -->
<g id="edge17" class="edge"><title>Node13&#45;&gt;Node14</title>
<path fill="none" stroke="midnightblue" d="M698.2,-10C706.729,-10 715.358,-10 723.768,-10"/>
<polygon fill="midnightblue" stroke="midnightblue" points="723.898,-13.5001 733.898,-10 723.898,-6.5001 723.898,-13.5001"/>
</g>
</g>
</svg>
