<?xml version="1.0" encoding="UTF-8" standalone="no"?>
<!DOCTYPE svg PUBLIC "-//W3C//DTD SVG 1.1//EN"
 "http://www.w3.org/Graphics/SVG/1.1/DTD/svg11.dtd">
<!-- Generated by graphviz version 2.38.0 (20140413.2041)
 -->
<!-- Title: Script::CStruct::AddScript Pages: 1 -->
<!--zoomable 429 -->
<svg id="main" version="1.1" xmlns="http://www.w3.org/2000/svg" xmlns:xlink="http://www.w3.org/1999/xlink" xml:space="preserve" onload="init(evt)">
<style type="text/css"><![CDATA[
.edge:hover path { stroke: red; }
.edge:hover polygon { stroke: red; fill: red; }
]]></style>
<script type="text/javascript"><![CDATA[
var edges = document.getElementsByTagName('g');
if (edges && edges.length) {
  for (var i=0;i<edges.length;i++) {
    if (edges[i].id.substr(0,4)=='edge') {
      edges[i].setAttribute('class','edge');
    }
  }
}
]]></script>
        <defs>
                <circle id="rim" cx="0" cy="0" r="7"/>
                <circle id="rim2" cx="0" cy="0" r="3.5"/>
                <g id="zoomPlus">
                        <use xlink:href="#rim" fill="#404040">
                                <set attributeName="fill" to="#808080" begin="zoomplus.mouseover" end="zoomplus.mouseout"/>
                        </use>
                        <path d="M-4,0h8M0,-4v8" fill="none" stroke="white" stroke-width="1.5" pointer-events="none"/>
                </g>
                <g id="zoomMin">
                        <use xlink:href="#rim" fill="#404040">
                                <set attributeName="fill" to="#808080" begin="zoomminus.mouseover" end="zoomminus.mouseout"/>
                        </use>
                        <path d="M-4,0h8" fill="none" stroke="white" stroke-width="1.5" pointer-events="none"/>
                </g>
                <g id="dirArrow">
                        <path fill="none" stroke="white" stroke-width="1.5" d="M0,-3.0v7 M-2.5,-0.5L0,-3.0L2.5,-0.5"/>
                </g>
               <g id="resetDef">
                       <use xlink:href="#rim2" fill="#404040">
                               <set attributeName="fill" to="#808080" begin="reset.mouseover" end="reset.mouseout"/>
                       </use>
               </g>
        </defs>

<script type="text/javascript">
var viewWidth = 1190;
var viewHeight = 429;
var sectionId = 'dynsection-62';
</script>
<script xlink:href="../../svgpan.js"/>
<svg id="graph" class="graph">
<g id="viewport">
<title>Script::CStruct::AddScript</title>
<polygon fill="white" stroke="none" points="-4,4 -4,-424.5 1186,-424.5 1186,4 -4,4"/>
<!-- Node1 -->
<g id="node1" class="node"><title>Node1</title>
<g id="a_node1"><a xlink:title=" ">
<polygon fill="#bfbfbf" stroke="black" points="0,-57.5 0,-76.5 130,-76.5 130,-57.5 0,-57.5"/>
<text text-anchor="middle" x="65" y="-64.5" font-family="Helvetica,sans-Serif" font-size="10.00">Script::CStruct::AddScript</text>
</a>
</g>
</g>
<!-- Node2 -->
<g id="node2" class="node"><title>Node2</title>
<g id="a_node2"><a xlink:href="../../d2/df7/class_script_1_1_c_struct.html#ac54c343b5dcdc5633c94172a4026a983" target="_top" xlink:title=" ">
<polygon fill="white" stroke="black" points="174,-76.5 174,-95.5 304,-95.5 304,-76.5 174,-76.5"/>
<text text-anchor="middle" x="239" y="-83.5" font-family="Helvetica,sans-Serif" font-size="10.00">Script::CStruct::AddScript</text>
</a>
</g>
</g>
<!-- Node1&#45;&gt;Node2 -->
<g id="edge1" class="edge"><title>Node1&#45;&gt;Node2</title>
<path fill="none" stroke="midnightblue" d="M130.046,-74.0749C141.015,-75.2866 152.495,-76.5547 163.704,-77.7929"/>
<polygon fill="midnightblue" stroke="midnightblue" points="163.576,-81.3 173.9,-78.9192 164.345,-74.3423 163.576,-81.3"/>
</g>
<!-- Node21 -->
<g id="node21" class="node"><title>Node21</title>
<g id="a_node21"><a xlink:href="../../d3/d9b/namespace_crc.html#aed1b5ad21f682b39b09782ec29f5c5cc" target="_top" xlink:title=" ">
<polygon fill="white" stroke="black" points="166,-38.5 166,-57.5 312,-57.5 312,-38.5 166,-38.5"/>
<text text-anchor="middle" x="239" y="-45.5" font-family="Helvetica,sans-Serif" font-size="10.00">Crc::GenerateCRCFromString</text>
</a>
</g>
</g>
<!-- Node1&#45;&gt;Node21 -->
<g id="edge24" class="edge"><title>Node1&#45;&gt;Node21</title>
<path fill="none" stroke="midnightblue" d="M130.046,-59.9251C138.422,-58.9999 147.095,-58.0419 155.717,-57.0893"/>
<polygon fill="midnightblue" stroke="midnightblue" points="156.241,-60.5529 165.796,-55.976 155.472,-53.5952 156.241,-60.5529"/>
</g>
<!-- Node3 -->
<g id="node3" class="node"><title>Node3</title>
<g id="a_node3"><a xlink:href="../../d2/df7/class_script_1_1_c_struct.html#a3872f7f0a9ebcc695745aabeefab2796" target="_top" xlink:title=" ">
<polygon fill="white" stroke="black" points="348,-152.5 348,-171.5 502,-171.5 502,-152.5 348,-152.5"/>
<text text-anchor="middle" x="425" y="-159.5" font-family="Helvetica,sans-Serif" font-size="10.00">Script::CStruct::AddComponent</text>
</a>
</g>
</g>
<!-- Node2&#45;&gt;Node3 -->
<g id="edge2" class="edge"><title>Node2&#45;&gt;Node3</title>
<path fill="none" stroke="midnightblue" d="M255.187,-95.5275C275.602,-107.977 313.346,-129.746 348,-143 354.401,-145.448 361.227,-147.669 368.062,-149.657"/>
<polygon fill="midnightblue" stroke="midnightblue" points="367.465,-153.122 378.035,-152.401 369.323,-146.373 367.465,-153.122"/>
</g>
<!-- Node17 -->
<g id="node17" class="node"><title>Node17</title>
<g id="a_node17"><a xlink:href="../../db/dc4/namespace_mem.html#a10246603d03405159c82320b96e3efbf" target="_top" xlink:title=" ">
<polygon fill="white" stroke="black" points="388.5,-114.5 388.5,-133.5 461.5,-133.5 461.5,-114.5 388.5,-114.5"/>
<text text-anchor="middle" x="425" y="-121.5" font-family="Helvetica,sans-Serif" font-size="10.00">Mem::Malloc</text>
</a>
</g>
</g>
<!-- Node2&#45;&gt;Node17 -->
<g id="edge20" class="edge"><title>Node2&#45;&gt;Node17</title>
<path fill="none" stroke="midnightblue" d="M286.431,-95.589C314.592,-101.405 350.373,-108.795 378.385,-114.58"/>
<polygon fill="midnightblue" stroke="midnightblue" points="377.824,-118.037 388.325,-116.632 379.24,-111.182 377.824,-118.037"/>
</g>
<!-- Node18 -->
<g id="node18" class="node"><title>Node18</title>
<g id="a_node18"><a xlink:href="../../d2/d0a/class_mem_1_1_manager.html#a7c4cba14870f002aee0243e16114f443" target="_top" xlink:title=" ">
<polygon fill="white" stroke="black" points="355.5,-76.5 355.5,-95.5 494.5,-95.5 494.5,-76.5 355.5,-76.5"/>
<text text-anchor="middle" x="425" y="-83.5" font-family="Helvetica,sans-Serif" font-size="10.00">Mem::Manager::PopContext</text>
</a>
</g>
</g>
<!-- Node2&#45;&gt;Node18 -->
<g id="edge21" class="edge"><title>Node2&#45;&gt;Node18</title>
<path fill="none" stroke="midnightblue" d="M304.096,-86C317.32,-86 331.393,-86 345.073,-86"/>
<polygon fill="midnightblue" stroke="midnightblue" points="345.436,-89.5001 355.436,-86 345.436,-82.5001 345.436,-89.5001"/>
</g>
<!-- Node19 -->
<g id="node19" class="node"><title>Node19</title>
<g id="a_node19"><a xlink:href="../../d2/d0a/class_mem_1_1_manager.html#aaf8e36abc36eecabe46bf2582035192a" target="_top" xlink:title=" ">
<polygon fill="white" stroke="black" points="353,-38.5 353,-57.5 497,-57.5 497,-38.5 353,-38.5"/>
<text text-anchor="middle" x="425" y="-45.5" font-family="Helvetica,sans-Serif" font-size="10.00">Mem::Manager::PushContext</text>
</a>
</g>
</g>
<!-- Node2&#45;&gt;Node19 -->
<g id="edge22" class="edge"><title>Node2&#45;&gt;Node19</title>
<path fill="none" stroke="midnightblue" d="M286.431,-76.411C311.149,-71.3061 341.739,-64.9887 367.792,-59.6082"/>
<polygon fill="midnightblue" stroke="midnightblue" points="368.817,-62.9703 377.903,-57.5201 367.402,-56.115 368.817,-62.9703"/>
</g>
<!-- Node20 -->
<g id="node20" class="node"><title>Node20</title>
<g id="a_node20"><a xlink:href="../../d2/d0a/class_mem_1_1_manager.html#a3aefd91781b7f41d35e6df6a32d379d0" target="_top" xlink:title=" ">
<polygon fill="white" stroke="black" points="363.5,-0.5 363.5,-19.5 486.5,-19.5 486.5,-0.5 363.5,-0.5"/>
<text text-anchor="middle" x="425" y="-7.5" font-family="Helvetica,sans-Serif" font-size="10.00">Mem::Manager::sHandle</text>
</a>
</g>
</g>
<!-- Node2&#45;&gt;Node20 -->
<g id="edge23" class="edge"><title>Node2&#45;&gt;Node20</title>
<path fill="none" stroke="midnightblue" d="M290.634,-76.4735C298.078,-73.9965 305.439,-70.8902 312,-67 332.011,-55.1346 327.912,-40.7348 348,-29 351.87,-26.7393 356.003,-24.7458 360.267,-22.9882"/>
<polygon fill="midnightblue" stroke="midnightblue" points="361.578,-26.2355 369.76,-19.505 359.166,-19.6639 361.578,-26.2355"/>
</g>
<!-- Node4 -->
<g id="node4" class="node"><title>Node4</title>
<g id="a_node4"><a xlink:href="../../d1/d54/namespace_script.html#a1dd030523ebaecb95103d181f6fd382e" target="_top" xlink:title=" ">
<polygon fill="white" stroke="black" points="540.5,-180.5 540.5,-199.5 674.5,-199.5 674.5,-180.5 540.5,-180.5"/>
<text text-anchor="middle" x="607.5" y="-187.5" font-family="Helvetica,sans-Serif" font-size="10.00">Script::CleanUpComponent</text>
</a>
</g>
</g>
<!-- Node3&#45;&gt;Node4 -->
<g id="edge3" class="edge"><title>Node3&#45;&gt;Node4</title>
<path fill="none" stroke="midnightblue" d="M487.361,-171.519C502.619,-173.886 519.109,-176.444 534.815,-178.88"/>
<polygon fill="midnightblue" stroke="midnightblue" points="534.584,-182.386 545.002,-180.46 535.657,-175.469 534.584,-182.386"/>
</g>
<!-- Node13 -->
<g id="node13" class="node"><title>Node13</title>
<g id="a_node13"><a xlink:href="../../d1/d54/namespace_script.html#ae80ed69ea4edcbcbbbd4985a6efdcd6e" target="_top" xlink:title=" ">
<polygon fill="white" stroke="black" points="538,-123.5 538,-142.5 677,-142.5 677,-123.5 538,-123.5"/>
<text text-anchor="middle" x="607.5" y="-130.5" font-family="Helvetica,sans-Serif" font-size="10.00">Script::FindChecksumName</text>
</a>
</g>
</g>
<!-- Node3&#45;&gt;Node13 -->
<g id="edge16" class="edge"><title>Node3&#45;&gt;Node13</title>
<path fill="none" stroke="midnightblue" d="M485.352,-152.464C501.93,-149.801 520.089,-146.883 537.187,-144.136"/>
<polygon fill="midnightblue" stroke="midnightblue" points="537.794,-147.584 547.112,-142.542 536.683,-140.672 537.794,-147.584"/>
</g>
<!-- Node5 -->
<g id="node5" class="node"><title>Node5</title>
<g id="a_node5"><a xlink:href="../../d1/d54/namespace_script.html#a3dd60f29ada8a33fda9f4e842f1cabc1" target="_top" xlink:title=" ">
<polygon fill="white" stroke="black" points="740.5,-275.5 740.5,-294.5 848.5,-294.5 848.5,-275.5 740.5,-275.5"/>
<text text-anchor="middle" x="794.5" y="-282.5" font-family="Helvetica,sans-Serif" font-size="10.00">Script::CleanUpArray</text>
</a>
</g>
</g>
<!-- Node4&#45;&gt;Node5 -->
<g id="edge4" class="edge"><title>Node4&#45;&gt;Node5</title>
<path fill="none" stroke="midnightblue" d="M627.257,-199.632C660.029,-216.461 727.848,-251.287 765.959,-270.857"/>
<polygon fill="midnightblue" stroke="midnightblue" points="764.474,-274.029 774.969,-275.484 767.672,-267.802 764.474,-274.029"/>
</g>
<!-- Node7 -->
<g id="node7" class="node"><title>Node7</title>
<g id="a_node7"><a xlink:href="../../db/dc4/namespace_mem.html#aeedb606ea94a3398fdcfa3101c5ea8d9" target="_top" xlink:title=" ">
<polygon fill="white" stroke="black" points="1095,-199.5 1095,-218.5 1159,-218.5 1159,-199.5 1095,-199.5"/>
<text text-anchor="middle" x="1127" y="-206.5" font-family="Helvetica,sans-Serif" font-size="10.00">Mem::Free</text>
</a>
</g>
</g>
<!-- Node4&#45;&gt;Node7 -->
<g id="edge15" class="edge"><title>Node4&#45;&gt;Node7</title>
<path fill="none" stroke="midnightblue" d="M674.633,-185.757C758.83,-181.327 908.665,-176.706 1036,-190 1052,-191.671 1069.35,-194.969 1084.5,-198.355"/>
<polygon fill="midnightblue" stroke="midnightblue" points="1084.07,-201.847 1094.6,-200.695 1085.65,-195.028 1084.07,-201.847"/>
</g>
<!-- Node9 -->
<g id="node9" class="node"><title>Node9</title>
<g id="a_node9"><a xlink:href="../../d1/d54/namespace_script.html#a99857fb30343d0c999af4db73344cece" target="_top" xlink:title=" ">
<polygon fill="white" stroke="black" points="923.5,-199.5 923.5,-218.5 1024.5,-218.5 1024.5,-199.5 923.5,-199.5"/>
<text text-anchor="middle" x="974" y="-206.5" font-family="Helvetica,sans-Serif" font-size="10.00">Script::DeleteString</text>
</a>
</g>
</g>
<!-- Node4&#45;&gt;Node9 -->
<g id="edge14" class="edge"><title>Node4&#45;&gt;Node9</title>
<path fill="none" stroke="midnightblue" d="M674.508,-193.441C742.471,-196.983 847.448,-202.455 913.088,-205.877"/>
<polygon fill="midnightblue" stroke="midnightblue" points="913.105,-209.383 923.274,-206.408 913.47,-202.392 913.105,-209.383"/>
</g>
<!-- Node6 -->
<g id="node6" class="node"><title>Node6</title>
<g id="a_node6"><a xlink:href="../../d0/d0b/class_script_1_1_c_array.html#a4b347b8b448dd652473dd6afe9aba2c2" target="_top" xlink:title=" ">
<polygon fill="white" stroke="black" points="920.5,-237.5 920.5,-256.5 1027.5,-256.5 1027.5,-237.5 920.5,-237.5"/>
<text text-anchor="middle" x="974" y="-244.5" font-family="Helvetica,sans-Serif" font-size="10.00">Script::CArray::Clear</text>
</a>
</g>
</g>
<!-- Node5&#45;&gt;Node6 -->
<g id="edge5" class="edge"><title>Node5&#45;&gt;Node6</title>
<path fill="none" stroke="midnightblue" d="M840.291,-275.411C864.03,-270.329 893.384,-264.045 918.444,-258.68"/>
<polygon fill="midnightblue" stroke="midnightblue" points="919.486,-262.036 928.531,-256.52 918.02,-255.191 919.486,-262.036"/>
</g>
<!-- Node8 -->
<g id="node8" class="node"><title>Node8</title>
<g id="a_node8"><a xlink:href="../../d1/d54/namespace_script.html#af32f99ba26ca0f255240413a4e23a754" target="_top" xlink:title=" ">
<polygon fill="white" stroke="black" points="1072,-256.5 1072,-275.5 1182,-275.5 1182,-256.5 1072,-256.5"/>
<text text-anchor="middle" x="1127" y="-263.5" font-family="Helvetica,sans-Serif" font-size="10.00">Script::GetTypeName</text>
</a>
</g>
</g>
<!-- Node5&#45;&gt;Node8 -->
<g id="edge13" class="edge"><title>Node5&#45;&gt;Node8</title>
<path fill="none" stroke="midnightblue" d="M848.601,-281.947C906.677,-278.609 999.746,-273.258 1061.86,-269.687"/>
<polygon fill="midnightblue" stroke="midnightblue" points="1062.15,-273.176 1071.93,-269.108 1061.75,-266.188 1062.15,-273.176"/>
</g>
<!-- Node5&#45;&gt;Node9 -->
<g id="edge8" class="edge"><title>Node5&#45;&gt;Node9</title>
<path fill="none" stroke="midnightblue" d="M812.883,-275.449C835.325,-263.365 875.803,-242.394 912,-228 917.546,-225.794 923.457,-223.676 929.332,-221.707"/>
<polygon fill="midnightblue" stroke="midnightblue" points="930.68,-224.95 939.118,-218.543 928.526,-218.289 930.68,-224.95"/>
</g>
<!-- Node10 -->
<g id="node10" class="node"><title>Node10</title>
<g id="a_node10"><a xlink:href="../../d0/d0b/class_script_1_1_c_array.html#a600fcbd0b8fd9d1df2ee87d77494db7a" target="_top" xlink:title=" ">
<polygon fill="white" stroke="black" points="912.5,-390 912.5,-420 1035.5,-420 1035.5,-390 912.5,-390"/>
<text text-anchor="start" x="920.5" y="-408" font-family="Helvetica,sans-Serif" font-size="10.00">Script::CArray::GetArray</text>
<text text-anchor="middle" x="974" y="-397" font-family="Helvetica,sans-Serif" font-size="10.00">Pointer</text>
</a>
</g>
</g>
<!-- Node5&#45;&gt;Node10 -->
<g id="edge10" class="edge"><title>Node5&#45;&gt;Node10</title>
<path fill="none" stroke="midnightblue" d="M805.328,-294.751C824.477,-313.332 868.708,-354.254 912,-380 915.335,-381.984 918.857,-383.88 922.458,-385.678"/>
<polygon fill="midnightblue" stroke="midnightblue" points="920.97,-388.846 931.508,-389.938 923.951,-382.513 920.97,-388.846"/>
</g>
<!-- Node11 -->
<g id="node11" class="node"><title>Node11</title>
<g id="a_node11"><a xlink:href="../../d0/d0b/class_script_1_1_c_array.html#a71c761bdce14193b10bf3c88372ba5a0" target="_top" xlink:title=" ">
<polygon fill="white" stroke="black" points="914.5,-351.5 914.5,-370.5 1033.5,-370.5 1033.5,-351.5 914.5,-351.5"/>
<text text-anchor="middle" x="974" y="-358.5" font-family="Helvetica,sans-Serif" font-size="10.00">Script::CArray::GetSize</text>
</a>
</g>
</g>
<!-- Node5&#45;&gt;Node11 -->
<g id="edge11" class="edge"><title>Node5&#45;&gt;Node11</title>
<path fill="none" stroke="midnightblue" d="M812.883,-294.551C835.325,-306.635 875.803,-327.606 912,-342 917.546,-344.206 923.457,-346.324 929.332,-348.293"/>
<polygon fill="midnightblue" stroke="midnightblue" points="928.526,-351.711 939.118,-351.457 930.68,-345.05 928.526,-351.711"/>
</g>
<!-- Node12 -->
<g id="node12" class="node"><title>Node12</title>
<g id="a_node12"><a xlink:href="../../d0/d0b/class_script_1_1_c_array.html#a68067b67ca9aae7b9214c0add1d8934e" target="_top" xlink:title=" ">
<polygon fill="white" stroke="black" points="913.5,-313.5 913.5,-332.5 1034.5,-332.5 1034.5,-313.5 913.5,-313.5"/>
<text text-anchor="middle" x="974" y="-320.5" font-family="Helvetica,sans-Serif" font-size="10.00">Script::CArray::GetType</text>
</a>
</g>
</g>
<!-- Node5&#45;&gt;Node12 -->
<g id="edge12" class="edge"><title>Node5&#45;&gt;Node12</title>
<path fill="none" stroke="midnightblue" d="M840.291,-294.589C864.03,-299.671 893.384,-305.955 918.444,-311.32"/>
<polygon fill="midnightblue" stroke="midnightblue" points="918.02,-314.809 928.531,-313.48 919.486,-307.964 918.02,-314.809"/>
</g>
<!-- Node6&#45;&gt;Node7 -->
<g id="edge6" class="edge"><title>Node6&#45;&gt;Node7</title>
<path fill="none" stroke="midnightblue" d="M1013.1,-237.411C1034.92,-231.92 1062.32,-225.026 1084.66,-219.404"/>
<polygon fill="midnightblue" stroke="midnightblue" points="1085.69,-222.755 1094.53,-216.92 1083.98,-215.966 1085.69,-222.755"/>
</g>
<!-- Node6&#45;&gt;Node8 -->
<g id="edge7" class="edge"><title>Node6&#45;&gt;Node8</title>
<path fill="none" stroke="midnightblue" d="M1027.81,-253.645C1038.75,-255.022 1050.39,-256.486 1061.69,-257.908"/>
<polygon fill="midnightblue" stroke="midnightblue" points="1061.58,-261.422 1071.94,-259.198 1062.45,-254.476 1061.58,-261.422"/>
</g>
<!-- Node9&#45;&gt;Node7 -->
<g id="edge9" class="edge"><title>Node9&#45;&gt;Node7</title>
<path fill="none" stroke="midnightblue" d="M1024.86,-209C1044.2,-209 1066.08,-209 1084.53,-209"/>
<polygon fill="midnightblue" stroke="midnightblue" points="1084.67,-212.5 1094.67,-209 1084.67,-205.5 1084.67,-212.5"/>
</g>
<!-- Node14 -->
<g id="node14" class="node"><title>Node14</title>
<g id="a_node14"><a xlink:href="../../d1/d54/namespace_script.html#a5cc52c4ff5ea5bb27681d819212dfdca" target="_top" xlink:title=" ">
<polygon fill="white" stroke="black" points="713,-85.5 713,-104.5 876,-104.5 876,-85.5 713,-85.5"/>
<text text-anchor="middle" x="794.5" y="-92.5" font-family="Helvetica,sans-Serif" font-size="10.00">Script::FindChecksumNameNULL</text>
</a>
</g>
</g>
<!-- Node13&#45;&gt;Node14 -->
<g id="edge17" class="edge"><title>Node13&#45;&gt;Node14</title>
<path fill="none" stroke="midnightblue" d="M655.183,-123.411C680.146,-118.284 711.064,-111.933 737.334,-106.537"/>
<polygon fill="midnightblue" stroke="midnightblue" points="738.061,-109.961 747.152,-104.52 736.653,-103.104 738.061,-109.961"/>
</g>
<!-- Node16 -->
<g id="node16" class="node"><title>Node16</title>
<g id="a_node16"><a xlink:href="../../da/d37/namespace_dbg.html#ab406a8cc16de5046c7d9fd09c9de5e22" target="_top" xlink:title=" ">
<polygon fill="white" stroke="black" points="761.5,-123.5 761.5,-142.5 827.5,-142.5 827.5,-123.5 761.5,-123.5"/>
<text text-anchor="middle" x="794.5" y="-130.5" font-family="Helvetica,sans-Serif" font-size="10.00">Dbg::sprintf</text>
</a>
</g>
</g>
<!-- Node13&#45;&gt;Node16 -->
<g id="edge19" class="edge"><title>Node13&#45;&gt;Node16</title>
<path fill="none" stroke="midnightblue" d="M677.124,-133C701.868,-133 729.058,-133 750.93,-133"/>
<polygon fill="midnightblue" stroke="midnightblue" points="751.206,-136.5 761.206,-133 751.206,-129.5 751.206,-136.5"/>
</g>
<!-- Node15 -->
<g id="node15" class="node"><title>Node15</title>
<g id="a_node15"><a xlink:href="../../d0/d31/namespace_config.html#a709cc81780d49900157e3476b63aa25d" target="_top" xlink:title=" ">
<polygon fill="white" stroke="black" points="912,-85.5 912,-104.5 1036,-104.5 1036,-85.5 912,-85.5"/>
<text text-anchor="middle" x="974" y="-92.5" font-family="Helvetica,sans-Serif" font-size="10.00">Config::GotExtraMemory</text>
</a>
</g>
</g>
<!-- Node14&#45;&gt;Node15 -->
<g id="edge18" class="edge"><title>Node14&#45;&gt;Node15</title>
<path fill="none" stroke="midnightblue" d="M876.2,-95C884.729,-95 893.358,-95 901.768,-95"/>
<polygon fill="midnightblue" stroke="midnightblue" points="901.898,-98.5001 911.898,-95 901.898,-91.5001 901.898,-98.5001"/>
</g>
</g>
</svg>
        <g id="navigator" transform="translate(0 0)" fill="#404254">
                <rect fill="#f2f5e9" fill-opacity="0.5" stroke="#606060" stroke-width=".5" x="0" y="0" width="60" height="60"/>
                <use id="zoomplus" xlink:href="#zoomPlus" x="17" y="9" onmousedown="handleZoom(evt,'in')"/>
                <use id="zoomminus" xlink:href="#zoomMin" x="42" y="9" onmousedown="handleZoom(evt,'out')"/>
                <use id="reset" xlink:href="#resetDef" x="30" y="36" onmousedown="handleReset()"/>
                <g id="arrowUp" xlink:href="#dirArrow" transform="translate(30 24)" onmousedown="handlePan(0,-1)">
                  <use xlink:href="#rim" fill="#404040">
                        <set attributeName="fill" to="#808080" begin="arrowUp.mouseover" end="arrowUp.mouseout"/>
                  </use>
                  <path fill="none" stroke="white" stroke-width="1.5" d="M0,-3.0v7 M-2.5,-0.5L0,-3.0L2.5,-0.5"/>
                </g>
                <g id="arrowRight" xlink:href="#dirArrow" transform="rotate(90) translate(36 -43)" onmousedown="handlePan(1,0)">
                  <use xlink:href="#rim" fill="#404040">
                        <set attributeName="fill" to="#808080" begin="arrowRight.mouseover" end="arrowRight.mouseout"/>
                  </use>
                  <path fill="none" stroke="white" stroke-width="1.5" d="M0,-3.0v7 M-2.5,-0.5L0,-3.0L2.5,-0.5"/>
                </g>
                <g id="arrowDown" xlink:href="#dirArrow" transform="rotate(180) translate(-30 -48)" onmousedown="handlePan(0,1)">
                  <use xlink:href="#rim" fill="#404040">
                        <set attributeName="fill" to="#808080" begin="arrowDown.mouseover" end="arrowDown.mouseout"/>
                  </use>
                  <path fill="none" stroke="white" stroke-width="1.5" d="M0,-3.0v7 M-2.5,-0.5L0,-3.0L2.5,-0.5"/>
                </g>
                <g id="arrowLeft" xlink:href="#dirArrow" transform="rotate(270) translate(-36 17)" onmousedown="handlePan(-1,0)">
                  <use xlink:href="#rim" fill="#404040">
                        <set attributeName="fill" to="#808080" begin="arrowLeft.mouseover" end="arrowLeft.mouseout"/>
                  </use>
                  <path fill="none" stroke="white" stroke-width="1.5" d="M0,-3.0v7 M-2.5,-0.5L0,-3.0L2.5,-0.5"/>
                </g>
        </g>
        <svg viewBox="0 0 15 15" width="100%" height="30px" preserveAspectRatio="xMaxYMin meet">
         <g id="arrow_out" transform="scale(0.3 0.3)">
          <a xlink:href="class_script_1_1_c_struct_a1eed923884fcfb2b6980c4f675f290e2_cgraph_org.svg" target="_base">
           <rect id="button" ry="5" rx="5" y="6" x="6" height="38" width="38"
                fill="#f2f5e9" fill-opacity="0.5" stroke="#606060" stroke-width="1.0"/>
           <path id="arrow"
             d="M 11.500037,31.436501 C 11.940474,20.09759 22.043105,11.32322 32.158766,21.979434 L 37.068811,17.246167 C 37.068811,17.246167 37.088388,32 37.088388,32 L 22.160133,31.978069 C 22.160133,31.978069 26.997745,27.140456 26.997745,27.140456 C 18.528582,18.264221 13.291696,25.230495 11.500037,31.436501 z"
             style="fill:#404040;"/>
          </a>
         </g>
        </svg>
</svg>
