<?xml version="1.0" encoding="UTF-8" standalone="no"?>
<!DOCTYPE svg PUBLIC "-//W3C//DTD SVG 1.1//EN"
 "http://www.w3.org/Graphics/SVG/1.1/DTD/svg11.dtd">
<!-- Generated by graphviz version 2.38.0 (20140413.2041)
 -->
<!-- Title: Script::CStruct::AddArrayPointer Pages: 1 -->
<svg width="1188pt" height="344pt"
 viewBox="0.00 0.00 1188.00 343.50" xmlns="http://www.w3.org/2000/svg" xmlns:xlink="http://www.w3.org/1999/xlink">
<g id="graph0" class="graph" transform="scale(1 1) rotate(0) translate(4 339.5)">
<title>Script::CStruct::AddArrayPointer</title>
<polygon fill="white" stroke="none" points="-4,4 -4,-339.5 1184,-339.5 1184,4 -4,4"/>
<!-- Node1 -->
<g id="node1" class="node"><title>Node1</title>
<g id="a_node1"><a xlink:title=" ">
<polygon fill="#bfbfbf" stroke="black" points="0,-39 0,-69 128,-69 128,-39 0,-39"/>
<text text-anchor="start" x="8" y="-57" font-family="Helvetica,sans-Serif" font-size="10.00">Script::CStruct::AddArray</text>
<text text-anchor="middle" x="64" y="-46" font-family="Helvetica,sans-Serif" font-size="10.00">Pointer</text>
</a>
</g>
</g>
<!-- Node2 -->
<g id="node2" class="node"><title>Node2</title>
<g id="a_node2"><a xlink:href="../../d2/df7/class_script_1_1_c_struct.html#a8d7d01e3e97039001e1039ebf7bc830a" target="_top" xlink:title=" ">
<polygon fill="white" stroke="black" points="173,-61 173,-91 301,-91 301,-61 173,-61"/>
<text text-anchor="start" x="181" y="-79" font-family="Helvetica,sans-Serif" font-size="10.00">Script::CStruct::AddArray</text>
<text text-anchor="middle" x="237" y="-68" font-family="Helvetica,sans-Serif" font-size="10.00">Pointer</text>
</a>
</g>
</g>
<!-- Node1&#45;&gt;Node2 -->
<g id="edge1" class="edge"><title>Node1&#45;&gt;Node2</title>
<path fill="none" stroke="midnightblue" d="M128.188,-62.1295C139.447,-63.5779 151.26,-65.0978 162.77,-66.5787"/>
<polygon fill="midnightblue" stroke="midnightblue" points="162.421,-70.0625 172.786,-67.8672 163.315,-63.1197 162.421,-70.0625"/>
</g>
<!-- Node17 -->
<g id="node17" class="node"><title>Node17</title>
<g id="a_node17"><a xlink:href="../../d3/d9b/namespace_crc.html#aed1b5ad21f682b39b09782ec29f5c5cc" target="_top" xlink:title=" ">
<polygon fill="white" stroke="black" points="164,-22.5 164,-41.5 310,-41.5 310,-22.5 164,-22.5"/>
<text text-anchor="middle" x="237" y="-29.5" font-family="Helvetica,sans-Serif" font-size="10.00">Crc::GenerateCRCFromString</text>
</a>
</g>
</g>
<!-- Node1&#45;&gt;Node17 -->
<g id="edge20" class="edge"><title>Node1&#45;&gt;Node17</title>
<path fill="none" stroke="midnightblue" d="M128.188,-45.8705C136.531,-44.7972 145.178,-43.6847 153.781,-42.5779"/>
<polygon fill="midnightblue" stroke="midnightblue" points="154.367,-46.0314 163.839,-41.2839 153.474,-39.0886 154.367,-46.0314"/>
</g>
<!-- Node3 -->
<g id="node3" class="node"><title>Node3</title>
<g id="a_node3"><a xlink:href="../../d2/df7/class_script_1_1_c_struct.html#a3872f7f0a9ebcc695745aabeefab2796" target="_top" xlink:title=" ">
<polygon fill="white" stroke="black" points="346,-66.5 346,-85.5 500,-85.5 500,-66.5 346,-66.5"/>
<text text-anchor="middle" x="423" y="-73.5" font-family="Helvetica,sans-Serif" font-size="10.00">Script::CStruct::AddComponent</text>
</a>
</g>
</g>
<!-- Node2&#45;&gt;Node3 -->
<g id="edge2" class="edge"><title>Node2&#45;&gt;Node3</title>
<path fill="none" stroke="midnightblue" d="M301.065,-76C312.249,-76 324.069,-76 335.763,-76"/>
<polygon fill="midnightblue" stroke="midnightblue" points="335.989,-79.5001 345.989,-76 335.989,-72.5001 335.989,-79.5001"/>
</g>
<!-- Node4 -->
<g id="node4" class="node"><title>Node4</title>
<g id="a_node4"><a xlink:href="../../d1/d54/namespace_script.html#a1dd030523ebaecb95103d181f6fd382e" target="_top" xlink:title=" ">
<polygon fill="white" stroke="black" points="538.5,-95.5 538.5,-114.5 672.5,-114.5 672.5,-95.5 538.5,-95.5"/>
<text text-anchor="middle" x="605.5" y="-102.5" font-family="Helvetica,sans-Serif" font-size="10.00">Script::CleanUpComponent</text>
</a>
</g>
</g>
<!-- Node3&#45;&gt;Node4 -->
<g id="edge3" class="edge"><title>Node3&#45;&gt;Node4</title>
<path fill="none" stroke="midnightblue" d="M483.352,-85.5359C499.93,-88.1993 518.089,-91.1168 535.187,-93.8639"/>
<polygon fill="midnightblue" stroke="midnightblue" points="534.683,-97.3277 545.112,-95.4584 535.794,-90.4163 534.683,-97.3277"/>
</g>
<!-- Node13 -->
<g id="node13" class="node"><title>Node13</title>
<g id="a_node13"><a xlink:href="../../d1/d54/namespace_script.html#ae80ed69ea4edcbcbbbd4985a6efdcd6e" target="_top" xlink:title=" ">
<polygon fill="white" stroke="black" points="536,-38.5 536,-57.5 675,-57.5 675,-38.5 536,-38.5"/>
<text text-anchor="middle" x="605.5" y="-45.5" font-family="Helvetica,sans-Serif" font-size="10.00">Script::FindChecksumName</text>
</a>
</g>
</g>
<!-- Node3&#45;&gt;Node13 -->
<g id="edge16" class="edge"><title>Node3&#45;&gt;Node13</title>
<path fill="none" stroke="midnightblue" d="M485.361,-66.4814C500.619,-64.1145 517.109,-61.5565 532.815,-59.1201"/>
<polygon fill="midnightblue" stroke="midnightblue" points="533.657,-62.5315 543.002,-57.5398 532.584,-55.6142 533.657,-62.5315"/>
</g>
<!-- Node5 -->
<g id="node5" class="node"><title>Node5</title>
<g id="a_node5"><a xlink:href="../../d1/d54/namespace_script.html#a3dd60f29ada8a33fda9f4e842f1cabc1" target="_top" xlink:title=" ">
<polygon fill="white" stroke="black" points="738.5,-190.5 738.5,-209.5 846.5,-209.5 846.5,-190.5 738.5,-190.5"/>
<text text-anchor="middle" x="792.5" y="-197.5" font-family="Helvetica,sans-Serif" font-size="10.00">Script::CleanUpArray</text>
</a>
</g>
</g>
<!-- Node4&#45;&gt;Node5 -->
<g id="edge4" class="edge"><title>Node4&#45;&gt;Node5</title>
<path fill="none" stroke="midnightblue" d="M625.257,-114.632C658.029,-131.461 725.848,-166.287 763.959,-185.857"/>
<polygon fill="midnightblue" stroke="midnightblue" points="762.474,-189.029 772.969,-190.484 765.672,-182.802 762.474,-189.029"/>
</g>
<!-- Node7 -->
<g id="node7" class="node"><title>Node7</title>
<g id="a_node7"><a xlink:href="../../db/dc4/namespace_mem.html#aeedb606ea94a3398fdcfa3101c5ea8d9" target="_top" xlink:title=" ">
<polygon fill="white" stroke="black" points="1093,-114.5 1093,-133.5 1157,-133.5 1157,-114.5 1093,-114.5"/>
<text text-anchor="middle" x="1125" y="-121.5" font-family="Helvetica,sans-Serif" font-size="10.00">Mem::Free</text>
</a>
</g>
</g>
<!-- Node4&#45;&gt;Node7 -->
<g id="edge15" class="edge"><title>Node4&#45;&gt;Node7</title>
<path fill="none" stroke="midnightblue" d="M672.633,-100.757C756.83,-96.3275 906.665,-91.7056 1034,-105 1050,-106.671 1067.35,-109.969 1082.5,-113.355"/>
<polygon fill="midnightblue" stroke="midnightblue" points="1082.07,-116.847 1092.6,-115.695 1083.65,-110.028 1082.07,-116.847"/>
</g>
<!-- Node9 -->
<g id="node9" class="node"><title>Node9</title>
<g id="a_node9"><a xlink:href="../../d1/d54/namespace_script.html#a99857fb30343d0c999af4db73344cece" target="_top" xlink:title=" ">
<polygon fill="white" stroke="black" points="921.5,-114.5 921.5,-133.5 1022.5,-133.5 1022.5,-114.5 921.5,-114.5"/>
<text text-anchor="middle" x="972" y="-121.5" font-family="Helvetica,sans-Serif" font-size="10.00">Script::DeleteString</text>
</a>
</g>
</g>
<!-- Node4&#45;&gt;Node9 -->
<g id="edge14" class="edge"><title>Node4&#45;&gt;Node9</title>
<path fill="none" stroke="midnightblue" d="M672.508,-108.441C740.471,-111.983 845.448,-117.455 911.088,-120.877"/>
<polygon fill="midnightblue" stroke="midnightblue" points="911.105,-124.383 921.274,-121.408 911.47,-117.392 911.105,-124.383"/>
</g>
<!-- Node6 -->
<g id="node6" class="node"><title>Node6</title>
<g id="a_node6"><a xlink:href="../../d0/d0b/class_script_1_1_c_array.html#a4b347b8b448dd652473dd6afe9aba2c2" target="_top" xlink:title=" ">
<polygon fill="white" stroke="black" points="918.5,-152.5 918.5,-171.5 1025.5,-171.5 1025.5,-152.5 918.5,-152.5"/>
<text text-anchor="middle" x="972" y="-159.5" font-family="Helvetica,sans-Serif" font-size="10.00">Script::CArray::Clear</text>
</a>
</g>
</g>
<!-- Node5&#45;&gt;Node6 -->
<g id="edge5" class="edge"><title>Node5&#45;&gt;Node6</title>
<path fill="none" stroke="midnightblue" d="M838.291,-190.411C862.03,-185.329 891.384,-179.045 916.444,-173.68"/>
<polygon fill="midnightblue" stroke="midnightblue" points="917.486,-177.036 926.531,-171.52 916.02,-170.191 917.486,-177.036"/>
</g>
<!-- Node8 -->
<g id="node8" class="node"><title>Node8</title>
<g id="a_node8"><a xlink:href="../../d1/d54/namespace_script.html#af32f99ba26ca0f255240413a4e23a754" target="_top" xlink:title=" ">
<polygon fill="white" stroke="black" points="1070,-171.5 1070,-190.5 1180,-190.5 1180,-171.5 1070,-171.5"/>
<text text-anchor="middle" x="1125" y="-178.5" font-family="Helvetica,sans-Serif" font-size="10.00">Script::GetTypeName</text>
</a>
</g>
</g>
<!-- Node5&#45;&gt;Node8 -->
<g id="edge13" class="edge"><title>Node5&#45;&gt;Node8</title>
<path fill="none" stroke="midnightblue" d="M846.601,-196.947C904.677,-193.609 997.746,-188.258 1059.86,-184.687"/>
<polygon fill="midnightblue" stroke="midnightblue" points="1060.15,-188.176 1069.93,-184.108 1059.75,-181.188 1060.15,-188.176"/>
</g>
<!-- Node5&#45;&gt;Node9 -->
<g id="edge8" class="edge"><title>Node5&#45;&gt;Node9</title>
<path fill="none" stroke="midnightblue" d="M810.883,-190.449C833.325,-178.365 873.803,-157.394 910,-143 915.546,-140.794 921.457,-138.676 927.332,-136.707"/>
<polygon fill="midnightblue" stroke="midnightblue" points="928.68,-139.95 937.118,-133.543 926.526,-133.289 928.68,-139.95"/>
</g>
<!-- Node10 -->
<g id="node10" class="node"><title>Node10</title>
<g id="a_node10"><a xlink:href="../../d0/d0b/class_script_1_1_c_array.html#a600fcbd0b8fd9d1df2ee87d77494db7a" target="_top" xlink:title=" ">
<polygon fill="white" stroke="black" points="910.5,-305 910.5,-335 1033.5,-335 1033.5,-305 910.5,-305"/>
<text text-anchor="start" x="918.5" y="-323" font-family="Helvetica,sans-Serif" font-size="10.00">Script::CArray::GetArray</text>
<text text-anchor="middle" x="972" y="-312" font-family="Helvetica,sans-Serif" font-size="10.00">Pointer</text>
</a>
</g>
</g>
<!-- Node5&#45;&gt;Node10 -->
<g id="edge10" class="edge"><title>Node5&#45;&gt;Node10</title>
<path fill="none" stroke="midnightblue" d="M803.328,-209.751C822.477,-228.332 866.708,-269.254 910,-295 913.335,-296.984 916.857,-298.88 920.458,-300.678"/>
<polygon fill="midnightblue" stroke="midnightblue" points="918.97,-303.846 929.508,-304.938 921.951,-297.513 918.97,-303.846"/>
</g>
<!-- Node11 -->
<g id="node11" class="node"><title>Node11</title>
<g id="a_node11"><a xlink:href="../../d0/d0b/class_script_1_1_c_array.html#a71c761bdce14193b10bf3c88372ba5a0" target="_top" xlink:title=" ">
<polygon fill="white" stroke="black" points="912.5,-266.5 912.5,-285.5 1031.5,-285.5 1031.5,-266.5 912.5,-266.5"/>
<text text-anchor="middle" x="972" y="-273.5" font-family="Helvetica,sans-Serif" font-size="10.00">Script::CArray::GetSize</text>
</a>
</g>
</g>
<!-- Node5&#45;&gt;Node11 -->
<g id="edge11" class="edge"><title>Node5&#45;&gt;Node11</title>
<path fill="none" stroke="midnightblue" d="M810.883,-209.551C833.325,-221.635 873.803,-242.606 910,-257 915.546,-259.206 921.457,-261.324 927.332,-263.293"/>
<polygon fill="midnightblue" stroke="midnightblue" points="926.526,-266.711 937.118,-266.457 928.68,-260.05 926.526,-266.711"/>
</g>
<!-- Node12 -->
<g id="node12" class="node"><title>Node12</title>
<g id="a_node12"><a xlink:href="../../d0/d0b/class_script_1_1_c_array.html#a68067b67ca9aae7b9214c0add1d8934e" target="_top" xlink:title=" ">
<polygon fill="white" stroke="black" points="911.5,-228.5 911.5,-247.5 1032.5,-247.5 1032.5,-228.5 911.5,-228.5"/>
<text text-anchor="middle" x="972" y="-235.5" font-family="Helvetica,sans-Serif" font-size="10.00">Script::CArray::GetType</text>
</a>
</g>
</g>
<!-- Node5&#45;&gt;Node12 -->
<g id="edge12" class="edge"><title>Node5&#45;&gt;Node12</title>
<path fill="none" stroke="midnightblue" d="M838.291,-209.589C862.03,-214.671 891.384,-220.955 916.444,-226.32"/>
<polygon fill="midnightblue" stroke="midnightblue" points="916.02,-229.809 926.531,-228.48 917.486,-222.964 916.02,-229.809"/>
</g>
<!-- Node6&#45;&gt;Node7 -->
<g id="edge6" class="edge"><title>Node6&#45;&gt;Node7</title>
<path fill="none" stroke="midnightblue" d="M1011.1,-152.411C1032.92,-146.92 1060.32,-140.026 1082.66,-134.404"/>
<polygon fill="midnightblue" stroke="midnightblue" points="1083.69,-137.755 1092.53,-131.92 1081.98,-130.966 1083.69,-137.755"/>
</g>
<!-- Node6&#45;&gt;Node8 -->
<g id="edge7" class="edge"><title>Node6&#45;&gt;Node8</title>
<path fill="none" stroke="midnightblue" d="M1025.81,-168.645C1036.75,-170.022 1048.39,-171.486 1059.69,-172.908"/>
<polygon fill="midnightblue" stroke="midnightblue" points="1059.58,-176.422 1069.94,-174.198 1060.45,-169.476 1059.58,-176.422"/>
</g>
<!-- Node9&#45;&gt;Node7 -->
<g id="edge9" class="edge"><title>Node9&#45;&gt;Node7</title>
<path fill="none" stroke="midnightblue" d="M1022.86,-124C1042.2,-124 1064.08,-124 1082.53,-124"/>
<polygon fill="midnightblue" stroke="midnightblue" points="1082.67,-127.5 1092.67,-124 1082.67,-120.5 1082.67,-127.5"/>
</g>
<!-- Node14 -->
<g id="node14" class="node"><title>Node14</title>
<g id="a_node14"><a xlink:href="../../d1/d54/namespace_script.html#a5cc52c4ff5ea5bb27681d819212dfdca" target="_top" xlink:title=" ">
<polygon fill="white" stroke="black" points="711,-0.5 711,-19.5 874,-19.5 874,-0.5 711,-0.5"/>
<text text-anchor="middle" x="792.5" y="-7.5" font-family="Helvetica,sans-Serif" font-size="10.00">Script::FindChecksumNameNULL</text>
</a>
</g>
</g>
<!-- Node13&#45;&gt;Node14 -->
<g id="edge17" class="edge"><title>Node13&#45;&gt;Node14</title>
<path fill="none" stroke="midnightblue" d="M653.183,-38.411C678.146,-33.2835 709.064,-26.9328 735.334,-21.5368"/>
<polygon fill="midnightblue" stroke="midnightblue" points="736.061,-24.9606 745.152,-19.5201 734.653,-18.1038 736.061,-24.9606"/>
</g>
<!-- Node16 -->
<g id="node16" class="node"><title>Node16</title>
<g id="a_node16"><a xlink:href="../../da/d37/namespace_dbg.html#ab406a8cc16de5046c7d9fd09c9de5e22" target="_top" xlink:title=" ">
<polygon fill="white" stroke="black" points="759.5,-38.5 759.5,-57.5 825.5,-57.5 825.5,-38.5 759.5,-38.5"/>
<text text-anchor="middle" x="792.5" y="-45.5" font-family="Helvetica,sans-Serif" font-size="10.00">Dbg::sprintf</text>
</a>
</g>
</g>
<!-- Node13&#45;&gt;Node16 -->
<g id="edge19" class="edge"><title>Node13&#45;&gt;Node16</title>
<path fill="none" stroke="midnightblue" d="M675.124,-48C699.868,-48 727.058,-48 748.93,-48"/>
<polygon fill="midnightblue" stroke="midnightblue" points="749.206,-51.5001 759.206,-48 749.206,-44.5001 749.206,-51.5001"/>
</g>
<!-- Node15 -->
<g id="node15" class="node"><title>Node15</title>
<g id="a_node15"><a xlink:href="../../d0/d31/namespace_config.html#a709cc81780d49900157e3476b63aa25d" target="_top" xlink:title=" ">
<polygon fill="white" stroke="black" points="910,-0.5 910,-19.5 1034,-19.5 1034,-0.5 910,-0.5"/>
<text text-anchor="middle" x="972" y="-7.5" font-family="Helvetica,sans-Serif" font-size="10.00">Config::GotExtraMemory</text>
</a>
</g>
</g>
<!-- Node14&#45;&gt;Node15 -->
<g id="edge18" class="edge"><title>Node14&#45;&gt;Node15</title>
<path fill="none" stroke="midnightblue" d="M874.2,-10C882.729,-10 891.358,-10 899.768,-10"/>
<polygon fill="midnightblue" stroke="midnightblue" points="899.898,-13.5001 909.898,-10 899.898,-6.5001 899.898,-13.5001"/>
</g>
</g>
</svg>
