<?xml version="1.0" encoding="UTF-8" standalone="no"?>
<!DOCTYPE svg PUBLIC "-//W3C//DTD SVG 1.1//EN"
 "http://www.w3.org/Graphics/SVG/1.1/DTD/svg11.dtd">
<!-- Generated by graphviz version 2.38.0 (20140413.2041)
 -->
<!-- Title: Obj::CVehicleComponent::update_collision_cache Pages: 1 -->
<!--zoomable 107 -->
<svg id="main" version="1.1" xmlns="http://www.w3.org/2000/svg" xmlns:xlink="http://www.w3.org/1999/xlink" xml:space="preserve" onload="init(evt)">
<style type="text/css"><![CDATA[
.edge:hover path { stroke: red; }
.edge:hover polygon { stroke: red; fill: red; }
]]></style>
<script type="text/javascript"><![CDATA[
var edges = document.getElementsByTagName('g');
if (edges && edges.length) {
  for (var i=0;i<edges.length;i++) {
    if (edges[i].id.substr(0,4)=='edge') {
      edges[i].setAttribute('class','edge');
    }
  }
}
]]></script>
        <defs>
                <circle id="rim" cx="0" cy="0" r="7"/>
                <circle id="rim2" cx="0" cy="0" r="3.5"/>
                <g id="zoomPlus">
                        <use xlink:href="#rim" fill="#404040">
                                <set attributeName="fill" to="#808080" begin="zoomplus.mouseover" end="zoomplus.mouseout"/>
                        </use>
                        <path d="M-4,0h8M0,-4v8" fill="none" stroke="white" stroke-width="1.5" pointer-events="none"/>
                </g>
                <g id="zoomMin">
                        <use xlink:href="#rim" fill="#404040">
                                <set attributeName="fill" to="#808080" begin="zoomminus.mouseover" end="zoomminus.mouseout"/>
                        </use>
                        <path d="M-4,0h8" fill="none" stroke="white" stroke-width="1.5" pointer-events="none"/>
                </g>
                <g id="dirArrow">
                        <path fill="none" stroke="white" stroke-width="1.5" d="M0,-3.0v7 M-2.5,-0.5L0,-3.0L2.5,-0.5"/>
                </g>
               <g id="resetDef">
                       <use xlink:href="#rim2" fill="#404040">
                               <set attributeName="fill" to="#808080" begin="reset.mouseover" end="reset.mouseout"/>
                       </use>
               </g>
        </defs>

<script type="text/javascript">
var viewWidth = 963;
var viewHeight = 107;
var sectionId = 'dynsection-33';
</script>
<script xlink:href="../../svgpan.js"/>
<svg id="graph" class="graph">
<g id="viewport">
<title>Obj::CVehicleComponent::update_collision_cache</title>
<polygon fill="white" stroke="none" points="-4,4 -4,-103.396 959,-103.396 959,4 -4,4"/>
<!-- Node1 -->
<g id="node1" class="node"><title>Node1</title>
<g id="a_node1"><a xlink:title=" ">
<polygon fill="#bfbfbf" stroke="black" points="829,-49.5 829,-79.5 955,-79.5 955,-49.5 829,-49.5"/>
<text text-anchor="start" x="837" y="-67.5" font-family="Helvetica,sans-Serif" font-size="10.00">Obj::CVehicleComponent</text>
<text text-anchor="middle" x="892" y="-56.5" font-family="Helvetica,sans-Serif" font-size="10.00">::update_collision_cache</text>
</a>
</g>
</g>
<!-- Node2 -->
<g id="node2" class="node"><title>Node2</title>
<g id="a_node2"><a xlink:href="../../d3/d33/class_obj_1_1_c_vehicle_component.html#ab5a40ed137431025db6054117badf445" target="_top" xlink:title=" ">
<polygon fill="white" stroke="black" points="648,-49.5 648,-79.5 793,-79.5 793,-49.5 648,-49.5"/>
<text text-anchor="start" x="656" y="-67.5" font-family="Helvetica,sans-Serif" font-size="10.00">Obj::CVehicleComponent</text>
<text text-anchor="middle" x="720.5" y="-56.5" font-family="Helvetica,sans-Serif" font-size="10.00">::update_dependent_variables</text>
</a>
</g>
</g>
<!-- Node1&#45;&gt;Node2 -->
<g id="edge1" class="edge"><title>Node1&#45;&gt;Node2</title>
<path fill="none" stroke="midnightblue" d="M818.639,-64.5C810.183,-64.5 801.559,-64.5 793.113,-64.5"/>
<polygon fill="midnightblue" stroke="midnightblue" points="818.847,-68.0001 828.847,-64.5 818.847,-61.0001 818.847,-68.0001"/>
</g>
<!-- Node3 -->
<g id="node3" class="node"><title>Node3</title>
<g id="a_node3"><a xlink:href="../../d3/d33/class_obj_1_1_c_vehicle_component.html#ab8ee378c39a65030254d4e40cda273c8" target="_top" xlink:title=" ">
<polygon fill="white" stroke="black" points="0,-59.5 0,-89.5 126,-89.5 126,-59.5 0,-59.5"/>
<text text-anchor="start" x="8" y="-77.5" font-family="Helvetica,sans-Serif" font-size="10.00">Obj::CVehicleComponent</text>
<text text-anchor="middle" x="63" y="-66.5" font-family="Helvetica,sans-Serif" font-size="10.00">::CallMemberFunction</text>
</a>
</g>
</g>
<!-- Node2&#45;&gt;Node3 -->
<g id="edge2" class="edge"><title>Node2&#45;&gt;Node3</title>
<path fill="none" stroke="midnightblue" d="M656.006,-81.7916C641.643,-84.9952 626.384,-87.8494 612,-89.5 436.839,-109.599 228.225,-92.755 126.296,-81.9093"/>
<polygon fill="midnightblue" stroke="midnightblue" points="656.832,-85.1931 665.785,-79.5284 655.254,-78.3733 656.832,-85.1931"/>
</g>
<!-- Node4 -->
<g id="node4" class="node"><title>Node4</title>
<g id="a_node4"><a xlink:href="../../d3/d33/class_obj_1_1_c_vehicle_component.html#a5b2f2bbc6c4ed9af74444889a727ae6c" target="_top" xlink:title=" ">
<polygon fill="white" stroke="black" points="486,-49.5 486,-79.5 612,-79.5 612,-49.5 486,-49.5"/>
<text text-anchor="start" x="494" y="-67.5" font-family="Helvetica,sans-Serif" font-size="10.00">Obj::CVehicleComponent</text>
<text text-anchor="middle" x="549" y="-56.5" font-family="Helvetica,sans-Serif" font-size="10.00">::Finalize</text>
</a>
</g>
</g>
<!-- Node2&#45;&gt;Node4 -->
<g id="edge3" class="edge"><title>Node2&#45;&gt;Node4</title>
<path fill="none" stroke="midnightblue" d="M637.584,-64.5C629.004,-64.5 620.385,-64.5 612.08,-64.5"/>
<polygon fill="midnightblue" stroke="midnightblue" points="637.617,-68.0001 647.617,-64.5 637.617,-61.0001 637.617,-68.0001"/>
</g>
<!-- Node5 -->
<g id="node5" class="node"><title>Node5</title>
<g id="a_node5"><a xlink:href="../../d3/d33/class_obj_1_1_c_vehicle_component.html#ac32a760b96d9260f194b1925dd73c390" target="_top" xlink:title=" ">
<polygon fill="white" stroke="black" points="486,-0.5 486,-30.5 612,-30.5 612,-0.5 486,-0.5"/>
<text text-anchor="start" x="494" y="-18.5" font-family="Helvetica,sans-Serif" font-size="10.00">Obj::CVehicleComponent</text>
<text text-anchor="middle" x="549" y="-7.5" font-family="Helvetica,sans-Serif" font-size="10.00">::update_dynamic_state</text>
</a>
</g>
</g>
<!-- Node2&#45;&gt;Node5 -->
<g id="edge4" class="edge"><title>Node2&#45;&gt;Node5</title>
<path fill="none" stroke="midnightblue" d="M657.601,-46.6059C639.37,-41.3356 619.614,-35.6245 602.066,-30.5516"/>
<polygon fill="midnightblue" stroke="midnightblue" points="656.683,-49.9837 667.261,-49.3986 658.627,-43.259 656.683,-49.9837"/>
</g>
<!-- Node6 -->
<g id="node6" class="node"><title>Node6</title>
<g id="a_node6"><a xlink:href="../../d3/d33/class_obj_1_1_c_vehicle_component.html#a174e63b24d7419e62ae9932449258d90" target="_top" xlink:title=" ">
<polygon fill="white" stroke="black" points="324,-13.5 324,-43.5 450,-43.5 450,-13.5 324,-13.5"/>
<text text-anchor="start" x="332" y="-31.5" font-family="Helvetica,sans-Serif" font-size="10.00">Obj::CVehicleComponent</text>
<text text-anchor="middle" x="387" y="-20.5" font-family="Helvetica,sans-Serif" font-size="10.00">::Update</text>
</a>
</g>
</g>
<!-- Node5&#45;&gt;Node6 -->
<g id="edge5" class="edge"><title>Node5&#45;&gt;Node6</title>
<path fill="none" stroke="midnightblue" d="M475.455,-21.3943C467.004,-22.0809 458.441,-22.7766 450.148,-23.4505"/>
<polygon fill="midnightblue" stroke="midnightblue" points="475.998,-24.8618 485.682,-20.5634 475.431,-17.8848 475.998,-24.8618"/>
</g>
<!-- Node7 -->
<g id="node7" class="node"><title>Node7</title>
<g id="a_node7"><a xlink:href="../../d3/d33/class_obj_1_1_c_vehicle_component.html#aa7c7152e6c9cb6038a43e5c18ffd14b6" target="_top" xlink:title=" ">
<polygon fill="white" stroke="black" points="162,-25.5 162,-55.5 288,-55.5 288,-25.5 162,-25.5"/>
<text text-anchor="start" x="170" y="-43.5" font-family="Helvetica,sans-Serif" font-size="10.00">Obj::CVehicleComponent</text>
<text text-anchor="middle" x="225" y="-32.5" font-family="Helvetica,sans-Serif" font-size="10.00">::MoveToNode</text>
</a>
</g>
</g>
<!-- Node6&#45;&gt;Node7 -->
<g id="edge6" class="edge"><title>Node6&#45;&gt;Node7</title>
<path fill="none" stroke="midnightblue" d="M313.455,-33.9409C305.004,-34.5747 296.441,-35.2169 288.148,-35.8389"/>
<polygon fill="midnightblue" stroke="midnightblue" points="313.971,-37.4121 323.682,-33.1739 313.448,-30.4317 313.971,-37.4121"/>
</g>
<!-- Node7&#45;&gt;Node3 -->
<g id="edge7" class="edge"><title>Node7&#45;&gt;Node3</title>
<path fill="none" stroke="midnightblue" d="M151.733,-55.8567C143.192,-57.6717 134.532,-59.5119 126.148,-61.2935"/>
<polygon fill="midnightblue" stroke="midnightblue" points="152.628,-59.2449 161.682,-53.7426 151.173,-52.3978 152.628,-59.2449"/>
</g>
</g>
</svg>
        <g id="navigator" transform="translate(0 0)" fill="#404254">
                <rect fill="#f2f5e9" fill-opacity="0.5" stroke="#606060" stroke-width=".5" x="0" y="0" width="60" height="60"/>
                <use id="zoomplus" xlink:href="#zoomPlus" x="17" y="9" onmousedown="handleZoom(evt,'in')"/>
                <use id="zoomminus" xlink:href="#zoomMin" x="42" y="9" onmousedown="handleZoom(evt,'out')"/>
                <use id="reset" xlink:href="#resetDef" x="30" y="36" onmousedown="handleReset()"/>
                <g id="arrowUp" xlink:href="#dirArrow" transform="translate(30 24)" onmousedown="handlePan(0,-1)">
                  <use xlink:href="#rim" fill="#404040">
                        <set attributeName="fill" to="#808080" begin="arrowUp.mouseover" end="arrowUp.mouseout"/>
                  </use>
                  <path fill="none" stroke="white" stroke-width="1.5" d="M0,-3.0v7 M-2.5,-0.5L0,-3.0L2.5,-0.5"/>
                </g>
                <g id="arrowRight" xlink:href="#dirArrow" transform="rotate(90) translate(36 -43)" onmousedown="handlePan(1,0)">
                  <use xlink:href="#rim" fill="#404040">
                        <set attributeName="fill" to="#808080" begin="arrowRight.mouseover" end="arrowRight.mouseout"/>
                  </use>
                  <path fill="none" stroke="white" stroke-width="1.5" d="M0,-3.0v7 M-2.5,-0.5L0,-3.0L2.5,-0.5"/>
                </g>
                <g id="arrowDown" xlink:href="#dirArrow" transform="rotate(180) translate(-30 -48)" onmousedown="handlePan(0,1)">
                  <use xlink:href="#rim" fill="#404040">
                        <set attributeName="fill" to="#808080" begin="arrowDown.mouseover" end="arrowDown.mouseout"/>
                  </use>
                  <path fill="none" stroke="white" stroke-width="1.5" d="M0,-3.0v7 M-2.5,-0.5L0,-3.0L2.5,-0.5"/>
                </g>
                <g id="arrowLeft" xlink:href="#dirArrow" transform="rotate(270) translate(-36 17)" onmousedown="handlePan(-1,0)">
                  <use xlink:href="#rim" fill="#404040">
                        <set attributeName="fill" to="#808080" begin="arrowLeft.mouseover" end="arrowLeft.mouseout"/>
                  </use>
                  <path fill="none" stroke="white" stroke-width="1.5" d="M0,-3.0v7 M-2.5,-0.5L0,-3.0L2.5,-0.5"/>
                </g>
        </g>
        <svg viewBox="0 0 15 15" width="100%" height="30px" preserveAspectRatio="xMaxYMin meet">
         <g id="arrow_out" transform="scale(0.3 0.3)">
          <a xlink:href="class_obj_1_1_c_vehicle_component_a81df5730969427783378914cfefd8fdb_icgraph_org.svg" target="_base">
           <rect id="button" ry="5" rx="5" y="6" x="6" height="38" width="38"
                fill="#f2f5e9" fill-opacity="0.5" stroke="#606060" stroke-width="1.0"/>
           <path id="arrow"
             d="M 11.500037,31.436501 C 11.940474,20.09759 22.043105,11.32322 32.158766,21.979434 L 37.068811,17.246167 C 37.068811,17.246167 37.088388,32 37.088388,32 L 22.160133,31.978069 C 22.160133,31.978069 26.997745,27.140456 26.997745,27.140456 C 18.528582,18.264221 13.291696,25.230495 11.500037,31.436501 z"
             style="fill:#404040;"/>
          </a>
         </g>
        </svg>
</svg>
