<?xml version="1.0" encoding="UTF-8" standalone="no"?>
<!DOCTYPE svg PUBLIC "-//W3C//DTD SVG 1.1//EN"
 "http://www.w3.org/Graphics/SVG/1.1/DTD/svg11.dtd">
<!-- Generated by graphviz version 2.38.0 (20140413.2041)
 -->
<!-- Title: quick_check_checksum Pages: 1 -->
<svg width="259pt" height="46pt"
 viewBox="0.00 0.00 259.00 46.00" xmlns="http://www.w3.org/2000/svg" xmlns:xlink="http://www.w3.org/1999/xlink">
<g id="graph0" class="graph" transform="scale(1 1) rotate(0) translate(4 42)">
<title>quick_check_checksum</title>
<polygon fill="white" stroke="none" points="-4,4 -4,-42 255,-42 255,4 -4,4"/>
<!-- Node1 -->
<g id="node1" class="node"><title>Node1</title>
<g id="a_node1"><a xlink:title=" ">
<polygon fill="#bfbfbf" stroke="black" points="129,-0.5 129,-19.5 251,-19.5 251,-0.5 129,-0.5"/>
<text text-anchor="middle" x="190" y="-7.5" font-family="Helvetica,sans-Serif" font-size="10.00">quick_check_checksum</text>
</a>
</g>
</g>
<!-- Node2 -->
<g id="node2" class="node"><title>Node2</title>
<g id="a_node2"><a xlink:href="../../d8/de2/_defines_8h.html#a1479deeb030c649c1ed60bebcf10fabd" target="_top" xlink:title=" ">
<polygon fill="white" stroke="black" points="0,-0.5 0,-19.5 93,-19.5 93,-0.5 0,-0.5"/>
<text text-anchor="middle" x="46.5" y="-7.5" font-family="Helvetica,sans-Serif" font-size="10.00">check_checksum</text>
</a>
</g>
</g>
<!-- Node1&#45;&gt;Node2 -->
<g id="edge1" class="edge"><title>Node1&#45;&gt;Node2</title>
<path fill="none" stroke="midnightblue" d="M118.754,-10C110.001,-10 101.239,-10 93.0016,-10"/>
<polygon fill="midnightblue" stroke="midnightblue" points="118.991,-13.5001 128.991,-10 118.991,-6.5001 118.991,-13.5001"/>
</g>
<!-- Node2&#45;&gt;Node2 -->
<g id="edge2" class="edge"><title>Node2&#45;&gt;Node2</title>
<path fill="none" stroke="midnightblue" d="M73.0059,-28.6539C71.8979,-33.9368 63.0626,-38 46.5,-38 21.2617,-38 13.9663,-28.5653 24.6137,-19.7571"/>
<polygon fill="midnightblue" stroke="midnightblue" points="76.1008,-27.0192 68.3863,-19.7571 69.8883,-30.2449 76.1008,-27.0192"/>
</g>
</g>
</svg>
