<?xml version="1.0" encoding="UTF-8" standalone="no"?>
<!DOCTYPE svg PUBLIC "-//W3C//DTD SVG 1.1//EN"
 "http://www.w3.org/Graphics/SVG/1.1/DTD/svg11.dtd">
<!-- Generated by graphviz version 2.38.0 (20140413.2041)
 -->
<!-- Title: Obj::CSkaterCam::BindToController Pages: 1 -->
<svg width="524pt" height="66pt"
 viewBox="0.00 0.00 524.00 66.00" xmlns="http://www.w3.org/2000/svg" xmlns:xlink="http://www.w3.org/1999/xlink">
<g id="graph0" class="graph" transform="scale(1 1) rotate(0) translate(4 62)">
<title>Obj::CSkaterCam::BindToController</title>
<polygon fill="white" stroke="none" points="-4,4 -4,-62 520,-62 520,4 -4,4"/>
<!-- Node1 -->
<g id="node1" class="node"><title>Node1</title>
<g id="a_node1"><a xlink:title=" ">
<polygon fill="#bfbfbf" stroke="black" points="0,-19.5 0,-38.5 170,-38.5 170,-19.5 0,-19.5"/>
<text text-anchor="middle" x="85" y="-26.5" font-family="Helvetica,sans-Serif" font-size="10.00">Obj::CSkaterCam::BindToController</text>
</a>
</g>
</g>
<!-- Node2 -->
<g id="node2" class="node"><title>Node2</title>
<g id="a_node2"><a xlink:href="../../db/d1e/class_inp_1_1_manager.html#a045f8568783dad989a1ffef2e4be4279" target="_top" xlink:title=" ">
<polygon fill="white" stroke="black" points="206,-19.5 206,-38.5 358,-38.5 358,-19.5 206,-19.5"/>
<text text-anchor="middle" x="282" y="-26.5" font-family="Helvetica,sans-Serif" font-size="10.00">Inp::Manager::ReassignHandler</text>
</a>
</g>
</g>
<!-- Node1&#45;&gt;Node2 -->
<g id="edge1" class="edge"><title>Node1&#45;&gt;Node2</title>
<path fill="none" stroke="midnightblue" d="M170.112,-29C178.54,-29 187.104,-29 195.545,-29"/>
<polygon fill="midnightblue" stroke="midnightblue" points="195.763,-32.5001 205.763,-29 195.763,-25.5001 195.763,-32.5001"/>
</g>
<!-- Node3 -->
<g id="node3" class="node"><title>Node3</title>
<g id="a_node3"><a xlink:href="../../d8/d8c/class_tsk_1_1_stack.html#a2accefdfe8ab6753f33959f9cc87b002" target="_top" xlink:title=" ">
<polygon fill="white" stroke="black" points="401,-38.5 401,-57.5 509,-57.5 509,-38.5 401,-38.5"/>
<text text-anchor="middle" x="455" y="-45.5" font-family="Helvetica,sans-Serif" font-size="10.00">Tsk::Stack::AddTask</text>
</a>
</g>
</g>
<!-- Node2&#45;&gt;Node3 -->
<g id="edge2" class="edge"><title>Node2&#45;&gt;Node3</title>
<path fill="none" stroke="midnightblue" d="M358.003,-37.3337C368.952,-38.5502 380.134,-39.7926 390.816,-40.9795"/>
<polygon fill="midnightblue" stroke="midnightblue" points="390.555,-44.472 400.88,-42.0978 391.328,-37.5148 390.555,-44.472"/>
</g>
<!-- Node4 -->
<g id="node4" class="node"><title>Node4</title>
<g id="a_node4"><a xlink:href="../../dd/dd9/class_tsk_1_1_base_task.html#a5a63d8e93b2ed5e92639c10f1c43e5de" target="_top" xlink:title=" ">
<polygon fill="white" stroke="black" points="394,-0.5 394,-19.5 516,-19.5 516,-0.5 394,-0.5"/>
<text text-anchor="middle" x="455" y="-7.5" font-family="Helvetica,sans-Serif" font-size="10.00">Tsk::BaseTask::Remove</text>
</a>
</g>
</g>
<!-- Node2&#45;&gt;Node4 -->
<g id="edge3" class="edge"><title>Node2&#45;&gt;Node4</title>
<path fill="none" stroke="midnightblue" d="M358.003,-20.6663C366.646,-19.706 375.434,-18.7296 384.007,-17.777"/>
<polygon fill="midnightblue" stroke="midnightblue" points="384.398,-21.2552 393.95,-16.6722 383.625,-14.298 384.398,-21.2552"/>
</g>
</g>
</svg>
