<?xml version="1.0" encoding="UTF-8" standalone="no"?>
<!DOCTYPE svg PUBLIC "-//W3C//DTD SVG 1.1//EN"
 "http://www.w3.org/Graphics/SVG/1.1/DTD/svg11.dtd">
<!-- Generated by graphviz version 2.38.0 (20140413.2041)
 -->
<!-- Title: CContact::CContact Pages: 1 -->
<svg width="267pt" height="127pt"
 viewBox="0.00 0.00 267.00 126.50" xmlns="http://www.w3.org/2000/svg" xmlns:xlink="http://www.w3.org/1999/xlink">
<g id="graph0" class="graph" transform="scale(1 1) rotate(0) translate(4 122.5)">
<title>CContact::CContact</title>
<polygon fill="white" stroke="none" points="-4,4 -4,-122.5 263,-122.5 263,4 -4,4"/>
<!-- Node1 -->
<g id="node1" class="node"><title>Node1</title>
<g id="a_node1"><a xlink:title=" ">
<polygon fill="#bfbfbf" stroke="black" points="0,-44.5 0,-63.5 104,-63.5 104,-44.5 0,-44.5"/>
<text text-anchor="middle" x="52" y="-51.5" font-family="Helvetica,sans-Serif" font-size="10.00">CContact::CContact</text>
</a>
</g>
</g>
<!-- Node2 -->
<g id="node2" class="node"><title>Node2</title>
<g id="a_node2"><a xlink:href="../../dd/d7b/class_obj_1_1_c_composite_object.html#a18d374784f1787eb7b22b92a84084dfc" target="_top" xlink:title=" ">
<polygon fill="white" stroke="black" points="140,-88 140,-118 259,-118 259,-88 140,-88"/>
<text text-anchor="start" x="148" y="-106" font-family="Helvetica,sans-Serif" font-size="10.00">Obj::CCompositeObject</text>
<text text-anchor="middle" x="199.5" y="-95" font-family="Helvetica,sans-Serif" font-size="10.00">::GetMatrix</text>
</a>
</g>
</g>
<!-- Node1&#45;&gt;Node2 -->
<g id="edge1" class="edge"><title>Node1&#45;&gt;Node2</title>
<path fill="none" stroke="midnightblue" d="M81.3993,-63.564C99.257,-69.5779 122.88,-77.5335 144.229,-84.7232"/>
<polygon fill="midnightblue" stroke="midnightblue" points="143.255,-88.0884 153.849,-87.963 145.489,-81.4544 143.255,-88.0884"/>
</g>
<!-- Node3 -->
<g id="node3" class="node"><title>Node3</title>
<g id="a_node3"><a xlink:href="../../dd/d7b/class_obj_1_1_c_composite_object.html#addf10ff084fa457e293e69afe013ee4c" target="_top" xlink:title=" ">
<polygon fill="white" stroke="black" points="140,-39 140,-69 259,-69 259,-39 140,-39"/>
<text text-anchor="start" x="148" y="-57" font-family="Helvetica,sans-Serif" font-size="10.00">Obj::CCompositeObject</text>
<text text-anchor="middle" x="199.5" y="-46" font-family="Helvetica,sans-Serif" font-size="10.00">::GetPos</text>
</a>
</g>
</g>
<!-- Node1&#45;&gt;Node3 -->
<g id="edge2" class="edge"><title>Node1&#45;&gt;Node3</title>
<path fill="none" stroke="midnightblue" d="M104.298,-54C112.59,-54 121.289,-54 129.911,-54"/>
<polygon fill="midnightblue" stroke="midnightblue" points="129.967,-57.5001 139.967,-54 129.967,-50.5001 129.967,-57.5001"/>
</g>
<!-- Node4 -->
<g id="node4" class="node"><title>Node4</title>
<g id="a_node4"><a xlink:href="../../d1/d08/class_mth_1_1_vector.html#aeb3fc85704c5e3811b7dd4bebff78b3f" target="_top" xlink:title=" ">
<polygon fill="white" stroke="black" points="155,-0.5 155,-19.5 244,-19.5 244,-0.5 155,-0.5"/>
<text text-anchor="middle" x="199.5" y="-7.5" font-family="Helvetica,sans-Serif" font-size="10.00">Mth::Vector::Set</text>
</a>
</g>
</g>
<!-- Node1&#45;&gt;Node4 -->
<g id="edge3" class="edge"><title>Node1&#45;&gt;Node4</title>
<path fill="none" stroke="midnightblue" d="M84.5713,-44.4527C105.831,-38.0237 134.085,-29.4794 157.138,-22.5082"/>
<polygon fill="midnightblue" stroke="midnightblue" points="158.432,-25.7735 166.99,-19.5287 156.405,-19.0732 158.432,-25.7735"/>
</g>
</g>
</svg>
