<?xml version="1.0" encoding="UTF-8" standalone="no"?>
<!DOCTYPE svg PUBLIC "-//W3C//DTD SVG 1.1//EN"
 "http://www.w3.org/Graphics/SVG/1.1/DTD/svg11.dtd">
<!-- Generated by graphviz version 2.38.0 (20140413.2041)
 -->
<!-- Title: Pip::ScriptLoadPipPre Pages: 1 -->
<!--zoomable 882 -->
<svg id="main" version="1.1" xmlns="http://www.w3.org/2000/svg" xmlns:xlink="http://www.w3.org/1999/xlink" xml:space="preserve" onload="init(evt)">
<style type="text/css"><![CDATA[
.edge:hover path { stroke: red; }
.edge:hover polygon { stroke: red; fill: red; }
]]></style>
<script type="text/javascript"><![CDATA[
var edges = document.getElementsByTagName('g');
if (edges && edges.length) {
  for (var i=0;i<edges.length;i++) {
    if (edges[i].id.substr(0,4)=='edge') {
      edges[i].setAttribute('class','edge');
    }
  }
}
]]></script>
        <defs>
                <circle id="rim" cx="0" cy="0" r="7"/>
                <circle id="rim2" cx="0" cy="0" r="3.5"/>
                <g id="zoomPlus">
                        <use xlink:href="#rim" fill="#404040">
                                <set attributeName="fill" to="#808080" begin="zoomplus.mouseover" end="zoomplus.mouseout"/>
                        </use>
                        <path d="M-4,0h8M0,-4v8" fill="none" stroke="white" stroke-width="1.5" pointer-events="none"/>
                </g>
                <g id="zoomMin">
                        <use xlink:href="#rim" fill="#404040">
                                <set attributeName="fill" to="#808080" begin="zoomminus.mouseover" end="zoomminus.mouseout"/>
                        </use>
                        <path d="M-4,0h8" fill="none" stroke="white" stroke-width="1.5" pointer-events="none"/>
                </g>
                <g id="dirArrow">
                        <path fill="none" stroke="white" stroke-width="1.5" d="M0,-3.0v7 M-2.5,-0.5L0,-3.0L2.5,-0.5"/>
                </g>
               <g id="resetDef">
                       <use xlink:href="#rim2" fill="#404040">
                               <set attributeName="fill" to="#808080" begin="reset.mouseover" end="reset.mouseout"/>
                       </use>
               </g>
        </defs>

<script type="text/javascript">
var viewWidth = 1173;
var viewHeight = 882;
var sectionId = 'dynsection-18';
</script>
<script xlink:href="../../svgpan.js"/>
<svg id="graph" class="graph">
<g id="viewport">
<title>Pip::ScriptLoadPipPre</title>
<polygon fill="white" stroke="none" points="-4,4 -4,-878 1169,-878 1169,4 -4,4"/>
<!-- Node1 -->
<g id="node1" class="node"><title>Node1</title>
<g id="a_node1"><a xlink:title=" ">
<polygon fill="#bfbfbf" stroke="black" points="0,-484.5 0,-503.5 113,-503.5 113,-484.5 0,-484.5"/>
<text text-anchor="middle" x="56.5" y="-491.5" font-family="Helvetica,sans-Serif" font-size="10.00">Pip::ScriptLoadPipPre</text>
</a>
</g>
</g>
<!-- Node2 -->
<g id="node2" class="node"><title>Node2</title>
<g id="a_node2"><a xlink:href="../../df/de2/_messages_8h.html#a8fa3001f17158c6861192e6e6cc9ff9c" target="_top" xlink:title=" ">
<polygon fill="white" stroke="black" points="186,-854.5 186,-873.5 261,-873.5 261,-854.5 186,-854.5"/>
<text text-anchor="middle" x="223.5" y="-861.5" font-family="Helvetica,sans-Serif" font-size="10.00">Dbg_Warning</text>
</a>
</g>
</g>
<!-- Node1&#45;&gt;Node2 -->
<g id="edge1" class="edge"><title>Node1&#45;&gt;Node2</title>
<path fill="none" stroke="midnightblue" d="M58.7989,-503.664C65.7817,-554.284 100.363,-788.504 149,-840 156.264,-847.691 166.022,-852.921 176.049,-856.477"/>
<polygon fill="midnightblue" stroke="midnightblue" points="175.088,-859.843 185.673,-859.399 177.121,-853.145 175.088,-859.843"/>
</g>
<!-- Node3 -->
<g id="node3" class="node"><title>Node3</title>
<g id="a_node3"><a xlink:href="../../d1/d54/namespace_script.html#ae80ed69ea4edcbcbbbd4985a6efdcd6e" target="_top" xlink:title=" ">
<polygon fill="white" stroke="black" points="667,-684.5 667,-703.5 806,-703.5 806,-684.5 667,-684.5"/>
<text text-anchor="middle" x="736.5" y="-691.5" font-family="Helvetica,sans-Serif" font-size="10.00">Script::FindChecksumName</text>
</a>
</g>
</g>
<!-- Node1&#45;&gt;Node3 -->
<g id="edge2" class="edge"><title>Node1&#45;&gt;Node3</title>
<path fill="none" stroke="midnightblue" d="M58.2665,-503.844C61.6146,-539.96 78.1508,-666.476 149,-732 211.975,-790.242 249.115,-774.649 334,-787 464.92,-806.049 507.796,-815.205 631,-767 664.902,-753.735 698.384,-727.376 717.986,-710.227"/>
<polygon fill="midnightblue" stroke="midnightblue" points="720.379,-712.783 725.499,-703.507 715.712,-707.566 720.379,-712.783"/>
</g>
<!-- Node7 -->
<g id="node7" class="node"><title>Node7</title>
<g id="a_node7"><a xlink:href="../../d2/df7/class_script_1_1_c_struct.html#aa39e6fe5fdf1d6c48136ae26a7ad511e" target="_top" xlink:title=" ">
<polygon fill="white" stroke="black" points="149,-627.5 149,-646.5 298,-646.5 298,-627.5 149,-627.5"/>
<text text-anchor="middle" x="223.5" y="-634.5" font-family="Helvetica,sans-Serif" font-size="10.00">Script::CStruct::GetChecksum</text>
</a>
</g>
</g>
<!-- Node1&#45;&gt;Node7 -->
<g id="edge6" class="edge"><title>Node1&#45;&gt;Node7</title>
<path fill="none" stroke="midnightblue" d="M68.5823,-503.605C96.2925,-527.62 168.845,-590.499 203.517,-620.548"/>
<polygon fill="midnightblue" stroke="midnightblue" points="201.617,-623.533 211.466,-627.437 206.201,-618.243 201.617,-623.533"/>
</g>
<!-- Node11 -->
<g id="node11" class="node"><title>Node11</title>
<g id="a_node11"><a xlink:href="../../d2/df7/class_script_1_1_c_struct.html#a42a803452add452cf735c191a1816b14" target="_top" xlink:title=" ">
<polygon fill="white" stroke="black" points="159.5,-703.5 159.5,-722.5 287.5,-722.5 287.5,-703.5 159.5,-703.5"/>
<text text-anchor="middle" x="223.5" y="-710.5" font-family="Helvetica,sans-Serif" font-size="10.00">Script::CStruct::GetString</text>
</a>
</g>
</g>
<!-- Node1&#45;&gt;Node11 -->
<g id="edge13" class="edge"><title>Node1&#45;&gt;Node11</title>
<path fill="none" stroke="midnightblue" d="M60.1822,-503.839C68.6149,-533.171 97.1577,-621.24 149,-674 159.428,-684.613 173.363,-692.999 186.295,-699.232"/>
<polygon fill="midnightblue" stroke="midnightblue" points="184.917,-702.45 195.47,-703.392 187.807,-696.075 184.917,-702.45"/>
</g>
<!-- Node14 -->
<g id="node14" class="node"><title>Node14</title>
<g id="a_node14"><a xlink:href="../../dc/da6/namespace_pip.html#a7070f1871d5765bd959912b9dfb4501c" target="_top" xlink:title=" ">
<polygon fill="white" stroke="black" points="187,-342.5 187,-361.5 260,-361.5 260,-342.5 187,-342.5"/>
<text text-anchor="middle" x="223.5" y="-349.5" font-family="Helvetica,sans-Serif" font-size="10.00">Pip::LoadPre</text>
</a>
</g>
</g>
<!-- Node1&#45;&gt;Node14 -->
<g id="edge21" class="edge"><title>Node1&#45;&gt;Node14</title>
<path fill="none" stroke="midnightblue" d="M68.5823,-484.462C96.1593,-460.73 168.148,-398.775 203.015,-368.769"/>
<polygon fill="midnightblue" stroke="midnightblue" points="205.733,-371.047 211.03,-361.872 201.167,-365.742 205.733,-371.047"/>
</g>
<!-- Node27 -->
<g id="node27" class="node"><title>Node27</title>
<g id="a_node27"><a xlink:href="../../d2/d0a/class_mem_1_1_manager.html#a3aefd91781b7f41d35e6df6a32d379d0" target="_top" xlink:title=" ">
<polygon fill="white" stroke="black" points="348,-0.5 348,-19.5 471,-19.5 471,-0.5 348,-0.5"/>
<text text-anchor="middle" x="409.5" y="-7.5" font-family="Helvetica,sans-Serif" font-size="10.00">Mem::Manager::sHandle</text>
</a>
</g>
</g>
<!-- Node1&#45;&gt;Node27 -->
<g id="edge41" class="edge"><title>Node1&#45;&gt;Node27</title>
<path fill="none" stroke="midnightblue" d="M60.1024,-484.241C68.1402,-456.058 95.3281,-373.959 149,-333 203.329,-291.54 252.537,-346.027 298,-295 377.362,-205.926 254.638,-118.074 334,-29 335.587,-27.2186 337.316,-25.5932 339.159,-24.111"/>
<polygon fill="midnightblue" stroke="midnightblue" points="341.375,-26.8468 347.884,-18.4873 337.582,-20.963 341.375,-26.8468"/>
</g>
<!-- Node31 -->
<g id="node31" class="node"><title>Node31</title>
<g id="a_node31"><a xlink:href="../../d2/d0a/class_mem_1_1_manager.html#a7c4cba14870f002aee0243e16114f443" target="_top" xlink:title=" ">
<polygon fill="white" stroke="black" points="154,-266.5 154,-285.5 293,-285.5 293,-266.5 154,-266.5"/>
<text text-anchor="middle" x="223.5" y="-273.5" font-family="Helvetica,sans-Serif" font-size="10.00">Mem::Manager::PopContext</text>
</a>
</g>
</g>
<!-- Node1&#45;&gt;Node31 -->
<g id="edge39" class="edge"><title>Node1&#45;&gt;Node31</title>
<path fill="none" stroke="midnightblue" d="M59.2547,-484.305C65.4511,-452.864 89.2379,-352.718 149,-300 153.69,-295.862 159.108,-292.436 164.833,-289.599"/>
<polygon fill="midnightblue" stroke="midnightblue" points="166.244,-292.802 174.022,-285.608 163.456,-286.381 166.244,-292.802"/>
</g>
<!-- Node32 -->
<g id="node32" class="node"><title>Node32</title>
<g id="a_node32"><a xlink:href="../../d2/d0a/class_mem_1_1_manager.html#aaf8e36abc36eecabe46bf2582035192a" target="_top" xlink:title=" ">
<polygon fill="white" stroke="black" points="151.5,-228.5 151.5,-247.5 295.5,-247.5 295.5,-228.5 151.5,-228.5"/>
<text text-anchor="middle" x="223.5" y="-235.5" font-family="Helvetica,sans-Serif" font-size="10.00">Mem::Manager::PushContext</text>
</a>
</g>
</g>
<!-- Node1&#45;&gt;Node32 -->
<g id="edge40" class="edge"><title>Node1&#45;&gt;Node32</title>
<path fill="none" stroke="midnightblue" d="M58.2037,-484.112C61.3326,-447.848 77.201,-320.952 149,-257 150.759,-255.433 152.631,-253.992 154.591,-252.668"/>
<polygon fill="midnightblue" stroke="midnightblue" points="156.666,-255.517 163.677,-247.574 153.242,-249.411 156.666,-255.517"/>
</g>
<!-- Node4 -->
<g id="node4" class="node"><title>Node4</title>
<g id="a_node4"><a xlink:href="../../d1/d54/namespace_script.html#a5cc52c4ff5ea5bb27681d819212dfdca" target="_top" xlink:title=" ">
<polygon fill="white" stroke="black" points="842,-684.5 842,-703.5 1005,-703.5 1005,-684.5 842,-684.5"/>
<text text-anchor="middle" x="923.5" y="-691.5" font-family="Helvetica,sans-Serif" font-size="10.00">Script::FindChecksumNameNULL</text>
</a>
</g>
</g>
<!-- Node3&#45;&gt;Node4 -->
<g id="edge3" class="edge"><title>Node3&#45;&gt;Node4</title>
<path fill="none" stroke="midnightblue" d="M806.124,-694C814.476,-694 823.107,-694 831.717,-694"/>
<polygon fill="midnightblue" stroke="midnightblue" points="831.798,-697.5 841.798,-694 831.798,-690.5 831.798,-697.5"/>
</g>
<!-- Node6 -->
<g id="node6" class="node"><title>Node6</title>
<g id="a_node6"><a xlink:href="../../da/d37/namespace_dbg.html#ab406a8cc16de5046c7d9fd09c9de5e22" target="_top" xlink:title=" ">
<polygon fill="white" stroke="black" points="890.5,-494.5 890.5,-513.5 956.5,-513.5 956.5,-494.5 890.5,-494.5"/>
<text text-anchor="middle" x="923.5" y="-501.5" font-family="Helvetica,sans-Serif" font-size="10.00">Dbg::sprintf</text>
</a>
</g>
</g>
<!-- Node3&#45;&gt;Node6 -->
<g id="edge5" class="edge"><title>Node3&#45;&gt;Node6</title>
<path fill="none" stroke="midnightblue" d="M750.128,-684.466C764.268,-673.573 787.611,-654.928 806,-637 845.69,-598.303 887.356,-548.019 908.46,-521.751"/>
<polygon fill="midnightblue" stroke="midnightblue" points="911.292,-523.813 914.796,-513.815 905.821,-519.446 911.292,-523.813"/>
</g>
<!-- Node5 -->
<g id="node5" class="node"><title>Node5</title>
<g id="a_node5"><a xlink:href="../../d0/d31/namespace_config.html#a709cc81780d49900157e3476b63aa25d" target="_top" xlink:title=" ">
<polygon fill="white" stroke="black" points="1041,-684.5 1041,-703.5 1165,-703.5 1165,-684.5 1041,-684.5"/>
<text text-anchor="middle" x="1103" y="-691.5" font-family="Helvetica,sans-Serif" font-size="10.00">Config::GotExtraMemory</text>
</a>
</g>
</g>
<!-- Node4&#45;&gt;Node5 -->
<g id="edge4" class="edge"><title>Node4&#45;&gt;Node5</title>
<path fill="none" stroke="midnightblue" d="M1005.2,-694C1013.73,-694 1022.36,-694 1030.77,-694"/>
<polygon fill="midnightblue" stroke="midnightblue" points="1030.9,-697.5 1040.9,-694 1030.9,-690.5 1030.9,-697.5"/>
</g>
<!-- Node7&#45;&gt;Node3 -->
<g id="edge7" class="edge"><title>Node7&#45;&gt;Node3</title>
<path fill="none" stroke="midnightblue" d="M298.155,-641.957C379.759,-647.897 515.135,-659.082 631,-675 646.36,-677.11 662.904,-679.884 678.196,-682.658"/>
<polygon fill="midnightblue" stroke="midnightblue" points="677.57,-686.101 688.039,-684.473 678.84,-679.217 677.57,-686.101"/>
</g>
<!-- Node7&#45;&gt;Node7 -->
<g id="edge8" class="edge"><title>Node7&#45;&gt;Node7</title>
<path fill="none" stroke="midnightblue" d="M197.915,-646.757C185.468,-655.565 193.996,-665 223.5,-665 243.323,-665 253.677,-660.741 254.563,-655.275"/>
<polygon fill="midnightblue" stroke="midnightblue" points="257.438,-653.275 249.085,-646.757 251.551,-657.061 257.438,-653.275"/>
</g>
<!-- Node8 -->
<g id="node8" class="node"><title>Node8</title>
<g id="a_node8"><a xlink:href="../../d1/d54/namespace_script.html#a0d003ee93577e31adb6597bce0002009" target="_top" xlink:title=" ">
<polygon fill="white" stroke="black" points="356,-684.5 356,-703.5 463,-703.5 463,-684.5 356,-684.5"/>
<text text-anchor="middle" x="409.5" y="-691.5" font-family="Helvetica,sans-Serif" font-size="10.00">Script::PrintContents</text>
</a>
</g>
</g>
<!-- Node7&#45;&gt;Node8 -->
<g id="edge9" class="edge"><title>Node7&#45;&gt;Node8</title>
<path fill="none" stroke="midnightblue" d="M255.297,-646.541C286.211,-656.117 333.998,-670.921 367.974,-681.446"/>
<polygon fill="midnightblue" stroke="midnightblue" points="367.014,-684.812 377.602,-684.428 369.086,-678.126 367.014,-684.812"/>
</g>
<!-- Node9 -->
<g id="node9" class="node"><title>Node9</title>
<g id="a_node9"><a xlink:href="../../d1/d54/namespace_script.html#a43181580ea5d38e4bf1aa19ccd5e9e85" target="_top" xlink:title=" ">
<polygon fill="white" stroke="black" points="535,-608.5 535,-627.5 617,-627.5 617,-608.5 535,-608.5"/>
<text text-anchor="middle" x="576" y="-615.5" font-family="Helvetica,sans-Serif" font-size="10.00">Script::Resolve</text>
</a>
</g>
</g>
<!-- Node7&#45;&gt;Node9 -->
<g id="edge10" class="edge"><title>Node7&#45;&gt;Node9</title>
<path fill="none" stroke="midnightblue" d="M298.404,-632.994C366.423,-629.307 465.477,-623.937 524.749,-620.724"/>
<polygon fill="midnightblue" stroke="midnightblue" points="525.183,-624.206 534.979,-620.169 524.804,-617.216 525.183,-624.206"/>
</g>
<!-- Node9&#45;&gt;Node3 -->
<g id="edge11" class="edge"><title>Node9&#45;&gt;Node3</title>
<path fill="none" stroke="midnightblue" d="M599.168,-627.593C608.969,-631.901 620.604,-637.106 631,-642 657.234,-654.35 686.788,-669.139 707.755,-679.783"/>
<polygon fill="midnightblue" stroke="midnightblue" points="706.242,-682.94 716.742,-684.358 709.418,-676.702 706.242,-682.94"/>
</g>
<!-- Node10 -->
<g id="node10" class="node"><title>Node10</title>
<g id="a_node10"><a xlink:href="../../d1/d54/namespace_script.html#af293a36c230b10de7d8151c2990b233b" target="_top" xlink:title=" ">
<polygon fill="white" stroke="black" points="679.5,-608.5 679.5,-627.5 793.5,-627.5 793.5,-608.5 679.5,-608.5"/>
<text text-anchor="middle" x="736.5" y="-615.5" font-family="Helvetica,sans-Serif" font-size="10.00">Script::LookUpSymbol</text>
</a>
</g>
</g>
<!-- Node9&#45;&gt;Node10 -->
<g id="edge12" class="edge"><title>Node9&#45;&gt;Node10</title>
<path fill="none" stroke="midnightblue" d="M617.406,-618C633.124,-618 651.549,-618 669.11,-618"/>
<polygon fill="midnightblue" stroke="midnightblue" points="669.322,-621.5 679.322,-618 669.322,-614.5 669.322,-621.5"/>
</g>
<!-- Node11&#45;&gt;Node3 -->
<g id="edge14" class="edge"><title>Node11&#45;&gt;Node3</title>
<path fill="none" stroke="midnightblue" d="M238.175,-722.722C258.112,-736.237 296.842,-760.05 334,-769 472.031,-802.248 639.749,-737.61 706.283,-707.865"/>
<polygon fill="midnightblue" stroke="midnightblue" points="708.057,-710.903 715.711,-703.578 705.159,-704.531 708.057,-710.903"/>
</g>
<!-- Node11&#45;&gt;Node8 -->
<g id="edge15" class="edge"><title>Node11&#45;&gt;Node8</title>
<path fill="none" stroke="midnightblue" d="M287.565,-706.488C306.436,-704.539 327.116,-702.404 345.953,-700.459"/>
<polygon fill="midnightblue" stroke="midnightblue" points="346.323,-703.939 355.911,-699.43 345.604,-696.976 346.323,-703.939"/>
</g>
<!-- Node12 -->
<g id="node12" class="node"><title>Node12</title>
<g id="a_node12"><a xlink:href="../../d2/df7/class_script_1_1_c_struct.html#a1e05f0a66cff4a700fb67fdc117d2d7f" target="_top" xlink:title=" ">
<polygon fill="white" stroke="black" points="343.5,-722.5 343.5,-741.5 475.5,-741.5 475.5,-722.5 343.5,-722.5"/>
<text text-anchor="middle" x="409.5" y="-729.5" font-family="Helvetica,sans-Serif" font-size="10.00">Script::CStruct::search_for</text>
</a>
</g>
</g>
<!-- Node11&#45;&gt;Node12 -->
<g id="edge16" class="edge"><title>Node11&#45;&gt;Node12</title>
<path fill="none" stroke="midnightblue" d="M287.565,-719.512C302.188,-721.022 317.897,-722.644 332.993,-724.203"/>
<polygon fill="midnightblue" stroke="midnightblue" points="333.019,-727.724 343.326,-725.27 333.738,-720.761 333.019,-727.724"/>
</g>
<!-- Node12&#45;&gt;Node3 -->
<g id="edge17" class="edge"><title>Node12&#45;&gt;Node3</title>
<path fill="none" stroke="midnightblue" d="M475.802,-727.988C519.778,-724.89 579.015,-719.95 631,-713 646.518,-710.925 663.237,-708.137 678.653,-705.337"/>
<polygon fill="midnightblue" stroke="midnightblue" points="679.374,-708.763 688.57,-703.502 678.101,-701.879 679.374,-708.763"/>
</g>
<!-- Node12&#45;&gt;Node9 -->
<g id="edge19" class="edge"><title>Node12&#45;&gt;Node9</title>
<path fill="none" stroke="midnightblue" d="M463.672,-722.392C471.107,-719.933 478.44,-716.853 485,-713 485.071,-712.958 532.847,-662.513 558.752,-635.158"/>
<polygon fill="midnightblue" stroke="midnightblue" points="561.382,-637.471 565.717,-627.803 556.299,-632.658 561.382,-637.471"/>
</g>
<!-- Node12&#45;&gt;Node12 -->
<g id="edge20" class="edge"><title>Node12&#45;&gt;Node12</title>
<path fill="none" stroke="midnightblue" d="M383.915,-741.757C371.468,-750.565 379.996,-760 409.5,-760 429.323,-760 439.677,-755.741 440.563,-750.275"/>
<polygon fill="midnightblue" stroke="midnightblue" points="443.438,-748.275 435.085,-741.757 437.551,-752.061 443.438,-748.275"/>
</g>
<!-- Node13 -->
<g id="node13" class="node"><title>Node13</title>
<g id="a_node13"><a xlink:href="../../d1/d54/namespace_script.html#af32f99ba26ca0f255240413a4e23a754" target="_top" xlink:title=" ">
<polygon fill="white" stroke="black" points="521,-684.5 521,-703.5 631,-703.5 631,-684.5 521,-684.5"/>
<text text-anchor="middle" x="576" y="-691.5" font-family="Helvetica,sans-Serif" font-size="10.00">Script::GetTypeName</text>
</a>
</g>
</g>
<!-- Node12&#45;&gt;Node13 -->
<g id="edge18" class="edge"><title>Node12&#45;&gt;Node13</title>
<path fill="none" stroke="midnightblue" d="M452.01,-722.411C473.816,-717.374 500.732,-711.156 523.819,-705.823"/>
<polygon fill="midnightblue" stroke="midnightblue" points="524.833,-709.181 533.788,-703.52 523.257,-702.361 524.833,-709.181"/>
</g>
<!-- Node14&#45;&gt;Node6 -->
<g id="edge35" class="edge"><title>Node14&#45;&gt;Node6</title>
<path fill="none" stroke="midnightblue" d="M260.208,-349.186C331.754,-344.522 497.268,-338.645 631,-371 736.176,-396.446 849.829,-460.018 898.344,-489.08"/>
<polygon fill="midnightblue" stroke="midnightblue" points="896.789,-492.229 907.157,-494.41 900.412,-486.24 896.789,-492.229"/>
</g>
<!-- Node15 -->
<g id="node15" class="node"><title>Node15</title>
<g id="a_node15"><a xlink:href="../../de/d10/namespace_file.html#ac6844fea70c9b3e01f64185c189e7c65" target="_top" xlink:title=" ">
<polygon fill="white" stroke="black" points="335.5,-304.5 335.5,-323.5 483.5,-323.5 483.5,-304.5 335.5,-304.5"/>
<text text-anchor="middle" x="409.5" y="-311.5" font-family="Helvetica,sans-Serif" font-size="10.00">File::CanFileBeLoadedQuickly</text>
</a>
</g>
</g>
<!-- Node14&#45;&gt;Node15 -->
<g id="edge22" class="edge"><title>Node14&#45;&gt;Node15</title>
<path fill="none" stroke="midnightblue" d="M260.414,-344.583C286.536,-339.188 322.412,-331.779 352.31,-325.605"/>
<polygon fill="midnightblue" stroke="midnightblue" points="353.112,-329.013 362.197,-323.563 351.696,-322.158 353.112,-329.013"/>
</g>
<!-- Node16 -->
<g id="node16" class="node"><title>Node16</title>
<g id="a_node16"><a xlink:href="../../de/d10/namespace_file.html#af5cd83b01fc5f341f767beb7c0b1130c" target="_top" xlink:title=" ">
<polygon fill="white" stroke="black" points="378,-266.5 378,-285.5 441,-285.5 441,-266.5 378,-266.5"/>
<text text-anchor="middle" x="409.5" y="-273.5" font-family="Helvetica,sans-Serif" font-size="10.00">File::Close</text>
</a>
</g>
</g>
<!-- Node14&#45;&gt;Node16 -->
<g id="edge23" class="edge"><title>Node14&#45;&gt;Node16</title>
<path fill="none" stroke="midnightblue" d="M260.205,-343.669C272.659,-339.915 286.41,-334.772 298,-328 316.741,-317.05 314.909,-305.326 334,-295 344.443,-289.352 356.622,-285.335 368.071,-282.497"/>
<polygon fill="midnightblue" stroke="midnightblue" points="368.891,-285.9 377.882,-280.296 367.359,-279.07 368.891,-285.9"/>
</g>
<!-- Node17 -->
<g id="node17" class="node"><title>Node17</title>
<g id="a_node17"><a xlink:href="../../d7/d4d/compress_8cpp.html#af050b8718250d1fa152b1eab079a0462" target="_top" xlink:title=" ">
<polygon fill="white" stroke="black" points="372.5,-228.5 372.5,-247.5 446.5,-247.5 446.5,-228.5 372.5,-228.5"/>
<text text-anchor="middle" x="409.5" y="-235.5" font-family="Helvetica,sans-Serif" font-size="10.00">DecodeLZSS</text>
</a>
</g>
</g>
<!-- Node14&#45;&gt;Node17 -->
<g id="edge24" class="edge"><title>Node14&#45;&gt;Node17</title>
<path fill="none" stroke="midnightblue" d="M260.254,-346.273C273.282,-342.749 287.4,-337.085 298,-328 324.864,-304.976 306.392,-279.126 334,-257 342.124,-250.489 352.214,-246.182 362.317,-243.34"/>
<polygon fill="midnightblue" stroke="midnightblue" points="363.431,-246.673 372.353,-240.959 361.815,-239.862 363.431,-246.673"/>
</g>
<!-- Node18 -->
<g id="node18" class="node"><title>Node18</title>
<g id="a_node18"><a xlink:href="../../db/dc4/namespace_mem.html#aeedb606ea94a3398fdcfa3101c5ea8d9" target="_top" xlink:title=" ">
<polygon fill="white" stroke="black" points="377.5,-190.5 377.5,-209.5 441.5,-209.5 441.5,-190.5 377.5,-190.5"/>
<text text-anchor="middle" x="409.5" y="-197.5" font-family="Helvetica,sans-Serif" font-size="10.00">Mem::Free</text>
</a>
</g>
</g>
<!-- Node14&#45;&gt;Node18 -->
<g id="edge25" class="edge"><title>Node14&#45;&gt;Node18</title>
<path fill="none" stroke="midnightblue" d="M260.251,-347.282C273.588,-343.885 287.922,-338.044 298,-328 334.136,-291.986 296.697,-253.804 334,-219 343.073,-210.534 355.382,-205.712 367.38,-203.002"/>
<polygon fill="midnightblue" stroke="midnightblue" points="368.097,-206.429 377.306,-201.19 366.84,-199.543 368.097,-206.429"/>
</g>
<!-- Node19 -->
<g id="node19" class="node"><title>Node19</title>
<g id="a_node19"><a xlink:href="../../de/d10/namespace_file.html#a42faef384ac438a449656a07258cdbec" target="_top" xlink:title=" ">
<polygon fill="white" stroke="black" points="365,-152.5 365,-171.5 454,-171.5 454,-152.5 365,-152.5"/>
<text text-anchor="middle" x="409.5" y="-159.5" font-family="Helvetica,sans-Serif" font-size="10.00">File::GetFileSize</text>
</a>
</g>
</g>
<!-- Node14&#45;&gt;Node19 -->
<g id="edge26" class="edge"><title>Node14&#45;&gt;Node19</title>
<path fill="none" stroke="midnightblue" d="M260.288,-347.777C273.791,-344.453 288.234,-338.532 298,-328 343.735,-278.677 286.665,-228.789 334,-181 339.81,-175.134 347.161,-170.994 354.97,-168.088"/>
<polygon fill="midnightblue" stroke="midnightblue" points="356.114,-171.398 364.649,-165.121 354.062,-164.705 356.114,-171.398"/>
</g>
<!-- Node20 -->
<g id="node20" class="node"><title>Node20</title>
<g id="a_node20"><a xlink:href="../../de/d10/namespace_file.html#abe7f50922fc903be4e6a9254f8526fa6" target="_top" xlink:title=" ">
<polygon fill="white" stroke="black" points="340.5,-114.5 340.5,-133.5 478.5,-133.5 478.5,-114.5 340.5,-114.5"/>
<text text-anchor="middle" x="409.5" y="-121.5" font-family="Helvetica,sans-Serif" font-size="10.00">File::LoadFileQuicklyPlease</text>
</a>
</g>
</g>
<!-- Node14&#45;&gt;Node20 -->
<g id="edge27" class="edge"><title>Node14&#45;&gt;Node20</title>
<path fill="none" stroke="midnightblue" d="M260.168,-348.103C273.819,-344.833 288.401,-338.864 298,-328 353.465,-265.229 276.497,-203.909 334,-143 335.228,-141.699 336.533,-140.482 337.901,-139.344"/>
<polygon fill="midnightblue" stroke="midnightblue" points="340.019,-142.137 346.364,-133.652 336.112,-136.329 340.019,-142.137"/>
</g>
<!-- Node21 -->
<g id="node21" class="node"><title>Node21</title>
<g id="a_node21"><a xlink:href="../../db/dc4/namespace_mem.html#a10246603d03405159c82320b96e3efbf" target="_top" xlink:title=" ">
<polygon fill="white" stroke="black" points="373,-76.5 373,-95.5 446,-95.5 446,-76.5 373,-76.5"/>
<text text-anchor="middle" x="409.5" y="-83.5" font-family="Helvetica,sans-Serif" font-size="10.00">Mem::Malloc</text>
</a>
</g>
</g>
<!-- Node14&#45;&gt;Node21 -->
<g id="edge28" class="edge"><title>Node14&#45;&gt;Node21</title>
<path fill="none" stroke="midnightblue" d="M260.344,-348.257C274.023,-345.01 288.576,-339.017 298,-328 363.259,-251.709 266.263,-179.099 334,-105 341.516,-96.7782 352.049,-91.8978 362.832,-89.0539"/>
<polygon fill="midnightblue" stroke="midnightblue" points="363.659,-92.4566 372.727,-86.9772 362.222,-85.6059 363.659,-92.4566"/>
</g>
<!-- Node22 -->
<g id="node22" class="node"><title>Node22</title>
<g id="a_node22"><a xlink:href="../../de/d10/namespace_file.html#a180384dc852ac3b971285fc63b1287cb" target="_top" xlink:title=" ">
<polygon fill="white" stroke="black" points="378.5,-38.5 378.5,-57.5 440.5,-57.5 440.5,-38.5 378.5,-38.5"/>
<text text-anchor="middle" x="409.5" y="-45.5" font-family="Helvetica,sans-Serif" font-size="10.00">File::Open</text>
</a>
</g>
</g>
<!-- Node14&#45;&gt;Node22 -->
<g id="edge29" class="edge"><title>Node14&#45;&gt;Node22</title>
<path fill="none" stroke="midnightblue" d="M260.092,-348.454C273.9,-345.245 288.618,-339.227 298,-328 373.089,-238.147 255.991,-154.331 334,-67 342.7,-57.2598 355.633,-52.1896 368.292,-49.6424"/>
<polygon fill="midnightblue" stroke="midnightblue" points="368.949,-53.0825 378.299,-48.0995 367.883,-46.1642 368.949,-53.0825"/>
</g>
<!-- Node23 -->
<g id="node23" class="node"><title>Node23</title>
<g id="a_node23"><a xlink:href="../../df/d92/standard_8cpp.html#a5fc8fd1788f18ada61dfda9f171c5a1a" target="_top" xlink:title=" ">
<polygon fill="white" stroke="black" points="390.5,-570.5 390.5,-589.5 428.5,-589.5 428.5,-570.5 390.5,-570.5"/>
<text text-anchor="middle" x="409.5" y="-577.5" font-family="Helvetica,sans-Serif" font-size="10.00">printf</text>
</a>
</g>
</g>
<!-- Node14&#45;&gt;Node23 -->
<g id="edge30" class="edge"><title>Node14&#45;&gt;Node23</title>
<path fill="none" stroke="midnightblue" d="M226.601,-361.694C234.355,-395.062 264.59,-506.128 334,-561 347.06,-571.325 365.079,-576.099 380.124,-578.28"/>
<polygon fill="midnightblue" stroke="midnightblue" points="380.109,-581.801 390.44,-579.453 380.9,-574.846 380.109,-581.801"/>
</g>
<!-- Node24 -->
<g id="node24" class="node"><title>Node24</title>
<g id="a_node24"><a xlink:href="../../de/d10/namespace_file.html#ae5e5ed0fd4834fc2e0e1c29edc62fc02" target="_top" xlink:title=" ">
<polygon fill="white" stroke="black" points="379,-532.5 379,-551.5 440,-551.5 440,-532.5 379,-532.5"/>
<text text-anchor="middle" x="409.5" y="-539.5" font-family="Helvetica,sans-Serif" font-size="10.00">File::Read</text>
</a>
</g>
</g>
<!-- Node14&#45;&gt;Node24 -->
<g id="edge31" class="edge"><title>Node14&#45;&gt;Node24</title>
<path fill="none" stroke="midnightblue" d="M227.723,-361.54C238.079,-390.689 273.413,-479.244 334,-523 344.145,-530.327 356.85,-534.835 368.881,-537.607"/>
<polygon fill="midnightblue" stroke="midnightblue" points="368.269,-541.054 378.757,-539.551 369.621,-534.185 368.269,-541.054"/>
</g>
<!-- Node25 -->
<g id="node25" class="node"><title>Node25</title>
<g id="a_node25"><a xlink:href="../../db/dc4/namespace_mem.html#ad337a030946a8b085e6adfff402984bc" target="_top" xlink:title=" ">
<polygon fill="white" stroke="black" points="352.5,-494.5 352.5,-513.5 466.5,-513.5 466.5,-494.5 352.5,-494.5"/>
<text text-anchor="middle" x="409.5" y="-501.5" font-family="Helvetica,sans-Serif" font-size="10.00">Mem::ReallocateDown</text>
</a>
</g>
</g>
<!-- Node14&#45;&gt;Node25 -->
<g id="edge32" class="edge"><title>Node14&#45;&gt;Node25</title>
<path fill="none" stroke="midnightblue" d="M229.644,-361.818C243.161,-386.616 282.243,-452.127 334,-485 337.327,-487.113 340.879,-488.992 344.557,-490.662"/>
<polygon fill="midnightblue" stroke="midnightblue" points="343.326,-493.939 353.911,-494.398 345.923,-487.438 343.326,-493.939"/>
</g>
<!-- Node26 -->
<g id="node26" class="node"><title>Node26</title>
<g id="a_node26"><a xlink:href="../../db/dc4/namespace_mem.html#a776e90d252cea44576a3ff9551dc70bd" target="_top" xlink:title=" ">
<polygon fill="white" stroke="black" points="358.5,-456.5 358.5,-475.5 460.5,-475.5 460.5,-456.5 358.5,-456.5"/>
<text text-anchor="middle" x="409.5" y="-463.5" font-family="Helvetica,sans-Serif" font-size="10.00">Mem::ReallocateUp</text>
</a>
</g>
</g>
<!-- Node14&#45;&gt;Node26 -->
<g id="edge33" class="edge"><title>Node14&#45;&gt;Node26</title>
<path fill="none" stroke="midnightblue" d="M232.782,-361.735C249.744,-381.034 290.518,-424.243 334,-447 338.612,-449.414 343.548,-451.533 348.602,-453.392"/>
<polygon fill="midnightblue" stroke="midnightblue" points="347.819,-456.82 358.413,-456.653 350.028,-450.177 347.819,-456.82"/>
</g>
<!-- Node14&#45;&gt;Node27 -->
<g id="edge34" class="edge"><title>Node14&#45;&gt;Node27</title>
<path fill="none" stroke="midnightblue" d="M260.188,-348.533C274.012,-345.337 288.715,-339.308 298,-328 382.942,-224.557 245.696,-129.588 334,-29 335.574,-27.2069 337.292,-25.5716 339.125,-24.0808"/>
<polygon fill="midnightblue" stroke="midnightblue" points="341.342,-26.814 347.818,-18.4285 337.526,-20.9455 341.342,-26.814"/>
</g>
<!-- Node28 -->
<g id="node28" class="node"><title>Node28</title>
<g id="a_node28"><a xlink:href="../../dc/da6/namespace_pip.html#a6c6e728b6a1c4fb95c42685ea87c1595" target="_top" xlink:title=" ">
<polygon fill="white" stroke="black" points="348.5,-418.5 348.5,-437.5 470.5,-437.5 470.5,-418.5 348.5,-418.5"/>
<text text-anchor="middle" x="409.5" y="-425.5" font-family="Helvetica,sans-Serif" font-size="10.00">Pip::sSkipOverPreName</text>
</a>
</g>
</g>
<!-- Node14&#45;&gt;Node28 -->
<g id="edge36" class="edge"><title>Node14&#45;&gt;Node28</title>
<path fill="none" stroke="midnightblue" d="M240.284,-361.703C261.096,-374.144 299.163,-395.695 334,-409 340.367,-411.432 347.158,-413.649 353.951,-415.642"/>
<polygon fill="midnightblue" stroke="midnightblue" points="353.283,-419.089 363.855,-418.398 355.16,-412.345 353.283,-419.089"/>
</g>
<!-- Node29 -->
<g id="node29" class="node"><title>Node29</title>
<g id="a_node29"><a xlink:href="../../dc/da6/namespace_pip.html#ad13f3a67a255c337fb112e50b435ea3e" target="_top" xlink:title=" ">
<polygon fill="white" stroke="black" points="334,-380.5 334,-399.5 485,-399.5 485,-380.5 334,-380.5"/>
<text text-anchor="middle" x="409.5" y="-387.5" font-family="Helvetica,sans-Serif" font-size="10.00">Pip::sSkipToNextPreContained</text>
</a>
</g>
</g>
<!-- Node14&#45;&gt;Node29 -->
<g id="edge37" class="edge"><title>Node14&#45;&gt;Node29</title>
<path fill="none" stroke="midnightblue" d="M260.414,-359.417C286.536,-364.812 322.412,-372.221 352.31,-378.395"/>
<polygon fill="midnightblue" stroke="midnightblue" points="351.696,-381.842 362.197,-380.437 353.112,-374.987 351.696,-381.842"/>
</g>
<!-- Node30 -->
<g id="node30" class="node"><title>Node30</title>
<g id="a_node30"><a xlink:href="../../da/d37/namespace_dbg.html#a8270231090dad0898d8f3eb5cd232b0d" target="_top" xlink:title=" ">
<polygon fill="white" stroke="black" points="554,-380.5 554,-399.5 598,-399.5 598,-380.5 554,-380.5"/>
<text text-anchor="middle" x="576" y="-387.5" font-family="Helvetica,sans-Serif" font-size="10.00">Dbg::if</text>
</a>
</g>
</g>
<!-- Node29&#45;&gt;Node30 -->
<g id="edge38" class="edge"><title>Node29&#45;&gt;Node30</title>
<path fill="none" stroke="midnightblue" d="M485.049,-390C505.69,-390 526.984,-390 543.669,-390"/>
<polygon fill="midnightblue" stroke="midnightblue" points="543.915,-393.5 553.915,-390 543.915,-386.5 543.915,-393.5"/>
</g>
</g>
</svg>
        <g id="navigator" transform="translate(0 0)" fill="#404254">
                <rect fill="#f2f5e9" fill-opacity="0.5" stroke="#606060" stroke-width=".5" x="0" y="0" width="60" height="60"/>
                <use id="zoomplus" xlink:href="#zoomPlus" x="17" y="9" onmousedown="handleZoom(evt,'in')"/>
                <use id="zoomminus" xlink:href="#zoomMin" x="42" y="9" onmousedown="handleZoom(evt,'out')"/>
                <use id="reset" xlink:href="#resetDef" x="30" y="36" onmousedown="handleReset()"/>
                <g id="arrowUp" xlink:href="#dirArrow" transform="translate(30 24)" onmousedown="handlePan(0,-1)">
                  <use xlink:href="#rim" fill="#404040">
                        <set attributeName="fill" to="#808080" begin="arrowUp.mouseover" end="arrowUp.mouseout"/>
                  </use>
                  <path fill="none" stroke="white" stroke-width="1.5" d="M0,-3.0v7 M-2.5,-0.5L0,-3.0L2.5,-0.5"/>
                </g>
                <g id="arrowRight" xlink:href="#dirArrow" transform="rotate(90) translate(36 -43)" onmousedown="handlePan(1,0)">
                  <use xlink:href="#rim" fill="#404040">
                        <set attributeName="fill" to="#808080" begin="arrowRight.mouseover" end="arrowRight.mouseout"/>
                  </use>
                  <path fill="none" stroke="white" stroke-width="1.5" d="M0,-3.0v7 M-2.5,-0.5L0,-3.0L2.5,-0.5"/>
                </g>
                <g id="arrowDown" xlink:href="#dirArrow" transform="rotate(180) translate(-30 -48)" onmousedown="handlePan(0,1)">
                  <use xlink:href="#rim" fill="#404040">
                        <set attributeName="fill" to="#808080" begin="arrowDown.mouseover" end="arrowDown.mouseout"/>
                  </use>
                  <path fill="none" stroke="white" stroke-width="1.5" d="M0,-3.0v7 M-2.5,-0.5L0,-3.0L2.5,-0.5"/>
                </g>
                <g id="arrowLeft" xlink:href="#dirArrow" transform="rotate(270) translate(-36 17)" onmousedown="handlePan(-1,0)">
                  <use xlink:href="#rim" fill="#404040">
                        <set attributeName="fill" to="#808080" begin="arrowLeft.mouseover" end="arrowLeft.mouseout"/>
                  </use>
                  <path fill="none" stroke="white" stroke-width="1.5" d="M0,-3.0v7 M-2.5,-0.5L0,-3.0L2.5,-0.5"/>
                </g>
        </g>
        <svg viewBox="0 0 15 15" width="100%" height="30px" preserveAspectRatio="xMaxYMin meet">
         <g id="arrow_out" transform="scale(0.3 0.3)">
          <a xlink:href="namespace_pip_a913708a28bcc0de071ba684f16d59500_cgraph_org.svg" target="_base">
           <rect id="button" ry="5" rx="5" y="6" x="6" height="38" width="38"
                fill="#f2f5e9" fill-opacity="0.5" stroke="#606060" stroke-width="1.0"/>
           <path id="arrow"
             d="M 11.500037,31.436501 C 11.940474,20.09759 22.043105,11.32322 32.158766,21.979434 L 37.068811,17.246167 C 37.068811,17.246167 37.088388,32 37.088388,32 L 22.160133,31.978069 C 22.160133,31.978069 26.997745,27.140456 26.997745,27.140456 C 18.528582,18.264221 13.291696,25.230495 11.500037,31.436501 z"
             style="fill:#404040;"/>
          </a>
         </g>
        </svg>
</svg>
