<?xml version="1.0" encoding="UTF-8" standalone="no"?>
<!DOCTYPE svg PUBLIC "-//W3C//DTD SVG 1.1//EN"
 "http://www.w3.org/Graphics/SVG/1.1/DTD/svg11.dtd">
<!-- Generated by graphviz version 2.38.0 (20140413.2041)
 -->
<!-- Title: Obj::CRailEditorComponent::ClearRailColor Pages: 1 -->
<!--zoomable 118 -->
<svg id="main" version="1.1" xmlns="http://www.w3.org/2000/svg" xmlns:xlink="http://www.w3.org/1999/xlink" xml:space="preserve" onload="init(evt)">
<style type="text/css"><![CDATA[
.edge:hover path { stroke: red; }
.edge:hover polygon { stroke: red; fill: red; }
]]></style>
<script type="text/javascript"><![CDATA[
var edges = document.getElementsByTagName('g');
if (edges && edges.length) {
  for (var i=0;i<edges.length;i++) {
    if (edges[i].id.substr(0,4)=='edge') {
      edges[i].setAttribute('class','edge');
    }
  }
}
]]></script>
        <defs>
                <circle id="rim" cx="0" cy="0" r="7"/>
                <circle id="rim2" cx="0" cy="0" r="3.5"/>
                <g id="zoomPlus">
                        <use xlink:href="#rim" fill="#404040">
                                <set attributeName="fill" to="#808080" begin="zoomplus.mouseover" end="zoomplus.mouseout"/>
                        </use>
                        <path d="M-4,0h8M0,-4v8" fill="none" stroke="white" stroke-width="1.5" pointer-events="none"/>
                </g>
                <g id="zoomMin">
                        <use xlink:href="#rim" fill="#404040">
                                <set attributeName="fill" to="#808080" begin="zoomminus.mouseover" end="zoomminus.mouseout"/>
                        </use>
                        <path d="M-4,0h8" fill="none" stroke="white" stroke-width="1.5" pointer-events="none"/>
                </g>
                <g id="dirArrow">
                        <path fill="none" stroke="white" stroke-width="1.5" d="M0,-3.0v7 M-2.5,-0.5L0,-3.0L2.5,-0.5"/>
                </g>
               <g id="resetDef">
                       <use xlink:href="#rim2" fill="#404040">
                               <set attributeName="fill" to="#808080" begin="reset.mouseover" end="reset.mouseout"/>
                       </use>
               </g>
        </defs>

<script type="text/javascript">
var viewWidth = 1032;
var viewHeight = 118;
var sectionId = 'dynsection-62';
</script>
<script xlink:href="../../svgpan.js"/>
<svg id="graph" class="graph">
<g id="viewport">
<title>Obj::CRailEditorComponent::ClearRailColor</title>
<polygon fill="white" stroke="none" points="-4,4 -4,-113.5 1028,-113.5 1028,4 -4,4"/>
<!-- Node1 -->
<g id="node1" class="node"><title>Node1</title>
<g id="a_node1"><a xlink:title=" ">
<polygon fill="#bfbfbf" stroke="black" points="0,-54 0,-84 136,-84 136,-54 0,-54"/>
<text text-anchor="start" x="8" y="-72" font-family="Helvetica,sans-Serif" font-size="10.00">Obj::CRailEditorComponent</text>
<text text-anchor="middle" x="68" y="-61" font-family="Helvetica,sans-Serif" font-size="10.00">::ClearRailColor</text>
</a>
</g>
</g>
<!-- Node2 -->
<g id="node2" class="node"><title>Node2</title>
<g id="a_node2"><a xlink:href="../../d0/d63/class_obj_1_1_c_edited_rail.html#a19b1146817cf059969d3e5d55397b1d2" target="_top" xlink:title=" ">
<polygon fill="white" stroke="black" points="176,-79 176,-109 310,-109 310,-79 176,-79"/>
<text text-anchor="start" x="184" y="-97" font-family="Helvetica,sans-Serif" font-size="10.00">Obj::CEditedRail::ClearRail</text>
<text text-anchor="middle" x="243" y="-86" font-family="Helvetica,sans-Serif" font-size="10.00">Color</text>
</a>
</g>
</g>
<!-- Node1&#45;&gt;Node2 -->
<g id="edge1" class="edge"><title>Node1&#45;&gt;Node2</title>
<path fill="none" stroke="midnightblue" d="M136.382,-78.7372C146.028,-80.1313 156.009,-81.5736 165.811,-82.99"/>
<polygon fill="midnightblue" stroke="midnightblue" points="165.541,-86.4873 175.939,-84.4536 166.542,-79.5592 165.541,-86.4873"/>
</g>
<!-- Node8 -->
<g id="node8" class="node"><title>Node8</title>
<g id="a_node8"><a xlink:href="../../dc/d9e/class_obj_1_1_c_rail_editor_component.html#ac636f6c98d19f2357753d83a99d7a6b6" target="_top" xlink:title=" ">
<polygon fill="white" stroke="black" points="172,-30 172,-60 314,-60 314,-30 172,-30"/>
<text text-anchor="start" x="180" y="-48" font-family="Helvetica,sans-Serif" font-size="10.00">Obj::CRailEditorComponent</text>
<text text-anchor="middle" x="243" y="-37" font-family="Helvetica,sans-Serif" font-size="10.00">::get_rail_from_cluster_name</text>
</a>
</g>
</g>
<!-- Node1&#45;&gt;Node8 -->
<g id="edge7" class="edge"><title>Node1&#45;&gt;Node8</title>
<path fill="none" stroke="midnightblue" d="M136.382,-59.6523C144.769,-58.4887 153.409,-57.2901 161.964,-56.1032"/>
<polygon fill="midnightblue" stroke="midnightblue" points="162.524,-59.5592 171.948,-54.7182 161.562,-52.6256 162.524,-59.5592"/>
</g>
<!-- Node3 -->
<g id="node3" class="node"><title>Node3</title>
<g id="a_node3"><a xlink:href="../../dd/d97/class_obj_1_1_c_edited_rail_point.html#a739a3fe9c5e2cdf706ba546a5b49652a" target="_top" xlink:title=" ">
<polygon fill="white" stroke="black" points="350,-79 350,-109 461,-109 461,-79 350,-79"/>
<text text-anchor="start" x="358" y="-97" font-family="Helvetica,sans-Serif" font-size="10.00">Obj::CEditedRailPoint</text>
<text text-anchor="middle" x="405.5" y="-86" font-family="Helvetica,sans-Serif" font-size="10.00">::ClearColor</text>
</a>
</g>
</g>
<!-- Node2&#45;&gt;Node3 -->
<g id="edge2" class="edge"><title>Node2&#45;&gt;Node3</title>
<path fill="none" stroke="midnightblue" d="M310.208,-94C319.847,-94 329.765,-94 339.382,-94"/>
<polygon fill="midnightblue" stroke="midnightblue" points="339.672,-97.5001 349.672,-94 339.672,-90.5001 339.672,-97.5001"/>
</g>
<!-- Node4 -->
<g id="node4" class="node"><title>Node4</title>
<g id="a_node4"><a xlink:href="../../d3/d55/class_nx_1_1_c_sector.html#a8e8aa937136773a1160aef7426d1479b" target="_top" xlink:title=" ">
<polygon fill="white" stroke="black" points="509.5,-84.5 509.5,-103.5 630.5,-103.5 630.5,-84.5 509.5,-84.5"/>
<text text-anchor="middle" x="570" y="-91.5" font-family="Helvetica,sans-Serif" font-size="10.00">Nx::CSector::ClearColor</text>
</a>
</g>
</g>
<!-- Node3&#45;&gt;Node4 -->
<g id="edge3" class="edge"><title>Node3&#45;&gt;Node4</title>
<path fill="none" stroke="midnightblue" d="M461.062,-94C473.285,-94 486.414,-94 499.161,-94"/>
<polygon fill="midnightblue" stroke="midnightblue" points="499.277,-97.5001 509.277,-94 499.277,-90.5001 499.277,-97.5001"/>
</g>
<!-- Node5 -->
<g id="node5" class="node"><title>Node5</title>
<g id="a_node5"><a xlink:href="../../d8/dd6/class_nx_1_1_c_geom.html#a4699a2fc9d6ee4bcb1f5ff37ff8acc9d" target="_top" xlink:title=" ">
<polygon fill="white" stroke="black" points="679,-84.5 679,-103.5 798,-103.5 798,-84.5 679,-84.5"/>
<text text-anchor="middle" x="738.5" y="-91.5" font-family="Helvetica,sans-Serif" font-size="10.00">Nx::CGeom::ClearColor</text>
</a>
</g>
</g>
<!-- Node4&#45;&gt;Node5 -->
<g id="edge4" class="edge"><title>Node4&#45;&gt;Node5</title>
<path fill="none" stroke="midnightblue" d="M630.64,-94C643.01,-94 656.137,-94 668.801,-94"/>
<polygon fill="midnightblue" stroke="midnightblue" points="668.835,-97.5001 678.835,-94 668.835,-90.5001 668.835,-97.5001"/>
</g>
<!-- Node6 -->
<g id="node6" class="node"><title>Node6</title>
<g id="a_node6"><a xlink:href="../../d8/dd6/class_nx_1_1_c_geom.html#ae06f0b795f33e0719015ad56f255de14" target="_top" xlink:title=" ">
<polygon fill="white" stroke="black" points="834,-79 834,-109 950,-109 950,-79 834,-79"/>
<text text-anchor="start" x="842" y="-97" font-family="Helvetica,sans-Serif" font-size="10.00">Nx::CGeom::plat_clear</text>
<text text-anchor="middle" x="892" y="-86" font-family="Helvetica,sans-Serif" font-size="10.00">_color</text>
</a>
</g>
</g>
<!-- Node5&#45;&gt;Node6 -->
<g id="edge5" class="edge"><title>Node5&#45;&gt;Node6</title>
<path fill="none" stroke="midnightblue" d="M798.074,-94C806.361,-94 814.938,-94 823.379,-94"/>
<polygon fill="midnightblue" stroke="midnightblue" points="823.579,-97.5001 833.579,-94 823.579,-90.5001 823.579,-97.5001"/>
</g>
<!-- Node7 -->
<g id="node7" class="node"><title>Node7</title>
<g id="a_node7"><a xlink:href="../../df/d92/standard_8cpp.html#a5fc8fd1788f18ada61dfda9f171c5a1a" target="_top" xlink:title=" ">
<polygon fill="white" stroke="black" points="986,-84.5 986,-103.5 1024,-103.5 1024,-84.5 986,-84.5"/>
<text text-anchor="middle" x="1005" y="-91.5" font-family="Helvetica,sans-Serif" font-size="10.00">printf</text>
</a>
</g>
</g>
<!-- Node6&#45;&gt;Node7 -->
<g id="edge6" class="edge"><title>Node6&#45;&gt;Node7</title>
<path fill="none" stroke="midnightblue" d="M950.126,-94C959.037,-94 967.892,-94 975.771,-94"/>
<polygon fill="midnightblue" stroke="midnightblue" points="975.824,-97.5001 985.824,-94 975.824,-90.5001 975.824,-97.5001"/>
</g>
<!-- Node9 -->
<g id="node9" class="node"><title>Node9</title>
<g id="a_node9"><a xlink:href="../../d1/d54/namespace_script.html#aa331360f088c15972ac441ecb8b40cd9" target="_top" xlink:title=" ">
<polygon fill="white" stroke="black" points="351.5,-38.5 351.5,-57.5 459.5,-57.5 459.5,-38.5 351.5,-38.5"/>
<text text-anchor="middle" x="405.5" y="-45.5" font-family="Helvetica,sans-Serif" font-size="10.00">Script::GenerateCRC</text>
</a>
</g>
</g>
<!-- Node8&#45;&gt;Node9 -->
<g id="edge8" class="edge"><title>Node8&#45;&gt;Node9</title>
<path fill="none" stroke="midnightblue" d="M314.398,-46.3158C323.236,-46.4811 332.237,-46.6493 340.961,-46.8124"/>
<polygon fill="midnightblue" stroke="midnightblue" points="340.987,-50.3134 351.051,-47.0009 341.118,-43.3146 340.987,-50.3134"/>
</g>
<!-- Node11 -->
<g id="node11" class="node"><title>Node11</title>
<g id="a_node11"><a xlink:href="../../da/d37/namespace_dbg.html#ab406a8cc16de5046c7d9fd09c9de5e22" target="_top" xlink:title=" ">
<polygon fill="white" stroke="black" points="372.5,-0.5 372.5,-19.5 438.5,-19.5 438.5,-0.5 372.5,-0.5"/>
<text text-anchor="middle" x="405.5" y="-7.5" font-family="Helvetica,sans-Serif" font-size="10.00">Dbg::sprintf</text>
</a>
</g>
</g>
<!-- Node8&#45;&gt;Node11 -->
<g id="edge10" class="edge"><title>Node8&#45;&gt;Node11</title>
<path fill="none" stroke="midnightblue" d="M312.998,-29.9537C329.704,-26.3107 347.073,-22.523 362.133,-19.2389"/>
<polygon fill="midnightblue" stroke="midnightblue" points="363.129,-22.6041 372.153,-17.0538 361.637,-15.7649 363.129,-22.6041"/>
</g>
<!-- Node10 -->
<g id="node10" class="node"><title>Node10</title>
<g id="a_node10"><a xlink:href="../../d3/d9b/namespace_crc.html#aed1b5ad21f682b39b09782ec29f5c5cc" target="_top" xlink:title=" ">
<polygon fill="white" stroke="black" points="497,-38.5 497,-57.5 643,-57.5 643,-38.5 497,-38.5"/>
<text text-anchor="middle" x="570" y="-45.5" font-family="Helvetica,sans-Serif" font-size="10.00">Crc::GenerateCRCFromString</text>
</a>
</g>
</g>
<!-- Node9&#45;&gt;Node10 -->
<g id="edge9" class="edge"><title>Node9&#45;&gt;Node10</title>
<path fill="none" stroke="midnightblue" d="M459.709,-48C468.317,-48 477.404,-48 486.512,-48"/>
<polygon fill="midnightblue" stroke="midnightblue" points="486.779,-51.5001 496.779,-48 486.779,-44.5001 486.779,-51.5001"/>
</g>
</g>
</svg>
        <g id="navigator" transform="translate(0 0)" fill="#404254">
                <rect fill="#f2f5e9" fill-opacity="0.5" stroke="#606060" stroke-width=".5" x="0" y="0" width="60" height="60"/>
                <use id="zoomplus" xlink:href="#zoomPlus" x="17" y="9" onmousedown="handleZoom(evt,'in')"/>
                <use id="zoomminus" xlink:href="#zoomMin" x="42" y="9" onmousedown="handleZoom(evt,'out')"/>
                <use id="reset" xlink:href="#resetDef" x="30" y="36" onmousedown="handleReset()"/>
                <g id="arrowUp" xlink:href="#dirArrow" transform="translate(30 24)" onmousedown="handlePan(0,-1)">
                  <use xlink:href="#rim" fill="#404040">
                        <set attributeName="fill" to="#808080" begin="arrowUp.mouseover" end="arrowUp.mouseout"/>
                  </use>
                  <path fill="none" stroke="white" stroke-width="1.5" d="M0,-3.0v7 M-2.5,-0.5L0,-3.0L2.5,-0.5"/>
                </g>
                <g id="arrowRight" xlink:href="#dirArrow" transform="rotate(90) translate(36 -43)" onmousedown="handlePan(1,0)">
                  <use xlink:href="#rim" fill="#404040">
                        <set attributeName="fill" to="#808080" begin="arrowRight.mouseover" end="arrowRight.mouseout"/>
                  </use>
                  <path fill="none" stroke="white" stroke-width="1.5" d="M0,-3.0v7 M-2.5,-0.5L0,-3.0L2.5,-0.5"/>
                </g>
                <g id="arrowDown" xlink:href="#dirArrow" transform="rotate(180) translate(-30 -48)" onmousedown="handlePan(0,1)">
                  <use xlink:href="#rim" fill="#404040">
                        <set attributeName="fill" to="#808080" begin="arrowDown.mouseover" end="arrowDown.mouseout"/>
                  </use>
                  <path fill="none" stroke="white" stroke-width="1.5" d="M0,-3.0v7 M-2.5,-0.5L0,-3.0L2.5,-0.5"/>
                </g>
                <g id="arrowLeft" xlink:href="#dirArrow" transform="rotate(270) translate(-36 17)" onmousedown="handlePan(-1,0)">
                  <use xlink:href="#rim" fill="#404040">
                        <set attributeName="fill" to="#808080" begin="arrowLeft.mouseover" end="arrowLeft.mouseout"/>
                  </use>
                  <path fill="none" stroke="white" stroke-width="1.5" d="M0,-3.0v7 M-2.5,-0.5L0,-3.0L2.5,-0.5"/>
                </g>
        </g>
        <svg viewBox="0 0 15 15" width="100%" height="30px" preserveAspectRatio="xMaxYMin meet">
         <g id="arrow_out" transform="scale(0.3 0.3)">
          <a xlink:href="class_obj_1_1_c_rail_editor_component_ad25777ae767754f17af6b24075ff70a9_cgraph_org.svg" target="_base">
           <rect id="button" ry="5" rx="5" y="6" x="6" height="38" width="38"
                fill="#f2f5e9" fill-opacity="0.5" stroke="#606060" stroke-width="1.0"/>
           <path id="arrow"
             d="M 11.500037,31.436501 C 11.940474,20.09759 22.043105,11.32322 32.158766,21.979434 L 37.068811,17.246167 C 37.068811,17.246167 37.088388,32 37.088388,32 L 22.160133,31.978069 C 22.160133,31.978069 26.997745,27.140456 26.997745,27.140456 C 18.528582,18.264221 13.291696,25.230495 11.500037,31.436501 z"
             style="fill:#404040;"/>
          </a>
         </g>
        </svg>
</svg>
