<?xml version="1.0" encoding="UTF-8" standalone="no"?>
<!DOCTYPE svg PUBLIC "-//W3C//DTD SVG 1.1//EN"
 "http://www.w3.org/Graphics/SVG/1.1/DTD/svg11.dtd">
<!-- Generated by graphviz version 2.38.0 (20140413.2041)
 -->
<!-- Title: Obj::CRailEditorComponent::DeleteDottedLine Pages: 1 -->
<svg width="1254pt" height="235pt"
 viewBox="0.00 0.00 1254.00 235.00" xmlns="http://www.w3.org/2000/svg" xmlns:xlink="http://www.w3.org/1999/xlink">
<g id="graph0" class="graph" transform="scale(1 1) rotate(0) translate(4 231)">
<title>Obj::CRailEditorComponent::DeleteDottedLine</title>
<polygon fill="white" stroke="none" points="-4,4 -4,-231 1250,-231 1250,4 -4,4"/>
<!-- Node1 -->
<g id="node1" class="node"><title>Node1</title>
<g id="a_node1"><a xlink:title=" ">
<polygon fill="#bfbfbf" stroke="black" points="1110,-127.5 1110,-157.5 1246,-157.5 1246,-127.5 1110,-127.5"/>
<text text-anchor="start" x="1118" y="-145.5" font-family="Helvetica,sans-Serif" font-size="10.00">Obj::CRailEditorComponent</text>
<text text-anchor="middle" x="1178" y="-134.5" font-family="Helvetica,sans-Serif" font-size="10.00">::DeleteDottedLine</text>
</a>
</g>
</g>
<!-- Node2 -->
<g id="node2" class="node"><title>Node2</title>
<g id="a_node2"><a xlink:href="../../dc/d9e/class_obj_1_1_c_rail_editor_component.html#af580037008fc36971c07a8a69a4e5ef0" target="_top" xlink:title=" ">
<polygon fill="white" stroke="black" points="753.5,-196.5 753.5,-226.5 889.5,-226.5 889.5,-196.5 753.5,-196.5"/>
<text text-anchor="start" x="761.5" y="-214.5" font-family="Helvetica,sans-Serif" font-size="10.00">Obj::CRailEditorComponent</text>
<text text-anchor="middle" x="821.5" y="-203.5" font-family="Helvetica,sans-Serif" font-size="10.00">::CallMemberFunction</text>
</a>
</g>
</g>
<!-- Node1&#45;&gt;Node2 -->
<g id="edge1" class="edge"><title>Node1&#45;&gt;Node2</title>
<path fill="none" stroke="midnightblue" d="M1142.96,-162.57C1123.45,-173.066 1098.11,-185.043 1074,-191.5 1012.97,-207.847 940.864,-212.122 889.543,-212.739"/>
<polygon fill="midnightblue" stroke="midnightblue" points="1144.69,-165.612 1151.76,-157.723 1141.31,-159.48 1144.69,-165.612"/>
</g>
<!-- Node3 -->
<g id="node3" class="node"><title>Node3</title>
<g id="a_node3"><a xlink:href="../../dc/d9e/class_obj_1_1_c_rail_editor_component.html#ae439bc4249600ed049f9cd851cb98b6e" target="_top" xlink:title=" ">
<polygon fill="white" stroke="black" points="938,-103.5 938,-133.5 1074,-133.5 1074,-103.5 938,-103.5"/>
<text text-anchor="start" x="946" y="-121.5" font-family="Helvetica,sans-Serif" font-size="10.00">Obj::CRailEditorComponent</text>
<text text-anchor="middle" x="1006" y="-110.5" font-family="Helvetica,sans-Serif" font-size="10.00">::Clear</text>
</a>
</g>
</g>
<!-- Node1&#45;&gt;Node3 -->
<g id="edge2" class="edge"><title>Node1&#45;&gt;Node3</title>
<path fill="none" stroke="midnightblue" d="M1099.85,-131.609C1091.31,-130.403 1082.66,-129.182 1074.26,-127.995"/>
<polygon fill="midnightblue" stroke="midnightblue" points="1099.42,-135.082 1109.81,-133.015 1100.4,-128.151 1099.42,-135.082"/>
</g>
<!-- Node15 -->
<g id="node15" class="node"><title>Node15</title>
<g id="a_node15"><a xlink:href="../../dc/d9e/class_obj_1_1_c_rail_editor_component.html#a23626be6c159ca10468265a3db4c6f29" target="_top" xlink:title=" ">
<polygon fill="white" stroke="black" points="938,-152.5 938,-182.5 1074,-182.5 1074,-152.5 938,-152.5"/>
<text text-anchor="start" x="946" y="-170.5" font-family="Helvetica,sans-Serif" font-size="10.00">Obj::CRailEditorComponent</text>
<text text-anchor="middle" x="1006" y="-159.5" font-family="Helvetica,sans-Serif" font-size="10.00">::DrawDottedLine</text>
</a>
</g>
</g>
<!-- Node1&#45;&gt;Node15 -->
<g id="edge15" class="edge"><title>Node1&#45;&gt;Node15</title>
<path fill="none" stroke="midnightblue" d="M1099.85,-153.845C1091.31,-155.101 1082.66,-156.373 1074.26,-157.609"/>
<polygon fill="midnightblue" stroke="midnightblue" points="1100.43,-157.298 1109.81,-152.381 1099.41,-150.373 1100.43,-157.298"/>
</g>
<!-- Node16 -->
<g id="node16" class="node"><title>Node16</title>
<g id="a_node16"><a xlink:href="../../dc/d9e/class_obj_1_1_c_rail_editor_component.html#a1c9cbe3132bad09cfcab8f889e424770" target="_top" xlink:title=" ">
<polygon fill="white" stroke="black" points="938,-54.5 938,-84.5 1074,-84.5 1074,-54.5 938,-54.5"/>
<text text-anchor="start" x="946" y="-72.5" font-family="Helvetica,sans-Serif" font-size="10.00">Obj::CRailEditorComponent</text>
<text text-anchor="middle" x="1006" y="-61.5" font-family="Helvetica,sans-Serif" font-size="10.00">::Hide</text>
</a>
</g>
</g>
<!-- Node1&#45;&gt;Node16 -->
<g id="edge17" class="edge"><title>Node1&#45;&gt;Node16</title>
<path fill="none" stroke="midnightblue" d="M1138.16,-122.891C1119.04,-113.532 1095.53,-102.45 1074,-93.5 1066.7,-90.4643 1058.86,-87.4465 1051.21,-84.6273"/>
<polygon fill="midnightblue" stroke="midnightblue" points="1136.64,-126.048 1147.16,-127.331 1139.74,-119.769 1136.64,-126.048"/>
</g>
<!-- Node3&#45;&gt;Node2 -->
<g id="edge3" class="edge"><title>Node3&#45;&gt;Node2</title>
<path fill="none" stroke="midnightblue" d="M944.638,-138.26C942.343,-139.592 940.12,-141.004 938,-142.5 917.356,-157.068 922.927,-172.34 902,-186.5 896.368,-190.311 890.124,-193.565 883.683,-196.339"/>
<polygon fill="midnightblue" stroke="midnightblue" points="946.518,-141.228 953.78,-133.513 943.292,-135.015 946.518,-141.228"/>
</g>
<!-- Node4 -->
<g id="node4" class="node"><title>Node4</title>
<g id="a_node4"><a xlink:href="../../dc/d9e/class_obj_1_1_c_rail_editor_component.html#a45567a3a6fb38290628f7a41e92f253d" target="_top" xlink:title=" ">
<polygon fill="white" stroke="black" points="753.5,-147.5 753.5,-177.5 889.5,-177.5 889.5,-147.5 753.5,-147.5"/>
<text text-anchor="start" x="761.5" y="-165.5" font-family="Helvetica,sans-Serif" font-size="10.00">Obj::CRailEditorComponent</text>
<text text-anchor="middle" x="821.5" y="-154.5" font-family="Helvetica,sans-Serif" font-size="10.00">::CRailEditorComponent</text>
</a>
</g>
</g>
<!-- Node3&#45;&gt;Node4 -->
<g id="edge4" class="edge"><title>Node3&#45;&gt;Node4</title>
<path fill="none" stroke="midnightblue" d="M932.925,-135.877C917.022,-139.711 900.304,-143.742 884.825,-147.474"/>
<polygon fill="midnightblue" stroke="midnightblue" points="933.803,-139.266 942.704,-133.519 932.162,-132.461 933.803,-139.266"/>
</g>
<!-- Node7 -->
<g id="node7" class="node"><title>Node7</title>
<g id="a_node7"><a xlink:href="../../dc/d9e/class_obj_1_1_c_rail_editor_component.html#ac295ecee78f061e14900ba25b42eb4cf" target="_top" xlink:title=" ">
<polygon fill="white" stroke="black" points="741,-98.5 741,-128.5 902,-128.5 902,-98.5 741,-98.5"/>
<text text-anchor="start" x="749" y="-116.5" font-family="Helvetica,sans-Serif" font-size="10.00">Obj::CRailEditorComponent</text>
<text text-anchor="middle" x="821.5" y="-105.5" font-family="Helvetica,sans-Serif" font-size="10.00">::InitUsingCompressedRailsBuffer</text>
</a>
</g>
</g>
<!-- Node3&#45;&gt;Node7 -->
<g id="edge7" class="edge"><title>Node3&#45;&gt;Node7</title>
<path fill="none" stroke="midnightblue" d="M927.654,-116.381C919.236,-116.15 910.657,-115.915 902.212,-115.684"/>
<polygon fill="midnightblue" stroke="midnightblue" points="927.729,-119.884 937.821,-116.659 927.921,-112.887 927.729,-119.884"/>
</g>
<!-- Node8 -->
<g id="node8" class="node"><title>Node8</title>
<g id="a_node8"><a xlink:href="../../dc/d9e/class_obj_1_1_c_rail_editor_component.html#a00237c42a3837d4dda64af27fd99876e" target="_top" xlink:title=" ">
<polygon fill="white" stroke="black" points="753.5,-49.5 753.5,-79.5 889.5,-79.5 889.5,-49.5 753.5,-49.5"/>
<text text-anchor="start" x="761.5" y="-67.5" font-family="Helvetica,sans-Serif" font-size="10.00">Obj::CRailEditorComponent</text>
<text text-anchor="middle" x="821.5" y="-56.5" font-family="Helvetica,sans-Serif" font-size="10.00">::ReadFromStructure</text>
</a>
</g>
</g>
<!-- Node3&#45;&gt;Node8 -->
<g id="edge8" class="edge"><title>Node3&#45;&gt;Node8</title>
<path fill="none" stroke="midnightblue" d="M944.489,-100.595C921.446,-93.7772 895.441,-86.0827 873.38,-79.5549"/>
<polygon fill="midnightblue" stroke="midnightblue" points="943.581,-103.977 954.164,-103.458 945.568,-97.2644 943.581,-103.977"/>
</g>
<!-- Node14 -->
<g id="node14" class="node"><title>Node14</title>
<g id="a_node14"><a xlink:href="../../dc/d9e/class_obj_1_1_c_rail_editor_component.html#a08e7534735deb1a0af5402aa8b2e09a1" target="_top" xlink:title=" ">
<polygon fill="white" stroke="black" points="753.5,-0.5 753.5,-30.5 889.5,-30.5 889.5,-0.5 753.5,-0.5"/>
<text text-anchor="start" x="761.5" y="-18.5" font-family="Helvetica,sans-Serif" font-size="10.00">Obj::CRailEditorComponent</text>
<text text-anchor="middle" x="821.5" y="-7.5" font-family="Helvetica,sans-Serif" font-size="10.00">::~CRailEditorComponent</text>
</a>
</g>
</g>
<!-- Node3&#45;&gt;Node14 -->
<g id="edge14" class="edge"><title>Node3&#45;&gt;Node14</title>
<path fill="none" stroke="midnightblue" d="M945.229,-98.5638C942.706,-96.9925 940.281,-95.3069 938,-93.5 915.39,-75.5888 925.171,-56.6792 902,-39.5 897.367,-36.0653 892.242,-33.118 886.89,-30.5897"/>
<polygon fill="midnightblue" stroke="midnightblue" points="943.676,-101.704 954.121,-103.476 947.061,-95.5772 943.676,-101.704"/>
</g>
<!-- Node5 -->
<g id="node5" class="node"><title>Node5</title>
<g id="a_node5"><a xlink:href="../../dc/d9e/class_obj_1_1_c_rail_editor_component.html#ae17140e33417a7b470bbd225418acd03" target="_top" xlink:title=" ">
<polygon fill="white" stroke="black" points="562,-147.5 562,-177.5 698,-177.5 698,-147.5 562,-147.5"/>
<text text-anchor="start" x="570" y="-165.5" font-family="Helvetica,sans-Serif" font-size="10.00">Obj::CRailEditorComponent</text>
<text text-anchor="middle" x="630" y="-154.5" font-family="Helvetica,sans-Serif" font-size="10.00">::s_create</text>
</a>
</g>
</g>
<!-- Node4&#45;&gt;Node5 -->
<g id="edge5" class="edge"><title>Node4&#45;&gt;Node5</title>
<path fill="none" stroke="midnightblue" d="M743.228,-162.5C728.337,-162.5 712.85,-162.5 698.307,-162.5"/>
<polygon fill="midnightblue" stroke="midnightblue" points="743.423,-166 753.423,-162.5 743.423,-159 743.423,-166"/>
</g>
<!-- Node6 -->
<g id="node6" class="node"><title>Node6</title>
<g id="a_node6"><a xlink:href="../../d0/db0/class_obj_1_1_c_composite_object_manager.html#a2599f2c37a76d03666be819fb1087f3b" target="_top" xlink:title=" ">
<polygon fill="white" stroke="black" points="361.5,-147.5 361.5,-177.5 518.5,-177.5 518.5,-147.5 361.5,-147.5"/>
<text text-anchor="start" x="369.5" y="-165.5" font-family="Helvetica,sans-Serif" font-size="10.00">Obj::CCompositeObjectManager</text>
<text text-anchor="middle" x="440" y="-154.5" font-family="Helvetica,sans-Serif" font-size="10.00">::CCompositeObjectManager</text>
</a>
</g>
</g>
<!-- Node5&#45;&gt;Node6 -->
<g id="edge6" class="edge"><title>Node5&#45;&gt;Node6</title>
<path fill="none" stroke="midnightblue" d="M551.6,-162.5C540.713,-162.5 529.52,-162.5 518.629,-162.5"/>
<polygon fill="midnightblue" stroke="midnightblue" points="551.924,-166 561.924,-162.5 551.924,-159 551.924,-166"/>
</g>
<!-- Node9 -->
<g id="node9" class="node"><title>Node9</title>
<g id="a_node9"><a xlink:href="../../d0/d5c/class_ed_1_1_c_park_manager.html#af06ffb35bd29d3823932e27fe231c7ea" target="_top" xlink:title=" ">
<polygon fill="white" stroke="black" points="555,-49.5 555,-79.5 705,-79.5 705,-49.5 555,-49.5"/>
<text text-anchor="start" x="563" y="-67.5" font-family="Helvetica,sans-Serif" font-size="10.00">Ed::CParkManager::ReadFrom</text>
<text text-anchor="middle" x="630" y="-56.5" font-family="Helvetica,sans-Serif" font-size="10.00">Structure</text>
</a>
</g>
</g>
<!-- Node8&#45;&gt;Node9 -->
<g id="edge9" class="edge"><title>Node8&#45;&gt;Node9</title>
<path fill="none" stroke="midnightblue" d="M743.389,-64.5C730.739,-64.5 717.654,-64.5 705.08,-64.5"/>
<polygon fill="midnightblue" stroke="midnightblue" points="743.423,-68.0001 753.423,-64.5 743.423,-61.0001 743.423,-68.0001"/>
</g>
<!-- Node10 -->
<g id="node10" class="node"><title>Node10</title>
<g id="a_node10"><a xlink:href="../../d0/d5c/class_ed_1_1_c_park_manager.html#aab29f1a394b0f9b7aeb1a4bd2a969efd" target="_top" xlink:title=" ">
<polygon fill="white" stroke="black" points="361,-55 361,-74 519,-74 519,-55 361,-55"/>
<text text-anchor="middle" x="440" y="-62" font-family="Helvetica,sans-Serif" font-size="10.00">Ed::CParkManager::AccessDisk</text>
</a>
</g>
</g>
<!-- Node9&#45;&gt;Node10 -->
<g id="edge10" class="edge"><title>Node9&#45;&gt;Node10</title>
<path fill="none" stroke="midnightblue" d="M544.719,-64.5C536.259,-64.5 527.693,-64.5 519.299,-64.5"/>
<polygon fill="midnightblue" stroke="midnightblue" points="544.967,-68.0001 554.967,-64.5 544.967,-61.0001 544.967,-68.0001"/>
</g>
<!-- Node11 -->
<g id="node11" class="node"><title>Node11</title>
<g id="a_node11"><a xlink:href="../../d8/d13/class_ed_1_1_c_park_editor.html#a960413265bc65b3f6ca5d6288ae4c8bd" target="_top" xlink:title=" ">
<polygon fill="white" stroke="black" points="179,-55 179,-74 325,-74 325,-55 179,-55"/>
<text text-anchor="middle" x="252" y="-62" font-family="Helvetica,sans-Serif" font-size="10.00">Ed::CParkEditor::AccessDisk</text>
</a>
</g>
</g>
<!-- Node10&#45;&gt;Node11 -->
<g id="edge11" class="edge"><title>Node10&#45;&gt;Node11</title>
<path fill="none" stroke="midnightblue" d="M350.885,-64.5C342.293,-64.5 333.645,-64.5 325.236,-64.5"/>
<polygon fill="midnightblue" stroke="midnightblue" points="350.928,-68.0001 360.928,-64.5 350.928,-61.0001 350.928,-68.0001"/>
</g>
<!-- Node12 -->
<g id="node12" class="node"><title>Node12</title>
<g id="a_node12"><a xlink:href="../../d2/d84/namespace_ed.html#ad60f3a0d186b2da60f26277074f39c2d" target="_top" xlink:title=" ">
<polygon fill="white" stroke="black" points="0,-74 0,-93 143,-93 143,-74 0,-74"/>
<text text-anchor="middle" x="71.5" y="-81" font-family="Helvetica,sans-Serif" font-size="10.00">Ed::ScriptLoadParkFromDisk</text>
</a>
</g>
</g>
<!-- Node11&#45;&gt;Node12 -->
<g id="edge12" class="edge"><title>Node11&#45;&gt;Node12</title>
<path fill="none" stroke="midnightblue" d="M168.872,-73.2419C160.269,-74.1577 151.577,-75.0829 143.118,-75.9832"/>
<polygon fill="midnightblue" stroke="midnightblue" points="169.338,-76.7121 178.912,-72.1733 168.597,-69.7515 169.338,-76.7121"/>
</g>
<!-- Node13 -->
<g id="node13" class="node"><title>Node13</title>
<g id="a_node13"><a xlink:href="../../d2/d84/namespace_ed.html#a16094dc8a2ec4512d21b7a524c913812" target="_top" xlink:title=" ">
<polygon fill="white" stroke="black" points="6,-36 6,-55 137,-55 137,-36 6,-36"/>
<text text-anchor="middle" x="71.5" y="-43" font-family="Helvetica,sans-Serif" font-size="10.00">Ed::ScriptSaveParkToDisk</text>
</a>
</g>
</g>
<!-- Node11&#45;&gt;Node13 -->
<g id="edge13" class="edge"><title>Node11&#45;&gt;Node13</title>
<path fill="none" stroke="midnightblue" d="M168.778,-55.7481C158.145,-54.6162 147.378,-53.4702 137.086,-52.3746"/>
<polygon fill="midnightblue" stroke="midnightblue" points="168.597,-59.2485 178.912,-56.8267 169.338,-52.2879 168.597,-59.2485"/>
</g>
<!-- Node15&#45;&gt;Node2 -->
<g id="edge16" class="edge"><title>Node15&#45;&gt;Node2</title>
<path fill="none" stroke="midnightblue" d="M932.925,-184.877C917.022,-188.711 900.304,-192.742 884.825,-196.474"/>
<polygon fill="midnightblue" stroke="midnightblue" points="933.803,-188.266 942.704,-182.519 932.162,-181.461 933.803,-188.266"/>
</g>
</g>
</svg>
