<?xml version="1.0" encoding="UTF-8" standalone="no"?>
<!DOCTYPE svg PUBLIC "-//W3C//DTD SVG 1.1//EN"
 "http://www.w3.org/Graphics/SVG/1.1/DTD/svg11.dtd">
<!-- Generated by graphviz version 2.38.0 (20140413.2041)
 -->
<!-- Title: Obj::CRailEditorComponent::AbleToCopyRails Pages: 1 -->
<svg width="501pt" height="88pt"
 viewBox="0.00 0.00 501.00 88.00" xmlns="http://www.w3.org/2000/svg" xmlns:xlink="http://www.w3.org/1999/xlink">
<g id="graph0" class="graph" transform="scale(1 1) rotate(0) translate(4 84)">
<title>Obj::CRailEditorComponent::AbleToCopyRails</title>
<polygon fill="white" stroke="none" points="-4,4 -4,-84 497,-84 497,4 -4,4"/>
<!-- Node1 -->
<g id="node1" class="node"><title>Node1</title>
<g id="a_node1"><a xlink:title=" ">
<polygon fill="#bfbfbf" stroke="black" points="0,-24.5 0,-54.5 136,-54.5 136,-24.5 0,-24.5"/>
<text text-anchor="start" x="8" y="-42.5" font-family="Helvetica,sans-Serif" font-size="10.00">Obj::CRailEditorComponent</text>
<text text-anchor="middle" x="68" y="-31.5" font-family="Helvetica,sans-Serif" font-size="10.00">::AbleToCopyRails</text>
</a>
</g>
</g>
<!-- Node2 -->
<g id="node2" class="node"><title>Node2</title>
<g id="a_node2"><a xlink:href="../../dc/d9e/class_obj_1_1_c_rail_editor_component.html#a41c4a6b60e6c0ede93019abe6d1e8148" target="_top" xlink:title=" ">
<polygon fill="white" stroke="black" points="172,-49.5 172,-79.5 308,-79.5 308,-49.5 172,-49.5"/>
<text text-anchor="start" x="180" y="-67.5" font-family="Helvetica,sans-Serif" font-size="10.00">Obj::CRailEditorComponent</text>
<text text-anchor="middle" x="240" y="-56.5" font-family="Helvetica,sans-Serif" font-size="10.00">::CountPointsInArea</text>
</a>
</g>
</g>
<!-- Node1&#45;&gt;Node2 -->
<g id="edge1" class="edge"><title>Node1&#45;&gt;Node2</title>
<path fill="none" stroke="midnightblue" d="M136.189,-49.3807C144.593,-50.6167 153.242,-51.8885 161.784,-53.1447"/>
<polygon fill="midnightblue" stroke="midnightblue" points="161.34,-56.617 171.743,-54.6092 162.359,-49.6915 161.34,-56.617"/>
</g>
<!-- Node4 -->
<g id="node4" class="node"><title>Node4</title>
<g id="a_node4"><a xlink:href="../../dc/d9e/class_obj_1_1_c_rail_editor_component.html#a97cc8a74118eb587262e4fab81b0f4f9" target="_top" xlink:title=" ">
<polygon fill="white" stroke="black" points="172,-0.5 172,-30.5 308,-30.5 308,-0.5 172,-0.5"/>
<text text-anchor="start" x="180" y="-18.5" font-family="Helvetica,sans-Serif" font-size="10.00">Obj::CRailEditorComponent</text>
<text text-anchor="middle" x="240" y="-7.5" font-family="Helvetica,sans-Serif" font-size="10.00">::GetNumFreePoints</text>
</a>
</g>
</g>
<!-- Node1&#45;&gt;Node4 -->
<g id="edge3" class="edge"><title>Node1&#45;&gt;Node4</title>
<path fill="none" stroke="midnightblue" d="M136.189,-30.0146C144.593,-28.828 153.242,-27.6071 161.784,-26.4011"/>
<polygon fill="midnightblue" stroke="midnightblue" points="162.33,-29.8588 171.743,-24.9951 161.352,-22.9275 162.33,-29.8588"/>
</g>
<!-- Node3 -->
<g id="node3" class="node"><title>Node3</title>
<g id="a_node3"><a xlink:href="../../d0/d63/class_obj_1_1_c_edited_rail.html#a4ac38e63e86db6bc337415b1f2ef0155" target="_top" xlink:title=" ">
<polygon fill="white" stroke="black" points="344.5,-49.5 344.5,-79.5 492.5,-79.5 492.5,-49.5 344.5,-49.5"/>
<text text-anchor="start" x="352.5" y="-67.5" font-family="Helvetica,sans-Serif" font-size="10.00">Obj::CEditedRail::CountPoints</text>
<text text-anchor="middle" x="418.5" y="-56.5" font-family="Helvetica,sans-Serif" font-size="10.00">InArea</text>
</a>
</g>
</g>
<!-- Node2&#45;&gt;Node3 -->
<g id="edge2" class="edge"><title>Node2&#45;&gt;Node3</title>
<path fill="none" stroke="midnightblue" d="M308.231,-64.5C316.703,-64.5 325.45,-64.5 334.134,-64.5"/>
<polygon fill="midnightblue" stroke="midnightblue" points="334.278,-68.0001 344.278,-64.5 334.278,-61.0001 334.278,-68.0001"/>
</g>
<!-- Node5 -->
<g id="node5" class="node"><title>Node5</title>
<g id="a_node5"><a xlink:href="../../d6/d3a/class_mem_1_1_c_poolable.html#a0de63899e6b93c2dbf1d2801960c8d16" target="_top" xlink:title=" ">
<polygon fill="white" stroke="black" points="344,-0.5 344,-30.5 493,-30.5 493,-0.5 344,-0.5"/>
<text text-anchor="start" x="352" y="-18.5" font-family="Helvetica,sans-Serif" font-size="10.00">Mem::CPoolable&lt; CEditedRail</text>
<text text-anchor="middle" x="418.5" y="-7.5" font-family="Helvetica,sans-Serif" font-size="10.00">Point &gt;::SGetNumUsedItems</text>
</a>
</g>
</g>
<!-- Node4&#45;&gt;Node5 -->
<g id="edge4" class="edge"><title>Node4&#45;&gt;Node5</title>
<path fill="none" stroke="midnightblue" d="M308.231,-15.5C316.633,-15.5 325.305,-15.5 333.918,-15.5"/>
<polygon fill="midnightblue" stroke="midnightblue" points="333.982,-19.0001 343.982,-15.5 333.982,-12.0001 333.982,-19.0001"/>
</g>
</g>
</svg>
