<?xml version="1.0" encoding="UTF-8" standalone="no"?>
<!DOCTYPE svg PUBLIC "-//W3C//DTD SVG 1.1//EN"
 "http://www.w3.org/Graphics/SVG/1.1/DTD/svg11.dtd">
<!-- Generated by graphviz version 2.38.0 (20140413.2041)
 -->
<!-- Title: Obj::CRailEditorComponent::NewRail Pages: 1 -->
<svg width="1082pt" height="202pt"
 viewBox="0.00 0.00 1082.00 201.50" xmlns="http://www.w3.org/2000/svg" xmlns:xlink="http://www.w3.org/1999/xlink">
<g id="graph0" class="graph" transform="scale(1 1) rotate(0) translate(4 197.5)">
<title>Obj::CRailEditorComponent::NewRail</title>
<polygon fill="white" stroke="none" points="-4,4 -4,-197.5 1078,-197.5 1078,4 -4,4"/>
<!-- Node1 -->
<g id="node1" class="node"><title>Node1</title>
<g id="a_node1"><a xlink:title=" ">
<polygon fill="#bfbfbf" stroke="black" points="938,-94 938,-124 1074,-124 1074,-94 938,-94"/>
<text text-anchor="start" x="946" y="-112" font-family="Helvetica,sans-Serif" font-size="10.00">Obj::CRailEditorComponent</text>
<text text-anchor="middle" x="1006" y="-101" font-family="Helvetica,sans-Serif" font-size="10.00">::NewRail</text>
</a>
</g>
</g>
<!-- Node2 -->
<g id="node2" class="node"><title>Node2</title>
<g id="a_node2"><a xlink:href="../../dc/d9e/class_obj_1_1_c_rail_editor_component.html#af580037008fc36971c07a8a69a4e5ef0" target="_top" xlink:title=" ">
<polygon fill="white" stroke="black" points="562,-163 562,-193 698,-193 698,-163 562,-163"/>
<text text-anchor="start" x="570" y="-181" font-family="Helvetica,sans-Serif" font-size="10.00">Obj::CRailEditorComponent</text>
<text text-anchor="middle" x="630" y="-170" font-family="Helvetica,sans-Serif" font-size="10.00">::CallMemberFunction</text>
</a>
</g>
</g>
<!-- Node1&#45;&gt;Node2 -->
<g id="edge1" class="edge"><title>Node1&#45;&gt;Node2</title>
<path fill="none" stroke="midnightblue" d="M971.829,-129.136C952.237,-139.981 926.537,-152.447 902,-159 834.219,-177.101 753.71,-180.582 698.15,-180.321"/>
<polygon fill="midnightblue" stroke="midnightblue" points="973.675,-132.113 980.648,-124.136 970.223,-126.023 973.675,-132.113"/>
</g>
<!-- Node3 -->
<g id="node3" class="node"><title>Node3</title>
<g id="a_node3"><a xlink:href="../../dc/d9e/class_obj_1_1_c_rail_editor_component.html#a6d71cb78e04c7fa924c6775d0611facd" target="_top" xlink:title=" ">
<polygon fill="white" stroke="black" points="753.5,-119 753.5,-149 889.5,-149 889.5,-119 753.5,-119"/>
<text text-anchor="start" x="761.5" y="-137" font-family="Helvetica,sans-Serif" font-size="10.00">Obj::CRailEditorComponent</text>
<text text-anchor="middle" x="821.5" y="-126" font-family="Helvetica,sans-Serif" font-size="10.00">::DeleteRailPoint</text>
</a>
</g>
</g>
<!-- Node1&#45;&gt;Node3 -->
<g id="edge2" class="edge"><title>Node1&#45;&gt;Node3</title>
<path fill="none" stroke="midnightblue" d="M927.734,-119.584C915.033,-121.324 901.962,-123.115 889.537,-124.817"/>
<polygon fill="midnightblue" stroke="midnightblue" points="928.389,-123.027 937.821,-118.203 927.439,-116.092 928.389,-123.027"/>
</g>
<!-- Node9 -->
<g id="node9" class="node"><title>Node9</title>
<g id="a_node9"><a xlink:href="../../dc/d9e/class_obj_1_1_c_rail_editor_component.html#ac295ecee78f061e14900ba25b42eb4cf" target="_top" xlink:title=" ">
<polygon fill="white" stroke="black" points="741,-70 741,-100 902,-100 902,-70 741,-70"/>
<text text-anchor="start" x="749" y="-88" font-family="Helvetica,sans-Serif" font-size="10.00">Obj::CRailEditorComponent</text>
<text text-anchor="middle" x="821.5" y="-77" font-family="Helvetica,sans-Serif" font-size="10.00">::InitUsingCompressedRailsBuffer</text>
</a>
</g>
</g>
<!-- Node1&#45;&gt;Node9 -->
<g id="edge9" class="edge"><title>Node1&#45;&gt;Node9</title>
<path fill="none" stroke="midnightblue" d="M927.654,-98.8284C919.236,-97.7215 910.657,-96.5933 902.212,-95.4827"/>
<polygon fill="midnightblue" stroke="midnightblue" points="927.45,-102.332 937.821,-100.166 928.363,-95.3915 927.45,-102.332"/>
</g>
<!-- Node10 -->
<g id="node10" class="node"><title>Node10</title>
<g id="a_node10"><a xlink:href="../../dc/d9e/class_obj_1_1_c_rail_editor_component.html#a00237c42a3837d4dda64af27fd99876e" target="_top" xlink:title=" ">
<polygon fill="white" stroke="black" points="753.5,-21 753.5,-51 889.5,-51 889.5,-21 753.5,-21"/>
<text text-anchor="start" x="761.5" y="-39" font-family="Helvetica,sans-Serif" font-size="10.00">Obj::CRailEditorComponent</text>
<text text-anchor="middle" x="821.5" y="-28" font-family="Helvetica,sans-Serif" font-size="10.00">::ReadFromStructure</text>
</a>
</g>
</g>
<!-- Node1&#45;&gt;Node10 -->
<g id="edge10" class="edge"><title>Node1&#45;&gt;Node10</title>
<path fill="none" stroke="midnightblue" d="M967.183,-89.3244C947.965,-79.7611 924.066,-68.5233 902,-60 893.796,-56.8311 884.988,-53.8097 876.33,-51.0455"/>
<polygon fill="midnightblue" stroke="midnightblue" points="965.706,-92.4993 976.212,-93.8654 968.851,-86.2455 965.706,-92.4993"/>
</g>
<!-- Node3&#45;&gt;Node2 -->
<g id="edge3" class="edge"><title>Node3&#45;&gt;Node2</title>
<path fill="none" stroke="midnightblue" d="M745.661,-151.377C729.147,-155.211 711.788,-159.242 695.715,-162.974"/>
<polygon fill="midnightblue" stroke="midnightblue" points="746.866,-154.69 755.815,-149.019 745.282,-147.872 746.866,-154.69"/>
</g>
<!-- Node4 -->
<g id="node4" class="node"><title>Node4</title>
<g id="a_node4"><a xlink:href="../../dc/d9e/class_obj_1_1_c_rail_editor_component.html#a838cf506b4470b5a980572e74ea2ae1f" target="_top" xlink:title=" ">
<polygon fill="white" stroke="black" points="562,-114 562,-144 698,-144 698,-114 562,-114"/>
<text text-anchor="start" x="570" y="-132" font-family="Helvetica,sans-Serif" font-size="10.00">Obj::CRailEditorComponent</text>
<text text-anchor="middle" x="630" y="-121" font-family="Helvetica,sans-Serif" font-size="10.00">::ClipRail</text>
</a>
</g>
</g>
<!-- Node3&#45;&gt;Node4 -->
<g id="edge4" class="edge"><title>Node3&#45;&gt;Node4</title>
<path fill="none" stroke="midnightblue" d="M743.228,-131.961C728.337,-131.568 712.85,-131.16 698.307,-130.776"/>
<polygon fill="midnightblue" stroke="midnightblue" points="743.334,-135.465 753.423,-132.23 743.519,-128.468 743.334,-135.465"/>
</g>
<!-- Node5 -->
<g id="node5" class="node"><title>Node5</title>
<g id="a_node5"><a xlink:href="../../dc/d9e/class_obj_1_1_c_rail_editor_component.html#a4c9c5242f85e0c10246ddf5de3362caa" target="_top" xlink:title=" ">
<polygon fill="white" stroke="black" points="372,-114 372,-144 508,-144 508,-114 372,-114"/>
<text text-anchor="start" x="380" y="-132" font-family="Helvetica,sans-Serif" font-size="10.00">Obj::CRailEditorComponent</text>
<text text-anchor="middle" x="440" y="-121" font-family="Helvetica,sans-Serif" font-size="10.00">::ClipRails</text>
</a>
</g>
</g>
<!-- Node4&#45;&gt;Node5 -->
<g id="edge5" class="edge"><title>Node4&#45;&gt;Node5</title>
<path fill="none" stroke="midnightblue" d="M551.532,-129C537.102,-129 522.135,-129 508.05,-129"/>
<polygon fill="midnightblue" stroke="midnightblue" points="551.924,-132.5 561.924,-129 551.924,-125.5 551.924,-132.5"/>
</g>
<!-- Node6 -->
<g id="node6" class="node"><title>Node6</title>
<g id="a_node6"><a xlink:href="../../d0/d5c/class_ed_1_1_c_park_manager.html#ade3a39b0d9543b7a036317bc25214e51" target="_top" xlink:title=" ">
<polygon fill="white" stroke="black" points="182.5,-127 182.5,-157 321.5,-157 321.5,-127 182.5,-127"/>
<text text-anchor="start" x="190.5" y="-145" font-family="Helvetica,sans-Serif" font-size="10.00">Ed::CParkManager::Destroy</text>
<text text-anchor="middle" x="252" y="-134" font-family="Helvetica,sans-Serif" font-size="10.00">MetasInArea</text>
</a>
</g>
</g>
<!-- Node5&#45;&gt;Node6 -->
<g id="edge6" class="edge"><title>Node5&#45;&gt;Node6</title>
<path fill="none" stroke="midnightblue" d="M361.77,-134.398C348.451,-135.329 334.688,-136.291 321.616,-137.204"/>
<polygon fill="midnightblue" stroke="midnightblue" points="362.118,-137.882 371.85,-133.693 361.63,-130.899 362.118,-137.882"/>
</g>
<!-- Node7 -->
<g id="node7" class="node"><title>Node7</title>
<g id="a_node7"><a xlink:href="../../d2/d84/namespace_ed.html#a18e01a46dde64d90411ab5c2e68344ad" target="_top" xlink:title=" ">
<polygon fill="white" stroke="black" points="209.5,-88.5 209.5,-107.5 294.5,-107.5 294.5,-88.5 209.5,-88.5"/>
<text text-anchor="middle" x="252" y="-95.5" font-family="Helvetica,sans-Serif" font-size="10.00">Ed::ResizePark</text>
</a>
</g>
</g>
<!-- Node5&#45;&gt;Node7 -->
<g id="edge7" class="edge"><title>Node5&#45;&gt;Node7</title>
<path fill="none" stroke="midnightblue" d="M361.745,-116.124C338.746,-112.291 314.423,-108.237 294.626,-104.938"/>
<polygon fill="midnightblue" stroke="midnightblue" points="361.41,-119.617 371.85,-117.808 362.561,-112.712 361.41,-119.617"/>
</g>
<!-- Node8 -->
<g id="node8" class="node"><title>Node8</title>
<g id="a_node8"><a xlink:href="../../d2/d84/namespace_ed.html#ab4c4bf774b1e68db92ab0e79d634bf57" target="_top" xlink:title=" ">
<polygon fill="white" stroke="black" points="16.5,-88.5 16.5,-107.5 126.5,-107.5 126.5,-88.5 16.5,-88.5"/>
<text text-anchor="middle" x="71.5" y="-95.5" font-family="Helvetica,sans-Serif" font-size="10.00">Ed::ScriptResizePark</text>
</a>
</g>
</g>
<!-- Node7&#45;&gt;Node8 -->
<g id="edge8" class="edge"><title>Node7&#45;&gt;Node8</title>
<path fill="none" stroke="midnightblue" d="M199.005,-98C176.265,-98 149.592,-98 126.615,-98"/>
<polygon fill="midnightblue" stroke="midnightblue" points="199.15,-101.5 209.15,-98 199.15,-94.5001 199.15,-101.5"/>
</g>
<!-- Node11 -->
<g id="node11" class="node"><title>Node11</title>
<g id="a_node11"><a xlink:href="../../d0/d5c/class_ed_1_1_c_park_manager.html#af06ffb35bd29d3823932e27fe231c7ea" target="_top" xlink:title=" ">
<polygon fill="white" stroke="black" points="555,-21 555,-51 705,-51 705,-21 555,-21"/>
<text text-anchor="start" x="563" y="-39" font-family="Helvetica,sans-Serif" font-size="10.00">Ed::CParkManager::ReadFrom</text>
<text text-anchor="middle" x="630" y="-28" font-family="Helvetica,sans-Serif" font-size="10.00">Structure</text>
</a>
</g>
</g>
<!-- Node10&#45;&gt;Node11 -->
<g id="edge11" class="edge"><title>Node10&#45;&gt;Node11</title>
<path fill="none" stroke="midnightblue" d="M743.389,-36C730.739,-36 717.654,-36 705.08,-36"/>
<polygon fill="midnightblue" stroke="midnightblue" points="743.423,-39.5001 753.423,-36 743.423,-32.5001 743.423,-39.5001"/>
</g>
<!-- Node12 -->
<g id="node12" class="node"><title>Node12</title>
<g id="a_node12"><a xlink:href="../../d0/d5c/class_ed_1_1_c_park_manager.html#aab29f1a394b0f9b7aeb1a4bd2a969efd" target="_top" xlink:title=" ">
<polygon fill="white" stroke="black" points="361,-26.5 361,-45.5 519,-45.5 519,-26.5 361,-26.5"/>
<text text-anchor="middle" x="440" y="-33.5" font-family="Helvetica,sans-Serif" font-size="10.00">Ed::CParkManager::AccessDisk</text>
</a>
</g>
</g>
<!-- Node11&#45;&gt;Node12 -->
<g id="edge12" class="edge"><title>Node11&#45;&gt;Node12</title>
<path fill="none" stroke="midnightblue" d="M544.719,-36C536.259,-36 527.693,-36 519.299,-36"/>
<polygon fill="midnightblue" stroke="midnightblue" points="544.967,-39.5001 554.967,-36 544.967,-32.5001 544.967,-39.5001"/>
</g>
<!-- Node13 -->
<g id="node13" class="node"><title>Node13</title>
<g id="a_node13"><a xlink:href="../../d8/d13/class_ed_1_1_c_park_editor.html#a960413265bc65b3f6ca5d6288ae4c8bd" target="_top" xlink:title=" ">
<polygon fill="white" stroke="black" points="179,-26.5 179,-45.5 325,-45.5 325,-26.5 179,-26.5"/>
<text text-anchor="middle" x="252" y="-33.5" font-family="Helvetica,sans-Serif" font-size="10.00">Ed::CParkEditor::AccessDisk</text>
</a>
</g>
</g>
<!-- Node12&#45;&gt;Node13 -->
<g id="edge13" class="edge"><title>Node12&#45;&gt;Node13</title>
<path fill="none" stroke="midnightblue" d="M350.885,-36C342.293,-36 333.645,-36 325.236,-36"/>
<polygon fill="midnightblue" stroke="midnightblue" points="350.928,-39.5001 360.928,-36 350.928,-32.5001 350.928,-39.5001"/>
</g>
<!-- Node14 -->
<g id="node14" class="node"><title>Node14</title>
<g id="a_node14"><a xlink:href="../../d2/d84/namespace_ed.html#ad60f3a0d186b2da60f26277074f39c2d" target="_top" xlink:title=" ">
<polygon fill="white" stroke="black" points="0,-38.5 0,-57.5 143,-57.5 143,-38.5 0,-38.5"/>
<text text-anchor="middle" x="71.5" y="-45.5" font-family="Helvetica,sans-Serif" font-size="10.00">Ed::ScriptLoadParkFromDisk</text>
</a>
</g>
</g>
<!-- Node13&#45;&gt;Node14 -->
<g id="edge14" class="edge"><title>Node13&#45;&gt;Node14</title>
<path fill="none" stroke="midnightblue" d="M168.872,-41.5212C160.269,-42.0996 151.577,-42.6839 143.118,-43.2526"/>
<polygon fill="midnightblue" stroke="midnightblue" points="169.169,-45.0092 178.912,-40.8463 168.699,-38.025 169.169,-45.0092"/>
</g>
<!-- Node15 -->
<g id="node15" class="node"><title>Node15</title>
<g id="a_node15"><a xlink:href="../../d2/d84/namespace_ed.html#a16094dc8a2ec4512d21b7a524c913812" target="_top" xlink:title=" ">
<polygon fill="white" stroke="black" points="6,-0.5 6,-19.5 137,-19.5 137,-0.5 6,-0.5"/>
<text text-anchor="middle" x="71.5" y="-7.5" font-family="Helvetica,sans-Serif" font-size="10.00">Ed::ScriptSaveParkToDisk</text>
</a>
</g>
</g>
<!-- Node13&#45;&gt;Node15 -->
<g id="edge15" class="edge"><title>Node13&#45;&gt;Node15</title>
<path fill="none" stroke="midnightblue" d="M175.412,-24.99C162.648,-23.1308 149.501,-21.2159 137.051,-19.4024"/>
<polygon fill="midnightblue" stroke="midnightblue" points="175.147,-28.4882 185.547,-26.4662 176.156,-21.5613 175.147,-28.4882"/>
</g>
</g>
</svg>
