<?xml version="1.0" encoding="UTF-8" standalone="no"?>
<!DOCTYPE svg PUBLIC "-//W3C//DTD SVG 1.1//EN"
 "http://www.w3.org/Graphics/SVG/1.1/DTD/svg11.dtd">
<!-- Generated by graphviz version 2.38.0 (20140413.2041)
 -->
<!-- Title: NxPs2::MatProduct Pages: 1 -->
<svg width="395pt" height="104pt"
 viewBox="0.00 0.00 395.00 104.00" xmlns="http://www.w3.org/2000/svg" xmlns:xlink="http://www.w3.org/1999/xlink">
<g id="graph0" class="graph" transform="scale(1 1) rotate(0) translate(4 100)">
<title>NxPs2::MatProduct</title>
<polygon fill="white" stroke="none" points="-4,4 -4,-100 391,-100 391,4 -4,4"/>
<!-- Node1 -->
<g id="node1" class="node"><title>Node1</title>
<g id="a_node1"><a xlink:title=" ">
<polygon fill="#bfbfbf" stroke="black" points="285,-38.5 285,-57.5 387,-57.5 387,-38.5 285,-38.5"/>
<text text-anchor="middle" x="336" y="-45.5" font-family="Helvetica,sans-Serif" font-size="10.00">NxPs2::MatProduct</text>
</a>
</g>
</g>
<!-- Node2 -->
<g id="node2" class="node"><title>Node2</title>
<g id="a_node2"><a xlink:href="../../d8/d79/namespace_nx_ps2.html#a729d149620bb3b27b50c0f2ea7fb52f4" target="_top" xlink:title=" ">
<polygon fill="white" stroke="black" points="139,-76.5 139,-95.5 237,-95.5 237,-76.5 139,-76.5"/>
<text text-anchor="middle" x="188" y="-83.5" font-family="Helvetica,sans-Serif" font-size="10.00">NxPs2::MatInverse</text>
</a>
</g>
</g>
<!-- Node1&#45;&gt;Node2 -->
<g id="edge1" class="edge"><title>Node1&#45;&gt;Node2</title>
<path fill="none" stroke="midnightblue" d="M288.464,-60.1121C268.13,-65.4044 244.629,-71.5213 225.577,-76.4799"/>
<polygon fill="midnightblue" stroke="midnightblue" points="289.362,-63.4951 298.158,-57.589 287.599,-56.7207 289.362,-63.4951"/>
</g>
<!-- Node3 -->
<g id="node3" class="node"><title>Node3</title>
<g id="a_node3"><a xlink:href="../../d8/d79/namespace_nx_ps2.html#aa809d4b0f76b50daca18be81300b4fc0" target="_top" xlink:title=" ">
<polygon fill="white" stroke="black" points="127,-38.5 127,-57.5 249,-57.5 249,-38.5 127,-38.5"/>
<text text-anchor="middle" x="188" y="-45.5" font-family="Helvetica,sans-Serif" font-size="10.00">NxPs2::MatPostmultiply</text>
</a>
</g>
</g>
<!-- Node1&#45;&gt;Node3 -->
<g id="edge2" class="edge"><title>Node1&#45;&gt;Node3</title>
<path fill="none" stroke="midnightblue" d="M274.635,-48C266.219,-48 257.572,-48 249.159,-48"/>
<polygon fill="midnightblue" stroke="midnightblue" points="274.755,-51.5001 284.755,-48 274.755,-44.5001 274.755,-51.5001"/>
</g>
<!-- Node5 -->
<g id="node5" class="node"><title>Node5</title>
<g id="a_node5"><a xlink:href="../../d8/d79/namespace_nx_ps2.html#ab1fc9719a6c3f1fdbb46662c6ad3c655" target="_top" xlink:title=" ">
<polygon fill="white" stroke="black" points="129.5,-0.5 129.5,-19.5 246.5,-19.5 246.5,-0.5 129.5,-0.5"/>
<text text-anchor="middle" x="188" y="-7.5" font-family="Helvetica,sans-Serif" font-size="10.00">NxPs2::MatPremultiply</text>
</a>
</g>
</g>
<!-- Node1&#45;&gt;Node5 -->
<g id="edge4" class="edge"><title>Node1&#45;&gt;Node5</title>
<path fill="none" stroke="midnightblue" d="M288.464,-35.8879C268.13,-30.5956 244.629,-24.4787 225.577,-19.5201"/>
<polygon fill="midnightblue" stroke="midnightblue" points="287.599,-39.2793 298.158,-38.411 289.362,-32.5049 287.599,-39.2793"/>
</g>
<!-- Node4 -->
<g id="node4" class="node"><title>Node4</title>
<g id="a_node4"><a xlink:href="../../d8/d79/namespace_nx_ps2.html#a8c1bc574bb36e9522e8e5db107730857" target="_top" xlink:title=" ">
<polygon fill="white" stroke="black" points="0,-38.5 0,-57.5 91,-57.5 91,-38.5 0,-38.5"/>
<text text-anchor="middle" x="45.5" y="-45.5" font-family="Helvetica,sans-Serif" font-size="10.00">NxPs2::MatEuler</text>
</a>
</g>
</g>
<!-- Node3&#45;&gt;Node4 -->
<g id="edge3" class="edge"><title>Node3&#45;&gt;Node4</title>
<path fill="none" stroke="midnightblue" d="M116.499,-48C107.87,-48 99.2462,-48 91.1481,-48"/>
<polygon fill="midnightblue" stroke="midnightblue" points="116.6,-51.5001 126.6,-48 116.6,-44.5001 116.6,-51.5001"/>
</g>
</g>
</svg>
