<?xml version="1.0" encoding="UTF-8" standalone="no"?>
<!DOCTYPE svg PUBLIC "-//W3C//DTD SVG 1.1//EN"
 "http://www.w3.org/Graphics/SVG/1.1/DTD/svg11.dtd">
<!-- Generated by graphviz version 2.38.0 (20140413.2041)
 -->
<!-- Title: NxPs2::ResetEngine Pages: 1 -->
<svg width="569pt" height="180pt"
 viewBox="0.00 0.00 569.00 180.00" xmlns="http://www.w3.org/2000/svg" xmlns:xlink="http://www.w3.org/1999/xlink">
<g id="graph0" class="graph" transform="scale(1 1) rotate(0) translate(4 176)">
<title>NxPs2::ResetEngine</title>
<polygon fill="white" stroke="none" points="-4,4 -4,-176 565,-176 565,4 -4,4"/>
<!-- Node1 -->
<g id="node1" class="node"><title>Node1</title>
<g id="a_node1"><a xlink:title=" ">
<polygon fill="#bfbfbf" stroke="black" points="0,-104.5 0,-123.5 107,-123.5 107,-104.5 0,-104.5"/>
<text text-anchor="middle" x="53.5" y="-111.5" font-family="Helvetica,sans-Serif" font-size="10.00">NxPs2::ResetEngine</text>
</a>
</g>
</g>
<!-- Node2 -->
<g id="node2" class="node"><title>Node2</title>
<g id="a_node2"><a xlink:href="../../d8/d79/namespace_nx_ps2.html#adadbe61418bfadc6b7010deb0ad835fb" target="_top" xlink:title=" ">
<polygon fill="white" stroke="black" points="144.5,-133.5 144.5,-152.5 254.5,-152.5 254.5,-133.5 144.5,-133.5"/>
<text text-anchor="middle" x="199.5" y="-140.5" font-family="Helvetica,sans-Serif" font-size="10.00">NxPs2::SetupPCRTC</text>
</a>
</g>
</g>
<!-- Node1&#45;&gt;Node2 -->
<g id="edge1" class="edge"><title>Node1&#45;&gt;Node2</title>
<path fill="none" stroke="midnightblue" d="M102.05,-123.576C114.461,-126.076 127.972,-128.796 140.846,-131.389"/>
<polygon fill="midnightblue" stroke="midnightblue" points="140.506,-134.891 151,-133.434 141.888,-128.029 140.506,-134.891"/>
</g>
<!-- Node4 -->
<g id="node4" class="node"><title>Node4</title>
<g id="a_node4"><a xlink:href="../../d8/d79/namespace_nx_ps2.html#a12ee38956f003dd999be224b419c17dd" target="_top" xlink:title=" ">
<polygon fill="white" stroke="black" points="143,-76.5 143,-95.5 256,-95.5 256,-76.5 143,-76.5"/>
<text text-anchor="middle" x="199.5" y="-83.5" font-family="Helvetica,sans-Serif" font-size="10.00">NxPs2::StartInterrupts</text>
</a>
</g>
</g>
<!-- Node1&#45;&gt;Node4 -->
<g id="edge3" class="edge"><title>Node1&#45;&gt;Node4</title>
<path fill="none" stroke="midnightblue" d="M103.654,-104.442C115.239,-102.19 127.704,-99.7659 139.667,-97.4397"/>
<polygon fill="midnightblue" stroke="midnightblue" points="140.42,-100.859 149.568,-95.5146 139.083,-93.9877 140.42,-100.859"/>
</g>
<!-- Node3 -->
<g id="node3" class="node"><title>Node3</title>
<g id="a_node3"><a xlink:href="../../d0/d31/namespace_config.html#ac5d72116ad1031e37a5816af1055534d" target="_top" xlink:title=" ">
<polygon fill="white" stroke="black" points="305,-152.5 305,-171.5 380,-171.5 380,-152.5 305,-152.5"/>
<text text-anchor="middle" x="342.5" y="-159.5" font-family="Helvetica,sans-Serif" font-size="10.00">Config::NTSC</text>
</a>
</g>
</g>
<!-- Node2&#45;&gt;Node3 -->
<g id="edge2" class="edge"><title>Node2&#45;&gt;Node3</title>
<path fill="none" stroke="midnightblue" d="M254.611,-150.292C267.847,-152.075 281.9,-153.969 294.758,-155.701"/>
<polygon fill="midnightblue" stroke="midnightblue" points="294.398,-159.184 304.776,-157.051 295.333,-152.247 294.398,-159.184"/>
</g>
<!-- Node5 -->
<g id="node5" class="node"><title>Node5</title>
<g id="a_node5"><a xlink:href="../../d8/d79/namespace_nx_ps2.html#a3e3b5ab02fa14911cc69cd9c8d1f08d7" target="_top" xlink:title=" ">
<polygon fill="white" stroke="black" points="294,-76.5 294,-95.5 391,-95.5 391,-76.5 294,-76.5"/>
<text text-anchor="middle" x="342.5" y="-83.5" font-family="Helvetica,sans-Serif" font-size="10.00">NxPs2::GifHandler</text>
</a>
</g>
</g>
<!-- Node4&#45;&gt;Node5 -->
<g id="edge4" class="edge"><title>Node4&#45;&gt;Node5</title>
<path fill="none" stroke="midnightblue" d="M256.227,-86C265.287,-86 274.688,-86 283.795,-86"/>
<polygon fill="midnightblue" stroke="midnightblue" points="283.917,-89.5001 293.917,-86 283.917,-82.5001 283.917,-89.5001"/>
</g>
<!-- Node8 -->
<g id="node8" class="node"><title>Node8</title>
<g id="a_node8"><a xlink:href="../../d8/d79/namespace_nx_ps2.html#aefa0f37061cd69ff1ba9545c5205bc3d" target="_top" xlink:title=" ">
<polygon fill="white" stroke="black" points="293.5,-0.5 293.5,-19.5 391.5,-19.5 391.5,-0.5 293.5,-0.5"/>
<text text-anchor="middle" x="342.5" y="-7.5" font-family="Helvetica,sans-Serif" font-size="10.00">NxPs2::GsHandler</text>
</a>
</g>
</g>
<!-- Node4&#45;&gt;Node8 -->
<g id="edge7" class="edge"><title>Node4&#45;&gt;Node8</title>
<path fill="none" stroke="midnightblue" d="M213.977,-76.4596C231.418,-64.3856 263.014,-43.4267 292,-29 296.002,-27.0082 300.267,-25.0884 304.551,-23.2849"/>
<polygon fill="midnightblue" stroke="midnightblue" points="305.893,-26.5176 313.865,-19.5398 303.282,-20.023 305.893,-26.5176"/>
</g>
<!-- Node9 -->
<g id="node9" class="node"><title>Node9</title>
<g id="a_node9"><a xlink:href="../../df/d92/standard_8cpp.html#a5fc8fd1788f18ada61dfda9f171c5a1a" target="_top" xlink:title=" ">
<polygon fill="white" stroke="black" points="323.5,-38.5 323.5,-57.5 361.5,-57.5 361.5,-38.5 323.5,-38.5"/>
<text text-anchor="middle" x="342.5" y="-45.5" font-family="Helvetica,sans-Serif" font-size="10.00">printf</text>
</a>
</g>
</g>
<!-- Node4&#45;&gt;Node9 -->
<g id="edge10" class="edge"><title>Node4&#45;&gt;Node9</title>
<path fill="none" stroke="midnightblue" d="M236.08,-76.411C260.026,-69.9576 291.162,-61.5662 313.375,-55.5798"/>
<polygon fill="midnightblue" stroke="midnightblue" points="314.449,-58.9154 323.193,-52.9337 312.627,-52.1566 314.449,-58.9154"/>
</g>
<!-- Node10 -->
<g id="node10" class="node"><title>Node10</title>
<g id="a_node10"><a xlink:href="../../d8/d79/namespace_nx_ps2.html#afef4d993db0af18b35e54706ddf69461" target="_top" xlink:title=" ">
<polygon fill="white" stroke="black" points="292,-114.5 292,-133.5 393,-133.5 393,-114.5 292,-114.5"/>
<text text-anchor="middle" x="342.5" y="-121.5" font-family="Helvetica,sans-Serif" font-size="10.00">NxPs2::Vif1Handler</text>
</a>
</g>
</g>
<!-- Node4&#45;&gt;Node10 -->
<g id="edge11" class="edge"><title>Node4&#45;&gt;Node10</title>
<path fill="none" stroke="midnightblue" d="M236.08,-95.589C254.282,-100.494 276.638,-106.52 296.072,-111.757"/>
<polygon fill="midnightblue" stroke="midnightblue" points="295.365,-115.191 305.931,-114.414 297.186,-108.432 295.365,-115.191"/>
</g>
<!-- Node6 -->
<g id="node6" class="node"><title>Node6</title>
<g id="a_node6"><a xlink:href="../../da/d21/class_sys_1_1_profiler.html#a6251971d921454ca6bbeab5d685a8d97" target="_top" xlink:title=" ">
<polygon fill="white" stroke="black" points="431.5,-19.5 431.5,-38.5 558.5,-38.5 558.5,-19.5 431.5,-19.5"/>
<text text-anchor="middle" x="495" y="-26.5" font-family="Helvetica,sans-Serif" font-size="10.00">Sys::Profiler::PopContext</text>
</a>
</g>
</g>
<!-- Node5&#45;&gt;Node6 -->
<g id="edge5" class="edge"><title>Node5&#45;&gt;Node6</title>
<path fill="none" stroke="midnightblue" d="M368.69,-76.4595C393.433,-67.0884 431.391,-52.7124 459.048,-42.2377"/>
<polygon fill="midnightblue" stroke="midnightblue" points="460.615,-45.3867 468.728,-38.5716 458.136,-38.8405 460.615,-45.3867"/>
</g>
<!-- Node7 -->
<g id="node7" class="node"><title>Node7</title>
<g id="a_node7"><a xlink:href="../../da/d21/class_sys_1_1_profiler.html#a465bd1eebac4ba1e45cdb2bce604d67a" target="_top" xlink:title=" ">
<polygon fill="white" stroke="black" points="429,-76.5 429,-95.5 561,-95.5 561,-76.5 429,-76.5"/>
<text text-anchor="middle" x="495" y="-83.5" font-family="Helvetica,sans-Serif" font-size="10.00">Sys::Profiler::PushContext</text>
</a>
</g>
</g>
<!-- Node5&#45;&gt;Node7 -->
<g id="edge6" class="edge"><title>Node5&#45;&gt;Node7</title>
<path fill="none" stroke="midnightblue" d="M391.119,-86C399.91,-86 409.285,-86 418.661,-86"/>
<polygon fill="midnightblue" stroke="midnightblue" points="418.809,-89.5001 428.809,-86 418.809,-82.5001 418.809,-89.5001"/>
</g>
<!-- Node8&#45;&gt;Node6 -->
<g id="edge8" class="edge"><title>Node8&#45;&gt;Node6</title>
<path fill="none" stroke="midnightblue" d="M391.533,-16.064C401.017,-17.2613 411.168,-18.5428 421.259,-19.8167"/>
<polygon fill="midnightblue" stroke="midnightblue" points="420.943,-23.3045 431.303,-21.0847 421.82,-16.3597 420.943,-23.3045"/>
</g>
<!-- Node8&#45;&gt;Node7 -->
<g id="edge9" class="edge"><title>Node8&#45;&gt;Node7</title>
<path fill="none" stroke="midnightblue" d="M370.52,-19.5458C377.902,-22.3761 385.838,-25.6271 393,-29 407.698,-35.9223 444.003,-56.7691 468.831,-71.2334"/>
<polygon fill="midnightblue" stroke="midnightblue" points="467.316,-74.4014 477.716,-76.4221 470.846,-68.3567 467.316,-74.4014"/>
</g>
<!-- Node10&#45;&gt;Node7 -->
<g id="edge12" class="edge"><title>Node10&#45;&gt;Node7</title>
<path fill="none" stroke="midnightblue" d="M381.478,-114.411C401.159,-109.442 425.391,-103.323 446.321,-98.0387"/>
<polygon fill="midnightblue" stroke="midnightblue" points="447.457,-101.362 456.296,-95.5201 445.743,-94.5747 447.457,-101.362"/>
</g>
</g>
</svg>
