<?xml version="1.0" encoding="UTF-8" standalone="no"?>
<!DOCTYPE svg PUBLIC "-//W3C//DTD SVG 1.1//EN"
 "http://www.w3.org/Graphics/SVG/1.1/DTD/svg11.dtd">
<!-- Generated by graphviz version 2.38.0 (20140413.2041)
 -->
<!-- Title: Obj::BinTable::PutItemTwice Pages: 1 -->
<!--zoomable 107 -->
<svg id="main" version="1.1" xmlns="http://www.w3.org/2000/svg" xmlns:xlink="http://www.w3.org/1999/xlink" xml:space="preserve" onload="init(evt)">
<style type="text/css"><![CDATA[
.edge:hover path { stroke: red; }
.edge:hover polygon { stroke: red; fill: red; }
]]></style>
<script type="text/javascript"><![CDATA[
var edges = document.getElementsByTagName('g');
if (edges && edges.length) {
  for (var i=0;i<edges.length;i++) {
    if (edges[i].id.substr(0,4)=='edge') {
      edges[i].setAttribute('class','edge');
    }
  }
}
]]></script>
        <defs>
                <circle id="rim" cx="0" cy="0" r="7"/>
                <circle id="rim2" cx="0" cy="0" r="3.5"/>
                <g id="zoomPlus">
                        <use xlink:href="#rim" fill="#404040">
                                <set attributeName="fill" to="#808080" begin="zoomplus.mouseover" end="zoomplus.mouseout"/>
                        </use>
                        <path d="M-4,0h8M0,-4v8" fill="none" stroke="white" stroke-width="1.5" pointer-events="none"/>
                </g>
                <g id="zoomMin">
                        <use xlink:href="#rim" fill="#404040">
                                <set attributeName="fill" to="#808080" begin="zoomminus.mouseover" end="zoomminus.mouseout"/>
                        </use>
                        <path d="M-4,0h8" fill="none" stroke="white" stroke-width="1.5" pointer-events="none"/>
                </g>
                <g id="dirArrow">
                        <path fill="none" stroke="white" stroke-width="1.5" d="M0,-3.0v7 M-2.5,-0.5L0,-3.0L2.5,-0.5"/>
                </g>
               <g id="resetDef">
                       <use xlink:href="#rim2" fill="#404040">
                               <set attributeName="fill" to="#808080" begin="reset.mouseover" end="reset.mouseout"/>
                       </use>
               </g>
        </defs>

<script type="text/javascript">
var viewWidth = 783;
var viewHeight = 107;
var sectionId = 'dynsection-4';
</script>
<script xlink:href="../../svgpan.js"/>
<svg id="graph" class="graph">
<g id="viewport">
<title>Obj::BinTable::PutItemTwice</title>
<polygon fill="white" stroke="none" points="-4,4 -4,-103 779,-103 779,4 -4,4"/>
<!-- Node1 -->
<g id="node1" class="node"><title>Node1</title>
<g id="a_node1"><a xlink:title=" ">
<polygon fill="#bfbfbf" stroke="black" points="0,-55 0,-74 140,-74 140,-55 0,-55"/>
<text text-anchor="middle" x="70" y="-62" font-family="Helvetica,sans-Serif" font-size="10.00">Obj::BinTable::PutItemTwice</text>
</a>
</g>
</g>
<!-- Node2 -->
<g id="node2" class="node"><title>Node2</title>
<g id="a_node2"><a xlink:href="../../d6/ddc/class_obj_1_1_bin_table.html#a71d991b382432978f5fd031237f5fe17" target="_top" xlink:title=" ">
<polygon fill="white" stroke="black" points="359,-68.5 359,-98.5 456,-98.5 456,-68.5 359,-68.5"/>
<text text-anchor="start" x="367" y="-86.5" font-family="Helvetica,sans-Serif" font-size="10.00">Obj::BinTable::key</text>
<text text-anchor="middle" x="407.5" y="-75.5" font-family="Helvetica,sans-Serif" font-size="10.00">_to_bin</text>
</a>
</g>
</g>
<!-- Node1&#45;&gt;Node2 -->
<g id="edge1" class="edge"><title>Node1&#45;&gt;Node2</title>
<path fill="none" stroke="midnightblue" d="M140.109,-68.4138C201.725,-71.9032 290.879,-76.9522 348.766,-80.2304"/>
<polygon fill="midnightblue" stroke="midnightblue" points="348.66,-83.7299 358.842,-80.801 349.056,-76.7411 348.66,-83.7299"/>
</g>
<!-- Node3 -->
<g id="node3" class="node"><title>Node3</title>
<g id="a_node3"><a xlink:href="../../d6/ddc/class_obj_1_1_bin_table.html#a5af05ed18b8f97d99d4dcdf1cd09678a" target="_top" xlink:title=" ">
<polygon fill="white" stroke="black" points="176,-36 176,-55 291,-55 291,-36 176,-36"/>
<text text-anchor="middle" x="233.5" y="-43" font-family="Helvetica,sans-Serif" font-size="10.00">Obj::BinTable::PutItem</text>
</a>
</g>
</g>
<!-- Node1&#45;&gt;Node3 -->
<g id="edge2" class="edge"><title>Node1&#45;&gt;Node3</title>
<path fill="none" stroke="midnightblue" d="M140.428,-56.332C148.815,-55.3452 157.369,-54.3389 165.718,-53.3567"/>
<polygon fill="midnightblue" stroke="midnightblue" points="166.252,-56.8182 175.774,-52.1736 165.434,-49.8661 166.252,-56.8182"/>
</g>
<!-- Node3&#45;&gt;Node2 -->
<g id="edge3" class="edge"><title>Node3&#45;&gt;Node2</title>
<path fill="none" stroke="midnightblue" d="M277.903,-55.089C299.402,-59.8388 325.653,-65.6384 348.818,-70.7563"/>
<polygon fill="midnightblue" stroke="midnightblue" points="348.354,-74.2382 358.874,-72.978 349.864,-67.403 348.354,-74.2382"/>
</g>
<!-- Node4 -->
<g id="node4" class="node"><title>Node4</title>
<g id="a_node4"><a xlink:href="../../d4/dac/class_mem_1_1_pool_manager.html#a8b213ab053198549fdd6fa7dfdf503dc" target="_top" xlink:title=" ">
<polygon fill="white" stroke="black" points="327,-30 327,-49 488,-49 488,-30 327,-30"/>
<text text-anchor="middle" x="407.5" y="-37" font-family="Helvetica,sans-Serif" font-size="10.00">Mem::PoolManager::SCreateItem</text>
</a>
</g>
</g>
<!-- Node3&#45;&gt;Node4 -->
<g id="edge4" class="edge"><title>Node3&#45;&gt;Node4</title>
<path fill="none" stroke="midnightblue" d="M291.296,-43.5187C299.454,-43.2342 308.01,-42.9357 316.619,-42.6354"/>
<polygon fill="midnightblue" stroke="midnightblue" points="316.855,-46.1294 326.727,-42.2828 316.611,-39.1336 316.855,-46.1294"/>
</g>
<!-- Node5 -->
<g id="node5" class="node"><title>Node5</title>
<g id="a_node5"><a xlink:href="../../d0/d5b/class_mem_1_1_c_compact_pool.html#ae0a4db963eeb0d6a5ec0ba3a95e333a6" target="_top" xlink:title=" ">
<polygon fill="white" stroke="black" points="524,-49.5 524,-79.5 640,-79.5 640,-49.5 524,-49.5"/>
<text text-anchor="start" x="532" y="-67.5" font-family="Helvetica,sans-Serif" font-size="10.00">Mem::CCompactPool::</text>
<text text-anchor="middle" x="582" y="-56.5" font-family="Helvetica,sans-Serif" font-size="10.00">Allocate</text>
</a>
</g>
</g>
<!-- Node4&#45;&gt;Node5 -->
<g id="edge5" class="edge"><title>Node4&#45;&gt;Node5</title>
<path fill="none" stroke="midnightblue" d="M474.207,-49.0227C487.129,-50.8955 500.704,-52.8629 513.678,-54.7432"/>
<polygon fill="midnightblue" stroke="midnightblue" points="513.532,-58.2585 523.931,-56.2291 514.536,-51.3309 513.532,-58.2585"/>
</g>
<!-- Node8 -->
<g id="node8" class="node"><title>Node8</title>
<g id="a_node8"><a xlink:href="../../d4/dac/class_mem_1_1_pool_manager.html#a92efb8cab70ea347ae13125c34919d84" target="_top" xlink:title=" ">
<polygon fill="white" stroke="black" points="525.5,-0.5 525.5,-30.5 638.5,-30.5 638.5,-0.5 525.5,-0.5"/>
<text text-anchor="start" x="533.5" y="-18.5" font-family="Helvetica,sans-Serif" font-size="10.00">Mem::PoolManager::s</text>
<text text-anchor="middle" x="582" y="-7.5" font-family="Helvetica,sans-Serif" font-size="10.00">_get_item_size</text>
</a>
</g>
</g>
<!-- Node4&#45;&gt;Node8 -->
<g id="edge8" class="edge"><title>Node4&#45;&gt;Node8</title>
<path fill="none" stroke="midnightblue" d="M477.172,-29.9456C489.651,-28.2095 502.642,-26.4021 515.039,-24.6771"/>
<polygon fill="midnightblue" stroke="midnightblue" points="515.868,-28.0957 525.29,-23.2509 514.903,-21.1625 515.868,-28.0957"/>
</g>
<!-- Node6 -->
<g id="node6" class="node"><title>Node6</title>
<g id="a_node6"><a xlink:href="../../d9/d14/_assert_8cpp.html#a18ebf7e6715eb575816ea9ab6f6f7e46" target="_top" xlink:title=" ">
<polygon fill="white" stroke="black" points="676,-74 676,-93 775,-93 775,-74 676,-74"/>
<text text-anchor="middle" x="725.5" y="-81" font-family="Helvetica,sans-Serif" font-size="10.00">DumpUnwindStack</text>
</a>
</g>
</g>
<!-- Node5&#45;&gt;Node6 -->
<g id="edge6" class="edge"><title>Node5&#45;&gt;Node6</title>
<path fill="none" stroke="midnightblue" d="M640.146,-72.1733C648.543,-73.3009 657.207,-74.4641 665.638,-75.5963"/>
<polygon fill="midnightblue" stroke="midnightblue" points="665.397,-79.0953 675.774,-76.9573 666.329,-72.1576 665.397,-79.0953"/>
</g>
<!-- Node7 -->
<g id="node7" class="node"><title>Node7</title>
<g id="a_node7"><a xlink:href="../../df/d92/standard_8cpp.html#a5fc8fd1788f18ada61dfda9f171c5a1a" target="_top" xlink:title=" ">
<polygon fill="white" stroke="black" points="706.5,-36 706.5,-55 744.5,-55 744.5,-36 706.5,-36"/>
<text text-anchor="middle" x="725.5" y="-43" font-family="Helvetica,sans-Serif" font-size="10.00">printf</text>
</a>
</g>
</g>
<!-- Node5&#45;&gt;Node7 -->
<g id="edge7" class="edge"><title>Node5&#45;&gt;Node7</title>
<path fill="none" stroke="midnightblue" d="M640.146,-56.8267C659.34,-54.2494 679.923,-51.4856 695.952,-49.3333"/>
<polygon fill="midnightblue" stroke="midnightblue" points="696.803,-52.7505 706.248,-47.9508 695.871,-45.8128 696.803,-52.7505"/>
</g>
</g>
</svg>
        <g id="navigator" transform="translate(0 0)" fill="#404254">
                <rect fill="#f2f5e9" fill-opacity="0.5" stroke="#606060" stroke-width=".5" x="0" y="0" width="60" height="60"/>
                <use id="zoomplus" xlink:href="#zoomPlus" x="17" y="9" onmousedown="handleZoom(evt,'in')"/>
                <use id="zoomminus" xlink:href="#zoomMin" x="42" y="9" onmousedown="handleZoom(evt,'out')"/>
                <use id="reset" xlink:href="#resetDef" x="30" y="36" onmousedown="handleReset()"/>
                <g id="arrowUp" xlink:href="#dirArrow" transform="translate(30 24)" onmousedown="handlePan(0,-1)">
                  <use xlink:href="#rim" fill="#404040">
                        <set attributeName="fill" to="#808080" begin="arrowUp.mouseover" end="arrowUp.mouseout"/>
                  </use>
                  <path fill="none" stroke="white" stroke-width="1.5" d="M0,-3.0v7 M-2.5,-0.5L0,-3.0L2.5,-0.5"/>
                </g>
                <g id="arrowRight" xlink:href="#dirArrow" transform="rotate(90) translate(36 -43)" onmousedown="handlePan(1,0)">
                  <use xlink:href="#rim" fill="#404040">
                        <set attributeName="fill" to="#808080" begin="arrowRight.mouseover" end="arrowRight.mouseout"/>
                  </use>
                  <path fill="none" stroke="white" stroke-width="1.5" d="M0,-3.0v7 M-2.5,-0.5L0,-3.0L2.5,-0.5"/>
                </g>
                <g id="arrowDown" xlink:href="#dirArrow" transform="rotate(180) translate(-30 -48)" onmousedown="handlePan(0,1)">
                  <use xlink:href="#rim" fill="#404040">
                        <set attributeName="fill" to="#808080" begin="arrowDown.mouseover" end="arrowDown.mouseout"/>
                  </use>
                  <path fill="none" stroke="white" stroke-width="1.5" d="M0,-3.0v7 M-2.5,-0.5L0,-3.0L2.5,-0.5"/>
                </g>
                <g id="arrowLeft" xlink:href="#dirArrow" transform="rotate(270) translate(-36 17)" onmousedown="handlePan(-1,0)">
                  <use xlink:href="#rim" fill="#404040">
                        <set attributeName="fill" to="#808080" begin="arrowLeft.mouseover" end="arrowLeft.mouseout"/>
                  </use>
                  <path fill="none" stroke="white" stroke-width="1.5" d="M0,-3.0v7 M-2.5,-0.5L0,-3.0L2.5,-0.5"/>
                </g>
        </g>
        <svg viewBox="0 0 15 15" width="100%" height="30px" preserveAspectRatio="xMaxYMin meet">
         <g id="arrow_out" transform="scale(0.3 0.3)">
          <a xlink:href="class_obj_1_1_bin_table_acfcb099dbdb8530b9def4e27dbe49840_cgraph_org.svg" target="_base">
           <rect id="button" ry="5" rx="5" y="6" x="6" height="38" width="38"
                fill="#f2f5e9" fill-opacity="0.5" stroke="#606060" stroke-width="1.0"/>
           <path id="arrow"
             d="M 11.500037,31.436501 C 11.940474,20.09759 22.043105,11.32322 32.158766,21.979434 L 37.068811,17.246167 C 37.068811,17.246167 37.088388,32 37.088388,32 L 22.160133,31.978069 C 22.160133,31.978069 26.997745,27.140456 26.997745,27.140456 C 18.528582,18.264221 13.291696,25.230495 11.500037,31.436501 z"
             style="fill:#404040;"/>
          </a>
         </g>
        </svg>
</svg>
