<?xml version="1.0" encoding="UTF-8" standalone="no"?>
<!DOCTYPE svg PUBLIC "-//W3C//DTD SVG 1.1//EN"
 "http://www.w3.org/Graphics/SVG/1.1/DTD/svg11.dtd">
<!-- Generated by graphviz version 2.38.0 (20140413.2041)
 -->
<!-- Title: Pcm::_PreLoadMusicStream Pages: 1 -->
<svg width="934pt" height="294pt"
 viewBox="0.00 0.00 934.00 294.00" xmlns="http://www.w3.org/2000/svg" xmlns:xlink="http://www.w3.org/1999/xlink">
<g id="graph0" class="graph" transform="scale(1 1) rotate(0) translate(4 290)">
<title>Pcm::_PreLoadMusicStream</title>
<polygon fill="white" stroke="none" points="-4,4 -4,-290 930,-290 930,4 -4,4"/>
<!-- Node1 -->
<g id="node1" class="node"><title>Node1</title>
<g id="a_node1"><a xlink:title=" ">
<polygon fill="#bfbfbf" stroke="black" points="0,-208.5 0,-227.5 142,-227.5 142,-208.5 0,-208.5"/>
<text text-anchor="middle" x="71" y="-215.5" font-family="Helvetica,sans-Serif" font-size="10.00">Pcm::_PreLoadMusicStream</text>
</a>
</g>
</g>
<!-- Node2 -->
<g id="node2" class="node"><title>Node2</title>
<g id="a_node2"><a xlink:href="../../d1/d54/namespace_script.html#ae80ed69ea4edcbcbbbd4985a6efdcd6e" target="_top" xlink:title=" ">
<polygon fill="white" stroke="black" points="187,-208.5 187,-227.5 326,-227.5 326,-208.5 187,-208.5"/>
<text text-anchor="middle" x="256.5" y="-215.5" font-family="Helvetica,sans-Serif" font-size="10.00">Script::FindChecksumName</text>
</a>
</g>
</g>
<!-- Node1&#45;&gt;Node2 -->
<g id="edge1" class="edge"><title>Node1&#45;&gt;Node2</title>
<path fill="none" stroke="midnightblue" d="M142.159,-218C153.506,-218 165.32,-218 176.852,-218"/>
<polygon fill="midnightblue" stroke="midnightblue" points="176.895,-221.5 186.895,-218 176.895,-214.5 176.895,-221.5"/>
</g>
<!-- Node6 -->
<g id="node6" class="node"><title>Node6</title>
<g id="a_node6"><a xlink:href="../../de/d3e/namespace_pcm.html#af0bafbd0b771375d49a4a76ae3a9a83b" target="_top" xlink:title=" ">
<polygon fill="white" stroke="black" points="201,-262.5 201,-281.5 312,-281.5 312,-262.5 201,-262.5"/>
<text text-anchor="middle" x="256.5" y="-269.5" font-family="Helvetica,sans-Serif" font-size="10.00">Pcm::NoMusicPlease</text>
</a>
</g>
</g>
<!-- Node1&#45;&gt;Node6 -->
<g id="edge5" class="edge"><title>Node1&#45;&gt;Node6</title>
<path fill="none" stroke="midnightblue" d="M104.384,-227.53C134.688,-236.448 180.134,-249.821 213.273,-259.574"/>
<polygon fill="midnightblue" stroke="midnightblue" points="212.551,-263.009 223.132,-262.475 214.527,-256.294 212.551,-263.009"/>
</g>
<!-- Node8 -->
<g id="node8" class="node"><title>Node8</title>
<g id="a_node8"><a xlink:href="../../de/d3e/namespace_pcm.html#a0dbb46ceca862703255ebaa3dd28c431" target="_top" xlink:title=" ">
<polygon fill="white" stroke="black" points="178,-151 178,-181 335,-181 335,-151 178,-151"/>
<text text-anchor="start" x="186" y="-169" font-family="Helvetica,sans-Serif" font-size="10.00">Pcm::PCMAudio_PreLoadMusic</text>
<text text-anchor="middle" x="256.5" y="-158" font-family="Helvetica,sans-Serif" font-size="10.00">Stream</text>
</a>
</g>
</g>
<!-- Node1&#45;&gt;Node8 -->
<g id="edge7" class="edge"><title>Node1&#45;&gt;Node8</title>
<path fill="none" stroke="midnightblue" d="M105.657,-208.462C129.919,-201.587 163.388,-192.103 192.541,-183.841"/>
<polygon fill="midnightblue" stroke="midnightblue" points="193.576,-187.186 202.243,-181.092 191.668,-180.451 193.576,-187.186"/>
</g>
<!-- Node3 -->
<g id="node3" class="node"><title>Node3</title>
<g id="a_node3"><a xlink:href="../../d1/d54/namespace_script.html#a5cc52c4ff5ea5bb27681d819212dfdca" target="_top" xlink:title=" ">
<polygon fill="white" stroke="black" points="371.5,-228.5 371.5,-247.5 534.5,-247.5 534.5,-228.5 371.5,-228.5"/>
<text text-anchor="middle" x="453" y="-235.5" font-family="Helvetica,sans-Serif" font-size="10.00">Script::FindChecksumNameNULL</text>
</a>
</g>
</g>
<!-- Node2&#45;&gt;Node3 -->
<g id="edge2" class="edge"><title>Node2&#45;&gt;Node3</title>
<path fill="none" stroke="midnightblue" d="M326.073,-225.051C337.409,-226.217 349.315,-227.441 361.096,-228.653"/>
<polygon fill="midnightblue" stroke="midnightblue" points="361.094,-232.171 371.4,-229.712 361.81,-225.207 361.094,-232.171"/>
</g>
<!-- Node5 -->
<g id="node5" class="node"><title>Node5</title>
<g id="a_node5"><a xlink:href="../../da/d37/namespace_dbg.html#ab406a8cc16de5046c7d9fd09c9de5e22" target="_top" xlink:title=" ">
<polygon fill="white" stroke="black" points="420,-190.5 420,-209.5 486,-209.5 486,-190.5 420,-190.5"/>
<text text-anchor="middle" x="453" y="-197.5" font-family="Helvetica,sans-Serif" font-size="10.00">Dbg::sprintf</text>
</a>
</g>
</g>
<!-- Node2&#45;&gt;Node5 -->
<g id="edge4" class="edge"><title>Node2&#45;&gt;Node5</title>
<path fill="none" stroke="midnightblue" d="M326.073,-211.654C354.018,-209.068 385.431,-206.161 409.892,-203.897"/>
<polygon fill="midnightblue" stroke="midnightblue" points="410.285,-207.376 419.92,-202.969 409.64,-200.405 410.285,-207.376"/>
</g>
<!-- Node4 -->
<g id="node4" class="node"><title>Node4</title>
<g id="a_node4"><a xlink:href="../../d0/d31/namespace_config.html#a709cc81780d49900157e3476b63aa25d" target="_top" xlink:title=" ">
<polygon fill="white" stroke="black" points="591.5,-266.5 591.5,-285.5 715.5,-285.5 715.5,-266.5 591.5,-266.5"/>
<text text-anchor="middle" x="653.5" y="-273.5" font-family="Helvetica,sans-Serif" font-size="10.00">Config::GotExtraMemory</text>
</a>
</g>
</g>
<!-- Node3&#45;&gt;Node4 -->
<g id="edge3" class="edge"><title>Node3&#45;&gt;Node4</title>
<path fill="none" stroke="midnightblue" d="M503.834,-247.54C530.734,-252.69 564.136,-259.084 592.461,-264.506"/>
<polygon fill="midnightblue" stroke="midnightblue" points="592.166,-268.013 602.646,-266.456 593.482,-261.138 592.166,-268.013"/>
</g>
<!-- Node7 -->
<g id="node7" class="node"><title>Node7</title>
<g id="a_node7"><a xlink:href="../../d0/d31/namespace_config.html#a6cdbd8b148c494cebe8d9f141d1896a1" target="_top" xlink:title=" ">
<polygon fill="white" stroke="black" points="400,-266.5 400,-285.5 506,-285.5 506,-266.5 400,-266.5"/>
<text text-anchor="middle" x="453" y="-273.5" font-family="Helvetica,sans-Serif" font-size="10.00">Config::GetHardware</text>
</a>
</g>
</g>
<!-- Node6&#45;&gt;Node7 -->
<g id="edge6" class="edge"><title>Node6&#45;&gt;Node7</title>
<path fill="none" stroke="midnightblue" d="M312.197,-273.125C336.293,-273.62 364.73,-274.205 389.645,-274.718"/>
<polygon fill="midnightblue" stroke="midnightblue" points="389.652,-278.218 399.722,-274.925 389.796,-271.22 389.652,-278.218"/>
</g>
<!-- Node8&#45;&gt;Node5 -->
<g id="edge23" class="edge"><title>Node8&#45;&gt;Node5</title>
<path fill="none" stroke="midnightblue" d="M335.21,-179.584C360.604,-184.023 387.852,-188.787 409.637,-192.595"/>
<polygon fill="midnightblue" stroke="midnightblue" points="409.094,-196.053 419.547,-194.327 410.299,-189.157 409.094,-196.053"/>
</g>
<!-- Node9 -->
<g id="node9" class="node"><title>Node9</title>
<g id="a_node9"><a xlink:href="../../d3/d9b/namespace_crc.html#aed1b5ad21f682b39b09782ec29f5c5cc" target="_top" xlink:title=" ">
<polygon fill="white" stroke="black" points="380,-114.5 380,-133.5 526,-133.5 526,-114.5 380,-114.5"/>
<text text-anchor="middle" x="453" y="-121.5" font-family="Helvetica,sans-Serif" font-size="10.00">Crc::GenerateCRCFromString</text>
</a>
</g>
</g>
<!-- Node8&#45;&gt;Node9 -->
<g id="edge8" class="edge"><title>Node8&#45;&gt;Node9</title>
<path fill="none" stroke="midnightblue" d="M327.17,-150.956C350.518,-145.914 376.178,-140.373 398.129,-135.633"/>
<polygon fill="midnightblue" stroke="midnightblue" points="398.896,-139.048 407.932,-133.516 397.419,-132.206 398.896,-139.048"/>
</g>
<!-- Node10 -->
<g id="node10" class="node"><title>Node10</title>
<g id="a_node10"><a xlink:href="../../de/d3e/namespace_pcm.html#a7a0f485121bf4a48fb253675672e0c5f" target="_top" xlink:title=" ">
<polygon fill="white" stroke="black" points="371,-152.5 371,-171.5 535,-171.5 535,-152.5 371,-152.5"/>
<text text-anchor="middle" x="453" y="-159.5" font-family="Helvetica,sans-Serif" font-size="10.00">Pcm::PCMAudio_PlayMusicTrack</text>
</a>
</g>
</g>
<!-- Node8&#45;&gt;Node10 -->
<g id="edge9" class="edge"><title>Node8&#45;&gt;Node10</title>
<path fill="none" stroke="midnightblue" d="M335.21,-164.402C343.652,-164.228 352.299,-164.05 360.881,-163.874"/>
<polygon fill="midnightblue" stroke="midnightblue" points="360.985,-167.373 370.911,-163.668 360.841,-160.374 360.985,-167.373"/>
</g>
<!-- Node11 -->
<g id="node11" class="node"><title>Node11</title>
<g id="a_node11"><a xlink:href="../../d3/dc5/_a_u_d_simple_player_8cpp.html#ae0e25e489d4641010d3ae12384d961c0" target="_top" xlink:title="Initializes all audio_player structures.">
<polygon fill="white" stroke="black" points="613.5,-190.5 613.5,-209.5 693.5,-209.5 693.5,-190.5 613.5,-190.5"/>
<text text-anchor="middle" x="653.5" y="-197.5" font-family="Helvetica,sans-Serif" font-size="10.00">AUDSimpleInit</text>
</a>
</g>
</g>
<!-- Node10&#45;&gt;Node11 -->
<g id="edge10" class="edge"><title>Node10&#45;&gt;Node11</title>
<path fill="none" stroke="midnightblue" d="M503.834,-171.54C534.272,-177.367 573.034,-184.787 603.347,-190.59"/>
<polygon fill="midnightblue" stroke="midnightblue" points="602.799,-194.049 613.279,-192.492 604.115,-187.174 602.799,-194.049"/>
</g>
<!-- Node12 -->
<g id="node12" class="node"><title>Node12</title>
<g id="a_node12"><a xlink:href="../../d3/dc5/_a_u_d_simple_player_8cpp.html#ae897f5f0f040431a700ac12b3d976e0e" target="_top" xlink:title="Open video file.">
<polygon fill="white" stroke="black" points="608.5,-152.5 608.5,-171.5 698.5,-171.5 698.5,-152.5 608.5,-152.5"/>
<text text-anchor="middle" x="653.5" y="-159.5" font-family="Helvetica,sans-Serif" font-size="10.00">AUDSimpleOpen</text>
</a>
</g>
</g>
<!-- Node10&#45;&gt;Node12 -->
<g id="edge11" class="edge"><title>Node10&#45;&gt;Node12</title>
<path fill="none" stroke="midnightblue" d="M535.024,-162C556.288,-162 578.707,-162 598.196,-162"/>
<polygon fill="midnightblue" stroke="midnightblue" points="598.395,-165.5 608.395,-162 598.395,-158.5 598.395,-165.5"/>
</g>
<!-- Node14 -->
<g id="node14" class="node"><title>Node14</title>
<g id="a_node14"><a xlink:href="../../de/d3e/namespace_pcm.html#a1cfdb39c82f5cad23e1413009ecb4054" target="_top" xlink:title="Memory allocation callback.">
<polygon fill="white" stroke="black" points="614.5,-114.5 614.5,-133.5 692.5,-133.5 692.5,-114.5 614.5,-114.5"/>
<text text-anchor="middle" x="653.5" y="-121.5" font-family="Helvetica,sans-Serif" font-size="10.00">Pcm::myAlloc</text>
</a>
</g>
</g>
<!-- Node10&#45;&gt;Node14 -->
<g id="edge13" class="edge"><title>Node10&#45;&gt;Node14</title>
<path fill="none" stroke="midnightblue" d="M503.834,-152.46C534.581,-146.574 573.824,-139.061 604.269,-133.233"/>
<polygon fill="midnightblue" stroke="midnightblue" points="605.068,-136.644 614.232,-131.326 603.752,-129.769 605.068,-136.644"/>
</g>
<!-- Node21 -->
<g id="node21" class="node"><title>Node21</title>
<g id="a_node21"><a xlink:href="../../de/d3e/namespace_pcm.html#a484a1b1a3c0b5b2b9a7482e9d231e11b" target="_top" xlink:title="Memory free callback.">
<polygon fill="white" stroke="black" points="615.5,-76.5 615.5,-95.5 691.5,-95.5 691.5,-76.5 615.5,-76.5"/>
<text text-anchor="middle" x="653.5" y="-83.5" font-family="Helvetica,sans-Serif" font-size="10.00">Pcm::myFree</text>
</a>
</g>
</g>
<!-- Node10&#45;&gt;Node21 -->
<g id="edge20" class="edge"><title>Node10&#45;&gt;Node21</title>
<path fill="none" stroke="midnightblue" d="M513.075,-152.436C520.722,-149.977 528.237,-146.885 535,-143 555.173,-131.412 550.819,-116.574 571,-105 581.333,-99.074 593.406,-94.995 605.045,-92.1877"/>
<polygon fill="midnightblue" stroke="midnightblue" points="606.061,-95.5495 615.107,-90.0336 604.596,-88.7046 606.061,-95.5495"/>
</g>
<!-- Node22 -->
<g id="node22" class="node"><title>Node22</title>
<g id="a_node22"><a xlink:href="../../de/d3e/namespace_pcm.html#ae11c6f947d002653d646ed6be25fe683" target="_top" xlink:title=" ">
<polygon fill="white" stroke="black" points="571,-38.5 571,-57.5 736,-57.5 736,-38.5 571,-38.5"/>
<text text-anchor="middle" x="653.5" y="-45.5" font-family="Helvetica,sans-Serif" font-size="10.00">Pcm::PCMAudio_GetMusicStatus</text>
</a>
</g>
</g>
<!-- Node10&#45;&gt;Node22 -->
<g id="edge21" class="edge"><title>Node10&#45;&gt;Node22</title>
<path fill="none" stroke="midnightblue" d="M519.281,-152.357C524.929,-149.884 530.281,-146.812 535,-143 564.076,-119.516 541.908,-90.4646 571,-67 573.078,-65.324 575.278,-63.7907 577.571,-62.3882"/>
<polygon fill="midnightblue" stroke="midnightblue" points="579.546,-65.307 586.818,-57.6026 576.328,-59.0901 579.546,-65.307"/>
</g>
<!-- Node23 -->
<g id="node23" class="node"><title>Node23</title>
<g id="a_node23"><a xlink:href="../../de/d10/namespace_file.html#a8e901686535d27c6ee4c53bbdf327414" target="_top" xlink:title=" ">
<polygon fill="white" stroke="black" points="602,-228.5 602,-247.5 705,-247.5 705,-228.5 602,-228.5"/>
<text text-anchor="middle" x="653.5" y="-235.5" font-family="Helvetica,sans-Serif" font-size="10.00">File::StopStreaming</text>
</a>
</g>
</g>
<!-- Node10&#45;&gt;Node23 -->
<g id="edge22" class="edge"><title>Node10&#45;&gt;Node23</title>
<path fill="none" stroke="midnightblue" d="M513.075,-171.564C520.722,-174.023 528.237,-177.115 535,-181 555.173,-192.588 550.819,-207.426 571,-219 577.412,-222.677 584.494,-225.643 591.727,-228.036"/>
<polygon fill="midnightblue" stroke="midnightblue" points="591.053,-231.486 601.634,-230.955 593.031,-224.771 591.053,-231.486"/>
</g>
<!-- Node13 -->
<g id="node13" class="node"><title>Node13</title>
<g id="a_node13"><a xlink:href="../../d3/dc5/_a_u_d_simple_player_8cpp.html#a86fa40aebf6443a608da59831d67b24f" target="_top" xlink:title=" ">
<polygon fill="white" stroke="black" points="775,-228.5 775,-247.5 923,-247.5 923,-228.5 775,-228.5"/>
<text text-anchor="middle" x="849" y="-235.5" font-family="Helvetica,sans-Serif" font-size="10.00">AUDSimpleOpenDVDCallback</text>
</a>
</g>
</g>
<!-- Node12&#45;&gt;Node13 -->
<g id="edge12" class="edge"><title>Node12&#45;&gt;Node13</title>
<path fill="none" stroke="midnightblue" d="M698.555,-167.4C711.217,-170.215 724.657,-174.495 736,-181 756.181,-192.574 751.912,-207.265 772,-219 775.87,-221.261 780.003,-223.254 784.267,-225.012"/>
<polygon fill="midnightblue" stroke="midnightblue" points="783.166,-228.336 793.76,-228.495 785.578,-221.765 783.166,-228.336"/>
</g>
<!-- Node15 -->
<g id="node15" class="node"><title>Node15</title>
<g id="a_node15"><a xlink:href="../../d2/d0a/class_mem_1_1_manager.html#a17162e2f6ea33ee7c45ffb78044806a9" target="_top" xlink:title=" ">
<polygon fill="white" stroke="black" points="772,-152.5 772,-171.5 926,-171.5 926,-152.5 772,-152.5"/>
<text text-anchor="middle" x="849" y="-159.5" font-family="Helvetica,sans-Serif" font-size="10.00">Mem::Manager::BottomUpHeap</text>
</a>
</g>
</g>
<!-- Node14&#45;&gt;Node15 -->
<g id="edge14" class="edge"><title>Node14&#45;&gt;Node15</title>
<path fill="none" stroke="midnightblue" d="M692.729,-131.508C720.358,-136.933 758.186,-144.362 789.587,-150.529"/>
<polygon fill="midnightblue" stroke="midnightblue" points="789.048,-153.99 799.535,-152.482 790.396,-147.121 789.048,-153.99"/>
</g>
<!-- Node16 -->
<g id="node16" class="node"><title>Node16</title>
<g id="a_node16"><a xlink:href="../../d5/d97/class_mem_1_1_allocator.html#a85a57938d2ec5fe61e575a358f009ca9" target="_top" xlink:title=" ">
<polygon fill="white" stroke="black" points="785,-114.5 785,-133.5 913,-133.5 913,-114.5 785,-114.5"/>
<text text-anchor="middle" x="849" y="-121.5" font-family="Helvetica,sans-Serif" font-size="10.00">Mem::Allocator::PopAlign</text>
</a>
</g>
</g>
<!-- Node14&#45;&gt;Node16 -->
<g id="edge15" class="edge"><title>Node14&#45;&gt;Node16</title>
<path fill="none" stroke="midnightblue" d="M692.729,-124C716.076,-124 746.704,-124 774.584,-124"/>
<polygon fill="midnightblue" stroke="midnightblue" points="774.712,-127.5 784.712,-124 774.712,-120.5 774.712,-127.5"/>
</g>
<!-- Node17 -->
<g id="node17" class="node"><title>Node17</title>
<g id="a_node17"><a xlink:href="../../d2/d0a/class_mem_1_1_manager.html#a7c4cba14870f002aee0243e16114f443" target="_top" xlink:title=" ">
<polygon fill="white" stroke="black" points="779.5,-76.5 779.5,-95.5 918.5,-95.5 918.5,-76.5 779.5,-76.5"/>
<text text-anchor="middle" x="849" y="-83.5" font-family="Helvetica,sans-Serif" font-size="10.00">Mem::Manager::PopContext</text>
</a>
</g>
</g>
<!-- Node14&#45;&gt;Node17 -->
<g id="edge16" class="edge"><title>Node14&#45;&gt;Node17</title>
<path fill="none" stroke="midnightblue" d="M692.729,-116.492C720.358,-111.067 758.186,-103.638 789.587,-97.4714"/>
<polygon fill="midnightblue" stroke="midnightblue" points="790.396,-100.879 799.535,-95.5178 789.048,-94.0104 790.396,-100.879"/>
</g>
<!-- Node18 -->
<g id="node18" class="node"><title>Node18</title>
<g id="a_node18"><a xlink:href="../../d5/d97/class_mem_1_1_allocator.html#ad867c0d0ef2ad7b1db3983d0a0baef81" target="_top" xlink:title=" ">
<polygon fill="white" stroke="black" points="782.5,-38.5 782.5,-57.5 915.5,-57.5 915.5,-38.5 782.5,-38.5"/>
<text text-anchor="middle" x="849" y="-45.5" font-family="Helvetica,sans-Serif" font-size="10.00">Mem::Allocator::PushAlign</text>
</a>
</g>
</g>
<!-- Node14&#45;&gt;Node18 -->
<g id="edge17" class="edge"><title>Node14&#45;&gt;Node18</title>
<path fill="none" stroke="midnightblue" d="M692.714,-119.81C706.985,-117.063 722.893,-112.517 736,-105 756.181,-93.4257 751.912,-78.7348 772,-67 775.87,-64.7393 780.003,-62.7458 784.267,-60.9882"/>
<polygon fill="midnightblue" stroke="midnightblue" points="785.578,-64.2355 793.76,-57.505 783.166,-57.6639 785.578,-64.2355"/>
</g>
<!-- Node19 -->
<g id="node19" class="node"><title>Node19</title>
<g id="a_node19"><a xlink:href="../../d2/d0a/class_mem_1_1_manager.html#aaf8e36abc36eecabe46bf2582035192a" target="_top" xlink:title=" ">
<polygon fill="white" stroke="black" points="777,-0.5 777,-19.5 921,-19.5 921,-0.5 777,-0.5"/>
<text text-anchor="middle" x="849" y="-7.5" font-family="Helvetica,sans-Serif" font-size="10.00">Mem::Manager::PushContext</text>
</a>
</g>
</g>
<!-- Node14&#45;&gt;Node19 -->
<g id="edge18" class="edge"><title>Node14&#45;&gt;Node19</title>
<path fill="none" stroke="midnightblue" d="M692.891,-122.102C707.677,-119.68 723.9,-114.76 736,-105 765.092,-81.5354 743.096,-52.6957 772,-29 774.071,-27.3024 776.272,-25.7536 778.573,-24.3406"/>
<polygon fill="midnightblue" stroke="midnightblue" points="780.589,-27.2384 787.865,-19.5373 777.375,-21.02 780.589,-27.2384"/>
</g>
<!-- Node20 -->
<g id="node20" class="node"><title>Node20</title>
<g id="a_node20"><a xlink:href="../../d2/d0a/class_mem_1_1_manager.html#a3aefd91781b7f41d35e6df6a32d379d0" target="_top" xlink:title=" ">
<polygon fill="white" stroke="black" points="787.5,-190.5 787.5,-209.5 910.5,-209.5 910.5,-190.5 787.5,-190.5"/>
<text text-anchor="middle" x="849" y="-197.5" font-family="Helvetica,sans-Serif" font-size="10.00">Mem::Manager::sHandle</text>
</a>
</g>
</g>
<!-- Node14&#45;&gt;Node20 -->
<g id="edge19" class="edge"><title>Node14&#45;&gt;Node20</title>
<path fill="none" stroke="midnightblue" d="M692.714,-128.19C706.985,-130.937 722.893,-135.483 736,-143 756.181,-154.574 751.912,-169.265 772,-181 775.87,-183.261 780.003,-185.254 784.267,-187.012"/>
<polygon fill="midnightblue" stroke="midnightblue" points="783.166,-190.336 793.76,-190.495 785.578,-183.765 783.166,-190.336"/>
</g>
</g>
</svg>
