<?xml version="1.0" encoding="UTF-8" standalone="no"?>
<!DOCTYPE svg PUBLIC "-//W3C//DTD SVG 1.1//EN"
 "http://www.w3.org/Graphics/SVG/1.1/DTD/svg11.dtd">
<!-- Generated by graphviz version 2.38.0 (20140413.2041)
 -->
<!-- Title: Pcm::UseUserSoundtrack Pages: 1 -->
<svg width="512pt" height="91pt"
 viewBox="0.00 0.00 512.00 91.00" xmlns="http://www.w3.org/2000/svg" xmlns:xlink="http://www.w3.org/1999/xlink">
<g id="graph0" class="graph" transform="scale(1 1) rotate(0) translate(4 87)">
<title>Pcm::UseUserSoundtrack</title>
<polygon fill="white" stroke="none" points="-4,4 -4,-87 508,-87 508,4 -4,4"/>
<!-- Node1 -->
<g id="node1" class="node"><title>Node1</title>
<g id="a_node1"><a xlink:title=" ">
<polygon fill="#bfbfbf" stroke="black" points="0,-41.5 0,-60.5 130,-60.5 130,-41.5 0,-41.5"/>
<text text-anchor="middle" x="65" y="-48.5" font-family="Helvetica,sans-Serif" font-size="10.00">Pcm::UseUserSoundtrack</text>
</a>
</g>
</g>
<!-- Node2 -->
<g id="node2" class="node"><title>Node2</title>
<g id="a_node2"><a xlink:href="../../de/d3e/namespace_pcm.html#a9dc5061c2811975c573c4f8ea921cad8" target="_top" xlink:title=" ">
<polygon fill="white" stroke="black" points="172,-63.5 172,-82.5 306,-82.5 306,-63.5 172,-63.5"/>
<text text-anchor="middle" x="239" y="-70.5" font-family="Helvetica,sans-Serif" font-size="10.00">Pcm::GetNumSoundtracks</text>
</a>
</g>
</g>
<!-- Node1&#45;&gt;Node2 -->
<g id="edge1" class="edge"><title>Node1&#45;&gt;Node2</title>
<path fill="none" stroke="midnightblue" d="M130.046,-59.192C140.397,-60.5159 151.202,-61.8979 161.805,-63.2542"/>
<polygon fill="midnightblue" stroke="midnightblue" points="161.525,-66.7468 171.889,-64.5439 162.413,-59.8033 161.525,-66.7468"/>
</g>
<!-- Node3 -->
<g id="node3" class="node"><title>Node3</title>
<g id="a_node3"><a xlink:href="../../de/d3e/namespace_pcm.html#a01c3edefbbc2c808b0dc621cd299f2e6" target="_top" xlink:title=" ">
<polygon fill="white" stroke="black" points="166,-14 166,-44 312,-44 312,-14 166,-14"/>
<text text-anchor="start" x="174" y="-32" font-family="Helvetica,sans-Serif" font-size="10.00">Pcm::sGenerateRandomSong</text>
<text text-anchor="middle" x="239" y="-21" font-family="Helvetica,sans-Serif" font-size="10.00">Order</text>
</a>
</g>
</g>
<!-- Node1&#45;&gt;Node3 -->
<g id="edge2" class="edge"><title>Node1&#45;&gt;Node3</title>
<path fill="none" stroke="midnightblue" d="M130.046,-42.808C138.422,-41.7368 147.095,-40.6274 155.717,-39.5245"/>
<polygon fill="midnightblue" stroke="midnightblue" points="156.321,-42.9759 165.796,-38.2354 155.433,-36.0325 156.321,-42.9759"/>
</g>
<!-- Node4 -->
<g id="node4" class="node"><title>Node4</title>
<g id="a_node4"><a xlink:href="../../de/d3e/namespace_pcm.html#aea178084ee3ed71abe7dbfd2df8bfea4" target="_top" xlink:title=" ">
<polygon fill="white" stroke="black" points="348,-38.5 348,-57.5 504,-57.5 504,-38.5 348,-38.5"/>
<text text-anchor="middle" x="426" y="-45.5" font-family="Helvetica,sans-Serif" font-size="10.00">Pcm::GetSoundtrackNumSongs</text>
</a>
</g>
</g>
<!-- Node3&#45;&gt;Node4 -->
<g id="edge3" class="edge"><title>Node3&#45;&gt;Node4</title>
<path fill="none" stroke="midnightblue" d="M312.056,-36.4003C320.514,-37.269 329.213,-38.1624 337.85,-39.0494"/>
<polygon fill="midnightblue" stroke="midnightblue" points="337.636,-42.5458 347.942,-40.0859 338.351,-35.5825 337.636,-42.5458"/>
</g>
<!-- Node5 -->
<g id="node5" class="node"><title>Node5</title>
<g id="a_node5"><a xlink:href="../../d5/db9/namespace_mth.html#ad62429ac906222803b02da8cc801b1bb" target="_top" xlink:title=" ">
<polygon fill="white" stroke="black" points="398,-0.5 398,-19.5 454,-19.5 454,-0.5 398,-0.5"/>
<text text-anchor="middle" x="426" y="-7.5" font-family="Helvetica,sans-Serif" font-size="10.00">Mth::Rnd</text>
</a>
</g>
</g>
<!-- Node3&#45;&gt;Node5 -->
<g id="edge4" class="edge"><title>Node3&#45;&gt;Node5</title>
<path fill="none" stroke="midnightblue" d="M312.056,-21.5997C337.863,-18.9492 365.906,-16.0691 387.592,-13.8419"/>
<polygon fill="midnightblue" stroke="midnightblue" points="388.1,-17.3082 397.69,-12.8048 387.385,-10.3448 388.1,-17.3082"/>
</g>
</g>
</svg>
