<?xml version="1.0" encoding="UTF-8" standalone="no"?>
<!DOCTYPE svg PUBLIC "-//W3C//DTD SVG 1.1//EN"
 "http://www.w3.org/Graphics/SVG/1.1/DTD/svg11.dtd">
<!-- Generated by graphviz version 2.38.0 (20140413.2041)
 -->
<!-- Title: Pcm::StartPreLoadedStream Pages: 1 -->
<!--zoomable 260 -->
<svg id="main" version="1.1" xmlns="http://www.w3.org/2000/svg" xmlns:xlink="http://www.w3.org/1999/xlink" xml:space="preserve" onload="init(evt)">
<style type="text/css"><![CDATA[
.edge:hover path { stroke: red; }
.edge:hover polygon { stroke: red; fill: red; }
]]></style>
<script type="text/javascript"><![CDATA[
var edges = document.getElementsByTagName('g');
if (edges && edges.length) {
  for (var i=0;i<edges.length;i++) {
    if (edges[i].id.substr(0,4)=='edge') {
      edges[i].setAttribute('class','edge');
    }
  }
}
]]></script>
        <defs>
                <circle id="rim" cx="0" cy="0" r="7"/>
                <circle id="rim2" cx="0" cy="0" r="3.5"/>
                <g id="zoomPlus">
                        <use xlink:href="#rim" fill="#404040">
                                <set attributeName="fill" to="#808080" begin="zoomplus.mouseover" end="zoomplus.mouseout"/>
                        </use>
                        <path d="M-4,0h8M0,-4v8" fill="none" stroke="white" stroke-width="1.5" pointer-events="none"/>
                </g>
                <g id="zoomMin">
                        <use xlink:href="#rim" fill="#404040">
                                <set attributeName="fill" to="#808080" begin="zoomminus.mouseover" end="zoomminus.mouseout"/>
                        </use>
                        <path d="M-4,0h8" fill="none" stroke="white" stroke-width="1.5" pointer-events="none"/>
                </g>
                <g id="dirArrow">
                        <path fill="none" stroke="white" stroke-width="1.5" d="M0,-3.0v7 M-2.5,-0.5L0,-3.0L2.5,-0.5"/>
                </g>
               <g id="resetDef">
                       <use xlink:href="#rim2" fill="#404040">
                               <set attributeName="fill" to="#808080" begin="reset.mouseover" end="reset.mouseout"/>
                       </use>
               </g>
        </defs>

<script type="text/javascript">
var viewWidth = 917;
var viewHeight = 260;
var sectionId = 'dynsection-46';
</script>
<script xlink:href="../../svgpan.js"/>
<svg id="graph" class="graph">
<g id="viewport">
<title>Pcm::StartPreLoadedStream</title>
<polygon fill="white" stroke="none" points="-4,4 -4,-256 913,-256 913,4 -4,4"/>
<!-- Node1 -->
<g id="node1" class="node"><title>Node1</title>
<g id="a_node1"><a xlink:title=" ">
<polygon fill="#bfbfbf" stroke="black" points="0,-134.5 0,-153.5 142,-153.5 142,-134.5 0,-134.5"/>
<text text-anchor="middle" x="71" y="-141.5" font-family="Helvetica,sans-Serif" font-size="10.00">Pcm::StartPreLoadedStream</text>
</a>
</g>
</g>
<!-- Node2 -->
<g id="node2" class="node"><title>Node2</title>
<g id="a_node2"><a xlink:href="../../df/de2/_messages_8h.html#a701d7b9cdd94e5f87bc47f4e770492e6" target="_top" xlink:title=" ">
<polygon fill="white" stroke="black" points="219.5,-232.5 219.5,-251.5 298.5,-251.5 298.5,-232.5 219.5,-232.5"/>
<text text-anchor="middle" x="259" y="-239.5" font-family="Helvetica,sans-Serif" font-size="10.00">Dbg_Message</text>
</a>
</g>
</g>
<!-- Node1&#45;&gt;Node2 -->
<g id="edge1" class="edge"><title>Node1&#45;&gt;Node2</title>
<path fill="none" stroke="midnightblue" d="M83.3123,-153.747C101.91,-169.328 140.621,-199.923 178,-218 187.895,-222.785 198.943,-226.841 209.595,-230.179"/>
<polygon fill="midnightblue" stroke="midnightblue" points="208.638,-233.546 219.221,-233.044 210.635,-226.837 208.638,-233.546"/>
</g>
<!-- Node3 -->
<g id="node3" class="node"><title>Node3</title>
<g id="a_node3"><a xlink:href="../../d1/d54/namespace_script.html#ae80ed69ea4edcbcbbbd4985a6efdcd6e" target="_top" xlink:title=" ">
<polygon fill="white" stroke="black" points="393.5,-194.5 393.5,-213.5 532.5,-213.5 532.5,-194.5 393.5,-194.5"/>
<text text-anchor="middle" x="463" y="-201.5" font-family="Helvetica,sans-Serif" font-size="10.00">Script::FindChecksumName</text>
</a>
</g>
</g>
<!-- Node1&#45;&gt;Node3 -->
<g id="edge2" class="edge"><title>Node1&#45;&gt;Node3</title>
<path fill="none" stroke="midnightblue" d="M91.371,-153.548C112.211,-163.326 146.599,-178.046 178,-185 246.271,-200.119 325.84,-204.329 383.357,-205.071"/>
<polygon fill="midnightblue" stroke="midnightblue" points="383.439,-208.571 393.472,-205.168 383.506,-201.572 383.439,-208.571"/>
</g>
<!-- Node7 -->
<g id="node7" class="node"><title>Node7</title>
<g id="a_node7"><a xlink:href="../../de/d3e/namespace_pcm.html#a38a6f4993e760ae21cac3797c414ee10" target="_top" xlink:title=" ">
<polygon fill="white" stroke="black" points="196.5,-156.5 196.5,-175.5 321.5,-175.5 321.5,-156.5 196.5,-156.5"/>
<text text-anchor="middle" x="259" y="-163.5" font-family="Helvetica,sans-Serif" font-size="10.00">Pcm::GetChannelFromID</text>
</a>
</g>
</g>
<!-- Node1&#45;&gt;Node7 -->
<g id="edge6" class="edge"><title>Node1&#45;&gt;Node7</title>
<path fill="none" stroke="midnightblue" d="M142.054,-152.286C156.389,-153.982 171.501,-155.769 185.907,-157.473"/>
<polygon fill="midnightblue" stroke="midnightblue" points="185.909,-160.997 196.251,-158.696 186.731,-154.046 185.909,-160.997"/>
</g>
<!-- Node9 -->
<g id="node9" class="node"><title>Node9</title>
<g id="a_node9"><a xlink:href="../../da/d13/struct_sfx_1_1s_volume.html#a308ed6f4baabba296b62b106dc707cc9" target="_top" xlink:title=" ">
<polygon fill="white" stroke="black" points="193,-107 193,-137 325,-137 325,-107 193,-107"/>
<text text-anchor="start" x="201" y="-125" font-family="Helvetica,sans-Serif" font-size="10.00">Sfx::sVolume::GetChannel</text>
<text text-anchor="middle" x="259" y="-114" font-family="Helvetica,sans-Serif" font-size="10.00">Volume</text>
</a>
</g>
</g>
<!-- Node1&#45;&gt;Node9 -->
<g id="edge9" class="edge"><title>Node1&#45;&gt;Node9</title>
<path fill="none" stroke="midnightblue" d="M142.054,-135.714C155.348,-134.142 169.309,-132.49 182.756,-130.9"/>
<polygon fill="midnightblue" stroke="midnightblue" points="183.399,-134.348 192.919,-129.698 182.577,-127.397 183.399,-134.348"/>
</g>
<!-- Node10 -->
<g id="node10" class="node"><title>Node10</title>
<g id="a_node10"><a xlink:href="../../de/d3e/namespace_pcm.html#a77bd5c8fd47c96186832ffbf06df7075" target="_top" xlink:title=" ">
<polygon fill="white" stroke="black" points="178,-58 178,-88 340,-88 340,-58 178,-58"/>
<text text-anchor="start" x="186" y="-76" font-family="Helvetica,sans-Serif" font-size="10.00">Pcm::PCMAudio_StartPreLoaded</text>
<text text-anchor="middle" x="259" y="-65" font-family="Helvetica,sans-Serif" font-size="10.00">Stream</text>
</a>
</g>
</g>
<!-- Node1&#45;&gt;Node10 -->
<g id="edge10" class="edge"><title>Node1&#45;&gt;Node10</title>
<path fill="none" stroke="midnightblue" d="M91.6195,-134.407C112.667,-124.328 147.226,-108.387 178,-97 183.401,-95.0013 189.053,-93.0451 194.746,-91.1663"/>
<polygon fill="midnightblue" stroke="midnightblue" points="195.882,-94.4774 204.33,-88.0836 193.739,-87.8136 195.882,-94.4774"/>
</g>
<!-- Node18 -->
<g id="node18" class="node"><title>Node18</title>
<g id="a_node18"><a xlink:href="../../de/d3e/namespace_pcm.html#a40ff528e21ecd75aac50a806657859eb" target="_top" xlink:title=" ">
<polygon fill="white" stroke="black" points="200.5,-19.5 200.5,-38.5 317.5,-38.5 317.5,-19.5 200.5,-19.5"/>
<text text-anchor="middle" x="259" y="-26.5" font-family="Helvetica,sans-Serif" font-size="10.00">Pcm::StreamsDisabled</text>
</a>
</g>
</g>
<!-- Node1&#45;&gt;Node18 -->
<g id="edge18" class="edge"><title>Node1&#45;&gt;Node18</title>
<path fill="none" stroke="midnightblue" d="M79.6426,-134.387C95.6798,-114.899 134.939,-70.6681 178,-48 182.465,-45.6498 187.221,-43.5863 192.104,-41.7753"/>
<polygon fill="midnightblue" stroke="midnightblue" points="193.235,-45.0878 201.607,-38.5946 191.013,-38.4498 193.235,-45.0878"/>
</g>
<!-- Node4 -->
<g id="node4" class="node"><title>Node4</title>
<g id="a_node4"><a xlink:href="../../d1/d54/namespace_script.html#a5cc52c4ff5ea5bb27681d819212dfdca" target="_top" xlink:title=" ">
<polygon fill="white" stroke="black" points="586,-213.5 586,-232.5 749,-232.5 749,-213.5 586,-213.5"/>
<text text-anchor="middle" x="667.5" y="-220.5" font-family="Helvetica,sans-Serif" font-size="10.00">Script::FindChecksumNameNULL</text>
</a>
</g>
</g>
<!-- Node3&#45;&gt;Node4 -->
<g id="edge3" class="edge"><title>Node3&#45;&gt;Node4</title>
<path fill="none" stroke="midnightblue" d="M532.557,-210.433C546.448,-211.736 561.258,-213.125 575.777,-214.488"/>
<polygon fill="midnightblue" stroke="midnightblue" points="575.483,-217.975 585.767,-215.425 576.137,-211.006 575.483,-217.975"/>
</g>
<!-- Node6 -->
<g id="node6" class="node"><title>Node6</title>
<g id="a_node6"><a xlink:href="../../da/d37/namespace_dbg.html#ab406a8cc16de5046c7d9fd09c9de5e22" target="_top" xlink:title=" ">
<polygon fill="white" stroke="black" points="634.5,-175.5 634.5,-194.5 700.5,-194.5 700.5,-175.5 634.5,-175.5"/>
<text text-anchor="middle" x="667.5" y="-182.5" font-family="Helvetica,sans-Serif" font-size="10.00">Dbg::sprintf</text>
</a>
</g>
</g>
<!-- Node3&#45;&gt;Node6 -->
<g id="edge5" class="edge"><title>Node3&#45;&gt;Node6</title>
<path fill="none" stroke="midnightblue" d="M532.557,-197.567C562.945,-194.716 597.735,-191.452 624.241,-188.965"/>
<polygon fill="midnightblue" stroke="midnightblue" points="624.7,-192.437 634.329,-188.018 624.046,-185.468 624.7,-192.437"/>
</g>
<!-- Node5 -->
<g id="node5" class="node"><title>Node5</title>
<g id="a_node5"><a xlink:href="../../d0/d31/namespace_config.html#a709cc81780d49900157e3476b63aa25d" target="_top" xlink:title=" ">
<polygon fill="white" stroke="black" points="785,-213.5 785,-232.5 909,-232.5 909,-213.5 785,-213.5"/>
<text text-anchor="middle" x="847" y="-220.5" font-family="Helvetica,sans-Serif" font-size="10.00">Config::GotExtraMemory</text>
</a>
</g>
</g>
<!-- Node4&#45;&gt;Node5 -->
<g id="edge4" class="edge"><title>Node4&#45;&gt;Node5</title>
<path fill="none" stroke="midnightblue" d="M749.2,-223C757.729,-223 766.358,-223 774.768,-223"/>
<polygon fill="midnightblue" stroke="midnightblue" points="774.898,-226.5 784.898,-223 774.898,-219.5 774.898,-226.5"/>
</g>
<!-- Node7&#45;&gt;Node3 -->
<g id="edge7" class="edge"><title>Node7&#45;&gt;Node3</title>
<path fill="none" stroke="midnightblue" d="M310.712,-175.54C338.207,-180.712 372.376,-187.14 401.282,-192.578"/>
<polygon fill="midnightblue" stroke="midnightblue" points="400.792,-196.047 411.267,-194.456 402.086,-189.168 400.792,-196.047"/>
</g>
<!-- Node8 -->
<g id="node8" class="node"><title>Node8</title>
<g id="a_node8"><a xlink:href="../../de/d3e/namespace_pcm.html#abf74335d92cd49a2128f958b1ed52424" target="_top" xlink:title=" ">
<polygon fill="white" stroke="black" points="378,-156.5 378,-175.5 548,-175.5 548,-156.5 378,-156.5"/>
<text text-anchor="middle" x="463" y="-163.5" font-family="Helvetica,sans-Serif" font-size="10.00">Pcm::PCMAudio_GetStreamStatus</text>
</a>
</g>
</g>
<!-- Node7&#45;&gt;Node8 -->
<g id="edge8" class="edge"><title>Node7&#45;&gt;Node8</title>
<path fill="none" stroke="midnightblue" d="M321.704,-166C336.266,-166 352.119,-166 367.756,-166"/>
<polygon fill="midnightblue" stroke="midnightblue" points="367.984,-169.5 377.984,-166 367.984,-162.5 367.984,-169.5"/>
</g>
<!-- Node11 -->
<g id="node11" class="node"><title>Node11</title>
<g id="a_node11"><a xlink:href="../../de/d3e/namespace_pcm.html#a09ec8aa54db3e5f484e9166fb48ab6bc" target="_top" xlink:title=" ">
<polygon fill="white" stroke="black" points="381,-98.5 381,-117.5 545,-117.5 545,-98.5 381,-98.5"/>
<text text-anchor="middle" x="463" y="-105.5" font-family="Helvetica,sans-Serif" font-size="10.00">Pcm::PCMAudio_SetStreamPitch</text>
</a>
</g>
</g>
<!-- Node10&#45;&gt;Node11 -->
<g id="edge11" class="edge"><title>Node10&#45;&gt;Node11</title>
<path fill="none" stroke="midnightblue" d="M340.126,-86.8832C359.086,-90.1683 379.071,-93.6312 397.251,-96.7811"/>
<polygon fill="midnightblue" stroke="midnightblue" points="396.696,-100.237 407.146,-98.4957 397.891,-93.3397 396.696,-100.237"/>
</g>
<!-- Node12 -->
<g id="node12" class="node"><title>Node12</title>
<g id="a_node12"><a xlink:href="../../de/d3e/namespace_pcm.html#adc8c3064bf3813334bbf1896e7f3dffa" target="_top" xlink:title=" ">
<polygon fill="white" stroke="black" points="376,-60.5 376,-79.5 550,-79.5 550,-60.5 376,-60.5"/>
<text text-anchor="middle" x="463" y="-67.5" font-family="Helvetica,sans-Serif" font-size="10.00">Pcm::PCMAudio_SetStreamVolume</text>
</a>
</g>
</g>
<!-- Node10&#45;&gt;Node12 -->
<g id="edge12" class="edge"><title>Node10&#45;&gt;Node12</title>
<path fill="none" stroke="midnightblue" d="M340.126,-71.81C348.597,-71.6842 357.273,-71.5553 365.902,-71.4272"/>
<polygon fill="midnightblue" stroke="midnightblue" points="366.047,-74.9255 375.993,-71.2773 365.943,-67.9263 366.047,-74.9255"/>
</g>
<!-- Node13 -->
<g id="node13" class="node"><title>Node13</title>
<g id="a_node13"><a xlink:href="../../d2/d5f/class_sfx_1_1_c_sfx_manager.html#a9620548fa1b9bcfb7f713e4ecdbe7d56" target="_top" xlink:title=" ">
<polygon fill="white" stroke="black" points="598.5,-77 598.5,-107 736.5,-107 736.5,-77 598.5,-77"/>
<text text-anchor="start" x="606.5" y="-95" font-family="Helvetica,sans-Serif" font-size="10.00">Sfx::CSfxManager::GetMain</text>
<text text-anchor="middle" x="667.5" y="-84" font-family="Helvetica,sans-Serif" font-size="10.00">Volume</text>
</a>
</g>
</g>
<!-- Node12&#45;&gt;Node13 -->
<g id="edge13" class="edge"><title>Node12&#45;&gt;Node13</title>
<path fill="none" stroke="midnightblue" d="M550.172,-79.3619C562.913,-80.7461 575.98,-82.1657 588.541,-83.5304"/>
<polygon fill="midnightblue" stroke="midnightblue" points="588.171,-87.0107 598.491,-84.6113 588.927,-80.0516 588.171,-87.0107"/>
</g>
<!-- Node14 -->
<g id="node14" class="node"><title>Node14</title>
<g id="a_node14"><a xlink:href="../../de/d3e/namespace_pcm.html#a05919e3e44c529889b932611ce5c91e2" target="_top" xlink:title=" ">
<polygon fill="white" stroke="black" points="627,-38.5 627,-57.5 708,-57.5 708,-38.5 627,-38.5"/>
<text text-anchor="middle" x="667.5" y="-45.5" font-family="Helvetica,sans-Serif" font-size="10.00">Pcm::setDolby</text>
</a>
</g>
</g>
<!-- Node12&#45;&gt;Node14 -->
<g id="edge14" class="edge"><title>Node12&#45;&gt;Node14</title>
<path fill="none" stroke="midnightblue" d="M550.172,-60.6381C572.906,-58.1683 596.677,-55.5857 616.762,-53.4037"/>
<polygon fill="midnightblue" stroke="midnightblue" points="617.34,-56.8615 626.904,-52.3018 616.584,-49.9024 617.34,-56.8615"/>
</g>
<!-- Node15 -->
<g id="node15" class="node"><title>Node15</title>
<g id="a_node15"><a xlink:href="../../d1/d08/class_mth_1_1_vector.html#a88ad2190dc8bba653fc442dfed7c033a" target="_top" xlink:title=" ">
<polygon fill="white" stroke="black" points="795.5,-76.5 795.5,-95.5 898.5,-95.5 898.5,-76.5 795.5,-76.5"/>
<text text-anchor="middle" x="847" y="-83.5" font-family="Helvetica,sans-Serif" font-size="10.00">Mth::Vector::Length</text>
</a>
</g>
</g>
<!-- Node14&#45;&gt;Node15 -->
<g id="edge15" class="edge"><title>Node14&#45;&gt;Node15</title>
<path fill="none" stroke="midnightblue" d="M708.334,-56.5279C732.896,-61.7862 764.727,-68.6007 791.593,-74.3524"/>
<polygon fill="midnightblue" stroke="midnightblue" points="791.11,-77.8282 801.622,-76.4993 792.576,-70.9833 791.11,-77.8282"/>
</g>
<!-- Node16 -->
<g id="node16" class="node"><title>Node16</title>
<g id="a_node16"><a xlink:href="../../d1/d08/class_mth_1_1_vector.html#ac68fbfe676c95bf1ada686076c00675a" target="_top" xlink:title=" ">
<polygon fill="white" stroke="black" points="788.5,-38.5 788.5,-57.5 905.5,-57.5 905.5,-38.5 788.5,-38.5"/>
<text text-anchor="middle" x="847" y="-45.5" font-family="Helvetica,sans-Serif" font-size="10.00">Mth::Vector::Normalize</text>
</a>
</g>
</g>
<!-- Node14&#45;&gt;Node16 -->
<g id="edge16" class="edge"><title>Node14&#45;&gt;Node16</title>
<path fill="none" stroke="midnightblue" d="M708.334,-48C728.902,-48 754.567,-48 778.145,-48"/>
<polygon fill="midnightblue" stroke="midnightblue" points="778.452,-51.5001 788.452,-48 778.452,-44.5001 778.452,-51.5001"/>
</g>
<!-- Node17 -->
<g id="node17" class="node"><title>Node17</title>
<g id="a_node17"><a xlink:href="../../d5/db9/namespace_mth.html#ac76db42c879254b5ea1d63baf045f9a5" target="_top" xlink:title=" ">
<polygon fill="white" stroke="black" points="805,-0.5 805,-19.5 889,-19.5 889,-0.5 805,-0.5"/>
<text text-anchor="middle" x="847" y="-7.5" font-family="Helvetica,sans-Serif" font-size="10.00">Mth::RadToDeg</text>
</a>
</g>
</g>
<!-- Node14&#45;&gt;Node17 -->
<g id="edge17" class="edge"><title>Node14&#45;&gt;Node17</title>
<path fill="none" stroke="midnightblue" d="M708.334,-39.4721C733.915,-33.9957 767.38,-26.8314 794.909,-20.9377"/>
<polygon fill="midnightblue" stroke="midnightblue" points="795.712,-24.3453 804.758,-18.8294 794.246,-17.5004 795.712,-24.3453"/>
</g>
<!-- Node19 -->
<g id="node19" class="node"><title>Node19</title>
<g id="a_node19"><a xlink:href="../../d0/d31/namespace_config.html#a6cdbd8b148c494cebe8d9f141d1896a1" target="_top" xlink:title=" ">
<polygon fill="white" stroke="black" points="410,-19.5 410,-38.5 516,-38.5 516,-19.5 410,-19.5"/>
<text text-anchor="middle" x="463" y="-26.5" font-family="Helvetica,sans-Serif" font-size="10.00">Config::GetHardware</text>
</a>
</g>
</g>
<!-- Node18&#45;&gt;Node19 -->
<g id="edge19" class="edge"><title>Node18&#45;&gt;Node19</title>
<path fill="none" stroke="midnightblue" d="M317.615,-29C343.249,-29 373.486,-29 399.649,-29"/>
<polygon fill="midnightblue" stroke="midnightblue" points="399.832,-32.5001 409.832,-29 399.832,-25.5001 399.832,-32.5001"/>
</g>
</g>
</svg>
        <g id="navigator" transform="translate(0 0)" fill="#404254">
                <rect fill="#f2f5e9" fill-opacity="0.5" stroke="#606060" stroke-width=".5" x="0" y="0" width="60" height="60"/>
                <use id="zoomplus" xlink:href="#zoomPlus" x="17" y="9" onmousedown="handleZoom(evt,'in')"/>
                <use id="zoomminus" xlink:href="#zoomMin" x="42" y="9" onmousedown="handleZoom(evt,'out')"/>
                <use id="reset" xlink:href="#resetDef" x="30" y="36" onmousedown="handleReset()"/>
                <g id="arrowUp" xlink:href="#dirArrow" transform="translate(30 24)" onmousedown="handlePan(0,-1)">
                  <use xlink:href="#rim" fill="#404040">
                        <set attributeName="fill" to="#808080" begin="arrowUp.mouseover" end="arrowUp.mouseout"/>
                  </use>
                  <path fill="none" stroke="white" stroke-width="1.5" d="M0,-3.0v7 M-2.5,-0.5L0,-3.0L2.5,-0.5"/>
                </g>
                <g id="arrowRight" xlink:href="#dirArrow" transform="rotate(90) translate(36 -43)" onmousedown="handlePan(1,0)">
                  <use xlink:href="#rim" fill="#404040">
                        <set attributeName="fill" to="#808080" begin="arrowRight.mouseover" end="arrowRight.mouseout"/>
                  </use>
                  <path fill="none" stroke="white" stroke-width="1.5" d="M0,-3.0v7 M-2.5,-0.5L0,-3.0L2.5,-0.5"/>
                </g>
                <g id="arrowDown" xlink:href="#dirArrow" transform="rotate(180) translate(-30 -48)" onmousedown="handlePan(0,1)">
                  <use xlink:href="#rim" fill="#404040">
                        <set attributeName="fill" to="#808080" begin="arrowDown.mouseover" end="arrowDown.mouseout"/>
                  </use>
                  <path fill="none" stroke="white" stroke-width="1.5" d="M0,-3.0v7 M-2.5,-0.5L0,-3.0L2.5,-0.5"/>
                </g>
                <g id="arrowLeft" xlink:href="#dirArrow" transform="rotate(270) translate(-36 17)" onmousedown="handlePan(-1,0)">
                  <use xlink:href="#rim" fill="#404040">
                        <set attributeName="fill" to="#808080" begin="arrowLeft.mouseover" end="arrowLeft.mouseout"/>
                  </use>
                  <path fill="none" stroke="white" stroke-width="1.5" d="M0,-3.0v7 M-2.5,-0.5L0,-3.0L2.5,-0.5"/>
                </g>
        </g>
        <svg viewBox="0 0 15 15" width="100%" height="30px" preserveAspectRatio="xMaxYMin meet">
         <g id="arrow_out" transform="scale(0.3 0.3)">
          <a xlink:href="namespace_pcm_a65af4a89e281cd4c1184166a987443b6_cgraph_org.svg" target="_base">
           <rect id="button" ry="5" rx="5" y="6" x="6" height="38" width="38"
                fill="#f2f5e9" fill-opacity="0.5" stroke="#606060" stroke-width="1.0"/>
           <path id="arrow"
             d="M 11.500037,31.436501 C 11.940474,20.09759 22.043105,11.32322 32.158766,21.979434 L 37.068811,17.246167 C 37.068811,17.246167 37.088388,32 37.088388,32 L 22.160133,31.978069 C 22.160133,31.978069 26.997745,27.140456 26.997745,27.140456 C 18.528582,18.264221 13.291696,25.230495 11.500037,31.436501 z"
             style="fill:#404040;"/>
          </a>
         </g>
        </svg>
</svg>
