<?xml version="1.0" encoding="UTF-8" standalone="no"?>
<!DOCTYPE svg PUBLIC "-//W3C//DTD SVG 1.1//EN"
 "http://www.w3.org/Graphics/SVG/1.1/DTD/svg11.dtd">
<!-- Generated by graphviz version 2.38.0 (20140413.2041)
 -->
<!-- Title: Pcm::PCMAudio_PreLoadStream Pages: 1 -->
<!--zoomable 247 -->
<svg id="main" version="1.1" xmlns="http://www.w3.org/2000/svg" xmlns:xlink="http://www.w3.org/1999/xlink" xml:space="preserve" onload="init(evt)">
<style type="text/css"><![CDATA[
.edge:hover path { stroke: red; }
.edge:hover polygon { stroke: red; fill: red; }
]]></style>
<script type="text/javascript"><![CDATA[
var edges = document.getElementsByTagName('g');
if (edges && edges.length) {
  for (var i=0;i<edges.length;i++) {
    if (edges[i].id.substr(0,4)=='edge') {
      edges[i].setAttribute('class','edge');
    }
  }
}
]]></script>
        <defs>
                <circle id="rim" cx="0" cy="0" r="7"/>
                <circle id="rim2" cx="0" cy="0" r="3.5"/>
                <g id="zoomPlus">
                        <use xlink:href="#rim" fill="#404040">
                                <set attributeName="fill" to="#808080" begin="zoomplus.mouseover" end="zoomplus.mouseout"/>
                        </use>
                        <path d="M-4,0h8M0,-4v8" fill="none" stroke="white" stroke-width="1.5" pointer-events="none"/>
                </g>
                <g id="zoomMin">
                        <use xlink:href="#rim" fill="#404040">
                                <set attributeName="fill" to="#808080" begin="zoomminus.mouseover" end="zoomminus.mouseout"/>
                        </use>
                        <path d="M-4,0h8" fill="none" stroke="white" stroke-width="1.5" pointer-events="none"/>
                </g>
                <g id="dirArrow">
                        <path fill="none" stroke="white" stroke-width="1.5" d="M0,-3.0v7 M-2.5,-0.5L0,-3.0L2.5,-0.5"/>
                </g>
               <g id="resetDef">
                       <use xlink:href="#rim2" fill="#404040">
                               <set attributeName="fill" to="#808080" begin="reset.mouseover" end="reset.mouseout"/>
                       </use>
               </g>
        </defs>

<script type="text/javascript">
var viewWidth = 1040;
var viewHeight = 247;
var sectionId = 'dynsection-148';
</script>
<script xlink:href="../../svgpan.js"/>
<svg id="graph" class="graph">
<g id="viewport">
<title>Pcm::PCMAudio_PreLoadStream</title>
<polygon fill="white" stroke="none" points="-4,4 -4,-242.5 1036,-242.5 1036,4 -4,4"/>
<!-- Node1 -->
<g id="node1" class="node"><title>Node1</title>
<g id="a_node1"><a xlink:title=" ">
<polygon fill="#bfbfbf" stroke="black" points="0,-120.5 0,-139.5 162,-139.5 162,-120.5 0,-120.5"/>
<text text-anchor="middle" x="81" y="-127.5" font-family="Helvetica,sans-Serif" font-size="10.00">Pcm::PCMAudio_PreLoadStream</text>
</a>
</g>
</g>
<!-- Node2 -->
<g id="node2" class="node"><title>Node2</title>
<g id="a_node2"><a xlink:href="../../de/d3e/namespace_pcm.html#a8fe283d98f571b79b3547c94d5285028" target="_top" xlink:title=" ">
<polygon fill="white" stroke="black" points="198,-120.5 198,-139.5 344,-139.5 344,-120.5 198,-120.5"/>
<text text-anchor="middle" x="271" y="-127.5" font-family="Helvetica,sans-Serif" font-size="10.00">Pcm::PCMAudio_PlayStream</text>
</a>
</g>
</g>
<!-- Node1&#45;&gt;Node2 -->
<g id="edge1" class="edge"><title>Node1&#45;&gt;Node2</title>
<path fill="none" stroke="midnightblue" d="M162.002,-130C170.457,-130 179.066,-130 187.548,-130"/>
<polygon fill="midnightblue" stroke="midnightblue" points="187.813,-133.5 197.813,-130 187.813,-126.5 187.813,-133.5"/>
</g>
<!-- Node3 -->
<g id="node3" class="node"><title>Node3</title>
<g id="a_node3"><a xlink:href="../../de/d3e/namespace_pcm.html#a365e376f1ce453883688fc8caa3957fd" target="_top" xlink:title=" ">
<polygon fill="white" stroke="black" points="395,-208 395,-238 535,-238 535,-208 395,-208"/>
<text text-anchor="start" x="403" y="-226" font-family="Helvetica,sans-Serif" font-size="10.00">Pcm::ax_voice_reacquisition</text>
<text text-anchor="middle" x="465" y="-215" font-family="Helvetica,sans-Serif" font-size="10.00">_callback</text>
</a>
</g>
</g>
<!-- Node2&#45;&gt;Node3 -->
<g id="edge2" class="edge"><title>Node2&#45;&gt;Node3</title>
<path fill="none" stroke="midnightblue" d="M284.282,-139.551C303.641,-154.2 342.878,-182.27 380,-199 384.351,-200.961 388.902,-202.803 393.538,-204.524"/>
<polygon fill="midnightblue" stroke="midnightblue" points="392.54,-207.884 403.135,-207.89 394.857,-201.278 392.54,-207.884"/>
</g>
<!-- Node4 -->
<g id="node4" class="node"><title>Node4</title>
<g id="a_node4"><a xlink:href="../../de/d10/namespace_file.html#abdca4e8e85f386f9debecc224531faf5" target="_top" xlink:title=" ">
<polygon fill="white" stroke="black" points="404,-159 404,-189 526,-189 526,-159 404,-159"/>
<text text-anchor="start" x="412" y="-177" font-family="Helvetica,sans-Serif" font-size="10.00">File::FindFileInHedUsing</text>
<text text-anchor="middle" x="465" y="-166" font-family="Helvetica,sans-Serif" font-size="10.00">Checksum</text>
</a>
</g>
</g>
<!-- Node2&#45;&gt;Node4 -->
<g id="edge3" class="edge"><title>Node2&#45;&gt;Node4</title>
<path fill="none" stroke="midnightblue" d="M313.661,-139.547C337.138,-144.927 367.078,-151.789 394.051,-157.97"/>
<polygon fill="midnightblue" stroke="midnightblue" points="393.307,-161.39 403.836,-160.213 394.871,-154.567 393.307,-161.39"/>
</g>
<!-- Node5 -->
<g id="node5" class="node"><title>Node5</title>
<g id="a_node5"><a xlink:href="../../de/d3e/namespace_pcm.html#abf74335d92cd49a2128f958b1ed52424" target="_top" xlink:title=" ">
<polygon fill="white" stroke="black" points="380,-120.5 380,-139.5 550,-139.5 550,-120.5 380,-120.5"/>
<text text-anchor="middle" x="465" y="-127.5" font-family="Helvetica,sans-Serif" font-size="10.00">Pcm::PCMAudio_GetStreamStatus</text>
</a>
</g>
</g>
<!-- Node2&#45;&gt;Node5 -->
<g id="edge4" class="edge"><title>Node2&#45;&gt;Node5</title>
<path fill="none" stroke="midnightblue" d="M344.04,-130C352.453,-130 361.128,-130 369.784,-130"/>
<polygon fill="midnightblue" stroke="midnightblue" points="369.919,-133.5 379.919,-130 369.919,-126.5 369.919,-133.5"/>
</g>
<!-- Node6 -->
<g id="node6" class="node"><title>Node6</title>
<g id="a_node6"><a xlink:href="../../de/d3e/namespace_pcm.html#a6b83e3055c944e8dd2777af7dd3db3bf" target="_top" xlink:title=" ">
<polygon fill="white" stroke="black" points="410.5,-82.5 410.5,-101.5 519.5,-101.5 519.5,-82.5 410.5,-82.5"/>
<text text-anchor="middle" x="465" y="-89.5" font-family="Helvetica,sans-Serif" font-size="10.00">Pcm::s_dvd_callback</text>
</a>
</g>
</g>
<!-- Node2&#45;&gt;Node6 -->
<g id="edge5" class="edge"><title>Node2&#45;&gt;Node6</title>
<path fill="none" stroke="midnightblue" d="M320.45,-120.411C346.471,-115.261 378.728,-108.877 406.069,-103.466"/>
<polygon fill="midnightblue" stroke="midnightblue" points="406.769,-106.895 415.899,-101.52 405.409,-100.028 406.769,-106.895"/>
</g>
<!-- Node10 -->
<g id="node10" class="node"><title>Node10</title>
<g id="a_node10"><a xlink:href="../../de/d3e/namespace_pcm.html#a05919e3e44c529889b932611ce5c91e2" target="_top" xlink:title=" ">
<polygon fill="white" stroke="black" points="769.5,-38.5 769.5,-57.5 850.5,-57.5 850.5,-38.5 769.5,-38.5"/>
<text text-anchor="middle" x="810" y="-45.5" font-family="Helvetica,sans-Serif" font-size="10.00">Pcm::setDolby</text>
</a>
</g>
</g>
<!-- Node2&#45;&gt;Node10 -->
<g id="edge13" class="edge"><title>Node2&#45;&gt;Node10</title>
<path fill="none" stroke="midnightblue" d="M285.513,-120.398C305.207,-106.999 343.444,-83.1925 380,-73 512.911,-35.9417 677.687,-39.3804 758.917,-44.1441"/>
<polygon fill="midnightblue" stroke="midnightblue" points="759.145,-47.6649 769.342,-44.7903 759.578,-40.6783 759.145,-47.6649"/>
</g>
<!-- Node7 -->
<g id="node7" class="node"><title>Node7</title>
<g id="a_node7"><a xlink:href="../../de/d3e/namespace_pcm.html#abd25e246b6c951a8b4c3162314a972f1" target="_top" xlink:title=" ">
<polygon fill="white" stroke="black" points="586,-126.5 586,-145.5 705,-145.5 705,-126.5 586,-126.5"/>
<text text-anchor="middle" x="645.5" y="-133.5" font-family="Helvetica,sans-Serif" font-size="10.00">Pcm::_DVDReadAsync</text>
</a>
</g>
</g>
<!-- Node6&#45;&gt;Node7 -->
<g id="edge6" class="edge"><title>Node6&#45;&gt;Node7</title>
<path fill="none" stroke="midnightblue" d="M509.668,-101.563C522.669,-104.494 536.931,-107.794 550,-111 566.225,-114.98 583.944,-119.595 599.61,-123.769"/>
<polygon fill="midnightblue" stroke="midnightblue" points="599.007,-127.231 609.572,-126.437 600.818,-120.469 599.007,-127.231"/>
</g>
<!-- Node8 -->
<g id="node8" class="node"><title>Node8</title>
<g id="a_node8"><a xlink:href="../../de/d3e/namespace_pcm.html#aa1b48d20632f930e7458e26234331038" target="_top" xlink:title=" ">
<polygon fill="white" stroke="black" points="595.5,-77 595.5,-107 695.5,-107 695.5,-77 595.5,-77"/>
<text text-anchor="start" x="603.5" y="-95" font-family="Helvetica,sans-Serif" font-size="10.00">Pcm::s_start_voice</text>
<text text-anchor="middle" x="645.5" y="-84" font-family="Helvetica,sans-Serif" font-size="10.00">_callback</text>
</a>
</g>
</g>
<!-- Node6&#45;&gt;Node8 -->
<g id="edge7" class="edge"><title>Node6&#45;&gt;Node8</title>
<path fill="none" stroke="midnightblue" d="M519.556,-92C540.207,-92 563.91,-92 585.082,-92"/>
<polygon fill="midnightblue" stroke="midnightblue" points="585.248,-95.5001 595.248,-92 585.248,-88.5001 585.248,-95.5001"/>
</g>
<!-- Node9 -->
<g id="node9" class="node"><title>Node9</title>
<g id="a_node9"><a xlink:href="../../d2/d5f/class_sfx_1_1_c_sfx_manager.html#a9620548fa1b9bcfb7f713e4ecdbe7d56" target="_top" xlink:title=" ">
<polygon fill="white" stroke="black" points="741,-77 741,-107 879,-107 879,-77 741,-77"/>
<text text-anchor="start" x="749" y="-95" font-family="Helvetica,sans-Serif" font-size="10.00">Sfx::CSfxManager::GetMain</text>
<text text-anchor="middle" x="810" y="-84" font-family="Helvetica,sans-Serif" font-size="10.00">Volume</text>
</a>
</g>
</g>
<!-- Node8&#45;&gt;Node9 -->
<g id="edge8" class="edge"><title>Node8&#45;&gt;Node9</title>
<path fill="none" stroke="midnightblue" d="M695.696,-92C706.678,-92 718.591,-92 730.427,-92"/>
<polygon fill="midnightblue" stroke="midnightblue" points="730.784,-95.5001 740.784,-92 730.784,-88.5001 730.784,-95.5001"/>
</g>
<!-- Node8&#45;&gt;Node10 -->
<g id="edge9" class="edge"><title>Node8&#45;&gt;Node10</title>
<path fill="none" stroke="midnightblue" d="M695.696,-78.6791C717.47,-72.7836 742.901,-65.8976 764.147,-60.1449"/>
<polygon fill="midnightblue" stroke="midnightblue" points="765.157,-63.4974 773.895,-57.5054 763.327,-56.7407 765.157,-63.4974"/>
</g>
<!-- Node11 -->
<g id="node11" class="node"><title>Node11</title>
<g id="a_node11"><a xlink:href="../../d1/d08/class_mth_1_1_vector.html#a88ad2190dc8bba653fc442dfed7c033a" target="_top" xlink:title=" ">
<polygon fill="white" stroke="black" points="922,-76.5 922,-95.5 1025,-95.5 1025,-76.5 922,-76.5"/>
<text text-anchor="middle" x="973.5" y="-83.5" font-family="Helvetica,sans-Serif" font-size="10.00">Mth::Vector::Length</text>
</a>
</g>
</g>
<!-- Node10&#45;&gt;Node11 -->
<g id="edge10" class="edge"><title>Node10&#45;&gt;Node11</title>
<path fill="none" stroke="midnightblue" d="M850.507,-57.2958C872.064,-62.3679 898.98,-68.7012 922.042,-74.1275"/>
<polygon fill="midnightblue" stroke="midnightblue" points="921.461,-77.5863 931.997,-76.4698 923.064,-70.7724 921.461,-77.5863"/>
</g>
<!-- Node12 -->
<g id="node12" class="node"><title>Node12</title>
<g id="a_node12"><a xlink:href="../../d1/d08/class_mth_1_1_vector.html#ac68fbfe676c95bf1ada686076c00675a" target="_top" xlink:title=" ">
<polygon fill="white" stroke="black" points="915,-38.5 915,-57.5 1032,-57.5 1032,-38.5 915,-38.5"/>
<text text-anchor="middle" x="973.5" y="-45.5" font-family="Helvetica,sans-Serif" font-size="10.00">Mth::Vector::Normalize</text>
</a>
</g>
</g>
<!-- Node10&#45;&gt;Node12 -->
<g id="edge11" class="edge"><title>Node10&#45;&gt;Node12</title>
<path fill="none" stroke="midnightblue" d="M850.507,-48C866.817,-48 886.195,-48 904.651,-48"/>
<polygon fill="midnightblue" stroke="midnightblue" points="904.784,-51.5001 914.784,-48 904.784,-44.5001 904.784,-51.5001"/>
</g>
<!-- Node13 -->
<g id="node13" class="node"><title>Node13</title>
<g id="a_node13"><a xlink:href="../../d5/db9/namespace_mth.html#ac76db42c879254b5ea1d63baf045f9a5" target="_top" xlink:title=" ">
<polygon fill="white" stroke="black" points="931.5,-0.5 931.5,-19.5 1015.5,-19.5 1015.5,-0.5 931.5,-0.5"/>
<text text-anchor="middle" x="973.5" y="-7.5" font-family="Helvetica,sans-Serif" font-size="10.00">Mth::RadToDeg</text>
</a>
</g>
</g>
<!-- Node10&#45;&gt;Node13 -->
<g id="edge12" class="edge"><title>Node10&#45;&gt;Node13</title>
<path fill="none" stroke="midnightblue" d="M850.507,-38.7042C872.064,-33.6321 898.98,-27.2988 922.042,-21.8725"/>
<polygon fill="midnightblue" stroke="midnightblue" points="923.064,-25.2276 931.997,-19.5302 921.461,-18.4137 923.064,-25.2276"/>
</g>
</g>
</svg>
        <g id="navigator" transform="translate(0 0)" fill="#404254">
                <rect fill="#f2f5e9" fill-opacity="0.5" stroke="#606060" stroke-width=".5" x="0" y="0" width="60" height="60"/>
                <use id="zoomplus" xlink:href="#zoomPlus" x="17" y="9" onmousedown="handleZoom(evt,'in')"/>
                <use id="zoomminus" xlink:href="#zoomMin" x="42" y="9" onmousedown="handleZoom(evt,'out')"/>
                <use id="reset" xlink:href="#resetDef" x="30" y="36" onmousedown="handleReset()"/>
                <g id="arrowUp" xlink:href="#dirArrow" transform="translate(30 24)" onmousedown="handlePan(0,-1)">
                  <use xlink:href="#rim" fill="#404040">
                        <set attributeName="fill" to="#808080" begin="arrowUp.mouseover" end="arrowUp.mouseout"/>
                  </use>
                  <path fill="none" stroke="white" stroke-width="1.5" d="M0,-3.0v7 M-2.5,-0.5L0,-3.0L2.5,-0.5"/>
                </g>
                <g id="arrowRight" xlink:href="#dirArrow" transform="rotate(90) translate(36 -43)" onmousedown="handlePan(1,0)">
                  <use xlink:href="#rim" fill="#404040">
                        <set attributeName="fill" to="#808080" begin="arrowRight.mouseover" end="arrowRight.mouseout"/>
                  </use>
                  <path fill="none" stroke="white" stroke-width="1.5" d="M0,-3.0v7 M-2.5,-0.5L0,-3.0L2.5,-0.5"/>
                </g>
                <g id="arrowDown" xlink:href="#dirArrow" transform="rotate(180) translate(-30 -48)" onmousedown="handlePan(0,1)">
                  <use xlink:href="#rim" fill="#404040">
                        <set attributeName="fill" to="#808080" begin="arrowDown.mouseover" end="arrowDown.mouseout"/>
                  </use>
                  <path fill="none" stroke="white" stroke-width="1.5" d="M0,-3.0v7 M-2.5,-0.5L0,-3.0L2.5,-0.5"/>
                </g>
                <g id="arrowLeft" xlink:href="#dirArrow" transform="rotate(270) translate(-36 17)" onmousedown="handlePan(-1,0)">
                  <use xlink:href="#rim" fill="#404040">
                        <set attributeName="fill" to="#808080" begin="arrowLeft.mouseover" end="arrowLeft.mouseout"/>
                  </use>
                  <path fill="none" stroke="white" stroke-width="1.5" d="M0,-3.0v7 M-2.5,-0.5L0,-3.0L2.5,-0.5"/>
                </g>
        </g>
        <svg viewBox="0 0 15 15" width="100%" height="30px" preserveAspectRatio="xMaxYMin meet">
         <g id="arrow_out" transform="scale(0.3 0.3)">
          <a xlink:href="namespace_pcm_a2ce21f5c2ea118617d2437eda3bfd215_cgraph_org.svg" target="_base">
           <rect id="button" ry="5" rx="5" y="6" x="6" height="38" width="38"
                fill="#f2f5e9" fill-opacity="0.5" stroke="#606060" stroke-width="1.0"/>
           <path id="arrow"
             d="M 11.500037,31.436501 C 11.940474,20.09759 22.043105,11.32322 32.158766,21.979434 L 37.068811,17.246167 C 37.068811,17.246167 37.088388,32 37.088388,32 L 22.160133,31.978069 C 22.160133,31.978069 26.997745,27.140456 26.997745,27.140456 C 18.528582,18.264221 13.291696,25.230495 11.500037,31.436501 z"
             style="fill:#404040;"/>
          </a>
         </g>
        </svg>
</svg>
