<?xml version="1.0" encoding="UTF-8" standalone="no"?>
<!DOCTYPE svg PUBLIC "-//W3C//DTD SVG 1.1//EN"
 "http://www.w3.org/Graphics/SVG/1.1/DTD/svg11.dtd">
<!-- Generated by graphviz version 2.38.0 (20140413.2041)
 -->
<!-- Title: Pcm::PCMAudio_SetMusicVolume Pages: 1 -->
<svg width="378pt" height="66pt"
 viewBox="0.00 0.00 378.00 66.00" xmlns="http://www.w3.org/2000/svg" xmlns:xlink="http://www.w3.org/1999/xlink">
<g id="graph0" class="graph" transform="scale(1 1) rotate(0) translate(4 62)">
<title>Pcm::PCMAudio_SetMusicVolume</title>
<polygon fill="white" stroke="none" points="-4,4 -4,-62 374,-62 374,4 -4,4"/>
<!-- Node1 -->
<g id="node1" class="node"><title>Node1</title>
<g id="a_node1"><a xlink:title=" ">
<polygon fill="#bfbfbf" stroke="black" points="0,-19.5 0,-38.5 169,-38.5 169,-19.5 0,-19.5"/>
<text text-anchor="middle" x="84.5" y="-26.5" font-family="Helvetica,sans-Serif" font-size="10.00">Pcm::PCMAudio_SetMusicVolume</text>
</a>
</g>
</g>
<!-- Node2 -->
<g id="node2" class="node"><title>Node2</title>
<g id="a_node2"><a xlink:href="../../de/d17/_a_u_d_simple_audio_8cpp.html#aa4193731a7b41d0866ae5f1123cd1919" target="_top" xlink:title=" ">
<polygon fill="white" stroke="black" points="217.5,-38.5 217.5,-57.5 357.5,-57.5 357.5,-38.5 217.5,-38.5"/>
<text text-anchor="middle" x="287.5" y="-45.5" font-family="Helvetica,sans-Serif" font-size="10.00">AUDSimpleAudioSetVolume</text>
</a>
</g>
</g>
<!-- Node1&#45;&gt;Node2 -->
<g id="edge1" class="edge"><title>Node1&#45;&gt;Node2</title>
<path fill="none" stroke="midnightblue" d="M169.287,-36.9201C181.826,-38.1054 194.722,-39.3245 207.165,-40.5007"/>
<polygon fill="midnightblue" stroke="midnightblue" points="207.208,-44.0202 217.493,-41.4769 207.866,-37.0513 207.208,-44.0202"/>
</g>
<!-- Node3 -->
<g id="node3" class="node"><title>Node3</title>
<g id="a_node3"><a xlink:href="../../de/d3e/namespace_pcm.html#ae11c6f947d002653d646ed6be25fe683" target="_top" xlink:title=" ">
<polygon fill="white" stroke="black" points="205,-0.5 205,-19.5 370,-19.5 370,-0.5 205,-0.5"/>
<text text-anchor="middle" x="287.5" y="-7.5" font-family="Helvetica,sans-Serif" font-size="10.00">Pcm::PCMAudio_GetMusicStatus</text>
</a>
</g>
</g>
<!-- Node1&#45;&gt;Node3 -->
<g id="edge2" class="edge"><title>Node1&#45;&gt;Node3</title>
<path fill="none" stroke="midnightblue" d="M169.287,-21.0799C177.634,-20.2908 186.14,-19.4868 194.564,-18.6904"/>
<polygon fill="midnightblue" stroke="midnightblue" points="195.158,-22.15 204.785,-17.7243 194.5,-15.181 195.158,-22.15"/>
</g>
</g>
</svg>
