<?xml version="1.0" encoding="UTF-8" standalone="no"?>
<!DOCTYPE svg PUBLIC "-//W3C//DTD SVG 1.1//EN"
 "http://www.w3.org/Graphics/SVG/1.1/DTD/svg11.dtd">
<!-- Generated by graphviz version 2.38.0 (20140413.2041)
 -->
<!-- Title: NxNgc::SText::Draw Pages: 1 -->
<svg width="283pt" height="712pt"
 viewBox="0.00 0.00 283.00 712.00" xmlns="http://www.w3.org/2000/svg" xmlns:xlink="http://www.w3.org/1999/xlink">
<g id="graph0" class="graph" transform="scale(1 1) rotate(0) translate(4 708)">
<title>NxNgc::SText::Draw</title>
<polygon fill="white" stroke="none" points="-4,4 -4,-708 279,-708 279,4 -4,4"/>
<!-- Node1 -->
<g id="node1" class="node"><title>Node1</title>
<g id="a_node1"><a xlink:title=" ">
<polygon fill="#bfbfbf" stroke="black" points="0,-342.5 0,-361.5 105,-361.5 105,-342.5 0,-342.5"/>
<text text-anchor="middle" x="52.5" y="-349.5" font-family="Helvetica,sans-Serif" font-size="10.00">NxNgc::SText::Draw</text>
</a>
</g>
</g>
<!-- Node2 -->
<g id="node2" class="node"><title>Node2</title>
<g id="a_node2"><a xlink:href="../../d6/d63/namespace_g_x.html#a54dc0f5188e2ce2817a5bd755be88111" target="_top" xlink:title=" ">
<polygon fill="white" stroke="black" points="178,-684.5 178,-703.5 238,-703.5 238,-684.5 178,-684.5"/>
<text text-anchor="middle" x="208" y="-691.5" font-family="Helvetica,sans-Serif" font-size="10.00">GX::Begin</text>
</a>
</g>
</g>
<!-- Node1&#45;&gt;Node2 -->
<g id="edge1" class="edge"><title>Node1&#45;&gt;Node2</title>
<path fill="none" stroke="midnightblue" d="M54.8333,-361.687C61.7209,-410.388 94.7415,-628.007 141,-675 148.215,-682.329 158.059,-686.876 167.943,-689.684"/>
<polygon fill="midnightblue" stroke="midnightblue" points="167.213,-693.108 177.744,-691.951 168.79,-686.288 167.213,-693.108"/>
</g>
<!-- Node3 -->
<g id="node3" class="node"><title>Node3</title>
<g id="a_node3"><a xlink:href="../../df/d07/namespace_str.html#a187ff352809b73d4140d35a9080aeeb9" target="_top" xlink:title=" ">
<polygon fill="white" stroke="black" points="162,-646.5 162,-665.5 254,-665.5 254,-646.5 162,-646.5"/>
<text text-anchor="middle" x="208" y="-653.5" font-family="Helvetica,sans-Serif" font-size="10.00">Str::DehexifyDigit</text>
</a>
</g>
</g>
<!-- Node1&#45;&gt;Node3 -->
<g id="edge2" class="edge"><title>Node1&#45;&gt;Node3</title>
<path fill="none" stroke="midnightblue" d="M53.3835,-361.755C53.4536,-401.983 59.224,-556.649 141,-637 144.344,-640.285 148.217,-643.01 152.378,-645.268"/>
<polygon fill="midnightblue" stroke="midnightblue" points="151.296,-648.618 161.854,-649.504 154.152,-642.227 151.296,-648.618"/>
</g>
<!-- Node4 -->
<g id="node4" class="node"><title>Node4</title>
<g id="a_node4"><a xlink:href="../../d6/d63/namespace_g_x.html#a40e0da8c9e9725024d38f31c846e2f1d" target="_top" xlink:title=" ">
<polygon fill="white" stroke="black" points="181.5,-608.5 181.5,-627.5 234.5,-627.5 234.5,-608.5 181.5,-608.5"/>
<text text-anchor="middle" x="208" y="-615.5" font-family="Helvetica,sans-Serif" font-size="10.00">GX::End</text>
</a>
</g>
</g>
<!-- Node1&#45;&gt;Node4 -->
<g id="edge3" class="edge"><title>Node1&#45;&gt;Node4</title>
<path fill="none" stroke="midnightblue" d="M53.9094,-361.707C55.9978,-398.496 68.4641,-530.702 141,-599 149.308,-606.823 160.628,-611.452 171.547,-614.182"/>
<polygon fill="midnightblue" stroke="midnightblue" points="170.866,-617.615 181.365,-616.193 172.27,-610.757 170.866,-617.615"/>
</g>
<!-- Node5 -->
<g id="node5" class="node"><title>Node5</title>
<g id="a_node5"><a xlink:href="../../d6/d63/namespace_g_x.html#a948da085f7ca4a29baf4510041ca26b5" target="_top" xlink:title=" ">
<polygon fill="white" stroke="black" points="163.5,-570.5 163.5,-589.5 252.5,-589.5 252.5,-570.5 163.5,-570.5"/>
<text text-anchor="middle" x="208" y="-577.5" font-family="Helvetica,sans-Serif" font-size="10.00">GX::Position3f32</text>
</a>
</g>
</g>
<!-- Node1&#45;&gt;Node5 -->
<g id="edge4" class="edge"><title>Node1&#45;&gt;Node5</title>
<path fill="none" stroke="midnightblue" d="M54.5926,-361.576C58.874,-394.557 77.5326,-504.509 141,-561 144.854,-564.43 149.29,-567.243 154.001,-569.55"/>
<polygon fill="midnightblue" stroke="midnightblue" points="152.742,-572.817 163.321,-573.392 155.41,-566.345 152.742,-572.817"/>
</g>
<!-- Node6 -->
<g id="node6" class="node"><title>Node6</title>
<g id="a_node6"><a xlink:href="../../d6/d63/namespace_g_x.html#aa0ddafe9f6fc054f4cc21bb194d1f0b1" target="_top" xlink:title=" ">
<polygon fill="white" stroke="black" points="151,-532.5 151,-551.5 265,-551.5 265,-532.5 151,-532.5"/>
<text text-anchor="middle" x="208" y="-539.5" font-family="Helvetica,sans-Serif" font-size="10.00">GX::SetAlphaCompare</text>
</a>
</g>
</g>
<!-- Node1&#45;&gt;Node6 -->
<g id="edge5" class="edge"><title>Node1&#45;&gt;Node6</title>
<path fill="none" stroke="midnightblue" d="M55.6261,-361.846C62.4645,-391.105 86.6895,-478.261 141,-523 143.053,-524.692 145.25,-526.233 147.55,-527.637"/>
<polygon fill="midnightblue" stroke="midnightblue" points="146.348,-530.953 156.844,-532.4 149.541,-524.724 146.348,-530.953"/>
</g>
<!-- Node7 -->
<g id="node7" class="node"><title>Node7</title>
<g id="a_node7"><a xlink:href="../../d6/d63/namespace_g_x.html#ab8cc96716da738d965eef63ab4eba246" target="_top" xlink:title=" ">
<polygon fill="white" stroke="black" points="150,-494.5 150,-513.5 266,-513.5 266,-494.5 150,-494.5"/>
<text text-anchor="middle" x="208" y="-501.5" font-family="Helvetica,sans-Serif" font-size="10.00">GX::SetChanAmbColor</text>
</a>
</g>
</g>
<!-- Node1&#45;&gt;Node7 -->
<g id="edge6" class="edge"><title>Node1&#45;&gt;Node7</title>
<path fill="none" stroke="midnightblue" d="M57.1017,-361.733C66.7102,-386.33 95.3707,-451.409 141,-485 143.641,-486.944 146.476,-488.69 149.433,-490.257"/>
<polygon fill="midnightblue" stroke="midnightblue" points="148.047,-493.472 158.597,-494.445 150.957,-487.105 148.047,-493.472"/>
</g>
<!-- Node8 -->
<g id="node8" class="node"><title>Node8</title>
<g id="a_node8"><a xlink:href="../../d6/d63/namespace_g_x.html#a1ac67d663b8f5655d7e767c50b522af4" target="_top" xlink:title=" ">
<polygon fill="white" stroke="black" points="164,-456.5 164,-475.5 252,-475.5 252,-456.5 164,-456.5"/>
<text text-anchor="middle" x="208" y="-463.5" font-family="Helvetica,sans-Serif" font-size="10.00">GX::SetChanCtrl</text>
</a>
</g>
</g>
<!-- Node1&#45;&gt;Node8 -->
<g id="edge7" class="edge"><title>Node1&#45;&gt;Node8</title>
<path fill="none" stroke="midnightblue" d="M59.7004,-361.697C72.5036,-380.928 103.801,-424.02 141,-447 145.096,-449.53 149.541,-451.735 154.124,-453.654"/>
<polygon fill="midnightblue" stroke="midnightblue" points="153.064,-456.994 163.657,-457.204 155.507,-450.434 153.064,-456.994"/>
</g>
<!-- Node9 -->
<g id="node9" class="node"><title>Node9</title>
<g id="a_node9"><a xlink:href="../../d6/d63/namespace_g_x.html#a1565d5475be365c0876292bc7c2c8858" target="_top" xlink:title=" ">
<polygon fill="white" stroke="black" points="152,-418.5 152,-437.5 264,-437.5 264,-418.5 152,-418.5"/>
<text text-anchor="middle" x="208" y="-425.5" font-family="Helvetica,sans-Serif" font-size="10.00">GX::SetChanMatColor</text>
</a>
</g>
</g>
<!-- Node1&#45;&gt;Node9 -->
<g id="edge8" class="edge"><title>Node1&#45;&gt;Node9</title>
<path fill="none" stroke="midnightblue" d="M65.5702,-361.546C81.8518,-374.015 112.146,-395.807 141,-409 146.015,-411.293 151.373,-413.378 156.785,-415.255"/>
<polygon fill="midnightblue" stroke="midnightblue" points="155.932,-418.657 166.524,-418.408 158.088,-411.998 155.932,-418.657"/>
</g>
<!-- Node10 -->
<g id="node10" class="node"><title>Node10</title>
<g id="a_node10"><a xlink:href="../../d6/d63/namespace_g_x.html#a14d34c2dae1eeb108c58bc7365069197" target="_top" xlink:title=" ">
<polygon fill="white" stroke="black" points="144,-380.5 144,-399.5 272,-399.5 272,-380.5 144,-380.5"/>
<text text-anchor="middle" x="208" y="-387.5" font-family="Helvetica,sans-Serif" font-size="10.00">GX::SetCurrMtxPosTex03</text>
</a>
</g>
</g>
<!-- Node1&#45;&gt;Node10 -->
<g id="edge9" class="edge"><title>Node1&#45;&gt;Node10</title>
<path fill="none" stroke="midnightblue" d="M92.2345,-361.589C112.399,-366.581 137.248,-372.732 158.661,-378.033"/>
<polygon fill="midnightblue" stroke="midnightblue" points="157.996,-381.474 168.544,-380.48 159.678,-374.679 157.996,-381.474"/>
</g>
<!-- Node11 -->
<g id="node11" class="node"><title>Node11</title>
<g id="a_node11"><a xlink:href="../../d6/d63/namespace_g_x.html#a85ddc3d0b886c7b87663bdddf9eff415" target="_top" xlink:title=" ">
<polygon fill="white" stroke="black" points="141,-342.5 141,-361.5 275,-361.5 275,-342.5 141,-342.5"/>
<text text-anchor="middle" x="208" y="-349.5" font-family="Helvetica,sans-Serif" font-size="10.00">GX::SetTevAlphaInOpSwap</text>
</a>
</g>
</g>
<!-- Node1&#45;&gt;Node11 -->
<g id="edge10" class="edge"><title>Node1&#45;&gt;Node11</title>
<path fill="none" stroke="midnightblue" d="M105.04,-352C113.304,-352 122.005,-352 130.7,-352"/>
<polygon fill="midnightblue" stroke="midnightblue" points="130.876,-355.5 140.876,-352 130.875,-348.5 130.876,-355.5"/>
</g>
<!-- Node12 -->
<g id="node12" class="node"><title>Node12</title>
<g id="a_node12"><a xlink:href="../../d6/d63/namespace_g_x.html#a99c2bc41e04110c86fafc4601758dcc4" target="_top" xlink:title=" ">
<polygon fill="white" stroke="black" points="154.5,-304.5 154.5,-323.5 261.5,-323.5 261.5,-304.5 154.5,-304.5"/>
<text text-anchor="middle" x="208" y="-311.5" font-family="Helvetica,sans-Serif" font-size="10.00">GX::SetTevColorInOp</text>
</a>
</g>
</g>
<!-- Node1&#45;&gt;Node12 -->
<g id="edge11" class="edge"><title>Node1&#45;&gt;Node12</title>
<path fill="none" stroke="midnightblue" d="M92.2345,-342.411C112.399,-337.419 137.248,-331.268 158.661,-325.967"/>
<polygon fill="midnightblue" stroke="midnightblue" points="159.678,-329.321 168.544,-323.52 157.996,-322.526 159.678,-329.321"/>
</g>
<!-- Node13 -->
<g id="node13" class="node"><title>Node13</title>
<g id="a_node13"><a xlink:href="../../d6/d63/namespace_g_x.html#a0bd2f208b56be392ea6b390bd39452ee" target="_top" xlink:title=" ">
<polygon fill="white" stroke="black" points="163.5,-266.5 163.5,-285.5 252.5,-285.5 252.5,-266.5 163.5,-266.5"/>
<text text-anchor="middle" x="208" y="-273.5" font-family="Helvetica,sans-Serif" font-size="10.00">GX::SetTevOrder</text>
</a>
</g>
</g>
<!-- Node1&#45;&gt;Node13 -->
<g id="edge12" class="edge"><title>Node1&#45;&gt;Node13</title>
<path fill="none" stroke="midnightblue" d="M65.5702,-342.454C81.8518,-329.985 112.146,-308.193 141,-295 146.015,-292.707 151.373,-290.622 156.785,-288.745"/>
<polygon fill="midnightblue" stroke="midnightblue" points="158.088,-292.002 166.524,-285.592 155.932,-285.343 158.088,-292.002"/>
</g>
<!-- Node14 -->
<g id="node14" class="node"><title>Node14</title>
<g id="a_node14"><a xlink:href="../../d6/d63/namespace_g_x.html#a86b209369f1d51d8239e2b82ee0708af" target="_top" xlink:title=" ">
<polygon fill="white" stroke="black" points="142,-228.5 142,-247.5 274,-247.5 274,-228.5 142,-228.5"/>
<text text-anchor="middle" x="208" y="-235.5" font-family="Helvetica,sans-Serif" font-size="10.00">GX::SetTexChanTevIndCull</text>
</a>
</g>
</g>
<!-- Node1&#45;&gt;Node14 -->
<g id="edge13" class="edge"><title>Node1&#45;&gt;Node14</title>
<path fill="none" stroke="midnightblue" d="M59.7004,-342.303C72.5036,-323.072 103.801,-279.98 141,-257 144.538,-254.814 148.336,-252.872 152.259,-251.146"/>
<polygon fill="midnightblue" stroke="midnightblue" points="153.536,-254.405 161.574,-247.503 150.986,-247.886 153.536,-254.405"/>
</g>
<!-- Node15 -->
<g id="node15" class="node"><title>Node15</title>
<g id="a_node15"><a xlink:href="../../d6/d63/namespace_g_x.html#a92c7c90c76e22853a6ad597551e3d115" target="_top" xlink:title=" ">
<polygon fill="white" stroke="black" points="153,-190.5 153,-209.5 263,-209.5 263,-190.5 153,-190.5"/>
<text text-anchor="middle" x="208" y="-197.5" font-family="Helvetica,sans-Serif" font-size="10.00">GX::SetTexCoordGen</text>
</a>
</g>
</g>
<!-- Node1&#45;&gt;Node15 -->
<g id="edge14" class="edge"><title>Node1&#45;&gt;Node15</title>
<path fill="none" stroke="midnightblue" d="M57.1017,-342.267C66.7102,-317.67 95.3707,-252.591 141,-219 143.641,-217.056 146.476,-215.31 149.433,-213.743"/>
<polygon fill="midnightblue" stroke="midnightblue" points="150.957,-216.895 158.597,-209.555 148.047,-210.528 150.957,-216.895"/>
</g>
<!-- Node16 -->
<g id="node16" class="node"><title>Node16</title>
<g id="a_node16"><a xlink:href="../../d6/d63/namespace_g_x.html#a0a76149c53c1f4d4d8d9d0cc8e8a84ba" target="_top" xlink:title=" ">
<polygon fill="white" stroke="black" points="150,-152.5 150,-171.5 266,-171.5 266,-152.5 150,-152.5"/>
<text text-anchor="middle" x="208" y="-159.5" font-family="Helvetica,sans-Serif" font-size="10.00">GX::SetTexCoordScale</text>
</a>
</g>
</g>
<!-- Node1&#45;&gt;Node16 -->
<g id="edge15" class="edge"><title>Node1&#45;&gt;Node16</title>
<path fill="none" stroke="midnightblue" d="M55.6261,-342.154C62.4645,-312.895 86.6895,-225.739 141,-181 143.053,-179.308 145.25,-177.767 147.55,-176.363"/>
<polygon fill="midnightblue" stroke="midnightblue" points="149.541,-179.276 156.844,-171.6 146.348,-173.047 149.541,-179.276"/>
</g>
<!-- Node17 -->
<g id="node17" class="node"><title>Node17</title>
<g id="a_node17"><a xlink:href="../../d6/d63/namespace_g_x.html#a3715a59c0bf67f9de75b1cdd99570f1f" target="_top" xlink:title=" ">
<polygon fill="white" stroke="black" points="164,-114.5 164,-133.5 252,-133.5 252,-114.5 164,-114.5"/>
<text text-anchor="middle" x="208" y="-121.5" font-family="Helvetica,sans-Serif" font-size="10.00">GX::SetVtxDesc</text>
</a>
</g>
</g>
<!-- Node1&#45;&gt;Node17 -->
<g id="edge16" class="edge"><title>Node1&#45;&gt;Node17</title>
<path fill="none" stroke="midnightblue" d="M54.5926,-342.424C58.874,-309.443 77.5326,-199.491 141,-143 144.908,-139.522 149.415,-136.678 154.201,-134.353"/>
<polygon fill="midnightblue" stroke="midnightblue" points="155.728,-137.51 163.664,-130.491 153.083,-131.029 155.728,-137.51"/>
</g>
<!-- Node18 -->
<g id="node18" class="node"><title>Node18</title>
<g id="a_node18"><a xlink:href="../../d6/d63/namespace_g_x.html#ae1d91d01c16b946271a963fd7f369050" target="_top" xlink:title=" ">
<polygon fill="white" stroke="black" points="160.5,-76.5 160.5,-95.5 255.5,-95.5 255.5,-76.5 160.5,-76.5"/>
<text text-anchor="middle" x="208" y="-83.5" font-family="Helvetica,sans-Serif" font-size="10.00">GX::TexCoord2f32</text>
</a>
</g>
</g>
<!-- Node1&#45;&gt;Node18 -->
<g id="edge17" class="edge"><title>Node1&#45;&gt;Node18</title>
<path fill="none" stroke="midnightblue" d="M53.9094,-342.293C55.9978,-305.504 68.4641,-173.298 141,-105 143.991,-102.184 147.372,-99.7815 150.985,-97.7327"/>
<polygon fill="midnightblue" stroke="midnightblue" points="152.786,-100.753 160.349,-93.3336 149.81,-94.4175 152.786,-100.753"/>
</g>
<!-- Node19 -->
<g id="node19" class="node"><title>Node19</title>
<g id="a_node19"><a xlink:href="../../d6/d63/namespace_g_x.html#a049a446892a7c072123e0b450538f4b0" target="_top" xlink:title=" ">
<polygon fill="white" stroke="black" points="160,-38.5 160,-57.5 256,-57.5 256,-38.5 160,-38.5"/>
<text text-anchor="middle" x="208" y="-45.5" font-family="Helvetica,sans-Serif" font-size="10.00">GX::UploadPalette</text>
</a>
</g>
</g>
<!-- Node1&#45;&gt;Node19 -->
<g id="edge18" class="edge"><title>Node1&#45;&gt;Node19</title>
<path fill="none" stroke="midnightblue" d="M53.3835,-342.245C53.4536,-302.017 59.224,-147.351 141,-67 143.884,-64.1665 147.161,-61.7503 150.678,-59.6905"/>
<polygon fill="midnightblue" stroke="midnightblue" points="152.343,-62.7731 159.823,-55.27 149.297,-56.4708 152.343,-62.7731"/>
</g>
<!-- Node20 -->
<g id="node20" class="node"><title>Node20</title>
<g id="a_node20"><a xlink:href="../../d6/d63/namespace_g_x.html#a3e64e6e18b204432ef984f38a99f2ac2" target="_top" xlink:title=" ">
<polygon fill="white" stroke="black" points="159,-0.5 159,-19.5 257,-19.5 257,-0.5 159,-0.5"/>
<text text-anchor="middle" x="208" y="-7.5" font-family="Helvetica,sans-Serif" font-size="10.00">GX::UploadTexture</text>
</a>
</g>
</g>
<!-- Node1&#45;&gt;Node20 -->
<g id="edge19" class="edge"><title>Node1&#45;&gt;Node20</title>
<path fill="none" stroke="midnightblue" d="M54.8333,-342.313C61.7209,-293.612 94.7415,-75.9929 141,-29 143.545,-26.4149 146.417,-24.1759 149.502,-22.2372"/>
<polygon fill="midnightblue" stroke="midnightblue" points="151.371,-25.212 158.669,-17.5309 148.174,-18.9848 151.371,-25.212"/>
</g>
</g>
</svg>
