<?xml version="1.0" encoding="UTF-8" standalone="no"?>
<!DOCTYPE svg PUBLIC "-//W3C//DTD SVG 1.1//EN"
 "http://www.w3.org/Graphics/SVG/1.1/DTD/svg11.dtd">
<!-- Generated by graphviz version 2.38.0 (20140413.2041)
 -->
<!-- Title: Gfx::CBlendChannel::add_controller Pages: 1 -->
<svg width="646pt" height="97pt"
 viewBox="0.00 0.00 646.00 96.50" xmlns="http://www.w3.org/2000/svg" xmlns:xlink="http://www.w3.org/1999/xlink">
<g id="graph0" class="graph" transform="scale(1 1) rotate(0) translate(4 92.5)">
<title>Gfx::CBlendChannel::add_controller</title>
<polygon fill="white" stroke="none" points="-4,4 -4,-92.5 642,-92.5 642,4 -4,4"/>
<!-- Node1 -->
<g id="node1" class="node"><title>Node1</title>
<g id="a_node1"><a xlink:title=" ">
<polygon fill="#bfbfbf" stroke="black" points="0,-22.5 0,-52.5 104,-52.5 104,-22.5 0,-22.5"/>
<text text-anchor="start" x="8" y="-40.5" font-family="Helvetica,sans-Serif" font-size="10.00">Gfx::CBlendChannel</text>
<text text-anchor="middle" x="52" y="-29.5" font-family="Helvetica,sans-Serif" font-size="10.00">::add_controller</text>
</a>
</g>
</g>
<!-- Node2 -->
<g id="node2" class="node"><title>Node2</title>
<g id="a_node2"><a xlink:href="../../d1/d54/namespace_script.html#ae80ed69ea4edcbcbbbd4985a6efdcd6e" target="_top" xlink:title=" ">
<polygon fill="white" stroke="black" points="140,-50 140,-69 279,-69 279,-50 140,-50"/>
<text text-anchor="middle" x="209.5" y="-57" font-family="Helvetica,sans-Serif" font-size="10.00">Script::FindChecksumName</text>
</a>
</g>
</g>
<!-- Node1&#45;&gt;Node2 -->
<g id="edge1" class="edge"><title>Node1&#45;&gt;Node2</title>
<path fill="none" stroke="midnightblue" d="M104.347,-44.7646C112.896,-45.974 121.928,-47.2518 130.956,-48.5291"/>
<polygon fill="midnightblue" stroke="midnightblue" points="130.73,-52.0319 141.121,-49.9673 131.71,-45.1009 130.73,-52.0319"/>
</g>
<!-- Node6 -->
<g id="node6" class="node"><title>Node6</title>
<g id="a_node6"><a xlink:href="../../d1/d8d/class_gfx_1_1_c_blend_channel.html#adec6862d8df52c197a8a8a93474d51b0" target="_top" xlink:title=" ">
<polygon fill="white" stroke="black" points="157.5,-0.5 157.5,-30.5 261.5,-30.5 261.5,-0.5 157.5,-0.5"/>
<text text-anchor="start" x="165.5" y="-18.5" font-family="Helvetica,sans-Serif" font-size="10.00">Gfx::CBlendChannel</text>
<text text-anchor="middle" x="209.5" y="-7.5" font-family="Helvetica,sans-Serif" font-size="10.00">::GetObject</text>
</a>
</g>
</g>
<!-- Node1&#45;&gt;Node6 -->
<g id="edge5" class="edge"><title>Node1&#45;&gt;Node6</title>
<path fill="none" stroke="midnightblue" d="M104.347,-30.2354C118.086,-28.2916 133.073,-26.1713 147.287,-24.1603"/>
<polygon fill="midnightblue" stroke="midnightblue" points="148.061,-27.5859 157.472,-22.7194 147.08,-20.6549 148.061,-27.5859"/>
</g>
<!-- Node3 -->
<g id="node3" class="node"><title>Node3</title>
<g id="a_node3"><a xlink:href="../../d1/d54/namespace_script.html#a5cc52c4ff5ea5bb27681d819212dfdca" target="_top" xlink:title=" ">
<polygon fill="white" stroke="black" points="315,-69 315,-88 478,-88 478,-69 315,-69"/>
<text text-anchor="middle" x="396.5" y="-76" font-family="Helvetica,sans-Serif" font-size="10.00">Script::FindChecksumNameNULL</text>
</a>
</g>
</g>
<!-- Node2&#45;&gt;Node3 -->
<g id="edge2" class="edge"><title>Node2&#45;&gt;Node3</title>
<path fill="none" stroke="midnightblue" d="M279.124,-66.5479C287.476,-67.4056 296.107,-68.292 304.717,-69.1764"/>
<polygon fill="midnightblue" stroke="midnightblue" points="304.493,-72.6717 314.798,-70.2117 305.208,-65.7083 304.493,-72.6717"/>
</g>
<!-- Node5 -->
<g id="node5" class="node"><title>Node5</title>
<g id="a_node5"><a xlink:href="../../da/d37/namespace_dbg.html#ab406a8cc16de5046c7d9fd09c9de5e22" target="_top" xlink:title=" ">
<polygon fill="white" stroke="black" points="363.5,-31 363.5,-50 429.5,-50 429.5,-31 363.5,-31"/>
<text text-anchor="middle" x="396.5" y="-38" font-family="Helvetica,sans-Serif" font-size="10.00">Dbg::sprintf</text>
</a>
</g>
</g>
<!-- Node2&#45;&gt;Node5 -->
<g id="edge4" class="edge"><title>Node2&#45;&gt;Node5</title>
<path fill="none" stroke="midnightblue" d="M279.124,-52.4521C303.98,-49.8993 331.305,-47.093 353.228,-44.8414"/>
<polygon fill="midnightblue" stroke="midnightblue" points="353.616,-48.3201 363.206,-43.8167 352.901,-41.3567 353.616,-48.3201"/>
</g>
<!-- Node4 -->
<g id="node4" class="node"><title>Node4</title>
<g id="a_node4"><a xlink:href="../../d0/d31/namespace_config.html#a709cc81780d49900157e3476b63aa25d" target="_top" xlink:title=" ">
<polygon fill="white" stroke="black" points="514,-69 514,-88 638,-88 638,-69 514,-69"/>
<text text-anchor="middle" x="576" y="-76" font-family="Helvetica,sans-Serif" font-size="10.00">Config::GotExtraMemory</text>
</a>
</g>
</g>
<!-- Node3&#45;&gt;Node4 -->
<g id="edge3" class="edge"><title>Node3&#45;&gt;Node4</title>
<path fill="none" stroke="midnightblue" d="M478.2,-78.5C486.729,-78.5 495.358,-78.5 503.768,-78.5"/>
<polygon fill="midnightblue" stroke="midnightblue" points="503.898,-82.0001 513.898,-78.5 503.898,-75.0001 503.898,-82.0001"/>
</g>
</g>
</svg>
