<?xml version="1.0" encoding="UTF-8" standalone="no"?>
<!DOCTYPE svg PUBLIC "-//W3C//DTD SVG 1.1//EN"
 "http://www.w3.org/Graphics/SVG/1.1/DTD/svg11.dtd">
<!-- Generated by graphviz version 2.38.0 (20140413.2041)
 -->
<!-- Title: Gfx::CBlendChannel::~CBlendChannel Pages: 1 -->
<svg width="261pt" height="88pt"
 viewBox="0.00 0.00 261.00 88.00" xmlns="http://www.w3.org/2000/svg" xmlns:xlink="http://www.w3.org/1999/xlink">
<g id="graph0" class="graph" transform="scale(1 1) rotate(0) translate(4 84)">
<title>Gfx::CBlendChannel::~CBlendChannel</title>
<polygon fill="white" stroke="none" points="-4,4 -4,-84 257,-84 257,4 -4,4"/>
<!-- Node1 -->
<g id="node1" class="node"><title>Node1</title>
<g id="a_node1"><a xlink:title=" ">
<polygon fill="#bfbfbf" stroke="black" points="0,-24.5 0,-54.5 104,-54.5 104,-24.5 0,-24.5"/>
<text text-anchor="start" x="8" y="-42.5" font-family="Helvetica,sans-Serif" font-size="10.00">Gfx::CBlendChannel</text>
<text text-anchor="middle" x="52" y="-31.5" font-family="Helvetica,sans-Serif" font-size="10.00">::~CBlendChannel</text>
</a>
</g>
</g>
<!-- Node2 -->
<g id="node2" class="node"><title>Node2</title>
<g id="a_node2"><a xlink:href="../../d1/d8d/class_gfx_1_1_c_blend_channel.html#aece29bb337591e4733c90c557d8e4dd4" target="_top" xlink:title=" ">
<polygon fill="white" stroke="black" points="140,-49.5 140,-79.5 253,-79.5 253,-49.5 140,-49.5"/>
<text text-anchor="start" x="148" y="-67.5" font-family="Helvetica,sans-Serif" font-size="10.00">Gfx::CBlendChannel</text>
<text text-anchor="middle" x="196.5" y="-56.5" font-family="Helvetica,sans-Serif" font-size="10.00">::delete_custom_keys</text>
</a>
</g>
</g>
<!-- Node1&#45;&gt;Node2 -->
<g id="edge1" class="edge"><title>Node1&#45;&gt;Node2</title>
<path fill="none" stroke="midnightblue" d="M104.043,-48.455C112.424,-49.9252 121.211,-51.4668 129.886,-52.9887"/>
<polygon fill="midnightblue" stroke="midnightblue" points="129.532,-56.4801 139.987,-54.7608 130.742,-49.5854 129.532,-56.4801"/>
</g>
<!-- Node3 -->
<g id="node3" class="node"><title>Node3</title>
<g id="a_node3"><a xlink:href="../../d1/d8d/class_gfx_1_1_c_blend_channel.html#ac5391f1dc04ced48ec39b21b7a8a388b" target="_top" xlink:title=" ">
<polygon fill="white" stroke="black" points="144.5,-0.5 144.5,-30.5 248.5,-30.5 248.5,-0.5 144.5,-0.5"/>
<text text-anchor="start" x="152.5" y="-18.5" font-family="Helvetica,sans-Serif" font-size="10.00">Gfx::CBlendChannel</text>
<text text-anchor="middle" x="196.5" y="-7.5" font-family="Helvetica,sans-Serif" font-size="10.00">::remove_controllers</text>
</a>
</g>
</g>
<!-- Node1&#45;&gt;Node3 -->
<g id="edge2" class="edge"><title>Node1&#45;&gt;Node3</title>
<path fill="none" stroke="midnightblue" d="M104.043,-30.9032C113.866,-29.2489 124.248,-27.5004 134.353,-25.7985"/>
<polygon fill="midnightblue" stroke="midnightblue" points="135.054,-29.2297 144.334,-24.1174 133.892,-22.3269 135.054,-29.2297"/>
</g>
</g>
</svg>
