<?xml version="1.0" encoding="UTF-8" standalone="no"?>
<!DOCTYPE svg PUBLIC "-//W3C//DTD SVG 1.1//EN"
 "http://www.w3.org/Graphics/SVG/1.1/DTD/svg11.dtd">
<!-- Generated by graphviz version 2.38.0 (20140413.2041)
 -->
<!-- Title: Obj::CProximNode::CheckInside Pages: 1 -->
<svg width="685pt" height="39pt"
 viewBox="0.00 0.00 685.00 39.00" xmlns="http://www.w3.org/2000/svg" xmlns:xlink="http://www.w3.org/1999/xlink">
<g id="graph0" class="graph" transform="scale(1 1) rotate(0) translate(4 35)">
<title>Obj::CProximNode::CheckInside</title>
<polygon fill="white" stroke="none" points="-4,4 -4,-35 681,-35 681,4 -4,4"/>
<!-- Node1 -->
<g id="node1" class="node"><title>Node1</title>
<g id="a_node1"><a xlink:title=" ">
<polygon fill="#bfbfbf" stroke="black" points="520,-6 520,-25 677,-25 677,-6 520,-6"/>
<text text-anchor="middle" x="598.5" y="-13" font-family="Helvetica,sans-Serif" font-size="10.00">Obj::CProximNode::CheckInside</text>
</a>
</g>
</g>
<!-- Node2 -->
<g id="node2" class="node"><title>Node2</title>
<g id="a_node2"><a xlink:href="../../d2/d10/namespace_obj.html#af98ad8e7f9bcc00bde479bbeff2f58aa" target="_top" xlink:title=" ">
<polygon fill="white" stroke="black" points="380,-6 380,-25 484,-25 484,-6 380,-6"/>
<text text-anchor="middle" x="432" y="-13" font-family="Helvetica,sans-Serif" font-size="10.00">Obj::Proxim_Update</text>
</a>
</g>
</g>
<!-- Node1&#45;&gt;Node2 -->
<g id="edge1" class="edge"><title>Node1&#45;&gt;Node2</title>
<path fill="none" stroke="midnightblue" d="M509.489,-15.5C500.903,-15.5 492.4,-15.5 484.358,-15.5"/>
<polygon fill="midnightblue" stroke="midnightblue" points="509.586,-19.0001 519.586,-15.5 509.586,-12.0001 509.586,-19.0001"/>
</g>
<!-- Node3 -->
<g id="node3" class="node"><title>Node3</title>
<g id="a_node3"><a xlink:href="../../dd/dab/class_obj_1_1_c_proxim_trigger_component.html#a2f23895ef151bae66df57f822dc1af97" target="_top" xlink:title=" ">
<polygon fill="white" stroke="black" points="190,-0.5 190,-30.5 344,-30.5 344,-0.5 190,-0.5"/>
<text text-anchor="start" x="198" y="-18.5" font-family="Helvetica,sans-Serif" font-size="10.00">Obj::CProximTriggerComponent</text>
<text text-anchor="middle" x="267" y="-7.5" font-family="Helvetica,sans-Serif" font-size="10.00">::ProximUpdate</text>
</a>
</g>
</g>
<!-- Node2&#45;&gt;Node3 -->
<g id="edge2" class="edge"><title>Node2&#45;&gt;Node3</title>
<path fill="none" stroke="midnightblue" d="M369.79,-15.5C361.377,-15.5 352.656,-15.5 344.018,-15.5"/>
<polygon fill="midnightblue" stroke="midnightblue" points="369.873,-19.0001 379.873,-15.5 369.873,-12.0001 369.873,-19.0001"/>
</g>
<!-- Node4 -->
<g id="node4" class="node"><title>Node4</title>
<g id="a_node4"><a xlink:href="../../dd/dab/class_obj_1_1_c_proxim_trigger_component.html#a326a6624428cdeaa33c4971a11e062c2" target="_top" xlink:title=" ">
<polygon fill="white" stroke="black" points="0,-0.5 0,-30.5 154,-30.5 154,-0.5 0,-0.5"/>
<text text-anchor="start" x="8" y="-18.5" font-family="Helvetica,sans-Serif" font-size="10.00">Obj::CProximTriggerComponent</text>
<text text-anchor="middle" x="77" y="-7.5" font-family="Helvetica,sans-Serif" font-size="10.00">::Update</text>
</a>
</g>
</g>
<!-- Node3&#45;&gt;Node4 -->
<g id="edge3" class="edge"><title>Node3&#45;&gt;Node4</title>
<path fill="none" stroke="midnightblue" d="M179.576,-15.5C171.143,-15.5 162.628,-15.5 154.304,-15.5"/>
<polygon fill="midnightblue" stroke="midnightblue" points="179.804,-19.0001 189.804,-15.5 179.804,-12.0001 179.804,-19.0001"/>
</g>
</g>
</svg>
