<?xml version="1.0" encoding="UTF-8" standalone="no"?>
<!DOCTYPE svg PUBLIC "-//W3C//DTD SVG 1.1//EN"
 "http://www.w3.org/Graphics/SVG/1.1/DTD/svg11.dtd">
<!-- Generated by graphviz version 2.38.0 (20140413.2041)
 -->
<!-- Title: Obj::CPedLogicComponent::DoRotations Pages: 1 -->
<svg width="431pt" height="166pt"
 viewBox="0.00 0.00 431.00 165.50" xmlns="http://www.w3.org/2000/svg" xmlns:xlink="http://www.w3.org/1999/xlink">
<g id="graph0" class="graph" transform="scale(1 1) rotate(0) translate(4 161.5)">
<title>Obj::CPedLogicComponent::DoRotations</title>
<polygon fill="white" stroke="none" points="-4,4 -4,-161.5 427,-161.5 427,4 -4,4"/>
<!-- Node1 -->
<g id="node1" class="node"><title>Node1</title>
<g id="a_node1"><a xlink:title=" ">
<polygon fill="#bfbfbf" stroke="black" points="0,-66.5 0,-96.5 134,-96.5 134,-66.5 0,-66.5"/>
<text text-anchor="start" x="8" y="-84.5" font-family="Helvetica,sans-Serif" font-size="10.00">Obj::CPedLogicComponent</text>
<text text-anchor="middle" x="67" y="-73.5" font-family="Helvetica,sans-Serif" font-size="10.00">::DoRotations</text>
</a>
</g>
</g>
<!-- Node2 -->
<g id="node2" class="node"><title>Node2</title>
<g id="a_node2"><a xlink:href="../../d5/db9/namespace_mth.html#a5a88e8aff5b7bdd63a88cd62c1485814" target="_top" xlink:title=" ">
<polygon fill="white" stroke="black" points="190,-138 190,-157 274,-157 274,-138 190,-138"/>
<text text-anchor="middle" x="232" y="-145" font-family="Helvetica,sans-Serif" font-size="10.00">Mth::DegToRad</text>
</a>
</g>
</g>
<!-- Node1&#45;&gt;Node2 -->
<g id="edge1" class="edge"><title>Node1&#45;&gt;Node2</title>
<path fill="none" stroke="midnightblue" d="M97.9086,-96.5299C118.007,-106.318 145.247,-118.988 170,-128.5 175.638,-130.667 181.638,-132.771 187.59,-134.742"/>
<polygon fill="midnightblue" stroke="midnightblue" points="186.898,-138.196 197.489,-137.92 189.038,-131.531 186.898,-138.196"/>
</g>
<!-- Node3 -->
<g id="node3" class="node"><title>Node3</title>
<g id="a_node3"><a xlink:href="../../d0/d7e/class_obj_1_1_c_base_component.html#a952f40d99323d28b3ca2f55567edfa85" target="_top" xlink:title=" ">
<polygon fill="white" stroke="black" points="174,-88.5 174,-118.5 290,-118.5 290,-88.5 174,-88.5"/>
<text text-anchor="start" x="182" y="-106.5" font-family="Helvetica,sans-Serif" font-size="10.00">Obj::CBaseComponent</text>
<text text-anchor="middle" x="232" y="-95.5" font-family="Helvetica,sans-Serif" font-size="10.00">::GetObject</text>
</a>
</g>
</g>
<!-- Node1&#45;&gt;Node3 -->
<g id="edge2" class="edge"><title>Node1&#45;&gt;Node3</title>
<path fill="none" stroke="midnightblue" d="M134.298,-90.4482C144.045,-91.7638 154.093,-93.1199 163.857,-94.4377"/>
<polygon fill="midnightblue" stroke="midnightblue" points="163.526,-97.9248 173.905,-95.7939 164.463,-90.9877 163.526,-97.9248"/>
</g>
<!-- Node4 -->
<g id="node4" class="node"><title>Node4</title>
<g id="a_node4"><a xlink:href="../../d9/d37/class_mth_1_1_matrix.html#ab7dc1191ce71c2e3ab41c655c7cdf084" target="_top" xlink:title=" ">
<polygon fill="white" stroke="black" points="170,-50 170,-69 294,-69 294,-50 170,-50"/>
<text text-anchor="middle" x="232" y="-57" font-family="Helvetica,sans-Serif" font-size="10.00">Mth::Matrix::RotateLocal</text>
</a>
</g>
</g>
<!-- Node1&#45;&gt;Node4 -->
<g id="edge3" class="edge"><title>Node1&#45;&gt;Node4</title>
<path fill="none" stroke="midnightblue" d="M134.298,-72.5518C142.632,-71.4269 151.186,-70.2724 159.595,-69.1375"/>
<polygon fill="midnightblue" stroke="midnightblue" points="160.312,-72.5725 169.754,-67.7663 159.376,-65.6354 160.312,-72.5725"/>
</g>
<!-- Node7 -->
<g id="node7" class="node"><title>Node7</title>
<g id="a_node7"><a xlink:href="../../dd/d7b/class_obj_1_1_c_composite_object.html#a1910e90938159a2b294eb774c4748490" target="_top" xlink:title=" ">
<polygon fill="white" stroke="black" points="172.5,-0.5 172.5,-30.5 291.5,-30.5 291.5,-0.5 172.5,-0.5"/>
<text text-anchor="start" x="180.5" y="-18.5" font-family="Helvetica,sans-Serif" font-size="10.00">Obj::CCompositeObject</text>
<text text-anchor="middle" x="232" y="-7.5" font-family="Helvetica,sans-Serif" font-size="10.00">::SetDisplayMatrix</text>
</a>
</g>
</g>
<!-- Node1&#45;&gt;Node7 -->
<g id="edge6" class="edge"><title>Node1&#45;&gt;Node7</title>
<path fill="none" stroke="midnightblue" d="M105.395,-66.3583C128.898,-56.8418 159.404,-44.4899 184.466,-34.3421"/>
<polygon fill="midnightblue" stroke="midnightblue" points="185.823,-37.5686 193.779,-30.5713 183.196,-31.0803 185.823,-37.5686"/>
</g>
<!-- Node5 -->
<g id="node5" class="node"><title>Node5</title>
<g id="a_node5"><a xlink:href="../../d9/d37/class_mth_1_1_matrix.html#a06a07c27b6ed6a037b5dfaaeb5ba6cb2" target="_top" xlink:title=" ">
<polygon fill="white" stroke="black" points="330,-69 330,-88 423,-88 423,-69 330,-69"/>
<text text-anchor="middle" x="376.5" y="-76" font-family="Helvetica,sans-Serif" font-size="10.00">Mth::Matrix::Ident</text>
</a>
</g>
</g>
<!-- Node4&#45;&gt;Node5 -->
<g id="edge4" class="edge"><title>Node4&#45;&gt;Node5</title>
<path fill="none" stroke="midnightblue" d="M294.26,-67.668C302.733,-68.7978 311.399,-69.9532 319.765,-71.0686"/>
<polygon fill="midnightblue" stroke="midnightblue" points="319.412,-74.5525 329.787,-72.405 320.338,-67.614 319.412,-74.5525"/>
</g>
<!-- Node6 -->
<g id="node6" class="node"><title>Node6</title>
<g id="a_node6"><a xlink:href="../../d6/d68/vector_8h.html#acba8a32be5bd69e759a1c8cec8cea5f4" target="_top" xlink:title=" ">
<polygon fill="white" stroke="black" points="353.5,-31 353.5,-50 399.5,-50 399.5,-31 353.5,-31"/>
<text text-anchor="middle" x="376.5" y="-38" font-family="Helvetica,sans-Serif" font-size="10.00">Length</text>
</a>
</g>
</g>
<!-- Node4&#45;&gt;Node6 -->
<g id="edge5" class="edge"><title>Node4&#45;&gt;Node6</title>
<path fill="none" stroke="midnightblue" d="M294.26,-51.332C311.135,-49.082 328.772,-46.7304 343.285,-44.7954"/>
<polygon fill="midnightblue" stroke="midnightblue" points="343.794,-48.2585 353.244,-43.4674 342.869,-41.3199 343.794,-48.2585"/>
</g>
</g>
</svg>
