<?xml version="1.0" encoding="UTF-8" standalone="no"?>
<!DOCTYPE svg PUBLIC "-//W3C//DTD SVG 1.1//EN"
 "http://www.w3.org/Graphics/SVG/1.1/DTD/svg11.dtd">
<!-- Generated by graphviz version 2.38.0 (20140413.2041)
 -->
<!-- Title: Obj::CPedLogicComponent::UpdateSkaterSoundStates Pages: 1 -->
<svg width="332pt" height="137pt"
 viewBox="0.00 0.00 332.00 137.00" xmlns="http://www.w3.org/2000/svg" xmlns:xlink="http://www.w3.org/1999/xlink">
<g id="graph0" class="graph" transform="scale(1 1) rotate(0) translate(4 133)">
<title>Obj::CPedLogicComponent::UpdateSkaterSoundStates</title>
<polygon fill="white" stroke="none" points="-4,4 -4,-133 328,-133 328,4 -4,4"/>
<!-- Node1 -->
<g id="node1" class="node"><title>Node1</title>
<g id="a_node1"><a xlink:title=" ">
<polygon fill="#bfbfbf" stroke="black" points="0,-49.5 0,-79.5 138,-79.5 138,-49.5 0,-49.5"/>
<text text-anchor="start" x="8" y="-67.5" font-family="Helvetica,sans-Serif" font-size="10.00">Obj::CPedLogicComponent</text>
<text text-anchor="middle" x="69" y="-56.5" font-family="Helvetica,sans-Serif" font-size="10.00">::UpdateSkaterSoundStates</text>
</a>
</g>
</g>
<!-- Node2 -->
<g id="node2" class="node"><title>Node2</title>
<g id="a_node2"><a xlink:href="../../d0/d7e/class_obj_1_1_c_base_component.html#a952f40d99323d28b3ca2f55567edfa85" target="_top" xlink:title=" ">
<polygon fill="white" stroke="black" points="191,-98.5 191,-128.5 307,-128.5 307,-98.5 191,-98.5"/>
<text text-anchor="start" x="199" y="-116.5" font-family="Helvetica,sans-Serif" font-size="10.00">Obj::CBaseComponent</text>
<text text-anchor="middle" x="249" y="-105.5" font-family="Helvetica,sans-Serif" font-size="10.00">::GetObject</text>
</a>
</g>
</g>
<!-- Node1&#45;&gt;Node2 -->
<g id="edge1" class="edge"><title>Node1&#45;&gt;Node2</title>
<path fill="none" stroke="midnightblue" d="M124.858,-79.6014C143.386,-84.7019 164.242,-90.4429 183.45,-95.7305"/>
<polygon fill="midnightblue" stroke="midnightblue" points="182.753,-99.1687 193.323,-98.4484 184.61,-92.4198 182.753,-99.1687"/>
</g>
<!-- Node3 -->
<g id="node3" class="node"><title>Node3</title>
<g id="a_node3"><a xlink:href="../../df/d26/class_obj_1_1_c_skater_sound_component.html#a7058c9056e051cf542bed5d5a3e2e639" target="_top" xlink:title=" ">
<polygon fill="white" stroke="black" points="174,-49.5 174,-79.5 324,-79.5 324,-49.5 174,-49.5"/>
<text text-anchor="start" x="182" y="-67.5" font-family="Helvetica,sans-Serif" font-size="10.00">Obj::CSkaterSoundComponent</text>
<text text-anchor="middle" x="249" y="-56.5" font-family="Helvetica,sans-Serif" font-size="10.00">::SetState</text>
</a>
</g>
</g>
<!-- Node1&#45;&gt;Node3 -->
<g id="edge2" class="edge"><title>Node1&#45;&gt;Node3</title>
<path fill="none" stroke="midnightblue" d="M138.056,-64.5C146.451,-64.5 155.109,-64.5 163.708,-64.5"/>
<polygon fill="midnightblue" stroke="midnightblue" points="163.756,-68.0001 173.756,-64.5 163.756,-61.0001 163.756,-68.0001"/>
</g>
<!-- Node4 -->
<g id="node4" class="node"><title>Node4</title>
<g id="a_node4"><a xlink:href="../../d9/d27/class_obj_1_1_c_skater_looping_sound_component.html#a3e28f9aff84f67f0d649222e7047e262" target="_top" xlink:title=" ">
<polygon fill="white" stroke="black" points="182,-0.5 182,-30.5 316,-30.5 316,-0.5 182,-0.5"/>
<text text-anchor="start" x="190" y="-18.5" font-family="Helvetica,sans-Serif" font-size="10.00">Obj::CSkaterLoopingSound</text>
<text text-anchor="middle" x="249" y="-7.5" font-family="Helvetica,sans-Serif" font-size="10.00">Component::SetState</text>
</a>
</g>
</g>
<!-- Node1&#45;&gt;Node4 -->
<g id="edge3" class="edge"><title>Node1&#45;&gt;Node4</title>
<path fill="none" stroke="midnightblue" d="M124.858,-49.3986C143.386,-44.2981 164.242,-38.5571 183.45,-33.2695"/>
<polygon fill="midnightblue" stroke="midnightblue" points="184.61,-36.5802 193.323,-30.5516 182.753,-29.8313 184.61,-36.5802"/>
</g>
</g>
</svg>
