<?xml version="1.0" encoding="UTF-8" standalone="no"?>
<!DOCTYPE svg PUBLIC "-//W3C//DTD SVG 1.1//EN"
 "http://www.w3.org/Graphics/SVG/1.1/DTD/svg11.dtd">
<!-- Generated by graphviz version 2.38.0 (20140413.2041)
 -->
<!-- Title: Obj::CMovableContactComponent::HaveContact Pages: 1 -->
<svg width="519pt" height="78pt"
 viewBox="0.00 0.00 519.00 77.50" xmlns="http://www.w3.org/2000/svg" xmlns:xlink="http://www.w3.org/1999/xlink">
<g id="graph0" class="graph" transform="scale(1 1) rotate(0) translate(4 73.5)">
<title>Obj::CMovableContactComponent::HaveContact</title>
<polygon fill="white" stroke="none" points="-4,4 -4,-73.5 515,-73.5 515,4 -4,4"/>
<!-- Node1 -->
<g id="node1" class="node"><title>Node1</title>
<g id="a_node1"><a xlink:title=" ">
<polygon fill="#bfbfbf" stroke="black" points="0,-22.5 0,-52.5 163,-52.5 163,-22.5 0,-22.5"/>
<text text-anchor="start" x="8" y="-40.5" font-family="Helvetica,sans-Serif" font-size="10.00">Obj::CMovableContactComponent</text>
<text text-anchor="middle" x="81.5" y="-29.5" font-family="Helvetica,sans-Serif" font-size="10.00">::HaveContact</text>
</a>
</g>
</g>
<!-- Node2 -->
<g id="node2" class="node"><title>Node2</title>
<g id="a_node2"><a xlink:href="../../d2/d52/class_c_contact.html#a5b8f3611c64d7d04b94ba3b5620fb26a" target="_top" xlink:title=" ">
<polygon fill="white" stroke="black" points="227,-50 227,-69 334,-69 334,-50 227,-50"/>
<text text-anchor="middle" x="280.5" y="-57" font-family="Helvetica,sans-Serif" font-size="10.00">CContact::GetObject</text>
</a>
</g>
</g>
<!-- Node1&#45;&gt;Node2 -->
<g id="edge1" class="edge"><title>Node1&#45;&gt;Node2</title>
<path fill="none" stroke="midnightblue" d="M163.196,-46.5117C180.971,-48.4967 199.546,-50.5711 216.501,-52.4646"/>
<polygon fill="midnightblue" stroke="midnightblue" points="216.5,-55.9862 226.827,-53.6177 217.277,-49.0294 216.5,-55.9862"/>
</g>
<!-- Node4 -->
<g id="node4" class="node"><title>Node4</title>
<g id="a_node4"><a xlink:href="../../df/dc1/class_obj_1_1_c_movable_contact_component.html#a4d5c894c757536ef2b8a60cac5395802" target="_top" xlink:title=" ">
<polygon fill="white" stroke="black" points="199,-0.5 199,-30.5 362,-30.5 362,-0.5 199,-0.5"/>
<text text-anchor="start" x="207" y="-18.5" font-family="Helvetica,sans-Serif" font-size="10.00">Obj::CMovableContactComponent</text>
<text text-anchor="middle" x="280.5" y="-7.5" font-family="Helvetica,sans-Serif" font-size="10.00">::LoseAnyContact</text>
</a>
</g>
</g>
<!-- Node1&#45;&gt;Node4 -->
<g id="edge3" class="edge"><title>Node1&#45;&gt;Node4</title>
<path fill="none" stroke="midnightblue" d="M163.196,-28.4883C171.673,-27.5416 180.333,-26.5745 188.912,-25.6165"/>
<polygon fill="midnightblue" stroke="midnightblue" points="189.38,-29.086 198.93,-24.4977 188.603,-22.1293 189.38,-29.086"/>
</g>
<!-- Node3 -->
<g id="node3" class="node"><title>Node3</title>
<g id="a_node3"><a xlink:href="../../de/dd8/class_obj_1_1_c_smt_ptr.html#abfded371e4740217057f76240804b0eb" target="_top" xlink:title=" ">
<polygon fill="white" stroke="black" points="398,-50 398,-69 511,-69 511,-50 398,-50"/>
<text text-anchor="middle" x="454.5" y="-57" font-family="Helvetica,sans-Serif" font-size="10.00">Obj::CSmtPtr::Convert</text>
</a>
</g>
</g>
<!-- Node2&#45;&gt;Node3 -->
<g id="edge2" class="edge"><title>Node2&#45;&gt;Node3</title>
<path fill="none" stroke="midnightblue" d="M334.04,-59.5C350.888,-59.5 369.764,-59.5 387.45,-59.5"/>
<polygon fill="midnightblue" stroke="midnightblue" points="387.701,-63.0001 397.701,-59.5 387.701,-56.0001 387.701,-63.0001"/>
</g>
<!-- Node5 -->
<g id="node5" class="node"><title>Node5</title>
<g id="a_node5"><a xlink:href="../../d1/d0d/namespace_tmr.html#a73fa70536cd356e6914161cb7737fd65" target="_top" xlink:title=" ">
<polygon fill="white" stroke="black" points="416.5,-6 416.5,-25 492.5,-25 492.5,-6 416.5,-6"/>
<text text-anchor="middle" x="454.5" y="-13" font-family="Helvetica,sans-Serif" font-size="10.00">Tmr::GetTime</text>
</a>
</g>
</g>
<!-- Node4&#45;&gt;Node5 -->
<g id="edge4" class="edge"><title>Node4&#45;&gt;Node5</title>
<path fill="none" stroke="midnightblue" d="M362.212,-15.5C377.235,-15.5 392.475,-15.5 406.087,-15.5"/>
<polygon fill="midnightblue" stroke="midnightblue" points="406.149,-19.0001 416.149,-15.5 406.149,-12.0001 406.149,-19.0001"/>
</g>
</g>
</svg>
