<?xml version="1.0" encoding="UTF-8" standalone="no"?>
<!DOCTYPE svg PUBLIC "-//W3C//DTD SVG 1.1//EN"
 "http://www.w3.org/Graphics/SVG/1.1/DTD/svg11.dtd">
<!-- Generated by graphviz version 2.38.0 (20140413.2041)
 -->
<!-- Title: Obj::CHorseCameraComponent::get_controller_input Pages: 1 -->
<svg width="1088pt" height="368pt"
 viewBox="0.00 0.00 1088.00 368.13" xmlns="http://www.w3.org/2000/svg" xmlns:xlink="http://www.w3.org/1999/xlink">
<g id="graph0" class="graph" transform="scale(1 1) rotate(0) translate(4 364.134)">
<title>Obj::CHorseCameraComponent::get_controller_input</title>
<polygon fill="white" stroke="none" points="-4,4 -4,-364.134 1084,-364.134 1084,4 -4,4"/>
<!-- Node1 -->
<g id="node1" class="node"><title>Node1</title>
<g id="a_node1"><a xlink:title=" ">
<polygon fill="#bfbfbf" stroke="black" points="0,-172 0,-202 153,-202 153,-172 0,-172"/>
<text text-anchor="start" x="8" y="-190" font-family="Helvetica,sans-Serif" font-size="10.00">Obj::CHorseCameraComponent</text>
<text text-anchor="middle" x="76.5" y="-179" font-family="Helvetica,sans-Serif" font-size="10.00">::get_controller_input</text>
</a>
</g>
</g>
<!-- Node2 -->
<g id="node2" class="node"><title>Node2</title>
<g id="a_node2"><a xlink:href="../../d5/db9/namespace_mth.html#a9d5105123d4f824fcab0a8e5b748774a" target="_top" xlink:title=" ">
<polygon fill="white" stroke="black" points="620.5,-309.5 620.5,-328.5 676.5,-328.5 676.5,-309.5 620.5,-309.5"/>
<text text-anchor="middle" x="648.5" y="-316.5" font-family="Helvetica,sans-Serif" font-size="10.00">Mth::Abs</text>
</a>
</g>
</g>
<!-- Node1&#45;&gt;Node2 -->
<g id="edge1" class="edge"><title>Node1&#45;&gt;Node2</title>
<path fill="none" stroke="midnightblue" d="M84.3412,-202.04C98.7506,-231.633 135.376,-296.74 189,-322 332.298,-389.501 529.849,-350.252 610.731,-329.423"/>
<polygon fill="midnightblue" stroke="midnightblue" points="611.677,-332.793 620.455,-326.861 609.894,-326.024 611.677,-332.793"/>
</g>
<!-- Node3 -->
<g id="node3" class="node"><title>Node3</title>
<g id="a_node3"><a xlink:href="../../da/dd9/class_c_skater_button.html#a735c5f3324a7d41a78b16892d5093b9d" target="_top" xlink:title=" ">
<polygon fill="white" stroke="black" points="191,-243.5 191,-262.5 329,-262.5 329,-243.5 191,-243.5"/>
<text text-anchor="middle" x="260" y="-250.5" font-family="Helvetica,sans-Serif" font-size="10.00">CSkaterButton::ClearTrigger</text>
</a>
</g>
</g>
<!-- Node1&#45;&gt;Node3 -->
<g id="edge2" class="edge"><title>Node1&#45;&gt;Node3</title>
<path fill="none" stroke="midnightblue" d="M111.276,-202.102C133.191,-211.609 162.498,-223.78 189,-233 196.723,-235.687 205.013,-238.293 213.09,-240.687"/>
<polygon fill="midnightblue" stroke="midnightblue" points="212.206,-244.075 222.785,-243.495 214.153,-237.351 212.206,-244.075"/>
</g>
<!-- Node4 -->
<g id="node4" class="node"><title>Node4</title>
<g id="a_node4"><a xlink:href="../../db/d0b/class_obj_1_1_c_input_component.html#a74e410efa46e9592d9f39c84ee85adf1" target="_top" xlink:title=" ">
<polygon fill="white" stroke="black" points="202.5,-194 202.5,-224 317.5,-224 317.5,-194 202.5,-194"/>
<text text-anchor="start" x="210.5" y="-212" font-family="Helvetica,sans-Serif" font-size="10.00">Obj::CInputComponent</text>
<text text-anchor="middle" x="260" y="-201" font-family="Helvetica,sans-Serif" font-size="10.00">::GetControlPad</text>
</a>
</g>
</g>
<!-- Node1&#45;&gt;Node4 -->
<g id="edge3" class="edge"><title>Node1&#45;&gt;Node4</title>
<path fill="none" stroke="midnightblue" d="M153.158,-196.171C166.129,-197.743 179.523,-199.366 192.24,-200.908"/>
<polygon fill="midnightblue" stroke="midnightblue" points="191.924,-204.395 202.273,-202.124 192.767,-197.446 191.924,-204.395"/>
</g>
<!-- Node5 -->
<g id="node5" class="node"><title>Node5</title>
<g id="a_node5"><a xlink:href="../../d1/d54/namespace_script.html#a1ef6ac6b15ddd2fcff21e6a3dd6e5938" target="_top" xlink:title=" ">
<polygon fill="white" stroke="black" points="217,-155.5 217,-174.5 303,-174.5 303,-155.5 217,-155.5"/>
<text text-anchor="middle" x="260" y="-162.5" font-family="Helvetica,sans-Serif" font-size="10.00">Script::GetFloat</text>
</a>
</g>
</g>
<!-- Node1&#45;&gt;Node5 -->
<g id="edge4" class="edge"><title>Node1&#45;&gt;Node5</title>
<path fill="none" stroke="midnightblue" d="M153.158,-177.829C171.201,-175.642 190.064,-173.356 206.783,-171.329"/>
<polygon fill="midnightblue" stroke="midnightblue" points="207.384,-174.782 216.89,-170.104 206.541,-167.833 207.384,-174.782"/>
</g>
<!-- Node13 -->
<g id="node13" class="node"><title>Node13</title>
<g id="a_node13"><a xlink:href="../../d1/d54/namespace_script.html#aa0c62774649e1e3abcab019ea335a3ad" target="_top" xlink:title=" ">
<polygon fill="white" stroke="black" points="213.5,-117.5 213.5,-136.5 306.5,-136.5 306.5,-117.5 213.5,-117.5"/>
<text text-anchor="middle" x="260" y="-124.5" font-family="Helvetica,sans-Serif" font-size="10.00">Script::GetInteger</text>
</a>
</g>
</g>
<!-- Node1&#45;&gt;Node13 -->
<g id="edge13" class="edge"><title>Node1&#45;&gt;Node13</title>
<path fill="none" stroke="midnightblue" d="M115.914,-171.933C137.278,-163.792 164.438,-153.833 189,-146 196.257,-143.686 203.994,-141.404 211.577,-139.269"/>
<polygon fill="midnightblue" stroke="midnightblue" points="212.697,-142.591 221.405,-136.557 210.834,-135.843 212.697,-142.591"/>
</g>
<!-- Node14 -->
<g id="node14" class="node"><title>Node14</title>
<g id="a_node14"><a xlink:href="../../de/d49/class_c_skater_pad.html#af625e82da206d3cbd47cfd506e57f78a" target="_top" xlink:title=" ">
<polygon fill="white" stroke="black" points="191.5,-282 191.5,-312 328.5,-312 328.5,-282 191.5,-282"/>
<text text-anchor="start" x="199.5" y="-300" font-family="Helvetica,sans-Serif" font-size="10.00">CSkaterPad::GetScaledLeft</text>
<text text-anchor="middle" x="260" y="-289" font-family="Helvetica,sans-Serif" font-size="10.00">AnalogStickMagnitude</text>
</a>
</g>
</g>
<!-- Node1&#45;&gt;Node14 -->
<g id="edge17" class="edge"><title>Node1&#45;&gt;Node14</title>
<path fill="none" stroke="midnightblue" d="M94.1145,-202.324C114.957,-220.891 152.416,-252.148 189,-272 192.934,-274.135 197.088,-276.15 201.328,-278.039"/>
<polygon fill="midnightblue" stroke="midnightblue" points="200.125,-281.33 210.701,-281.97 202.833,-274.875 200.125,-281.33"/>
</g>
<!-- Node16 -->
<g id="node16" class="node"><title>Node16</title>
<g id="a_node16"><a xlink:href="../../da/dd9/class_c_skater_button.html#abb7ba2f7cbeb5c929209152e0200bf4c" target="_top" xlink:title=" ">
<polygon fill="white" stroke="black" points="189,-79.5 189,-98.5 331,-98.5 331,-79.5 189,-79.5"/>
<text text-anchor="middle" x="260" y="-86.5" font-family="Helvetica,sans-Serif" font-size="10.00">CSkaterButton::GetTriggered</text>
</a>
</g>
</g>
<!-- Node1&#45;&gt;Node16 -->
<g id="edge20" class="edge"><title>Node1&#45;&gt;Node16</title>
<path fill="none" stroke="midnightblue" d="M94.8158,-171.756C115.761,-154.054 152.738,-125.104 189,-108 193.983,-105.65 199.307,-103.548 204.71,-101.678"/>
<polygon fill="midnightblue" stroke="midnightblue" points="206.005,-104.939 214.465,-98.5599 203.874,-98.2711 206.005,-104.939"/>
</g>
<!-- Node17 -->
<g id="node17" class="node"><title>Node17</title>
<g id="a_node17"><a xlink:href="../../d0/d19/class_nx_1_1_c_viewport_manager.html#a6793cdbafdcf79ae5f82ccd14c3f2c3e" target="_top" xlink:title=" ">
<polygon fill="white" stroke="black" points="202,-30 202,-60 318,-60 318,-30 202,-30"/>
<text text-anchor="start" x="210" y="-48" font-family="Helvetica,sans-Serif" font-size="10.00">Nx::CViewportManager</text>
<text text-anchor="middle" x="260" y="-37" font-family="Helvetica,sans-Serif" font-size="10.00">::sSetScreenAngle</text>
</a>
</g>
</g>
<!-- Node1&#45;&gt;Node17 -->
<g id="edge21" class="edge"><title>Node1&#45;&gt;Node17</title>
<path fill="none" stroke="midnightblue" d="M88.1348,-171.919C106.208,-147.315 145.238,-98.4372 189,-70 192.104,-67.9829 195.392,-66.1039 198.782,-64.3574"/>
<polygon fill="midnightblue" stroke="midnightblue" points="200.39,-67.4689 207.944,-60.04 197.406,-61.1368 200.39,-67.4689"/>
</g>
<!-- Node6 -->
<g id="node6" class="node"><title>Node6</title>
<g id="a_node6"><a xlink:href="../../d1/d54/namespace_script.html#ae80ed69ea4edcbcbbbd4985a6efdcd6e" target="_top" xlink:title=" ">
<polygon fill="white" stroke="black" points="579,-136.5 579,-155.5 718,-155.5 718,-136.5 579,-136.5"/>
<text text-anchor="middle" x="648.5" y="-143.5" font-family="Helvetica,sans-Serif" font-size="10.00">Script::FindChecksumName</text>
</a>
</g>
</g>
<!-- Node5&#45;&gt;Node6 -->
<g id="edge5" class="edge"><title>Node5&#45;&gt;Node6</title>
<path fill="none" stroke="midnightblue" d="M297.74,-174.585C351.701,-187.082 455.174,-205.011 540,-184 557.561,-179.65 559.15,-171.587 576,-165 582.189,-162.581 588.796,-160.363 595.4,-158.365"/>
<polygon fill="midnightblue" stroke="midnightblue" points="596.382,-161.724 605.024,-155.596 594.446,-154.997 596.382,-161.724"/>
</g>
<!-- Node10 -->
<g id="node10" class="node"><title>Node10</title>
<g id="a_node10"><a xlink:href="../../d1/d54/namespace_script.html#af32f99ba26ca0f255240413a4e23a754" target="_top" xlink:title=" ">
<polygon fill="white" stroke="black" points="398.5,-117.5 398.5,-136.5 508.5,-136.5 508.5,-117.5 398.5,-117.5"/>
<text text-anchor="middle" x="453.5" y="-124.5" font-family="Helvetica,sans-Serif" font-size="10.00">Script::GetTypeName</text>
</a>
</g>
</g>
<!-- Node5&#45;&gt;Node10 -->
<g id="edge9" class="edge"><title>Node5&#45;&gt;Node10</title>
<path fill="none" stroke="midnightblue" d="M303.025,-156.661C329.814,-151.345 364.898,-144.383 394.344,-138.54"/>
<polygon fill="midnightblue" stroke="midnightblue" points="395.373,-141.904 404.501,-136.525 394.011,-135.038 395.373,-141.904"/>
</g>
<!-- Node11 -->
<g id="node11" class="node"><title>Node11</title>
<g id="a_node11"><a xlink:href="../../d1/d54/namespace_script.html#a43181580ea5d38e4bf1aa19ccd5e9e85" target="_top" xlink:title=" ">
<polygon fill="white" stroke="black" points="412.5,-155.5 412.5,-174.5 494.5,-174.5 494.5,-155.5 412.5,-155.5"/>
<text text-anchor="middle" x="453.5" y="-162.5" font-family="Helvetica,sans-Serif" font-size="10.00">Script::Resolve</text>
</a>
</g>
</g>
<!-- Node5&#45;&gt;Node11 -->
<g id="edge10" class="edge"><title>Node5&#45;&gt;Node11</title>
<path fill="none" stroke="midnightblue" d="M303.025,-165C332.206,-165 371.23,-165 402.087,-165"/>
<polygon fill="midnightblue" stroke="midnightblue" points="402.212,-168.5 412.212,-165 402.212,-161.5 402.212,-168.5"/>
</g>
<!-- Node7 -->
<g id="node7" class="node"><title>Node7</title>
<g id="a_node7"><a xlink:href="../../d1/d54/namespace_script.html#a5cc52c4ff5ea5bb27681d819212dfdca" target="_top" xlink:title=" ">
<polygon fill="white" stroke="black" points="757,-155.5 757,-174.5 920,-174.5 920,-155.5 757,-155.5"/>
<text text-anchor="middle" x="838.5" y="-162.5" font-family="Helvetica,sans-Serif" font-size="10.00">Script::FindChecksumNameNULL</text>
</a>
</g>
</g>
<!-- Node6&#45;&gt;Node7 -->
<g id="edge6" class="edge"><title>Node6&#45;&gt;Node7</title>
<path fill="none" stroke="midnightblue" d="M718.17,-152.94C727.512,-153.884 737.215,-154.865 746.87,-155.841"/>
<polygon fill="midnightblue" stroke="midnightblue" points="746.596,-159.331 756.898,-156.854 747.3,-152.366 746.596,-159.331"/>
</g>
<!-- Node9 -->
<g id="node9" class="node"><title>Node9</title>
<g id="a_node9"><a xlink:href="../../da/d37/namespace_dbg.html#ab406a8cc16de5046c7d9fd09c9de5e22" target="_top" xlink:title=" ">
<polygon fill="white" stroke="black" points="805.5,-117.5 805.5,-136.5 871.5,-136.5 871.5,-117.5 805.5,-117.5"/>
<text text-anchor="middle" x="838.5" y="-124.5" font-family="Helvetica,sans-Serif" font-size="10.00">Dbg::sprintf</text>
</a>
</g>
</g>
<!-- Node6&#45;&gt;Node9 -->
<g id="edge8" class="edge"><title>Node6&#45;&gt;Node9</title>
<path fill="none" stroke="midnightblue" d="M718.17,-139.06C744.003,-136.449 772.594,-133.56 795.313,-131.264"/>
<polygon fill="midnightblue" stroke="midnightblue" points="795.71,-134.741 805.307,-130.254 795.006,-127.777 795.71,-134.741"/>
</g>
<!-- Node8 -->
<g id="node8" class="node"><title>Node8</title>
<g id="a_node8"><a xlink:href="../../d0/d31/namespace_config.html#a709cc81780d49900157e3476b63aa25d" target="_top" xlink:title=" ">
<polygon fill="white" stroke="black" points="956,-155.5 956,-174.5 1080,-174.5 1080,-155.5 956,-155.5"/>
<text text-anchor="middle" x="1018" y="-162.5" font-family="Helvetica,sans-Serif" font-size="10.00">Config::GotExtraMemory</text>
</a>
</g>
</g>
<!-- Node7&#45;&gt;Node8 -->
<g id="edge7" class="edge"><title>Node7&#45;&gt;Node8</title>
<path fill="none" stroke="midnightblue" d="M920.2,-165C928.729,-165 937.358,-165 945.768,-165"/>
<polygon fill="midnightblue" stroke="midnightblue" points="945.898,-168.5 955.898,-165 945.898,-161.5 945.898,-168.5"/>
</g>
<!-- Node11&#45;&gt;Node6 -->
<g id="edge11" class="edge"><title>Node11&#45;&gt;Node6</title>
<path fill="none" stroke="midnightblue" d="M494.959,-161.017C516.427,-158.904 543.558,-156.233 568.966,-153.731"/>
<polygon fill="midnightblue" stroke="midnightblue" points="569.367,-157.209 578.976,-152.746 568.681,-150.243 569.367,-157.209"/>
</g>
<!-- Node12 -->
<g id="node12" class="node"><title>Node12</title>
<g id="a_node12"><a xlink:href="../../d1/d54/namespace_script.html#af293a36c230b10de7d8151c2990b233b" target="_top" xlink:title=" ">
<polygon fill="white" stroke="black" points="591.5,-174.5 591.5,-193.5 705.5,-193.5 705.5,-174.5 591.5,-174.5"/>
<text text-anchor="middle" x="648.5" y="-181.5" font-family="Helvetica,sans-Serif" font-size="10.00">Script::LookUpSymbol</text>
</a>
</g>
</g>
<!-- Node11&#45;&gt;Node12 -->
<g id="edge12" class="edge"><title>Node11&#45;&gt;Node12</title>
<path fill="none" stroke="midnightblue" d="M494.959,-168.983C519.975,-171.446 552.68,-174.665 581.389,-177.492"/>
<polygon fill="midnightblue" stroke="midnightblue" points="581.063,-180.976 591.357,-178.473 581.748,-174.01 581.063,-180.976"/>
</g>
<!-- Node13&#45;&gt;Node6 -->
<g id="edge14" class="edge"><title>Node13&#45;&gt;Node6</title>
<path fill="none" stroke="midnightblue" d="M304.088,-117.488C323.246,-113.723 346.143,-109.855 367,-108 443.587,-101.19 464.218,-95.0001 540,-108 567.117,-112.652 596.476,-123.453 617.65,-132.356"/>
<polygon fill="midnightblue" stroke="midnightblue" points="616.484,-135.665 627.052,-136.411 619.256,-129.237 616.484,-135.665"/>
</g>
<!-- Node13&#45;&gt;Node10 -->
<g id="edge15" class="edge"><title>Node13&#45;&gt;Node10</title>
<path fill="none" stroke="midnightblue" d="M306.869,-127C331.202,-127 361.498,-127 388.146,-127"/>
<polygon fill="midnightblue" stroke="midnightblue" points="388.16,-130.5 398.16,-127 388.16,-123.5 388.16,-130.5"/>
</g>
<!-- Node13&#45;&gt;Node11 -->
<g id="edge16" class="edge"><title>Node13&#45;&gt;Node11</title>
<path fill="none" stroke="midnightblue" d="M306.869,-136.102C335.574,-141.798 372.576,-149.14 402.099,-154.999"/>
<polygon fill="midnightblue" stroke="midnightblue" points="401.714,-158.491 412.204,-157.004 403.076,-151.624 401.714,-158.491"/>
</g>
<!-- Node15 -->
<g id="node15" class="node"><title>Node15</title>
<g id="a_node15"><a xlink:href="../../de/d49/class_c_skater_pad.html#a31899d6a07401fc5dcaa4ffde093e304" target="_top" xlink:title=" ">
<polygon fill="white" stroke="black" points="378,-282 378,-312 529,-312 529,-282 378,-282"/>
<text text-anchor="start" x="386" y="-300" font-family="Helvetica,sans-Serif" font-size="10.00">CSkaterPad::GetScaledAnalog</text>
<text text-anchor="middle" x="453.5" y="-289" font-family="Helvetica,sans-Serif" font-size="10.00">StickMagnitude</text>
</a>
</g>
</g>
<!-- Node14&#45;&gt;Node15 -->
<g id="edge18" class="edge"><title>Node14&#45;&gt;Node15</title>
<path fill="none" stroke="midnightblue" d="M328.516,-297C341.091,-297 354.38,-297 367.403,-297"/>
<polygon fill="midnightblue" stroke="midnightblue" points="367.771,-300.5 377.771,-297 367.771,-293.5 367.771,-300.5"/>
</g>
<!-- Node15&#45;&gt;Node2 -->
<g id="edge19" class="edge"><title>Node15&#45;&gt;Node2</title>
<path fill="none" stroke="midnightblue" d="M529.119,-305.506C556.899,-308.672 587.232,-312.13 610.239,-314.753"/>
<polygon fill="midnightblue" stroke="midnightblue" points="609.927,-318.24 620.259,-315.895 610.72,-311.285 609.927,-318.24"/>
</g>
<!-- Node18 -->
<g id="node18" class="node"><title>Node18</title>
<g id="a_node18"><a xlink:href="../../d2/dc1/class_nx_1_1_c_viewport.html#a3042e912bf2b90249f1fee794e56bc7a" target="_top" xlink:title=" ">
<polygon fill="white" stroke="black" points="386.5,-38.5 386.5,-57.5 520.5,-57.5 520.5,-38.5 386.5,-38.5"/>
<text text-anchor="middle" x="453.5" y="-45.5" font-family="Helvetica,sans-Serif" font-size="10.00">Nx::CViewport::GetCamera</text>
</a>
</g>
</g>
<!-- Node17&#45;&gt;Node18 -->
<g id="edge22" class="edge"><title>Node17&#45;&gt;Node18</title>
<path fill="none" stroke="midnightblue" d="M318.197,-45.896C336.321,-46.18 356.657,-46.4985 375.915,-46.8002"/>
<polygon fill="midnightblue" stroke="midnightblue" points="376.121,-50.3038 386.174,-46.961 376.23,-43.3047 376.121,-50.3038"/>
</g>
<!-- Node20 -->
<g id="node20" class="node"><title>Node20</title>
<g id="a_node20"><a xlink:href="../../dd/daa/class_gfx_1_1_camera.html#ae67d72bc0716e409d28b4d08af8ca6d1" target="_top" xlink:title=" ">
<polygon fill="white" stroke="black" points="367,-0.5 367,-19.5 540,-19.5 540,-0.5 367,-0.5"/>
<text text-anchor="middle" x="453.5" y="-7.5" font-family="Helvetica,sans-Serif" font-size="10.00">Gfx::Camera::UpdateAdjustedHFOV</text>
</a>
</g>
</g>
<!-- Node17&#45;&gt;Node20 -->
<g id="edge24" class="edge"><title>Node17&#45;&gt;Node20</title>
<path fill="none" stroke="midnightblue" d="M318.197,-34.5463C340.95,-30.3877 367.19,-25.5919 390.406,-21.3488"/>
<polygon fill="midnightblue" stroke="midnightblue" points="391.285,-24.7463 400.492,-19.5053 390.026,-17.8603 391.285,-24.7463"/>
</g>
<!-- Node19 -->
<g id="node19" class="node"><title>Node19</title>
<g id="a_node19"><a xlink:href="../../d2/dc1/class_nx_1_1_c_viewport.html#ab05ff90a636daadc42ea0a07faaa18e1" target="_top" xlink:title=" ">
<polygon fill="white" stroke="black" points="576,-33 576,-63 721,-63 721,-33 576,-33"/>
<text text-anchor="start" x="584" y="-51" font-family="Helvetica,sans-Serif" font-size="10.00">Nx::CViewport::DeleteMarked</text>
<text text-anchor="middle" x="648.5" y="-40" font-family="Helvetica,sans-Serif" font-size="10.00">Camera</text>
</a>
</g>
</g>
<!-- Node18&#45;&gt;Node19 -->
<g id="edge23" class="edge"><title>Node18&#45;&gt;Node19</title>
<path fill="none" stroke="midnightblue" d="M520.65,-48C535.101,-48 550.564,-48 565.548,-48"/>
<polygon fill="midnightblue" stroke="midnightblue" points="565.826,-51.5001 575.826,-48 565.826,-44.5001 565.826,-51.5001"/>
</g>
</g>
</svg>
