<?xml version="1.0" encoding="UTF-8" standalone="no"?>
<!DOCTYPE svg PUBLIC "-//W3C//DTD SVG 1.1//EN"
 "http://www.w3.org/Graphics/SVG/1.1/DTD/svg11.dtd">
<!-- Generated by graphviz version 2.38.0 (20140413.2041)
 -->
<!-- Title: Obj::CTrickComponent::GetButtonState Pages: 1 -->
<!--zoomable 352 -->
<svg id="main" version="1.1" xmlns="http://www.w3.org/2000/svg" xmlns:xlink="http://www.w3.org/1999/xlink" xml:space="preserve" onload="init(evt)">
<style type="text/css"><![CDATA[
.edge:hover path { stroke: red; }
.edge:hover polygon { stroke: red; fill: red; }
]]></style>
<script type="text/javascript"><![CDATA[
var edges = document.getElementsByTagName('g');
if (edges && edges.length) {
  for (var i=0;i<edges.length;i++) {
    if (edges[i].id.substr(0,4)=='edge') {
      edges[i].setAttribute('class','edge');
    }
  }
}
]]></script>
        <defs>
                <circle id="rim" cx="0" cy="0" r="7"/>
                <circle id="rim2" cx="0" cy="0" r="3.5"/>
                <g id="zoomPlus">
                        <use xlink:href="#rim" fill="#404040">
                                <set attributeName="fill" to="#808080" begin="zoomplus.mouseover" end="zoomplus.mouseout"/>
                        </use>
                        <path d="M-4,0h8M0,-4v8" fill="none" stroke="white" stroke-width="1.5" pointer-events="none"/>
                </g>
                <g id="zoomMin">
                        <use xlink:href="#rim" fill="#404040">
                                <set attributeName="fill" to="#808080" begin="zoomminus.mouseover" end="zoomminus.mouseout"/>
                        </use>
                        <path d="M-4,0h8" fill="none" stroke="white" stroke-width="1.5" pointer-events="none"/>
                </g>
                <g id="dirArrow">
                        <path fill="none" stroke="white" stroke-width="1.5" d="M0,-3.0v7 M-2.5,-0.5L0,-3.0L2.5,-0.5"/>
                </g>
               <g id="resetDef">
                       <use xlink:href="#rim2" fill="#404040">
                               <set attributeName="fill" to="#808080" begin="reset.mouseover" end="reset.mouseout"/>
                       </use>
               </g>
        </defs>

<script type="text/javascript">
var viewWidth = 1193;
var viewHeight = 352;
var sectionId = 'dynsection-21';
</script>
<script xlink:href="../../svgpan.js"/>
<svg id="graph" class="graph">
<g id="viewport">
<title>Obj::CTrickComponent::GetButtonState</title>
<polygon fill="white" stroke="none" points="-4,4 -4,-347.529 1189,-347.529 1189,4 -4,4"/>
<!-- Node1 -->
<g id="node1" class="node"><title>Node1</title>
<g id="a_node1"><a xlink:title=" ">
<polygon fill="#bfbfbf" stroke="black" points="1070,-186.5 1070,-216.5 1185,-216.5 1185,-186.5 1070,-186.5"/>
<text text-anchor="start" x="1078" y="-204.5" font-family="Helvetica,sans-Serif" font-size="10.00">Obj::CTrickComponent</text>
<text text-anchor="middle" x="1127.5" y="-193.5" font-family="Helvetica,sans-Serif" font-size="10.00">::GetButtonState</text>
</a>
</g>
</g>
<!-- Node2 -->
<g id="node2" class="node"><title>Node2</title>
<g id="a_node2"><a xlink:href="../../df/d3f/class_obj_1_1_c_trick_component.html#ac5ca1bf03fa9f5cceab427060798cace" target="_top" xlink:title=" ">
<polygon fill="white" stroke="black" points="245.5,-306.5 245.5,-336.5 360.5,-336.5 360.5,-306.5 245.5,-306.5"/>
<text text-anchor="start" x="253.5" y="-324.5" font-family="Helvetica,sans-Serif" font-size="10.00">Obj::CTrickComponent</text>
<text text-anchor="middle" x="303" y="-313.5" font-family="Helvetica,sans-Serif" font-size="10.00">::CallMemberFunction</text>
</a>
</g>
</g>
<!-- Node1&#45;&gt;Node2 -->
<g id="edge1" class="edge"><title>Node1&#45;&gt;Node2</title>
<path fill="none" stroke="midnightblue" d="M1090.13,-221.443C1034.12,-250.906 922.443,-304.711 820,-324.5 655.737,-356.23 456.537,-340.07 360.787,-329.005"/>
<polygon fill="midnightblue" stroke="midnightblue" points="1092.09,-224.366 1099.28,-216.585 1088.81,-218.183 1092.09,-224.366"/>
</g>
<!-- Node3 -->
<g id="node3" class="node"><title>Node3</title>
<g id="a_node3"><a xlink:href="../../d2/d61/class_obj_1_1_c_skater_core_physics_component.html#adf51713ad92e95712944004b518048ca" target="_top" xlink:title=" ">
<polygon fill="white" stroke="black" points="856,-44.5 856,-74.5 1034,-74.5 1034,-44.5 856,-44.5"/>
<text text-anchor="start" x="864" y="-62.5" font-family="Helvetica,sans-Serif" font-size="10.00">Obj::CSkaterCorePhysicsComponent</text>
<text text-anchor="middle" x="945" y="-51.5" font-family="Helvetica,sans-Serif" font-size="10.00">::check_for_wallride</text>
</a>
</g>
</g>
<!-- Node1&#45;&gt;Node3 -->
<g id="edge2" class="edge"><title>Node1&#45;&gt;Node3</title>
<path fill="none" stroke="midnightblue" d="M1099.32,-180.117C1062.42,-151.086 997.382,-99.9225 965.178,-74.5872"/>
<polygon fill="midnightblue" stroke="midnightblue" points="1097.16,-182.871 1107.18,-186.304 1101.49,-177.37 1097.16,-182.871"/>
</g>
<!-- Node10 -->
<g id="node10" class="node"><title>Node10</title>
<g id="a_node10"><a xlink:href="../../df/d3f/class_obj_1_1_c_trick_component.html#a43281f43de7ec19313f689a83d8045d3" target="_top" xlink:title=" ">
<polygon fill="white" stroke="black" points="887.5,-186.5 887.5,-216.5 1002.5,-216.5 1002.5,-186.5 887.5,-186.5"/>
<text text-anchor="start" x="895.5" y="-204.5" font-family="Helvetica,sans-Serif" font-size="10.00">Obj::CTrickComponent</text>
<text text-anchor="middle" x="945" y="-193.5" font-family="Helvetica,sans-Serif" font-size="10.00">::QueryEvents</text>
</a>
</g>
</g>
<!-- Node1&#45;&gt;Node10 -->
<g id="edge11" class="edge"><title>Node1&#45;&gt;Node10</title>
<path fill="none" stroke="midnightblue" d="M1059.66,-201.5C1040.95,-201.5 1020.79,-201.5 1002.73,-201.5"/>
<polygon fill="midnightblue" stroke="midnightblue" points="1059.88,-205 1069.88,-201.5 1059.88,-198 1059.88,-205"/>
</g>
<!-- Node4 -->
<g id="node4" class="node"><title>Node4</title>
<g id="a_node4"><a xlink:href="../../d2/d61/class_obj_1_1_c_skater_core_physics_component.html#a1b0540b5e643e86d12e76afee9d792bd" target="_top" xlink:title=" ">
<polygon fill="white" stroke="black" points="642,-0.5 642,-30.5 820,-30.5 820,-0.5 642,-0.5"/>
<text text-anchor="start" x="650" y="-18.5" font-family="Helvetica,sans-Serif" font-size="10.00">Obj::CSkaterCorePhysicsComponent</text>
<text text-anchor="middle" x="731" y="-7.5" font-family="Helvetica,sans-Serif" font-size="10.00">::check_side</text>
</a>
</g>
</g>
<!-- Node3&#45;&gt;Node4 -->
<g id="edge3" class="edge"><title>Node3&#45;&gt;Node4</title>
<path fill="none" stroke="midnightblue" d="M861.841,-42.4482C842.901,-38.5171 822.889,-34.3638 804.399,-30.5262"/>
<polygon fill="midnightblue" stroke="midnightblue" points="861.132,-45.8755 871.635,-44.4808 862.555,-39.0215 861.132,-45.8755"/>
</g>
<!-- Node9 -->
<g id="node9" class="node"><title>Node9</title>
<g id="a_node9"><a xlink:href="../../d2/d61/class_obj_1_1_c_skater_core_physics_component.html#ac72697bca83c340810eaff189de6e7ce" target="_top" xlink:title=" ">
<polygon fill="white" stroke="black" points="428,-49.5 428,-79.5 606,-79.5 606,-49.5 428,-49.5"/>
<text text-anchor="start" x="436" y="-67.5" font-family="Helvetica,sans-Serif" font-size="10.00">Obj::CSkaterCorePhysicsComponent</text>
<text text-anchor="middle" x="517" y="-56.5" font-family="Helvetica,sans-Serif" font-size="10.00">::handle_forward_collision_in_air</text>
</a>
</g>
</g>
<!-- Node3&#45;&gt;Node9 -->
<g id="edge9" class="edge"><title>Node3&#45;&gt;Node9</title>
<path fill="none" stroke="midnightblue" d="M845.962,-60.6507C773.664,-61.4992 676.136,-62.6439 606.261,-63.4641"/>
<polygon fill="midnightblue" stroke="midnightblue" points="846.033,-64.1502 855.991,-60.533 845.95,-57.1507 846.033,-64.1502"/>
</g>
<!-- Node5 -->
<g id="node5" class="node"><title>Node5</title>
<g id="a_node5"><a xlink:href="../../d2/d61/class_obj_1_1_c_skater_core_physics_component.html#a32542d56566881052d6ab68e631e9f6d" target="_top" xlink:title=" ">
<polygon fill="white" stroke="black" points="428,-0.5 428,-30.5 606,-30.5 606,-0.5 428,-0.5"/>
<text text-anchor="start" x="436" y="-18.5" font-family="Helvetica,sans-Serif" font-size="10.00">Obj::CSkaterCorePhysicsComponent</text>
<text text-anchor="middle" x="517" y="-7.5" font-family="Helvetica,sans-Serif" font-size="10.00">::check_side_collisions</text>
</a>
</g>
</g>
<!-- Node4&#45;&gt;Node5 -->
<g id="edge4" class="edge"><title>Node4&#45;&gt;Node5</title>
<path fill="none" stroke="midnightblue" d="M631.893,-15.5C623.3,-15.5 614.637,-15.5 606.132,-15.5"/>
<polygon fill="midnightblue" stroke="midnightblue" points="631.935,-19.0001 641.935,-15.5 631.935,-12.0001 631.935,-19.0001"/>
</g>
<!-- Node6 -->
<g id="node6" class="node"><title>Node6</title>
<g id="a_node6"><a xlink:href="../../d2/d61/class_obj_1_1_c_skater_core_physics_component.html#ac8680b0cbdb8dbcc8af0e9246b939d53" target="_top" xlink:title=" ">
<polygon fill="white" stroke="black" points="214,-49.5 214,-79.5 392,-79.5 392,-49.5 214,-49.5"/>
<text text-anchor="start" x="222" y="-67.5" font-family="Helvetica,sans-Serif" font-size="10.00">Obj::CSkaterCorePhysicsComponent</text>
<text text-anchor="middle" x="303" y="-56.5" font-family="Helvetica,sans-Serif" font-size="10.00">::do_in_air_physics</text>
</a>
</g>
</g>
<!-- Node5&#45;&gt;Node6 -->
<g id="edge5" class="edge"><title>Node5&#45;&gt;Node6</title>
<path fill="none" stroke="midnightblue" d="M441.017,-32.8309C417.48,-38.2712 391.705,-44.2285 368.925,-49.4938"/>
<polygon fill="midnightblue" stroke="midnightblue" points="441.997,-36.1967 450.952,-30.5346 440.421,-29.3765 441.997,-36.1967"/>
</g>
<!-- Node8 -->
<g id="node8" class="node"><title>Node8</title>
<g id="a_node8"><a xlink:href="../../d2/d61/class_obj_1_1_c_skater_core_physics_component.html#ac0a7b3aab2a95b3824bf411253578223" target="_top" xlink:title=" ">
<polygon fill="white" stroke="black" points="214,-0.5 214,-30.5 392,-30.5 392,-0.5 214,-0.5"/>
<text text-anchor="start" x="222" y="-18.5" font-family="Helvetica,sans-Serif" font-size="10.00">Obj::CSkaterCorePhysicsComponent</text>
<text text-anchor="middle" x="303" y="-7.5" font-family="Helvetica,sans-Serif" font-size="10.00">::do_on_ground_physics</text>
</a>
</g>
</g>
<!-- Node5&#45;&gt;Node8 -->
<g id="edge7" class="edge"><title>Node5&#45;&gt;Node8</title>
<path fill="none" stroke="midnightblue" d="M417.893,-15.5C409.3,-15.5 400.637,-15.5 392.132,-15.5"/>
<polygon fill="midnightblue" stroke="midnightblue" points="417.935,-19.0001 427.935,-15.5 417.935,-12.0001 417.935,-19.0001"/>
</g>
<!-- Node7 -->
<g id="node7" class="node"><title>Node7</title>
<g id="a_node7"><a xlink:href="../../d2/d61/class_obj_1_1_c_skater_core_physics_component.html#ab33036e6e0db072615c967ea6392832e" target="_top" xlink:title=" ">
<polygon fill="white" stroke="black" points="0,-24.5 0,-54.5 178,-54.5 178,-24.5 0,-24.5"/>
<text text-anchor="start" x="8" y="-42.5" font-family="Helvetica,sans-Serif" font-size="10.00">Obj::CSkaterCorePhysicsComponent</text>
<text text-anchor="middle" x="89" y="-31.5" font-family="Helvetica,sans-Serif" font-size="10.00">::Update</text>
</a>
</g>
</g>
<!-- Node6&#45;&gt;Node7 -->
<g id="edge6" class="edge"><title>Node6&#45;&gt;Node7</title>
<path fill="none" stroke="midnightblue" d="M203.893,-52.9307C195.3,-51.9174 186.637,-50.8959 178.132,-49.893"/>
<polygon fill="midnightblue" stroke="midnightblue" points="203.594,-56.4196 213.935,-54.1149 204.413,-49.4678 203.594,-56.4196"/>
</g>
<!-- Node8&#45;&gt;Node7 -->
<g id="edge8" class="edge"><title>Node8&#45;&gt;Node7</title>
<path fill="none" stroke="midnightblue" d="M203.893,-26.6065C195.3,-27.5793 186.637,-28.56 178.132,-29.5227"/>
<polygon fill="midnightblue" stroke="midnightblue" points="204.392,-30.0724 213.935,-25.4697 203.604,-23.1169 204.392,-30.0724"/>
</g>
<!-- Node9&#45;&gt;Node6 -->
<g id="edge10" class="edge"><title>Node9&#45;&gt;Node6</title>
<path fill="none" stroke="midnightblue" d="M417.893,-64.5C409.3,-64.5 400.637,-64.5 392.132,-64.5"/>
<polygon fill="midnightblue" stroke="midnightblue" points="417.935,-68.0001 427.935,-64.5 417.935,-61.0001 417.935,-68.0001"/>
</g>
<!-- Node11 -->
<g id="node11" class="node"><title>Node11</title>
<g id="a_node11"><a xlink:href="../../d2/d61/class_obj_1_1_c_skater_core_physics_component.html#a81d1b5eb7bc986fd1130248e2d3f8912" target="_top" xlink:title=" ">
<polygon fill="white" stroke="black" points="642,-88.5 642,-118.5 820,-118.5 820,-88.5 642,-88.5"/>
<text text-anchor="start" x="650" y="-106.5" font-family="Helvetica,sans-Serif" font-size="10.00">Obj::CSkaterCorePhysicsComponent</text>
<text text-anchor="middle" x="731" y="-95.5" font-family="Helvetica,sans-Serif" font-size="10.00">::check_for_wallplant</text>
</a>
</g>
</g>
<!-- Node10&#45;&gt;Node11 -->
<g id="edge12" class="edge"><title>Node10&#45;&gt;Node11</title>
<path fill="none" stroke="midnightblue" d="M914.124,-180.507C889.742,-164.169 853.902,-141.919 820,-127.5 812.277,-124.215 803.979,-121.262 795.677,-118.643"/>
<polygon fill="midnightblue" stroke="midnightblue" points="912.323,-183.515 922.564,-186.233 916.254,-177.722 912.323,-183.515"/>
</g>
<!-- Node12 -->
<g id="node12" class="node"><title>Node12</title>
<g id="a_node12"><a xlink:href="../../df/d3f/class_obj_1_1_c_trick_component.html#a35f5b638fdfa8026f039116f4b3f6023" target="_top" xlink:title=" ">
<polygon fill="white" stroke="black" points="668,-235.5 668,-265.5 794,-265.5 794,-235.5 668,-235.5"/>
<text text-anchor="start" x="676" y="-253.5" font-family="Helvetica,sans-Serif" font-size="10.00">Obj::CTrickComponent</text>
<text text-anchor="middle" x="731" y="-242.5" font-family="Helvetica,sans-Serif" font-size="10.00">::CheckManualTrickArray</text>
</a>
</g>
</g>
<!-- Node10&#45;&gt;Node12 -->
<g id="edge14" class="edge"><title>Node10&#45;&gt;Node12</title>
<path fill="none" stroke="midnightblue" d="M877.489,-216.873C850.918,-223.014 820.484,-230.048 794.343,-236.091"/>
<polygon fill="midnightblue" stroke="midnightblue" points="878.511,-220.229 887.466,-214.567 876.935,-213.409 878.511,-220.229"/>
</g>
<!-- Node15 -->
<g id="node15" class="node"><title>Node15</title>
<g id="a_node15"><a xlink:href="../../df/d3f/class_obj_1_1_c_trick_component.html#a80414d8b45589434e8df612196397137" target="_top" xlink:title=" ">
<polygon fill="white" stroke="black" points="673.5,-284.5 673.5,-314.5 788.5,-314.5 788.5,-284.5 673.5,-284.5"/>
<text text-anchor="start" x="681.5" y="-302.5" font-family="Helvetica,sans-Serif" font-size="10.00">Obj::CTrickComponent</text>
<text text-anchor="middle" x="731" y="-291.5" font-family="Helvetica,sans-Serif" font-size="10.00">::MaybeAddTrick</text>
</a>
</g>
</g>
<!-- Node10&#45;&gt;Node15 -->
<g id="edge17" class="edge"><title>Node10&#45;&gt;Node15</title>
<path fill="none" stroke="midnightblue" d="M913.595,-222.381C889.177,-238.404 853.545,-260.142 820,-274.5 810.071,-278.75 799.208,-282.506 788.608,-285.731"/>
<polygon fill="midnightblue" stroke="midnightblue" points="915.665,-225.209 922.06,-216.761 911.793,-219.377 915.665,-225.209"/>
</g>
<!-- Node17 -->
<g id="node17" class="node"><title>Node17</title>
<g id="a_node17"><a xlink:href="../../df/d3f/class_obj_1_1_c_trick_component.html#a17f16353e3becfe07d7990ff33623583" target="_top" xlink:title=" ">
<polygon fill="white" stroke="black" points="657,-186.5 657,-216.5 805,-216.5 805,-186.5 657,-186.5"/>
<text text-anchor="start" x="665" y="-204.5" font-family="Helvetica,sans-Serif" font-size="10.00">Obj::CTrickComponent</text>
<text text-anchor="middle" x="731" y="-193.5" font-family="Helvetica,sans-Serif" font-size="10.00">::MaybeQueueExtraGrindTrick</text>
</a>
</g>
</g>
<!-- Node10&#45;&gt;Node17 -->
<g id="edge21" class="edge"><title>Node10&#45;&gt;Node17</title>
<path fill="none" stroke="midnightblue" d="M877.162,-201.5C854.258,-201.5 828.516,-201.5 805.14,-201.5"/>
<polygon fill="midnightblue" stroke="midnightblue" points="877.466,-205 887.466,-201.5 877.466,-198 877.466,-205"/>
</g>
<!-- Node18 -->
<g id="node18" class="node"><title>Node18</title>
<g id="a_node18"><a xlink:href="../../df/d3f/class_obj_1_1_c_trick_component.html#a13dabe5a661c87181deaf08960522bcc" target="_top" xlink:title=" ">
<polygon fill="white" stroke="black" points="673.5,-137.5 673.5,-167.5 788.5,-167.5 788.5,-137.5 673.5,-137.5"/>
<text text-anchor="start" x="681.5" y="-155.5" font-family="Helvetica,sans-Serif" font-size="10.00">Obj::CTrickComponent</text>
<text text-anchor="middle" x="731" y="-144.5" font-family="Helvetica,sans-Serif" font-size="10.00">::TriggerAnyExtraTrick</text>
</a>
</g>
</g>
<!-- Node10&#45;&gt;Node18 -->
<g id="edge22" class="edge"><title>Node10&#45;&gt;Node18</title>
<path fill="none" stroke="midnightblue" d="M877.583,-186.149C849.07,-179.559 816.094,-171.937 788.744,-165.615"/>
<polygon fill="midnightblue" stroke="midnightblue" points="876.935,-189.591 887.466,-188.433 878.511,-182.771 876.935,-189.591"/>
</g>
<!-- Node11&#45;&gt;Node9 -->
<g id="edge13" class="edge"><title>Node11&#45;&gt;Node9</title>
<path fill="none" stroke="midnightblue" d="M638.137,-86.6006C625.322,-84.2433 612.228,-81.8343 599.619,-79.5149"/>
<polygon fill="midnightblue" stroke="midnightblue" points="637.87,-90.1103 648.339,-88.4774 639.137,-83.2258 637.87,-90.1103"/>
</g>
<!-- Node13 -->
<g id="node13" class="node"><title>Node13</title>
<g id="a_node13"><a xlink:href="../../df/d3f/class_obj_1_1_c_trick_component.html#a63069fb320813058652e647c4bc6ee3f" target="_top" xlink:title=" ">
<polygon fill="white" stroke="black" points="450.5,-235.5 450.5,-265.5 583.5,-265.5 583.5,-235.5 450.5,-235.5"/>
<text text-anchor="start" x="458.5" y="-253.5" font-family="Helvetica,sans-Serif" font-size="10.00">Obj::CTrickComponent</text>
<text text-anchor="middle" x="517" y="-242.5" font-family="Helvetica,sans-Serif" font-size="10.00">::MaybeQueueManualTrick</text>
</a>
</g>
</g>
<!-- Node12&#45;&gt;Node13 -->
<g id="edge15" class="edge"><title>Node12&#45;&gt;Node13</title>
<path fill="none" stroke="midnightblue" d="M657.739,-250.5C633.8,-250.5 607.298,-250.5 583.866,-250.5"/>
<polygon fill="midnightblue" stroke="midnightblue" points="657.825,-254 667.825,-250.5 657.825,-247 657.825,-254"/>
</g>
<!-- Node14 -->
<g id="node14" class="node"><title>Node14</title>
<g id="a_node14"><a xlink:href="../../df/d3f/class_obj_1_1_c_trick_component.html#a28a7240923f3b985510be24c448c7a12" target="_top" xlink:title=" ">
<polygon fill="white" stroke="black" points="245.5,-235.5 245.5,-265.5 360.5,-265.5 360.5,-235.5 245.5,-235.5"/>
<text text-anchor="start" x="253.5" y="-253.5" font-family="Helvetica,sans-Serif" font-size="10.00">Obj::CTrickComponent</text>
<text text-anchor="middle" x="303" y="-242.5" font-family="Helvetica,sans-Serif" font-size="10.00">::Update</text>
</a>
</g>
</g>
<!-- Node13&#45;&gt;Node14 -->
<g id="edge16" class="edge"><title>Node13&#45;&gt;Node14</title>
<path fill="none" stroke="midnightblue" d="M440.11,-250.5C413.939,-250.5 385.098,-250.5 360.727,-250.5"/>
<polygon fill="midnightblue" stroke="midnightblue" points="440.374,-254 450.374,-250.5 440.374,-247 440.374,-254"/>
</g>
<!-- Node16 -->
<g id="node16" class="node"><title>Node16</title>
<g id="a_node16"><a xlink:href="../../df/d3f/class_obj_1_1_c_trick_component.html#ad98995adc9e303a10f342a28f87519b3" target="_top" xlink:title=" ">
<polygon fill="white" stroke="black" points="459.5,-284.5 459.5,-314.5 574.5,-314.5 574.5,-284.5 459.5,-284.5"/>
<text text-anchor="start" x="467.5" y="-302.5" font-family="Helvetica,sans-Serif" font-size="10.00">Obj::CTrickComponent</text>
<text text-anchor="middle" x="517" y="-291.5" font-family="Helvetica,sans-Serif" font-size="10.00">::AddTricksToQueue</text>
</a>
</g>
</g>
<!-- Node15&#45;&gt;Node16 -->
<g id="edge18" class="edge"><title>Node15&#45;&gt;Node16</title>
<path fill="none" stroke="midnightblue" d="M663.21,-299.5C634.782,-299.5 601.975,-299.5 574.744,-299.5"/>
<polygon fill="midnightblue" stroke="midnightblue" points="663.466,-303 673.466,-299.5 663.466,-296 663.466,-303"/>
</g>
<!-- Node16&#45;&gt;Node2 -->
<g id="edge19" class="edge"><title>Node16&#45;&gt;Node2</title>
<path fill="none" stroke="midnightblue" d="M449.21,-306.431C420.782,-309.381 387.975,-312.786 360.744,-315.611"/>
<polygon fill="midnightblue" stroke="midnightblue" points="449.881,-309.88 459.466,-305.367 449.158,-302.918 449.881,-309.88"/>
</g>
<!-- Node16&#45;&gt;Node14 -->
<g id="edge20" class="edge"><title>Node16&#45;&gt;Node14</title>
<path fill="none" stroke="midnightblue" d="M449.583,-284.149C421.07,-277.559 388.094,-269.937 360.744,-263.615"/>
<polygon fill="midnightblue" stroke="midnightblue" points="448.935,-287.591 459.466,-286.433 450.511,-280.771 448.935,-287.591"/>
</g>
<!-- Node19 -->
<g id="node19" class="node"><title>Node19</title>
<g id="a_node19"><a xlink:href="../../df/d3f/class_obj_1_1_c_trick_component.html#aa8d0ce99526fff6b7326b16ddf199598" target="_top" xlink:title=" ">
<polygon fill="white" stroke="black" points="457.5,-162.5 457.5,-192.5 576.5,-192.5 576.5,-162.5 457.5,-162.5"/>
<text text-anchor="start" x="465.5" y="-180.5" font-family="Helvetica,sans-Serif" font-size="10.00">Obj::CTrickComponent</text>
<text text-anchor="middle" x="517" y="-169.5" font-family="Helvetica,sans-Serif" font-size="10.00">::TriggerAnyExtraTricks</text>
</a>
</g>
</g>
<!-- Node18&#45;&gt;Node19 -->
<g id="edge23" class="edge"><title>Node18&#45;&gt;Node19</title>
<path fill="none" stroke="midnightblue" d="M663.42,-160.351C635.584,-163.634 603.52,-167.415 576.594,-170.59"/>
<polygon fill="midnightblue" stroke="midnightblue" points="663.945,-163.814 673.466,-159.167 663.125,-156.862 663.945,-163.814"/>
</g>
<!-- Node19&#45;&gt;Node14 -->
<g id="edge24" class="edge"><title>Node19&#45;&gt;Node14</title>
<path fill="none" stroke="midnightblue" d="M462.605,-195.886C427.062,-208.125 380.948,-224.004 347.613,-235.482"/>
<polygon fill="midnightblue" stroke="midnightblue" points="464.015,-199.102 472.331,-192.537 461.736,-192.484 464.015,-199.102"/>
</g>
</g>
</svg>
        <g id="navigator" transform="translate(0 0)" fill="#404254">
                <rect fill="#f2f5e9" fill-opacity="0.5" stroke="#606060" stroke-width=".5" x="0" y="0" width="60" height="60"/>
                <use id="zoomplus" xlink:href="#zoomPlus" x="17" y="9" onmousedown="handleZoom(evt,'in')"/>
                <use id="zoomminus" xlink:href="#zoomMin" x="42" y="9" onmousedown="handleZoom(evt,'out')"/>
                <use id="reset" xlink:href="#resetDef" x="30" y="36" onmousedown="handleReset()"/>
                <g id="arrowUp" xlink:href="#dirArrow" transform="translate(30 24)" onmousedown="handlePan(0,-1)">
                  <use xlink:href="#rim" fill="#404040">
                        <set attributeName="fill" to="#808080" begin="arrowUp.mouseover" end="arrowUp.mouseout"/>
                  </use>
                  <path fill="none" stroke="white" stroke-width="1.5" d="M0,-3.0v7 M-2.5,-0.5L0,-3.0L2.5,-0.5"/>
                </g>
                <g id="arrowRight" xlink:href="#dirArrow" transform="rotate(90) translate(36 -43)" onmousedown="handlePan(1,0)">
                  <use xlink:href="#rim" fill="#404040">
                        <set attributeName="fill" to="#808080" begin="arrowRight.mouseover" end="arrowRight.mouseout"/>
                  </use>
                  <path fill="none" stroke="white" stroke-width="1.5" d="M0,-3.0v7 M-2.5,-0.5L0,-3.0L2.5,-0.5"/>
                </g>
                <g id="arrowDown" xlink:href="#dirArrow" transform="rotate(180) translate(-30 -48)" onmousedown="handlePan(0,1)">
                  <use xlink:href="#rim" fill="#404040">
                        <set attributeName="fill" to="#808080" begin="arrowDown.mouseover" end="arrowDown.mouseout"/>
                  </use>
                  <path fill="none" stroke="white" stroke-width="1.5" d="M0,-3.0v7 M-2.5,-0.5L0,-3.0L2.5,-0.5"/>
                </g>
                <g id="arrowLeft" xlink:href="#dirArrow" transform="rotate(270) translate(-36 17)" onmousedown="handlePan(-1,0)">
                  <use xlink:href="#rim" fill="#404040">
                        <set attributeName="fill" to="#808080" begin="arrowLeft.mouseover" end="arrowLeft.mouseout"/>
                  </use>
                  <path fill="none" stroke="white" stroke-width="1.5" d="M0,-3.0v7 M-2.5,-0.5L0,-3.0L2.5,-0.5"/>
                </g>
        </g>
        <svg viewBox="0 0 15 15" width="100%" height="30px" preserveAspectRatio="xMaxYMin meet">
         <g id="arrow_out" transform="scale(0.3 0.3)">
          <a xlink:href="class_obj_1_1_c_trick_component_ab2032f873ef1b643d423558a3de140cc_icgraph_org.svg" target="_base">
           <rect id="button" ry="5" rx="5" y="6" x="6" height="38" width="38"
                fill="#f2f5e9" fill-opacity="0.5" stroke="#606060" stroke-width="1.0"/>
           <path id="arrow"
             d="M 11.500037,31.436501 C 11.940474,20.09759 22.043105,11.32322 32.158766,21.979434 L 37.068811,17.246167 C 37.068811,17.246167 37.088388,32 37.088388,32 L 22.160133,31.978069 C 22.160133,31.978069 26.997745,27.140456 26.997745,27.140456 C 18.528582,18.264221 13.291696,25.230495 11.500037,31.436501 z"
             style="fill:#404040;"/>
          </a>
         </g>
        </svg>
</svg>
