<?xml version="1.0" encoding="UTF-8" standalone="no"?>
<!DOCTYPE svg PUBLIC "-//W3C//DTD SVG 1.1//EN"
 "http://www.w3.org/Graphics/SVG/1.1/DTD/svg11.dtd">
<!-- Generated by graphviz version 2.38.0 (20140413.2041)
 -->
<!-- Title: VIDSimpleDraw Pages: 1 -->
<svg width="259pt" height="104pt"
 viewBox="0.00 0.00 259.00 104.00" xmlns="http://www.w3.org/2000/svg" xmlns:xlink="http://www.w3.org/1999/xlink">
<g id="graph0" class="graph" transform="scale(1 1) rotate(0) translate(4 100)">
<title>VIDSimpleDraw</title>
<polygon fill="white" stroke="none" points="-4,4 -4,-100 255,-100 255,4 -4,4"/>
<!-- Node1 -->
<g id="node1" class="node"><title>Node1</title>
<g id="a_node1"><a xlink:title="Draw a decoded video frame.">
<polygon fill="#bfbfbf" stroke="black" points="0,-38.5 0,-57.5 84,-57.5 84,-38.5 0,-38.5"/>
<text text-anchor="middle" x="42" y="-45.5" font-family="Helvetica,sans-Serif" font-size="10.00">VIDSimpleDraw</text>
</a>
</g>
</g>
<!-- Node2 -->
<g id="node2" class="node"><title>Node2</title>
<g id="a_node2"><a xlink:href="../../d6/d5b/ngc_2p__movies_8cpp.html#a53f6148999acca8d6dddcdf8fd1b80a6" target="_top" xlink:title="Restore GX graphics context to some &#39;defaults&#39;.">
<polygon fill="white" stroke="black" points="135,-76.5 135,-95.5 236,-95.5 236,-76.5 135,-76.5"/>
<text text-anchor="middle" x="185.5" y="-83.5" font-family="Helvetica,sans-Serif" font-size="10.00">VIDDrawGXRestore</text>
</a>
</g>
</g>
<!-- Node1&#45;&gt;Node2 -->
<g id="edge1" class="edge"><title>Node1&#45;&gt;Node2</title>
<path fill="none" stroke="midnightblue" d="M78.7064,-57.589C96.9727,-62.4944 119.408,-68.5196 138.911,-73.7571"/>
<polygon fill="midnightblue" stroke="midnightblue" points="138.239,-77.2006 148.805,-76.4141 140.055,-70.4401 138.239,-77.2006"/>
</g>
<!-- Node3 -->
<g id="node3" class="node"><title>Node3</title>
<g id="a_node3"><a xlink:href="../../d6/d5b/ngc_2p__movies_8cpp.html#aa2f6ccf303808eb4344d581b21881a9b" target="_top" xlink:title="Draw a textured polygon using the decoded image a texture.">
<polygon fill="white" stroke="black" points="122,-38.5 122,-57.5 249,-57.5 249,-38.5 122,-38.5"/>
<text text-anchor="middle" x="185.5" y="-45.5" font-family="Helvetica,sans-Serif" font-size="10.00">VIDDrawGXYuv2RgbDraw</text>
</a>
</g>
</g>
<!-- Node1&#45;&gt;Node3 -->
<g id="edge2" class="edge"><title>Node1&#45;&gt;Node3</title>
<path fill="none" stroke="midnightblue" d="M84.308,-48C92.9344,-48 102.272,-48 111.658,-48"/>
<polygon fill="midnightblue" stroke="midnightblue" points="111.831,-51.5001 121.831,-48 111.831,-44.5001 111.831,-51.5001"/>
</g>
<!-- Node4 -->
<g id="node4" class="node"><title>Node4</title>
<g id="a_node4"><a xlink:href="../../d6/d5b/ngc_2p__movies_8cpp.html#a3bc8a3e635d331139856e6ada86702fc" target="_top" xlink:title="Setup GX for YUV conversion.">
<polygon fill="white" stroke="black" points="120,-0.5 120,-19.5 251,-19.5 251,-0.5 120,-0.5"/>
<text text-anchor="middle" x="185.5" y="-7.5" font-family="Helvetica,sans-Serif" font-size="10.00">VIDDrawGXYuv2RgbSetup</text>
</a>
</g>
</g>
<!-- Node1&#45;&gt;Node4 -->
<g id="edge3" class="edge"><title>Node1&#45;&gt;Node4</title>
<path fill="none" stroke="midnightblue" d="M78.7064,-38.411C96.9727,-33.5056 119.408,-27.4804 138.911,-22.2429"/>
<polygon fill="midnightblue" stroke="midnightblue" points="140.055,-25.5599 148.805,-19.5859 138.239,-18.7994 140.055,-25.5599"/>
</g>
</g>
</svg>
